<?xml version="1.0" encoding="UTF-8" standalone="no"?>
<!-- Created with Inkscape (http://www.inkscape.org/) -->
<svg
   xmlns:dc="http://purl.org/dc/elements/1.1/"
   xmlns:cc="http://web.resource.org/cc/"
   xmlns:rdf="http://www.w3.org/1999/02/22-rdf-syntax-ns#"
   xmlns:svg="http://www.w3.org/2000/svg"
   xmlns="http://www.w3.org/2000/svg"
   xmlns:sodipodi="http://sodipodi.sourceforge.net/DTD/sodipodi-0.dtd"
   xmlns:inkscape="http://www.inkscape.org/namespaces/inkscape"
   id="svg2"
   sodipodi:version="0.32"
   inkscape:version="0.44"
   width="223"
   height="284"
   version="1.0"
   sodipodi:docbase="C:\Documents and Settings\James\Desktop"
   sodipodi:docname="bedroom_eyes.png.svg">
  <metadata
     id="metadata7">
    <rdf:RDF>
      <cc:Work
         rdf:about="">
        <dc:format>image/svg+xml</dc:format>
        <dc:type
           rdf:resource="http://purl.org/dc/dcmitype/StillImage" />
      </cc:Work>
    </rdf:RDF>
  </metadata>
  <defs
     id="defs5" />
  <sodipodi:namedview
     inkscape:window-height="573"
     inkscape:window-width="853"
     inkscape:pageshadow="2"
     inkscape:pageopacity="0.0"
     guidetolerance="10.0"
     gridtolerance="10.0"
     objecttolerance="10.0"
     borderopacity="1.0"
     bordercolor="#666666"
     pagecolor="#ffffff"
     id="base"
     inkscape:zoom="1.3274648"
     inkscape:cx="111.5"
     inkscape:cy="142"
     inkscape:window-x="110"
     inkscape:window-y="145"
     inkscape:current-layer="svg2" />
  <path
     style="fill:black"
     d="M 14.270481,282.29694 C 3.9297998,274.69121 0.74775866,260.1491 0.068879591,247.89146 C 0.69958944,215.59828 7.7223231,183.84996 10.674051,151.73844 C 14.775214,120.50453 18.002034,88.619377 28.907683,58.883272 C 39.388553,40.655705 54.463739,25.206215 70.769679,12.081978 C 94.818347,-2.7444097 126.82288,-3.943095 151.44775,10.281523 C 167.38076,18.602306 184.88769,28.04468 191.51128,45.964435 C 202.36746,71.149799 206.21191,98.59979 213.08767,125.0014 C 218.34448,149.49259 226.37418,174.84021 221.09198,199.99867 C 219.48475,210.83496 207.60089,205.22451 213.32192,196.26336 C 217.58905,178.2299 211.15348,160.00664 208.01623,142.28098 C 200.52831,111.47402 197.14844,79.402602 184.92564,49.941161 C 177.57314,32.814563 159.44726,24.802267 144.86156,14.905258 C 122.71225,2.4260345 93.843566,5.5485191 72.489102,18.262025 C 55.811461,30.557175 42.729388,47.41517 32.205507,65.10317 C 22.30129,93.08274 19.623597,123.01433 15.692556,152.28681 C 12.629382,182.10195 8.4922735,211.7961 5.0914009,241.56356 C 6.0627254,255.90819 11.041729,270.23303 18.113075,282.57399 L 16.941017,282.73224 L 14.270481,282.29695 L 14.270481,282.29694 z M 31.786148,276.60349 C 16.971917,263.49816 14.499952,241.67015 15.601013,223.02217 C 20.935282,206.44454 20.35615,234.94161 21.602954,240.31855 C 22.707684,254.2329 29.558769,266.75214 39.113166,276.69115 C 45.546266,284.97527 33.488232,278.9668 31.786148,276.60349 z M 174.2,274.79999 C 172.91325,262.80306 181.80636,250.66093 182.94022,238.13775 C 188.95355,214.47544 192.423,189.72568 187.49438,165.51028 C 185.17135,151.30529 181.10917,137.32252 174.5,124.5 C 173.81639,163.527 174.54291,202.61116 172.37983,241.58678 C 169.71908,252.15628 169.63042,269.12043 159.35732,273.53217 C 158.98076,262.9882 165.3847,251.73431 165.42037,240.46053 C 166.54395,222.60273 167.80425,204.65902 167.1396,186.7728 C 158.86166,195.9917 152.13562,207.04098 142.30448,215.03925 C 136.25336,223.87126 113.12372,222.36802 125.54484,235.72416 C 130.26892,246.36061 136.95417,256.7259 138.7072,268.28686 C 129.07195,266.52866 127.67602,248.30895 121.75325,239.9423 C 118.97262,226.19185 105.13595,224.35951 96.284013,215.93032 C 78.122829,201.31052 61.605844,183.15688 55.488919,160.07491 C 50.479836,149.23218 51.748036,170.96146 51.176083,175.46526 C 50.645751,200.38755 62.980679,223.02431 77.105905,242.68736 C 79.88725,246.46623 93.150187,264.58523 82.162424,261.41442 C 71.414249,247.38943 61.949144,232.2466 53.429368,216.76325 C 44.162837,195.44247 41.41901,171.2203 47.297726,148.58947 C 49.353592,135.83274 53.369047,123.17654 53.707338,110.2783 C 46.022026,111.84793 32.4677,124.32221 28.370168,119.75218 C 40.234193,111.35682 53.578167,104.8125 63.304064,93.661702 C 79.967838,77.535709 97.930545,62.230787 118.46731,51.307693 C 132.57274,41.682385 133.13624,63.536899 139.81237,70.995396 C 153.63135,89.271047 173.27899,103.52399 182.79152,124.88548 C 192.29186,151.37215 200.04709,179.74612 197.12172,208.12218 C 193.68709,229.22074 189.19244,250.40004 181.55578,270.4062 C 180.39024,272.99869 177.4728,278.38833 174.2,274.79999 z M 131.2357,218.92928 C 146.88272,209.33507 158.30874,193.80936 166.43177,177.78044 C 166.56388,155.45153 168.32639,132.84732 163.98534,110.80778 C 154.65903,91.064639 133.82755,78.635366 126.91195,57.382964 C 116.70776,56.708727 106.60127,65.744607 97.895008,71.326176 C 84.285546,81.497993 72.226029,93.50498 60,105.25354 C 60.496453,109.202 59.025353,114.92672 60.715915,117.79716 C 65.674012,117.52098 83.421303,120.87759 73.030361,124.0325 C 67.569609,123.52025 87.526599,136.27709 77.278337,140.6121 C 69.121637,146.44948 48.929402,134.28998 56.1729,151.13614 C 62.170877,171.21472 74.240825,189.13332 87.883675,204.80518 C 98.104778,211.6835 107.23325,222.85015 120.23812,223.59692 C 124.24921,223.04975 127.7939,220.91098 131.2357,218.92928 z M 98.75,204.49142 C 96.109747,200.09489 85.952425,195.95381 90.674152,190.15412 C 92.315957,182.80321 96.94269,183.02807 101.48797,185.86789 C 109.20678,178.18789 120.77755,188.42775 129.55841,185.29161 C 124.33559,195.50967 115.17753,208.27056 101.85289,205.43436 L 100.12491,205.05631 L 98.75,204.49143 L 98.75,204.49142 z M 106.5,194.48581 C 117.15826,192.14476 103.28721,193.22792 100.15822,195.73444 C 102.23956,196.20161 104.46469,194.79264 106.5,194.48581 z M 90.321175,174.81126 C 80.74643,171.92124 89.689042,144.0701 90.785362,162.27105 C 89.497472,177.4813 105.3439,166.50682 109.95804,167.07504 C 105.39927,172.51349 97.731401,178.6952 90.321175,174.81126 z M 107.71831,130.27943 C 106.15534,116.95631 122.14259,103.96258 134.63419,111.09854 C 139.17798,114.07847 122.45572,108.31454 119.49443,112.95188 C 114.26749,113.73473 106.47726,126.05229 115.36013,116.9417 C 120.57258,108.47907 147.45931,111.15641 137.58164,122.95956 C 130.92539,131.21418 116.69499,136.19173 107.71831,130.27943 z M 119.03518,127.06574 C 119.38294,113.51324 107.04865,132.80051 119.39528,128.67448 L 119.48841,128.08978 L 119.03518,127.06574 L 119.03518,127.06574 z M 134.77831,120.08735 C 128.53343,113.89468 130.45168,133.89407 134.40414,121.91713 L 134.77831,120.08735 L 134.77831,120.08735 z M 126,123.03138 C 122.94389,120.82008 121.47251,126.52542 126,123.03138 z M 95.347336,116.46275 C 100.4735,105.89509 116.10962,104.79202 126.73943,101.62273 C 133.08754,98.963623 148.60599,105.31226 133.89468,103.34519 C 119.40566,101.7684 107.47192,117.679 95.347334,116.46275 L 95.347336,116.46275 z M 64.478394,139.25 C 64.789435,130.23644 54.994659,133.61969 61.571315,140.17632 C 62.091969,141.396 65.983531,141.41784 64.478394,139.25 z M 70.553848,136.91287 C 69.65603,128.23989 63.910609,141.46172 70.553848,136.91287 z M 72.5,129 C 69.31908,127.49458 53.413247,128.29852 64.507094,128.89016 C 66.241456,128.37247 72.796665,131.29043 72.5,129 z M 64.730965,125.30701 C 58.91134,124.4512 63.580375,126.96639 64.730968,125.30701 L 64.730965,125.30701 z M 63,122.38337 C 58.647936,120.50655 57.835871,125.33204 63,122.38337 z M 102.36966,273.52094 C 99.177665,256.29182 96.626899,238.86959 95.146707,221.40933 C 102.60496,229.57472 103.0461,243.2704 105.64442,254.09027 C 105.36597,257.59741 111.11907,279.91111 102.36966,273.52094 z M 120.73775,272.7225 C 115.04191,260.69135 110.25685,247.82435 108.30879,234.63769 C 118.08489,234.23651 119.79898,255.45315 122.96055,264.48466 C 123.38812,266.34213 125.58233,279.19245 120.73775,272.7225 z M 45.305294,266.93408 C 32.871892,256.09554 29.34845,238.52341 26.818475,222.928 C 24.822337,202.87583 23.557835,182.36534 28.923905,162.68717 C 32.164496,150.565 32.904229,136.66091 40.939299,126.56205 C 49.814236,128.5461 36.897922,143.85052 36.997177,151.07471 C 27.412765,185.13639 26.026381,224.41739 44.555222,255.79367 C 46.803878,259.54942 58.558679,273.23472 45.305294,266.93408 z M 82.90786,248.8018 C 73.68759,232.23379 64.261641,215.37607 58.679774,197.19825 C 56.075511,191.83562 56.869655,170.06537 61.348533,186.21877 C 64.219367,210.11732 77.769267,230.53963 88.641431,251.3897 C 90.137472,258.67515 83.769201,250.63873 82.90786,248.8018 z M 197.66667,254.33333 C 196.91563,239.97672 205.02325,225.96307 204.09167,211.16056 C 205.40523,173.81661 203.30378,133.80737 182.14934,101.61982 C 179.42076,90.717175 192.76036,108.51039 193.45467,112.60651 C 202.61305,133.05403 207.58001,155.38652 209.79006,177.63448 C 211.26944,202.9133 210.98024,229.26192 201.72,253.14706 C 201.27227,254.66407 198.83782,256.08343 197.66667,254.33333 z M 89.438591,245.75 C 81.780991,233.87713 75.38433,220.9184 71.271136,207.39038 C 72.824755,198.76977 80.290157,222.32472 83.604409,226.76796 C 85.01792,233.03782 98.253773,246.77867 91.62345,248.04531 L 90.569405,247.01191 L 89.438591,245.75 L 89.438591,245.75 z M 36.851849,101.20806 C 51.910546,83.303551 71.192051,69.914079 90.693522,57.327139 C 102.12891,49.9981 111.88614,40.42899 122.78984,32.459149 C 128.3635,37.504841 111.03041,47.14929 106.15097,51.899724 C 84.829045,67.320384 63.125274,82.24704 43.114859,99.384647 C 42.060056,100.17099 32.373867,107.68801 36.851849,101.20806 z M 160.66942,81.077667 C 151.80927,69.765926 142.02742,57.92721 138.68071,43.675591 C 141.30966,33.431581 148.89218,56.53183 153.16054,60.354854 C 155.99777,68.16641 170.86855,79.51511 165.42335,85.60786 C 163.5832,84.379441 162.20348,82.635939 160.66942,81.077667 z M 34,82.054817 C 42.361418,61.572802 58.193888,45.008553 74.202836,30.16126 C 79.844947,24.92059 94.84549,15.7257 99.39227,21.034742 C 88.971962,26.954707 77.442792,31.657951 69.571965,41.289472 C 56.577671,53.982019 47.425389,70.107945 34.67554,82.882906 L 34.161126,82.785028 L 34,82.054817 L 34,82.054817 z M 55.666668,73.333336 C 60.010715,62.515578 74.260195,55.418571 83.31499,46.945173 C 86.671233,42.252556 107.39415,31.186418 94.883865,42.990679 C 82.283725,53.460068 69.679407,63.937823 56.751671,74 L 55.666667,73.333333 L 55.666668,73.333336 z M 172.6254,66.75 C 168.82118,57.807069 155.69684,46.174596 157.71301,38.183247 C 165.37273,46.293826 176.34783,58.161161 175.69612,69.06326 L 174.2467,68.571658 L 172.62539,66.75 L 172.6254,66.75 z "
     id="path2758" />
</svg>
