<?xml version="1.0" encoding="utf-8"?>
<!-- Generator: Adobe Illustrator 13.0.2, SVG Export Plug-In . SVG Version: 6.00 Build 14948)  -->
<!DOCTYPE svg PUBLIC "-//W3C//DTD SVG 1.1//EN" "http://www.w3.org/Graphics/SVG/1.1/DTD/svg11.dtd" [
	<!ENTITY ns_extend "http://ns.adobe.com/Extensibility/1.0/">
	<!ENTITY ns_ai "http://ns.adobe.com/AdobeIllustrator/10.0/">
	<!ENTITY ns_graphs "http://ns.adobe.com/Graphs/1.0/">
	<!ENTITY ns_vars "http://ns.adobe.com/Variables/1.0/">
	<!ENTITY ns_imrep "http://ns.adobe.com/ImageReplacement/1.0/">
	<!ENTITY ns_sfw "http://ns.adobe.com/SaveForWeb/1.0/">
	<!ENTITY ns_custom "http://ns.adobe.com/GenericCustomNamespace/1.0/">
	<!ENTITY ns_adobe_xpath "http://ns.adobe.com/XPath/1.0/">
]>
<svg version="1.1" id="native_tracker_xA0_Image_1_" xmlns:x="&ns_extend;" xmlns:i="&ns_ai;" xmlns:graph="&ns_graphs;"
	 xmlns="http://www.w3.org/2000/svg" xmlns:xlink="http://www.w3.org/1999/xlink" x="0px" y="0px" width="84.011px"
	 height="127.487px" viewBox="0 0 84.011 127.487" enable-background="new 0 0 84.011 127.487" xml:space="preserve">
<metadata>
	<sfw  xmlns="&ns_sfw;">
		<slices></slices>
		<sliceSourceBounds  x="94.905" y="144.673" width="84.011" height="127.487" bottomLeftOrigin="true"></sliceSourceBounds>
	</sfw>
</metadata>
<g>
	<path fill-rule="evenodd" clip-rule="evenodd" d="M37.455,2.64c0.083-0.29,0.639-0.194,0.72,0
		C38.393,3.159,37.296,3.196,37.455,2.64z"/>
	<path fill-rule="evenodd" clip-rule="evenodd" d="M34.335,6.24c0.957,1.129-1.077,1.314-0.48,2.88c-2.4-0.844-2.459,2.201-4.8,2.16
		C30.209,8.994,32.869,8.214,34.335,6.24z"/>
	<path fill-rule="evenodd" clip-rule="evenodd" d="M44.175,15.6c0.627-0.068,1.032,0.087,0.96,0.72
		C44.676,16.219,44.102,16.233,44.175,15.6z"/>
	<path fill-rule="evenodd" clip-rule="evenodd" d="M39.375,15.84c0.679-0.198,0.622,0.338,1.2,0.24
		c0.115,0.755-0.342,0.938-0.48,1.44C39.196,17.615,38.857,16.428,39.375,15.84z"/>
	<path fill-rule="evenodd" clip-rule="evenodd" d="M38.175,18.96c0.13,1.459,3.291,2.819,0.96,3.84
		c0.186-2.347-1.849-2.472-3.12-3.36C36.1,18.644,37.398,19.063,38.175,18.96z"/>
	<path fill-rule="evenodd" clip-rule="evenodd" d="M37.455,20.88c-0.192,0.833,0.357,0.923,0.24,1.68
		c-1.118-0.445-0.867,1.524-0.24,1.44c-0.526-0.057-1.894,0.155-2.64-0.48c0.019-0.861,1.569-0.191,1.92-0.72
		c-0.763-0.299-2.027-0.417-3.36-0.72C34.057,20.489,36.052,21.7,37.455,20.88z"/>
	<path fill-rule="evenodd" clip-rule="evenodd" d="M47.055,22.8c0.989,0.131,1.488,0.751,2.16,1.2
		C48.702,25.418,46.899,24.176,47.055,22.8z"/>
	<path fill-rule="evenodd" clip-rule="evenodd" d="M43.695,30.96c0.612,1.407-2.059,3.402-3.12,2.4
		C41.065,32.01,42.341,31.446,43.695,30.96z"/>
	<path fill-rule="evenodd" clip-rule="evenodd" d="M41.295,31.2c-0.105,0.295-0.307,0.493-0.72,0.48
		C40.463,31.168,40.918,31.223,41.295,31.2z"/>
	<path fill-rule="evenodd" clip-rule="evenodd" d="M38.895,36c0.279-0.039,0.427,0.053,0.48,0.24c0.669,2.813-0.944,6.053,0,9.36
		C36.207,45.251,38.589,38.684,38.895,36z"/>
	<path fill-rule="evenodd" clip-rule="evenodd" d="M44.415,46.8c-0.613,0.747-1.343,1.376-2.64,1.44
		c-0.476-0.454-0.117-1.134,0-1.68C42.928,46.64,43.787,45.943,44.415,46.8z"/>
	<path fill-rule="evenodd" clip-rule="evenodd" d="M56.175,50.88c0.24,0,0.479,0,0.72,0c0.184,0.566,0.474,1.659,0,2.16
		C56.244,52.731,56.167,51.847,56.175,50.88z"/>
	<path fill-rule="evenodd" clip-rule="evenodd" d="M57.135,55.92c0.388-0.067,0.413,0.227,0.72,0.24
		c-0.154,4.725-1.077,8.683-2.399,12.24c-0.112,0.848,0.392,2.312-0.721,2.16C54.613,65.71,56.662,60.973,57.135,55.92z"/>
	<path fill-rule="evenodd" clip-rule="evenodd" d="M30.495,112.32c0.023,0.895,0.937,0.016,0.96,0.479
		c0.644,1.517,0.841,3.479,0.96,5.521c-1.526-0.634-0.241-4.079-1.44-5.04c-1.155,2.134,1.27,9.469-1.68,10.56
		c0.758-0.77-0.245-0.574-0.24-1.439c0.004-0.812,0.562-1.407,0.72-2.16c0.737-3.52-0.112-8.109,0-11.76
		c0.017-0.55-0.163-1.445-0.24-2.16c-0.077-0.71,0.082-1.45,0-1.92c-0.096-0.558-0.467-0.671-0.48-1.2
		c-0.012-0.507,0.282-1.147,0.24-1.68c-0.139-1.771-1.18-3.314-0.24-5.04c1.092,1.841,0.917,4.476,0.96,7.199
		C30.063,106.658,31.124,109.808,30.495,112.32z"/>
	<path fill-rule="evenodd" clip-rule="evenodd" d="M49.695,97.68c1.387,0.332,2.035,4.146,0.48,4.561
		C49.783,100.727,49.704,98.985,49.695,97.68z"/>
	<path fill-rule="evenodd" clip-rule="evenodd" d="M52.576,99.12c0.833,0.307,1.702,1.957,0.72,2.64
		C52.454,101.481,52.77,100.045,52.576,99.12z"/>
	<path fill-rule="evenodd" clip-rule="evenodd" d="M24.735,100.32c-0.313,0.995,0.822,2.67,0.24,3.84
		c-1.268-0.412-0.982-2.378-1.44-3.6C23.814,100.358,24.179,100.243,24.735,100.32z"/>
	<path fill-rule="evenodd" clip-rule="evenodd" d="M54.015,105.6c0.388-0.067,0.413,0.228,0.72,0.24c0.599,2.442,2.645,3.437,3.12,6
		C56.568,109.913,54.082,107.954,54.015,105.6z"/>
	<path fill-rule="evenodd" clip-rule="evenodd" d="M10.335,109.2c0.96-0.16,0.965,0.635,0.96,1.439
		C10.527,110.608,10.239,110.096,10.335,109.2z"/>
	<path fill-rule="evenodd" clip-rule="evenodd" d="M13.935,109.92c1.929,1.684,3.497,4.967,3.6,7.68
		c-1.646-0.114-1.163-2.357-1.68-3.6c-1.258,0.022-2.432,0.129-2.64,1.2c-0.988-0.312-0.051-1.665,0.48-1.92
		C13.618,112.188,13.055,110.579,13.935,109.92z"/>
	<path fill-rule="evenodd" clip-rule="evenodd" d="M70.095,110.16c0.842,0.278,0.525,1.715,0.72,2.64
		c0.219,0.581,0.709-0.544,1.44-0.239c0.7,0.36-1.25,2.248,0.479,2.159c-0.328,1.513-0.883,2.797-1.439,4.08
		c-1.295-0.678,0.934-4.032-0.48-5.52c-1.034-0.314-0.297,1.143-1.2,0.96C69.745,112.85,69.25,110.835,70.095,110.16z"/>
	<path fill-rule="evenodd" clip-rule="evenodd" d="M24.735,112.8c0.963,0.166,1.844,1.393,1.44,2.16
		C25.156,114.779,25.105,113.63,24.735,112.8z"/>
	<path fill-rule="evenodd" clip-rule="evenodd" d="M44.415,113.04c0.364,0.596,0.463,1.457,0.48,2.4
		C43.901,115.474,44.645,113.771,44.415,113.04z"/>
	<path fill-rule="evenodd" clip-rule="evenodd" d="M45.375,115.2c0.597,0.036,0.07,0.812,0,0.96
		C44.778,116.124,45.305,115.348,45.375,115.2z"/>
	<path fill-rule="evenodd" clip-rule="evenodd" d="M65.775,115.2c1.319,0.566-0.632,1.914,0.48,2.399
		c-0.17,0.871-1.053,1.027-0.72,2.4c0.319,0.4,1.066,0.373,1.439,0.72c-0.031,0.895,0.948,1.572,0.48,2.16
		c-1.11-0.01-0.771-1.469-1.44-1.92c-0.319,0.24-0.725,0.396-0.96,0.72C64.374,120.149,65.293,117.418,65.775,115.2z"/>
	<path fill-rule="evenodd" clip-rule="evenodd" d="M61.215,126.72c0.026,0.588,0.793,0.052,0.72-0.239
		c0.621,0.406-0.371,1.209-1.2,0.96c0-0.24,0-0.48,0-0.721c-3.197,0.937-2.434-4.109-3.84-5.76c-0.753-0.118-0.634,0.827-1.2,0.24
		c-0.474-2.006-1.572-3.388-2.399-5.04c1.55,0.45,1.787,2.213,2.399,3.6c2.947,0.333,2.48,4.08,3.841,6
		c1.072-0.207,1.828-0.731,2.64-1.199c0.244-1.036,0.207-2.353,1.439-2.4c0.91,1.946-1.348,3.031-0.96,4.56
		C62.419,126.076,61.625,126.278,61.215,126.72z"/>
	<path fill-rule="evenodd" clip-rule="evenodd" d="M24.975,120.48c-1.538-0.302-1.447-2.233-2.16-3.36
		C23.974,116.901,24.771,118.961,24.975,120.48z"/>
	<path fill-rule="evenodd" clip-rule="evenodd" d="M68.655,120.48c-0.962-0.718-1.07-2.29-1.92-3.12
		C68.013,116.706,68.807,119.719,68.655,120.48z"/>
	<path fill-rule="evenodd" clip-rule="evenodd" d="M25.935,117.6c0.706,0.175,1.012,0.749,0.96,1.681
		C25.912,119.4,25.542,118.113,25.935,117.6z"/>
	<path fill-rule="evenodd" clip-rule="evenodd" d="M55.456,123.36c-2.289-0.751-1.565-4.516-4.561-4.561
		c0.173,0.628,0.783,0.817,0.96,1.44c-0.206,1.007-1.598,0.751-2.16,0.24c0.969-0.813,0.205-1.312,0.48-2.4
		C53.396,117.47,54.287,121.131,55.456,123.36z"/>
	<path fill-rule="evenodd" clip-rule="evenodd" d="M47.295,118.08c0.315,0.085,0.377,0.423,0.72,0.48
		c-0.681,0.759-0.837,2.043-2.4,1.92C45.685,119.189,46.802,118.947,47.295,118.08z"/>
	<path fill-rule="evenodd" clip-rule="evenodd" d="M40.575,118.32c0.855-0.055,1.255,0.345,1.2,1.2
		c1.026,0.065,1.223-0.697,1.68-1.2c0.906,1.209-0.613,3.547-1.44,4.56c-1.017-0.581,0.514-1.315-0.48-1.92
		c-0.586,0.134-0.511,0.929-1.44,0.72C39.951,119.883,39.835,119.677,40.575,118.32z"/>
	<path fill-rule="evenodd" clip-rule="evenodd" d="M40.575,29.04c0.42,1.541-1.288,0.952-1.44,1.92c-0.438,0.556,0.668,1.022,0,1.92
		c-1.217-0.863-1.219-2.94-2.88-3.36c0.166-1.206-0.964-1.116-0.72-2.4c-1.587,0.632-3.06-2.155-3.84-3.84
		c-0.833-0.033-0.384,1.216-1.2,1.2c-1.687-1.273-2.088-3.832-4.8-4.08c0.248-1.832,1.912-2.248,2.4-3.84
		c0.073-1.431-1.252-3.085-1.44-5.04c-0.439-4.579,0.57-10.749,6.24-8.64c1.545-0.855,2.803-1.998,4.32-2.88
		c2.147,1.052,3.991,2.409,5.76,3.84c0.068,3.245,3.941,4.128,5.521,6c1.039,1.978,1.97,5.753,0,7.44
		c-1.354,0.085-1.768,1.112-2.88,1.44c0.404,1.516,2.409,1.431,2.64,3.12c-1.341,0.697-1.566-1.322-3.12-0.48
		c0.098,1.822,1.725,2.116,2.16,3.6c-1.644,0.552-3.525-0.596-4.08-1.92c-1.764,1.418,0.388,3.092,0.96,4.32
		c1.183,0.097,1.577,0.983,2.88,0.96c0.672,1.501,2.674,1.238,3.84,2.16c0.775,0.613,0.537,1.729,1.681,1.92
		c0.457,1.926,1.711,3.197,2.399,5.04c0.729,1.953,0.636,4.038,1.2,6c0.53,1.846,2.083,3.453,2.4,5.28
		c0.091,0.526-0.151,1.169,0,1.68c0.478,1.618,2.117,2.903,2.159,4.56c0.031,1.225-1.132,2.143-1.439,3.36
		c-0.383,1.514-0.134,4.213-0.48,6.24c-0.22,1.285-0.778,2.238-0.72,3.12c0.146,2.181,2.851,5.491,2.4,8.881
		c-0.115,0.86-0.919,1.557-1.2,2.64c-1.308,0.048-2.255,0.639-2.641,2.16c-0.563,0.076-0.9,0.379-1.68,0.239
		c4.638,4.003,9.682,7.6,14.16,11.761c1.003-0.203,1.134,0.466,1.92,0.479c1.728,2.433,3.912,4.408,6.72,5.76
		c0.946,1.854,2.852,2.749,4.32,4.08c0.739,0.168,0.461,0.168,1.2,0c0.655,0.778,1.1,2.675,0.24,3.601
		c-0.279-0.039-0.428,0.053-0.48,0.24c-3.354-0.447-4.755-3.404-6.72-5.521c-0.726-0.154-1.385-0.375-1.44-1.2
		c-2.024-0.935-3.513-2.407-5.04-3.84c-0.565,0.006-0.706-0.413-1.439-0.24c-2.309-3.451-6.43-5.091-9.12-8.159
		c-0.825,0.104-1.346-0.096-1.92-0.24c-0.009-1.992-1.809-2.192-2.4-3.601c-1.42,6.147-0.636,16.907,4.32,21.12
		c0.835-1.005,0.478-3.202,2.16-3.359c-0.285,2.56-0.879,6.768,0.479,8.88c0.9-1.021,0.715-3.126,1.92-3.84
		c0.167,0.952-0.418,2.658,0.48,2.88c1.078-1.082,0.239-4.08,2.399-4.08c-0.044,1.478-1.31,2.721-1.199,5.279
		c0.055,1.279,1.341,2.483,0,3.12c-1.059,0.339-0.004-1.436-0.721-1.439c-0.833,0.366-1.54,0.859-2.16,1.439
		c0.269,2.053,1.525,3.115,1.681,5.28c-1.525-1.003-1.569-2.371-2.16-4.32c-0.203-0.668-0.739-1.088-0.96-1.68
		c-0.858-2.3-0.859-4.432-1.92-6.479c-0.35-0.675-0.911-1.473-1.44-2.16c-0.522-0.68-1.421-1.137-1.92-1.92
		c-0.832-1.307-1.12-3.816-1.68-5.761c-0.906-3.148-2.084-8.754-0.24-12.96c-0.659-2.061-4.022-1.417-5.04-3.12
		c-0.481-2.958-2.876-4.004-4.8-5.52c-0.651,1.262-0.753,4.212-0.48,6.24c0.24,1.78,1.564,4.647,2.16,6.479
		c0.596,1.831,0.494,3.814,0.96,5.521c0.245,0.896,0.963,1.548,1.2,2.399c0.514,1.841-0.052,4.119,1.2,5.521
		c0.058,0.422,0.413,0.547,0.96,0.479c-0.531,0.752,0.476,0.77,0.72,1.2c0.721,1.271,1.018,3.094,2.641,3.601
		c2.112,5.728,7.171,9.788,7.439,16.56c-1.485-1.074-1.169-4.484-2.88-5.76c0.029-1.069-0.592-1.488-0.72-2.4
		c-0.87-0.229-0.244,1.036-0.721,1.2c-0.934-0.426-0.845-1.875-2.159-1.92c-0.238-1.856-0.928-3.53-0.48-4.8
		c-0.646-0.166-0.464,0.496-0.72,0.72c-0.676-0.242,0.066-1.02,0-1.44c-2.411-2.709-4.199-6.04-6.24-9.119
		c-0.092-1.13,0.218-2.469-0.24-3.36c-1.54-3.005-1.477-6.472-2.64-9.601c-2.036,1.805-2.938,4.743-5.52,6
		c-1.422,2.353-3.312,4.771-2.64,9.601c0.059,0.424,0.432,0.963,0.48,1.439c0.304,3.042-0.293,6.412,1.44,8.4
		c0.726-0.664-0.572-1.334-0.48-2.16c0.424-0.936,1.139-1.581,1.92-2.16c0,0.721,0,1.44,0,2.16c1.736,0.216,0.515-2.524,1.44-3.12
		c1.167,0.893-0.185,2.87,0.24,4.561c2.015-1.15,0.264-4.438,1.68-5.76c0.578-0.099,0.521,0.438,1.2,0.239
		c0.361,1.128,0.155,2.274,0.24,4.08c-0.147,0.333-0.924,0.036-0.96,0.48c-0.159,1.119,0.378,1.542,0.48,2.399
		c-0.792,0.088-1.052,0.709-1.44,1.2c-1.293-0.668-1.31-2.339-1.68-3.36c-0.272,1.46-0.11,2.797-0.96,4.08
		c-0.676-0.242,0.066-1.019,0-1.439c-0.96,0.835-0.468,1.878-1.44,2.88c-0.125,1.324,0.648,2.209,0.24,3.12
		c-1.58-0.02-0.103-3.098-0.96-3.84c-0.657,0.542,0.158,2.557-0.48,3.12c-0.578,0.098-0.521-0.438-1.2-0.24
		c-0.476-0.454-0.117-1.134,0-1.681c-1.846,0.111-0.479,1.945-1.68,2.641c-1.912-1.312,1.364-3.719,0.48-5.521
		c0.057-0.743,0.668-0.932,0.96-1.439c0.309-6.967-1.673-14.686,0.96-19.92c0.972-0.868,2.021-1.66,2.64-2.88
		c-0.03-0.53-1.018-0.103-1.44-0.24c0.532-3.602,1.655-8.003-0.24-11.04c-3.294,4.174-4.542,11.58-6.96,15.84
		c0.377,0.854,1.021,0.048,1.92,0.48c0.189,2.145-0.684,4.388-2.64,3.6c0.554-1.046,1.598-1.603,1.92-2.88
		c-0.279,0.039-0.427-0.053-0.48-0.24c-0.592-1.034-1.227,1.136-1.68,0.24c-0.61-0.499,0.042-1.461,0.24-2.16
		c0.695-2.464,2.178-4.669,2.88-6.96c-0.238-0.508-1.462,0.466-1.44-0.72c0.564-0.798,0.846-0.629,1.68-0.24
		c0.64-1.894,2.047-4.954,3.6-6.72c0.247-0.807-0.746-0.374-1.2-0.48c-0.118-3.229,3.795-6.211,1.44-8.64
		c-1.726,1.074-2.061,3.539-3.6,4.8c-0.158,0.878,0.52,0.921,0.48,1.68c-0.566,1.439,0.1,2.928-0.96,4.08
		c0.521,1.164,0.395,3.534-0.96,3.601c-0.586,0.158-0.877-1.166-1.2-0.48c-0.364-1.255-0.105-2.77,0.24-4.32
		c0.784,0.372-0.004,2.905,0.72,4.08c0.893,0.253,0.471-0.809,0.96-0.96c-0.206-2.578,0.223-4.057,0.24-6.479
		c0.108-0.668-1.308,0.188-1.2-0.48c-0.262-2.13,1.213-4.525,2.64-5.76c-0.091,1.829-1.792,2.048-1.92,3.84
		c1.929-0.711,2.253-3.027,3.84-4.08c-0.509-1.382-1.763-1.069-2.64-1.68c-1.454,2.257-3.293,4.354-3.84,8.16
		c-0.248,1.729-1.065,4.189-0.96,5.52c0.157,1.985,2.127,3.232,1.92,5.28c-1.619-0.621-1.503-2.977-2.88-3.84
		c0.196-1.972,0.227-3.961,0.72-6.48c0.068-0.349,0.423-0.656,0.48-0.96c0.151-0.809-0.058-2.251,0.48-3.359
		c0.25-0.518,1.048-0.871,1.44-1.44c0.928-1.347,1.225-2.681,2.4-3.84c-2.386-0.957-3.91-3.825-7.2-4.56
		c-0.461-0.339-0.434-1.166-0.72-1.68c-1.722-1.158-2.9-2.86-5.04-3.6c-0.149-0.65-1.003-0.597-0.96-1.44
		c-1.653-0.281-2.522-1.949-3.84-2.88c-0.132-0.093-0.616,0.118-0.72,0c-0.068-0.077,0.08-0.42,0-0.48
		c-2.589-1.949-5.302-3.746-7.92-6c-0.45-0.387-0.781-1.118-1.2-1.44c-0.493-0.379-1.228-0.338-1.68-0.72
		c-0.293-0.248-0.186-0.744-0.48-0.96c-1.186-0.869-2.596-1.17-3.36-2.64c-0.146-1.426,0.783-1.777,1.44-2.4
		c0.972,0.068,1.668,0.412,2.64,0.48c1.533,2.547,4.067,4.093,6.48,5.76c-0.155,1.035,1.006,0.753,0.96,1.68
		c3.641,2.141,6.546,5.181,9.84,7.92c0.956,0.794,1.965,1.248,3.12,2.16c1.025,0.809,1.838,2.325,3.84,2.4
		c1.119,2.56,3.697,3.662,5.52,5.52c1.344-2.43,2.229-6.281,3.36-8.16c-1.015-2.188,0.388-4.48-0.24-6.48
		c-0.263-0.839-1.102-1.238-1.44-1.92c-0.208-0.419-0.886-2.437-0.96-3.12c-0.179-1.651,0.032-3.36-1.2-5.04
		c0.318-1.416-0.354-2.485-0.24-3.6c0.27-2.631,2.126-3.885,3.84-5.28c0.707,1.309,0.467,3.113,0.24,4.8
		c-0.1,0.743-0.238,2.038-0.48,2.88c-0.119,0.412-0.641,0.74-0.72,1.2c-0.325,1.897-0.483,5.066,0,6.48
		c0.447,1.307,1.774,1.379,2.88,2.4c0.168,2.232,0.476,4.324,1.2,6c1.053,0.947,2.707,1.294,3.12,2.88
		c-0.995,0.275-0.935-0.504-1.68-0.48c-0.073,0.675-0.469,1.539-0.72,2.64c-0.074,0.554,0.693,0.267,0.72,0.72
		c1.867-2.15,6.116-3.024,9.84-1.92c0.315-0.085,0.377-0.423,0.72-0.48c0.055-1.415-1.105-1.615-0.72-3.36
		c-1.253,0.07-2.705,0.944-3.601,0c0.451-0.978,1.905,0.196,2.16-1.2c-0.101-0.539-1.273-0.007-1.439-0.48
		c0.761-1.01,2.452-3.512,0.72-4.8c-0.578,0.382,0.203,2.123-1.2,1.68c0.046-1.59,1.008-2.01,0.48-3.6
		c-0.746-0.625-0.965,0.813-2.16,0.48c0.275-1.725-0.034-4.034,0.96-5.04c-0.806-1.228-2.626-3.503-0.96-5.04
		c1.3,0.315,0.072,1.954,0.96,2.88c0.557,1.143,2.528,1.477,2.88,2.88c0.464,1.852,0.954,4.53,1.68,6.48
		c0.69,1.853,2.724,4.138,2.88,6.24c0.086,1.154-0.587,2.401-0.72,3.84c-0.182,1.969-0.405,4.139-0.479,6
		c-0.042,1.041,0.378,2.153,0.239,3.12c-0.204,1.433-1.42,2.419-0.96,3.84c-1.549,1.892-3.594,3.286-4.319,6
		c0.394,0.967,0.407,2.312,1.199,2.88c0.5-0.38,0.081-1.679,0.48-2.159c1.249,0.906,1.762-0.877,3.36,0.239
		c0.64-0.501-0.599-1.146-0.48-1.92c0.999-1.881,1.289-4.471,2.88-5.76c1.749-5.544,2.398-11.579,3.36-16.8
		c-1.074-1.616-1.439-3.533-2.16-5.52c-0.8-2.207-2.393-4.082-2.88-6.24c-0.249-1.101-0.015-2.326-0.24-3.36
		c-0.346-1.583-1.345-2.513-1.68-4.08c-1.079-0.441-1.321-1.719-1.92-2.64c-0.994-0.286-2.089-0.472-3.12-0.72
		c-0.102-0.502,0.164-0.636,0.24-0.96c-2.008-1.912-5.653-2.188-6-5.76c-1.377,0.143-0.886,2.154-1.44,3.12
		c-0.741,0.298-1.706,0.374-2.64,0.48c-0.381,1.581,0.876,1.524,1.92,1.68C39.845,29.906,39.794,28.329,40.575,29.04z M36.975,1.44
		c-0.651,0.876-1.76,1.176-2.64,1.92c-1.137,0.961-1.793,3.006-3.36,2.64c0.155-1.045,1.248-1.152,1.44-2.16
		c-3.613-1.17-5.029,2.723-4.32,5.28c0.56-0.073,1.034-0.512,1.2,0.24c-1.605,0.814-1.927,4-0.24,5.04
		c1.919-2.88,6.895-2.706,7.2-7.2c1.562-1.078,2.875-2.406,2.64-5.28C38.369,1.646,37.915,1.301,36.975,1.44z M38.175,7.2
		c1.244-0.356,2.44-0.759,3.12-1.68c0.011-1.371,0.016-2.736-1.2-2.88C39.803,4.508,39.09,5.956,38.175,7.2z M44.655,18.24
		c0.937-1.384,2.576-2.064,3.6-3.36c0.269-3.578-1.246-5.881-4.32-6.72c-0.03,1.219,1.719,1.708,2.4,2.88
		c0.634,1.091,1.343,3.419,0.24,3.6c-0.304-0.577-0.31-1.451-0.721-1.92c-0.753-0.119-0.634,0.827-1.2,0.24
		c-0.931-2.029-1.63-4.289-2.16-6.72c-0.307-0.013-0.332-0.308-0.72-0.24C39.33,10.147,41.873,15.844,44.655,18.24z M37.935,9.36
		c0.618,0.503,1.041,1.199,1.68,1.68c0.364-1.258-0.146-2.609-0.96-3.36C38.716,8.541,37.935,8.56,37.935,9.36z M45.375,11.28
		c0.102-0.529-0.719-1.324-0.96-0.72C44.878,10.657,44.436,11.659,45.375,11.28z M37.695,12.24c0.413-0.013,0.615,0.185,0.72,0.48
		c-0.268,0.346-0.259,0.585,0.24,0.72c-0.029-1.044,0.699-1.999-0.24-2.4C38.454,11.719,37.694,11.599,37.695,12.24z M32.895,16.32
		c-0.013-0.307-0.308-0.333-0.24-0.72c0.221-0.419,0.75-0.53,1.44-0.48c0.293-1.333-0.677-1.403-0.96-2.16
		c-0.181,1.259-1.8,1.08-2.16,2.16c-0.696-0.311-1.623-0.231-1.68,0.72c0.146,0.415,1.138-0.018,1.2,0.48
		c-0.699,1.546-0.635,4.014,0.72,4.8c0.699-0.336-0.426-0.827-0.24-1.44c1.702-0.489,2.114-1.405,3.6-1.68
		c0.39,0.284,0.873,1.519,0,1.68c-0.477-0.003-0.305-0.655-0.96-0.48c-0.586,1.014-1.829,1.371-1.92,2.88
		c1.823,1.368,1.963,3.989,4.32,4.32c2.932,0.412,4.688-2.531,6.48-4.32c-0.863-0.91-1.535,0.411-1.92-0.48
		c1.916-1.717,1.096-4.651,0.96-6.48c-0.917,0.521-0.751-0.221-1.2-0.72c-0.773,0.827-2.313,0.888-3.12,1.68
		c-0.494-0.954,1.228-2.452,0.48-3.6c-0.361,0.359-0.072,1.368-0.96,1.2c-0.912-0.368-0.878-1.682-1.92-1.92
		C35.94,13.655,34.906,16.123,32.895,16.32z M43.215,19.2c-0.018-0.418,0.054-0.747,0.24-0.96c-0.33,0.01-0.527-0.113-0.72-0.24
		C42.7,18.595,42.69,19.165,43.215,19.2z M42.975,21.12c-0.205-0.56,0.839-1.034,0.24-1.2C43.066,20.422,41.984,20.822,42.975,21.12
		z M30.255,22.56c0.32,0,0.64,0,0.96,0c-0.15-0.57-0.323-1.117-0.96-1.2C30.255,21.76,30.255,22.16,30.255,22.56z M35.055,39.12
		c0.992-1.408,1.306-3.494,1.2-6c-0.053-0.187-0.201-0.279-0.48-0.24C34.845,34.125,33.391,38.058,35.055,39.12z M1.695,41.04
		c0.346-0.374,0.966-0.474,0.72-1.44C1.605,39.369,1.034,40.593,1.695,41.04z M5.535,43.92c0.421-0.219,0.834-0.446,0.72-1.2
		c-0.854-0.907-1.625-1.896-3.12-2.16c-0.333,1.533,1.739,0.661,1.44,2.16c-0.404-0.252-1.332-1.207-1.68-0.72
		C3.856,42.56,4.57,43.365,5.535,43.92z M6.255,45.12c1.243,0.197,1.5,1.38,2.88,1.44c0.496,1.349,1.849,2.056,2.88,2.88
		c1.068,0.854,2.145,2.017,3.6,2.4c1.004,1.538,3.121,2.634,4.32,3.6c0.598,0.482,1.083,0.745,1.68,1.2
		c2.044,1.56,3.542,4.09,5.76,4.56c-0.134-1.035-1.205-2.26-1.92-2.88c-3.022-2.623-7.269-4.631-9.36-7.68
		c-3.278-2.082-6.03-4.69-8.88-7.2C6.868,43.973,5.997,43.981,6.255,45.12z M34.575,65.04c0.995,0.766,1.746,1.774,3.12,2.16
		c0.924-0.858,1.012-2.225,1.68-3.36c0.382-0.648,1.057-0.83,1.2-1.68c0.328-1.946-1.273-3.976-0.24-6
		c-0.524-1.316-1.568-2.112-1.68-3.84c-0.053-0.187-0.201-0.279-0.48-0.24C37.87,57.26,36.599,61.13,34.575,65.04z M51.615,52.32
		C50.468,51.653,51.034,53.107,51.615,52.32L51.615,52.32z M53.295,57.84c0.038-0.167-0.084-1.396-0.24-0.72
		C52.844,58.034,53.184,58.322,53.295,57.84z M51.615,59.04c-0.479-0.108-0.891,0.251-1.439,0.24c-1.421-0.03-3.133-0.807-3.84-0.24
		c0.529,1.285,2.434,1.741,4.08,1.2c0.869,0.25,1.112,1.127,2.399,0.96c0.226-0.203,0.513-1.53,0-1.68
		C52.384,59.908,52.197,59.171,51.615,59.04z M47.536,68.16c-1.305,1.416-2.628,2.812-3.121,5.04c1.422,0.59,2.385,2.607,4.081,2.16
		c-0.325-2.396,3.521-2.941,2.399-4.561c0.072,0.98-0.332-0.04-0.96,0.24C49.085,70.13,49.333,68.122,47.536,68.16z M49.935,69.36
		c0.129-2.161-2.846-5.351-0.72-6.96c0.238,2.682,1.214,5.95,2.64,8.161c0.671-2.529,1.07-5.331,1.2-8.4
		c-1.219,0.49-1.34-0.472-2.16-0.96c-1.172-0.028-2.529,0.129-3.359-0.24c-0.379,0.022-0.188,0.612-0.721,0.48
		c-0.48-1.064-1.399-0.488-2.64-0.48c-0.51,1.97-0.914,4.047-2.16,5.28c-0.919-2.043,1.14-3.177,1.2-5.04
		c-2.084,0.236-1.626,3.014-2.88,4.08c0.554,1.062-0.475,2.501,0.48,3.359c-0.134,0.587-0.929,0.512-0.72,1.44
		c1.698-0.179,1.702,1.338,3.12,1.44c0.785-0.256,0.721-1.359,1.44-1.681c0.183-0.902-1.274-0.165-0.96-1.2
		c0.354-1.725,1.918-2.241,2.64-3.6c-0.46-0.665-0.93-2.614,0.24-2.88c0.801,0.661,0.656,1.768,0.239,2.88
		C48.551,65.784,48.149,68.666,49.935,69.36z M33.615,65.04c-2.426-0.772-3.391-4.021-6-3.84c1.328,2.592,4.159,3.681,6.24,5.52
		C33.779,66.156,33.476,65.819,33.615,65.04z M46.095,67.68c0.907,0.027,1.29-0.469,1.44-1.199
		C46.792,65.856,46.184,66.906,46.095,67.68z M37.935,67.92c0.611-0.029,0.931-0.35,0.96-0.96
		C38.143,66.848,38.219,67.563,37.935,67.92z M40.095,72c0.099-0.302,0.31-0.49,0.72-0.479c-0.012-1.481-1.582-1.299-2.4-1.921
		c-0.336-0.255-0.422-0.927-0.72-1.199c-0.921-0.845-1.69-0.251-2.4-0.96C36.029,69.606,38.453,70.203,40.095,72z M38.895,68.64
		c0.477,0.004,0.305,0.655,0.96,0.48c0-0.32,0-0.64,0-0.96C39.308,68.093,38.953,68.218,38.895,68.64z M56.416,77.521
		c0.745-1.695-0.807-4.602,0.96-5.521c0.003,1.526-0.085,4.298,0.72,6.24c0.496-1.303,1.342-2.517,1.2-4.08
		c-0.061-0.662-1.631-4.366-2.16-4.32C56.13,71.999,53.467,75.541,56.416,77.521z M41.055,72.48c0.24,0,0.48,0,0.72,0
		c0.067-0.628-0.088-1.033-0.72-0.96C41.055,71.84,41.055,72.16,41.055,72.48z M38.415,72.48c0.231,0.946,0.246,1.858-0.24,2.64
		c-0.378-0.021-0.188-0.612-0.72-0.48c0.034,1.674-2.059,2.978-0.48,4.08c0.969-0.471,0.461-2.419,0.96-3.359
		c0.535,1.236,1.78,2.326,0.72,3.84c1.271,1.929,2.529,3.871,4.32,5.28c-0.393-2.199-0.598-6.321,0-9.36
		c-0.979-0.517-1.901-2.183-2.88-1.92c0.415,1.317-0.241,3.148,0,5.04c0.053,0.688,1.192,1.668,0.24,1.92
		c-1.464-2.385-0.988-5.725-0.72-7.92C39.059,72.163,38.694,72.278,38.415,72.48z M42.255,73.68c1.125-0.129,0.694,0.778,1.92,0.96
		c-0.079-0.561-0.289-0.991-0.48-1.439C42.952,73.587,42.763,73.408,42.255,73.68z M47.775,76.08
		c-1.382,0.607-1.334-1.713-3.12-1.44C44.651,76.209,47.512,78.363,47.775,76.08z M55.215,79.92c0.254-1.192-0.014-2.016-0.48-2.88
		c-0.053,0.188-0.2,0.279-0.479,0.24c-0.054-0.187-0.007-0.474-0.24-0.48C54.342,77.913,54.573,79.123,55.215,79.92z M53.055,81.84
		c0.927,0.478,1.473-1.273,0.48-1.2C53.741,81.405,53.327,81.551,53.055,81.84z M54.255,83.28c1.054,1.106,2.43,1.89,3.12,3.359
		c2.088,1.421,4.028,2.783,6,4.32c1.874,1.462,3.504,3.794,6.239,4.32c0.232-0.77-0.789-1.334-1.199-1.681
		c-0.666-0.561-1.536-0.923-2.16-1.439c-2.652-2.195-5.177-4.317-7.68-6.48c-1.273-1.1-2.625-2.498-4.32-2.88c-0.16,0-0.32,0-0.48,0
		C53.802,83.093,53.847,83.368,54.255,83.28z M41.775,84.96c-0.284-0.034-0.544-0.427-0.72,0
		C41.339,84.995,41.599,85.388,41.775,84.96z M41.775,88.8c0.518,0.791,1.103-0.921,0.72-0.96
		C42.424,88.329,42.015,88.479,41.775,88.8z M38.895,89.76c1.074,0.423,0.863-1.27,0.24-1.199
		C39.233,89.139,38.697,89.082,38.895,89.76z M82.815,105.84c0.215-1.095-0.789-0.971-1.439-1.2
		C81.525,105.37,81.909,105.867,82.815,105.84z M78.255,102c-2.06-1.575-3.729-3.918-6.24-5.04c-0.137-0.992-1.272-1.964-2.16-1.439
		c0.336,1.185,1.541,1.93,2.4,2.64c2.835,2.344,5.893,4.23,8.399,6.72c0.331,0.011,0.527-0.113,0.721-0.24
		C80.94,103.115,79.374,102.856,78.255,102z M60.975,108.96c0.065-0.327-0.148-0.937-0.24-0.479
		C60.669,108.807,60.884,109.417,60.975,108.96z M41.775,112.32c0.16,0,0.32,0,0.48,0c0.269-0.346,0.259-0.586-0.24-0.721
		C42.002,111.907,41.708,111.933,41.775,112.32z M64.576,112.561c0.239,0,0.479,0,0.72,0c0.013-0.413-0.185-0.615-0.48-0.721
		C64.826,112.171,64.703,112.367,64.576,112.561z M63.135,112.561c0.16,0,0.32,0,0.479,0c0-0.16,0-0.32,0-0.48
		c-0.159,0-0.319,0-0.479,0C63.135,112.24,63.135,112.4,63.135,112.561z"/>
	<path fill-rule="evenodd" clip-rule="evenodd" d="M29.295,117.36c-1.898-0.582-1.459-3.501-2.4-5.04
		c-0.592-0.009-1.71-0.812-2.16-1.681c-0.209-0.929,0.586-0.854,0.72-1.439C28.022,110.633,28.109,114.546,29.295,117.36z"/>
	<path fill-rule="evenodd" clip-rule="evenodd" d="M46.576,103.92c0.703,0.878,1.174,2.788,0.96,3.84
		c0.41,0.011,0.621-0.178,0.72-0.479c-0.256,1.474,0.102,4.303,0.479,5.76c1.529-0.551,0.874-3.286,2.641-3.6
		c0.668,0.852,1.026,2.014,1.2,3.359c-0.966-0.446-0.573,1.725-1.681,0.96c-0.022,1.178-0.268,2.133-1.2,2.4
		c0.147-1.213,0.442-2.277,0.48-3.6c-0.878,0.722-0.643,2.557-1.44,3.359c-1.395-1.698-0.885-3.877-1.439-6.24
		c-0.88,0.539-0.532,3.173-0.48,4.32c-0.623-0.144-0.863,0.097-0.72,0.72c-1.694-2.466,0.538-5.267-0.24-8.399
		c0.315,0.085,0.378,0.422,0.721,0.479C46.569,105.674,45.708,104.554,46.576,103.92z"/>
</g>
</svg>
