<?xml version="1.0" encoding="UTF-8" standalone="no"?>
<!-- Created with Inkscape (http://www.inkscape.org/) -->

<svg
   xmlns:dc="http://purl.org/dc/elements/1.1/"
   xmlns:cc="http://creativecommons.org/ns#"
   xmlns:rdf="http://www.w3.org/1999/02/22-rdf-syntax-ns#"
   xmlns:svg="http://www.w3.org/2000/svg"
   xmlns="http://www.w3.org/2000/svg"
   xmlns:sodipodi="http://sodipodi.sourceforge.net/DTD/sodipodi-0.dtd"
   xmlns:inkscape="http://www.inkscape.org/namespaces/inkscape"
   width="125.59842"
   height="120.99947"
   id="svg54549"
   version="1.1"
   inkscape:version="0.48.1 r9760"
   sodipodi:docname="liftarn_Barett_modified.svg">
  <defs
     id="defs54551" />
  <sodipodi:namedview
     id="base"
     pagecolor="#ffffff"
     bordercolor="#666666"
     borderopacity="1.0"
     inkscape:pageopacity="0.0"
     inkscape:pageshadow="2"
     inkscape:zoom="0.35"
     inkscape:cx="375"
     inkscape:cy="520"
     inkscape:document-units="px"
     inkscape:current-layer="layer1"
     showgrid="false"
     inkscape:window-width="1912"
     inkscape:window-height="1049"
     inkscape:window-x="0"
     inkscape:window-y="0"
     inkscape:window-maximized="1"
     fit-margin-top="0"
     fit-margin-left="0"
     fit-margin-right="0"
     fit-margin-bottom="0" />
  <metadata
     id="metadata54554">
    <rdf:RDF>
      <cc:Work
         rdf:about="">
        <dc:format>image/svg+xml</dc:format>
        <dc:type
           rdf:resource="http://purl.org/dc/dcmitype/StillImage" />
        <dc:title></dc:title>
      </cc:Work>
    </rdf:RDF>
  </metadata>
  <g
     inkscape:label="Layer 1"
     inkscape:groupmode="layer"
     id="layer1"
     transform="translate(0,-931.36271)">
    <g
       id="g3943"
       transform="translate(-147.88668,824.77825)">
      <path
         sodipodi:nodetypes="cccsccc"
         transform="translate(107.68179,77.083649)"
         id="path3935"
         d="M 49.001395,141.65039 C 64.165009,120.71455 76.675422,109.6933 86.092729,110.23051 l 34.595891,-7.03261 c 1.8585,-3.303635 11.03265,4.26198 21.83401,11.65113 5.56008,3.80361 11.61432,7.31034 15.9379,9.78698 26.01859,46.07351 -24.48676,15.06451 -37.20476,22.11869 l -72.254375,-5.10431 z"
         style="fill:#f08080;fill-opacity:1;fill-rule:nonzero;stroke:none"
         inkscape:connector-curvature="0" />
      <path
         sodipodi:nodetypes="ccccsscc"
         transform="translate(107.68179,77.083649)"
         id="path3871"
         d="M 88.929889,116.40308 C 74.682303,97.396265 74.263278,85.835599 71.217712,72.860641 74.371999,66.18646 79.308546,62.185668 84.869413,59.121356 c 1.478017,5.395425 11.056756,3.268751 16.606597,4.883197 5.93154,7.422672 0.9563,14.25205 0.72269,22.751761 -0.12552,4.566937 3.4645,7.368348 4.30234,12.379069 0.74217,4.438477 -1.28584,11.099037 -0.96598,15.053667 l -16.605171,2.21403 z"
         style="fill:#ffe4e1;fill-opacity:1;fill-rule:nonzero;stroke:none"
         inkscape:connector-curvature="0" />
      <path
         sodipodi:nodetypes="cccc"
         transform="translate(107.68179,77.083649)"
         id="path3875"
         d="m 92.785049,72.798888 -1.814866,1.588009 c 1.273311,1.466452 2.641555,2.481975 5.104312,-1.701438 l -3.289446,0.113429 z"
         style="fill:#ffffff;fill-opacity:1;fill-rule:nonzero;stroke:none"
         inkscape:connector-curvature="0" />
      <path
         style="fill:#ffffff;fill-opacity:1;fill-rule:nonzero;stroke:none"
         d="m 185.32694,153.45669 2.4033,0.19917 c -0.15303,1.93607 -0.65031,3.56582 -5.11669,1.66384 l 2.71339,-1.86301 z"
         id="path3877"
         sodipodi:nodetypes="cccc"
         inkscape:connector-curvature="0" />
      <path
         sodipodi:nodetypes="cssscsssccccccc"
         transform="translate(107.68179,77.083649)"
         id="path3879"
         d="M 40.494209,72.345172 C 51.33802,57.869006 62.247472,43.077783 76.089371,37.236676 c 3.292812,-1.389525 6.402711,-3.140367 9.956396,-4.117259 7.798044,-2.143648 16.515583,-1.707024 24.660243,-2.866106 11.30155,-1.608345 22.28663,1.81746 33.6893,1.711081 5.21721,5.851499 3.04477,8.425547 4.06003,12.112403 0.44541,1.617505 4.95848,5.480943 4.93867,6.839842 -0.0613,4.207271 -3.77796,5.566218 -8.63602,7.204438 -4.42088,1.490795 -9.7285,3.388331 -15.22189,4.469189 l -12.7438,-7.660107 -21.060771,-0.405394 -10.712816,4.12382 -11.406745,8.816106 -3.172462,8.283357 C 60.836253,75.25125 55.194254,81.426039 40.494209,72.345172 z"
         style="fill:#f4a460;fill-opacity:1;fill-rule:nonzero;stroke:none"
         inkscape:connector-curvature="0" />
      <path
         transform="matrix(1.3050847,0,0,1.6037736,87.656739,38.987257)"
         d="m 103.56082,50.510059 c 0,1.660098 -1.49813,3.005873 -3.34616,3.005873 -1.848033,0 -3.34616,-1.345775 -3.34616,-3.005873 0,-1.660097 1.498127,-3.005872 3.34616,-3.005872 1.84803,0 3.34616,1.345775 3.34616,3.005872 z"
         sodipodi:ry="3.0058727"
         sodipodi:rx="3.3461602"
         sodipodi:cy="50.510059"
         sodipodi:cx="100.21466"
         id="path3907"
         style="fill:#8b4513;fill-opacity:1;fill-rule:nonzero;stroke:none"
         sodipodi:type="arc" />
      <path
         transform="translate(107.68179,77.083649)"
         id="path3937"
         d="m 77.585542,131.10147 44.350798,-0.45371 -1.92829,16.3338 -44.010516,-1.36115 1.588008,-14.51894 z"
         style="fill:#ffffff;fill-opacity:1;fill-rule:nonzero;stroke:none"
         inkscape:connector-curvature="0" />
      <path
         sodipodi:nodetypes="ccssccssscc"
         transform="translate(107.68179,77.083649)"
         id="path3939"
         d="m 84.731579,58.166527 c 20.322091,-8.124829 32.162011,-3.775866 42.309071,3.062588 4.73389,7.236306 5.03527,10.713942 5.0786,13.779782 0.0588,4.162562 1.22348,9.28121 3.96649,12.581555 2.60079,3.129239 10.51771,2.475901 1.50383,12.658288 l -31.53331,6.69232 c -0.96538,-2.73845 1.04533,-5.40062 0.40974,-8.207554 -1.04069,-4.59601 -4.40923,-9.389449 -4.21867,-14.127881 0.21105,-5.247896 2.027,-10.627256 2.13334,-15.802728 0.0419,-2.037837 -1.85367,-3.718136 -3.20186,-5.532058 -6.628824,-0.34529 -14.059992,0.64666 -17.241235,-5.444599"
         style="fill:#ffd700;fill-opacity:1;fill-rule:nonzero;stroke:none"
         inkscape:connector-curvature="0" />
      <path
         sodipodi:nodetypes="cccsccsc"
         transform="translate(107.68179,77.083649)"
         id="path3941"
         d="m 64.768048,101.15618 4.196879,6.57889 8.734045,2.94916 c 6.30282,-4.94392 0.7864,-10.904856 -2.388306,-20.074273 -1.475754,-4.262378 -1.712495,-9.212345 -2.375719,-12.820186 l -3.629733,-1.814866 c -0.004,4.232928 -2.115848,7.119046 -1.654496,12.02401 0.761805,8.099288 0.839857,15.563365 -2.88267,13.157265 z"
         style="fill:#ffd700;fill-opacity:1;fill-rule:nonzero;stroke:none"
         inkscape:connector-curvature="0" />
      <path
         style="fill:#000000"
         d="m 201.84265,217.75364 c 1.44932,-1.39567 -2.11429,-6.22975 0.95132,-2.07843 2.34126,-0.91356 7.41944,-4.42183 3.79809,-4.4721 6.57497,-1.20224 13.34614,-0.0325 19.89075,-1.62876 5.17943,0.42921 -0.18506,-8.50029 1.12406,-11.96056 -0.88319,-4.92491 -1.14054,-10.60734 -3.73227,-14.75612 -2.67526,1.16412 -1.64938,-0.68741 -4.7985,1.53998 -3.84841,1.93919 1.66962,-4.48978 -1.58328,-1.00687 -1.90814,1.73428 -6.73654,1.9549 -3.43025,-1.50686 2.25193,-6.07402 -4.22139,2.88176 -6.59354,2.69956 -2.48723,2.25257 -8.67939,1.22222 -9.6888,4.04 0.20904,4.55902 2.06137,9.03682 4.19873,12.77706 1.61213,4.01284 -4.73492,-5.4733 -4.34648,-7.90777 0.43302,-3.59963 -1.50241,-8.92175 -4.57034,-3.73351 -2.88376,5.71675 -6.54035,11.39161 -7.07063,18.10126 3.10688,0.29946 -3.10546,1.76149 1.52116,2.18732 3.73352,0.97309 11.26793,0.5159 13.08846,1.96761 -1.76271,2.3982 -4.36335,-1.50955 -7.62572,-0.62216 -2.1841,0.28027 -5.24423,1.67044 -7.86271,4.66359 -2.79214,4.54917 -0.5154,-4.50399 -0.46274,-6.38565 0.83405,-3.77128 2.26166,-9.89501 1.85317,-12.08652 2.74687,3.15523 -2.68827,-4.62923 1.44982,-0.0922 -2.52784,-3.86811 -0.30998,-1.76498 0.43814,-2.25205 -1.88361,-2.4171 -1.50742,-2.80372 0.85839,-0.68654 -1.09054,-2.4239 -3.60967,-4.49257 0.11956,-1.50256 2.45411,0.34177 -4.19589,-5.27828 -5.34361,-0.8107 -3.55498,2.16129 -0.64798,0.85034 -0.12008,1.68542 -4.21913,1.69212 -2.29393,1.56961 -0.45195,1.70678 -3.53732,1.7443 -9.81231,3.6283 -11.45091,5.90543 2.22893,-1.25941 9.32495,-3.27324 3.46469,-0.4029 -2.81284,-1.521 -9.73601,6.69668 -4.31904,2.22411 3.77531,-2.59828 -1.11715,3.34986 -2.49327,4.07892 -2.80298,-0.90708 -7.31338,5.94385 -2.65735,2.24184 4.73897,-1.61604 -8.51522,5.3968 -1.13178,2.43672 5.15926,-2.28563 -5.85601,2.79504 -0.28494,1.54659 -1.96216,3.62944 -9.22982,2.79339 -5.5249,-1.3088 2.4244,1.55419 0.77795,-5.43305 4.98351,-5.84798 2.50046,-0.91405 4.51354,-2.15503 1.31705,-2.26332 0.86705,-1.02951 5.935,-1.50981 1.77228,-1.82747 2.40003,-0.62563 4.52265,-2.31619 3.67059,-3.17614 2.64218,-0.54955 4.01223,-1.70486 0.67998,-1.94408 1.78662,-0.6278 5.5791,-0.0733 2.80474,-2.27828 1.64418,-0.11411 5.12863,0.29002 1.85647,-1.06901 1.83833,0.1894 3.62116,-0.62168 1.00424,-1.26342 4.52981,-0.0319 4.24302,-2.98276 9.38783,-3.26028 -1.20806,1.46411 6.68774,2.17653 4.3003,2.60376 -0.46096,-3.36081 -7.09233,-2.4692 -1.67899,-4.68813 6.21637,0.41987 -1.03013,-5.17467 0.0834,-6.43317 1.78678,2.55456 3.4307,7.06159 7.1326,5.8583 2.68627,1.8438 7.83996,-4.54969 7.78108,-2.55568 0.41341,1.58897 7.41616,-2.95923 9.58485,-5.00856 1.23732,-5.8443 -5.84123,-11.40759 -4.02225,-18.15837 0.59598,-6.34974 4.23833,-13.69878 -0.3737,-19.33453 -3.50601,-2.33034 -0.64052,-1.91761 -0.10434,-1.4351 -1.32989,-4.0944 6.73662,9.27737 2.23791,2.92778 -2.40091,-3.25754 2.52496,5.17449 1.00576,6.94507 0.43838,5.30404 -3.45471,9.96792 -1.55611,15.3461 0.31018,2.78276 3.49349,10.53279 3.78373,9.31183 0.34716,-2.18715 -2.61065,-10.37907 -0.29814,-4.229 2.61062,3.46174 -0.4217,11.74107 0.39734,12.43483 0.74362,-1.80045 1.9569,-4.09269 0.90277,-0.67648 2.31576,-4.46482 0.98061,-11.84182 -2.36611,-14.93477 -0.19036,-2.27607 -2.79758,-11.62848 -1.10343,-10.19932 -0.44992,6.49381 4.68495,11.24431 4.96192,17.61943 1.48579,2.80869 -3.02347,12.65494 0.87092,5.79846 0.35054,3.9008 3.08507,-9.49696 2.22855,-2.03367 -0.69959,3.06201 -1.21479,5.23801 0.81866,1.02007 -3.04802,7.09942 4.4948,-1.21472 2.77985,-4.37854 -0.24577,-3.21554 0.46192,-5.18113 0.60608,-0.79202 0.7985,2.38634 -2.89667,10.8847 1.04412,5.06959 2.46815,-4.57378 -2.13725,-12.09779 -1.74223,-14.76059 1.41556,4.86839 3.53368,10.0414 2.78301,14.97971 2.22628,-1.4143 0.3433,-9.73656 1.13303,-8.45042 0.44636,2.8113 0.62194,7.10796 1.07421,1.86949 0.11032,-5.23803 1.07008,5.20991 -1.26661,5.98712 -2.06103,3.6004 -1.01548,2.38884 1.13569,2.20374 -0.13411,2.02033 1.16918,5.49029 1.61601,1.00886 -0.2699,1.80207 2.17733,9.14047 -0.90884,6.67325 -0.27394,1.80437 -0.92783,3.23641 -0.74845,5.33802 2.27031,-2.56324 -0.96969,4.22664 0.52221,5.77012 0.26674,3.59166 0.78719,5.91693 0.5212,10.56553 -0.36576,2.35195 -0.99087,9.89069 -1.04727,3.14893 2.00047,-7.08637 -6.74075,1.00453 -4.59758,3.8314 -1.36611,-3.22223 -5.17018,2.88191 -2.17608,-2.04925 -1.711,-6.45792 -8.12003,-0.69907 -7.3938,2.24214 -2.31399,0.68094 -5.30221,-7.7008 -1.76765,-2.44709 0.9216,1.34826 7.15944,-4.48201 3.9657,-4.25943 -2.7903,-0.57613 -7.08545,0.8499 -7.06192,1.17762 -2.03167,1.20159 -6.73923,3.21632 -5.11332,5.13392 -0.88324,0.0631 -1.7557,0.2504 -2.63404,0.28793 z m 23.30611,-4.79613 c 2.04549,-1.13369 3.82451,-4.23598 0.15276,-2.64872 -2.94747,-0.0448 -8.31355,0.59576 -3.72128,3.88685 1.43655,2.57611 2.2095,-0.46838 3.56852,-1.23813 z m -2.56296,-0.13603 c 0.51331,-2.88516 1.83221,1.60659 0,0 z m -36.80863,1.72396 c 2.35152,-1.42236 6.4139,-4.54416 0.7519,-4.13207 -3.02085,0.098 2.1107,1.36746 -1.47779,1.87569 -0.009,0.51654 -0.75363,3.47526 0.72589,2.25638 z m -23.50762,-3.24483 c 1.79997,-2.12116 -2.1057,0.91904 0,0 z m 6.72411,-4.60946 c 0.29748,-2.8232 -4.46015,1.63645 0,0 z m 6.11032,-8.09268 c -1.15606,-0.0532 -0.14365,0.0446 0,0 z m 2.46084,-0.77143 c 3.63829,-1.32665 2.04622,-3.4484 -1.05623,-1.16631 4.10692,-0.99416 -4.56427,3.02893 1.05623,1.16631 l 0,0 z m 5.1768,-5.97618 c 1.10688,-1.85401 -2.09191,1.48574 0,0 z m 45.29344,-0.85513 c -0.99167,-0.78522 -0.14209,2.28187 0,0 z m -36.8485,-0.57611 c -4.75104,-6.73514 -0.39255,2.26507 0,0 z m 0.99061,-1.12148 c 2.66137,-2.59866 -5.4741,-1.77415 -0.4776,0.70188 0.36767,0.0233 0.0509,-0.7363 0.4776,-0.70188 z m 35.96424,-0.75255 c -1.2218,-3.35144 -1.48275,4.23047 0,0 z m 1.25299,0.14557 c 1.57428,-3.0755 -2.99541,-1.27234 0,0 z m -1.81154,-2.08567 c 2.94322,-2.48876 -2.21323,-3.01775 -0.78649,0.68088 l 0.78648,-0.68088 1e-5,0 z m 0.18857,-3.10883 c 1.31592,-6.00732 -4.12037,4.75805 0,0 z m -2.34124,-1.15611 c -0.28724,-2.99538 -1.01455,3.08615 0,0 z m -59.61835,34.98974 c 0.36268,-2.26415 5.45768,-9.27235 2.24095,-2.91452 2.26962,0.18527 4.53563,-6.69497 6.60811,-9.29378 -1.04657,4.99204 4.95754,-5.34887 1.93293,1.00516 -3.67103,3.05212 -5.49053,6.45156 -8.02287,10.22794 -0.54052,0.84335 -1.84257,1.84605 -2.75912,0.9752 z m 20.27593,-0.0304 c -0.91227,-2.42018 2.00918,1.04701 0,0 z m 8.65174,-0.1203 c -2.63804,-0.0219 -2.67844,0.50767 -1.50156,-2.07641 -3.09037,-4.12288 2.17349,2.5689 3.85464,-1.64136 1.13422,0.33021 -4.01665,2.2859 -1.40849,4.13135 l -0.32071,3.7e-4 -0.62388,-0.41394 0,-1e-5 z m -17.7409,-0.20469 c -1.07023,-2.13299 5.19577,-11.45343 2.51375,-5.56162 1.58413,-2.033 4.61048,-6.67096 2.15179,-1.13882 -1.71235,1.66424 -3.3625,6.06275 -4.66554,6.70044 z m 11.0651,-0.11169 c -1.60234,-3.50289 4.49962,0.97557 0,0 l 0,0 z m 8.95363,-0.40973 c 0.92526,-4.08778 4.35591,1.94715 0,0 z m 9.95017,-0.10237 c -0.0292,-3.78695 4.67741,0.95451 0,0 z m 10.70963,-0.17044 c -1.18863,-3.58326 3.0921,1.30379 0,0 z m -43.36941,-0.28378 c 0.0222,-3.08332 4.15961,-3.32769 0.93776,-0.17207 -0.0704,0.59513 -0.88455,1.12946 -0.93776,0.17207 z m 51.24272,-0.0235 c -0.31914,-3.96631 4.54929,0.59495 0,0 z m 9.8462,-0.97289 c -0.95536,-3.28045 -1.58022,-9.61416 -1.21837,-11.40224 -0.0668,3.71472 1.55336,5.75243 1.16273,1.0908 0.57065,-3.11861 0.92095,5.12297 0.27636,6.81714 -0.26655,0.47312 1.06357,4.9812 -0.22072,3.4943 z m 12.42021,-1.64785 c -2.27601,-1.51748 -6.4911,-11.48503 -2.64143,-4.9597 1.86324,1.19806 -1.38317,-8.25402 1.34924,-1.6122 -0.36195,1.22125 4.90739,9.55627 1.29219,6.5719 z m -34.68286,0.4899 c -0.71583,-3.32591 2.71666,0.65309 0,0 z m 44.91614,-0.39602 c -1.98314,-1.31981 -7.88237,-7.89511 -2.39356,-3.8704 2.82149,1.45434 -4.69326,-5.2123 -0.71674,-2.79786 0.3986,1.5633 8.2547,7.83293 3.1103,6.66826 z m -82.72464,-0.35712 c 2.35371,-4.84971 1.42103,0.82454 0,0 z m 19.05526,-0.27403 c 1.25765,-1.13789 0.0135,1.61772 0,0 z m 8.57032,0.32876 c -0.67322,-1.93837 2.21746,0.32726 0,0 z m -0.37687,-1.34843 c 3.82227,-1.62818 4.02251,0.35139 0,0 z m -6.07633,-1.74379 c -1.90418,-0.32278 -13.12193,-1.40712 -5.64192,-1.59867 5.93461,1.37339 12.03129,1.05156 18.07015,0.66649 6.43765,-0.11523 12.86604,-0.4835 19.27128,-1.16605 -8.78887,2.58924 -18.04172,1.29752 -27.0281,2.22421 -1.55508,-0.0205 -3.1254,0.0721 -4.67141,-0.12598 z m 44.8854,-0.10715 c -1.64917,-3.31482 -3.66341,-9.6877 -4.32918,-11.7609 0.73787,2.81065 2.52528,2.42406 2.43349,2.30535 0.3051,-1.84713 -3.38569,-8.7857 -0.18684,-4.04335 1.44663,4.10103 0.36498,10.54006 2.08253,13.4989 z m 19.89747,-1.81766 c -0.86061,-3.40342 -6.08921,-4.31008 -6.15888,-7.27064 1.08534,1.94141 3.81599,3.32226 1.60564,0.006 1.32333,1.83221 5.5535,5.7416 4.55324,7.26462 z m -83.51837,-0.45937 c 1.98197,-2.25848 3.36074,-8.33991 3.95444,-6.5519 1.68772,-1.2098 4.44842,-4.0159 1.87882,-0.18247 -2.51117,1.63226 -3.28084,5.95591 -5.83326,6.73437 z m 84.48096,-0.62604 c -0.071,-1.7587 1.20735,1.30532 0,0 l 0,0 z m -10.87624,-0.0412 c -1.07067,-1.38104 1.57591,-0.0385 0,0 z m 14.96106,-3.32711 c 0.13023,-1.38036 -9.59737,-3.35903 -3.51348,-2.68892 3.14849,0.48162 -3.68919,-2.41374 0.77459,-1.00058 2.24659,0.34897 6.87675,1.28493 2.73889,3.6895 z m -14.15889,-1.39066 c -3.67523,-2.57528 -2.57745,-6.62649 -5.43979,-8.89657 3.36741,1.5198 4.50525,6.88941 6.18999,9.30872 l -0.7502,-0.41215 0,0 z m -77.17607,-0.2944 c 1.59561,-0.97334 -0.10124,0.96817 0,0 z m 56.6851,-0.02 c -0.46832,-1.71158 -2.06774,-8.20313 0.004,-4.27322 -0.27181,-6.15807 1.77224,3.24297 -0.004,4.27322 l 0,0 z m 16.52399,-3.07055 c -2.00441,-0.88598 -3.55211,-7.48551 -1.15057,-2.09886 0.61075,1.13625 4.55191,4.46607 1.15057,2.09886 z m 11.3869,0.12126 c -2.14142,-0.65302 -5.32481,-2.90002 -1.1125,-1.21539 4.01197,-0.1592 -4.44699,-1.51647 -5.57565,-2.81629 -4.13933,-3.12269 -8.45221,-5.94307 -12.56175,-9.14173 -3.93916,-2.42714 -7.71694,-7.78007 -12.68557,-5.06726 0.87814,-1.98028 3.85417,-3.37835 3.88609,-6.58217 -0.82964,2.85596 -0.29097,6.21549 1.11885,1.67075 -1.18032,-4.49477 -5.44245,-8.5502 -6.10532,-13.86179 1.09831,-1.74073 2.44653,7.89116 3.92919,7.77156 -1.06264,-2.16088 -1.94986,-5.00106 -0.004,-1.18805 1.11734,2.13491 6.10827,8.99964 2.50172,2.91395 -1.40784,-1.97251 -4.31423,-8.0482 -1.27447,-2.8619 2.2926,1.83202 3.68343,9.34201 3.71924,8.80636 1.24259,-1.67007 -1.56782,-8.18003 0.48571,-3.0839 0.16842,2.78902 -0.51278,7.1502 1.11617,1.90966 0.31943,-5.98685 -6.21193,-9.37601 -6.2666,-15.49963 -1.01313,-2.13434 -0.50736,-9.85611 0.17756,-3.63704 0.46729,4.15718 1.34596,10.15107 4.74689,12.03654 -0.17873,0.31252 5.87685,8.40965 3.09196,2.32212 -2.24185,-6.92574 2.67772,4.65085 1.04337,6.10837 3.59087,0.48997 -1.86687,-11.8296 1.48327,-4.50195 0.90595,2.242 -0.64369,6.53483 1.75131,2.30106 0.30453,5.96517 1.11147,-6.87384 2.1913,-1.1465 -0.26739,-2.50914 -1.3579,-6.39229 0.47532,-1.60061 0.81345,1.16106 -1.54478,-5.29139 0.36436,-1.17723 3.01255,2.8285 -1.13039,9.03295 -2.62733,7.27776 2.16258,-2.13129 -7.84164,3.45002 -3.62421,-0.3786 -2.71101,0.3504 0.34172,-5.22402 -2.68558,-5.38673 2.07601,4.17542 -1.07872,7.71373 -3.78681,7.01838 4.98079,2.85916 9.33251,7.18838 15.19532,7.9108 4.15572,0.17948 2.61086,2.74847 -0.47505,1.88765 -0.3376,0.82432 5.71802,4.63524 6.18026,2.87769 -5.82031,-1.29402 10.07876,1.25887 3.36088,1.69264 -3.06388,-0.55302 -5.78288,0.0813 -0.78429,1.46724 1.71551,2.27041 8.9945,-0.10826 8.0613,2.61216 -2.55492,-0.56054 -3.48316,0.96219 -5.31045,0.56208 z m -10.84546,-10.18457 c -1.64832,-1.31755 -6.54783,-1.71525 -2.13757,0.13771 l 0.89424,0.0416 1.24333,-0.17933 0,0 z m -15.81935,-9.69109 c 0.69195,-0.88007 -1.64688,0.7774 0,0 z m 1.55074,-0.47102 c -0.58502,-1.48613 -0.61929,1.57888 0,0 z m 7.54894,-0.14972 c 1.3019,-1.83725 -1.95021,1.89747 0,0 z m -8.43707,-1.25827 c 0.73001,-7.68267 -2.21216,3.823 0,0 z m 12.41668,-3.85823 c -0.91924,1.36604 0.99641,2.47082 0,0 z m -7.76247,24.4607 c 0.0883,-1.29162 0.7069,1.32635 0,0 z m 3.9234,-2.08223 c -1.61956,-2.50084 -7.20249,-6.17239 -6.90979,-7.56535 1.8252,2.37136 5.13257,4.22957 2.66794,-0.42145 -1.91781,-5.11994 2.19495,3.40383 2.74485,5.10765 0.2789,0.005 3.73985,4.50436 1.497,2.87915 z m -57.1717,-7.57389 c -3.1399,-0.96788 5.11945,-1.66725 2.70551,-5.71917 -0.0977,2.55985 -3.39701,6.25949 -1.04775,1.91946 0.0335,-3.02986 0.93001,-6.37008 -1.05454,-8.93975 -1.68286,-1.84727 1.15703,6.31544 -0.4434,8.26256 -1.59848,3.61286 0.93853,-5.52689 -0.56216,-6.96886 -1.10753,-5.51521 -3.1574,-10.76557 -3.73844,-16.40292 -1.26349,-2.3743 -0.18491,5.57355 0.2506,7.37076 0.2928,3.34033 -1.83995,-5.06858 -1.43263,-6.84183 0.42077,-3.32652 -0.677,-6.25876 -0.78583,-1.08091 -0.28905,2.17829 1.09593,12.53246 -0.46216,5.53972 -0.92701,-2.11909 1.01396,-9.69246 -0.1307,-9.13356 -1.35092,2.50571 -0.35909,11.03979 -1.32604,10.08704 -0.28554,-2.37741 0.55825,-13.18092 -0.77517,-5.32375 -1.1253,5.46284 2.18101,11.13598 0.54936,16.35347 -2.44766,1.93069 -1.29388,1.52968 0.35823,1.05137 -1.97467,2.10634 -4.0638,2.20826 0.10468,1.54673 1.96667,1.6313 -7.36212,1.43421 -4.78893,-3.00405 3.73611,3.31223 3.77385,-3.66208 3.15298,-5.55564 -1.02931,-3.60344 -2.51419,-8.29965 0.0603,-11.39467 0.53608,-2.95011 2.97339,-6.68775 -1.82949,-6.15448 -3.84174,-2.58008 -8.30856,4.1216 -13.03453,2.35034 -4.74422,-0.14465 -10.05985,-1.87852 -12.87611,-5.92145 0.85644,-5.12226 5.86768,-8.23685 8.68283,-12.09328 2.95224,-3.96572 5.35091,-7.41017 8.72356,-11.16711 2.62885,-3.78935 6.53754,-5.44625 9.54566,-8.63156 4.88927,-1.22858 9.4318,-4.67009 13.94353,-7.32161 6.81438,-2.44304 14.06267,-3.59962 21.28324,-3.7901 7.96177,-0.85471 16.04422,-0.55413 24.03778,-0.27716 6.13936,2.24965 12.55827,1.58495 18.87152,1.71028 4.95106,3.27504 0.4658,11.12644 5.83917,14.92881 6.66809,4.3647 0.79383,12.1478 -5.25662,11.49121 -5.04751,1.55111 -8.9294,6.43534 -14.73174,4.99499 -4.56082,0.005 2.51766,6.66154 1.62899,10.1972 -0.001,2.21389 3.42936,9.02968 1.69337,8.5792 -2.66507,1.39136 6.59201,5.13436 2.05855,1.28386 1.07332,-0.39092 6.93225,-0.79447 2.14975,1.8149 -3.10456,0.9628 -3.56447,0.85315 -1.02601,3.2771 -1.07882,-0.01 -4.03877,-4.31823 -1.45607,0.35286 0.45789,2.93084 7.12153,3.20859 2.58494,1.06794 -1.58711,-2.73065 8.28618,2.94316 2.21237,4.2317 -2.3888,-0.16494 -4.08721,-2.99886 -0.78191,-0.99268 4.93535,-2.82868 -5.58324,0.97122 -5.33794,-3.0793 -5.0406,-7.6979 -5.65186,-17.43207 -8.55509,-26.06613 -3.33898,-7.13136 2.09442,2.44649 2.1918,5.12153 1.31113,5.9447 2.91516,11.8002 4.96148,17.51783 1.1198,2.24982 4.98796,6.34658 1.8747,1.97888 -3.28073,-6.56919 -3.52887,-14.25863 -6.39884,-21.02863 -0.87251,-2.36476 -3.59146,-8.76915 -5.36744,-7.71036 1.41208,1.74472 4.30282,10.62412 1.37331,4.25668 -0.72587,-1.59338 -5.20005,-8.70168 -4.11992,-5.94955 1.23516,1.48181 5.61719,11.00103 2.12718,4.95095 -1.14418,-1.81808 -5.67836,-8.61512 -4.51403,-5.01969 2.7799,1.84888 5.50836,11.6923 4.71742,11.52764 -1.337,-5.13565 -3.29535,-10.55206 -7.68602,-13.42509 1.64082,2.72796 6.41694,9.65386 5.89608,12.76669 -1.81073,-4.81299 -3.38169,-10.24927 -7.97149,-12.91719 -1.43376,-0.17677 4.24617,5.67514 0.47747,2.03215 -1.58595,-2.25482 -4.30577,-3.07698 -1.33999,-0.0251 3.65295,4.7199 4.95749,10.76144 6.03704,16.63143 -2.06382,-5.50055 -2.63112,-11.69809 -6.56326,-16.26731 -0.765,-2.11349 -5.01398,-4.44066 -1.70405,-0.82608 3.10799,5.79669 5.9038,12.15444 6.03516,18.95837 -0.0104,2.45893 1.89957,12.04667 1.22938,10.49956 -2.52253,-7.11433 -0.56585,-15.40157 -4.54274,-22.06591 -0.42232,-2.89276 -5.07549,-10.79064 -5.9578,-8.67375 1.99677,1.5216 3.79281,6.47618 0.90318,1.89909 -1.357,-2.89771 -5.13131,-3.45242 -1.787,0.23809 -1.03649,2.77911 -8.58185,1.05544 -3.38749,1.43897 1.94169,-0.16772 -3.06495,-2.49749 -2.36286,-4.46498 -4.1463,-0.47704 -13.55768,0.73622 -8.35277,6.85338 6.53993,2.66932 -3.54904,0.67739 -5.9573,-0.17465 -1.43875,-4.17625 -1.52027,-0.68572 -1.87257,1.46526 -2.94198,-4.25228 -7.6653,3.41282 -10.34949,5.64646 -1.39135,2.17877 -2.20352,6.05728 0.49662,1.94787 7.31405,-1.27792 6.67118,7.12486 6.37622,12.33683 -1.63914,3.51846 1.86524,10.14535 3.95919,4.38509 1.58088,-1.32054 3.43212,1.17353 4.66887,-0.29009 -0.94323,1.83995 -5.02405,1.9716 -6.96132,3.31326 -5.50278,-2.03123 0.0515,-12.04266 -3.63412,-13.85953 -2.68536,-1.26177 -2.57165,4.52131 0.13262,1.9899 -2.22934,2.41456 -4.33226,1.63356 -5.20356,-0.30359 -0.94412,4.74495 0.8971,10.14934 2.55266,14.70073 0.98689,5.18667 6.36441,9.03253 4.09865,14.62143 0.0289,1.00723 -2.31781,4.64479 -3.0786,3.37195 z m -9.20558,-20.21081 c -0.82194,0.20713 0.78575,2.30112 0,0 z m 6.1202,-14.02498 c 2.17527,-2.07538 8.69588,-0.41216 2.59613,-2.64902 -2.21349,0.0874 -4.70576,2.0208 -1.26482,-0.61961 2.13353,-0.30342 6.23968,2.24327 2.20706,-1.06794 -2.8783,-2.69229 -9.12827,5.55163 -3.53837,4.33657 z m -20.65929,-0.0147 c -1.26879,-0.1499 -11.13087,-3.13229 -6.57793,-1.16632 2.08762,0.52825 4.46918,1.55855 6.57793,1.16632 z m 2.5575,-0.017 c -2.47311,-1.05431 -2.4731,1.05433 0,0 z m 1.10767,0 c 0.0562,-0.91561 -1.61218,0.67268 0,0 z m -0.44307,-0.96853 c 6.34822,-1.08073 -8.90059,-0.92764 -1.4839,-1.19222 7.02838,-0.83599 -3.78561,-0.89857 -5.70137,-1.93686 -2.14653,-1.05515 -7.14692,-1.85789 -2.44187,0.54063 1.35847,1.15698 -5.82863,-1.36404 -0.86379,0.81215 3.3049,1.43487 6.87875,2.41903 10.49093,1.7763 z m -7.53969,-1.36835 c -4.13748,-1.99619 7.3208,0.94031 0.91084,0.11821 l -0.91083,-0.11821 -1e-5,0 z m 20.61021,1.02765 c -0.3059,-1.439 -0.53606,1.91062 0,0 z m -0.88614,0.0278 c -0.40523,-0.78343 -1.07444,0.50767 0,0 z m 63.26322,-1.36811 c -0.64782,-3.50668 -1.91758,-9.15743 -4.20612,-10.75449 1.83527,2.93689 3.35212,9.39712 4.20612,10.75449 z m -71.79228,-0.17663 c -0.75805,-1.61244 -0.71656,1.60317 0,0 z m 2.76917,0.26485 c -0.55883,-1.35576 -3.60281,0.66203 0,0 l 0,0 z m 3.61433,-0.28757 c 0.04,-3.36456 -1.12906,1.95484 0,0 z m 1.48096,-0.84869 c -0.42272,-2.00196 -0.5326,2.43524 0,0 z m -11.02132,-0.23379 c -1.20936,-1.99745 -8.15273,-1.11197 -11.07631,-3.39587 -1.10658,3.53429 8.83049,3.31383 11.07631,3.39587 z m 5.70406,-0.13126 c -0.91206,-0.71693 -2.47372,0.72863 0,0 z m -1.99337,-0.38695 c -1.16809,-2.72607 -0.71919,2.20491 0,0 z m 8.93751,-0.30931 c 0.0514,-2.16878 -1.06908,1.7978 0,0 z m -10.70978,-0.55409 c -0.3801,-1.05965 -0.83177,1.17478 0,0 z m 4.39664,0.159 c -1.03658,-1.77881 -2.8521,0.96205 0,0 z m 4.2281,-0.47586 c 2.17273,-6.54304 -2.53243,2.96918 0,0 z m 1.40635,0.22166 c -0.31663,-2.40394 -1.21941,1.55629 0,0 l 0,0 z m 2.15328,-0.0226 c -0.66129,-0.67308 -0.46823,1.25177 0,0 z m -27.24869,-0.43322 c -2.0673,-2.27199 -2.03484,0.95299 0,0 z m 13.49048,-0.004 c -0.0886,-1.82054 -9.09241,-0.80591 -8.06458,-2.52578 2.11241,0.30567 8.61042,2.16493 8.33936,0.22499 -3.81138,1.2051 -9.28854,-4.81335 -10.91372,0.37908 3.20501,1.78205 7.0656,2.46202 10.63894,1.92171 z m 3.56764,-0.12402 c -0.76094,-1.99864 -0.81514,1.33757 0,0 z m -1.36594,-0.58849 c -0.45265,-1.49887 -0.82405,1.9848 0,0 z m 5.47344,0.20565 c -0.15118,-1.41219 -1.30515,0.8682 0,0 z m -1.67062,-0.21985 c -1.43262,-0.98996 -1.1689,0.957 0,0 z m 8.30753,-0.23552 c 0.0132,-0.83658 -1.01582,0.8818 0,0 z m -26.9908,-0.3691 c -0.25287,-2.35832 -2.99271,1.05441 0,0 z m 16.68946,-0.10192 c 0.52988,-3.52919 7.05946,-7.21006 5.45922,-9.50272 -3.63964,-0.87022 -9.82369,8.63585 -5.69828,8.7943 -1.75366,0.16996 0.15681,1.90782 0.23906,0.70842 z m 3.21259,-6.92724 c 3.54384,-3.5733 -1.70741,3.01997 0,0 z m 4.96323,6.49055 c -1.15073,0.0469 0.42351,1.25453 0,0 z m -3.46306,0.10483 c 0.33653,-1.53005 -2.27348,0.89051 0,0 z m -2.27589,-0.37469 c -1.38224,-1.01404 -1.38223,1.01405 0,0 z m -17.83349,-0.91508 c -1.59047,-2.10384 -1.96686,1.66686 0,0 z m 24.66108,-0.22206 c -0.5851,-1.74705 -0.76137,1.91801 0,0 z m 2.69839,-1.79335 c -2.5824,1.48339 -1.77014,3.55425 0,-1e-5 l 0,1e-5 z m -14.47875,1.86767 c 1.68721,-3.55391 -5.18355,-3.54513 -7.89812,-3.9997 -1.57583,1.96935 12.04166,3.43578 4.21801,2.83424 -2.24569,-1.53422 -9.21085,-1.59261 -3.37816,0.56667 2.28442,0.18973 4.8672,1.51059 7.05827,0.59879 z m 6.47375,-0.54807 c 2.09405,-2.11393 2.66707,-6.94124 -0.24763,-2.14307 -1.57101,1.13554 -2.68647,4.72805 0.24763,2.14307 z m 2.1763,-0.21801 c 1.41364,-2.01112 1.34316,-6.76828 -0.23708,-1.91816 -0.80277,1.12313 -3.19169,5.52448 0.23708,1.91816 z m 4.34096,-0.5037 c 0.85995,-3.6725 -2.8234,2.12882 0,0 z m -24.90076,-0.75112 c -2.23124,-0.61734 0.45445,2.36949 0,0 z m 22.62242,0.84633 c -0.0883,-1.29163 -0.70693,1.32636 0,0 z m 0.93973,-1.64512 c -0.36016,-2.0206 -0.89113,2.47201 0,0 z m -21.98548,0.25129 c 0.50367,-2.08049 -2.73359,0.33974 0,0 l 0,0 z m 11.40483,-0.83865 c -0.3247,-1.21239 -8.61641,-3.14919 -7.21848,-1.08264 2.35306,0.2075 5.02287,2.17344 7.21848,1.08264 z m 10.60017,-1.79065 c -1.23885,-0.67967 -1.19782,3.2917 -0.0789,0.43175 l 0.0789,-0.43175 0,0 z m -20.40977,1.05388 c 0.36634,-1.84048 -2.94696,0.56044 0,0 z m 22.77897,-0.0994 c 0.76291,-4.30791 -2.70258,1.77472 0,0 z m 3.76064,-0.46406 c 0.36306,-1.25343 -1.52407,1.23325 0,0 z m -15.57447,-0.0687 c -0.5545,-1.69531 -10.83493,-3.86538 -5.24631,-0.90108 1.63314,0.69363 3.47941,1.23488 5.24631,0.90108 z m -8.94792,-0.93223 c -0.92986,-4.30515 -3.82319,2.70489 0,0 z m 23.86509,0.0589 c 0.73037,-1.39842 -1.34696,1.84916 0,0 z m 53.47507,0.21032 c 2.49413,-1.49007 2.7041,-9.74478 0.81741,-3.41492 0.0697,0.74087 -2.76826,3.77739 -0.81741,3.41492 z m 1.94256,-0.38695 c 1.81544,-2.05424 1.91561,-7.34554 0.23898,-1.80285 -0.0859,0.34651 -1.8679,2.98201 -0.23898,1.80285 z m 1.42409,0.11414 c 1.8512,-2.72528 -2.14217,0.66925 0,0 z m -70.71073,-0.42536 c 0.93039,-2.45593 -8.20245,-3.58059 -1.34344,-2.31849 1.9818,1.84807 6.35878,-0.31345 2.00758,-1.05783 -6.63656,-2.27151 6.41439,1.72972 2.01009,-1.76954 -2.56396,-0.56306 -6.29332,-3.51547 -1.43291,-0.94316 4.55354,2.4916 3.04579,-1.90158 -0.41132,-2.01699 2.21072,-1.90525 4.13241,-2.78845 3.83312,-6.61747 0.0129,-2.9209 4.67565,-1.31434 5.65404,-1.12946 -1.78245,-0.0189 -4.74458,0.78822 -1.32921,1.12254 -4.98142,-1.13507 -0.63774,8.39757 0.75988,4.63725 -4.13714,-2.36483 3.82631,1.22042 0.66736,-2.40383 3.57809,1.20229 0.094,-2.80729 3.66909,-1.35102 1.90576,-1.75727 8.88597,-1.56475 3.37063,-4.1038 -0.85437,-2.67863 -9.30656,-2.0483 -2.73472,-2.36605 3.82178,0.74721 1.77321,-0.59545 0.82635,-0.91026 3.21277,0.95848 2.93309,-6.23847 5.3215,-0.85855 1.98159,3.30566 1.74646,-8.50083 3.15851,-1.93596 2.16346,2.79905 -1.15441,7.96906 3.95524,4.37393 3.81999,-4.86992 10.57948,-0.29828 14.23048,-2.53024 0.72742,-3.17525 8.59695,-1.15027 2.78078,-2.64111 2.19782,-3.1547 7.2345,-0.4436 8.92809,3.04386 2.63333,1.43079 6.64503,1.86918 9.84808,3.30362 3.82514,2.93503 -1.48775,-6.23557 0.30238,-9.03517 0.85198,-4.34154 -0.38037,11.48222 1.23614,2.96313 -0.30627,-3.19953 0.50348,-5.13157 0.67653,-0.56072 0.93554,-0.8267 0.54729,-5.20855 1.47966,-0.7892 0.25678,3.42646 3.14953,4.4258 3.05513,8.03162 0.53074,-2.26676 -0.68919,-14.13066 0.54551,-6.41333 0.71628,2.22153 -1.00825,10.59753 0.62508,9.1455 0.38073,-3.77412 -0.41158,-9.12237 0.3051,-12.0271 0.93293,3.57413 0.06,9.51776 0.32348,12.10023 2.02034,-3.16319 -0.2743,-9.94032 1.28882,-11.83978 0.87011,2.15809 -0.56402,10.89999 0.71683,9.5247 0.35551,-4.87807 1.71239,-14.20206 -5.25728,-11.71562 -1.76949,-0.69223 0.15338,9.1608 -1.12803,1.76134 -1.9007,-5.82105 -10.76808,-2.82396 -15.5966,-3.74389 -8.45319,-0.0571 -16.95776,0.9734 -25.25744,2.08917 -5.14337,0.69646 -9.76691,3.11361 -14.10896,6.04643 -4.68945,2.32887 -9.18157,4.91759 -13.28278,8.29473 -3.0425,0.92795 -6.39718,8.11539 -1.97566,4.91016 1.69754,-2.20628 4.51451,-4.09467 1.3757,-0.13021 -2.3329,1.29126 -5.53871,5.68627 -4.68276,6.46761 -5.50281,1.26255 4.93109,4.15109 5.58993,3.39296 z m 9.43102,-17.04066 c -6.36355,-1.71262 9.76734,-0.18907 1.05794,0.0828 l -1.05794,-0.0828 0,0 z m 2.78786,-1.13606 c -6.96957,-0.71506 4.35705,-1.49374 2.81625,-0.19865 -0.90123,0.20434 -1.90262,0.58575 -2.81625,0.19865 z m 57.50441,-4.06264 c 0.15352,-1.37213 0.15352,1.37214 0,0 z m -7.14953,-0.11775 c -0.002,-2.38859 -0.31542,-9.80013 0.51001,-3.60422 -0.003,0.86361 0.13269,3.57621 -0.51001,3.60422 z m -1.72114,-1.23645 c -0.14976,-1.98024 -0.30988,-8.33809 0.43721,-2.88837 0.51837,0.43128 -0.21031,6.35395 -0.43721,2.88837 z m 8.76921,0.47103 c -0.54317,-2.12086 -0.3498,-7.17107 0.10607,-2.15532 -0.13288,0.0968 0.38319,2.83567 -0.10607,2.15532 z m -10.56042,-3.25011 c -0.15153,-6.96232 1.28299,2.85426 0.05,2.56948 -0.0594,-0.85519 -0.0475,-1.71287 -0.05,-2.56948 z m -1.4744,1.51318 c 0.4779,-5.00809 0.69899,2.98634 0,0 z m -15.36097,-0.27235 c 1.12772,-3.15618 1.38986,0.26478 0,0 l 0,0 z m 13.42979,0.14266 c -0.39267,-4.57719 1.77383,-2.82845 0,0 z m -15.43156,-0.28306 c 2.75159,-5.51504 2.00185,-0.0639 0,0 z m 3.76608,0.0973 c 0.83512,-2.10065 2.54057,-6.29332 1.349,-1.2769 -5.6e-4,0.43669 -0.84671,1.82809 -1.349,1.2769 z m -5.31682,-0.5605 c 1.20741,-2.95746 1.70335,0.52047 0,0 z m 15.4236,-0.54093 c -0.8175,-7.86174 1.66228,1.04439 0,0 z m -19.50838,0.29217 c 0.44773,-2.0655 2.91913,0.80483 0,0 z m 2.3125,-0.11369 c 1.16275,-1.78062 1.14465,1.42248 0,0 z m 13.99872,-1.38167 c 1.62359,-5.37736 -0.63459,5.34332 0,0 z m 1.50868,1.46877 c 0.51113,-5.39917 2.11302,-1.47447 0,0 z m -3.98762,-0.0876 c 0.78445,-4.32009 2.39247,-2.08977 0.0708,0.10283 l -0.0708,-0.10283 0,0 z m 9.29895,-1.45535 c -0.79483,-4.77686 1.18662,2.2659 0,0 z m 8.75876,-1.27537 c 0.10462,-2.2789 0.81713,0.9063 0,0 z m -18.24426,-0.94668 c 0.15351,-1.37217 0.1535,1.37217 0,0 z m -35.17802,29.6578 c 2.52376,-3.03231 5.35174,-4.36419 8.52545,-7.32309 2.00609,-2.15821 8.57762,-2.61285 2.64906,-0.43182 -2.48136,0.11435 -9.62895,7.89623 -3.834,3.29722 1.71405,-1.6492 7.60849,-3.3128 2.48584,-0.68285 1.40693,1.1012 9.00537,-4.9227 11.02726,-2.40457 2.17352,0.95768 5.91212,-3.50635 4.62158,0.12601 1.93001,-2.29417 1.55679,-1.47501 2.44497,-0.61518 2.34543,-2.76398 0.17286,2.93376 2.8956,-1.18583 -0.358,1.67466 -0.24151,2.09504 1.86797,0.52397 -3.08181,4.97474 4.14219,-3.80372 1.11654,1.41227 1.87785,-1.0056 2.76606,-3.11744 1.29469,0.008 1.91498,-1.01924 3.02717,-2.46504 1.83348,0.26082 1.75154,-1.29135 3.47661,-3.83017 1.62631,-0.0685 5.34018,-2.03043 2.03412,-8.95012 -2.30504,-4.16664 -4.49523,2.1217 -6.13777,-6.27762 -9.52419,-2.1235 -4.30133,3.42886 -10.2194,0.544 -14.5104,3.6184 -4.68553,0.79559 -7.89057,5.95628 -12.0051,8.05031 -2.6442,-1.82614 -3.06844,0.21902 -0.31615,0.29186 -0.48293,0.86622 -1.84561,2.89575 0.10613,1.41335 z m 12.96137,-7.12202 c 2.1923,-1.51789 -0.43592,1.23611 0,0 z m 1.23202,-0.60765 c 2.59215,-2.20208 4.67252,-0.20932 0,0 z m -18.26969,7.52673 c 1.12086,-3.23623 -1.15322,-8.71903 -1.49318,-2.17726 -0.31791,1.00301 0.0425,3.78262 1.49318,2.17726 z m -0.76374,-1.18645 c -0.58011,-4.41731 1.47587,-3.29032 0.2059,0.16006 l -0.2059,-0.16006 0,0 z m 18.17291,0.57692 c -0.0225,-3.36435 -2.97208,-3.22161 -1.13208,-0.10771 0.3759,0.41764 2.76066,2.06235 1.13208,0.10771 z m 46.35116,0.69846 c 1.7681,-2.66957 -2.27366,1.00526 0,0 l 0,0 z m 1.82157,-0.45768 c 1.12406,-2.14705 -2.23736,2.03662 0,0 z m -49.84518,0.13165 c -1.11377,-4.18806 -2.73094,-0.48017 0,0 z m 2.87751,-0.5438 c 0.16529,-2.5009 -0.84385,-5.09719 -1.05097,-1.02809 -0.77853,0.59551 2.1792,3.0282 1.05097,1.02809 z m 38.51222,0.5593 c 0.35669,-6.153 -2.99468,0.48834 0,0 z m -48.9921,-0.54458 c -0.37982,-0.40493 0.19126,1.31665 0,0 z m 59.3809,0.0442 c 1.27237,-1.79034 -2.31723,1.49165 0,0 z m -84.91408,-0.1578 c -1.48624,-3.56274 -4.77597,0.87697 0,0 z m 80.31368,-0.59315 c 1.57047,-3.15823 -2.44807,1.95171 0,0 z m -54.84346,-0.70068 c -0.97672,-0.27141 -0.26643,2.09104 0,0 z m 56.71525,0.53296 c 0.65759,-1.98889 -1.89749,1.4965 0,0 z m -8.92061,-0.96284 c 1.86043,-3.40873 -3.17433,2.42662 0,0 z m 3.08374,-0.82174 c 1.67147,-2.22602 -0.37174,-5.54511 -0.548,-1.19342 -0.44348,1.43798 -0.45805,4.13304 0.548,1.19342 z m 7.96133,1.31222 c -0.47585,-0.56957 -2.07498,1.08071 0,0 z m -69.56171,-0.35607 c 0.71448,-3.38993 -4.21831,1.65935 0,0 z m 14.08126,-0.0676 c 0.53346,-2.02562 -1.90017,1.45982 0,0 z M 162.7723,135.4321 c -0.86147,-2.80248 -4.6615,1.17963 -0.27515,0.41253 l 0.27515,-0.41253 0,0 z m 80.11316,-0.41434 c -0.3331,-2.11663 -1.88607,1.69541 0,0 l 0,0 z m 1.87518,0.0851 c 0.62651,-1.88209 1.26829,-5.97703 2.16124,-3.21166 1.46208,-1.74339 1.10697,-2.60457 2.39688,-1.24019 1.05298,-2.56716 3.71934,0.29555 4.77092,-2.27301 0.22494,3.11161 1.11897,-1.98239 1.88173,-1.74051 -2.16437,-1.01015 -4.14035,-3.23611 -0.98879,-1.15528 1.75787,0.88667 7.05788,7.81876 5.25954,2.07749 -4.07677,-2.80512 -4.54682,-12.58068 -10.96347,-10.08684 -3.16591,1.46211 -3.81497,6.10831 -6.66873,8.0547 2.44367,-0.10773 9.41332,-3.34897 3.2923,-0.24912 -3.52791,-0.48488 -8.00126,4.16747 -5.83332,6.68033 1.14407,-2.03544 0.43478,3.81061 2.3054,0.20959 0.341,3.98508 2.73791,-3.33719 2.01598,1.80911 -0.64382,0.6676 -1.24863,2.26463 0.37032,1.12539 z m 7.77904,-11.15377 c 1.6868,-2.20239 3.17209,0.0303 0,0 z m -1.13798,-0.99417 c 1.2044,-2.84342 3.24618,0.91972 0,0 z m -0.53305,-1.37736 c 0.566,-0.8449 0.566,0.8449 0,0 z m -4.1116,13.27881 c -0.083,-2.4317 -2.5309,2.46335 -1e-5,0 l 1e-5,0 z m 1.26019,0.32219 c 1.54358,-2.79202 1.37119,-4.28253 -0.4716,-2.53179 -1.4084,-0.74311 -1.95446,2.34145 -0.008,1.4621 -0.114,0.39139 -0.74181,2.16589 0.47956,1.06969 z m -64.43959,-0.32172 c 0.85633,-1.57701 -6.35241,0.47653 -0.99229,0.24812 l 0.36923,0.0198 0.62306,-0.2679 0,0 z m 28.83811,0.0227 c 1.01383,-4.23064 -6.17924,-2.40261 -1.59372,0.25 l 0.83088,0.0814 0.76284,-0.33138 0,0 z m 21.51332,-0.0224 c 2.01271,-2.69936 -2.73654,1.42877 0,0 z m -0.86794,-0.68701 c 3.12331,-4.53171 -3.32921,1.94112 0,0 l 0,0 z m 17.3231,-0.28684 c -0.62194,-2.43098 -1.36161,2.91337 0,0 z m 1.32887,0.18618 c 1.7775,-3.79726 -2.79202,2.55145 0,0 z m -75.33532,0.22919 c 1.78531,-2.14504 -3.83838,0.78546 0,0 z m 60.67885,-1.35743 c 0.43273,-4.31326 -2.74784,-0.18327 -0.51017,0.88318 -0.26642,1.65541 0.79663,-0.51215 0.51017,-0.88318 z m 16.50203,0.20286 c 0.099,-2.51939 -2.26626,3.74856 0,0 z m -89.8226,0.63927 c 1.45817,-3.22381 -4.5686,0.23834 -0.41362,0.34195 l 0.41362,-0.34195 0,0 z m 17.25993,0.2774 c 3.88039,0.44021 5.72171,-1.70796 6.73541,-5.50491 2.24829,-1.68207 4.49364,-6.58117 -0.27299,-4.48618 -3.61667,-0.31294 -9.2669,8.5353 -7.15917,8.42417 3.81998,-6.89346 -0.82914,1.38931 0.69675,1.56692 z m 3.52983,-2.41486 c 1.29571,-2.23811 4.65899,-10.72334 2.81205,-4.23564 -0.47995,0.44358 -2.86852,6.66921 -2.81205,4.23564 z m -0.50989,-4.40501 c 2.365,-3.03317 3.84912,-1.74891 0.47125,0.3324 -0.68439,0.82479 -1.46806,0.67406 -0.47125,-0.3324 z m 48.37242,5.94471 c 1.08557,-3.83192 -3.58072,3.12639 0,0 z m 22.50585,0.24904 c 1.63127,-2.93669 -2.10639,1.40389 0,0 z m -23.9523,-0.82943 c 2.49712,-2.42859 1.59662,-5.72495 -0.16852,-1.07063 -1.19853,1.06823 -1.8695,3.21537 0.16852,1.07063 z m 25.90816,-0.3527 c -1.11304,-1.07316 -1.34212,3.10137 0,0 z m -28.54388,-0.35141 c 2.21139,-2.2415 1.89723,-5.85307 -1.2e-4,-1.25007 -1.26075,1.014 -1.88977,3.48574 1.2e-4,1.25007 z m 1.33844,0.3484 c 2.05498,-1.98276 1.98026,-6.28292 -0.0436,-1.43296 -0.57526,0.52845 -1.49041,3.16925 0.0436,1.43296 l 0,0 z m -52.10459,-0.25032 c -1.10386,-2.39252 -1.89264,-12.50578 -2.50749,-4.67172 2.38606,3.5816 -5.65866,0.74557 -1.09542,3.53572 2.71152,3.19327 1.51764,-3.36294 2.97571,1.63809 0.29159,0.42429 0.76726,-0.16018 0.6272,-0.50209 z m 10.41291,0.29438 c -0.69881,-1.42273 -1.27047,1.47913 0,0 z m 38.95763,-0.5299 c 2.02379,-1.73104 3.28614,-6.48556 0.31951,-1.99873 1.49602,-4.27596 -4.32881,-1.56167 -3.94413,1.84257 1.65065,-1.18072 3.81294,-4.03831 1.23721,-0.0215 1.0887,0.31897 3.41781,-2.50477 0.90546,0.83135 0.22214,0.78458 1.34075,-0.51522 1.48195,-0.65369 z m -27.21632,0.41215 c -0.62781,0.0112 -0.23487,-0.0283 0,0 z m 35.22054,-0.76543 c 1.20017,-5.29306 -2.47167,3.50616 0,0 z m 16.17538,0.0506 c -1.14958,-1.67793 -0.9287,2.37858 0,0 z m -85.71516,-0.16135 c -1.08134,-4.91345 -4.0068,3.30836 0,0 z m 87.22219,0.0233 c -0.99859,-1.60026 -1.28208,1.94782 0,0 z m 1.609,0.37357 c 1.70281,-2.69967 -2.16737,0.18891 0,0 z m 4.19459,-0.49054 c -0.45502,-1.36428 -0.52061,2.06529 0,0 z m -79.57893,-0.44388 c 0.24123,-3.77545 -2.09182,2.06163 0,0 z m 10.01722,0.47168 c -0.62781,0.0112 -0.23487,-0.0283 0,0 z m 67.25836,-1.12185 c -0.21522,-2.77675 -1.45876,3.97611 0,0 z m -22.50847,0.4405 c 2.36084,-4.05011 -2.48152,1.6883 0,0 z m -45.09822,-0.0252 c 1.67521,-3.86289 -2.58056,0.95598 0,0 z m 49.84858,-0.69171 c 1.27831,-3.85558 -2.99657,-10.85347 -2.01204,-5.457 -0.65471,0.30441 -0.19626,7.40813 2.01204,5.457 z m 19.06457,-0.0933 c -0.48565,-1.43113 -0.6669,1.62204 0,0 z m -67.42392,-0.27477 c -0.63672,-1.19858 -0.61668,1.1924 0,0 z m 66.31624,-1.05982 c -0.61749,-2.05859 -0.61749,2.0586 0,0 z m -63.39071,-0.59238 c -1.22141,-1.1693 -0.60155,1.97496 0,0 z m -1.01565,-0.4432 c 0.30388,-3.01051 -1.91691,2.27502 0,0 l 0,0 z m 43.24206,0.34453 c 0.77381,-2.42039 -3.14385,2.01115 0,0 z m -40.39604,-0.0605 c -1.79898,-1.72314 -5.23297,-8.08548 -2.53082,-1.8628 0.54044,0.64422 1.56492,2.71612 2.53082,1.8628 z m 1.19229,-0.4255 c -1.10889,-2.46215 -5.47089,-8.05441 -2.77183,-1.95193 0.43797,0.61569 2.14737,2.53568 2.77183,1.95193 z m 43.86376,-0.11831 c -0.54925,-1.24092 -0.54925,1.24092 0,0 z m -6.06213,-0.23406 c 5.04781,-1.55979 -9.79351,-2.24599 -1.96564,-2.13952 4.83071,2.1349 3.12596,-1.74089 -0.22438,-2.58256 -3.44507,-0.96494 -8.31797,-4.77305 -6.82525,0.83463 2.54376,0.83463 5.82254,2.71774 1.12075,1.20419 -5.11916,-1.25005 0.71514,3.71063 3.32301,2.67653 1.49559,0.15077 3.11629,0.62751 4.57151,0.007 z m -0.80543,-2.70988 c -2.56224,-1.58617 2.90723,0.83941 0,0 z m -7.64292,-1.41308 c 0.79888,-0.25064 0.25255,-0.14157 0,0 z m 1.21844,0 c 2.3824,-0.84145 -0.47257,0.88728 0,0 z m -20.93498,2.94284 c 2.72392,0.15116 9.49183,-5.35405 3.12733,-3.28455 -2.45288,1.66825 -11.25259,0.91608 -6.78265,3.41383 1.20337,0.35848 2.44414,-0.0699 3.65532,-0.12928 z m -0.99691,-0.69131 c 1.34415,-1.07828 9.91185,-4.28663 4.00133,-1.30948 -1.00336,0.60762 -3.02561,2.1118 -4.00133,1.30948 z m 12.62745,0.65207 c -1.76049,-3.60136 -2.16405,1.17608 0,0 z m 2.6584,-0.0774 c -0.84817,-2.08086 -3.39872,0.4558 0,0 l 0,0 z m -20.77051,-0.62406 c -0.87843,-1.7789 -4.31307,1.31486 0,0 l 0,0 z m 41.3479,-1.1423 c -0.0594,-3.19951 -0.76281,4.38576 0,0 z m -18.56902,0.81602 c 1.08309,-1.98672 -4.26327,1.05315 0,0 z m -24.77997,-0.72184 c 4.21127,-1.86929 11.09414,-0.31186 14.01554,-3.91365 -4.49071,1.39387 -8.90212,-0.83974 -12.78072,1.81759 -0.95043,0.31985 -5.37849,4.26646 -1.23482,2.09606 z m 17.67632,0.17018 c -1.06317,-4.60682 -2.0404,1.78981 0,0 z m 24.8056,-0.25198 c 0.68643,-3.24465 -0.0104,-7.9797 -2.32381,-6.41271 0.74765,1.43263 1.16601,7.2443 2.32381,6.41271 z m -20.81958,-0.54229 c -0.13582,-3.28304 2.91014,-4.14237 2.05864,-1.16118 -2.60524,-1.49751 -0.86678,4.39286 1.12788,0.26588 3.67829,-7.56205 -9.64719,-9.40659 -7.65997,-0.90448 0.20299,1.68569 3.4844,3.39997 4.47345,1.79978 z m -2.43528,-1.28893 c 0.88635,-2.51865 -3.49588,-0.94766 0.32191,-2.32754 1.37808,-2.01143 -0.38045,6.82662 -0.32191,2.32754 z m 1.55074,-1.36061 c 1.149,-2.08406 1.39268,2.19871 0,0 z m -2.42951,-1.02346 c 0.88215,-2.66781 5.97698,-5.15933 2.6228,-2.39151 0.47721,2.0106 2.75462,-1.2823 1.73428,1.95663 -1.5052,-1.02574 -3.35322,-1.76516 -4.35708,0.43488 z m 20.48926,3.85519 c -0.92415,-2.32859 -10.05112,-4.52542 -8.51113,-3.37539 2.71217,0.4104 7.20989,3.10378 8.51113,3.37539 z m -40.99189,-0.69582 c 2.28215,-4.37787 -3.06249,2.52837 0,0 z m 28.20465,0.40765 c 1.05122,-2.37071 -2.58603,1.30095 0,0 z m -9.71876,-1.99439 c -1.08557,-4.50638 -0.91077,4.56031 0,0 l 0,0 z m 27.26427,1.33495 c -0.56601,-0.8449 -0.56601,0.84489 0,0 z m -2.88878,-1.11971 c -0.65879,-2.18066 -1.67799,-9.1223 -2.11552,-2.9142 -0.2137,0.60339 2.48284,5.44004 2.11552,2.9142 z m -14.08229,0.0406 c 0.84204,-3.16398 -1.76431,1.4866 0,0 z m -25.00965,-0.47994 c 3.47627,-3.1159 10.1529,-0.38667 12.54995,-3.08287 -4.62377,-0.28957 -9.30461,0.12087 -12.43227,1.4231 -1.59663,0.83958 -3.02007,3.41378 -0.11768,1.65976 l 0,1e-5 z m -5.70451,-0.22467 c 1.96176,-2.97845 -3.49051,-3.52074 -4.26627,-4.23333 -2.44065,3.70389 0.85988,5.62866 4.26627,4.23333 z m 52.62438,-2.71352 c 0.42178,-2.46627 -0.64304,-12.31261 -0.58797,-4.53798 -0.003,1.8774 0.14044,11.83328 0.58797,4.53798 z m -36.52892,1.66996 c -2.37262,-0.82732 -6.9259,0.65685 -1.87621,0.33098 l 1.22728,-0.13062 0.64893,-0.20036 0,0 z m 4.34909,-1.48944 c 0.75687,-2.94889 -2.98146,3.91124 0,0 z m 10.26961,1.11798 c 0.58188,-3.17839 -1.3628,1.41016 0,0 z m 23.23362,-2.54134 c 0.66567,-2.25213 -1.17929,-10.52712 -0.85437,-4.14906 0.21378,1.32075 0.11152,9.6698 0.85437,4.14906 z m -52.45256,0.35755 c -1.46979,-4.80267 -2.65041,3.22101 0.009,0.49902 l -0.009,-0.49902 0,0 z m 32.12259,1.02547 c -2.44511,-1.37358 -2.20207,1.31942 0,0 z m -3.32364,-0.58668 c -0.0668,-3.14686 -1.37724,1.91419 0,0 z m -20.04821,-0.002 c -0.40018,-0.73977 -2.21009,1.00837 0,0 z m 2.32611,0 c -3.14066,-0.52216 -2.19535,0.13095 0,0 z m 8.31306,-0.94206 c 5.75734,-4.12746 -4.79441,1.18217 0,0 z m 34.29974,-2.81576 c 0.38861,-3.44934 -1.42006,-5.44393 -0.77489,-0.80423 0.0211,3.18662 0.96249,6.68094 0.77489,0.80423 z m -25.98198,1.73888 c -1.26417,-2.07068 0.0422,3.48645 0,0 z m 27.31094,-2.45555 c 0.54072,-3.07165 -1.33561,-5.00244 -0.84187,-0.67379 -0.19443,3.31806 1.27896,6.57523 0.84187,0.67379 z m 4.6595,2.04656 c 0.0351,-3.88739 -0.66064,4.19558 0,0 z m -3.47048,0.13472 c 0.37959,-2.44558 -1.12814,-9.38034 -0.49275,-2.7976 0.15775,0.12234 -0.22403,5.41542 0.49275,2.7976 z m 2.48944,0.48373 c 0.64098,-2.57574 -0.91484,-6.32794 -0.58547,-1.39173 -1.27733,5.41504 -0.4914,-10.0604 -1.37816,-2.44352 0.26337,1.55922 -0.94914,6.36516 1.96363,3.83525 z m -32.00207,-0.41258 c -0.81123,-3.64218 -1.85628,0.56251 0,0 l 0,0 z m -1.75832,-1.04744 c -2.32874,-2.45605 -0.74823,1.67566 0,0 z m -38.21555,73.09223 c -2.78649,0.45097 -9.76897,-4.48823 -3.4116,-3.29673 2.52856,-2.14209 1.57391,-2.50378 -0.76857,-0.69895 -4.66775,-0.96013 4.47237,-0.7475 2.29192,-5.02394 0.63926,-5.56534 1.69609,7.77225 -2.09081,7.13267 3.46617,0.34933 4.0579,-0.1409 5.59597,-3.94936 -0.1258,2.63715 -3.07283,6.68182 0.37892,2.13161 1.19062,0.53643 -3.80719,5.50806 0.62187,2.21381 0.0262,1.0372 -1.65379,2.46281 -2.6177,1.49089 z m -0.77063,-3.17196 c 1.20063,-2.25358 -0.64254,1.72093 0,0 z m -3.78386,-2.33929 c 2.2424,-2.79562 1.94374,0.31115 0,0 z m 6.05676,-2.03098 c 0.0741,-3.81153 0.82448,1.45841 0,0 z m 33.39381,-0.2419 c 0.14251,-0.90767 0.22471,1.07196 0,0 z m -20.03124,-0.96362 c -3.23341,0.71578 -4.46667,-1.59438 -0.60403,-0.87299 0.12869,-0.39498 2.58114,1.72879 0.60403,0.87299 z m 25.16489,-0.66536 c 0.0798,-1.7921 0.20973,1.87342 0,0 z M 182.7706,177.0222 c -0.62594,-4.16206 1.05949,0.30974 0,0 z m 38.35923,-1.17247 c 0.16118,-2.24826 -2.13517,-6.99627 -0.93149,-1.76614 -1.67701,-3.03007 -1.63396,-8.94381 -2.57103,-6.87488 -0.82817,-2.18861 -3.76845,-2.43751 -3.41734,-2.76731 -1.66288,-2.94368 -0.50221,-6.30071 0.71392,-1.36585 3.17855,4.69626 2.52077,-1.42351 2.79105,-2.89282 0.14387,5.63526 3.61043,10.40962 3.78208,15.99534 0.25991,0.62178 -1.17982,1.58069 -0.36719,-0.32834 z m -1.68171,-6.04602 c -0.68159,-0.34928 0.72641,1.68241 0,0 z m -28.37612,4.9051 c 0.73371,-0.99122 9.83973,-1.32612 3.85962,-0.37578 -1.31402,-0.48937 -2.67994,1.34537 -3.85962,0.37578 z m -8.44701,-0.18524 c -0.63739,-2.7659 -0.98602,-6.08316 0.20989,-1.47676 -0.0805,0.31881 0.46044,1.48552 -0.20989,1.47676 z m 60.25571,0 c -1.3119,-4.17609 0.68349,-2.81612 0,0 l 0,0 z m -54.04161,-2.17851 c 0.64648,-4.6564 3.64386,0.4688 6.42142,-1.89874 2.77587,0.88826 -7.01292,2.68409 -6.42142,1.89874 z m 8.05124,-0.85441 c 0.0307,-1.63864 -1.58962,-2.60257 -4.20555,-1.69875 1.81965,-1.52001 11.60201,-0.1104 5.08089,1.71397 l -0.87534,-0.0152 0,-1e-5 z m 46.57341,-0.27819 c -2.82693,-4.25164 -5.41579,-8.71714 -6.81621,-13.78223 -0.64714,-3.68769 -1.85124,-7.79366 -1.97644,-11.25804 1.47228,6.97517 2.67514,14.36613 6.59702,20.3111 -2.77831,-5.94004 5.62551,7.45418 2.19563,4.72917 z m -1.98394,-0.77103 c -4.22384,-5.08886 1.38934,-0.004 0,0 z m -50.15307,-0.39183 c 1.1553,-1.43645 0.44333,1.24008 0,0 z m 35.63934,-0.14544 c -0.71365,-3.07212 1.04819,1.28632 0,0 z m -3.76587,-1.22349 c -1.52163,-1.65059 -1.91699,-10.76073 -0.91018,-4.05828 0.14221,0.8161 2.57644,7.74918 0.91018,4.05828 z m 20.9259,0.54007 c -0.27717,-1.0308 0.76929,1.10108 0,0 z m -4.55009,-1.77653 c -1.85776,-2.7792 -0.9356,-3.59601 0.23756,-0.28452 l 0.14665,0.81444 -0.38421,-0.52992 0,0 z m -5.39056,-0.84456 c -1.23356,-2.21953 -2.78632,-11.42646 -0.99087,-4.13099 0.0754,0.39198 2.50326,7.03105 0.99087,4.13099 z m -5.44429,-1.78643 c -0.73284,-3.42475 1.04566,1.67352 0,0 z m 8.93613,-1.18541 c -1.06531,-3.32865 1.57366,2.66829 0,0 z m -41.33373,-0.95277 c -2.279,-3.96955 2.06352,0.33129 0,0 z m 22.66848,-0.41728 c -1.1368,-6.87978 -0.24685,-14.19011 -2.88876,-20.73776 3.48224,4.8209 1.96409,11.89962 2.97962,17.72199 0.28758,0.45636 0.66674,5.47919 -0.0909,3.01577 z m 7.42592,-1.89825 c -0.75433,-2.91185 0.79188,0.97158 0,0 z m 9.73559,-1.49197 c -0.66522,-2.72578 0.60287,-0.65368 1e-5,0 l -1e-5,0 z m -23.18725,-3.49347 c -0.0364,-6.59654 0.49733,0.60897 0.1547,3.32902 -0.19909,-1.09738 -0.11987,-2.22028 -0.1547,-3.32902 z m 16.83249,-2.24793 c -0.22383,-3.06204 1.25564,2.16823 0,0 z m -31.67527,-0.46049 c -0.76236,-3.29471 -5.62764,1.18808 -2.36029,-3.12275 -5.75838,1.53742 2.21617,-2.96552 4.18618,-3.43786 6.33398,1.87336 -5.48918,-0.0552 -2.35166,3.70699 2.12301,-2.18758 12.70603,0.57562 5.27487,0.81807 -3.39483,-1.26017 -3.83468,4.24391 -0.31074,0.88654 2.27533,-0.56652 -4.28713,3.75105 -4.43836,1.14901 z m 17.48358,-1.57583 c 0.32052,-1.82825 -2.24128,-11.52388 0.0703,-5.31626 0.21301,1.2022 0.68583,5.41362 -0.0703,5.31626 z m 18.33713,-0.42605 c -0.63701,-1.81039 -2.1987,-9.94808 -0.5386,-4.00573 -0.0226,0.41141 1.29016,4.76213 0.5386,4.00573 z m -29.56908,-2.59223 c -3.94851,-1.13634 4.1718,0.42494 0,0 z m 27.20002,0.10543 c 0.36682,-0.52619 0.55392,0.80645 0,0 l 0,0 z m -39.75254,-0.40424 c 1.65128,-3.07429 8.81089,-6.23845 11.37582,-4.47783 -4.42559,-0.33749 -7.46833,3.39422 -11.37582,4.47783 z m 18.17145,-2.79503 c -0.14402,-1.74439 1.10094,1.42054 0,0 z m 24.17758,-0.3977 c -0.52703,-2.52321 0.77156,1.19682 0,0 z m -25.92304,-2.35432 c -1.15927,-2.30544 1.30315,1.49224 0,0 z m 5.43767,-0.46878 c -1.72623,-3.73071 2.07258,2.35201 0,0 z m 11.02567,-1.85052 c -1.34282,-2.20124 -2.33997,-5.2233 -0.0262,-1.29131 0.95292,2.25418 1.82651,5.11769 0.0262,1.29131 z m -17.59973,0.76178 c -1.27286,0.25735 -7.80424,-2.5065 -4.37266,-1.80969 -1.45313,-2.71454 -0.29542,-6.2694 0.26088,-1.35624 -0.43214,1.38455 7.03735,3.72917 4.11178,3.16593 z m -0.12735,-1.66238 c 0.56602,-0.84491 0.56601,0.8449 0,0 z m -0.0768,-0.83565 c -2.35183,-2.16691 0.83376,-7.94441 -0.0913,-1.88169 1.15117,1.11652 2.77298,3.72868 0.0913,1.88169 z m -1.78964,0.1151 c -1.08263,-1.62745 2.60256,1.71843 0,0 z m 7.05878,0.0375 c 1.90171,-0.0774 5.00688,-3.57773 2.18076,-0.11003 -0.60834,0.13409 -1.65918,0.64012 -2.18076,0.11003 z m -1.7032,-0.18589 c -1.6917,-1.78449 3.20579,0.92704 0,0 z m -9.99377,-0.66196 c -0.028,-1.15032 0.63799,1.1635 0,0 l 0,0 z m 31.31643,-0.70655 c -0.7463,-1.52326 1.26451,0.97372 0,0 z m -28.4394,-0.8193 c -1.01668,-4.33816 1.69658,3.10652 0,0 z m -3.77544,-1.15097 c -0.18709,-1.38058 0.67373,0.60131 0,0 l 0,0 z m 26.67648,-0.50263 c 0.56602,-0.84491 0.56601,0.8449 0,0 z"
         id="path1400"
         inkscape:connector-curvature="0" />
      <path
         transform="translate(107.68179,77.083649)"
         id="path3865"
         d="m 89.124709,137.23188 c 0.436885,-0.46504 0.617103,-0.84553 0.400487,-0.84553 -0.21662,0 -0.489425,0.24908 -0.606247,0.55351 -0.286406,0.74636 -2.421794,0.71641 -3.515004,-0.0493 -0.82117,-0.57516 -0.849875,-0.56893 -0.626188,0.13584 0.223195,0.70321 0.141003,0.72192 -1.712255,0.38995 -2.801232,-0.50177 -2.919694,-0.86894 -0.624963,-1.93713 2.388125,-1.11166 4.294738,-1.17909 6.945491,-0.24559 1.886092,0.66421 3.15431,0.67124 3.556985,0.0197 0.370092,-0.5988 -1.404779,-1.13691 -4.928565,-1.49424 -5.85062,-0.59328 -9.663166,-1.12535 -9.663166,-1.34857 0,-0.11527 0.274812,-0.51325 0.610698,-0.88439 0.365395,-0.40375 0.439498,-0.67482 0.184502,-0.67482 -1.469868,0 0.811645,-7.55802 4.207937,-13.93968 2.801347,-5.26374 3.338653,-5.98651 4.450413,-5.98651 1.206225,0 1.985565,1.82509 1.985565,4.64993 0,1.66863 0.268321,2.62066 1.329336,4.71665 1.531295,3.02499 3.176937,5.34337 3.373749,4.75294 0.07438,-0.22313 -0.372576,-1.41164 -0.993226,-2.64114 -1.986597,-3.93543 -3.212284,-8.42136 -3.007605,-11.00765 0.05332,-0.67387 1.738325,-1.41412 4.778613,-2.09935 3.492882,-0.78724 5.937114,-2.0336 8.864794,-4.52031 1.29416,-1.09924 2.43403,-1.91763 2.53302,-1.81865 0.099,0.099 -0.1876,0.93928 -0.63685,1.86732 -0.44925,0.92802 -0.72256,1.93301 -0.60733,2.23328 0.24658,0.6426 2.15215,0.72953 3.23919,0.14777 0.58222,-0.3116 0.83776,-0.26993 1.17526,0.19163 0.39113,0.5349 0.56864,0.51918 1.90703,-0.16876 0.81167,-0.41721 2.14863,-0.83993 2.97103,-0.93938 1.41176,-0.17073 1.52942,-0.10922 2.10675,1.10145 0.81907,1.71761 1.58895,4.80628 2.28263,9.1576 1.00583,6.3094 1.14776,5.86683 -3.41072,10.63461 l -3.98365,4.16654 -7.36322,0.32769 c -7.040775,0.31336 -15.261377,0.197 -21.200868,-0.30009 -4.251088,-0.35578 -2.784841,0.45461 2.115078,1.16899 3.524712,0.51387 5.657424,0.55348 14.74814,0.27378 5.84515,-0.17985 10.6921,-0.28587 10.77099,-0.23563 0.61295,0.39039 -2.59178,0.78778 -7.70801,0.95583 -6.674257,0.21923 -7.922537,0.49021 -8.016707,1.74034 -0.03395,0.4507 -0.319723,1.10452 -0.635055,1.45296 -0.315329,0.34845 -0.573329,0.81713 -0.573329,1.04153 0,0.26634 -0.958158,0.38968 -2.759531,0.35521 l -2.759535,-0.0528 0.794336,-0.84553 z m -1.917336,-1.42081 c 0,-0.31641 -0.16876,-0.47099 -0.375022,-0.34351 -0.206266,0.12748 -0.279491,0.38635 -0.162724,0.57528 0.316318,0.51183 0.537746,0.41639 0.537746,-0.23177 z"
         style="fill:#ffe4e1;fill-opacity:1;fill-rule:nonzero;stroke:none"
         inkscape:connector-curvature="0" />
      <path
         transform="translate(107.68179,77.083649)"
         id="path3867"
         d="m 110.82361,132.75046 c 0,-0.17317 1.24702,-0.42027 2.77115,-0.54911 3.13701,-0.26516 6.0904,-0.90657 6.63844,-1.4417 0.24192,-0.23621 0.11483,-0.29235 -0.369,-0.16298 -0.4059,0.10853 -2.39579,0.31164 -4.42196,0.45137 l -3.68396,0.25406 3.77621,-3.9206 c 2.07691,-2.15632 3.79127,-4.12584 3.80968,-4.37669 0.0184,-0.25085 0.34534,0.87231 0.72649,2.49593 0.80899,3.44606 0.90537,5.85075 0.25479,6.35742 -1.06621,0.83036 -9.50184,1.62253 -9.50184,0.8923 l 0,0 z"
         style="fill:#ffe4e1;fill-opacity:1;fill-rule:nonzero;stroke:none"
         inkscape:connector-curvature="0" />
      <path
         sodipodi:open="true"
         sodipodi:end="0.00095698386"
         sodipodi:start="0"
         transform="translate(107.68179,77.083649)"
         d="m 95.167061,73.989891 c 0,1.99e-4 0,3.98e-4 -10e-7,5.97e-4"
         sodipodi:ry="0.62386036"
         sodipodi:rx="2.2118685"
         sodipodi:cy="73.989891"
         sodipodi:cx="92.955193"
         id="path3873"
         style="fill:#ffffff;fill-opacity:1;fill-rule:nonzero;stroke:none"
         sodipodi:type="arc" />
      <path
         sodipodi:open="true"
         sodipodi:end="0.00095698386"
         sodipodi:start="0"
         transform="translate(107.68179,77.083649)"
         d="m 113.76945,42.059586 c 0,0.0014 0,0.0027 -1e-5,0.0041"
         sodipodi:ry="4.310308"
         sodipodi:rx="3.1760163"
         sodipodi:cy="42.059586"
         sodipodi:cx="110.59343"
         id="path3901"
         style="fill:#ffff00;fill-opacity:1;fill-rule:nonzero;stroke:none"
         sodipodi:type="arc" />
      <path
         transform="translate(107.68179,77.083649)"
         id="path3909"
         d="m 60.885147,69.541609 c -0.203165,-0.379623 -0.133988,-0.563616 0.251227,-0.668199 l 0.368645,-0.100085 -0.482379,-0.13447 c -1.091674,-0.304325 -1.18939,-1.588904 -0.264086,-3.471725 0.907815,-1.84724 2.687428,-3.837258 4.175957,-4.669691 0.546586,-0.305672 0.900441,-0.419262 1.441288,-0.462676 l 0.716838,-0.05754 0.133354,0.404057 c 0.273381,0.828361 -0.205373,1.70693 -2.070827,3.800207 -2.410987,2.705437 -3.006869,3.544214 -3.396598,4.781148 -0.212395,0.674098 -0.290811,0.798375 -0.503773,0.798375 -0.138725,0 -0.305063,-0.09873 -0.369644,-0.219401 l -2e-6,-10e-7 z m 4.385964,-6.786212 c 0.992945,-1.198695 1.116981,-1.646352 0.252795,-0.912362 -0.518653,0.440515 -1.013014,1.145412 -1.013014,1.444436 0,0.217647 0.331204,-0.01416 0.760221,-0.532077 l -2e-6,3e-6 z"
         style="fill:#8b4513;fill-opacity:1;fill-rule:nonzero;stroke:none"
         inkscape:connector-curvature="0" />
      <path
         transform="translate(107.68179,77.083649)"
         id="path3911"
         d="m 63.872957,67.780217 c -0.149905,-0.390637 0.68283,-2.076057 1.168399,-2.364794 0.08509,-0.0506 0.429956,-0.484462 0.766371,-0.964147 0.751152,-1.071039 1.124396,-1.435333 1.372906,-1.339971 0.36126,0.13863 -0.01555,1.525241 -0.75902,2.793115 -0.530294,0.904341 -0.684816,1.084606 -1.388244,1.619567 -0.576013,0.438058 -1.05044,0.54282 -1.160414,0.256232 l 2e-6,-2e-6 z"
         style="fill:#8b4513;fill-opacity:1;fill-rule:nonzero;stroke:none"
         inkscape:connector-curvature="0" />
      <path
         transform="translate(107.68179,77.083649)"
         id="path3913"
         d="m 66.0989,68.061076 c 0,-0.313378 0.552011,-1.512858 1.066014,-2.316375 0.229529,-0.358816 0.538066,-0.973157 0.685631,-1.365205 0.349546,-0.928653 0.609371,-1.424234 0.746709,-1.424234 0.165966,0 0.129825,1.208318 -0.06026,2.014532 -0.315916,1.339904 -1.236378,2.68148 -2.189907,3.191794 -0.217913,0.116624 -0.248188,0.104361 -0.248188,-0.100513 l 0,10e-7 z"
         style="fill:#8b4513;fill-opacity:1;fill-rule:nonzero;stroke:none"
         inkscape:connector-curvature="0" />
      <path
         transform="translate(107.68179,77.083649)"
         id="path3915"
         d="m 70.435176,61.631622 c -0.215618,-0.08675 -0.447984,-0.599382 -0.535143,-1.1806 -0.09196,-0.613207 0.222875,-3.372529 0.445624,-3.905641 0.315278,-0.754577 0.607954,-0.623118 0.965755,0.433783 0.313098,0.924863 0.417581,2.440858 0.234934,3.408854 -0.113231,0.600111 -0.210897,0.811829 -0.478273,1.036811 -0.346285,0.291385 -0.388433,0.305153 -0.632895,0.206795 l -2e-6,-2e-6 z m 0.635714,-2.036453 c 0.208555,-0.734508 0.279931,-1.768326 0.145875,-2.112864 -0.152489,-0.39191 -0.438567,-0.402194 -0.583506,-0.02097 -0.150237,0.395165 -0.14047,2.277057 0.01332,2.564406 0.151031,0.282206 0.250633,0.181138 0.424318,-0.430569 l -2e-6,0 z"
         style="fill:#8b4513;fill-opacity:1;fill-rule:nonzero;stroke:none"
         inkscape:connector-curvature="0" />
      <path
         transform="translate(107.68179,77.083649)"
         id="path3917"
         d="m 73.123705,56.702082 c -0.160971,-0.300779 0.08459,-1.387578 0.645813,-2.858234 0.210568,-0.551784 0.381778,-1.062666 0.380465,-1.135297 -0.0013,-0.07263 -0.324289,0.443584 -0.717727,1.147145 -0.830297,1.484769 -0.944118,1.628422 -1.097739,1.385435 -0.179235,-0.283497 -0.119238,-0.701481 0.211516,-1.473631 0.779574,-1.819939 3.017755,-4.594619 4.639992,-5.752222 0.767025,-0.547337 1.662422,-0.940098 2.143196,-0.940098 0.163328,0 0.693497,-0.134272 1.178148,-0.298381 1.306064,-0.442249 2.038758,-0.208777 2.038758,0.649646 0,0.793239 -0.8008,2.238112 -1.874435,3.38202 -0.569705,0.606992 -0.749894,0.896128 -0.960472,1.541171 -1.027958,3.148837 -2.743359,4.593881 -5.453378,4.593881 -0.909062,0 -1.01725,-0.02303 -1.134136,-0.241437 l -10e-7,2e-6 z m 4.298344,-1.942077 c 0.124082,-0.202754 0.709163,-1.338464 1.300183,-2.523798 0.807963,-1.620433 1.133417,-2.407838 1.311712,-3.17358 0.390597,-1.677541 0.129046,-1.45928 -0.957878,0.799335 -0.538341,1.118676 -1.281486,2.663543 -1.651424,3.433037 -0.655459,1.363408 -0.753283,1.833651 -0.381436,1.833651 0.08429,0 0.254768,-0.16589 0.378846,-0.368645 l -3e-6,0 z M 76.77904,50.619841 c 0.288236,-0.233947 0.788939,-0.629532 1.112673,-0.879076 0.580408,-0.447395 0.911252,-0.898358 0.911252,-1.242088 0,-0.347604 -0.726621,-0.131174 -1.325787,0.394901 -0.686785,0.603005 -1.623371,1.721733 -1.623371,1.939074 0,0.334951 0.349356,0.254596 0.92523,-0.212811 l 3e-6,0 z"
         style="fill:#8b4513;fill-opacity:1;fill-rule:nonzero;stroke:none"
         inkscape:connector-curvature="0" />
      <path
         transform="translate(107.68179,77.083649)"
         id="path3919"
         d="m 87.547408,50.07079 c -0.212635,-0.09022 -0.749748,-0.533162 -1.193586,-0.984319 -0.725126,-0.737083 -0.850481,-0.933956 -1.23587,-1.940969 -0.235891,-0.616378 -0.410727,-1.254417 -0.388524,-1.417865 0.03878,-0.285521 0.068,-0.268591 0.744897,0.431573 1.078084,1.115148 2.777592,3.76619 2.553949,3.983868 -0.05184,0.05046 -0.268235,0.01793 -0.480868,-0.07229 l 2e-6,-10e-7 z"
         style="fill:#8b4513;fill-opacity:1;fill-rule:nonzero;stroke:none"
         inkscape:connector-curvature="0" />
      <path
         transform="translate(107.68179,77.083649)"
         id="path3921"
         d="m 85.729648,50.166125 c -0.284865,-0.296334 -0.67914,-0.78292 -0.876167,-1.081304 -0.386338,-0.58508 -1.20712,-2.531328 -1.145493,-2.716207 0.02068,-0.06204 0.443776,0.467144 0.940215,1.175961 0.496442,0.708818 1.217521,1.680217 1.6024,2.158667 0.384881,0.478451 0.670138,0.899556 0.633903,0.93579 -0.214733,0.214731 -0.675027,0.02624 -1.154858,-0.472907 z"
         style="fill:#8b4513;fill-opacity:1;fill-rule:nonzero;stroke:none"
         inkscape:connector-curvature="0" />
      <path
         transform="translate(107.68179,77.083649)"
         id="path3923"
         d="m 87.763869,47.299504 c 0,-0.208799 0.933566,-1.134545 1.808285,-1.79314 1.171998,-0.882419 2.802881,-1.674856 3.886743,-1.888545 0.653635,-0.128867 1.684264,-0.173309 4.08345,-0.176083 2.959863,-0.0034 3.919613,-0.05618 5.137453,-0.282422 l 0.45372,-0.08429 -0.27703,0.300815 c -0.70366,0.764064 -2.19201,1.428384 -3.976564,1.774927 -0.592668,0.11509 -2.27709,0.340636 -3.743162,0.501212 -3.373838,0.369529 -4.451998,0.594278 -5.961253,1.242651 -1.28553,0.552264 -1.411642,0.588434 -1.411642,0.404873 z"
         style="fill:#8b4513;fill-opacity:1;fill-rule:nonzero;stroke:none"
         inkscape:connector-curvature="0" />
      <path
         transform="translate(107.68179,77.083649)"
         id="path3925"
         d="m 89.500469,44.2809 c -0.137463,-0.358217 0.581268,-1.333169 1.321189,-1.792188 1.751738,-1.086712 7.355257,-1.934661 11.267312,-1.705017 l 1.33746,0.07851 -0.3733,0.280548 c -0.86239,0.648083 -1.66378,0.809438 -4.683635,0.943023 -4.117898,0.182157 -5.274745,0.391324 -6.522177,1.179251 -1.600553,1.010971 -2.242157,1.2887 -2.346851,1.015871 l 2e-6,10e-7 z"
         style="fill:#8b4513;fill-opacity:1;fill-rule:nonzero;stroke:none"
         inkscape:connector-curvature="0" />
      <path
         transform="translate(107.68179,77.083649)"
         id="path3927"
         d="M 94.002472,48.537426 C 93.083325,47.985608 92.87418,47.56541 93.36018,47.246973 c 0.288144,-0.188799 1.664754,-0.48156 4.008677,-0.852513 1.631894,-0.258265 2.55785,-0.501299 3.620023,-0.950144 0.3801,-0.160619 1.05689,-0.354761 1.50397,-0.431429 0.69642,-0.11942 0.837,-0.115281 0.98117,0.02889 0.14875,0.148762 0.13672,0.214748 -0.10384,0.568766 -0.46557,0.685152 -2.25189,1.909582 -3.67446,2.518656 -0.508798,0.217839 -1.131422,0.355314 -2.155154,0.47585 -2.085894,0.245598 -3.046968,0.22723 -3.538094,-0.06762 z M 99.1103,47.705033 c 0.422263,-0.215198 1.04085,-0.565655 1.37463,-0.778796 0.33377,-0.21314 0.91328,-0.541929 1.28778,-0.730643 0.3745,-0.188717 0.80838,-0.454509 0.96415,-0.590653 l 0.28323,-0.247533 -0.43231,0.05888 c -0.75288,0.102536 -4.586113,1.716654 -5.502167,2.316874 l -0.266434,0.174576 0.264744,0.153238 c 0.391602,0.226697 1.141607,0.09495 2.026377,-0.355943 l 0,-10e-7 z"
         style="fill:#8b4513;fill-opacity:1;fill-rule:nonzero;stroke:none"
         inkscape:connector-curvature="0" />
      <path
         transform="translate(107.68179,77.083649)"
         id="path3929"
         d="m 122.64333,49.890444 c -0.37431,-0.05843 -1.00171,-0.07945 -1.39421,-0.04671 -0.3925,0.03273 -0.9795,0.01052 -1.30444,-0.04937 -1.37608,-0.253638 -3.71009,-1.791665 -3.71009,-2.444826 0,-0.521929 0.73475,-0.493168 3.04146,0.119058 0.64344,0.170775 1.19943,0.28096 1.23553,0.244858 0.20345,-0.203438 -0.80223,-0.800675 -2.51884,-1.495856 l -0.90743,-0.367487 -0.13091,-0.550112 c -0.26512,-1.11424 -0.11253,-2.055386 0.36285,-2.237803 0.60023,-0.23033 1.5771,0.02918 3.92707,1.043209 0.7278,0.314057 1.79971,0.733241 2.38201,0.93152 1.42758,0.48611 2.03433,0.830943 2.69941,1.534172 1.29448,1.368711 0.64151,2.0246 -1.35597,1.362051 -0.73666,-0.244343 -1.07417,-0.289385 -2.11203,-0.281861 -1.47822,0.01072 -1.32936,0.0803 1.07137,0.500784 1.93206,0.338399 2.83783,0.604303 3.01494,0.885075 0.16583,0.262899 0.0259,0.368718 -0.92817,0.702062 -0.88636,0.309679 -2.02918,0.360927 -3.37255,0.151242 z m 3.45959,-2.686344 c 0,-0.1036 -1.24304,-0.696066 -1.4604,-0.696066 -0.23624,0 -0.13018,0.176387 0.24104,0.400903 0.57949,0.350476 1.21936,0.505366 1.21936,0.295162 l 0,10e-7 z m -6.50015,-1.543201 c 0.35543,-0.312685 0.23441,-0.3561 -0.43422,-0.155772 -0.24119,0.07226 -0.43852,0.199869 -0.43852,0.283572 0,0.250839 0.53069,0.173129 0.87274,-0.127799 l 0,-10e-7 z"
         style="fill:#8b4513;fill-opacity:1;fill-rule:nonzero;stroke:none"
         inkscape:connector-curvature="0" />
      <path
         transform="translate(107.68179,77.083649)"
         id="path3931"
         d="m 127.80436,46.194196 c -0.0936,-0.03075 -1.19922,-0.53036 -2.45698,-1.110234 -2.48262,-1.144582 -4.13003,-1.796531 -5.02422,-1.988299 -0.84399,-0.181005 -0.8792,-0.383661 -0.0513,-0.295407 2.17608,0.231979 6.06933,1.750528 7.24894,2.827423 0.54759,0.499915 0.63949,0.683496 0.28357,0.566518 l 0,-1e-6 z"
         style="fill:#8b4513;fill-opacity:1;fill-rule:nonzero;stroke:none"
         inkscape:connector-curvature="0" />
      <path
         transform="translate(107.68179,77.083649)"
         id="path3933"
         d="m 129.59892,52.907052 c -0.37664,-0.197343 -0.71003,-0.917456 -0.93984,-2.030032 -0.20645,-0.999489 -0.26384,-3.19036 -0.0882,-3.36602 0.0687,-0.06869 0.0911,-0.490665 0.056,-1.053258 -0.0433,-0.693548 -0.0205,-0.962143 0.087,-1.028624 0.35711,-0.220701 1.34907,1.639766 1.83298,3.437804 0.26553,0.986622 0.33754,3.156135 0.12173,3.667295 -0.16793,0.397775 -0.68091,0.576564 -1.06974,0.372836 l -1e-5,-10e-7 z"
         style="fill:#8b4513;fill-opacity:1;fill-rule:nonzero;stroke:none"
         inkscape:connector-curvature="0" />
    </g>
  </g>
</svg>
