<?xml version="1.0" encoding="UTF-8" standalone="no"?>
<!-- Created with Inkscape (http://www.inkscape.org/) -->
<svg
   xmlns:dc="http://purl.org/dc/elements/1.1/"
   xmlns:cc="http://web.resource.org/cc/"
   xmlns:rdf="http://www.w3.org/1999/02/22-rdf-syntax-ns#"
   xmlns:svg="http://www.w3.org/2000/svg"
   xmlns="http://www.w3.org/2000/svg"
   xmlns:sodipodi="http://inkscape.sourceforge.net/DTD/sodipodi-0.dtd"
   xmlns:inkscape="http://www.inkscape.org/namespaces/inkscape"
   id="svg1391"
   sodipodi:version="0.32"
   inkscape:version="0.43"
   width="400pt"
   height="350pt"
   sodipodi:docbase="C:\foo\wikipedia\transfer"
   sodipodi:docname="Barett.svg"
   version="1.0">
  <metadata
     id="metadata1396">
    <rdf:RDF>
      <cc:Work
         rdf:about="">
        <dc:format>image/svg+xml</dc:format>
        <dc:type
           rdf:resource="http://purl.org/dc/dcmitype/StillImage" />
        <cc:license
           rdf:resource="http://web.resource.org/cc/PublicDomain" />
      </cc:Work>
      <cc:License
         rdf:about="http://web.resource.org/cc/PublicDomain">
        <cc:permits
           rdf:resource="http://web.resource.org/cc/Reproduction" />
        <cc:permits
           rdf:resource="http://web.resource.org/cc/Distribution" />
        <cc:permits
           rdf:resource="http://web.resource.org/cc/DerivativeWorks" />
      </cc:License>
    </rdf:RDF>
  </metadata>
  <defs
     id="defs1394" />
  <sodipodi:namedview
     inkscape:window-height="540"
     inkscape:window-width="812"
     inkscape:pageshadow="2"
     inkscape:pageopacity="0.0"
     borderopacity="1.0"
     bordercolor="#666666"
     pagecolor="#ffffff"
     id="base"
     inkscape:zoom="0.35824168"
     inkscape:cx="372.04724"
     inkscape:cy="526.18109"
     inkscape:window-x="0"
     inkscape:window-y="0"
     inkscape:current-layer="svg1391" />
  <path
     style="fill:#000000"
     d="M 224.59722,423.17448 C 230.35775,417.95651 216.1937,399.88338 228.3784,415.40385 C 237.68406,411.98835 257.86798,398.87201 243.47441,398.68405 C 269.60756,394.18927 296.52051,398.56268 322.53296,392.59465 C 343.11932,394.19933 321.7974,360.81467 327.00068,347.87782 C 323.49032,329.46508 322.46747,308.22026 312.16627,292.70925 C 301.53309,297.06154 305.61058,290.13922 293.094,298.46675 C 277.79793,305.71676 299.73012,281.68085 286.80099,294.70238 C 279.21684,301.18627 260.0257,302.01111 273.16699,289.06869 C 282.1176,266.35978 256.38849,299.84267 246.96007,299.16152 C 237.07421,307.58317 212.46265,303.731 208.4506,314.2658 C 209.28147,331.31059 216.64376,348.05169 225.13904,362.03527 C 231.54663,377.03804 206.31941,341.57233 207.86332,332.47058 C 209.58442,319.01269 201.8918,299.11491 189.69788,318.51214 C 178.23598,339.8853 163.70238,361.10187 161.59466,386.18716 C 173.94341,387.30675 149.2516,392.77285 167.64075,394.3649 C 182.48011,398.00296 212.42671,396.29365 219.66267,401.72114 C 212.6565,410.68731 202.31991,396.07743 189.35316,399.39509 C 180.67213,400.44296 168.50924,405.64034 158.10172,416.83084 C 147.00398,433.83875 156.0532,399.99181 156.26254,392.95684 C 159.57757,378.85721 165.25178,355.96248 163.62816,347.76909 C 174.54601,359.5655 152.94329,330.46183 169.3907,347.42426 C 159.34345,332.96259 168.15863,340.82555 171.13215,339.00452 C 163.64547,329.96777 165.14068,328.5223 174.54392,336.43781 C 170.20944,327.37557 160.19681,319.64144 175.01911,330.82019 C 184.77336,332.09795 158.342,311.0863 153.78025,327.78922 C 139.65048,335.86963 151.20477,330.96838 153.30292,334.09048 C 136.53345,340.41681 144.18538,339.95876 151.50662,340.47162 C 137.44704,346.99301 112.50624,354.03671 105.9934,362.5502 C 114.85259,357.84161 143.05667,350.31255 119.76428,361.04386 C 108.58428,355.3573 81.067139,386.08069 102.59764,369.35911 C 117.60313,359.64497 98.157407,381.88322 92.687801,384.60894 C 81.546981,381.21766 63.619772,406.83117 82.125788,392.99049 C 100.96151,386.94862 48.280887,413.16746 77.627366,402.10063 C 98.133612,393.55537 54.351846,412.55044 76.494862,407.88287 C 68.695973,421.45221 39.809645,418.3265 54.53537,402.98965 C 64.171468,408.8003 57.627465,382.67718 74.343033,381.12585 C 84.281447,377.70851 92.282701,373.06888 79.577855,372.66405 C 83.024021,368.81502 103.16729,367.01933 86.622001,365.83165 C 96.16125,363.49262 104.59792,357.17215 101.21124,353.95707 C 111.71296,351.90247 117.15841,347.58313 103.91394,346.68876 C 111.01509,344.34162 126.08884,346.41468 115.06178,338.17097 C 121.5968,337.74432 135.4462,339.25525 122.44055,334.17427 C 129.74728,334.88238 136.83338,331.85001 126.43204,329.45071 C 144.43641,329.33135 143.2965,318.29912 163.74528,317.26156 C 158.94369,322.73543 190.32662,325.39894 180.83743,326.99623 C 179.00526,314.43118 152.64796,317.76463 174.16404,309.46874 C 198.87186,311.0385 170.06965,290.12225 174.49562,285.41709 C 181.59741,294.96782 188.13138,311.8182 202.8451,307.31947 C 213.52206,314.21287 234.00611,290.30958 233.77211,297.76457 C 235.41523,303.70524 263.24863,286.70092 271.86842,279.03913 C 276.7863,257.1891 248.65163,236.38968 255.88139,211.15058 C 258.25021,187.41084 272.72724,159.93509 254.39611,138.86474 C 240.46096,130.1523 251.85027,131.69537 253.9814,133.49934 C 248.69557,118.19165 280.75699,168.18458 262.87626,144.44541 C 253.33352,132.26645 272.91205,163.79123 266.8738,170.41089 C 268.61617,190.24105 253.14255,207.67785 260.68883,227.78523 C 261.9217,238.18909 274.57418,267.16409 275.72777,262.59929 C 277.10762,254.4222 265.35141,223.79513 274.54278,246.78834 C 284.91906,259.7307 272.86668,290.68458 276.12208,293.27833 C 279.07768,286.54701 283.90005,277.977 279.71027,290.74918 C 288.91456,274.05659 283.60784,246.47629 270.30584,234.9127 C 269.54919,226.40317 259.18645,191.43741 265.9201,196.78056 C 264.13181,221.05893 284.54105,238.81957 285.64191,262.65418 C 291.54742,273.15499 273.6247,309.9671 289.10349,284.33287 C 290.49678,298.91674 301.36553,248.82665 297.96118,276.72956 C 295.18055,288.17751 293.13284,296.31287 301.21507,280.54332 C 289.10029,307.08586 319.08027,276.00186 312.26398,264.1733 C 311.28714,252.15136 314.09993,244.80264 314.67292,261.21219 C 317.84668,270.13397 303.15971,301.90672 318.82291,280.16581 C 328.63291,263.06585 310.32813,234.93589 311.89817,224.98053 C 317.5245,243.18193 325.94327,262.52221 322.95962,280.98505 C 331.80828,275.6974 324.32415,244.58304 327.46302,249.39151 C 329.23714,259.90208 329.93502,275.96598 331.73259,256.38097 C 332.17109,236.7976 335.98581,275.85923 326.69829,278.76496 C 318.50646,292.22575 322.66214,287.69609 331.21225,287.00405 C 330.6792,294.55747 335.85931,307.53057 337.63532,290.77586 C 336.56255,297.51326 346.28942,324.94928 334.02299,315.7251 C 332.93419,322.47107 330.3352,327.82504 331.0482,335.68229 C 340.07183,326.09913 327.19402,351.48441 333.12377,357.25498 C 334.184,370.68311 336.25257,379.37659 335.19534,396.75625 C 333.74158,405.54945 331.25702,433.73448 331.03285,408.52914 C 338.98397,382.03539 304.2408,412.28474 312.75915,422.85358 C 307.32933,410.80664 292.20951,433.62811 304.10997,415.19204 C 297.30939,391.04787 271.83581,412.57845 274.72231,423.57472 C 265.52503,426.12052 253.64792,394.7838 267.69654,414.42579 C 271.35957,419.4665 296.15271,397.66894 283.45876,398.50111 C 272.36832,396.34712 255.29665,401.6786 255.39018,402.90388 C 247.31501,407.39623 228.60419,414.92871 235.06661,422.098 C 231.55604,422.33382 228.08833,423.03418 224.59722,423.17448 z M 317.23058,405.24322 C 325.36067,401.00471 332.43165,389.40621 317.83779,395.34051 C 306.12263,395.17299 284.79441,397.56786 303.04702,409.87223 C 308.7568,419.50352 311.82899,408.12109 317.23058,405.24322 z M 307.04375,404.73468 C 309.08398,393.94796 314.32614,410.7412 307.04375,404.73468 z M 160.74276,411.18 C 170.0892,405.86225 186.23568,394.19078 163.7313,395.7315 C 151.7245,396.09792 172.12057,400.84399 157.85762,402.7441 C 157.82248,404.67529 154.8622,415.73704 160.74276,411.18 z M 67.308488,399.04861 C 74.462715,391.11823 58.939106,402.4846 67.308488,399.04861 z M 94.034386,381.81527 C 95.216745,371.26017 76.306918,387.93344 94.034386,381.81527 z M 118.32066,351.55924 C 113.72577,351.36022 117.74971,351.72597 118.32066,351.55924 z M 128.10164,348.67509 C 142.56254,343.71517 136.23462,335.78257 123.90349,344.31458 C 140.22703,340.59776 105.76218,355.63882 128.10164,348.67508 L 128.10164,348.67509 z M 148.67757,326.33202 C 153.07699,319.40042 140.36295,331.8867 148.67757,326.33202 z M 328.70259,323.13491 C 324.76105,320.19925 328.13785,331.66614 328.70259,323.13491 z M 182.24313,320.98101 C 163.35945,295.80041 180.68288,329.4494 182.24313,320.98101 z M 186.18047,316.78817 C 196.75842,307.07256 164.42289,310.15515 184.28216,319.41226 C 185.74354,319.49925 184.48441,316.65947 186.18047,316.78817 z M 329.1253,313.97462 C 324.26909,301.44462 323.23191,329.79101 329.1253,313.97462 z M 334.10546,314.51887 C 340.3627,303.02053 322.19981,309.76196 334.10546,314.51887 z M 326.90525,306.72118 C 338.6035,297.41649 318.1085,295.43872 323.77924,309.26675 L 326.90524,306.72118 L 326.90525,306.72118 z M 327.65476,295.09821 C 332.88509,272.63869 311.27777,312.8871 327.65476,295.09821 z M 318.34917,290.77586 C 317.20749,279.57707 314.31672,302.31402 318.34917,290.77586 z M 81.387796,421.59173 C 82.829331,413.12676 103.08012,386.92528 90.294763,410.69524 C 99.315688,411.38788 108.32228,385.66481 116.55961,375.94863 C 112.39987,394.61235 136.26403,355.95087 124.24232,379.70663 C 109.65128,391.11757 102.41943,403.82701 92.354305,417.94572 C 90.205945,421.09877 85.030764,424.84753 81.387796,421.59173 z M 161.97729,421.47801 C 158.35134,412.42969 169.96303,425.39246 161.97729,421.47801 z M 196.36479,421.02827 C 185.87958,420.94631 185.71898,422.92627 190.39664,413.2652 C 178.11357,397.85102 199.03547,422.86952 205.71747,407.12867 C 210.22557,408.36321 189.75275,415.67494 200.11922,422.5745 L 198.84451,422.57586 L 196.36479,421.02828 L 196.36479,421.02827 z M 125.85115,420.26297 C 121.59739,412.28838 146.50244,377.44212 135.84241,399.46981 C 142.13874,391.86902 154.16739,374.52914 144.39498,395.21211 C 137.58903,401.43421 131.03026,417.87885 125.85115,420.26297 z M 169.83096,419.84542 C 163.46221,406.74919 187.71526,423.49273 169.83096,419.84542 L 169.83096,419.84542 z M 205.41836,418.31352 C 209.09595,403.03059 222.73154,425.59335 205.41836,418.31352 z M 244.96671,417.93082 C 244.85067,403.77258 263.55771,421.49945 244.96671,417.93082 z M 287.53362,417.29358 C 282.80921,403.89687 299.8236,422.16808 287.53362,417.29358 z M 115.15587,416.23261 C 115.24409,404.70505 131.6888,403.79143 118.88317,415.58931 C 118.60343,417.81433 115.36737,419.81204 115.15587,416.23261 z M 318.82718,416.14485 C 317.5587,401.31605 336.90895,418.3692 318.82718,416.14485 z M 357.96228,412.5075 C 354.16501,400.24295 351.68145,376.56315 353.11966,369.87804 C 352.85416,383.76626 359.29372,391.38462 357.74112,373.95619 C 360.00924,362.29671 361.40152,393.10944 358.83951,399.4434 C 357.78008,401.21226 363.06685,418.06655 357.96228,412.5075 z M 407.32809,406.34671 C 398.28178,400.67333 381.52832,363.40775 396.82939,387.80394 C 404.23505,392.28309 391.33175,356.94467 402.19211,381.77642 C 400.75349,386.34226 421.69719,417.50433 407.32809,406.34671 z M 269.47625,408.17829 C 266.63108,395.74374 280.27401,410.62 269.47625,408.17829 z M 448.00169,406.69768 C 440.11941,401.76331 416.67213,377.18032 438.48815,392.22749 C 449.70257,397.6648 419.83413,372.74028 435.63936,381.76713 C 437.22366,387.61184 468.44879,411.05204 448.00169,406.69768 z M 119.20117,405.36253 C 128.55632,387.23097 124.84923,408.44523 119.20117,405.36253 z M 194.93891,404.33803 C 199.93763,400.08383 194.99256,410.3862 194.93891,404.33803 z M 229.00286,405.56715 C 226.32705,398.3202 237.81645,406.79069 229.00286,405.56715 z M 227.50489,400.5258 C 242.69707,394.43856 243.49296,401.83952 227.50489,400.5258 z M 203.35371,394.00629 C 195.78526,392.7995 151.19879,388.74551 180.92912,388.02937 C 204.51706,393.16405 228.74914,391.96082 252.75143,390.52118 C 278.33878,390.09036 303.88928,388.7135 329.34783,386.16167 C 294.41524,395.84202 257.63849,391.01268 221.92086,394.47732 C 215.73999,394.40076 209.49854,394.74707 203.35371,394.00629 z M 381.75695,393.60569 C 375.2021,381.21261 367.19621,357.38635 364.55003,349.6353 C 367.4828,360.14351 374.58709,358.69814 374.22227,358.25433 C 375.43493,351.34844 360.76538,325.4073 373.47962,343.13749 C 379.22947,358.46998 374.9303,382.5435 381.75695,393.60569 z M 460.84219,386.81003 C 457.42159,374.08571 436.63978,370.69598 436.36285,359.62735 C 440.6767,366.88569 451.53005,372.04824 442.74473,359.64986 C 448.00447,366.49994 464.81788,381.11591 460.84219,386.81003 z M 128.88687,385.09258 C 136.76445,376.64883 142.24459,353.91224 144.60435,360.59704 C 151.31241,356.07399 162.28521,345.58284 152.07196,359.91484 C 142.09098,366.01737 139.0318,382.18218 128.88687,385.09258 z M 464.66813,382.75204 C 464.38585,376.17678 469.46691,387.63221 464.66813,382.75203 L 464.66813,382.75204 z M 421.43901,382.5978 C 417.18347,377.4345 427.70268,382.45386 421.43901,382.5978 z M 480.90381,370.15875 C 481.42143,364.99803 442.75773,357.60037 466.93899,360.10572 C 479.45312,361.90635 452.27581,351.08148 470.01773,356.36486 C 478.94711,357.66955 497.35029,361.16879 480.90381,370.15875 z M 424.62737,364.95952 C 410.01963,355.33132 414.38293,340.18509 403.00615,331.69799 C 416.39041,337.38007 420.91291,357.45538 427.60915,366.50043 L 424.62737,364.95952 L 424.62737,364.95952 z M 117.88039,363.85887 C 124.22238,360.21984 117.47797,367.47856 117.88039,363.85887 z M 343.18317,363.78403 C 341.32175,357.38494 334.96465,333.11503 343.19776,347.8078 C 342.1174,324.78467 350.24177,359.93226 343.18316,363.78404 L 343.18317,363.78403 z M 408.86002,352.30419 C 400.89324,348.99177 394.74169,324.31816 404.28691,344.45723 C 406.71444,348.70528 422.37913,361.15446 408.86002,352.30419 z M 454.11884,352.75754 C 445.60748,350.31613 432.95467,341.91524 449.69705,348.21357 C 465.64319,347.61837 432.02189,342.54395 427.53588,337.68435 C 411.08355,326.00955 393.94141,315.46502 377.60744,303.50623 C 361.95071,294.43192 346.93541,274.41895 327.18688,284.56131 C 330.67717,277.15767 342.50583,271.9307 342.63271,259.9526 C 339.33518,270.63018 341.47621,283.1904 347.07974,266.19905 C 342.38837,249.39446 325.44798,234.23247 322.81328,214.37408 C 327.17867,207.86601 332.53737,243.87668 338.43043,243.42952 C 334.2068,235.35068 330.68043,224.7321 338.41256,238.98777 C 342.8536,246.96958 362.69073,272.63466 348.35601,249.88216 C 342.76035,242.50754 331.20847,219.79242 343.29042,239.18239 C 352.40268,246.03176 357.93071,274.10928 358.07305,272.10667 C 363.01192,265.86279 351.84155,241.52402 360.0036,260.57692 C 360.67298,271.00421 357.96547,287.30927 364.43995,267.71651 C 365.7096,245.33354 339.74976,232.66254 339.53246,209.7682 C 335.50566,201.78856 337.51594,172.91923 340.23823,196.17044 C 342.09553,211.71286 345.5879,234.12212 359.1054,241.17135 C 358.39501,242.33975 382.46373,272.61242 371.39484,249.85305 C 362.4843,223.95984 382.0378,267.24111 375.54183,272.69036 C 389.81425,274.52218 368.12171,228.46311 381.4373,255.85894 C 385.0381,264.24105 378.87885,280.29067 388.39815,264.4619 C 389.60851,286.7638 392.81584,238.76269 397.10773,260.17545 C 396.04499,250.79458 391.7106,236.27666 398.99699,254.19127 C 402.23017,258.53211 392.85706,234.40842 400.44516,249.78998 C 412.41898,260.36487 395.95229,283.5614 390.00248,276.99927 C 398.59797,269.03103 358.8348,289.89784 375.59755,275.58383 C 364.8223,276.89387 376.95581,256.05281 364.92338,255.44451 C 373.17476,271.0551 360.63583,284.28375 349.87213,281.68407 C 369.66899,292.37358 386.96553,308.55918 410.26809,311.26007 C 426.78556,311.93114 420.64527,321.53577 408.37988,318.31743 C 407.03806,321.3993 431.10694,335.64716 432.94422,329.07625 C 409.81058,324.23827 473.00362,333.78274 446.30248,335.40447 C 434.12464,333.33691 423.31763,335.70851 443.18525,340.89003 C 450.00372,349.3784 478.9351,340.4853 475.22596,350.65609 C 465.07108,348.56041 461.38168,354.25344 454.11884,352.75754 z M 411.01209,314.68058 C 404.46057,309.75467 384.98682,308.2678 402.51602,315.19543 L 406.07027,315.35104 L 411.01209,314.68059 L 411.01209,314.68058 z M 348.13587,278.44861 C 350.88613,275.15828 341.59012,281.35507 348.13587,278.44861 z M 354.29951,276.68758 C 351.97427,271.13143 351.83805,282.59054 354.29951,276.68758 z M 384.30379,276.12782 C 389.47839,269.25893 376.55244,283.22188 384.30379,276.12782 z M 350.76951,271.42357 C 353.67104,242.70043 341.97696,285.71656 350.76951,271.42357 z M 400.12132,256.99885 C 396.46767,262.10604 404.08169,266.23645 400.12132,256.99885 z M 369.26831,348.4498 C 369.61929,343.62085 372.07799,353.40863 369.26831,348.4498 z M 384.86239,340.66503 C 378.42526,331.31515 356.23509,317.58833 357.39846,312.3805 C 364.653,321.24628 377.79858,328.19357 368.00261,310.80486 C 360.37998,291.66296 376.72669,323.53069 378.91236,329.90076 C 380.0209,329.91986 393.77691,346.74119 384.86239,340.66503 z M 157.62555,312.34856 C 145.14562,308.72995 177.97353,306.11524 168.37898,290.96636 C 167.99045,300.53685 154.87709,314.36866 164.21454,298.14263 C 164.34766,286.81492 167.911,274.32686 160.02315,264.71965 C 153.33437,257.81328 164.62193,288.33114 158.26079,295.61082 C 151.90743,309.11822 161.99112,274.94748 156.02641,269.55643 C 151.62436,248.93674 143.4769,229.3073 141.16748,208.23094 C 136.14555,199.35418 140.43252,229.06876 142.16353,235.78797 C 143.32727,248.2764 134.85038,216.8381 136.46932,210.20846 C 138.14175,197.77163 133.77849,186.8089 133.34595,206.16729 C 132.19707,214.31123 137.70186,253.02228 131.50899,226.87858 C 127.82451,218.95595 135.53915,190.64146 130.98952,192.73101 C 125.62013,202.09909 129.56226,234.0054 125.71902,230.44335 C 124.58407,221.55494 127.93782,181.16394 122.63801,210.5395 C 118.1653,230.96335 131.30669,252.17348 124.82149,271.68007 C 115.09291,278.89833 119.67878,277.39907 126.24531,275.61083 C 118.39674,283.48577 110.09318,283.8668 126.66137,281.39355 C 134.47817,287.49247 97.399634,286.75561 107.62713,270.16236 C 122.47678,282.54574 122.62683,256.47096 120.15908,249.39151 C 116.06795,235.91937 110.1661,218.36171 120.39861,206.79037 C 122.52933,195.76082 132.21677,181.78695 113.12708,183.78066 C 97.857528,174.13453 80.103575,199.19006 61.319514,192.56787 C 42.462953,192.02705 21.33525,185.54463 10.141648,170.42939 C 13.545705,151.27883 33.463541,139.63434 44.652739,125.21633 C 56.386827,110.38975 65.920689,97.512009 79.325775,83.465999 C 89.774465,69.298746 105.31009,63.104119 117.26632,51.195239 C 136.69938,46.601959 154.75432,33.735209 172.6868,23.822002 C 199.77151,14.688241 228.58083,10.364137 257.27999,9.651969 C 288.92513,6.4564983 321.04995,7.5802468 352.82143,8.6157659 C 377.22318,17.026508 402.73607,14.541403 427.82892,15.009962 C 447.50761,27.254375 429.68031,56.608319 451.03754,70.824185 C 477.54077,87.142458 454.19269,116.24106 430.14436,113.78628 C 410.08231,119.58539 394.65322,137.84605 371.59101,132.461 C 353.46338,132.47914 381.59777,157.36645 378.06565,170.58515 C 378.06105,178.86226 391.6961,204.34438 384.79616,202.66014 C 374.20353,207.86205 410.99702,221.85595 392.9782,207.4601 C 397.24425,205.99859 420.53137,204.48985 401.52268,214.24547 C 389.18317,217.84506 387.3552,217.43515 397.44463,226.49755 C 393.15672,226.46164 381.392,210.35299 391.65729,227.81676 C 393.47725,238.7743 419.9628,239.81268 401.93149,231.80945 C 395.6233,221.6004 434.86605,242.81303 410.72486,247.63048 C 401.23025,247.0138 394.4797,236.41867 407.61707,243.91916 C 427.23328,233.34358 385.4257,247.55025 386.40067,232.4066 C 366.36611,203.62653 363.93657,167.23349 352.39728,134.95342 C 339.12603,108.29146 360.72187,144.10007 361.10888,154.10122 C 366.32017,176.32659 372.69559,198.2185 380.82899,219.59498 C 385.2798,228.00635 400.65432,243.32288 388.28023,226.99337 C 375.24052,202.43319 374.25425,173.68478 362.84717,148.37385 C 359.37928,139.53275 348.5724,115.58869 341.51355,119.54719 C 347.12603,126.07016 358.61568,159.26751 346.97194,135.46157 C 344.0869,129.50446 326.30359,102.92873 330.59672,113.21806 C 335.50605,118.75809 352.92304,154.34753 339.05153,131.72812 C 334.50383,124.93088 316.48208,99.518857 321.10987,112.96106 C 332.15898,119.87347 343.00362,156.67499 339.85994,156.05936 C 334.54583,136.85876 326.7621,116.60846 309.31078,105.86707 C 315.83244,116.06608 334.8158,141.95988 332.74555,153.5978 C 325.54855,135.60351 319.30455,115.27897 301.06177,105.3044 C 295.36311,104.64352 317.93877,126.52202 302.95953,112.90198 C 296.65595,104.47191 285.84564,101.39813 297.63356,112.80797 C 312.15271,130.45421 317.33778,153.04169 321.62861,174.98774 C 313.42565,154.42288 311.17085,131.25222 295.54202,114.16928 C 292.50141,106.26762 275.61327,97.567029 288.76904,111.08084 C 301.12217,132.75288 312.23451,156.52255 312.75663,181.96034 C 312.71535,191.15351 320.30671,226.99909 317.64297,221.21494 C 307.6168,194.61668 315.39393,163.63323 299.5872,138.71734 C 297.90863,127.90219 279.41396,98.374459 275.9071,106.28884 C 283.84355,111.97764 290.98215,130.5013 279.4969,113.38897 C 274.10334,102.55531 259.10185,100.48144 272.39425,114.27909 C 268.27458,124.66934 238.2845,118.22508 258.93021,119.65897 C 266.64773,119.03192 246.74814,110.32161 249.53868,102.96579 C 233.05864,101.18229 195.65181,105.71828 216.33944,128.58846 C 242.33332,138.56821 202.23327,131.12102 192.66133,127.9355 C 186.94284,112.32177 186.61881,125.3718 185.21853,133.41365 C 173.52521,117.51569 154.75175,146.17315 144.08306,154.52403 C 138.55294,162.66975 135.32488,177.17032 146.05697,161.80653 C 175.12766,157.02877 172.57249,188.44416 171.40011,207.93012 C 164.88516,221.08456 178.81376,245.86043 187.13646,224.32461 C 193.4199,219.38751 200.77792,228.71209 205.69355,223.24007 C 201.94453,230.11905 185.72478,230.61122 178.02478,235.62731 C 156.15323,228.03315 178.22961,190.60349 163.58047,183.8108 C 152.90716,179.09346 153.35911,200.71459 164.10759,191.2504 C 155.2468,200.27774 146.88841,197.3578 143.42534,190.1154 C 139.67282,207.85528 146.99099,228.06063 153.57125,245.07689 C 157.49378,264.46823 178.86745,278.84675 169.8619,299.7419 C 169.97653,303.50762 160.64942,317.10732 157.62555,312.34856 z M 121.03675,236.78659 C 117.76979,237.56098 124.15981,245.38975 121.03675,236.78659 z M 145.36228,184.35155 C 154.00821,176.59231 179.92525,182.81059 155.68098,174.44766 C 146.88318,174.77427 136.97728,182.00281 150.65379,172.13114 C 159.1338,170.99676 175.45425,180.51803 159.42605,168.13841 C 147.98583,158.0728 123.14446,188.89427 145.36228,184.35155 z M 63.249085,184.29657 C 58.2061,183.73616 19.0079,172.58592 37.10418,179.93603 C 45.401697,181.91101 54.867587,185.76299 63.249085,184.29657 z M 73.414228,184.23318 C 63.584509,180.2914 63.584556,188.17497 73.414228,184.23318 z M 77.816818,184.23318 C 78.040266,180.80998 71.408976,186.74809 77.816818,184.23318 z M 76.055783,180.61213 C 101.28766,176.5716 40.679146,177.14396 70.157788,176.1548 C 98.093064,173.02925 55.111388,172.79533 47.496935,168.91346 C 38.965253,164.9686 19.090518,161.96738 37.791389,170.93471 C 43.190787,175.26029 14.624647,165.83496 34.358146,173.97111 C 47.493924,179.3356 61.698692,183.01512 76.055783,180.61213 z M 46.088256,175.49626 C 29.643243,168.03314 75.185804,179.01182 49.708501,175.93825 L 46.088257,175.49626 L 46.088256,175.49626 z M 128.00635,179.33836 C 126.79051,173.95836 125.87573,186.48156 128.00635,179.33836 z M 124.48428,179.4423 C 122.87362,176.51329 120.21376,181.34032 124.48428,179.4423 z M 375.93269,174.32735 C 373.35785,161.21695 368.31102,140.09055 359.21491,134.11962 C 366.50943,145.09974 372.53835,169.25256 375.93269,174.32735 z M 90.584331,173.66696 C 87.571385,167.63859 87.736269,179.66073 90.584331,173.66696 z M 101.5908,174.65716 C 99.369664,169.58839 87.270944,177.13228 101.5908,174.65716 L 101.5908,174.65716 z M 115.95644,173.58203 C 116.11536,161.003 111.46885,180.89059 115.95644,173.58203 z M 121.84272,170.40905 C 120.16257,162.92435 119.72586,179.51366 121.84272,170.40905 z M 78.036948,169.535 C 73.2302,162.06714 45.632827,165.37767 34.012649,156.83888 C 29.614386,170.0525 69.110642,169.22823 78.036948,169.535 z M 100.70854,169.04424 C 97.083428,166.36385 90.876408,171.76836 100.70854,169.04424 z M 92.785627,167.59754 C 88.14288,157.4056 89.927085,175.84103 92.785627,167.59754 z M 128.30899,166.44113 C 128.51317,158.33272 124.05978,173.16257 128.30899,166.44113 z M 85.741481,164.36955 C 84.230753,160.40785 82.435531,168.76169 85.741481,164.36955 z M 103.21657,164.96402 C 99.096527,158.3136 91.88048,168.56082 103.21657,164.96402 z M 120.02174,163.18494 C 128.65751,138.72253 109.95623,174.28578 120.02174,163.18494 z M 125.61146,164.01363 C 124.35297,155.02607 120.76471,169.83212 125.61145,164.01363 L 125.61146,164.01363 z M 134.16998,163.92929 C 131.54157,161.41283 132.30892,168.60925 134.16998,163.92929 z M 25.866252,162.30959 C 17.649498,153.81529 17.778491,165.87252 25.866252,162.30959 z M 79.486035,162.2956 C 79.133742,155.48915 43.347013,159.28254 47.432264,152.85248 C 55.828356,153.99529 81.655562,160.94652 80.578203,153.69364 C 65.429356,158.19918 43.659633,135.69805 37.200127,155.1109 C 49.938855,161.77346 65.283331,164.31566 79.486035,162.2956 z M 93.666144,161.83193 C 90.64167,154.35963 90.426233,166.83269 93.666144,161.83193 z M 88.237003,159.63176 C 86.437888,154.02796 84.961677,167.05231 88.237003,159.63176 z M 109.99193,160.40061 C 109.39107,155.12087 104.80445,163.64654 109.99193,160.40061 z M 103.35185,159.57867 C 97.6577,155.8775 98.705903,163.15661 103.35185,159.57867 z M 136.37127,158.69815 C 136.42388,155.5704 132.33378,161.99487 136.37127,158.69815 z M 29.092619,157.31819 C 28.087532,148.50114 17.197651,161.26028 29.092619,157.31819 z M 95.427181,156.93712 C 97.533256,143.74256 123.48599,129.98092 117.12561,121.4094 C 102.65933,118.15589 78.079995,153.69616 94.477013,154.28856 C 87.506808,154.92397 95.100253,161.42131 95.427181,156.93712 z M 108.19604,131.03833 C 122.28156,117.67885 101.4097,142.32902 108.19604,131.03833 z M 127.92311,155.30448 C 123.34934,155.47981 129.6064,159.99477 127.92311,155.30448 z M 114.15871,155.69639 C 115.49628,149.97602 105.12243,159.02577 114.15871,155.69639 z M 105.11288,154.29556 C 99.618948,150.50435 99.618986,158.08677 105.11288,154.29556 z M 34.231173,150.87435 C 27.909622,143.00876 26.413637,157.10623 34.231173,150.87435 z M 132.25005,150.04413 C 129.92448,143.51243 129.22386,157.215 132.25005,150.04413 z M 142.97516,143.33934 C 132.71105,148.8853 135.93949,156.62761 142.97516,143.33933 L 142.97516,143.33934 z M 85.42737,150.32202 C 92.133435,137.03502 64.824651,137.06787 54.035232,135.36835 C 47.771837,142.73117 101.89647,148.21368 70.800258,145.96468 C 61.87448,140.22873 34.190489,140.01042 57.373308,148.0833 C 66.453033,148.79267 76.718659,153.73093 85.42737,150.32202 z M 111.1582,148.27295 C 119.48126,140.36961 121.75881,122.32178 110.17397,140.26066 C 103.92976,144.50609 99.496195,157.93737 111.1582,148.27295 z M 119.8082,147.45785 C 125.42688,139.93892 125.14678,122.15333 118.86589,140.28647 C 115.67519,144.48548 106.18008,160.94079 119.8082,147.45785 z M 137.06194,145.57466 C 140.47994,131.84436 125.83992,153.5337 137.06194,145.57466 z M 38.090422,142.76648 C 29.222053,140.45845 39.896724,151.62526 38.090422,142.76648 z M 128.00635,145.93064 C 127.65537,141.10166 125.1966,150.8895 128.00635,145.93064 z M 131.74145,139.78003 C 130.30996,132.22565 128.19955,149.02211 131.74145,139.78003 z M 44.35713,140.71954 C 46.359003,132.94124 33.492096,141.98972 44.357131,140.71954 L 44.35713,140.71954 z M 89.687197,137.58408 C 88.396635,133.05134 55.440054,125.81023 60.996346,133.53645 C 70.348927,134.31219 80.960449,141.66223 89.687197,137.58408 z M 131.81905,130.8894 C 126.89504,128.34833 127.05814,143.19604 131.50565,132.5036 L 131.81905,130.88939 L 131.81905,130.8894 z M 50.697601,134.82952 C 52.153633,127.94854 38.984491,136.92485 50.697601,134.82952 z M 141.23576,134.45784 C 144.26805,118.35189 130.49397,141.09295 141.23576,134.45784 z M 156.18293,132.72287 C 157.62597,128.03668 150.12531,137.33361 156.18293,132.72287 z M 94.280051,132.46602 C 92.076096,126.12778 51.215139,118.01457 73.427838,129.09714 C 79.918973,131.6904 87.257267,133.71398 94.280051,132.46602 z M 58.715301,128.98067 C 55.019457,112.88505 43.519501,139.09344 58.715301,128.98067 z M 153.5704,129.2008 C 156.47334,123.97254 148.21672,136.11421 153.5704,129.2008 z M 366.11448,129.9871 C 376.02773,124.41622 376.86227,93.554381 369.36339,117.21975 C 369.64051,119.98966 358.36055,131.34226 366.11448,129.9871 z M 373.83546,128.54041 C 381.05115,120.86026 381.44929,101.07772 374.78531,121.80012 C 374.44403,123.09561 367.36109,132.94894 373.83546,128.54041 z M 379.4957,128.96718 C 386.85353,118.77816 370.98134,131.46927 379.4957,128.96718 z M 98.446098,127.37686 C 102.14406,118.1949 65.844319,113.99016 93.106425,118.70875 C 100.98334,125.61811 118.38028,117.53686 101.08582,114.75385 C 74.7079,106.26138 126.58072,121.22072 109.07521,108.13811 C 98.884381,106.03296 84.061504,94.994822 103.37987,104.61189 C 121.47858,113.92725 115.48584,97.502483 101.74504,97.071002 C 110.53187,89.947868 118.16989,86.645871 116.98031,72.330302 C 117.03159,61.409979 135.56433,67.416381 139.45309,68.107618 C 132.36849,68.037112 120.59512,71.054524 134.16998,72.304459 C 114.37063,68.060781 131.63519,103.70038 137.19021,89.64169 C 120.74657,80.800316 152.39839,94.204462 139.8427,80.654502 C 154.06433,85.149521 140.21652,70.158926 154.42603,75.603471 C 162.00076,69.033551 189.74454,69.753347 167.82305,60.260635 C 164.42724,50.246054 130.83285,52.602664 156.95353,51.414683 C 172.14376,54.20826 164.00143,49.18851 160.23797,48.011516 C 173.0076,51.594994 171.89595,24.687794 181.38902,44.801675 C 189.26512,57.160524 188.33058,13.019689 193.94297,37.563711 C 202.54193,48.0285 189.35458,67.357555 209.6636,53.91649 C 224.84668,35.709348 251.7132,52.801278 266.22462,44.456715 C 269.11584,32.585432 300.39441,40.156182 277.27723,34.582408 C 286.01273,22.787937 306.03172,32.923919 312.76315,45.962428 C 323.2297,51.311723 339.17474,52.950727 351.9057,58.313656 C 367.10924,69.286854 345.99244,35.000801 353.10755,24.533951 C 356.49388,8.3022895 351.59574,67.462425 358.02074,35.612205 C 356.80343,23.650148 360.02193,16.426826 360.70973,33.515806 C 364.42814,30.425039 362.88499,14.042688 366.59082,30.565248 C 367.61143,43.375737 379.10906,47.111953 378.73388,60.592965 C 380.84338,52.118256 375.99461,7.7628481 380.90209,36.615559 C 383.74904,44.921163 376.89463,76.236443 383.38654,70.807733 C 384.89979,56.697471 381.75065,36.702021 384.59921,25.842098 C 388.30726,39.204683 384.83774,61.426104 385.88493,71.08115 C 393.91506,59.254979 384.79469,33.917335 391.00751,26.815872 C 394.46588,34.884329 388.76574,67.567547 393.85666,62.425789 C 395.26968,44.188164 400.66276,9.3286586 372.96085,18.624682 C 365.92779,16.036638 373.5705,52.874085 368.47738,25.2098 C 360.92276,3.4466847 325.67815,14.651878 306.48652,11.212562 C 272.88816,10.999224 239.08557,14.851811 206.0973,19.023311 C 185.65428,21.627151 167.27735,30.664138 150.01931,41.629072 C 131.38047,50.335988 113.52587,60.014404 97.225059,72.64048 C 85.132216,76.109796 71.798604,102.98143 89.372553,90.998061 C 96.119646,82.749449 107.31607,75.689348 94.840438,90.511232 C 85.567993,95.338871 72.826091,111.77044 76.228144,114.69163 C 54.356472,119.41193 95.827472,130.21126 98.446098,127.37686 z M 135.93101,63.667106 C 110.63818,57.264149 174.75265,62.960208 140.13595,63.97652 L 135.93101,63.667097 L 135.93101,63.667106 z M 147.01175,59.419729 C 119.31019,56.746307 164.32943,53.835093 158.20532,58.677027 C 154.62325,59.440983 150.64308,60.86699 147.01175,59.419729 z M 375.57097,44.230792 C 376.18113,39.100779 376.18113,49.360771 375.57097,44.230792 z M 347.15418,43.790533 C 347.14593,34.860313 345.90049,7.1508775 349.18129,30.315467 C 349.16974,33.544227 349.70868,43.685803 347.15418,43.790533 z M 340.3133,39.167813 C 339.71803,31.764304 339.08159,7.9942908 342.05101,28.369083 C 344.11137,29.98152 341.2151,52.124565 340.3133,39.167813 z M 375.16768,40.928849 C 373.00879,32.999616 373.77737,14.118461 375.58931,32.870812 C 375.06113,33.232744 377.11235,43.472485 375.16768,40.928849 z M 333.19383,28.777698 C 332.5916,2.7477358 338.2933,39.448908 333.3925,38.384183 C 333.15645,35.18691 333.20372,31.980299 333.19383,28.777698 z M 327.33363,34.435028 C 329.23315,15.711305 330.1119,45.600026 327.33363,34.435028 z M 266.27934,33.416815 C 270.76161,21.616799 271.80353,34.40669 266.27935,33.416814 L 266.27934,33.416815 z M 319.65788,33.95018 C 318.09719,16.837466 326.70824,23.375416 319.65788,33.95018 z M 258.32303,32.891874 C 269.25962,12.272829 266.27965,32.653014 258.32303,32.891874 z M 273.29184,33.255556 C 276.61114,25.401869 283.38968,9.7267406 278.65363,28.481628 C 278.65138,30.114277 275.28828,35.316281 273.29184,33.255556 z M 252.1594,31.159976 C 256.95845,20.102957 258.92959,33.105896 252.1594,31.159976 z M 313.46264,29.137627 C 310.21335,-0.25497021 320.06958,33.042304 313.46264,29.137627 z M 235.92389,30.229971 C 237.70343,22.507688 247.52636,33.23897 235.92389,30.229971 z M 245.11526,29.804938 C 249.73673,23.14774 249.66481,35.12313 245.11526,29.804938 z M 300.75509,24.639264 C 307.20824,4.5350129 298.23283,44.616274 300.75509,24.639264 z M 306.75153,30.130554 C 308.78311,9.9447326 315.15003,24.617961 306.75153,30.130554 z M 290.9022,29.802896 C 294.02011,13.651418 300.41137,21.989886 291.1835,30.187311 L 290.9022,29.802894 L 290.9022,29.802896 z M 327.86217,24.361813 C 324.70299,6.502565 332.57856,32.833299 327.86217,24.361813 z M 362.67506,19.593568 C 363.09088,11.073493 365.92284,22.98196 362.67506,19.593568 z M 290.16072,16.054212 C 290.77085,10.92413 290.77084,21.184353 290.16072,16.054212 z M 150.34082,126.9356 C 160.37184,115.59872 171.61205,110.61925 184.22639,99.556825 C 192.19989,91.487943 218.31932,89.788161 194.75545,97.942398 C 184.89293,98.369899 156.48386,127.46392 179.51666,110.26966 C 186.32942,104.10383 209.75767,97.884113 189.39699,107.7167 C 194.98906,111.83376 225.19009,89.31221 233.22637,98.726759 C 241.86534,102.30724 256.7249,85.617598 251.5955,99.197869 C 259.26656,90.620662 257.78315,93.68325 261.31334,96.897895 C 270.6356,86.564225 262.00043,107.86633 272.82233,92.464462 C 271.39939,98.725483 271.86241,100.29715 280.24681,94.423401 C 267.99774,113.02244 296.71053,80.202443 284.68465,99.703441 C 292.14845,95.943816 295.67875,88.048286 289.83057,99.732501 C 297.44195,95.921885 301.86247,90.516468 297.11803,100.70762 C 304.07973,95.879657 310.93629,86.387796 303.58198,100.4515 C 324.80728,92.860351 311.66689,66.989778 294.4203,84.873728 C 276.55336,92.806143 270.02489,61.403661 256.56508,76.934636 C 239.46887,89.754077 215.94668,78.968477 198.89152,90.462714 C 180.2682,93.437183 167.52933,112.7314 151.17558,120.56033 C 140.66584,113.73295 138.97961,121.3792 149.91899,121.65153 C 147.99954,124.89003 142.58335,132.47782 150.34082,126.9356 z M 201.85756,100.30856 C 210.57116,94.633654 200.12495,104.92998 201.85756,100.30856 z M 206.75442,98.036729 C 217.05724,89.803832 225.32597,97.254156 206.75442,98.036729 z M 134.13899,126.17685 C 138.59401,114.07757 129.55535,93.579075 128.20416,118.03673 C 126.94058,121.7867 128.37316,132.1788 134.13899,126.17685 z M 131.10339,121.74106 C 128.7977,105.22614 136.96943,109.4396 131.92179,122.33953 L 131.1034,121.74106 L 131.10339,121.74106 z M 203.33416,123.89804 C 203.24458,111.31977 191.52121,111.85342 198.83456,123.4953 C 200.3286,125.05674 209.80718,131.20581 203.33416,123.89804 z M 387.56327,126.50932 C 394.59082,116.52865 378.5263,130.26769 387.56327,126.50932 L 387.56327,126.50932 z M 394.80333,124.7982 C 399.27107,116.77103 385.91063,132.41253 394.80333,124.7982 z M 196.68677,125.29043 C 192.25993,109.63255 185.83226,123.49521 196.68677,125.29043 z M 208.12385,123.2573 C 208.78077,113.9072 204.7698,104.20049 203.94661,119.4136 C 200.85221,121.64005 212.60814,130.73513 208.12385,123.2573 z M 361.196,125.34836 C 362.61367,102.34419 349.29321,127.17412 361.196,125.34836 z M 166.47012,123.31233 C 164.96047,121.79844 167.23031,128.2349 166.47012,123.31233 z M 402.48771,123.47742 C 407.54491,116.7839 393.27757,129.05422 402.48771,123.47742 z M 64.984922,122.88743 C 59.077676,109.56747 46.0022,126.16615 64.984922,122.88743 z M 384.20278,120.66984 C 390.44484,108.86217 374.47259,127.96671 384.20278,120.66984 z M 166.21983,118.05023 C 162.33773,117.03547 165.16089,125.86795 166.21983,118.05023 z M 391.64244,120.04278 C 394.25612,112.60693 384.10064,125.63774 391.64244,120.04278 z M 356.18627,116.44304 C 363.58081,103.69883 343.56943,125.51538 356.18627,116.44304 z M 368.44301,113.3708 C 375.08648,105.0484 366.96548,92.639326 366.26493,108.90898 C 364.50223,114.28513 364.44431,124.36112 368.44301,113.3708 z M 400.08644,118.27676 C 398.19511,116.14733 391.83911,122.31724 400.08644,118.27676 z M 123.60376,116.94555 C 126.44358,104.27162 106.83753,123.14932 123.60376,116.94555 z M 179.57169,116.69272 C 181.69199,109.11953 172.0192,122.1505 179.57169,116.69272 z M 69.306725,115.39996 C 65.88272,104.92236 50.778947,119.81024 68.213112,116.94228 L 69.306726,115.39996 L 69.306725,115.39996 z M 387.72759,113.85086 C 386.40363,105.93746 380.23112,120.1895 387.72758,113.85086 L 387.72759,113.85086 z M 395.18072,114.16909 C 397.67089,107.13256 400.22169,91.822834 403.77088,102.16171 C 409.58211,95.643715 408.17067,92.424049 413.29761,97.525013 C 417.4828,87.927214 428.08064,98.630003 432.26031,89.026949 C 433.15435,100.66029 436.7078,81.615379 439.73948,82.519691 C 431.13689,78.743095 423.28309,70.420876 435.80942,78.200464 C 442.7963,81.515465 463.86194,107.43238 456.71419,85.967569 C 440.51049,75.48009 438.64222,38.932308 413.13836,48.25601 C 400.55497,53.722341 397.9752,71.093081 386.63255,78.370025 C 396.34526,77.967256 424.04707,65.849283 399.71826,77.438643 C 385.69611,75.625836 367.91615,93.019546 376.53294,102.41433 C 381.08018,94.804432 378.26103,116.66105 385.69605,103.19792 C 387.05138,118.09691 396.57824,90.721224 393.70885,109.96164 C 391.14989,112.4576 388.74597,118.42839 395.18072,114.16909 z M 426.09959,72.46861 C 432.80401,64.234567 438.70751,72.58174 426.09959,72.46861 z M 421.57654,68.751719 C 426.3636,58.121044 434.47892,72.190256 421.57654,68.751719 z M 419.45784,63.602194 C 421.70751,60.443373 421.70751,66.761005 419.45784,63.602194 z M 403.1157,113.24757 C 402.78589,104.1562 393.05635,122.45727 403.11569,113.24757 L 403.1157,113.24757 z M 408.12453,114.45211 C 414.25973,104.01363 413.57455,98.441072 406.25008,104.98655 C 400.65221,102.2083 398.48181,113.74051 406.21846,110.45288 C 405.76537,111.91618 403.27003,118.55046 408.12453,114.45211 z M 152.00047,113.24933 C 155.40405,107.35337 126.75195,115.03091 148.05647,114.17696 L 149.52401,114.2509 L 152.00047,113.24933 L 152.00047,113.24933 z M 266.62153,113.33413 C 270.65114,97.517062 242.06131,104.3515 260.28709,114.26881 L 263.58951,114.57304 L 266.62153,113.33413 L 266.62153,113.33413 z M 352.12919,113.2502 C 360.12896,103.15812 341.2524,118.5919 352.12919,113.2502 z M 348.67943,110.68166 C 361.09349,93.739013 335.44703,117.9389 348.67944,110.68166 L 348.67943,110.68166 z M 417.53249,109.60927 C 415.06052,100.52058 412.12062,120.50144 417.53249,109.60927 z M 422.81428,110.30531 C 429.8792,96.108537 411.71698,119.84442 422.81428,110.30531 z M 123.38363,111.16219 C 130.47959,103.14256 108.12746,114.09877 123.38363,111.16219 z M 364.56009,106.08719 C 366.28006,89.96122 353.63842,105.40199 362.53235,109.38914 C 361.47342,115.57819 365.69871,107.47434 364.56009,106.08719 z M 430.14971,106.84559 C 430.54331,97.426393 421.14214,120.86032 430.14971,106.84559 z M 73.137354,109.23566 C 78.933059,97.182838 54.978839,110.12673 71.493371,110.51411 L 73.13735,109.23566 L 73.137354,109.23566 z M 141.73933,110.27277 C 157.1625,111.91857 164.48106,103.88724 168.51018,89.691619 C 177.44627,83.402883 186.37076,65.086651 167.42509,72.919162 C 153.05016,71.749162 130.59256,104.83002 138.97002,104.41451 C 154.15306,78.642002 135.67448,109.60873 141.73933,110.27277 z M 155.76912,101.24435 C 160.9191,92.876746 174.28694,61.153063 166.94601,85.408601 C 165.03839,87.067005 155.54469,110.34273 155.76912,101.24435 z M 153.7425,84.775359 C 163.14251,73.435283 169.04137,78.236751 155.61556,86.018087 C 152.89535,89.101754 149.78053,88.538226 153.7425,84.775359 z M 346.00541,107.00083 C 350.32016,92.674444 331.77331,118.68943 346.00541,107.00083 z M 435.45801,107.93189 C 441.94172,96.952509 427.08583,113.1806 435.45801,107.93189 z M 340.25625,104.83091 C 350.18142,95.751175 346.60228,83.427074 339.58645,100.82816 C 334.82276,104.82196 332.15588,112.84941 340.25625,104.83091 z M 443.23183,103.51229 C 438.8079,99.500086 437.89739,115.10735 443.23183,103.51229 z M 329.78023,102.19848 C 338.56971,93.818214 337.32105,80.315641 329.77977,97.524848 C 324.76872,101.31585 322.26859,110.55693 329.78023,102.19848 z M 335.10005,103.50103 C 343.26787,96.088113 342.97087,80.011125 334.92666,98.143628 C 332.6402,100.11934 329.00284,109.99245 335.10005,103.50103 L 335.10005,103.50103 z M 128.00316,102.56513 C 123.61571,93.620279 120.48059,55.809903 118.03676,85.099033 C 127.52052,98.489522 95.545628,87.886502 113.68289,98.318 C 124.46021,110.25665 119.71496,85.745018 125.51024,104.44229 C 126.66923,106.02859 128.55984,103.84344 128.00316,102.56513 z M 169.3907,103.66577 C 166.61319,98.346597 164.34105,109.19575 169.3907,103.66577 z M 324.23317,101.6846 C 332.277,95.212823 337.29443,77.437107 325.50314,94.211988 C 331.44924,78.225486 308.29767,88.37339 309.82665,101.10079 C 316.38736,96.68645 324.9817,86.002774 314.7441,101.02039 C 319.07128,102.21295 328.32866,91.655833 318.34296,104.12855 C 319.22591,107.06186 323.67196,102.20232 324.23317,101.6846 z M 216.05816,103.22551 C 213.56285,103.26727 215.12465,103.11985 216.05816,103.22551 z M 356.04707,100.36383 C 360.81732,80.574702 346.22306,113.47226 356.04707,100.36383 z M 420.33836,100.55298 C 415.76917,94.279722 416.64712,109.44574 420.33836,100.55298 z M 79.65161,99.94972 C 75.353639,81.579836 63.726029,112.31864 79.65161,99.94972 z M 426.32826,100.0368 C 422.3592,94.053943 421.23246,107.31911 426.32826,100.0368 z M 432.72347,101.4335 C 439.49153,91.340274 424.10892,102.13974 432.72347,101.4335 z M 449.39546,99.599508 C 447.58687,94.498883 447.32618,107.32097 449.39546,99.599508 z M 133.09796,97.939983 C 134.05677,83.824723 124.78375,105.64779 133.09796,97.939983 z M 172.91277,99.703441 C 170.41746,99.745206 171.97927,99.597788 172.91277,99.703441 z M 440.24044,95.509185 C 439.38504,85.127794 434.4424,110.37464 440.24044,95.509185 z M 350.77743,97.156087 C 360.1609,82.013974 340.91428,103.46811 350.77743,97.156087 z M 171.52831,97.061882 C 178.18664,82.619721 161.27152,100.63597 171.52831,97.061882 z M 369.65837,94.475812 C 374.73922,80.060928 357.74811,53.897993 361.66125,74.073752 C 359.05904,75.211832 360.88118,101.77048 369.65837,94.475812 z M 445.43313,94.126826 C 443.50287,88.776264 442.78247,100.19111 445.43313,94.126826 z M 177.44743,93.099549 C 174.9167,88.618413 174.99634,97.557541 177.44743,93.099549 z M 441.03054,89.13722 C 438.57621,81.440756 438.57621,96.833684 441.03054,89.13722 z M 189.07536,86.922486 C 184.22072,82.550828 186.68444,94.306232 189.07536,86.922486 z M 185.03853,85.265483 C 186.24635,74.010105 177.41953,93.771078 185.03853,85.265492 L 185.03853,85.265483 z M 356.91007,86.55355 C 359.98572,77.504473 344.41443,94.072667 356.91007,86.55355 z M 196.35043,86.327501 C 189.20015,79.885203 175.55127,56.098413 186.29134,79.363053 C 188.43941,81.771588 192.51131,89.517807 196.35043,86.327501 z M 201.08935,84.736667 C 196.68194,75.531448 179.34454,54.623725 190.07235,77.439019 C 191.81311,79.740877 198.60737,86.919133 201.08935,84.736667 z M 375.43194,84.294365 C 373.24885,79.654933 373.24886,88.933797 375.43194,84.294365 z M 351.33716,83.419268 C 371.40041,77.587732 312.41152,75.022244 343.52447,75.420259 C 362.72478,83.402004 355.94901,68.911629 342.63264,65.764884 C 328.93971,62.15727 309.57171,47.91992 315.50474,68.885302 C 325.61524,72.00572 338.64722,79.046094 319.9593,73.387374 C 299.6125,68.713858 322.8017,87.260303 333.16707,83.394101 C 339.1115,83.957794 345.55321,85.740168 351.33716,83.419268 z M 348.13587,73.287885 C 337.9519,67.35767 359.69107,76.426185 348.13587,73.287885 z M 317.758,68.004776 C 320.93328,67.067743 318.76182,67.475516 317.758,68.004776 z M 322.60086,68.004776 C 332.07006,64.858901 320.7226,71.322067 322.60086,68.004776 z M 239.39189,79.00717 C 250.21852,79.572292 277.11851,58.990054 251.82194,66.727249 C 242.07262,72.964308 207.09691,70.152183 224.86334,79.490492 C 229.6463,80.830739 234.5779,79.229045 239.39189,79.00717 z M 235.42956,76.422563 C 240.77207,72.391244 274.82554,60.396208 251.33338,71.526852 C 247.34539,73.798548 239.30768,79.422237 235.42956,76.422563 z M 285.6191,78.860467 C 278.62179,65.396094 277.01778,83.257465 285.6191,78.860467 z M 296.18531,78.570993 C 292.81414,70.79129 282.6766,80.275084 296.18531,78.570993 L 296.18531,78.570993 z M 213.63003,76.237795 C 210.13859,69.587041 196.48712,81.153649 213.63003,76.237805 L 213.63003,76.237795 z M 377.97294,71.967115 C 377.73671,60.005139 374.94106,88.364105 377.97294,71.967115 z M 304.16785,75.017954 C 308.47274,67.590231 287.22288,78.955338 304.16785,75.017954 z M 205.67641,72.319211 C 222.4147,65.330505 249.77162,71.15325 261.38313,57.687302 C 243.53418,62.898552 226.00039,54.547741 210.58437,64.48271 C 206.80678,65.678505 189.2068,80.433689 205.67641,72.319211 z M 275.93339,72.955449 C 271.70767,55.732 267.82351,79.647011 275.93339,72.955449 z M 374.52667,72.013372 C 377.25497,59.882647 374.48537,42.179736 365.29035,48.03824 C 368.26199,53.39442 369.92481,75.122438 374.52667,72.013372 z M 291.77637,69.985946 C 291.23653,57.711667 303.34312,54.498892 299.95873,65.644634 C 289.60385,60.045899 296.5136,82.068211 304.44164,66.638667 C 319.06153,38.366524 266.09753,31.470325 273.99603,63.257131 C 274.80286,69.559382 287.84527,75.968552 291.77637,69.985946 z M 282.09702,65.167011 C 285.61992,55.750601 268.20215,61.62401 283.37649,56.465046 C 288.85387,48.944953 281.86432,81.987715 282.09702,65.167011 z M 288.26064,60.080118 C 292.82751,52.288469 293.79605,68.300414 288.26064,60.080118 z M 278.60424,56.253711 C 282.11045,46.279593 302.36053,36.964564 289.02892,47.312604 C 290.92562,54.82964 299.97754,42.518484 295.92204,54.627841 C 289.93942,50.792915 282.5942,48.028474 278.60424,56.253711 z M 360.04163,70.667097 C 356.36848,61.961209 320.09205,53.74793 326.21295,58.047562 C 336.99287,59.581908 354.86965,69.651625 360.04163,70.667097 z M 197.11366,68.065622 C 206.1844,51.698117 184.94141,77.518424 197.11366,68.065622 z M 309.21697,69.589718 C 313.39519,60.726335 298.93845,74.453547 309.21697,69.589718 z M 270.5884,62.133301 C 266.27368,45.285339 266.96844,79.182904 270.58839,62.133301 L 270.5884,62.133301 z M 378.95401,67.12426 C 376.70434,63.965449 376.70434,70.28308 378.95401,67.12426 z M 367.47216,62.937998 C 364.85371,54.785201 360.80276,28.832569 359.06377,52.042722 C 358.21436,54.298614 368.93213,72.381351 367.47216,62.937998 z M 311.50017,63.089917 C 314.84699,51.260794 304.48766,68.647882 311.50017,63.089917 z M 212.09583,61.295564 C 225.91276,49.646187 252.44993,59.849925 261.97733,49.769691 C 243.59952,48.687053 224.99491,50.221565 212.5636,55.090214 C 206.21754,58.229151 200.55987,67.853262 212.09583,61.295554 L 212.09583,61.295564 z M 189.42249,60.455575 C 197.21976,49.320094 175.54899,47.292663 172.46559,44.628483 C 162.7649,58.476184 175.8833,65.672283 189.42249,60.455575 z M 398.58534,50.31061 C 400.26176,41.089963 396.02953,4.2775328 396.24837,33.344491 C 396.23745,40.363509 396.80658,77.585461 398.58534,50.31061 z M 253.39613,56.554043 C 243.96583,53.460959 225.86816,59.009811 245.93888,57.791496 L 250.81684,57.303141 L 253.39613,56.554043 L 253.39613,56.554043 z M 270.68215,50.98551 C 273.69048,39.960518 258.83195,65.608434 270.68215,50.98551 z M 311.50017,55.16525 C 313.81293,43.282271 306.08352,60.437432 311.50017,55.16525 z M 403.84539,45.664011 C 406.49121,37.24398 399.15816,6.3063465 400.44957,30.151914 C 401.29927,35.089831 400.89286,66.304337 403.84539,45.664011 z M 195.36546,47.000761 C 189.52356,29.045056 184.83102,59.043122 195.40239,48.866443 L 195.36546,47.000761 L 195.36546,47.000761 z M 323.04111,50.834678 C 313.32269,45.699259 314.28869,55.767554 323.04111,50.834678 z M 309.83084,48.641262 C 309.56527,36.876143 304.35682,55.797849 309.83084,48.641262 z M 230.14645,48.633383 C 228.55589,45.867599 221.36217,52.403344 230.14645,48.633383 z M 239.39189,48.633383 C 226.90893,46.681196 230.66622,49.122923 239.39189,48.633383 z M 272.43333,45.11131 C 295.31667,29.68002 253.37728,49.531075 272.43333,45.11131 z M 408.76237,34.584029 C 410.30697,21.688047 403.11816,14.230874 405.68246,31.577302 C 405.76633,43.491059 409.50802,56.55528 408.76237,34.584029 z M 305.49341,41.085193 C 300.46879,33.343537 305.66134,54.119945 305.49341,41.085193 z M 414.04451,31.90463 C 416.19367,20.420659 408.73595,13.202072 410.69837,29.385572 C 409.9256,41.790723 415.78182,53.968318 414.04451,31.90463 z M 432.56436,39.556102 C 432.70369,25.022337 429.93854,55.242051 432.56436,39.556102 z M 418.77042,40.059768 C 420.27917,30.916484 414.28648,4.9895898 416.81194,29.600385 C 417.43896,30.057786 415.9215,49.846999 418.77042,40.059768 z M 428.66507,41.868282 C 431.21273,32.238407 425.02888,18.210071 426.33804,36.665012 C 421.26111,56.910217 424.38488,-0.94767425 420.86035,27.529473 C 421.90717,33.358916 417.08784,51.326835 428.66507,41.868282 z M 301.46842,40.32578 C 298.24407,26.708783 294.09035,42.428825 301.46842,40.325782 L 301.46842,40.32578 z M 294.47971,36.409721 C 285.22384,27.227315 291.5058,42.674502 294.47971,36.409721 z M 142.58673,309.679 C 131.51147,311.36504 103.7586,292.89889 129.02684,297.35357 C 139.07698,289.34494 135.28258,287.99269 125.97204,294.7404 C 107.41944,291.15076 143.74813,291.94574 135.08159,275.95741 C 137.62243,255.15032 141.82297,305.01546 126.7714,302.62429 C 140.54816,303.93032 142.90012,302.09751 149.01335,287.85884 C 148.51336,297.71833 136.79999,312.84011 150.51941,295.82826 C 155.25171,297.83383 135.38721,316.42124 152.99113,304.10502 C 153.09527,307.98281 146.41793,313.31272 142.58673,309.679 z M 139.52378,297.82002 C 144.29582,289.39456 136.96992,304.25405 139.52378,297.82002 z M 124.48428,289.07416 C 133.397,278.62219 132.20995,290.23742 124.48428,289.07416 z M 148.55771,281.48095 C 148.85212,267.23078 151.83472,286.93349 148.55771,281.48095 z M 281.28601,280.57654 C 281.85246,277.18304 282.17916,284.58426 281.28601,280.57654 z M 201.66911,276.97384 C 188.81749,279.64993 183.91568,271.01296 199.26832,273.71002 C 199.7798,272.23332 209.52742,280.17343 201.66911,276.97384 z M 301.69046,274.48629 C 302.00778,267.78617 302.52406,281.49044 301.69046,274.48629 z M 148.79273,270.89219 C 146.30484,255.33153 153.00382,272.05023 148.79273,270.89219 z M 301.25681,266.5087 C 301.89741,258.10316 292.77025,240.35182 297.55447,259.90567 C 290.88894,248.57717 291.06004,226.4675 287.33554,234.20258 C 284.04389,226.02006 272.35731,225.08951 273.75287,223.85649 C 267.14351,212.85098 271.75676,200.30007 276.59041,218.75 C 289.22402,236.30788 286.60957,213.42794 287.68383,207.93465 C 288.25571,229.00312 302.03399,246.85298 302.71626,267.73629 C 303.74931,270.06093 298.02689,273.64601 301.25681,266.5087 z M 294.57261,243.90453 C 291.86354,242.59868 297.45982,250.19449 294.57261,243.90453 z M 181.78778,262.24316 C 184.704,258.53727 220.89716,257.28519 197.12838,260.83825 C 191.90562,259.00861 186.4766,265.86814 181.78778,262.24316 z M 148.214,261.55061 C 145.68056,251.20976 144.2949,238.80754 149.04822,256.02946 C 148.72836,257.22139 150.87831,261.58336 148.214,261.55061 z M 387.70865,261.55061 C 382.49434,245.93751 390.42525,251.02201 387.70865,261.55061 L 387.70865,261.55061 z M 172.91277,253.40582 C 175.48232,235.997 187.3958,255.15851 198.4356,246.30702 C 209.4687,249.62796 170.56179,256.34203 172.91277,253.40582 z M 204.91353,250.21146 C 205.03565,244.08507 198.59538,240.48123 188.19799,243.86034 C 195.43045,238.17752 234.31178,243.44758 208.39271,250.26836 L 204.91354,250.21147 L 204.91353,250.21146 z M 390.026,249.17139 C 378.78996,233.27583 368.50019,216.58069 362.93404,197.64388 C 360.36189,183.85676 355.57604,168.50579 355.07841,155.55355 C 360.93018,181.63156 365.71113,209.26406 381.29918,231.49049 C 370.2564,209.28251 403.65853,259.35938 390.026,249.17139 z M 382.14059,246.28874 C 365.35233,227.26304 387.66268,246.27512 382.14059,246.28874 z M 182.80026,244.82382 C 187.39214,239.45336 184.56233,249.46008 182.80026,244.82382 z M 324.45374,244.28005 C 321.61722,232.79435 328.61992,249.08922 324.45374,244.28005 z M 309.48577,239.70581 C 303.43785,233.53474 301.86642,199.47475 305.86813,224.53315 C 306.43337,227.58431 316.10855,253.50492 309.48577,239.70581 z M 392.65866,241.72495 C 391.55701,237.87114 395.71631,245.84155 392.65866,241.72495 z M 374.57369,235.08309 C 367.18978,224.69249 370.85504,221.63869 375.51792,234.01931 L 376.10077,237.06426 L 374.57369,235.08309 L 374.57369,235.08309 z M 353.14817,231.92553 C 348.24522,223.62737 342.07354,189.20551 349.20984,216.48102 C 349.50957,217.94654 359.15936,242.76793 353.14817,231.92553 z M 331.50908,225.24661 C 328.59631,212.44249 335.66519,231.50336 331.50908,225.24661 z M 367.02696,220.8147 C 362.79276,208.36992 373.28171,230.79064 367.02696,220.8147 z M 202.74032,217.25261 C 193.68216,202.41169 210.94206,218.49122 202.74032,217.25261 z M 292.83935,215.69252 C 288.32097,189.97117 291.85823,162.64008 281.35756,138.16045 C 295.19823,156.1843 289.16413,182.64946 293.20048,204.41751 C 294.3435,206.1237 295.85053,224.90249 292.83935,215.69252 z M 322.35471,208.59554 C 319.3565,197.70906 325.50214,212.22798 322.35471,208.59554 z M 361.05016,203.01755 C 358.40612,192.82667 363.44631,200.57364 361.05017,203.01755 L 361.05016,203.01755 z M 268.88924,189.95654 C 268.74469,165.29412 270.86591,192.23328 269.5041,202.40271 C 268.71277,198.29994 269.02765,194.10178 268.88924,189.95654 z M 335.79228,181.5522 C 334.90262,170.10419 340.78296,189.65855 335.79228,181.5522 z M 209.89453,179.83059 C 206.8644,167.51269 187.52669,184.27247 200.51325,168.15558 C 177.62575,173.90354 209.32171,157.06845 217.1518,155.30249 C 242.32707,162.30641 195.33428,155.09607 207.8048,169.16179 C 216.243,160.9831 258.30665,171.31385 228.77049,172.22031 C 215.27727,167.50893 213.52902,188.08697 227.53538,175.53478 C 236.57901,173.41675 210.49562,189.55884 209.89453,179.83059 z M 279.38544,173.93905 C 280.65938,167.10377 270.47717,130.85485 279.66497,154.0632 C 280.51162,158.55785 282.39089,174.30303 279.38544,173.93905 z M 352.26892,172.34618 C 349.73701,165.57771 343.52986,135.15341 350.12815,157.36998 C 350.03835,158.90812 355.25605,175.17413 352.26892,172.34618 z M 234.74249,162.65461 C 219.0486,158.40621 251.3239,164.24335 234.74249,162.65461 z M 342.85276,163.04878 C 344.31073,161.08154 345.05435,166.06388 342.85276,163.04878 L 342.85276,163.04878 z M 184.85076,161.53745 C 191.41402,150.04366 219.87088,138.21384 230.06555,144.79628 C 212.47544,143.53448 200.38165,157.48619 184.85076,161.53745 z M 257.07572,151.08772 C 256.50329,144.56598 261.45154,156.39865 257.07572,151.08772 z M 353.17285,149.60083 C 351.07809,140.16733 356.23953,154.0754 353.17285,149.60083 z M 250.13815,140.79875 C 245.53047,132.17942 255.31768,146.37777 250.13815,140.79875 z M 271.75093,139.04613 C 264.88978,125.09815 279.98869,147.83956 271.75093,139.04613 z M 315.57398,132.12759 C 310.23676,123.89785 306.27344,112.59931 315.46979,127.29981 C 319.25731,135.72748 322.72952,146.43327 315.57398,132.12759 z M 245.6214,134.97569 C 240.56224,135.93782 214.60237,125.60464 228.24167,128.20979 C 222.466,118.06098 227.06747,104.77046 229.27858,123.13926 C 227.56097,128.31564 257.2495,137.08147 245.6214,134.97569 z M 245.11526,128.76053 C 247.36494,125.60172 247.36492,131.91936 245.11526,128.76053 z M 244.81008,125.63634 C 235.46242,117.53492 248.12398,95.934638 244.44733,118.60124 C 249.02284,122.77556 255.46892,132.54164 244.81008,125.63634 z M 237.69693,126.06664 C 233.39389,119.98213 248.04114,132.4913 237.69693,126.06664 z M 265.75302,126.20703 C 273.31162,125.91766 285.65354,112.831 274.42077,125.79568 C 272.00283,126.29696 267.8261,128.18886 265.75302,126.20703 z M 258.98342,125.51201 C 252.25951,118.84041 271.72528,128.97795 258.98342,125.51201 z M 219.26182,123.03717 C 219.15068,118.7365 221.79756,127.38714 219.26182,123.03717 L 219.26182,123.03717 z M 343.73329,120.39561 C 340.76702,114.70061 348.75923,124.03604 343.73329,120.39561 z M 230.69694,117.33251 C 226.65603,101.11347 237.44026,128.9468 230.69694,117.33251 z M 215.69094,113.02938 C 214.94733,107.8678 218.36879,115.27747 215.69094,113.02938 L 215.69094,113.02938 z M 321.72033,111.15017 C 323.97002,107.99136 323.97,114.309 321.72033,111.15017 z "
     id="path1400" />
</svg>
