<?xml version="1.0" encoding="UTF-8" standalone="no"?>
<!-- Created with Inkscape (http://www.inkscape.org/) -->
<svg
   xmlns:dc="http://purl.org/dc/elements/1.1/"
   xmlns:cc="http://web.resource.org/cc/"
   xmlns:rdf="http://www.w3.org/1999/02/22-rdf-syntax-ns#"
   xmlns:svg="http://www.w3.org/2000/svg"
   xmlns="http://www.w3.org/2000/svg"
   xmlns:sodipodi="http://inkscape.sourceforge.net/DTD/sodipodi-0.dtd"
   xmlns:inkscape="http://www.inkscape.org/namespaces/inkscape"
   id="svg1322"
   sodipodi:version="0.32"
   inkscape:version="0.43"
   width="260pt"
   height="204pt"
   sodipodi:docbase="C:\foo\wikipedia\transfer"
   sodipodi:docname="Masked_man.svg"
   version="1.0">
  <metadata
     id="metadata1327">
    <rdf:RDF>
      <cc:Work
         rdf:about="">
        <dc:format>image/svg+xml</dc:format>
        <dc:type
           rdf:resource="http://purl.org/dc/dcmitype/StillImage" />
        <cc:license
           rdf:resource="http://web.resource.org/cc/PublicDomain" />
      </cc:Work>
      <cc:License
         rdf:about="http://web.resource.org/cc/PublicDomain">
        <cc:permits
           rdf:resource="http://web.resource.org/cc/Reproduction" />
        <cc:permits
           rdf:resource="http://web.resource.org/cc/Distribution" />
        <cc:permits
           rdf:resource="http://web.resource.org/cc/DerivativeWorks" />
      </cc:License>
    </rdf:RDF>
  </metadata>
  <defs
     id="defs1325" />
  <sodipodi:namedview
     inkscape:window-height="721"
     inkscape:window-width="1024"
     inkscape:pageshadow="2"
     inkscape:pageopacity="0.0"
     borderopacity="1.0"
     bordercolor="#666666"
     pagecolor="#ffffff"
     id="base"
     inkscape:zoom="1.0705995"
     inkscape:cx="258.36906"
     inkscape:cy="199.13909"
     inkscape:window-x="-4"
     inkscape:window-y="-4"
     inkscape:current-layer="svg1322" />
  <g
     id="g4843"
     transform="translate(-8.406505,-5.604337)">
    <path
       id="path1331"
       d="M 141.16565,253.30467 C 135.39065,251.14489 128.77034,248.67134 126.45384,247.80789 C 124.13735,246.94445 117.92319,242.66864 112.64461,238.30611 C 107.36603,233.94358 102.87645,230.37423 102.66777,230.37423 C 102.4591,230.37423 93.081548,228.34923 81.828778,225.87423 L 61.369208,221.37423 L 36.767428,221.37423 C 23.236448,221.37423 12.165648,221.06009 12.165648,220.67615 C 12.165648,220.2922 14.248988,214.49453 16.795288,207.79243 L 21.424938,195.6068 L 28.681148,194.43625 C 35.718068,193.30107 35.956228,193.16912 36.561858,190.06996 C 36.905338,188.31231 38.364398,184.08481 39.804218,180.67552 C 42.754558,173.68957 41.567928,174.25707 58.165648,171.89423 C 76.872848,169.23108 75.165648,169.96455 75.165648,164.59045 C 75.165648,158.57517 88.520278,105.80428 100.10853,66.028496 L 109.09511,35.182766 L 117.50504,26.028496 L 125.91496,16.874236 L 138.83055,12.624236 L 151.74615,8.3742364 L 172.53603,8.3742364 L 193.32591,8.3742364 L 205.15544,15.624236 L 216.98496,22.874236 L 227.51714,49.374236 C 247.81586,100.44783 261.76715,139.8197 263.76603,151.67202 C 265.2681,160.57858 265.36287,162.82879 264.30706,164.5194 C 263.60307,165.64667 263.20501,166.74693 263.42249,166.96441 C 263.63997,167.18189 267.60766,166.25804 272.23957,164.91141 L 280.66122,162.46299 L 285.69532,165.30407 C 289.48265,167.4415 294.06503,168.69699 304.19754,170.37332 L 317.66565,172.6015 L 324.031,181.8974 L 330.39635,191.19331 L 328.81877,200.41267 C 327.9511,205.48331 327.03003,209.84318 326.77195,210.10126 C 326.51387,210.35934 324.18216,208.95134 321.59038,206.97236 L 316.87805,203.37423 L 300.1363,203.37423 L 283.39456,203.37423 L 265.69819,208.39291 L 248.00182,213.41158 L 235.33374,223.24496 C 228.36629,228.65333 214.46221,238.54492 204.43578,245.22629 L 186.20592,257.37423 L 168.93578,257.30289 L 151.66565,257.23154 L 141.16565,253.30467 z "
       style="fill:#000000" />
    <path
       d="M 181.58722,242.38882 C 189.73589,237.37799 196.56338,233.43863 196.75943,233.63468 C 196.95548,233.83073 195.35624,237.00233 193.20557,240.68268 C 191.05489,244.36303 189.51936,247.37423 189.79326,247.37423 C 190.06717,247.37423 197.03297,241.19556 205.27281,233.64384 L 220.25435,219.91346 L 240.34829,210.64384 L 260.44222,201.37423 L 281.05394,201.38188 C 300.10341,201.38896 302.46149,201.18748 312.16565,198.72371 C 317.94065,197.25751 322.99997,195.77224 323.40859,195.42312 C 323.81721,195.07399 322.64367,191.64196 320.80072,187.79638 L 317.44992,180.80442 L 307.55778,179.57968 C 302.11711,178.90607 294.57161,178.35928 290.79001,178.36458 C 284.20739,178.37382 283.3444,178.67537 270.54001,185.44061 C 263.18411,189.32712 257.16565,192.31108 257.16565,192.07163 C 257.16565,191.83219 262.35109,187.18981 268.68885,181.75525 L 280.21205,171.87423 L 275.26927,171.57476 C 270.99841,171.316 268.92214,171.97691 259.99606,176.43647 C 254.31434,179.27512 244.94065,184.46062 239.16565,187.9598 C 230.38223,193.28185 228.02327,195.26627 224.73633,200.0981 C 222.5752,203.27497 216.48895,209.92423 211.21133,214.87423 C 203.33888,222.25799 199.07218,225.27344 187.45234,231.66567 L 173.28903,239.45711 L 164.97734,239.16567 L 156.66565,238.87423 L 168.09022,236.43344 C 179.13408,234.07399 179.76723,233.79328 187.09022,228.00971 C 196.16041,220.84622 215.38338,203.25862 214.79063,202.66587 C 214.55962,202.43487 211.287,203.78107 207.51813,205.65744 C 203.74927,207.5338 193.67803,211.20299 185.13762,213.81119 L 169.60958,218.55337 L 159.63762,217.07843 C 154.15303,216.2672 149.58049,215.67455 149.47641,215.76142 C 149.37233,215.8483 153.5583,218.54825 158.77855,221.76133 C 163.99881,224.9744 168.10835,227.76486 167.91086,227.96235 C 166.64101,229.2322 140.95495,217.54475 120.66565,206.46523 C 98.866288,194.56111 96.634928,193.55425 96.330668,195.48453 C 96.137678,196.70889 97.372648,199.52705 99.244218,202.13317 C 103.12071,207.53108 102.48039,207.20548 88.901998,196.87423 C 79.960048,190.07065 77.739348,187.78997 74.053148,181.62423 C 71.669208,177.63673 69.312518,174.37423 68.816048,174.37423 C 68.319578,174.37423 63.582638,175.08032 58.289518,175.94331 C 49.378278,177.3962 48.424988,177.77878 45.415648,181.10992 C 43.628148,183.08856 42.165648,184.99377 42.165648,185.34373 C 42.165648,185.69368 48.934358,190.39999 57.207228,195.8022 C 65.480098,201.20441 72.093958,205.77926 71.904688,205.96852 C 71.715418,206.15779 64.609208,203.55646 56.113108,200.18779 L 40.665648,194.06294 L 33.165648,198.08146 C 25.901248,201.97374 25.530758,202.3556 21.371828,210.23711 L 17.078008,218.37423 L 43.371828,218.38498 L 69.665648,218.39573 L 82.415648,221.7028 C 95.073608,224.98601 95.165648,224.99445 95.165648,222.87266 C 95.165648,221.55617 91.661528,217.00183 86.040818,211.013 C 81.022158,205.66566 77.084658,201.12527 77.290818,200.92325 C 77.496978,200.72122 79.818688,200.80033 82.450188,201.09903 C 87.138288,201.63117 87.511188,201.94367 100.95019,216.60226 C 116.67671,233.75596 126.17683,241.21007 140.87861,247.93143 C 150.4033,252.28592 150.88152,252.39371 158.71855,251.95263 L 166.77145,251.49941 L 181.58722,242.38882 z M 180.74767,209.46735 C 194.53601,204.53333 217.06277,193.37173 232.89566,183.62895 C 244.37798,176.5633 245.55033,175.53824 252.07176,166.86206 L 259.01784,157.62091 L 253.65941,139.24757 C 245.35778,110.7824 234.26979,79.828786 222.60943,52.567316 L 211.96376,27.678166 L 202.64695,21.992686 L 193.33014,16.307196 L 181.9979,16.590716 L 170.66565,16.874236 L 174.16565,18.933856 C 176.09065,20.066636 180.79205,22.091636 184.61321,23.433856 L 191.56077,25.874236 L 179.11321,26.192726 C 169.61967,26.435626 163.38888,25.966206 152.85809,24.214696 L 139.05052,21.918176 L 130.39072,26.396206 L 121.73091,30.874236 L 113.84179,47.874236 L 105.95267,64.874226 L 99.561728,100.1233 C 94.030798,130.62904 92.640138,136.6474 89.227348,144.84752 L 85.283888,154.32267 L 86.539958,166.04059 L 87.796018,177.75851 L 96.697908,185.98652 L 105.5998,194.21453 L 123.72644,200.77606 C 137.68216,205.82779 159.25392,211.75564 169.24767,213.28515 C 169.56778,213.33415 174.74278,211.61613 180.74767,209.46735 z "
       style="fill:#8c8c8c;fill-opacity:1"
       id="path1341" />
    <path
       id="path1337"
       d="M 160.89096,197.80198 L 151.11626,196.46549 L 140.39096,188.0988 C 134.49204,183.49711 125.61565,177.40913 120.66565,174.56993 C 115.71565,171.73074 111.10815,169.03925 110.42676,168.58885 C 109.47164,167.9575 110.51964,160.77381 115.0021,137.22635 L 120.81634,106.68279 L 129.64803,86.056716 L 138.47972,65.430646 L 143.30022,63.829536 C 145.95149,62.948926 148.56627,62.503796 149.11083,62.840356 C 149.6554,63.176916 152.71924,66.697216 155.91937,70.663256 C 160.12275,75.872676 163.67076,82.104036 168.70171,93.112876 C 172.53188,101.49413 175.90801,108.35663 176.20424,108.36288 C 176.50046,108.36912 178.47603,102.41173 180.5944,95.124226 C 182.71276,87.836726 186.47815,77.270786 188.96191,71.644356 C 193.26659,61.893066 193.5992,61.443406 196.07175,62.032686 C 200.95297,63.196036 201.92903,64.331836 209.68128,77.869586 C 217.36943,91.295406 217.48654,91.607296 221.71502,109.91791 C 224.6932,122.81433 226.35049,132.86575 227.19294,143.14135 C 228.14134,154.70935 228.91794,159.03965 230.80809,163.29937 C 232.13209,166.2832 232.86668,169.04171 232.44051,169.42939 C 232.01434,169.81707 227.61565,171.92836 222.66565,174.12115 C 217.71565,176.31394 205.46859,181.76793 195.44997,186.24113 C 177.87533,194.08801 176.96033,194.37698 169.44997,194.45231 L 161.66565,194.53038 L 168.16565,196.87423 C 175.57308,199.54529 174.57342,199.67277 160.89096,197.80198 z "
       style="fill:#000000" />
    <path
       d="M 160.61565,115.49812 C 158.68326,113.71602 139.90699,102.29956 139.52941,102.67714 C 139.31419,102.89236 139.48613,105.49976 139.91151,108.47134 L 140.68492,113.87423 L 148.67529,114.9984 C 159.13418,116.46986 161.78986,116.58101 160.61565,115.49812 z M 198.07489,115.35078 C 202.14998,114.82184 205.69173,114.18148 205.94546,113.92776 C 206.69946,113.17375 209.03299,102.37423 208.44191,102.37423 C 207.68717,102.37423 187.16565,115.50001 187.16565,115.98275 C 187.16565,116.57116 189.88746,116.41349 198.07489,115.35078 z "
       style="fill:#ff0000;fill-opacity:1"
       id="path1335" />
  </g>
</svg>
