<?xml version="1.0" encoding="UTF-8" standalone="no"?>
<!-- Created with Inkscape (http://www.inkscape.org/) -->

<svg
   xmlns:dc="http://purl.org/dc/elements/1.1/"
   xmlns:cc="http://creativecommons.org/ns#"
   xmlns:rdf="http://www.w3.org/1999/02/22-rdf-syntax-ns#"
   xmlns:svg="http://www.w3.org/2000/svg"
   xmlns="http://www.w3.org/2000/svg"
   xmlns:sodipodi="http://sodipodi.sourceforge.net/DTD/sodipodi-0.dtd"
   xmlns:inkscape="http://www.inkscape.org/namespaces/inkscape"
   id="svg1322"
   sodipodi:version="0.32"
   inkscape:version="0.48.1 r9760"
   width="318.23071"
   height="249"
   sodipodi:docname="liftarn_Masked_man2.svg"
   version="1.0">
  <metadata
     id="metadata1327">
    <rdf:RDF>
      <cc:Work
         rdf:about="">
        <dc:format>image/svg+xml</dc:format>
        <dc:type
           rdf:resource="http://purl.org/dc/dcmitype/StillImage" />
        <cc:license
           rdf:resource="http://web.resource.org/cc/PublicDomain" />
        <dc:title />
      </cc:Work>
      <cc:License
         rdf:about="http://web.resource.org/cc/PublicDomain">
        <cc:permits
           rdf:resource="http://web.resource.org/cc/Reproduction" />
        <cc:permits
           rdf:resource="http://web.resource.org/cc/Distribution" />
        <cc:permits
           rdf:resource="http://web.resource.org/cc/DerivativeWorks" />
      </cc:License>
    </rdf:RDF>
  </metadata>
  <defs
     id="defs1325" />
  <sodipodi:namedview
     inkscape:window-height="721"
     inkscape:window-width="1024"
     inkscape:pageshadow="2"
     inkscape:pageopacity="0.0"
     borderopacity="1.0"
     bordercolor="#666666"
     pagecolor="#ffffff"
     id="base"
     inkscape:zoom="1.0705995"
     inkscape:cx="254.60992"
     inkscape:cy="195.90898"
     inkscape:window-x="0"
     inkscape:window-y="0"
     inkscape:current-layer="svg1322"
     showgrid="false"
     inkscape:window-maximized="0"
     fit-margin-top="0"
     fit-margin-left="0"
     fit-margin-right="0"
     fit-margin-bottom="0" />
  <g
     id="g4843"
     transform="translate(-12.165648,-8.3742364)">
    <path
       id="path1331"
       d="m 141.16565,253.30467 c -5.775,-2.15978 -12.39531,-4.63333 -14.71181,-5.49678 -2.31649,-0.86344 -8.53065,-5.13925 -13.80923,-9.50178 -5.27858,-4.36253 -9.76816,-7.93188 -9.97684,-7.93188 -0.20867,0 -9.586222,-2.025 -20.838992,-4.5 l -20.45957,-4.5 -24.60178,0 c -13.53098,0 -24.60178,-0.31414 -24.60178,-0.69808 0,-0.38395 2.08334,-6.18162 4.62964,-12.88372 l 4.62965,-12.18563 7.25621,-1.17055 c 7.03692,-1.13518 7.27508,-1.26713 7.88071,-4.36629 0.34348,-1.75765 1.80254,-5.98515 3.24236,-9.39444 2.95034,-6.98595 1.76371,-6.41845 18.36143,-8.78129 18.7072,-2.66315 17,-1.92968 17,-7.30378 0,-6.01528 13.35463,-58.78617 24.942882,-98.561954 l 8.98658,-30.84573 8.40993,-9.15427 8.40992,-9.15426 12.91559,-4.25 12.9156,-4.2499996 20.78988,0 20.78988,0 11.82953,7.2499996 11.82952,7.25 10.53218,26.5 c 20.29872,51.073594 34.25001,90.445464 36.24889,102.297784 1.50207,8.90656 1.59684,11.15677 0.54103,12.84738 -0.70399,1.12727 -1.10205,2.22753 -0.88457,2.44501 0.21748,0.21748 4.18517,-0.70637 8.81708,-2.053 l 8.42165,-2.44842 5.0341,2.84108 c 3.78733,2.13743 8.36971,3.39292 18.50222,5.06925 l 13.46811,2.22818 6.36535,9.2959 6.36535,9.29591 -1.57758,9.21936 c -0.86767,5.07064 -1.78874,9.43051 -2.04682,9.68859 -0.25808,0.25808 -2.58979,-1.14992 -5.18157,-3.1289 l -4.71233,-3.59813 -16.74175,0 -16.74174,0 -17.69637,5.01868 -17.69637,5.01867 -12.66808,9.83338 c -6.96745,5.40837 -20.87153,15.29996 -30.89796,21.98133 l -18.22986,12.14794 -17.27014,-0.0713 -17.27013,-0.0713 -10.5,-3.92687 z"
       style="fill:#000000"
       inkscape:connector-curvature="0" />
    <path
       d="m 181.58722,242.38882 c 8.14867,-5.01083 14.97616,-8.95019 15.17221,-8.75414 0.19605,0.19605 -1.40319,3.36765 -3.55386,7.048 -2.15068,3.68035 -3.68621,6.69155 -3.41231,6.69155 0.27391,0 7.23971,-6.17867 15.47955,-13.73039 l 14.98154,-13.73038 20.09394,-9.26962 20.09393,-9.26961 20.61172,0.008 c 19.04947,0.007 21.40755,-0.1944 31.11171,-2.65817 5.775,-1.4662 10.83432,-2.95147 11.24294,-3.30059 0.40862,-0.34913 -0.76492,-3.78116 -2.60787,-7.62674 l -3.3508,-6.99196 -9.89214,-1.22474 c -5.44067,-0.67361 -12.98617,-1.2204 -16.76777,-1.2151 -6.58262,0.009 -7.44561,0.31079 -20.25,7.07603 -7.3559,3.88651 -13.37436,6.87047 -13.37436,6.63102 0,-0.23944 5.18544,-4.88182 11.5232,-10.31638 l 11.5232,-9.88102 -4.94278,-0.29947 c -4.27086,-0.25876 -6.34713,0.40215 -15.27321,4.86171 -5.68172,2.83865 -15.05541,8.02415 -20.83041,11.52333 -8.78342,5.32205 -11.14238,7.30647 -14.42932,12.1383 -2.16113,3.17687 -8.24738,9.82613 -13.525,14.77613 -7.87245,7.38376 -12.13915,10.39921 -23.75899,16.79144 l -14.16331,7.79144 -8.31169,-0.29144 -8.31169,-0.29144 11.42457,-2.44079 c 11.04386,-2.35945 11.67701,-2.64016 19,-8.42373 9.07019,-7.16349 28.29316,-24.75109 27.70041,-25.34384 -0.23101,-0.231 -3.50363,1.1152 -7.2725,2.99157 -3.76886,1.87636 -13.8401,5.54555 -22.38051,8.15375 l -15.52804,4.74218 -9.97196,-1.47494 c -5.48459,-0.81123 -10.05713,-1.40388 -10.16121,-1.31701 -0.10408,0.0869 4.08189,2.78683 9.30214,5.99991 5.22026,3.21307 9.3298,6.00353 9.13231,6.20102 -1.26985,1.26985 -26.95591,-10.4176 -47.24521,-21.49712 -21.799362,-11.90412 -24.030722,-12.91098 -24.334982,-10.9807 -0.19299,1.22436 1.04198,4.04252 2.91355,6.64864 3.876492,5.39791 3.236172,5.07231 -10.34222,-5.25894 -8.94195,-6.80358 -11.16265,-9.08426 -14.84885,-15.25 -2.38394,-3.9875 -4.74063,-7.25 -5.2371,-7.25 -0.49647,0 -5.23341,0.70609 -10.52653,1.56908 -8.91124,1.45289 -9.86453,1.83547 -12.87387,5.16661 -1.7875,1.97864 -3.25,3.88385 -3.25,4.23381 0,0.34995 6.76871,5.05626 15.04158,10.45847 8.27287,5.40221 14.88673,9.97706 14.69746,10.16632 -0.18927,0.18927 -7.29548,-2.41206 -15.79158,-5.78073 l -15.44746,-6.12485 -7.5,4.01852 c -7.2644,3.89228 -7.63489,4.27414 -11.79382,12.15565 l -4.29382,8.13712 26.29382,0.0108 26.29382,0.0107 12.75,3.30707 c 12.65796,3.28321 12.75,3.29165 12.75,1.16986 0,-1.31649 -3.50412,-5.87083 -9.12483,-11.85966 -5.01866,-5.34734 -8.95616,-9.88773 -8.75,-10.08975 0.20616,-0.20203 2.52787,-0.12292 5.15937,0.17578 4.6881,0.53214 5.061,0.84464 18.500002,15.50323 15.72652,17.1537 25.22664,24.60781 39.92842,31.32917 9.52469,4.35449 10.00291,4.46228 17.83994,4.0212 l 8.0529,-0.45322 14.81577,-9.11059 z m -0.83955,-32.92147 c 13.78834,-4.93402 36.3151,-16.09562 52.14799,-25.8384 11.48232,-7.06565 12.65467,-8.09071 19.1761,-16.76689 l 6.94608,-9.24115 -5.35843,-18.37334 C 245.35778,110.7824 234.26979,79.828786 222.60943,52.567316 l -10.64567,-24.88915 -9.31681,-5.68548 -9.31681,-5.68549 -11.33224,0.28352 -11.33225,0.28352 3.5,2.05962 c 1.925,1.13278 6.6264,3.15778 10.44756,4.5 l 6.94756,2.44038 -12.44756,0.31849 c -9.49354,0.2429 -15.72433,-0.22652 -26.25512,-1.97803 l -13.80757,-2.29652 -8.6598,4.47803 -8.65981,4.47803 -7.88912,17 -7.88912,16.99999 -6.390942,35.249074 c -5.53093,30.50574 -6.92159,36.5241 -10.33438,44.72422 l -3.94346,9.47515 1.25607,11.71792 1.25606,11.71792 8.90189,8.22801 8.901892,8.22801 18.12664,6.56153 c 13.95572,5.05173 35.52748,10.97958 45.52123,12.50909 0.32011,0.049 5.49511,-1.66902 11.5,-3.8178 z"
       style="fill:#8c8c8c;fill-opacity:1"
       id="path1341"
       inkscape:connector-curvature="0" />
    <path
       id="path1337"
       d="m 160.89096,197.80198 -9.7747,-1.33649 -10.7253,-8.36669 c -5.89892,-4.60169 -14.77531,-10.68967 -19.72531,-13.52887 -4.95,-2.83919 -9.5575,-5.53068 -10.23889,-5.98108 -0.95512,-0.63135 0.0929,-7.81504 4.57534,-31.3625 l 5.81424,-30.54356 8.83169,-20.626074 8.83169,-20.62607 4.8205,-1.60111 c 2.65127,-0.88061 5.26605,-1.32574 5.81061,-0.98918 0.54457,0.33656 3.60841,3.85686 6.80854,7.8229 4.20338,5.20942 7.75139,11.44078 12.78234,22.44962 3.83017,8.381254 7.2063,15.243754 7.50253,15.250004 0.29622,0.006 2.27179,-5.95115 4.39016,-13.238654 2.11836,-7.2875 5.88375,-17.85344 8.36751,-23.47987 4.30468,-9.75129 4.63729,-10.20095 7.10984,-9.61167 4.88122,1.16335 5.85728,2.29915 13.60953,15.8369 7.68815,13.42582 7.80526,13.73771 12.03374,32.048324 2.97818,12.89642 4.63547,22.94784 5.47792,33.22344 0.9484,11.568 1.725,15.8983 3.61515,20.15802 1.324,2.98383 2.05859,5.74234 1.63242,6.13002 -0.42617,0.38768 -4.82486,2.49897 -9.77486,4.69176 -4.95,2.19279 -17.19706,7.64678 -27.21568,12.11998 -17.57464,7.84688 -18.48964,8.13585 -26,8.21118 l -7.78432,0.0781 6.5,2.34385 c 7.40743,2.67106 6.40777,2.79854 -7.27469,0.92775 z"
       style="fill:#000000"
       inkscape:connector-curvature="0" />
    <path
       d="m 160.61565,115.49812 c -1.93239,-1.7821 -20.70866,-13.19856 -21.08624,-12.82098 -0.21522,0.21522 -0.0433,2.82262 0.3821,5.7942 l 0.77341,5.40289 7.99037,1.12417 c 10.45889,1.47146 13.11457,1.58261 11.94036,0.49972 z m 37.45924,-0.14734 c 4.07509,-0.52894 7.61684,-1.1693 7.87057,-1.42302 0.754,-0.75401 3.08753,-11.55353 2.49645,-11.55353 -0.75474,0 -21.27626,13.12578 -21.27626,13.60852 0,0.58841 2.72181,0.43074 10.90924,-0.63197 z"
       style="fill:#ff0000;fill-opacity:1"
       id="path1335"
       inkscape:connector-curvature="0" />
  </g>
</svg>
