<?xml version="1.0" encoding="UTF-8" standalone="no"?>
<!-- Created with Inkscape (http://www.inkscape.org/) -->
<svg
   xmlns:dc="http://purl.org/dc/elements/1.1/"
   xmlns:cc="http://creativecommons.org/ns#"
   xmlns:rdf="http://www.w3.org/1999/02/22-rdf-syntax-ns#"
   xmlns:svg="http://www.w3.org/2000/svg"
   xmlns="http://www.w3.org/2000/svg"
   xmlns:sodipodi="http://sodipodi.sourceforge.net/DTD/sodipodi-0.dtd"
   xmlns:inkscape="http://www.inkscape.org/namespaces/inkscape"
   width="859.47693"
   height="900.00745"
   id="svg4426"
   sodipodi:version="0.32"
   inkscape:version="0.46"
   version="1.0"
   sodipodi:docname="voleur.svg"
   inkscape:output_extension="org.inkscape.output.svg.inkscape">
  <defs
     id="defs4428">
    <inkscape:perspective
       sodipodi:type="inkscape:persp3d"
       inkscape:vp_x="0 : 526.18109 : 1"
       inkscape:vp_y="0 : 1000 : 0"
       inkscape:vp_z="744.09448 : 526.18109 : 1"
       inkscape:persp3d-origin="372.04724 : 350.78739 : 1"
       id="perspective4434" />
  </defs>
  <sodipodi:namedview
     id="base"
     pagecolor="#ffffff"
     bordercolor="#666666"
     borderopacity="1.0"
     inkscape:pageopacity="0.0"
     inkscape:pageshadow="2"
     inkscape:zoom="0.7"
     inkscape:cx="154.58533"
     inkscape:cy="279.53917"
     inkscape:document-units="px"
     inkscape:current-layer="layer3"
     showgrid="false"
     inkscape:window-width="1600"
     inkscape:window-height="1130"
     inkscape:window-x="0"
     inkscape:window-y="24" />
  <metadata
     id="metadata4431">
    <rdf:RDF>
      <cc:Work
         rdf:about="">
        <dc:format>image/svg+xml</dc:format>
        <dc:type
           rdf:resource="http://purl.org/dc/dcmitype/StillImage" />
      </cc:Work>
    </rdf:RDF>
  </metadata>
  <g
     inkscape:groupmode="layer"
     id="layer3"
     inkscape:label="couleur"
     transform="translate(137.40008,-157.78493)">
    <path
       style="opacity:1;fill:#3f3636;fill-opacity:1;fill-rule:evenodd;stroke:none;stroke-width:1px;stroke-linecap:butt;stroke-linejoin:miter;marker:none;marker-start:none;marker-mid:none;marker-end:none;stroke-miterlimit:4;stroke-dasharray:none;stroke-dashoffset:0;stroke-opacity:1;visibility:visible;display:inline;overflow:visible;enable-background:accumulate"
       d="M 97.142857,503.79075 C 47.142857,502.36218 8.5714286,502.36218 -27.142857,516.6479 C -62.857143,530.93361 -127.14286,763.79075 -127.14286,763.79075 C -127.14286,763.79075 -152.85714,835.21933 -122.85714,859.50504 C -92.857143,883.79075 -12.857143,849.50504 17.142857,895.21933 C 47.142857,940.93361 27.142857,992.36218 92.857143,1042.3622 C 158.57143,1092.3622 240,1005.2193 278.57143,1000.9336 L 364.28571,990.93361 C 364.28571,990.93361 364.28571,920.93361 372.85714,880.93361 C 381.42857,840.93361 397.14286,708.07647 405.71429,682.36218 C 414.28571,656.6479 424.28571,629.50504 424.28571,629.50504 L 490,590.93361 L 487.14286,568.07647 L 441.42857,556.6479 L 411.42857,546.6479 L 382.85714,548.07647 L 165.71429,505.21933 L 97.142857,503.79075 z"
       id="path5583"
       sodipodi:nodetypes="cscsssccsscccccccc" />
    <path
       style="opacity:1;fill:#6a2121;fill-opacity:1;fill-rule:evenodd;stroke:none;stroke-width:1px;stroke-linecap:butt;stroke-linejoin:miter;marker:none;marker-start:none;marker-mid:none;marker-end:none;stroke-miterlimit:4;stroke-dasharray:none;stroke-dashoffset:0;stroke-opacity:1;visibility:visible;display:inline;overflow:visible;enable-background:accumulate"
       d="M 222.85714,158.07647 C 174.28571,180.93361 165.71429,182.36218 134.28571,176.6479 C 102.85714,170.93361 57.142857,209.50504 52.857143,225.21933 C 48.571429,240.93361 68.571429,308.07647 68.571429,308.07647 C 68.571429,308.07647 84.285714,346.6479 122.85714,379.50504 C 161.42857,412.36218 231.42857,470.93361 258.57143,473.79075 C 285.71429,476.6479 321.42857,499.50504 332.85714,500.93361 C 344.28571,502.36218 381.42857,505.21933 391.42857,496.6479 C 401.42857,488.07647 530,420.93361 541.42857,393.79075 C 552.85714,366.6479 544.28571,270.93361 487.14286,229.50504 C 430,188.07647 327.14286,160.93361 288.57143,160.93361 C 250,160.93361 222.85714,156.6479 222.85714,158.07647 z"
       id="path5062" />
    <path
       style="opacity:1;fill:#0c0606;fill-opacity:1;fill-rule:evenodd;stroke:none;stroke-width:1px;stroke-linecap:butt;stroke-linejoin:miter;marker:none;marker-start:none;marker-mid:none;marker-end:none;stroke-miterlimit:4;stroke-dasharray:none;stroke-dashoffset:0;stroke-opacity:1;visibility:visible;display:inline;overflow:visible;enable-background:accumulate"
       d="M 170,503.79075 C 125.71429,495.21933 90,490.93361 98.571429,509.50504 C 107.14286,528.07647 142.85714,618.07647 170,626.6479 C 197.14286,635.21933 277.14286,652.36218 308.57143,640.93361 C 340,629.50504 392.85714,608.07647 392.85714,608.07647 L 378.57143,549.50504 L 358.57143,543.79075 L 321.42857,568.07647 L 334.28571,595.21933 C 334.28571,595.21933 291.42857,605.21933 260,602.36218 C 228.57143,599.50504 187.14286,588.07647 187.14286,588.07647 L 197.14286,559.50504 L 170,503.79075 z"
       id="path5575" />
    <path
       style="opacity:1;fill:#d4a68c;fill-opacity:1;fill-rule:evenodd;stroke:none;stroke-width:1px;stroke-linecap:butt;stroke-linejoin:miter;marker:none;marker-start:none;marker-mid:none;marker-end:none;stroke-miterlimit:4;stroke-dasharray:none;stroke-dashoffset:0;stroke-opacity:1;visibility:visible;display:inline;overflow:visible;enable-background:accumulate"
       d="M 191.42857,585.21933 L 198.57143,550.93361 L 172.85714,496.6479 C 172.85714,496.6479 138.57143,482.36218 131.42857,475.21933 C 124.28571,468.07647 100,443.79075 120,436.6479 C 140,429.50504 162.85714,419.50504 162.85714,419.50504 C 162.85714,419.50504 198.57143,456.6479 224.28571,462.36218 C 250,468.07647 308.57143,486.6479 308.57143,486.6479 L 364.28571,502.36218 L 377.14286,500.93361 L 368.57143,529.50504 C 368.57143,529.50504 315.71429,579.50504 294.28571,579.50504 C 272.85714,579.50504 320,580.93361 320,580.93361 L 331.42857,593.79075 C 331.42857,593.79075 308.57143,613.79075 278.57143,612.36218 C 248.57143,610.93361 192.85714,589.50504 191.42857,585.21933 z"
       id="path5577" />
    <path
       style="opacity:1;fill:#7e4626;fill-opacity:1;fill-rule:evenodd;stroke:none;stroke-width:1px;stroke-linecap:butt;stroke-linejoin:miter;marker:none;marker-start:none;marker-mid:none;marker-end:none;stroke-miterlimit:4;stroke-dasharray:none;stroke-dashoffset:0;stroke-opacity:1;visibility:visible;display:inline;overflow:visible;enable-background:accumulate"
       d="M 417.14286,476.6479 C 437.14286,505.21933 490,560.93361 490,560.93361 L 491.42857,635.21933 C 491.42857,635.21933 484.28571,709.50504 501.42857,719.50504 C 518.57143,729.50504 540,729.50504 562.85714,703.79075 C 585.71429,678.07647 602.85714,669.50504 631.42857,660.93361 C 660,652.36218 688.57143,639.50504 688.57143,609.50504 C 688.57143,579.50504 685.71429,585.21933 660,580.93361 C 634.28571,576.6479 615.71429,552.36218 591.42857,542.36218 C 567.14286,532.36218 567.14286,532.36218 567.14286,532.36218 C 567.14286,532.36218 538.57143,452.36218 534.28571,439.50504 C 530,426.6479 535.71429,413.79075 504.28571,419.50504 C 472.85714,425.21933 428.57143,440.93361 425.71429,452.36218 C 422.85714,463.79075 418.57143,476.6479 417.14286,476.6479 z"
       id="path5579" />
    <path
       style="opacity:1;fill:#9c9fbb;fill-opacity:1;fill-rule:evenodd;stroke:none;stroke-width:1px;stroke-linecap:butt;stroke-linejoin:miter;marker:none;marker-start:none;marker-mid:none;marker-end:none;stroke-miterlimit:4;stroke-dasharray:none;stroke-dashoffset:0;stroke-opacity:1;visibility:visible;display:inline;overflow:visible;enable-background:accumulate"
       d="M 360,989.50504 C 407.14286,999.50504 418.57143,1046.6479 437.14286,1028.0765 C 455.71429,1009.505 448.57143,922.36218 448.57143,922.36218 C 448.57143,922.36218 477.14286,798.07647 488.57143,775.21933 C 500,752.36218 504.28571,739.50504 532.85714,759.50504 C 561.42857,779.50504 577.14286,806.6479 577.14286,806.6479 C 577.14286,806.6479 614.28571,836.6479 654.28571,809.50504 C 694.28571,782.36218 727.14286,763.79075 721.42857,746.6479 C 715.71429,729.50504 664.28571,650.93361 664.28571,650.93361 L 608.57143,663.79075 L 562.85714,698.07647 C 562.85714,698.07647 542.85715,728.07647 525.71429,723.79076 C 508.57143,719.50504 491.42857,733.79075 491.42857,709.50504 C 491.42857,685.21933 494.28571,588.07647 494.28571,588.07647 L 418.57143,640.93361 L 394.28571,725.21933 L 361.42857,923.79075 L 360,989.50504 z"
       id="path5586"
       sodipodi:nodetypes="cscsscsscccssccccc" />
    <path
       style="opacity:1;fill:#3f3636;fill-opacity:1;fill-rule:evenodd;stroke:none;stroke-width:1px;stroke-linecap:butt;stroke-linejoin:miter;marker:none;marker-start:none;marker-mid:none;marker-end:none;stroke-miterlimit:4;stroke-dasharray:none;stroke-dashoffset:0;stroke-opacity:1;visibility:visible;display:inline;overflow:visible;enable-background:accumulate"
       d="M 501.17136,744.9352 C 460.98748,809.92337 455.38981,895.04285 450.46854,969.66711 C 450.19828,981.60381 447.07483,959.80086 447.01549,955.60802 C 445.541,943.40464 450.55791,918.90894 467.71174,926.67699 C 481.61275,934.06782 482.28065,952.44656 484.35779,966.25011 C 483.19892,979.03884 489.45192,998.14055 505.62417,995.01573 C 516.01167,991.29188 521.32845,980.47523 528.16716,972.56416 C 539.39476,955.52593 541.87803,934.11183 538.34291,914.34285 C 535.95241,864.54032 533.56186,814.73779 531.17133,764.93526 C 522.1237,760.64958 510.21895,749.22095 501.17136,744.9352 z"
       id="path5636"
       sodipodi:nodetypes="cccccccccc" />
  </g>
  <g
     inkscape:label="Calque 1"
     inkscape:groupmode="layer"
     id="layer1"
     transform="translate(137.40008,-157.78493)">
    <path
       style="opacity:1;fill:#000000;fill-opacity:1;fill-rule:nonzero;stroke:none;stroke-width:1.08099997;stroke-linecap:round;stroke-linejoin:round;stroke-miterlimit:4;stroke-dasharray:none;stroke-dashoffset:0;stroke-opacity:1"
       d="M 166.40054,193.30205 C 124.35479,178.73554 60.227903,197.89689 54.699447,247.80484 C 54.684422,292.88847 104.90853,308.74828 141.94869,311.65763 C 180.68833,313.70545 216.96187,334.26095 234.95181,369.28208 C 260.2511,413.67261 273.8738,472.92485 327.12319,492.77426 C 380.6835,514.7717 428.72254,473.70573 469.1589,448.21063 C 522.33734,443.04316 561.61642,393.39792 539.25615,336.01592 C 523.74007,254.24257 446.43208,204.07686 371.54219,182.60786 C 328.68737,166.24589 283.05483,171.039 238.42884,173.21326 C 215.40572,174.15856 187.00247,165.39372 224.70064,160.22565 C 285.02787,147.46647 348.4747,157.96027 406.35985,176.47457 C 469.25497,201.43777 534.84302,243.80586 550.9525,314.09182 C 573.3853,358.97433 547.67993,421.53904 496.92447,431.40556 C 442.25716,443.71546 406.89982,496.1495 356.2689,512.05827 C 300.09622,514.96054 255.48612,467.16814 239.44983,417.0228 C 222.73953,363.88794 176.01921,326.72871 120.18284,323.91337 C 73.724297,323.0068 22.514402,279.47227 49.037227,231.35428 C 65.78008,192.29839 113.21622,164.0565 154.97787,180.00005 L 161.63509,185.8277 L 166.40054,193.30205 L 166.40054,193.30205 z"
       id="path4458"
       sodipodi:nodetypes="ccccccccccccccccccccc" />
    <path
       style="opacity:1;fill:#000000;fill-opacity:1;fill-rule:nonzero;stroke:none;stroke-width:1.08099997;stroke-linecap:round;stroke-linejoin:round;stroke-miterlimit:4;stroke-dasharray:none;stroke-dashoffset:0;stroke-opacity:1"
       d="M 66.86515,293.49454 C 90.228187,373.1331 168.71194,414.7705 234.8796,454.32215 C 253.46141,462.6526 310.06824,469.92536 297.2689,492.12715 C 225.31955,495.45823 176.70539,433.07542 127.17166,390.81539 C 103.54687,368.83846 47.937993,330.75478 66.86515,293.49454 z"
       id="path4460" />
    <path
       style="opacity:1;fill:#000000;fill-opacity:1;fill-rule:nonzero;stroke:none;stroke-width:1.08099997;stroke-linecap:round;stroke-linejoin:round;stroke-miterlimit:4;stroke-dasharray:none;stroke-dashoffset:0;stroke-opacity:1"
       d="M 153.24736,434.42862 C 101.44565,421.54865 138.95002,489.58898 164.80776,479.85864 C 118.26357,522.91951 83.806423,433.43943 142.2849,420.871 C 150.2424,418.14388 155.2134,428.10955 153.24736,434.42862 z"
       id="path4502" />
    <path
       style="opacity:1;fill:#000000;fill-opacity:1;fill-rule:nonzero;stroke:none;stroke-width:1.08099997;stroke-linecap:round;stroke-linejoin:round;stroke-miterlimit:4;stroke-dasharray:none;stroke-dashoffset:0;stroke-opacity:1"
       d="M 131.91461,471.93768 C 116.07464,426.51554 204.78521,445.1797 154.23348,475.01436 C 160.16857,456.90054 132.61862,444.85724 144.35562,454.66449 C 142.82633,461.00226 139.52387,471.04753 131.91461,471.93768 z"
       id="path4504" />
    <path
       style="opacity:1;fill:#000000;fill-opacity:1;fill-rule:nonzero;stroke:none;stroke-width:1.08099997;stroke-linecap:round;stroke-linejoin:round;stroke-miterlimit:4;stroke-dasharray:none;stroke-dashoffset:0;stroke-opacity:1"
       d="M 179.81319,466.77319 C 164.78797,499.78551 211.62363,541.11684 203.88377,558.05527 C 164.79117,557.74256 155.52137,488.88254 179.81319,466.77319 z"
       id="path4506" />
    <path
       style="opacity:1;fill:#000000;fill-opacity:1;fill-rule:nonzero;stroke:none;stroke-width:1.08099997;stroke-linecap:round;stroke-linejoin:round;stroke-miterlimit:4;stroke-dasharray:none;stroke-dashoffset:0;stroke-opacity:1"
       d="M 223.21069,536.19763 C 219.73003,596.77304 312.57145,582.47662 325.97965,559.14631 C 310.37305,598.65297 257.56584,605.33395 225.21898,582.83544 C 206.456,572.62702 202.1279,547.1259 223.21069,536.19763 z"
       id="path4508" />
    <path
       style="opacity:1;fill:#000000;fill-opacity:1;fill-rule:nonzero;stroke:none;stroke-width:1.08099997;stroke-linecap:round;stroke-linejoin:round;stroke-miterlimit:4;stroke-dasharray:none;stroke-dashoffset:0;stroke-opacity:1"
       d="M 332.56668,549.46295 C 357.30064,568.13715 371.21441,488.91122 372.53952,531.77971 C 371.54482,544.48301 316.15386,586.41331 332.56668,549.46295 z"
       id="path4510" />
    <path
       style="opacity:1;fill:#000000;fill-opacity:1;fill-rule:nonzero;stroke:none;stroke-width:1.08099997;stroke-linecap:round;stroke-linejoin:round;stroke-miterlimit:4;stroke-dasharray:none;stroke-dashoffset:0;stroke-opacity:1"
       d="M 228.57481,503.7175 C 248.5664,508.223 315.28228,493.80071 264.2768,516.50434 C 253.36373,519.59517 203.02593,529.5797 228.57481,503.7175 z"
       id="path4516" />
    <path
       style="opacity:1;fill:#000000;fill-opacity:1;fill-rule:nonzero;stroke:none;stroke-width:1.08099997;stroke-linecap:round;stroke-linejoin:round;stroke-miterlimit:4;stroke-dasharray:none;stroke-dashoffset:0;stroke-opacity:1"
       d="M 251.09129,508.44 C 255.33119,555.78797 327.42155,502.33652 323.94643,516.71174 C 315.10133,547.90065 222.07876,557.42375 251.09129,508.44 z"
       id="path4518" />
    <path
       style="opacity:1;fill:#000000;fill-opacity:1;fill-rule:nonzero;stroke:none;stroke-width:1.08099997;stroke-linecap:round;stroke-linejoin:round;stroke-miterlimit:4;stroke-dasharray:none;stroke-dashoffset:0;stroke-opacity:1"
       d="M 267.3017,352.76938 C 287.77754,350.50181 330.77051,377.81944 287.2715,376.45638 C 274.73216,375.90807 245.33447,368.61615 267.3017,352.76938 z"
       id="path4532" />
    <path
       style="opacity:1;fill:#000000;fill-opacity:1;fill-rule:nonzero;stroke:none;stroke-width:1.08099997;stroke-linecap:round;stroke-linejoin:round;stroke-miterlimit:4;stroke-dasharray:none;stroke-dashoffset:0;stroke-opacity:1"
       d="M 192.10692,236.87865 C 191.67149,278.9728 260.03017,261.13744 289.54959,272.09281 C 319.02329,284.45988 374.78315,252.06879 322.36703,235.24919 C 296.78974,227.92189 232.72444,233.22802 233.27971,221.41748 C 271.88812,230.19792 350.12363,212.47626 354.41118,265.74517 C 323.65313,306.65245 269.31332,273.02404 228.44429,272.44814 C 200.07986,274.73322 137.91827,235.63338 193.46549,225.94455 L 194.66709,229.61423 L 192.10692,236.87865 L 192.10692,236.87865 z"
       id="path4548" />
    <path
       style="opacity:1;fill:#000000;fill-opacity:1;fill-rule:nonzero;stroke:none;stroke-width:1.08099997;stroke-linecap:round;stroke-linejoin:round;stroke-miterlimit:4;stroke-dasharray:none;stroke-dashoffset:0;stroke-opacity:1"
       d="M 363.82462,265.62582 C 356.32843,300.60423 384.8729,355.16639 381.61477,372.41115 C 342.42773,360.10498 349.74748,302.54897 357.15955,271.34772 C 359.38124,269.44042 361.60293,267.53312 363.82462,265.62582 z"
       id="path4554" />
    <path
       style="opacity:1;fill:#000000;fill-opacity:1;fill-rule:nonzero;stroke:none;stroke-width:1.08099997;stroke-linecap:round;stroke-linejoin:round;stroke-miterlimit:4;stroke-dasharray:none;stroke-dashoffset:0;stroke-opacity:1"
       d="M 160.96301,249.87833 C 161.8357,272.33941 132.91459,301.52147 146.6034,263.52022 C 150.43864,258.0847 155.4473,253.55484 160.96301,249.87833 z"
       id="path4558" />
    <path
       style="opacity:1;fill:#000000;fill-opacity:1;fill-rule:nonzero;stroke:none;stroke-width:1.08099997;stroke-linecap:round;stroke-linejoin:round;stroke-miterlimit:4;stroke-dasharray:none;stroke-dashoffset:0;stroke-opacity:1"
       d="M 158.58357,507.12039 C 140.80643,524.86608 76.362721,489.80945 110.17235,526.58505 C 133.91886,563.04771 152.02842,615.19144 199.17668,625.7056 C 250.21022,631.57635 303.94565,644.46281 353.03616,621.72179 C 373.18911,611.37622 391.8799,602.23123 365.51589,624.88727 C 313.29464,661.91027 246.13714,647.9899 187.34043,640.25472 C 140.37332,627.75983 120.76779,576.15993 96.358668,538.91273 C 60.625484,495.41643 150.4774,482.1128 160.01205,504.92288 L 158.68683,506.96154 L 158.58357,507.12039 z"
       id="path4638" />
    <path
       style="opacity:1;fill:#000000;fill-opacity:1;fill-rule:nonzero;stroke:none;stroke-width:1.08099997;stroke-linecap:round;stroke-linejoin:round;stroke-miterlimit:4;stroke-dasharray:none;stroke-dashoffset:0;stroke-opacity:1"
       d="M 199.50194,557.08441 C 211.72135,577.99727 172.65769,617.05485 187.9916,573.76593 C 187.92439,566.11016 195.12618,562.14682 199.50194,557.08441 z"
       id="path4640" />
    <path
       style="opacity:1;fill:#000000;fill-opacity:1;fill-rule:nonzero;stroke:none;stroke-width:1.08099997;stroke-linecap:round;stroke-linejoin:round;stroke-miterlimit:4;stroke-dasharray:none;stroke-dashoffset:0;stroke-opacity:1"
       d="M 323.32059,558.99969 C 329.04943,572.38105 350.55352,611.64258 318.53179,593.46261 C 308.40065,583.10166 309.52394,565.66983 323.32059,558.99969 z"
       id="path4642" />
    <path
       style="opacity:1;fill:#000000;fill-opacity:1;fill-rule:nonzero;stroke:none;stroke-width:1.08099997;stroke-linecap:round;stroke-linejoin:round;stroke-miterlimit:4;stroke-dasharray:none;stroke-dashoffset:0;stroke-opacity:1"
       d="M 70.979172,514.97327 C 60.205346,522.1838 43.410129,532.3413 62.417329,514.37392 C 62.011324,563.11358 119.28888,579.32036 145.00811,611.23065 C 117.72855,637.31878 88.277549,577.0668 62.183881,563.41983 C 35.539382,546.18178 56.362659,500.76689 78.740911,503.99408 L 76.262007,508.2882 L 70.979172,514.97327 L 70.979172,514.97327 z"
       id="path4652" />
    <path
       style="opacity:1;fill:#000000;fill-opacity:1;fill-rule:nonzero;stroke:none;stroke-width:1.08099997;stroke-linecap:round;stroke-linejoin:round;stroke-miterlimit:4;stroke-dasharray:none;stroke-dashoffset:0;stroke-opacity:1"
       d="M 27.927221,523.84436 C 13.714935,532.57585 42.248762,507.48079 27.624976,532.22453 C 47.189677,601.74071 115.53654,646.28656 184.75794,654.39736 C 233.96253,664.17371 284.3587,661.42374 334.19932,663.15703 C 295.01855,696.38285 239.72397,668.81029 193.63743,672.1277 C 128.58181,665.69919 61.814141,636.35539 27.921036,578.0009 C 5.6812874,563.07632 19.526058,507.15241 32.481178,517.22119 C 30.963193,519.42891 29.445207,521.63664 27.927221,523.84436 z"
       id="path4654" />
    <path
       style="opacity:1;fill:#000000;fill-opacity:1;fill-rule:nonzero;stroke:none;stroke-width:1.08099997;stroke-linecap:round;stroke-linejoin:round;stroke-miterlimit:4;stroke-dasharray:none;stroke-dashoffset:0;stroke-opacity:1"
       d="M -2.2846808,523.1048 C -23.607306,528.53879 -39.555197,520.54995 -23.264428,546.98937 C -14.570665,591.37672 38.803273,611.09304 56.994467,639.34178 C 15.818297,644.94187 -29.552556,594.29397 -37.036006,553.50498 C -59.135931,520.80949 20.279582,491.14948 -2.2846808,523.1048 z"
       id="path4656" />
    <path
       style="opacity:1;fill:#000000;fill-opacity:1;fill-rule:nonzero;stroke:none;stroke-width:1.08099997;stroke-linecap:round;stroke-linejoin:round;stroke-miterlimit:4;stroke-dasharray:none;stroke-dashoffset:0;stroke-opacity:1"
       d="M 389.75543,602.15381 C 446.06536,619.24164 417.7404,677.15364 402.53647,712.49826 C 394.09206,772.2911 383.05336,831.30037 375.00958,891.09923 C 369.84,926.05558 364.19032,963.11756 375.894,997.31172 C 357.47511,1047.0931 351.8767,960.08906 358.50616,939.95953 C 363.86482,880.9954 373.42176,822.63974 383.87494,764.58076 C 377.18661,720.25171 416.34493,683.21084 414.14582,644.49227 C 404.77238,631.06674 365.53881,622.54631 389.75543,602.15381 z"
       id="path4658" />
    <path
       style="opacity:1;fill:#000000;fill-opacity:1;fill-rule:nonzero;stroke:none;stroke-width:1.08099997;stroke-linecap:round;stroke-linejoin:round;stroke-miterlimit:4;stroke-dasharray:none;stroke-dashoffset:0;stroke-opacity:1"
       d="M 373.33032,675.83331 C 339.04856,718.19759 283.90278,733.61718 240.34555,764.05607 C 192.85217,792.74158 150.86975,829.27523 108.07237,864.31444 C 100.59897,877.45169 76.129978,929.19176 50.965131,948.2487 C 65.072903,928.80831 52.365924,948.61005 66.59261,923.9834 C 89.055504,879.78152 121.05799,841.11916 161.83535,812.63569 C 223.87058,760.5819 296.39543,723.49557 364.86422,681.07525 C 365.52646,686.31127 378.84924,670.9357 373.33032,675.83331 z"
       id="path4666" />
    <path
       style="opacity:1;fill:#000000;fill-opacity:1;fill-rule:nonzero;stroke:none;stroke-width:1.08099997;stroke-linecap:round;stroke-linejoin:round;stroke-miterlimit:4;stroke-dasharray:none;stroke-dashoffset:0;stroke-opacity:1"
       d="M 331.65845,770.41199 C 281.87035,837.12596 222.86306,898.73043 190.21638,976.60282 C 156.10185,1021.0639 218.79364,907.06815 204.46876,935.80226 C 238.9193,877.5871 284.61416,826.90764 326.89368,774.61951 C 328.48193,773.217 330.07019,771.81449 331.65845,770.41199 z"
       id="path4668" />
    <path
       style="opacity:1;fill:#000000;fill-opacity:1;fill-rule:nonzero;stroke:none;stroke-width:1.08099997;stroke-linecap:round;stroke-linejoin:round;stroke-miterlimit:4;stroke-dasharray:none;stroke-dashoffset:0;stroke-opacity:1"
       d="M 184.87016,710.09888 C 158.02051,752.1678 100.75021,755.89945 68.506757,792.99966 C 55.690637,808.84476 4.0030603,815.87719 43.370004,794.93464 C 90.415352,776.52772 124.89897,735.54547 173.23417,719.73967 C 162.58467,733.68375 181.79408,709.92187 184.87016,710.09888 z"
       id="path4672" />
    <path
       style="opacity:1;fill:#000000;fill-opacity:1;fill-rule:nonzero;stroke:none;stroke-width:1.08099997;stroke-linecap:round;stroke-linejoin:round;stroke-miterlimit:4;stroke-dasharray:none;stroke-dashoffset:0;stroke-opacity:1"
       d="M -41.20129,517.69165 C -71.436183,567.1693 -63.279972,629.50818 -91.22471,680.36754 C -101.10929,713.62785 -103.0799,752.28725 -129.27237,777.95917 C -117.61614,752.45846 -102.82239,678.53263 -82.581456,633.26474 C -76.292106,593.14387 -75.457704,545.62176 -41.20129,517.69165 z"
       id="path4674" />
    <path
       style="opacity:1;fill:#000000;fill-opacity:1;fill-rule:nonzero;stroke:none;stroke-width:1.08099997;stroke-linecap:round;stroke-linejoin:round;stroke-miterlimit:4;stroke-dasharray:none;stroke-dashoffset:0;stroke-opacity:1"
       d="M 379.81375,544.71448 C 412.43679,547.74322 391.62723,627.25097 380.96402,573.59121 C 373.26761,564.90932 363.52745,551.43519 379.81375,544.71448 z"
       id="path4676" />
    <path
       style="opacity:1;fill:#000000;fill-opacity:1;fill-rule:nonzero;stroke:none;stroke-width:1.08099997;stroke-linecap:round;stroke-linejoin:round;stroke-miterlimit:4;stroke-dasharray:none;stroke-dashoffset:0;stroke-opacity:1"
       d="M 374.86307,647.73376 C 341.08967,639.89376 371.28485,662.28827 391.17151,660.26457 C 361.73046,674.57375 403.04091,620.57706 395.20256,657.3738 C 377.64442,709.72097 322.35894,638.08438 373.43873,633.65878 C 391.51024,628.64866 379.46472,644.66693 374.86307,647.73376 z"
       id="path4678" />
    <path
       style="opacity:1;fill:#000000;fill-opacity:1;fill-rule:nonzero;stroke:none;stroke-width:1.08099997;stroke-linecap:round;stroke-linejoin:round;stroke-miterlimit:4;stroke-dasharray:none;stroke-dashoffset:0;stroke-opacity:1"
       d="M 414.1434,651.20874 C 420.20678,625.60464 475.95193,585.04498 479.31368,600.04946 C 442.69385,626.15144 437.17522,620.50554 414.1434,651.20874 z"
       id="path4680" />
    <path
       style="opacity:1;fill:#000000;fill-opacity:1;fill-rule:nonzero;stroke:none;stroke-width:1.08099997;stroke-linecap:round;stroke-linejoin:round;stroke-miterlimit:4;stroke-dasharray:none;stroke-dashoffset:0;stroke-opacity:1"
       d="M 406.60001,602.29681 C 431.56187,581.51523 405.247,616.23022 415.80915,591.54578 C 419.48863,568.57483 438.82127,549.11344 429.57119,585.41474 C 428.28248,594.9779 377.06032,642.49091 406.60001,602.29681 z"
       id="path4682" />
    <path
       style="opacity:1;fill:#000000;fill-opacity:1;fill-rule:nonzero;stroke:none;stroke-width:1.08099997;stroke-linecap:round;stroke-linejoin:round;stroke-miterlimit:4;stroke-dasharray:none;stroke-dashoffset:0;stroke-opacity:1"
       d="M 395.47604,543.62256 C 417.45329,520.12419 450.81855,566.6052 409.62627,554.86431 C 396.91074,554.06048 375.62738,564.58389 395.47604,543.62256 z"
       id="path4684" />
    <path
       style="opacity:1;fill:#000000;fill-opacity:1;fill-rule:nonzero;stroke:none;stroke-width:1.08099997;stroke-linecap:round;stroke-linejoin:round;stroke-miterlimit:4;stroke-dasharray:none;stroke-dashoffset:0;stroke-opacity:1"
       d="M 445.36795,553.46063 C 465.69623,542.06935 525.70759,581.0353 478.41856,574.30145 C 467.45971,569.05246 418.42748,575.55138 445.36795,553.46063 z"
       id="path4686" />
    <path
       style="opacity:1;fill:#000000;fill-opacity:1;fill-rule:nonzero;stroke:none;stroke-width:1.08099997;stroke-linecap:round;stroke-linejoin:round;stroke-miterlimit:4;stroke-dasharray:none;stroke-dashoffset:0;stroke-opacity:1"
       d="M 425.68225,472.99765 C 458.99348,456.4475 518.40885,393.79352 546.40266,440.16091 C 543.74838,467.57251 583.78568,526.74438 559.72997,532.31648 C 533.10554,504.413 554.6064,405.09487 489.72511,443.47251 C 468.84029,453.22582 449.27867,471.94848 425.68225,472.99765 z"
       id="path4806" />
    <path
       style="opacity:1;fill:#000000;fill-opacity:1;fill-rule:nonzero;stroke:none;stroke-width:1.08099997;stroke-linecap:round;stroke-linejoin:round;stroke-miterlimit:4;stroke-dasharray:none;stroke-dashoffset:0;stroke-opacity:1"
       d="M 434.58875,489.36685 C 441.84999,520.93157 512.93408,549.82739 495.54157,571.8936 C 467.74663,558.22226 422.23693,519.93284 434.18727,489.6627 L 434.58875,489.36685 z"
       id="path4808" />
    <path
       style="opacity:1;fill:#000000;fill-opacity:1;fill-rule:nonzero;stroke:none;stroke-width:1.08099997;stroke-linecap:round;stroke-linejoin:round;stroke-miterlimit:4;stroke-dasharray:none;stroke-dashoffset:0;stroke-opacity:1"
       d="M 405.77628,489.2348 C 364.2272,510.78766 419.94413,457.68391 405.77628,489.2348 z"
       id="path4810" />
    <path
       style="opacity:1;fill:#000000;fill-opacity:1;fill-rule:nonzero;stroke:none;stroke-width:1.08099997;stroke-linecap:round;stroke-linejoin:round;stroke-miterlimit:4;stroke-dasharray:none;stroke-dashoffset:0;stroke-opacity:1"
       d="M 410.87967,454.39151 C 473.34498,426.62653 387.3559,493.1342 410.87967,454.39151 z"
       id="path4812" />
    <path
       style="opacity:1;fill:#000000;fill-opacity:1;fill-rule:nonzero;stroke:none;stroke-width:1.08099997;stroke-linecap:round;stroke-linejoin:round;stroke-miterlimit:4;stroke-dasharray:none;stroke-dashoffset:0;stroke-opacity:1"
       d="M 445.67422,433.59766 C 467.84582,414.73536 483.10028,446.66428 451.28802,444.00726 C 439.01694,451.09172 434.80074,439.95907 445.67422,433.59766 z"
       id="path4814" />
    <path
       style="opacity:1;fill:#000000;fill-opacity:1;fill-rule:nonzero;stroke:none;stroke-width:1.08099997;stroke-linecap:round;stroke-linejoin:round;stroke-miterlimit:4;stroke-dasharray:none;stroke-dashoffset:0;stroke-opacity:1"
       d="M 487.51892,418.38452 C 529.21182,399.79657 508.16308,444.53758 481.37335,427.5064 L 482.85402,422.99159 L 487.51892,418.38452 L 487.51892,418.38452 z"
       id="path4816" />
    <path
       style="opacity:1;fill:#000000;fill-opacity:1;fill-rule:nonzero;stroke:none;stroke-width:1.08099997;stroke-linecap:round;stroke-linejoin:round;stroke-miterlimit:4;stroke-dasharray:none;stroke-dashoffset:0;stroke-opacity:1"
       d="M 494.99707,570.17407 C 513.52845,618.59315 480.80765,681.77061 512.11021,721.59357 C 557.97463,718.4914 580.60253,661.53899 627.97552,655.61541 C 669.91004,656.4922 702.16779,619.26934 673.98657,581.9726 C 653.78412,561.11907 702.82686,566.13892 696.01779,591.28884 C 707.5028,638.33115 655.97197,666.27208 616.48004,671.58298 C 567.01717,674.6374 544.17946,748.59101 494.00778,732.70261 C 472.56746,690.36823 499.38322,633.91247 481.97002,587.49384 C 483.31201,579.835 490.1004,575.40623 494.99707,570.17407 z"
       id="path4920" />
    <path
       style="opacity:1;fill:#000000;fill-opacity:1;fill-rule:nonzero;stroke:none;stroke-width:1.08099997;stroke-linecap:round;stroke-linejoin:round;stroke-miterlimit:4;stroke-dasharray:none;stroke-dashoffset:0;stroke-opacity:1"
       d="M 591.26208,530.91132 C 601.04194,564.88446 669.97904,566.31583 668.38785,590.96538 C 642.42188,599.66046 562.63669,558.86059 591.26208,530.91132 z"
       id="path4922" />
    <path
       style="opacity:1;fill:#000000;fill-opacity:1;fill-rule:nonzero;stroke:none;stroke-width:1.08099997;stroke-linecap:round;stroke-linejoin:round;stroke-miterlimit:4;stroke-dasharray:none;stroke-dashoffset:0;stroke-opacity:1"
       d="M 575.28473,694.18042 C 589.84555,711.91965 584.46261,769.62984 566.29084,724.17229 C 561.89051,713.38029 563.41801,699.52431 575.28473,694.18042 z"
       id="path4924" />
    <path
       style="opacity:1;fill:#000000;fill-opacity:1;fill-rule:nonzero;stroke:none;stroke-width:1.08099997;stroke-linecap:round;stroke-linejoin:round;stroke-miterlimit:4;stroke-dasharray:none;stroke-dashoffset:0;stroke-opacity:1"
       d="M 677.01154,649.60358 C 698.31298,684.72819 758.27096,732.24084 707.42609,770.52128 C 702.76954,776.10309 686.03309,785.24675 700.62065,771.35587 C 677.71926,818.54062 587.69907,847.7356 559.54258,794.24737 C 544.97725,760.43973 476.67647,767.06969 477.53437,738.26094 C 517.44355,735.16893 558.10978,762.08251 581.35352,793.99779 C 607.04013,827.26812 666.14114,798.6633 687.57731,783.31127 C 744.09672,754.89169 697.39349,706.19419 670.70609,673.74947 C 666.54146,665.39263 669.62881,655.06511 677.01154,649.60358 z"
       id="path4928" />
    <path
       style="opacity:1;fill:#000000;fill-opacity:1;fill-rule:nonzero;stroke:none;stroke-width:1.08099997;stroke-linecap:round;stroke-linejoin:round;stroke-miterlimit:4;stroke-dasharray:none;stroke-dashoffset:0;stroke-opacity:1"
       d="M 481.00784,768.53058 C 446.61626,800.02873 494.6134,737.19476 485.65812,761.32162 L 481.00784,768.53058 L 481.00784,768.53058 z"
       id="path4930" />
    <path
       style="opacity:1;fill:#000000;fill-opacity:1;fill-rule:nonzero;stroke:none;stroke-width:1.08099997;stroke-linecap:round;stroke-linejoin:round;stroke-miterlimit:4;stroke-dasharray:none;stroke-dashoffset:0;stroke-opacity:1"
       d="M 500.44144,753.23724 C 468.77447,813.74353 462.86836,883.2176 457.61873,950.08932 C 459.14889,968.06338 431.28412,1021.0003 440.87823,977.08631 C 448.98882,916.34967 453.84533,854.37331 472.6738,795.85863 C 480.62775,780.99036 486.29189,763.59322 500.44144,753.23724 z"
       id="path4934" />
    <path
       style="opacity:1;fill:#000000;fill-opacity:1;fill-rule:nonzero;stroke:none;stroke-width:1.08099996999999992;stroke-linecap:round;stroke-linejoin:round;stroke-miterlimit:4;stroke-dasharray:none;stroke-dashoffset:0;stroke-opacity:1"
       d="M 535.07532,769.14893 C 537.19875,802.72836 533.96456,836.64053 540.50106,869.89444 C 543.27743,893.61293 546.33677,917.3377 548.17879,941.13855 C 546.16095,955.26303 528.98475,954.28964 534.70784,939.43757 C 530.93245,909.26304 527.70926,879.00014 523.89678,848.84937 C 523.10459,827.44245 523.79689,805.90915 522.48883,784.58148 C 524.24953,777.78397 531.05521,774.3969 535.07532,769.14893 z"
       id="path5630" />
  </g>
</svg>
