<?xml version="1.0" encoding="UTF-8" standalone="no"?>
<!-- Created with Inkscape (http://www.inkscape.org/) -->

<svg
   xmlns:dc="http://purl.org/dc/elements/1.1/"
   xmlns:cc="http://creativecommons.org/ns#"
   xmlns:rdf="http://www.w3.org/1999/02/22-rdf-syntax-ns#"
   xmlns:svg="http://www.w3.org/2000/svg"
   xmlns="http://www.w3.org/2000/svg"
   xmlns:xlink="http://www.w3.org/1999/xlink"
   xmlns:sodipodi="http://sodipodi.sourceforge.net/DTD/sodipodi-0.dtd"
   xmlns:inkscape="http://www.inkscape.org/namespaces/inkscape"
   width="114.4237"
   height="109.37228"
   id="svg2"
   sodipodi:version="0.32"
   inkscape:version="0.48.1 r9760"
   version="1.0"
   sodipodi:docname="nicubunu_RPG_map_symbols_Wishing_Well_modified.svg"
   inkscape:output_extension="org.inkscape.output.svg.inkscape">
  <defs
     id="defs4">
    <linearGradient
       id="linearGradient3415">
      <stop
         style="stop-color:#1a1a1a;stop-opacity:1;"
         offset="0"
         id="stop3417" />
      <stop
         style="stop-color:#2b2b2b;stop-opacity:1;"
         offset="1"
         id="stop3419" />
    </linearGradient>
    <linearGradient
       id="linearGradient3392">
      <stop
         style="stop-color:#4a585b;stop-opacity:1;"
         offset="0"
         id="stop3394" />
      <stop
         style="stop-color:#5e7074;stop-opacity:1;"
         offset="1"
         id="stop3396" />
    </linearGradient>
    <linearGradient
       id="linearGradient2320">
      <stop
         id="stop2322"
         offset="0"
         style="stop-color:#6a3c1d;stop-opacity:1;" />
      <stop
         id="stop2324"
         offset="1"
         style="stop-color:#8f5127;stop-opacity:1;" />
    </linearGradient>
    <linearGradient
       id="linearGradient2338">
      <stop
         id="stop2340"
         offset="0"
         style="stop-color:#b1b1b1;stop-opacity:1;" />
      <stop
         id="stop2342"
         offset="1"
         style="stop-color:#e4e4e4;stop-opacity:1;" />
    </linearGradient>
    <linearGradient
       inkscape:collect="always"
       xlink:href="#linearGradient2338"
       id="linearGradient2369"
       x1="50.269558"
       y1="86.414474"
       x2="81.458702"
       y2="114.79048"
       gradientUnits="userSpaceOnUse" />
    <linearGradient
       inkscape:collect="always"
       xlink:href="#linearGradient2338"
       id="linearGradient2374"
       x1="52.960384"
       y1="78.953545"
       x2="71.062317"
       y2="89.716858"
       gradientUnits="userSpaceOnUse" />
    <linearGradient
       inkscape:collect="always"
       xlink:href="#linearGradient2338"
       id="linearGradient2378"
       x1="48.557217"
       y1="84.824448"
       x2="58.21973"
       y2="68.190239"
       gradientUnits="userSpaceOnUse" />
    <linearGradient
       inkscape:collect="always"
       xlink:href="#linearGradient2338"
       id="linearGradient2382"
       x1="60.788254"
       y1="70.697594"
       x2="60.910564"
       y2="80.482422"
       gradientUnits="userSpaceOnUse" />
    <linearGradient
       inkscape:collect="always"
       xlink:href="#linearGradient2320"
       id="linearGradient2969"
       x1="74.976257"
       y1="68.924095"
       x2="81.947945"
       y2="77.97506"
       gradientUnits="userSpaceOnUse" />
    <linearGradient
       id="linearGradient2888">
      <stop
         style="stop-color:#007dff;stop-opacity:1;"
         offset="0"
         id="stop2890" />
      <stop
         style="stop-color:#58abff;stop-opacity:1;"
         offset="1"
         id="stop2892" />
    </linearGradient>
    <linearGradient
       inkscape:collect="always"
       xlink:href="#linearGradient2320"
       id="linearGradient3179"
       x1="76.454056"
       y1="63.394596"
       x2="76.454056"
       y2="70.918915"
       gradientUnits="userSpaceOnUse" />
    <linearGradient
       inkscape:collect="always"
       xlink:href="#linearGradient2888"
       id="linearGradient3183"
       x1="76.281082"
       y1="63.783787"
       x2="81.037834"
       y2="67.027023"
       gradientUnits="userSpaceOnUse" />
    <linearGradient
       id="linearGradient3193">
      <stop
         id="stop3195"
         offset="0"
         style="stop-color:#c2a05c;stop-opacity:1;" />
      <stop
         id="stop3197"
         offset="1"
         style="stop-color:#d6be91;stop-opacity:1;" />
    </linearGradient>
    <linearGradient
       inkscape:collect="always"
       xlink:href="#linearGradient2320"
       id="linearGradient3382"
       x1="41.059177"
       y1="53.225559"
       x2="45.287495"
       y2="53.225559"
       gradientUnits="userSpaceOnUse" />
    <linearGradient
       inkscape:collect="always"
       xlink:href="#linearGradient2320"
       id="linearGradient3386"
       x1="84.232513"
       y1="55.395355"
       x2="88.68338"
       y2="55.395355"
       gradientUnits="userSpaceOnUse" />
    <linearGradient
       inkscape:collect="always"
       xlink:href="#linearGradient3392"
       id="linearGradient3398"
       x1="57.416088"
       y1="51.00013"
       x2="86.90303"
       y2="19.844112"
       gradientUnits="userSpaceOnUse" />
    <linearGradient
       inkscape:collect="always"
       xlink:href="#linearGradient2320"
       id="linearGradient3402"
       x1="35.161789"
       y1="37.480644"
       x2="49.293266"
       y2="47.940163"
       gradientUnits="userSpaceOnUse" />
    <linearGradient
       inkscape:collect="always"
       xlink:href="#linearGradient2320"
       id="linearGradient3408"
       x1="37.721031"
       y1="41.820232"
       x2="38.833748"
       y2="46.493633"
       gradientUnits="userSpaceOnUse" />
    <linearGradient
       inkscape:collect="always"
       xlink:href="#linearGradient3415"
       id="linearGradient3421"
       x1="54.625"
       y1="56.375"
       x2="55.625"
       y2="61.25"
       gradientUnits="userSpaceOnUse" />
    <linearGradient
       inkscape:collect="always"
       xlink:href="#linearGradient3415"
       id="linearGradient3425"
       x1="38.802483"
       y1="54.129436"
       x2="45.254837"
       y2="66.371223"
       gradientUnits="userSpaceOnUse" />
    <linearGradient
       inkscape:collect="always"
       xlink:href="#linearGradient3415"
       id="linearGradient3429"
       x1="47.508736"
       y1="66.481712"
       x2="49.143921"
       y2="60.780663"
       gradientUnits="userSpaceOnUse" />
    <linearGradient
       inkscape:collect="always"
       xlink:href="#linearGradient3415"
       id="linearGradient3433"
       x1="34.780815"
       y1="62.018101"
       x2="35.355339"
       y2="63.653282"
       gradientUnits="userSpaceOnUse" />
    <linearGradient
       inkscape:collect="always"
       xlink:href="#linearGradient2320"
       id="linearGradient3437"
       x1="39.818951"
       y1="59.167576"
       x2="42.33802"
       y2="63.321827"
       gradientUnits="userSpaceOnUse" />
    <linearGradient
       inkscape:collect="always"
       xlink:href="#linearGradient3193"
       id="linearGradient3441"
       x1="30.361397"
       y1="64.515068"
       x2="31.245279"
       y2="66.19445"
       gradientUnits="userSpaceOnUse" />
    <linearGradient
       inkscape:collect="always"
       xlink:href="#linearGradient3415"
       id="linearGradient3449"
       x1="39.111843"
       y1="59.278061"
       x2="40.923805"
       y2="61.112118"
       gradientUnits="userSpaceOnUse" />
    <filter
       inkscape:collect="always"
       id="filter3570"
       color-interpolation-filters="sRGB">
      <feGaussianBlur
         inkscape:collect="always"
         stdDeviation="1.6277848"
         id="feGaussianBlur3572" />
    </filter>
  </defs>
  <sodipodi:namedview
     id="base"
     pagecolor="#ffffff"
     bordercolor="#666666"
     borderopacity="1.0"
     gridtolerance="10000"
     guidetolerance="10"
     objecttolerance="10"
     inkscape:pageopacity="0.0"
     inkscape:pageshadow="2"
     inkscape:zoom="5.6568542"
     inkscape:cx="57.82995"
     inkscape:cy="58.497288"
     inkscape:document-units="px"
     inkscape:current-layer="layer2"
     showgrid="false"
     width="744.09px"
     inkscape:window-width="1392"
     inkscape:window-height="929"
     inkscape:window-x="1920"
     inkscape:window-y="0"
     fit-margin-top="5"
     fit-margin-left="0"
     fit-margin-right="19"
     fit-margin-bottom="0"
     inkscape:window-maximized="1" />
  <metadata
     id="metadata7">
    <rdf:RDF>
      <cc:Work
         rdf:about="">
        <dc:format>image/svg+xml</dc:format>
        <dc:type
           rdf:resource="http://purl.org/dc/dcmitype/StillImage" />
        <dc:title />
      </cc:Work>
    </rdf:RDF>
  </metadata>
  <g
     inkscape:groupmode="layer"
     id="layer2"
     inkscape:label="colors"
     transform="translate(-6.1700496,-13.125)">
    <path
       style="fill:#000000;fill-opacity:0.6849315;fill-rule:evenodd;stroke:none;filter:url(#filter3570)"
       d="m 59.827874,66.261461 c -14.059524,3.632103 -28.119047,7.264206 -42.17857,10.896311 6.868147,3.934009 13.736295,7.86802 20.604443,11.80203 10.093289,-2.944423 20.138644,-5.92431 30.26176,-8.846649 -10.06026,2.989904 -20.218473,5.908163 -30.238736,8.927254 -6.811006,-3.868985 -13.622012,-7.737969 -20.433017,-11.606953 -4.599043,2.749476 -3.677408,6.743221 -7.223009,9.764412 -1.640955,1.417154 0.701438,2.736891 3.418227,1.457196 4.193011,-0.458112 9.975325,-2.195709 7.171958,-4.683171 0.931877,0.611536 2.303091,3.894938 1.369368,5.556319 -1.381131,1.987876 0.7499,4.510437 -2.499449,6.065118 -2.653589,1.09665 0.64621,2.271052 1.998243,0.710401 6.707505,-0.569832 4.026604,3.730281 6.894658,5.374211 2.421695,2.26108 6.791813,3.26809 8.33417,5.79746 2.737077,2.79834 4.17846,3.77486 6.843084,6.57114 2.118107,1.80614 8.776122,2.8947 13.551189,4.47345 11.646828,0.70638 18.048533,-4.03245 26.261547,-7.73347 2.946553,-1.03762 7.186667,-2.50997 5.326136,-4.64455 -2.785968,-3.93341 0.353429,-4.81239 -2.368199,-8.758299 3.61116,-3.222472 -0.605167,-7.678838 -7.339147,-9.518788 -4.561099,-2.214943 -4.288302,-5.460218 -7.124496,-8.067296 -3.613122,-1.301669 4.852985,-1.315759 5.744812,-2.422411 4.660833,-2.041828 -3.558838,-4.105641 -6.361084,-5.622269 C 67.82665,69.927814 63.86445,68.075468 59.827874,66.261461 z M 28.412995,84.888093 c 1.882685,0.511112 6.83298,4.09717 2.132849,2.727956 -1.205062,-0.820108 -1.468877,-1.814501 -2.132849,-2.727956 z m 41.712777,-3.930826 c 0.946048,0.115807 -0.517533,0.527591 0,0 z m 0.535558,1.334829 c 0.487869,0.533917 -1.229872,0.685903 0,0 z m -0.722792,1.565174 c 0.03713,3.160706 -7.924327,2.590483 -12.172532,3.436507 -6.361428,1.437246 -11.869355,3.570254 -18.383912,4.876891 10.162431,-2.78919 20.370425,-5.542693 30.556444,-8.313398 z m -38.622429,5.0508 c 1.366206,0.171705 -0.352023,0.452443 0,0 z m 3.603307,-0.167155 0.620734,0.333648 -0.620734,-0.333648 z m -2.831729,0.685526 c 0.774205,0.404595 1.85902,1.502186 0.512591,0.439576 l -0.512591,-0.439576 z m 3.599822,1.170824 c 1.597422,0.689015 -0.290297,0.406538 0,0 z m 0.05304,2.233464 0.229048,0.381008 -0.229048,-0.381008 z m 49.09258,0.0092 c -0.729477,0.751039 -1.369616,0.838135 0,0 z m -4.627807,2.791387 c -0.964647,0.606961 -1.729301,0.480858 0,0 z M 37.18237,101.25377 c 2.314087,-0.0689 8.618523,0.39571 2.744645,0.30399 -0.927551,-0.0378 -1.863039,-0.12589 -2.744645,-0.30399 z m 10.987567,0.27798 c 2.052457,-0.27928 3.014326,0.1288 0,0 z m 35.133275,-2.323733 c -5.839816,2.696373 -13.781998,4.042093 -21.682886,4.941503 7.648189,-1.21694 15.477037,-2.45244 21.682886,-4.941503 z m -42.375884,5.772463 c 1.720738,0.0279 2.505498,0.25621 0,0 z m 8.195118,0.15588 c 1.432162,-0.18654 2.398733,0.14559 0,0 z"
       id="path3451"
       sodipodi:nodetypes="cccccccccccccccccccccccccccccccccccccccccccccccccccccccccccccccc"
       inkscape:connector-curvature="0" />
    <path
       style="fill:url(#linearGradient2369);fill-rule:evenodd;stroke:none"
       d="m 42.197075,110.265 -0.856173,-25.440558 5.748587,2.568518 6.72707,1.590034 15.533416,1.100794 10.02945,-1.467725 5.503966,-1.345414 7.216311,-4.036241 1e-6,1.590034 -0.611552,26.174418 -6.60476,3.18007 c -4.42914,2.73888 -9.19845,3.43673 -13.943381,4.28086 l -10.518691,-0.12231 -9.784829,-2.69083 -5.870897,-3.42469 -2.568518,-1.95696 z"
       id="path2367"
       sodipodi:nodetypes="cccccccccccccccc"
       inkscape:connector-curvature="0" />
    <path
       style="fill:url(#linearGradient2374);fill-opacity:1;fill-rule:evenodd;stroke:none"
       d="m 35.714626,71.370302 2.323897,3.18007 7.094001,4.892414 10.029449,2.568518 11.986416,0.611552 9.173277,-0.856173 8.439415,-2.201586 5.993208,-3.18007 2.323897,-2.079276 2.323897,-4.525483 0.366931,7.460932 -2.813139,5.503966 -4.525483,2.690828 -6.237829,2.446207 -13.821071,1.834656 -11.374863,-0.366931 -7.583243,-1.223104 -4.770104,-1.834656 -4.403173,-1.956965 -3.42469,-3.42469 -1.345414,-2.690828 0.244621,-6.849381 z"
       id="path2372"
       inkscape:connector-curvature="0" />
    <path
       style="fill:url(#linearGradient2378);fill-rule:evenodd;stroke:none"
       d="m 35.836936,67.456371 0,2.690828 1.590035,4.280862 4.892414,3.547001 10.763312,3.547 8.806346,1.100794 5.137035,0.12231 8.806347,-0.856173 5.870897,-1.223103 7.583242,-3.30238 4.525484,-3.669311 1.467724,-3.180069 -2.813138,-6.360139 -1.590035,-1.223104 c -4.131928,-0.751259 -5.192631,-3.998048 -8.868607,-4.961937 -3.57789,-0.93817 -8.791297,-1.840237 -15.348845,0.558765 l -16.634208,3.913931 -14.188003,5.014725 z"
       id="path2376"
       sodipodi:nodetypes="ccccccccccccccsccc"
       inkscape:connector-curvature="0" />
    <path
       style="fill:url(#linearGradient2382);fill-rule:evenodd;stroke:none"
       d="m 46.477938,70.024888 2.079276,-4.280862 3.669311,-2.201587 6.360138,-1.100793 7.827864,-0.611552 -0.122311,2.690828 2.446208,11.864105 -5.748587,0 -7.583243,-0.978483 -5.503966,-1.712345 -3.18007,-1.834655 -0.24462,-1.834656 z"
       id="path2380"
       inkscape:connector-curvature="0" />
    <path
       sodipodi:nodetypes="cccccccccccccccc"
       id="path2384"
       d="m 42.197075,110.265 -0.856173,-25.440558 5.748587,2.568518 6.72707,1.590034 15.533416,1.100794 10.02945,-1.467725 5.503966,-1.345414 7.216311,-4.036241 1e-6,1.590034 -0.611552,26.174418 -6.60476,3.18007 c -4.647794,2.65653 -9.295587,3.90452 -13.943381,4.28086 l -10.518691,-0.12231 -9.784829,-2.69083 -5.870897,-3.42469 -2.568518,-1.95696 z"
       style="fill:#000000;fill-opacity:0.15686275;fill-rule:evenodd;stroke:none"
       inkscape:connector-curvature="0" />
    <path
       id="path2386"
       d="m 35.714626,71.370302 2.323897,3.18007 7.094001,4.892414 10.029449,2.568518 11.986416,0.611552 9.173277,-0.856173 8.439415,-2.201586 5.993208,-3.18007 2.323897,-2.079276 2.323897,-4.525483 0.366931,7.460932 -2.813139,5.503966 -4.525483,2.690828 -6.237829,2.446207 -13.821071,1.834656 -11.374863,-0.366931 -7.583243,-1.223104 -4.770104,-1.834656 -4.403173,-1.956965 -3.42469,-3.42469 -1.345414,-2.690828 0.244621,-6.849381 z"
       style="fill:#000000;fill-opacity:0.15686275;fill-rule:evenodd;stroke:none"
       inkscape:connector-curvature="0" />
    <path
       id="path2388"
       d="m 46.477938,70.024888 2.079276,-4.280862 3.669311,-2.201587 6.360138,-1.100793 7.827864,-0.611552 -0.122311,2.690828 2.446208,11.864105 -5.748587,0 -7.583243,-0.978483 -5.503966,-1.712345 -3.18007,-1.834655 -0.24462,-1.834656 z"
       style="fill:#000000;fill-opacity:0.15686275;fill-rule:evenodd;stroke:none"
       inkscape:connector-curvature="0" />
    <path
       style="fill:url(#linearGradient2969);fill-rule:evenodd;stroke:none"
       d="m 68.860734,78.464303 -2.813138,-13.943381 2.079276,1.223104 3.791621,1.100793 3.057759,0.12231 5.870897,-0.24462 1.956966,-0.611552 3.42469,-1.467725 -1.712345,13.20952 -2.079276,0.856172 -6.604759,1.712345 -4.158553,-0.856172 -2.813138,-1.100794 z"
       id="path2967"
       inkscape:connector-curvature="0" />
    <path
       style="fill:url(#linearGradient3179);fill-rule:evenodd;stroke:none"
       d="m 66.681081,62.789189 4.583784,-2.162162 3.978378,-0.951351 3.45946,0.172973 5.362162,1.297297 2.421622,1.902703 0.07088,0.856746 -2.92493,1.997308 -2.854054,0.691892 -5.016216,0.518918 -6.659459,-0.951351 -2.594595,-1.383784 -0.08649,-1.124324 0.259459,-0.864865 z"
       id="path3177"
       sodipodi:nodetypes="cccccccccccccc"
       inkscape:connector-curvature="0" />
    <path
       style="fill:url(#linearGradient3183);fill-rule:evenodd;stroke:none"
       d="m 68.497297,65.643243 1.383784,-0.951351 3.027027,-1.47027 3.027027,-0.778379 2.767568,0.25946 1.643243,0.259459 1.902703,0.432433 3.2,1.47027 c -1.737028,1.097686 -3.469208,2.206682 -5.881081,1.72973 l -4.843244,0.432432 -3.624626,-0.322529 -2.602401,-1.061255 z"
       id="path3181"
       sodipodi:nodetypes="cccccccccccc"
       inkscape:connector-curvature="0" />
    <path
       style="fill:#1a1a1a;fill-rule:evenodd;stroke:none"
       d="m 66.091892,68.045212 4.642169,1.101532 7.395997,0.236042 4.72085,-0.786808 3.540637,-0.94417 0.236042,0.865489 -0.314723,1.180212 -3.540637,0.94417 -5.901062,0.865489 -7.395997,-0.472085 -3.068552,-0.786808 -0.629447,-0.393404 -0.314723,-0.94417 0.629446,-0.865489 z"
       id="path3376"
       sodipodi:nodetypes="cccccccccccccc"
       inkscape:connector-curvature="0" />
    <path
       style="fill:#1a1a1a;fill-rule:evenodd;stroke:none"
       d="m 67.429466,74.811763 3.068552,0.94417 3.225914,0.314723 3.383276,-0.07868 2.989871,-0.393404 4.091403,-0.865489 1.180212,0 -0.07868,1.494936 -1.494935,0.472085 -3.619318,0.786808 -2.281744,0.314723 -4.406126,0 -3.383276,-0.550766 -2.281744,-0.550765 -0.393404,-1.88834 z"
       id="path3378"
       sodipodi:nodetypes="ccccccccccccccc"
       inkscape:connector-curvature="0" />
    <path
       style="fill:url(#linearGradient3382);fill-rule:evenodd;stroke:none"
       d="M 39.390107,74.255871 40.280278,30.74872 46.177668,44.657655 46.400211,74.478414 44.619867,74.9235 42.61698,75.368586 40.39155,74.9235 39.390107,74.255871 z"
       id="path3380"
       sodipodi:nodetypes="cccccccc"
       inkscape:connector-curvature="0" />
    <path
       style="fill:url(#linearGradient3386);fill-rule:evenodd;stroke:none"
       d="m 83.00853,60.346935 0.333815,-5.674846 1.669072,-0.556357 1.780344,-2.447973 0.667629,-2.781787 -1.112715,-2.447973 3.894502,-0.890172 0,18.582339 -1.763344,0.984443 -2.753748,0.128272 0.700745,-1.302142 -0.745784,-1.81346 -2.22543,-1.223987 -0.445086,-0.556357 z"
       id="path3384"
       sodipodi:nodetypes="cccccccccccccc"
       inkscape:connector-curvature="0" />
    <path
       style="fill:url(#linearGradient3398);fill-opacity:1;fill-rule:evenodd;stroke:none"
       d="M 52.631414,55.673532 41.281722,28.634561 87.348118,18.508855 101.03451,42.432225 52.631414,55.673532 z"
       id="path3388"
       inkscape:connector-curvature="0" />
    <path
       style="fill:url(#linearGradient3402);fill-rule:evenodd;stroke:none"
       d="m 25.369899,50.22123 14.687837,-21.030312 1.223986,0 11.349692,26.705157 -2.114158,0.723265 -10.014434,-25.314263 -12.907493,18.582338 -2.22543,0.333815 z"
       id="path3400"
       sodipodi:nodetypes="cccccccc"
       inkscape:connector-curvature="0" />
    <path
       style="fill:url(#linearGradient3408);fill-rule:evenodd;stroke:none"
       d="M 27.817872,49.553601 40.39155,31.193805 39.723921,47.661985 27.817872,49.553601 z"
       id="path3406"
       inkscape:connector-curvature="0" />
    <path
       id="path3410"
       d="M 27.817872,49.553601 40.39155,31.193805 39.723921,47.661985 27.817872,49.553601 z"
       style="fill:#000000;fill-opacity:0.15686275;fill-rule:evenodd;stroke:none"
       inkscape:connector-curvature="0" />
    <path
       sodipodi:nodetypes="cccccccc"
       id="path3404"
       d="m 25.369899,50.22123 14.687837,-21.030312 1.223986,0 11.349692,26.705157 -2.002887,0.556358 -10.125705,-25.147356 -12.907493,18.582338 -2.22543,0.333815 z"
       style="fill:#000000;fill-opacity:0.15686275;fill-rule:evenodd;stroke:none"
       inkscape:connector-curvature="0" />
    <path
       style="fill:url(#linearGradient3421);fill-opacity:1;fill-rule:evenodd;stroke:none"
       d="m 86.840357,46.357833 0.366931,1.223104 0.183466,2.690828 -2.079276,3.547 -35.836936,8.622881 -0.06116,-3.42469 -1.161948,-4.83126 1.345414,0.06116 0.917328,2.446207 2.568517,-1.039638 32.045315,-8.806346 1.712345,-0.489242 z"
       id="path3413"
       inkscape:connector-curvature="0" />
    <path
       style="fill:url(#linearGradient3425);fill-rule:evenodd;stroke:none"
       d="m 40.260892,50.17406 1.458408,-0.04419 2.695845,1.502601 2.165514,3.314563 0.574525,2.121321 0.751301,4.02167 -0.353554,3.623922 -1.856155,4.331029 -3.005204,2.165515 -1.414214,0.53033 c 0,0 -1.546796,-0.220971 -1.944543,-0.397748 -0.397748,-0.176777 -3.933282,-5.568466 -3.933282,-5.568466 l -0.53033,-5.08233 c 0,0 0.397748,-3.889087 0.53033,-4.375223 0.132583,-0.486136 1.988738,-3.844893 1.988738,-3.844893 l 2.872621,-2.298097 z"
       id="path3423"
       sodipodi:nodetypes="ccccccccccsccscc"
       inkscape:connector-curvature="0" />
    <path
       style="fill:url(#linearGradient3429);fill-rule:evenodd;stroke:none"
       d="m 40.747028,49.953089 1.546796,-0.04419 2.077127,0.53033 1.900349,1.281631 1.90035,2.563262 0.883883,2.607456 0.441942,4.242641 -0.662913,4.463611 -1.900349,3.270369 c 0,0 -1.016466,1.414214 -1.193243,1.546796 -0.176777,0.132583 -1.281631,0.618719 -1.281631,0.618719 l -1.149049,0.441942 -1.811961,0.176776 c 0,0 0.751301,-0.397747 1.325826,-0.574524 0.574524,-0.176777 2.209708,-1.679379 2.209708,-1.679379 l 1.856156,-3.093592 0.883883,-2.65165 0,-2.342291 -0.353553,-3.712311 -1.149049,-3.668117 -1.59099,-2.12132 -1.723573,-1.104854 -1.723573,-0.53033 -0.486136,-0.220971 z"
       id="path3427"
       inkscape:connector-curvature="0" />
    <path
       style="fill:url(#linearGradient3433);fill-opacity:1;fill-rule:evenodd;stroke:none"
       d="m 32.482718,63.078758 4.331029,-1.944543 1.767767,-1.06066 0.751301,2.253903 c 0,0 -1.502602,0.176776 -1.944544,0.441941 -0.441942,0.265165 -3.137786,1.811961 -3.137786,1.811961 l -1.016466,0.751301 0.04419,-1.281631 -0.795495,-0.972272 z"
       id="path3431"
       inkscape:connector-curvature="0" />
    <path
       style="fill:url(#linearGradient3437);fill-rule:evenodd;stroke:none"
       d="m 38.272155,62.813593 0.751301,1.811962 1.370019,0.972271 1.016466,0.220971 0.751301,-0.309359 0.662913,-0.839689 0.707106,-2.386486 -0.08839,-3.137786 -0.839689,-1.856155 -1.635185,-1.06066 -1.016466,0 -1.370019,0.795495 -0.662913,1.281631 -0.220971,2.253903 1.281631,-0.574525 0.132583,2.342292 -0.839689,0.486135 z"
       id="path3435"
       inkscape:connector-curvature="0" />
    <path
       style="fill:url(#linearGradient3441);fill-rule:evenodd;stroke:none"
       d="m 28.505242,64.669749 3.889087,-1.37002 1.016466,0.618719 -0.353553,1.546796 -3.226175,2.12132 -1.06066,-1.370019 -0.265165,-1.546796 z"
       id="path3439"
       inkscape:connector-curvature="0" />
    <path
       style="fill:#000000;fill-opacity:0.15686275;fill-rule:evenodd;stroke:none"
       d="m 28.505242,64.713943 1.414214,0.441942 0.220971,0.441941 0.22097,1.149049 -0.397747,0.751301 -1.149049,-1.414214 -0.353553,-0.883883 0.04419,-0.486136 z"
       id="path3443"
       inkscape:connector-curvature="0" />
    <path
       style="fill:#000000;fill-opacity:0.15686275;fill-rule:evenodd;stroke:none"
       d="m 40.702834,56.361244 1.193243,1.635184 0.839689,1.458408 0.220971,0.795495 -0.132582,2.386486 -1.635185,2.430679 -0.53033,0.618719 1.016466,0.04419 0.883883,-0.707107 0.751301,-1.811961 0.132583,-1.988738 0.08839,-1.370019 -0.707106,-2.077126 -0.751301,-0.972272 -1.37002,-0.441942 z"
       id="path3445"
       inkscape:connector-curvature="0" />
    <path
       style="fill:url(#linearGradient3449);fill-rule:evenodd;stroke:none"
       d="m 39.111844,59.631613 0.220971,2.695845 1.281631,-0.30936 1.016466,-0.751301 0.220971,-0.883883 -0.707107,-1.104854 -1.149049,0.04419 -0.883883,0.309359 z"
       id="path3447"
       inkscape:connector-curvature="0" />
  </g>
  <g
     inkscape:label="outline"
     inkscape:groupmode="layer"
     id="layer1"
     transform="translate(-6.1700496,-13.125)">
    <path
       style="fill:#000000;fill-opacity:1;stroke:none"
       d="M 87.25,18.125 39.75,28.8125 24.875,50.5 39.59375,48.0625 39.5625,50.125 c -3.88185,2.175242 -4.832852,6.663743 -5.03125,10.8125 0,0.372697 0.03281,0.732452 0.0625,1.09375 -0.815716,0.366268 -1.63632,0.695002 -2.46875,1.03125 L 28.25,64.625 c -0.40375,1.369768 1.045934,2.289263 1.5625,3.25 l 3.53125,-2.21875 c 0.03399,-0.122434 0.06644,-0.229421 0.09375,-0.34375 0.480216,-0.302554 0.955576,-0.605743 1.4375,-0.875 0.201742,0.992671 0.486021,1.928313 0.84375,2.78125 -0.6837,1.332399 -0.615215,2.67977 -0.40625,4.09375 -0.01458,1.878632 0.199718,3.77448 0,5.90625 0.135067,3.725793 2.978781,6.007178 5.84375,7.875 l 1.03125,25.5 c 9.119155,7.0427 17.392367,8.80034 28.59375,8.125 9.248938,-1.15571 16.014339,-4.65902 21.0625,-7.46875 l 0.5625,-27.875 C 94.384851,81.82268 95.57849,79.72371 95.8125,77.21875 95.7951,74.735999 95.67605,72.252747 95.625,69.78125 95.510632,66.314438 92.951297,64.072548 90.3125,62.25 L 90.1875,45.6875 101.59375,42.5 87.25,18.125 z M 86.9375,19.0625 100.59375,42.09375 52.65625,55.5 42.21875,29.28125 86.9375,19.0625 z m -11.0625,3.5 -0.28125,0.0625 1.28125,2.15625 -2.9375,0.625 L 73.90625,25.6875 77,24.96875 l 2.125,3.59375 0.21875,0.03125 -2.125,-3.6875 8.09375,-1.875 -0.15625,0 -8.03125,1.6875 -1.25,-2.15625 z M 63.90625,26.28125 63.4375,26.375 c 0.102948,0.223054 0.769402,1.592504 1.15625,2.40625 L 46,33.15625 44.78125,30.125 44.34375,30 l 1.3125,3.21875 -0.78125,0.1875 0.21875,0.25 L 45.75,33.5 l 7.78125,19.21875 0.375,0 L 46.125,33.40625 64.71875,29.0625 c 0.958744,2.015361 1.542171,3.228884 2.6875,5.625 l -5.46875,1.28125 0.21875,0.25 5.375,-1.28125 c 0.845209,1.768104 2.03125,4.28125 2.03125,4.28125 l 0.34375,0.0625 c 10e-7,-10e-7 -1.177612,-2.558196 -2.03125,-4.40625 l 19.34375,-4.5625 4.90625,9.21875 -6.21875,1.8125 0.3125,0.1875 6.0625,-1.71875 0.96875,1.8125 0.25,0.03125 -1,-1.90625 3.34375,-0.96875 -0.1875,-0.25 -3.28125,0.9375 -4.84375,-9.21875 4.34375,-1.03125 -0.25,-0.1875 -4.21875,1 -1.8125,-3.46875 -0.375,0.03125 1.875,3.5 L 67.75,34.625 c -1.126013,-2.437726 -1.670381,-3.657024 -2.59375,-5.65625 l 3.46875,-0.8125 -0.25,-0.25 -3.34375,0.78125 c -0.370835,-0.802924 -1.030027,-2.200475 -1.125,-2.40625 z m -23.71875,3.1875 1.03125,0.03125 10.875,26.40625 -1.28125,0.5 L 40.71875,30.25 C 40.341045,30.094218 40.58504,30.412302 40.25,30.15625 l -12.96875,19.40625 -1.375,0.40625 14.28125,-20.5 z m 0.25,2.21875 5.28125,12.625 -0.1875,6.625 C 44.165245,50.019612 42.451248,49.583609 40.375,49.875 l 0.0625,0.0625 c -0.08138,-1.88e-4 -0.170296,-0.03524 -0.25,-0.03125 l 0.25,-18.21875 z M 39.90625,32.34375 39.625,47 28.375,49.25 39.90625,32.34375 z m 45.8125,2.25 -10.28125,2.46875 -0.84375,-1.90625 -0.375,-0.03125 0.90625,2.03125 -1.59375,0.375 0.3125,0.1875 1.375,-0.34375 2.65625,5.875 -16.46875,4.03125 -4.84375,-11.96875 -0.375,-0.09375 5,12.125 -3.375,0.8125 0.375,0.0625 3.0625,-0.75 1.3125,3.21875 0.28125,0.09375 -1.375,-3.375 16.46875,-4 1.40625,3.125 0.25,0.03125 -1.40625,-3.21875 3.15625,-0.78125 -0.15625,-0.125 -3.0625,0.75 -2.59375,-5.875 10.25,-2.53125 -0.0625,-0.1875 z m -47.4375,3.875 -4.34375,7.0625 -2,-0.03125 -0.4375,0.40625 2.25,-0.03125 -0.40625,0.625 0.34375,0.21875 0.5,-0.875 3.9375,-0.0625 -0.15625,0.375 L 38,46.25 l 0.21875,-0.46875 0.75,0 0.25,-0.21875 -0.875,0 0.78125,-1.59375 -0.25,-0.125 L 38.21875,45.5625 34.375,45.53125 38.34375,38.5 38.28125,38.46875 z m 51.15625,7.3125 0.40625,18.0625 c -1.137799,0.957196 -2.519852,1.305322 -3.25,1.25 C 87.124082,63.498533 86.38426,62.5798 85.375,61.5 85.123632,60.610546 84.523796,59.758087 83.71875,59 L 83.75,54.84375 85.5,54.40625 c 1.978643,-2.421879 2.682527,-4.949487 1.65625,-7.875 l 2.28125,-0.75 z m -43.125,0.625 2.9375,7.53125 -1,0.21875 C 47.757037,53.177402 47.131117,52.323463 46.375,51.625 L 46.3125,46.40625 z M 86.5,46.8125 c 1.328597,2.428748 0.08387,4.855229 -1.46875,6.6875 L 82.5,54.125 81.65625,48.0625 86.5,46.8125 z m -5.46875,1.5625 0.9375,5.78125 L 78.71875,55 77.3125,49.21875 81.03125,48.375 z m -4.25,1.0625 L 78.25,55.125 75.59375,56 74.3125,50.125 76.78125,49.4375 z m -35.0625,0.65625 c 10.320061,-0.0034 8.96979,21.193229 0.65625,21.4375 2.369545,-0.721594 4.348094,-2.755865 5.3125,-6.40625 0.798305,-3.009808 0.279077,-6.351065 -0.5625,-9.65625 -0.772647,-2.988496 -3.167915,-4.837214 -5.40625,-5.375 z m -0.4375,0.1875 c 1.533288,-5e-6 3.030732,1.473523 4.125,3.3125 1.094268,1.838976 2.25,4.723921 2.25,7.59375 -0.146693,4.308985 -1.714407,9.096504 -6.28125,10.34375 -3.549958,-0.699449 -5.041923,-4.104392 -5.71875,-7.5 0.749968,-0.389384 1.499304,-0.747416 2.28125,-1.0625 0.66822,2.089933 1.393307,2.674117 2.78125,2.875 1.865493,0.407625 2.480751,-1.322259 3,-4.71875 0.11775,-3.246105 -1.690023,-5.459121 -3.90625,-5.09375 l 0,0.03125 c -0.02123,-6.96e-4 -0.04104,1.03e-4 -0.0625,0 -0.919852,0.46055 -1.486109,0.949611 -2.03125,1.78125 -0.307925,0.648106 -0.316726,1.775823 -0.1875,2.65625 -0.726684,0.446103 -1.484556,0.855014 -2.25,1.21875 -0.03286,-0.328547 -0.06907,-0.661297 -0.09375,-0.96875 0.05921,-4.385063 1.536149,-9.23934 6.09375,-10.46875 z m 32.53125,0 0.96875,5.6875 -1.90625,0.46875 -1.3125,-5.53125 2.25,-0.625 z m -2.875,0.875 1.375,5.59375 -2.625,0.5625 -1.15625,-5.5625 2.40625,-0.59375 z m -2.90625,0.875 1.03125,5.4375 L 66.375,58 l -0.90625,-5.40625 2.5625,-0.5625 z m -3.1875,0.84375 1.125,5.34375 -1.8125,0.3125 -1.71875,-5.09375 2.40625,-0.5625 z m -2.8125,0.5 1.46875,5.5 -2.4375,0.40625 -0.40625,-5.34375 1.375,-0.5625 z m -1.875,0.71875 0.28125,5.4375 -2.15625,0.40625 -0.75,-5.125 2.625,-0.71875 z M 49.625,54.875 l 0.75,1.9375 2.71875,-0.75 0.25,5.09375 L 51.625,61.5625 49,55.03125 49.625,54.875 z m 33.125,0.1875 -0.03125,3.125 c -0.575727,-0.386844 -1.199683,-0.714067 -1.875,-0.9375 -1.205463,-0.398836 -2.564715,-0.657762 -3.9375,-0.78125 L 82.75,55.0625 z M 56.90625,55.125 57.65625,60 54,61.09375 53.625,55.96875 56.90625,55.125 z m -17,1.28125 c 1.351662,0.02312 2.414756,2.406452 2.875,4.0625 0.273697,1.94113 -0.752639,3.710018 -2.21875,4.875 -1.323545,-0.206889 -1.58046,-1.464603 -2.03125,-2.59375 0.218424,-0.08183 0.433596,-0.173426 0.65625,-0.25 l 1.90625,-0.40625 c 1.173017,-0.991882 0.850271,-1.499661 0.75,-2.15625 -0.447917,-0.964622 -0.895833,-0.669742 -1.34375,-1 l -1.4375,0.5 c -0.316962,0.242597 -0.639484,0.469511 -0.96875,0.6875 -0.115937,-0.661594 -0.075,-1.325782 0.15625,-1.8125 0.228805,-0.481579 0.506275,-1.530752 1.65625,-1.90625 z m 1.1875,0.125 c 1.552744,0.486952 2.248455,2.261136 2.34375,4.28125 -0.206131,2.254925 -0.469537,4.707836 -2.34375,4.75 1.634855,-1.229697 1.957233,-2.90406 2,-5.125 -0.228437,-1.175011 -0.839168,-3.041567 -2,-3.90625 z M 76,57.03125 c 0.839333,-0.03619 2.198177,0.166182 4.875,0.65625 0.619261,0.113373 1.858447,0.652306 1.9375,1.53125 -1.743204,-0.481734 -5.97697,-1.554403 -7.9375,-1.875 0.308327,-0.183631 0.6214,-0.290789 1.125,-0.3125 z m -26.625,0.4375 1.6875,4.25 -1.4375,0.34375 c 0.115193,-1.535765 0.04582,-3.111026 -0.25,-4.59375 z m 21.5625,0.375 c 0.148345,-0.01356 0.277353,-0.0074 0.40625,0 4.208275,0.363021 8.045642,1.122074 11.375,2.15625 l 0,0.4375 C 80.928953,59.937619 78.701943,59.625 76.25,59.625 c -3.072942,-0.0018 -6.954089,0.966652 -9.71875,2.34375 0.03638,-0.700637 0.537445,-2.116305 0.96875,-2.625 0.939023,-0.806033 2.399086,-1.405057 3.4375,-1.5 z m -3.53125,0.9375 c -0.937577,0.679244 -1.338841,2.351543 -1.625,2.84375 -4.141327,10e-7 -7.978623,0.449603 -11.21875,1.21875 l -0.625,-1.03125 13.46875,-3.03125 z m -26.9375,0.53125 c 1.389444,0.469472 1.808956,1.561317 0.0625,2.375 l -0.9375,0.1875 -0.21875,-2.0625 1.09375,-0.5 z m 43.25,0.125 c 0.266325,0.278429 1.090175,1.622307 1.25,1.90625 -0.200174,-0.08733 -1.028443,-0.513941 -1.25,-0.59375 l 0,-1.3125 z m -7.5,0.625 c 3.100548,0.261882 8.485781,0.696299 10.28125,3.53125 -0.262747,0.414679 -0.626011,0.752149 -1.03125,1.0625 -2.968209,-1.329449 -6.100145,-2.410551 -8.875,-2.28125 -2.787419,0.129887 -5.652822,1.432049 -8.1875,3.15625 -0.04002,-0.01544 -0.08506,-0.01552 -0.125,-0.03125 -1.112197,-0.24712 -1.811229,-1.5524 -1.34375,-2.5625 2.604793,-1.665226 6.271111,-2.796621 9.28125,-2.875 z M 38.4375,60.46875 38.625,62.125 c -2.085545,0.729271 -3.501628,1.809665 -5.125,2.84375 0.102272,-0.624867 0.0077,-1.140991 -0.59375,-1.6875 2.087593,-0.839367 4.046067,-1.213062 5.53125,-2.8125 z m 15.375,1.375 0.59375,1.03125 c -1.103217,0.267005 -2.150668,0.566255 -3.09375,0.90625 -0.765689,0.276041 -1.434976,0.581556 -2.0625,0.90625 0.148626,-0.622087 0.236575,-1.254809 0.3125,-1.90625 l 4.25,-0.9375 z m 12.25,0.34375 -0.5625,1.65625 0.75,3.75 c -0.976738,0.454323 -1.009737,1.298062 -0.71875,1.96875 l -0.0625,-0.09375 c -2.224376,-0.172613 -3.695254,-0.117822 -5.4375,0.03125 -1.947259,0.166614 -3.60171,0.529668 -4.96875,1 l -0.28125,-7.25 c 3.6844,-0.826099 7.545987,-0.961746 11.28125,-1.0625 z m 10.5625,0.5 c 2.813747,-0.08711 5.722526,0.686087 8.5,2.25 -2.412194,1.549255 -6.50652,1.73946 -9,1.96875 -2.583601,-0.02186 -5.110264,-0.395291 -7.5,-1.28125 2.424142,-1.882385 5.154563,-2.849407 8,-2.9375 z m -22.125,0.65625 0.3125,7.25 c -2.098697,0.766859 -3.498986,1.815388 -4.25,2.96875 -1.235278,-0.525439 -2.238878,-1.096985 -2.96875,-1.71875 -0.342856,-0.292073 -0.594572,-0.605063 -0.8125,-0.90625 -0.124616,-0.349107 -0.185746,-0.693908 -0.21875,-1.03125 1.064755,-1.072893 1.850919,-2.552403 2.375,-4.21875 0.722832,-0.564922 1.576818,-1.122114 2.625,-1.5 0.957474,-0.346692 1.946256,-0.611198 2.9375,-0.84375 z m 35.8125,0.09375 c 2.402854,1.514543 3.794476,3.587384 4.3125,6.34375 3e-6,1.267902 -0.49002,2.503997 -1.40625,3.6875 L 86.25,69.71875 C 87.201084,69.227384 86.565329,66.931917 86.21875,67.5 L 86.5,65.65625 c 2.821764,-0.0794 3.685525,-0.898184 3.8125,-2.21875 z m -57.875,0.09375 c 0.835985,0.438535 0.40473,1.009989 0.53125,1.625 C 30.810488,66.724456 30.744613,66.758727 30.375,67 30.28152,67.06102 30.245217,67.0946 30.0625,67.21875 29.237635,66.607219 28.724022,65.678943 28.625,64.8125 l 3.8125,-1.28125 z M 30.375,67 c 0.607963,-0.666171 0.229856,-2.285854 -1,-1.96875 l -0.0625,0 c 0.490775,0.168715 1.13174,1.189194 0.84375,1.90625 L 30.375,67 z m 36.4375,-1.75 c 0.566118,0.430205 1.28915,0.790557 2.1875,1.09375 1.888099,0.637235 4.440206,1.03125 7.25,1.03125 3.220446,0.01235 6.44979,-0.437317 9.28125,-2 l -0.375,2.34375 c -0.467246,0.09091 -1.750926,0.511672 -2.21875,0.59375 l 0.125,-0.875 -0.28125,-0.03125 -0.0625,0.90625 c -1.153342,0.184718 -2.542094,0.416279 -3.6875,0.53125 l -0.0625,-0.625 -0.1875,0 -0.03125,0.625 c -1.121738,0.09002 -2.712639,0.24731 -3.8125,0.25 -0.02116,-0.279079 0.09987,-0.888105 0.0625,-1.0625 l -0.25,0 c 0.01314,0.0613 -0.08212,0.901829 -0.0625,1.09375 C 73.52534,69.09633 71.620834,68.869642 70.5,68.71875 l -0.125,-1.0625 -0.3125,-0.03125 0.15625,1.09375 c -0.718214,-0.125382 -2.180557,-0.595394 -2.875,-0.78125 L 66.8125,65.25 z m 19.5625,2.6875 c 0.03382,0.383842 0.251455,0.854539 -0.28125,1.375 C 79.412675,72.130038 73.0416,71.363681 66.5,70.125 c -1.274574,-0.554641 -0.747361,-1.584518 -0.3125,-1.9375 5.340533,2.606832 16.392205,1.265716 20.1875,-0.25 z m -50.0625,0.53125 c 0.733716,1.469249 1.570319,2.117707 2.90625,2.96875 l -0.125,3.09375 c 0.509013,0.210078 0.875741,0.449746 1.25,0.65625 l -1.09375,0 c -1.899915,-1.668517 -3.166188,-3.836621 -2.9375,-6.71875 z m 26.3125,1.1875 c 0.553092,-0.0037 1.128613,0.0066 1.71875,0.03125 l 0.03125,6.40625 c -4.934258,-0.126039 -9.37726,-0.89164 -12.625,-2.0625 -0.380646,-0.137228 -0.74642,-0.291693 -1.09375,-0.4375 l 0.0625,0 c 1.098444,-1.775095 5.094656,-3.89143 11.90625,-3.9375 z m 1.96875,0.0625 c 0.349088,0.0169 0.700702,0.035 1.0625,0.0625 0.340798,0.589971 0.897305,0.976871 1.1875,0.6875 l 0.84375,4.34375 c -0.25179,0.187369 -0.556715,0.09922 -0.15625,1.1875 -0.331873,0.0085 -1.411511,0.125 -1.75,0.125 -0.412478,0 -0.812525,-0.02226 -1.21875,-0.03125 l 0.03125,-6.375 z m 21.1875,0.125 7.28125,3.8125 c -0.196194,0.239248 -0.39233,0.48381 -0.625,0.71875 -4.458075,3.96497 -10.207866,5.995785 -16.125,7.0625 L 75.4375,80.5 c 3.509687,0.111389 6.77183,-0.781312 9,-2.46875 l 0.15625,-0.125 0.03125,-0.21875 0.1875,-1.28125 c 0.807329,0.378171 1.109287,-2.247305 0.25,-1.9375 l 0.71875,-4.625 z m -39.6875,0.5 0,3.96875 C 44.255446,74.787462 42.019953,76.157946 39.75,74.15625 L 39.71875,71.8125 c 0.697241,0.046 1.371403,0.01095 2.03125,-0.125 1.715088,0.159997 3.169024,-0.360309 4.34375,-1.34375 z m 38.59375,0.46875 -0.59375,3.75 c -0.328829,0.06557 -1.086008,0.221238 -1.40625,0.28125 l 0.28125,-3.625 C 83.383234,71.124 84.271523,70.915665 84.6875,70.8125 z m -2.09375,0.5 -0.25,3.5625 c -0.983724,0.16888 -2.297086,0.397034 -3.21875,0.5 l -0.09375,-3.4375 c 1.045955,-0.149414 2.501898,-0.401732 3.5625,-0.625 z m 12.5625,0.03125 c -0.105307,1.417448 -0.05069,4.420124 0.1875,5.6875 -0.239151,1.016487 -0.597722,1.93002 -1.0625,2.78125 l -0.4375,-5.75 c 0.515979,-0.961553 1.03696,-2.22672 1.3125,-2.71875 z m -27.09375,0.0625 c 0.617735,0.184154 1.743319,0.314238 2.375,0.4375 l 0.4375,3.625 c -0.554204,-0.121014 -1.650839,-0.460963 -2.21875,-0.625 l -0.59375,-3.4375 z m 2.65625,0.46875 c 1.016826,0.147222 2.76635,0.327812 3.8125,0.34375 0.01559,1.083867 0.0182,2.541985 0.0625,3.625 -0.918064,-0.05366 -2.543774,-0.08841 -3.46875,-0.25 L 70.71875,71.875 z m 8.03125,0.0625 0.09375,3.46875 c -1.052381,0.08876 -2.923424,0.520862 -3.9375,0.5 -0.02199,-1.083329 -0.100886,-2.572963 -0.125,-3.65625 1.050603,-0.02178 2.895878,-0.186569 3.96875,-0.3125 z m -32.125,0.34375 c 0.07422,0.07216 0.139879,0.151561 0.21875,0.21875 1.089899,0.928464 2.599083,1.732207 4.46875,2.40625 2.227881,0.803185 4.950311,1.418112 7.96875,1.78125 l -3.96875,4.84375 0.03125,0.03125 c -4.105323,-0.784619 -7.792323,-1.959401 -10.8125,-3.25 -1.730564,-0.735037 -3.448826,-1.633153 -4.875,-2.78125 l 1.6875,0.0625 c 0.965172,0.279373 2.302463,0.200657 5.3125,-0.875 L 46.625,72.28125 z m -10.4375,1.0625 c 0.58327,0.894997 1.281521,1.656928 2.0625,2.34375 l -0.34375,5.40625 c -0.747975,-1.124365 -1.315742,-2.395747 -1.59375,-3.875 0.130843,-1.262877 -0.0011,-2.588891 -0.125,-3.875 z m 57.375,1.21875 0.5,5.65625 C 90.927192,85.428564 83.738383,87.530259 76.78125,88.5 l -0.25,-6.40625 c 6.107288,-0.93358 12.051073,-2.846479 16.625,-7 0.122126,-0.123318 0.267789,-0.306734 0.40625,-0.53125 z M 85,74.75 c 0.604824,0.09629 0.307883,0.926341 0,1.4375 -6.51725,1.822235 -12.267193,2.204353 -17.25,0.0625 L 67.53125,75.1875 C 73.459784,77.378989 78.975204,76.225035 85,74.75 z m -46.4375,1.21875 c 1.655444,1.369015 3.64074,2.381485 5.59375,3.28125 3.091715,1.321167 6.843984,2.326569 11,2.96875 l -0.1875,6.375 C 48.406678,87.795709 41.534779,86.047986 38.1875,81.5 l 0.375,-5.53125 z m 20.96875,0.75 c 1.974466,0.227156 4.07012,0.34375 6.25,0.34375 0.442184,0 1.535624,-0.05173 1.96875,-0.0625 0.222609,0.356693 0.131458,0.148945 0.53125,0.28125 L 68.5,78.71875 68.5625,79 l 0.25,0.09375 c 1.993603,0.798798 4.041473,1.248667 6.03125,1.375 l 1.28125,1 c -3.64216,0.643372 -7.343512,0.941154 -10.84375,1.0625 -3.388973,0 -6.614063,-0.349143 -9.625,-0.90625 l 3.875,-4.90625 z m 24.15625,0.34375 0.09375,0.40625 c -3.192207,2.321122 -9.102753,3.03539 -14.40625,1 l -0.09375,-1.0625 c 1.689321,0.416153 3.825021,0.816273 5.4375,0.84375 0.0051,0.08795 -0.03125,0.625 -0.03125,0.625 L 75,78.96875 c 0,0 -0.03039,-0.753255 -0.03125,-0.78125 2.711782,-0.06549 5.693258,-0.299556 8.71875,-1.125 z m -7.375,5.0625 0.03125,6.46875 C 72.389092,89.118432 68.533102,89.281763 65.5625,89.4375 62.779701,89.208477 59.081931,89.076849 55.25,88.625 l 0.3125,-6.34375 C 58.643191,82.735657 61.932722,83 65.375,83 c 3.5336,-0.129136 7.259772,-0.32709 10.9375,-0.875 z m 15.78125,1.28125 -0.25,8.9375 c -2.342111,1.107671 -4.687162,2.03846 -7.03125,2.8125 l -0.90625,-7.5 c 2.875046,-1.036634 5.637522,-2.413392 8.1875,-4.25 z m -50.375,2.0625 c 2.083107,1.084738 4.256501,1.900011 6.46875,2.5625 l -0.28125,6.75 c -2.000902,-0.665776 -3.998081,-1.394751 -5.96875,-2.25 l -0.21875,-7.0625 z m 41.875,2.3125 L 84.5,95.25 C 78.750361,97.113407 73.005879,97.983009 67.3125,98 l 0,-7.625 c 5.555675,-0.129839 11.115761,-0.783462 16.28125,-2.59375 z M 48.5,88.125 c 5.510591,1.603953 11.320426,2.116695 17.0625,2.3125 C 66.042273,90.436 66.519716,90.41566 67,90.40625 l -0.0625,7.625 C 60.611522,98.008013 54.349496,96.882727 48.21875,94.875 L 48.5,88.125 z m 43.34375,4.46875 -0.3125,11.34375 c -4.824541,2.03544 -9.665098,3.65525 -14.5,4.65625 L 76.5,97.5625 c 5.067653,-0.898545 10.185742,-2.534799 15.34375,-4.96875 z M 41.9375,92.875 c 4.318103,1.877504 8.675759,3.315171 13.0625,4.25 l -0.0625,11.0625 C 50.675683,107.00945 46.446325,105.12963 42.25,102.375 l -0.3125,-9.5 z m 13.4375,4.3125 c 6.857471,1.416517 13.784351,1.642354 20.8125,0.4375 l 0.53125,11.03125 c -7.181127,1.44737 -14.369223,1.52753 -21.46875,-0.375 L 55.375,97.1875 z m -13.125,5.375 c 1.805223,1.18667 3.605658,2.20992 5.40625,3.09375 l -0.03125,7.875 c -1.684899,-0.94615 -3.392804,-2.02505 -5.125,-3.3125 l -0.25,-7.65625 z m 49.28125,1.59375 -0.1875,6.5 c -1.592587,0.88125 -3.376692,1.82643 -5.3125,2.75 l -0.5,-6.96875 c 1.990011,-0.69124 3.997796,-1.43581 6,-2.28125 z m -43.5,1.6875 c 6.048914,2.9009 12.08159,4.15676 18.125,4.1875 l 0.0625,8.28125 c -5.889683,0.10394 -11.929154,-1.09681 -18.28125,-4.59375 l 0.09375,-7.875 z m 37.25,0.6875 0.5,7 c -4.094177,1.93181 -8.974797,3.72367 -14.9375,4.46875 -1.410276,0.17622 -2.824903,0.27405 -4.25,0.3125 l -0.0625,-8.28125 c 6.222849,-0.0208 12.456313,-1.33586 18.75,-3.5 z"
       id="path2308"
       inkscape:connector-curvature="0" />
  </g>
</svg>
