<?xml version="1.0" encoding="UTF-8" standalone="no"?>
<!-- Created with Inkscape (http://www.inkscape.org/) -->

<svg
   xmlns:dc="http://purl.org/dc/elements/1.1/"
   xmlns:cc="http://creativecommons.org/ns#"
   xmlns:rdf="http://www.w3.org/1999/02/22-rdf-syntax-ns#"
   xmlns:svg="http://www.w3.org/2000/svg"
   xmlns="http://www.w3.org/2000/svg"
   xmlns:xlink="http://www.w3.org/1999/xlink"
   xmlns:sodipodi="http://sodipodi.sourceforge.net/DTD/sodipodi-0.dtd"
   xmlns:inkscape="http://www.inkscape.org/namespaces/inkscape"
   width="131.50009"
   height="117.8125"
   id="svg2"
   sodipodi:version="0.32"
   inkscape:version="0.48.1 r9760"
   version="1.0"
   sodipodi:docname="nicubunu_RPG_map_symbols_Townhall_modified.svg"
   inkscape:output_extension="org.inkscape.output.svg.inkscape">
  <defs
     id="defs4">
    <linearGradient
       id="linearGradient2338">
      <stop
         style="stop-color:#b1b1b1;stop-opacity:1;"
         offset="0"
         id="stop2340" />
      <stop
         style="stop-color:#e4e4e4;stop-opacity:1;"
         offset="1"
         id="stop2342" />
    </linearGradient>
    <linearGradient
       id="linearGradient2320">
      <stop
         style="stop-color:#6a3c1d;stop-opacity:1;"
         offset="0"
         id="stop2322" />
      <stop
         style="stop-color:#8f5127;stop-opacity:1;"
         offset="1"
         id="stop2324" />
    </linearGradient>
    <linearGradient
       id="linearGradient3193">
      <stop
         id="stop3195"
         offset="0"
         style="stop-color:#c2a05c;stop-opacity:1;" />
      <stop
         id="stop3197"
         offset="1"
         style="stop-color:#d6be91;stop-opacity:1;" />
    </linearGradient>
    <linearGradient
       inkscape:collect="always"
       xlink:href="#linearGradient2338"
       id="linearGradient2503"
       x1="19.545946"
       y1="93.924324"
       x2="38.659458"
       y2="112.77838"
       gradientUnits="userSpaceOnUse"
       gradientTransform="translate(2.2486486,0.172973)" />
    <linearGradient
       inkscape:collect="always"
       xlink:href="#linearGradient2338"
       id="linearGradient2507"
       x1="58.983784"
       y1="116.15135"
       x2="72.908112"
       y2="91.935135"
       gradientUnits="userSpaceOnUse"
       gradientTransform="translate(2.2486486,0.172973)" />
    <linearGradient
       inkscape:collect="always"
       xlink:href="#linearGradient2338"
       id="linearGradient2511"
       x1="18.594595"
       y1="59.848648"
       x2="50.508106"
       y2="102.31351"
       gradientUnits="userSpaceOnUse"
       gradientTransform="translate(2.2486486,0.172973)" />
    <linearGradient
       inkscape:collect="always"
       xlink:href="#linearGradient2338"
       id="linearGradient2517"
       x1="32.951351"
       y1="31.394594"
       x2="52.929729"
       y2="60.972973"
       gradientUnits="userSpaceOnUse"
       gradientTransform="translate(2.2486486,0.172973)" />
    <linearGradient
       inkscape:collect="always"
       xlink:href="#linearGradient2338"
       id="linearGradient2521"
       x1="59.935135"
       y1="103.43784"
       x2="103.00541"
       y2="70.918922"
       gradientUnits="userSpaceOnUse"
       gradientTransform="translate(2.2486486,0.172973)" />
    <linearGradient
       inkscape:collect="always"
       xlink:href="#linearGradient2338"
       id="linearGradient2525"
       x1="64"
       y1="122.37838"
       x2="88.648651"
       y2="105.34054"
       gradientUnits="userSpaceOnUse"
       gradientTransform="translate(2.2486486,0.172973)" />
    <linearGradient
       inkscape:collect="always"
       xlink:href="#linearGradient2338"
       id="linearGradient2529"
       x1="103.78379"
       y1="110.7027"
       x2="116.4973"
       y2="98.075676"
       gradientUnits="userSpaceOnUse"
       gradientTransform="translate(2.2486486,0.172973)" />
    <linearGradient
       inkscape:collect="always"
       xlink:href="#linearGradient2338"
       id="linearGradient2533"
       x1="61.606678"
       y1="61.973904"
       x2="86.620583"
       y2="40.23037"
       gradientUnits="userSpaceOnUse"
       gradientTransform="translate(2.2486486,0.172973)" />
    <linearGradient
       inkscape:collect="always"
       xlink:href="#linearGradient2338"
       id="linearGradient2537"
       x1="98.84375"
       y1="102.75"
       x2="104.84375"
       y2="112.8125"
       gradientUnits="userSpaceOnUse"
       gradientTransform="translate(2.2486486,0.172973)" />
    <linearGradient
       inkscape:collect="always"
       xlink:href="#linearGradient2338"
       id="linearGradient2541"
       x1="82.53125"
       y1="106.25"
       x2="82.125"
       y2="104.84375"
       gradientUnits="userSpaceOnUse"
       gradientTransform="translate(2.2486486,0.172973)" />
    <linearGradient
       inkscape:collect="always"
       xlink:href="#linearGradient2338"
       id="linearGradient2545"
       gradientUnits="userSpaceOnUse"
       x1="82.53125"
       y1="106.25"
       x2="82.125"
       y2="104.84375"
       gradientTransform="translate(3.8423986,2.922973)" />
    <linearGradient
       inkscape:collect="always"
       xlink:href="#linearGradient2338"
       id="linearGradient2549"
       gradientUnits="userSpaceOnUse"
       gradientTransform="translate(5.2798986,5.047973)"
       x1="82.53125"
       y1="106.25"
       x2="82.125"
       y2="104.84375" />
    <linearGradient
       inkscape:collect="always"
       xlink:href="#linearGradient2338"
       id="linearGradient2553"
       gradientUnits="userSpaceOnUse"
       gradientTransform="translate(6.6861486,7.297973)"
       x1="82.53125"
       y1="106.25"
       x2="82.125"
       y2="104.84375" />
    <linearGradient
       inkscape:collect="always"
       xlink:href="#linearGradient2338"
       id="linearGradient2557"
       gradientUnits="userSpaceOnUse"
       gradientTransform="translate(8.1861486,9.391723)"
       x1="82.53125"
       y1="106.25"
       x2="82.125"
       y2="104.84375" />
    <linearGradient
       inkscape:collect="always"
       xlink:href="#linearGradient2338"
       id="linearGradient2561"
       x1="83.34375"
       y1="107.53125"
       x2="83.03125"
       y2="106.59375"
       gradientUnits="userSpaceOnUse"
       gradientTransform="translate(2.2486486,0.172973)" />
    <linearGradient
       inkscape:collect="always"
       xlink:href="#linearGradient2338"
       id="linearGradient2565"
       gradientUnits="userSpaceOnUse"
       x1="83.34375"
       y1="107.53125"
       x2="83.03125"
       y2="106.59375"
       gradientTransform="translate(3.4986486,2.610473)" />
    <linearGradient
       inkscape:collect="always"
       xlink:href="#linearGradient2338"
       id="linearGradient2569"
       gradientUnits="userSpaceOnUse"
       gradientTransform="translate(4.9361486,5.110473)"
       x1="83.34375"
       y1="107.53125"
       x2="83.03125"
       y2="106.59375" />
    <linearGradient
       inkscape:collect="always"
       xlink:href="#linearGradient2338"
       id="linearGradient2573"
       gradientUnits="userSpaceOnUse"
       gradientTransform="translate(6.3423986,6.954223)"
       x1="83.34375"
       y1="107.53125"
       x2="83.03125"
       y2="106.59375" />
    <linearGradient
       id="linearGradient3462">
      <stop
         style="stop-color:#4f0000;stop-opacity:1;"
         offset="0"
         id="stop3464" />
      <stop
         style="stop-color:#610000;stop-opacity:1;"
         offset="1"
         id="stop3466" />
    </linearGradient>
    <linearGradient
       id="linearGradient2404">
      <stop
         id="stop2406"
         offset="0"
         style="stop-color:#b49900;stop-opacity:1;" />
      <stop
         style="stop-color:#ffda0a;stop-opacity:1;"
         offset="0.5"
         id="stop2412" />
      <stop
         id="stop2408"
         offset="1"
         style="stop-color:#c6a800;stop-opacity:1;" />
    </linearGradient>
    <linearGradient
       id="linearGradient3098">
      <stop
         id="stop3100"
         offset="0"
         style="stop-color:#9e2612;stop-opacity:1;" />
      <stop
         id="stop3102"
         offset="1"
         style="stop-color:#bd5032;stop-opacity:1;" />
    </linearGradient>
    <linearGradient
       id="linearGradient3108">
      <stop
         id="stop3110"
         offset="0"
         style="stop-color:#c223c2;stop-opacity:1;" />
      <stop
         id="stop3112"
         offset="1"
         style="stop-color:#ff00dc;stop-opacity:1;" />
    </linearGradient>
    <linearGradient
       inkscape:collect="always"
       xlink:href="#linearGradient3462"
       id="linearGradient3106"
       x1="84.0578"
       y1="103.38504"
       x2="87.971725"
       y2="97.850494"
       gradientUnits="userSpaceOnUse"
       gradientTransform="translate(2.2486486,0.172973)" />
    <linearGradient
       inkscape:collect="always"
       xlink:href="#linearGradient3462"
       id="linearGradient3110"
       x1="86.442848"
       y1="105.15854"
       x2="86.504005"
       y2="103.41562"
       gradientUnits="userSpaceOnUse"
       gradientTransform="translate(2.2486486,0.172973)" />
    <linearGradient
       inkscape:collect="always"
       xlink:href="#linearGradient3462"
       id="linearGradient3115"
       gradientUnits="userSpaceOnUse"
       x1="86.442848"
       y1="105.15854"
       x2="86.473427"
       y2="104.08833"
       gradientTransform="translate(4.0221489,2.8943786)" />
    <linearGradient
       inkscape:collect="always"
       xlink:href="#linearGradient3462"
       id="linearGradient3119"
       gradientUnits="userSpaceOnUse"
       gradientTransform="translate(5.3981405,5.0653875)"
       x1="86.442848"
       y1="105.15854"
       x2="86.473427"
       y2="103.84371" />
    <linearGradient
       inkscape:collect="always"
       xlink:href="#linearGradient3462"
       id="linearGradient3123"
       gradientUnits="userSpaceOnUse"
       gradientTransform="translate(6.9575976,7.1752412)"
       x1="86.442848"
       y1="105.15854"
       x2="86.381699"
       y2="103.96602" />
    <linearGradient
       inkscape:collect="always"
       xlink:href="#linearGradient3462"
       id="linearGradient3127"
       gradientUnits="userSpaceOnUse"
       gradientTransform="translate(8.5476323,9.4074053)"
       x1="86.442848"
       y1="105.15854"
       x2="86.473427"
       y2="103.85899" />
    <linearGradient
       inkscape:collect="always"
       xlink:href="#linearGradient3462"
       id="linearGradient3131"
       x1="86.809776"
       y1="106.04529"
       x2="88.002304"
       y2="104.18005"
       gradientUnits="userSpaceOnUse"
       gradientTransform="translate(2.2486486,0.172973)" />
    <linearGradient
       inkscape:collect="always"
       xlink:href="#linearGradient3462"
       id="linearGradient3135"
       gradientUnits="userSpaceOnUse"
       x1="86.809776"
       y1="106.04529"
       x2="88.002304"
       y2="104.18005"
       gradientTransform="translate(3.6552178,2.710913)" />
    <linearGradient
       inkscape:collect="always"
       xlink:href="#linearGradient3462"
       id="linearGradient3139"
       gradientUnits="userSpaceOnUse"
       gradientTransform="translate(5.1229421,4.9124995)"
       x1="86.809776"
       y1="106.04529"
       x2="88.002304"
       y2="104.18005" />
    <linearGradient
       inkscape:collect="always"
       xlink:href="#linearGradient3462"
       id="linearGradient3143"
       gradientUnits="userSpaceOnUse"
       gradientTransform="translate(6.5295113,7.114086)"
       x1="86.809776"
       y1="106.04529"
       x2="88.002304"
       y2="104.18005" />
    <linearGradient
       inkscape:collect="always"
       xlink:href="#linearGradient2404"
       id="linearGradient3147"
       x1="73.141357"
       y1="101.04156"
       x2="93.824226"
       y2="81.286758"
       gradientUnits="userSpaceOnUse"
       gradientTransform="translate(2.2486486,0.172973)" />
    <linearGradient
       inkscape:collect="always"
       xlink:href="#linearGradient2404"
       id="linearGradient3730"
       x1="75.395264"
       y1="99.538948"
       x2="82.952461"
       y2="93.395958"
       gradientUnits="userSpaceOnUse"
       gradientTransform="translate(2.2486486,0.172973)" />
    <linearGradient
       inkscape:collect="always"
       xlink:href="#linearGradient2404"
       id="linearGradient3734"
       x1="86.046059"
       y1="87.031998"
       x2="92.365822"
       y2="93.705322"
       gradientUnits="userSpaceOnUse"
       gradientTransform="translate(2.2486486,0.172973)" />
    <linearGradient
       inkscape:collect="always"
       xlink:href="#linearGradient2320"
       id="linearGradient3738"
       x1="106.28699"
       y1="83.496468"
       x2="105.93343"
       y2="84.048897"
       gradientUnits="userSpaceOnUse"
       gradientTransform="translate(2.2486486,0.172973)" />
    <linearGradient
       inkscape:collect="always"
       xlink:href="#linearGradient3193"
       id="linearGradient3742"
       x1="104.6518"
       y1="85.021164"
       x2="111.10415"
       y2="93.727417"
       gradientUnits="userSpaceOnUse"
       gradientTransform="translate(2.2486486,0.172973)" />
    <linearGradient
       inkscape:collect="always"
       xlink:href="#linearGradient2338"
       id="linearGradient3750"
       x1="18.031221"
       y1="67.63076"
       x2="21.566757"
       y2="80.889008"
       gradientUnits="userSpaceOnUse"
       gradientTransform="translate(2.2486486,0.172973)" />
    <linearGradient
       inkscape:collect="always"
       xlink:href="#linearGradient2338"
       id="linearGradient3758"
       gradientUnits="userSpaceOnUse"
       x1="18.031221"
       y1="67.63076"
       x2="21.566757"
       y2="80.889008"
       gradientTransform="translate(14.667212,8.2163127)" />
    <linearGradient
       inkscape:collect="always"
       xlink:href="#linearGradient2338"
       id="linearGradient3764"
       gradientUnits="userSpaceOnUse"
       gradientTransform="translate(27.174163,16.348041)"
       x1="18.031221"
       y1="67.63076"
       x2="21.566757"
       y2="80.889008" />
    <linearGradient
       inkscape:collect="always"
       xlink:href="#linearGradient2338"
       id="linearGradient3770"
       gradientUnits="userSpaceOnUse"
       gradientTransform="translate(20.279872,-31.514249)"
       x1="18.031221"
       y1="67.63076"
       x2="21.566757"
       y2="80.889008" />
    <linearGradient
       inkscape:collect="always"
       xlink:href="#linearGradient2338"
       id="linearGradient3776"
       gradientUnits="userSpaceOnUse"
       gradientTransform="translate(32.079716,-23.647686)"
       x1="18.031221"
       y1="67.63076"
       x2="21.566757"
       y2="80.889008" />
    <linearGradient
       inkscape:collect="always"
       xlink:href="#linearGradient2338"
       id="linearGradient3782"
       gradientUnits="userSpaceOnUse"
       gradientTransform="translate(50.110939,-17.681473)"
       x1="22.450642"
       y1="65.38076"
       x2="16.351845"
       y2="76.513786" />
    <linearGradient
       inkscape:collect="always"
       xlink:href="#linearGradient2338"
       id="linearGradient3788"
       gradientUnits="userSpaceOnUse"
       gradientTransform="translate(65.711482,-22.63122)"
       x1="22.450642"
       y1="65.38076"
       x2="16.351845"
       y2="75.764008" />
    <linearGradient
       inkscape:collect="always"
       xlink:href="#linearGradient3098"
       id="linearGradient3792"
       x1="39.8125"
       y1="47.5625"
       x2="51.375"
       y2="79.25"
       gradientUnits="userSpaceOnUse"
       gradientTransform="translate(2.2486486,0.172973)" />
    <linearGradient
       inkscape:collect="always"
       xlink:href="#linearGradient3098"
       id="linearGradient3796"
       x1="68.25"
       y1="73.625"
       x2="96.25"
       y2="61.5"
       gradientUnits="userSpaceOnUse"
       gradientTransform="translate(2.2486486,0.172973)" />
    <linearGradient
       inkscape:collect="always"
       xlink:href="#linearGradient3098"
       id="linearGradient3806"
       x1="92.125"
       y1="56.875"
       x2="94.4375"
       y2="39.9375"
       gradientUnits="userSpaceOnUse"
       gradientTransform="translate(2.2486486,0.172973)" />
    <linearGradient
       inkscape:collect="always"
       xlink:href="#linearGradient3098"
       id="linearGradient3810"
       x1="71.1875"
       y1="34.8125"
       x2="86.75"
       y2="23.1875"
       gradientUnits="userSpaceOnUse"
       gradientTransform="translate(2.2486486,0.172973)" />
    <linearGradient
       inkscape:collect="always"
       xlink:href="#linearGradient3098"
       id="linearGradient3814"
       x1="49"
       y1="16.5625"
       x2="66.5625"
       y2="42.625"
       gradientUnits="userSpaceOnUse"
       gradientTransform="translate(2.2486486,0.172973)" />
    <linearGradient
       inkscape:collect="always"
       xlink:href="#linearGradient3098"
       id="linearGradient3818"
       x1="66.875"
       y1="23.5625"
       x2="67.4375"
       y2="12.8125"
       gradientUnits="userSpaceOnUse"
       gradientTransform="translate(2.2486486,0.172973)" />
    <linearGradient
       inkscape:collect="always"
       xlink:href="#linearGradient3108"
       id="linearGradient3822"
       x1="73.625"
       y1="19.375"
       x2="75.375"
       y2="17.3125"
       gradientUnits="userSpaceOnUse"
       gradientTransform="translate(2.2486486,0.172973)" />
    <linearGradient
       inkscape:collect="always"
       xlink:href="#linearGradient2320"
       id="linearGradient3824"
       x1="17.589281"
       y1="68.304176"
       x2="19.401241"
       y2="77.471748"
       gradientUnits="userSpaceOnUse"
       gradientTransform="translate(2.2486486,0.172973)" />
    <linearGradient
       inkscape:collect="always"
       xlink:href="#linearGradient2320"
       id="linearGradient3826"
       x1="30.007845"
       y1="77.385361"
       x2="33.631767"
       y2="85.515091"
       gradientUnits="userSpaceOnUse"
       gradientTransform="translate(2.2486486,0.172973)" />
    <linearGradient
       inkscape:collect="always"
       xlink:href="#linearGradient2320"
       id="linearGradient3828"
       x1="42.514793"
       y1="86.208977"
       x2="46.138718"
       y2="93.300873"
       gradientUnits="userSpaceOnUse"
       gradientTransform="translate(2.2486486,0.172973)" />
    <linearGradient
       inkscape:collect="always"
       xlink:href="#linearGradient2320"
       id="linearGradient3830"
       x1="80.963722"
       y1="49.03352"
       x2="84.587646"
       y2="43.844334"
       gradientUnits="userSpaceOnUse"
       gradientTransform="translate(2.2486486,0.172973)" />
    <linearGradient
       inkscape:collect="always"
       xlink:href="#linearGradient2320"
       id="linearGradient3832"
       x1="65.363182"
       y1="52.945431"
       x2="68.987106"
       y2="46.891376"
       gradientUnits="userSpaceOnUse"
       gradientTransform="translate(2.2486486,0.172973)" />
    <linearGradient
       inkscape:collect="always"
       xlink:href="#linearGradient2320"
       id="linearGradient3834"
       x1="47.420349"
       y1="44.489677"
       x2="51.04427"
       y2="51.58157"
       gradientUnits="userSpaceOnUse"
       gradientTransform="translate(2.2486486,0.172973)" />
    <linearGradient
       inkscape:collect="always"
       xlink:href="#linearGradient2320"
       id="linearGradient3836"
       x1="35.620502"
       y1="36.623116"
       x2="39.244427"
       y2="43.887981"
       gradientUnits="userSpaceOnUse"
       gradientTransform="translate(2.2486486,0.172973)" />
    <linearGradient
       id="linearGradient3903">
      <stop
         style="stop-color:#b49900;stop-opacity:1;"
         offset="0"
         id="stop3905" />
      <stop
         id="stop3907"
         offset="0.5"
         style="stop-color:#ffda0a;stop-opacity:1;" />
      <stop
         style="stop-color:#c6a800;stop-opacity:1;"
         offset="1"
         id="stop3909" />
    </linearGradient>
    <linearGradient
       id="linearGradient3893">
      <stop
         id="stop3132"
         offset="0"
         style="stop-color:#8dbbdc;stop-opacity:1;" />
      <stop
         id="stop3134"
         offset="1"
         style="stop-color:#dadada;stop-opacity:1;" />
    </linearGradient>
    <linearGradient
       inkscape:collect="always"
       xlink:href="#linearGradient3893"
       id="linearGradient3953"
       x1="63.595421"
       y1="91.385124"
       x2="66.46804"
       y2="92.710953"
       gradientUnits="userSpaceOnUse"
       gradientTransform="translate(2.2486486,0.172973)" />
    <linearGradient
       inkscape:collect="always"
       xlink:href="#linearGradient3893"
       id="linearGradient3961"
       x1="65.451569"
       y1="91.020523"
       x2="64.214134"
       y2="93.274429"
       gradientUnits="userSpaceOnUse"
       gradientTransform="translate(2.2486486,0.172973)" />
    <linearGradient
       inkscape:collect="always"
       xlink:href="#linearGradient3903"
       id="linearGradient3969"
       x1="86.074211"
       y1="109.42846"
       x2="91"
       y2="107.21875"
       gradientUnits="userSpaceOnUse"
       gradientTransform="translate(2.2486486,0.172973)" />
    <linearGradient
       inkscape:collect="always"
       xlink:href="#linearGradient3903"
       id="linearGradient3973"
       gradientUnits="userSpaceOnUse"
       x1="86.074211"
       y1="109.42846"
       x2="91"
       y2="107.21875"
       gradientTransform="translate(9.8279494,-2.4786774)" />
    <filter
       inkscape:collect="always"
       id="filter3997"
       color-interpolation-filters="sRGB">
      <feGaussianBlur
         inkscape:collect="always"
         stdDeviation="1.7712433"
         id="feGaussianBlur3999" />
    </filter>
  </defs>
  <sodipodi:namedview
     id="base"
     pagecolor="#ffffff"
     bordercolor="#666666"
     borderopacity="1.0"
     gridtolerance="10000"
     guidetolerance="10"
     objecttolerance="10"
     inkscape:pageopacity="0.0"
     inkscape:pageshadow="2"
     inkscape:zoom="1"
     inkscape:cx="63.407741"
     inkscape:cy="62.110461"
     inkscape:document-units="px"
     inkscape:current-layer="layer2"
     showgrid="false"
     width="744.09px"
     inkscape:window-width="1282"
     inkscape:window-height="929"
     inkscape:window-x="1920"
     inkscape:window-y="0"
     showguides="true"
     inkscape:guide-bbox="true"
     inkscape:window-maximized="0"
     fit-margin-top="5"
     fit-margin-left="0"
     fit-margin-right="5"
     fit-margin-bottom="0" />
  <metadata
     id="metadata7">
    <rdf:RDF>
      <cc:Work
         rdf:about="">
        <dc:format>image/svg+xml</dc:format>
        <dc:type
           rdf:resource="http://purl.org/dc/dcmitype/StillImage" />
        <dc:title />
      </cc:Work>
    </rdf:RDF>
  </metadata>
  <g
     inkscape:groupmode="layer"
     id="layer2"
     inkscape:label="colors"
     transform="translate(-0.5922592,-8.297973)">
    <path
       style="fill:#000000;fill-opacity:0.66666667;fill-rule:evenodd;stroke:none;filter:url(#filter3997)"
       d="M 55.178378,119.6973 C 54.313514,119.00541 5.1891892,89.772973 5.1891892,89.772973 l -0.345946,-4.67027 6.3999998,-0.691892 -5.3621619,-16.25946 5.7081079,-10.897297 -1.9027025,-8.648649 5.5351355,-8.302702 12.454054,-1.037838 6.4,4.67027 67.459464,48.605406 -46.356762,27.156759 z"
       id="path3975"
       inkscape:connector-curvature="0" />
    <path
       style="fill:url(#linearGradient2503);fill-opacity:1;fill-rule:evenodd;stroke:none"
       d="M 7.0918918,82.767568 7.0054054,88.648649 62.443244,125.83783 62.270271,119.69729 7.0918918,82.767568 z"
       id="path2501"
       inkscape:connector-curvature="0" />
    <path
       style="fill:url(#linearGradient2507);fill-opacity:1;fill-rule:evenodd;stroke:none"
       d="M 7.0918918,82.594595 62.270271,119.87027 87.264865,110.87567 81.470271,105.6 98.767568,99.372973 104.73514,104.82162 126.52973,97.037838 110.7027,86.054054 14.78919,79.913514 7.0918918,82.594595 z"
       id="path2505"
       inkscape:connector-curvature="0" />
    <path
       style="fill:url(#linearGradient2511);fill-opacity:1;fill-rule:evenodd;stroke:none"
       d="M 15.221622,54.832432 15.048649,81.816216 56.12973,108.97297 56.216217,81.124324 15.221622,54.832432 z"
       id="path2509"
       inkscape:connector-curvature="0" />
    <path
       style="fill:url(#linearGradient2517);fill-opacity:1;fill-rule:evenodd;stroke:none"
       d="M 32,24.648649 31.481081,44.540541 61.145946,65.124324 61.232433,43.675676 32,24.648649 z"
       id="path2515"
       inkscape:connector-curvature="0" />
    <path
       style="fill:url(#linearGradient2521);fill-opacity:1;fill-rule:evenodd;stroke:none"
       d="m 56.302703,108.88648 -0.08649,-27.935129 54.832437,-18.94054 0.0865,27.675676 -54.832431,19.199993 z"
       id="path2519"
       sodipodi:nodetypes="ccccc"
       inkscape:connector-curvature="0" />
    <path
       style="fill:url(#linearGradient2525);fill-opacity:1;fill-rule:evenodd;stroke:none"
       d="m 62.356757,119.69729 24.908108,-8.9081 0,6.05405 -24.908108,9.08108 0,-6.22703 z"
       id="path2523"
       inkscape:connector-curvature="0" />
    <path
       style="fill:url(#linearGradient2529);fill-opacity:1;fill-rule:evenodd;stroke:none"
       d="m 104.73514,110.87567 0,-6.05405 21.96756,-8.043242 0.25946,0.691892 -0.0865,5.62162 -22.14054,7.78378 z"
       id="path2527"
       inkscape:connector-curvature="0" />
    <path
       style="fill:url(#linearGradient2533);fill-opacity:1;fill-rule:evenodd;stroke:none"
       d="m 60.850124,64.975304 0.441941,-21.301592 31.02431,-10.253048 0.972272,20.152543 -14.495689,1.414214 -17.942834,9.987883 z"
       id="path2531"
       inkscape:connector-curvature="0" />
    <path
       style="fill:url(#linearGradient2537);fill-opacity:1;fill-rule:evenodd;stroke:none"
       d="m 98.717399,99.297973 -0.03125,2.531247 1.625001,1.03125 -0.0625,1.75 1.4375,0.75 -0.0312,1.46875 1.5625,1.15625 0.0625,0.875 1.4375,0.96875 -0.0625,-5.125 -5.937501,-5.406247 z"
       id="path2535"
       inkscape:connector-curvature="0" />
    <path
       style="fill:url(#linearGradient2541);fill-opacity:1;fill-rule:evenodd;stroke:none"
       d="m 81.592399,105.64172 17.15625,-6.281247 0,2.374997 -15.46875,5.5625 -1.6875,-1.65625 z"
       id="path2539"
       inkscape:connector-curvature="0" />
    <path
       id="path2543"
       d="m 84.748649,108.36047 15.562501,-5.625 0.0312,1.75 -14.531251,5.25 -1.0625,-1.375 z"
       style="fill:url(#linearGradient2545);fill-opacity:1;fill-rule:evenodd;stroke:none"
       sodipodi:nodetypes="ccccc"
       inkscape:connector-curvature="0" />
    <path
       style="fill:url(#linearGradient2549);fill-opacity:1;fill-rule:evenodd;stroke:none"
       d="m 86.936149,110.61047 14.718751,-5.25 0,1.40625 -14.687501,5.125 -0.03125,-1.28125 z"
       id="path2547"
       sodipodi:nodetypes="ccccc"
       inkscape:connector-curvature="0" />
    <path
       id="path2551"
       d="m 87.279899,113.26672 15.875001,-5.5625 0.0312,1.15625 -15.968751,5.46875 0.0625,-1.0625 z"
       style="fill:url(#linearGradient2553);fill-opacity:1;fill-rule:evenodd;stroke:none"
       sodipodi:nodetypes="ccccc"
       inkscape:connector-curvature="0" />
    <path
       style="fill:url(#linearGradient2557);fill-opacity:1;fill-rule:evenodd;stroke:none"
       d="m 87.186149,115.73547 17.437501,-6.0625 0.0625,1.28125 -17.250001,6.21875 -0.25,-1.4375 z"
       id="path2555"
       sodipodi:nodetypes="ccccc"
       inkscape:connector-curvature="0" />
    <path
       style="fill:url(#linearGradient2561);fill-opacity:1;fill-rule:evenodd;stroke:none"
       d="m 83.342399,107.17297 15.375,-5.4375 1.593751,1.09375 -15.843751,5.625 -1.125,-1.28125 z"
       id="path2559"
       inkscape:connector-curvature="0" />
    <path
       id="path2563"
       d="m 85.998649,109.70422 14.187501,-5.09375 1.375,0.65625 -14.625001,5.375 -0.9375,-0.9375 z"
       style="fill:url(#linearGradient2565);fill-opacity:1;fill-rule:evenodd;stroke:none"
       sodipodi:nodetypes="ccccc"
       inkscape:connector-curvature="0" />
    <path
       style="fill:url(#linearGradient2569);fill-opacity:1;fill-rule:evenodd;stroke:none"
       d="m 87.123649,111.82922 14.406251,-5.0625 1.46875,1 -15.843751,5.625 -0.03125,-1.5625 z"
       id="path2567"
       sodipodi:nodetypes="ccccc"
       inkscape:connector-curvature="0" />
    <path
       id="path2571"
       d="m 87.373649,114.29797 15.843751,-5.5 1.1875,0.8125 -17.125001,6.09375 0.09375,-1.40625 z"
       style="fill:url(#linearGradient2573);fill-opacity:1;fill-rule:evenodd;stroke:none"
       sodipodi:nodetypes="ccccc"
       inkscape:connector-curvature="0" />
    <path
       style="fill:url(#linearGradient3106);fill-opacity:1;fill-rule:evenodd;stroke:none"
       d="m 80.466126,100.56141 4.494906,3.547 -0.06116,0.21404 10.243493,-3.66931 -4.708949,-3.79162 -9.968294,3.69989 z"
       id="path3104"
       inkscape:connector-curvature="0" />
    <path
       style="fill:url(#linearGradient3110);fill-rule:evenodd;stroke:none"
       d="m 84.961032,104.35303 0.305775,2.14043 10.304648,-3.63873 -0.275198,-2.17101 -10.335225,3.66931 z"
       id="path3108"
       inkscape:connector-curvature="0" />
    <path
       id="path3112"
       d="m 86.734532,107.59426 0.305775,1.62061 10.304648,-3.63873 -0.214043,-1.65119 c -3.505832,1.2231 -7.115428,2.44621 -10.39638,3.66931 z"
       style="fill:url(#linearGradient3115);fill-rule:evenodd;stroke:none"
       sodipodi:nodetypes="ccccc"
       inkscape:connector-curvature="0" />
    <path
       style="fill:url(#linearGradient3119);fill-rule:evenodd;stroke:none"
       d="m 88.23797,110.07104 0.178329,1.31484 10.304648,-3.63873 0,-1.31484 -10.482977,3.63873 z"
       id="path3117"
       sodipodi:nodetypes="ccccc"
       inkscape:connector-curvature="0" />
    <path
       id="path3121"
       d="m 89.792291,112.33378 0.183465,1.16195 10.304644,-3.63873 -0.18346,-1.07022 -10.304649,3.547 z"
       style="fill:url(#linearGradient3123);fill-rule:evenodd;stroke:none"
       sodipodi:nodetypes="ccccc"
       inkscape:connector-curvature="0" />
    <path
       style="fill:url(#linearGradient3127);fill-rule:evenodd;stroke:none"
       d="m 91.504637,114.26017 0.06115,1.46772 10.304653,-3.63873 c -0.07,-0.31209 0.0701,-0.58955 0.0729,-0.97446 l -0.34814,-0.3098 -10.090607,3.45527 z"
       id="path3125"
       sodipodi:nodetypes="cccccc"
       inkscape:connector-curvature="0" />
    <path
       style="fill:url(#linearGradient3131);fill-opacity:1;fill-rule:evenodd;stroke:none"
       d="m 86.826265,107.47194 -1.375992,-1.07021 10.090605,-3.57758 1.559457,1.19252 -10.27407,3.45527 z"
       id="path3129"
       inkscape:connector-curvature="0" />
    <path
       id="path3133"
       d="m 88.232834,110.00988 -1.039639,-0.73386 9.876562,-3.57758 1.437147,0.85617 -10.27407,3.45527 z"
       style="fill:url(#linearGradient3135);fill-opacity:1;fill-rule:evenodd;stroke:none"
       sodipodi:nodetypes="ccccc"
       inkscape:connector-curvature="0" />
    <path
       style="fill:url(#linearGradient3139);fill-opacity:1;fill-rule:evenodd;stroke:none"
       d="m 89.884024,112.33378 -1.375992,-1.00905 10.121182,-3.51643 1.345414,0.9479 -10.090604,3.57758 z"
       id="path3137"
       sodipodi:nodetypes="ccccc"
       inkscape:connector-curvature="0" />
    <path
       id="path3141"
       d="m 91.412903,114.38248 -1.498302,-0.91732 10.243489,-3.42469 1.40657,0.82559 -10.151757,3.51642 z"
       style="fill:url(#linearGradient3143);fill-opacity:1;fill-rule:evenodd;stroke:none"
       sodipodi:nodetypes="ccccc"
       inkscape:connector-curvature="0" />
    <path
       style="fill:url(#linearGradient3147);fill-rule:evenodd;stroke:none"
       d="M 74.461929,102.23099 74.6829,88.044663 97.089346,80.487459 97.13354,94.585401 74.461929,102.23099 z"
       id="path3145"
       inkscape:connector-curvature="0" />
    <path
       id="path3149"
       d="M 74.461929,102.23099 74.6829,88.044663 97.089346,80.487459 97.13354,94.585401 74.461929,102.23099 z"
       style="fill:#000000;fill-opacity:0.15686275;fill-rule:evenodd;stroke:none"
       inkscape:connector-curvature="0" />
    <path
       style="fill:url(#linearGradient3730);fill-rule:evenodd;stroke:none"
       d="m 75.920337,101.61227 -0.04419,-12.683723 9.32497,-3.402952 0,13.214058 -9.280776,2.872617 z"
       id="path3728"
       inkscape:connector-curvature="0" />
    <path
       style="fill:url(#linearGradient3734);fill-opacity:1;fill-rule:evenodd;stroke:none"
       d="m 86.526939,97.767381 -0.176777,-12.551145 9.324971,-3.181981 0.265165,12.772117 -9.413359,2.961009 z"
       id="path3732"
       inkscape:connector-curvature="0" />
    <path
       style="fill:url(#linearGradient3738);fill-opacity:1;fill-rule:evenodd;stroke:none"
       d="m 101.55296,77.703226 -1.10486,0.53033 0.22097,1.149049 14.00956,10.518213 1.01646,0.83969 0.7955,-0.132583 0,-1.149048 -7.86656,-6.363961 -7.07107,-5.39169 z"
       id="path3736"
       inkscape:connector-curvature="0" />
    <path
       style="fill:url(#linearGradient3742);fill-rule:evenodd;stroke:none"
       d="m 105.26527,83.006527 c -0.13258,0.441942 -0.17678,6.363961 -0.17678,6.363961 l 9.41336,6.054602 -0.0442,-5.61266 -9.19239,-6.805903 z"
       id="path3740"
       inkscape:connector-curvature="0" />
    <path
       style="fill:#000000;fill-opacity:0.15686275;fill-rule:evenodd;stroke:none"
       d="m 116.13704,89.2821 -0.83969,0.353553 -0.35356,0.397748 1.01647,0.751301 0.48614,-0.265165 0.0884,-0.839689 -0.39774,-0.397748 z"
       id="path3744"
       inkscape:connector-curvature="0" />
    <path
       id="path3746"
       d="m 98.717399,99.297973 -0.03125,2.531247 1.625001,1.03125 -0.0625,1.75 1.4375,0.75 -0.0312,1.46875 1.5625,1.15625 0.0625,0.875 1.4375,0.96875 -0.0625,-5.125 -5.937501,-5.406247 z"
       style="fill:#000000;fill-opacity:0.15686275;fill-rule:evenodd;stroke:none"
       inkscape:connector-curvature="0" />
    <path
       style="fill:url(#linearGradient3750);fill-opacity:1;fill-rule:evenodd;stroke:none"
       d="m 18.688882,61.616547 -0.08839,18.473165 6.187185,4.154252 0,-18.649941 -6.098796,-3.977476 z"
       id="path3748"
       inkscape:connector-curvature="0" />
    <path
       style="fill:url(#linearGradient3824);fill-opacity:1;fill-rule:evenodd;stroke:none"
       d="m 19.83793,64.091421 0.08839,15.026019 3.535533,2.740039 -0.176776,-15.202796 -3.447146,-2.563262 z"
       id="path3752"
       inkscape:connector-curvature="0" />
    <path
       id="path3754"
       d="m 31.107445,69.659887 -0.08839,18.473165 6.187185,4.154252 0,-18.649941 -6.098796,-3.977476 z"
       style="fill:url(#linearGradient3758);fill-opacity:1;fill-rule:evenodd;stroke:none"
       inkscape:connector-curvature="0" />
    <path
       id="path3756"
       d="m 32.256493,72.134761 0.08839,15.026019 3.535533,2.740039 -0.176776,-15.202796 -3.447146,-2.563262 z"
       style="fill:url(#linearGradient3826);fill-opacity:1;fill-rule:evenodd;stroke:none"
       inkscape:connector-curvature="0" />
    <path
       style="fill:url(#linearGradient3764);fill-opacity:1;fill-rule:evenodd;stroke:none"
       d="m 43.614396,77.791615 -0.08839,18.473165 6.187185,4.15425 0,-18.649939 -6.098796,-3.977476 z"
       id="path3760"
       inkscape:connector-curvature="0" />
    <path
       style="fill:url(#linearGradient3828);fill-opacity:1;fill-rule:evenodd;stroke:none"
       d="m 44.763444,80.266489 0.08839,15.026019 3.535533,2.740039 -0.176776,-15.202796 -3.447146,-2.563262 z"
       id="path3762"
       inkscape:connector-curvature="0" />
    <path
       id="path3766"
       d="m 36.720105,29.929325 -0.08839,15.070214 6.187185,4.154253 0,-15.246991 -6.098796,-3.977476 z"
       style="fill:url(#linearGradient3770);fill-opacity:1;fill-rule:evenodd;stroke:none"
       sodipodi:nodetypes="ccccc"
       inkscape:connector-curvature="0" />
    <path
       id="path3768"
       d="m 37.869153,32.404199 0.0442,11.799844 3.579727,2.519068 -0.176776,-11.75565 -3.447146,-2.563262 z"
       style="fill:url(#linearGradient3836);fill-opacity:1;fill-rule:evenodd;stroke:none"
       sodipodi:nodetypes="ccccc"
       inkscape:connector-curvature="0" />
    <path
       sodipodi:nodetypes="ccccc"
       style="fill:url(#linearGradient3776);fill-opacity:1;fill-rule:evenodd;stroke:none"
       d="m 48.519949,37.795888 -0.08839,15.070214 6.187185,4.154253 0,-15.246991 -6.098796,-3.977476 z"
       id="path3772"
       inkscape:connector-curvature="0" />
    <path
       sodipodi:nodetypes="ccccc"
       style="fill:url(#linearGradient3834);fill-opacity:1;fill-rule:evenodd;stroke:none"
       d="m 49.668997,40.270762 0.0442,11.799844 3.579727,2.519068 -0.176776,-11.75565 -3.447146,-2.563262 z"
       id="path3774"
       inkscape:connector-curvature="0" />
    <path
       id="path3778"
       d="m 66.551172,43.762101 -0.08839,15.070214 5.92202,-1.944543 0.176777,-15.114408 -6.010408,1.988737 z"
       style="fill:url(#linearGradient3782);fill-opacity:1;fill-rule:evenodd;stroke:none"
       sodipodi:nodetypes="ccccc"
       inkscape:connector-curvature="0" />
    <path
       id="path3780"
       d="m 67.70022,45.308897 -0.08839,11.490485 3.623922,-1.237437 -0.176776,-11.313708 -3.358758,1.06066 z"
       style="fill:url(#linearGradient3832);fill-opacity:1;fill-rule:evenodd;stroke:none"
       sodipodi:nodetypes="ccccc"
       inkscape:connector-curvature="0" />
    <path
       sodipodi:nodetypes="ccccc"
       style="fill:url(#linearGradient3788);fill-opacity:1;fill-rule:evenodd;stroke:none"
       d="m 82.151715,38.812354 -0.08839,15.070214 5.92202,-1.944543 0.176777,-15.114408 -6.010408,1.988737 z"
       id="path3784"
       inkscape:connector-curvature="0" />
    <path
       sodipodi:nodetypes="ccccc"
       style="fill:url(#linearGradient3830);fill-opacity:1;fill-rule:evenodd;stroke:none"
       d="m 83.300763,40.35915 -0.08839,11.490485 3.623922,-1.237437 -0.176776,-11.313708 -3.358758,1.06066 z"
       id="path3786"
       inkscape:connector-curvature="0" />
    <path
       style="fill:url(#linearGradient3792);fill-opacity:1;fill-rule:evenodd;stroke:none"
       d="m 15.186149,54.672973 16.375,-10.25 29.3125,20.5625 17.6875,-9.75 5.375,3.6875 -27.6875,21.75 -41.0625,-26 z"
       id="path3790"
       inkscape:connector-curvature="0" />
    <path
       style="fill:url(#linearGradient3796);fill-opacity:1;fill-rule:evenodd;stroke:none"
       d="m 56.436149,80.610473 27.5625,-21.6875 27.000001,3.1875 -53.625001,18.75 -0.9375,-0.25 z"
       id="path3794"
       inkscape:connector-curvature="0" />
    <path
       style="fill:url(#linearGradient3806);fill-opacity:1;fill-rule:evenodd;stroke:none"
       d="m 78.811149,54.985473 14.375,-1.4375 -0.1875,-4.0625 1.375,0.9375 16.250001,11.25 -26.562501,-2.625 -5.25,-4.0625 z"
       id="path3798"
       inkscape:connector-curvature="0" />
    <path
       style="fill:url(#linearGradient3810);fill-opacity:1;fill-rule:evenodd;stroke:none"
       d="m 72.873649,27.485473 -11.3125,15.875 0.5625,0.5 30.125,-10.4375 -0.625,-0.6875 -18.75,-5.25 z"
       id="path3808"
       inkscape:connector-curvature="0" />
    <path
       style="fill:url(#linearGradient3814);fill-opacity:1;fill-rule:evenodd;stroke:none"
       d="m 31.936149,24.360473 18.8125,-10.875 22.25,14 -11.625,16.0625 -29.4375,-19.1875 z"
       id="path3812"
       inkscape:connector-curvature="0" />
    <path
       style="fill:url(#linearGradient3818);fill-opacity:1;fill-rule:evenodd;stroke:none"
       d="m 50.811149,13.360473 22.1875,14.1875 17.8125,5.125 c 0,0 -8.25,-5.75 -8.6875,-6.1875 -0.4375,-0.4375 -19.375,-13.1875 -19.375,-13.1875 l -11.9375,0.0625 z"
       id="path3816"
       inkscape:connector-curvature="0" />
    <path
       style="fill:url(#linearGradient3822);fill-opacity:1;fill-rule:evenodd;stroke:none"
       d="m 73.123649,16.047973 1.5,0.4375 2.375,0.4375 3.3125,0 4.5625,-0.8125 -0.375,0.5 -1,0.5625 -1.625,0.75 -2,0.3125 0.625,0.5625 1.5,0.9375 1.3125,0.6875 c 0,0 -1.25,0.3125 -2,0.25 -0.75,-0.0625 -3.8125,-0.125 -3.8125,-0.125 l -3.5,-0.375 -1.125,-0.4375 0.25,-3.6875 z"
       id="path3820"
       inkscape:connector-curvature="0" />
    <path
       id="path3838"
       d="M 7.0918918,82.767568 7.0054054,88.648649 62.443244,125.83783 62.270271,119.69729 7.0918918,82.767568 z"
       style="fill:#000000;fill-opacity:0.15686275;fill-rule:evenodd;stroke:none"
       inkscape:connector-curvature="0" />
    <path
       id="path3840"
       d="M 15.221622,54.832432 15.048649,81.816216 56.12973,108.97297 56.216217,81.124324 15.221622,54.832432 z"
       style="fill:#000000;fill-opacity:0.15686275;fill-rule:evenodd;stroke:none"
       inkscape:connector-curvature="0" />
    <path
       id="path3842"
       d="M 32,24.648649 31.481081,44.540541 61.145946,65.124324 61.232433,43.675676 32,24.648649 z"
       style="fill:#000000;fill-opacity:0.15686275;fill-rule:evenodd;stroke:none"
       inkscape:connector-curvature="0" />
    <path
       id="path3844"
       d="m 15.186149,54.672973 16.375,-10.25 29.3125,20.5625 17.6875,-9.75 5.375,3.6875 -27.6875,21.75 -41.0625,-26 z"
       style="fill:#000000;fill-opacity:0.15686275;fill-rule:evenodd;stroke:none"
       inkscape:connector-curvature="0" />
    <path
       id="path3846"
       d="m 31.936149,24.360473 18.8125,-10.875 22.25,14 -11.625,16.0625 -29.4375,-19.1875 z"
       style="fill:#000000;fill-opacity:0.15686275;fill-rule:evenodd;stroke:none"
       inkscape:connector-curvature="0" />
    <path
       style="fill:url(#linearGradient3953);fill-rule:evenodd;stroke:none"
       d="m 68.672492,89.414682 -3.535533,7.380427 0.22097,2.187612 0.265165,-0.243068 1.126952,-1.149048 2.519068,-7.932855 1.259534,0.640816 0,-0.06629 -0.375651,-0.883884 -0.928077,-0.464039 0.618718,-1.392116 -0.883883,-0.397748 -0.08839,1.613088 -0.685009,-0.30936 -0.574525,0.486136 1.06066,0.53033 z"
       id="path3951"
       inkscape:connector-curvature="0" />
    <path
       style="fill:url(#linearGradient3961);fill-rule:evenodd;stroke:none"
       d="m 63.700648,90.210178 -1.149049,-0.994369 -0.662912,0.795495 1.59099,0.596621 -0.618718,0.574524 0.397747,0.618719 0.795495,-0.905981 5.988311,5.325398 2.209709,0.618719 -0.06629,-0.287262 -0.90598,-1.568894 -6.828,-4.529902 0.994369,-1.082758 -1.016466,0.08839 -0.729204,0.751301 z"
       id="path3959"
       inkscape:connector-curvature="0" />
    <path
       style="fill:url(#linearGradient3969);fill-opacity:1;fill-rule:evenodd;stroke:none"
       d="m 82.230343,99.893944 -0.691291,0.140436 4.759803,3.82766 0.154029,2.17835 1.397098,1.27209 0.108264,1.62121 1.40468,0.82924 0.264514,1.26451 1.304918,1.07009 0.169194,0.91161 1.345971,1.02968 -0.06629,1.24843 0.734834,-0.15468 0.01295,-1.52746 -1.134153,-0.86206 -0.125,-0.99621 -1.509153,-0.96875 -0.255362,-1.41919 -1.364277,-0.71875 -0.130361,-1.62879 -1.516736,-1.25 -0.154029,-2.17456 -4.709597,-3.692856 z"
       id="path3963"
       sodipodi:nodetypes="ccccccccccccccccccccccc"
       inkscape:connector-curvature="0" />
    <path
       sodipodi:nodetypes="ccccccccccccccccccccccc"
       id="path3971"
       d="m 89.809644,97.242294 -0.691291,0.140434 4.759803,3.827662 0.154029,2.17835 1.397098,1.27209 0.108264,1.62121 1.40468,0.82924 0.264514,1.26451 1.304918,1.07009 0.169194,0.91161 1.345967,1.02968 -0.06629,1.24843 0.73484,-0.15468 0.0129,-1.52746 -1.134154,-0.86206 -0.125,-0.99621 -1.509153,-0.96875 -0.255362,-1.41919 -1.364277,-0.71875 -0.130361,-1.62879 -1.516736,-1.25 -0.154029,-2.17456 -4.709597,-3.692856 z"
       style="fill:url(#linearGradient3973);fill-opacity:1;fill-rule:evenodd;stroke:none"
       inkscape:connector-curvature="0" />
  </g>
  <g
     inkscape:label="outline"
     inkscape:groupmode="layer"
     id="layer1"
     style="display:inline"
     sodipodi:insensitive="true"
     transform="translate(-0.5922592,-8.297973)">
    <path
       style="fill:#000000;fill-opacity:1;fill-rule:evenodd;stroke:none"
       d="m 50.686149,13.297973 -19.03125,11.09375 -0.46875,19.90625 -16.34375,10.40625 0.03125,25.15625 -8.1875004,2.8125 0.0625,6.125 55.6562504,37.312497 64.656251,-22.78125 0.0312,-6.249997 -10.3125,-7.21875 c -0.0565,-0.351301 -0.23491,-0.6916 -0.46875,-0.90625 l -4.78125,-3.6875 0,-5.375 0,-0.03125 -0.0312,-17.75 -18.250001,-12.9375 -0.78125,-15.90625 -19.15625,-12.96875 0,-0.21875 c 3.537691,0.952337 7.020833,0.83725 10.5625,0.46875 -0.996063,-0.677452 -2.304866,-0.847245 -3.59375,-2.0625 2.338729,-0.113559 3.985658,-1.834869 5.4375,-2.6875 -4.133872,0.591713 -8.213064,1.780116 -12.40625,0 l 0,-1.125 c -0.25,-0.500001 -0.270833,-0.374999 -0.6875,0.125 l -0.03125,5.03125 -9.65625,-6.53125 -12.25,0 z m 1.03125,0.375 11,0.09375 3.53125,2.375 -10.46875,0.09375 -4.0625,-2.5625 z m -1.0625,0.15625 4.09375,2.59375 -17.625,11.125 -4.625,-3.03125 18.15625,-10.6875 z m 5.28125,2.5 10.59375,0 4.4375,2.96875 -10.6875,-0.25 -4.34375,-2.71875 z m 17.375,0.03125 c 2.790896,0.890374 7.588983,1.35177 10.9375,0.0625 -0.547503,0.977279 -3.543237,1.665418 -4.6875,1.65625 0.463274,0.727877 1.839863,1.725228 3.15625,2.15625 -2.79248,0.678323 -6.394347,0.06818 -9.40625,-0.53125 l 0,-3.34375 z m -18.28125,0.21875 4.125,2.59375 -16.46875,12 -5.40625,-3.53125 17.75,-11.0625 z m 5.4375,2.625 10.75,0.28125 1.375,0.9375 0,1.96875 -7.65625,-0.375 -4.46875,-2.8125 z m -1.0625,0.125 4.65625,2.9375 -15.5,12.71875 -5.71875,-3.71875 16.5625,-11.9375 z m 13.90625,1.5625 2.4375,1.65625 -2.4375,-0.125 0,-1.53125 z m -8.21875,1.21875 7.5,0.4375 -0.03125,3 -2.65625,-0.40625 -4.8125,-3.03125 z m -0.78125,0.3125 4.65625,2.9375 -13.53125,14.125 -6.71875,-4.40625 15.59375,-12.65625 z m 9,0.1875 2.75,0.15625 6.28125,4.21875 -9.03125,-1.34375 0,-3.03125 z m -41.03125,2.46875 7.59375,5.03125 0,1.625 -3.375,-2.25 0,1.625 -4.28125,-2.84375 0.0625,-3.1875 z m 37.8125,0.1875 2.46875,0.375 0,1.1875 -2.46875,-1.5625 z m -0.875,0.25 3.34375,2.09375 -11.3125,15.65625 -5.6875,-3.71875 13.65625,-14.03125 z m 4.09375,0.25 9.34375,1.40625 6.65625,4.5 -15.9375,-4.34375 -0.0625,-0.03125 0,-1.53125 z m -0.3125,2 0.125,0.03125 6.65625,9.5 -8.3125,2.84375 -3.5625,-5.125 5.09375,-7.25 z m 0.53125,0.15625 10,2.84375 3.34375,4.125 -6.9375,2.375 -6.40625,-9.34375 z m -41.3125,0.625 3.53125,2.3125 0,3 -3.59375,-2.375 0.0625,-2.9375 z m 7.84375,1.6875 12.75,8.46875 0,1.59375 -4.5,-3 0,1.5625 -5.3125,-3.46875 0,-1.59375 -2.96875,-1.96875 0.03125,-1.59375 z m -3.03125,0.09375 5.46875,3.65625 0.09375,14.625 -5.75,-3.90625 0.1875,-14.375 z m 46.96875,0.5625 7.96875,2.28125 -4.9375,1.6875 -3.03125,-3.96875 z m -48.0625,0.09375 0.5625,0.375 -0.03125,2.96875 -0.5625,-0.375 0.03125,-2.96875 z m -3.78125,0.71875 3.59375,2.375 0,0.03125 0.09375,0.03125 0.625,0.40625 -0.03125,2.84375 -4.3125,-2.8125 0.03125,-2.875 z m 5.59375,0.46875 0,12.0625 3.875,2.78125 -0.125,-12.3125 -3.75,-2.53125 z m 0.3125,0.5625 3.125,2.1875 0.125,11.5625 -3.25,-2.40625 0,-11.34375 z m 53.9375,1.125 c 0.06432,1.135002 0.104059,2.298419 0.125,3.375 l -3.6875,1.21875 0,-2.0625 -0.9375,0.3125 0,-1.3125 4.5,-1.53125 z m -59.90625,0.96875 3.40625,2.21875 0,2.4375 -3.4375,-2.25 0.03125,-2.40625 z m 35.625,0.40625 3.59375,4.96875 -9.3125,3.15625 5.71875,-8.125 z m 19.59375,0.21875 0.03125,1.3125 -5.40625,1.875 -0.03125,1.9375 -5.5625,1.84375 0.03125,-3.21875 10.9375,-3.75 z m -44.3125,0.21875 2.21875,1.46875 0,2.96875 -2.21875,-1.46875 0,-2.96875 z m 44.875,1.4375 0,14.625 -5.59375,1.6875 0.21875,-14.28125 5.375,-2.03125 z m -52.1875,0.03125 0.75,0.5 -0.03125,2.4375 -0.75,-0.5 0.03125,-2.4375 z m 9.71875,0.125 2.90625,1.90625 -0.03125,2.9375 -2.90625,-1.90625 0.03125,-2.9375 z m 46.75,0.15625 0.15625,3.1875 -3.875,1.25 0,-3.21875 c 1.23647,-0.412657 2.481042,-0.819294 3.71875,-1.21875 z m -60.09375,0.0625 4.34375,2.84375 0,2.34375 -4.375,-2.84375 0.03125,-2.34375 z m 16.78125,0.65625 5.46875,3.65625 0.09375,14.625 -5.75,-3.90625 0.1875,-14.375 z m 4.15625,0.6875 7.90625,5.25 -0.03125,3.09375 -6.0625,-4 0,-1.5625 -1.84375,-1.21875 0.03125,-1.5625 z m 33.9375,0 -3.75,1.28125 0,11.875 3.875,-1.15625 -0.125,-12 z m -43.9375,0.0625 2.21875,1.46875 0,0.03125 3.0625,2 -0.03125,2.75 -5.25,-3.4375 0,-2.8125 z m 33.1875,0.40625 0,3.1875 -3.46875,1.15625 0,-2.21875 -6.5,2.25 -0.03125,2.125 -0.65625,0.21875 0.03125,-3.09375 10.625,-3.625 z m 10.3125,0.1875 0.28125,11.03125 -3.25,1 -0.0625,-11.21875 3.03125,-0.8125 z m -36.9375,0.5 0,12.0625 3.875,2.78125 -0.125,-12.3125 -3.75,-2.53125 z m -17.53125,0.0625 3.46875,2.28125 0,3.09375 -3.53125,-2.3125 0.0625,-3.0625 z m 17.84375,0.5 3.125,2.1875 0.125,11.5625 -3.25,-2.40625 0,-11.34375 z m 32.03125,0.25 0,3.1875 -9.1875,2.96875 0,-3.125 9.1875,-3.03125 z m 10.40625,0 0.125,2.59375 -4,1.28125 0,-2.59375 3.875,-1.28125 z m -49.3125,1.15625 2.3125,1.53125 -0.09375,0 0,2.34375 -2.21875,-1.4375 0,-2.4375 z m 29.15625,0.1875 0,14.625 -5.59375,1.6875 0.1875,-14.28125 5.40625,-2.03125 z m -36.46875,0.3125 0.71875,0.46875 -0.03125,2.0625 6.625,4.59375 0,-2.3125 2.21875,1.4375 0,3.125 -9.5625,-6.28125 0.03125,-3.09375 z m 29.6875,0.53125 0,3.03125 0.09375,0.03125 -4.03125,1.3125 0.03125,-3.03125 3.90625,-1.34375 z m -33.40625,0.375 7.59375,5.03125 0,1.40625 -7.625,-5.3125 0.03125,-1.125 z m 22.84375,0.125 2.1875,1.4375 0,2.96875 -2.1875,-1.4375 0,-2.96875 z m -9.40625,0.0625 2.84375,1.875 -0.03125,2.375 -2.84375,-1.84375 0.03125,-2.40625 z m 47.03125,0.03125 0.15625,2.75 -4.15625,1.375 0,-2.8125 4,-1.3125 z m -21.21875,0.28125 -3.75,1.28125 0,11.875 3.875,-1.15625 -0.125,-12 z m 10.6875,0.3125 -0.03125,2.625 -5.53125,1.78125 0.03125,-2.625 5.53125,-1.78125 z m -11.125,0.34375 0.25,11.03125 -3.25,1.03125 -0.03125,-11.21875 3.03125,-0.84375 z m -27.78125,0.15625 2.21875,1.4375 0,0.0625 0.09375,0 2.90625,1.90625 0,2.3125 -5.21875,-3.375 0,-2.34375 z m -11.5,0.28125 3.0625,2.125 -14.34375,10.28125 -4.0625,-2.625 15.34375,-9.78125 z m 25.6875,0.09375 3.6875,2.4375 -0.03125,2.9375 -3.6875,-2.4375 0.03125,-2.9375 z m 9,0.90625 0,3.09375 -4.78125,1.5625 0.03125,-3.0625 4.75,-1.59375 z m 10,0.0625 0,2.625 -3.46875,1.125 0,-2.625 3.46875,-1.125 z m 16.40625,0.53125 0.09375,2.28125 -4.25,1.40625 0,-2.34375 4.15625,-1.34375 z m -37.78125,0.1875 6,3.96875 -0.03125,2.625 -5.96875,-3.90625 0,-2.6875 z m 27.0625,0.28125 -0.03125,2.84375 -9.125,2.96875 0,-2.875 9.15625,-2.9375 z m -47.0625,0.25 4.46875,3.125 -14.1875,10.09375 -4.71875,-3.03125 14.4375,-10.1875 z m 4.9375,1.25 13,8.59375 0,1.90625 -13.03125,-9.09375 0.03125,-1.40625 z m 5.65625,0.3125 2.8125,1.84375 -0.03125,2.125 6.625,4.59375 0,-2.375 2.25,1.46875 0,3.1875 -11.6875,-7.71875 0.03125,-3.125 z m 47.3125,0.1875 0.125,2.9375 -6.625,2.15625 -3.375,0.375 0.03125,-0.6875 5.5625,-1.78125 0,-1.59375 4.28125,-1.40625 z m -26.53125,0.21875 -0.03125,2.65625 -0.59375,0.1875 0,-2.65625 0.625,-0.1875 z m -0.8125,0.25 0.03125,2.65625 -4.03125,1.3125 0.03125,-2.65625 3.96875,-1.3125 z m -10.5625,0.21875 2.1875,1.4375 0,2.40625 -2.1875,-1.4375 0,-2.40625 z m 27.03125,0.34375 -0.03125,2.34375 -5.59375,1.8125 0.03125,-2.34375 5.59375,-1.8125 z m 11.4375,0.40625 1.6875,1.15625 -1.65625,-0.1875 -0.03125,-0.96875 z m -53.75,0.09375 4.1875,2.90625 -14,10 -4.46875,-2.875 14.28125,-10.03125 z m 17.65625,0.71875 3.59375,2.375 -0.03125,2.375 -3.59375,-2.375 0.03125,-2.375 z m 36.15625,0.4375 2,0.1875 7.156251,4.9375 -21.968751,-0.8125 -1.125,-0.78125 14,-1.59375 -0.0625,-1.9375 z m -17.28125,0.21875 0,2.34375 -3.34375,1.09375 0,-2.34375 3.34375,-1.09375 z m -9.90625,0.09375 -0.0625,5.5625 -4.8125,1.5625 0.125,-5.5625 4.75,-1.5625 z m 26.6875,0.15625 0.0625,1.1875 -5.75,0.65625 5.6875,-1.84375 z m -38.03125,0.21875 5.9375,3.90625 -0.03125,2.28125 -5.90625,-3.84375 0,-2.34375 z m 27,0.1875 0,1.5625 0.875,-0.28125 0,0.65625 -4.3125,0.46875 -6.84375,3.90625 0,-1.46875 1.1875,-0.375 0,-1.5 9.09375,-2.96875 z m -37.875,1.0625 4.53125,3.15625 -13.8125,9.84375 -4.78125,-3.0625 14.0625,-9.9375 z m -28.375,1.71875 5.0625,3.28125 0,2.875 -5.03125,-3.28125 -0.03125,0 0,-2.875 z m 62.78125,0.15625 1.28125,0.875 -29.03125,20.5 -5.3125,-3.40625 13.5,-9.5 2.15625,1.5 17.40625,-9.96875 z m 2.59375,0.8125 21.781251,0.65625 6.5625,4.53125 -25.000001,-2.84375 -3.34375,-2.34375 z m -1.09375,0.21875 3.53125,2.40625 -27.375,21.4375 -5.28125,-3.40625 29.125,-20.4375 z m -22.59375,0.0625 3.46875,2.28125 -0.03125,3.15625 -3.46875,-2.28125 0.03125,-3.15625 z m -8.53125,0.34375 4.65625,3.25 -13.59375,9.75 -4.96875,-3.21875 13.90625,-9.78125 z m 4.21875,0.28125 7.75,5.125 -0.03125,2.15625 -1.59375,-1.09375 -4.90625,-3.4375 -0.03125,-0.03125 -0.1875,-0.15625 -0.03125,0.03125 -1,-0.71875 0.03125,-1.875 z m 18.40625,0.25 0.03125,1.46875 -10.0625,3.25 0.03125,-2.9375 4.75,-1.5625 0,1.46875 5.25,-1.6875 z m -55.78125,0.96875 9.75,6.34375 0,3.3125 -0.3125,-0.21875 0,-2.46875 -6.5,-4.3125 -0.03125,2.5625 -2.90625,-1.90625 0,-3.3125 z m 5.25,0.3125 9.6875,6.25 0,2.90625 -9.71875,-6.3125 0.03125,-2.84375 z m 63.25,0.3125 10.5625,1.3125 4.28125,5.6875 -8.09375,2.78125 -6.75,-9.78125 z m -0.21875,0.15625 6.8125,9.65625 -7.84375,2.71875 -5.21875,-7.375 -0.1875,0.1875 5.25,7.21875 -9.28125,3.1875 -3.40625,-4.5625 7.625,-6.03125 6.25,-5 z m -13.09375,0.09375 -5.1875,2.96875 0,-1.28125 5.1875,-1.6875 z m -17.15625,1.03125 4.9375,3.4375 -13.40625,9.59375 -5.21875,-3.375 13.6875,-9.65625 z m 41.4375,0.0625 9.250001,1.15625 1.65625,2.0625 -6.875001,2.375 -4.03125,-5.59375 z m -29.65625,0.65625 0.03125,1.3125 -4.125,2.34375 0.03125,-2.34375 4.0625,-1.3125 z m 39.250001,0.53125 5.34375,0.65625 -3.84375,1.3125 -1.5,-1.96875 z m -85.593751,0.34375 5.46875,3.65625 0.09375,18.125 -3.8125,-2.59375 0.03125,-1.03125 2.8125,2.03125 -0.125,-15.75 -3.75,-2.53125 0,15.5 0.875,0.625 0,1.0625 -1.78125,-1.21875 0.1875,-17.875 z m -3.46875,0.0625 0.1875,0.125 0,2.90625 -0.1875,-0.125 0,-2.90625 z m 0.375,0.25 2.53125,1.65625 0,2.90625 -2.5625,-1.6875 0.03125,-2.875 z m 94.812501,0.125 0.0312,3.78125 -11.500001,3.90625 0.03125,-3.65625 11.437501,-4.03125 z m -90.687501,2.03125 3.125,2.1875 0.125,15 -3.25,-2.40625 0,-14.78125 z m 5.4375,0.5 10.8125,7.03125 0,0.71875 -5.5625,-3.6875 -0.03125,2.65625 -5.25,-3.4375 0.03125,-3.28125 z m 5.1875,0.21875 11.0625,7.15625 0,2.9375 -11.09375,-7.21875 0.03125,-2.875 z m -15.125,0.03125 2.90625,1.90625 -0.03125,3.40625 -2.90625,-1.875 0.03125,-3.4375 z m 95.218751,1.1875 0.0312,3.15625 -5.71875,1.9375 0.0312,-3.1875 5.65625,-1.90625 z m -11.656251,0.125 0,3.625 -10.90625,3.71875 0.03125,-3.53125 2.71875,-0.9375 0.03125,-0.03125 8.125,-2.84375 z m -74.125,1.6875 5.5625,3.625 -0.0625,0 0,2.84375 -5.53125,-3.5625 0.03125,-2.90625 z m 79.937501,0.15625 0,3.1875 -11.406251,3.875 0.03125,-3.1875 11.375001,-3.875 z m -89.406251,0.53125 0.21875,0.15625 0,3.03125 -0.09375,-0.0625 -0.125,0.03125 0,-3.15625 z m 0.40625,0.25 2.5,1.625 -0.03125,3.03125 -2.5,-1.625 0.03125,-3.03125 z m 94.875001,0.625 0.0312,3.09375 -11.625001,3.9375 0.03125,-3.125 11.562501,-3.90625 z m -79.531251,0.09375 5.46875,3.65625 0.09375,18.125 -5.75,-3.90625 0.1875,-17.875 z m 56.78125,0.53125 0,3.53125 -5.84375,1.96875 -0.15625,0 0,0.0625 -5.53125,1.875 0.03125,-3.375 11.5,-4.0625 z m -18.3125,0.0625 3.4375,4.46875 -9.5625,3.3125 -1.40625,-1.78125 7.53125,-6 z m -44.78125,0.90625 0.34375,0.21875 0,3.40625 -0.34375,-0.21875 0,-3.40625 z m 0.53125,0.34375 5.21875,3.40625 -0.03125,3.375 -5.21875,-3.40625 0.03125,-3.375 z m 6.5,0.0625 0,15.5 3.875,2.78125 -0.125,-15.75 -3.75,-2.53125 z m -1.3125,0.125 0.03125,0.03125 0,2.90625 -0.0625,-0.03125 0.03125,-2.90625 z m 5.8125,0.21875 10.125,6.625 0,0.59375 -3.125,-2.0625 0,2.71875 -6.25,-4.09375 0,-2.5625 -0.78125,-0.5 0.03125,-0.71875 z m -20.96875,0.0625 2.875,1.875 0,3.28125 -2.875,-1.84375 0,-3.3125 z m 77.84375,0.125 0,3.1875 -11.15625,3.78125 0.03125,-3.1875 11.125,-3.78125 z m -61.0625,0.03125 3.125,2.1875 0.125,15 -3.25,-2.40625 0,-14.78125 z m 9.625,0.125 10.125,6.53125 0,3 -10.15625,-6.59375 0.03125,-2.9375 z m 68.906251,0.59375 0.0312,3.46875 -5.78125,1.96875 0.0312,-3.5 5.71875,-1.9375 z m -11.781251,0.6875 0,3.125 -10.84375,3.65625 0.03125,-3.125 10.8125,-3.65625 z m -22.6875,0.78125 0,3.375 -10.90625,3.6875 0.03125,-3.25 8.125,-2.84375 2.75,-0.96875 z m -51.40625,0.5 5.53125,3.625 0,3.03125 -5.53125,-3.59375 0,-3.0625 z m 79.968751,0.03125 0,3.46875 -1.53125,0.53125 -1.90625,-1.46875 c -0.51318,0.208905 -1.719661,0.351671 -0.96875,1.96875 l 0.40625,0.3125 -3.656251,1.25 0,-1 -3.6875,1.25 0.03125,-2.46875 11.312501,-3.84375 z m -89.406251,0.6875 0.21875,0.125 0,3.0625 -0.21875,-0.15625 0,-3.03125 z m 0.40625,0.25 2.46875,1.59375 -0.03125,2.5625 2.25,1.53125 0,0.40625 -4.71875,-3.0625 0.03125,-3.03125 z m 66.125,0.15625 0,3.15625 -11.28125,3.84375 0.03125,-3.1875 11.25,-3.8125 z m -44.8125,0.03125 c 1.494919,0.98504 2.999835,1.959069 4.5,2.9375 l 0,2.875 -4.53125,-2.90625 0.03125,-2.90625 z m 24.78125,0.4375 1.375,1.6875 -6.1875,2.125 4.8125,-3.8125 z m 48.843751,0.125 0.0312,3.1875 -4.4375,1.5 -2.90625,-2.25 7.3125,-2.4375 z m -22.812501,0.71875 0,3.125 -11.53125,3.90625 0.03125,-3.125 11.5,-3.90625 z m 13.562501,0.53125 14.5,11.46875 c 0.28835,0.49396 0.53514,1.321284 -0.4375,0.9375 l -0.5625,-0.40625 0.75,-0.53125 -0.46875,-0.21875 -0.59375,0.5 -13.78125,-10.28125 c -0.7921,-0.860842 -0.038,-1.446561 0.59375,-1.46875 z m -57.593751,0.125 5.46875,3.65625 0.09375,18.125 -5.75,-3.90625 0.1875,-17.875 z m -19.0625,0.21875 0.34375,0.21875 0,3.3125 -0.375,-0.25 0.03125,-3.28125 z m 40.34375,0.0625 0,3.25 -8.8125,2.96875 -0.03125,-3.09375 8.84375,-3.125 z m -39.8125,0.28125 5.15625,3.375 0,3.25 -5.1875,-3.34375 0.03125,-3.28125 z m 21.3125,0.15625 8.6875,5.6875 0.03125,3.28125 -5.53125,-3.625 0,-2.59375 -3.21875,-2.125 0.03125,-0.625 z m 46.625,0.125 0,2.46875 -11.21875,3.8125 0.03125,-2.5 11.1875,-3.78125 z m -77.90625,0.0625 9.875,6.4375 -0.09375,0 0,2.65625 -9.78125,-6.5 0,-2.59375 z m 36.71875,0.0625 3.21875,2.09375 0.03125,3.03125 -3.28125,-2.125 0.03125,-3 z m -10.3125,0.15625 c 0.510307,0.333103 1.02374,0.665252 1.53125,1 l 0,2.84375 -1.5625,-1 0.03125,-2.84375 z m -4.71875,0.125 c 2.063572,1.331331 4.127549,2.664182 6.1875,4 l 0.03125,3.4375 -6.21875,-4.0625 0,-3.375 z m 7.53125,0.65625 0,15.5 3.875,2.78125 -0.125,-15.75 -3.75,-2.53125 z m 25.875,0 0,3.1875 -10.03125,3.40625 0.03125,-3.21875 10,-3.375 z m 30.531251,0 2.90625,2.21875 -4.812501,1.625 0.03125,-3.21875 1.875001,-0.625 z m 9.75,0.125 0,3.0625 -1.46875,0.5 -2.75,-2.15625 4.21875,-1.40625 z m -96.031251,0.21875 0,1.6875 41.03125,27.374997 24.5625,-8.71875 4.375,3.46875 0,0.0625 -3.71875,1.375 5.53125,5.125 -24.375,8.8125 -54.5312504,-36.718747 7.1250004,-2.46875 z m 30.1875,0.21875 3.125,2.1875 0.125,15 -3.25,-2.40625 0,-14.78125 z m 54.03125,0.125 0,3.21875 -1.84375,0.625 0.03125,-3.21875 1.8125,-0.625 z m -2.46875,0.34375 0,13.09375 -0.59375,0.25 -0.1875,-12.59375 -9.65625,3.25 0.0625,12.8125 -0.90625,0.3125 0,-12.78125 -9.75,3.46875 0,12.718747 -0.75,0.28125 0,-13.374997 21.78125,-7.4375 z m -20.25,0.375 0,3.125 -7.375,2.5 -0.125,-0.0625 0,0.09375 -3.40625,1.15625 0.03125,-3.125 10.875,-3.6875 z m -55.59375,0.375 4.15625,2.8125 0,-2.75 5.5625,3.625 0,3 -9.71875,-6.3125 0,-0.375 z m 74.75,0.5 0,0.71875 -8.78125,14.03125 0,-1.28125 8.375,-13.34375 0.40625,-0.125 z m 8.718751,0.0625 0.6875,0.53125 -0.0625,2.375 -7.625001,2.5625 0,-3.09375 7.000001,-2.375 z m -9.343751,0.15625 -8.1875,12.9375 0,-1.4375 7,-11.09375 1.1875,-0.40625 z m -12.84375,0.28125 0,2.46875 -7.78125,2.65625 0,1 -3.5,1.1875 0.03125,-3.5 11.25,-3.8125 z m 11.4375,0.1875 -6.78125,10.75 0,-1.4375 5.59375,-8.90625 1.1875,-0.40625 z m -56.28125,0.03125 c 1.48626,0.974699 3.030785,1.987112 4.53125,2.96875 l 0,3 -4.53125,-2.9375 0,-3.03125 z m 68.218751,0.25 8.65625,6.59375 0.0625,5.03125 -8.90625,-5.90625 0.1875,-5.71875 z m -9.906251,0.03125 0.03125,1.34375 -8.09375,12.78125 -0.71875,0.25 0,-0.3125 8.78125,-14.0625 z m -88.0625004,0.09375 54.5625004,36.812497 0.09375,5 -54.6250004,-36.781247 -0.03125,-5.03125 z m 103.4375014,0.03125 0.0312,1.40625 -1.28125,-0.96875 1.25,-0.4375 z m -50.468751,0.03125 0,3.1875 -3.9375,1.34375 0,-3.1875 3.9375,-1.34375 z m 31.625,0.03125 -5.34375,8.5 -0.03125,-1.40625 4.25,-6.71875 1.125,-0.375 z m -1.375,0.46875 -4,6.3125 0,-1.5625 2.71875,-4.3125 1.28125,-0.4375 z m -40.6875,0.53125 2.0625,1.34375 0,2.90625 -2.0625,-1.34375 0,-2.90625 z m 39.15625,0 -2.46875,3.90625 -0.03125,-1.59375 1.21875,-1.875 1.28125,-0.4375 z m 6.40625,0.4375 0,1.4375 -6.71875,10.5625 -1.09375,0.40625 7.8125,-12.40625 z m -7.96875,0.09375 -0.9375,1.46875 0,-1.15625 0.9375,-0.3125 z m -22.28125,0.15625 0,3.125 -2.65625,0.90625 -0.09375,-0.09375 -0.125,0.15625 -5.90625,2 -0.03125,-3.09375 8.8125,-3 z m 39.562501,0.28125 -0.0625,3.25 -5.593751,1.875 0.03125,-3.21875 5.625001,-1.90625 z m -79.375001,0.0625 10.8125,7.03125 0,2.90625 -10.84375,-7.21875 0.03125,-2.71875 z m 26.75,0.4375 3.28125,2.15625 0.03125,2.875 -3.34375,-2.15625 0.03125,-2.875 z m 32.65625,0 0,1.03125 -0.8125,-0.75 0.8125,-0.28125 z m -42.9375,0.15625 c 0.483333,0.316757 1.023897,0.671861 1.46875,0.96875 l -0.03125,2.96875 -1.5,-0.96875 0.0625,-2.96875 z m -4.75,0.21875 6.1875,4 0,3.25 -6.21875,-4 0.03125,-3.25 z m 46.625,0 1.0625,0.96875 0.03125,1.59375 -2.3125,-2.125 1.21875,-0.4375 z m 11.71875,0.3125 0.03125,1.5 -5.28125,8.25 -1.21875,0.4375 6.46875,-10.1875 z m -24.9375,0.03125 0,3.5 -0.09375,0.03125 -0.28125,-0.90625 -0.875,-0.40625 0.65625,-1.375 -0.8125,-0.375 1.40625,-0.46875 z m 11.75,0.1875 2.5625,2.34375 0,1.5625 -3.78125,-3.46875 1.21875,-0.4375 z m 24.531251,0.09375 -0.0937,2.71875 4.0625,2.5 2.53125,-1.8125 -1.90625,0.28125 0.25,-1.5625 -1.46875,0.4375 -0.0937,-2.375 -1.0625,1.6875 -0.78125,-1.5625 -0.59375,1.25 -0.84375,-1.5625 z m -38.062501,0.3125 -0.0625,1.375 -0.65625,-0.3125 -0.59375,0.59375 1.0625,0.53125 -0.8125,1.6875 -1.46875,0.5 -1.75,-1.15625 1,-1.125 -1.1875,0.03125 -0.65625,0.75 -0.90625,-0.8125 6.03125,-2.0625 z m 0.3125,0.03125 0.59375,0.375 -0.5,0.90625 -0.21875,-0.09375 0.125,-1.1875 z m 11.75,0.09375 4.03125,3.6875 0.03125,1.53125 -5.25,-4.8125 1.1875,-0.40625 z m 18.15625,0.03125 0,3.21875 -1.84375,0.625 0.03125,-3.21875 1.8125,-0.625 z m -49.0625,0.25 5.5625,3.625 0.03125,3.40625 -5.59375,-3.65625 0,-3.375 z m 29.46875,0.21875 5.5,5 0,1.5625 -6.6875,-6.125 1.1875,-0.4375 z m -48.8125,0.15625 6.53125,4.375 0,-2.59375 4.5625,2.96875 0,3 -11.09375,-7.21875 0,-0.53125 z m 47.40625,0.375 6.90625,6.3125 0,1.4375 -8,-7.375 1.09375,-0.375 z m 17.53125,0 0,1.5 -3.78125,5.96875 -1.25,0.4375 5.03125,-7.90625 z m -27.46875,0.15625 2.03125,0.875 0.3125,0.75 -1.71875,-0.875 -0.0625,-0.03125 -0.9375,-0.46875 0.375,-0.25 z m 8.5625,0.3125 8.3125,7.5625 0,1.375 -8.90625,-8.25 0,-0.46875 0.59375,-0.21875 z m 28.125001,0.03125 0,0.46875 0.15625,0.09375 0,1.78125 -7.750001,2.71875 0,-2.5 7.593751,-2.5625 z m -30.531251,0.1875 0,3.25 -4.53125,1.53125 -1.4375,-0.96875 0.59375,-2 1.59375,-0.53125 0.125,0.0625 -0.03125,-0.09375 3.6875,-1.25 z m -11.625,0.34375 0.75,0.71875 -0.1875,0.1875 -1.0625,-0.4375 0.5,-0.46875 z m 2.625,0 -1.3125,1.40625 -0.0625,0.0625 -0.65625,0.75 -0.15625,-0.4375 1.375,-1.6875 0.8125,-0.09375 z m -3.09375,0.09375 -0.4375,0.53125 1.5625,0.5625 -0.46875,0.5625 0.40625,0.71875 0.8125,-0.875 1.09375,0.96875 -4.5625,1.5625 0.03125,-3.5 1.5625,-0.53125 z m 6.53125,0.03125 0.21875,0.0625 0.1875,0.0625 -0.96875,3.125 -0.40625,-0.28125 0.375,-1.0625 -0.0625,-0.03125 -0.375,1.0625 -0.25,-0.15625 1.28125,-2.78125 z m 36.437501,0.03125 1.59375,1.03125 -1.625,0.5625 0.0312,-1.59375 z m -35.875001,0.15625 1,0.53125 -1.3125,0.4375 0.3125,-0.96875 z m 6.8125,0.125 8.90625,8.21875 0,0.1875 -0.84375,0.28125 -8.03125,-7.40625 -0.03125,-1.28125 z m -15.65625,0.25 0,3.5 -3.875,1.3125 -0.03125,-3.5 3.90625,-1.3125 z m 35.1875,0.09375 0,1.53125 -2.28125,3.5625 -1.28125,0.46875 3.5625,-5.5625 z m 19.031251,0.03125 1.09375,0.84375 c 0.45274,-0.09722 0.71282,-0.285143 0.875,-0.5 l 8.9375,6.3125 -20.75,7.749997 -6.031251,-5.531247 -3.65625,1.343747 -4.34375,-3.437497 16.687501,-5.9375 7.1875,4.6875 0,-5.53125 z m -50.218751,0.34375 6.8125,4.53125 0.8125,1.25 0.03125,0.09375 -6.21875,-4.4375 -0.0625,0.0625 6.15625,4.53125 -1.71875,-0.4375 -6.0625,-5.28125 0.125,-0.15625 0.125,-0.15625 z m -14.4375,0.75 2.0625,1.34375 0,2.96875 -2.0625,-1.34375 0,-2.96875 z m 17.65625,0.03125 -0.40625,0.84375 -0.71875,-0.46875 1.125,-0.375 z m 8.46875,0.09375 7.84375,7.1875 -1.15625,0.40625 -6.6875,-6.09375 0,-1.5 z m 19.5,0.5625 0.03125,1.53125 -0.8125,1.21875 -1.25,0.4375 2.03125,-3.1875 z m -30.3125,0.125 0,3.1875 -4.78125,1.65625 -0.09375,0 0,0.03125 -3.875,1.3125 0,-3.21875 8.75,-2.96875 z m 0.1875,0.15625 1.21875,1.0625 0,0.03125 -0.90625,1.8125 -0.34375,0.125 0.03125,-3.03125 z m 8.78125,0.21875 -0.03125,3.09375 -2.09375,0.71875 -0.71875,-1.375 -0.625,-0.40625 0,-0.84375 3.46875,-1.1875 z m -37.78125,0.125 10.1875,6.65625 0,2.999997 -10.21875,-6.781247 0.03125,-2.875 z m 15.75,0.15625 3.375,2.1875 0.03125,3 -3.4375,-2.25 0.03125,-2.9375 z m -10.3125,0.09375 1.46875,0.96875 -0.03125,2.375 6.625,4.406247 0,-2.468747 2.0625,1.34375 0,2.968747 -10.15625,-6.593747 0.03125,-3 z m 34.1875,0.375 6.40625,5.875 -1.125,0.40625 -5.28125,-4.84375 0,-1.4375 z m -9.25,0.25 0.28125,0.28125 -1.78125,4.78125 -0.03125,-1.78125 1.53125,-3.28125 z m 3.75,0.25 0,0.65625 -0.65625,-0.4375 0.65625,-0.21875 z m -3.34375,0.09375 0.375,0.375 -1.03125,3.25 -1.09375,1.25 1.75,-4.875 z m 28.375,0 0,0.625 -0.53125,0.1875 0.53125,-0.8125 z m -27.8125,0.53125 2.28125,2.03125 0.5,0.09375 0,0.3125 -4.59375,1.53125 0.8125,-0.75 1,-3.21875 z m -17.84375,0.21875 5.65625,3.6875 0.03125,3.249997 -5.6875,-3.687497 0,-3.25 z m 26.125,0.4375 5,4.5625 -1.0625,0.406247 -3.90625,-3.562497 -0.03125,-1.40625 z m -10.40625,0.375 -0.65625,1.34375 0.1875,1.90625 -4.65625,1.562497 0.03125,-3.093747 5.09375,-1.71875 z m 8.53125,0.375 0,3.25 -8.78125,2.968747 0.03125,-3.124997 0.21875,-0.1875 5.84375,-2 0.875,0.1875 -0.21875,-0.40625 2.03125,-0.6875 z m -3.46875,0.75 0.4375,0.09375 -0.4375,0.15625 0,-0.25 z m 5.375,0.21875 3.625,3.312497 -1.21875,0.4375 -2.40625,-2.187497 0,-1.5625 z m 14.40625,0.3125 4.34375,3.437497 -9.875,3.625 0,-0.0937 -4.34375,-3.46875 9.875,-3.499997 z m -30.125,0.125 0,3.093747 -3.84375,1.3125 -0.03125,-3.093747 3.875,-1.3125 z m 66.093751,0.0625 0.0625,5.624997 -21.65625,7.65625 0,-5.59375 21.59375,-7.687497 z m -50.375001,1.40625 2.125,1.937497 -1.25,0.46875 -0.84375,-0.78125 -0.03125,-1.624997 z m -10.90625,0.21875 0.03125,0.21875 0.03125,-0.03125 0,2.999997 -8.71875,2.9375 0,-3.21875 8.65625,-2.906247 z m 9,0.34375 0,2.812497 -3.46875,1.21875 0.03125,-2.875 3.4375,-1.156247 z m -27.375,0.15625 8.84375,5.781247 0.03125,3.15625 -8.90625,-5.90625 0.03125,-3.031247 z m 5.375,0.25 3.4375,2.218747 0.03125,3 -3.5,-2.28125 0.03125,-2.937497 z m 46.21875,0.03125 0.125,1.906247 -2.96875,1.0625 -0.1875,-1.875 3.03125,-1.093747 z m 0.40625,0 5.562501,5.218747 0.0625,4.46875 -1,-0.46875 -0.0937,-1.21875 -1.5625,-0.90625 -0.0312,-1.46875 -1.375,-0.75 0.0312,-1.84375 -1.500001,-0.9375 -0.09375,-2.093747 z m -28.25,0.781247 0,2.875 -10.03125,3.5625 0.03125,-3.0625 10,-3.375 z m 5.5625,0.15625 0.59375,0.53125 -0.59375,0.21875 0,-0.75 z m 19.03125,0.25 0.21875,1.84375 -10.09375,3.59375 -0.0625,-0.0625 -0.1875,-1.6875 10.125,-3.6875 z m 3.40625,1.09375 1.28125,0.84375 -2.90625,1.03125 -1.21875,-0.875 2.84375,-1 z m -3.03125,1.0625 1.1875,0.875 -9.96875,3.53125 0,-0.0937 -1.125,-0.8125 9.90625,-3.5 z m 4.531251,0.0625 0,1.375 -2.687501,0.96875 -0.21875,-1.3125 2.906251,-1.03125 z m -39.687501,0.8125 0,3.0625 -3.8125,1.34375 -0.03125,-3.09375 3.84375,-1.3125 z m 36.59375,0.28125 0.1875,1.3125 -10.125,3.59375 -0.21875,-1.34375 10.15625,-3.5625 z m -12.125,0.4375 0.1875,1.6875 0.0625,0.0625 -1.84375,0.65625 -1.46875,-1.28125 3.0625,-1.125 z m 15.500001,0.0937 0.9375,0.5 -3.000001,1.0625 -0.84375,-0.53125 2.906251,-1.03125 z m 1.0625,0.875 0.0312,1.0625 -2.593751,0.90625 -0.125,-0.96875 -0.0625,-0.0312 2.750001,-0.96875 z m -4.187501,0.25 0.84375,0.53125 -9.84375,3.53125 -0.84375,-0.59375 9.84375,-3.46875 z m -11.78125,0.75 1.15625,0.875 0,0.0312 -2.03125,0.71875 -1.0625,-0.9375 1.9375,-0.6875 z m 13.03125,0.0312 0.0625,0.0312 0.09375,1 -10.09375,3.59375 -0.15625,-1.09375 10.09375,-3.53125 z m 3.187501,0.34375 1.03125,0.65625 -2.781251,1 -0.96875,-0.6875 2.718751,-0.96875 z m -15.031251,0.84375 0.1875,1.34375 0,0.0312 -0.84375,0.28125 -1.15625,-1.03125 1.8125,-0.625 z m 16.312501,0.15625 -0.0312,0.875 -2.65625,0.90625 -0.0625,-0.8125 2.75,-0.96875 z m -4.218751,0.0312 1,0.6875 -9.90625,3.53125 0,-0.0312 -1,-0.6875 9.90625,-3.5 z m 1.343751,0.96875 0.0625,0.8125 -10.218751,3.5 -0.0625,-0.75 10.218751,-3.5625 z m 3.09375,0.125 1.03125,0.53125 -2.96875,1.03125 -0.9375,-0.53125 0,-0.0625 2.875,-0.96875 z m -16.000001,0.3125 0.875,0.5625 -1.0625,0.375 -0.71875,-0.625 0.90625,-0.3125 z m 17.312501,0.5 0,1 -2.5625,0.875 0.0312,-0.71875 -0.3125,-0.15625 2.84375,-1 z m -4.3125,0.21875 0,0.0625 0.9375,0.53125 -9.968751,3.46875 -1.09375,-0.65625 10.125001,-3.40625 z m -11.968751,0.0937 0.09375,1.09375 0,0.0312 -0.9375,0.3125 0.25,-0.75 -0.375,-0.34375 0.96875,-0.34375 z m 13.312501,0.71875 0.21875,0.125 -0.0312,0.78125 -10.156251,3.5 0.03125,-0.90625 -0.03125,-0.0312 9.968751,-3.46875 z m -14.750001,0.28125 0,5.53125 -24.125,8.71875 -0.125,-5.4375 24.25,-8.8125 z m 1.875,0.34375 1.0625,0.71875 -2.3125,0.8125 0,-1.09375 1.25,-0.4375 z m 1.0625,1.03125 0.0625,0.75 -2.34375,0.78125 -0.03125,-0.71875 2.3125,-0.8125 z m 0.15625,1.03125 1.125,0.59375 -3.5625,1.25 0,-1.03125 2.4375,-0.8125 z m 1.5,0.84375 -0.03125,0.9375 -3.8125,1.3125 -0.0625,-0.875 3.90625,-1.375 z"
       id="path2308"
       inkscape:connector-curvature="0" />
  </g>
</svg>
