<?xml version="1.0" encoding="UTF-8" standalone="no"?>
<!-- Created with Inkscape (http://www.inkscape.org/) -->

<svg
   xmlns:dc="http://purl.org/dc/elements/1.1/"
   xmlns:cc="http://creativecommons.org/ns#"
   xmlns:rdf="http://www.w3.org/1999/02/22-rdf-syntax-ns#"
   xmlns:svg="http://www.w3.org/2000/svg"
   xmlns="http://www.w3.org/2000/svg"
   xmlns:xlink="http://www.w3.org/1999/xlink"
   xmlns:sodipodi="http://sodipodi.sourceforge.net/DTD/sodipodi-0.dtd"
   xmlns:inkscape="http://www.inkscape.org/namespaces/inkscape"
   width="126.55276"
   height="96.482788"
   id="svg2"
   sodipodi:version="0.32"
   inkscape:version="0.48.1 r9760"
   version="1.0"
   sodipodi:docname="nicubunu_RPG_map_symbols_stone_bridge_modified.svg"
   inkscape:output_extension="org.inkscape.output.svg.inkscape">
  <defs
     id="defs4">
    <linearGradient
       id="linearGradient2338">
      <stop
         style="stop-color:#b1b1b1;stop-opacity:1;"
         offset="0"
         id="stop2340" />
      <stop
         style="stop-color:#e4e4e4;stop-opacity:1;"
         offset="1"
         id="stop2342" />
    </linearGradient>
    <linearGradient
       inkscape:collect="always"
       xlink:href="#linearGradient2338"
       id="linearGradient2354"
       x1="70.083839"
       y1="38.958057"
       x2="85.617256"
       y2="65.010162"
       gradientUnits="userSpaceOnUse" />
    <linearGradient
       inkscape:collect="always"
       xlink:href="#linearGradient2338"
       id="linearGradient2939"
       x1="25.25"
       y1="54.0625"
       x2="29.125"
       y2="62.3125"
       gradientUnits="userSpaceOnUse" />
    <linearGradient
       inkscape:collect="always"
       xlink:href="#linearGradient2338"
       id="linearGradient2943"
       x1="39.75"
       y1="46.719757"
       x2="43.875"
       y2="29.594757"
       gradientUnits="userSpaceOnUse" />
    <linearGradient
       inkscape:collect="always"
       xlink:href="#linearGradient2338"
       id="linearGradient2947"
       x1="85.625"
       y1="31.25"
       x2="108"
       y2="24.75"
       gradientUnits="userSpaceOnUse" />
    <linearGradient
       inkscape:collect="always"
       xlink:href="#linearGradient2338"
       id="linearGradient2951"
       x1="55.5"
       y1="45.5"
       x2="58.625"
       y2="65.5"
       gradientUnits="userSpaceOnUse" />
    <linearGradient
       inkscape:collect="always"
       xlink:href="#linearGradient2338"
       id="linearGradient2961"
       x1="49.25"
       y1="77.3125"
       x2="48.875"
       y2="106.4375"
       gradientUnits="userSpaceOnUse" />
    <linearGradient
       inkscape:collect="always"
       xlink:href="#linearGradient2338"
       id="linearGradient2967"
       x1="57.875"
       y1="71.25"
       x2="100.125"
       y2="45.25"
       gradientUnits="userSpaceOnUse" />
    <linearGradient
       inkscape:collect="always"
       xlink:href="#linearGradient2338"
       id="linearGradient2973"
       x1="104.25"
       y1="48.5"
       x2="123.375"
       y2="40.875"
       gradientUnits="userSpaceOnUse" />
    <linearGradient
       inkscape:collect="always"
       xlink:href="#linearGradient2338"
       id="linearGradient2981"
       x1="57.625"
       y1="93.375"
       x2="117.75"
       y2="43.25"
       gradientUnits="userSpaceOnUse" />
    <linearGradient
       inkscape:collect="always"
       xlink:href="#linearGradient2338"
       id="linearGradient2987"
       x1="51.972347"
       y1="98.699265"
       x2="49.497475"
       y2="103.47223"
       gradientUnits="userSpaceOnUse" />
    <linearGradient
       inkscape:collect="always"
       xlink:href="#linearGradient2338"
       id="linearGradient2991"
       x1="117.99844"
       y1="52.95829"
       x2="116.761"
       y2="55.963497"
       gradientUnits="userSpaceOnUse" />
    <filter
       inkscape:collect="always"
       id="filter3267"
       color-interpolation-filters="sRGB">
      <feGaussianBlur
         inkscape:collect="always"
         stdDeviation="1.6952885"
         id="feGaussianBlur3269" />
    </filter>
  </defs>
  <sodipodi:namedview
     id="base"
     pagecolor="#ffffff"
     bordercolor="#666666"
     borderopacity="1.0"
     gridtolerance="10000"
     guidetolerance="10"
     objecttolerance="10"
     inkscape:pageopacity="0.0"
     inkscape:pageshadow="2"
     inkscape:zoom="1"
     inkscape:cx="65.240265"
     inkscape:cy="49.514046"
     inkscape:document-units="px"
     inkscape:current-layer="layer2"
     showgrid="false"
     width="744.09px"
     inkscape:window-width="1248"
     inkscape:window-height="975"
     inkscape:window-x="426"
     inkscape:window-y="24"
     fit-margin-top="10"
     fit-margin-left="0"
     fit-margin-right="0"
     fit-margin-bottom="0"
     inkscape:window-maximized="0" />
  <metadata
     id="metadata7">
    <rdf:RDF>
      <cc:Work
         rdf:about="">
        <dc:format>image/svg+xml</dc:format>
        <dc:type
           rdf:resource="http://purl.org/dc/dcmitype/StillImage" />
        <dc:title />
      </cc:Work>
    </rdf:RDF>
  </metadata>
  <g
     inkscape:groupmode="layer"
     id="layer2"
     inkscape:label="colors"
     transform="translate(1.2402654,-17.03125)">
    <path
       style="fill:#000000;fill-opacity:0.6877828;fill-rule:evenodd;stroke:none;filter:url(#filter3267)"
       d="M 113.31386,56.405438 91.747105,60.648079 47.729708,72.138564 25.455844,109.26167 19.975767,99.538952 22.273864,85.927146 5.6568543,79.386409 2.8284271,77.265088 9.7227183,66.658487 19.975767,56.582215 l 48.083261,-6.363961 38.890872,0.53033 6.36396,5.656854 z"
       id="path3225"
       inkscape:connector-curvature="0" />
    <path
       style="fill:url(#linearGradient2354);fill-opacity:1;fill-rule:evenodd;stroke:none"
       d="M 6.9716906,79.320476 40.48473,53.879921 86.718047,35.655677 l 21.217093,-1.493515 2.94054,1.47027 3.54594,2.335136 3.28649,2.767567 1.72973,2.508108 -18.33513,2.594594 -46.789196,25.427028 -28.972973,33.902705 -2.767568,-3.37298 -3.805405,-3.632428 -2.335136,-2.681081 -3.027027,-3.718919 C 11.690076,89.801802 10.732907,87.841441 9.427027,85.881081 L 6.9716906,79.320476 z"
       id="path2352"
       sodipodi:nodetypes="ccccccccccccccccc"
       inkscape:connector-curvature="0" />
    <path
       sodipodi:nodetypes="cccccccc"
       id="path2935"
       d="m 87.69653,35.288746 20.23861,-1.126584 2.94054,1.47027 3.54594,2.335136 3.28649,2.767567 1.72973,2.508108 L 99.390365,46.449389 87.69653,35.288746 z"
       style="fill:#ffffff;fill-opacity:0.1254902;fill-rule:evenodd;stroke:none"
       inkscape:connector-curvature="0" />
    <path
       style="fill:url(#linearGradient2939);fill-rule:evenodd;stroke:none"
       d="m 2.25,76.75 32,-32 3,3 L 4.875,79.875 2.25,76.75 z"
       id="path2937"
       inkscape:connector-curvature="0" />
    <path
       style="fill:url(#linearGradient2943);fill-rule:evenodd;stroke:none"
       d="m 34.25,44.625 50,-17 2.25,3.125 c 0,0 -49,16.625 -48.875,17.25 0.125,0.625 -3.125,-3.5 -3.375,-3.375 z"
       id="path2941"
       inkscape:connector-curvature="0" />
    <path
       style="fill:url(#linearGradient2947);fill-rule:evenodd;stroke:none"
       d="m 84,27.25 2.5,3.375 24.375,0.625 -3.5,-2.5 C 99.583279,28.250027 91.097597,28.097035 84,27.25 z"
       id="path2945"
       sodipodi:nodetypes="ccccc"
       inkscape:connector-curvature="0" />
    <path
       style="fill:url(#linearGradient2951);fill-rule:evenodd;stroke:none"
       d="M 5.25,79.875 37.375,48 86.25,30.875 l 24.375,0.375 1.375,1.625 -4.125,1 L 87,35.5 40.75,53.625 11,76.5 5.25,79.875 z"
       id="path2949"
       inkscape:connector-curvature="0" />
    <path
       id="path2953"
       d="m 2.25,76.75 32,-32 3,3 L 4.875,79.875 2.25,76.75 z"
       style="fill:#000000;fill-opacity:0.15686275;fill-rule:evenodd;stroke:none"
       inkscape:connector-curvature="0" />
    <path
       sodipodi:nodetypes="ccccc"
       id="path2955"
       d="m 84,27.25 2.5,3.375 24.375,0.625 -3.5,-2.5 C 99.583279,28.250027 91.097597,28.097035 84,27.25 z"
       style="fill:#ffffff;fill-opacity:0.1254902;fill-rule:evenodd;stroke:none"
       inkscape:connector-curvature="0" />
    <path
       sodipodi:nodetypes="cccccccccccc"
       id="path2356"
       d="M 6.9716906,79.320476 5.2727458,79.651487 37.442972,48.33954 40.48473,53.879921 54.313514,71.264865 25.340541,105.16757 22.572973,101.79459 18.767568,98.162162 16.432432,95.481081 13.405405,91.762162 C 11.690076,89.801802 10.732907,87.841441 9.427027,85.881081 L 6.9716906,79.320476 z"
       style="fill:#000000;fill-opacity:0.15686275;fill-rule:evenodd;stroke:none"
       inkscape:connector-curvature="0" />
    <path
       style="fill:#ffffff;fill-opacity:0.1254902;fill-rule:evenodd;stroke:none"
       d="M 5.375,79.375 37,48 86,30.625 l 25.125,0.75 0.5,0.75 -25.25,0.5 -47.25,16.5 L 9.625,77.25 7,79.5 5.375,79.375 z"
       id="path2957"
       inkscape:connector-curvature="0" />
    <path
       style="fill:url(#linearGradient2961);fill-rule:evenodd;stroke:none"
       d="m 22.875,107.375 30.875,-35.75 3.375,2.625 -30.75,36.5 -3.5,-3.375 z"
       id="path2959"
       inkscape:connector-curvature="0" />
    <path
       id="path2963"
       d="m 22.875,107.375 30.875,-35.75 3.375,2.625 -30.75,36.5 -3.5,-3.375 z"
       style="fill:#000000;fill-opacity:0.15686275;fill-rule:evenodd;stroke:none"
       inkscape:connector-curvature="0" />
    <path
       style="fill:url(#linearGradient2967);fill-rule:evenodd;stroke:none"
       d="m 54.25,71 47,-25.125 L 103.375,49 57.625,74.125 54.25,71 z"
       id="path2965"
       inkscape:connector-curvature="0" />
    <path
       style="fill:url(#linearGradient2973);fill-rule:evenodd;stroke:none"
       d="M 101.375,46.375 123.625,42.75 125,45 l -22,3.5 -1.625,-2.125 z"
       id="path2971"
       inkscape:connector-curvature="0" />
    <path
       id="path2975"
       d="M 101.375,46.375 123.625,42.75 125,45 l -22,3.5 -1.625,-2.125 z"
       style="fill:#ffffff;fill-opacity:0.1254902;fill-rule:evenodd;stroke:none"
       inkscape:connector-curvature="0" />
    <path
       style="fill:url(#linearGradient2981);fill-rule:evenodd;stroke:none"
       d="m 26.25,110.875 31.5,-36.75 45.375,-25.375 21.5,-3.625 -1.60355,0.823223 L 124,48.25 l 0.5,2 -0.125,1.5 -0.21339,1.154029 c -0.45907,0.778573 -0.97585,1.470574 -1.66919,1.897748 L 121.125,54.75 119.375,54.882583 119,51.875 115.5,54 l -1,2.625 -4.75,-0.875 -10,1.875 -10.5,4.375 -12,6.625 -7,5 -5.875,6 -2.125,2.5 -2.25,2.5 -2.125,3.75 -2,3.75 L 53.75,98.441942 44.875,100 46,104.125 l 9.125,-4.25 0,0.875 -1,1.5 -2.875,2.25 -3.25,2.5 -2.375,2 -2,2.375 -3,1.5 -2.875,0.25 -4.875,-0.125 -2.5,-0.5 -2.125,-0.625 -0.625,-0.375 -0.375,-0.5 -1,-0.125 z"
       id="path2979"
       sodipodi:nodetypes="ccccccccccccccccccccccccccccccccccccccccccc"
       inkscape:connector-curvature="0" />
    <path
       style="fill:#ffffff;fill-opacity:0.1254902;fill-rule:evenodd;stroke:none"
       d="m 26.625,110.75 1.625,0.625 30.125,-35.625 46.125,-25.5 19.875,-5 -20.875,3.25 -45.875,25.375 -31,36.875 z"
       id="path2977"
       inkscape:connector-curvature="0" />
    <path
       style="fill:url(#linearGradient2987);fill-rule:evenodd;stroke:none"
       d="m 44.724504,99.980894 c 1.149049,0 9.369165,-1.767767 9.369165,-1.767767 l 1.149048,1.767767 -9.369164,3.977476 -1.149049,-3.977476 z"
       id="path2985"
       inkscape:connector-curvature="0" />
    <path
       style="fill:url(#linearGradient2991);fill-rule:evenodd;stroke:none"
       d="m 114.37452,56.670603 0.70711,-2.65165 4.06586,-1.856155 0,2.563262 -0.0884,0.265165 -1.76776,0.53033 -1.14905,0.441942 -1.32583,0.972271 -0.44194,-0.265165 z"
       id="path2989"
       inkscape:connector-curvature="0" />
    <path
       style="fill:#ffffff;fill-opacity:0.1254902;fill-rule:evenodd;stroke:none"
       d="m 53.563339,97.859573 2.032932,-5.3033 3.18198,-5.92202 6.98268,-8.750446 8.220116,-7.071068 13.346641,-8.220116 13.700192,-5.568466 8.13173,-1.414214 5.39169,0.972272 0.44194,-2.209709 -5.48008,-0.795495 -6.45235,1.237437 -6.275569,2.12132 -4.419418,1.767767 -4.507805,2.032932 -3.889088,2.032932 -3.18198,2.032932 -2.740039,1.502602 -3.18198,2.209709 -2.828428,1.856155 -2.916815,2.474874 -3.358757,3.005204 -4.065864,4.065864 -2.121321,3.005204 -4.154252,6.275572 -3.358757,7.336233 -0.353554,2.209709 2.209709,-0.176777 -0.353553,-0.707107 z"
       id="path2993"
       inkscape:connector-curvature="0" />
  </g>
  <g
     inkscape:label="outline"
     inkscape:groupmode="layer"
     id="layer1"
     transform="translate(1.2402654,-17.03125)">
    <path
       style="fill:#000000;fill-opacity:1;fill-rule:evenodd;stroke:none"
       d="M 83.8125,27.03125 34.09375,44.25 l -32.625,33.0625 3.3125,3.3125 2.0625,-0.78125 c 3.26438,10.307213 11.163163,17.280517 17.875,24.9375 l -2.40625,2.625 4.0625,4.34375 0.9375,-0.40625 c 0.01091,0.11405 0.469479,0.55261 0.75,0.625 5.525098,1.56048 10.849083,2.72918 15.9375,-0.5625 2.521359,-3.95288 6.968989,-5.86567 10.25,-9.125 1.579437,-1.689 1.819452,-3.016524 0,-4.40625 2.91455,-13.83777 16.336794,-25.458407 29.875,-32.9375 6.82111,-3.76828 13.581553,-6.584483 19.125,-7.90625 3.63125,-0.772525 7.75164,-1.78718 11.125,0.1875 1.96298,-1.377411 5.02473,-2.674304 8.125,-2.3125 3.32685,-2.344322 2.05534,-5.481246 0.78125,-8.71875 l 2.03125,-1.21875 -1.78125,-2.4375 -3.8125,0.375 C 117.19724,39.895937 114.02468,36.895083 108.125,34.25 L 112.25,33.0625 112.21875,32 107.40625,28.71875 83.8125,27.03125 z m 1.375,0.8125 c 7.215884,0.686685 14.89073,0.965099 22.125,1.40625 l 2.8125,1.90625 -23.4375,-0.90625 -1.5,-2.40625 z M 83.875,28.0625 85.75,30.3125 37.53125,47.21875 34.9375,45 83.875,28.0625 z M 86.1875,31.21875 110.75,31.75 110.90625,32.09375 86.5,32.3125 38.5625,49.09375 l -28.21875,26.875 -4.5,3.46875 32.125,-31.3125 48.21875,-16.90625 z m 23.96875,1.21875 1.3125,0.5 -4.09375,1 -20.78125,1.46875 -46.25,18.0625 L 11.28125,75.9375 38.90625,49.5 86.625,32.8125 l 23.53125,-0.375 z m -3.4375,1.875 c 3.07463,-0.399542 12.00143,6.346809 11.90625,8.84375 L 100.96875,45.5625 53.8125,70.625 25.03125,104.4375 C 21.101015,99.965227 16.617817,96.015837 13.093782,91.320035 10.507475,87.873764 8.524299,83.910117 7.21875,79.625 L 40.625,53.90625 86.78125,35.875 l 19.9375,-1.5625 z m -9.625,1.03125 -0.4375,0.4375 0.5625,0.625 L 92.5,37.125 l 0,0.625 c 2.029434,-0.304837 3.606154,-0.601413 5.125,-0.90625 l 1.71875,1.90625 -0.40625,0.0625 0.25,0.4375 0.53125,-0.09375 2.3125,2.5625 0.5,-0.25 -2.15625,-2.4375 6.28125,-1.21875 3.84375,4.0625 -1.71875,0.4375 0.1875,0.5625 1.96875,-0.53125 0.71875,0.75 0.625,-0.0625 -0.78125,-0.84375 2.03125,-0.5625 -0.125,-0.5 -2.34375,0.59375 -3.75,-4.03125 3.3125,-0.625 0.0625,-0.4375 -3.75,0.6875 -1.78125,-1.90625 -0.625,0.1875 1.75,1.84375 L 100,38.625 98.3125,36.6875 c 0.121164,-0.02458 0.254012,-0.03792 0.375,-0.0625 l 0,-0.4375 -0.75,0.125 -0.84375,-0.96875 z M 84.3125,38.5 83.875,38.8125 c 1.916298,2.881424 4.245205,5.458387 6.65625,7.96875 -2.476196,1.132728 -4.961304,2.239777 -7.4375,3.53125 L 80,46.6875 l -0.25,0.375 c 0.862859,1.188243 1.750759,2.374257 2.75,3.5625 -1.138368,0.610025 -2.267882,1.265171 -3.40625,2 l 0.375,0.4375 3.5625,-1.8125 c 0.586645,0.666673 1.210624,1.333327 1.90625,2 l 0.4375,-0.3125 -1.71875,-2 7.28125,-3.71875 c 0.476862,0.493251 0.957496,0.977856 1.4375,1.46875 L 92.5,48.25 l -1.0625,-1.28125 1.53125,-0.78125 -0.3125,-0.375 c -0.535261,0.256283 -1.058489,0.503215 -1.59375,0.75 L 84.3125,38.5 z m -0.90625,3.03125 c -4.541016,2.296122 -9.334404,4.283563 -14.15625,6.40625 -0.373834,-0.415966 -0.757213,-0.821938 -1.125,-1.25 l -0.1875,0.375 0.78125,1.09375 c -2.786788,1.234061 -5.575844,2.514656 -8.3125,3.96875 L 58,49.0625 57.6875,49.5 l 2.25,2.875 c -0.804177,0.433606 -1.612573,0.879181 -2.40625,1.34375 l 0.0625,0.625 c 0.907284,-0.52473 1.807878,-1.017407 2.71875,-1.5 l 5.40625,6.9375 c -2.348215,1.067781 -4.714285,2.038443 -7.0625,3.15625 l -3.1875,-3.4375 -0.4375,0.1875 c 1.105192,1.2193 1.930632,2.356634 3,3.5625 -1.439683,0.70677 -2.872817,1.470985 -4.3125,2.40625 l 0.25,0.5625 L 58.625,63.875 c 0.663675,0.701073 1.402375,1.421352 2.40625,2.25 l 0.3125,-0.25 -2.125,-2.3125 6.8125,-3.4375 0.71875,0.9375 0.3125,-0.4375 -0.5625,-0.71875 0.71875,-0.375 -0.125,-0.375 c -0.293375,0.141273 -0.581625,0.270346 -0.875,0.40625 l -5.4375,-6.96875 c 2.762091,-1.443519 5.544924,-2.731281 8.3125,-3.96875 L 73.25,54.3125 73.5625,54 c -1.07162,-2.343395 -2.466829,-4.017208 -3.90625,-5.625 4.528178,-2.017405 9.036091,-3.946498 13.4375,-6.34375 l 0.3125,-0.5 z m 39.71875,1.5 1.125,1.6875 L 103.3125,48 102.34375,46.4375 123.125,43.03125 z m 0.71875,2.25 L 103.75,50 58.1875,75.4375 28.0625,111 27.1875,110.1875 57.875,74.375 57.90625,74.34375 103.46875,49 l 20.375,-3.71875 z m -89.8125,0.25 L 36.75,47.875 4.78125,79.21875 2.875,77.3125 34.03125,45.53125 z m 88.84375,0.375 c 1.72747,2.648294 2.4523,6.719847 -0.34375,8.78125 -1.03189,-0.06936 -2.07283,-0.02961 -3.09375,0.125 l -0.40625,-3.21875 -4.5,2.34375 c -3.59227,-1.606636 -8.26346,-0.112675 -11.96875,0.84375 -5.875218,1.598632 -12.72958,4.57122 -19.8125,8.5 C 76.057163,67.784012 58.499895,75.904185 51.21875,98.625 l -6.65625,1.09375 1.28125,4.6875 9,-4.15625 c 0.03971,0.55471 -0.192628,1.1368 -0.625,1.6875 C 50.437109,104.96093 46.717502,106.9818 43.875,111 39.602823,114.39571 32.802167,112.95367 28,111.78125 L 58.53125,75.875 l 45.5,-25.28125 18.84375,-4.6875 z M 101,46.4375 102.6875,48.28125 57.28125,73.5625 57.25,73.59375 54.59375,71.3125 101,46.4375 z m 17.9375,5.875 0.0625,2.59375 c -1.42683,0.270219 -2.79026,0.763463 -3.9375,1.625 L 115.53125,54.5 c -0.0244,-0.01627 -0.0379,-0.04659 -0.0625,-0.0625 l 3.46875,-2.125 z m -10.375,1.90625 c 1.96254,-0.07557 3.93529,0.10371 5.90625,0.5 l -0.3125,1.21875 c -3.51375,-1.550345 -7.51203,-0.69358 -11.125,0.09375 -23.237495,7.238649 -42.151975,20.023631 -49.8125,41.90625 l -0.875,0.125 C 55.686286,83.480495 69.01907,71.369741 82.8125,63.71875 89.825264,59.828885 96.966978,56.761046 102.75,55.1875 c 1.92351,-0.563685 3.84996,-0.893181 5.8125,-0.96875 z m -68.59375,5.15625 -0.375,0.3125 9.125,11.625 0.5,-0.3125 -9.25,-11.625 z m -8.25,3.5625 -0.625,0.375 c 0.406344,0.568512 0.793563,1.146102 1.1875,1.71875 -2.083334,1.479566 -4.129656,2.994944 -6.125,4.5625 -0.416342,-0.502349 -0.832877,-0.998693 -1.25,-1.5 l -0.125,0.375 1,1.4375 c -2.677499,2.114466 -5.287032,4.296004 -7.875,6.5 l -1.125,-1.5625 -0.3125,0.3125 c 0.344224,0.533952 0.686355,1.060604 1.03125,1.59375 -1.000372,0.853806 -2.004578,1.703744 -3,2.5625 l 0.3125,0.4375 3.0625,-2.46875 c 3.359196,5.1821 6.745785,10.304423 10.5625,14.9375 l -5.53125,5.03125 0.3125,0.4375 c 2.122767,-1.667213 4.137784,-3.306296 5.71875,-4.875 0.520044,0.619941 1.057888,1.24279 1.59375,1.84375 l 0.375,-0.4375 -1.4375,-1.96875 c 0.692465,-0.727087 1.289633,-1.440113 1.75,-2.125 l -0.1875,-0.25 -1.96875,1.8125 -10.75,-14.75 7.90625,-6.375 4.15625,6 c -0.837955,0.878509 -1.670567,1.751227 -2.46875,2.65625 l 0.3125,0.5 2.5625,-2.53125 4.125,5.96875 0.375,-0.1875 C 34.154657,80.622076 32.851722,78.504835 31.46875,76.5 l 5.1875,-5.0625 c 1.631902,2.31393 3.374267,4.579847 5.4375,6.75 l 0.5625,-0.625 -5.1875,-6.90625 3,-2.9375 -0.5625,-0.375 c -0.961202,0.886583 -1.921262,1.795941 -2.875,2.6875 l -3.84375,-5.125 1,-0.78125 L 34,63.8125 c -0.358357,0.245909 -0.707292,0.500943 -1.0625,0.75 l -1.21875,-1.625 z m 0.84375,2.5 c 1.219458,1.78397 2.388671,3.596654 3.625,5.375 -1.762586,1.660509 -3.485443,3.340805 -5.15625,5.0625 -1.394463,-1.96864 -2.871937,-3.832409 -4.375,-5.65625 L 32.5625,65.4375 z m 21.3125,6.59375 2.71875,2.3125 -30.34375,35.8125 -2.5625,-2.78125 2.0625,-2.25 0.03125,-0.0312 0.03125,0.0625 28.0625,-33.125 z m 0,26.78125 c 0.389772,0.250252 0.660609,0.533669 0.8125,0.84375 l -8.53125,3.90625 -1.09375,-3.375 5.9375,-0.875 0.625,-0.09375 2.25,-0.40625 z"
       id="path2308"
       sodipodi:nodetypes="cccccccccccccscccccccccccccccccccccccccccccccccccccccccccccscccccccccccccccccccccccccccccccccccccccccccccccccccccccccccccccccccccccccccccccccccccccccccccccccccccccccccccccccccccccccccccccccccccccccccccccccccccccccscccccccccccccccccccccccccccccccccccccccccccccccccccccccccccccccccccccccc"
       inkscape:connector-curvature="0" />
  </g>
</svg>
