<?xml version="1.0" encoding="UTF-8" standalone="no"?>
<!-- Created with Inkscape (http://www.inkscape.org/) -->

<svg
   xmlns:dc="http://purl.org/dc/elements/1.1/"
   xmlns:cc="http://creativecommons.org/ns#"
   xmlns:rdf="http://www.w3.org/1999/02/22-rdf-syntax-ns#"
   xmlns:svg="http://www.w3.org/2000/svg"
   xmlns="http://www.w3.org/2000/svg"
   xmlns:xlink="http://www.w3.org/1999/xlink"
   xmlns:sodipodi="http://sodipodi.sourceforge.net/DTD/sodipodi-0.dtd"
   xmlns:inkscape="http://www.inkscape.org/namespaces/inkscape"
   width="88.514862"
   height="124.43293"
   id="svg2"
   sodipodi:version="0.32"
   inkscape:version="0.48.1 r9760"
   version="1.0"
   sodipodi:docname="nicubunu_RPG_map_symbols_Statue_modified.svg"
   inkscape:output_extension="org.inkscape.output.svg.inkscape">
  <defs
     id="defs4">
    <linearGradient
       id="linearGradient2404">
      <stop
         style="stop-color:#b49900;stop-opacity:1;"
         offset="0"
         id="stop2406" />
      <stop
         id="stop2412"
         offset="0.5"
         style="stop-color:#ffda0a;stop-opacity:1;" />
      <stop
         style="stop-color:#c6a800;stop-opacity:1;"
         offset="1"
         id="stop2408" />
    </linearGradient>
    <filter
       inkscape:collect="always"
       id="filter3032"
       color-interpolation-filters="sRGB">
      <feGaussianBlur
         inkscape:collect="always"
         stdDeviation="1.9321456"
         id="feGaussianBlur3034" />
    </filter>
    <linearGradient
       id="linearGradient2338">
      <stop
         id="stop2340"
         offset="0"
         style="stop-color:#b1b1b1;stop-opacity:1;" />
      <stop
         id="stop2342"
         offset="1"
         style="stop-color:#e4e4e4;stop-opacity:1;" />
    </linearGradient>
    <linearGradient
       inkscape:collect="always"
       xlink:href="#linearGradient2338"
       id="linearGradient2380"
       x1="44.643284"
       y1="110.23442"
       x2="46.111008"
       y2="108.52208"
       gradientUnits="userSpaceOnUse" />
    <linearGradient
       inkscape:collect="always"
       xlink:href="#linearGradient2338"
       id="linearGradient2384"
       x1="65.608749"
       y1="117.84824"
       x2="87.829597"
       y2="106.84031"
       gradientUnits="userSpaceOnUse" />
    <linearGradient
       inkscape:collect="always"
       xlink:href="#linearGradient2338"
       id="linearGradient2388"
       x1="43.848263"
       y1="101.12229"
       x2="56.75201"
       y2="84.977325"
       gradientUnits="userSpaceOnUse" />
    <linearGradient
       inkscape:collect="always"
       xlink:href="#linearGradient2338"
       id="linearGradient2392"
       x1="61.022114"
       y1="110.63193"
       x2="80.919067"
       y2="76.323868"
       gradientUnits="userSpaceOnUse" />
    <linearGradient
       inkscape:collect="always"
       xlink:href="#linearGradient2338"
       id="linearGradient2396"
       x1="56.079304"
       y1="117.32843"
       x2="85.005699"
       y2="104.91393"
       gradientUnits="userSpaceOnUse" />
    <linearGradient
       inkscape:collect="always"
       xlink:href="#linearGradient2338"
       id="linearGradient2400"
       x1="46.967178"
       y1="70.23893"
       x2="78.767876"
       y2="73.357849"
       gradientUnits="userSpaceOnUse" />
    <linearGradient
       inkscape:collect="always"
       xlink:href="#linearGradient2404"
       id="linearGradient2410"
       x1="52.843243"
       y1="47.394596"
       x2="69.535141"
       y2="44.324326"
       gradientUnits="userSpaceOnUse" />
    <linearGradient
       inkscape:collect="always"
       xlink:href="#linearGradient2404"
       id="linearGradient2999"
       x1="66.382431"
       y1="62.175507"
       x2="75.691048"
       y2="48.337669"
       gradientUnits="userSpaceOnUse" />
    <linearGradient
       inkscape:collect="always"
       xlink:href="#linearGradient2404"
       id="linearGradient3001"
       x1="34.271114"
       y1="37.669426"
       x2="43.368412"
       y2="33.3451"
       gradientUnits="userSpaceOnUse" />
    <linearGradient
       inkscape:collect="always"
       xlink:href="#linearGradient2404"
       id="linearGradient3003"
       x1="64.345947"
       y1="21.102703"
       x2="55.697296"
       y2="33.5"
       gradientUnits="userSpaceOnUse" />
    <linearGradient
       inkscape:collect="always"
       xlink:href="#linearGradient2404"
       id="linearGradient3007"
       x1="23.913916"
       y1="-16.907896"
       x2="38.745945"
       y2="34.767567"
       gradientUnits="userSpaceOnUse" />
    <linearGradient
       inkscape:collect="always"
       xlink:href="#linearGradient2404"
       id="linearGradient3019"
       x1="50.027805"
       y1="72.801476"
       x2="101.38143"
       y2="31.524117"
       gradientUnits="userSpaceOnUse" />
  </defs>
  <sodipodi:namedview
     id="base"
     pagecolor="#ffffff"
     bordercolor="#666666"
     borderopacity="1.0"
     gridtolerance="10000"
     guidetolerance="10"
     objecttolerance="10"
     inkscape:pageopacity="0.0"
     inkscape:pageshadow="2"
     inkscape:zoom="4"
     inkscape:cx="58.265866"
     inkscape:cy="60.529707"
     inkscape:document-units="px"
     inkscape:current-layer="layer2"
     showgrid="false"
     width="744.09px"
     inkscape:window-width="1248"
     inkscape:window-height="929"
     inkscape:window-x="409"
     inkscape:window-y="24"
     showguides="true"
     inkscape:guide-bbox="true"
     inkscape:window-maximized="0"
     fit-margin-top="5"
     fit-margin-left="0"
     fit-margin-right="0"
     fit-margin-bottom="0" />
  <metadata
     id="metadata7">
    <rdf:RDF>
      <cc:Work
         rdf:about="">
        <dc:format>image/svg+xml</dc:format>
        <dc:type
           rdf:resource="http://purl.org/dc/dcmitype/StillImage" />
        <dc:title></dc:title>
      </cc:Work>
    </rdf:RDF>
  </metadata>
  <g
     inkscape:groupmode="layer"
     id="layer2"
     inkscape:label="colors"
     transform="translate(-5.7341336,-1.8125)">
    <path
       style="fill:#000000;fill-opacity:0.70588235;fill-rule:evenodd;stroke:none;filter:url(#filter3032)"
       d="m 10.371283,46.277196 c 0.615164,1.763992 0.71025,3.606814 1.64344,5.3226 3.589454,4.056554 7.434671,8.170947 10.864768,12.191464 -1.051969,0.02571 -2.537096,0.860727 -2.527958,1.812278 -0.854109,1.158711 1.296153,1.109393 2.625591,1.314671 0.261024,0.520608 -0.238676,1.830857 0.476191,2.733452 0.688693,0.831662 1.694542,2.391856 2.946298,1.244957 1.217038,-0.624978 2.489682,-1.143289 4.26589,-0.695657 2.46177,0.277222 5.060215,0.414157 7.433605,0.944376 2.152521,1.257166 4.610552,2.355039 5.819214,4.104334 1.20619,0.920581 1.598256,1.892587 1.112658,2.920032 1.326766,0.73724 0.829279,1.995652 1.070817,3.003564 -0.14979,0.979086 0.791991,2.257647 0.384478,3.059026 -4.08285,1.110687 -9.850684,4.179252 -13.991079,5.218983 1.094033,5.783075 2.188067,5.68507 3.2821,11.468144 -1.984743,0.7082 -1.001282,0.75298 -3.035974,1.4098 4.540053,6.62061 16.436602,15.34358 23.898205,19.27906 6.708007,-4.10627 28.874256,-9.79386 32.972322,-15.41767 -0.792717,-2.33877 -7.041855,2.38298 -9.343756,0.35557 C 78.754386,101.1475 77.21951,95.749254 75.693739,90.350824 72.38963,88.67036 69.074835,86.999628 65.766236,85.323257 c -0.372263,-2.604814 1.854148,-4.823365 1.190976,-7.467227 -0.221284,-3.448461 -1.678425,-6.968932 -3.76192,-10.3147 -1.832233,1.111313 -3.821864,2.426272 -6.444557,2.905274 0.208565,-1.011449 0.688031,-2.022426 -0.391655,-3.036123 -0.465335,-1.364166 -2.674542,-1.906134 -4.497477,-2.094467 -2.975381,-0.565308 1.51867,-1.289131 -0.12254,-1.983544 -2.786838,-1.153445 0.0018,-1.023028 -0.394485,-1.916638 -0.93866,-0.961403 -1.592465,-1.911917 -0.906405,-2.886808 0.592998,-1.621011 -0.03326,-3.466951 -1.523535,-5.03348 -1.280646,-1.814999 0.07064,0.628256 -0.416569,1.242913 -0.308057,1.004132 -0.511272,2.037517 -1.2081,2.933183 -1.449536,-0.750884 -2.819222,-0.992023 -4.139714,-0.329677 -1.168852,0.812324 -2.336981,1.441921 -3.496775,-0.03892 -1.776506,-1.327914 -3.051499,-2.883976 -4.615225,-4.308688 1.087204,2.141853 0.510811,4.512429 2.879277,6.420563 0.572734,0.914663 3.367328,1.379377 2.764342,2.374716 -0.321228,1.05045 0.552929,1.852173 1.013822,2.796783 1.176503,1.399345 -0.10557,1.662045 -1.987812,1.647277 -2.049277,-0.126282 -2.546477,1.582596 -4.368052,1.657918 -1.971787,-0.724568 -3.735111,-1.64323 -5.350934,-2.699226 0.339107,-0.818858 1.551892,-2.226459 -0.264462,-2.69699 -1.253784,-0.295057 -3.03884,1.007801 -3.499407,-0.288366 -2.907113,-4.117201 -6.087665,-8.184572 -8.19443,-12.447626 -2.553105,-1.160736 -5.10621,-2.321472 -7.659316,-3.482208 z"
       id="path2964"
       sodipodi:nodetypes="ccccccccccccccccccccccccccccccccccccccccccccc"
       inkscape:connector-curvature="0" />
    <path
       style="fill:url(#linearGradient2400);fill-rule:evenodd;stroke:none"
       d="M 42.502851,70.208354 57.730491,84.335201 82.86527,74.183441 68.188027,61.279697 54.795042,65.254784 42.502851,70.208354 z"
       id="path2398"
       inkscape:connector-curvature="0" />
    <path
       style="fill:url(#linearGradient2396);fill-rule:evenodd;stroke:none"
       d="M 35.653471,99.44053 57.057784,118.76557 90.815444,105.6172 80.96946,95.710064 42.808627,96.01584 35.653471,99.44053 z"
       id="path2394"
       inkscape:connector-curvature="0" />
    <path
       style="fill:url(#linearGradient2388);fill-rule:evenodd;stroke:none"
       d="M 42.13592,70.024888 41.707834,100.60248 57.669336,114.11777 57.730491,84.274045 42.13592,70.024888 z"
       id="path2386"
       inkscape:connector-curvature="0" />
    <path
       style="fill:url(#linearGradient2380);fill-rule:evenodd;stroke:none"
       d="m 35.103074,99.562841 -0.305776,2.262739 22.138176,19.99775 0.489241,-0.24462 -0.366931,-2.8743 -21.95471,-19.141569 z"
       id="path2378"
       sodipodi:nodetypes="cccccc"
       inkscape:connector-curvature="0" />
    <path
       style="fill:#ffffff;fill-opacity:0.1254902;fill-rule:evenodd;stroke:none"
       d="m 70.0625,63.125 -7,2.1875 -7.625,13.125 -0.6875,2.4375 2.9375,3.71875 25.25,-10.46875 -12.875,-11 z m 13.75,35.8125 0.34375,5.53125 -26.46875,9.6875 -0.6875,4.9375 34.0625,-13.5 -7.25,-6.65625 z"
       id="path2949"
       inkscape:connector-curvature="0" />
    <path
       style="fill:url(#linearGradient3019);fill-rule:evenodd;stroke:none"
       d="m 55.331106,78.325749 -3.270369,-2.298098 -2.032932,-2.740038 0.08839,-2.209709 2.563262,-2.828427 2.828427,-0.972272 8.838835,-0.53033 2.563262,0.353553 5.833631,1.060661 2.298097,0.972271 1.414214,3.270369 -2.032932,3.270369 -4.419418,2.209709 -5.568466,0.972272 -3.447145,-0.08839 -5.656854,-0.441941 z"
       id="path3017"
       sodipodi:nodetypes="cccccccccccccccc"
       inkscape:connector-curvature="0" />
    <path
       style="fill:url(#linearGradient2410);fill-opacity:1;fill-rule:evenodd;stroke:none"
       d="m 28.194595,7.5243243 0.172973,7.6108107 8.302702,18.940541 -2.421621,1.21081 -0.951352,2.681082 3.027027,0.864864 -0.691892,1.556757 0.172973,2.854054 1.297298,2.421622 3.718919,-2.162162 5.102702,0.778378 3.978379,0.778379 3.805405,3.805405 2.248649,4.756757 -0.605406,2.421621 0.691892,0.691892 -0.172973,2.421622 -0.259459,2.508108 0.08649,5.535135 c 0.164688,2.40211 -1.779451,3.990609 -3.228527,5.470568 l 2.796095,5.513216 1.383784,2.421621 1.556756,0.518919 1.816217,-0.691892 0.951351,-1.556756 -1.563461,-7.340037 3.160061,-0.955155 5.938136,4.440338 c 1.423792,-0.358139 2.706832,0.550486 4.341441,-1.705006 L 72.161066,70.876175 C 69.35365,67.946336 66.472973,68.044805 63.34225,68.431731 l 1.0037,-1.664163 0.778378,-1.643244 1.98919,-1.297297 3.891891,1.556757 3.286487,2.94054 0.345946,-3.632432 2.421622,-6.4 0.432432,-3.978379 0,-3.978378 0,-2.162162 L 76.540541,41.6 l -0.518919,-1.816216 -1.816217,1.556756 -2.94054,1.902703 -2.421622,1.124325 0.864865,-3.027028 -0.864865,-3.113513 -1.297297,-1.210811 -2.335135,-0.605405 -0.864865,-0.432433 -0.08649,-0.605405 1.816217,-1.383784 -1.902703,-2.248649 1.72973,-0.518918 -1.210811,-3.027027 1.210811,-3.632433 0.08649,-3.372973 -1.383784,-3.978378 0,2.421621 -1.297297,3.632433 -0.864865,1.556757 -2.075675,-1.297298 -1.98919,0.778379 -2.248648,1.643243 -1.902703,-2.594595 -2.94054,-5.621621 0.172972,2.075675 0,2.075676 0.172973,3.459459 1.297298,2.681082 2.335135,2.162162 -0.518919,1.124324 -0.08649,2.421622 0.432433,0.259459 0.345946,3.45946 -3.805406,0.518919 -2.94054,2.335135 -0.605405,0 -2.508109,-1.72973 -2.248648,-2.421622 1.297297,-3.459459 -0.951351,-0.605406 -3.027027,0.691892 L 36.497297,19.632432 35.027027,12.8 28.194595,7.5243243 z"
       id="path2954"
       sodipodi:nodetypes="ccccccccccccccccccccccccccccccccccccccccccccccccccccccccccccccccccccccccccccccccccccccc"
       inkscape:connector-curvature="0" />
    <path
       style="fill:#000000;fill-opacity:0.15686275;fill-rule:evenodd;stroke:none"
       d="m 42.378378,70.140541 13.800284,-5.069005 c -1.095976,0.598374 -0.240001,1.092856 -0.774151,2.239658 -0.03373,2.74707 -2.017686,4.357942 -2.642493,5.617184 0.872359,1.998692 0.922531,2.943812 2.358976,5.130454 0.503271,0.766108 -0.849469,2.341238 -0.457029,3.195782 0.59001,1.284759 2.866732,1.978684 3.109008,3.156197 l -0.08649,29.837839 -0.778379,4.75676 0.172973,2.76756 -22.054054,-19.8054 0.08649,-2.248651 L 41.6,96.432432 42.378378,70.140541 z"
       id="path2370"
       sodipodi:nodetypes="ccccsscccccccc"
       inkscape:connector-curvature="0" />
    <path
       style="fill:url(#linearGradient3003);fill-opacity:1;fill-rule:evenodd;stroke:none"
       d="m 51.5625,18.5 0,6 2.0625,4.125 1.6875,1.875 -0.5625,3 2.875,-1.4375 3.8125,-0.3125 4.375,-0.6875 -1.0625,-2.9375 -1.6875,-2.4375 -2.1875,-1.5 -2.125,0 -1.6875,1.25 -0.875,1 L 54.625,24.5 53.0625,21.3125 51.5625,18.5 z"
       id="path2997"
       inkscape:connector-curvature="0" />
    <path
       style="fill:url(#linearGradient3001);fill-opacity:1;fill-rule:evenodd;stroke:none"
       d="m 42.6875,32.09375 -1.59375,0.5 -0.5625,0.125 0.25,1.21875 -0.65625,1.15625 -0.9375,0.5625 -1.28125,-0.25 L 37.125,35.09375 36.5,33.875 34.4375,35.21875 33.5,37.125 l -0.09375,1.15625 3.78125,0.8125 2.375,-0.0625 1.78125,-0.6875 L 43,37 l 1.40625,-2.875 -0.0625,-1.46875 -1.65625,-0.5625 z"
       id="path2995"
       inkscape:connector-curvature="0" />
    <path
       style="fill:url(#linearGradient2999);fill-opacity:1;fill-rule:evenodd;stroke:none"
       d="m 75.71875,40 -2.53125,2.125 -3.15625,1.78125 -5.15625,1.21875 -2.125,0.3125 1.03125,10.34375 -0.5,6.53125 3.6875,1.53125 5.0625,2.28125 2.40625,2.3125 -0.125,-2.5 2.4375,-7.09375 0.84375,-5.34375 0,-3.59375 L 76.875,43.25 75.71875,40 z"
       id="path2956"
       inkscape:connector-curvature="0" />
    <path
       style="fill:url(#linearGradient2384);fill-rule:evenodd;stroke:none"
       d="m 57.180094,118.76557 0,2.93545 34.063436,-13.82107 0.06115,-2.3239 -34.124591,13.20952 z"
       id="path2382"
       inkscape:connector-curvature="0" />
    <path
       style="fill:url(#linearGradient2392);fill-rule:evenodd;stroke:none"
       d="m 57.48587,114.11777 0.366931,-29.599104 25.440556,-10.396381 0.733862,30.455285 -26.541349,9.5402 z"
       id="path2390"
       inkscape:connector-curvature="0" />
    <path
       style="fill:url(#linearGradient3007);fill-opacity:1;fill-rule:evenodd;stroke:none"
       d="m 28.107495,7.4382936 0.441941,7.8665634 8.750447,19.798989 1.414213,0.707107 0.707107,-0.265165 1.325825,-1.502602 c 0,0 -5.214912,-20.682873 -5.745242,-21.301592 -0.53033,-0.618718 -6.805903,-5.2149121 -6.894291,-5.3033004 z"
       id="path3005"
       inkscape:connector-curvature="0" />
  </g>
  <g
     inkscape:label="outline"
     inkscape:groupmode="layer"
     id="layer1"
     transform="translate(-5.7341336,-1.8125)">
    <path
       style="fill:#000000;fill-opacity:1;fill-rule:evenodd;stroke:none"
       d="m 28.0625,6.8125 0.09375,8.5625 8.15625,18.40625 c -3.113696,1.569663 -3.322108,3.082981 -3.34375,4.65625 1.109815,0.35505 2.091042,0.544406 3,0.6875 -1.329298,1.958318 -0.471973,4.272723 0.9375,6.6875 1.684276,0.04754 3.406971,-1.725717 4,-2.21875 l 8.5,1.71875 c 2.762215,1.730478 5.441684,4.363258 6.09375,8.625 0.32255,0.557513 -0.445141,2.014495 -0.5,2.65625 l 0.6875,0.1875 0.03125,2.03125 c -0.430612,1.957108 -0.291183,3.999549 -0.34375,6.03125 l -13.40625,5.34375 -0.65625,26.25 c -2.111569,1.15388 -4.41585,2.199528 -6.5625,3.125 L 34.65625,101.875 56.75,122.09375 91.5,108.125 l 0.125,-2.5625 -7.34375,-6.6875 -0.875,-24.625 -8.8125,-7.78125 c 0.34666,-2.863661 1.555609,-5.450169 2.5625,-8.09375 1.130287,-6.452514 0.493356,-12.729155 -1.0625,-18.9375 -2.014496,1.916857 -4.327853,3.711222 -6.8125,4.59375 1.318798,-3.461727 0.797726,-6.740853 -3.6875,-7.6875 -0.04285,-0.279805 -1.129295,-0.422111 -1.15625,-0.71875 -0.09788,-0.439826 2.106929,-1.246869 2,-1.6875 C 66.263546,33.22069 64.799299,32.746118 64.625,32.03125 64.783502,31.413769 66.247589,31.508407 66.1875,31 66.049776,29.834651 65.541777,28.918456 65,28.09375 c 1.713087,-3.871564 1.812829,-8.029149 -0.59375,-11.4375 0.431621,2.751289 -0.382684,5.105094 -1.9375,7.8125 -1.944532,-1.724256 -4.221952,-0.991415 -6.28125,1.46875 -2.183933,-2.504319 -3.330491,-6.55217 -5.46875,-9.125 1.817775,4.329356 -1.39302,9.706857 4.09375,13.25 l -0.5,3.59375 0.40625,0.53125 c 0.09279,1.011741 0.216435,2.014565 0.375,3 -2.438165,0.878987 -4.256377,-0.172075 -6.75,2.96875 C 46.745139,39.858199 45.085192,37.642048 43.90625,36 44.677924,34.437377 44.702291,32.84069 44.75,32.5 45.055799,32.130939 42.106115,31.469501 40.53125,32.59375 L 35.1875,12.625 28.0625,6.8125 z m 1.0625,1.8125 5.40625,4.46875 5.875,20.75 C 39.837896,35.501206 39.260366,35.9019 37.5,35.0625 L 28.875,15.34375 28.78125,8.71875 38.5625,33.375 29.125,8.625 z m 35.6875,9.65625 c 1.306152,2.964819 1.34408,5.566135 -0.375,8.9375 -0.145441,-0.230115 -0.29999,-0.46429 -0.40625,-0.6875 -0.316335,-0.585415 -0.623562,-1.091011 -0.96875,-1.5 0.512563,-1.59086 1.850546,-3.689798 1.75,-6.75 z m -13.0625,1.375 c 2.551645,3.200756 2.677507,8.548217 7.65625,8.59375 -0.05216,0.866938 0.392059,1.800469 -2.0625,2.15625 -4.389318,0.172887 -6.256102,-7.541495 -5.59375,-10.75 z m 7.6875,4.5625 c 0.154224,-0.01746 0.313404,-0.01125 0.46875,0 1.32562,0.09605 2.651303,1.23492 3.53125,2.5625 0.971094,1.576754 1.773767,2.314407 1.96875,4.15625 L 57.375,31.90625 54.8125,33.375 c -0.02422,-0.900408 0.46629,-2.04213 0.65625,-2.90625 0.396975,0.218381 0.803831,0.455107 1.28125,0.65625 2.407288,-0.221639 3.842182,-1.037219 3.5625,-2.96875 -1.576989,-0.122439 -2.760223,-0.840494 -3.75,-1.84375 0.769586,-1.160892 1.795434,-1.971555 2.875,-2.09375 z M 63.75,31.625 c -0.145965,0.572414 1.417805,1.716752 1.5625,2.5625 0.08089,0.472792 -1.310049,0.841753 -1.3125,0.96875 0.162895,0.87258 0.591912,1.826373 0.78125,2.4375 l -3.78125,1 -5.5,-2.875 c -0.07427,-0.422694 -0.140505,-0.857832 -0.1875,-1.28125 0.501062,-1.114008 1.301618,-1.983691 2.9375,-2.125 l 5.5,-0.6875 z m -21.09375,0.84375 c 1.112708,-0.08389 1.940998,0.280063 1.25,1.09375 -1.260019,7.527027 -8.301229,4.894164 -9.9375,4.40625 C 33.4323,36.17985 35.440404,35.173959 36.5,34.25 l 0.5,1.09375 c 3.535387,1.37874 3.264043,-0.457987 3.90625,-1.40625 l -0.21875,-0.875 c 0.613719,-0.342968 1.331175,-0.545682 1.96875,-0.59375 z m 12.9375,3.75 c 2.446738,0.864874 4.389809,4.212484 9.46875,1.65625 0.388469,1.474548 0.135608,3.196311 -2.96875,4.125 -1.705777,1.107902 -4.288828,-0.5797 -5.84375,-3.125 -0.235807,-0.871707 -0.478035,-1.750917 -0.65625,-2.65625 z m -12.03125,0.375 c 1.934324,3.307704 5.637112,4.615764 8.96875,5.8125 0.153977,1.159889 1.548273,2.833511 -1.71875,2.625 l -9.34375,-1.9375 c 1.407475,-1.512398 0.925873,-2.167528 0.96875,-3.0625 -0.435588,2.383063 -2.99868,4.025996 -5.0625,5.21875 -2.101279,-1.3614 -1.713183,-4.6386 -0.90625,-6 L 36.375,39.1875 c 4.03252,0.522739 6.118797,-0.899487 7.1875,-2.59375 z m 22,0.125 c 2.409042,0.09153 4.968847,1.596284 3.03125,7.28125 -1.999346,0.65219 -4.109239,0.80892 -6.21875,1.21875 0.185303,3.131457 0.629728,6.324127 0.875,9.5 -2.069679,1.384529 -5.356942,2.316768 -7.6875,1.5625 l 0.84375,-2.5 C 54.651043,50.929706 53.668993,47.639805 50.625,45.59375 L 51.59375,45.75 c 3.846608,-0.832431 1.589675,-2.145794 1.625,-3.875 -1.426214,-0.412425 -2.909428,-0.791603 -4.3125,-1.34375 2.58998,-2.575748 3.948051,-2.136641 6.28125,-2.75 0.06034,0.379313 0.133754,0.7743 0.1875,1.15625 2.314143,2.974719 4.860767,4.944006 8.28125,2.84375 2.35113,-1.227032 2.171129,-3.368784 1.90625,-5.0625 z M 75.78125,40.25 c 1.960371,5.736239 2.157006,12.076262 0.9375,17.8125 -1.054009,2.946323 -3.091421,6.370817 -2.625,9.96875 -2.432114,-3.587978 -7.395958,-3.934085 -10.5,-5.6875 1.023547,-4.941416 -0.08984,-11.741877 -0.625,-16.78125 1.70097,-0.45461 3.938052,-0.587075 5.9375,-1.1875 2.390999,-0.71801 4.968376,-2.306874 6.875,-4.125 z m -3.75,4.875 -3.3125,1.0625 0.5625,4.40625 0.3125,0 -0.5,-4.1875 3.03125,-1.0625 -0.09375,-0.21875 z m -11.8125,0.21875 c -1.464085,1.850892 -1.026104,3.711605 -4.625,5.5625 l 0.46875,-0.0625 c 3.581023,-0.768085 2.862426,-3.523728 4.3125,-5.40625 l -0.15625,-0.09375 z m 13.59375,3.3125 -0.375,0.03125 0.28125,2.40625 3.25,-0.65625 -0.1875,-0.28125 -2.75,0.625 -0.21875,-2.125 z M 68.75,51.28125 64.6875,52 64.875,54.21875 65.1875,54.15625 64.90625,52.09375 68.71875,51.5 68.75,51.28125 z m 8,0.8125 -3.0625,0.875 0.34375,3.25 0.4375,-0.09375 -0.375,-2.9375 2.6875,-0.8125 L 76.75,52.09375 z m -13.4375,3.25 c 0.16401,2.400862 0.197134,4.809944 -0.09375,7.125 0.850179,0.429791 2.200997,0.942055 3.0625,1.28125 -2.323526,0.833533 -2.146049,3.219566 -3.03125,4.875 5.126523,-0.338207 9.10624,0.610426 9.0625,4.21875 0.07698,1.949586 -2.547595,1.672432 -3.5625,1.875 l -6.21875,-4.40625 -0.375,0.09375 c 1.051895,-3.806487 0.338614,-7.429443 -0.96875,-11 l -0.09375,0.1875 c 1.172845,3.828701 1.447409,7.507575 0.4375,11.09375 l -2.40625,0.46875 1.15625,7.0625 c 0.846599,0.991623 -1.991846,3.698812 -3.78125,1.75 l -3.625,-7.3125 c 5.207928,-4.481916 2.211306,-8.955586 3.3125,-13.4375 l 0,-0.0625 0,-0.03125 0.09375,-2.3125 c 2.068643,0.763122 5.057864,-0.788507 7.03125,-1.46875 z m 7.46875,0.6875 -2.75,0.46875 0.09375,0.21875 2.25,-0.4375 0.53125,4.90625 0.4375,0.03125 -0.5625,-5.1875 z m -3.53125,8.125 c 2.478963,0.960079 4.945905,2.015975 7.25,4.375 -0.01771,-0.434799 -0.02593,-0.860991 0,-1.28125 L 82.40625,74.09375 58.0625,83.8125 42.84375,70.21875 55.3125,65.3125 c -0.02179,0.397351 -0.04628,1.171745 -0.09375,1.5625 -3.216964,1.294812 -5.371549,2.367034 -5.6875,6 0.446555,2.231376 2.681263,3.827042 5.28125,5.375 L 54.875,78.15625 56,80.71875 c 1.274921,0.964101 3.59263,1.475592 5.375,-1.375 3.555276,-0.269434 6.939532,-0.36174 9.5,-1.40625 4.413616,-1.760116 7.614112,-4.698552 4.1875,-8.90625 C 73.254817,67.703282 69.24081,67.3345 64.53125,66.6875 64.850229,65.540283 65.816421,64.345612 67.25,64.15625 z M 65,66.875 c 4.738972,0.651509 8.241878,1.446301 9.71875,2.53125 3.544797,3.262203 -1.103864,6.887466 -4.03125,8.125 -2.315012,0.944385 -6.441023,0.749767 -9.75,0.96875 l -1.03125,-6.90625 2.34375,-0.875 6.1875,4.75 c 3.177008,-0.428936 5.003006,-1.379233 5,-3.03125 -3.618911,-5.284867 -7.331047,-4.446126 -10,-4.03125 C 63.617367,67.96531 64.87229,67.361577 65,66.875 z m -9.875,0.59375 c -0.310732,1.853238 -1.011967,3.593029 -2.78125,5.09375 l 2.1875,4.875 C 52.241587,75.953667 50.379231,73.895363 50.125,72.625 c 0.205285,-2.737197 3.013777,-4.235119 5,-5.15625 z m -12.625,3 14.78125,14.40625 -0.03125,26.96875 -2.125,-3.28125 -0.46875,-4.21875 -2.25,-2.875 3.03125,-6.65625 -3.09375,5.5625 -0.875,-3.0625 -0.125,0.0625 0.53125,3.84375 -0.09375,0.1875 2.5,3.03125 0.03125,3.65625 -2.625,-1.46875 -3.90625,-5.71875 -0.15625,0.0312 3.4375,5.65625 0.03125,0.0312 0.03125,0.0625 3.53125,2.0625 1.75,3.90625 -14,-12.15625 2.3125,-1.71875 L 46.9375,97.625 46.78125,97.5625 44.71875,98.28125 44.65625,95 l 0.125,-0.125 0,-0.03125 1.375,-1.71875 -1.46875,1.28125 -0.96875,-4.78125 -0.125,-0.03125 0.6875,5.15625 -0.09375,0.09375 0.0625,3.625 -2.09375,1.125 0.34375,-29.125 z m 3.65625,22.65625 0.15625,-0.15625 0,-0.0625 -0.15625,0.21875 z M 83,74.53125 l 0.65625,28.875 -4.8125,-2.0625 0.875,-3.875 2.40625,-2.0625 -2.71875,-2.78125 -0.1875,-0.125 2.21875,2.96875 -2.0625,1.46875 -3.28125,-0.96875 0.25,-1.625 -2.09375,-2.3125 1.6875,2.53125 -0.40625,1.0625 -3.875,-2.59375 0.0625,0.21875 3.96875,3.03125 3.5,1 -0.71875,3.5 -2.15625,0.84375 0,0.125 2.09375,-0.15625 4.875,2.9375 -24.71875,9.03125 1.03125,-2.21875 8.03125,-2.375 0.0625,-0.125 -3.40625,0.8125 0.75,-2.625 -0.0625,-0.1875 -1.03125,2.84375 -4.4375,1.15625 -0.53125,-2.8125 L 62,105.625 l 2.03125,-1.9375 2.15625,1.03125 0.0625,-0.0937 c 0.969158,0.53557 2.25,1.4375 2.25,1.4375 l 0.125,-0.21875 c 10e-7,0 -1.263442,-1.22653 -2.125,-1.6875 l 0.96875,-1.8125 2.75,0.90625 0.09375,-0.0312 -3,-1.3125 -1.4375,2.1875 -1.5,-0.8125 L 64.5625,100 66.96875,99 64.25,99.6875 l -0.1875,3.34375 -2.40625,1.78125 -2.0625,-5 1.6875,-3.65625 -1.4375,-3.03125 1,3.09375 -1.65625,3.65625 2.28125,5.53125 -3.125,2.5625 0.875,3.28125 -1.3125,1.875 0.125,-28.3125 L 83,74.53125 z M 41.3125,97.125 l -0.09375,3.5625 16.34375,14 26.90625,-9.875 -0.0625,-5.3125 5.8125,6.09375 -33.1875,12.875 -21,-18.75 5.28125,-2.59375 z m -5.9375,2.65625 21.4375,19.3125 0.25,2.21875 -21.75,-19.34375 0.0625,-2.1875 z m 55.5625,6.1875 -0.125,1.71875 -33.40625,13.375 -0.09375,-1.90625 33.625,-13.1875 z"
       id="path2309"
       sodipodi:nodetypes="ccccccccccccccccccccccccccccscscccccccccccccccccccccccccscccccccsccccccccccsccccccccccccccccccccccccccccccccccccccccccccccccsccccccccccccccccccccccccccccccccccccccccccccccccccccccccccccccccccccccccccccccccccccccccccccccccccccccccccccccccccccccccccccccccccccccccccccccccccccccccccccccccccccccccccccccccccccccccccccccccccccccccccccccccccccccccc"
       inkscape:connector-curvature="0" />
  </g>
</svg>
