<?xml version="1.0" encoding="UTF-8" standalone="no"?>
<!-- Created with Inkscape (http://www.inkscape.org/) -->

<svg
   xmlns:dc="http://purl.org/dc/elements/1.1/"
   xmlns:cc="http://creativecommons.org/ns#"
   xmlns:rdf="http://www.w3.org/1999/02/22-rdf-syntax-ns#"
   xmlns:svg="http://www.w3.org/2000/svg"
   xmlns="http://www.w3.org/2000/svg"
   xmlns:xlink="http://www.w3.org/1999/xlink"
   xmlns:sodipodi="http://sodipodi.sourceforge.net/DTD/sodipodi-0.dtd"
   xmlns:inkscape="http://www.inkscape.org/namespaces/inkscape"
   width="115.34038"
   height="83.625"
   id="svg2"
   sodipodi:version="0.32"
   inkscape:version="0.48.1 r9760"
   version="1.0"
   sodipodi:docname="nicubunu_RPG_map_symbols_Jailhouse_modified.svg"
   inkscape:output_extension="org.inkscape.output.svg.inkscape">
  <defs
     id="defs4">
    <linearGradient
       id="linearGradient2338">
      <stop
         id="stop2340"
         offset="0"
         style="stop-color:#b1b1b1;stop-opacity:1;" />
      <stop
         id="stop2342"
         offset="1"
         style="stop-color:#e4e4e4;stop-opacity:1;" />
    </linearGradient>
    <linearGradient
       id="linearGradient2320">
      <stop
         style="stop-color:#6a3c1d;stop-opacity:1;"
         offset="0"
         id="stop2322" />
      <stop
         style="stop-color:#8f5127;stop-opacity:1;"
         offset="1"
         id="stop2324" />
    </linearGradient>
    <linearGradient
       id="linearGradient3415">
      <stop
         id="stop3417"
         offset="0"
         style="stop-color:#1a1a1a;stop-opacity:1;" />
      <stop
         id="stop3419"
         offset="1"
         style="stop-color:#2b2b2b;stop-opacity:1;" />
    </linearGradient>
    <linearGradient
       inkscape:collect="always"
       xlink:href="#linearGradient2338"
       id="linearGradient3819"
       x1="29.484209"
       y1="68.34375"
       x2="50.250496"
       y2="95.381256"
       gradientUnits="userSpaceOnUse" />
    <linearGradient
       inkscape:collect="always"
       xlink:href="#linearGradient2338"
       id="linearGradient3823"
       x1="69.875"
       y1="91.375"
       x2="99.125"
       y2="55.125"
       gradientUnits="userSpaceOnUse" />
    <linearGradient
       inkscape:collect="always"
       xlink:href="#linearGradient2338"
       id="linearGradient3827"
       x1="59.844154"
       y1="61.229439"
       x2="65.662338"
       y2="24.5625"
       gradientUnits="userSpaceOnUse" />
    <linearGradient
       id="linearGradient3049">
      <stop
         style="stop-color:#cfc7a9;stop-opacity:1;"
         offset="0"
         id="stop3051" />
      <stop
         style="stop-color:#eeebe0;stop-opacity:1;"
         offset="1"
         id="stop3053" />
    </linearGradient>
    <linearGradient
       inkscape:collect="always"
       xlink:href="#linearGradient3049"
       id="linearGradient4169"
       x1="58.999222"
       y1="105.48307"
       x2="67.197243"
       y2="96.003418"
       gradientUnits="userSpaceOnUse" />
    <linearGradient
       inkscape:collect="always"
       xlink:href="#linearGradient3049"
       id="linearGradient4173"
       x1="50.094097"
       y1="95.539383"
       x2="58.049049"
       y2="105.32839"
       gradientUnits="userSpaceOnUse" />
    <linearGradient
       inkscape:collect="always"
       xlink:href="#linearGradient3049"
       id="linearGradient4177"
       x1="20.461903"
       y1="70.194023"
       x2="28.615728"
       y2="83.297592"
       gradientUnits="userSpaceOnUse" />
    <linearGradient
       inkscape:collect="always"
       xlink:href="#linearGradient3049"
       id="linearGradient4183"
       x1="97.293472"
       y1="59.808388"
       x2="101.49192"
       y2="57.267223"
       gradientUnits="userSpaceOnUse" />
    <linearGradient
       inkscape:collect="always"
       xlink:href="#linearGradient2320"
       id="linearGradient4187"
       x1="77.75"
       y1="96"
       x2="87.3125"
       y2="76.875"
       gradientUnits="userSpaceOnUse" />
    <linearGradient
       inkscape:collect="always"
       xlink:href="#linearGradient2320"
       id="linearGradient4191"
       x1="80.875"
       y1="80.75"
       x2="81.25"
       y2="82.5625"
       gradientUnits="userSpaceOnUse" />
    <linearGradient
       inkscape:collect="always"
       xlink:href="#linearGradient2320"
       id="linearGradient4195"
       x1="81.125"
       y1="90.6875"
       x2="81.5"
       y2="92.25"
       gradientUnits="userSpaceOnUse" />
    <linearGradient
       inkscape:collect="always"
       xlink:href="#linearGradient2338"
       id="linearGradient4199"
       x1="86.6875"
       y1="79.8125"
       x2="88.0625"
       y2="79.75"
       gradientUnits="userSpaceOnUse" />
    <linearGradient
       inkscape:collect="always"
       xlink:href="#linearGradient3415"
       id="linearGradient4203"
       x1="87.476562"
       y1="85.203125"
       x2="87.65625"
       y2="82.703125"
       gradientUnits="userSpaceOnUse" />
    <linearGradient
       inkscape:collect="always"
       xlink:href="#linearGradient3415"
       id="linearGradient4207"
       x1="86.15625"
       y1="84.078125"
       x2="86.203125"
       y2="84.34375"
       gradientUnits="userSpaceOnUse" />
    <linearGradient
       inkscape:collect="always"
       xlink:href="#linearGradient3415"
       id="linearGradient4211"
       x1="88.09375"
       y1="83.203125"
       x2="88.28125"
       y2="83.515625"
       gradientUnits="userSpaceOnUse" />
    <linearGradient
       inkscape:collect="always"
       xlink:href="#linearGradient3415"
       id="linearGradient4215"
       x1="84.84375"
       y1="84.5"
       x2="85.15625"
       y2="82.890625"
       gradientUnits="userSpaceOnUse" />
    <linearGradient
       inkscape:collect="always"
       xlink:href="#linearGradient3415"
       id="linearGradient4219"
       x1="88.960938"
       y1="83.546875"
       x2="89.859375"
       y2="81.828125"
       gradientUnits="userSpaceOnUse" />
    <linearGradient
       id="linearGradient3098">
      <stop
         style="stop-color:#9e2612;stop-opacity:1;"
         offset="0"
         id="stop3100" />
      <stop
         style="stop-color:#bd5032;stop-opacity:1;"
         offset="1"
         id="stop3102" />
    </linearGradient>
    <linearGradient
       id="linearGradient2404">
      <stop
         style="stop-color:#b49900;stop-opacity:1;"
         offset="0"
         id="stop2406" />
      <stop
         id="stop2412"
         offset="0.5"
         style="stop-color:#ffda0a;stop-opacity:1;" />
      <stop
         style="stop-color:#c6a800;stop-opacity:1;"
         offset="1"
         id="stop2408" />
    </linearGradient>
    <linearGradient
       inkscape:collect="always"
       xlink:href="#linearGradient2404"
       id="linearGradient4561"
       x1="87.852066"
       y1="85.411049"
       x2="90.153748"
       y2="83.811348"
       gradientUnits="userSpaceOnUse" />
    <linearGradient
       inkscape:collect="always"
       xlink:href="#linearGradient2404"
       id="linearGradient4565"
       x1="92.404213"
       y1="85.164337"
       x2="88.972542"
       y2="87.374832"
       gradientUnits="userSpaceOnUse" />
    <linearGradient
       inkscape:collect="always"
       xlink:href="#linearGradient2338"
       id="linearGradient4569"
       x1="31.577099"
       y1="60.590477"
       x2="25.472776"
       y2="60.590477"
       gradientUnits="userSpaceOnUse" />
    <linearGradient
       inkscape:collect="always"
       xlink:href="#linearGradient2338"
       id="linearGradient4573"
       x1="36.01506"
       y1="69.08287"
       x2="33.206608"
       y2="71.558533"
       gradientUnits="userSpaceOnUse" />
    <linearGradient
       inkscape:collect="always"
       xlink:href="#linearGradient3415"
       id="linearGradient4577"
       x1="33.275578"
       y1="62.270691"
       x2="34.079159"
       y2="62.270691"
       gradientUnits="userSpaceOnUse" />
    <linearGradient
       inkscape:collect="always"
       xlink:href="#linearGradient3415"
       id="linearGradient4581"
       gradientUnits="userSpaceOnUse"
       x1="33.275578"
       y1="62.270691"
       x2="34.079159"
       y2="62.270691"
       gradientTransform="translate(4.1640128,2.7029557)" />
    <linearGradient
       id="linearGradient4692">
      <stop
         id="stop4694"
         offset="0"
         style="stop-color:#4f3e2a;stop-opacity:1;" />
      <stop
         id="stop4696"
         offset="1"
         style="stop-color:#72593c;stop-opacity:1;" />
    </linearGradient>
    <linearGradient
       inkscape:collect="always"
       xlink:href="#linearGradient4692"
       id="linearGradient4838"
       x1="35.339085"
       y1="59.176983"
       x2="41.269482"
       y2="72.588806"
       gradientUnits="userSpaceOnUse" />
    <linearGradient
       inkscape:collect="always"
       xlink:href="#linearGradient3098"
       id="linearGradient4842"
       x1="56.65625"
       y1="107.40626"
       x2="60.84375"
       y2="104.29688"
       gradientUnits="userSpaceOnUse" />
    <linearGradient
       inkscape:collect="always"
       xlink:href="#linearGradient3098"
       id="linearGradient4846"
       gradientUnits="userSpaceOnUse"
       x1="56.65625"
       y1="107.40626"
       x2="60.84375"
       y2="104.29688"
       gradientTransform="translate(5.3695921,-1.9003495)" />
    <linearGradient
       inkscape:collect="always"
       xlink:href="#linearGradient3098"
       id="linearGradient4850"
       gradientUnits="userSpaceOnUse"
       gradientTransform="translate(10.713342,-3.8065995)"
       x1="56.65625"
       y1="107.40626"
       x2="60.84375"
       y2="104.29688" />
    <linearGradient
       inkscape:collect="always"
       xlink:href="#linearGradient3098"
       id="linearGradient4854"
       gradientUnits="userSpaceOnUse"
       gradientTransform="translate(15.869592,-5.4628495)"
       x1="56.65625"
       y1="107.40626"
       x2="60.84375"
       y2="104.29688" />
    <linearGradient
       inkscape:collect="always"
       xlink:href="#linearGradient3098"
       id="linearGradient4858"
       gradientUnits="userSpaceOnUse"
       x1="57.59375"
       y1="106.75001"
       x2="61.8125"
       y2="103.76563"
       gradientTransform="translate(-3.03125,-1.84375)" />
    <linearGradient
       inkscape:collect="always"
       xlink:href="#linearGradient3098"
       id="linearGradient4862"
       gradientUnits="userSpaceOnUse"
       gradientTransform="translate(-3.09375,-7.8125)"
       x1="57.59375"
       y1="106.75001"
       x2="61.8125"
       y2="103.76563" />
    <linearGradient
       inkscape:collect="always"
       xlink:href="#linearGradient3098"
       id="linearGradient4866"
       gradientUnits="userSpaceOnUse"
       gradientTransform="translate(-3.0625,-13.8125)"
       x1="57.59375"
       y1="106.75001"
       x2="61.8125"
       y2="103.76563" />
    <linearGradient
       inkscape:collect="always"
       xlink:href="#linearGradient3098"
       id="linearGradient4870"
       gradientUnits="userSpaceOnUse"
       x1="56.65625"
       y1="107.40626"
       x2="60.84375"
       y2="104.29688"
       gradientTransform="translate(2.4375,-3.78125)" />
    <linearGradient
       inkscape:collect="always"
       xlink:href="#linearGradient3098"
       id="linearGradient4874"
       gradientUnits="userSpaceOnUse"
       gradientTransform="translate(0,-5.9375)"
       x1="56.65625"
       y1="107.40626"
       x2="60.84375"
       y2="104.29688" />
    <linearGradient
       inkscape:collect="always"
       xlink:href="#linearGradient3098"
       id="linearGradient4878"
       gradientUnits="userSpaceOnUse"
       gradientTransform="translate(7.75,-5.65625)"
       x1="56.65625"
       y1="107.40626"
       x2="60.84375"
       y2="104.29688" />
    <linearGradient
       inkscape:collect="always"
       xlink:href="#linearGradient3098"
       id="linearGradient4882"
       gradientUnits="userSpaceOnUse"
       gradientTransform="translate(5.4375,-7.84375)"
       x1="56.65625"
       y1="107.40626"
       x2="60.84375"
       y2="104.29688" />
    <linearGradient
       inkscape:collect="always"
       xlink:href="#linearGradient3098"
       id="linearGradient4886"
       gradientUnits="userSpaceOnUse"
       gradientTransform="translate(2.1875,-9.6875)"
       x1="56.65625"
       y1="107.40626"
       x2="60.84375"
       y2="104.29688" />
    <linearGradient
       inkscape:collect="always"
       xlink:href="#linearGradient3098"
       id="linearGradient4890"
       gradientUnits="userSpaceOnUse"
       gradientTransform="translate(0.03124999,-11.8125)"
       x1="56.65625"
       y1="107.40626"
       x2="60.84375"
       y2="104.29688" />
    <linearGradient
       inkscape:collect="always"
       xlink:href="#linearGradient3098"
       id="linearGradient4894"
       gradientUnits="userSpaceOnUse"
       gradientTransform="translate(2.1875,-15.59375)"
       x1="56.65625"
       y1="107.40626"
       x2="60.84375"
       y2="104.29688" />
    <linearGradient
       inkscape:collect="always"
       xlink:href="#linearGradient3098"
       id="linearGradient4898"
       gradientUnits="userSpaceOnUse"
       gradientTransform="translate(5.375,-13.75)"
       x1="56.65625"
       y1="107.40626"
       x2="60.84375"
       y2="104.29688" />
    <linearGradient
       inkscape:collect="always"
       xlink:href="#linearGradient3098"
       id="linearGradient4904"
       gradientUnits="userSpaceOnUse"
       gradientTransform="translate(37.571164,-42.293603)"
       x1="57.59375"
       y1="106.75001"
       x2="61.8125"
       y2="103.76563" />
    <linearGradient
       inkscape:collect="always"
       xlink:href="#linearGradient3098"
       id="linearGradient4906"
       gradientUnits="userSpaceOnUse"
       gradientTransform="translate(37.321142,-45.125243)"
       x1="56.65625"
       y1="107.40626"
       x2="60.84375"
       y2="104.29688" />
    <linearGradient
       inkscape:collect="always"
       xlink:href="#linearGradient3098"
       id="linearGradient4916"
       gradientUnits="userSpaceOnUse"
       gradientTransform="translate(37.321142,-51.091457)"
       x1="56.65625"
       y1="107.40626"
       x2="60.84375"
       y2="104.29688" />
    <linearGradient
       inkscape:collect="always"
       xlink:href="#linearGradient3098"
       id="linearGradient4920"
       gradientUnits="userSpaceOnUse"
       gradientTransform="translate(35.218762,-47.426497)"
       x1="56.65625"
       y1="107.40626"
       x2="60.84375"
       y2="104.29688" />
    <linearGradient
       inkscape:collect="always"
       xlink:href="#linearGradient3098"
       id="linearGradient4924"
       gradientUnits="userSpaceOnUse"
       gradientTransform="translate(31.97996,-43.193326)"
       x1="56.65625"
       y1="107.40626"
       x2="60.84375"
       y2="104.29688" />
    <linearGradient
       inkscape:collect="always"
       xlink:href="#linearGradient3098"
       id="linearGradient4928"
       gradientUnits="userSpaceOnUse"
       gradientTransform="translate(34.877835,-41.261409)"
       x1="56.65625"
       y1="107.40626"
       x2="60.84375"
       y2="104.29688" />
    <linearGradient
       inkscape:collect="always"
       xlink:href="#linearGradient3098"
       id="linearGradient4932"
       gradientUnits="userSpaceOnUse"
       gradientTransform="translate(37.349552,-39.21585)"
       x1="56.65625"
       y1="107.40626"
       x2="60.84375"
       y2="104.29688" />
    <linearGradient
       inkscape:collect="always"
       xlink:href="#linearGradient3098"
       id="linearGradient4936"
       gradientUnits="userSpaceOnUse"
       gradientTransform="translate(37.855269,-48.345048)"
       x1="57.59375"
       y1="106.75001"
       x2="61.8125"
       y2="103.76563" />
    <linearGradient
       inkscape:collect="always"
       xlink:href="#linearGradient3098"
       id="linearGradient4940"
       gradientUnits="userSpaceOnUse"
       x1="56.876942"
       y1="100.97517"
       x2="62.079216"
       y2="105.32227"
       gradientTransform="matrix(1,1.0119694,0,1,-5.3376523,-61.572502)" />
    <linearGradient
       inkscape:collect="always"
       xlink:href="#linearGradient3098"
       id="linearGradient4944"
       gradientUnits="userSpaceOnUse"
       gradientTransform="translate(-5.4680043,-3.5842888)"
       x1="59.54702"
       y1="103.48166"
       x2="62.860786"
       y2="106.97596" />
    <linearGradient
       inkscape:collect="always"
       xlink:href="#linearGradient3098"
       id="linearGradient4948"
       gradientUnits="userSpaceOnUse"
       gradientTransform="translate(-5.5500541,-9.4918734)"
       x1="59.54702"
       y1="103.48166"
       x2="62.860786"
       y2="106.97596" />
    <linearGradient
       inkscape:collect="always"
       xlink:href="#linearGradient3098"
       id="linearGradient4952"
       gradientUnits="userSpaceOnUse"
       gradientTransform="translate(-5.4953542,-15.290058)"
       x1="59.54702"
       y1="103.48166"
       x2="62.860786"
       y2="106.97596" />
    <linearGradient
       inkscape:collect="always"
       xlink:href="#linearGradient3098"
       id="linearGradient4956"
       gradientUnits="userSpaceOnUse"
       gradientTransform="matrix(1,1.0119694,0,1,-10.588839,-65.264742)"
       x1="56.876942"
       y1="100.97517"
       x2="62.079216"
       y2="105.32227" />
    <linearGradient
       inkscape:collect="always"
       xlink:href="#linearGradient3098"
       id="linearGradient4960"
       gradientUnits="userSpaceOnUse"
       gradientTransform="matrix(1,1.0119694,0,1,-15.894725,-68.902283)"
       x1="56.876942"
       y1="100.97517"
       x2="62.079216"
       y2="105.32227" />
    <linearGradient
       inkscape:collect="always"
       xlink:href="#linearGradient3098"
       id="linearGradient4964"
       gradientUnits="userSpaceOnUse"
       gradientTransform="matrix(1,1.0119694,0,1,-13.241782,-69.99628)"
       x1="56.876942"
       y1="100.97517"
       x2="62.079216"
       y2="105.32227" />
    <linearGradient
       inkscape:collect="always"
       xlink:href="#linearGradient3098"
       id="linearGradient4968"
       gradientUnits="userSpaceOnUse"
       gradientTransform="matrix(1,1.0119694,0,1,-7.9905957,-66.413439)"
       x1="56.876942"
       y1="100.97517"
       x2="62.079216"
       y2="105.32227" />
    <linearGradient
       inkscape:collect="always"
       xlink:href="#linearGradient3098"
       id="linearGradient4972"
       gradientUnits="userSpaceOnUse"
       gradientTransform="matrix(1,1.0119694,0,1,-5.6111519,-67.753586)"
       x1="56.876942"
       y1="100.97517"
       x2="62.079216"
       y2="105.32227" />
    <linearGradient
       inkscape:collect="always"
       xlink:href="#linearGradient3098"
       id="linearGradient4976"
       gradientUnits="userSpaceOnUse"
       gradientTransform="matrix(1,1.0119694,0,1,-10.834988,-71.309077)"
       x1="56.876942"
       y1="100.97517"
       x2="62.079216"
       y2="105.32227" />
    <linearGradient
       inkscape:collect="always"
       xlink:href="#linearGradient3098"
       id="linearGradient4980"
       gradientUnits="userSpaceOnUse"
       gradientTransform="matrix(1,1.0119694,0,1,-7.771796,-72.156925)"
       x1="56.876942"
       y1="100.97517"
       x2="62.079216"
       y2="105.32227" />
    <linearGradient
       inkscape:collect="always"
       xlink:href="#linearGradient3098"
       id="linearGradient4984"
       gradientUnits="userSpaceOnUse"
       gradientTransform="matrix(1,1.0119694,0,1,-5.7752512,-73.715871)"
       x1="56.876942"
       y1="100.97517"
       x2="62.079216"
       y2="105.32227" />
    <linearGradient
       inkscape:collect="always"
       xlink:href="#linearGradient3098"
       id="linearGradient4988"
       gradientUnits="userSpaceOnUse"
       gradientTransform="matrix(1,1.0119694,0,1,-7.6623963,-77.95511)"
       x1="56.876942"
       y1="100.97517"
       x2="62.079216"
       y2="105.32227" />
    <linearGradient
       inkscape:collect="always"
       xlink:href="#linearGradient3098"
       id="linearGradient4994"
       gradientUnits="userSpaceOnUse"
       gradientTransform="matrix(1,1.0119694,0,1,-37.213818,-83.677525)"
       x1="56.876942"
       y1="100.97517"
       x2="62.079216"
       y2="105.32227" />
    <linearGradient
       inkscape:collect="always"
       xlink:href="#linearGradient3098"
       id="linearGradient4996"
       gradientUnits="userSpaceOnUse"
       gradientTransform="translate(-40.438948,-27.71539)"
       x1="59.54702"
       y1="103.48166"
       x2="62.860786"
       y2="106.97596" />
    <linearGradient
       inkscape:collect="always"
       xlink:href="#linearGradient3098"
       id="linearGradient5000"
       gradientUnits="userSpaceOnUse"
       gradientTransform="translate(-40.438948,-33.666413)"
       x1="59.54702"
       y1="103.48166"
       x2="62.860786"
       y2="106.97596" />
    <linearGradient
       inkscape:collect="always"
       xlink:href="#linearGradient3098"
       id="linearGradient5004"
       gradientUnits="userSpaceOnUse"
       gradientTransform="matrix(1,1.0119694,0,1,-31.892533,-80.119506)"
       x1="56.876942"
       y1="100.97517"
       x2="62.079216"
       y2="105.32227" />
    <linearGradient
       inkscape:collect="always"
       xlink:href="#linearGradient3098"
       id="linearGradient5008"
       gradientUnits="userSpaceOnUse"
       gradientTransform="matrix(1,1.0119694,0,1,-34.379997,-84.685105)"
       x1="56.876942"
       y1="100.97517"
       x2="62.079216"
       y2="105.32227" />
    <linearGradient
       inkscape:collect="always"
       xlink:href="#linearGradient3098"
       id="linearGradient5012"
       gradientUnits="userSpaceOnUse"
       gradientTransform="matrix(1,1.0119694,0,1,-37.308278,-89.628547)"
       x1="56.876942"
       y1="100.97517"
       x2="62.079216"
       y2="105.32227" />
    <linearGradient
       inkscape:collect="always"
       xlink:href="#linearGradient3098"
       id="linearGradient5016"
       gradientUnits="userSpaceOnUse"
       gradientTransform="matrix(1,1.0119694,0,1,-31.92402,-85.976068)"
       x1="56.876942"
       y1="100.97517"
       x2="62.079216"
       y2="105.32227" />
    <linearGradient
       inkscape:collect="always"
       xlink:href="#linearGradient3098"
       id="linearGradient5020"
       gradientUnits="userSpaceOnUse"
       gradientTransform="matrix(1,1.0119694,0,1,-37.245304,-95.57957)"
       x1="56.876942"
       y1="100.97517"
       x2="62.079216"
       y2="105.32227" />
    <linearGradient
       inkscape:collect="always"
       xlink:href="#linearGradient3098"
       id="linearGradient5024"
       gradientUnits="userSpaceOnUse"
       gradientTransform="matrix(1,1.0119694,0,1,-34.065128,-90.447207)"
       x1="56.876942"
       y1="100.97517"
       x2="62.079216"
       y2="105.32227" />
    <filter
       inkscape:collect="always"
       id="filter3081"
       color-interpolation-filters="sRGB">
      <feGaussianBlur
         inkscape:collect="always"
         stdDeviation="1.8119611"
         id="feGaussianBlur3083" />
    </filter>
  </defs>
  <sodipodi:namedview
     id="base"
     pagecolor="#ffffff"
     bordercolor="#666666"
     borderopacity="1.0"
     gridtolerance="10000"
     guidetolerance="10"
     objecttolerance="10"
     inkscape:pageopacity="0.0"
     inkscape:pageshadow="2"
     inkscape:zoom="8"
     inkscape:cx="34.22401"
     inkscape:cy="43.96875"
     inkscape:document-units="px"
     inkscape:current-layer="layer2"
     showgrid="false"
     width="128px"
     inkscape:window-width="1392"
     inkscape:window-height="929"
     inkscape:window-x="1920"
     inkscape:window-y="0"
     inkscape:window-maximized="1"
     fit-margin-top="0"
     fit-margin-left="0"
     fit-margin-right="17"
     fit-margin-bottom="0" />
  <metadata
     id="metadata7">
    <rdf:RDF>
      <cc:Work
         rdf:about="">
        <dc:format>image/svg+xml</dc:format>
        <dc:type
           rdf:resource="http://purl.org/dc/dcmitype/StillImage" />
        <dc:title />
      </cc:Work>
    </rdf:RDF>
  </metadata>
  <g
     inkscape:groupmode="layer"
     id="layer2"
     inkscape:label="colors"
     transform="translate(-2.7223613,-24.34375)">
    <path
       style="fill:#000000;fill-opacity:0.51583713;fill-rule:evenodd;stroke:none;filter:url(#filter3081)"
       d="M 50.911688,102.89771 18.031223,82.391612 7.0710678,59.410642 46.315494,42.793633 91.923882,74.613438 50.911688,102.89771 z"
       id="path5040"
       sodipodi:nodetypes="cccccc"
       inkscape:connector-curvature="0" />
    <path
       style="fill:url(#linearGradient4173);fill-opacity:1;fill-rule:evenodd;stroke:none"
       d="m 57.408232,88.689282 0,3.557631 -0.04419,3.181981 0.04419,6.518636 0.04419,5.30331 -15.799417,-10.584509 1.303728,-1.524699 2.342291,-1.259534 5.060233,0.06629 2.298097,-2.386485 4.353126,-2.80633 0.397748,-0.06629 z"
       id="path4171"
       inkscape:connector-curvature="0" />
    <path
       id="path4938"
       d="m 52.349848,100.86799 4.999232,3.44505 0.05059,2.641 -5.065447,-3.38311 0.01563,-2.70294 z"
       style="fill:url(#linearGradient4940);fill-opacity:1;fill-rule:evenodd;stroke:none"
       sodipodi:nodetypes="ccccc"
       inkscape:connector-curvature="0" />
    <path
       style="fill:url(#linearGradient4177);fill-opacity:1;fill-rule:evenodd;stroke:none"
       d="m 20.263029,67.078331 -0.06629,2.43068 -0.176776,0.04419 -0.06629,2.695845 0.287262,0.309359 0,3.049398 -0.265165,0 0,2.717941 0.265165,0.15468 0,3.159884 6.938485,4.839262 -0.861786,-4.375224 0.508233,-2.541165 -2.519068,-3.270369 -0.68501,-6.098796 -3.358757,-3.115689 z"
       id="path4175"
       inkscape:connector-curvature="0" />
    <path
       style="fill:url(#linearGradient4838);fill-opacity:1;fill-rule:evenodd;stroke:none"
       d="m 32.145793,55.345034 -0.06082,10.735539 8.819565,5.960809 0.152062,-10.765951 -8.910802,-5.930397 z"
       id="path4836"
       inkscape:connector-curvature="0" />
    <path
       id="path5028"
       d="m 32.145793,55.345034 -0.06082,10.735539 8.819565,5.960809 0.152062,-10.765951 -8.910802,-5.930397 z"
       style="fill:#000000;fill-opacity:0.15686275;fill-rule:evenodd;stroke:none"
       inkscape:connector-curvature="0" />
    <path
       style="fill:url(#linearGradient3819);fill-opacity:1;fill-rule:evenodd;stroke:none"
       d="m 19.40625,39.75 0.1875,27.125 0.6875,0.09375 3.3125,3.4375 0.6875,5.6875 2.375,3.40625 -0.40625,2.5625 0.96875,4.5 14.5,10.375 L 42.8125,95.28125 44.1875,94.5 45.354708,93.926542 50.53125,94 l 1.6875,-2.0625 5.09375,-3.5 0,-23.625 L 19.40625,39.75 z m 10.65625,14 11.09375,8.03125 0,12.625 -11,-6.9375 L 30.0625,53.75 z"
       id="path3079"
       sodipodi:nodetypes="cccccccccccccccccccccc"
       inkscape:connector-curvature="0" />
    <path
       style="fill:url(#linearGradient3823);fill-opacity:1;fill-rule:evenodd;stroke:none"
       d="m 57.364038,64.802331 -0.08839,24.041631 5.303301,2.386485 1.944544,3.270369 3.800699,2.121321 1.149048,3.005203 3.800699,-0.265165 1.856156,0.441942 0,-21.92031 12.993087,-5.303301 -0.176777,23.953242 12.551145,-4.507806 0.35355,-26.870057 -2.386482,-1.502602 -4.77297,-0.795495 -0.265165,-0.707107 -0.08839,-2.209709 3.181981,-2.298097 1.149048,-3.977476 3.181978,-2.12132 -0.44194,-1.767767 -43.045124,15.026019 z"
       id="path3821"
       inkscape:connector-curvature="0" />
    <path
       style="fill:url(#linearGradient4219);fill-opacity:1;fill-rule:evenodd;stroke:none"
       d="m 88.078125,81.6875 c 0.15625,-0.04687 1.78125,-0.53125 1.78125,-0.53125 L 89.796875,84.125 88.0625,84.296875 88.07813,81.6875 z"
       id="path4217"
       inkscape:connector-curvature="0" />
    <path
       style="fill:url(#linearGradient3827);fill-opacity:1;fill-rule:evenodd;stroke:none"
       d="m 42.25,31.375 -22.625,8.25 37.75,25.25 L 100.625,49.75 96,46.5 95.25,46.625 94.629777,45.860132 93.8125,45.375 l -0.4375,-0.75 -29,-19.375 -1.125,0 -1.125,-0.6875 -15.375,5.3125 -0.1875,0.875 -3.6875,1.375 -0.625,-0.75 z"
       id="path3825"
       sodipodi:nodetypes="cccccccccccccccc"
       inkscape:connector-curvature="0" />
    <path
       style="fill:url(#linearGradient4169);fill-opacity:1;fill-rule:evenodd;stroke:none"
       d="m 57.297747,88.689282 0.06629,0.795495 0.0221,5.92202 -0.08839,2.80633 0.132582,3.115693 -0.04419,5.85572 17.699767,-6.0104 c 0,0 0.132582,-1.23744 -0.08839,-1.325829 -0.220971,-0.08839 -1.59099,-0.53033 -1.59099,-0.53033 l -3.86699,0.353553 -1.237437,-3.049398 -3.822796,-2.209708 -1.922447,-3.270369 -5.259106,-2.452777 z"
       id="path4167"
       inkscape:connector-curvature="0" />
    <path
       sodipodi:nodetypes="ccccc"
       style="fill:url(#linearGradient4994);fill-opacity:1;fill-rule:evenodd;stroke:none"
       d="m 20.473682,78.762967 4.910174,3.44505 0.02832,2.641 -4.954124,-3.38311 0.01563,-2.70294 z"
       id="path4990"
       inkscape:connector-curvature="0" />
    <path
       style="fill:url(#linearGradient4183);fill-opacity:1;fill-rule:evenodd;stroke:none"
       d="m 100.36497,51.853438 0,2.077126 0.19887,0.198874 0.0221,2.585359 -0.28726,0.441942 0.0884,2.762136 0.26516,0.243068 -0.0442,2.496971 -0.28727,0.508233 0.0884,1.811961 -1.900346,-1.237437 -4.971845,-0.928078 -0.220971,-3.005203 3.159884,-2.209709 1.171145,-4.132155 2.717943,-1.613088 z"
       id="path4181"
       inkscape:connector-curvature="0" />
    <path
       style="fill:url(#linearGradient4187);fill-opacity:1;fill-rule:evenodd;stroke:none"
       d="m 75.3125,99.375 1.9375,-0.5 0.25,-0.4375 2.375,-0.875 0.375,0.1875 1.9375,-0.875 0.25,-0.3125 1.6875,-0.625 0.4375,0 1.75,-0.75 0.0625,-5.9375 -1.3125,-3.125 1.3125,-0.9375 -0.3125,-0.5625 -0.5625,0 -0.5,-0.5 0.1875,-0.375 0.5625,0.0625 0.25,-0.75 0.25,-0.6875 0.125,-9.25 L 75,77.75 75.3125,99.375 z"
       id="path4185"
       inkscape:connector-curvature="0" />
    <path
       style="fill:url(#linearGradient4215);fill-opacity:1;fill-rule:evenodd;stroke:none"
       d="m 86.234375,82.15625 -1.59375,0.609375 -0.01563,2.875 1.578125,-0.5625 0.03125,-2.921875 z"
       id="path4213"
       inkscape:connector-curvature="0" />
    <path
       style="fill:url(#linearGradient4191);fill-opacity:1;fill-rule:evenodd;stroke:none"
       d="M 75.25,81.75 85.6875,78.1875 85.75,81.125 75.0625,85.5 75.25,81.75 z"
       id="path4189"
       inkscape:connector-curvature="0" />
    <path
       style="fill:url(#linearGradient4195);fill-opacity:1;fill-rule:evenodd;stroke:none"
       d="m 75.25,91.75 10.25,-3.625 0.125,3 L 75.3125,95.1875 75.25,91.75 z"
       id="path4193"
       inkscape:connector-curvature="0" />
    <path
       style="fill:url(#linearGradient4199);fill-opacity:1;fill-rule:evenodd;stroke:none"
       d="M 86.125,73.375 86.25,95.25 87.875,96.625 88.0625,72.5 86.125,73.375 z"
       id="path4197"
       inkscape:connector-curvature="0" />
    <path
       id="path5038"
       d="M 86.125,73.375 86.25,95.25 87.875,96.625 88.0625,72.5 86.125,73.375 z"
       style="fill:#000000;fill-opacity:0.15686275;fill-rule:evenodd;stroke:none"
       inkscape:connector-curvature="0" />
    <path
       style="fill:url(#linearGradient4203);fill-opacity:1;fill-rule:evenodd;stroke:none"
       d="m 86.5625,85.578125 -0.859375,-1.75 0.265625,-0.90625 0.90625,-0.6875 c 0,0 1.296875,0.4375 1.296875,0.5 0,0.0625 1.078125,1.78125 1.078125,1.78125 l -0.203125,0.40625 -0.375,0 L 87.859375,83.1875 87,83.015625 l -0.4375,0.28125 -0.28125,0.546875 0.8125,1.546875 -0.1875,0.3125 -0.34375,-0.125 z"
       id="path4201"
       inkscape:connector-curvature="0" />
    <path
       style="fill:url(#linearGradient4207);fill-opacity:1;fill-rule:evenodd;stroke:none"
       d="m 85.171875,83.703125 c 0,0 0.5,0.109375 0.65625,0.171875 0.15625,0.0625 0.96875,-0.0625 0.96875,-0.0625 l 0.1875,0.25 -0.07813,0.359375 -0.609375,0.171875 -0.765625,0.0625 c 0,0 -0.421875,-0.265625 -0.453125,-0.359375 -0.03125,-0.09375 0.01563,-0.5625 0.09375,-0.59375 z"
       id="path4205"
       inkscape:connector-curvature="0" />
    <path
       style="fill:url(#linearGradient4211);fill-opacity:1;fill-rule:evenodd;stroke:none"
       d="m 87.453125,83.484375 0.453125,-0.25 0.59375,-0.46875 0.265625,-0.421875 0.34375,0.265625 -0.07813,0.375 -0.35937,0.671875 L 88.25,83.984375 87.65625,83.9375 87.453125,83.484375 z"
       id="path4209"
       inkscape:connector-curvature="0" />
    <path
       style="fill:url(#linearGradient4561);fill-rule:evenodd;stroke:none"
       d="m 85.234375,86 1.125,-0.71875 0.203125,0.421875 0.484375,-0.0625 0.15625,-0.234375 -0.171875,-0.296875 1.328125,-0.640625 0.234375,0.359375 0.3125,0.125 c 0,0 0.421875,-0.25 0.390625,-0.3125 C 89.265625,84.578125 89.125,84.1875 89.125,84.1875 L 90.109375,84.109375 90.75,84.5 90.578125,84.796875 85.948323,86.480046 85.234375,86 z"
       id="path4221"
       sodipodi:nodetypes="cccccccccscccccc"
       inkscape:connector-curvature="0" />
    <path
       style="fill:url(#linearGradient4565);fill-rule:evenodd;stroke:none"
       d="m 85.133252,86.218682 1.00345,0.276313 4.624594,-1.672417 -0.15997,3.984714 -2.515896,1.032535 -0.58171,0.08726 c 0,0 -0.887107,-0.363568 -0.887107,-0.421739 0,-0.05817 -1.512446,-3.272119 -1.483361,-3.286662 z"
       id="path4563"
       inkscape:connector-curvature="0" />
    <path
       style="fill:url(#linearGradient4569);fill-rule:evenodd;stroke:none"
       d="m 30.097777,54.070508 0.07305,13.039936 1.862848,-0.986214 0.07305,-10.994455 -2.008954,-1.059267 z"
       id="path4567"
       inkscape:connector-curvature="0" />
    <path
       style="fill:url(#linearGradient4573);fill-opacity:1;fill-rule:evenodd;stroke:none"
       d="m 30.353462,66.891285 1.753269,-0.840108 0.767055,0.474844 0,0.986213 0.365264,0.730529 0.474844,0.182632 0.620949,-0.03653 0.474843,-0.365265 2.410745,1.461057 -0.07305,0.840108 0.584423,0.730529 0.51137,0.07305 0.767055,-0.365265 2.04548,1.424531 -0.10958,1.680216 -0.219158,0.07305 -10.336979,-6.355599 -0.03653,-0.694002 z"
       id="path4571"
       inkscape:connector-curvature="0" />
    <path
       style="fill:url(#linearGradient4577);fill-rule:evenodd;stroke:none"
       d="m 32.910312,56.042936 0,11.578878 0.365264,0.584422 0.584423,0.292212 0.767055,-0.292212 0.219159,-0.51137 -0.03653,-10.446558 -1.899374,-1.205372 z"
       id="path4575"
       inkscape:connector-curvature="0" />
    <path
       id="path4579"
       d="m 37.074325,58.745892 0,11.578878 0.365264,0.584422 0.584423,0.292212 0.767055,-0.292212 0.219159,-0.51137 -0.03653,-10.446558 -1.899374,-1.205372 z"
       style="fill:url(#linearGradient4581);fill-rule:evenodd;stroke:none"
       inkscape:connector-curvature="0" />
    <path
       style="fill:url(#linearGradient4842);fill-opacity:1;fill-rule:evenodd;stroke:none"
       d="m 57.6875,104.0625 4.921875,-1.59375 0.03125,2.60937 -4.96875,1.70313 0.01563,-2.71875 z"
       id="path4840"
       inkscape:connector-curvature="0" />
    <path
       id="path4844"
       d="m 63.057092,102.16215 4.921875,-1.59375 0.03125,2.60937 -4.96875,1.70313 0.01563,-2.71875 z"
       style="fill:url(#linearGradient4846);fill-opacity:1;fill-rule:evenodd;stroke:none"
       inkscape:connector-curvature="0" />
    <path
       style="fill:url(#linearGradient4850);fill-opacity:1;fill-rule:evenodd;stroke:none"
       d="m 68.400842,100.2559 2.301156,-0.745136 2.651969,-0.161114 0,1.92187 -4.96875,1.70313 0.01563,-2.71875 z"
       id="path4848"
       sodipodi:nodetypes="cccccc"
       inkscape:connector-curvature="0" />
    <path
       id="path4852"
       d="m 73.588342,99.4434 1.421875,0.375 -0.03125,0.98437 -1.4375,0.51563 0.04687,-1.875 z"
       style="fill:url(#linearGradient4854);fill-opacity:1;fill-rule:evenodd;stroke:none"
       sodipodi:nodetypes="ccccc"
       inkscape:connector-curvature="0" />
    <path
       id="path4856"
       d="m 57.4375,101.34375 2.140625,-0.71875 0.03125,2.60937 -2.25,0.76563 0.07813,-2.65625 z"
       style="fill:url(#linearGradient4858);fill-opacity:1;fill-rule:evenodd;stroke:none"
       sodipodi:nodetypes="ccccc"
       inkscape:connector-curvature="0" />
    <path
       sodipodi:nodetypes="ccccc"
       style="fill:url(#linearGradient4862);fill-opacity:1;fill-rule:evenodd;stroke:none"
       d="m 57.375,95.375 2.015625,-0.65625 0.03125,2.57812 -2.125,0.73438 L 57.375,95.375 z"
       id="path4860"
       inkscape:connector-curvature="0" />
    <path
       id="path4864"
       d="m 57.40625,89.375 0.871215,-0.292525 1.17566,0.605025 0,1.67187 -2.125,0.67188 0.07813,-2.65625 z"
       style="fill:url(#linearGradient4866);fill-opacity:1;fill-rule:evenodd;stroke:none"
       sodipodi:nodetypes="cccccc"
       inkscape:connector-curvature="0" />
    <path
       id="path4868"
       d="m 60.125,100.28125 4.921875,-1.59375 0.03125,2.60937 L 60.109375,103 60.125,100.28125 z"
       style="fill:url(#linearGradient4870);fill-opacity:1;fill-rule:evenodd;stroke:none"
       inkscape:connector-curvature="0" />
    <path
       style="fill:url(#linearGradient4874);fill-opacity:1;fill-rule:evenodd;stroke:none"
       d="m 57.6875,98.125 4.921875,-1.59375 0.03125,2.60937 -4.96875,1.70313 0.01563,-2.71875 z"
       id="path4872"
       inkscape:connector-curvature="0" />
    <path
       id="path4876"
       d="m 65.4375,98.40625 3.203125,-1.03125 0.9375,2.32812 -4.15625,1.42188 0.01563,-2.71875 z"
       style="fill:url(#linearGradient4878);fill-opacity:1;fill-rule:evenodd;stroke:none"
       sodipodi:nodetypes="ccccc"
       inkscape:connector-curvature="0" />
    <path
       style="fill:url(#linearGradient4882);fill-opacity:1;fill-rule:evenodd;stroke:none"
       d="m 63.125,96.21875 2.830317,-0.916484 2.091558,1.197734 0.03125,0.73437 -4.96875,1.70313 0.01563,-2.71875 z"
       id="path4880"
       sodipodi:nodetypes="cccccc"
       inkscape:connector-curvature="0" />
    <path
       id="path4884"
       d="m 59.875,94.375 3.967616,-1.284752 0.516759,1.222252 0.511229,0.300825 -0.04248,0.777295 -4.96875,1.70313 L 59.875,94.375 z"
       style="fill:url(#linearGradient4886);fill-opacity:1;fill-rule:evenodd;stroke:none"
       sodipodi:nodetypes="ccccccc"
       inkscape:connector-curvature="0" />
    <path
       style="fill:url(#linearGradient4890);fill-opacity:1;fill-rule:evenodd;stroke:none"
       d="m 57.71875,92.25 4.230526,-1.369885 0.691349,0.307385 0.03125,2.07812 -4.96875,1.70313 0.01563,-2.71875 z"
       id="path4888"
       sodipodi:nodetypes="cccccc"
       inkscape:connector-curvature="0" />
    <path
       id="path4892"
       d="m 59.8125,89.90625 1.578125,0.73437 -1.53125,0.54688 -0.04687,-1.28125 z"
       style="fill:url(#linearGradient4894);fill-opacity:1;fill-rule:evenodd;stroke:none"
       sodipodi:nodetypes="cccc"
       inkscape:connector-curvature="0" />
    <path
       style="fill:url(#linearGradient4898);fill-opacity:1;fill-rule:evenodd;stroke:none"
       d="m 63.09375,91.84375 0.609375,1.01562 -0.65625,0.17188 0.04687,-1.1875 z"
       id="path4896"
       sodipodi:nodetypes="cccc"
       inkscape:connector-curvature="0" />
    <path
       sodipodi:nodetypes="ccccc"
       style="fill:url(#linearGradient4904);fill-opacity:1;fill-rule:evenodd;stroke:none"
       d="m 98.039914,60.893897 2.531816,-0.756006 -0.006,2.60937 -2.603931,0.802886 0.07813,-2.65625 z"
       id="path4900"
       inkscape:connector-curvature="0" />
    <path
       style="fill:url(#linearGradient4906);fill-opacity:1;fill-rule:evenodd;stroke:none"
       d="m 95.008642,58.937257 4.921875,-1.59375 0.03125,2.60937 -4.96875,1.70313 0.01563,-2.71875 z"
       id="path4902"
       inkscape:connector-curvature="0" />
    <path
       id="path4914"
       d="m 97.622412,53.510843 2.308105,-1.536929 0.03125,2.012749 -2.781138,1.021277 0.441783,-1.497097 z"
       style="fill:url(#linearGradient4916);fill-opacity:1;fill-rule:evenodd;stroke:none"
       sodipodi:nodetypes="ccccc"
       inkscape:connector-curvature="0" />
    <path
       style="fill:url(#linearGradient4920);fill-opacity:1;fill-rule:evenodd;stroke:none"
       d="m 97.054201,55.385939 0.773936,-0.343686 0.03125,2.60937 -2.582265,0.850814 1.287591,-0.893098 0.489488,-2.2234 z"
       id="path4918"
       sodipodi:nodetypes="cccccc"
       inkscape:connector-curvature="0" />
    <path
       id="path4922"
       d="m 94.014273,59.306594 0.575062,-0.03117 0.03125,2.60937 -1.161737,0.254192 -0.109881,-2.291885 0.665306,-0.540507 z"
       style="fill:url(#linearGradient4924);fill-opacity:1;fill-rule:evenodd;stroke:none"
       sodipodi:nodetypes="cccccc"
       inkscape:connector-curvature="0" />
    <path
       style="fill:url(#linearGradient4928);fill-opacity:1;fill-rule:evenodd;stroke:none"
       d="m 93.417651,62.516986 4.069559,-1.309645 0.0028,2.353675 -3.832328,-0.740176 -0.24007,-0.303854 z"
       id="path4926"
       sodipodi:nodetypes="ccccc"
       inkscape:connector-curvature="0" />
    <path
       id="path4930"
       d="m 98.474727,63.767049 1.4842,-0.514149 0.03125,1.586591 -1.51545,-1.072442 z"
       style="fill:url(#linearGradient4932);fill-opacity:1;fill-rule:evenodd;stroke:none"
       sodipodi:nodetypes="cccc"
       inkscape:connector-curvature="0" />
    <path
       id="path4934"
       d="m 98.324019,54.842452 2.247711,-0.699185 0.0224,2.58096 -2.348246,0.774475 0.07813,-2.65625 z"
       style="fill:url(#linearGradient4936);fill-opacity:1;fill-rule:evenodd;stroke:none"
       sodipodi:nodetypes="ccccc"
       inkscape:connector-curvature="0" />
    <path
       sodipodi:nodetypes="ccccc"
       style="fill:url(#linearGradient4944);fill-opacity:1;fill-rule:evenodd;stroke:none"
       d="m 54.981407,99.680568 2.411375,1.698662 -0.0074,2.49334 -2.462733,-1.61311 0.05879,-2.578892 z"
       id="path4942"
       inkscape:connector-curvature="0" />
    <path
       id="path4946"
       d="m 55.172856,93.909733 2.192576,1.507212 -0.06213,2.54804 -2.079834,-1.366961 -0.05061,-2.688291 z"
       style="fill:url(#linearGradient4948);fill-opacity:1;fill-rule:evenodd;stroke:none"
       sodipodi:nodetypes="ccccc"
       inkscape:connector-curvature="0" />
    <path
       sodipodi:nodetypes="cccccc"
       style="fill:url(#linearGradient4952);fill-opacity:1;fill-rule:evenodd;stroke:none"
       d="m 56.458303,88.986745 0.907129,0.495265 -0.0074,2.68479 -1.997784,-1.44901 0.0327,-0.94443 1.06538,-0.786615 z"
       id="path4950"
       inkscape:connector-curvature="0" />
    <path
       sodipodi:nodetypes="ccccc"
       style="fill:url(#linearGradient4956);fill-opacity:1;fill-rule:evenodd;stroke:none"
       d="m 47.098662,97.17575 4.999232,3.44505 0.05059,2.641 -5.065447,-3.38311 0.01563,-2.70294 z"
       id="path4954"
       inkscape:connector-curvature="0" />
    <path
       id="path4958"
       d="m 43.543171,94.796306 3.248837,2.186953 0.05059,2.641 -4.873997,-3.30106 0.978001,-1.218575 0.596569,-0.308318 z"
       style="fill:url(#linearGradient4960);fill-opacity:1;fill-rule:evenodd;stroke:none"
       sodipodi:nodetypes="cccccc"
       inkscape:connector-curvature="0" />
    <path
       sodipodi:nodetypes="ccccccc"
       style="fill:url(#linearGradient4964);fill-opacity:1;fill-rule:evenodd;stroke:none"
       d="m 45.320917,93.893758 1.247497,0.01324 2.876537,1.982268 0.05059,2.641 -4.928697,-3.41046 -0.03555,-0.785344 0.789626,-0.4407 z"
       id="path4962"
       inkscape:connector-curvature="0" />
    <path
       id="path4966"
       d="m 49.806305,96.109103 4.889832,3.363 0.05059,2.640997 -4.928697,-3.437807 -0.01172,-2.56619 z"
       style="fill:url(#linearGradient4968);fill-opacity:1;fill-rule:evenodd;stroke:none"
       sodipodi:nodetypes="ccccc"
       inkscape:connector-curvature="0" />
    <path
       sodipodi:nodetypes="ccccc"
       style="fill:url(#linearGradient4972);fill-opacity:1;fill-rule:evenodd;stroke:none"
       d="m 52.076349,94.686906 4.999232,3.44505 0.05059,2.640994 -5.065447,-3.383104 0.01563,-2.70294 z"
       id="path4970"
       inkscape:connector-curvature="0" />
    <path
       id="path4974"
       d="m 50.298604,93.948458 0.294623,-0.239258 1.258518,0.867265 0.05059,2.640994 -5.065447,-3.383104 3.461716,0.114103 z"
       style="fill:url(#linearGradient4976);fill-opacity:1;fill-rule:evenodd;stroke:none"
       sodipodi:nodetypes="cccccc"
       inkscape:connector-curvature="0" />
    <path
       sodipodi:nodetypes="ccccc"
       style="fill:url(#linearGradient4980);fill-opacity:1;fill-rule:evenodd;stroke:none"
       d="m 52.267799,91.869863 2.647138,1.858754 0.05059,2.640994 -4.135549,-2.890805 1.437821,-1.608943 z"
       id="path4978"
       inkscape:connector-curvature="0" />
    <path
       id="path4982"
       d="m 54.346394,90.475016 2.565088,1.694655 0.05059,2.640994 -4.463749,-3.027555 1.848071,-1.308094 z"
       style="fill:url(#linearGradient4984);fill-opacity:1;fill-rule:evenodd;stroke:none"
       sodipodi:nodetypes="ccccc"
       inkscape:connector-curvature="0" />
    <path
       sodipodi:nodetypes="cccc"
       style="fill:url(#linearGradient4988);fill-opacity:1;fill-rule:evenodd;stroke:none"
       d="m 55.024337,89.981677 0.05059,0.589749 -0.525359,-0.319912 0.474769,-0.269837 z"
       id="path4986"
       inkscape:connector-curvature="0" />
    <path
       id="path4992"
       d="m 20.010463,75.549467 2.923461,2.010366 0.0371,2.671457 -3.019348,-2.102931 0.05879,-2.578892 z"
       style="fill:url(#linearGradient4996);fill-opacity:1;fill-rule:evenodd;stroke:none"
       sodipodi:nodetypes="ccccc"
       inkscape:connector-curvature="0" />
    <path
       sodipodi:nodetypes="ccccc"
       style="fill:url(#linearGradient5000);fill-opacity:1;fill-rule:evenodd;stroke:none"
       d="m 20.010463,69.598444 3.269817,2.293748 -0.02587,2.514023 -3.30273,-2.228879 0.05879,-2.578892 z"
       id="path4998"
       inkscape:connector-curvature="0" />
    <path
       id="path5002"
       d="m 25.794967,82.320986 0.627957,0.516769 0.658063,3.05033 -1.301645,-0.864159 0.01563,-2.70294 z"
       style="fill:url(#linearGradient5004);fill-opacity:1;fill-rule:evenodd;stroke:none"
       sodipodi:nodetypes="ccccc"
       inkscape:connector-curvature="0" />
    <path
       sodipodi:nodetypes="cccccc"
       style="fill:url(#linearGradient5008);fill-opacity:1;fill-rule:evenodd;stroke:none"
       d="m 23.307503,77.755387 3.335829,2.405983 -0.277489,1.999533 0.05392,0.452545 -3.127884,-2.155121 0.01563,-2.70294 z"
       id="path5006"
       inkscape:connector-curvature="0" />
    <path
       id="path5010"
       d="m 20.379222,72.811945 3.982176,2.793953 -0.01661,0.808531 0.960588,1.332599 0.01234,1.150967 -4.954124,-3.38311 0.01563,-2.70294 z"
       style="fill:url(#linearGradient5012);fill-opacity:1;fill-rule:evenodd;stroke:none"
       sodipodi:nodetypes="ccccccc"
       inkscape:connector-curvature="0" />
    <path
       sodipodi:nodetypes="ccccc"
       style="fill:url(#linearGradient5016);fill-opacity:1;fill-rule:evenodd;stroke:none"
       d="m 25.794967,78.259177 0.974312,1.240967 0.02832,0.31097 -1.049749,-0.64375 0.04711,-0.908187 z"
       id="path5014"
       inkscape:connector-curvature="0" />
    <path
       sodipodi:nodetypes="ccccc"
       style="fill:url(#linearGradient5020);fill-opacity:1;fill-rule:evenodd;stroke:none"
       d="m 20.473683,67.301738 3.052447,2.972747 0.248734,1.601933 -3.348293,-2.312556 0.04711,-2.262124 z"
       id="path5018"
       inkscape:connector-curvature="0" />
    <path
       id="path5022"
       d="m 23.622372,71.993285 0.627957,3.03572 -0.643582,-0.33278 0.01563,-2.70294 z"
       style="fill:url(#linearGradient5024);fill-opacity:1;fill-rule:evenodd;stroke:none"
       sodipodi:nodetypes="cccc"
       inkscape:connector-curvature="0" />
    <path
       sodipodi:nodetypes="cccccccccccccccccccccc"
       id="path5026"
       d="m 19.40625,39.75 0.1875,27.125 0.6875,0.09375 3.3125,3.4375 0.6875,5.6875 2.375,3.40625 -0.40625,2.5625 0.96875,4.5 14.5,10.375 L 42.8125,95.28125 44.1875,94.5 45.354708,93.926542 50.53125,94 l 1.6875,-2.0625 5.09375,-3.5 0,-23.625 L 19.40625,39.75 z m 10.65625,14 11.09375,8.03125 0,12.625 -11,-6.9375 L 30.0625,53.75 z"
       style="fill:#000000;fill-opacity:0.15686275;fill-rule:evenodd;stroke:none"
       inkscape:connector-curvature="0" />
    <path
       id="path5030"
       d="m 30.097777,54.070508 0.07305,13.039936 1.862848,-0.986214 0.07305,-10.994455 -2.008954,-1.059267 z"
       style="fill:#000000;fill-opacity:0.15686275;fill-rule:evenodd;stroke:none"
       inkscape:connector-curvature="0" />
    <path
       id="path5032"
       d="m 30.353462,66.891285 1.753269,-0.840108 0.767055,0.474844 0,0.986213 0.365264,0.730529 0.474844,0.182632 0.620949,-0.03653 0.474843,-0.365265 2.410745,1.461057 -0.07305,0.840108 0.584423,0.730529 0.51137,0.07305 0.767055,-0.365265 2.04548,1.424531 -0.10958,1.680216 -0.219158,0.07305 -10.336979,-6.355599 -0.03653,-0.694002 z"
       style="fill:#000000;fill-opacity:0.15686275;fill-rule:evenodd;stroke:none"
       inkscape:connector-curvature="0" />
    <path
       style="fill:#000000;fill-opacity:0.15686275;fill-rule:evenodd;stroke:none"
       d="m 20.263029,67.078331 -0.06629,2.43068 -0.176776,0.04419 -0.06629,2.695845 0.287262,0.309359 0,3.049398 -0.265165,0 0,2.717941 0.265165,0.15468 0,3.159884 6.938485,4.839262 -0.861786,-4.375224 0.508233,-2.541165 -2.519068,-3.270369 -0.68501,-6.098796 -3.358757,-3.115689 z"
       id="path5034"
       inkscape:connector-curvature="0" />
    <path
       style="fill:#000000;fill-opacity:0.15686275;fill-rule:evenodd;stroke:none"
       d="m 57.408232,88.689282 0,3.557631 -0.04419,3.181981 0.04419,6.518636 0.04419,5.30331 -15.799417,-10.584509 1.303728,-1.524699 2.342291,-1.259534 5.060233,0.06629 2.298097,-2.386485 4.353126,-2.80633 0.397748,-0.06629 z"
       id="path5036"
       inkscape:connector-curvature="0" />
  </g>
  <g
     inkscape:label="outline"
     inkscape:groupmode="layer"
     id="layer1"
     style="display:inline"
     transform="translate(-2.7223613,-24.34375)">
    <path
       style="fill:#000000;fill-opacity:1;fill-rule:evenodd;stroke:none"
       d="m 62.09375,24.34375 -15.65625,5.5 -0.21875,0.84375 -3.03125,1.21875 -0.8125,-0.65625 -23.28125,8.15625 0.125,27.375 0.917624,0.575444 -0.01111,2.001651 -0.201428,0.06266 -0.01833,2.828306 0.293018,0.439663 -0.02566,2.720092 -0.288838,0.154816 -0.01775,2.739636 0.307496,0.331733 -0.0063,2.518038 -0.320352,0.111687 -0.0033,0.516277 37.1875,26.187497 18.71875,-6.6875 -0.125,-1.718747 1.875,-0.71875 0.259147,-0.320441 1.881172,-0.686847 0.443757,0.0418 2.353424,-0.972013 0.28127,-0.343713 1.278604,-0.506909 0.408114,0.09863 1.875762,-0.716755 1.5,1.5625 13.1875,-4.9375 0.0625,-26.78125 -0.5,-0.65625 0,-1.59375 0.15625,-0.3125 0,-2.84375 -0.1875,-0.25 -0.0496,-2.497151 0.23708,-0.409099 0,-2.78125 -0.19431,-0.22432 0.007,-1.65068 0.5625,-0.53125 0,-1.8125 -4.96875,-3.375 -0.6875,0.1875 -1.5,-1.28125 -0.125,-0.46875 -29.5,-20.0625 -1.125,0.375 -1.0625,-0.75 z M 62,24.875 l 0.03125,0 1,0.59375 1.25,-0.09375 L 93.25,45 l -0.125,0.875 1.40625,0.09375 0.03125,1.46875 1.3125,-0.65625 4.28125,2.90625 L 57.21875,64.5 20.40625,39.65625 42.375,31.875 l 1.53125,2.3125 0.125,-2.21875 1.375,0.1875 L 45.5625,31.25 47.46875,31.59375 46.8125,30.28125 61.09375,25.21875 63,27.28125 62.28125,28.9375 61,29.90625 l -2.90625,-0.0625 0.0625,0.09375 2.5,0.40625 -0.25,1.3125 0.1875,0.0625 0.375,-1.3125 0.34375,0.0625 1,-0.875 1.5625,1.59375 -1.0625,1.6875 0.09375,0.03125 1,-1.28125 1.3125,0.21875 -0.3125,3.0625 0.125,0 0.4375,-2.9375 1.625,-0.1875 0.0625,-0.03125 -1.625,-0.125 0,-0.03125 -1.25,-0.46875 -1.6875,-1.71875 L 63.375,27.5625 64.625,28.25 64.75,28.21875 63.53125,27.1875 63.5625,27.125 62,24.875 z m -42.15625,15.3125 37.125,25.15625 -0.0625,23.28125 -4.78125,3.0625 -1.8125,2.1875 -4.9375,-0.0625 -2.4375,1.125 -1.15625,1.4375 -14.5,-10.03125 -0.84375,-4.125 0.53125,-2.6875 -2.5,-3.25 L 23.75,70.125 20.03125,66.65625 19.84375,40.1875 z m 80.5625,9.96875 0,1.3125 -3,1.96875 -0.96875,4.03125 -3.15625,2.3125 0.03125,2.8125 -0.03125,-0.03125 -1.3125,1.5625 -2.28125,-0.0625 0.0625,0.1875 2.15625,0.21875 0.78125,1.09375 0,-0.15625 -0.4375,-1.03125 1.4375,-1.46875 4.59375,0.90625 2.0625,1.4375 -0.125,26.5625 -11.90625,4.125 0,-6.03125 2.46875,-1.0625 L 91,84.5 c -0.248186,-0.448154 -0.620808,-0.559461 -1.125,-0.5625 l 0,-2.875 -1.5625,0.46875 0,-8.5625 0.03125,0 0.21875,-1.03125 1.65625,0 -0.03125,0.03125 1.71875,1.34375 -1.3125,-1.65625 L 91.1875,71 l -0.125,0.03125 -0.8125,0.53125 -1.53125,-0.25 0,-0.03125 L 87.1875,70 l -0.0625,0.125 1.21875,1.25 -0.875,1.09375 L 74.75,77.5625 74.75,99.625 73.40625,99.25 69.5625,99.4375 68.40625,96.53125 64.625,94.375 l -1.8125,-3.25 -5.15625,-2.5 -0.0625,-22.75 1.21875,1.0625 -0.1875,1.375 0.625,-1.25 1.71875,0.4375 2.71875,-1.5 0.4375,-0.0625 2.90625,0.59375 1.625,2.125 0.21875,-0.03125 -1.78125,-2.21875 -0.03125,0 L 67.03125,66.375 65.125,65.75 l 2.28125,-0.40625 1.5,-1.8125 -0.09375,-0.0625 -1.59375,1.5 -3.65625,0.59375 -2.5,1.5 -1.875,-0.5 -1,-1.40625 42.21875,-15 z M 100.21875,52 l 0,2.125 -1.96875,0.625 0,2.8125 1.96875,-0.65625 0.0312,3.1875 -2.34375,0.78125 0,2.5625 -0.34375,-0.0625 0,-2.28125 -3.90625,1.28125 -0.03125,-0.15625 1.03125,-0.34375 0,-2.75 -0.21875,0.0625 0.8125,-0.5625 2.65625,-0.90625 0,-2.75 -0.53125,0.1875 0.0625,-0.21875 2.625,-0.90625 0,-1.9375 L 100.21875,52 z m -0.3125,0.21875 0.03125,1.71875 -2.46875,0.84375 0.34375,-1.125 2.09375,-1.4375 z M 29.75,53.25 l 0.125,14.28125 10.6875,6.625 0.75,1.75 -1.1875,1.46875 0.875,1.21875 0.15625,0.125 -0.59375,-1.3125 1,-1.28125 1.46875,0.40625 0.6875,3.96875 1.6875,0.625 -0.03125,-0.21875 -1.46875,-0.375 -0.4375,-3.6875 2,0.78125 L 46.125,79 46.25,78.96875 45.9375,77.5625 46.875,76.875 46.78125,76.90625 45.5,77.25 43.25,76.0625 43.25,76.125 41.90625,76 41.4375,74.375 41.375,61.96875 l 1.96875,-1.40625 0.75,0.46875 1.1875,2.46875 0.1875,0.125 -0.8125,-2.40625 1.125,-0.375 0,-0.09375 -1.25,0.15625 L 44.5,60.78125 43.34375,60.1875 40.90625,60.96875 29.75,53.25 z m 70.6875,1 0.0312,2.4375 -2.0625,0.71875 0,-2.53125 2.03125,-0.625 z M 30.5,54.5 l 1.375,0.96875 0,10.46875 -1.3125,0.625 L 30.5,54.5 z m 67.25,0.65625 0.03125,2.46875 -2.15625,0.75 1,-0.6875 0.6875,-2.375 0.4375,-0.15625 z m -65.4375,0.625 0.4375,0.3125 0,10.03125 -0.4375,-0.28125 0,-10.0625 z m 0.75,0.5625 1.59375,1.125 0.03125,10.25 c -0.667732,1.227949 -1.652118,0.340045 -1.625,-0.34375 l 0,-11.03125 z m 67,0.90625 -5.09375,1.65625 L 95,61.71875 100.0625,60 l 0,-2.75 z m -0.1875,0.1875 0.03125,2.46875 -4.78125,1.625 0,-2.5 4.75,-1.59375 z M 34.96875,57.6875 37,59.15625 37,69 l -2.03125,-1.34375 0,-9.96875 z m 59.5,1.625 0.03125,2.46875 -0.875,0.28125 -0.21875,-2.15625 0.6875,-0.46875 0.375,-0.125 z M 37.3125,59.375 38.90625,60.5 38.9375,70.375 c -0.667733,1.227956 -1.652118,0.340045 -1.625,-0.34375 l 0,-10.65625 z m 63.21875,0.78125 -0.0312,2.5 -2.34375,0.8125 -0.09375,0 -0.03125,-2.5 2.5,-0.8125 z m -61.3125,0.5625 1.46875,1.0625 0,9.71875 -1.46875,-1.03125 0,-9.75 z m 58.1875,0.53125 0.03125,2.09375 -3.75,-0.65625 -0.03125,-0.1875 3.75,-1.25 z m 2.84375,1.625 0,1.96875 -0.1875,-0.15625 0,-1.5625 -1.40625,0.46875 -0.0625,-0.03125 -0.03125,-0.03125 -0.0625,0 -0.09375,0 L 100.25,62.875 z m -0.34375,0.4375 0.03125,1.28125 -1.1875,-0.90625 1.15625,-0.375 z m -67.78125,3.03125 0.625,0.4375 0,0.65625 c -0.08786,0.362922 1.061136,1.941543 2.03125,0.75 l 2.21875,1.5 0,0.40625 c -0.08428,0.34812 0.964247,1.808077 1.90625,0.875 l 1.78125,1.25 0,1.4375 -10.0625,-6.6875 1.5,-0.625 z m -11.84375,0.9375 0.125,0.125 0,2.21875 3.15625,2.15625 0.03125,0.125 -0.03125,-0.03125 0,2.84375 0.46875,0.3125 0.03125,0.28125 -3.6875,-2.59375 0,2.8125 5.0625,3.5 0,-0.96875 0.21875,0.3125 0,0.75 0.9375,0.625 -0.03125,0.1875 -3.34375,-2.34375 0,2.8125 3.09375,2.15625 0.03125,0.15625 -0.65625,-0.46875 0,2.8125 1.21875,0.84375 0.03125,0.1875 -6.59375,-4.625 0,-3.03125 2.6875,1.875 0,-2.75 -2.71875,-1.90625 0,-3.1875 3.0625,2.125 0,-2.75 -3.09375,-2.15625 0,-2.40625 z m 0.28125,0.28125 2.8125,2.84375 0.1875,1.25 -3,-2.0625 0,-2.03125 z m -0.524318,2.148667 3.180568,2.163833 0.03125,2.46875 -3.224762,-2.132583 0.01294,-2.5 z M 23.71875,72.84375 24,74.875 l -0.28125,-0.1875 0,-1.84375 z m -3.1875,0.125 3.5625,2.5 0.125,0.9375 1.09375,1.5 0,0.875 -4.78125,-3.28125 0,-2.53125 z m 67,0.09375 0,9.03125 c -0.340424,-0.253159 -0.745816,-0.08274 -0.96875,0.0625 l 0.03125,-8.71875 0.9375,-0.375 z m -1.4375,0.59375 -0.03125,8.5 -1.5,0.59375 0,2.96875 1.46875,-0.46875 0,0.125 C 85.620956,85.577319 85.166745,85.797283 84.75,86.03125 L 86.03125,88.5625 86,95.12343 l -1.575444,0.59375 0.01294,-3.81093 1.46875,-0.5625 0,-2.96875 -0.3125,-0.34375 -1.1875,0.40625 -0.03125,-6.40625 1.53125,-0.59375 0,-2.96875 -0.3125,-0.34375 -1.25,0.4375 -0.03125,-4.1875 1.78125,-0.71875 z m -2.15625,0.875 0,4.15625 -1.625,0.5625 -0.03125,-4.03125 1.65625,-0.6875 z m -2.03125,0.84375 0,4.03125 -2,0.6875 -0.03125,-3.875 2.03125,-0.84375 z m -61.858915,0.25157 2.796415,1.93593 0.03125,2.5 -2.840609,-1.913833 0.01294,-2.522097 z M 79.5,76.375 l 0.03125,3.84375 -2.1875,0.75 L 77.3125,77.28125 79.5,76.375 z m -2.5625,1.0625 0.03125,3.65625 -1.34375,0.46875 0,-3.59375 1.3125,-0.53125 z m -53.5625,0.40625 3.15625,2.25 -0.28125,2 0.0625,0.34375 -2.9375,-2.03125 0,-2.5625 z m 62.09375,0.5625 0,0.21875 -9.84375,3.4375 0,-0.1875 9.84375,-3.46875 z m -59.65625,0.1875 0.78125,1.0625 -0.78125,-0.53125 0,-0.53125 z m -5.40625,0.0625 0,2.8125 5.0625,3.46875 0,-2.75 -5.0625,-3.53125 z m 0.15625,0.25 4.75,3.3125 0.03125,2.5 -4.78125,-3.28125 0,-2.53125 z m 64.8125,0.15625 0.0625,1.90625 -9.8125,3.8125 0,-2.03125 9.75,-3.6875 z m 4.375,2.1875 -0.01294,2.6875 -0.705806,0.09375 -0.21875,-0.4375 c 0.148057,-0.235618 0.261709,-0.523553 0.4375,-0.84375 -0.06356,-0.292011 -0.201388,-0.564871 -0.6875,-0.375 -0.0636,0.155999 -0.145035,0.2744 -0.21875,0.375 l -0.03125,-0.0625 0,-0.9375 1.4375,-0.5 z m -5.78125,0.9375 0,6.40625 -1.59375,0.53125 -0.03125,-6.3125 1.625,-0.625 z m 2.09375,0.125 0,0.1875 c -0.350311,0.315212 -0.593309,0.741869 -0.5625,1.1875 -0.131439,-0.03721 -0.238593,-0.06415 -0.40625,-0.09375 -0.311686,0.378665 -0.112701,0.621336 0.09375,1 0.326565,0.172105 0.576078,0.187125 0.8125,0.15625 l 0.03125,0.0625 0,0.25 -1.34375,0.46875 0,-2.65625 1.375,-0.5625 z m 0.84375,0.15625 c 0.439872,-0.04979 0.903007,0.210249 1.15625,0.4375 l 0.0625,0.0625 c -0.04989,0.04116 -0.101814,0.08977 -0.15625,0.125 L 87.90625,83 c -0.222322,-0.115608 -0.442417,-0.176313 -0.625,-0.1875 -0.536754,-0.03289 -0.877223,0.35751 -1.125,1.03125 -0.085,-0.0029 -0.16858,-0.01446 -0.25,-0.03125 0.180923,-0.944196 0.571732,-1.295268 1,-1.34375 z M 25.8125,82.5 l 0.5625,0.40625 0.5,2.8125 -1.03125,-0.6875 L 25.8125,82.5 z m 62.875,0.0625 c 0.13976,0.0276 0.289765,0.0056 0.3125,0.3125 -0.161,0.45856 -0.372032,0.858135 -0.90625,1.03125 -0.184707,-0.107077 -0.584112,0.03758 -0.4375,-0.40625 0.482589,-0.223596 0.799825,-0.549394 1.03125,-0.9375 z m -6.75,0.40625 0,6.3125 L 80,89.96875 79.9375,83.75 l 2,-0.78125 z m 5.03125,0.1875 c 0.193926,-0.0097 0.41313,0.110112 0.625,0.1875 -0.104545,0.06038 -0.193006,0.102415 -0.3125,0.1875 0.02567,0.243875 0.112943,0.35702 0.25,0.4375 L 87.5,84.6875 c -0.187873,0.08728 -0.386742,0.185105 -0.5625,0.28125 l -0.21875,-0.4375 C 86.81623,84.49596 86.887859,84.46916 87,84.4375 c 0.163579,-0.250107 0.257524,-0.505397 -0.21875,-0.71875 -0.132818,0.05462 -0.235396,0.07339 -0.34375,0.09375 0.120238,-0.489665 0.326105,-0.645936 0.53125,-0.65625 z m 1.6875,0.625 0.5,0.71875 c -0.175252,0.408378 -0.265237,0.297059 -0.375,0.3125 L 88.375,84 c 0.111364,-0.06384 0.207189,-0.139725 0.28125,-0.21875 z m -3.3125,0.03125 c 0.49784,0.187184 0.967289,0.200975 1.40625,0.09375 0.07835,0.118987 0.234082,0.237296 0.03125,0.46875 -0.43979,0.20684 -0.908183,0.321896 -1.40625,0.0625 -0.05322,-0.206764 -0.450449,-0.418237 -0.03125,-0.625 z m -5.8125,0.09375 0.03125,6.1875 -2.125,0.75 L 77.375,84.75 79.53125,83.90625 z m 10.25,0.34375 c 0.530315,-0.05505 0.745867,0.112904 0.71875,0.40625 l -4.71875,1.625 -0.375,-0.25 0.9375,-0.5625 0.15625,0.3125 c 0.365239,0.04461 0.656401,-0.0398 0.8125,-0.34375 l -0.15625,-0.21875 c 0.305433,-0.325697 0.782689,-0.384763 1.21875,-0.5625 l 0.21875,0.375 c 0.379446,0.131845 0.610429,-0.08255 0.78125,-0.4375 l -0.15625,-0.25 0.5625,-0.09375 z M 86.5625,84.59375 87,85.34375 C 86.91156,85.517862 86.84437,85.668052 86.6875,85.5 l -0.40625,-0.8125 c 0.08684,-0.02655 0.189362,-0.05958 0.28125,-0.09375 z M 76.96875,84.90625 77,91 l -1.375,0.46875 0,-6.0625 1.34375,-0.5 z m 13.59375,0.1875 -0.15625,3.46875 -2.3125,0.90625 L 86.4375,86.5 l 4.125,-1.40625 z m -5.25,1.28125 0.59375,0.1875 1.875,3.1875 c -0.318667,0.165146 -0.818181,-0.06711 -1,-0.3125 L 85.3125,86.375 z m 3.46875,0.03125 c -0.194173,-0.0053 -0.399578,0.135531 -0.59375,0.625 0.124533,0.285428 0.275421,0.595865 0.75,0.53125 l 0.125,0.90625 0.71875,-0.28125 -0.65625,-0.84375 c 0.577907,-0.0713 0.366198,-0.384834 0.25,-0.6875 -0.194172,-0.07917 -0.399579,-0.244698 -0.59375,-0.25 z m -3.3125,1.90625 0,0.21875 -9.84375,3.4375 0,-0.1875 9.84375,-3.46875 z M 57,88.9375 l 0.21875,0.125 0,0.28125 L 56.8125,89.0625 57,88.9375 z m 28.375,0.03125 0.0625,1.90625 -9.8125,3.8125 0,-2.03125 9.75,-3.6875 z M 57.4375,89 l 0.4375,0.1875 -0.4375,0.125 0,-0.3125 z m -0.75,0.125 0.619638,0.387944 0,2.522097 L 55.4375,90.75 l 0,-0.78125 1.25,-0.84375 z m 1.375,0.15625 1.3125,0.625 0.03125,1.40625 L 57.4375,92 l 0,-2.522097 0.625,-0.196653 z m 28.5,0.3125 c 0.294457,0.210231 0.57082,0.46062 0.9375,0.53125 l 0,6 -0.96875,-1.09375 0.03125,-5.4375 z m -27.03125,0.375 0.25,0.125 0,1.125 1.40625,-0.46875 0.3125,0.15625 -3.875,1.28125 0,2.8125 5.0625,-1.71875 0,-1.71875 0.34375,0.625 0,0.9375 0.4375,-0.15625 0.125,0.1875 -3.75,1.21875 0,2.8125 5.0625,-1.71875 0,-0.65625 0.25,0.15625 0,0.3125 0.34375,-0.125 0.25,0.15625 -2.71875,0.90625 0,2.8125 5.0625,-1.71875 0,-0.53125 0.28125,0.625 -3.03125,1 0,2.8125 4.0625,-1.375 0.03125,0.03125 0.125,0 -1.21875,0.375 0,2.8125 5.0625,-1.71875 0,-1.8125 0.09375,0 0,1.78125 1.25,-0.4375 0,0.0625 -17.25,6.09375 0,-3 2.1875,-0.75 0,-2.75 -2.21875,0.71875 0,-3.21875 2.03125,-0.6875 0,-2.75 -2.03125,0.6875 -0.03125,-3.15625 2.09375,-0.71875 0,-1.4375 z m -4.25,0.125 0,0.6875 1.9375,1.34375 0,3.125 -2.09375,-1.46875 0,2.8125 2.125,1.46875 0,3.125 -2.34375,-1.65625 0.03125,2.8125 2.3125,1.59375 0,0.28125 -4.96875,-3.5 0,2.8125 4.96875,3.4375 0,0.0625 -15.125,-10.40625 0.0625,-0.09375 4.71875,3.28125 0,-2.75 -3.125,-2.1875 0.6875,-0.375 0,0.65625 5.0625,3.46875 0,-2.75 -2.6875,-1.875 0.25,0 4.84375,3.3125 0,-2.75 L 50.75,93.71875 50.84375,93.625 55,96.5 55,93.75 52.46875,91.96875 52.5,91.9375 l 0.0625,-0.03125 4.5,3.125 0,-2.75 -2.46875,-1.75 0.1875,-0.125 0.34375,0.25 0,-0.46875 0.15625,-0.09375 z m 4.65625,0.0625 1.09375,0.53125 -1.09375,0.34375 0,-0.875 z M 55,90.28125 55,90.4375 54.875,90.34375 55,90.28125 z m -0.5,0.3125 2.40625,1.71875 0.03125,2.5 -4.3125,-2.96875 1.875,-1.25 z M 61.71875,91 l 0.8125,0.375 0.03125,1.8125 -4.78125,1.625 0,-2.53125 L 61.71875,91 z m -9.3125,1.03125 2.4375,1.71875 0.03125,2.5 -3.96875,-2.71875 1.5,-1.5 z M 84,92.09375 l 0,3.625 -1.5625,0.59375 -0.03125,-3.625 L 84,92.09375 z m -20.8125,0.375 0.21875,0.40625 -0.21875,0.0625 0,-0.46875 z m 18.78125,0.40625 0.0221,3.890165 -1.950444,0.71875 -0.0092,-3.858915 1.9375,-0.75 z m -18.3125,0.40625 0.65625,1.15625 0.46875,0.28125 0,0.65625 L 60,97 l 0,-2.53125 3.65625,-1.1875 z m -13,0.53125 1.125,0.78125 0.03125,2.5 L 47.28125,94 l 3.1875,0 0.1875,-0.1875 z m 28.90625,0 0.03125,3.59375 L 77.5,98.1875 77.46875,94.59375 79.5625,93.8125 z M 45.375,94 l 1.25,0 2.75,1.90625 0.03125,2.5 -4.78125,-3.28125 0,-0.71875 L 45.375,94 z m 9.90625,0.03125 2.047985,1.410041 -0.06629,2.496209 -1.981694,-1.34375 0,-2.5625 z m -3.21875,0.59375 0.03125,2.8125 5.0625,3.5 0,-2.75 -5.09375,-3.5625 z m 7.28125,0.15625 0.03125,2.46875 -1.994638,0.678347 0.0221,-2.477903 1.941291,-0.669194 z m 17.65625,0 0.119638,3.792624 -1.472541,0.509153 L 75.625,95.3125 77,94.78125 z M 52.21875,94.875 57,98.1875 l 0.03125,2.5 L 52.25,97.40625 52.21875,94.875 z m -8.5625,0.0625 3.0625,2.15625 0.03125,2.46875 -4.53125,-3.09375 0.9375,-1.25 0.5,-0.28125 z m 22.25,0.5 2.0625,1.28125 0,0.5 -4.78125,1.65625 0,-2.53125 2.71875,-0.90625 z m -16.1875,0.5 0,2.8125 5.0625,3.5 0,-2.75 -5.0625,-3.5625 z m 0.15625,0.25 4.75,3.3125 0.03125,2.5 -4.78125,-3.28125 0,-2.53125 z m 12.8125,0.25 -5.0625,1.65625 0,2.8125 5.0625,-1.71875 0,-2.75 z m -0.15625,0.1875 0.03125,2.46875 -4.78125,1.65625 0,-2.53125 4.75,-1.59375 z m -15.4375,0.46875 0,2.84375 5.0625,3.46875 0,-2.75 -5.0625,-3.5625 z m 0.15625,0.25 4.75,3.34375 0.03125,2.5 -4.78125,-3.28125 0,-2.5625 z M 68.40625,97.5 69.34375,99.6875 65.5,101.03125 65.46875,98.5 l 2.9375,-1 z m -3.3125,1.15625 -5.0625,1.65625 0,2.8125 5.0625,-1.71875 0,-2.75 z m -0.15625,0.15625 0.03125,2.46875 -4.78125,1.65625 -0.03125,-2.53125 4.78125,-1.59375 z M 73.25,99.5 l 0.03125,1.75 -4.78125,1.625 0,-2.53125 L 70.125,99.8125 73.25,99.5 z m 0.40625,0.09375 1.09375,0.3125 0,0.84375 -1.09375,0.375 0,-1.53125 z m -18.59375,0.1875 2.275888,1.59754 0,2.43371 -2.275888,-1.5 0,-2.53125 z m 13.03125,0.71875 -5.0625,1.65625 0,2.8125 5.0625,-1.71875 0,-2.75 z m -8.5625,0.1875 0.03125,2.46875 -2.0625,0.74085 -0.03125,-2.5221 2.0625,-0.6875 z m 8.40625,0 0.03125,2.46875 -4.78125,1.625 0,-2.53125 4.75,-1.5625 z m -15.5,0.28125 4.838388,3.35669 0.05335,2.5 L 52.4375,103.5 l 0,-2.53125 z m 10.25,1.40625 -5.0625,1.65625 0,2.8125 5.0625,-1.71875 0,-2.75 z m -0.15625,0.1875 0.03125,2.46875 -4.78125,1.625 0,-2.53125 4.75,-1.5625 z"
       id="path2601"
       sodipodi:nodetypes="ccccccccccccccccccccccccccccccccccccccccccccccccccccccccccccccccccccccccccccccccccccccccccccccccccccccccccccccccccccccccccccccccccccccccccccccccccccccccccccccccccccccccccccccccccccccccccccccccccccccccccccccccccccccccccccccccccccccccccccccccccccccccccccccccccccccccccccccccccccccccccccccccccccccccccccccccccccccccccccccccccccccccccccccccccccccccccccccccccccccccccccccccccccccccccccccccccccccccccccccccccccccccccccccccccccccccccccccccccccccccccccccccccccccccccccccccccccccccccccccccccccccccccccccccccccccccccccccccccccccccscccccccccccccccccccccccccccccccccccccccccccccccccccccccccccccccccccccccccccccccccccccccccccccccccccccccccccccccccccccccccccccccccccccccccccccccccccccccccccccccccccccccccccccccccccccccccccccccccccccccccccccccccccccccccccccccccccccccccccccccccccccccccccccccccccccccccccccccccccccccccccccccccccccccccccccccccccccccccccccccccccccccccccccccccccccccccccccccccccccccccccccccccccccccccccccccccccccccccccccccccccccc"
       inkscape:connector-curvature="0" />
  </g>
</svg>
