<?xml version="1.0" encoding="UTF-8" standalone="no"?>
<!-- Created with Inkscape (http://www.inkscape.org/) -->

<svg
   xmlns:dc="http://purl.org/dc/elements/1.1/"
   xmlns:cc="http://creativecommons.org/ns#"
   xmlns:rdf="http://www.w3.org/1999/02/22-rdf-syntax-ns#"
   xmlns:svg="http://www.w3.org/2000/svg"
   xmlns="http://www.w3.org/2000/svg"
   xmlns:sodipodi="http://sodipodi.sourceforge.net/DTD/sodipodi-0.dtd"
   xmlns:inkscape="http://www.inkscape.org/namespaces/inkscape"
   version="1.0"
   width="201.97612"
   height="197.9375"
   id="svg2"
   inkscape:version="0.48.1 r9760"
   sodipodi:docname="Peileppe_Delfador.svg">
  <metadata
     id="metadata82">
    <rdf:RDF>
      <cc:Work
         rdf:about="">
        <dc:format>image/svg+xml</dc:format>
        <dc:type
           rdf:resource="http://purl.org/dc/dcmitype/StillImage" />
        <dc:title></dc:title>
      </cc:Work>
    </rdf:RDF>
  </metadata>
  <sodipodi:namedview
     pagecolor="#ffffff"
     bordercolor="#666666"
     borderopacity="1"
     objecttolerance="10"
     gridtolerance="10"
     guidetolerance="10"
     inkscape:pageopacity="0"
     inkscape:pageshadow="2"
     inkscape:window-width="640"
     inkscape:window-height="480"
     id="namedview80"
     showgrid="false"
     fit-margin-top="0"
     fit-margin-left="0"
     fit-margin-right="0"
     fit-margin-bottom="0"
     inkscape:zoom="1.4439024"
     inkscape:cx="97.96875"
     inkscape:cy="104.5"
     inkscape:window-x="0"
     inkscape:window-y="0"
     inkscape:window-maximized="0"
     inkscape:current-layer="svg2" />
  <defs
     id="defs5" />
  <g
     style="display:inline"
     id="layer3"
     transform="translate(-4.53125,-9.0625)">
    <path
       d="M 100.21875,10.5625 90.15625,11.09375 80.59375,16.625 66.5,27.6875 59.9375,33.75 l 4.03125,0.5 -10.0625,9.5625 2.5,2.03125 -5.03125,7.5625 -2,9.0625 4.03125,-0.5 L 51.875,66.5 l 4.03125,6.03125 1,-4.03125 1.03125,2.53125 -0.53125,13.59375 4.03125,-6.0625 1.03125,8.0625 3.5,-10.5625 3.53125,2.5 L 69,73.03125 72.15625,75 c 0.746712,3.347137 -0.187893,6.840812 -0.125,10.25 0.107151,0.926182 0.05936,1.972382 -0.0625,3.03125 L 70,87.125 l 2.03125,-4.53125 -0.5,-4.03125 -7.5625,7.5625 3.53125,5.53125 -1,2.53125 -9.59375,3.03125 -9.5625,3 -1,4.03125 -8.0625,2.53125 L 32.75,104.25 l -12.09375,6.0625 -4.03125,13.59375 1.5,4.03125 -5.53125,13.59375 1.96875,1.34375 c -0.732495,3.17896 -1.326661,6.62882 -1.71875,10.375 -1.41525,5.72471 -2.333224,11.72893 -4.0625,17.28125 -2.3287529,1.63466 -0.7851817,4.86158 -1.21875,7.28125 0.3549813,0.4872 0.6941955,0.95085 1.0625,1.40625 l -0.0625,0.0937 0.5,19.125 -3.03125,6.0625 35.28125,1 1.5,-10.5625 -0.46875,-7.59375 c 1.842678,-0.68386 3.670648,-1.53927 5.5,-2.5 0,-2.51842 0,-5.01282 0,-7.53125 0.931415,4.49957 1.942395,28.00833 3.5625,28.1875 L 204.5,205 l 0.5,-20.15625 -0.5,0.125 0.5,-34.375 -7.0625,28.71875 3.03125,5.03125 2.84375,0.8125 -2.84375,0.71875 -3.53125,-5.0625 0,-3.5 -8.0625,-1.53125 1.03125,-1.5 -8.5625,-1.53125 -0.34375,0.34375 -2.1875,-0.34375 -9.5625,-0.5 -9.0625,-3.5 -4.90625,1.625 c 2.18717,-12.09715 3.73215,-19.97667 3.0625,-29.53125 l 3.84375,2.1875 1,-6.53125 -5.03125,-10.0625 2.03125,-9.59375 -1.53125,-10.0625 -10.0625,-6.03125 -6.0625,0 -7.4375,-2.8125 -6.65625,-5.75 0.0937,0.59375 -0.0937,-0.09375 0,-0.5 0,-6.5625 -4.03125,-4.03125 -2.5,-11.59375 3,2.03125 -0.5,-8.0625 5.5625,6.03125 -1.03125,-9.5625 5.03125,1 -6.03125,-12.59375 6.03125,3.03125 -7.53125,-16.625 -4.53125,-3.53125 -5.0625,-8.03125 -8.5625,-4.5625 3.53125,3.53125 0.9375,1.21875 c -1.49717,-1.460201 -3.17314,-2.729508 -5,-3.8125 l 0.53125,-5.46875 -8.5625,-4.03125 z M 86.125,17.625 l 1.84375,0.78125 c -1.753064,0.502173 -3.260112,0.998081 -4.59375,1.5 L 86.125,17.625 z M 72.5,28.84375 c -0.710347,1.055821 -1.491269,2.265168 -2.3125,3.59375 L 69,31.71875 l 3.5,-2.875 z m 45.21875,0.875 1.15625,1.5 0.4375,1.96875 c -0.45706,-1.208168 -0.98368,-2.371853 -1.59375,-3.46875 z m 3.53125,32.375 0.125,1.875 -1.34375,3.125 c 0.54484,-1.778521 0.94383,-3.444355 1.21875,-5 z"
       style="fill:#000000;fill-opacity:1;fill-rule:evenodd;stroke:#000000;stroke-width:3;stroke-linecap:round;stroke-linejoin:round;stroke-miterlimit:4;stroke-opacity:1;stroke-dasharray:none;stroke-dashoffset:0"
       id="path3143"
       inkscape:connector-curvature="0" />
  </g>
  <g
     style="display:inline"
     id="layer1"
     transform="translate(-4.53125,-9.0625)">
    <path
       d="m 8.5626536,179.31204 0.5036855,19.14005 -3.0221131,6.04422 35.257985,1.00738 1.511057,-10.5774 -0.503686,-8.05897 0.503686,-11.58476 -29.717445,-4.53317 -4.5331694,8.56265 z"
       style="fill:#494949;fill-opacity:1;fill-rule:evenodd;stroke:#000000;stroke-width:1.5;stroke-linecap:round;stroke-linejoin:round;stroke-miterlimit:4;stroke-opacity:1;stroke-dasharray:none;stroke-dashoffset:0;display:inline"
       id="path5364"
       inkscape:connector-curvature="0" />
    <path
       d="m 96.707619,16.117935 c -21.249447,5.268453 -19.82549,5.523004 -30.724816,23.169533 -0.872357,2.657697 1.090391,7.601683 -1.97558,8.526753 -2.397415,3.016117 0.765168,12.098289 2.539239,15.762403 3.732066,2.414659 4.040118,7.007636 5.467474,10.820263 1.01659,3.527822 -0.03439,7.25005 0.03229,10.864798 0.382527,3.306476 -1.560421,7.960297 0.355087,10.378476 12.419195,6.883259 25.705343,13.720459 38.315057,3.837731 0.0384,-4.259797 -2.31167,-8.928703 -0.62961,-12.906943 14.07563,-20.528768 12.09662,-31.97907 10.78359,-38.598858 2.80922,-2.485401 0.18732,-6.050897 -0.0446,-9.088577 C 118.87421,26.168216 109.24952,17.807588 96.707619,16.117935 z"
       style="fill:#cbac90;fill-opacity:1;fill-rule:evenodd;stroke:none"
       id="path2165"
       inkscape:connector-curvature="0" />
    <path
       d="M 70.012283,97.211304 C 36.477354,108.94603 16.63888,117.0001 12.846311,153.23583 c -1.41525,5.7247 -2.321798,11.72865 -4.0510742,17.28097 -2.3287531,1.63466 -0.8063859,4.86451 -1.2399542,7.28418 10.0628164,13.81075 25.5895884,14.77445 40.2948414,7.0516 0,-2.51842 0,-5.03685 0,-7.55528 0.931415,4.49957 1.928126,28.0096 3.548231,28.18877 28.702593,-0.32992 57.405185,-0.65984 86.107775,-0.98976 6.3058,-11.90624 6.32168,-20.85826 5.54055,-33.74692 1.49906,5.90345 8.41551,1.64276 12.59214,0.50368 3.37578,-18.74185 5.36543,-27.25875 0.40117,-46.64663 -5.09015,-22.24114 -23.3961,-22.47542 -43.71812,-30.920939 -1.41834,6.894809 -7.52305,13.373269 -15.091905,11.798149 -9.487758,-1.24086 -17.807098,-6.713527 -27.217682,-8.272346 z"
       style="fill:#473951;fill-opacity:1;fill-rule:evenodd;stroke:none"
       id="path2162"
       inkscape:connector-curvature="0" />
    <path
       d="m 151.60934,168.73464 -8.56266,4.53317 -5.54054,16.11794 0,15.11056 42.30958,0 2.01475,-21.15479 7.55528,-9.06634 -10.07371,-1.51105 -9.57003,-0.50369 -9.06633,-3.5258 -6.04423,2.01475 -3.02211,-2.01475 z"
       style="fill:#1e1e1f;fill-opacity:1;fill-rule:evenodd;stroke:none"
       id="path3145"
       inkscape:connector-curvature="0" />
    <path
       d="m 132.46929,101.24079 c -4.55547,49.33888 -30.48398,77.30472 -57.42015,104.2629 L 98.722359,205 C 125.7705,178.82863 141.68132,146.71734 148.58722,109.80344 l -16.11793,-8.56265 z"
       style="fill:#3d2d1d;fill-opacity:1;fill-rule:evenodd;stroke:#000000;stroke-width:1.5;stroke-linecap:round;stroke-linejoin:round;stroke-miterlimit:4;stroke-opacity:1;stroke-dasharray:none;stroke-dashoffset:0"
       id="path3149"
       inkscape:connector-curvature="0" />
    <path
       d="m 71.523342,78.574939 -7.555283,7.555282 3.525798,5.540541 -1.007371,2.518427 -9.570024,3.022113 -9.570025,3.022118 -1.007371,4.02948 -8.058968,2.51843 -5.54054,-2.51843 -12.088452,6.04423 -4.029484,13.5995 1.511056,4.02949 -5.54054,13.59951 6.547911,4.53317 18.636364,-7.0516 13.095823,12.59214 11.081081,1.51105 14.60688,-8.05896 7.051597,8.56265 19.140046,6.04422 17.629,-4.02948 9.57002,-13.59951 14.10319,6.04423 8.05897,-11.08108 10.5774,6.04422 1.00737,-6.54791 -5.03686,-10.07371 2.01475,-9.57002 -1.51106,-10.07371 -10.07371,-6.04423 -6.04423,0 -8.05897,-3.022112 -6.04422,-5.036855 0,-7.051597 -9.57003,-7.051597 -4.53317,-1.511057 1.00738,4.53317 7.05159,8.562653 -3.02211,8.058968 -2.51843,18.132677 -3.02211,18.13268 -21.154792,0 -9.570024,-39.28747 -13.599509,-8.058968 2.014742,-4.533169 -0.503685,-4.029484 z"
       style="fill:#312a2a;fill-opacity:1;fill-rule:evenodd;stroke:#000000;stroke-width:1.5;stroke-linecap:round;stroke-linejoin:round;stroke-miterlimit:4;stroke-opacity:1;stroke-dasharray:none;stroke-dashoffset:0"
       id="path5089"
       inkscape:connector-curvature="0" />
    <path
       d="m 86.130219,17.628992 c 2.014742,0.839476 4.029485,1.678953 6.044227,2.518429 0.503685,1.678951 1.00737,3.357902 1.511055,5.036854 5.602561,3.407099 8.474489,2.412297 14.103199,0 0.33579,-3.525798 0.67158,-7.051597 1.00737,-10.577395 -2.92484,-1.307761 -5.80029,-2.865703 -8.75546,-4.019843 -3.340409,0.227086 -6.75058,0.218142 -10.047975,0.59077 -3.364509,2.047057 -6.923809,3.806549 -10.161946,6.040168 -4.759031,3.823947 -9.693022,7.442559 -14.337179,11.401323 -1.851645,1.709211 -3.703289,3.418421 -5.554934,5.127631 1.343161,0.167895 2.686322,0.33579 4.029484,0.503685 -3.357904,3.190009 -6.715808,6.380018 -10.073712,9.570027 0.627435,0.800502 2.525855,1.403675 2.304259,2.335995 -1.59851,2.48398 -3.375185,4.891932 -4.864566,7.42248 -0.657621,2.959295 -1.315241,5.91859 -1.972862,8.877885 1.343162,-0.167895 2.686323,-0.33579 4.029484,-0.503685 -0.503685,1.511057 -1.00737,3.022115 -1.511055,4.533172 1.343161,2.014743 2.686323,4.029485 4.029484,6.044228 0.33579,-1.343163 0.67158,-2.686325 1.00737,-4.029488 0.56686,1.374432 1.284872,2.722646 0.943064,4.254687 -0.14646,3.954416 -0.292919,7.908832 -0.439379,11.863249 1.343161,-2.014743 2.686322,-4.029486 4.029484,-6.044228 0.33579,2.686322 0.67158,5.372645 1.00737,8.058968 1.175267,-3.525798 2.350535,-7.051596 3.525802,-10.577393 1.175265,0.839475 2.35053,1.67895 3.525795,2.518425 -0.167895,-1.846845 -0.33579,-3.69369 -0.503685,-5.540535 1.343163,0.839475 2.686325,1.67895 4.029488,2.518425 -0.335793,-3.861589 -0.671585,-7.723178 -1.007378,-11.584766 1.511058,0.335791 3.022115,0.671582 4.533173,1.007373 -1.159516,-13.30191 6.788755,-24.833918 -5.036858,-31.732189 1.425334,-5.54868 5.74033,-9.720414 10.512562,-12.595891 1.405542,-0.948491 2.807408,-1.91087 4.094319,-3.018361 z"
       style="fill:#959494;fill-opacity:1;fill-rule:evenodd;stroke:#000000;stroke-width:1;stroke-linecap:round;stroke-linejoin:round;stroke-miterlimit:4;stroke-opacity:1;stroke-dasharray:none;stroke-dashoffset:0"
       id="path5092"
       inkscape:connector-curvature="0" />
    <path
       d="m 108.79607,19.140049 c 2.85421,1.511057 5.70843,3.022114 8.56265,4.533171 1.72704,2.70346 3.35863,5.493062 5.14494,8.143035 1.47682,1.202296 3.09064,2.296449 4.48175,3.566388 2.49954,5.498988 4.99908,10.997977 7.49861,16.496965 -2.01474,-1.007371 -4.02948,-2.014742 -6.04422,-3.022114 2.01474,4.197379 4.02948,8.394758 6.04422,12.592137 -1.67895,-0.33579 -3.3579,-0.67158 -5.03685,-1.00737 0.33579,3.190007 0.67158,6.380015 1.00737,9.570022 -1.84684,-2.014741 -3.69369,-4.029482 -5.54054,-6.044223 0.1679,2.686321 0.33579,5.372642 0.50369,8.058963 -1.00737,-0.67158 -2.01474,-1.34316 -3.02211,-2.01474 0.83947,3.86159 1.67895,7.72318 2.51842,11.584771 -1.84685,-1.846848 -3.69369,-3.693696 -5.54054,-5.540543 0,2.182637 0,4.365275 0,6.547913 -1.34316,-1.511058 -2.68632,-3.022116 -4.02948,-4.533173 6.01122,-10.272199 5.81893,-17.370058 5.03686,-28.710072 0.46939,-1.556871 1.13366,-3.10369 1.48135,-4.66684 -0.88035,-9.146234 -4.29577,-15.488376 -9.92762,-22.415793 -1.04617,-1.046166 -2.09234,-2.092331 -3.1385,-3.138497 z"
       style="fill:#939292;fill-opacity:1;fill-rule:evenodd;stroke:#000000;stroke-width:1;stroke-linecap:round;stroke-linejoin:round;stroke-miterlimit:4;stroke-opacity:1;stroke-dasharray:none;stroke-dashoffset:0"
       id="path5096"
       inkscape:connector-curvature="0" />
    <path
       d="m 102.24815,70.515967 c -4.649483,5.453584 -11.138566,7.13612 -17.628987,9.570031 0.100977,-1.312971 -1.1128,-3.128519 0.08657,-4.021618 4.000627,-3.360526 8.001255,-6.721052 12.001883,-10.081578 1.511055,0.503685 3.022106,1.007371 4.533164,1.511055 1.21454,-0.331826 2.41336,-1.830324 3.64044,-1.222198 5.09568,1.570816 8.32154,5.125218 11.97381,8.777481 -1.51106,0.503684 -3.02211,1.007368 -4.53317,1.511055 -4.72417,-1.121228 -7.7182,-1.92208 -10.07371,-6.044228 z"
       style="fill:#959494;fill-opacity:1;fill-rule:evenodd;stroke:#000000;stroke-width:1;stroke-linecap:round;stroke-linejoin:round;stroke-miterlimit:4;stroke-opacity:1;stroke-dasharray:none;stroke-dashoffset:0"
       id="path5098"
       inkscape:connector-curvature="0" />
    <path
       d="m 189.38575,175.78624 8.05897,1.51106 0,3.5258 3.5258,5.03685 L 205,184.85258 204.49631,205 l -20.6511,-1.00737 -4.02949,-5.54054 1.51106,-14.60688 8.05897,-8.05897 z"
       style="fill:#cbac90;fill-opacity:1;fill-rule:evenodd;stroke:none"
       id="path5102"
       inkscape:connector-curvature="0" />
    <path
       d="M 197.9484,179.31204 205,150.60197 l -0.50369,34.7543 -3.52579,-1.00738 -3.02212,-5.03685 z"
       style="fill:#655546;fill-opacity:1;fill-rule:evenodd;stroke:none"
       id="path5104"
       inkscape:connector-curvature="0" />
    <path
       d="m 47.346437,101.74447 9.066339,4.02949 27.199018,47.85012 19.643736,6.04422 16.62162,-4.53316 8.56265,-12.08846 10.07371,-30.22113 -2.01474,-14.103191 -7.55528,-6.547912 1.00737,6.044226 2.51843,4.533167 -11.58477,43.31696 -9.06634,2.51842 -9.57002,2.01475 -13.095826,-4.02949 -21.658477,-42.81327 -8.562653,-7.051593 -11.584767,5.036853 z"
       style="fill:#534f3b;fill-opacity:1;fill-rule:evenodd;stroke:#000000;stroke-width:1.5;stroke-linecap:round;stroke-linejoin:round;stroke-miterlimit:4;stroke-opacity:1;stroke-dasharray:none;stroke-dashoffset:0"
       id="path5106"
       inkscape:connector-curvature="0" />
    <path
       d="m 89.152336,83.611794 c -1.175267,5.372645 -2.350535,10.74529 -3.525802,16.117935 1.007372,-0.839475 2.014745,-1.67895 3.022117,-2.518425 -0.33579,4.868956 -0.67158,9.737916 -1.00737,14.606876 1.00737,-0.50369 2.01474,-1.00737 3.02211,-1.51105 -0.33579,8.89844 -0.67158,17.79688 -1.00737,26.69533 1.34316,-1.34316 2.68632,-2.68632 4.02948,-4.02948 0.671583,7.05159 1.343165,14.10319 2.014748,21.15478 0.77218,-0.48834 2.002579,-1.85403 2.505956,-1.8277 -0.163739,2.45608 -0.327478,4.91216 -0.491216,7.36824 1.00737,-3.3579 2.01474,-6.71581 3.022111,-10.07371 0.33579,4.86896 0.67158,9.73792 1.00737,14.60689 1.17527,-4.53317 2.35053,-9.06634 3.5258,-13.59951 0.50369,2.68632 1.00737,5.37264 1.51106,8.05896 0.50368,-2.35053 1.00737,-4.70106 1.51105,-7.05159 0.33579,1.17527 0.67158,2.35054 1.00737,3.52581 0.67158,-3.6937 1.34317,-7.3874 2.01475,-11.0811 0.50368,1.17526 1.00736,2.35053 1.51105,3.5258 0.16789,-7.72318 0.33579,-15.44636 0.50369,-23.16953 0.83283,-0.0807 2.86827,0.92541 2.92347,0.14199 -0.97449,-3.57313 -1.94898,-7.14626 -2.92347,-10.71939 1.51106,1.00737 3.02211,2.01475 4.53317,3.02212 -1.7862,-11.59465 -3.42026,-23.214111 -5.54054,-34.754301 -2.66276,-2.287467 -2.98413,-1.537323 -5.63158,-0.163861 -0.80913,-1.456437 -1.61826,-2.912875 -2.42739,-4.369312 -1.34316,0 -2.68632,0 -4.02948,0 -0.503686,1.678952 -1.007374,3.357905 -1.511061,5.036858 -0.839475,-1.175268 -1.67895,-2.350536 -2.518425,-3.525803 -3.092304,0.02752 -5.299209,1.825828 -7.051598,4.533173 z"
       style="fill:#959494;fill-opacity:1;fill-rule:evenodd;stroke:#000000;stroke-width:1;stroke-linecap:round;stroke-linejoin:round;stroke-miterlimit:4;stroke-opacity:1;stroke-dasharray:none;stroke-dashoffset:0"
       id="path5100"
       inkscape:connector-curvature="0" />
    <path
       d="m 119.87715,180.8231 -1.51106,23.16953 4.53317,0 3.02212,-10.5774 0,-20.6511 -6.04423,8.05897 z"
       style="fill:#292c44;fill-opacity:1;fill-rule:evenodd;stroke:#000000;stroke-width:1.5;stroke-linecap:round;stroke-linejoin:round;stroke-miterlimit:4;stroke-opacity:1;stroke-dasharray:none;stroke-dashoffset:0"
       id="path5108"
       inkscape:connector-curvature="0" />
    <path
       d="m 46.842752,175.78624 -4.53317,6.54791 -22.162162,-1.00737 -10.5773954,-12.08845 -3.0221131,6.54791 8.0589685,10.5774 14.606879,4.53317 15.614251,-4.02949 3.022113,-5.03685 -1.007371,-6.04423 z"
       style="fill:#181b32;fill-opacity:1;fill-rule:evenodd;stroke:#000000;stroke-width:1.5;stroke-linecap:round;stroke-linejoin:round;stroke-miterlimit:4;stroke-opacity:1;stroke-dasharray:none;stroke-dashoffset:0"
       id="path5110"
       inkscape:connector-curvature="0" />
    <path
       d="m 181.83047,172.76413 -7.55529,7.55528 -4.02948,23.67322 8.05897,-1.00737 3.02211,-19.14005 9.06634,-9.57003 -8.56265,-1.51105 z"
       style="fill:#b5b5b5;fill-opacity:1;fill-rule:evenodd;stroke:none"
       id="path5112"
       inkscape:connector-curvature="0" />
    <path
       d="m 97.714989,52.383293 c -3.44018,-4.392822 -9.011373,-0.452491 -13.59951,1.00737 1.678952,0.67158 3.357905,1.34316 5.036857,2.01474 3.372951,-0.22927 6.518973,-0.798933 8.562653,-3.02211 z"
       style="fill:#ffffff;fill-opacity:1;fill-rule:evenodd;stroke:none"
       id="path5114"
       inkscape:connector-curvature="0" />
    <path
       d="m 106.78133,53.390663 c 2.58989,-3.536976 5.0472,-2.853357 9.06634,-2.518429 1.00737,1.007372 2.01474,2.014743 3.02211,3.022114 -4.64711,1.667404 -7.72445,1.241914 -12.08845,-0.503685 z"
       style="fill:#ffffff;fill-opacity:1;fill-rule:evenodd;stroke:none"
       id="path5116"
       inkscape:connector-curvature="0" />
    <path
       d="m 96.707619,46.339066 c -7.299402,-0.337812 -12.916562,-0.922937 -18.636368,3.525798 1.007372,-1.678951 2.014745,-3.357902 3.022118,-5.036853 4.611277,-1.258422 8.870096,-2.690373 13.59951,-2.014744 0.67158,1.175266 1.34316,2.350532 2.01474,3.525799 z"
       style="fill:#959494;fill-opacity:1;fill-rule:evenodd;stroke:#000000;stroke-width:1;stroke-linecap:round;stroke-linejoin:round;stroke-miterlimit:4;stroke-opacity:1;stroke-dasharray:none;stroke-dashoffset:0"
       id="path5118"
       inkscape:connector-curvature="0" />
    <path
       d="m 104.2629,45.835381 c 1.84685,-1.343162 3.69369,-2.686323 5.54054,-4.029484 3.99792,0.206701 7.48637,1.424462 11.08108,3.022114 -0.33579,0.839475 -0.67158,1.67895 -1.00737,2.518425 -5.22335,-1.875999 -10.20299,-1.897573 -15.61425,-1.511055 z"
       style="fill:#959494;fill-opacity:1;fill-rule:evenodd;stroke:#000000;stroke-width:1;stroke-linecap:round;stroke-linejoin:round;stroke-miterlimit:4;stroke-opacity:1;stroke-dasharray:none;stroke-dashoffset:0"
       id="path5120"
       inkscape:connector-curvature="0" />
    <path
       d="m 69.004913,49.361179 c -4.605637,-2.52213 -4.659992,-1.592011 -6.044223,3.022114 1.78684,5.709836 1.853281,10.453887 7.555278,12.59214 -0.503685,-5.204751 -1.00737,-10.409502 -1.511055,-15.614254 z"
       style="fill:#cbac90;fill-opacity:1;fill-rule:evenodd;stroke:#000000;stroke-width:1;stroke-linecap:round;stroke-linejoin:round;stroke-miterlimit:4;stroke-opacity:1;stroke-dasharray:none;stroke-dashoffset:0"
       id="path5122"
       inkscape:connector-curvature="0" />
    <path
       d="m 94.441035,53.264744 a 2.5184276,2.1406634 0 1 1 -6.76e-4,-0.0496"
       style="fill:#008000;fill-opacity:1;fill-rule:evenodd;stroke:none"
       id="path6532"
       inkscape:connector-curvature="0" />
    <path
       d="m 115.34398,52.886978 a 2.2665849,2.2665849 0 1 1 -6.1e-4,-0.05252"
       style="fill:#008000;fill-opacity:1;fill-rule:evenodd;stroke:none"
       id="path6534"
       inkscape:connector-curvature="0" />
    <path
       d="m 92.42629,52.635136 a 1.2592138,1.2592138 0 1 1 -3.38e-4,-0.02918"
       style="fill:#ffffff;fill-opacity:1;fill-rule:evenodd;stroke:none"
       id="path6536"
       inkscape:connector-curvature="0" />
    <path
       d="m 113.83292,52.509212 a 1.1332924,1.1332924 0 1 1 -3e-4,-0.02626"
       style="fill:#ffffff;fill-opacity:1;fill-rule:evenodd;stroke:none"
       id="path6538"
       inkscape:connector-curvature="0" />
  </g>
  <g
     style="display:inline"
     id="layer6"
     transform="translate(-4.53125,-9.0625)">
    <path
       d="m 64.471744,87.137592 14.103195,11.584767 9.570024,33.746931"
       style="fill:none;stroke:#000000;stroke-width:1;stroke-linecap:round;stroke-linejoin:round;stroke-miterlimit:4;stroke-opacity:1;stroke-dasharray:none;stroke-dashoffset:0"
       id="path6425"
       inkscape:connector-curvature="0" />
    <path
       d="m 128.4398,93.181818 -3.02211,4.53317 -6.04423,41.302212 -3.52579,1.51106"
       style="fill:none;stroke:#000000;stroke-width:1;stroke-linecap:round;stroke-linejoin:round;stroke-miterlimit:4;stroke-opacity:1;stroke-dasharray:none;stroke-dashoffset:0"
       id="path6427"
       inkscape:connector-curvature="0" />
    <path
       d="m 144.05405,102.24816 c 4.36698,8.61676 2.73328,16.5213 1.51106,25.68796"
       style="fill:none;stroke:#000000;stroke-width:1;stroke-linecap:round;stroke-linejoin:round;stroke-miterlimit:4;stroke-opacity:1;stroke-dasharray:none;stroke-dashoffset:0"
       id="path6429"
       inkscape:connector-curvature="0" />
    <path
       d="m 34.754299,105.27027 c 7.945241,5.39452 11.537978,14.02001 16.117935,22.16216"
       style="fill:none;stroke:#000000;stroke-width:1;stroke-linecap:round;stroke-linejoin:round;stroke-miterlimit:4;stroke-opacity:1;stroke-dasharray:none;stroke-dashoffset:0"
       id="path6431"
       inkscape:connector-curvature="0" />
    <path
       d="m 20.147421,122.89926 c 4.78483,-21.19531 13.509933,5.36139 17.125307,12.59213"
       style="fill:none;stroke:#000000;stroke-width:1;stroke-linecap:round;stroke-linejoin:round;stroke-miterlimit:4;stroke-opacity:1;stroke-dasharray:none;stroke-dashoffset:0"
       id="path6433"
       inkscape:connector-curvature="0" />
    <path
       d="m 14.60688,135.49139 c 4.805603,5.24469 8.826544,3.08206 15.110565,1.51107"
       style="fill:none;stroke:#000000;stroke-width:1;stroke-linecap:round;stroke-linejoin:round;stroke-miterlimit:4;stroke-opacity:1;stroke-dasharray:none;stroke-dashoffset:0"
       id="path6435"
       inkscape:connector-curvature="0" />
    <path
       d="m 19.140049,147.07617 -2.014742,7.55528 -0.503685,10.07371 -2.518428,10.07371 -4.5331694,-5.2887"
       style="fill:none;stroke:#000000;stroke-width:1;stroke-linecap:round;stroke-linejoin:round;stroke-miterlimit:4;stroke-opacity:1;stroke-dasharray:none;stroke-dashoffset:0"
       id="path6437"
       inkscape:connector-curvature="0" />
    <path
       d="m 47.346436,153.62408 c 3.192697,2.04847 5.053305,3.18452 8.562656,2.01474"
       style="fill:none;stroke:#000000;stroke-width:1;stroke-linecap:round;stroke-linejoin:round;stroke-miterlimit:4;stroke-opacity:1;stroke-dasharray:none;stroke-dashoffset:0"
       id="path6443"
       inkscape:connector-curvature="0" />
    <path
       d="m 46.842752,159.16463 c 4.988097,3.03514 8.580405,2.12468 14.103194,1.51104"
       style="fill:none;stroke:#000000;stroke-width:1;stroke-linecap:round;stroke-linejoin:round;stroke-miterlimit:4;stroke-opacity:1;stroke-dasharray:none;stroke-dashoffset:0"
       id="path6445"
       inkscape:connector-curvature="0" />
    <path
       d="m 45.331696,163.69778 c 5.624724,6.54361 12.594831,7.07075 20.651107,8.56266"
       style="fill:none;stroke:#000000;stroke-width:1;stroke-linecap:round;stroke-linejoin:round;stroke-miterlimit:4;stroke-opacity:1;stroke-dasharray:none;stroke-dashoffset:0"
       id="path6447"
       inkscape:connector-curvature="0" />
    <path
       d="m 48.353809,170.2457 c 5.324231,8.24666 12.932133,10.67498 21.658474,14.10319"
       style="fill:none;stroke:#000000;stroke-width:1;stroke-linecap:round;stroke-linejoin:round;stroke-miterlimit:4;stroke-opacity:1;stroke-dasharray:none;stroke-dashoffset:0"
       id="path6449"
       inkscape:connector-curvature="0" />
    <path
       d="m 48.353808,178.30467 14.103194,13.59951 12.088453,6.54791"
       style="fill:none;stroke:#000000;stroke-width:1;stroke-linecap:round;stroke-linejoin:round;stroke-miterlimit:4;stroke-opacity:1;stroke-dasharray:none;stroke-dashoffset:0"
       id="path6451"
       inkscape:connector-curvature="0" />
    <path
       d="m 58.931203,188.63022 11.584768,13.34767"
       style="fill:none;stroke:#000000;stroke-width:1;stroke-linecap:round;stroke-linejoin:round;stroke-miterlimit:4;stroke-opacity:1;stroke-dasharray:none;stroke-dashoffset:0"
       id="path6453"
       inkscape:connector-curvature="0" />
    <path
       d="m 50.116708,185.35627 c 1.406028,7.9001 9.131731,13.09178 14.858722,19.14004"
       style="fill:none;stroke:#000000;stroke-width:1;stroke-linecap:round;stroke-linejoin:round;stroke-miterlimit:4;stroke-opacity:1;stroke-dasharray:none;stroke-dashoffset:0"
       id="path6455"
       inkscape:connector-curvature="0" />
    <path
       d="m 131.71376,142.543 -9.31818,21.15479"
       style="fill:none;stroke:#000000;stroke-width:1;stroke-linecap:round;stroke-linejoin:round;stroke-miterlimit:4;stroke-opacity:1;stroke-dasharray:none;stroke-dashoffset:0"
       id="path6457"
       inkscape:connector-curvature="0" />
    <path
       d="M 120.88452,155.63882 108.29238,177.2973"
       style="fill:none;stroke:#000000;stroke-width:1;stroke-linecap:round;stroke-linejoin:round;stroke-miterlimit:4;stroke-opacity:1;stroke-dasharray:none;stroke-dashoffset:0"
       id="path6459"
       inkscape:connector-curvature="0" />
    <path
       d="M 84.115479,203.99263 103.25553,184.34889"
       style="fill:none;stroke:#000000;stroke-width:1;stroke-linecap:round;stroke-linejoin:round;stroke-miterlimit:4;stroke-opacity:1;stroke-dasharray:none;stroke-dashoffset:0"
       id="path6461"
       inkscape:connector-curvature="0" />
    <path
       d="M 90.915234,204.49632 110.30713,185.35627"
       style="fill:none;stroke:#000000;stroke-width:1;stroke-linecap:round;stroke-linejoin:round;stroke-miterlimit:4;stroke-opacity:1;stroke-dasharray:none;stroke-dashoffset:0"
       id="path6463"
       inkscape:connector-curvature="0" />
    <path
       d="m 148.08354,144.55774 -11.08108,17.12531"
       style="fill:none;stroke:#000000;stroke-width:1;stroke-linecap:round;stroke-linejoin:round;stroke-miterlimit:4;stroke-opacity:1;stroke-dasharray:none;stroke-dashoffset:0"
       id="path6465"
       inkscape:connector-curvature="0" />
    <path
       d="m 146.0688,150.09828 c 2.59997,6.44758 -0.54256,9.72167 -4.02949,15.11057"
       style="fill:none;stroke:#000000;stroke-width:1;stroke-linecap:round;stroke-linejoin:round;stroke-miterlimit:4;stroke-opacity:1;stroke-dasharray:none;stroke-dashoffset:0"
       id="path6467"
       inkscape:connector-curvature="0" />
    <path
       d="m 142.543,168.23096 c 0.4052,7.8426 -0.79077,15.49459 -4.0295,23.16954"
       style="fill:none;stroke:#000000;stroke-width:1;stroke-linecap:round;stroke-linejoin:round;stroke-miterlimit:4;stroke-opacity:1;stroke-dasharray:none;stroke-dashoffset:0"
       id="path6469"
       inkscape:connector-curvature="0" />
    <path
       d="m 159.16462,152.61671 -8.05897,8.56265"
       style="fill:none;stroke:#000000;stroke-width:1;stroke-linecap:round;stroke-linejoin:round;stroke-miterlimit:4;stroke-opacity:1;stroke-dasharray:none;stroke-dashoffset:0"
       id="path6471"
       inkscape:connector-curvature="0" />
    <path
       d="m 158.15725,143.55037 -5.54054,3.02211"
       style="fill:none;stroke:#000000;stroke-width:1;stroke-linecap:round;stroke-linejoin:round;stroke-miterlimit:4;stroke-opacity:1;stroke-dasharray:none;stroke-dashoffset:0"
       id="path6473"
       inkscape:connector-curvature="0" />
    <path
       d="m 178.80835,172.76413 -5.54054,-1.00737 -7.55528,6.54791 -8.05897,21.15479"
       style="fill:none;stroke:#000000;stroke-width:1;stroke-linecap:round;stroke-linejoin:round;stroke-miterlimit:4;stroke-opacity:1;stroke-dasharray:none;stroke-dashoffset:0"
       id="path6475"
       inkscape:connector-curvature="0" />
    <path
       d="m 164.70516,179.31204 -6.54791,3.5258 -6.54791,19.14005"
       style="fill:none;stroke:#000000;stroke-width:1;stroke-linecap:round;stroke-linejoin:round;stroke-miterlimit:4;stroke-opacity:1;stroke-dasharray:none;stroke-dashoffset:0"
       id="path6477"
       inkscape:connector-curvature="0" />
    <path
       d="m 168.73463,175.28256 c -17.47273,4.89701 -17.35495,9.0535 -26.69532,23.6732"
       style="fill:none;stroke:#000000;stroke-width:1;stroke-linecap:round;stroke-linejoin:round;stroke-miterlimit:4;stroke-opacity:1;stroke-dasharray:none;stroke-dashoffset:0"
       id="path6479"
       inkscape:connector-curvature="0" />
    <path
       d="m 189.88943,185.35628 c 1.31781,3.09142 2.14047,6.3373 3.02211,9.57 4.88174,2.67361 5.33612,-0.91554 7.55529,-5.03685 0,-1.34316 0,-2.68632 0,-4.02948"
       style="fill:none;stroke:#000000;stroke-width:1;stroke-linecap:round;stroke-linejoin:round;stroke-miterlimit:4;stroke-opacity:1;stroke-dasharray:none;stroke-dashoffset:0"
       id="path6481"
       inkscape:connector-curvature="0" />
    <path
       d="m 197.9484,195.42998 6.04423,-1.00738"
       style="fill:none;stroke:#000000;stroke-width:1;stroke-linecap:round;stroke-linejoin:round;stroke-miterlimit:4;stroke-opacity:1;stroke-dasharray:none;stroke-dashoffset:0"
       id="path6483"
       inkscape:connector-curvature="0" />
    <path
       d="m 191.4005,190.8968 c -1.17527,0.33579 -2.35054,0.67158 -3.52581,1.00737 0.1679,2.18264 0.3358,4.36528 0.5037,6.54792 6.50562,3.09128 10.93488,6.20344 17.62898,3.5258"
       style="fill:none;stroke:#000000;stroke-width:1;stroke-linecap:round;stroke-linejoin:round;stroke-miterlimit:4;stroke-opacity:1;stroke-dasharray:none;stroke-dashoffset:0"
       id="path6485"
       inkscape:connector-curvature="0" />
    <path
       d="m 187.87469,197.44472 c -2.65678,2.4278 -2.32101,3.81172 -1.51104,7.05159"
       style="fill:none;stroke:#000000;stroke-width:1;stroke-linecap:round;stroke-linejoin:round;stroke-miterlimit:4;stroke-opacity:1;stroke-dasharray:none;stroke-dashoffset:0"
       id="path6487"
       inkscape:connector-curvature="0" />
    <path
       d="m 105.77396,64.975427 c -3.98445,2.336002 -4.72621,3.565 -8.562656,1.007376"
       style="fill:none;stroke:#000000;stroke-width:1;stroke-linecap:round;stroke-linejoin:round;stroke-miterlimit:4;stroke-opacity:1;stroke-dasharray:none;stroke-dashoffset:0"
       id="path6489"
       inkscape:connector-curvature="0" />
    <path
       d="m 79.58231,63.464373 3.525798,7.051598"
       style="fill:none;stroke:#000000;stroke-width:1;stroke-linecap:round;stroke-linejoin:round;stroke-miterlimit:4;stroke-opacity:1;stroke-dasharray:none;stroke-dashoffset:0"
       id="path6491"
       inkscape:connector-curvature="0" />
    <path
       d="m 73.538086,67.493858 c 1.221319,11.382187 5.912422,15.482454 13.599503,23.169533"
       style="fill:none;stroke:#000000;stroke-width:1;stroke-linecap:round;stroke-linejoin:round;stroke-miterlimit:4;stroke-opacity:1;stroke-dasharray:none;stroke-dashoffset:0"
       id="path6493"
       inkscape:connector-curvature="0" />
    <path
       d="m 107.28501,90.663391 5.03686,13.599509"
       style="fill:none;stroke:#000000;stroke-width:0.5;stroke-linecap:round;stroke-linejoin:round;stroke-miterlimit:4;stroke-opacity:1;stroke-dasharray:none;stroke-dashoffset:0"
       id="path6495"
       inkscape:connector-curvature="0" />
    <path
       d="m 105.77396,101.24079 4.53317,15.61425"
       style="fill:none;stroke:#000000;stroke-width:0.5;stroke-linecap:round;stroke-linejoin:round;stroke-miterlimit:4;stroke-opacity:1;stroke-dasharray:none;stroke-dashoffset:0"
       id="path6497"
       inkscape:connector-curvature="0" />
    <path
       d="m 104.2629,117.86241 2.51843,15.61425"
       style="fill:none;stroke:#000000;stroke-width:0.5;stroke-linecap:round;stroke-linejoin:round;stroke-miterlimit:4;stroke-opacity:1;stroke-dasharray:none;stroke-dashoffset:0"
       id="path6499"
       inkscape:connector-curvature="0" />
    <path
       d="m 68.501229,42.813268 2.014742,19.140049"
       style="fill:none;stroke:#000000;stroke-width:0.5;stroke-linecap:round;stroke-linejoin:round;stroke-miterlimit:4;stroke-opacity:1;stroke-dasharray:none;stroke-dashoffset:0"
       id="path6501"
       inkscape:connector-curvature="0" />
    <path
       d="m 92.678133,12.088452 5.54054,7.555283"
       style="fill:none;stroke:#000000;stroke-width:0.5;stroke-linecap:round;stroke-linejoin:round;stroke-miterlimit:4;stroke-opacity:1;stroke-dasharray:none;stroke-dashoffset:0"
       id="path6503"
       inkscape:connector-curvature="0" />
    <path
       d="m 97.211302,12.088452 5.540538,7.555283"
       style="fill:none;stroke:#000000;stroke-width:0.5;stroke-linecap:round;stroke-linejoin:round;stroke-miterlimit:4;stroke-opacity:1;stroke-dasharray:none;stroke-dashoffset:0"
       id="path6505"
       inkscape:connector-curvature="0" />
    <path
       d="m 102.24816,13.095823 4.02948,6.547912"
       style="fill:none;stroke:#000000;stroke-width:0.5;stroke-linecap:round;stroke-linejoin:round;stroke-miterlimit:4;stroke-opacity:1;stroke-dasharray:none;stroke-dashoffset:0"
       id="path6507"
       inkscape:connector-curvature="0" />
    <path
       d="m 57.420147,64.97543 5.036855,-8.562654"
       style="fill:none;stroke:#000000;stroke-width:0.5;stroke-linecap:round;stroke-linejoin:round;stroke-miterlimit:4;stroke-opacity:1;stroke-dasharray:none;stroke-dashoffset:0"
       id="path6509"
       inkscape:connector-curvature="0" />
    <path
       d="m 64.471744,76.056511 0,-11.584767"
       style="fill:none;stroke:#000000;stroke-width:0.5;stroke-linecap:round;stroke-linejoin:round;stroke-miterlimit:4;stroke-opacity:1;stroke-dasharray:none;stroke-dashoffset:0"
       id="path6511"
       inkscape:connector-curvature="0" />
    <path
       d="m 47.850123,152.11302 -2.266585,11.33292 2.77027,15.8661"
       style="fill:none;stroke:#000000;stroke-width:1;stroke-linecap:round;stroke-linejoin:round;stroke-miterlimit:4;stroke-opacity:1;stroke-dasharray:none;stroke-dashoffset:0"
       id="path6525"
       inkscape:connector-curvature="0" />
    <path
       d="m 97.25605,51.507462 c -4.547456,-2.424016 -8.089364,-0.151822 -12.570511,1.543746 -0.792417,0.212627 1.887892,1.254057 2.425888,1.543747"
       style="fill:none;stroke:#000000;stroke-width:1;stroke-linecap:round;stroke-linejoin:round;stroke-miterlimit:4;stroke-opacity:1;stroke-dasharray:none;stroke-dashoffset:0"
       id="path9883"
       inkscape:connector-curvature="0" />
    <path
       d="m 109.60602,54.153885 c -0.95565,-0.294048 -1.91131,-0.588093 -2.86696,-0.882141 1.99637,-2.203955 4.49305,-2.360665 7.27767,-2.866959 2.17339,0.06965 2.80637,0.984623 3.96963,2.646423"
       style="fill:none;stroke:#000000;stroke-width:1;stroke-linecap:round;stroke-linejoin:round;stroke-miterlimit:4;stroke-opacity:1;stroke-dasharray:none;stroke-dashoffset:0"
       id="path9887"
       inkscape:connector-curvature="0" />
    <path
       d="m 97.035512,55.477097 -9.703551,2.646424"
       style="fill:none;stroke:#000000;stroke-width:0.5;stroke-linecap:round;stroke-linejoin:round;stroke-miterlimit:4;stroke-opacity:1;stroke-dasharray:none;stroke-dashoffset:0"
       id="path9893"
       inkscape:connector-curvature="0" />
    <path
       d="m 111.59084,56.800309 6.61605,-0.882141"
       style="fill:none;stroke:#000000;stroke-width:0.5;stroke-linecap:round;stroke-linejoin:round;stroke-miterlimit:4;stroke-opacity:1;stroke-dasharray:none;stroke-dashoffset:0"
       id="path9895"
       inkscape:connector-curvature="0" />
  </g>
</svg>
