<?xml version="1.0" encoding="UTF-8" standalone="no"?>
<!-- Created with Inkscape (http://www.inkscape.org/) -->
<svg
   xmlns:svg="http://www.w3.org/2000/svg"
   xmlns="http://www.w3.org/2000/svg"
   version="1.0"
   width="205"
   height="205"
   id="svg2">
  <defs
     id="defs5" />
  <g
     style="display:inline"
     id="layer3">
    <path
       d="M 100.21875,10.5625 L 90.15625,11.09375 L 80.59375,16.625 L 66.5,27.6875 L 59.9375,33.75 L 63.96875,34.25 L 53.90625,43.8125 L 56.40625,45.84375 L 51.375,53.40625 L 49.375,62.46875 L 53.40625,61.96875 L 51.875,66.5 L 55.90625,72.53125 L 56.90625,68.5 L 57.9375,71.03125 L 57.40625,84.625 L 61.4375,78.5625 L 62.46875,86.625 L 65.96875,76.0625 L 69.5,78.5625 L 69,73.03125 L 72.15625,75 C 72.902962,78.347137 71.968357,81.840812 72.03125,85.25 C 72.138401,86.176182 72.090613,87.222382 71.96875,88.28125 L 70,87.125 L 72.03125,82.59375 L 71.53125,78.5625 L 63.96875,86.125 L 67.5,91.65625 L 66.5,94.1875 L 56.90625,97.21875 L 47.34375,100.21875 L 46.34375,104.25 L 38.28125,106.78125 L 32.75,104.25 L 20.65625,110.3125 L 16.625,123.90625 L 18.125,127.9375 L 12.59375,141.53125 L 14.5625,142.875 C 13.830005,146.05396 13.235839,149.50382 12.84375,153.25 C 11.4285,158.97471 10.510526,164.97893 8.78125,170.53125 C 6.4524971,172.16591 7.9960683,175.39283 7.5625,177.8125 C 7.9174813,178.2997 8.2566955,178.76335 8.625,179.21875 L 8.5625,179.3125 L 9.0625,198.4375 L 6.03125,204.5 L 41.3125,205.5 L 42.8125,194.9375 L 42.34375,187.34375 C 44.186428,186.65989 46.014398,185.80448 47.84375,184.84375 C 47.84375,182.32533 47.84375,179.83093 47.84375,177.3125 C 48.775165,181.81207 49.786145,205.32083 51.40625,205.5 L 204.5,205 L 205,184.84375 L 204.5,184.96875 L 205,150.59375 L 197.9375,179.3125 L 200.96875,184.34375 L 203.8125,185.15625 L 200.96875,185.875 L 197.4375,180.8125 L 197.4375,177.3125 L 189.375,175.78125 L 190.40625,174.28125 L 181.84375,172.75 L 181.5,173.09375 L 179.3125,172.75 L 169.75,172.25 L 160.6875,168.75 L 155.78125,170.375 C 157.96842,158.27785 159.5134,150.39833 158.84375,140.84375 L 162.6875,143.03125 L 163.6875,136.5 L 158.65625,126.4375 L 160.6875,116.84375 L 159.15625,106.78125 L 149.09375,100.75 L 143.03125,100.75 L 135.59375,97.9375 L 128.9375,92.1875 L 129.03125,92.78125 L 128.9375,92.6875 L 128.9375,92.1875 L 128.9375,85.625 L 124.90625,81.59375 L 122.40625,70 L 125.40625,72.03125 L 124.90625,63.96875 L 130.46875,70 L 129.4375,60.4375 L 134.46875,61.4375 L 128.4375,48.84375 L 134.46875,51.875 L 126.9375,35.25 L 122.40625,31.71875 L 117.34375,23.6875 L 108.78125,19.125 L 112.3125,22.65625 L 113.25,23.875 C 111.75283,22.414799 110.07686,21.145492 108.25,20.0625 L 108.78125,14.59375 L 100.21875,10.5625 z M 86.125,17.625 L 87.96875,18.40625 C 86.215686,18.908423 84.708638,19.404331 83.375,19.90625 L 86.125,17.625 z M 72.5,28.84375 C 71.789653,29.899571 71.008731,31.108918 70.1875,32.4375 L 69,31.71875 L 72.5,28.84375 z M 117.71875,29.71875 L 118.875,31.21875 L 119.3125,33.1875 C 118.85544,31.979332 118.32882,30.815647 117.71875,29.71875 z M 121.25,62.09375 L 121.375,63.96875 L 120.03125,67.09375 C 120.57609,65.315229 120.97508,63.649395 121.25,62.09375 z "
       style="fill:black;fill-opacity:1;fill-rule:evenodd;stroke:black;stroke-width:3;stroke-linecap:round;stroke-linejoin:round;stroke-miterlimit:4;stroke-dasharray:none;stroke-dashoffset:0;stroke-opacity:1"
       id="path3143" />
  </g>
  <g
     style="opacity:1;display:inline"
     id="layer1">
    <path
       d="M 8.5626536,179.31204 L 9.0663391,198.45209 L 6.044226,204.49631 L 41.302211,205.50369 L 42.813268,194.92629 L 42.309582,186.86732 L 42.813268,175.28256 L 13.095823,170.74939 L 8.5626536,179.31204 z "
       style="fill:#494949;fill-opacity:1;fill-rule:evenodd;stroke:black;stroke-width:1.5;stroke-linecap:round;stroke-linejoin:round;stroke-miterlimit:4;stroke-dasharray:none;stroke-dashoffset:0;stroke-opacity:1;display:inline"
       id="path5364" />
    <path
       d="M 96.707619,16.117935 C 75.458172,21.386388 76.882129,21.640939 65.982803,39.287468 C 65.110446,41.945165 67.073194,46.889151 64.007223,47.814221 C 61.609808,50.830338 64.772391,59.91251 66.546462,63.576624 C 70.278528,65.991283 70.58658,70.58426 72.013936,74.396887 C 73.030526,77.924709 71.979544,81.646937 72.046229,85.261685 C 72.428756,88.568161 70.485808,93.221982 72.401316,95.640161 C 84.820511,102.52342 98.106659,109.36062 110.71637,99.477892 C 110.75472,95.218095 108.4047,90.549189 110.08676,86.570949 C 124.16239,66.042181 122.18338,54.591879 120.87035,47.972091 C 123.67957,45.48669 121.05767,41.921194 120.8258,38.883514 C 118.87421,26.168216 109.24952,17.807588 96.707619,16.117935 z "
       style="opacity:1;fill:#cbac90;fill-opacity:1;fill-rule:evenodd;stroke:none;stroke-width:1.5;stroke-linecap:round;stroke-linejoin:round;stroke-miterlimit:4;stroke-dasharray:none;stroke-dashoffset:0;stroke-opacity:1"
       id="path2165" />
    <path
       d="M 70.012283,97.211304 C 36.477354,108.94603 16.63888,117.0001 12.846311,153.23583 C 11.431061,158.96053 10.524513,164.96448 8.7952368,170.5168 C 6.4664837,172.15146 7.9888509,175.38131 7.5552826,177.80098 C 17.618099,191.61173 33.144871,192.57543 47.850124,184.85258 C 47.850124,182.33416 47.850124,179.81573 47.850124,177.2973 C 48.781539,181.79687 49.77825,205.3069 51.398355,205.48607 C 80.100948,205.15615 108.80354,204.82623 137.50613,204.49631 C 143.81193,192.59007 143.82781,183.63805 143.04668,170.74939 C 144.54574,176.65284 151.46219,172.39215 155.63882,171.25307 C 159.0146,152.51122 161.00425,143.99432 156.03999,124.60644 C 150.94984,102.3653 132.64389,102.13102 112.32187,93.685501 C 110.90353,100.58031 104.79882,107.05877 97.229965,105.48365 C 87.742207,104.24279 79.422867,98.770123 70.012283,97.211304 z "
       style="opacity:1;fill:#473951;fill-opacity:1;fill-rule:evenodd;stroke:none;stroke-width:1.5;stroke-linecap:round;stroke-linejoin:round;stroke-miterlimit:4;stroke-dasharray:none;stroke-dashoffset:0;stroke-opacity:1"
       id="path2162" />
    <path
       d="M 151.60934,168.73464 L 143.04668,173.26781 L 137.50614,189.38575 L 137.50614,204.49631 L 179.81572,204.49631 L 181.83047,183.34152 L 189.38575,174.27518 L 179.31204,172.76413 L 169.74201,172.26044 L 160.67568,168.73464 L 154.63145,170.74939 L 151.60934,168.73464 z "
       style="opacity:1;fill:#1e1e1f;fill-opacity:1;fill-rule:evenodd;stroke:none;stroke-width:1.5;stroke-linecap:round;stroke-linejoin:round;stroke-miterlimit:4;stroke-dasharray:none;stroke-dashoffset:0;stroke-opacity:1"
       id="path3145" />
    <path
       d="M 132.46929,101.24079 C 127.91382,150.57967 101.98531,178.54551 75.04914,205.50369 L 98.722359,205 C 125.7705,178.82863 141.68132,146.71734 148.58722,109.80344 L 132.46929,101.24079 z "
       style="opacity:1;fill:#3d2d1d;fill-opacity:1;fill-rule:evenodd;stroke:black;stroke-width:1.5;stroke-linecap:round;stroke-linejoin:round;stroke-miterlimit:4;stroke-dasharray:none;stroke-dashoffset:0;stroke-opacity:1"
       id="path3149" />
    <path
       d="M 71.523342,78.574939 L 63.968059,86.130221 L 67.493857,91.670762 L 66.486486,94.189189 L 56.916462,97.211302 L 47.346437,100.23342 L 46.339066,104.2629 L 38.280098,106.78133 L 32.739558,104.2629 L 20.651106,110.30713 L 16.621622,123.90663 L 18.132678,127.93612 L 12.592138,141.53563 L 19.140049,146.0688 L 37.776413,139.0172 L 50.872236,151.60934 L 61.953317,153.12039 L 76.560197,145.06143 L 83.611794,153.62408 L 102.75184,159.6683 L 120.38084,155.63882 L 129.95086,142.03931 L 144.05405,148.08354 L 152.11302,137.00246 L 162.69042,143.04668 L 163.69779,136.49877 L 158.66093,126.42506 L 160.67568,116.85504 L 159.16462,106.78133 L 149.09091,100.7371 L 143.04668,100.7371 L 134.98771,97.714988 L 128.94349,92.678133 L 128.94349,85.626536 L 119.37346,78.574939 L 114.84029,77.063882 L 115.84767,81.597052 L 122.89926,90.159705 L 119.87715,98.218673 L 117.35872,116.35135 L 114.33661,134.48403 L 93.181818,134.48403 L 83.611794,95.19656 L 70.012285,87.137592 L 72.027027,82.604423 L 71.523342,78.574939 z "
       style="opacity:1;fill:#312a2a;fill-opacity:1;fill-rule:evenodd;stroke:black;stroke-width:1.5;stroke-linecap:round;stroke-linejoin:round;stroke-miterlimit:4;stroke-dasharray:none;stroke-dashoffset:0;stroke-opacity:1"
       id="path5089" />
    <path
       d="M 86.130219,17.628992 C 88.144961,18.468468 90.159704,19.307945 92.174446,20.147421 C 92.678131,21.826372 93.181816,23.505323 93.685501,25.184275 C 99.288062,28.591374 102.15999,27.596572 107.7887,25.184275 C 108.12449,21.658477 108.46028,18.132678 108.79607,14.60688 C 105.87123,13.299119 102.99578,11.741177 100.04061,10.587037 C 96.700201,10.814123 93.29003,10.805179 89.992635,11.177807 C 86.628126,13.224864 83.068826,14.984356 79.830689,17.217975 C 75.071658,21.041922 70.137667,24.660534 65.49351,28.619298 C 63.641865,30.328509 61.790221,32.037719 59.938576,33.746929 C 61.281737,33.914824 62.624898,34.082719 63.96806,34.250614 C 60.610156,37.440623 57.252252,40.630632 53.894348,43.820641 C 54.521783,44.621143 56.420203,45.224316 56.198607,46.156636 C 54.600097,48.640616 52.823422,51.048568 51.334041,53.579116 C 50.67642,56.538411 50.0188,59.497706 49.361179,62.457001 C 50.704341,62.289106 52.047502,62.121211 53.390663,61.953316 C 52.886978,63.464373 52.383293,64.975431 51.879608,66.486488 C 53.222769,68.501231 54.565931,70.515973 55.909092,72.530716 C 56.244882,71.187553 56.580672,69.844391 56.916462,68.501228 C 57.483322,69.87566 58.201334,71.223874 57.859526,72.755915 C 57.713066,76.710331 57.566607,80.664747 57.420147,84.619164 C 58.763308,82.604421 60.106469,80.589678 61.449631,78.574936 C 61.785421,81.261258 62.121211,83.947581 62.457001,86.633904 C 63.632268,83.108106 64.807536,79.582308 65.982803,76.056511 C 67.158068,76.895986 68.333333,77.735461 69.508598,78.574936 C 69.340703,76.728091 69.172808,74.881246 69.004913,73.034401 C 70.348076,73.873876 71.691238,74.713351 73.034401,75.552826 C 72.698608,71.691237 72.362816,67.829648 72.027023,63.96806 C 73.538081,64.303851 75.049138,64.639642 76.560196,64.975433 C 75.40068,51.673523 83.348951,40.141515 71.523338,33.243244 C 72.948672,27.694564 77.263668,23.52283 82.0359,20.647353 C 83.441442,19.698862 84.843308,18.736483 86.130219,17.628992 z "
       style="opacity:1;fill:#959494;fill-opacity:1;fill-rule:evenodd;stroke:black;stroke-width:1;stroke-linecap:round;stroke-linejoin:round;stroke-miterlimit:4;stroke-dasharray:none;stroke-dashoffset:0;stroke-opacity:1"
       id="path5092" />
    <path
       d="M 108.79607,19.140049 C 111.65028,20.651106 114.5045,22.162163 117.35872,23.67322 C 119.08576,26.37668 120.71735,29.166282 122.50366,31.816255 C 123.98048,33.018551 125.5943,34.112704 126.98541,35.382643 C 129.48495,40.881631 131.98449,46.38062 134.48402,51.879608 C 132.46928,50.872237 130.45454,49.864866 128.4398,48.857494 C 130.45454,53.054873 132.46928,57.252252 134.48402,61.449631 C 132.80507,61.113841 131.12612,60.778051 129.44717,60.442261 C 129.78296,63.632268 130.11875,66.822276 130.45454,70.012283 C 128.6077,67.997542 126.76085,65.982801 124.914,63.96806 C 125.0819,66.654381 125.24979,69.340702 125.41769,72.027023 C 124.41032,71.355443 123.40295,70.683863 122.39558,70.012283 C 123.23505,73.873873 124.07453,77.735463 124.914,81.597054 C 123.06715,79.750206 121.22031,77.903358 119.37346,76.056511 C 119.37346,78.239148 119.37346,80.421786 119.37346,82.604424 C 118.0303,81.093366 116.68714,79.582308 115.34398,78.071251 C 121.3552,67.799052 121.16291,60.701193 120.38084,49.361179 C 120.85023,47.804308 121.5145,46.257489 121.86219,44.694339 C 120.98184,35.548105 117.56642,29.205963 111.93457,22.278546 C 110.8884,21.23238 109.84223,20.186215 108.79607,19.140049 z "
       style="opacity:1;fill:#939292;fill-opacity:1;fill-rule:evenodd;stroke:black;stroke-width:1;stroke-linecap:round;stroke-linejoin:round;stroke-miterlimit:4;stroke-dasharray:none;stroke-dashoffset:0;stroke-opacity:1"
       id="path5096" />
    <path
       d="M 102.24815,70.515967 C 97.598667,75.969551 91.109584,77.652087 84.619163,80.085998 C 84.72014,78.773027 83.506363,76.957479 84.705735,76.06438 C 88.706362,72.703854 92.70699,69.343328 96.707618,65.982802 C 98.218673,66.486487 99.729724,66.990173 101.24078,67.493857 C 102.45532,67.162031 103.65414,65.663533 104.88122,66.271659 C 109.9769,67.842475 113.20276,71.396877 116.85503,75.04914 C 115.34397,75.552824 113.83292,76.056508 112.32186,76.560195 C 107.59769,75.438967 104.60366,74.638115 102.24815,70.515967 z "
       style="opacity:1;fill:#959494;fill-opacity:1;fill-rule:evenodd;stroke:black;stroke-width:1;stroke-linecap:round;stroke-linejoin:round;stroke-miterlimit:4;stroke-dasharray:none;stroke-dashoffset:0;stroke-opacity:1"
       id="path5098" />
    <path
       d="M 189.38575,175.78624 L 197.44472,177.2973 L 197.44472,180.8231 L 200.97052,185.85995 L 205,184.85258 L 204.49631,205 L 183.84521,203.99263 L 179.81572,198.45209 L 181.32678,183.84521 L 189.38575,175.78624 z "
       style="opacity:1;fill:#cbac90;fill-opacity:1;fill-rule:evenodd;stroke:none;stroke-width:1.5;stroke-linecap:round;stroke-linejoin:round;stroke-miterlimit:4;stroke-dasharray:none;stroke-dashoffset:0;stroke-opacity:1"
       id="path5102" />
    <path
       d="M 197.9484,179.31204 L 205,150.60197 L 204.49631,185.35627 L 200.97052,184.34889 L 197.9484,179.31204 z "
       style="opacity:1;fill:#655546;fill-opacity:1;fill-rule:evenodd;stroke:none;stroke-width:1.5;stroke-linecap:round;stroke-linejoin:round;stroke-miterlimit:4;stroke-dasharray:none;stroke-dashoffset:0;stroke-opacity:1"
       id="path5104" />
    <path
       d="M 47.346437,101.74447 L 56.412776,105.77396 L 83.611794,153.62408 L 103.25553,159.6683 L 119.87715,155.13514 L 128.4398,143.04668 L 138.51351,112.82555 L 136.49877,98.722359 L 128.94349,92.174447 L 129.95086,98.218673 L 132.46929,102.75184 L 120.88452,146.0688 L 111.81818,148.58722 L 102.24816,150.60197 L 89.152334,146.57248 L 67.493857,103.75921 L 58.931204,96.707617 L 47.346437,101.74447 z "
       style="opacity:1;fill:#534f3b;fill-opacity:1;fill-rule:evenodd;stroke:black;stroke-width:1.5;stroke-linecap:round;stroke-linejoin:round;stroke-miterlimit:4;stroke-dasharray:none;stroke-dashoffset:0;stroke-opacity:1"
       id="path5106" />
    <path
       d="M 89.152336,83.611794 C 87.977069,88.984439 86.801801,94.357084 85.626534,99.729729 C 86.633906,98.890254 87.641279,98.050779 88.648651,97.211304 C 88.312861,102.08026 87.977071,106.94922 87.641281,111.81818 C 88.648651,111.31449 89.656021,110.81081 90.663391,110.30713 C 90.327601,119.20557 89.991811,128.10401 89.656021,137.00246 C 90.999181,135.6593 92.342341,134.31614 93.685501,132.97298 C 94.357084,140.02457 95.028666,147.07617 95.700249,154.12776 C 96.472429,153.63942 97.702828,152.27373 98.206205,152.30006 C 98.042466,154.75614 97.878727,157.21222 97.714989,159.6683 C 98.722359,156.3104 99.729729,152.95249 100.7371,149.59459 C 101.07289,154.46355 101.40868,159.33251 101.74447,164.20148 C 102.91974,159.66831 104.095,155.13514 105.27027,150.60197 C 105.77396,153.28829 106.27764,155.97461 106.78133,158.66093 C 107.28501,156.3104 107.7887,153.95987 108.29238,151.60934 C 108.62817,152.78461 108.96396,153.95988 109.29975,155.13515 C 109.97133,151.44145 110.64292,147.74775 111.3145,144.05405 C 111.81818,145.22931 112.32186,146.40458 112.82555,147.57985 C 112.99344,139.85667 113.16134,132.13349 113.32924,124.41032 C 114.16207,124.32964 116.19751,125.33573 116.25271,124.55231 C 115.27822,120.97918 114.30373,117.40605 113.32924,113.83292 C 114.8403,114.84029 116.35135,115.84767 117.86241,116.85504 C 116.07621,105.26039 114.44215,93.640929 112.32187,82.100739 C 109.65911,79.813272 109.33774,80.563416 106.69029,81.936878 C 105.88116,80.480441 105.07203,79.024003 104.2629,77.567566 C 102.91974,77.567566 101.57658,77.567566 100.23342,77.567566 C 99.729734,79.246518 99.226046,80.925471 98.722359,82.604424 C 97.882884,81.429156 97.043409,80.253888 96.203934,79.078621 C 93.11163,79.106137 90.904725,80.904449 89.152336,83.611794 z "
       style="opacity:1;fill:#959494;fill-opacity:1;fill-rule:evenodd;stroke:black;stroke-width:1;stroke-linecap:round;stroke-linejoin:round;stroke-miterlimit:4;stroke-dasharray:none;stroke-dashoffset:0;stroke-opacity:1"
       id="path5100" />
    <path
       d="M 119.87715,180.8231 L 118.36609,203.99263 L 122.89926,203.99263 L 125.92138,193.41523 L 125.92138,172.76413 L 119.87715,180.8231 z "
       style="opacity:1;fill:#292c44;fill-opacity:1;fill-rule:evenodd;stroke:black;stroke-width:1.5;stroke-linecap:round;stroke-linejoin:round;stroke-miterlimit:4;stroke-dasharray:none;stroke-dashoffset:0;stroke-opacity:1"
       id="path5108" />
    <path
       d="M 46.842752,175.78624 L 42.309582,182.33415 L 20.14742,181.32678 L 9.5700246,169.23833 L 6.5479115,175.78624 L 14.60688,186.36364 L 29.213759,190.89681 L 44.82801,186.86732 L 47.850123,181.83047 L 46.842752,175.78624 z "
       style="opacity:1;fill:#181b32;fill-opacity:1;fill-rule:evenodd;stroke:black;stroke-width:1.5;stroke-linecap:round;stroke-linejoin:round;stroke-miterlimit:4;stroke-dasharray:none;stroke-dashoffset:0;stroke-opacity:1"
       id="path5110" />
    <path
       d="M 181.83047,172.76413 L 174.27518,180.31941 L 170.2457,203.99263 L 178.30467,202.98526 L 181.32678,183.84521 L 190.39312,174.27518 L 181.83047,172.76413 z "
       style="opacity:1;fill:#b5b5b5;fill-opacity:1;fill-rule:evenodd;stroke:none;stroke-width:1.5;stroke-linecap:round;stroke-linejoin:round;stroke-miterlimit:4;stroke-dasharray:none;stroke-dashoffset:0;stroke-opacity:1"
       id="path5112" />
    <path
       d="M 97.714989,52.383293 C 94.274809,47.990471 88.703616,51.930802 84.115479,53.390663 C 85.794431,54.062243 87.473384,54.733823 89.152336,55.405403 C 92.525287,55.176133 95.671309,54.60647 97.714989,52.383293 z "
       style="opacity:1;fill:white;fill-opacity:1;fill-rule:evenodd;stroke:none;stroke-width:1.5;stroke-linecap:round;stroke-linejoin:round;stroke-miterlimit:4;stroke-dasharray:none;stroke-dashoffset:0;stroke-opacity:1"
       id="path5114" />
    <path
       d="M 106.78133,53.390663 C 109.37122,49.853687 111.82853,50.537306 115.84767,50.872234 C 116.85504,51.879606 117.86241,52.886977 118.86978,53.894348 C 114.22267,55.561752 111.14533,55.136262 106.78133,53.390663 z "
       style="opacity:1;fill:white;fill-opacity:1;fill-rule:evenodd;stroke:none;stroke-width:1.5;stroke-linecap:round;stroke-linejoin:round;stroke-miterlimit:4;stroke-dasharray:none;stroke-dashoffset:0;stroke-opacity:1"
       id="path5116" />
    <path
       d="M 96.707619,46.339066 C 89.408217,46.001254 83.791057,45.416129 78.071251,49.864864 C 79.078623,48.185913 80.085996,46.506962 81.093369,44.828011 C 85.704646,43.569589 89.963465,42.137638 94.692879,42.813267 C 95.364459,43.988533 96.036039,45.163799 96.707619,46.339066 z "
       style="opacity:1;fill:#959494;fill-opacity:1;fill-rule:evenodd;stroke:black;stroke-width:1;stroke-linecap:round;stroke-linejoin:round;stroke-miterlimit:4;stroke-dasharray:none;stroke-dashoffset:0;stroke-opacity:1"
       id="path5118" />
    <path
       d="M 104.2629,45.835381 C 106.10975,44.492219 107.95659,43.149058 109.80344,41.805897 C 113.80136,42.012598 117.28981,43.230359 120.88452,44.828011 C 120.54873,45.667486 120.21294,46.506961 119.87715,47.346436 C 114.6538,45.470437 109.67416,45.448863 104.2629,45.835381 z "
       style="opacity:1;fill:#959494;fill-opacity:1;fill-rule:evenodd;stroke:black;stroke-width:1;stroke-linecap:round;stroke-linejoin:round;stroke-miterlimit:4;stroke-dasharray:none;stroke-dashoffset:0;stroke-opacity:1"
       id="path5120" />
    <path
       d="M 69.004913,49.361179 C 64.399276,46.839049 64.344921,47.769168 62.96069,52.383293 C 64.74753,58.093129 64.813971,62.83718 70.515968,64.975433 C 70.012283,59.770682 69.508598,54.565931 69.004913,49.361179 z "
       style="opacity:1;fill:#cbac90;fill-opacity:1;fill-rule:evenodd;stroke:black;stroke-width:1;stroke-linecap:round;stroke-linejoin:round;stroke-miterlimit:4;stroke-dasharray:none;stroke-dashoffset:0;stroke-opacity:1"
       id="path5122" />
    <path
       d="M 94.441035,53.264744 A 2.5184276,2.1406634 0 1 1 94.440359,53.215141"
       style="opacity:1;fill:green;fill-opacity:1;fill-rule:evenodd;stroke:none;stroke-width:1;stroke-linecap:round;stroke-linejoin:round;stroke-miterlimit:4;stroke-dasharray:none;stroke-dashoffset:0;stroke-opacity:1"
       id="path6532" />
    <path
       d="M 115.34398,52.886978 A 2.2665849,2.2665849 0 1 1 115.34337,52.834458"
       style="opacity:1;fill:green;fill-opacity:1;fill-rule:evenodd;stroke:none;stroke-width:1;stroke-linecap:round;stroke-linejoin:round;stroke-miterlimit:4;stroke-dasharray:none;stroke-dashoffset:0;stroke-opacity:1"
       id="path6534" />
    <path
       d="M 92.42629,52.635136 A 1.2592138,1.2592138 0 1 1 92.425952,52.605958"
       style="opacity:1;fill:white;fill-opacity:1;fill-rule:evenodd;stroke:none;stroke-width:1;stroke-linecap:round;stroke-linejoin:round;stroke-miterlimit:4;stroke-dasharray:none;stroke-dashoffset:0;stroke-opacity:1"
       id="path6536" />
    <path
       d="M 113.83292,52.509212 A 1.1332924,1.1332924 0 1 1 113.83262,52.482952"
       style="opacity:1;fill:white;fill-opacity:1;fill-rule:evenodd;stroke:none;stroke-width:1;stroke-linecap:round;stroke-linejoin:round;stroke-miterlimit:4;stroke-dasharray:none;stroke-dashoffset:0;stroke-opacity:1"
       id="path6538" />
  </g>
  <g
     style="display:inline"
     id="layer6">
    <path
       d="M 64.471744,87.137592 L 78.574939,98.722359 L 88.144963,132.46929"
       style="opacity:1;fill:none;fill-opacity:1;fill-rule:evenodd;stroke:black;stroke-width:1;stroke-linecap:round;stroke-linejoin:round;stroke-miterlimit:4;stroke-dasharray:none;stroke-dashoffset:0;stroke-opacity:1"
       id="path6425" />
    <path
       d="M 128.4398,93.181818 L 125.41769,97.714988 L 119.37346,139.0172 L 115.84767,140.52826"
       style="opacity:1;fill:none;fill-opacity:1;fill-rule:evenodd;stroke:black;stroke-width:1;stroke-linecap:round;stroke-linejoin:round;stroke-miterlimit:4;stroke-dasharray:none;stroke-dashoffset:0;stroke-opacity:1"
       id="path6427" />
    <path
       d="M 144.05405,102.24816 C 148.42103,110.86492 146.78733,118.76946 145.56511,127.93612"
       style="opacity:1;fill:none;fill-opacity:1;fill-rule:evenodd;stroke:black;stroke-width:1;stroke-linecap:round;stroke-linejoin:round;stroke-miterlimit:4;stroke-dasharray:none;stroke-dashoffset:0;stroke-opacity:1"
       id="path6429" />
    <path
       d="M 34.754299,105.27027 C 42.69954,110.66479 46.292277,119.29028 50.872234,127.43243"
       style="opacity:1;fill:none;fill-opacity:1;fill-rule:evenodd;stroke:black;stroke-width:1;stroke-linecap:round;stroke-linejoin:round;stroke-miterlimit:4;stroke-dasharray:none;stroke-dashoffset:0;stroke-opacity:1"
       id="path6431" />
    <path
       d="M 20.147421,122.89926 C 24.932251,101.70395 33.657354,128.26065 37.272728,135.49139"
       style="opacity:1;fill:none;fill-opacity:1;fill-rule:evenodd;stroke:black;stroke-width:1;stroke-linecap:round;stroke-linejoin:round;stroke-miterlimit:4;stroke-dasharray:none;stroke-dashoffset:0;stroke-opacity:1"
       id="path6433" />
    <path
       d="M 14.60688,135.49139 C 19.412483,140.73608 23.433424,138.57345 29.717445,137.00246"
       style="opacity:1;fill:none;fill-opacity:1;fill-rule:evenodd;stroke:black;stroke-width:1;stroke-linecap:round;stroke-linejoin:round;stroke-miterlimit:4;stroke-dasharray:none;stroke-dashoffset:0;stroke-opacity:1"
       id="path6435" />
    <path
       d="M 19.140049,147.07617 L 17.125307,154.63145 L 16.621622,164.70516 L 14.103194,174.77887 L 9.5700246,169.49017"
       style="opacity:1;fill:none;fill-opacity:1;fill-rule:evenodd;stroke:black;stroke-width:1;stroke-linecap:round;stroke-linejoin:round;stroke-miterlimit:4;stroke-dasharray:none;stroke-dashoffset:0;stroke-opacity:1"
       id="path6437" />
    <path
       d="M 47.346436,153.62408 C 50.539133,155.67255 52.399741,156.8086 55.909092,155.63882"
       style="opacity:1;fill:none;fill-opacity:1;fill-rule:evenodd;stroke:black;stroke-width:1;stroke-linecap:round;stroke-linejoin:round;stroke-miterlimit:4;stroke-dasharray:none;stroke-dashoffset:0;stroke-opacity:1"
       id="path6443" />
    <path
       d="M 46.842752,159.16463 C 51.830849,162.19977 55.423157,161.28931 60.945946,160.67567"
       style="opacity:1;fill:none;fill-opacity:1;fill-rule:evenodd;stroke:black;stroke-width:1;stroke-linecap:round;stroke-linejoin:round;stroke-miterlimit:4;stroke-dasharray:none;stroke-dashoffset:0;stroke-opacity:1"
       id="path6445" />
    <path
       d="M 45.331696,163.69778 C 50.95642,170.24139 57.926527,170.76853 65.982803,172.26044"
       style="opacity:1;fill:none;fill-opacity:1;fill-rule:evenodd;stroke:black;stroke-width:1;stroke-linecap:round;stroke-linejoin:round;stroke-miterlimit:4;stroke-dasharray:none;stroke-dashoffset:0;stroke-opacity:1"
       id="path6447" />
    <path
       d="M 48.353809,170.2457 C 53.67804,178.49236 61.285942,180.92068 70.012283,184.34889"
       style="opacity:1;fill:none;fill-opacity:1;fill-rule:evenodd;stroke:black;stroke-width:1;stroke-linecap:round;stroke-linejoin:round;stroke-miterlimit:4;stroke-dasharray:none;stroke-dashoffset:0;stroke-opacity:1"
       id="path6449" />
    <path
       d="M 48.353808,178.30467 L 62.457002,191.90418 L 74.545455,198.45209"
       style="opacity:1;fill:none;fill-opacity:1;fill-rule:evenodd;stroke:black;stroke-width:1;stroke-linecap:round;stroke-linejoin:round;stroke-miterlimit:4;stroke-dasharray:none;stroke-dashoffset:0;stroke-opacity:1"
       id="path6451" />
    <path
       d="M 58.931203,188.63022 L 70.515971,201.97789"
       style="opacity:1;fill:none;fill-opacity:1;fill-rule:evenodd;stroke:black;stroke-width:1;stroke-linecap:round;stroke-linejoin:round;stroke-miterlimit:4;stroke-dasharray:none;stroke-dashoffset:0;stroke-opacity:1"
       id="path6453" />
    <path
       d="M 50.116708,185.35627 C 51.522736,193.25637 59.248439,198.44805 64.97543,204.49631"
       style="opacity:1;fill:none;fill-opacity:1;fill-rule:evenodd;stroke:black;stroke-width:1;stroke-linecap:round;stroke-linejoin:round;stroke-miterlimit:4;stroke-dasharray:none;stroke-dashoffset:0;stroke-opacity:1"
       id="path6455" />
    <path
       d="M 131.71376,142.543 L 122.39558,163.69779"
       style="opacity:1;fill:none;fill-opacity:1;fill-rule:evenodd;stroke:black;stroke-width:1;stroke-linecap:round;stroke-linejoin:round;stroke-miterlimit:4;stroke-dasharray:none;stroke-dashoffset:0;stroke-opacity:1"
       id="path6457" />
    <path
       d="M 120.88452,155.63882 L 108.29238,177.2973"
       style="opacity:1;fill:none;fill-opacity:1;fill-rule:evenodd;stroke:black;stroke-width:1;stroke-linecap:round;stroke-linejoin:round;stroke-miterlimit:4;stroke-dasharray:none;stroke-dashoffset:0;stroke-opacity:1"
       id="path6459" />
    <path
       d="M 84.115479,203.99263 L 103.25553,184.34889"
       style="opacity:1;fill:none;fill-opacity:1;fill-rule:evenodd;stroke:black;stroke-width:1;stroke-linecap:round;stroke-linejoin:round;stroke-miterlimit:4;stroke-dasharray:none;stroke-dashoffset:0;stroke-opacity:1"
       id="path6461" />
    <path
       d="M 90.915234,204.49632 L 110.30713,185.35627"
       style="opacity:1;fill:none;fill-opacity:1;fill-rule:evenodd;stroke:black;stroke-width:1;stroke-linecap:round;stroke-linejoin:round;stroke-miterlimit:4;stroke-dasharray:none;stroke-dashoffset:0;stroke-opacity:1"
       id="path6463" />
    <path
       d="M 148.08354,144.55774 L 137.00246,161.68305"
       style="opacity:1;fill:none;fill-opacity:1;fill-rule:evenodd;stroke:black;stroke-width:1;stroke-linecap:round;stroke-linejoin:round;stroke-miterlimit:4;stroke-dasharray:none;stroke-dashoffset:0;stroke-opacity:1"
       id="path6465" />
    <path
       d="M 146.0688,150.09828 C 148.66877,156.54586 145.52624,159.81995 142.03931,165.20885"
       style="opacity:1;fill:none;fill-opacity:1;fill-rule:evenodd;stroke:black;stroke-width:1;stroke-linecap:round;stroke-linejoin:round;stroke-miterlimit:4;stroke-dasharray:none;stroke-dashoffset:0;stroke-opacity:1"
       id="path6467" />
    <path
       d="M 142.543,168.23096 C 142.9482,176.07356 141.75223,183.72555 138.5135,191.4005"
       style="opacity:1;fill:none;fill-opacity:1;fill-rule:evenodd;stroke:black;stroke-width:1;stroke-linecap:round;stroke-linejoin:round;stroke-miterlimit:4;stroke-dasharray:none;stroke-dashoffset:0;stroke-opacity:1"
       id="path6469" />
    <path
       d="M 159.16462,152.61671 L 151.10565,161.17936"
       style="opacity:1;fill:none;fill-opacity:1;fill-rule:evenodd;stroke:black;stroke-width:1;stroke-linecap:round;stroke-linejoin:round;stroke-miterlimit:4;stroke-dasharray:none;stroke-dashoffset:0;stroke-opacity:1"
       id="path6471" />
    <path
       d="M 158.15725,143.55037 L 152.61671,146.57248"
       style="opacity:1;fill:none;fill-opacity:1;fill-rule:evenodd;stroke:black;stroke-width:1;stroke-linecap:round;stroke-linejoin:round;stroke-miterlimit:4;stroke-dasharray:none;stroke-dashoffset:0;stroke-opacity:1"
       id="path6473" />
    <path
       d="M 178.80835,172.76413 L 173.26781,171.75676 L 165.71253,178.30467 L 157.65356,199.45946"
       style="opacity:1;fill:none;fill-opacity:1;fill-rule:evenodd;stroke:black;stroke-width:1;stroke-linecap:round;stroke-linejoin:round;stroke-miterlimit:4;stroke-dasharray:none;stroke-dashoffset:0;stroke-opacity:1"
       id="path6475" />
    <path
       d="M 164.70516,179.31204 L 158.15725,182.83784 L 151.60934,201.97789"
       style="opacity:1;fill:none;fill-opacity:1;fill-rule:evenodd;stroke:black;stroke-width:1;stroke-linecap:round;stroke-linejoin:round;stroke-miterlimit:4;stroke-dasharray:none;stroke-dashoffset:0;stroke-opacity:1"
       id="path6477" />
    <path
       d="M 168.73463,175.28256 C 151.2619,180.17957 151.37968,184.33606 142.03931,198.95576"
       style="opacity:1;fill:none;fill-opacity:1;fill-rule:evenodd;stroke:black;stroke-width:1;stroke-linecap:round;stroke-linejoin:round;stroke-miterlimit:4;stroke-dasharray:none;stroke-dashoffset:0;stroke-opacity:1"
       id="path6479" />
    <path
       d="M 189.88943,185.35628 C 191.20724,188.4477 192.0299,191.69358 192.91154,194.92628 C 197.79328,197.59989 198.24766,194.01074 200.46683,189.88943 C 200.46683,188.54627 200.46683,187.20311 200.46683,185.85995"
       style="opacity:1;fill:none;fill-opacity:1;fill-rule:evenodd;stroke:black;stroke-width:1;stroke-linecap:round;stroke-linejoin:round;stroke-miterlimit:4;stroke-dasharray:none;stroke-dashoffset:0;stroke-opacity:1"
       id="path6481" />
    <path
       d="M 197.9484,195.42998 L 203.99263,194.4226"
       style="opacity:1;fill:none;fill-opacity:1;fill-rule:evenodd;stroke:black;stroke-width:1;stroke-linecap:round;stroke-linejoin:round;stroke-miterlimit:4;stroke-dasharray:none;stroke-dashoffset:0;stroke-opacity:1"
       id="path6483" />
    <path
       d="M 191.4005,190.8968 C 190.22523,191.23259 189.04996,191.56838 187.87469,191.90417 C 188.04259,194.08681 188.21049,196.26945 188.37839,198.45209 C 194.88401,201.54337 199.31327,204.65553 206.00737,201.97789"
       style="opacity:1;fill:none;fill-opacity:1;fill-rule:evenodd;stroke:black;stroke-width:1;stroke-linecap:round;stroke-linejoin:round;stroke-miterlimit:4;stroke-dasharray:none;stroke-dashoffset:0;stroke-opacity:1"
       id="path6485" />
    <path
       d="M 187.87469,197.44472 C 185.21791,199.87252 185.55368,201.25644 186.36365,204.49631"
       style="opacity:1;fill:none;fill-opacity:1;fill-rule:evenodd;stroke:black;stroke-width:1;stroke-linecap:round;stroke-linejoin:round;stroke-miterlimit:4;stroke-dasharray:none;stroke-dashoffset:0;stroke-opacity:1"
       id="path6487" />
    <path
       d="M 105.77396,64.975427 C 101.78951,67.311429 101.04775,68.540427 97.211304,65.982803"
       style="opacity:1;fill:none;fill-opacity:1;fill-rule:evenodd;stroke:black;stroke-width:1;stroke-linecap:round;stroke-linejoin:round;stroke-miterlimit:4;stroke-dasharray:none;stroke-dashoffset:0;stroke-opacity:1"
       id="path6489" />
    <path
       d="M 79.58231,63.464373 L 83.108108,70.515971"
       style="opacity:1;fill:none;fill-opacity:1;fill-rule:evenodd;stroke:black;stroke-width:1;stroke-linecap:round;stroke-linejoin:round;stroke-miterlimit:4;stroke-dasharray:none;stroke-dashoffset:0;stroke-opacity:1"
       id="path6491" />
    <path
       d="M 73.538086,67.493858 C 74.759405,78.876045 79.450508,82.976312 87.137589,90.663391"
       style="opacity:1;fill:none;fill-opacity:1;fill-rule:evenodd;stroke:black;stroke-width:1;stroke-linecap:round;stroke-linejoin:round;stroke-miterlimit:4;stroke-dasharray:none;stroke-dashoffset:0;stroke-opacity:1"
       id="path6493" />
    <path
       d="M 107.28501,90.663391 L 112.32187,104.2629"
       style="opacity:1;fill:none;fill-opacity:1;fill-rule:evenodd;stroke:black;stroke-width:0.5;stroke-linecap:round;stroke-linejoin:round;stroke-miterlimit:4;stroke-dasharray:none;stroke-dashoffset:0;stroke-opacity:1"
       id="path6495" />
    <path
       d="M 105.77396,101.24079 L 110.30713,116.85504"
       style="opacity:1;fill:none;fill-opacity:1;fill-rule:evenodd;stroke:black;stroke-width:0.5;stroke-linecap:round;stroke-linejoin:round;stroke-miterlimit:4;stroke-dasharray:none;stroke-dashoffset:0;stroke-opacity:1"
       id="path6497" />
    <path
       d="M 104.2629,117.86241 L 106.78133,133.47666"
       style="opacity:1;fill:none;fill-opacity:1;fill-rule:evenodd;stroke:black;stroke-width:0.5;stroke-linecap:round;stroke-linejoin:round;stroke-miterlimit:4;stroke-dasharray:none;stroke-dashoffset:0;stroke-opacity:1"
       id="path6499" />
    <path
       d="M 68.501229,42.813268 L 70.515971,61.953317"
       style="opacity:1;fill:none;fill-opacity:1;fill-rule:evenodd;stroke:black;stroke-width:0.5;stroke-linecap:round;stroke-linejoin:round;stroke-miterlimit:4;stroke-dasharray:none;stroke-dashoffset:0;stroke-opacity:1"
       id="path6501" />
    <path
       d="M 92.678133,12.088452 L 98.218673,19.643735"
       style="opacity:1;fill:none;fill-opacity:1;fill-rule:evenodd;stroke:black;stroke-width:0.5;stroke-linecap:round;stroke-linejoin:round;stroke-miterlimit:4;stroke-dasharray:none;stroke-dashoffset:0;stroke-opacity:1"
       id="path6503" />
    <path
       d="M 97.211302,12.088452 L 102.75184,19.643735"
       style="opacity:1;fill:none;fill-opacity:1;fill-rule:evenodd;stroke:black;stroke-width:0.5;stroke-linecap:round;stroke-linejoin:round;stroke-miterlimit:4;stroke-dasharray:none;stroke-dashoffset:0;stroke-opacity:1"
       id="path6505" />
    <path
       d="M 102.24816,13.095823 L 106.27764,19.643735"
       style="opacity:1;fill:none;fill-opacity:1;fill-rule:evenodd;stroke:black;stroke-width:0.5;stroke-linecap:round;stroke-linejoin:round;stroke-miterlimit:4;stroke-dasharray:none;stroke-dashoffset:0;stroke-opacity:1"
       id="path6507" />
    <path
       d="M 57.420147,64.97543 L 62.457002,56.412776"
       style="opacity:1;fill:none;fill-opacity:1;fill-rule:evenodd;stroke:black;stroke-width:0.5;stroke-linecap:round;stroke-linejoin:round;stroke-miterlimit:4;stroke-dasharray:none;stroke-dashoffset:0;stroke-opacity:1"
       id="path6509" />
    <path
       d="M 64.471744,76.056511 L 64.471744,64.471744"
       style="opacity:1;fill:none;fill-opacity:1;fill-rule:evenodd;stroke:black;stroke-width:0.5;stroke-linecap:round;stroke-linejoin:round;stroke-miterlimit:4;stroke-dasharray:none;stroke-dashoffset:0;stroke-opacity:1"
       id="path6511" />
    <path
       d="M 47.850123,152.11302 L 45.583538,163.44594 L 48.353808,179.31204"
       style="opacity:1;fill:none;fill-opacity:1;fill-rule:evenodd;stroke:black;stroke-width:1;stroke-linecap:round;stroke-linejoin:round;stroke-miterlimit:4;stroke-dasharray:none;stroke-dashoffset:0;stroke-opacity:1"
       id="path6525" />
    <path
       d="M 97.25605,51.507462 C 92.708594,49.083446 89.166686,51.35564 84.685539,53.051208 C 83.893122,53.263835 86.573431,54.305265 87.111427,54.594955"
       style="opacity:1;fill:none;fill-opacity:1;fill-rule:evenodd;stroke:black;stroke-width:1;stroke-linecap:round;stroke-linejoin:round;stroke-miterlimit:4;stroke-dasharray:none;stroke-dashoffset:0;stroke-opacity:1"
       id="path9883" />
    <path
       d="M 109.60602,54.153885 C 108.65037,53.859837 107.69471,53.565792 106.73906,53.271744 C 108.73543,51.067789 111.23211,50.911079 114.01673,50.404785 C 116.19012,50.474436 116.8231,51.389408 117.98636,53.051208"
       style="opacity:1;fill:none;fill-opacity:1;fill-rule:evenodd;stroke:black;stroke-width:1;stroke-linecap:round;stroke-linejoin:round;stroke-miterlimit:4;stroke-dasharray:none;stroke-dashoffset:0;stroke-opacity:1"
       id="path9887" />
    <path
       d="M 97.035512,55.477097 L 87.331961,58.123521"
       style="opacity:1;fill:none;fill-opacity:1;fill-rule:evenodd;stroke:black;stroke-width:0.5;stroke-linecap:round;stroke-linejoin:round;stroke-miterlimit:4;stroke-dasharray:none;stroke-dashoffset:0;stroke-opacity:1"
       id="path9893" />
    <path
       d="M 111.59084,56.800309 L 118.20689,55.918168"
       style="opacity:1;fill:none;fill-opacity:1;fill-rule:evenodd;stroke:black;stroke-width:0.5;stroke-linecap:round;stroke-linejoin:round;stroke-miterlimit:4;stroke-dasharray:none;stroke-dashoffset:0;stroke-opacity:1"
       id="path9895" />
  </g>
</svg>
