<?xml version="1.0" encoding="UTF-8" standalone="no"?>
<!-- Created with Inkscape (http://www.inkscape.org/) -->

<svg
   xmlns:dc="http://purl.org/dc/elements/1.1/"
   xmlns:cc="http://creativecommons.org/ns#"
   xmlns:rdf="http://www.w3.org/1999/02/22-rdf-syntax-ns#"
   xmlns:svg="http://www.w3.org/2000/svg"
   xmlns="http://www.w3.org/2000/svg"
   xmlns:sodipodi="http://sodipodi.sourceforge.net/DTD/sodipodi-0.dtd"
   xmlns:inkscape="http://www.inkscape.org/namespaces/inkscape"
   width="74.676628"
   height="166.64261"
   id="svg57354"
   version="1.1"
   inkscape:version="0.48.1 r9760"
   sodipodi:docname="New document 54">
  <defs
     id="defs57356" />
  <sodipodi:namedview
     id="base"
     pagecolor="#ffffff"
     bordercolor="#666666"
     borderopacity="1.0"
     inkscape:pageopacity="0.0"
     inkscape:pageshadow="2"
     inkscape:zoom="0.35"
     inkscape:cx="375"
     inkscape:cy="520"
     inkscape:document-units="px"
     inkscape:current-layer="layer1"
     showgrid="false"
     fit-margin-top="0"
     fit-margin-left="0"
     fit-margin-right="0"
     fit-margin-bottom="0"
     inkscape:window-width="1912"
     inkscape:window-height="1049"
     inkscape:window-x="0"
     inkscape:window-y="0"
     inkscape:window-maximized="1" />
  <metadata
     id="metadata57359">
    <rdf:RDF>
      <cc:Work
         rdf:about="">
        <dc:format>image/svg+xml</dc:format>
        <dc:type
           rdf:resource="http://purl.org/dc/dcmitype/StillImage" />
        <dc:title></dc:title>
      </cc:Work>
    </rdf:RDF>
  </metadata>
  <g
     inkscape:label="Layer 1"
     inkscape:groupmode="layer"
     id="layer1"
     transform="translate(0,-885.71958)">
    <g
       id="g3775"
       transform="matrix(1.2388897,0,0,1.2388897,3.8240563,779.00648)">
      <path
         inkscape:connector-curvature="0"
         style="fill:#d2691e;fill-opacity:1;fill-rule:nonzero;stroke:none"
         d="m 8.218558,116.06558 c -0.661708,-1.32801 0.010927,-4.33641 -0.446898,-6.22635 -0.46447,-1.91735 -2.79486,-3.58372 -3.78921,-4.45708 -1.08732,-0.955 -1.73219,-0.58016 -2.19457,-1.38571 1.57533,-10.373282 9.969166,-14.62823 18.054877,-13.689383 0.964703,0.112014 0.932989,-1.040338 2.966734,-0.455996 1.724635,2.213658 1.994879,4.822227 3.21424,7.050711 0.606094,1.107687 1.779643,1.968275 1.930699,3.369058 0.100043,0.92772 -0.843719,2.41532 -0.509852,3.18565 0.622841,1.43708 7.331245,0.95114 8.414929,3.58374 1.757667,4.26992 5.297213,8.64279 6.580667,13.24167 1.685984,6.04123 -0.327998,8.22289 0.657143,14.64646 1.357817,8.85359 0.929881,19.69428 1.507251,29.52979 0.921284,15.69409 7.908415,30.22877 11.603745,43.27111 L 3.94898,209.89035 0.01971,196.1379 c 1.50981,-15.99919 2.39381,-31.97413 3.41893,-47.80707 0.17739,-2.73978 0.89961,-5.44203 1.49266,-8.18507 0.34276,-2.86052 4.539159,-7.53568 4.068452,-10.66826 -0.505358,-3.36318 -4.580732,-6.49415 -3.784502,-7.60874 1.26757,-1.77436 1.779,-3.87595 3.003308,-5.80318 z"
         id="path3674"
         sodipodi:nodetypes="csscscssssssscccscssc" />
      <path
         inkscape:connector-curvature="0"
         style="opacity:0.23600003;fill:#8b4513;fill-opacity:1;fill-rule:nonzero;stroke:none"
         d="m 12.52554,114.4899 -4.3125,1.5625 c -0.00476,0.007 0.00474,0.0237 0,0.0312 -1.21405,1.92108 -1.73735,4.01378 -3,5.78125 -0.79623,1.11458 3.275888,4.26181 3.78125,7.625 0.470707,3.13258 -3.71974,7.79573 -4.0625,10.65625 -0.59305,2.74305 -1.32261,5.44772 -1.5,8.1875 -1.02512,15.83294 -1.89644,31.81331 -3.40625,47.8125 l 3.9375,13.75 23.21875,-0.96875 c -3.022963,-3.97807 -4.609157,-8.67462 -5,-13.96875 -2.380952,0.31719 -4.775296,0.56501 -7.15625,5.25 0.933216,-3.12841 2.522932,-5.60295 5.6875,-6.5 -0.455656,-9.44097 -6.496013,-15.30885 0,-29.21875 -4.059536,4.7619 -5.481125,9.51934 -5.0625,14.28125 -5.752985,-9.51312 -2.768331,-27.71556 -2.28125,-43.46875 l -0.84375,-20.8125 z"
         id="path3686" />
      <path
         inkscape:connector-curvature="0"
         style="fill:#ffdead;fill-opacity:1;fill-rule:nonzero;stroke:none"
         d="m 6.29122,106.89802 0.96735,1.69287 1.934707,6.10641 2.539299,-0.48368 0.725514,0.72552 -3.748489,1.75332 -0.725514,-1.33011 -0.785977,-0.84643 0.604599,-0.90689 -1.330109,-0.78598 0.3023,-1.39056 -2.11608,-1.57195 1.14873,-3.02298"
         id="path3676" />
      <g
         id="g3614"
         transform="matrix(0.3897371,0,0,0.3897371,-3.0866802,86.136531)">
        <path
           inkscape:connector-curvature="0"
           id="path3616"
           d="m 55.68,20.89 c 3.915,0.334 6.503,3.244 5.76,7.44 -1.28,-0.96 -1.588,-2.892 -2.4,-4.32 -1.002,-1.157 -3.122,-1.198 -3.36,-3.12 z"
           style="fill-rule:evenodd" />
        <path
           inkscape:connector-curvature="0"
           id="path3618"
           d="m 66.72,21.37 c 3.838,2.401 5.827,9.952 3.84,15.84 0.082,0.798 0.909,0.851 1.2,1.44 -0.639,7.281 -4.752,11.224 -8.88,15.36 -0.402,0.403 -0.647,1.883 -1.68,1.2 -0.565,-1.468 1.166,-1.934 1.92,-2.64 3.451,-3.229 6.37,-7.592 7.44,-13.68 -0.503,-0.377 -1.545,-0.215 -1.68,-0.96 0.62,-3.297 1.359,-6.736 0.48,-10.08 -0.57,-2.167 -2.577,-3.656 -2.88,-5.52 -0.03,-0.431 0.294,-0.506 0.24,-0.96 z"
           style="fill-rule:evenodd" />
        <path
           inkscape:connector-curvature="0"
           id="path3620"
           d="m 63.6,24.73 c 0.24,0 0.48,0 0.72,0 0.975,4.064 -0.323,7.475 -1.68,10.32 -0.78,1.635 -1.41,4.121 -3.36,3.6 -0.807,-1.45 1.035,-2.104 1.68,-2.88 1.771,-2.789 2.302,-6.818 2.64,-11.04 z"
           style="fill-rule:evenodd" />
        <path
           inkscape:connector-curvature="0"
           id="path3622"
           d="m 55.92,45.61 c 0.146,2.742 -3.029,4.234 -5.04,6.24 -0.934,0.932 -1.177,2.203 -2.4,2.64 -0.467,0.733 -0.437,1.963 -1.68,1.92 -0.765,-1.497 0.92,-3.08 1.92,-4.08 2.17,-2.169 5.002,-3.422 6.24,-6.72 0.32,0 0.64,0 0.96,0 z"
           style="fill-rule:evenodd" />
        <path
           inkscape:connector-curvature="0"
           id="path3624"
           d="m 72.24,50.89 c 1.149,0.05 1.46,1.397 0.96,2.4 -0.417,0.543 -1.697,0.223 -1.92,0.96 0.074,0.326 0.601,0.199 0.96,0.24 0.156,1.036 -0.415,1.345 -0.72,1.92 -0.864,-0.576 -1.081,-1.799 -1.92,-2.4 0.271,-1.168 1.426,-1.454 2.64,-1.68 0,-0.48 0,-0.96 0,-1.44 z"
           style="fill-rule:evenodd" />
        <path
           inkscape:connector-curvature="0"
           id="path3626"
           d="m 75.36,68.17 c 0.24,0 0.48,0 0.72,0 0.117,3.512 -2.136,6.639 -3.36,9.6 -0.818,-0.531 -0.077,-1.861 0.24,-2.88 0.437,-1.405 0.907,-2.996 1.68,-3.84 -0.335,-1.535 0.688,-1.712 0.72,-2.88 z"
           style="fill-rule:evenodd" />
        <path
           inkscape:connector-curvature="0"
           id="path3628"
           d="m 69.6,80.65 c 0.24,0 0.48,0 0.72,0 0.117,3.818 -1.642,7.203 -1.92,11.28 -0.154,2.261 0.431,4.731 0,7.2 -0.16,0.915 -0.922,1.659 -1.2,2.64 -0.603,2.125 -0.88,4.97 -1.2,7.68 -0.306,2.592 -0.38,5.479 -0.72,8.16 -0.706,5.56 -2.253,10.865 -2.4,15.12 -0.006,0.174 -0.064,0.561 0,0.72 0.036,0.089 0.484,0.275 0.48,0.24 0.072,0.592 -0.499,1.54 -0.72,2.4 -1.19,-1.06 -0.818,-2.996 -0.72,-4.32 0.346,-4.684 1.436,-9.688 1.92,-15.12 0.382,-4.287 1.042,-8.864 1.92,-13.2 1.207,-5.955 1.484,-11.779 2.64,-17.04 0.494,-2.249 0.447,-4.068 1.2,-5.76 z"
           style="fill-rule:evenodd" />
        <path
           inkscape:connector-curvature="0"
           id="path3630"
           d="m 60.24,116.41 c -0.937,-0.599 -0.65,-1.541 -0.96,-2.4 -1.43,-3.963 -4.27,-7.081 -6.72,-10.08 -0.068,-0.388 0.227,-0.413 0.24,-0.72 0.214,-0.187 0.542,-0.258 0.96,-0.24 3.435,3.045 6.339,7.901 6.48,13.44 z"
           style="fill-rule:evenodd" />
        <path
           inkscape:connector-curvature="0"
           id="path3632"
           d="m 41.52,107.29 c 0.24,0 0.48,0 0.72,0 -0.047,6.083 0.933,12.166 1.2,18.24 0.279,6.344 -0.108,12.696 -0.24,18.72 -0.036,1.662 0.003,2.723 0.48,3.84 -0.661,2.9 -0.528,7.881 -0.72,12.24 -0.081,1.836 -0.714,3.682 0,5.04 -0.987,0.867 -0.729,3.337 -0.96,5.52 -0.129,1.215 0.104,3.023 -0.96,3.36 -1.01,-0.748 -0.349,-2.624 -0.24,-3.84 0.817,-9.157 1.178,-21.092 1.2,-31.2 0.008,-3.759 -0.763,-8.122 -0.24,-11.76 0.074,-0.51 -0.275,-1.247 0.72,-1.44 0.046,-0.927 -1.115,-0.646 -0.96,-1.68 0.376,-5.899 -0.815,-10.867 -0.24,-16.32 -0.068,-0.387 0.227,-0.413 0.24,-0.72 z"
           style="fill-rule:evenodd" />
        <path
           inkscape:connector-curvature="0"
           id="path3634"
           d="m 104.64,125.53 c 0.24,0 0.479,0 0.72,0 -0.291,5.362 4.047,11.631 -0.24,14.64 -0.068,-2.092 0.686,-4.504 -0.72,-6.48 0.771,-2.684 -0.876,-5.647 0.24,-8.16 z"
           style="fill-rule:evenodd" />
        <path
           inkscape:connector-curvature="0"
           id="path3636"
           d="m 20.88,138.73 c 1.139,0.969 -0.192,2.147 -0.48,3.12 0.242,2.206 -1.021,3.983 -1.44,6 -0.158,0.76 0.119,1.38 0,2.16 -0.09,0.591 -0.587,1.102 -0.72,1.68 -0.113,0.489 0.315,0.684 0.24,0.96 -0.049,0.18 -0.436,0.172 -0.48,0.48 -0.432,3.005 0.228,5.792 0.24,9.36 0.006,1.813 -0.156,3.845 -0.24,5.76 -0.127,2.898 -0.771,5.75 -0.96,8.64 -0.138,2.104 0.281,4.233 0,6.24 -0.065,0.466 -0.44,0.928 -0.48,1.44 -0.103,1.323 0.086,2.672 0,4.08 -0.058,0.942 -0.455,2 -0.48,2.88 -0.018,0.626 0.321,1.31 0.24,1.92 -0.129,0.969 -0.826,1.869 -0.96,2.88 -0.21,1.586 0.109,3.16 0,4.8 -0.183,2.734 -0.859,6.749 -1.2,10.32 -0.071,0.738 0.101,1.679 0,2.399 -0.289,2.053 -1.174,3.862 -1.2,5.761 -0.013,0.965 0.28,1.913 0.24,2.88 -0.109,2.626 -0.744,5.208 -0.96,7.92 -0.584,7.322 -1.043,15.342 -1.44,23.04 -0.143,2.775 0.159,5.381 0,8.16 -0.373,6.534 -0.727,13.952 -1.92,20.399 1.864,0.241 3.309,-0.324 5.04,0 1.374,0.258 2.186,1.244 3.36,1.2 2.116,-0.079 3.042,-1.895 4.56,-3.36 0.913,-3.807 1.837,-7.603 2.64,-11.52 2.528,-3.164 2.667,-7.657 3.36,-12 0.694,-4.348 1.428,-8.925 1.44,-13.68 0.029,-0.89 0.35,-0.604 0.96,-0.48 -0.899,-0.714 -0.799,-1.92 -0.48,-3.36 0.094,-0.421 0.44,-0.995 0.48,-1.439 0.047,-0.516 -0.455,-1.069 -0.48,-1.68 -0.019,-0.461 0.438,-1.009 0.48,-1.44 0.206,-2.077 -0.782,-3.546 -0.96,-5.04 -0.159,-1.338 0.215,-2.752 0.24,-4.08 0.104,-5.532 -1.286,-12.326 -1.92,-18 -0.985,-8.804 -1.357,-17.824 -1.44,-25.68 -0.023,-2.146 -0.083,-4.164 -0.24,-6.24 -0.443,-5.862 0.207,-11.254 -0.96,-17.76 -0.575,-3.206 -1.57,-6.427 -2.16,-10.32 -0.208,-1.376 -0.803,-3.195 0,-4.56 1.065,1.024 0.984,2.621 1.44,4.08 1.157,3.706 2.744,8.44 3.12,12.96 0.257,3.082 -0.21,6.42 0.96,9.36 -0.88,1.71 -0.178,4.496 -0.24,6.96 -0.018,0.687 -0.451,1.482 -0.48,2.16 -0.089,2.072 0.478,4.429 0.48,6.72 0.003,4.272 -0.581,8.79 -0.24,12.961 0.12,1.471 0.537,3.031 0.72,4.56 0.212,1.767 0.244,3.541 0.48,5.28 0.27,1.994 0.957,3.959 1.2,6 0.501,4.198 -0.101,8.688 0.24,12.96 0.13,1.637 0.679,3.22 0.96,4.8 0.961,5.4 1.01,10.063 0.72,15.36 -0.093,1.689 -0.088,3.251 0,4.8 0.202,3.556 1.209,6.785 0.24,9.84 0.598,1.948 1.379,3.122 0.48,5.04 0.643,1.037 1.489,1.871 2.4,2.64 -0.474,0.977 0.307,1.855 0.72,2.641 -0.237,3.762 -0.371,7.707 0,10.319 0.251,1.771 0.332,2.575 0.96,4.08 0.069,0.166 0.106,0.66 0.24,0.96 0.068,0.152 0.712,0.454 0.72,0.48 0.148,0.482 -0.163,1.268 0,1.68 0.954,2.419 3.278,3.57 4.8,5.521 0.984,1.26 1.052,2.779 2.4,3.6 3.924,-0.955 6.122,-3.638 8.64,-6 0.183,-2.038 2.066,-3.351 2.88,-5.04 0.777,-1.613 0.639,-3.627 2.16,-4.8 1.848,0.231 3.012,1.148 3.12,3.12 -1.082,1.251 -1.975,-0.365 -3.36,-0.24 -0.637,1.475 -1.873,1.807 -1.44,3.84 -0.677,0.443 -1.297,0.942 -1.2,2.16 -2.198,2.202 -3.794,5.006 -6.48,6.72 1.075,1.485 2.779,2.342 4.56,3.12 0.665,0.695 0.899,1.82 2.16,1.92 -0.026,0.598 -0.45,0.743 0,1.2 1.698,1.182 2.04,3.721 3.84,4.8 0.217,1.143 0.337,2.383 1.44,2.641 -0.476,0.453 -0.117,1.134 0,1.68 0.532,1.362 1.431,2.566 2.16,4.08 0.198,0.412 0.26,1.039 0.48,1.439 0.49,0.895 1.495,1.447 1.92,2.4 0.239,0.537 0.23,1.423 0.48,2.16 0.307,0.907 0.995,1.839 1.2,2.64 0.623,2.435 0.265,4.939 1.2,7.2 0.406,0.982 1.194,1.753 1.68,2.64 0.571,1.043 0.531,2.395 1.68,2.88 2.98,0.232 6.202,-1.073 9.36,-0.96 0.822,0.03 1.595,0.397 2.399,0.48 2.285,0.236 4.452,-0.219 6.48,0 5.058,0.545 7.819,3.824 10.56,6.479 -1.697,-0.418 -2.874,-0.682 -4.319,-1.439 -1.222,-0.641 -2.005,-1.945 -3.36,-2.641 -2.357,-1.208 -11.236,-1.685 -15.84,-0.96 -1.817,0.287 -5.164,1.117 -7.68,0 -0.201,-0.662 -1.109,-1.41 -0.48,-2.159 -1.906,-0.895 -2.223,-3.377 -3.12,-5.28 -2.291,1.23 -6.696,3.237 -9.84,1.439 -0.601,-0.343 -2.003,-0.831 -1.68,-1.92 1.51,-0.624 2.242,1.013 3.84,1.2 1.415,0.166 2.87,-0.486 4.32,-0.96 1.381,-0.451 2.882,-0.734 3.6,-1.68 -0.727,-3.109 -1.689,-6.462 -3.36,-9.36 -0.441,-0.766 -1.196,-1.366 -1.68,-2.16 -0.358,-0.587 -0.571,-1.417 -0.96,-2.16 -0.882,-1.685 -1.561,-3.932 -2.64,-6 -0.581,-1.112 -1.461,-2.222 -2.16,-3.359 -2.083,-3.394 -4.747,-5.713 -8.16,-7.92 -1.477,-0.111 -2.171,1.821 -3.12,1.439 -1.967,-0.674 -2.111,-2.722 -2.88,-4.08 -1.246,-2.202 -2.935,-2.897 -4.32,-5.04 -3.104,-4.801 -2.69,-9.72 -2.88,-15.359 -0.048,-1.436 0.004,-3.549 -0.48,-5.28 -0.368,-1.314 -1.848,-2.046 -2.4,-3.36 -0.412,-0.98 -0.838,-3.924 -0.48,-5.279 0.135,-0.513 0.558,-2.278 0.48,-3.601 -0.013,-0.216 -0.4,-1.057 -0.48,-1.92 -0.183,-1.99 0.063,-3.953 -0.24,-5.52 -1.138,0.537 -0.813,2.191 -0.96,3.12 -0.482,3.057 -0.793,6.792 -1.68,9.84 -0.554,1.905 -1.645,3.618 -2.16,5.52 -0.566,2.091 -0.597,4.2 -1.68,6 -0.027,1.732 -0.396,3.123 -0.24,5.04 -0.182,0.698 -1.186,0.574 -1.44,1.2 -0.454,1.663 -0.049,3.514 -0.24,5.521 -0.086,0.903 -0.696,1.854 -0.72,2.88 -0.013,0.538 0.292,1.102 0.24,1.68 -0.099,1.102 -0.606,2.188 -0.72,3.36 -0.433,4.444 0.664,9.371 -0.48,13.199 -0.214,0.716 -0.78,1.26 -0.96,1.92 -0.245,0.897 0.02,1.774 -0.24,2.4 -0.467,1.125 -2.092,1.753 -1.68,3.36 0.27,1.054 2.875,1.661 3.84,2.399 1.097,0.84 2.498,2.406 3.6,3.601 2.265,2.453 4.348,4.676 6.48,7.439 2.417,0.509 4.188,-1.049 6.24,-1.2 0.887,-0.064 1.939,0.346 2.88,0.24 2.667,-0.298 5.139,-2.4 8.4,-1.92 1.021,-1.152 -1.187,-1.8 -0.48,-2.64 1.547,0.116 2.585,1.656 3.36,2.64 0.808,1.027 1.775,2.293 1.92,3.84 -2.195,0.596 -2.232,-1.974 -4.08,-2.399 -2.403,-0.555 -6.535,1.802 -8.88,2.16 -1.12,0.171 -2.399,-0.136 -3.36,0 -1.888,0.266 -3.381,1.477 -4.8,1.439 -2.228,-0.058 -3.289,-1.55 -4.8,-3.36 -1.154,-0.193 -0.867,1.054 -2.16,0.721 -1.198,-0.162 -2.299,-0.422 -3.36,-0.721 -1.489,0.84 -4.666,0.523 -6.24,0 -2.997,0.619 -6.679,0.444 -9.84,0.48 -2.47,0.028 -4.988,-0.185 -6.48,-1.2 0.889,-4.751 2.82,-8.063 7.68,-6.479 0.842,0.274 1.532,0.963 2.4,0.96 3.272,-0.015 3.743,-3.796 6.48,-4.32 0.823,1.187 -0.849,1.622 -0.96,2.64 0.731,1.027 1.524,2.088 2.16,3.36 0.571,1.142 0.646,3.143 2.4,3.12 0.628,-2.551 -0.602,-5.316 -0.96,-7.68 -0.374,-0.895 -2.645,-1.255 -2.88,-2.641 -0.222,-1.308 1.289,-2.391 1.92,-4.08 0.281,-0.752 0.189,-1.883 0.48,-2.88 0.579,-1.98 1.196,-3.501 1.2,-6.479 0.008,-5.488 -0.107,-11.509 0.72,-16.561 0.26,-1.587 1.088,-2.878 0.72,-4.319 -1.301,-0.149 -2.606,2.07 -4.56,2.159 -1.281,0.06 -1.973,-0.443 -3.12,-1.199 -1.582,-0.254 -4.567,0.058 -6.24,-0.48 -0.39,-1.191 0.341,-2.229 0.48,-3.36 0.146,-1.187 -0.125,-2.411 0,-3.6 0.076,-0.722 0.421,-1.446 0.48,-2.16 0.464,-5.646 0.116,-11.562 0.72,-17.28 0.489,-4.628 0.429,-11.062 0.72,-15.84 0.308,-5.055 0.884,-10.095 1.44,-15.12 0.093,-0.837 0.165,-1.995 0.48,-2.88 0.046,-0.129 0.479,-0.471 0.48,-0.479 0.097,-0.959 -0.284,-1.931 -0.24,-2.88 0.185,-3.993 1.121,-8.094 1.44,-12.24 0.319,-4.148 0.334,-8.387 0.72,-12.48 0.118,-1.247 0.599,-2.56 0.72,-3.84 0.151,-1.592 -0.142,-3.155 0,-4.8 0.375,-4.335 1.098,-9.038 1.2,-13.44 0.116,-4.997 -0.052,-9.886 0,-14.88 0.043,-4.132 1.404,-8.605 2.4,-12.72 0.54,-2.229 0.504,-4.05 1.44,-5.76 -0.067,-0.388 0.227,-0.413 0.24,-0.72 0.24,-0.003 0.48,-0.003 0.72,-0.003 z m 1.44,188.4 c 1.476,0.125 3.71,1.438 4.32,-0.24 -1.697,-1.903 -3.293,-3.906 -5.28,-5.52 0.055,2.186 0.394,4.086 0.96,5.76 z m -7.68,-5.28 c -2.132,0.043 -1.861,2.527 -4.08,2.641 -1.032,0.053 -1.488,-0.999 -2.64,-1.2 -2.895,-0.505 -5.16,0.561 -5.76,3.84 5.197,0.573 9.668,0.157 15.12,0.24 -0.596,-2.125 -1.616,-3.825 -2.64,-5.521 z"
           style="fill-rule:evenodd" />
        <path
           inkscape:connector-curvature="0"
           id="path3638"
           d="m 103.92,141.37 c 0.239,0 0.479,0 0.72,0 -0.064,1.823 -0.655,3.689 -1.2,5.52 -0.506,1.701 -1.205,3.463 -1.68,5.28 -0.948,3.626 -2.535,7.294 -3.12,11.04 -0.136,0.871 0.472,2.164 -0.48,2.88 -1.287,-0.342 -0.86,-2.005 -0.72,-3.12 0.207,-1.643 0.91,-3.626 1.44,-5.52 1.309,-4.681 3.276,-10.685 4.8,-15.36 -0.068,-0.388 0.227,-0.413 0.24,-0.72 z"
           style="fill-rule:evenodd" />
        <path
           inkscape:connector-curvature="0"
           id="path3640"
           d="m 67.44,211.45 c 0.16,0 0.32,0 0.48,0 1.094,0.503 0.611,2.034 0.72,2.88 0.44,3.425 1.061,6.964 1.68,10.56 0.389,2.26 0.459,4.592 0.72,6.96 0.458,4.162 0.92,7.239 0.72,12 -0.055,1.315 0.156,3.313 -0.96,4.08 -0.274,-7.131 -0.518,-13.847 -1.68,-20.399 -0.301,-1.694 -0.206,-3.479 -0.48,-5.521 -0.129,-0.963 -0.619,-1.917 -0.72,-2.88 -0.261,-2.481 0.448,-5.147 -0.72,-6.96 -0.068,-0.388 0.227,-0.413 0.24,-0.72 z"
           style="fill-rule:evenodd" />
        <path
           inkscape:connector-curvature="0"
           id="path3642"
           d="m 154.56,313.21 c -0.343,-2.093 -1.958,-3.045 -3.36,-4.08 -1.137,-0.839 -1.896,-0.981 -2.88,-1.68 -0.9,-0.64 -1.472,-1.374 -2.16,-2.16 -1.314,0.194 -1.522,-0.718 -2.64,-0.72 -2.9,-2.86 -7.197,-4.323 -9.84,-7.44 -2.558,-1.123 -4.424,-2.937 -6.24,-4.8 -0.613,-0.259 -0.84,1.033 -1.2,0.24 0.552,-0.623 -0.009,-1.588 -0.24,-2.16 0.456,-0.504 0.69,-1.229 0.96,-1.92 -0.291,-3.359 -0.127,-7.131 0,-10.32 0.042,-1.042 -0.602,-1.737 -0.72,-2.88 -0.072,-0.697 0.288,-1.454 0.24,-2.16 -0.045,-0.661 -0.411,-1.251 -0.48,-1.92 -0.39,-3.809 0.218,-7.332 -0.479,-11.04 -0.104,-0.557 -0.448,-1.106 -0.48,-1.68 -0.041,-0.761 0.238,-1.397 0.24,-2.16 0.01,-4.252 -0.605,-8.578 -0.24,-12.72 0.186,-2.098 0.945,-4.197 0.96,-6.24 0.007,-0.922 -0.389,-1.836 -0.479,-2.88 -0.361,-4.137 -0.192,-7.757 -0.24,-11.04 -1.056,-1.05 -1.107,-3.205 -0.479,-4.32 -0.59,-2.433 -0.341,-4.993 -0.48,-7.439 -0.038,-0.671 -0.489,-1.491 -0.479,-2.16 0.006,-0.482 0.293,-0.759 0.239,-1.2 -0.088,-0.736 -0.627,-1.438 -0.72,-2.16 -0.062,-0.485 0.259,-1.152 0.24,-1.68 -0.063,-1.803 -0.402,-3.752 -0.48,-5.76 -0.064,-1.676 -0.485,-3.416 -0.239,-5.04 0.287,-1.902 0.493,-4.758 0.239,-6.721 -0.079,-0.615 -0.436,-1.056 -0.479,-1.68 -0.289,-4.103 0.166,-8.4 0,-12.72 -0.225,-5.817 -0.842,-12.531 -0.72,-18.48 0.063,-3.131 -1.145,-6.692 -0.738,-9.477 -0.012,-0.042 -0.036,-0.07 -0.043,-0.117 -0.064,-0.427 -0.09,-0.85 -0.103,-1.271 -0.096,-0.229 -0.098,-0.551 -0.077,-0.895 0.011,-0.116 0.031,-0.222 0.068,-0.311 0.007,-0.458 0.012,-0.919 0.002,-1.385 -0.072,-0.436 -0.091,-0.902 -0.081,-1.369 -0.095,-1.081 -0.232,-2.156 -0.216,-3.244 0,-0.005 0.003,-0.008 0.003,-0.014 -0.481,-0.919 -0.2,-2.314 -0.496,-3.518 -0.154,-0.63 -0.599,-1.29 -0.72,-1.92 -0.409,-2.12 -0.319,-4.485 -0.72,-6.72 0.938,-1.773 0.624,-4.099 0.72,-6 0.178,-3.535 -0.634,-8.685 0.761,-11.325 0.005,-0.389 0.008,-0.778 0.008,-1.167 -0.197,-0.405 -0.028,-1.178 -0.103,-1.706 -0.078,-0.11 -0.131,-0.242 -0.158,-0.396 -0.012,-0.013 -0.015,-0.035 -0.028,-0.046 -0.002,-0.021 0.005,-0.032 0.005,-0.05 -10e-4,-0.017 -0.01,-0.028 -0.011,-0.045 -0.06,-1.308 -0.17,-2.613 -0.212,-3.921 -0.303,-1.492 -0.484,-3.21 -0.434,-4.881 -0.093,-0.142 -0.162,-0.305 -0.168,-0.515 -0.023,-0.917 -0.277,-1.782 -0.277,-2.687 -0.124,0.023 -0.241,-0.051 -0.343,-0.381 -0.701,-4.819 -2.425,-8.615 -4.08,-12.48 0.013,0 0.019,0.005 0.03,0.005 -0.065,-0.131 -0.131,-0.262 -0.196,-0.394 -0.116,-0.02 -0.226,-0.044 -0.314,-0.091 -0.188,-2.001 -2.587,-2.972 -1.92,-5.04 -0.915,-0.508 -1.918,-1.382 -2.64,-2.16 -0.791,-0.853 -1.719,-1.774 -2.4,-2.64 -0.154,-0.196 -0.108,-0.556 -0.239,-0.72 -0.596,-0.743 -0.824,-1.25 -1.681,-1.92 -1.386,-3.414 -2.126,-7.474 -3.12,-11.28 -2.882,-3.11 -6.616,-3.943 -11.279,-5.52 -4.217,-1.426 -8.182,-3.245 -12,-5.04 0.327,-3.273 2.512,-4.688 1.92,-8.88 0.979,-0.782 0.717,-2.803 1.68,-3.6 -0.536,-0.104 -0.097,-1.183 -0.24,-1.68 1.688,-3.113 1.499,-8.102 2.88,-11.52 0.175,-0.734 -0.414,-0.706 -0.239,-1.44 1.416,-2.237 0.247,-5.633 1.439,-7.92 0.05,0.454 -0.161,2.371 0.24,1.68 0.068,-3.452 0.771,-6.268 0.72,-9.84 -0.307,-0.013 -0.332,-0.308 -0.72,-0.24 -1.12,2 -1.57,4.67 -2.4,6.96 -0.179,0.739 0.828,0.292 0.48,1.2 -0.108,0.692 -0.85,0.751 -0.72,1.68 0.418,1.635 -0.338,2.561 -0.48,4.08 -0.074,0.787 0.089,1.629 0,2.4 -0.314,2.746 -1.115,4.749 -1.439,6.72 -0.675,4.094 -0.663,8.289 -2.4,11.521 -1.993,-2.408 -4.08,-6.024 -5.52,-10.56 -1.327,-4.179 -2.186,-9.151 -4.32,-11.76 -0.688,-0.84 -1.95,-1.346 -3.12,-2.16 -1.166,-0.811 -2.113,-2.091 -3.36,-2.16 -0.458,-0.025 -2.183,0.445 -2.64,0.72 -0.726,0.436 -0.675,1.678 -1.68,1.68 -1.73,-0.35 -2.719,-1.441 -4.08,-2.16 -1.738,0.696 -2.935,-0.94 -4.08,0.24 0.61,-0.124 0.931,-0.409 0.96,0.48 -4.285,0.654 -8.249,2.711 -12.96,2.16 -1.581,2.648 -4.927,3.015 -7.44,4.8 -0.465,0.331 -0.714,0.879 -1.2,1.2 -1.54,1.017 -3.267,1.978 -5.04,2.4 0.097,1.216 -1.266,0.975 -1.44,1.92 -1.402,0.438 -1.725,1.955 -3.36,2.16 -0.684,2.116 -2.337,3.263 -3.36,5.04 0.13,1.404 -0.752,2.548 -1.2,3.84 -0.484,1.397 -0.517,2.797 -0.96,4.32 -0.351,1.206 -1.257,2.724 -1.68,4.08 -0.486,1.556 -1.396,3.705 -1.2,4.8 0.156,0.87 3.333,3.735 4.32,4.32 1.941,1.151 4.883,1.049 5.76,3.12 -0.898,3.102 -2.151,5.849 -3.6,8.4 1.16,1 2.958,1.362 3.84,2.64 0.75,0.37 2.253,-0.013 2.4,0.96 0.058,1.498 -0.679,2.201 -0.72,3.6 0.553,1.127 1.971,1.39 2.64,2.4 -0.191,0.769 -0.709,1.211 -0.72,2.16 0.649,1.071 1.852,0.992 2.16,2.16 0.245,0.927 -0.247,2.625 -0.48,3.36 -0.265,0.835 -0.922,2.171 -1.44,3.36 -0.46,1.058 -1.112,2.144 -1.68,3.12 -0.829,1.425 -3.679,4.666 -3.84,6 -0.473,3.915 3.585,4.682 4.08,9.12 2.187,1.662 2.512,6.093 4.08,8.88 0.729,1.296 1.787,1.82 1.92,2.88 0.155,1.232 -0.549,2.014 -0.96,3.36 -0.391,1.279 -0.566,2.593 -0.96,3.6 -0.88,2.25 -2.18,4.112 -2.64,6 1.756,0.862 2.564,-2.085 4.08,-1.44 -1.975,3.386 -3.784,6.937 -6.72,9.36 -0.111,1.508 -3.758,4.047 -0.48,4.56 0.812,-0.148 0.305,-1.615 0.72,-2.16 4.252,-4.228 6.591,-10.369 10.8,-14.64 0.341,-2.54 2.396,-4.649 3.6,-7.2 0.992,-2.103 1.567,-4.799 2.16,-6.96 0.292,-1.063 1.614,-2.36 0,-3.12 -1.614,3.266 -1.68,8.08 -4.32,10.32 -0.743,-5.932 1.892,-11.257 2.64,-16.8 0.132,-0.981 -0.098,-1.933 0,-2.88 0.208,-2.011 1.559,-4.107 0.72,-6.24 -1.227,0.546 -1.237,2.278 -1.44,3.36 -0.905,4.819 -1.725,8.844 -2.16,13.44 -2.031,0.93 -1.86,4.06 -3.84,5.04 -1.834,-1.045 -2.371,-3.39 -2.88,-5.76 -1.417,-2.283 -2.123,-5.034 -3.6,-7.44 -0.923,-1.504 -3.108,-3.005 -3.12,-4.8 -0.01,-1.522 1.61,-2.829 2.64,-4.32 1.977,-2.864 2.791,-5.376 4.08,-8.64 2.137,0.467 4.167,-1.468 5.76,-1.44 -0.497,1.821 -0.274,4.031 -0.48,6 -0.163,1.561 -1.393,3.914 0.48,4.56 0.7,-0.616 0.92,-2.131 0.96,-3.12 0.1,-2.497 -0.435,-5.394 0,-8.4 0.744,-0.456 1.577,-0.823 2.4,-1.2 0.122,-0.795 -1.351,-1.041 -0.24,-1.44 1.134,0.226 1.027,1.693 0.96,3.12 0.886,1.521 1.497,2.649 1.2,4.56 -0.258,1.662 -2.946,3.758 -0.96,4.8 1.077,-0.123 0.568,-1.342 0.96,-2.16 0.365,-0.76 1.198,-1.161 1.44,-1.92 0.915,-2.866 -0.784,-4.416 -0.96,-6.48 0.253,-0.707 1.086,-0.834 1.68,-1.2 0.888,-2.115 2.622,-4.822 4.8,-6.96 1.026,-1.007 2.855,-1.816 3.12,-3.12 0.167,-0.824 -0.051,-2.821 -1.2,-3.36 -1.128,0.523 0.031,1.961 -0.24,3.12 -1.382,1.019 -2.208,2.592 -3.84,3.36 -0.889,-1.271 -0.435,-3.885 -2.4,-4.08 -0.572,1.215 -0.065,3.205 0.96,3.6 -1.469,1.17 -1.458,3.821 -2.64,5.28 -3.191,-0.836 -5.98,0.03 -8.88,0.72 -0.901,-1.818 -0.986,-3.8 -1.44,-5.76 -0.448,-1.932 -1.373,-3.655 -1.92,-5.52 -0.278,-0.946 -0.189,-1.98 -0.48,-2.88 -0.866,-2.685 -2.892,-4.595 -3.6,-7.2 -2.394,-1.206 -4.468,-2.731 -7.44,-3.36 -0.588,-1.411 -2.711,-2.338 -2.88,-4.08 -0.136,-1.408 1.001,-2.762 1.68,-4.08 0.308,-4.892 2.715,-7.685 3.6,-12 1.906,-1.454 2.377,-4.343 5.28,-4.8 0.428,-1.492 1.98,-1.859 2.88,-2.88 4.201,-1.72 7.349,-4.491 11.28,-6.48 4.146,-0.495 6.957,-2.323 11.52,-2.4 2.921,-2.395 6.682,0.413 9.36,1.2 1.029,-1.302 1.625,-2.832 3.12,-2.88 2.037,-0.065 5.958,4.379 7.2,5.04 l 0,2.16 c 0.898,1.415 1.429,2.907 1.92,4.56 1.481,4.988 3.229,8.86 5.28,12.72 0.519,0.978 1.133,1.749 1.2,2.64 0.054,0.716 -0.387,1.478 -0.479,2.16 -0.117,0.86 0.107,1.748 0,2.64 -0.438,3.643 -2.239,7.03 -3.36,10.32 0.467,0.493 0.749,1.171 1.68,1.2 1.974,-0.666 1.136,-4.144 1.68,-6.24 0.749,-0.29 1.043,-1.036 1.92,-1.2 2.451,0.712 4.658,2.229 6.479,3.12 3.739,1.829 11.729,2.474 13.681,5.76 0.607,1.024 0.224,2.072 0.479,3.12 0.15,0.616 0.528,1.233 0.72,1.92 0.647,2.316 1.157,4.062 1.92,6 1.618,0.7 1.852,2.514 2.881,3.84 0.844,1.089 2.094,1.767 2.88,2.88 2.013,2.852 3.52,6.373 5.04,9.84 1.557,3.551 2.771,7.475 3.359,11.76 l 0.24,0.72 c 0.933,4.882 1.285,10.57 0.48,14.88 -0.5,2.676 0.116,5.321 -0.24,7.68 -0.275,1.821 -0.877,4.318 -0.96,6.24 -0.146,3.376 1.521,4.67 1.2,7.92 1.416,5.005 1.54,10.438 1.68,16.08 0.012,0.471 0.43,0.975 0.479,1.44 0.432,3.99 -0.436,8.45 0,12.48 0.106,0.98 0.637,1.898 0.721,2.88 0.093,1.086 -0.279,2.269 -0.24,3.36 0.025,0.702 0.448,1.448 0.479,2.16 0.071,1.587 -0.062,3.227 0,4.8 0.158,3.999 0.194,8.494 -0.239,11.28 1.169,2.88 -0.506,6.843 0.72,10.08 -0.815,2.805 0.116,5.887 0.24,8.88 0.037,0.897 -0.312,1.951 -0.24,2.88 0.062,0.82 0.6,1.565 0.72,2.4 0.507,3.515 -0.104,7.255 0.24,11.04 0.519,5.711 1.316,11.525 1.92,17.76 -1.541,5.454 -0.987,11.232 -0.96,16.8 0.007,1.446 -0.411,2.961 -0.24,4.32 0.073,0.581 0.445,1.055 0.48,1.68 0.041,0.731 -0.235,1.446 -0.24,2.16 -0.036,5.521 1.248,11.354 1.68,16.8 0.028,0.349 -0.247,0.798 -0.239,1.2 0.035,1.84 0.636,4.061 0.479,5.761 -0.07,0.767 -0.463,1.411 -0.479,2.159 -0.016,0.686 0.434,1.219 0.479,1.92 0.055,0.833 -0.277,1.743 -0.24,2.641 0.055,1.306 0.49,2.555 0.721,3.84 0.456,2.549 0.416,5.739 2.64,6.96 1.616,-3.237 -1.558,-6.993 -1.2,-10.32 2.164,1.308 3.984,3.405 6,5.04 2.044,1.658 4.283,3.241 6.721,3.84 -0.077,0.557 0.038,0.922 0.239,1.2 2.449,1.134 4.559,2.401 6.48,3.84 0.731,0.548 1.744,0.92 2.399,1.44 2.355,1.872 3.3,3.646 3.36,6.24 0.164,7.048 -2.174,12.785 -1.68,19.439 -0.481,0.104 -0.39,0.864 -0.721,1.2 -1.011,1.029 -3.348,1.06 -4.319,1.44 -0.662,0.259 -0.919,0.692 -1.44,0.72 -1.368,0.07 -1.839,-0.604 -3.12,-0.96 -1.462,-0.407 -2.955,-0.097 -4.08,-0.96 -1.467,0.847 -3.266,0.041 -5.279,0.479 -1.307,-4.294 -4.081,-7.118 -10.08,-6.72 -6.078,3.556 -10.308,9.104 -16.561,12.48 -0.877,0.474 -1.944,0.502 -2.64,1.439 6.547,-0.413 9.322,-4.598 13.2,-7.68 0.421,0.89 0.898,0.062 1.68,0 0.67,-0.645 0.104,-1.275 0.48,-1.92 1.723,-0.438 2.261,-2.06 3.84,-2.641 0.954,0.405 2.531,0.188 3.84,0.24 1.672,1.849 3.348,3.693 4.56,6 1.739,0.933 4.438,0.202 7.2,0.48 1.393,0.14 3.235,0.562 4.32,0.96 1.046,0.384 1.352,0.941 2.16,0.96 0.542,0.012 1.37,-0.596 2.64,-0.96 0.697,-0.2 1.325,0 1.92,-0.24 0.294,-0.118 0.501,-0.699 0.96,-0.96 0.522,-0.297 1.093,-0.214 1.44,-0.48 1.869,-1.434 2.419,-4.15 2.64,-7.439 0.218,-3.243 0.128,-6.866 0.48,-9.84 0.33,-2.831 1.088,-6.116 0.715,-8.398 z M 33.84,109.93 c 0.279,-0.039 0.427,0.053 0.48,0.24 0.496,1.455 -0.523,4.519 0.24,6.24 -1.26,2.5 -2.022,5.498 -5.52,5.76 0.001,-1.699 1.24,-3.455 1.92,-5.52 0.846,-2.57 1.048,-5.194 2.88,-6.72 z M 24,54.73 c 1.418,1.931 1.864,4.402 2.64,6.96 0.049,0.164 0.156,0.302 0.24,0.48 1.925,4.127 1.663,9.378 4.8,12.24 1.75,0.217 2.32,-1.312 3.6,-0.24 1.087,-0.108 0.867,-0.81 1.44,-0.96 0.46,1.416 -1.588,1.862 -2.64,2.4 -1.188,0.608 -2.506,1.448 -3.84,1.44 -0.677,-1.643 -1.179,-3.46 -2.64,-4.32 -0.218,-1.178 1.006,-0.914 0.96,-1.92 -0.662,-1.338 -2.466,-1.534 -3.36,-2.64 0.23,-0.73 0.485,-1.436 0.72,-2.16 -0.861,-2.659 -3.582,-3.458 -5.52,-5.04 0.664,-2.376 2.01,-4.07 2.88,-6.24 l 0.72,0 0,0 z"
           style="fill-rule:evenodd" />
        <path
           inkscape:connector-curvature="0"
           id="path3644"
           d="m 105.36,189.61 c 0.204,-0.045 0.227,0.094 0.24,0.239 0.127,4.302 -0.824,8.798 -0.48,13.2 0.201,2.568 0.681,5.092 0.96,7.92 0.369,3.733 0.267,10.05 0.48,14.641 0.432,9.283 -0.494,17.741 0.479,25.68 0.249,2.023 0.356,4.071 0.721,6 0.92,4.876 1.139,9.764 2.16,14.64 0.283,1.353 0.683,2.728 0.96,4.08 0.274,1.344 0.423,2.794 0.72,4.08 0.193,0.838 0.786,1.754 0.96,2.641 0.258,1.313 0.127,2.918 0.479,4.079 0.634,2.085 1.565,4.401 2.4,6.721 0.226,0.626 0.212,1.118 0.48,1.68 3.269,6.858 7.549,13.486 12,19.68 3.211,4.47 7.664,9.455 12.239,12.96 0.659,0.506 2.205,0.818 1.92,2.16 -1.587,0.105 -3.281,-0.657 -4.56,-1.439 -1.115,-0.683 -2.303,-1.903 -3.36,-2.88 -0.293,-0.271 -0.714,-0.399 -0.96,-0.721 -0.433,-0.564 -0.82,-0.764 -1.439,-1.439 -0.222,-0.242 -0.257,-0.709 -0.48,-0.96 -1.493,-1.681 -2.792,-3.227 -4.32,-5.04 -1.785,-2.12 -4.086,-5.146 -5.52,-7.92 -0.2,-0.388 0.004,-0.789 -0.24,-1.2 -0.723,-1.216 -1.961,-2.171 -2.64,-3.36 -0.362,-0.634 -0.601,-1.315 -0.96,-1.92 -0.978,-1.643 -1.552,-3.201 -2.641,-5.52 -1.428,-3.041 -3.23,-7.116 -4.079,-11.04 -0.201,-0.927 -0.045,-1.946 -0.24,-2.88 -0.267,-1.271 -0.843,-2.48 -1.2,-3.841 -0.333,-1.265 -0.993,-2.631 -1.2,-3.84 -0.217,-1.268 -0.041,-2.758 -0.24,-4.08 -0.188,-1.258 -0.254,-2.405 -0.479,-3.6 -0.596,-3.151 -1.622,-6.251 -1.92,-9.36 -0.093,-0.968 0.149,-1.918 0,-2.88 -0.162,-1.043 -0.787,-2.007 -0.96,-3.12 -0.212,-1.358 0.256,-2.869 0.24,-4.319 -0.064,-5.627 0.401,-11.838 0.239,-18 -0.043,-1.639 -0.67,-3.202 -0.72,-4.801 -0.039,-1.233 0.317,-2.804 0.24,-4.56 -0.051,-1.147 -0.545,-2.479 -0.48,-3.6 0.02,-0.337 0.481,-0.7 0.48,-0.721 -0.05,-0.734 -0.418,-1.378 -0.48,-2.16 -0.458,-5.726 -0.508,-8.648 -0.239,-15.6 0.147,-3.812 -0.025,-7.984 1.44,-9.6 z"
           style="fill-rule:evenodd" />
      </g>
      <path
         inkscape:connector-curvature="0"
         style="fill:#8b4513;fill-opacity:1;fill-rule:nonzero;stroke:none"
         d="m 22.071149,159.6187 c 1.350006,8.6702 3.448693,23.48655 1.995163,23.15599 0,0 -0.952143,-10.10101 -0.906892,-10.33858 0.241838,-1.26965 -1.088271,-12.99879 -1.088271,-12.81741 z"
         id="path3678"
         sodipodi:nodetypes="ccsc" />
      <path
         inkscape:connector-curvature="0"
         sodipodi:nodetypes="ccsc"
         id="path3680"
         d="m 36.919989,140.30416 c -0.925962,3.48622 -2.586719,9.40932 -3.079066,9.04451 0,0 1.312345,-3.9589 1.368668,-4.04082 0.301009,-0.43782 1.740398,-5.07195 1.710398,-5.00369 z"
         style="fill:#8b4513;fill-opacity:1;fill-rule:nonzero;stroke:none" />
      <path
         inkscape:connector-curvature="0"
         style="fill:#8b4513;fill-opacity:1;fill-rule:nonzero;stroke:none"
         d="m 23.331216,120.17048 c -0.97269,7.02876 -2.796224,18.99158 -3.844944,18.39726 0,0 1.613859,-8.04424 1.704204,-8.21768 0.482825,-0.92697 2.182962,-10.32003 2.14074,-10.17958 z"
         id="path3682"
         sodipodi:nodetypes="ccsc" />
      <path
         inkscape:connector-curvature="0"
         style="opacity:0.1;fill:#fffafa;fill-opacity:1;fill-rule:nonzero;stroke:none"
         d="m 21.61929,89.677399 c -0.894287,0.07233 -1.057723,0.709011 -1.78125,0.625 -1.189331,-0.138095 -2.382515,-0.152089 -3.5625,-0.0625 5.769076,3.253173 10.252822,7.543684 9.90625,15.625001 18.72901,11.4955 14.156197,66.65333 20.78125,100.84375 l 6,-9.03125 c -0.0032,-0.009 0.0032,-0.0221 0,-0.0312 -3.565056,-10.31799 -7.653403,-21.42742 -8.34375,-33.1875 -0.57737,-9.83551 -0.173436,-20.67766 -1.53125,-29.53125 -0.985141,-6.42357 1.02973,-8.61502 -0.65625,-14.65625 -1.283454,-4.59888 -4.80483,-8.94883 -6.5625,-13.21875 -1.083684,-2.63261 -7.814661,-2.15667 -8.4375,-3.59375 -0.333867,-0.77033 0.631294,-2.25978 0.53125,-3.1875 -0.151056,-1.400785 -1.33141,-2.267314 -1.9375,-3.375001 -1.219361,-2.228484 -1.494118,-4.817592 -3.21875,-7.03125 -0.508436,-0.146085 -0.889404,-0.21161 -1.1875,-0.1875 z"
         id="path3691" />
    </g>
  </g>
</svg>
