<?xml version="1.0" encoding="UTF-8" standalone="no"?>
<!-- Created with Inkscape (http://www.inkscape.org/) -->

<svg
   xmlns:dc="http://purl.org/dc/elements/1.1/"
   xmlns:cc="http://creativecommons.org/ns#"
   xmlns:rdf="http://www.w3.org/1999/02/22-rdf-syntax-ns#"
   xmlns:svg="http://www.w3.org/2000/svg"
   xmlns="http://www.w3.org/2000/svg"
   xmlns:sodipodi="http://sodipodi.sourceforge.net/DTD/sodipodi-0.dtd"
   xmlns:inkscape="http://www.inkscape.org/namespaces/inkscape"
   width="126.74901"
   height="192.34337"
   id="svg78401"
   version="1.1"
   inkscape:version="0.48.1 r9760"
   sodipodi:docname="New document 91">
  <defs
     id="defs78403" />
  <sodipodi:namedview
     id="base"
     pagecolor="#ffffff"
     bordercolor="#666666"
     borderopacity="1.0"
     inkscape:pageopacity="0.0"
     inkscape:pageshadow="2"
     inkscape:zoom="2.8"
     inkscape:cx="5.9654648"
     inkscape:cy="95.735931"
     inkscape:document-units="px"
     inkscape:current-layer="layer1"
     showgrid="false"
     fit-margin-top="0"
     fit-margin-left="0"
     fit-margin-right="0"
     fit-margin-bottom="0"
     inkscape:window-width="1912"
     inkscape:window-height="1049"
     inkscape:window-x="0"
     inkscape:window-y="0"
     inkscape:window-maximized="1" />
  <metadata
     id="metadata78406">
    <rdf:RDF>
      <cc:Work
         rdf:about="">
        <dc:format>image/svg+xml</dc:format>
        <dc:type
           rdf:resource="http://purl.org/dc/dcmitype/StillImage" />
        <dc:title></dc:title>
      </cc:Work>
    </rdf:RDF>
  </metadata>
  <g
     inkscape:label="Layer 1"
     inkscape:groupmode="layer"
     id="layer1"
     transform="translate(1.2565075e-6,-860.01882)">
    <g
       id="g24361"
       transform="matrix(1.5087179,0,0,1.5087179,-259.33495,693.1131)">
      <path
         inkscape:connector-curvature="0"
         sodipodi:nodetypes="cccccccccccccc"
         transform="translate(107.68179,77.083649)"
         id="path24272"
         d="m 93.949468,137.30355 -0.797872,-7.18085 8.111704,-17.55319 c 2.91213,1.45554 4.5656,5.00887 6.8484,7.5133 l -0.33244,-11.2367 11.17021,9.30851 c -2.00162,6.04672 -0.60148,11.24301 0.86436,16.42287 l -8.24468,0 0.39894,-3.78989 -3.19149,-10.43883 -3.32447,3.52393 -4.72075,4.78724 -1.396274,6.31649 -5.385638,2.32712 z"
         style="fill:#f5d9b3;fill-opacity:1;fill-rule:nonzero;stroke:none" />
      <path
         inkscape:connector-curvature="0"
         transform="translate(107.68179,77.083649)"
         id="path24274"
         d="m 95.611702,120.1493 -1.06383,-0.19947 -2.393617,-3.65691 1.130319,-6.18352 1.196809,-4.52127 3.257979,-4.58777 3.058508,2.32713 -1.063827,1.59574 -3.19149,3.92288 0.797873,0.73138 -0.664894,7.38032 -0.997341,0.93085 -0.531914,-0.5984 -0.598405,-0.0665 1.662234,2.65957"
         style="fill:#f5d9b3;fill-opacity:1;fill-rule:nonzero;stroke:none" />
      <path
         inkscape:connector-curvature="0"
         id="path24138"
         d="m 209.34627,113.26752 c 0.083,-0.29 0.639,-0.194 0.72,0 0.218,0.519 -0.879,0.556 -0.72,0 z"
         clip-rule="evenodd"
         style="fill-rule:evenodd" />
      <path
         inkscape:connector-curvature="0"
         id="path24140"
         d="m 206.22627,116.86752 c 0.957,1.129 -1.077,1.314 -0.48,2.88 -2.4,-0.844 -2.459,2.201 -4.8,2.16 1.154,-2.286 3.814,-3.066 5.28,-5.04 z"
         clip-rule="evenodd"
         style="fill-rule:evenodd" />
      <path
         inkscape:connector-curvature="0"
         id="path24142"
         d="m 216.06627,126.22752 c 0.627,-0.068 1.032,0.087 0.96,0.72 -0.459,-0.101 -1.033,-0.087 -0.96,-0.72 z"
         clip-rule="evenodd"
         style="fill-rule:evenodd" />
      <path
         inkscape:connector-curvature="0"
         id="path24144"
         d="m 211.26627,126.46752 c 0.679,-0.198 0.622,0.338 1.2,0.24 0.115,0.755 -0.342,0.938 -0.48,1.44 -0.899,0.095 -1.238,-1.092 -0.72,-1.68 z"
         clip-rule="evenodd"
         style="fill-rule:evenodd" />
      <path
         inkscape:connector-curvature="0"
         id="path24146"
         d="m 210.06627,129.58752 c 0.13,1.459 3.291,2.819 0.96,3.84 0.186,-2.347 -1.849,-2.472 -3.12,-3.36 0.085,-0.796 1.383,-0.377 2.16,-0.48 z"
         clip-rule="evenodd"
         style="fill-rule:evenodd" />
      <path
         inkscape:connector-curvature="0"
         id="path24148"
         d="m 209.34627,131.50752 c -0.192,0.833 0.357,0.923 0.24,1.68 -1.118,-0.445 -0.867,1.524 -0.24,1.44 -0.526,-0.057 -1.894,0.155 -2.64,-0.48 0.019,-0.861 1.569,-0.191 1.92,-0.72 -0.763,-0.299 -2.027,-0.417 -3.36,-0.72 0.682,-1.591 2.677,-0.38 4.08,-1.2 z"
         clip-rule="evenodd"
         style="fill-rule:evenodd" />
      <path
         inkscape:connector-curvature="0"
         id="path24150"
         d="m 218.94627,133.42752 c 0.989,0.131 1.488,0.751 2.16,1.2 -0.513,1.418 -2.316,0.176 -2.16,-1.2 z"
         clip-rule="evenodd"
         style="fill-rule:evenodd" />
      <path
         inkscape:connector-curvature="0"
         id="path24152"
         d="m 215.58627,141.58752 c 0.612,1.407 -2.059,3.402 -3.12,2.4 0.49,-1.35 1.766,-1.914 3.12,-2.4 z"
         clip-rule="evenodd"
         style="fill-rule:evenodd" />
      <path
         inkscape:connector-curvature="0"
         id="path24154"
         d="m 213.18627,141.82752 c -0.105,0.295 -0.307,0.493 -0.72,0.48 -0.112,-0.512 0.343,-0.457 0.72,-0.48 z"
         clip-rule="evenodd"
         style="fill-rule:evenodd" />
      <path
         inkscape:connector-curvature="0"
         id="path24156"
         d="m 210.78627,146.62752 c 0.279,-0.039 0.427,0.053 0.48,0.24 0.669,2.813 -0.944,6.053 0,9.36 -3.168,-0.349 -0.786,-6.916 -0.48,-9.6 z"
         clip-rule="evenodd"
         style="fill-rule:evenodd" />
      <path
         inkscape:connector-curvature="0"
         id="path24158"
         d="m 216.30627,157.42752 c -0.613,0.747 -1.343,1.376 -2.64,1.44 -0.476,-0.454 -0.117,-1.134 0,-1.68 1.153,0.08 2.012,-0.617 2.64,0.24 z"
         clip-rule="evenodd"
         style="fill-rule:evenodd" />
      <path
         inkscape:connector-curvature="0"
         id="path24160"
         d="m 228.06627,161.50752 c 0.24,0 0.479,0 0.72,0 0.184,0.566 0.474,1.659 0,2.16 -0.651,-0.309 -0.728,-1.193 -0.72,-2.16 z"
         clip-rule="evenodd"
         style="fill-rule:evenodd" />
      <path
         inkscape:connector-curvature="0"
         id="path24162"
         d="m 229.02627,166.54752 c 0.388,-0.067 0.413,0.227 0.72,0.24 -0.154,4.725 -1.077,8.683 -2.399,12.24 -0.112,0.848 0.392,2.312 -0.721,2.16 -0.122,-4.85 1.927,-9.587 2.4,-14.64 z"
         clip-rule="evenodd"
         style="fill-rule:evenodd" />
      <path
         inkscape:connector-curvature="0"
         id="path24164"
         d="m 202.38627,222.94752 c 0.023,0.895 0.937,0.016 0.96,0.479 0.644,1.517 0.841,3.479 0.96,5.521 -1.526,-0.634 -0.241,-4.079 -1.44,-5.04 -1.155,2.134 1.27,9.469 -1.68,10.56 0.758,-0.77 -0.245,-0.574 -0.24,-1.439 0.004,-0.812 0.562,-1.407 0.72,-2.16 0.737,-3.52 -0.112,-8.109 0,-11.76 0.017,-0.55 -0.163,-1.445 -0.24,-2.16 -0.077,-0.71 0.082,-1.45 0,-1.92 -0.096,-0.558 -0.467,-0.671 -0.48,-1.2 -0.012,-0.507 0.282,-1.147 0.24,-1.68 -0.139,-1.771 -1.18,-3.314 -0.24,-5.04 1.092,1.841 0.917,4.476 0.96,7.199 0.048,2.978 1.109,6.128 0.48,8.64 z"
         clip-rule="evenodd"
         style="fill-rule:evenodd" />
      <path
         inkscape:connector-curvature="0"
         id="path24166"
         d="m 221.58627,208.30752 c 1.387,0.332 2.035,4.146 0.48,4.561 -0.392,-1.514 -0.471,-3.256 -0.48,-4.561 z"
         clip-rule="evenodd"
         style="fill-rule:evenodd" />
      <path
         inkscape:connector-curvature="0"
         id="path24168"
         d="m 224.46727,209.74752 c 0.833,0.307 1.702,1.957 0.72,2.64 -0.842,-0.279 -0.526,-1.715 -0.72,-2.64 z"
         clip-rule="evenodd"
         style="fill-rule:evenodd" />
      <path
         inkscape:connector-curvature="0"
         id="path24170"
         d="m 196.62627,210.94752 c -0.313,0.995 0.822,2.67 0.24,3.84 -1.268,-0.412 -0.982,-2.378 -1.44,-3.6 0.279,-0.202 0.644,-0.317 1.2,-0.24 z"
         clip-rule="evenodd"
         style="fill-rule:evenodd" />
      <path
         inkscape:connector-curvature="0"
         id="path24172"
         d="m 225.90627,216.22752 c 0.388,-0.067 0.413,0.228 0.72,0.24 0.599,2.442 2.645,3.437 3.12,6 -1.287,-1.927 -3.773,-3.886 -3.84,-6.24 z"
         clip-rule="evenodd"
         style="fill-rule:evenodd" />
      <path
         inkscape:connector-curvature="0"
         id="path24174"
         d="m 182.22627,219.82752 c 0.96,-0.16 0.965,0.635 0.96,1.439 -0.768,-0.031 -1.056,-0.543 -0.96,-1.439 z"
         clip-rule="evenodd"
         style="fill-rule:evenodd" />
      <path
         inkscape:connector-curvature="0"
         id="path24176"
         d="m 185.82627,220.54752 c 1.929,1.684 3.497,4.967 3.6,7.68 -1.646,-0.114 -1.163,-2.357 -1.68,-3.6 -1.258,0.022 -2.432,0.129 -2.64,1.2 -0.988,-0.312 -0.051,-1.665 0.48,-1.92 -0.077,-1.092 -0.64,-2.701 0.24,-3.36 z"
         clip-rule="evenodd"
         style="fill-rule:evenodd" />
      <path
         inkscape:connector-curvature="0"
         id="path24178"
         d="m 241.98627,220.78752 c 0.842,0.278 0.525,1.715 0.72,2.64 0.219,0.581 0.709,-0.544 1.44,-0.239 0.7,0.36 -1.25,2.248 0.479,2.159 -0.328,1.513 -0.883,2.797 -1.439,4.08 -1.295,-0.678 0.934,-4.032 -0.48,-5.52 -1.034,-0.314 -0.297,1.143 -1.2,0.96 0.13,-1.39 -0.365,-3.405 0.48,-4.08 z"
         clip-rule="evenodd"
         style="fill-rule:evenodd" />
      <path
         inkscape:connector-curvature="0"
         id="path24180"
         d="m 196.62627,223.42752 c 0.963,0.166 1.844,1.393 1.44,2.16 -1.019,-0.181 -1.07,-1.33 -1.44,-2.16 z"
         clip-rule="evenodd"
         style="fill-rule:evenodd" />
      <path
         inkscape:connector-curvature="0"
         id="path24182"
         d="m 216.30627,223.66752 c 0.364,0.596 0.463,1.457 0.48,2.4 -0.994,0.034 -0.25,-1.669 -0.48,-2.4 z"
         clip-rule="evenodd"
         style="fill-rule:evenodd" />
      <path
         inkscape:connector-curvature="0"
         id="path24184"
         d="m 217.26627,225.82752 c 0.597,0.036 0.07,0.812 0,0.96 -0.597,-0.036 -0.07,-0.812 0,-0.96 z"
         clip-rule="evenodd"
         style="fill-rule:evenodd" />
      <path
         inkscape:connector-curvature="0"
         id="path24186"
         d="m 237.66627,225.82752 c 1.319,0.566 -0.632,1.914 0.48,2.399 -0.17,0.871 -1.053,1.027 -0.72,2.4 0.319,0.4 1.066,0.373 1.439,0.72 -0.031,0.895 0.948,1.572 0.48,2.16 -1.11,-0.01 -0.771,-1.469 -1.44,-1.92 -0.319,0.24 -0.725,0.396 -0.96,0.72 -0.68,-1.53 0.239,-4.261 0.721,-6.479 z"
         clip-rule="evenodd"
         style="fill-rule:evenodd" />
      <path
         inkscape:connector-curvature="0"
         id="path24188"
         d="m 233.10627,237.34752 c 0.026,0.588 0.793,0.052 0.72,-0.239 0.621,0.406 -0.371,1.209 -1.2,0.96 0,-0.24 0,-0.48 0,-0.721 -3.197,0.937 -2.434,-4.109 -3.84,-5.76 -0.753,-0.118 -0.634,0.827 -1.2,0.24 -0.474,-2.006 -1.572,-3.388 -2.399,-5.04 1.55,0.45 1.787,2.213 2.399,3.6 2.947,0.333 2.48,4.08 3.841,6 1.072,-0.207 1.828,-0.731 2.64,-1.199 0.244,-1.036 0.207,-2.353 1.439,-2.4 0.91,1.946 -1.348,3.031 -0.96,4.56 -0.236,-0.645 -1.03,-0.443 -1.44,-0.001 z"
         clip-rule="evenodd"
         style="fill-rule:evenodd" />
      <path
         inkscape:connector-curvature="0"
         id="path24190"
         d="m 196.86627,231.10752 c -1.538,-0.302 -1.447,-2.233 -2.16,-3.36 1.159,-0.219 1.956,1.841 2.16,3.36 z"
         clip-rule="evenodd"
         style="fill-rule:evenodd" />
      <path
         inkscape:connector-curvature="0"
         id="path24192"
         d="m 240.54627,231.10752 c -0.962,-0.718 -1.07,-2.29 -1.92,-3.12 1.278,-0.654 2.072,2.359 1.92,3.12 z"
         clip-rule="evenodd"
         style="fill-rule:evenodd" />
      <path
         inkscape:connector-curvature="0"
         id="path24194"
         d="m 197.82627,228.22752 c 0.706,0.175 1.012,0.749 0.96,1.681 -0.983,0.119 -1.353,-1.168 -0.96,-1.681 z"
         clip-rule="evenodd"
         style="fill-rule:evenodd" />
      <path
         inkscape:connector-curvature="0"
         id="path24196"
         d="m 227.34727,233.98752 c -2.289,-0.751 -1.565,-4.516 -4.561,-4.561 0.173,0.628 0.783,0.817 0.96,1.44 -0.206,1.007 -1.598,0.751 -2.16,0.24 0.969,-0.813 0.205,-1.312 0.48,-2.4 3.221,-0.609 4.112,3.052 5.281,5.281 z"
         clip-rule="evenodd"
         style="fill-rule:evenodd" />
      <path
         inkscape:connector-curvature="0"
         id="path24198"
         d="m 219.18627,228.70752 c 0.315,0.085 0.377,0.423 0.72,0.48 -0.681,0.759 -0.837,2.043 -2.4,1.92 0.07,-1.291 1.187,-1.533 1.68,-2.4 z"
         clip-rule="evenodd"
         style="fill-rule:evenodd" />
      <path
         inkscape:connector-curvature="0"
         id="path24200"
         d="m 212.46627,228.94752 c 0.855,-0.055 1.255,0.345 1.2,1.2 1.026,0.065 1.223,-0.697 1.68,-1.2 0.906,1.209 -0.613,3.547 -1.44,4.56 -1.017,-0.581 0.514,-1.315 -0.48,-1.92 -0.586,0.134 -0.511,0.929 -1.44,0.72 -0.144,-1.797 -0.26,-2.003 0.48,-3.36 z"
         clip-rule="evenodd"
         style="fill-rule:evenodd" />
      <path
         inkscape:connector-curvature="0"
         id="path24202"
         d="m 212.46627,139.66752 c 0.42,1.541 -1.288,0.952 -1.44,1.92 -0.438,0.556 0.668,1.022 0,1.92 -1.217,-0.863 -1.219,-2.94 -2.88,-3.36 0.166,-1.206 -0.964,-1.116 -0.72,-2.4 -1.587,0.632 -3.06,-2.155 -3.84,-3.84 -0.833,-0.033 -0.384,1.216 -1.2,1.2 -1.687,-1.273 -2.088,-3.832 -4.8,-4.08 0.248,-1.832 1.912,-2.248 2.4,-3.84 0.073,-1.431 -1.252,-3.085 -1.44,-5.04 -0.439,-4.579 0.57,-10.749 6.24,-8.64 1.545,-0.855 2.803,-1.998 4.32,-2.88 2.147,1.052 3.991,2.409 5.76,3.84 0.068,3.245 3.941,4.128 5.521,6 1.039,1.978 1.97,5.753 0,7.44 -1.354,0.085 -1.768,1.112 -2.88,1.44 0.404,1.516 2.409,1.431 2.64,3.12 -1.341,0.697 -1.566,-1.322 -3.12,-0.48 0.098,1.822 1.725,2.116 2.16,3.6 -1.644,0.552 -3.525,-0.596 -4.08,-1.92 -1.764,1.418 0.388,3.092 0.96,4.32 1.183,0.097 1.577,0.983 2.88,0.96 0.672,1.501 2.674,1.238 3.84,2.16 0.775,0.613 0.537,1.729 1.681,1.92 0.457,1.926 1.711,3.197 2.399,5.04 0.729,1.953 0.636,4.038 1.2,6 0.53,1.846 2.083,3.453 2.4,5.28 0.091,0.526 -0.151,1.169 0,1.68 0.478,1.618 2.117,2.903 2.159,4.56 0.031,1.225 -1.132,2.143 -1.439,3.36 -0.383,1.514 -0.134,4.213 -0.48,6.24 -0.22,1.285 -0.778,2.238 -0.72,3.12 0.146,2.181 2.851,5.491 2.4,8.881 -0.115,0.86 -0.919,1.557 -1.2,2.64 -1.308,0.048 -2.255,0.639 -2.641,2.16 -0.563,0.076 -0.9,0.379 -1.68,0.239 4.638,4.003 9.682,7.6 14.16,11.761 1.003,-0.203 1.134,0.466 1.92,0.479 1.728,2.433 3.912,4.408 6.72,5.76 0.946,1.854 2.852,2.749 4.32,4.08 0.739,0.168 0.461,0.168 1.2,0 0.655,0.778 1.1,2.675 0.24,3.601 -0.279,-0.039 -0.428,0.053 -0.48,0.24 -3.354,-0.447 -4.755,-3.404 -6.72,-5.521 -0.726,-0.154 -1.385,-0.375 -1.44,-1.2 -2.024,-0.935 -3.513,-2.407 -5.04,-3.84 -0.565,0.006 -0.706,-0.413 -1.439,-0.24 -2.309,-3.451 -6.43,-5.091 -9.12,-8.159 -0.825,0.104 -1.346,-0.096 -1.92,-0.24 -0.009,-1.992 -1.809,-2.192 -2.4,-3.601 -1.42,6.147 -0.636,16.907 4.32,21.12 0.835,-1.005 0.478,-3.202 2.16,-3.359 -0.285,2.56 -0.879,6.768 0.479,8.88 0.9,-1.021 0.715,-3.126 1.92,-3.84 0.167,0.952 -0.418,2.658 0.48,2.88 1.078,-1.082 0.239,-4.08 2.399,-4.08 -0.044,1.478 -1.31,2.721 -1.199,5.279 0.055,1.279 1.341,2.483 0,3.12 -1.059,0.339 -0.004,-1.436 -0.721,-1.439 -0.833,0.366 -1.54,0.859 -2.16,1.439 0.269,2.053 1.525,3.115 1.681,5.28 -1.525,-1.003 -1.569,-2.371 -2.16,-4.32 -0.203,-0.668 -0.739,-1.088 -0.96,-1.68 -0.858,-2.3 -0.859,-4.432 -1.92,-6.479 -0.35,-0.675 -0.911,-1.473 -1.44,-2.16 -0.522,-0.68 -1.421,-1.137 -1.92,-1.92 -0.832,-1.307 -1.12,-3.816 -1.68,-5.761 -0.906,-3.148 -2.084,-8.754 -0.24,-12.96 -0.659,-2.061 -4.022,-1.417 -5.04,-3.12 -0.481,-2.958 -2.876,-4.004 -4.8,-5.52 -0.651,1.262 -0.753,4.212 -0.48,6.24 0.24,1.78 1.564,4.647 2.16,6.479 0.596,1.831 0.494,3.814 0.96,5.521 0.245,0.896 0.963,1.548 1.2,2.399 0.514,1.841 -0.052,4.119 1.2,5.521 0.058,0.422 0.413,0.547 0.96,0.479 -0.531,0.752 0.476,0.77 0.72,1.2 0.721,1.271 1.018,3.094 2.641,3.601 2.112,5.728 7.171,9.788 7.439,16.56 -1.485,-1.074 -1.169,-4.484 -2.88,-5.76 0.029,-1.069 -0.592,-1.488 -0.72,-2.4 -0.87,-0.229 -0.244,1.036 -0.721,1.2 -0.934,-0.426 -0.845,-1.875 -2.159,-1.92 -0.238,-1.856 -0.928,-3.53 -0.48,-4.8 -0.646,-0.166 -0.464,0.496 -0.72,0.72 -0.676,-0.242 0.066,-1.02 0,-1.44 -2.411,-2.709 -4.199,-6.04 -6.24,-9.119 -0.092,-1.13 0.218,-2.469 -0.24,-3.36 -1.54,-3.005 -1.477,-6.472 -2.64,-9.601 -2.036,1.805 -2.938,4.743 -5.52,6 -1.422,2.353 -3.312,4.771 -2.64,9.601 0.059,0.424 0.432,0.963 0.48,1.439 0.304,3.042 -0.293,6.412 1.44,8.4 0.726,-0.664 -0.572,-1.334 -0.48,-2.16 0.424,-0.936 1.139,-1.581 1.92,-2.16 0,0.721 0,1.44 0,2.16 1.736,0.216 0.515,-2.524 1.44,-3.12 1.167,0.893 -0.185,2.87 0.24,4.561 2.015,-1.15 0.264,-4.438 1.68,-5.76 0.578,-0.099 0.521,0.438 1.2,0.239 0.361,1.128 0.155,2.274 0.24,4.08 -0.147,0.333 -0.924,0.036 -0.96,0.48 -0.159,1.119 0.378,1.542 0.48,2.399 -0.792,0.088 -1.052,0.709 -1.44,1.2 -1.293,-0.668 -1.31,-2.339 -1.68,-3.36 -0.272,1.46 -0.11,2.797 -0.96,4.08 -0.676,-0.242 0.066,-1.019 0,-1.439 -0.96,0.835 -0.468,1.878 -1.44,2.88 -0.125,1.324 0.648,2.209 0.24,3.12 -1.58,-0.02 -0.103,-3.098 -0.96,-3.84 -0.657,0.542 0.158,2.557 -0.48,3.12 -0.578,0.098 -0.521,-0.438 -1.2,-0.24 -0.476,-0.454 -0.117,-1.134 0,-1.681 -1.846,0.111 -0.479,1.945 -1.68,2.641 -1.912,-1.312 1.364,-3.719 0.48,-5.521 0.057,-0.743 0.668,-0.932 0.96,-1.439 0.309,-6.967 -1.673,-14.686 0.96,-19.92 0.972,-0.868 2.021,-1.66 2.64,-2.88 -0.03,-0.53 -1.018,-0.103 -1.44,-0.24 0.532,-3.602 1.655,-8.003 -0.24,-11.04 -3.294,4.174 -4.542,11.58 -6.96,15.84 0.377,0.854 1.021,0.048 1.92,0.48 0.189,2.145 -0.684,4.388 -2.64,3.6 0.554,-1.046 1.598,-1.603 1.92,-2.88 -0.279,0.039 -0.427,-0.053 -0.48,-0.24 -0.592,-1.034 -1.227,1.136 -1.68,0.24 -0.61,-0.499 0.042,-1.461 0.24,-2.16 0.695,-2.464 2.178,-4.669 2.88,-6.96 -0.238,-0.508 -1.462,0.466 -1.44,-0.72 0.564,-0.798 0.846,-0.629 1.68,-0.24 0.64,-1.894 2.047,-4.954 3.6,-6.72 0.247,-0.807 -0.746,-0.374 -1.2,-0.48 -0.118,-3.229 3.795,-6.211 1.44,-8.64 -1.726,1.074 -2.061,3.539 -3.6,4.8 -0.158,0.878 0.52,0.921 0.48,1.68 -0.566,1.439 0.1,2.928 -0.96,4.08 0.521,1.164 0.395,3.534 -0.96,3.601 -0.586,0.158 -0.877,-1.166 -1.2,-0.48 -0.364,-1.255 -0.105,-2.77 0.24,-4.32 0.784,0.372 -0.004,2.905 0.72,4.08 0.893,0.253 0.471,-0.809 0.96,-0.96 -0.206,-2.578 0.223,-4.057 0.24,-6.479 0.108,-0.668 -1.308,0.188 -1.2,-0.48 -0.262,-2.13 1.213,-4.525 2.64,-5.76 -0.091,1.829 -1.792,2.048 -1.92,3.84 1.929,-0.711 2.253,-3.027 3.84,-4.08 -0.509,-1.382 -1.763,-1.069 -2.64,-1.68 -1.454,2.257 -3.293,4.354 -3.84,8.16 -0.248,1.729 -1.065,4.189 -0.96,5.52 0.157,1.985 2.127,3.232 1.92,5.28 -1.619,-0.621 -1.503,-2.977 -2.88,-3.84 0.196,-1.972 0.227,-3.961 0.72,-6.48 0.068,-0.349 0.423,-0.656 0.48,-0.96 0.151,-0.809 -0.058,-2.251 0.48,-3.359 0.25,-0.518 1.048,-0.871 1.44,-1.44 0.928,-1.347 1.225,-2.681 2.4,-3.84 -2.386,-0.957 -3.91,-3.825 -7.2,-4.56 -0.461,-0.339 -0.434,-1.166 -0.72,-1.68 -1.722,-1.158 -2.9,-2.86 -5.04,-3.6 -0.149,-0.65 -1.003,-0.597 -0.96,-1.44 -1.653,-0.281 -2.522,-1.949 -3.84,-2.88 -0.132,-0.093 -0.616,0.118 -0.72,0 -0.068,-0.077 0.08,-0.42 0,-0.48 -2.589,-1.949 -5.302,-3.746 -7.92,-6 -0.45,-0.387 -0.781,-1.118 -1.2,-1.44 -0.493,-0.379 -1.228,-0.338 -1.68,-0.72 -0.293,-0.248 -0.186,-0.744 -0.48,-0.96 -1.186,-0.869 -2.596,-1.17 -3.36,-2.64 -0.146,-1.426 0.783,-1.777 1.44,-2.4 0.972,0.068 1.668,0.412 2.64,0.48 1.533,2.547 4.067,4.093 6.48,5.76 -0.155,1.035 1.006,0.753 0.96,1.68 3.641,2.141 6.546,5.181 9.84,7.92 0.956,0.794 1.965,1.248 3.12,2.16 1.025,0.809 1.838,2.325 3.84,2.4 1.119,2.56 3.697,3.662 5.52,5.52 1.344,-2.43 2.229,-6.281 3.36,-8.16 -1.015,-2.188 0.388,-4.48 -0.24,-6.48 -0.263,-0.839 -1.102,-1.238 -1.44,-1.92 -0.208,-0.419 -0.886,-2.437 -0.96,-3.12 -0.179,-1.651 0.032,-3.36 -1.2,-5.04 0.318,-1.416 -0.354,-2.485 -0.24,-3.6 0.27,-2.631 2.126,-3.885 3.84,-5.28 0.707,1.309 0.467,3.113 0.24,4.8 -0.1,0.743 -0.238,2.038 -0.48,2.88 -0.119,0.412 -0.641,0.74 -0.72,1.2 -0.325,1.897 -0.483,5.066 0,6.48 0.447,1.307 1.774,1.379 2.88,2.4 0.168,2.232 0.476,4.324 1.2,6 1.053,0.947 2.707,1.294 3.12,2.88 -0.995,0.275 -0.935,-0.504 -1.68,-0.48 -0.073,0.675 -0.469,1.539 -0.72,2.64 -0.074,0.554 0.693,0.267 0.72,0.72 1.867,-2.15 6.116,-3.024 9.84,-1.92 0.315,-0.085 0.377,-0.423 0.72,-0.48 0.055,-1.415 -1.105,-1.615 -0.72,-3.36 -1.253,0.07 -2.705,0.944 -3.601,0 0.451,-0.978 1.905,0.196 2.16,-1.2 -0.101,-0.539 -1.273,-0.007 -1.439,-0.48 0.761,-1.01 2.452,-3.512 0.72,-4.8 -0.578,0.382 0.203,2.123 -1.2,1.68 0.046,-1.59 1.008,-2.01 0.48,-3.6 -0.746,-0.625 -0.965,0.813 -2.16,0.48 0.275,-1.725 -0.034,-4.034 0.96,-5.04 -0.806,-1.228 -2.626,-3.503 -0.96,-5.04 1.3,0.315 0.072,1.954 0.96,2.88 0.557,1.143 2.528,1.477 2.88,2.88 0.464,1.852 0.954,4.53 1.68,6.48 0.69,1.853 2.724,4.138 2.88,6.24 0.086,1.154 -0.587,2.401 -0.72,3.84 -0.182,1.969 -0.405,4.139 -0.479,6 -0.042,1.041 0.378,2.153 0.239,3.12 -0.204,1.433 -1.42,2.419 -0.96,3.84 -1.549,1.892 -3.594,3.286 -4.319,6 0.394,0.967 0.407,2.312 1.199,2.88 0.5,-0.38 0.081,-1.679 0.48,-2.159 1.249,0.906 1.762,-0.877 3.36,0.239 0.64,-0.501 -0.599,-1.146 -0.48,-1.92 0.999,-1.881 1.289,-4.471 2.88,-5.76 1.749,-5.544 2.398,-11.579 3.36,-16.8 -1.074,-1.616 -1.439,-3.533 -2.16,-5.52 -0.8,-2.207 -2.393,-4.082 -2.88,-6.24 -0.249,-1.101 -0.015,-2.326 -0.24,-3.36 -0.346,-1.583 -1.345,-2.513 -1.68,-4.08 -1.079,-0.441 -1.321,-1.719 -1.92,-2.64 -0.994,-0.286 -2.089,-0.472 -3.12,-0.72 -0.102,-0.502 0.164,-0.636 0.24,-0.96 -2.008,-1.912 -5.653,-2.188 -6,-5.76 -1.377,0.143 -0.886,2.154 -1.44,3.12 -0.741,0.298 -1.706,0.374 -2.64,0.48 -0.381,1.581 0.876,1.524 1.92,1.68 0.47,-0.337 0.419,-1.914 1.2,-1.203 z m -3.6,-27.6 c -0.651,0.876 -1.76,1.176 -2.64,1.92 -1.137,0.961 -1.793,3.006 -3.36,2.64 0.155,-1.045 1.248,-1.152 1.44,-2.16 -3.613,-1.17 -5.029,2.723 -4.32,5.28 0.56,-0.073 1.034,-0.512 1.2,0.24 -1.605,0.814 -1.927,4 -0.24,5.04 1.919,-2.88 6.895,-2.706 7.2,-7.2 1.562,-1.078 2.875,-2.406 2.64,-5.28 -0.526,-0.274 -0.98,-0.619 -1.92,-0.48 z m 1.2,5.76 c 1.244,-0.356 2.44,-0.759 3.12,-1.68 0.011,-1.371 0.016,-2.736 -1.2,-2.88 -0.292,1.868 -1.005,3.316 -1.92,4.56 z m 6.48,11.04 c 0.937,-1.384 2.576,-2.064 3.6,-3.36 0.269,-3.578 -1.246,-5.881 -4.32,-6.72 -0.03,1.219 1.719,1.708 2.4,2.88 0.634,1.091 1.343,3.419 0.24,3.6 -0.304,-0.577 -0.31,-1.451 -0.721,-1.92 -0.753,-0.119 -0.634,0.827 -1.2,0.24 -0.931,-2.029 -1.63,-4.289 -2.16,-6.72 -0.307,-0.013 -0.332,-0.308 -0.72,-0.24 -2.444,4.147 0.099,9.844 2.881,12.24 z m -6.72,-8.88 c 0.618,0.503 1.041,1.199 1.68,1.68 0.364,-1.258 -0.146,-2.609 -0.96,-3.36 0.061,0.861 -0.72,0.88 -0.72,1.68 z m 7.44,1.92 c 0.102,-0.529 -0.719,-1.324 -0.96,-0.72 0.463,0.097 0.021,1.099 0.96,0.72 z m -7.68,0.96 c 0.413,-0.013 0.615,0.185 0.72,0.48 -0.268,0.346 -0.259,0.585 0.24,0.72 -0.029,-1.044 0.699,-1.999 -0.24,-2.4 0.039,0.679 -0.721,0.559 -0.72,1.2 z m -4.8,4.08 c -0.013,-0.307 -0.308,-0.333 -0.24,-0.72 0.221,-0.419 0.75,-0.53 1.44,-0.48 0.293,-1.333 -0.677,-1.403 -0.96,-2.16 -0.181,1.259 -1.8,1.08 -2.16,2.16 -0.696,-0.311 -1.623,-0.231 -1.68,0.72 0.146,0.415 1.138,-0.018 1.2,0.48 -0.699,1.546 -0.635,4.014 0.72,4.8 0.699,-0.336 -0.426,-0.827 -0.24,-1.44 1.702,-0.489 2.114,-1.405 3.6,-1.68 0.39,0.284 0.873,1.519 0,1.68 -0.477,-0.003 -0.305,-0.655 -0.96,-0.48 -0.586,1.014 -1.829,1.371 -1.92,2.88 1.823,1.368 1.963,3.989 4.32,4.32 2.932,0.412 4.688,-2.531 6.48,-4.32 -0.863,-0.91 -1.535,0.411 -1.92,-0.48 1.916,-1.717 1.096,-4.651 0.96,-6.48 -0.917,0.521 -0.751,-0.221 -1.2,-0.72 -0.773,0.827 -2.313,0.888 -3.12,1.68 -0.494,-0.954 1.228,-2.452 0.48,-3.6 -0.361,0.359 -0.072,1.368 -0.96,1.2 -0.912,-0.368 -0.878,-1.682 -1.92,-1.92 1.125,1.895 0.091,4.363 -1.92,4.56 z m 10.32,2.88 c -0.018,-0.418 0.054,-0.747 0.24,-0.96 -0.33,0.01 -0.527,-0.113 -0.72,-0.24 -0.035,0.595 -0.045,1.165 0.48,1.2 z m -0.24,1.92 c -0.205,-0.56 0.839,-1.034 0.24,-1.2 -0.149,0.502 -1.231,0.902 -0.24,1.2 z m -12.72,1.44 c 0.32,0 0.64,0 0.96,0 -0.15,-0.57 -0.323,-1.117 -0.96,-1.2 0,0.4 0,0.8 0,1.2 z m 4.8,16.56 c 0.992,-1.408 1.306,-3.494 1.2,-6 -0.053,-0.187 -0.201,-0.279 -0.48,-0.24 -0.93,1.245 -2.384,5.178 -0.72,6.24 z m -33.36,1.92 c 0.346,-0.374 0.966,-0.474 0.72,-1.44 -0.81,-0.231 -1.381,0.993 -0.72,1.44 z m 3.84,2.88 c 0.421,-0.219 0.834,-0.446 0.72,-1.2 -0.854,-0.907 -1.625,-1.896 -3.12,-2.16 -0.333,1.533 1.739,0.661 1.44,2.16 -0.404,-0.252 -1.332,-1.207 -1.68,-0.72 0.961,0.56 1.675,1.365 2.64,1.92 z m 0.72,1.2 c 1.243,0.197 1.5,1.38 2.88,1.44 0.496,1.349 1.849,2.056 2.88,2.88 1.068,0.854 2.145,2.017 3.6,2.4 1.004,1.538 3.121,2.634 4.32,3.6 0.598,0.482 1.083,0.745 1.68,1.2 2.044,1.56 3.542,4.09 5.76,4.56 -0.134,-1.035 -1.205,-2.26 -1.92,-2.88 -3.022,-2.623 -7.269,-4.631 -9.36,-7.68 -3.278,-2.082 -6.03,-4.69 -8.88,-7.2 -0.347,0.533 -1.218,0.541 -0.96,1.68 z m 28.32,19.92 c 0.995,0.766 1.746,1.774 3.12,2.16 0.924,-0.858 1.012,-2.225 1.68,-3.36 0.382,-0.648 1.057,-0.83 1.2,-1.68 0.328,-1.946 -1.273,-3.976 -0.24,-6 -0.524,-1.316 -1.568,-2.112 -1.68,-3.84 -0.053,-0.187 -0.201,-0.279 -0.48,-0.24 -0.305,5.18 -1.576,9.05 -3.6,12.96 z m 17.04,-12.72 c -1.147,-0.667 -0.581,0.787 0,0 l 0,0 z m 1.68,5.52 c 0.038,-0.167 -0.084,-1.396 -0.24,-0.72 -0.211,0.914 0.129,1.202 0.24,0.72 z m -1.68,1.2 c -0.479,-0.108 -0.891,0.251 -1.439,0.24 -1.421,-0.03 -3.133,-0.807 -3.84,-0.24 0.529,1.285 2.434,1.741 4.08,1.2 0.869,0.25 1.112,1.127 2.399,0.96 0.226,-0.203 0.513,-1.53 0,-1.68 -0.431,0.388 -0.618,-0.349 -1.2,-0.48 z m -4.079,9.12 c -1.305,1.416 -2.628,2.812 -3.121,5.04 1.422,0.59 2.385,2.607 4.081,2.16 -0.325,-2.396 3.521,-2.941 2.399,-4.561 0.072,0.98 -0.332,-0.04 -0.96,0.24 -0.85,-0.909 -0.602,-2.917 -2.399,-2.879 z m 2.399,1.2 c 0.129,-2.161 -2.846,-5.351 -0.72,-6.96 0.238,2.682 1.214,5.95 2.64,8.161 0.671,-2.529 1.07,-5.331 1.2,-8.4 -1.219,0.49 -1.34,-0.472 -2.16,-0.96 -1.172,-0.028 -2.529,0.129 -3.359,-0.24 -0.379,0.022 -0.188,0.612 -0.721,0.48 -0.48,-1.064 -1.399,-0.488 -2.64,-0.48 -0.51,1.97 -0.914,4.047 -2.16,5.28 -0.919,-2.043 1.14,-3.177 1.2,-5.04 -2.084,0.236 -1.626,3.014 -2.88,4.08 0.554,1.062 -0.475,2.501 0.48,3.359 -0.134,0.587 -0.929,0.512 -0.72,1.44 1.698,-0.179 1.702,1.338 3.12,1.44 0.785,-0.256 0.721,-1.359 1.44,-1.681 0.183,-0.902 -1.274,-0.165 -0.96,-1.2 0.354,-1.725 1.918,-2.241 2.64,-3.6 -0.46,-0.665 -0.93,-2.614 0.24,-2.88 0.801,0.661 0.656,1.768 0.239,2.88 1.737,0.745 1.335,3.627 3.121,4.321 z m -16.32,-4.32 c -2.426,-0.772 -3.391,-4.021 -6,-3.84 1.328,2.592 4.159,3.681 6.24,5.52 -0.076,-0.564 -0.379,-0.901 -0.24,-1.68 z m 12.48,2.64 c 0.907,0.027 1.29,-0.469 1.44,-1.199 -0.743,-0.625 -1.351,0.425 -1.44,1.199 z m -8.16,0.24 c 0.611,-0.029 0.931,-0.35 0.96,-0.96 -0.752,-0.112 -0.676,0.603 -0.96,0.96 z m 2.16,4.08 c 0.099,-0.302 0.31,-0.49 0.72,-0.479 -0.012,-1.481 -1.582,-1.299 -2.4,-1.921 -0.336,-0.255 -0.422,-0.927 -0.72,-1.199 -0.921,-0.845 -1.69,-0.251 -2.4,-0.96 0.734,2.165 3.158,2.762 4.8,4.559 z m -1.2,-3.36 c 0.477,0.004 0.305,0.655 0.96,0.48 0,-0.32 0,-0.64 0,-0.96 -0.547,-0.067 -0.902,0.058 -0.96,0.48 z m 17.521,8.881 c 0.745,-1.695 -0.807,-4.602 0.96,-5.521 0.003,1.526 -0.085,4.298 0.72,6.24 0.496,-1.303 1.342,-2.517 1.2,-4.08 -0.061,-0.662 -1.631,-4.366 -2.16,-4.32 -1.006,2.159 -3.669,5.701 -0.72,7.681 z m -15.361,-5.041 c 0.24,0 0.48,0 0.72,0 0.067,-0.628 -0.088,-1.033 -0.72,-0.96 0,0.32 0,0.64 0,0.96 z m -2.64,0 c 0.231,0.946 0.246,1.858 -0.24,2.64 -0.378,-0.021 -0.188,-0.612 -0.72,-0.48 0.034,1.674 -2.059,2.978 -0.48,4.08 0.969,-0.471 0.461,-2.419 0.96,-3.359 0.535,1.236 1.78,2.326 0.72,3.84 1.271,1.929 2.529,3.871 4.32,5.28 -0.393,-2.199 -0.598,-6.321 0,-9.36 -0.979,-0.517 -1.901,-2.183 -2.88,-1.92 0.415,1.317 -0.241,3.148 0,5.04 0.053,0.688 1.192,1.668 0.24,1.92 -1.464,-2.385 -0.988,-5.725 -0.72,-7.92 -0.556,-0.078 -0.921,0.037 -1.2,0.239 z m 3.84,1.2 c 1.125,-0.129 0.694,0.778 1.92,0.96 -0.079,-0.561 -0.289,-0.991 -0.48,-1.439 -0.743,0.386 -0.932,0.207 -1.44,0.479 z m 5.52,2.4 c -1.382,0.607 -1.334,-1.713 -3.12,-1.44 -0.004,1.569 2.857,3.723 3.12,1.44 z m 7.44,3.84 c 0.254,-1.192 -0.014,-2.016 -0.48,-2.88 -0.053,0.188 -0.2,0.279 -0.479,0.24 -0.054,-0.187 -0.007,-0.474 -0.24,-0.48 0.326,1.113 0.557,2.323 1.199,3.12 z m -2.16,1.92 c 0.927,0.478 1.473,-1.273 0.48,-1.2 0.206,0.765 -0.208,0.911 -0.48,1.2 z m 1.2,1.44 c 1.054,1.106 2.43,1.89 3.12,3.359 2.088,1.421 4.028,2.783 6,4.32 1.874,1.462 3.504,3.794 6.239,4.32 0.232,-0.77 -0.789,-1.334 -1.199,-1.681 -0.666,-0.561 -1.536,-0.923 -2.16,-1.439 -2.652,-2.195 -5.177,-4.317 -7.68,-6.48 -1.273,-1.1 -2.625,-2.498 -4.32,-2.88 -0.16,0 -0.32,0 -0.48,0 0.027,0.294 0.072,0.569 0.48,0.481 z m -12.48,1.68 c -0.284,-0.034 -0.544,-0.427 -0.72,0 0.284,0.035 0.544,0.428 0.72,0 z m 0,3.84 c 0.518,0.791 1.103,-0.921 0.72,-0.96 -0.071,0.489 -0.48,0.639 -0.72,0.96 z m -2.88,0.96 c 1.074,0.423 0.863,-1.27 0.24,-1.199 0.098,0.578 -0.438,0.521 -0.24,1.199 z m 43.92,16.08 c 0.215,-1.095 -0.789,-0.971 -1.439,-1.2 0.149,0.73 0.533,1.227 1.439,1.2 z m -4.56,-3.84 c -2.06,-1.575 -3.729,-3.918 -6.24,-5.04 -0.137,-0.992 -1.272,-1.964 -2.16,-1.439 0.336,1.185 1.541,1.93 2.4,2.64 2.835,2.344 5.893,4.23 8.399,6.72 0.331,0.011 0.527,-0.113 0.721,-0.24 -0.435,-1.526 -2.001,-1.785 -3.12,-2.641 z m -17.28,6.96 c 0.065,-0.327 -0.148,-0.937 -0.24,-0.479 -0.066,0.326 0.149,0.936 0.24,0.479 z m -19.2,3.36 c 0.16,0 0.32,0 0.48,0 0.269,-0.346 0.259,-0.586 -0.24,-0.721 -0.013,0.308 -0.307,0.334 -0.24,0.721 z m 22.801,0.241 c 0.239,0 0.479,0 0.72,0 0.013,-0.413 -0.185,-0.615 -0.48,-0.721 0.01,0.331 -0.113,0.527 -0.24,0.721 z m -1.441,0 c 0.16,0 0.32,0 0.479,0 0,-0.16 0,-0.32 0,-0.48 -0.159,0 -0.319,0 -0.479,0 0,0.159 0,0.319 0,0.48 z"
         clip-rule="evenodd"
         style="fill-rule:evenodd" />
      <path
         inkscape:connector-curvature="0"
         id="path24204"
         d="m 201.18627,227.98752 c -1.898,-0.582 -1.459,-3.501 -2.4,-5.04 -0.592,-0.009 -1.71,-0.812 -2.16,-1.681 -0.209,-0.929 0.586,-0.854 0.72,-1.439 2.567,1.433 2.654,5.346 3.84,8.16 z"
         clip-rule="evenodd"
         style="fill-rule:evenodd" />
      <path
         inkscape:connector-curvature="0"
         id="path24206"
         d="m 218.46727,214.54752 c 0.703,0.878 1.174,2.788 0.96,3.84 0.41,0.011 0.621,-0.178 0.72,-0.479 -0.256,1.474 0.102,4.303 0.479,5.76 1.529,-0.551 0.874,-3.286 2.641,-3.6 0.668,0.852 1.026,2.014 1.2,3.359 -0.966,-0.446 -0.573,1.725 -1.681,0.96 -0.022,1.178 -0.268,2.133 -1.2,2.4 0.147,-1.213 0.442,-2.277 0.48,-3.6 -0.878,0.722 -0.643,2.557 -1.44,3.359 -1.395,-1.698 -0.885,-3.877 -1.439,-6.24 -0.88,0.539 -0.532,3.173 -0.48,4.32 -0.623,-0.144 -0.863,0.097 -0.72,0.72 -1.694,-2.466 0.538,-5.267 -0.24,-8.399 0.315,0.085 0.378,0.422 0.721,0.479 -0.008,-1.125 -0.869,-2.245 -10e-4,-2.879 z"
         clip-rule="evenodd"
         style="fill-rule:evenodd" />
      <path
         inkscape:connector-curvature="0"
         transform="translate(107.68179,77.083649)"
         id="path24252"
         d="m 102.2113,63.880947 -1.5561,1.146601"
         style="fill:none;stroke:#000000;stroke-width:0.62900001;stroke-linecap:butt;stroke-linejoin:round;stroke-miterlimit:4;stroke-opacity:1;stroke-dasharray:none;stroke-dashoffset:0" />
      <path
         inkscape:connector-curvature="0"
         transform="translate(107.68179,77.083649)"
         id="path24254"
         d="m 117.81987,99.175653 c -0.0683,-0.448531 0.0627,-2.782032 0.30236,-5.38493 0.13471,-1.463288 0.22919,-2.055688 0.50285,-3.153153 0.60549,-2.428195 0.48779,-2.959153 -1.37074,-6.183457 -1.22611,-2.127131 -1.49859,-2.895065 -2.36846,-6.674856 -0.25398,-1.103604 -0.51974,-2.140848 -0.59057,-2.304986 -0.1591,-0.368697 -0.62814,-0.825197 -1.38917,-1.352026 -0.83147,-0.575595 -1.03642,-0.7624 -1.37246,-1.250916 -0.31272,-0.454615 -0.33485,-0.572916 -0.30117,-1.610053 0.0204,-0.627723 -0.15169,-1.067827 -0.46431,-1.187519 -0.2091,-0.08006 -0.25131,-0.06226 -0.48178,0.203203 -0.78413,0.90322 -0.52373,2.289071 0.79712,4.242275 0.32455,0.479925 0.38106,0.670888 0.22675,0.766258 -0.13999,0.08652 -0.38646,0.723888 -0.48028,1.241984 -0.0472,0.260552 -0.1226,1.044982 -0.16758,1.74318 -0.045,0.698198 -0.10361,1.407658 -0.13028,1.576577 l -0.0485,0.307125 0.39622,-1.95e-4 c 0.32707,-1.61e-4 0.48035,-0.05734 0.87821,-0.3276 0.52868,-0.359127 0.60361,-0.379066 0.82267,-0.218883 0.11019,0.08057 0.15893,0.255385 0.18921,0.678668 0.0356,0.497362 0.003,0.687194 -0.25561,1.487015 -0.36507,1.12929 -0.38305,1.453694 -0.0847,1.528578 0.49374,0.123919 0.68008,-0.107193 0.77364,-0.959547 0.0341,-0.311042 0.10195,-0.605396 0.15068,-0.654126 0.12376,-0.123759 0.37144,0.11572 0.59296,0.573322 0.15078,0.311471 0.17055,0.460225 0.13331,1.003417 -0.0354,0.516054 -0.10584,0.770324 -0.36936,1.332652 -0.17911,0.382207 -0.47772,0.918861 -0.66359,1.192568 -0.18588,0.273708 -0.33795,0.537439 -0.33795,0.58607 0,0.13419 0.37398,0.248168 0.8143,0.248168 0.43755,0 0.62297,0.138791 0.53898,0.403434 -0.0971,0.305865 -0.4408,0.49743 -0.8934,0.497923 -0.57078,6.25e-4 -1.01261,0.135673 -1.12384,0.343515 -0.0782,0.146207 -0.0625,0.19613 0.10141,0.322317 0.48291,0.371679 0.98083,0.387096 2.29861,0.07118 1.06241,-0.254697 1.02059,-0.273128 1.06773,0.47056 0.0336,0.530611 0.0958,0.748205 0.37907,1.326543 0.43889,0.896087 0.44646,1.187911 0.0392,1.512827 l -0.29959,0.239041 -0.90844,-0.190293 c -1.11839,-0.234281 -2.83438,-0.308138 -3.93638,-0.169428 -1.72508,0.217138 -3.42761,0.881401 -4.46235,1.741039 l -0.5288,0.439309 -0.35162,-0.161766 c -0.24605,-0.113191 -0.35226,-0.21239 -0.35371,-0.330355 -10e-4,-0.09272 0.1555,-0.730018 0.34808,-1.416211 0.25233,-0.899078 0.38446,-1.247584 0.47299,-1.247485 0.0676,7.4e-5 0.28503,0.110031 0.48325,0.244346 0.2632,0.178343 0.45648,0.24421 0.71663,0.24421 0.19592,0 0.35622,-0.02071 0.35622,-0.04602 0,-0.02531 -0.094,-0.244687 -0.20885,-0.487499 -0.25967,-0.548902 -0.77478,-1.019757 -1.81822,-1.662022 -0.43916,-0.270318 -0.88082,-0.579692 -0.98147,-0.687503 -0.43974,-0.471072 -0.9572,-2.599645 -1.21048,-4.979362 -0.11624,-1.092068 -0.12098,-1.108364 -0.38586,-1.326518 -0.14749,-0.121479 -0.58144,-0.396657 -0.96432,-0.611511 -1.00236,-0.562471 -1.41112,-0.970316 -1.62477,-1.621123 -0.360658,-1.098652 -0.405622,-3.022647 -0.1264,-5.408907 0.12119,-1.035742 0.13432,-1.079181 0.48269,-1.597052 0.42044,-0.624997 0.50452,-0.972941 0.82384,-3.409132 0.173,-1.319816 0.20598,-1.844618 0.17434,-2.774324 -0.0215,-0.63063 -0.0646,-1.224829 -0.0959,-1.32044 -0.0442,-0.135081 -0.002,-0.213164 0.19077,-0.350213 l 0.2477,-0.176373 0.38695,0.694916 c 0.21282,0.382206 0.52738,0.832045 0.69901,0.999643 l 0.31207,0.304723 0.13547,-0.321827 c 0.1301,-0.309069 0.12792,-0.344125 -0.055,-0.884154 l -0.19049,-0.562324 0.15936,-0.297626 c 0.11965,-0.223459 0.28979,-0.360532 0.68276,-0.550056 0.63886,-0.308116 0.74605,-0.444976 0.74605,-0.952532 0,-0.345678 -0.0266,-0.407742 -0.21111,-0.491791 -0.30063,-0.136974 -0.44793,-0.01529 -0.68979,0.56984 -0.3037,0.734729 -0.31846,0.74527 -0.92056,0.657419 -0.64832,-0.09459 -1.15649,-0.333251 -1.27815,-0.60027 -0.11361,-0.249358 -0.12508,-0.826318 -0.0177,-0.892658 0.0422,-0.02609 0.38312,-0.08553 0.75758,-0.132095 0.37445,-0.04656 0.93025,-0.141061 1.23511,-0.209995 0.68297,-0.154435 0.71878,-0.211939 0.95559,-1.534592 0.0954,-0.53271 0.2295,-1.077044 0.29806,-1.209631 0.10474,-0.202535 0.5455,-0.560067 0.69175,-0.561115 0.0235,-1.7e-4 0.0858,0.226765 0.13858,0.504299 0.0527,0.277533 0.20706,0.729006 0.34293,1.003276 0.50275,1.014901 1.23945,1.627207 3.40701,2.831763 0.58558,0.325422 1.29851,0.757964 1.58428,0.961205 0.46797,0.332822 0.51409,0.390946 0.46433,0.585118 -0.0304,0.118575 -0.0742,0.350192 -0.0975,0.514706 -0.0494,0.35052 -0.21104,0.279739 1.57054,0.687872 0.72072,0.165105 1.36974,0.331594 1.44227,0.369976 0.0725,0.03838 0.34132,0.471286 0.59731,0.96201 0.46512,0.891577 0.7796,1.297695 1.19485,1.542987 0.15547,0.09184 0.25006,0.245605 0.32074,0.521385 0.0551,0.215123 0.35981,0.920068 0.67706,1.566545 0.86762,1.768008 0.88725,1.840751 0.96913,3.591467 0.10607,2.268005 0.18532,2.49562 2.23856,6.429156 0.54221,1.038756 0.79117,1.641469 1.20099,2.907453 0.65783,2.032082 0.99602,2.916659 1.40955,3.686703 l 0.3305,0.615451 -0.70889,4.257605 c -0.69272,4.160429 -1.12328,6.567965 -1.28507,7.185532 -0.0804,0.306755 -0.081,0.307125 -0.52001,0.307125 l -0.43954,0 0.20044,-0.716625 c 0.72106,-2.577959 1.23475,-5.783268 1.36201,-8.498683 l 0.0308,-0.656746 -0.27538,-0.14178 c -0.29424,-0.151487 -0.51434,-0.183738 -0.51434,-0.07536 0,0.173259 -0.33714,2.424464 -0.45,3.00484 -0.0701,0.360361 -0.40057,1.871417 -0.73443,3.357904 -0.33386,1.486486 -0.651,2.933046 -0.70475,3.214578 l -0.0977,0.511875 -0.72143,0 -0.72143,0 -0.0592,-0.389025 z m 3.49342,-12.93311 c 0.10355,-0.313761 0.0646,-0.980681 -0.0889,-1.522254 -0.0859,-0.303285 -0.0923,-0.307126 -0.504,-0.307126 l -0.41696,0 0.0556,0.552826 c 0.0814,0.808458 0.19656,1.163567 0.4641,1.431111 0.27704,0.277037 0.35584,0.252185 0.49008,-0.154558 l 0,10e-7 z m -14.09123,-4.719197 c 0.47892,-0.216006 1.3923,-0.980173 1.3923,-1.164844 0,-0.193427 -0.41475,-0.449842 -0.72767,-0.449869 -0.16284,-1.5e-5 -0.66923,0.04428 -1.1253,0.09844 l -0.82923,0.09847 -0.0921,0.399208 c -0.11679,0.505972 -0.11742,0.92357 -0.002,1.139777 0.0787,0.147069 0.14512,0.16335 0.51188,0.125493 0.23179,-0.02393 0.62414,-0.134925 0.87188,-0.246667 l 0,-10e-7 z m -3.60367,-2.372263 c -3e-5,-0.01126 -0.0585,-0.296888 -0.12991,-0.634726 -0.18392,-0.8701 -0.16531,-2.678094 0.0443,-4.299754 0.23383,-1.809271 0.29641,-3.226077 0.17365,-3.931033 -0.11098,-0.637304 -0.19203,-0.778575 -0.44604,-0.77745 -0.1625,7.19e-4 -0.2035,0.148503 -0.60791,2.190827 -0.23852,1.204532 -0.48996,2.520695 -0.55876,2.924808 -0.14361,0.843501 -0.18456,2.165453 -0.088,2.839539 0.0925,0.645274 0.48657,1.275346 0.94994,1.518697 0.29989,0.157497 0.663,0.25014 0.66273,0.169092 l 0,0 z m 2.80801,-12.174109 c 0.50233,-0.243175 1.17223,-0.851402 1.37457,-1.248024 0.19267,-0.377656 0.27888,-0.965532 0.16619,-1.133202 -0.0693,-0.103175 -0.12563,-0.104878 -0.39255,-0.01187 -1.15578,0.402715 -2.11305,1.073514 -2.57846,1.80683 -0.28736,0.452766 -0.28809,0.540395 -0.006,0.699401 0.30496,0.171815 0.95293,0.120771 1.43611,-0.113133 l 0,1e-6 z M 105.28636,65.0788 c 0.32894,-0.258737 0.28655,-0.423745 -0.0913,-0.355561 -0.40587,0.07323 -0.42998,0.09148 -0.42998,0.325389 0,0.253154 0.22153,0.265976 0.52131,0.03017 l -1e-5,0 z"
         style="fill:#ffe4e1;fill-opacity:1;fill-rule:nonzero;stroke:none" />
      <path
         inkscape:connector-curvature="0"
         transform="translate(107.68179,77.083649)"
         id="path24256"
         d="m 99.056929,72.436361 c -0.382396,-0.41814 -0.472271,-0.718334 -0.472334,-1.577661 -8.9e-5,-1.206347 0.338248,-2.421081 1.044665,-3.750655 0.29943,-0.56357 0.363547,-0.635614 0.54668,-0.614251 l 0.20747,0.0242 0.025,0.982801 c 0.0447,1.758552 -0.24091,3.341686 -0.810634,4.493336 -0.320063,0.646972 -0.339241,0.662656 -0.540826,0.442229 l -10e-7,0 z"
         style="fill:#f5d9b3;fill-opacity:1;fill-rule:nonzero;stroke:none" />
      <path
         inkscape:connector-curvature="0"
         transform="translate(107.68179,77.083649)"
         id="path24258"
         d="m 99.795704,59.812321 c -0.820136,-0.268857 -1.298531,-0.742533 -2.277802,-2.255327 -0.391133,-0.604228 -0.906266,-1.304473 -1.144744,-1.556102 l -0.433596,-0.457508 0.100566,-0.389942 c 0.127505,-0.494388 0.33205,-0.779008 1.216449,-1.692651 0.768855,-0.794277 0.800105,-0.804831 1.199763,-0.405174 0.53663,0.53663 1.056339,-0.209966 0.707307,-1.016092 -0.236628,-0.546512 -0.280331,-0.569928 -0.786891,-0.421589 -0.247692,0.07253 -0.879551,0.387465 -1.404126,0.699846 -0.524577,0.31238 -1.121188,0.625008 -1.325803,0.694727 -0.510232,0.173852 -0.583966,0.279676 -0.431683,0.619542 0.06736,0.150332 0.185487,0.370046 0.262506,0.488252 0.137181,0.210539 0.114496,0.48123 -0.04033,0.48123 -0.152044,0 -0.573385,-0.498089 -0.779869,-0.921917 -0.420284,-0.862669 -0.443198,-2.398548 -0.05118,-3.430259 0.19243,-0.506438 0.111643,-0.61379 -0.529175,-0.703174 -0.480487,-0.06702 -0.491016,-0.07394 -0.474058,-0.311674 0.01107,-0.155188 0.111924,-0.32827 0.278829,-0.478509 0.235573,-0.21205 0.302844,-0.230981 0.678809,-0.19102 0.229529,0.02439 0.472603,0.06455 0.540171,0.08922 0.07839,0.02863 0.182493,-0.05044 0.28764,-0.21848 0.09064,-0.144841 0.342897,-0.373913 0.560583,-0.509048 0.919987,-0.571113 1.15155,-0.750441 1.276625,-0.988654 l 0.132078,-0.251552 0.366216,0.40694 c 0.496649,0.551884 0.564688,0.688472 0.568059,1.140391 l 0.0029,0.389026 -0.348075,0.0018 c -0.191442,9.89e-4 -0.503409,0.07232 -0.693261,0.158502 -0.422663,0.191876 -0.508716,0.435872 -0.294611,0.835348 0.142802,0.266439 0.166074,0.277462 0.457821,0.216845 0.764839,-0.15891 1.413411,-0.71055 1.810713,-1.540094 0.232445,-0.485332 0.254387,-0.601069 0.24843,-1.310401 -0.0043,-0.517053 -0.05271,-0.899099 -0.144199,-1.138902 -0.07572,-0.198468 -0.118461,-0.380056 -0.09499,-0.40353 0.07671,-0.07671 0.538298,0.426602 0.828164,0.90302 0.36495,0.599821 0.70311,0.885112 1.04915,0.885112 0.32241,0 0.5057,-0.183159 0.57905,-0.578613 0.12599,-0.679307 0.33207,-0.631953 0.32094,0.07375 -0.005,0.344692 -0.0949,0.677562 -0.34808,1.29525 -0.32953,0.803965 -0.45886,1.584718 -0.26249,1.584718 0.043,0 0.20652,-0.08704 0.36329,-0.193423 0.15676,-0.106383 0.59145,-0.315111 0.96596,-0.463843 0.85218,-0.338422 1.45531,-0.632454 1.65066,-0.804709 0.16876,-0.148807 0.19116,-0.13053 0.48101,0.392564 0.17172,0.309899 0.34691,0.385249 0.6392,0.274923 l 0.22302,-0.08418 0.14465,1.398807 c 0.25841,2.49898 0.068,3.558292 -0.84631,4.707982 l -0.28236,0.355065 0.17405,0.174053 c 0.16006,0.16006 0.20386,0.166083 0.54474,0.07491 0.48581,-0.129936 0.65387,-0.125098 0.94857,0.0273 l 0.24451,0.12644 -0.856,0.960956 c -1.64601,1.847828 -2.63436,2.692959 -3.65425,3.124711 -0.56122,0.237581 -1.81584,0.309775 -2.348553,0.135142 l -2e-6,-10e-7 z m 1.651396,-2.397944 c -0.47696,-0.476958 -0.32079,-1.398454 0.22346,-1.318574 0.3359,0.0493 0.36405,-0.089 0.14819,-0.728055 -0.0999,-0.295811 -0.16481,-0.626079 -0.14419,-0.733926 0.044,-0.230369 0.0521,-0.229118 -0.46469,-0.07235 -0.25731,0.07806 -0.74582,0.121964 -1.356966,0.121964 -1.184887,0 -1.686627,0.131744 -2.041642,0.536084 -0.232433,0.264726 -0.318093,0.446717 -0.210264,0.446717 0.119717,0 2.660982,0.513779 2.928362,0.592039 0.45239,0.132415 0.2658,0.236177 -0.536969,0.298597 -0.715343,0.05562 -0.960336,0.164534 -0.960336,0.426911 0,0.313191 0.765499,0.553344 1.787175,0.560675 0.71041,0.0051 0.75401,-0.0039 0.62787,-0.13008 l 0,0 z m 2.55198,-1.466111 c 0.26944,-0.269448 0.25836,-0.72028 -0.0281,-1.143446 -0.12144,-0.179374 -0.44561,-0.590142 -0.72039,-0.912817 -0.4634,-0.544182 -0.70435,-0.923016 -0.81189,-1.276547 -0.0381,-0.125249 -0.15801,-0.143325 -0.9508,-0.143325 -0.85399,0 -0.91898,0.01179 -1.10822,0.201028 -0.11056,0.110564 -0.20102,0.236405 -0.20102,0.279644 0,0.04324 0.41462,0.289052 0.92137,0.54625 1.71822,0.872062 2.18827,1.394785 2.19003,2.43546 l 8e-4,0.473029 0.25777,-0.133295 c 0.14177,-0.07331 0.34447,-0.220005 0.45044,-0.325981 l 1e-5,0 z m 0.58851,-5.371341 c 0.29077,-0.563782 0.34171,-0.971297 0.12143,-0.971297 -0.0759,0 -0.2998,-0.07835 -0.49762,-0.174114 -0.46286,-0.224066 -0.70753,-0.131979 -0.84202,0.316907 -0.18782,0.626868 0.20264,1.331409 0.73786,1.331409 0.1879,0 0.25982,-0.0753 0.48035,-0.502904 l 0,-10e-7 z"
         style="fill:#f5d9b3;fill-opacity:1;fill-rule:nonzero;stroke:none" />
      <path
         inkscape:connector-curvature="0"
         transform="translate(107.68179,77.083649)"
         id="path24260"
         d="m 102.56554,46.794274 c -0.0659,-0.07944 -0.0631,-0.180407 0.0105,-0.375568 0.094,-0.249349 0.0855,-0.279928 -0.12917,-0.464648 -0.12639,-0.108753 -0.28302,-0.197733 -0.34808,-0.197733 -0.20769,0 -0.12781,-0.20315 0.20932,-0.532351 0.18018,-0.175941 0.3276,-0.367696 0.3276,-0.426122 0,-0.163813 0.14066,-0.12601 0.282,0.07579 0.15692,0.224027 0.1581,0.490743 0.006,1.333128 -0.0651,0.36036 -0.11966,0.664414 -0.12123,0.675676 -0.009,0.06155 -0.159,0.0055 -0.23678,-0.08818 l 0,0 z"
         style="fill:#ffe4e1;fill-opacity:1;fill-rule:nonzero;stroke:none" />
      <path
         inkscape:connector-curvature="0"
         transform="translate(107.68179,77.083649)"
         id="path24262"
         d="m 117.83059,99.143089 c -0.15614,-1.041223 0.37211,-6.67608 0.78535,-8.37741 0.59382,-2.444792 0.47212,-3.064459 -1.17744,-5.995135 -1.40825,-2.50197 -1.55829,-2.907358 -2.47316,-6.68247 -0.33271,-1.372884 -0.67439,-2.630484 -0.7593,-2.794667 -0.0849,-0.164183 -0.50097,-0.560572 -0.9246,-0.880863 -1.8374,-1.389198 -2.04997,-1.698631 -2.04997,-2.984093 0,-0.704526 -0.0352,-0.892027 -0.20893,-1.112887 -0.29523,-0.375326 -0.54851,-0.335353 -0.86028,0.13577 -0.56166,0.848717 -0.36738,1.985869 0.61172,3.580474 0.30639,0.498992 0.55734,0.955441 0.55768,1.014331 3.4e-4,0.05889 -0.0851,0.285705 -0.18979,0.504033 -0.10473,0.218328 -0.23873,0.646454 -0.29779,0.951394 -0.13789,0.711912 -0.3556,3.524487 -0.27876,3.60132 0.14635,0.146357 0.73838,0.01295 1.19091,-0.268365 0.27318,-0.169819 0.56013,-0.308762 0.63766,-0.308762 0.4168,0 0.46607,1.139968 0.099,2.289506 -0.31155,0.975514 -0.32748,1.403204 -0.0555,1.489528 0.24457,0.07762 0.57753,-0.09034 0.64685,-0.326306 0.0285,-0.09709 0.0809,-0.35797 0.11643,-0.579744 0.14326,-0.894454 0.21647,-0.940973 0.59778,-0.379825 0.20608,0.303273 0.25565,0.498058 0.25565,1.004542 0,0.801578 -0.19756,1.384826 -0.82399,2.43263 -0.27608,0.461781 -0.47722,0.904071 -0.44699,0.982863 0.034,0.08847 0.20075,0.143784 0.43616,0.144634 0.57616,0.0021 0.83482,0.099 0.83482,0.3128 0,0.316676 -0.36368,0.593024 -0.78125,0.593645 -0.55264,8.21e-4 -1.11714,0.18266 -1.23173,0.39677 -0.0808,0.150968 -0.0477,0.221203 0.17234,0.365353 0.41148,0.269614 1.08022,0.28541 2.12465,0.05019 0.51659,-0.116344 0.97495,-0.189475 1.01858,-0.16251 0.0436,0.02697 0.10791,0.322505 0.14284,0.656757 0.0378,0.36127 0.18173,0.842893 0.35501,1.187604 0.50783,1.010299 0.50221,1.211863 -0.0465,1.667971 -0.19581,0.162763 -0.26048,0.164764 -0.85686,0.02655 -3.11029,-0.720842 -6.62042,-0.111427 -8.58464,1.490437 -0.57648,0.470134 -0.58294,0.472427 -0.88724,0.315067 -0.16859,-0.08718 -0.32756,-0.213322 -0.35327,-0.280308 -0.0466,-0.121549 0.59863,-2.559722 0.7058,-2.666897 0.0311,-0.03109 0.30548,0.06942 0.60974,0.223367 0.38001,0.192269 0.63276,0.259931 0.80731,0.216121 l 0.2541,-0.06378 -0.24619,-0.48582 c -0.28623,-0.564851 -0.7167,-0.966917 -1.71141,-1.598489 -0.39328,-0.24971 -0.83853,-0.56966 -0.98943,-0.710997 -0.47128,-0.44141 -0.96363,-2.263193 -1.24586,-4.609803 -0.19705,-1.638497 -0.19847,-1.640938 -1.34663,-2.316738 -1.1427,-0.672582 -1.55229,-1.107231 -1.73324,-1.839253 -0.20956,-0.847782 -0.283956,-2.410976 -0.18266,-3.83781 0.13357,-1.881403 0.23631,-2.387524 0.60558,-2.983307 0.37601,-0.60665 0.53555,-1.275786 0.81056,-3.399501 0.16345,-1.262301 0.20142,-1.963809 0.16105,-2.976055 -0.0522,-1.308134 -0.008,-1.548545 0.28378,-1.548545 0.0619,0 0.21862,0.192792 0.34834,0.428427 0.37187,0.675488 0.91486,1.386089 1.05915,1.386089 0.28521,0 0.34003,-0.677251 0.1011,-1.249092 -0.13736,-0.328768 -0.13705,-0.397508 0.003,-0.668399 0.0908,-0.17562 0.38779,-0.43268 0.70985,-0.614436 0.30454,-0.17187 0.59803,-0.395322 0.65221,-0.496559 0.14558,-0.272006 0.1196,-0.759973 -0.0479,-0.898947 -0.26962,-0.223766 -0.50322,-0.06564 -0.81317,0.550417 l -0.3043,0.604838 -0.49456,-0.01783 c -0.94536,-0.03408 -1.54429,-0.508603 -1.45047,-1.149179 0.0392,-0.268 0.17136,-0.315447 1.52839,-0.548941 0.90698,-0.156057 1.00619,-0.195646 1.17151,-0.467497 0.0993,-0.163351 0.23648,-0.646159 0.30475,-1.072906 0.15038,-0.939942 0.29495,-1.302422 0.65017,-1.630118 0.22756,-0.209929 0.28518,-0.225875 0.36427,-0.100806 0.0517,0.08171 0.0946,0.226251 0.0955,0.321197 0.003,0.323083 0.40661,1.237238 0.75617,1.712197 0.44154,0.599929 1.02639,1.028212 2.97521,2.178723 0.85937,0.507344 1.69164,1.026897 1.84949,1.154563 0.27691,0.223967 0.28285,0.247503 0.16907,0.670029 -0.0649,0.24085 -0.0806,0.471637 -0.035,0.512861 0.0456,0.04122 0.71802,0.22215 1.49423,0.402058 0.77621,0.179908 1.46919,0.373766 1.53995,0.430796 0.0708,0.05703 0.3404,0.492154 0.59921,0.966942 0.2588,0.474788 0.68108,1.069304 0.93838,1.321146 0.29045,0.284284 0.53713,0.648997 0.65061,0.961927 0.10053,0.277217 0.38645,0.912298 0.63537,1.41129 0.72987,1.463112 0.82697,1.839236 0.92867,3.597182 0.0523,0.904317 0.16372,1.829606 0.26027,2.161745 0.0928,0.31938 0.72877,1.6946 1.41316,3.056044 1.01905,2.027189 1.37242,2.854048 1.95175,4.567016 0.38907,1.150416 0.89376,2.469369 1.12153,2.931007 l 0.41414,0.839343 -0.82383,4.881493 c -0.45311,2.684821 -0.91738,5.323781 -1.03171,5.864355 l -0.20787,0.982863 -0.45056,0 c -0.37627,0 -0.44009,-0.02727 -0.38709,-0.165404 0.12777,-0.332954 0.75303,-2.933395 0.90553,-3.766047 0.29275,-1.598431 0.66548,-4.854066 0.66548,-5.812641 0,-0.150589 -0.66553,-0.511086 -0.7632,-0.413407 -0.033,0.03305 -0.12271,0.528829 -0.19925,1.101736 -0.20209,1.51264 -0.40189,2.485355 -1.8135,8.828949 -0.0464,0.2085 -0.1068,0.226814 -0.74802,0.226814 l -0.69755,0 -0.0665,-0.443154 z M 121.32354,86.1806 c 0.0961,-0.320781 0.0919,-0.53888 -0.0212,-1.083668 l -0.14148,-0.68206 -0.43906,-0.03152 -0.43906,-0.03152 0.0722,0.636357 c 0.15552,1.371347 0.71033,2.054366 0.96858,1.192407 l 0,-10e-7 z m -14.07393,-4.686192 c 0.51944,-0.235055 1.36089,-0.942642 1.36089,-1.144389 0,-0.06268 -0.11368,-0.188456 -0.25263,-0.2795 -0.21356,-0.139925 -0.41629,-0.154378 -1.31054,-0.09343 -0.58184,0.03966 -1.08161,0.110478 -1.11059,0.157376 -0.029,0.0469 -0.1,0.340864 -0.1577,0.653257 -0.0879,0.475544 -0.0785,0.608348 0.0575,0.815965 0.14045,0.214348 0.21311,0.239217 0.53577,0.183388 0.20531,-0.03552 0.60011,-0.167226 0.87732,-0.292672 l 0,10e-7 z m -3.77401,-3.14039 c -0.16294,-0.881421 -0.12903,-2.336512 0.10462,-4.489143 0.22497,-2.072643 0.2199,-3.890678 -0.0116,-4.16965 -0.10021,-0.120735 -0.50158,-0.219813 -0.50276,-0.124103 -1.8e-4,0.01386 -0.22955,1.159274 -0.50973,2.545363 -0.93817,4.641291 -0.80451,6.290454 0.56044,6.914612 0.48597,0.222221 0.51513,0.167232 0.35905,-0.677079 z m 2.6837,-11.260323 c 0.95095,-0.350605 1.84636,-1.372396 1.84636,-2.106965 0,-0.239639 -0.054,-0.407381 -0.14206,-0.441169 -0.17932,-0.06881 -1.4865,0.538785 -2.04169,0.948997 -0.43755,0.323294 -1.04205,1.110812 -1.04205,1.357548 0,0.326368 0.7793,0.462852 1.37944,0.241589 l 0,0 z m -0.86879,-1.986805 c 0.25135,-0.134518 0.25243,-0.399679 0.002,-0.399679 -0.32672,0 -0.51227,0.11345 -0.51227,0.313205 0,0.211278 0.21077,0.246969 0.51065,0.08647 l 0,0 z"
         style="fill:#f5d9b3;fill-opacity:1;fill-rule:nonzero;stroke:none" />
      <path
         inkscape:connector-curvature="0"
         transform="translate(107.68179,77.083649)"
         id="path24264"
         d="m 113.58948,113.73327 c -0.0983,-0.15354 -0.32441,-0.76156 -0.50249,-1.35115 l -0.32377,-1.07199 0.25558,-0.68308 c 0.39078,-1.04446 1.07745,-2.01544 2.62175,-3.70727 l 1.40978,-1.54445 6e-4,-0.67525 c 4.5e-4,-0.50107 0.11754,-0.94728 0.45395,-1.72984 0.53575,-1.24626 0.63501,-1.79842 0.49629,-2.76055 l -0.10286,-0.713397 0.73692,0 c 0.61294,0 0.72458,0.03218 0.66353,0.191283 -0.0845,0.220155 -0.27699,1.888404 -0.38817,3.363764 -0.0847,1.12394 0.008,1.30524 0.50251,0.98132 0.27752,-0.18183 0.3045,-0.2797 0.30222,-1.0963 -0.002,-0.66461 0.0998,-1.22573 0.39299,-2.16835 l 0.39549,-1.271717 0.41346,0 c 0.31138,0 0.41326,0.05361 0.41263,0.217121 -0.002,0.528586 -1.14187,4.585376 -1.36826,4.869726 -0.62453,0.78443 -1.12212,1.61655 -1.40964,2.35732 -0.17215,0.44355 -0.53858,1.38461 -0.81428,2.09125 -0.2757,0.70664 -0.50128,1.39054 -0.50128,1.51979 0,0.12924 0.15337,0.50968 0.34082,0.84543 0.18746,0.33574 0.31094,0.64033 0.27441,0.67686 -0.0365,0.0365 -0.2876,-0.011 -0.55794,-0.1057 -0.50619,-0.17725 -0.73867,-0.1586 -1.63194,0.13093 -0.39775,0.12893 -0.61242,0.13637 -0.91282,0.0316 -0.50039,-0.17444 -0.60979,-0.0229 -0.61237,0.84803 -0.003,1.02692 -0.19938,1.29771 -0.5471,0.75457 l -1e-5,0 z"
         style="fill:#f5d9b3;fill-opacity:1;fill-rule:nonzero;stroke:none" />
      <path
         inkscape:connector-curvature="0"
         transform="translate(107.68179,77.083649)"
         id="path24266"
         d="m 100.78035,100.11919 c -0.40015,-0.271551 -0.999542,-0.734005 -1.331987,-1.027674 l -0.604444,-0.533945 0.466639,-0.926417 c 1.001822,-1.988914 2.078542,-5.093881 2.533312,-7.305388 0.21076,-1.02485 0.50399,-3.217999 0.50612,-3.785313 0.003,-0.927722 0.40613,-1.104113 0.52403,-0.229567 0.066,0.489485 0.35828,1.142602 1.13871,2.544444 0.43098,0.774154 0.45452,0.867568 0.32073,1.272937 -0.21692,0.657295 -0.16844,1.819604 0.13067,3.132589 0.18092,0.794214 0.25233,1.448567 0.22018,2.017598 -0.0444,0.786489 -0.0815,0.878994 -0.56103,1.399189 -0.59619,0.64679 -0.74159,0.907791 -1.27075,2.281021 -0.43888,1.138976 -0.78764,1.654256 -1.11965,1.654256 -0.12375,0 -0.55239,-0.22218 -0.95253,-0.49373 l 0,0 z"
         style="fill:#f5d9b3;fill-opacity:1;fill-rule:nonzero;stroke:none" />
      <path
         inkscape:connector-curvature="0"
         transform="translate(107.68179,77.083649)"
         id="path24276"
         d="m 111.74208,108.85357 c -0.44546,-0.13922 -0.82622,-0.39283 -1.66353,-1.10801 -0.43029,-0.36753 -0.92331,-0.74748 -1.09559,-0.84432 -0.35048,-0.19703 -0.34722,-0.16886 -0.10524,-0.90999 0.35844,-1.09783 1.0943,-2.26566 2.20996,-3.50731 0.61267,-0.68186 0.65445,-0.71476 0.90742,-0.71476 0.34564,0 0.73831,0.2047 0.96648,0.50385 0.10031,0.13152 0.32698,0.6022 0.5037,1.04596 0.17673,0.44376 0.39871,0.9185 0.49329,1.05498 0.14568,0.21022 0.1999,0.24257 0.35471,0.21161 0.11528,-0.0231 0.28149,0.0138 0.45026,0.0999 0.28752,0.14668 0.3499,0.1316 0.3515,-0.085 8.3e-4,-0.1138 0.0125,-0.12072 0.0655,-0.0388 0.11156,0.17264 0.0738,0.60415 -0.0738,0.84295 -0.0772,0.12486 -0.4736,0.51232 -0.88098,0.86104 -1.15539,0.98903 -1.4673,1.43666 -1.54958,2.22389 -0.033,0.31577 -0.0648,0.38971 -0.18073,0.42084 -0.21335,0.0573 -0.44377,0.0399 -0.75333,-0.0569 l 0,0 z"
         style="fill:#f5d9b3;fill-opacity:1;fill-rule:nonzero;stroke:none" />
      <path
         inkscape:connector-curvature="0"
         transform="translate(107.68179,77.083649)"
         id="path24278"
         d="m 92.985249,47.675091 c -0.315899,-0.270399 -0.636117,-0.874218 -0.747718,-1.409937 -0.156779,-0.752586 0.02657,-1.814741 0.432958,-2.508193 0.163444,-0.278893 0.603678,-0.720658 0.775204,-0.777897 0.07168,-0.02392 0.07755,-0.073 0.02604,-0.217882 -0.105131,-0.295686 -0.23415,-0.340557 -0.701605,-0.244006 -0.225236,0.04652 -0.421432,0.07267 -0.435995,0.05811 -0.01456,-0.01456 -0.05966,-0.203389 -0.100218,-0.419616 -0.09392,-0.500714 -0.03481,-1.728638 0.108539,-2.254841 0.448766,-1.647303 1.622773,-2.691947 3.024226,-2.690991 0.341053,2.32e-4 1.093771,0.138928 1.170524,0.215682 0.09115,0.09115 -0.214663,0.562748 -0.625168,0.964102 -0.508489,0.497154 -0.638618,0.680342 -0.708143,0.99689 l -0.04725,0.215115 0.35792,0 c 0.708351,0 1.131321,-0.330001 2.233901,-1.742886 0.642563,-0.823403 0.892005,-1.041644 1.860348,-1.627651 0.859178,-0.519944 1.379488,-0.904016 1.480578,-1.092891 0.0692,-0.129308 0.11762,-0.137967 0.61702,-0.110346 0.44352,0.02453 0.61891,0.06919 0.96597,0.245949 l 0.42405,0.215976 -0.0335,0.875738 c -0.0267,0.698518 -0.0684,0.983381 -0.20626,1.407653 -0.32307,0.994407 -0.89931,1.771835 -1.89411,2.555415 -0.51729,0.40745 -0.53369,0.429131 -0.5753,0.760454 -0.14128,1.124925 -0.72615,2.18751 -1.60434,2.914734 -0.533926,0.442143 -0.99003,0.729439 -2.352464,1.481798 -1.756324,0.969872 -2.385782,1.422869 -2.928738,2.107702 l -0.247462,0.312125 -0.269058,-0.230304 z m 1.350255,-3.082424 c 0.286179,-0.141537 0.619826,-0.41587 1.176049,-0.966977 1.012302,-1.002993 1.370561,-1.162651 2.267743,-1.010616 l 0.318201,0.05392 -0.0489,-0.187276 c -0.127498,-0.488294 -0.02085,-0.828384 0.459147,-1.464131 0.325409,-0.431002 0.381953,-0.757314 0.185534,-1.070735 l -0.137829,-0.21993 -0.281221,0.329164 c -0.423921,0.496188 -1.01528,1.00097 -2.269998,1.937664 -1.343073,1.002654 -2.037404,1.65437 -2.457867,2.307015 -0.169042,0.262387 -0.307348,0.498436 -0.307348,0.524554 0,0.105617 0.722481,-0.04768 1.096487,-0.232655 l -1e-6,0 z m 7.950436,-8.051893 c 0.154,-0.08242 0.1691,-0.346708 0.0266,-0.464997 -0.12563,-0.104269 -0.47215,-0.100959 -0.60071,0.0057 -0.33156,0.275174 0.16938,0.675883 0.57414,0.459261 l 0,-10e-7 z"
         style="fill:#ffffff;fill-opacity:1;fill-rule:nonzero;stroke:none" />
      <path
         inkscape:connector-curvature="0"
         transform="translate(107.68179,77.083649)"
         id="path24280"
         d="m 102.73309,40.285417 c 0.77423,-1.144817 1.22729,-2.270474 1.58134,-3.928926 0.0394,-0.184455 0.20711,-0.154109 0.54422,0.09846 0.41827,0.313376 0.61291,0.969835 0.61391,2.07054 l 5e-4,0.552855 -0.32563,0.317176 c -0.45583,0.443994 -1.62498,1.021855 -2.48757,1.229503 l -0.18687,0.04499 0.2601,-0.384591 z"
         style="fill:#ffffff;fill-opacity:1;fill-rule:nonzero;stroke:none" />
      <path
         inkscape:connector-curvature="0"
         transform="translate(107.68179,77.083649)"
         id="path24282"
         d="m 102.97685,43.698222 c -0.91494,-0.960915 -0.91805,-0.971979 -0.44048,-1.571781 0.15043,-0.18892 0.29286,-0.446715 0.31653,-0.572877 0.0411,-0.219161 0.0486,-0.224373 0.16727,-0.116949 0.21789,0.197189 0.53132,0.740429 0.69534,1.20516 0.12413,0.35173 0.15828,0.581783 0.15573,1.048946 -0.005,0.961427 0.0138,0.961268 -0.89439,0.0075 l 0,0 z"
         style="fill:#ffffff;fill-opacity:1;fill-rule:nonzero;stroke:none" />
      <path
         inkscape:connector-curvature="0"
         transform="translate(107.68179,77.083649)"
         id="path24284"
         d="m 108.3488,51.220641 c -1.77424,-1.808551 -3.00921,-4.479767 -3.27683,-7.087715 -0.14403,-1.403481 0.1583,-3.082524 0.75262,-4.179812 0.20941,-0.386639 0.30885,-0.423088 0.64149,-0.235133 0.21998,0.124299 0.23224,0.154933 0.47221,1.180186 0.3383,1.445322 0.97569,3.412927 1.57231,4.853724 0.41514,1.002514 0.61187,1.154158 0.988,0.761562 0.14701,-0.153445 0.24269,-0.197762 0.39476,-0.182846 0.24809,0.02434 0.35205,0.215265 0.63522,1.16663 0.21918,0.736381 0.29865,0.811364 0.58105,0.548266 0.44347,-0.413152 0.30308,-1.699048 -0.33468,-3.065683 -0.28255,-0.605446 -0.58921,-0.954852 -1.48382,-1.690653 -0.68091,-0.560031 -1.08977,-1.075903 -1.09138,-1.377037 -8.9e-4,-0.165824 0.12516,-0.146832 0.78159,0.117762 1.36734,0.551152 2.32119,1.440974 2.90942,2.714142 0.35802,0.774881 0.49953,1.457531 0.54416,2.625105 l 0.0389,1.018846 -0.39203,0.399005 c -0.21561,0.219453 -0.73611,0.672284 -1.15665,1.006292 -1.10762,0.879694 -1.61499,1.335412 -1.82636,1.640417 -0.10252,0.147944 -0.20682,0.26899 -0.23177,0.26899 -0.0249,0 -0.25816,-0.216922 -0.51826,-0.482048 z m 1.02483,-1.5625 c -0.058,-0.364511 -0.29996,-0.548537 -0.7211,-0.548537 l -0.33705,0 0.043,0.215199 c 0.0237,0.11836 0.0845,0.256668 0.13519,0.307349 0.0753,0.07528 0.62238,0.246626 0.86106,0.269669 0.0322,0.0031 0.0407,-0.106546 0.0189,-0.24368 l 0,0 z"
         style="fill:#ffffff;fill-opacity:1;fill-rule:nonzero;stroke:none" />
      <path
         inkscape:connector-curvature="0"
         transform="translate(107.68179,77.083649)"
         id="path24286"
         d="m 109.00164,44.704683 c -0.0325,-0.08228 -0.0953,-0.246841 -0.13963,-0.365691 -0.0443,-0.11885 -0.11057,-0.216091 -0.14718,-0.216091 -0.0372,0 -0.0301,-0.04396 0.0162,-0.09973 0.12784,-0.154039 0.30272,-0.119226 0.52682,0.104871 0.35744,0.357434 0.36036,0.726246 0.006,0.726246 -0.14869,0 -0.21877,-0.04001 -0.26199,-0.149601 l 1e-5,0 z"
         style="fill:#ffffff;fill-opacity:1;fill-rule:nonzero;stroke:none" />
      <path
         inkscape:connector-curvature="0"
         transform="translate(107.68179,77.083649)"
         id="path24288"
         d="m 106.9009,104.90266 c -0.1472,-0.0669 -0.49128,-0.31687 -0.76463,-0.55555 -0.619,-0.5405 -0.91588,-0.7006 -1.40093,-0.75548 -0.27251,-0.0308 -0.38907,-0.074 -0.40868,-0.15154 -0.0552,-0.21816 0.0879,-0.53785 0.31991,-0.71485 0.12913,-0.0985 0.27484,-0.25553 0.3238,-0.34896 0.0798,-0.15238 0.0727,-0.1913 -0.0695,-0.37773 -0.22822,-0.29921 -0.30725,-0.80687 -0.22622,-1.4531 0.0871,-0.694957 0.0851,-1.231347 -0.006,-1.491915 -0.0647,-0.185734 -0.0533,-0.23211 0.10341,-0.418336 0.24913,-0.296067 0.44907,-0.719796 0.70169,-1.487032 0.48519,-1.47361 0.87132,-2.042406 1.53648,-2.263337 0.18312,-0.06082 0.34835,-0.09517 0.3672,-0.07632 0.0978,0.09776 -0.23311,0.996286 -0.71065,1.929893 -0.64432,1.25967 -0.78243,1.766017 -0.65947,2.417822 0.0428,0.226769 0.11668,0.465507 0.16422,0.530529 0.0813,0.111182 0.0949,0.108404 0.22772,-0.04662 0.74209,-0.865831 1.19165,-1.918048 1.76383,-4.128284 l 0.25149,-0.971425 0.88126,-0.08506 c 0.4847,-0.04678 0.96726,-0.06503 1.07236,-0.04055 0.10605,0.0247 0.31187,0.18037 0.46247,0.349764 0.30952,0.348174 0.48825,0.354329 0.65973,0.02272 0.13655,-0.264058 0.16661,-0.272823 0.53693,-0.156573 0.2315,0.07267 0.73969,0.113366 1.73768,0.139157 l 1.41049,0.03645 0.48445,0.44552 c 0.26645,0.245039 0.54981,0.480229 0.62968,0.522646 0.17904,0.09508 0.55139,0.09969 0.78793,0.0098 l 0.17718,-0.06736 -0.0384,0.383187 c -0.0211,0.210755 -0.0563,0.682392 -0.0782,1.048083 -0.0589,0.984105 -0.27363,2.789895 -0.46652,3.922871 -0.18621,1.09378 -0.55023,2.76502 -0.61857,2.83991 -0.0677,0.0742 -0.65815,-1.00403 -1.04503,-1.90832 -0.63148,-1.47604 -1.15633,-3.312862 -1.3871,-4.854461 -0.0602,-0.40226 -0.13043,-0.844889 -0.15601,-0.98362 l -0.0465,-0.252236 -0.24196,0.236029 c -0.36071,0.351879 -0.48165,0.653599 -0.51048,1.273562 -0.0313,0.672541 0.0899,1.139168 0.71271,2.745286 0.2495,0.64339 0.50163,1.33551 0.56028,1.53804 0.14537,0.50205 0.21541,1.12778 0.12622,1.12778 -0.0383,0 -0.21691,-0.11639 -0.39687,-0.25864 -0.37101,-0.29327 -0.68964,-0.84925 -1.14733,-2.002 -0.15245,-0.38398 -0.35465,-0.840978 -0.44932,-1.015562 -0.15794,-0.291245 -0.62791,-0.784771 -0.90073,-0.945873 -0.10472,-0.06184 -0.10256,-0.09672 0.0308,-0.49867 0.19399,-0.584552 0.20995,-1.526724 0.0315,-1.861702 -0.18524,-0.347793 -0.43875,-0.59459 -0.5652,-0.550236 -0.14202,0.04982 -0.40282,0.2854 -0.48523,0.438301 -0.22577,0.418938 -0.17356,1.290596 0.12148,2.028091 0.16841,0.420952 0.16869,0.424988 0.046,0.655728 -0.0679,0.127693 -0.43256,0.536265 -0.81037,0.907936 -1.01569,0.999177 -1.37449,1.490697 -1.57822,2.161967 -0.19959,0.65764 -0.11851,0.86928 0.37239,0.97197 0.53049,0.11098 0.67272,0.36987 0.33883,0.61673 -0.105,0.0776 -0.33688,0.40211 -0.51529,0.72107 -0.45146,0.80709 -0.70783,0.94997 -1.25693,0.70054 l 0,0 z"
         style="fill:#ffffff;fill-opacity:1;fill-rule:nonzero;stroke:none" />
      <path
         inkscape:connector-curvature="0"
         transform="translate(107.68179,77.083649)"
         id="path24290"
         d="m 116.15987,94.626024 c -0.13787,-0.04919 -0.48196,-0.249616 -0.76462,-0.445379 -0.57968,-0.401461 -0.68494,-0.418428 -1.64205,-0.26471 -0.97408,0.156444 -2.05814,-0.123155 -2.68969,-0.69372 -0.15395,-0.139085 -0.32303,-0.336266 -0.37573,-0.438179 -0.0894,-0.172964 -0.0858,-0.190816 0.0542,-0.268285 0.23513,-0.130096 1.0635,-0.08938 2.0117,0.09887 1.36135,0.270281 1.6413,0.284069 2.27823,0.112205 0.67462,-0.182031 0.88107,-0.150241 1.3063,0.201142 0.26454,0.218604 0.36727,0.264161 0.56191,0.249175 0.22182,-0.01708 0.24389,-0.0012 0.32141,0.230989 0.0869,0.260198 0.0347,0.747281 -0.12107,1.130328 -0.0663,0.163156 -0.1075,0.182531 -0.38211,0.179927 -0.16927,-0.0016 -0.42057,-0.04317 -0.55845,-0.09236 z"
         style="fill:#ffffff;fill-opacity:1;fill-rule:nonzero;stroke:none" />
      <path
         inkscape:connector-curvature="0"
         transform="translate(107.68179,77.083649)"
         id="path24292"
         d="m 122.13418,111.1491 c -0.34019,-1.07688 -0.50272,-2.49997 -0.50364,-4.40984 -6.3e-4,-1.31292 -0.017,-1.35301 -0.39695,-0.97304 -0.37832,0.37832 -0.48733,0.68342 -0.51988,1.45509 -0.0162,0.38397 0.002,1.10206 0.0397,1.59574 0.0691,0.89661 0.0194,1.87479 -0.10682,2.10028 -0.0527,0.0942 -0.12576,0.0473 -0.48759,-0.3132 -0.50137,-0.49959 -0.71085,-0.89498 -0.80854,-1.5261 -0.0854,-0.55207 -0.008,-1.15662 0.25647,-1.99268 0.15857,-0.50196 1.59842,-3.45644 1.76452,-3.62069 0.21176,-0.20939 1.36613,1.97249 1.93477,3.65691 0.18078,0.53549 0.19792,0.65433 0.16308,1.13032 -0.0539,0.73576 -0.17448,1.14398 -0.70305,2.3794 l -0.45772,1.06985 -0.17439,-0.55204 z"
         style="fill:#ffffff;fill-opacity:1;fill-rule:nonzero;stroke:none" />
      <path
         inkscape:connector-curvature="0"
         transform="translate(107.68179,77.083649)"
         id="path24294"
         d="m 119.15267,112.9616 c -0.22985,-0.43782 -0.71418,-1.79137 -0.71418,-1.99591 0,-0.0481 0.0532,-0.0875 0.11818,-0.0875 0.065,0 0.18105,-0.044 0.2579,-0.0979 0.13444,-0.0942 0.14767,-0.08 0.35107,0.37486 0.26248,0.58701 0.38055,1.33493 0.29737,1.88369 l -0.0604,0.39872 -0.24991,-0.47603 z"
         style="fill:#ffffff;fill-opacity:1;fill-rule:nonzero;stroke:none" />
      <path
         inkscape:connector-curvature="0"
         transform="translate(107.68179,77.083649)"
         id="path24296"
         d="m 106.21134,117.07835 c -0.49423,-0.49587 -1.12179,-1.2203 -1.51196,-1.74534 -0.69046,-0.92911 -1.75292,-2.48689 -1.75292,-2.57014 0,-0.0261 0.0673,-0.18406 0.14961,-0.35102 0.12057,-0.24467 0.1496,-0.41633 0.1496,-0.88468 l 0,-0.5811 -0.5305,-1.03126 c -0.29177,-0.5672 -0.54855,-1.03127 -0.57062,-1.03127 -0.0912,0 -0.20395,0.5554 -0.29702,1.46277 -0.11052,1.07742 -0.22501,1.50461 -0.46326,1.72844 -0.15179,0.14259 -0.17135,0.14539 -0.32268,0.0462 -0.0886,-0.0581 -0.22789,-0.24354 -0.30953,-0.41219 -0.20461,-0.42266 -0.15273,-0.66851 0.37436,-1.77385 0.24521,-0.51422 0.46727,-1.08537 0.51056,-1.31316 0.0917,-0.48231 0.23821,-0.53606 0.45585,-0.16719 0.19182,0.32512 0.32296,0.27339 0.51621,-0.20362 0.12708,-0.31367 0.16231,-0.52485 0.16623,-0.99643 0.003,-0.32912 -0.0209,-0.74063 -0.0525,-0.91445 l -0.0575,-0.31605 0.23816,-0.0995 c 0.13099,-0.0547 0.38929,-0.0995 0.57401,-0.0995 0.3135,0 0.33371,0.01 0.30365,0.1496 -0.11354,0.52751 -0.24818,2.3186 -0.25077,3.33603 -0.004,1.68197 0.19801,2.76924 0.7279,3.91231 0.20854,0.44985 0.25719,0.51084 0.37799,0.47391 0.39738,-0.12148 0.39846,-0.35205 0.005,-1.16712 -0.38857,-0.80588 -0.42806,-1.27821 -0.26597,-3.18079 0.10674,-1.25297 0.10503,-2.06346 -0.005,-2.44349 -0.0376,-0.12986 -0.0188,-0.1496 0.14285,-0.1496 0.33552,0 0.74524,0.26537 1.49831,0.97046 0.40783,0.38184 0.82746,0.74502 0.93251,0.80708 0.22018,0.13006 0.22141,0.14068 0.0985,0.84879 -0.33469,1.9283 -0.30083,6.36836 0.0634,8.30977 0.0242,0.12876 0.0228,0.23411 -0.003,0.23411 -0.0258,0 -0.42713,-0.38148 -0.89184,-0.84774 l 0,0 z"
         style="fill:#ffffff;fill-opacity:1;fill-rule:nonzero;stroke:none" />
      <path
         inkscape:connector-curvature="0"
         transform="translate(107.68179,77.083649)"
         id="path24298"
         d="m 110.7477,110.48759 c -0.83525,-0.28486 -1.81029,-1.40509 -1.81573,-2.0861 -0.001,-0.16948 0.0181,-0.18284 0.26663,-0.18284 0.44603,0 0.71159,0.16489 1.36486,0.84745 l 0.62071,0.64856 0.36918,0 c 0.41972,0 0.43882,0.035 0.23598,0.4326 -0.21116,0.41392 -0.5251,0.51649 -1.04164,0.34033 l 10e-6,0 z"
         style="fill:#d2691e;fill-opacity:1;fill-rule:nonzero;stroke:none" />
      <path
         inkscape:connector-curvature="0"
         transform="translate(107.68179,77.083649)"
         id="path24300"
         d="m 108.03742,108.05061 c -0.15549,-0.0539 -0.40245,-0.2385 -0.60939,-0.45559 -0.28611,-0.30014 -0.39327,-0.36874 -0.60292,-0.38599 -0.23494,-0.0193 -0.21317,-0.0321 0.27694,-0.16281 0.29255,-0.078 0.5955,-0.1628 0.67321,-0.18843 0.12801,-0.0422 0.16108,0.008 0.35181,0.53522 0.26264,0.72584 0.25563,0.77722 -0.0897,0.6576 l 0,0 z"
         style="fill:#d2691e;fill-opacity:1;fill-rule:nonzero;stroke:none" />
      <path
         inkscape:connector-curvature="0"
         transform="translate(107.68179,77.083649)"
         id="path24302"
         d="m 104.07473,105.25612 c -0.25835,-0.26838 -1.04391,-0.87013 -2.20517,-1.6892 -1.01684,-0.7172 -1.50999,-1.17045 -1.86822,-1.71703 -0.288214,-0.43978 -0.408293,-0.67912 -0.34071,-0.67912 0.01895,0 0.120975,0.0447 0.226716,0.0994 0.105742,0.0547 0.405964,0.12973 0.667164,0.16678 0.55545,0.0788 1.05357,0.27696 1.26693,0.50406 0.0832,0.0886 0.27474,0.39277 0.42556,0.6759 0.25256,0.47415 0.30542,0.53055 0.66968,0.7145 0.21751,0.10984 0.62725,0.28384 0.91053,0.38666 0.73942,0.26837 1.02577,0.54183 1.14446,1.09298 0.0375,0.17441 0.0256,0.21609 -0.0618,0.21609 -0.17891,0 -0.50419,0.19745 -0.556,0.3375 -0.0447,0.12095 -0.0663,0.11256 -0.27915,-0.10854 l 0,0 z"
         style="fill:#d2691e;fill-opacity:1;fill-rule:nonzero;stroke:none" />
      <path
         inkscape:connector-curvature="0"
         transform="translate(107.68179,77.083649)"
         id="path24304"
         d="m 105.27359,105.55907 0,-0.46542 0.19465,0 c 0.27428,0 0.47025,0.26695 0.47025,0.64061 l 0,0.29024 -0.33245,0 -0.33245,0 0,-0.46543 z"
         style="fill:#d2691e;fill-opacity:1;fill-rule:nonzero;stroke:none" />
      <path
         inkscape:connector-curvature="0"
         transform="translate(107.68179,77.083649)"
         id="path24306"
         d="m 128.60614,125.33467 c -0.99555,-0.9061 -2.78451,-2.25138 -5.45987,-4.10579 -1.36977,-0.94945 -1.53048,-1.08102 -1.74226,-1.42635 -0.381,-0.62126 -0.76355,-1.03844 -1.8769,-2.04678 -0.6778,-0.61387 -1.10806,-0.95658 -1.20264,-0.95791 -0.13839,-0.002 -0.28492,-0.17173 -0.28492,-0.33014 0,-0.0996 0.44113,-0.0869 0.80359,0.0231 0.39685,0.12046 1.06175,0.45743 1.53212,0.77648 0.41065,0.27856 0.81714,0.619 3.94811,3.30663 1.16402,0.9992 2.88759,2.46189 3.83015,3.25044 l 1.71374,1.43371 -0.27267,0.32336 c -0.14997,0.17785 -0.29277,0.32337 -0.31734,0.32337 -0.0246,0 -0.32657,-0.25657 -0.67111,-0.57015 l 0,0 z"
         style="fill:#d2691e;fill-opacity:1;fill-rule:nonzero;stroke:none" />
      <path
         inkscape:connector-curvature="0"
         transform="translate(107.68179,77.083649)"
         id="path24308"
         d="m 117.46308,115.40497 c -0.13882,-0.0373 -0.13569,-0.0474 0.0825,-0.26761 0.23456,-0.23673 0.33966,-0.55468 0.26309,-0.79591 -0.0583,-0.18353 0.11623,-0.18693 0.29737,-0.006 0.15563,0.15562 0.1706,0.39927 0.0401,0.65173 -0.17027,0.32927 -0.42704,0.48625 -0.68301,0.41757 l 0,0 z"
         style="fill:#d2691e;fill-opacity:1;fill-rule:nonzero;stroke:none" />
      <path
         inkscape:connector-curvature="0"
         transform="translate(107.68179,77.083649)"
         id="path24310"
         d="m 97.524088,99.783512 c -0.217493,-0.175634 -0.904086,-0.673485 -1.525761,-1.106336 -1.564743,-1.089474 -2.032475,-1.448607 -2.668081,-2.048594 -0.546072,-0.51547 -1.098663,-1.199958 -1.319919,-1.634966 l -0.115133,-0.226361 0.445708,0.04162 c 0.891653,0.08326 1.349226,0.385092 2.982232,1.96716 1.156274,1.120209 1.62931,1.488599 2.22107,1.729732 0.192218,0.07832 0.216091,0.116931 0.216091,0.349441 0,0.143764 0.04776,0.471365 0.106129,0.728004 0.05837,0.256637 0.0942,0.478548 0.07962,0.493128 -0.01458,0.0146 -0.20446,-0.117194 -0.421954,-0.292828 l -10e-7,-10e-7 z"
         style="fill:#d2691e;fill-opacity:1;fill-rule:nonzero;stroke:none" />
      <path
         inkscape:connector-curvature="0"
         transform="translate(107.68179,77.083649)"
         id="path24312"
         d="m 65.738835,74.278105 c -0.160856,-0.35304 -0.01529,-0.732406 0.380549,-0.99177 0.603645,-0.395521 0.703925,0.353291 0.122748,0.91659 l -0.372879,0.361412 -0.130418,-0.286232 z"
         style="fill:#d2691e;fill-opacity:1;fill-rule:nonzero;stroke:none" />
      <path
         inkscape:connector-curvature="0"
         transform="translate(107.68179,77.083649)"
         id="path24314"
         d="m 68.423591,76.446234 c -0.737926,-0.564625 -1.09789,-0.902009 -0.987538,-0.925592 0.09551,-0.02041 0.42721,0.137527 0.737122,0.350972 0.649348,0.447224 0.709655,0.462599 0.709655,0.18093 0,-0.40088 -0.141103,-0.562395 -0.76762,-0.87866 -0.45423,-0.229293 -0.651857,-0.396588 -0.701323,-0.593676 -0.09447,-0.3764 -0.0055,-0.427683 0.486222,-0.280353 0.920255,0.275714 2.4946,1.705349 2.4946,2.2653 0,0.322517 -0.384923,0.776266 -0.654908,0.772007 -0.08526,-0.0013 -0.67756,-0.402262 -1.316211,-0.890929 l 10e-7,10e-7 z"
         style="fill:#d2691e;fill-opacity:1;fill-rule:nonzero;stroke:none" />
      <path
         inkscape:connector-curvature="0"
         transform="translate(107.68179,77.083649)"
         id="path24316"
         d="M 90.701501,94.341699 C 89.930904,93.983 89.449113,93.586215 87.565336,91.758867 86.329618,90.560166 85.521302,89.900124 83.731642,88.628408 82.415596,87.693235 81.11534,86.671391 80.63348,86.193622 80.048727,85.613835 79.569619,85.254366 79.01361,84.97826 c -0.434242,-0.215637 -1.173273,-0.712255 -1.642297,-1.103594 -0.469025,-0.391341 -1.347022,-1.093073 -1.951106,-1.559409 -1.161115,-0.89635 -1.597357,-1.343981 -1.872906,-1.921811 -0.101623,-0.213108 -0.248989,-0.354054 -0.37018,-0.354054 -0.279216,0 -0.793784,-0.274138 -1.441746,-0.768095 -0.302051,-0.230261 -0.70297,-0.472266 -0.890929,-0.537788 -0.287625,-0.100268 -0.341745,-0.173845 -0.341745,-0.464622 0,-0.257621 0.104154,-0.447194 0.40952,-0.745375 0.225239,-0.219936 0.447805,-0.399887 0.494595,-0.399887 0.04679,0 1.016664,0.818057 2.155275,1.817906 2.38306,2.092641 4.431177,3.742244 5.775715,4.65191 0.633015,0.428274 1.138153,0.88174 1.553197,1.394317 0.814619,1.006051 1.99647,2.000359 4.352519,3.661836 3.142969,2.21641 3.952076,2.836242 4.75673,3.643979 0.74244,0.745284 1.452773,1.795949 1.452773,2.148814 0,0.230758 -0.05542,0.223332 -0.751521,-0.100687 l -3e-6,-10e-7 z"
         style="fill:#d2691e;fill-opacity:1;fill-rule:nonzero;stroke:none" />
      <path
         inkscape:connector-curvature="0"
         transform="translate(107.68179,77.083649)"
         id="path24318"
         d="m 133.17052,128.5874 c -0.97737,-0.30552 -2.87499,-1.56856 -3.64196,-2.42406 -0.20582,-0.22957 -0.20504,-0.23382 0.10162,-0.5539 l 0.30902,-0.32255 0.27636,0.2571 c 0.15198,0.1414 0.78459,0.58858 1.40578,0.99372 1.31732,0.85918 2.1643,1.6301 2.1643,1.96995 0,0.26963 -0.005,0.27033 -0.61512,0.0797 l 0,0 z"
         style="fill:#d2691e;fill-opacity:1;fill-rule:nonzero;stroke:none" />
      <path
         inkscape:connector-curvature="0"
         transform="translate(107.68179,77.083649)"
         id="path24320"
         d="m 143.82883,137.3723 c -0.57747,-0.51483 -2.65635,-2.144 -4.53563,-3.55446 -3.50807,-2.63292 -4.85066,-3.83123 -5.10931,-4.56028 -0.0913,-0.25747 0.33934,-0.35653 0.8366,-0.19242 0.42644,0.14074 0.99183,0.7571 1.08544,1.1833 0.0435,0.19787 0.22422,0.36419 0.62528,0.5753 0.85434,0.44972 1.8475,1.23476 3.29541,2.60483 1.78267,1.68683 2.42347,2.20539 3.47436,2.81154 0.49364,0.28473 1.11526,0.71839 1.38138,0.96368 0.47046,0.43366 0.47677,0.44797 0.22812,0.51772 -0.54318,0.15236 -0.79647,0.0833 -1.28165,-0.3492 l 0,-1e-5 z"
         style="fill:#d2691e;fill-opacity:1;fill-rule:nonzero;stroke:none" />
      <path
         inkscape:connector-curvature="0"
         transform="translate(107.68179,77.083649)"
         id="path24322"
         d="m 110.35151,101.13686 c 0,-0.13969 0.35749,-0.86911 0.50682,-1.03412 0.20828,-0.230143 0.66405,-0.254996 0.74629,-0.0407 0.0639,0.16643 -0.20683,0.76098 -0.40115,0.88108 -0.15572,0.0962 -0.85196,0.25457 -0.85196,0.19374 l 0,0 z"
         style="fill:#dcdcdc;fill-opacity:1;fill-rule:nonzero;stroke:none" />
      <path
         inkscape:connector-curvature="0"
         transform="translate(107.68179,77.083649)"
         id="path24324"
         d="m 94.476783,55.525353 c 0,-0.296976 0.02749,-0.539957 0.0611,-0.539957 0.209151,0 0.51897,0.2856 0.649991,0.599176 0.205385,0.491555 0.211665,0.480738 -0.279121,0.480738 l -0.431965,0 0,-0.539957 z"
         style="fill:#dcdcdc;fill-opacity:1;fill-rule:nonzero;stroke:none" />
    </g>
  </g>
</svg>
