<?xml version="1.0" encoding="UTF-8" standalone="no"?>
<!-- Created with Inkscape (http://www.inkscape.org/) -->

<svg
   xmlns:dc="http://purl.org/dc/elements/1.1/"
   xmlns:cc="http://creativecommons.org/ns#"
   xmlns:rdf="http://www.w3.org/1999/02/22-rdf-syntax-ns#"
   xmlns:svg="http://www.w3.org/2000/svg"
   xmlns="http://www.w3.org/2000/svg"
   xmlns:xlink="http://www.w3.org/1999/xlink"
   xmlns:sodipodi="http://sodipodi.sourceforge.net/DTD/sodipodi-0.dtd"
   xmlns:inkscape="http://www.inkscape.org/namespaces/inkscape"
   width="88.466614"
   height="116.18555"
   id="svg75231"
   version="1.1"
   inkscape:version="0.48.1 r9760"
   sodipodi:docname="New document 84">
  <defs
     id="defs75233">
    <radialGradient
       inkscape:collect="always"
       xlink:href="#linearGradient2762"
       id="radialGradient6708"
       gradientUnits="userSpaceOnUse"
       cx="267.14285"
       cy="288.07648"
       fx="238.57143"
       fy="262.36218"
       r="58.57143" />
    <linearGradient
       id="linearGradient2762">
      <stop
         id="stop2764"
         offset="0"
         style="stop-color:white;stop-opacity:1;" />
      <stop
         id="stop2766"
         offset="1"
         style="stop-color:white;stop-opacity:0;" />
    </linearGradient>
    <radialGradient
       inkscape:collect="always"
       xlink:href="#linearGradient2762"
       id="radialGradient6710"
       gradientUnits="userSpaceOnUse"
       cx="267.14285"
       cy="288.07648"
       fx="238.57143"
       fy="262.36218"
       r="58.57143" />
    <linearGradient
       id="linearGradient74991">
      <stop
         id="stop74993"
         offset="0"
         style="stop-color:white;stop-opacity:1;" />
      <stop
         id="stop74995"
         offset="1"
         style="stop-color:white;stop-opacity:0;" />
    </linearGradient>
    <linearGradient
       inkscape:collect="always"
       xlink:href="#linearGradient3218"
       id="linearGradient6712"
       gradientUnits="userSpaceOnUse"
       x1="430.80701"
       y1="710.11023"
       x2="505.71298"
       y2="715.18878" />
    <linearGradient
       id="linearGradient3218">
      <stop
         style="stop-color:#ffffff;stop-opacity:1;"
         offset="0"
         id="stop3220" />
      <stop
         style="stop-color:#868986;stop-opacity:0.99215686;"
         offset="1"
         id="stop3222" />
    </linearGradient>
    <linearGradient
       inkscape:collect="always"
       xlink:href="#linearGradient3195"
       id="linearGradient6714"
       gradientUnits="userSpaceOnUse"
       x1="412.30576"
       y1="753.88586"
       x2="426.66806"
       y2="709.18024" />
    <linearGradient
       inkscape:collect="always"
       id="linearGradient3195">
      <stop
         style="stop-color:#000000;stop-opacity:1;"
         offset="0"
         id="stop3197" />
      <stop
         style="stop-color:#000000;stop-opacity:0;"
         offset="1"
         id="stop3199" />
    </linearGradient>
    <linearGradient
       inkscape:collect="always"
       xlink:href="#linearGradient3187"
       id="linearGradient6716"
       gradientUnits="userSpaceOnUse"
       x1="389.97455"
       y1="739.19885"
       x2="475.66742"
       y2="722.70135" />
    <linearGradient
       inkscape:collect="always"
       id="linearGradient3187">
      <stop
         style="stop-color:#000000;stop-opacity:0"
         offset="0"
         id="stop3189" />
      <stop
         style="stop-color:#000000;stop-opacity:0"
         offset="1"
         id="stop3191" />
    </linearGradient>
    <linearGradient
       inkscape:collect="always"
       xlink:href="#linearGradient3176"
       id="linearGradient6718"
       gradientUnits="userSpaceOnUse"
       gradientTransform="matrix(0.4974979,0,0,0.4974979,-138.59037,-250.1197)"
       x1="481.23004"
       y1="649.63824"
       x2="468.77859"
       y2="667.39246" />
    <linearGradient
       inkscape:collect="always"
       id="linearGradient3176">
      <stop
         style="stop-color:#ffffff;stop-opacity:1;"
         offset="0"
         id="stop3178" />
      <stop
         style="stop-color:#ffffff;stop-opacity:0;"
         offset="1"
         id="stop3180" />
    </linearGradient>
    <linearGradient
       inkscape:collect="always"
       xlink:href="#linearGradient3236"
       id="linearGradient6720"
       gradientUnits="userSpaceOnUse"
       gradientTransform="matrix(0.4974979,0,0,0.4974979,-132.4075,-224.79938)"
       x1="460.42502"
       y1="671.23914"
       x2="504.71866"
       y2="735.18958" />
    <linearGradient
       id="linearGradient3236">
      <stop
         style="stop-color:#a86e64;stop-opacity:1;"
         offset="0"
         id="stop3238" />
      <stop
         style="stop-color:#17120d;stop-opacity:1;"
         offset="1"
         id="stop3240" />
    </linearGradient>
    <linearGradient
       inkscape:collect="always"
       xlink:href="#linearGradient3244"
       id="linearGradient6722"
       gradientUnits="userSpaceOnUse"
       gradientTransform="matrix(0.4974979,0,0,0.4974979,-132.4075,-224.79938)"
       x1="460.42502"
       y1="671.23914"
       x2="473.44476"
       y2="694.91138" />
    <linearGradient
       inkscape:collect="always"
       id="linearGradient3244">
      <stop
         style="stop-color:#000000;stop-opacity:1;"
         offset="0"
         id="stop3246" />
      <stop
         style="stop-color:#000000;stop-opacity:0;"
         offset="1"
         id="stop3248" />
    </linearGradient>
    <linearGradient
       inkscape:collect="always"
       xlink:href="#linearGradient3236"
       id="linearGradient6724"
       gradientUnits="userSpaceOnUse"
       gradientTransform="matrix(0.4974979,0,0,0.4974979,-138.59037,-250.1197)"
       x1="346.96225"
       y1="627.4455"
       x2="599.92731"
       y2="627.4455" />
    <linearGradient
       id="linearGradient75022">
      <stop
         style="stop-color:#a86e64;stop-opacity:1;"
         offset="0"
         id="stop75024" />
      <stop
         style="stop-color:#17120d;stop-opacity:1;"
         offset="1"
         id="stop75026" />
    </linearGradient>
    <linearGradient
       inkscape:collect="always"
       xlink:href="#linearGradient3236"
       id="linearGradient6726"
       gradientUnits="userSpaceOnUse"
       gradientTransform="matrix(0.4974979,0,0,0.4974979,-138.59037,-250.1197)"
       x1="348.14584"
       y1="753.50018"
       x2="601.1109"
       y2="753.50018" />
    <linearGradient
       id="linearGradient75029">
      <stop
         style="stop-color:#a86e64;stop-opacity:1;"
         offset="0"
         id="stop75031" />
      <stop
         style="stop-color:#17120d;stop-opacity:1;"
         offset="1"
         id="stop75033" />
    </linearGradient>
    <linearGradient
       inkscape:collect="always"
       xlink:href="#linearGradient3218"
       id="linearGradient6728"
       gradientUnits="userSpaceOnUse"
       x1="430.80701"
       y1="710.11023"
       x2="505.71298"
       y2="715.18878" />
    <linearGradient
       id="linearGradient75036">
      <stop
         style="stop-color:#ffffff;stop-opacity:1;"
         offset="0"
         id="stop75038" />
      <stop
         style="stop-color:#868986;stop-opacity:0.99215686;"
         offset="1"
         id="stop75040" />
    </linearGradient>
    <linearGradient
       inkscape:collect="always"
       xlink:href="#linearGradient3195"
       id="linearGradient6730"
       gradientUnits="userSpaceOnUse"
       x1="412.30576"
       y1="753.88586"
       x2="426.66806"
       y2="709.18024" />
    <linearGradient
       inkscape:collect="always"
       xlink:href="#linearGradient3187"
       id="linearGradient6732"
       gradientUnits="userSpaceOnUse"
       x1="389.97455"
       y1="739.19885"
       x2="475.66742"
       y2="722.70135" />
    <linearGradient
       inkscape:collect="always"
       xlink:href="#linearGradient3176"
       id="linearGradient6734"
       gradientUnits="userSpaceOnUse"
       gradientTransform="matrix(0.4974979,0,0,0.4974979,-138.59037,-250.1197)"
       x1="481.23004"
       y1="649.63824"
       x2="468.77859"
       y2="667.39246" />
    <linearGradient
       inkscape:collect="always"
       xlink:href="#linearGradient3236"
       id="linearGradient6736"
       gradientUnits="userSpaceOnUse"
       gradientTransform="matrix(0.4974979,0,0,0.4974979,-132.4075,-224.79938)"
       x1="460.42502"
       y1="671.23914"
       x2="504.71866"
       y2="735.18958" />
    <linearGradient
       id="linearGradient75064">
      <stop
         style="stop-color:#a86e64;stop-opacity:1;"
         offset="0"
         id="stop75066" />
      <stop
         style="stop-color:#17120d;stop-opacity:1;"
         offset="1"
         id="stop75068" />
    </linearGradient>
    <linearGradient
       inkscape:collect="always"
       xlink:href="#linearGradient3244"
       id="linearGradient6738"
       gradientUnits="userSpaceOnUse"
       gradientTransform="matrix(0.4974979,0,0,0.4974979,-132.4075,-224.79938)"
       x1="460.42502"
       y1="671.23914"
       x2="473.44476"
       y2="694.91138" />
    <linearGradient
       inkscape:collect="always"
       xlink:href="#linearGradient3236"
       id="linearGradient6740"
       gradientUnits="userSpaceOnUse"
       gradientTransform="matrix(0.4974979,0,0,0.4974979,-138.59037,-250.1197)"
       x1="346.96225"
       y1="627.4455"
       x2="599.92731"
       y2="627.4455" />
    <linearGradient
       id="linearGradient75078">
      <stop
         style="stop-color:#a86e64;stop-opacity:1;"
         offset="0"
         id="stop75080" />
      <stop
         style="stop-color:#17120d;stop-opacity:1;"
         offset="1"
         id="stop75082" />
    </linearGradient>
    <linearGradient
       inkscape:collect="always"
       xlink:href="#linearGradient3236"
       id="linearGradient6743"
       gradientUnits="userSpaceOnUse"
       gradientTransform="matrix(0.4974979,0,0,0.4974979,-138.59037,-250.1197)"
       x1="348.14584"
       y1="753.50018"
       x2="601.1109"
       y2="753.50018" />
    <linearGradient
       id="linearGradient75085">
      <stop
         style="stop-color:#a86e64;stop-opacity:1;"
         offset="0"
         id="stop75087" />
      <stop
         style="stop-color:#17120d;stop-opacity:1;"
         offset="1"
         id="stop75089" />
    </linearGradient>
    <filter
       color-interpolation-filters="sRGB"
       id="filter5011"
       inkscape:collect="always">
      <feGaussianBlur
         id="feGaussianBlur5013"
         stdDeviation="0.5840858"
         inkscape:collect="always" />
    </filter>
    <filter
       color-interpolation-filters="sRGB"
       id="filter3590"
       inkscape:collect="always">
      <feGaussianBlur
         id="feGaussianBlur3592"
         stdDeviation="3.039375"
         inkscape:collect="always" />
    </filter>
    <linearGradient
       inkscape:collect="always"
       xlink:href="#linearGradient2656"
       id="linearGradient6745"
       gradientUnits="userSpaceOnUse"
       gradientTransform="matrix(0.0601433,0,0,0.0601433,614.732,464.434)"
       x1="-8673.5898"
       y1="857.26526"
       x2="-10086.245"
       y2="857.26526" />
    <linearGradient
       id="linearGradient2656">
      <stop
         style="stop-color:#480c00;stop-opacity:1;"
         offset="0"
         id="stop2658" />
      <stop
         id="stop2660"
         offset="0.69327754"
         style="stop-color:#a06400;stop-opacity:1" />
      <stop
         id="stop2662"
         offset="0.72342867"
         style="stop-color:#ecd450;stop-opacity:1" />
      <stop
         style="stop-color:#682c00;stop-opacity:1"
         offset="0.7950058"
         id="stop2664" />
      <stop
         id="stop2666"
         offset="0.82530051"
         style="stop-color:#a47200;stop-opacity:1;" />
      <stop
         style="stop-color:#e4c844;stop-opacity:1"
         offset="0.8617478"
         id="stop2668" />
      <stop
         style="stop-color:#783c00;stop-opacity:1"
         offset="0.9437533"
         id="stop2670" />
      <stop
         id="stop2672"
         offset="0.97130442"
         style="stop-color:#e8cc48;stop-opacity:1" />
      <stop
         style="stop-color:#480c00;stop-opacity:1"
         offset="1"
         id="stop2674" />
    </linearGradient>
    <linearGradient
       inkscape:collect="always"
       xlink:href="#linearGradient2656"
       id="linearGradient6747"
       gradientUnits="userSpaceOnUse"
       gradientTransform="matrix(0,0.0601433,-0.0601433,0,179.069,1079.0774)"
       x1="-8673.5898"
       y1="857.26526"
       x2="-10086.245"
       y2="857.26526" />
    <linearGradient
       id="linearGradient75111">
      <stop
         style="stop-color:#480c00;stop-opacity:1;"
         offset="0"
         id="stop75113" />
      <stop
         id="stop75115"
         offset="0.69327754"
         style="stop-color:#a06400;stop-opacity:1" />
      <stop
         id="stop75117"
         offset="0.72342867"
         style="stop-color:#ecd450;stop-opacity:1" />
      <stop
         style="stop-color:#682c00;stop-opacity:1"
         offset="0.7950058"
         id="stop75119" />
      <stop
         id="stop75121"
         offset="0.82530051"
         style="stop-color:#a47200;stop-opacity:1;" />
      <stop
         style="stop-color:#e4c844;stop-opacity:1"
         offset="0.8617478"
         id="stop75123" />
      <stop
         style="stop-color:#783c00;stop-opacity:1"
         offset="0.9437533"
         id="stop75125" />
      <stop
         id="stop75127"
         offset="0.97130442"
         style="stop-color:#e8cc48;stop-opacity:1" />
      <stop
         style="stop-color:#480c00;stop-opacity:1"
         offset="1"
         id="stop75129" />
    </linearGradient>
    <linearGradient
       inkscape:collect="always"
       xlink:href="#linearGradient2656"
       id="linearGradient6749"
       gradientUnits="userSpaceOnUse"
       gradientTransform="matrix(-0.0601433,0,0,-0.0601433,-365.808,643.4148)"
       x1="-8673.5898"
       y1="857.26526"
       x2="-10086.245"
       y2="857.26526" />
    <linearGradient
       id="linearGradient75132">
      <stop
         style="stop-color:#480c00;stop-opacity:1;"
         offset="0"
         id="stop75134" />
      <stop
         id="stop75136"
         offset="0.69327754"
         style="stop-color:#a06400;stop-opacity:1" />
      <stop
         id="stop75138"
         offset="0.72342867"
         style="stop-color:#ecd450;stop-opacity:1" />
      <stop
         style="stop-color:#682c00;stop-opacity:1"
         offset="0.7950058"
         id="stop75140" />
      <stop
         id="stop75142"
         offset="0.82530051"
         style="stop-color:#a47200;stop-opacity:1;" />
      <stop
         style="stop-color:#e4c844;stop-opacity:1"
         offset="0.8617478"
         id="stop75144" />
      <stop
         style="stop-color:#783c00;stop-opacity:1"
         offset="0.9437533"
         id="stop75146" />
      <stop
         id="stop75148"
         offset="0.97130442"
         style="stop-color:#e8cc48;stop-opacity:1" />
      <stop
         style="stop-color:#480c00;stop-opacity:1"
         offset="1"
         id="stop75150" />
    </linearGradient>
    <linearGradient
       inkscape:collect="always"
       xlink:href="#linearGradient2656"
       id="linearGradient6751"
       gradientUnits="userSpaceOnUse"
       gradientTransform="matrix(0,-0.0601433,0.0601433,0,0.088,28.7713)"
       x1="-8673.5898"
       y1="857.26526"
       x2="-10086.245"
       y2="857.26526" />
    <linearGradient
       id="linearGradient75153">
      <stop
         style="stop-color:#480c00;stop-opacity:1;"
         offset="0"
         id="stop75155" />
      <stop
         id="stop75157"
         offset="0.69327754"
         style="stop-color:#a06400;stop-opacity:1" />
      <stop
         id="stop75159"
         offset="0.72342867"
         style="stop-color:#ecd450;stop-opacity:1" />
      <stop
         style="stop-color:#682c00;stop-opacity:1"
         offset="0.7950058"
         id="stop75161" />
      <stop
         id="stop75163"
         offset="0.82530051"
         style="stop-color:#a47200;stop-opacity:1;" />
      <stop
         style="stop-color:#e4c844;stop-opacity:1"
         offset="0.8617478"
         id="stop75165" />
      <stop
         style="stop-color:#783c00;stop-opacity:1"
         offset="0.9437533"
         id="stop75167" />
      <stop
         id="stop75169"
         offset="0.97130442"
         style="stop-color:#e8cc48;stop-opacity:1" />
      <stop
         style="stop-color:#480c00;stop-opacity:1"
         offset="1"
         id="stop75171" />
    </linearGradient>
  </defs>
  <sodipodi:namedview
     id="base"
     pagecolor="#ffffff"
     bordercolor="#666666"
     borderopacity="1.0"
     inkscape:pageopacity="0.0"
     inkscape:pageshadow="2"
     inkscape:zoom="0.35"
     inkscape:cx="375"
     inkscape:cy="520"
     inkscape:document-units="px"
     inkscape:current-layer="layer1"
     showgrid="false"
     fit-margin-top="0"
     fit-margin-left="0"
     fit-margin-right="0"
     fit-margin-bottom="0"
     inkscape:window-width="1912"
     inkscape:window-height="1049"
     inkscape:window-x="0"
     inkscape:window-y="0"
     inkscape:window-maximized="1" />
  <metadata
     id="metadata75236">
    <rdf:RDF>
      <cc:Work
         rdf:about="">
        <dc:format>image/svg+xml</dc:format>
        <dc:type
           rdf:resource="http://purl.org/dc/dcmitype/StillImage" />
        <dc:title></dc:title>
      </cc:Work>
    </rdf:RDF>
  </metadata>
  <g
     inkscape:label="Layer 1"
     inkscape:groupmode="layer"
     id="layer1"
     transform="translate(-3.1768479e-8,-936.17663)">
    <g
       transform="matrix(0.342729,0,0,0.342729,-37.048441,910.23423)"
       id="g6645"
       inkscape:label="Ebene 1">
      <g
         inkscape:label="Layer 1"
         id="g2640"
         transform="matrix(0.09899954,0,0,0.09899954,178.45321,224.29702)">
        <path
           sodipodi:type="arc"
           style="fill:#b3b3b3;fill-opacity:1;stroke:none"
           id="path1878"
           sodipodi:cx="267.14285"
           sodipodi:cy="288.07648"
           sodipodi:rx="58.57143"
           sodipodi:ry="58.57143"
           d="m 325.71428,288.07648 c 0,32.3481 -26.22332,58.57143 -58.57143,58.57143 -32.3481,0 -58.57143,-26.22333 -58.57143,-58.57143 0,-32.34811 26.22333,-58.57143 58.57143,-58.57143 32.34811,0 58.57143,26.22332 58.57143,58.57143 z"
           transform="matrix(2.502439,0,0,2.502439,-484.7944,-540.3173)"
           
           inkscape:export-xdpi="55.259998"
           inkscape:export-ydpi="55.259998" />
        <path
           sodipodi:type="arc"
           style="fill:url(#radialGradient6708);fill-opacity:1;stroke:none"
           id="path1874"
           sodipodi:cx="267.14285"
           sodipodi:cy="288.07648"
           sodipodi:rx="58.57143"
           sodipodi:ry="58.57143"
           d="m 325.71428,288.07648 c 0,32.3481 -26.22332,58.57143 -58.57143,58.57143 -32.3481,0 -58.57143,-26.22333 -58.57143,-58.57143 0,-32.34811 26.22333,-58.57143 58.57143,-58.57143 32.34811,0 58.57143,26.22332 58.57143,58.57143 z"
           transform="matrix(2.502439,0,0,2.502439,-484.7944,-540.3173)"
           
           inkscape:export-xdpi="55.259998"
           inkscape:export-ydpi="55.259998" />
        <path
           sodipodi:type="arc"
           style="fill:#0087b8;fill-opacity:1;stroke:none"
           id="path2772"
           sodipodi:cx="400"
           sodipodi:cy="398.07648"
           sodipodi:rx="22.857143"
           sodipodi:ry="22.857143"
           d="m 422.85714,398.07648 c 0,12.62365 -10.23349,22.85714 -22.85714,22.85714 -12.62365,0 -22.85714,-10.23349 -22.85714,-22.85714 0,-12.62365 10.23349,-22.85715 22.85714,-22.85715 12.62365,0 22.85714,10.2335 22.85714,22.85715 z"
           transform="matrix(3.104588,0,0,3.104588,-1058.121,-1055.287)"
           
           inkscape:export-xdpi="55.259998"
           inkscape:export-ydpi="55.259998" />
        <path
           sodipodi:type="star"
           style="fill:#000080;fill-opacity:1;stroke:none"
           id="path2774"
           sodipodi:sides="30"
           sodipodi:cx="211.42857"
           sodipodi:cy="603.79077"
           sodipodi:r1="93.590508"
           sodipodi:r2="4.6795254"
           sodipodi:arg1="0.54565505"
           sodipodi:arg2="0.65037481"
           inkscape:flatsided="false"
           inkscape:rounded="0.1"
           inkscape:randomized="0"
           d="m 291.42857,652.3622 c -4.61568,7.6023 -70.89071,-52.81624 -76.27576,-45.73805 -5.38506,7.07819 70.52443,54.83306 64.429,61.30958 -6.09543,6.47652 -58.36046,-66.40108 -65.09948,-60.59718 -6.73902,5.8039 57.58287,68.29767 50.2741,73.36536 -7.30878,5.06768 -43.27959,-77.08388 -51.07804,-72.80793 -7.79845,4.27594 42.12466,78.77736 33.92197,82.21472 -8.20269,3.43736 -26.30718,-84.39774 -34.82424,-81.83663 -8.51706,2.56112 24.82541,85.8141 16.0873,87.47091 -8.73811,1.65682 -8.18503,-88.02302 -17.04846,-87.28866 -8.86343,0.73435 6.44116,89.10034 -2.45048,88.90419 -8.89163,-0.19614 10.29485,-87.80127 1.47243,-88.92577 -8.82242,-1.1245 -12.2246,88.49248 -20.88115,86.45195 -8.65655,-2.04054 28.32479,-83.74219 19.92896,-86.6764 -8.39583,-2.93421 -30.35609,84.01707 -38.39922,80.22133 -8.04313,-3.79575 45.11681,-76.02316 37.5145,-80.63885 -7.6023,-4.61568 -47.16086,75.86971 -54.23905,70.48465 -7.07819,-5.38505 59.937,-64.98156 53.46048,-71.07699 -6.47653,-6.09543 -61.90449,64.40648 -67.70839,57.66746 -5.80389,-6.73902 72.13766,-51.09995 67.06998,-58.40873 -5.06769,-7.30877 -73.94259,50.12838 -78.21853,42.32993 -4.27595,-7.79846 81.18555,-34.98504 77.74819,-43.18773 -3.43737,-8.20269 -82.74904,33.65943 -85.31016,25.14237 -2.56112,-8.51706 86.68526,-17.34111 85.02844,-26.07922 -1.65681,-8.73811 -87.93896,15.7194 -88.67331,6.85597 -0.73436,-8.86343 88.39639,1.06072 88.59254,-7.83091 0.19614,-8.89164 -89.28553,-2.90765 -88.16103,-11.73007 1.1245,-8.82242 86.24418,19.41618 88.28472,10.75963 2.04053,-8.65655 -86.72989,-21.40762 -83.79568,-29.80345 2.93421,-8.39583 80.32269,36.92307 84.11843,28.87994 3.79574,-8.04313 -80.38374,-38.97197 -75.76805,-46.57428 4.61568,-7.6023 70.8907,52.81624 76.27576,45.73805 5.38506,-7.07819 -70.52443,-54.83306 -64.429,-61.30958 6.09543,-6.47652 58.36046,66.40108 65.09948,60.59718 6.73902,-5.80389 -57.58288,-68.29767 -50.2741,-73.36536 7.30877,-5.06768 43.27958,77.08388 51.07804,72.80794 7.79845,-4.27595 -42.12467,-78.77736 -33.92198,-82.21473 8.2027,-3.43736 26.30719,84.39775 34.82425,81.83663 8.51705,-2.56112 -24.82541,-85.8141 -16.0873,-87.47091 8.73811,-1.65681 8.18503,88.02302 17.04846,87.28867 8.86342,-0.73436 -6.44116,-89.10035 2.45047,-88.9042 8.89164,0.19615 -10.29484,87.80127 -1.47242,88.92577 8.82242,1.1245 12.2246,-88.49248 20.88115,-86.45194 8.65654,2.04053 -28.32479,83.74218 -19.92896,86.67639 8.39583,2.93422 30.35608,-84.01707 38.39921,-80.22132 8.04313,3.79574 -45.1168,76.02316 -37.5145,80.63884 7.60231,4.61569 47.16087,-75.86971 54.23906,-70.48465 7.07819,5.38506 -59.937,64.98156 -53.46048,71.07699 6.47652,6.09543 61.90449,-64.40648 67.70838,-57.66746 5.8039,6.73902 -72.13765,51.09995 -67.06997,58.40873 5.06768,7.30877 73.94258,-50.12838 78.21853,-42.32993 4.27595,7.79846 -81.18555,34.98504 -77.74819,43.18773 3.43736,8.20269 82.74904,-33.65942 85.31015,-25.14236 2.56112,8.51705 -86.68525,17.3411 -85.02844,26.07921 1.65682,8.73811 87.93896,-15.71939 88.67332,-6.85597 0.73435,8.86343 -88.39639,-1.06072 -88.59254,7.83092 -0.19615,8.89163 89.28553,2.90765 88.16103,11.73007 -1.12451,8.82242 -86.24418,-19.41619 -88.28472,-10.75964 -2.04054,8.65655 86.72989,21.40762 83.79568,29.80345 -2.93422,8.39583 -80.32269,-36.92307 -84.11843,-28.87993 -3.79575,8.04313 80.38374,38.97196 75.76805,46.57427 z"
           transform="matrix(0.748434,0,0,0.68749,25.47382,-234.5237)"
           
           inkscape:export-xdpi="55.259998"
           inkscape:export-ydpi="55.259998" />
        <path
           sodipodi:type="arc"
           style="fill:#000000;fill-opacity:1;stroke:none"
           id="path2770"
           sodipodi:cx="267.14285"
           sodipodi:cy="416.64789"
           sodipodi:rx="10"
           sodipodi:ry="10"
           d="m 277.14285,416.64789 c 0,5.52285 -4.47715,10 -10,10 -5.52284,0 -10,-4.47715 -10,-10 0,-5.52285 4.47716,-10 10,-10 5.52285,0 10,4.47715 10,10 z"
           transform="matrix(3.104588,0,0,3.104588,-645.6542,-1112.944)"
           
           inkscape:export-xdpi="55.259998"
           inkscape:export-ydpi="55.259998" />
        <path
           sodipodi:type="arc"
           style="fill:#ffffff;fill-opacity:0.50196078;stroke:none"
           id="path3653"
           sodipodi:cx="190.5"
           sodipodi:cy="330.86218"
           sodipodi:rx="69.380531"
           sodipodi:ry="63.5"
           d="m 137.75014,289.61419 c 5.8141,-6.22836 12.89005,-11.36823 20.83768,-15.13622 L 190.5,330.86218 z"
           sodipodi:start="3.8486176"
           sodipodi:end="4.2344403"
           transform="matrix(2.035942,0,0,2.236147,-202.9292,-558.6024)"
           
           inkscape:export-xdpi="55.259998"
           inkscape:export-ydpi="55.259998" />
      </g>
      <g
         inkscape:label="Layer 1"
         id="g2648"
         transform="matrix(0.1015378,0,0,0.1015378,223.53181,210.71316)">
        <path
           sodipodi:type="arc"
           style="fill:#b3b3b3;fill-opacity:1;stroke:none"
           id="path2650"
           sodipodi:cx="267.14285"
           sodipodi:cy="288.07648"
           sodipodi:rx="58.57143"
           sodipodi:ry="58.57143"
           d="m 325.71428,288.07648 c 0,32.3481 -26.22332,58.57143 -58.57143,58.57143 -32.3481,0 -58.57143,-26.22333 -58.57143,-58.57143 0,-32.34811 26.22333,-58.57143 58.57143,-58.57143 32.34811,0 58.57143,26.22332 58.57143,58.57143 z"
           transform="matrix(2.502439,0,0,2.502439,-484.7944,-540.3173)"
           
           inkscape:export-xdpi="55.259998"
           inkscape:export-ydpi="55.259998" />
        <path
           sodipodi:type="arc"
           style="fill:url(#radialGradient6710);fill-opacity:1;stroke:none"
           id="path2652"
           sodipodi:cx="267.14285"
           sodipodi:cy="288.07648"
           sodipodi:rx="58.57143"
           sodipodi:ry="58.57143"
           d="m 325.71428,288.07648 c 0,32.3481 -26.22332,58.57143 -58.57143,58.57143 -32.3481,0 -58.57143,-26.22333 -58.57143,-58.57143 0,-32.34811 26.22333,-58.57143 58.57143,-58.57143 32.34811,0 58.57143,26.22332 58.57143,58.57143 z"
           transform="matrix(2.502439,0,0,2.502439,-484.7944,-540.3173)"
           
           inkscape:export-xdpi="55.259998"
           inkscape:export-ydpi="55.259998" />
        <path
           sodipodi:type="arc"
           style="fill:#0087b8;fill-opacity:1;stroke:none"
           id="path2654"
           sodipodi:cx="400"
           sodipodi:cy="398.07648"
           sodipodi:rx="22.857143"
           sodipodi:ry="22.857143"
           d="m 422.85714,398.07648 c 0,12.62365 -10.23349,22.85714 -22.85714,22.85714 -12.62365,0 -22.85714,-10.23349 -22.85714,-22.85714 0,-12.62365 10.23349,-22.85715 22.85714,-22.85715 12.62365,0 22.85714,10.2335 22.85714,22.85715 z"
           transform="matrix(3.104588,0,0,3.104588,-1058.121,-1055.287)"
           
           inkscape:export-xdpi="55.259998"
           inkscape:export-ydpi="55.259998" />
        <path
           sodipodi:type="star"
           style="fill:#000080;fill-opacity:1;stroke:none"
           id="path2656"
           sodipodi:sides="30"
           sodipodi:cx="211.42857"
           sodipodi:cy="603.79077"
           sodipodi:r1="93.590508"
           sodipodi:r2="4.6795254"
           sodipodi:arg1="0.54565505"
           sodipodi:arg2="0.65037481"
           inkscape:flatsided="false"
           inkscape:rounded="0.1"
           inkscape:randomized="0"
           d="m 291.42857,652.3622 c -4.61568,7.6023 -70.89071,-52.81624 -76.27576,-45.73805 -5.38506,7.07819 70.52443,54.83306 64.429,61.30958 -6.09543,6.47652 -58.36046,-66.40108 -65.09948,-60.59718 -6.73902,5.8039 57.58287,68.29767 50.2741,73.36536 -7.30878,5.06768 -43.27959,-77.08388 -51.07804,-72.80793 -7.79845,4.27594 42.12466,78.77736 33.92197,82.21472 -8.20269,3.43736 -26.30718,-84.39774 -34.82424,-81.83663 -8.51706,2.56112 24.82541,85.8141 16.0873,87.47091 -8.73811,1.65682 -8.18503,-88.02302 -17.04846,-87.28866 -8.86343,0.73435 6.44116,89.10034 -2.45048,88.90419 -8.89163,-0.19614 10.29485,-87.80127 1.47243,-88.92577 -8.82242,-1.1245 -12.2246,88.49248 -20.88115,86.45195 -8.65655,-2.04054 28.32479,-83.74219 19.92896,-86.6764 -8.39583,-2.93421 -30.35609,84.01707 -38.39922,80.22133 -8.04313,-3.79575 45.11681,-76.02316 37.5145,-80.63885 -7.6023,-4.61568 -47.16086,75.86971 -54.23905,70.48465 -7.07819,-5.38505 59.937,-64.98156 53.46048,-71.07699 -6.47653,-6.09543 -61.90449,64.40648 -67.70839,57.66746 -5.80389,-6.73902 72.13766,-51.09995 67.06998,-58.40873 -5.06769,-7.30877 -73.94259,50.12838 -78.21853,42.32993 -4.27595,-7.79846 81.18555,-34.98504 77.74819,-43.18773 -3.43737,-8.20269 -82.74904,33.65943 -85.31016,25.14237 -2.56112,-8.51706 86.68526,-17.34111 85.02844,-26.07922 -1.65681,-8.73811 -87.93896,15.7194 -88.67331,6.85597 -0.73436,-8.86343 88.39639,1.06072 88.59254,-7.83091 0.19614,-8.89164 -89.28553,-2.90765 -88.16103,-11.73007 1.1245,-8.82242 86.24418,19.41618 88.28472,10.75963 2.04053,-8.65655 -86.72989,-21.40762 -83.79568,-29.80345 2.93421,-8.39583 80.32269,36.92307 84.11843,28.87994 3.79574,-8.04313 -80.38374,-38.97197 -75.76805,-46.57428 4.61568,-7.6023 70.8907,52.81624 76.27576,45.73805 5.38506,-7.07819 -70.52443,-54.83306 -64.429,-61.30958 6.09543,-6.47652 58.36046,66.40108 65.09948,60.59718 6.73902,-5.80389 -57.58288,-68.29767 -50.2741,-73.36536 7.30877,-5.06768 43.27958,77.08388 51.07804,72.80794 7.79845,-4.27595 -42.12467,-78.77736 -33.92198,-82.21473 8.2027,-3.43736 26.30719,84.39775 34.82425,81.83663 8.51705,-2.56112 -24.82541,-85.8141 -16.0873,-87.47091 8.73811,-1.65681 8.18503,88.02302 17.04846,87.28867 8.86342,-0.73436 -6.44116,-89.10035 2.45047,-88.9042 8.89164,0.19615 -10.29484,87.80127 -1.47242,88.92577 8.82242,1.1245 12.2246,-88.49248 20.88115,-86.45194 8.65654,2.04053 -28.32479,83.74218 -19.92896,86.67639 8.39583,2.93422 30.35608,-84.01707 38.39921,-80.22132 8.04313,3.79574 -45.1168,76.02316 -37.5145,80.63884 7.60231,4.61569 47.16087,-75.86971 54.23906,-70.48465 7.07819,5.38506 -59.937,64.98156 -53.46048,71.07699 6.47652,6.09543 61.90449,-64.40648 67.70838,-57.66746 5.8039,6.73902 -72.13765,51.09995 -67.06997,58.40873 5.06768,7.30877 73.94258,-50.12838 78.21853,-42.32993 4.27595,7.79846 -81.18555,34.98504 -77.74819,43.18773 3.43736,8.20269 82.74904,-33.65942 85.31015,-25.14236 2.56112,8.51705 -86.68525,17.3411 -85.02844,26.07921 1.65682,8.73811 87.93896,-15.71939 88.67332,-6.85597 0.73435,8.86343 -88.39639,-1.06072 -88.59254,7.83092 -0.19615,8.89163 89.28553,2.90765 88.16103,11.73007 -1.12451,8.82242 -86.24418,-19.41619 -88.28472,-10.75964 -2.04054,8.65655 86.72989,21.40762 83.79568,29.80345 -2.93422,8.39583 -80.32269,-36.92307 -84.11843,-28.87993 -3.79575,8.04313 80.38374,38.97196 75.76805,46.57427 z"
           transform="matrix(0.748434,0,0,0.68749,25.47382,-234.5237)"
           
           inkscape:export-xdpi="55.259998"
           inkscape:export-ydpi="55.259998" />
        <path
           sodipodi:type="arc"
           style="fill:#000000;fill-opacity:1;stroke:none"
           id="path2658"
           sodipodi:cx="267.14285"
           sodipodi:cy="416.64789"
           sodipodi:rx="10"
           sodipodi:ry="10"
           d="m 277.14285,416.64789 c 0,5.52285 -4.47715,10 -10,10 -5.52284,0 -10,-4.47715 -10,-10 0,-5.52285 4.47716,-10 10,-10 5.52285,0 10,4.47715 10,10 z"
           transform="matrix(3.104588,0,0,3.104588,-645.6542,-1112.944)"
           
           inkscape:export-xdpi="55.259998"
           inkscape:export-ydpi="55.259998" />
        <path
           sodipodi:type="arc"
           style="fill:#ffffff;fill-opacity:0.50196078;stroke:none"
           id="path2660"
           sodipodi:cx="190.5"
           sodipodi:cy="330.86218"
           sodipodi:rx="69.380531"
           sodipodi:ry="63.5"
           d="m 137.75014,289.61419 c 5.8141,-6.22836 12.89005,-11.36823 20.83768,-15.13622 L 190.5,330.86218 z"
           sodipodi:start="3.8486176"
           sodipodi:end="4.2344403"
           transform="matrix(2.035942,0,0,2.236147,-202.9292,-558.6024)"
           
           inkscape:export-xdpi="55.259998"
           inkscape:export-ydpi="55.259998" />
      </g>
      <path
         inkscape:connector-curvature="0"
         id="rect4917"
         transform="translate(107.68179,77.083649)"
         d="m 35.6875,29.4375 c -1.194671,0 -2.15625,0.961578 -2.15625,2.15625 l 0,274.3125 c 0,1.19467 0.96158,2.15624 2.15625,2.15625 l 186.9375,0 c 1.19467,0 2.15625,-0.96157 2.15625,-2.15625 l 0,-274.3125 c 0,-1.194671 -0.96158,-2.15625 -2.15625,-2.15625 l -186.9375,0 z m 98.59375,108.53125 c 7.67769,1e-5 13.90625,6.16974 13.90625,13.78125 -1e-5,7.61152 -6.22856,13.8125 -13.90625,13.8125 -7.6777,1e-5 -13.90625,-6.20099 -13.90625,-13.8125 0,-7.6115 6.22855,-13.78125 13.90625,-13.78125 z m -45.3125,12.71875 c 7.677694,0 13.90625,6.16974 13.90625,13.78125 0,7.61151 -6.22856,13.78125 -13.90625,13.78125 -7.677696,0 -13.90625,-6.16974 -13.90625,-13.78125 -2e-6,-7.61151 6.22855,-13.78125 13.90625,-13.78125 z"
         style="fill:#4169e1;fill-opacity:1;fill-rule:nonzero;stroke:none" />
      <g
         transform="matrix(-0.3254341,0.06703183,0.06703183,0.3254341,217.81896,207.60703)"
         id="g2853"
         inkscape:label="Layer 1">
        <g
           id="g2855">
          <path
             sodipodi:type="arc"
             style="fill:url(#linearGradient6712);fill-opacity:1;stroke:none"
             id="path2857"
             sodipodi:cx="454.80289"
             sodipodi:cy="720.06317"
             sodipodi:rx="114.51445"
             sodipodi:ry="100.90292"
             d="m 569.31734,720.06317 c 0,55.72715 -51.26987,100.90292 -114.51445,100.90292 -63.24459,0 -114.51445,-45.17577 -114.51445,-100.90292 0,-55.72714 51.26986,-100.90292 114.51445,-100.90292 63.24458,0 114.51445,45.17578 114.51445,100.90292 z"
             transform="matrix(0.01302332,0.3881054,-0.5323499,0.00949455,464.4868,-92.4616)" />
          <path
             sodipodi:type="arc"
             style="fill:#008000;fill-opacity:1;stroke:none"
             id="path2859"
             sodipodi:cx="449.62796"
             sodipodi:cy="709.18024"
             sodipodi:rx="64.719177"
             sodipodi:ry="40.023701"
             d="m 514.34714,709.18024 c 0,22.10448 -28.97577,40.0237 -64.71918,40.0237 -35.74341,0 -64.71918,-17.91922 -64.71918,-40.0237 0,-22.10448 28.97577,-40.0237 64.71918,-40.0237 35.74341,0 64.71918,17.91922 64.71918,40.0237 z"
             transform="matrix(0.4974979,0,0,0.7621244,-138.59037,-448.37894)" />
          <path
             sodipodi:type="star"
             style="fill:#808000;fill-opacity:1;stroke:none"
             id="path6666"
             sodipodi:sides="35"
             sodipodi:cx="388.2247"
             sodipodi:cy="628.62915"
             sodipodi:r1="103.3426"
             sodipodi:r2="51.671303"
             sodipodi:arg1="0.65953639"
             sodipodi:arg2="0.74929618"
             inkscape:flatsided="false"
             inkscape:rounded="0"
             inkscape:randomized="0"
             d="m 469.89392,691.95238 -43.83712,-28.12869 31.21786,41.69366 -38.11007,-35.50406 23.27149,46.59779 -31.15813,-41.73832 14.57715,50.00422 -23.20474,-46.63106 5.41429,51.80349 -14.50553,-50.02505 -3.92259,51.93774 -5.34011,-51.81119 -13.13339,50.40268 3.99696,-51.93207 -21.92209,47.24763 13.20556,-50.38382 -30.00618,42.57399 21.98972,-47.21618 -37.12584,36.532 30.0671,-42.53098 -43.05226,29.31584 37.17812,-36.47881 -47.59494,21.15746 43.0942,-29.25417 -50.60788,12.31904 47.62519,-21.08928 -51.99424,3.08468 50.62547,-12.24656 -51.70946,-6.24882 51.9986,-3.01023 -49.7627,-15.38148 51.70046,6.32286 -46.21652,-24.01976 49.74062,15.45272 -41.18491,-31.88604 46.18208,24.08592 -34.82958,-38.72746 41.13921,31.94498 -27.3548,-44.32416 34.77409,38.77729 -19.00081,-48.49624 27.2913,44.36329 -10.03612,-51.10961 18.93135,48.5234 -0.74887,-52.08028 9.96293,51.12393 8.56246,-51.37704 0.67429,52.0813 17.59859,-49.02251 -8.63603,51.36473 26.06908,-45.09234 -17.66877,48.99725 33.70169,-39.71288 -26.13362,45.05497 40.25109,-33.05701 -33.75852,39.66458 45.5068,-25.33865 -40.29839,32.99933 49.29988,-16.8059 -45.54304,25.27347 51.50842,-7.73299 -49.32389,16.73529 52.06143,1.58846 -51.51943,7.65923 50.94115,10.85886 -52.0591,-1.66301 48.18358,19.78025 -50.92555,-10.9318 43.87735,28.06589 -48.15521,-19.84923 z"
             transform="matrix(0.2850143,0,0,0.2649577,-25.487232,-74.863159)" />
          <path
             sodipodi:type="star"
             style="fill:#552200;fill-opacity:1;stroke:none"
             id="path6668"
             sodipodi:sides="35"
             sodipodi:cx="388.2247"
             sodipodi:cy="628.62915"
             sodipodi:r1="103.3426"
             sodipodi:r2="51.671303"
             sodipodi:arg1="0.65953639"
             sodipodi:arg2="0.74929618"
             inkscape:flatsided="false"
             inkscape:rounded="0"
             inkscape:randomized="0"
             d="m 469.89392,691.95238 -43.83712,-28.12869 31.21786,41.69366 -38.11007,-35.50406 23.27149,46.59779 -31.15813,-41.73832 14.57715,50.00422 -23.20474,-46.63106 5.41429,51.80349 -14.50553,-50.02505 -3.92259,51.93774 -5.34011,-51.81119 -13.13339,50.40268 3.99696,-51.93207 -21.92209,47.24763 13.20556,-50.38382 -30.00618,42.57399 21.98972,-47.21618 -37.12584,36.532 30.0671,-42.53098 -43.05226,29.31584 37.17812,-36.47881 -47.59494,21.15746 43.0942,-29.25417 -50.60788,12.31904 47.62519,-21.08928 -51.99424,3.08468 50.62547,-12.24656 -51.70946,-6.24882 51.9986,-3.01023 -49.7627,-15.38148 51.70046,6.32286 -46.21652,-24.01976 49.74062,15.45272 -41.18491,-31.88604 46.18208,24.08592 -34.82958,-38.72746 41.13921,31.94498 -27.3548,-44.32416 34.77409,38.77729 -19.00081,-48.49624 27.2913,44.36329 -10.03612,-51.10961 18.93135,48.5234 -0.74887,-52.08028 9.96293,51.12393 8.56246,-51.37704 0.67429,52.0813 17.59859,-49.02251 -8.63603,51.36473 26.06908,-45.09234 -17.66877,48.99725 33.70169,-39.71288 -26.13362,45.05497 40.25109,-33.05701 -33.75852,39.66458 45.5068,-25.33865 -40.29839,32.99933 49.29988,-16.8059 -45.54304,25.27347 51.50842,-7.73299 -49.32389,16.73529 52.06143,1.58846 -51.51943,7.65923 50.94115,10.85886 -52.0591,-1.66301 48.18358,19.78025 -50.92555,-10.9318 43.87735,28.06589 -48.15521,-19.84923 z"
             transform="matrix(0.2834224,0.03008161,-0.02796476,0.2634778,-6.6707358,-85.2803)" />
          <path
             sodipodi:type="star"
             style="fill:#483737;fill-opacity:1;stroke:none"
             id="path6670"
             sodipodi:sides="35"
             sodipodi:cx="388.2247"
             sodipodi:cy="628.62915"
             sodipodi:r1="103.3426"
             sodipodi:r2="51.671303"
             sodipodi:arg1="0.65953639"
             sodipodi:arg2="0.74929618"
             inkscape:flatsided="false"
             inkscape:rounded="0"
             inkscape:randomized="0"
             d="m 469.89392,691.95238 -43.83712,-28.12869 31.21786,41.69366 -38.11007,-35.50406 23.27149,46.59779 -31.15813,-41.73832 14.57715,50.00422 -23.20474,-46.63106 5.41429,51.80349 -14.50553,-50.02505 -3.92259,51.93774 -5.34011,-51.81119 -13.13339,50.40268 3.99696,-51.93207 -21.92209,47.24763 13.20556,-50.38382 -30.00618,42.57399 21.98972,-47.21618 -37.12584,36.532 30.0671,-42.53098 -43.05226,29.31584 37.17812,-36.47881 -47.59494,21.15746 43.0942,-29.25417 -50.60788,12.31904 47.62519,-21.08928 -51.99424,3.08468 50.62547,-12.24656 -51.70946,-6.24882 51.9986,-3.01023 -49.7627,-15.38148 51.70046,6.32286 -46.21652,-24.01976 49.74062,15.45272 -41.18491,-31.88604 46.18208,24.08592 -34.82958,-38.72746 41.13921,31.94498 -27.3548,-44.32416 34.77409,38.77729 -19.00081,-48.49624 27.2913,44.36329 -10.03612,-51.10961 18.93135,48.5234 -0.74887,-52.08028 9.96293,51.12393 8.56246,-51.37704 0.67429,52.0813 17.59859,-49.02251 -8.63603,51.36473 26.06908,-45.09234 -17.66877,48.99725 33.70169,-39.71288 -26.13362,45.05497 40.25109,-33.05701 -33.75852,39.66458 45.5068,-25.33865 -40.29839,32.99933 49.29988,-16.8059 -45.54304,25.27347 51.50842,-7.73299 -49.32389,16.73529 52.06143,1.58846 -51.51943,7.65923 50.94115,10.85886 -52.0591,-1.66301 48.18358,19.78025 -50.92555,-10.9318 43.87735,28.06589 -48.15521,-19.84923 z"
             transform="matrix(0.2844677,0.01669302,-0.01640073,0.2502215,-14.937634,-72.041699)" />
          <path
             sodipodi:type="arc"
             style="fill:#000000;fill-opacity:1;stroke:none"
             id="path2867"
             sodipodi:cx="454.73737"
             sodipodi:cy="690.44574"
             sodipodi:rx="25.547043"
             sodipodi:ry="29.804884"
             d="m 480.28441,690.44574 c 0,16.46078 -11.4378,29.80488 -25.54704,29.80488 -14.10925,0 -25.54705,-13.3441 -25.54705,-29.80488 0,-16.46078 11.4378,-29.80488 25.54705,-29.80488 14.10924,0 25.54704,13.3441 25.54704,29.80488 z"
             transform="matrix(0.630164,0,0,0.4974979,-202.30783,-251.11469)" />
          <path
             sodipodi:type="arc"
             style="fill:url(#linearGradient6714);fill-opacity:1;stroke:url(#linearGradient6716);stroke-width:1;stroke-miterlimit:4;stroke-opacity:1;stroke-dasharray:none"
             id="path2869"
             sodipodi:cx="449.62796"
             sodipodi:cy="709.18024"
             sodipodi:rx="64.719177"
             sodipodi:ry="40.023701"
             d="m 514.34714,709.18024 c 0,22.10448 -28.97577,40.0237 -64.71918,40.0237 -35.74341,0 -64.71918,-17.91922 -64.71918,-40.0237 0,-22.10448 28.97577,-40.0237 64.71918,-40.0237 35.74341,0 64.71918,17.91922 64.71918,40.0237 z"
             transform="matrix(-0.4937802,0.06070648,-0.09299718,-0.7564292,372.55083,601.80236)" />
          <path
             inkscape:connector-curvature="0"
             style="fill:url(#linearGradient6718);fill-opacity:1;stroke:none"
             d="M 88.114737,71.160221 98.71394,70.865797 c 3.923,2.640947 12.54551,7.482443 9.42151,15.60438 L 94.592026,80.287313 88.114737,71.160221 z"
             id="path2871"
             sodipodi:nodetypes="ccccc" />
          <path
             inkscape:connector-curvature="0"
             style="fill:url(#linearGradient6720);fill-opacity:1;stroke:url(#linearGradient6722);stroke-width:0.49749792;stroke-miterlimit:4;stroke-opacity:1"
             d="m 157.30395,117.09008 c 0,14.30185 -30.73297,25.90915 -68.600374,25.90915 -37.86741,0 -67.011539,-48.700177 -54.17369,-42.39679 18.843022,9.25192 71.363234,14.13226 93.920684,-5.59403 28.50533,-24.927644 28.85338,7.77981 28.85338,22.08167 z"
             id="path2873"
             sodipodi:nodetypes="csssc" />
          <path
             inkscape:connector-curvature="0"
             style="fill:url(#linearGradient6724);fill-opacity:1;stroke:none"
             d="m 159.8722,59.400953 c 0,-14.301851 -30.73297,-25.909154 -68.600381,-25.909154 -37.86741,0 -67.011538,48.70018 -54.17369,42.396796 18.843022,-9.251919 71.363231,-14.132264 93.920691,5.594026 28.50532,24.927649 28.85338,-7.779813 28.85338,-22.081668 z"
             id="path2875"
             sodipodi:nodetypes="csssc" />
          <path
             inkscape:connector-curvature="0"
             style="fill:url(#linearGradient6726);fill-opacity:1;stroke:none"
             d="m 160.46103,127.37725 c 0,14.30185 -30.73296,25.90915 -68.600372,25.90915 -37.86741,0 -67.011539,-48.70018 -54.17369,-42.3968 18.843021,9.25192 71.363232,14.13227 93.920682,-5.59402 28.50533,-24.927648 28.85338,7.77981 28.85338,22.08167 z"
             id="path2877"
             sodipodi:nodetypes="csssc" />
        </g>
      </g>
      <path
         inkscape:connector-curvature="0"
         id="path4919"
         transform="translate(107.68179,77.083649)"
         d="m 121.4375,46.46875 c -32.732484,24.026166 -71.39528,-12.609747 -86.28125,194 13.296848,23.69881 16.320951,52.07436 43.96875,69.25 l 86.28125,-21.4375 C 244.46429,261.21984 201.33633,154.10408 192.34375,103.625 186.94822,73.337611 167.71642,51.565367 121.4375,46.46875 z m 12.84375,91.5 c 7.67769,1e-5 13.90625,6.16974 13.90625,13.78125 -1e-5,7.61152 -6.22856,13.8125 -13.90625,13.8125 -7.6777,1e-5 -13.90625,-6.20099 -13.90625,-13.8125 0,-7.6115 6.22855,-13.78125 13.90625,-13.78125 z m -45.3125,12.71875 c 7.677694,0 13.90625,6.16974 13.90625,13.78125 0,7.61151 -6.22856,13.78125 -13.90625,13.78125 -7.677696,0 -13.90625,-6.16974 -13.90625,-13.78125 -2e-6,-7.61151 6.22855,-13.78125 13.90625,-13.78125 z"
         style="fill:#ffd777;fill-opacity:1;fill-rule:nonzero;stroke:none" />
      <path
         inkscape:connector-curvature="0"
         id="path4921"
         transform="translate(107.68179,77.083649)"
         d="m 74.75,173.96875 c -5.117104,12.61956 -20.95132,16.51118 12.90625,80.875 6.790083,12.90807 24.51804,25.27299 23.34375,47.75 L 152.21875,290.5 131.34375,244.3125 C 81.512348,217.94291 81.700201,196.41869 74.75,173.96875 z"
         style="fill:#ffc436;fill-opacity:1;fill-rule:nonzero;stroke:none" />
      <path
         inkscape:connector-curvature="0"
         id="path4923"
         transform="translate(107.68179,77.083649)"
         d="m 172.5625,145.96875 c 3.94756,48.70009 -1.4959,94.25254 -6.03125,140.125 l 12.625,-3.3125 c 29.47541,-69.83448 12.81741,-104.36188 -6.59375,-136.8125 z"
         style="fill:#ffc436;fill-opacity:1;fill-rule:nonzero;stroke:none" />
      <path
         inkscape:connector-curvature="0"
         d="m 195.53952,149.16597 c -0.11577,0.084 -0.22564,0.17401 -0.34732,0.25209 -1.40258,0.90022 0.41344,-0.34212 -1.00366,0.63466 -0.18529,0.12773 -0.73882,0.51318 -0.55345,0.38555 1.07553,-0.74053 1.31899,-0.93509 0.33448,-0.197 -2.5528,1.93399 -4.8176,4.09317 -7.03989,6.27346 -1.66958,1.55275 -3.18146,3.2062 -4.63197,4.89162 -1.29776,1.61711 -2.62337,3.21892 -3.90287,4.84575 -1.06447,1.38324 -2.21099,2.73399 -3.15741,4.16982 -0.35078,0.51797 -0.62192,1.06359 -0.89873,1.60572 -0.0152,0.0298 0.0239,-0.0626 0.0481,-0.0885 0.10855,-0.11572 0.50149,-0.40567 0.34751,-0.33322 -0.34807,0.16374 -0.6317,0.41034 -0.94754,0.6155 1.42522,-1.13458 2.67901,-2.39442 3.97229,-3.62452 2.44938,-2.25169 4.86287,-4.52886 7.2816,-6.80248 3.50087,-3.23254 6.91138,-6.52593 10.43922,-9.73951 1.76018,-1.53284 3.6916,-2.92603 5.56731,-4.36224 2.70217,-2.0305 5.71475,-3.73096 8.66306,-5.49462 0.0668,0.0596 0.2384,0.0984 0.2005,0.17893 -0.28847,0.61288 -1.79489,1.88583 -2.12903,2.20058 -0.65998,0.62165 -1.30023,1.25705 -1.97094,1.87116 -1.79399,1.64258 -3.63809,3.24883 -5.44802,4.87991 -5.6855,4.849 -11.29016,9.77377 -16.58705,14.90515 -0.69546,0.7095 -1.39333,1.41747 -2.08638,2.12849 -0.61883,0.63485 -1.26418,1.25416 -1.84919,1.90912 -1.83555,2.0551 -3.30732,4.29753 -4.7686,6.52187 -0.35821,0.87901 -1.24976,1.69692 -1.47225,2.61447 -0.12101,0.49909 1.26582,-0.64627 0.68729,-0.31392 7.19129,-5.3444 14.53165,-10.55002 21.79422,-15.82892 5.4917,-3.95708 10.88815,-8.00856 16.72392,-11.61875 1.30563,-0.82539 2.65096,-1.60503 3.98454,-2.39772 0.59025,-0.35085 0.36328,-0.42615 0.69509,-0.14312 -0.0678,0.1407 -0.0989,0.29541 -0.20352,0.42209 -0.44238,0.53586 -2.60171,2.37193 -2.66847,2.43003 -0.85037,0.73976 -1.71649,1.46755 -2.56178,2.21114 -7.8532,6.90834 2.28889,-1.89101 -6.29935,5.53271 -6.29649,5.26787 -11.99592,10.9555 -17.57864,16.71301 -3.41416,3.54903 -6.53814,7.26891 -9.48784,11.06823 -0.80243,0.9762 -1.54126,1.98184 -2.26395,2.99471 -0.0992,0.13912 -0.12323,0.33706 -0.2926,0.4195 -0.43562,0.21205 -0.88418,0.40389 -1.32627,0.60581 3.30234,-3.47864 6.16115,-7.19948 9.22186,-10.81009 3.89389,-4.3429 8.01458,-8.55768 12.45477,-12.5513 0.95848,-0.86207 6.74527,-5.81121 7.74778,-6.67035 6.13014,-5.07923 12.3537,-10.08603 18.7955,-14.9003 0.54387,-0.40558 1.08988,-0.80923 1.63158,-1.21675 0.6395,-0.48111 1.6485,-1.2449 2.28604,-1.77095 0.81475,-0.67229 1.32243,-1.28179 2.39587,-1.83233 0.12856,-0.0659 -0.002,0.23921 -0.002,0.35881 -4.1301,4.06939 -8.53624,7.95421 -12.84693,11.89952 -8.02805,7.09811 -15.75874,14.40811 -23.30626,21.84052 -4.15428,4.20501 -8.22505,8.47051 -12.07935,12.85483 -0.43959,0.51234 -1.03741,1.17581 -1.42871,1.73677 -0.12511,0.17937 -0.44077,0.69662 -0.22912,0.5829 0.17712,-0.0952 0.3639,-0.22266 0.43063,-0.38468 0.051,-0.1237 -0.25081,0.16837 -0.37621,0.25255 6.98183,-5.09775 14.37273,-9.78118 21.68328,-14.54294 7.05328,-4.5475 14.1381,-9.0781 20.87523,-13.95032 2.271,-1.64237 4.38899,-3.37392 6.5625,-5.10327 3.54529,-2.73029 6.71163,-5.7249 9.65828,-8.87541 0.40727,-0.49291 0.99022,-0.93872 1.25366,-1.50197 0.0408,-0.0873 -0.0872,0.17852 -0.16714,0.24711 -0.91728,0.78706 -0.86842,0.3091 -0.85507,0.82437 -4.13674,3.68553 -8.5099,7.18858 -12.72429,10.81436 -2.89816,2.49337 -6.3917,5.61082 -9.24319,8.13966 -6.35804,5.66302 -12.66747,11.37073 -18.73418,17.24025 -2.68996,2.55493 -5.11236,5.27208 -7.57222,7.96763 -0.6766,0.70691 -1.18157,1.2253 -1.82785,1.93252 -0.0306,0.0335 0.0654,-0.0647 0.10215,-0.094 0.3067,-0.24447 0.60892,-0.49314 0.92777,-0.72688 1.61169,-1.1815 2.59128,-1.80593 4.33013,-2.96963 0.95203,-0.64959 1.88762,-1.31618 2.85606,-1.9488 2.47119,-1.61423 4.00472,-2.47785 6.51956,-4.02467 3.16962,-1.94955 6.32034,-3.89342 9.55718,-5.76478 3.88927,-2.39353 7.82371,-4.7602 11.43453,-7.43998 1.29085,-0.92739 2.35869,-2.03074 3.57136,-3.02062 0.91692,-0.70034 1.7139,-1.49236 2.56598,-2.24289 0.14537,-0.13173 0.29073,-0.26347 0.4361,-0.39521 l 1.70472,-0.91997 c -0.14444,0.1324 -0.28887,0.26479 -0.43331,0.3972 -0.85323,0.75052 -1.64977,1.54252 -2.55982,2.24903 -1.25354,0.98584 -2.31529,2.12263 -3.63031,3.0596 -4.54287,3.35657 -9.32137,6.47313 -14.26576,9.41205 -3.23214,1.87198 -6.38152,3.81474 -9.54893,5.76201 -3.1813,1.95581 -6.42999,3.8452 -9.4104,6.01755 -0.83623,0.56496 -1.68049,1.12183 -2.50868,1.69486 -0.0613,0.0424 -2.4503,1.82882 -3.05006,2.04272 -0.10884,0.0388 -0.29589,-0.0938 -0.24727,-0.18237 0.40936,-0.74572 1.47004,-1.20287 1.86465,-1.95065 2.48458,-2.71003 4.90289,-5.45791 7.63734,-8.01456 6.14402,-5.9212 12.57715,-11.64793 18.98385,-17.3823 2.61525,-2.32011 6.55087,-5.82598 9.20332,-8.12168 4.128,-3.57276 8.41277,-7.02545 12.45036,-10.6669 0.97067,-0.7657 1.92421,-1.54631 2.91202,-2.2971 0.61692,-0.4689 1.21739,-0.92273 1.4071,-0.60294 0.0815,0.13733 -1.15376,1.43759 -1.28097,1.55743 -3.03751,3.19409 -6.25391,6.2572 -9.89065,9.0269 -1.18755,0.942 -2.35002,1.90575 -3.56264,2.82599 -8.39273,6.36904 -17.35456,12.19325 -26.34093,17.96859 -6.37862,4.17487 -12.85145,8.26253 -18.98316,12.68753 -0.88044,0.62429 -1.71228,1.2994 -2.64134,1.87286 -0.20198,0.12469 -0.89756,0.41655 -0.76877,-0.0468 0.23331,-0.83935 1.28558,-1.51296 1.74298,-2.25211 3.9373,-4.42098 8.0807,-8.7277 12.29185,-12.98345 7.56959,-7.41079 15.28547,-14.72442 23.28623,-21.83527 4.21978,-3.87868 8.55204,-7.69252 12.53929,-11.72803 1.04176,-0.0148 -0.18133,0.0715 1.69725,-0.96374 0.28455,-0.15682 -0.46194,0.41732 -0.70406,0.61728 -1.28252,1.05925 -2.66789,2.03151 -4.00692,3.04081 -6.51748,4.83413 -12.81126,9.86692 -18.98911,14.99117 -0.81627,0.69908 -6.97999,5.96964 -7.75644,6.66785 -4.40847,3.96425 -8.48119,8.1616 -12.34604,12.47265 -3.00848,3.56271 -5.81463,7.23053 -8.99561,10.70111 -0.68644,0.44572 -1.35184,0.91509 -2.05932,1.33715 -0.18613,0.11106 0.19569,-0.33868 0.31541,-0.49898 0.76401,-1.02289 1.50022,-2.05932 2.3419,-3.04566 2.98689,-3.81917 6.11587,-7.57599 9.57827,-11.13736 5.62069,-5.76256 11.32444,-11.47676 17.64091,-16.76142 3.90294,-3.38239 7.76469,-6.80101 11.57285,-10.25185 -1.25454,0.7972 -2.98949,1.74313 -4.36271,2.62543 -4.04902,2.49608 1.08948,-0.68796 -3.57833,2.26632 -0.3035,0.1921 -0.6323,0.35631 -0.92649,0.55821 -3.25609,2.23458 -6.33631,4.64445 -9.588,6.88345 -7.18545,5.21542 -14.43493,10.37176 -21.51563,15.68339 -0.95259,0.67801 -1.86151,1.40082 -2.85779,2.03403 -0.36387,0.23128 -1.18038,0.60852 -1.11763,0.10129 0.087,-0.70282 1.28119,-1.98533 1.51912,-2.66458 1.49049,-2.23823 2.97714,-4.51424 4.82817,-6.58801 0.59002,-0.661 1.24673,-1.28245 1.87207,-1.92246 0.69721,-0.71353 1.39704,-1.42543 2.09556,-2.13815 5.31853,-5.13833 10.93452,-10.07635 16.63477,-14.93692 3.17234,-2.87507 6.34074,-5.76019 9.467,-8.66155 -1.90865,1.11541 -3.76151,2.29676 -5.66571,3.41516 -0.0185,0.0109 -4.3e-4,-0.0358 -6.6e-4,-0.0538 -1.87698,1.44079 -3.8008,2.84418 -5.59035,4.35844 -3.57161,3.22056 -7.01708,6.52676 -10.53314,9.78658 -2.37258,2.2449 -4.72161,4.50653 -7.13465,6.72247 -1.29845,1.22417 -2.53769,2.49181 -3.95676,3.62922 -0.69738,0.52196 -1.37418,1.06329 -2.09217,1.56584 -0.21607,0.15126 -0.74479,0.44093 -0.72045,0.11291 0.0273,-0.36859 0.74865,-1.25298 0.89825,-1.62352 0.93627,-1.45299 2.10651,-2.80703 3.18037,-4.19917 1.27749,-1.61872 2.58721,-3.22064 3.87015,-4.83576 1.46912,-1.70369 3.00017,-3.37552 4.69482,-4.94202 2.20597,-2.16246 4.43902,-4.3144 6.95041,-6.25141 1.50092,-1.12911 3.02913,-2.23279 4.6339,-3.25834 l -1.36126,1.28348 z"
         id="path4925"
         style="fill:none;stroke:#ffe7ac;stroke-width:3.32403922;stroke-linecap:butt;stroke-linejoin:round;stroke-miterlimit:4;stroke-opacity:1;stroke-dasharray:none;stroke-dashoffset:0" />
      <path
         inkscape:connector-curvature="0"
         d="m 258.96106,160.0444 c 0.43276,1.16174 0.84463,2.34046 1.30453,3.49107 0.53841,1.44632 1.07984,2.87924 1.74477,4.25816 0.55662,1.25138 1.1511,2.47654 1.81101,3.66257 0.48013,1.05227 0.97428,2.09825 1.4435,3.15814 0.62334,1.23964 1.27727,2.46002 1.91544,3.69057 0.56619,1.18644 1.13112,2.37126 1.71971,3.54336 0.53935,1.06453 1.10599,2.10918 1.68342,3.14826 0.44211,0.97614 1.02909,1.82388 1.70819,2.60083 0.62137,0.88278 1.41631,1.5687 2.16202,2.30631 0.76147,0.61941 1.49248,1.27657 2.24174,1.91336 0.64022,0.6361 1.28947,1.25777 1.93769,1.88458 0.81263,0.7441 1.47364,1.66118 2.21099,2.49124 0.92416,1.01018 1.56877,2.21975 2.20438,3.46491 1.00741,3.00176 2.53156,5.70844 4.05914,8.40056 0.9301,1.599 1.79749,3.23273 2.50304,4.97185 0.46607,1.45316 0.94932,2.89935 1.48909,4.32012 0.44489,1.18822 1.0321,2.27933 1.33397,3.53046 0.17168,0.90585 0.62997,1.70082 0.89541,2.56521 0.0679,0.22098 0.8709,3.36305 0.88315,3.4108 0.82441,3.05495 1.68783,6.09716 2.58791,9.12492 0.51945,1.42025 0.50603,2.94642 0.66825,4.44556 0.11985,1.1076 0.35966,2.8226 0.50736,3.91442 0.3467,3.09311 0.85371,6.15974 1.23275,9.24717 0.16456,1.64292 0.48553,3.25445 0.63517,4.90004 0.0803,1.88728 0.17609,3.75587 0.39097,5.63147 0.46333,4.17715 1.14492,8.3203 1.75677,12.47245 0.38123,2.79227 0.72173,5.58923 1.1032,8.38145 0.0417,0.37443 0.15591,1.34538 0.1759,1.73822 0.0515,1.01212 -0.002,2.02937 0.0627,3.04052 0.1678,2.61486 0.40655,3.93097 0.77755,6.61906 0.79294,5.27514 1.93409,10.46516 3.03732,15.66399 0.20543,1.33749 0.60645,2.69463 0.5953,4.06813 -0.005,0.6767 -0.19176,2.83292 -0.2393,3.42665 -0.20358,2.74043 -0.51742,5.48319 -1.23249,8.11906 -0.49793,1.51664 -1.29505,2.87537 -2.14884,4.1649 -0.65756,0.97848 -1.4293,1.83147 -2.22098,2.66934 -1.45805,1.58852 -2.95183,3.14134 -4.3315,4.81731 -0.34527,0.16509 -1.47221,2.08882 -1.73109,2.1361 -0.55138,0.1007 -1.11027,0.13984 -1.6654,0.20976 0.56849,-2.48914 1.45462,-4.86585 2.19156,-7.29429 0.61025,-2.08625 1.28237,-4.15389 1.82309,-6.26521 0.46397,-1.76196 0.87849,-3.54472 1.19511,-5.34799 0.49417,-2.27428 0.93751,-4.56339 1.46693,-6.82831 0.82314,-3.08708 1.54483,-6.20853 2.0393,-9.38409 0.3656,-1.70557 0.5964,-3.43042 0.70448,-5.17885 0.44953,-3.92735 0.81783,-7.86955 1.31146,-11.79029 0.1614,-1.90198 0.64989,-3.73315 0.95123,-5.60499 0.47006,-4.12512 0.83031,-8.26182 1.29363,-12.3883 0.42782,-4.17088 1.13726,-8.29462 1.58377,-12.46304 0.33398,-3.52091 0.33316,-7.06855 0.34595,-10.6054 0.18945,-5.1385 -0.3768,-10.23941 -1.04913,-15.31 -0.42614,-4.17196 -1.41481,-8.20879 -2.46183,-12.22431 -0.54964,-2.12738 -1.35576,-4.14754 -2.05034,-6.21462 -1.23711,-3.91506 -3.07105,-7.5355 -4.98671,-11.07328 -2.3219,-4.08427 -4.69682,-8.13003 -7.02404,-12.21043 -2.43403,-4.02836 -4.41688,-8.35789 -6.41421,-12.66945 -1.30734,-2.88646 -2.5929,-5.78712 -3.8478,-8.70305 -0.48127,-1.35222 -1.12678,-2.62321 -1.86535,-3.8169 -1.28599,-2.36622 -2.67923,-4.63667 -4.1307,-6.87991 -3.4234,-5.49007 -7.20531,-10.6735 -10.83313,-15.98924 -1.00204,-1.42499 -1.10073,-1.61268 -2.07859,-2.85263 -0.19407,-0.24609 -0.3873,-0.49395 -0.59769,-0.72244 -0.0937,-0.1018 -0.4144,-0.17496 -0.31175,-0.26522 1.52615,-1.34201 1.37932,-1.45649 1.75807,-0.66369 2.16686,3.67684 4.39558,7.30857 6.70046,10.87757 3.35762,5.09188 6.84967,10.07126 10.35778,15.03278 0.50331,0.72647 1.00313,1.45601 1.50994,2.17939 1.2243,1.74747 1.89935,2.57315 2.97232,4.46722 1.97641,3.48888 3.67296,7.1742 5.3332,10.8591 0.63666,1.49822 1.30911,2.97786 1.90998,4.49469 1.28807,3.25163 2.54752,7.02647 3.69492,10.32928 1.75628,5.05549 2.23815,6.26753 3.83032,11.43876 0.6039,1.96142 1.15901,3.94144 1.73851,5.91216 2.06354,6.8975 4.43247,13.6778 6.11818,20.71126 1.18953,4.96317 1.14133,5.09988 2.0589,10.15696 1.71557,10.1169 2.71334,20.36612 3.55491,30.61502 0.43155,4.25509 0.27425,8.50288 -0.87242,12.60814 -0.42384,1.51743 -1.73309,5.16539 -2.25168,6.6412 -1.87141,5.19001 -3.65739,10.41991 -5.25505,15.72508 -0.86173,2.56226 -1.51346,5.18526 -2.01804,7.86113 -0.4193,3.17897 -0.97743,6.29986 -1.81689,9.37137 -0.84444,3.02144 -1.72428,6.03305 -2.51954,9.07175 -0.22509,0.88737 -0.44907,4.14158 -2.3252,3.1355 -0.41198,-0.22093 0.2516,-0.98707 0.37739,-1.4806 1.23119,-5.35886 2.92521,-10.56004 4.35554,-15.85206 1.3518,-5.00148 1.61695,-6.22798 2.85424,-11.3037 2.67471,-10.08047 4.02358,-20.31983 4.77355,-30.77391 0.3972,-6.49317 0.42121,-13.00391 0.39114,-19.50908 0.13365,-5.9215 -0.0924,-11.82419 -0.47175,-17.72805 -0.3437,-4.65725 -0.92427,-9.28119 -1.57068,-13.89491 -0.49282,-2.93159 -0.91553,-5.87996 -1.55964,-8.77582 -0.59805,-2.0698 -1.20703,-4.16073 -2.07545,-6.10751 -1.39336,-2.93791 -2.51212,-6.00599 -3.56592,-9.11247 -0.88525,-2.53898 -1.74406,-5.09024 -2.69427,-7.59969 -1.24377,-2.49782 -2.80682,-4.77545 -4.31704,-7.07416 -1.64214,-3.33185 -3.32692,-6.63243 -5.09456,-9.88197 -1.17184,-2.22493 -2.36461,-4.43474 -3.5789,-6.63057 -0.83346,-1.46622 -1.74462,-2.87442 -2.597,-4.32616 -1.058,-1.84671 -2.00313,-3.75527 -3.1131,-5.56605 -1.82205,-2.8703 -3.72055,-5.6807 -5.65854,-8.45324 -1.08343,-1.51471 -2.03313,-3.13496 -2.9806,-4.75768 -0.0807,-0.17612 -0.36239,-0.38352 -0.24218,-0.52836 0.47526,-0.57266 1.08613,-1.04437 1.74843,-1.28659 0.26272,-0.0961 0.51341,0.23132 0.76118,0.36878 1.87683,1.04127 3.57021,2.40942 5.29525,3.7308 5.07272,4.03862 10.11805,8.15865 14.72444,12.86067 2.76627,2.82774 5.25937,5.95021 7.47351,9.33148 0.96303,1.65294 2.08528,3.19381 2.81634,5.0005 0.41225,1.18332 0.55101,2.41798 0.30306,3.65874 -0.50307,1.12275 -1.20778,1.35498 -2.62477,1.42919 -0.52095,0.0273 -2.4551,-3.23079 -2.63033,-3.52042 -3.36864,-6.10191 -6.68934,-12.23861 -9.93289,-18.42617 -1.59779,-2.9102 -2.88229,-6.03207 -4.57147,-8.8778 -1.23412,-1.90478 -2.73186,-3.59396 -4.33313,-5.10928 -1.17498,-0.9708 -2.36554,-1.92083 -3.63266,-2.73411 -0.85563,-0.44459 -1.85339,-0.95553 -2.78806,-0.55987 0.46405,-0.27894 0.89862,-0.63167 1.39215,-0.83681 0.0343,-0.0143 -0.19645,0.11079 -0.35529,0.81163 -0.15571,0.68711 -0.0956,1.28471 -0.002,1.97552 0.0659,0.27239 0.10849,0.5533 0.19766,0.81717 0.36552,1.08162 0.9813,2.42351 1.43074,3.43347 1.26401,2.84041 2.67874,5.57685 4.04715,8.35501 2.54973,4.94728 5.28878,9.78008 7.62678,14.86148 0.94438,2.25311 1.90875,4.49585 2.84849,6.75135 0.58583,1.15947 0.98964,2.37855 1.16176,3.69535 0.0959,2.78411 0.16236,5.56868 0.30396,8.35309 0.026,0.49733 0.0492,0.99485 0.0779,1.49198 0.0207,0.35943 0.0431,0.71876 0.0704,1.07763 0.0154,0.20335 0.032,0.40679 0.0577,0.60884 0.007,0.0552 0.0843,0.13554 0.0402,0.16114 -1.86779,1.08495 -1.74067,1.44421 -1.67612,0.25651 0.0509,-2.36455 0.0446,-4.73023 0.0444,-7.09534 0.0744,-3.37651 -0.0118,-6.74338 -0.21913,-10.11155 -0.0505,-1.85021 -0.27453,-3.66353 -0.69956,-5.44871 -0.59053,-2.18416 -1.40301,-4.26291 -2.26905,-6.32213 -0.76279,-1.55961 -1.47924,-3.14544 -2.20252,-4.7289 -0.78343,-1.30467 -1.40724,-2.71743 -2.15682,-4.04408 -0.56439,-0.97795 -1.00046,-2.05376 -1.6668,-2.95278 -0.60107,-0.67368 -1.14741,-1.43866 -1.84623,-1.99385 -0.0615,-0.0488 -0.28083,-0.0323 -0.21579,-0.0749 1.93383,-1.26719 1.4321,-1.4525 2.33287,-0.13321 3.26959,4.52268 6.56452,9.04141 9.54579,13.81245 1.87595,2.86275 3.23494,6.07217 4.06443,9.49509 0.38458,1.6983 0.83928,3.37711 1.15239,5.09477 0.0317,0.2188 0.0634,0.43759 0.095,0.65639 l -1.68732,1.00485 c -0.0294,-0.21685 -0.0588,-0.4337 -0.0882,-0.65054 -0.29791,-1.72049 -0.75097,-3.39889 -1.11521,-5.10222 -0.78669,-3.41481 -2.09932,-6.6242 -3.93083,-9.49863 -2.94202,-4.80481 -6.21155,-9.3589 -9.65105,-13.72401 -0.94885,-1.23479 -1.02227,-0.79641 0.89882,-2.15623 0.0581,-0.0412 1.41668,1.40764 1.51396,1.51464 0.194,0.21337 0.38542,0.4297 0.57813,0.64455 0.66228,0.91544 1.10654,1.99141 1.66192,2.98753 0.74459,1.33827 1.38702,2.74501 2.16685,4.05981 0.71872,1.58914 1.42943,3.18156 2.18164,4.75076 0.85417,2.07481 1.67888,4.16215 2.31093,6.33928 0.42371,1.80776 0.65389,3.63758 0.67183,5.51213 0.17481,3.37126 0.26848,6.7429 0.22919,10.12059 10e-4,2.35695 0.008,4.71388 0.0107,7.07082 0.003,1.26749 0.14296,0.68945 -1.74817,1.74708 -0.0534,0.0299 -0.0188,-0.13269 -0.0231,-0.19961 -0.0134,-0.20968 -0.0208,-0.41978 -0.0299,-0.62975 -0.0158,-0.36455 -0.0295,-0.72921 -0.045,-1.09378 -0.0212,-0.49974 -0.0435,-0.99943 -0.0652,-1.49915 -0.12785,-2.76535 -0.2322,-5.53247 -0.36407,-8.29652 -0.16478,-1.29792 -0.54903,-2.50363 -1.12072,-3.65026 -0.91459,-2.2681 -1.85705,-4.52221 -2.77796,-6.78721 -2.27126,-5.11669 -4.94313,-9.99616 -7.52528,-14.91795 -1.38555,-2.76728 -2.83182,-5.49002 -4.13945,-8.30516 -0.20006,-0.43069 -1.31074,-2.8437 -1.52499,-3.42059 -0.0992,-0.26703 -0.14277,-0.55605 -0.21416,-0.83408 -0.13702,-0.87764 -0.20533,-1.70279 0.0698,-2.56118 0.0472,-0.14734 0.0632,-0.33424 0.17585,-0.4262 0.60491,-0.49352 1.28446,-0.85946 1.92669,-1.2892 0.99511,-0.24183 1.98004,0.2177 2.86055,0.71593 1.26492,0.83509 2.46322,1.78853 3.63648,2.77734 1.59359,1.55102 3.0941,3.2552 4.33853,5.17234 1.71837,2.83123 2.87397,6.04245 4.46329,8.96463 3.16345,6.23584 6.47062,12.37845 9.98948,18.36989 0.8791,1.38453 0.99708,1.742 2.0245,2.8143 0.1961,0.20466 0.72656,0.25911 0.64041,0.54399 -0.17382,0.5748 -0.80546,0.8099 -1.18153,1.24538 -0.16086,0.18628 0.93167,-0.68384 0.48925,-0.55144 0.29263,-1.18822 0.13857,-2.38658 -0.23685,-3.53625 -0.70488,-1.80335 -1.81084,-3.3412 -2.75359,-4.99042 -2.16626,-3.39237 -4.60866,-6.53867 -7.34503,-9.37062 -4.60389,-4.69452 -9.59305,-8.89034 -14.72456,-12.82667 -1.25072,-0.92503 -2.69304,-2.04089 -4.02503,-2.86016 -0.44371,-0.27291 -0.90013,-0.52257 -1.36949,-0.73433 -0.22884,-0.10324 -0.84421,0.0305 -0.71647,-0.20678 1.17469,-2.18161 1.30033,-1.4579 1.66012,-0.62114 0.93024,1.62678 1.8699,3.24643 2.93811,4.76519 1.91032,2.7986 3.77662,5.63593 5.62356,8.48767 1.14664,1.78799 2.14583,3.66116 3.19166,5.5223 0.8454,1.45829 1.7498,2.87346 2.57688,4.34569 1.20938,2.19993 2.3832,4.42302 3.54214,6.65707 1.73961,3.26023 3.39723,6.5726 5.11379,9.84805 1.50474,2.3242 3.05599,4.6255 4.3434,7.11311 0.9489,2.51554 1.78553,5.08098 2.66343,7.62844 1.04109,3.10301 2.17549,6.15484 3.58194,9.07552 0.90946,1.94237 1.50445,4.05918 2.10412,6.14573 0.62698,2.90992 1.02393,5.87184 1.54458,8.80689 0.58512,4.64036 1.1173,9.28669 1.4997,13.95504 0.33904,5.90347 0.58803,11.80398 0.50738,17.72267 -0.0236,6.53598 -0.12575,13.07433 -0.51494,19.59762 -0.26553,3.40408 -0.41806,5.77415 -0.82521,9.19913 -0.87021,7.31999 -2.22983,14.56042 -4.03672,21.65957 -1.26642,5.23666 -1.45278,6.13027 -2.81712,11.29051 -1.38325,5.23172 -3.02311,10.38431 -4.10634,15.71107 -0.46819,2.0945 0.0473,1.21808 -2.07986,2.50561 -0.0408,0.0247 0.0841,-0.0567 0.10372,-0.10393 0.0614,-0.14766 0.0924,-0.30909 0.13307,-0.46558 0.0623,-0.23998 0.40578,-1.68267 0.4329,-1.79611 0.81689,-3.03949 1.71097,-6.05326 2.54534,-9.08653 0.81653,-3.07051 1.44005,-6.17185 1.8226,-9.35224 0.45366,-2.70491 1.13204,-5.3311 2.02795,-7.89676 1.6455,-5.32127 3.4896,-10.56045 5.35552,-15.78778 0.65603,-1.86326 1.68198,-4.67742 2.21862,-6.59653 1.15991,-4.14802 1.359,-8.28803 0.98816,-12.60119 -0.73836,-10.26328 -1.75841,-20.51303 -3.48778,-30.63119 -0.31126,-1.71025 -0.58749,-3.42904 -0.93378,-5.13075 -1.78866,-8.78948 -4.57006,-17.24643 -7.17317,-25.75693 -0.57921,-1.96902 -1.13213,-3.94807 -1.73762,-5.90705 -1.53045,-4.95157 -2.1525,-6.57798 -3.85564,-11.41786 -1.11574,-3.17069 -2.47947,-7.15918 -3.738,-10.28684 -0.60796,-1.51089 -1.2884,-2.98353 -1.93259,-4.47529 -1.68344,-3.67219 -3.41668,-7.3024 -5.4281,-10.76583 -1.20943,-2.0825 -1.62816,-2.51682 -2.97356,-4.45662 -0.50268,-0.72475 -0.99314,-1.46012 -1.48971,-2.19019 -3.48847,-4.98089 -7.01109,-9.93538 -10.34385,-15.05063 -2.33581,-3.56256 -4.57716,-7.20121 -6.89304,-10.77971 -0.52544,-1.0303 -0.56574,-0.75593 1.54525,-1.56434 0.12757,-0.0489 0.20245,0.20107 0.29303,0.31332 0.31779,0.39388 1.24362,1.68338 1.43475,1.95929 0.38847,0.56077 0.76362,1.13306 1.14543,1.69959 3.55331,5.38006 7.32172,10.57629 10.84161,15.98549 1.49112,2.21607 2.94874,4.4452 4.25185,6.80684 0.74447,1.20493 1.38411,2.4937 1.84943,3.86731 1.22342,2.93251 2.47961,5.84987 3.76288,8.74957 1.97606,4.31599 3.99277,8.62232 6.42237,12.64336 2.30528,4.09665 4.6947,8.13241 6.98729,12.23842 1.94049,3.53057 3.83953,7.12869 5.09295,11.04708 0.73551,2.05824 1.53496,4.08863 2.04829,6.23824 0.9979,4.0491 2.0027,8.10293 2.38805,12.2993 0.64598,5.06444 1.28343,10.16203 1.13956,15.29191 -0.0312,3.54212 -0.0248,7.09834 -0.33381,10.6255 -0.47396,4.17932 -1.21236,8.31259 -1.64586,12.49823 -0.46675,4.10305 -0.82318,8.21545 -1.17403,12.33265 -0.27799,1.88872 -0.83371,3.71635 -1.00698,5.63003 -0.53798,3.89651 -0.94125,7.8251 -1.27223,11.74921 -0.0969,1.76054 -0.31285,3.49922 -0.71095,5.20901 -0.5215,3.18027 -1.27091,6.3028 -2.05678,9.41193 -0.52555,2.25199 -0.92509,4.53826 -1.4336,6.79488 -0.30503,1.81268 -0.72826,3.60034 -1.19407,5.36844 -0.5415,2.11843 -1.21618,4.19259 -1.83482,6.28269 -0.72921,2.41074 -1.6285,4.76324 -2.16908,7.24134 -3.81865,3.19796 -1.97792,1.8044 -1.4433,1.14242 0.8883,-1.09993 -0.11256,0.0571 0.84274,-1.09648 0.17741,-0.21423 0.36397,-0.41866 0.54595,-0.62799 1.36797,-1.67826 2.87087,-3.2096 4.30118,-4.81969 0.78985,-0.8355 1.57449,-1.66927 2.23749,-2.63891 0.87523,-1.259 1.65645,-2.6194 2.19144,-4.10546 0.76114,-2.62203 1.10577,-5.36666 1.30836,-8.10926 0.0642,-0.88849 0.19505,-2.42877 0.19349,-3.36001 -0.002,-1.37085 -0.34526,-2.72641 -0.54078,-4.06753 -1.02634,-5.23888 -2.069,-10.47303 -2.90761,-15.75623 -0.27296,-1.78393 -0.75228,-4.67909 -0.91871,-6.56739 -0.13815,-1.56751 -0.007,-3.17099 -0.27219,-4.72988 -0.35548,-2.80822 -0.66462,-5.62089 -1.01659,-8.42972 -0.58659,-4.15149 -1.3202,-8.27668 -1.81687,-12.44308 -0.23286,-1.87013 -0.38584,-3.72619 -0.43351,-5.61409 -0.14782,-1.64667 -0.46211,-3.26165 -0.60951,-4.90774 -0.3527,-3.09817 -0.8239,-6.1782 -1.17447,-9.27688 -0.18095,-1.30138 -0.38514,-2.59892 -0.5439,-3.90396 -0.17947,-1.47521 -0.19792,-2.98094 -0.67664,-4.39048 -0.86221,-3.0484 -1.68884,-6.10923 -2.53776,-9.16246 -0.20681,-0.76853 -0.6658,-2.53027 -0.93713,-3.34402 -0.28922,-0.86747 -0.74505,-1.67015 -0.93103,-2.58377 -0.28762,-1.24548 -0.86783,-2.33229 -1.3008,-3.51578 -0.53842,-1.41856 -1.03962,-2.85573 -1.49801,-4.30962 -0.68701,-1.7375 -1.53032,-3.37619 -2.43679,-4.9805 -1.50458,-2.70821 -3.02972,-5.41398 -4.1058,-8.37994 -0.63186,-1.22754 -1.27827,-2.41582 -2.19942,-3.40432 -0.72478,-0.83565 -1.38551,-1.74531 -2.20196,-2.47563 -0.65055,-0.6177 -1.29217,-1.24364 -1.93197,-1.87474 -0.74783,-0.6462 -1.49397,-1.28861 -2.24683,-1.92743 -0.75036,-0.73987 -1.54263,-1.43596 -2.17003,-2.31909 -0.69067,-0.78711 -1.27597,-1.65477 -1.72451,-2.64467 -0.58045,-1.04113 -1.1499,-2.08789 -1.68853,-3.15696 -0.58144,-1.17514 -1.15055,-2.35642 -1.71459,-3.54257 -0.63901,-1.23512 -1.28809,-2.46345 -1.92186,-3.70156 -0.47504,-1.0495 -0.96661,-2.08868 -1.43961,-3.13791 -0.65964,-1.19123 -1.24047,-2.43007 -1.8027,-3.68248 -0.6736,-1.38001 -1.21232,-2.81982 -1.7553,-4.26975 -0.46965,-1.15928 -0.87729,-2.35016 -1.35168,-3.50619 l 1.70375,-1.03649 z"
         id="path4929"
         style="fill:none;stroke:#ffe7ac;stroke-width:3.77545547;stroke-linecap:butt;stroke-linejoin:round;stroke-miterlimit:4;stroke-opacity:1;stroke-dasharray:none;stroke-dashoffset:0" />
      <g
         inkscape:label="Layer 1"
         id="g2839"
         transform="matrix(0.3261248,-0.06358643,0.06358643,0.3261248,206.50244,207.14754)">
        <g
           id="g2417">
          <path
             transform="matrix(0.01302332,0.3881054,-0.5323499,0.00949455,464.4868,-92.4616)"
             d="m 569.31734,720.06317 c 0,55.72715 -51.26987,100.90292 -114.51445,100.90292 -63.24459,0 -114.51445,-45.17577 -114.51445,-100.90292 0,-55.72714 51.26986,-100.90292 114.51445,-100.90292 63.24458,0 114.51445,45.17578 114.51445,100.90292 z"
             sodipodi:ry="100.90292"
             sodipodi:rx="114.51445"
             sodipodi:cy="720.06317"
             sodipodi:cx="454.80289"
             id="path3208"
             style="fill:url(#linearGradient6728);fill-opacity:1;stroke:none"
             sodipodi:type="arc" />
          <path
             transform="matrix(0.4974979,0,0,0.7621244,-138.59037,-448.37894)"
             d="m 514.34714,709.18024 c 0,22.10448 -28.97577,40.0237 -64.71918,40.0237 -35.74341,0 -64.71918,-17.91922 -64.71918,-40.0237 0,-22.10448 28.97577,-40.0237 64.71918,-40.0237 35.74341,0 64.71918,17.91922 64.71918,40.0237 z"
             sodipodi:ry="40.023701"
             sodipodi:rx="64.719177"
             sodipodi:cy="709.18024"
             sodipodi:cx="449.62796"
             id="path2176"
             style="fill:#008000;fill-opacity:1;stroke:none"
             sodipodi:type="arc" />
          <path
             transform="matrix(0.2850143,0,0,0.2649577,-25.487232,-74.863159)"
             d="m 469.89392,691.95238 -43.83712,-28.12869 31.21786,41.69366 -38.11007,-35.50406 23.27149,46.59779 -31.15813,-41.73832 14.57715,50.00422 -23.20474,-46.63106 5.41429,51.80349 -14.50553,-50.02505 -3.92259,51.93774 -5.34011,-51.81119 -13.13339,50.40268 3.99696,-51.93207 -21.92209,47.24763 13.20556,-50.38382 -30.00618,42.57399 21.98972,-47.21618 -37.12584,36.532 30.0671,-42.53098 -43.05226,29.31584 37.17812,-36.47881 -47.59494,21.15746 43.0942,-29.25417 -50.60788,12.31904 47.62519,-21.08928 -51.99424,3.08468 50.62547,-12.24656 -51.70946,-6.24882 51.9986,-3.01023 -49.7627,-15.38148 51.70046,6.32286 -46.21652,-24.01976 49.74062,15.45272 -41.18491,-31.88604 46.18208,24.08592 -34.82958,-38.72746 41.13921,31.94498 -27.3548,-44.32416 34.77409,38.77729 -19.00081,-48.49624 27.2913,44.36329 -10.03612,-51.10961 18.93135,48.5234 -0.74887,-52.08028 9.96293,51.12393 8.56246,-51.37704 0.67429,52.0813 17.59859,-49.02251 -8.63603,51.36473 26.06908,-45.09234 -17.66877,48.99725 33.70169,-39.71288 -26.13362,45.05497 40.25109,-33.05701 -33.75852,39.66458 45.5068,-25.33865 -40.29839,32.99933 49.29988,-16.8059 -45.54304,25.27347 51.50842,-7.73299 -49.32389,16.73529 52.06143,1.58846 -51.51943,7.65923 50.94115,10.85886 -52.0591,-1.66301 48.18358,19.78025 -50.92555,-10.9318 43.87735,28.06589 -48.15521,-19.84923 z"
             inkscape:randomized="0"
             inkscape:rounded="0"
             inkscape:flatsided="false"
             sodipodi:arg2="0.74929618"
             sodipodi:arg1="0.65953639"
             sodipodi:r2="51.671303"
             sodipodi:r1="103.3426"
             sodipodi:cy="628.62915"
             sodipodi:cx="388.2247"
             sodipodi:sides="35"
             id="path2180"
             style="fill:#808000;fill-opacity:1;stroke:none"
             sodipodi:type="star" />
          <path
             transform="matrix(0.2834224,0.03008161,-0.02796476,0.2634778,-6.6707358,-85.2803)"
             d="m 469.89392,691.95238 -43.83712,-28.12869 31.21786,41.69366 -38.11007,-35.50406 23.27149,46.59779 -31.15813,-41.73832 14.57715,50.00422 -23.20474,-46.63106 5.41429,51.80349 -14.50553,-50.02505 -3.92259,51.93774 -5.34011,-51.81119 -13.13339,50.40268 3.99696,-51.93207 -21.92209,47.24763 13.20556,-50.38382 -30.00618,42.57399 21.98972,-47.21618 -37.12584,36.532 30.0671,-42.53098 -43.05226,29.31584 37.17812,-36.47881 -47.59494,21.15746 43.0942,-29.25417 -50.60788,12.31904 47.62519,-21.08928 -51.99424,3.08468 50.62547,-12.24656 -51.70946,-6.24882 51.9986,-3.01023 -49.7627,-15.38148 51.70046,6.32286 -46.21652,-24.01976 49.74062,15.45272 -41.18491,-31.88604 46.18208,24.08592 -34.82958,-38.72746 41.13921,31.94498 -27.3548,-44.32416 34.77409,38.77729 -19.00081,-48.49624 27.2913,44.36329 -10.03612,-51.10961 18.93135,48.5234 -0.74887,-52.08028 9.96293,51.12393 8.56246,-51.37704 0.67429,52.0813 17.59859,-49.02251 -8.63603,51.36473 26.06908,-45.09234 -17.66877,48.99725 33.70169,-39.71288 -26.13362,45.05497 40.25109,-33.05701 -33.75852,39.66458 45.5068,-25.33865 -40.29839,32.99933 49.29988,-16.8059 -45.54304,25.27347 51.50842,-7.73299 -49.32389,16.73529 52.06143,1.58846 -51.51943,7.65923 50.94115,10.85886 -52.0591,-1.66301 48.18358,19.78025 -50.92555,-10.9318 43.87735,28.06589 -48.15521,-19.84923 z"
             inkscape:randomized="0"
             inkscape:rounded="0"
             inkscape:flatsided="false"
             sodipodi:arg2="0.74929618"
             sodipodi:arg1="0.65953639"
             sodipodi:r2="51.671303"
             sodipodi:r1="103.3426"
             sodipodi:cy="628.62915"
             sodipodi:cx="388.2247"
             sodipodi:sides="35"
             id="path2184"
             style="fill:#552200;fill-opacity:1;stroke:none"
             sodipodi:type="star" />
          <path
             transform="matrix(0.2844677,0.01669302,-0.01640073,0.2502215,-14.937634,-72.041699)"
             d="m 469.89392,691.95238 -43.83712,-28.12869 31.21786,41.69366 -38.11007,-35.50406 23.27149,46.59779 -31.15813,-41.73832 14.57715,50.00422 -23.20474,-46.63106 5.41429,51.80349 -14.50553,-50.02505 -3.92259,51.93774 -5.34011,-51.81119 -13.13339,50.40268 3.99696,-51.93207 -21.92209,47.24763 13.20556,-50.38382 -30.00618,42.57399 21.98972,-47.21618 -37.12584,36.532 30.0671,-42.53098 -43.05226,29.31584 37.17812,-36.47881 -47.59494,21.15746 43.0942,-29.25417 -50.60788,12.31904 47.62519,-21.08928 -51.99424,3.08468 50.62547,-12.24656 -51.70946,-6.24882 51.9986,-3.01023 -49.7627,-15.38148 51.70046,6.32286 -46.21652,-24.01976 49.74062,15.45272 -41.18491,-31.88604 46.18208,24.08592 -34.82958,-38.72746 41.13921,31.94498 -27.3548,-44.32416 34.77409,38.77729 -19.00081,-48.49624 27.2913,44.36329 -10.03612,-51.10961 18.93135,48.5234 -0.74887,-52.08028 9.96293,51.12393 8.56246,-51.37704 0.67429,52.0813 17.59859,-49.02251 -8.63603,51.36473 26.06908,-45.09234 -17.66877,48.99725 33.70169,-39.71288 -26.13362,45.05497 40.25109,-33.05701 -33.75852,39.66458 45.5068,-25.33865 -40.29839,32.99933 49.29988,-16.8059 -45.54304,25.27347 51.50842,-7.73299 -49.32389,16.73529 52.06143,1.58846 -51.51943,7.65923 50.94115,10.85886 -52.0591,-1.66301 48.18358,19.78025 -50.92555,-10.9318 43.87735,28.06589 -48.15521,-19.84923 z"
             inkscape:randomized="0"
             inkscape:rounded="0"
             inkscape:flatsided="false"
             sodipodi:arg2="0.74929618"
             sodipodi:arg1="0.65953639"
             sodipodi:r2="51.671303"
             sodipodi:r1="103.3426"
             sodipodi:cy="628.62915"
             sodipodi:cx="388.2247"
             sodipodi:sides="35"
             id="path2182"
             style="fill:#483737;fill-opacity:1;stroke:none"
             sodipodi:type="star" />
          <path
             transform="matrix(0.630164,0,0,0.4974979,-202.30783,-251.11469)"
             d="m 480.28441,690.44574 c 0,16.46078 -11.4378,29.80488 -25.54704,29.80488 -14.10925,0 -25.54705,-13.3441 -25.54705,-29.80488 0,-16.46078 11.4378,-29.80488 25.54705,-29.80488 14.10924,0 25.54704,13.3441 25.54704,29.80488 z"
             sodipodi:ry="29.804884"
             sodipodi:rx="25.547043"
             sodipodi:cy="690.44574"
             sodipodi:cx="454.73737"
             id="path2178"
             style="fill:#000000;fill-opacity:1;stroke:none"
             sodipodi:type="arc" />
          <path
             transform="matrix(-0.4937802,0.06070648,-0.09299718,-0.7564292,372.55083,601.80236)"
             d="m 514.34714,709.18024 c 0,22.10448 -28.97577,40.0237 -64.71918,40.0237 -35.74341,0 -64.71918,-17.91922 -64.71918,-40.0237 0,-22.10448 28.97577,-40.0237 64.71918,-40.0237 35.74341,0 64.71918,17.91922 64.71918,40.0237 z"
             sodipodi:ry="40.023701"
             sodipodi:rx="64.719177"
             sodipodi:cy="709.18024"
             sodipodi:cx="449.62796"
             id="path3185"
             style="fill:url(#linearGradient6730);fill-opacity:1;stroke:url(#linearGradient6732);stroke-width:1;stroke-miterlimit:4;stroke-opacity:1;stroke-dasharray:none"
             sodipodi:type="arc" />
          <path
             inkscape:connector-curvature="0"
             sodipodi:nodetypes="ccccc"
             id="rect2186"
             d="M 88.114737,71.160221 98.71394,70.865797 c 3.923,2.640947 12.54551,7.482443 9.42151,15.60438 L 94.592026,80.287313 88.114737,71.160221 z"
             style="fill:url(#linearGradient6734);fill-opacity:1;stroke:none" />
          <path
             inkscape:connector-curvature="0"
             sodipodi:nodetypes="csssc"
             id="path3203"
             d="m 157.30395,117.09008 c 0,14.30185 -30.73297,25.90915 -68.600374,25.90915 -37.86741,0 -67.011539,-48.700177 -54.17369,-42.39679 18.843022,9.25192 71.363234,14.13226 93.920684,-5.59403 28.50533,-24.927644 28.85338,7.77981 28.85338,22.08167 z"
             style="fill:url(#linearGradient6736);fill-opacity:1;stroke:url(#linearGradient6738);stroke-width:0.49749792;stroke-miterlimit:4;stroke-opacity:1" />
          <path
             inkscape:connector-curvature="0"
             sodipodi:nodetypes="csssc"
             id="path6694"
             d="m 159.8722,59.400953 c 0,-14.301851 -30.73297,-25.909154 -68.600381,-25.909154 -37.86741,0 -67.011538,48.70018 -54.17369,42.396796 18.843022,-9.251919 71.363231,-14.132264 93.920691,5.594026 28.50532,24.927649 28.85338,-7.779813 28.85338,-22.081668 z"
             style="fill:url(#linearGradient6740);fill-opacity:1;stroke:none" />
          <path
             inkscape:connector-curvature="0"
             sodipodi:nodetypes="csssc"
             id="path3226"
             d="m 160.46103,127.37725 c 0,14.30185 -30.73296,25.90915 -68.600372,25.90915 -37.86741,0 -67.011539,-48.70018 -54.17369,-42.3968 18.843021,9.25192 71.363232,14.13227 93.920682,-5.59402 28.50533,-24.927648 28.85338,7.77981 28.85338,22.08167 z"
             style="fill:url(#linearGradient6743);fill-opacity:1;stroke:none" />
        </g>
      </g>
      <path
         inkscape:connector-curvature="0"
         style="fill:#000000;fill-opacity:1;fill-rule:nonzero;stroke:none;filter:url(#filter5011)"
         d="m 236.68856,242.69291 c -11.34402,-19.52156 0.0719,-22.73748 8.01355,-28.44244 l -13.20542,1.0158 -3.49887,8.23928 -1.58014,9.59368 10.27088,9.59368 z"
         id="path5015"
         sodipodi:nodetypes="cccccc" />
      <path
         inkscape:connector-curvature="0"
         style="fill:#000000;fill-opacity:1;fill-rule:nonzero;stroke:none;filter:url(#filter3590)"
         d="m 135.75,90.4375 c -19.96733,9.030002 -39.938918,30.14529 -59.90625,48.90625 l -4.40625,33 c 28.58352,55.01947 42.93527,59.37718 58.8125,69.21875 l 20.875,51.125 14.84375,-4.40625 7.15625,-145.0625 C 157.43705,129.67193 145.58957,111.2948 135.75,90.4375 z m -1.46875,47.53125 c 7.67769,1e-5 13.90625,6.16974 13.90625,13.78125 -1e-5,7.61152 -6.22856,13.8125 -13.90625,13.8125 -7.6777,1e-5 -13.90625,-6.20099 -13.90625,-13.8125 0,-7.6115 6.22855,-13.78125 13.90625,-13.78125 z m -45.3125,12.71875 c 7.677694,0 13.90625,6.16974 13.90625,13.78125 0,7.61151 -6.22856,13.78125 -13.90625,13.78125 -7.677696,0 -13.90625,-6.16974 -13.90625,-13.78125 -2e-6,-7.61151 6.22855,-13.78125 13.90625,-13.78125 z"
         transform="translate(107.68179,77.083649)"
         id="path2818" />
      <path
         inkscape:connector-curvature="0"
         id="path4931"
         transform="translate(107.68179,77.083649)"
         d="m 135.75,90.4375 c -19.96733,9.030002 -39.938918,30.14529 -59.90625,48.90625 l -4.40625,33 c 28.58352,55.01947 42.93527,59.37718 58.8125,69.21875 l 20.875,51.125 14.84375,-4.40625 7.15625,-145.0625 C 157.43705,129.67193 145.58957,111.2948 135.75,90.4375 z m -1.46875,47.53125 c 7.67769,1e-5 13.90625,6.16974 13.90625,13.78125 -1e-5,7.61152 -6.22856,13.8125 -13.90625,13.8125 -7.6777,1e-5 -13.90625,-6.20099 -13.90625,-13.8125 0,-7.6115 6.22855,-13.78125 13.90625,-13.78125 z m -45.3125,12.71875 c 7.677694,0 13.90625,6.16974 13.90625,13.78125 0,7.61151 -6.22856,13.78125 -13.90625,13.78125 -7.677696,0 -13.90625,-6.16974 -13.90625,-13.78125 -2e-6,-7.61151 6.22855,-13.78125 13.90625,-13.78125 z"
         style="fill:#ffdead;fill-opacity:1;fill-rule:nonzero;stroke:none" />
      <path
         inkscape:connector-curvature="0"
         sodipodi:nodetypes="cccccc"
         transform="translate(107.68179,77.083649)"
         id="path5001"
         d="m 82.505643,177.79888 c -11.344022,-19.52156 0.0719,-22.73748 8.013544,-28.44244 l -13.205417,1.0158 -3.498872,8.23928 -1.580135,9.59368 10.27088,9.59368 z"
         style="fill:#000000;fill-opacity:1;fill-rule:nonzero;stroke:none;filter:url(#filter5011)" />
      <path
         inkscape:connector-curvature="0"
         id="path4933"
         transform="translate(107.68179,77.083649)"
         d="m 99.46875,114.625 -23.09375,23.09375 -4.9375,36.25 c 22.676134,57.9053 37.04004,51.40288 54.40625,68.15625 l 22,47.8125 c -5.14799,-17.95228 0.8596,-46.89148 8.21875,-64.84375 l -25.8125,18.125 C 113.92306,224.30332 98.867727,204.46424 94,177.3125 c -1.564388,0.60453 -3.251924,0.9375 -5.03125,0.9375 -7.677696,0 -13.90625,-6.16974 -13.90625,-13.78125 -2e-6,-7.61151 6.22855,-13.78125 13.90625,-13.78125 1.257299,0 2.466297,0.18951 3.625,0.5 0.660099,-11.01716 2.820596,-23.10569 6.875,-36.5625 z"
         style="fill:#ffcc80;fill-opacity:1;fill-rule:nonzero;stroke:none" />
      <path
         inkscape:connector-curvature="0"
         id="path2758"
         transform="translate(107.68179,77.083649)"
         d="M 124.90625,45.03125 C 112.26535,44.957087 99.571352,48.494536 88.78125,55.375 75.00975,66.83955 62.28933,80.327473 53.4375,96.25 c -9.21058,25.97571 -11.94253,53.80967 -15.40625,81.09375 -2.49294,28.05073 -8.43607,55.79058 -8.96875,84 0.57336,10.70754 3.266569,23.41857 12,30.0625 l 2.25,0.375 1,-0.125 c -5.97224,-10.78033 -10.179658,-23.31313 -11,-35.84375 2.87227,-26.0031 6.350441,-51.92401 8.9375,-77.96875 3.32003,-25.57071 5.60395,-51.71496 13.96875,-76.15625 8.88815,-15.45119 19.914579,-30.197189 34,-40.9375 18.03534,-11.10577 42.41838,-13.807359 61.125,-2.90625 12.31864,8.64544 27.63405,15.632968 33.84375,30.59375 10.32301,25.73577 13.17592,53.74511 19.5,80.65625 2.64963,15.48408 8.1039,31.40329 4.5,47.15625 -4.83181,7.82793 5.20508,12.74718 6.5625,3.28125 C 220.21119,197.5543 213.40849,175.39405 208.96875,154 203.16169,130.93711 199.9188,106.9692 190.75,84.96875 185.15592,69.31512 170.3628,61.049799 156.90625,53.78125 c -9.74879,-5.824584 -20.84627,-8.684562 -32,-8.75 z m -15.5625,16.75 c -5.39222,0.104537 -13.933471,5.798482 -17.65625,9.375 C 78.16683,84.12596 64.780562,98.608119 57.71875,116.5 l 0.15625,0.625 0.40625,0.0937 c 10.76813,-11.15945 18.525411,-25.25629 29.5,-36.34375 6.64746,-8.41353 16.38682,-12.51616 25.1875,-17.6875 -0.84002,-1.014488 -2.11518,-1.43552 -3.625,-1.40625 z m 23.375,11.375 c -9.20893,6.96198 -17.46701,15.31653 -27.125,21.71875 -16.47035,10.9952 -32.75063,22.70344 -45.46875,38.34375 -3.78197,5.6605 4.421653,-0.90684 5.3125,-1.59375 16.90019,-14.9704 35.21091,-27.99817 53.21875,-41.46875 4.12103,-4.14969 18.76984,-12.592376 14.0625,-17 z m -20.875,4.625 C 109.42808,78.046989 101.2352,83.122404 99.375,85.8125 91.7276,93.21436 79.700099,99.425247 76.03125,108.875 l 0.90625,0.5625 c 10.91838,-8.78972 21.577059,-17.917059 32.21875,-27.0625 3.632,-3.544578 3.95285,-4.732947 2.6875,-4.59375 z m 50.375,0.375 c -1.7028,6.98076 9.38082,17.156733 12.59375,24.96875 l 1.375,1.59375 1.21875,0.40625 c 0.55041,-9.52343 -8.71833,-19.883841 -15.1875,-26.96875 z m -14.6875,2.53125 c -0.56097,0.10629 -1.04198,0.813126 -1.40625,2.28125 2.82653,12.44937 11.11074,22.77498 18.59375,32.65625 1.29562,1.36122 2.44586,2.89568 4,3.96875 4.59885,-5.32227 -7.94751,-15.23878 -10.34375,-22.0625 -2.92901,-2.713392 -7.71449,-16.552672 -10.59375,-16.84375 -0.0831,-0.0084 -0.16986,-0.01518 -0.25,0 z m -13.46875,6.84375 c -1.41008,0.07613 -3.04552,0.714296 -5,2.09375 -17.34472,9.54177 -32.520031,22.91329 -46.59375,37 -8.2142,9.74068 -19.479998,15.44757 -29.5,22.78125 3.46065,3.99211 14.915472,-6.87887 21.40625,-8.25 -0.28571,11.26714 -3.66992,22.29398 -5.40625,33.4375 -4.96498,19.76895 -2.669976,40.93793 5.15625,59.5625 7.19555,13.52534 15.203669,26.74861 24.28125,39 9.27993,2.76984 -1.932217,-13.04276 -4.28125,-16.34375 -11.92974,-17.17648 -22.354151,-36.9481 -21.90625,-58.71875 0.48305,-3.93425 -0.57426,-22.90907 3.65625,-13.4375 5.16618,20.16304 19.130363,36.01026 34.46875,48.78125 7.47607,7.36325 19.15157,8.95717 21.5,20.96875 5.00219,7.30861 6.17485,23.21413 14.3125,24.75 -1.48056,-10.09897 -7.13519,-19.14611 -11.125,-28.4375 -10.4905,-11.66713 9.04566,-10.34738 14.15625,-18.0625 8.30309,-6.98682 13.97745,-16.63442 20.96875,-24.6875 0.56134,15.62434 -0.48856,31.30674 -1.4375,46.90625 -0.0301,9.84811 -5.44304,19.66442 -5.125,28.875 8.67635,-3.85383 8.75281,-18.67336 11,-27.90625 1.82687,-34.0468 1.2039,-68.18957 1.78125,-102.28125 5.58191,11.201 9.03804,23.40386 11,35.8125 4.16256,21.15314 1.23492,42.79875 -3.84375,63.46875 -0.95763,10.93951 -8.493,21.52018 -7.40625,32 2.76411,3.13456 5.23438,-1.54785 6.21875,-3.8125 6.44969,-17.4762 10.25547,-35.97579 13.15625,-54.40625 2.47068,-24.78764 -4.10129,-49.58158 -12.125,-72.71875 -8.034,-18.66014 -24.61016,-31.12921 -36.28125,-47.09375 -4.58124,-5.29367 -5.76875,-18.878959 -12.4375,-19.28125 -0.19237,-0.01161 -0.39231,-0.01088 -0.59375,0 z m 0.53125,7.375 c 0.53772,-0.02665 1.05512,-0.0056 1.59375,0.03125 5.8407,18.56484 23.43577,29.40981 31.3125,46.65625 3.66632,19.25244 2.17408,38.9948 2.0625,58.5 -6.86046,14.00192 -16.50374,27.58781 -29.71875,35.96875 -2.90684,1.73109 -5.8936,3.58452 -9.28125,4.0625 -10.98351,-0.65233 -18.71132,-10.39776 -27.34375,-16.40625 -11.52234,-13.69001 -21.715527,-29.33554 -26.78125,-46.875 -1.705314,-4.10209 -1.579874,-6.25873 -0.40625,-7.3125 -0.624055,-1.5665 -0.96875,-3.27693 -0.96875,-5.0625 -2e-6,-7.61151 6.22855,-13.78125 13.90625,-13.78125 1.555122,0 3.040831,0.25129 4.4375,0.71875 0.196045,-2.11146 -9.825846,-3.87759 -13.125,-3.6875 -1.4278,-2.50745 -0.174458,-7.51959 -0.59375,-10.96875 10.32573,-10.26284 20.50586,-20.7395 32,-29.625 6.89347,-4.57099 14.84043,-11.819016 22.90625,-12.21875 z m 48.4375,35.625 c -0.54081,0.072 -0.6916,0.94789 -0.1875,3.03125 17.8664,28.11714 19.64063,63.09729 18.53125,95.71875 0.78678,12.9306 -6.04056,25.14642 -5.40625,37.6875 0.98912,1.52879 3.02812,0.29393 3.40625,-1.03125 7.82092,-20.86465 8.06194,-43.88668 6.8125,-65.96875 -1.86655,-19.4345 -6.04637,-38.9195 -13.78125,-56.78125 -0.45812,-2.79541 -7.44353,-12.91338 -9.375,-12.65625 z M 139.65625,133 c -1.33049,-0.018 -2.58848,0.15822 -3.59375,0.59375 -8.97761,2.76851 -22.20185,3.70621 -26.53125,12.9375 10.24005,1.06244 20.32551,-12.8149 32.5625,-11.4375 10.09509,1.39614 3.32794,-2.01584 -2.4375,-2.09375 z m -59.1875,18.3125 c 0.465396,-0.0209 1.060824,0.0988 1.75,0.40625 -3.543686,2.09282 -3.766716,-0.31568 -1.75,-0.40625 z m 40,1.78125 c -0.48138,1.78773 -0.68133,3.657 -0.46875,5.53125 1.03028,0.70185 2.14562,1.22695 3.3125,1.59375 -1.57275,-2.00302 -2.58258,-4.45953 -2.84375,-7.125 z m -56.875,2.28125 c -6.78618,8.82177 -7.419339,20.97329 -10.15625,31.5625 -4.53202,17.18968 -3.46713,35.07736 -1.78125,52.59375 2.13674,13.62323 5.124129,29.00085 15.625,38.46875 11.1934,5.50387 1.242891,-6.46919 -0.65625,-9.75 C 50.97611,240.84154 52.155302,206.53552 60.25,176.78125 60.16618,170.47062 71.089249,157.10816 63.59375,155.375 z m 40.5,25.84375 c -2.13575,0.25339 -4.877408,14.38783 1.1875,16.28125 6.25845,3.39279 12.74355,-1.99929 16.59375,-6.75 -3.89696,-0.49636 -17.27522,9.09928 -16.1875,-4.1875 -0.23148,-3.97482 -0.88183,-5.42821 -1.59375,-5.34375 z M 78.375,202.375 c -1.474402,0.55312 -1.393375,11.32053 0.1875,14.6875 4.71427,15.87906 12.681589,30.62093 20.46875,45.09375 0.72746,1.60464 6.10726,8.61414 4.84375,2.25 -9.1823,-18.21339 -20.63788,-36.06113 -23.0625,-56.9375 -1.06389,-3.96862 -1.86056,-5.31019 -2.4375,-5.09375 z m 42.3125,2.25 c -2.15679,0.0573 -4.18619,0.72806 -5.96875,2.5625 -3.83881,-2.4807 -7.73837,-2.70257 -9.125,3.71875 -3.98782,5.06627 4.58263,8.6907 6.8125,12.53125 l 1.15625,0.5 1.46875,0.3125 c 11.25358,2.47754 18.99521,-8.66786 23.40625,-17.59375 -5.09853,1.88344 -11.30937,-1.75278 -16.8125,-2.03125 -0.31268,-0.0158 -0.62939,-0.008 -0.9375,0 z m 1.21875,8.9375 c 0.88005,0.0178 0.43812,0.35813 -2.9375,1.125 -1.71897,0.26803 -3.61716,1.50184 -5.375,1.09375 1.65166,-1.36847 6.84575,-2.24837 8.3125,-2.21875 z M 90,224.34375 c -0.342256,0.09 -0.601857,0.59545 -0.78125,1.625 3.47387,11.81728 8.876374,23.12858 15.34375,33.5 l 0.9375,1.125 0.90625,0.90625 c 5.59978,-1.10646 -5.58744,-13.11677 -6.78125,-18.59375 -2.361749,-3.27489 -7.220214,-18.42827 -9.46875,-18.5625 -0.05205,-0.003 -0.107356,-0.0129 -0.15625,0 z m -45.5,10.8125 c -0.575956,0.0231 -1.326994,1.30098 -2.3125,4.46875 -0.92992,16.28978 1.144599,35.36447 13.65625,46.8125 1.43754,2.06444 11.6207,7.29903 6.1875,0.0625 C 53.9619,277.81787 48.18302,266.90475 47.25,254.75 46.427328,251.08048 46.556987,235.07389 44.5,235.15625 z m 64.875,3.0625 c 1.25012,15.25225 3.39789,30.4809 6.09375,45.53125 7.38948,5.58208 2.54608,-13.90513 2.78125,-16.96875 -2.19446,-9.4516 -2.57599,-21.42971 -8.875,-28.5625 z m 11.125,11.5625 c 1.64528,11.51908 5.65821,22.7403 10.46875,33.25 4.09158,5.65177 2.23611,-5.56493 1.875,-7.1875 -2.67017,-7.88939 -4.08715,-26.41295 -12.34375,-26.0625 z"
         style="fill:#000000" />
      <g
         transform="matrix(0,1.4571171,-1.5846917,0,1114.9598,63.838531)"
         id="g4903">
        <path
           inkscape:connector-curvature="0"
           sodipodi:nodetypes="ccccc"
           id="path2796"
           d="m 8.136,472.4814 27.074,26.7035 0,109.4788 -27.074,26.7037 0,-162.886 z"
           style="fill:url(#linearGradient6745);fill-opacity:1;fill-rule:nonzero;stroke:none;stroke-width:20;marker:none;visibility:visible;display:inline;overflow:visible;enable-background:accumulate" />
        <path
           inkscape:connector-curvature="0"
           style="fill:url(#linearGradient6747);fill-opacity:1;fill-rule:nonzero;stroke:none;stroke-width:20;marker:none;visibility:visible;display:inline;overflow:visible;enable-background:accumulate"
           d="m 240.788,472.4814 -26.703,27.0736 -179.245,0 -26.704,-27.0736 232.652,0 z"
           id="path2798"
           sodipodi:nodetypes="ccccc" />
        <path
           inkscape:connector-curvature="0"
           style="fill:url(#linearGradient6749);fill-opacity:1;fill-rule:nonzero;stroke:none;stroke-width:20;marker:none;visibility:visible;display:inline;overflow:visible;enable-background:accumulate"
           d="m 240.788,635.3674 -27.074,-26.7037 0,-109.4788 27.074,-26.7035 0,162.886 z"
           id="path2804"
           sodipodi:nodetypes="ccccc" />
        <path
           inkscape:connector-curvature="0"
           sodipodi:nodetypes="ccccc"
           id="path2806"
           d="m 8.136,635.3674 26.704,-27.0737 179.245,0 26.703,27.0737 -232.652,0 z"
           style="fill:url(#linearGradient6751);fill-opacity:1;fill-rule:nonzero;stroke:none;stroke-width:20;marker:none;visibility:visible;display:inline;overflow:visible;enable-background:accumulate" />
      </g>
    </g>
  </g>
</svg>
