<?xml version="1.0" encoding="UTF-8" standalone="no"?>
<!-- Created with Inkscape (http://www.inkscape.org/) -->

<svg
   xmlns:dc="http://purl.org/dc/elements/1.1/"
   xmlns:cc="http://creativecommons.org/ns#"
   xmlns:rdf="http://www.w3.org/1999/02/22-rdf-syntax-ns#"
   xmlns:svg="http://www.w3.org/2000/svg"
   xmlns="http://www.w3.org/2000/svg"
   xmlns:xlink="http://www.w3.org/1999/xlink"
   xmlns:sodipodi="http://sodipodi.sourceforge.net/DTD/sodipodi-0.dtd"
   xmlns:inkscape="http://www.inkscape.org/namespaces/inkscape"
   width="154.81894"
   height="186.18562"
   id="svg14352"
   version="1.1"
   inkscape:version="0.48.1 r9760"
   sodipodi:docname="New document 14">
  <defs
     id="defs14354">
    <radialGradient
       gradientUnits="userSpaceOnUse"
       gradientTransform="matrix(1,0,0,0.641579,0,67.4147)"
       r="113.51694"
       fy="188.08824"
       fx="290.31534"
       cy="188.08824"
       cx="290.31534"
       id="radialGradient2783"
       xlink:href="#linearGradient2775"
       inkscape:collect="always" />
    <linearGradient
       id="linearGradient2775"
       inkscape:collect="always">
      <stop
         id="stop2777"
         offset="0"
         style="stop-color: rgb(179, 179, 179); stop-opacity: 1;" />
      <stop
         id="stop2779"
         offset="1"
         style="stop-color: rgb(179, 179, 179); stop-opacity: 0;" />
    </linearGradient>
    <filter
       color-interpolation-filters="sRGB"
       inkscape:collect="always"
       id="filter3711">
      <feGaussianBlur
         inkscape:collect="always"
         stdDeviation="0.60941671"
         id="feGaussianBlur3713" />
    </filter>
  </defs>
  <sodipodi:namedview
     id="base"
     pagecolor="#ffffff"
     bordercolor="#666666"
     borderopacity="1.0"
     inkscape:pageopacity="0.0"
     inkscape:pageshadow="2"
     inkscape:zoom="0.35"
     inkscape:cx="77.409579"
     inkscape:cy="93.091991"
     inkscape:document-units="px"
     inkscape:current-layer="layer1"
     showgrid="false"
     fit-margin-top="0"
     fit-margin-left="0"
     fit-margin-right="0"
     fit-margin-bottom="0"
     inkscape:window-width="483"
     inkscape:window-height="420"
     inkscape:window-x="1400"
     inkscape:window-y="0"
     inkscape:window-maximized="0" />
  <metadata
     id="metadata14357">
    <rdf:RDF>
      <cc:Work
         rdf:about="">
        <dc:format>image/svg+xml</dc:format>
        <dc:type
           rdf:resource="http://purl.org/dc/dcmitype/StillImage" />
        <dc:title></dc:title>
      </cc:Work>
    </rdf:RDF>
  </metadata>
  <g
     inkscape:label="Layer 1"
     inkscape:groupmode="layer"
     id="layer1"
     transform="translate(-297.59042,-439.26855)">
    <g
       id="g5021"
       transform="translate(164.74188,365.89335)">
      <path
         inkscape:connector-curvature="0"
         sodipodi:nodetypes="cscccsszssscccc"
         transform="translate(107.68179,77.083649)"
         id="path3811"
         d="m 31.960227,47.243713 c 6.065658,2.231478 18.17914,-3.749528 26.981249,-3.971394 8.949042,-0.225569 17.705438,0.656579 26.285797,2.55094 l -6.846469,10.856024 -4.517168,3.490567 c 0,0 16.771245,19.351854 14.860985,33.41314 -0.509308,3.748978 -1.298265,9.46761 -3.676187,12.29382 -5.990722,7.1201 -18.718928,8.86574 -26.53189,9.3304 -7.812962,0.46466 -27.486994,-5.16506 -31.306009,-16.663063 -2.844913,-8.565253 -1.733733,-10.360907 1.848389,-17.878271 1.445122,-3.032701 5.427772,-7.246646 7.529458,-11.334989 1.335503,-2.597914 0.485482,-6.178083 0.485482,-6.178083 l -3.834735,-4.023088 2.786806,-4.037166 -4.065708,-7.848837 z"
         style="fill:#cd853f;fill-opacity:1;fill-rule:nonzero;stroke:none" />
      <path
         inkscape:connector-curvature="0"
         style="fill:#8b4513;fill-opacity:1;fill-rule:nonzero;stroke:none"
         d="m 167.12099,144.37299 c -1.53515,9.01343 -1.23637,17.12886 -0.17128,24.86908 1.70417,0.37739 4.42316,3.22799 4.27928,-8.05192 -0.80261,-0.34816 -2.25942,8.45015 -3.29619,1.43293 -0.50212,-3.39854 -0.60307,-9.13528 -0.81181,-18.25009 z"
         id="path3817"
         sodipodi:nodetypes="cccsc" />
      <g
         id="g2785"
         
         inkscape:export-xdpi="90"
         inkscape:export-ydpi="90"
         transform="matrix(-0.2190207,-0.09780092,0.09780092,-0.2190207,288.685,266.47256)">
        <path
           inkscape:connector-curvature="0"
           id="path5505"
           d="m 156.6787,125.34296 c 0.16847,0 0.33694,0 0,0 z"
           style="fill:none;stroke:#000000;stroke-width:1px;stroke-linecap:butt;stroke-linejoin:miter;stroke-opacity:1" />
        <path
           inkscape:connector-curvature="0"
           sodipodi:nodetypes="ccccccccccccc"
           id="path5507"
           d="m 157.18411,126.85921 c 37.30691,22.07225 62.65306,59.03649 99.15773,82.23173 34.79432,27.09532 73.43301,46.4658 117.49404,53.07117 33.55549,5.35306 53.69178,13.92598 38.2548,-9.83158 -12.69296,-24.81399 -37.33469,-46.43692 -59.25679,-63.1232 C 309.09536,156.45799 257.33197,137.75333 207.88528,115.735 191.77892,110.44237 172.31075,97.738916 168.9307,82.021498 155.51677,82.503865 144.96542,77.148255 133.30646,70.304952 103.73388,51.693827 73.191543,34.41469 42.501486,17.86881 21.437295,10.984798 13.637091,44.058887 34.1134,50.504519 c 20.421383,10.709018 39.853686,22.288777 57.099565,37.87448 16.423115,6.842727 39.483215,19.931051 40.126535,34.374771 5.7438,-0.75896 19.74969,1.56416 25.84461,4.10544 z"
           style="fill:#bcb2b2;fill-opacity:1;fill-rule:evenodd;stroke:#000000;stroke-width:1px;stroke-linecap:butt;stroke-linejoin:miter;stroke-opacity:1" />
        <path
           inkscape:connector-curvature="0"
           id="path5516"
           d="M 159.20578,127.87004 180.43321,100.0722"
           style="fill:none;stroke:#000000;stroke-width:1px;stroke-linecap:butt;stroke-linejoin:miter;stroke-opacity:1" />
        <path
           inkscape:connector-curvature="0"
           sodipodi:nodetypes="ccccccccc"
           id="path6407"
           d="m 185.48369,115.76581 c -12.15648,4.42997 -9.87407,19.96181 0.94797,24.92735 23.04421,12.23658 42.08842,30.41868 63.03247,45.73513 24.52143,19.25867 50.5159,37.89543 80.78133,46.84078 18.31705,6.08841 75.80417,33.68159 72.9868,25.71828 -12.32531,-16.55782 -43.11979,-42.36774 -60.67769,-57.07204 -11.94176,-11.47212 -26.02797,-20.7108 -41.69857,-26.1805 -25.67931,-11.4923 -51.51698,-23.44214 -74.24966,-40.19422 -11.90739,-9.97916 -24.18407,-20.10134 -41.12265,-19.77478 z"
           style="fill:#745e5e;fill-opacity:1;fill-rule:evenodd;stroke:#000000;stroke-width:1px;stroke-linecap:butt;stroke-linejoin:miter;stroke-opacity:1" />
        <path
           sodipodi:end="10.2251"
           sodipodi:start="3.9827704"
           d="m 41.107635,32.319204 c 2.70496,-2.884023 6.858635,-2.60749 9.277493,0.617654 2.418858,3.225144 2.186928,8.177602 -0.518032,11.061626 -2.704959,2.884023 -6.858634,2.60749 -9.277493,-0.617654 -2.349271,-3.132361 -2.207354,-7.916808 0.321641,-10.843464 l 4.576122,5.621478 z"
           sodipodi:ry="7.8339348"
           sodipodi:rx="6.5703969"
           sodipodi:cy="38.158844"
           sodipodi:cx="45.487366"
           id="path7308"
           style="fill:#745e5e;fill-opacity:1;stroke-width:5.69999981;stroke-miterlimit:4;stroke-dasharray:none"
           sodipodi:type="arc" />
        <path
           transform="translate(21.23,9.8556)"
           sodipodi:end="10.2251"
           sodipodi:start="3.9827704"
           d="m 41.107635,32.319204 c 2.70496,-2.884023 6.858635,-2.60749 9.277493,0.617654 2.418858,3.225144 2.186928,8.177602 -0.518032,11.061626 -2.704959,2.884023 -6.858634,2.60749 -9.277493,-0.617654 -2.349271,-3.132361 -2.207354,-7.916808 0.321641,-10.843464 l 4.576122,5.621478 z"
           sodipodi:ry="7.8339348"
           sodipodi:rx="6.5703969"
           sodipodi:cy="38.158844"
           sodipodi:cx="45.487366"
           id="path7310"
           style="fill:#745e5e;fill-opacity:1;stroke-width:5.69999981;stroke-miterlimit:4;stroke-dasharray:none"
           sodipodi:type="arc" />
        <path
           transform="translate(42.4575,25.5235)"
           sodipodi:end="10.2251"
           sodipodi:start="3.9827704"
           d="m 41.107635,32.319204 c 2.70496,-2.884023 6.858635,-2.60749 9.277493,0.617654 2.418858,3.225144 2.186928,8.177602 -0.518032,11.061626 -2.704959,2.884023 -6.858634,2.60749 -9.277493,-0.617654 -2.349271,-3.132361 -2.207354,-7.916808 0.321641,-10.843464 l 4.576122,5.621478 z"
           sodipodi:ry="7.8339348"
           sodipodi:rx="6.5703969"
           sodipodi:cy="38.158844"
           sodipodi:cx="45.487366"
           id="path7312"
           style="fill:#745e5e;fill-opacity:1;stroke-width:5.69999981;stroke-miterlimit:4;stroke-dasharray:none"
           sodipodi:type="arc" />
        <path
           transform="translate(61.1578,37.148)"
           sodipodi:end="10.2251"
           sodipodi:start="3.9827704"
           d="m 41.107635,32.319204 c 2.70496,-2.884023 6.858635,-2.60749 9.277493,0.617654 2.418858,3.225144 2.186928,8.177602 -0.518032,11.061626 -2.704959,2.884023 -6.858634,2.60749 -9.277493,-0.617654 -2.349271,-3.132361 -2.207354,-7.916808 0.321641,-10.843464 l 4.576122,5.621478 z"
           sodipodi:ry="7.8339348"
           sodipodi:rx="6.5703969"
           sodipodi:cy="38.158844"
           sodipodi:cx="45.487366"
           id="path7314"
           style="fill:#745e5e;fill-opacity:1;stroke-width:5.69999981;stroke-miterlimit:4;stroke-dasharray:none"
           sodipodi:type="arc" />
        <path
           transform="translate(81.8798,48.2672)"
           sodipodi:end="10.2251"
           sodipodi:start="3.9827704"
           d="m 41.107635,32.319204 c 2.70496,-2.884023 6.858635,-2.60749 9.277493,0.617654 2.418858,3.225144 2.186928,8.177602 -0.518032,11.061626 -2.704959,2.884023 -6.858634,2.60749 -9.277493,-0.617654 -2.349271,-3.132361 -2.207354,-7.916808 0.321641,-10.843464 l 4.576122,5.621478 z"
           sodipodi:ry="7.8339348"
           sodipodi:rx="6.5703969"
           sodipodi:cy="38.158844"
           sodipodi:cx="45.487366"
           id="path7316"
           style="fill:#745e5e;fill-opacity:1;stroke-width:5.69999981;stroke-miterlimit:4;stroke-dasharray:none"
           sodipodi:type="arc" />
        <path
           transform="translate(98.0531,59.8917)"
           sodipodi:end="10.2251"
           sodipodi:start="3.9827704"
           d="m 41.107635,32.319204 c 2.70496,-2.884023 6.858635,-2.60749 9.277493,0.617654 2.418858,3.225144 2.186928,8.177602 -0.518032,11.061626 -2.704959,2.884023 -6.858634,2.60749 -9.277493,-0.617654 -2.349271,-3.132361 -2.207354,-7.916808 0.321641,-10.843464 l 4.576122,5.621478 z"
           sodipodi:ry="7.8339348"
           sodipodi:rx="6.5703969"
           sodipodi:cy="38.158844"
           sodipodi:cx="45.487366"
           id="path7318"
           style="fill:#745e5e;fill-opacity:1;stroke-width:5.69999981;stroke-miterlimit:4;stroke-dasharray:none"
           sodipodi:type="arc" />
        <path
           inkscape:connector-curvature="0"
           style="opacity:0.68691598;fill:url(#radialGradient2783);fill-opacity:1;fill-rule:evenodd;stroke:none"
           d="m 185.48369,115.76581 c -12.15648,4.42997 -9.87407,19.96181 0.94797,24.92735 23.04421,12.23658 42.08842,30.41868 63.03247,45.73513 24.52143,19.25867 50.5159,37.89543 80.78133,46.84078 18.31705,6.08841 75.80417,33.68159 72.9868,25.71828 -12.32531,-16.55782 -43.11979,-42.36774 -60.67769,-57.07204 -11.94176,-11.47212 -26.02797,-20.7108 -41.69857,-26.1805 -25.67931,-11.4923 -51.51698,-23.44214 -74.24966,-40.19422 -11.90739,-9.97916 -24.18407,-20.10134 -41.12265,-19.77478 z"
           id="path1886"
           sodipodi:nodetypes="ccccccccc" />
      </g>
      <path
         inkscape:connector-curvature="0"
         sodipodi:nodetypes="cccsccccsc"
         transform="translate(107.68179,77.083649)"
         id="path3813"
         d="m 34.517045,41.561895 -2.840909,2.414773 -0.142045,2.840909 c 0.666579,2.02607 18.006692,-2.466896 25.982085,-2.830246 11.697404,-0.532921 16.494701,2.258034 27.853142,1.835928 5.918842,-3.319497 2.234296,-5.61006 -2.272727,-7.8125 -17.486601,-0.181488 -16.819805,-2.249339 -9.801137,-5.823864 -16.038347,2.970165 -27.191431,0.06075 -39.34659,-0.852273 -0.165611,1.411896 -0.368865,3.156489 0.702389,3.697484 6.383201,3.223588 12.140643,6.533676 -0.134208,6.529789 z"
         style="fill:#ff0000;fill-opacity:1;fill-rule:nonzero;stroke:none" />
      <path
         inkscape:connector-curvature="0"
         sodipodi:nodetypes="cccc"
         transform="translate(107.68179,77.083649)"
         id="path3815"
         d="m 46.16144,67.05856 c -3.537198,8.43129 -5.084709,16.403422 -5.800818,24.183692 1.574365,0.753651 3.058726,2.767355 5.474011,-8.251868 -0.92101,-0.682618 -7.533105,21.750796 0.326807,-15.931824 z"
         style="fill:#8b4513;fill-opacity:1;fill-rule:nonzero;stroke:none" />
      <path
         inkscape:connector-curvature="0"
         sodipodi:nodetypes="cccsc"
         id="path3819"
         d="m 174.55313,143.91896 c 0.34993,7.21371 3.27467,13.61671 6.84489,19.26518 1.66253,-0.20055 5.07349,1.20943 1.13925,-7.42782 -0.84048,-0.0367 0.81471,7.15236 -2.48614,2.05201 -1.59864,-2.47018 -2.23561,-6.93661 -5.498,-13.88937 z"
         style="fill:#8b4513;fill-opacity:1;fill-rule:nonzero;stroke:none" />
      <path
         inkscape:connector-curvature="0"
         sodipodi:nodetypes="cssczsc"
         transform="translate(107.68179,77.083649)"
         id="path3821"
         d="m 36.345382,63.188743 c 3.893176,3.481742 -3.410162,12.020157 -6.104067,20.594615 -1.6586,5.279176 0.549737,10.946069 1.893209,14.342916 3.547019,8.968316 12.665197,14.849006 29.110456,16.668896 0,0 -28.829211,2.69195 -33.534136,-15.461846 -4.729192,-18.247431 4.193899,-19.939486 7.694132,-28.770053 1.478742,-3.730646 2.17724,-6.508744 0.940406,-7.374528 z"
         style="fill:#8b4513;fill-opacity:1;fill-rule:nonzero;stroke:none" />
      <g
         inkscape:label="Calque 1"
         id="g3002"
         transform="matrix(0.2584286,0,0,0.2584286,86.275623,38.072573)">
        <path
           inkscape:connector-curvature="0"
           style="fill:#000000;fill-opacity:1;fill-rule:nonzero;stroke:none"
           d="m 249.15639,348.59366 c -3.50853,12.91153 6.67539,31.65501 -5.89946,40.72176 -7.53695,-6.96169 -5.48832,-33.23877 5.89946,-40.72176 z"
           id="path2397" />
        <path
           inkscape:connector-curvature="0"
           style="fill:#000000;fill-opacity:1;fill-rule:nonzero;stroke:none"
           d="m 264.21646,346.6879 c -0.75901,12.9266 5.22609,32.34939 -8.2449,40.08561 -4.55104,-13.24434 -0.74277,-29.67311 8.2449,-40.08561 z"
           id="path2399" />
        <path
           inkscape:connector-curvature="0"
           style="fill:#000000;fill-opacity:1;fill-rule:nonzero;stroke:none"
           d="m 298.89438,345.50153 c -0.54302,11.80838 6.36275,32.24818 -7.71323,37.61753 -4.10111,-12.63329 -1.99053,-28.03258 7.71323,-37.61753 z"
           id="path2401" />
        <path
           inkscape:connector-curvature="0"
           style="fill:#000000;fill-opacity:1;fill-rule:nonzero;stroke:none"
           d="m 310.52747,341.77081 c -2.36138,12.9509 6.35806,31.77228 -6.11687,40.68694 -6.1254,-7.46999 -4.96617,-32.83799 6.11687,-40.68694 z"
           id="path2403" />
        <path
           inkscape:connector-curvature="0"
           style="fill:#000000;fill-opacity:1;fill-rule:nonzero;stroke:none"
           d="m 347.36926,345.33511 c -7.24622,9.82071 7.15715,37.47672 -9.32179,35.93839 -8.78232,-11.22268 -0.35394,-28.23143 9.32179,-35.93839 z"
           id="path2409" />
        <path
           inkscape:connector-curvature="0"
           style="fill:#000000;fill-opacity:1;fill-rule:nonzero;stroke:none"
           d="m 359.20462,343.60825 c -0.5571,11.2692 8.69616,34.0603 -6.52782,37.33583 -2.29606,-12.34975 -5.31807,-28.71803 6.52782,-37.33583 z"
           id="path2411" />
        <path
           inkscape:connector-curvature="0"
           style="fill:#000000;fill-opacity:1;fill-rule:nonzero;stroke:none"
           d="m 211.55608,318.1882 c -1.89245,3.17755 -12.40413,7.55293 -4.96957,1.00522 -2.00392,17.99671 20.88787,13.87777 31.75975,10.21234 31.00773,-10.62597 63.81405,-15.02674 96.50295,-14.52065 24.81661,-1.47831 48.50823,8.50222 73.07398,9.23262 6.64718,-2.29688 17.97419,-3.10689 10.64347,-0.68124 5.77498,-13.62447 -9.66998,-19.1636 -20.1856,-20.83798 -16.07276,-3.33244 -32.31258,1.83884 -48.29077,1.13834 -20.91963,-5.86743 -0.38742,-25.14739 12.20432,-26.4857 5.75831,-4.13021 30.69028,-5.77359 13.89038,1.46625 -15.71905,2.11844 -31.78708,-2.82067 -47.25416,2.95753 -25.47767,5.29648 -51.5991,3.36699 -77.3766,2.32672 -12.17565,-2.68849 -26.05617,-1.18365 -36.02289,-7.56802 5.73324,15.03724 39.94522,9.14025 31.0538,29.52452 -6.64213,9.78062 -36.64515,20.42368 -36.03325,4.7922 7.5719,-5.17578 34.44139,-5.90595 32.13357,-4.86998 -12.37092,-5.85503 -37.13369,-7.7418 -30.87127,-28.6498 9.79217,-18.9869 32.6524,-2.44695 48.44599,-3.56855 28.29945,1.72752 56.99784,1.53394 84.85687,-4.31986 12.1912,1.12196 34.41963,-9.50811 39.15348,5.88401 -6.03525,10.34711 -30.56246,13.16516 -34.62335,14.76471 12.97046,4.43335 26.61575,2.53831 39.96494,1.26286 16.84091,-0.99546 43.34704,2.75563 38.5755,26.15013 -6.48345,16.92757 -27.883,18.95118 -43.42481,15.98609 -21.91399,-4.64755 -44.10451,-9.69927 -66.68812,-7.63693 -22.25361,0.73501 -44.85538,1.26664 -66.12195,8.68749 -15.06037,4.11966 -30.36491,9.19009 -46.1949,8.07536 -19.44691,-5.04664 -0.24405,-35.75583 9.76981,-29.44796 -0.973,1.99558 -3.05881,3.08353 -3.97157,5.12028 z"
           id="path2413" />
        <path
           inkscape:connector-curvature="0"
           style="fill:#000000;fill-opacity:1;fill-rule:nonzero;stroke:none"
           d="m 259.85016,287.09534 c 9.69652,2.37697 26.29185,27.02986 6.70968,23.13471 -7.8701,-4.39389 -21.33204,-17.12314 -6.70968,-23.13471 z"
           id="path2417" />
        <path
           inkscape:connector-curvature="0"
           style="fill:#000000;fill-opacity:1;fill-rule:nonzero;stroke:none"
           d="m 309.1019,316.06631 c 0.62117,-10.54953 16.27329,-28.21245 20.68369,-24.23495 -8.3203,6.82965 -12.28513,17.47035 -20.68369,24.23495 z"
           id="path2421" />
        <path
           inkscape:connector-curvature="0"
           style="fill:#000000;fill-opacity:1;fill-rule:nonzero;stroke:none"
           d="m 231.87933,373.84787 c -5.21287,2.69411 -24.51633,1.97592 -16.73969,3.02927 5.68012,11.04702 37.1852,-9.0699 26.78317,9.48533 -10.32056,6.60458 -32.1408,8.57516 -35.41714,-6.3197 -2.50542,-13.67 33.15587,-23.30943 26.53175,-7.58682 l -1.15809,1.39192 0,0 z"
           id="path2441" />
        <path
           inkscape:connector-curvature="0"
           style="fill:#000000;fill-opacity:1;fill-rule:nonzero;stroke:none"
           d="m 267.22299,360.97031 c 7.72536,5.43022 35.1814,-6.89796 27.99588,9.20931 -6.97891,5.43956 -40.12547,7.17384 -27.99588,-9.20931 z"
           id="path2443" />
        <path
           inkscape:connector-curvature="0"
           style="fill:#000000;fill-opacity:1;fill-rule:nonzero;stroke:none"
           d="m 315.87262,355.20636 c 7.89098,-3.54603 33.76219,1.47224 16.1168,10.07444 -7.18868,2.45913 -31.70833,1.53183 -16.1168,-10.07444 z"
           id="path2447" />
        <path
           inkscape:connector-curvature="0"
           style="fill:#000000;fill-opacity:1;fill-rule:nonzero;stroke:none"
           d="m 364.31531,353.2475 c 11.33178,-8.77261 35.75334,4.74419 26.37945,18.88775 -4.82834,9.19535 -34.86586,12.14057 -26.92265,-1.34759 4.33832,-7.05154 32.52104,0.72569 16.1882,-6.67964 -6.83744,-0.4752 -29.67582,1.70171 -15.645,-10.86052 z"
           id="path2449" />
        <path
           inkscape:connector-curvature="0"
           style="fill:#000000;fill-opacity:1;fill-rule:nonzero;stroke:none"
           d="m 329.7605,381.82489 c -6.15321,6.18083 -31.61551,2.15943 -16.90119,-6.45302 6.9319,-0.85309 30.65196,-9.33227 16.90119,6.45302 z"
           id="path2451" />
        <path
           inkscape:connector-curvature="0"
           style="fill:#000000;fill-opacity:1;fill-rule:nonzero;stroke:none"
           d="m 284.45416,388.68326 c -7.29335,1.9148 -35.97275,5.39494 -21.14277,-7.44596 6.40776,-2.94358 35.0581,-6.828 21.14277,7.44596 z"
           id="path2453" />
        <path
           inkscape:connector-curvature="0"
           style="fill:#000000;fill-opacity:1;fill-rule:nonzero;stroke:none"
           d="m 202.08665,334.60587 c 10.9411,2.85954 36.68892,22.89947 18.54654,29.1381 -7.95425,-7.09653 -31.82471,-18.32041 -18.54654,-29.1381 l 0,0 z"
           id="path2455" />
        <path
           inkscape:connector-curvature="0"
           style="fill:#000000;fill-opacity:1;fill-rule:nonzero;stroke:none"
           d="m 386.09457,350.39749 c 5.78919,-4.24655 18.84561,-21.30676 22.14345,-14.97292 -1.34703,2.21212 -24.99097,25.96807 -22.14345,14.97292 z"
           id="path2459" />
        <path
           inkscape:connector-curvature="0"
           style="fill:#000000;fill-opacity:1;fill-rule:nonzero;stroke:none"
           d="m 225.57237,385.37531 c 10.10069,16.78737 2.00738,38.35502 -11.79775,50.34239 -15.02024,17.84483 -25.25321,40.31464 -24.41602,64.00821 -0.69019,34.26431 21.00779,68.48579 54.17826,79.1981 29.16377,10.82925 60.89998,10.1921 91.53961,10.74604 22.93898,-1.91941 43.0786,-14.15961 62.74645,-25.07313 18.32135,-0.33846 19.35309,-18.91225 23.34961,-33.54071 3.38565,-23.78397 2.08492,-48.98524 -6.46794,-71.57657 -8.53929,-20.80735 -25.58983,-36.25085 -42.91124,-49.75811 -8.9995,-5.2413 -17.89202,-31.33941 -2.85996,-27.97293 6.88831,14.4581 18.02781,25.43832 30.80563,34.60717 20.52011,19.01211 31.89791,46.55001 31.94463,74.42225 1.33607,26.71218 -2.13677,57.90738 -23.93708,76.15231 -15.01097,9.09027 -31.31707,15.8917 -46.7615,24.25061 -18.46565,8.88984 -39.26809,10.55453 -59.39596,8.41035 -35.53047,-0.82762 -75.35822,-5.90027 -100.36735,-34.01168 -28.54422,-32.27899 -27.47655,-84.76755 0.0308,-117.37505 8.06828,-12.09976 23.33042,-23.0598 19.29365,-39.48782 -0.80301,-7.70189 -4.03819,-19.20932 5.02617,-23.34143 z"
           id="path2463" />
        <path
           inkscape:connector-curvature="0"
           style="fill:#000000;fill-opacity:1;fill-rule:nonzero;stroke:none"
           d="m 263.74622,406.63281 c -10.91371,24.93921 -12.38616,52.78016 -20.967,78.36565 -1.20477,5.9935 5.47298,28.04472 7.36564,10.9976 9.51807,-9.12721 2.94583,-38.51999 16.71228,-37.10095 0.1862,13.52176 -6.52405,26.56638 -11.56894,38.95853 -2.61594,13.31009 -22.88488,18.0881 -22.03408,0.46421 2.355,-19.61896 10.00425,-38.33393 12.96842,-57.97838 3.20514,-12.20111 5.69054,-26.71134 17.52368,-33.70666 z"
           id="path2467" />
        <path
           inkscape:connector-curvature="0"
           style="fill:#000000;fill-opacity:1;fill-rule:nonzero;stroke:none"
           d="m 310.70636,411.41327 c 2.30555,23.92535 -1.08446,48.08545 2.33811,71.93982 4.64912,5.28406 7.20631,19.8967 9.60502,20.53776 0.65938,-6.63214 3.42885,-32.42066 11.72797,-21.99733 0.59046,11.49225 -8.14123,36.46362 -22.63884,26.96829 -11.24579,-17.64764 -8.66047,-40.0277 -9.0777,-60.08255 0.80811,-12.57236 -5.28318,-29.24842 8.04544,-37.36599 z"
           id="path2469" />
        <path
           inkscape:connector-curvature="0"
           style="fill:#000000;fill-opacity:1;fill-rule:nonzero;stroke:none"
           d="m 341.9321,408.59265 c 0.54475,20.65133 12.64733,38.25665 18.88214,57.36523 2.56181,7.0606 24.75765,13.57009 11.28773,20.41852 -11.9454,-10.22897 14.9699,-27.99794 10.24735,-7.44127 -4.8642,15.82152 -26.58233,8.07405 -31.69042,-3.73192 -1.85162,-11.71491 -7.0956,-22.39849 -12.38641,-33.13307 -4.57603,-10.34595 -7.89317,-26.46895 3.65961,-33.47749 z"
           id="path2473" />
        <path
           inkscape:connector-curvature="0"
           style="fill:#000000;fill-opacity:1;fill-rule:nonzero;stroke:none"
           d="m 280.13766,278.16479 c -1.19608,-30.23189 -20.63178,-56.43835 -20.95263,-86.79425 -0.57732,-15.40557 9.51976,-28.30121 19.22425,-39.19676 4.97616,-5.7887 10.27143,-11.97415 18.01677,-13.913 12.00697,-3.37447 25.18708,-1.32605 36.41035,3.74587 9.78147,4.41685 17.09095,13.68473 18.52792,24.3828 2.66751,13.18638 -0.79969,26.99007 -8.06163,38.152 -6.09497,11.11862 -9.27011,23.78319 -8.63591,36.47451 -0.033,7.52966 0.42504,15.11543 1.42774,22.53909 0.76468,2.76434 -4.84474,9.71015 -4.89432,7.00644 1.09686,-1.45112 -7.1097,3.76392 -4.88243,-1.57822 -1.17808,-12.45028 -1.04481,-25.0979 0.62223,-37.48385 2.6499,-13.05992 11.19562,-23.90698 14.83688,-36.57438 2.88695,-13.05485 1.36916,-28.53973 -8.95642,-38.06799 -10.31707,-8.32256 -24.37017,-10.45096 -37.24338,-9.32675 -7.82357,1.23688 -15.31163,5.21462 -20.28143,11.44752 1.24925,-2.24997 5.14635,-5.4929 1.67391,-1.37945 -7.34931,9.59611 -10.94217,22.39766 -7.90239,34.2793 2.66117,21.43971 13.20031,40.78377 17.824,61.7528 1.87786,6.34086 3.95022,14.35425 -1.63023,19.49593 -1.57567,1.80908 -3.37585,3.40084 -5.12328,5.03839 z"
           id="path2601" />
        <path
           inkscape:connector-curvature="0"
           style="fill:#000000;fill-opacity:1;fill-rule:nonzero;stroke:none"
           d="m 286.83853,275.64536 c -2.56537,-16.00048 -0.0845,-32.80845 -5.94912,-48.23378 -2.24513,-12.77312 -4.23071,-26.02538 -11.25287,-37.21199 -3.21802,-7.09114 -3.19214,-16.21246 2.47211,-22.09077 9.08808,-12.23503 24.68492,-17.89277 39.44106,-18.84337 9.62343,0.065 16.27612,8.38662 19.54462,16.60887 3.90145,9.83541 5.30181,20.45738 6.86105,30.85046 1.0578,14.82807 -4.48312,28.94333 -6.78689,43.36549 -1.89807,7.34318 4.29478,16.17601 -1.20509,22.28727 -6.98153,5.86043 -9.82299,-3.86032 -7.97532,-9.36022 0.47039,-10.73277 3.76582,-21.00138 6.06552,-31.40275 2.26627,-15.04028 -0.6032,-30.41084 -5.18335,-44.75116 -2.49336,-7.99785 -8.47625,-15.63333 -17.18255,-16.98945 -9.09444,-0.97371 -17.63387,3.48908 -25.773,6.94782 -2.19244,0.31179 -8.2594,5.20413 -3.76817,0.59177 1.21993,1.52559 0.13224,9.75581 2.70912,13.2835 4.02729,9.16917 8.14093,18.43623 9.48328,28.46091 0.9098,7.57563 3.50611,14.76865 4.99839,22.20742 1.58851,10.17243 0.41429,20.58543 2.39113,30.71422 -0.0847,5.85567 -4.88932,9.95692 -8.88992,13.56576 z"
           id="path2603" />
      </g>
      <path
         inkscape:connector-curvature="0"
         sodipodi:nodetypes="cczc"
         transform="translate(107.68179,77.083649)"
         id="path3027"
         d="m 57.142857,108.23082 c 22.907101,-0.18708 22.404676,-9.97806 25.595238,-18.253972 0,0 -5.585349,9.202463 -9.523809,12.103172 -3.938459,2.90071 -16.071429,6.1508 -16.071429,6.1508 z"
         style="fill:#000000;fill-opacity:1;fill-rule:nonzero;stroke:#000000;stroke-width:0.80000001;stroke-linecap:butt;stroke-linejoin:round;stroke-miterlimit:4;stroke-opacity:1;stroke-dasharray:none;stroke-dashoffset:0" />
      <g
         transform="translate(138.22754,-207.54779)"
         id="g6003">
        <path
           sodipodi:type="arc"
           style="fill:#686106;fill-opacity:1;fill-rule:evenodd;stroke:#000000;stroke-width:3.9000001;stroke-miterlimit:4;stroke-opacity:0.11165;stroke-dasharray:none"
           id="path6005"
           sodipodi:cx="309.48816"
           sodipodi:cy="142.10286"
           sodipodi:rx="56.676525"
           sodipodi:ry="35.036396"
           d="m 366.16468,142.10286 c 0,19.35007 -25.37494,35.0364 -56.67652,35.0364 -31.30158,0 -56.67653,-15.68633 -56.67653,-35.0364 0,-19.35007 25.37495,-35.0364 56.67653,-35.0364 31.30158,0 56.67652,15.68633 56.67652,35.0364 z"
           transform="matrix(0.124621,0,0,0.150216,28.0926,382.396)" />
        <path
           sodipodi:type="arc"
           style="fill:#ecda07;fill-opacity:1;fill-rule:evenodd;stroke:#000000;stroke-width:3.9000001;stroke-miterlimit:4;stroke-opacity:0.11165;stroke-dasharray:none"
           id="path6007"
           sodipodi:cx="309.48816"
           sodipodi:cy="142.10286"
           sodipodi:rx="56.676525"
           sodipodi:ry="35.036396"
           d="m 366.16468,142.10286 c 0,19.35007 -25.37494,35.0364 -56.67652,35.0364 -31.30158,0 -56.67653,-15.68633 -56.67653,-35.0364 0,-19.35007 25.37495,-35.0364 56.67653,-35.0364 31.30158,0 56.67652,15.68633 56.67652,35.0364 z"
           transform="matrix(0.124621,0,0,0.150216,28.0346,381.364)" />
        <path
           inkscape:connector-curvature="0"
           transform="matrix(0.113436,0,0,0.165027,28.5911,382.396)"
           style="font-size:70.66960144px;font-style:normal;font-variant:normal;font-weight:normal;font-stretch:normal;text-align:start;line-height:125%;text-anchor:start;fill:#ffdd54;fill-opacity:1;stroke:#837714;stroke-width:1px;stroke-linecap:butt;stroke-linejoin:miter;stroke-opacity:1;filter:url(#filter3711);font-family:Alfredo"
           d="m 317.09391,106.30738 c 0.92879,2.57797 1.84753,6.62387 2.75621,12.13771 0.90866,5.51389 1.72244,9.45412 2.44135,11.82068 1.35149,4.39385 3.35862,8.04868 6.02141,10.96449 -0.67722,-0.0417 -1.22645,-0.0625 -1.6477,-0.0625 -3.12718,-0.16966 -5.5146,-0.25448 -7.16228,-0.25448 -1.05678,0 -2.04992,0.0212 -2.97943,0.0636 -0.92953,0.0424 -1.71132,0.12688 -2.34537,0.25341 0.71887,-2.87268 1.47946,-6.78091 2.28175,-11.72471 0.80226,-4.94378 1.2034,-8.70464 1.20342,-11.28259 -2e-5,-3.29536 -0.41194,-6.72841 -1.23577,-10.29915 -0.82386,-3.57069 -1.5104,-5.35604 -2.05962,-5.35608 -0.0848,1.35298 -0.1481,2.40975 -0.18978,3.1703 -0.21137,2.23865 -0.5284,3.75909 -0.95109,4.56134 -0.71746,1.73255 -1.45648,3.14876 -2.21705,4.24863 -1.01508,1.51976 -1.92375,2.27962 -2.72603,2.27959 -0.0417,-0.33785 -0.0625,-0.67572 -0.0625,-1.01363 0.20991,-0.92877 0.31487,-1.68936 0.31487,-2.28175 0,-0.97191 -0.14737,-2.0071 -0.44212,-3.1056 -0.0848,-0.37954 -0.25377,-0.86551 -0.50681,-1.4579 0.71745,3e-5 1.47803,-0.38026 2.28175,-1.14088 0.63262,-0.59089 1.35078,-1.54126 2.15451,-2.85111 0.63405,-0.9719 1.12002,-2.26086 1.4579,-3.8669 0.0417,-0.25301 0.1258,-0.61173 0.25233,-1.07617 0.381,0.16826 0.74045,0.5694 1.07833,1.20342 0.76058,1.30985 1.52116,2.99995 2.28176,5.07031 l 0,0 z m 26.06329,-6.27373 c 5.95812,4e-5 11.26064,3.04237 15.90756,9.127 4.26872,5.61886 6.4031,11.42819 6.40313,17.42801 -3e-5,4.18394 -1.16247,7.60656 -3.48732,10.26788 -2.53483,2.91581 -6.04157,4.37372 -10.52021,4.37372 -6.33917,0 -11.43105,-2.45069 -15.27566,-7.35207 -3.59157,-4.56349 -5.38735,-10.16219 -5.38735,-16.79611 0,-4.56347 0.99279,-8.42965 2.97836,-11.59854 2.28174,-3.63322 5.4089,-5.44985 9.38149,-5.44989 l 0,0 z m 7.47931,27.37885 c 2.6613,2e-5 4.94269,-0.95071 6.84418,-2.85218 1.90143,-1.90144 2.85215,-4.20368 2.85219,-6.90672 -4e-5,-3.33849 -1.66929,-6.95162 -5.00778,-10.8394 -3.71811,-4.30898 -7.75323,-6.46348 -12.10536,-6.46352 -2.87269,4e-5 -5.13287,0.88715 -6.78055,2.66132 -1.6477,1.77425 -2.47154,4.18253 -2.47154,7.22483 0,4.60522 1.6901,8.61913 5.07032,12.04173 3.3802,3.42265 7.24638,5.13396 11.59854,5.13394 l 0,0 z"
           id="path6009" />
      </g>
      <g
         transform="translate(121.19962,-207.41841)"
         id="g5995">
        <path
           sodipodi:type="arc"
           style="fill:#686106;fill-opacity:1;fill-rule:evenodd;stroke:#000000;stroke-width:3.9000001;stroke-miterlimit:4;stroke-opacity:0.11165;stroke-dasharray:none"
           id="path5997"
           sodipodi:cx="309.48816"
           sodipodi:cy="142.10286"
           sodipodi:rx="56.676525"
           sodipodi:ry="35.036396"
           d="m 366.16468,142.10286 c 0,19.35007 -25.37494,35.0364 -56.67652,35.0364 -31.30158,0 -56.67653,-15.68633 -56.67653,-35.0364 0,-19.35007 25.37495,-35.0364 56.67653,-35.0364 31.30158,0 56.67652,15.68633 56.67652,35.0364 z"
           transform="matrix(0.124621,0,0,0.150216,28.0926,382.396)" />
        <path
           sodipodi:type="arc"
           style="fill:#ecda07;fill-opacity:1;fill-rule:evenodd;stroke:#000000;stroke-width:3.9000001;stroke-miterlimit:4;stroke-opacity:0.11165;stroke-dasharray:none"
           id="path5999"
           sodipodi:cx="309.48816"
           sodipodi:cy="142.10286"
           sodipodi:rx="56.676525"
           sodipodi:ry="35.036396"
           d="m 366.16468,142.10286 c 0,19.35007 -25.37494,35.0364 -56.67652,35.0364 -31.30158,0 -56.67653,-15.68633 -56.67653,-35.0364 0,-19.35007 25.37495,-35.0364 56.67653,-35.0364 31.30158,0 56.67652,15.68633 56.67652,35.0364 z"
           transform="matrix(0.124621,0,0,0.150216,28.0346,381.364)" />
        <path
           inkscape:connector-curvature="0"
           transform="matrix(0.113436,0,0,0.165027,28.5911,382.396)"
           style="font-size:70.66960144px;font-style:normal;font-variant:normal;font-weight:normal;font-stretch:normal;text-align:start;line-height:125%;text-anchor:start;fill:#ffdd54;fill-opacity:1;stroke:#837714;stroke-width:1px;stroke-linecap:butt;stroke-linejoin:miter;stroke-opacity:1;filter:url(#filter3711);font-family:Alfredo"
           d="m 317.09391,106.30738 c 0.92879,2.57797 1.84753,6.62387 2.75621,12.13771 0.90866,5.51389 1.72244,9.45412 2.44135,11.82068 1.35149,4.39385 3.35862,8.04868 6.02141,10.96449 -0.67722,-0.0417 -1.22645,-0.0625 -1.6477,-0.0625 -3.12718,-0.16966 -5.5146,-0.25448 -7.16228,-0.25448 -1.05678,0 -2.04992,0.0212 -2.97943,0.0636 -0.92953,0.0424 -1.71132,0.12688 -2.34537,0.25341 0.71887,-2.87268 1.47946,-6.78091 2.28175,-11.72471 0.80226,-4.94378 1.2034,-8.70464 1.20342,-11.28259 -2e-5,-3.29536 -0.41194,-6.72841 -1.23577,-10.29915 -0.82386,-3.57069 -1.5104,-5.35604 -2.05962,-5.35608 -0.0848,1.35298 -0.1481,2.40975 -0.18978,3.1703 -0.21137,2.23865 -0.5284,3.75909 -0.95109,4.56134 -0.71746,1.73255 -1.45648,3.14876 -2.21705,4.24863 -1.01508,1.51976 -1.92375,2.27962 -2.72603,2.27959 -0.0417,-0.33785 -0.0625,-0.67572 -0.0625,-1.01363 0.20991,-0.92877 0.31487,-1.68936 0.31487,-2.28175 0,-0.97191 -0.14737,-2.0071 -0.44212,-3.1056 -0.0848,-0.37954 -0.25377,-0.86551 -0.50681,-1.4579 0.71745,3e-5 1.47803,-0.38026 2.28175,-1.14088 0.63262,-0.59089 1.35078,-1.54126 2.15451,-2.85111 0.63405,-0.9719 1.12002,-2.26086 1.4579,-3.8669 0.0417,-0.25301 0.1258,-0.61173 0.25233,-1.07617 0.381,0.16826 0.74045,0.5694 1.07833,1.20342 0.76058,1.30985 1.52116,2.99995 2.28176,5.07031 l 0,0 z m 26.06329,-6.27373 c 5.95812,4e-5 11.26064,3.04237 15.90756,9.127 4.26872,5.61886 6.4031,11.42819 6.40313,17.42801 -3e-5,4.18394 -1.16247,7.60656 -3.48732,10.26788 -2.53483,2.91581 -6.04157,4.37372 -10.52021,4.37372 -6.33917,0 -11.43105,-2.45069 -15.27566,-7.35207 -3.59157,-4.56349 -5.38735,-10.16219 -5.38735,-16.79611 0,-4.56347 0.99279,-8.42965 2.97836,-11.59854 2.28174,-3.63322 5.4089,-5.44985 9.38149,-5.44989 l 0,0 z m 7.47931,27.37885 c 2.6613,2e-5 4.94269,-0.95071 6.84418,-2.85218 1.90143,-1.90144 2.85215,-4.20368 2.85219,-6.90672 -4e-5,-3.33849 -1.66929,-6.95162 -5.00778,-10.8394 -3.71811,-4.30898 -7.75323,-6.46348 -12.10536,-6.46352 -2.87269,4e-5 -5.13287,0.88715 -6.78055,2.66132 -1.6477,1.77425 -2.47154,4.18253 -2.47154,7.22483 0,4.60522 1.6901,8.61913 5.07032,12.04173 3.3802,3.42265 7.24638,5.13396 11.59854,5.13394 l 0,0 z"
           id="path6001" />
      </g>
      <path
         inkscape:connector-curvature="0"
         transform="translate(107.68179,77.083649)"
         style="fill:#000000;fill-opacity:1;fill-rule:nonzero;stroke:none"
         d="m 57.142857,108.23082 c 22.907101,-0.18708 22.404676,-9.97806 25.595238,-18.253972 0,0 -5.585349,9.202463 -9.523809,12.103172 -3.938459,2.90071 -16.071429,6.1508 -16.071429,6.1508 z"
         id="path3029"
         sodipodi:nodetypes="cczc" />
      <path
         inkscape:connector-curvature="0"
         sodipodi:nodetypes="ccscsc"
         id="path3031"
         transform="translate(107.68179,77.083649)"
         d="m 83.105136,90.039777 c 0,0 0.117829,-0.608216 -0.46875,-0.35092 C 80.620422,97.081539 76.977772,102.11847 73,104.46875 c -4.213926,2.48981 -10.694003,3.52335 -15.947529,4.14491 8.313299,0.032 13.686435,-1.17856 17.268923,-3.40732 5.95888,-3.70718 6.919807,-9.997121 8.783742,-15.166563 z"
         style="fill:#ff0000;fill-opacity:1;fill-rule:nonzero;stroke:none" />
      <g
         transform="matrix(0.670718,0.741712,-0.741712,0.670718,437.27268,-140.71112)"
         id="g6035">
        <path
           sodipodi:type="arc"
           style="fill:#686106;fill-opacity:1;fill-rule:evenodd;stroke:#000000;stroke-width:3.9000001;stroke-miterlimit:4;stroke-opacity:0.11165;stroke-dasharray:none"
           id="path6037"
           sodipodi:cx="309.48816"
           sodipodi:cy="142.10286"
           sodipodi:rx="56.676525"
           sodipodi:ry="35.036396"
           d="m 366.16468,142.10286 c 0,19.35007 -25.37494,35.0364 -56.67652,35.0364 -31.30158,0 -56.67653,-15.68633 -56.67653,-35.0364 0,-19.35007 25.37495,-35.0364 56.67653,-35.0364 31.30158,0 56.67652,15.68633 56.67652,35.0364 z"
           transform="matrix(0.124621,0,0,0.150216,28.0926,382.396)" />
        <path
           sodipodi:type="arc"
           style="fill:#ecda07;fill-opacity:1;fill-rule:evenodd;stroke:#000000;stroke-width:3.9000001;stroke-miterlimit:4;stroke-opacity:0.11165;stroke-dasharray:none"
           id="path6039"
           sodipodi:cx="309.48816"
           sodipodi:cy="142.10286"
           sodipodi:rx="56.676525"
           sodipodi:ry="35.036396"
           d="m 366.16468,142.10286 c 0,19.35007 -25.37494,35.0364 -56.67652,35.0364 -31.30158,0 -56.67653,-15.68633 -56.67653,-35.0364 0,-19.35007 25.37495,-35.0364 56.67653,-35.0364 31.30158,0 56.67652,15.68633 56.67652,35.0364 z"
           transform="matrix(0.124621,0,0,0.150216,28.0346,381.364)" />
        <path
           inkscape:connector-curvature="0"
           transform="matrix(0.113436,0,0,0.165027,28.5911,382.396)"
           style="font-size:70.66960144px;font-style:normal;font-variant:normal;font-weight:normal;font-stretch:normal;text-align:start;line-height:125%;text-anchor:start;fill:#ffdd54;fill-opacity:1;stroke:#837714;stroke-width:1px;stroke-linecap:butt;stroke-linejoin:miter;stroke-opacity:1;filter:url(#filter3711);font-family:Alfredo"
           d="m 317.09391,106.30738 c 0.92879,2.57797 1.84753,6.62387 2.75621,12.13771 0.90866,5.51389 1.72244,9.45412 2.44135,11.82068 1.35149,4.39385 3.35862,8.04868 6.02141,10.96449 -0.67722,-0.0417 -1.22645,-0.0625 -1.6477,-0.0625 -3.12718,-0.16966 -5.5146,-0.25448 -7.16228,-0.25448 -1.05678,0 -2.04992,0.0212 -2.97943,0.0636 -0.92953,0.0424 -1.71132,0.12688 -2.34537,0.25341 0.71887,-2.87268 1.47946,-6.78091 2.28175,-11.72471 0.80226,-4.94378 1.2034,-8.70464 1.20342,-11.28259 -2e-5,-3.29536 -0.41194,-6.72841 -1.23577,-10.29915 -0.82386,-3.57069 -1.5104,-5.35604 -2.05962,-5.35608 -0.0848,1.35298 -0.1481,2.40975 -0.18978,3.1703 -0.21137,2.23865 -0.5284,3.75909 -0.95109,4.56134 -0.71746,1.73255 -1.45648,3.14876 -2.21705,4.24863 -1.01508,1.51976 -1.92375,2.27962 -2.72603,2.27959 -0.0417,-0.33785 -0.0625,-0.67572 -0.0625,-1.01363 0.20991,-0.92877 0.31487,-1.68936 0.31487,-2.28175 0,-0.97191 -0.14737,-2.0071 -0.44212,-3.1056 -0.0848,-0.37954 -0.25377,-0.86551 -0.50681,-1.4579 0.71745,3e-5 1.47803,-0.38026 2.28175,-1.14088 0.63262,-0.59089 1.35078,-1.54126 2.15451,-2.85111 0.63405,-0.9719 1.12002,-2.26086 1.4579,-3.8669 0.0417,-0.25301 0.1258,-0.61173 0.25233,-1.07617 0.381,0.16826 0.74045,0.5694 1.07833,1.20342 0.76058,1.30985 1.52116,2.99995 2.28176,5.07031 l 0,0 z m 26.06329,-6.27373 c 5.95812,4e-5 11.26064,3.04237 15.90756,9.127 4.26872,5.61886 6.4031,11.42819 6.40313,17.42801 -3e-5,4.18394 -1.16247,7.60656 -3.48732,10.26788 -2.53483,2.91581 -6.04157,4.37372 -10.52021,4.37372 -6.33917,0 -11.43105,-2.45069 -15.27566,-7.35207 -3.59157,-4.56349 -5.38735,-10.16219 -5.38735,-16.79611 0,-4.56347 0.99279,-8.42965 2.97836,-11.59854 2.28174,-3.63322 5.4089,-5.44985 9.38149,-5.44989 l 0,0 z m 7.47931,27.37885 c 2.6613,2e-5 4.94269,-0.95071 6.84418,-2.85218 1.90143,-1.90144 2.85215,-4.20368 2.85219,-6.90672 -4e-5,-3.33849 -1.66929,-6.95162 -5.00778,-10.8394 -3.71811,-4.30898 -7.75323,-6.46348 -12.10536,-6.46352 -2.87269,4e-5 -5.13287,0.88715 -6.78055,2.66132 -1.6477,1.77425 -2.47154,4.18253 -2.47154,7.22483 0,4.60522 1.6901,8.61913 5.07032,12.04173 3.3802,3.42265 7.24638,5.13396 11.59854,5.13394 l 0,0 z"
           id="path6041" />
      </g>
      <path
         inkscape:connector-curvature="0"
         sodipodi:nodetypes="cccc"
         transform="translate(107.68179,77.083649)"
         id="path5019"
         d="m 60.100503,106.84013 c 6.408098,-1.95721 12.323542,-0.67698 20.502512,-14.271354 L 68.643216,91.865259 60.100503,106.84013 z"
         style="fill:#cd853f;fill-opacity:1;fill-rule:nonzero;stroke:none" />
    </g>
  </g>
</svg>
