<?xml version="1.0" encoding="utf-8"?>
<!-- Generator: Adobe Illustrator 13.0.2, SVG Export Plug-In . SVG Version: 6.00 Build 14948)  -->
<!DOCTYPE svg PUBLIC "-//W3C//DTD SVG 1.1//EN" "http://www.w3.org/Graphics/SVG/1.1/DTD/svg11.dtd">
<svg version="1.1" id="Layer_1" xmlns="http://www.w3.org/2000/svg" xmlns:xlink="http://www.w3.org/1999/xlink" x="0px" y="0px"
	 width="393.839px" height="369.226px" viewBox="0 0 393.839 369.226" enable-background="new 0 0 393.839 369.226"
	 xml:space="preserve">
<path fill-rule="evenodd" clip-rule="evenodd" fill="#B9E5FB" d="M23.831,229.389c0,0-51.207-106.287-3.496-171.049
	C68.045-6.424,114.811,0.773,207.87,0.773c93.061,0,179.979-17.39,180.451,112.735c0.472,130.126-9.554,118.838-9.554,118.838
	s-16.873-5.21-20.193-2.958c-3.319,2.252-22.523,15.775-22.523,15.775s-16.266-12.111-20.971-12.817
	c-4.702-0.706-22.181,5.891-22.181,5.891s-16.533-8.396-22.202-7.796c-5.667,0.6-19.368,7.796-19.368,7.796
	s-13.226-4.197-25.035-4.797c-11.81-0.599-59.556-2.079-59.556-2.079l-4.66,1.972l-17.034-7.689l-17.006,7.797
	c0,0-13.056-9.739-21.88-9.967c-8.825-0.228-21.579,6.968-21.579,6.968s-11.041-4.996-14.148-4.996
	c-3.106,0-12.426,7.888-12.426,7.888s-10.272-10.088-20.191-8.288C27.893,226.845,23.831,229.389,23.831,229.389z"/>
<path fill-rule="evenodd" clip-rule="evenodd" fill="#006A6E" d="M385.658,187.249c4,33.333,20.291,72.465-8.666,138.666
	c-27.031,61.799-97.523,39.326-187.388,39.326S15.806,378.47,15.35,279.482s-7.691-96.233-7.691-96.233s33.21,9.796,36.417,8.083
	s21.75-12,21.75-12s15.708,9.213,20.25,9.75s21.42-4.481,21.42-4.481s15.965,6.387,21.439,5.931s18.703-5.931,18.703-5.931
	s12.772,3.193,24.176,3.649s57.511,1.582,57.511,1.582l4.5-1.5l16.449,5.849l16.422-5.931c0,0,12.607,7.409,21.129,7.582
	s20.838-5.301,20.838-5.301s10.662,3.801,13.662,3.801s12-6,12-6s9.919,7.674,19.498,6.305S385.658,187.249,385.658,187.249z"/>
<polygon fill-rule="evenodd" clip-rule="evenodd" points="253.325,17.332 255.575,21.832 255.575,23.332 257.075,26.332 
	257.825,28.582 259.325,30.082 260.075,29.332 260.825,29.332 261.575,28.582 262.325,28.582 263.075,27.832 263.825,27.832 
	265.325,29.332 266.075,31.582 266.825,34.582 266.825,39.082 268.325,39.082 269.075,38.332 269.825,38.332 271.325,36.832 
	272.825,36.832 273.575,36.832 275.825,39.082 278.075,36.082 281.075,33.832 284.075,30.832 287.075,28.582 290.825,27.082 
	293.825,24.832 297.575,22.582 301.325,21.082 303.575,21.082 304.325,21.832 304.325,23.332 302.825,26.332 301.325,27.082 
	300.575,27.832 299.825,29.332 298.325,30.082 297.575,31.582 303.575,30.082 307.325,28.582 310.325,27.832 317.825,26.332 
	324.575,26.332 325.325,27.082 325.325,28.582 323.075,30.082 320.825,32.332 317.825,34.582 315.575,36.832 312.575,38.332 
	308.075,42.832 305.825,45.832 311.075,45.832 312.575,46.582 313.325,46.582 314.075,47.332 314.075,50.332 313.325,51.832 
	312.575,52.582 311.825,52.582 311.075,53.332 311.825,54.082 313.325,54.832 314.825,54.832 316.325,55.582 317.075,56.332 
	318.575,56.332 320.075,57.082 321.575,57.082 323.825,58.582 326.825,60.082 329.825,60.832 332.825,62.332 335.825,63.082 
	338.075,64.582 342.575,69.082 340.325,71.332 338.075,71.332 333.575,72.832 331.325,72.832 329.825,73.582 328.325,73.582 
	332.825,78.082 334.325,80.332 338.825,84.832 340.325,87.082 341.825,90.082 343.325,92.332 342.575,93.082 338.075,91.582 
	335.075,90.832 332.825,90.082 331.325,89.332 326.825,87.832 324.575,86.332 324.575,88.582 325.325,90.832 325.325,93.082 
	323.825,94.582 322.325,95.332 322.325,96.082 326.825,102.082 329.075,108.082 330.575,114.082 330.575,125.332 329.825,129.082 
	329.075,131.332 328.325,132.082 327.575,132.082 326.825,130.582 323.825,126.082 322.325,123.082 320.075,120.082 
	318.575,117.832 316.325,115.582 316.325,117.832 314.825,119.332 313.325,119.332 312.575,117.832 311.075,117.082 
	310.325,115.582 310.325,120.832 309.575,131.332 308.825,142.582 307.325,148.582 306.575,149.332 305.075,148.582 
	304.325,147.082 303.575,146.332 302.825,144.082 301.325,141.832 300.575,139.582 299.075,137.332 298.325,135.082 
	296.825,132.832 296.075,130.582 294.575,128.332 293.825,130.582 292.325,133.582 291.575,135.832 289.325,136.582 
	287.825,132.832 287.075,128.332 286.325,124.582 285.575,120.082 284.825,122.332 283.325,125.332 281.825,129.082 
	280.325,134.332 278.825,138.832 276.575,142.582 275.075,145.582 273.575,146.332 272.825,145.582 273.575,144.082 
	273.575,142.582 272.825,141.082 273.575,138.082 272.825,134.332 271.325,131.332 270.575,129.082 269.075,129.082 
	264.575,126.832 263.825,125.332 262.325,124.582 261.575,123.082 260.075,122.332 258.575,122.332 254.075,123.832 
	251.075,126.832 247.325,129.832 245.075,132.832 233.825,151.582 229.325,165.082 226.325,175.582 225.575,180.082 
	224.075,185.332 223.325,186.832 223.325,189.082 222.575,191.332 222.575,193.582 221.825,193.582 221.825,198.082 
	221.075,199.582 221.075,201.832 239.075,201.832 242.075,202.582 245.825,202.582 254.825,204.832 257.825,206.332 
	260.075,207.082 263.075,208.582 265.325,210.082 268.325,211.582 269.075,211.582 270.575,212.332 271.325,213.082 
	272.825,213.832 273.575,214.582 276.575,216.082 277.325,216.082 281.075,217.582 284.075,218.332 287.825,219.832 
	290.825,220.582 293.825,222.082 297.575,223.582 299.825,225.082 302.825,227.332 305.075,229.582 306.575,231.832 
	311.075,236.332 312.575,238.582 314.825,240.832 316.325,243.832 317.825,246.082 322.325,250.582 323.825,251.332 
	326.825,254.332 329.075,255.832 330.575,257.332 332.075,259.582 333.575,262.582 335.075,264.832 336.575,267.832 
	337.325,270.832 337.325,277.582 336.575,280.582 336.575,283.582 337.325,286.582 337.325,291.832 340.325,292.582 
	350.075,292.582 353.075,291.832 356.075,290.332 360.575,287.332 362.075,287.332 363.575,288.082 364.325,288.832 
	365.825,289.582 370.325,291.082 371.825,291.082 374.075,291.832 383.075,291.832 384.575,292.582 384.575,293.332 
	385.325,294.082 383.825,295.582 382.325,296.332 374.825,296.332 373.325,295.582 370.325,295.582 368.825,294.832 
	365.825,294.832 362.825,293.332 361.325,293.332 359.825,294.082 358.325,294.082 351.575,296.332 350.075,297.082 
	345.575,297.082 343.325,297.832 341.075,297.832 338.825,297.082 336.575,297.082 335.075,296.332 332.825,295.582 
	331.325,294.832 329.825,293.332 325.325,294.832 323.825,295.582 320.825,296.332 311.825,299.332 309.575,299.332 
	307.325,300.082 305.075,300.082 302.825,299.332 300.575,299.332 298.325,297.832 296.075,297.082 294.575,294.832 
	293.075,295.582 292.325,296.332 291.575,296.332 290.075,297.082 288.575,298.582 287.825,298.582 287.075,299.332 
	282.575,300.832 279.575,301.582 274.325,301.582 271.325,300.832 269.075,300.832 266.825,300.082 265.325,298.582 
	263.825,297.832 262.325,296.332 260.075,296.332 259.325,297.082 257.075,298.582 255.575,299.332 253.325,300.082 
	251.075,301.582 248.825,302.332 245.825,303.082 243.575,303.082 241.325,303.832 227.825,303.832 223.325,302.332 
	220.325,300.832 219.575,300.832 216.575,297.832 215.075,297.082 214.325,297.082 212.825,296.332 211.325,296.332 
	209.075,298.582 206.825,300.082 203.825,300.832 200.825,300.832 197.075,301.582 194.075,301.582 191.075,302.332 
	188.075,303.832 185.075,302.332 182.825,301.582 176.825,298.582 176.075,297.832 173.825,298.582 171.575,300.082 
	167.075,301.582 164.825,303.082 162.575,303.082 160.325,303.832 157.325,304.582 149.825,304.582 146.825,303.832 
	144.575,303.832 140.075,302.332 137.075,301.582 128.075,298.582 123.575,295.582 122.075,294.832 119.825,293.332 
	119.075,292.582 117.575,292.582 116.825,293.332 115.325,294.082 112.325,294.832 110.075,295.582 104.075,297.082 
	100.325,297.832 94.325,297.832 90.575,297.082 87.575,297.082 84.575,296.332 82.325,295.582 79.325,294.082 76.325,293.332 
	70.325,290.332 67.325,289.582 66.575,288.082 65.825,288.082 64.325,287.332 63.575,287.332 61.325,289.582 58.325,291.832 
	56.075,294.082 53.075,296.332 50.075,297.832 47.075,298.582 40.325,298.582 38.075,297.832 35.825,300.082 34.325,300.832 
	32.825,302.332 31.325,303.082 20.075,303.082 18.575,302.332 17.825,301.582 17.825,300.832 17.075,300.082 17.825,298.582 
	18.575,298.582 19.325,297.832 20.825,297.832 23.075,298.582 29.075,298.582 32.075,297.082 34.325,294.832 35.075,293.332 
	36.575,292.582 38.825,292.582 41.825,294.082 45.575,294.082 47.075,293.332 49.325,293.332 50.825,292.582 52.325,291.082 
	53.825,290.332 56.075,288.832 57.575,287.332 59.075,285.082 62.075,282.082 65.075,277.582 65.825,276.082 67.325,273.832 
	68.825,270.832 74.825,261.832 77.075,259.582 78.575,257.332 80.825,255.832 82.325,253.582 84.575,252.082 86.825,249.832 
	100.325,240.832 104.825,234.082 108.575,230.332 110.825,228.832 111.575,228.082 113.825,227.332 115.325,225.832 
	116.825,225.082 119.075,224.332 121.325,224.332 122.825,223.582 125.075,222.832 127.325,221.332 130.325,219.832 
	133.325,219.082 136.325,217.582 139.325,216.832 143.825,213.832 145.325,211.582 147.575,210.082 149.075,208.582 
	151.325,207.832 153.575,207.832 158.075,206.332 160.325,206.332 162.575,205.582 165.575,204.832 172.325,204.832 
	176.075,204.082 179.075,203.332 182.075,203.332 188.075,201.832 191.075,192.082 193.325,183.082 199.325,165.082 
	203.075,156.082 210.575,139.582 215.825,132.082 217.325,129.832 219.575,127.582 221.075,125.332 223.325,123.082 
	226.325,118.582 228.575,116.332 230.075,114.082 229.325,112.582 226.325,112.582 223.325,113.332 220.325,114.832 
	216.575,115.582 213.575,117.082 208.325,117.082 208.325,114.832 209.075,112.582 211.325,110.332 212.825,107.332 220.325,99.832 
	216.575,99.832 213.575,101.332 209.825,102.082 205.325,103.582 201.575,105.832 197.825,106.582 194.825,108.082 194.825,107.332 
	194.075,107.332 194.075,105.832 199.325,101.332 199.325,98.332 201.575,96.082 203.825,94.582 206.825,93.082 209.075,91.582 
	212.075,90.082 214.325,88.582 216.575,86.332 218.075,84.082 214.325,83.332 206.825,83.332 203.825,84.082 200.075,84.832 
	194.075,87.832 190.325,88.582 188.825,88.582 188.825,86.332 189.575,86.332 186.575,86.332 183.575,87.832 182.075,87.832 
	177.575,90.082 176.075,90.082 175.325,88.582 175.325,87.832 176.825,86.332 178.325,84.082 179.075,82.582 180.575,81.082 
	182.825,79.582 185.825,76.582 188.075,75.832 191.075,72.832 189.575,72.832 188.075,72.082 185.825,72.082 183.575,71.332 
	180.575,71.332 179.075,70.582 179.075,69.082 179.825,68.332 180.575,68.332 185.075,66.832 188.825,66.082 191.825,64.582 
	199.325,63.082 202.325,62.332 205.325,62.332 204.575,60.082 203.075,57.832 202.325,56.332 203.825,54.832 206.825,54.832 
	208.325,55.582 209.075,55.582 209.825,54.832 212.075,54.832 210.575,52.582 208.325,50.332 206.825,48.082 204.575,46.582 
	203.075,44.332 196.325,39.832 196.325,37.582 197.075,37.582 198.575,36.832 204.575,38.332 206.825,39.082 209.825,39.832 
	212.075,40.582 215.075,41.332 217.325,42.082 220.325,43.582 220.325,39.082 221.075,38.332 222.575,38.332 225.575,41.332 
	226.325,41.332 227.075,42.082 229.325,42.832 235.325,45.832 237.575,46.582 240.575,48.082 242.075,45.082 242.825,44.332 
	244.325,43.582 245.825,43.582 246.575,44.332 247.325,42.832 246.575,36.082 246.575,27.832 247.325,19.582 248.825,11.332 
	249.575,11.332 250.325,10.582 251.075,11.332 251.075,12.832 "/>
<polygon fill-rule="evenodd" clip-rule="evenodd" fill="#608A46" points="257.075,36.832 260.075,36.832 260.075,35.332 
	261.575,32.332 263.825,32.332 263.825,36.082 264.575,39.832 265.325,42.832 266.075,44.332 267.575,44.332 269.075,42.832 
	269.075,42.082 269.825,41.332 270.575,41.332 272.075,39.832 272.825,41.332 272.825,42.082 273.575,43.582 274.325,44.332 
	279.575,39.082 281.825,37.582 283.325,35.332 284.825,33.832 289.325,30.832 290.825,29.332 292.325,28.582 293.075,28.582 
	296.075,27.082 296.825,26.332 298.325,26.332 296.075,28.582 295.325,30.082 293.825,31.582 293.075,33.082 292.325,33.832 
	292.325,36.082 293.075,36.832 294.575,36.832 296.825,35.332 299.825,34.582 302.825,33.082 305.825,32.332 309.575,30.832 
	315.575,29.332 319.325,29.332 317.075,30.832 311.825,36.082 308.825,38.332 303.575,43.582 302.075,45.832 301.325,47.332 
	302.825,48.082 303.575,48.832 311.075,48.832 308.825,51.082 307.325,51.832 305.075,54.082 305.075,55.582 305.825,56.332 
	307.325,57.082 310.325,57.082 311.825,57.832 314.075,57.832 317.075,58.582 320.075,60.082 323.075,60.832 325.325,62.332 
	328.325,63.832 331.325,64.582 335.825,67.582 335.825,68.332 335.075,68.332 332.075,69.832 329.825,70.582 327.575,70.582 
	325.325,71.332 323.825,71.332 323.075,72.082 323.075,72.832 323.825,73.582 324.575,75.082 326.075,75.832 327.575,77.332 
	329.075,79.582 333.575,84.082 335.075,86.332 336.575,87.832 334.325,87.832 332.075,87.082 330.575,86.332 328.325,85.582 
	326.075,84.082 323.075,81.082 320.825,80.332 320.075,79.582 317.825,81.832 318.575,84.082 320.075,86.332 321.575,90.832 
	318.575,90.832 317.825,91.582 317.825,92.332 318.575,95.332 320.075,98.332 322.325,102.082 323.825,107.332 326.075,112.582 
	326.825,117.832 328.325,124.582 327.575,125.332 324.575,120.832 323.075,119.332 318.575,112.582 314.825,108.832 
	314.075,108.832 312.575,110.332 312.575,112.582 311.075,111.082 308.825,106.582 307.325,105.832 305.825,102.832 
	304.325,102.082 302.825,102.082 302.075,103.582 302.075,105.832 302.825,108.082 304.325,110.332 305.825,111.832 
	305.825,114.832 307.325,121.582 307.325,129.082 305.825,142.582 304.325,141.082 302.825,138.832 302.075,136.582 
	300.575,134.332 299.825,131.332 293.825,122.332 292.325,123.082 290.825,126.082 290.075,128.332 289.325,123.832 
	289.325,120.082 287.825,116.332 287.075,112.582 285.575,112.582 285.575,113.332 284.825,114.082 284.075,114.082 
	282.575,117.832 281.825,121.582 278.825,129.082 278.075,131.332 278.075,133.582 277.325,135.832 276.575,137.332 
	272.825,126.082 271.325,124.582 270.575,122.332 269.075,120.832 268.325,120.832 266.825,122.332 266.825,124.582 
	262.325,119.332 263.825,116.332 265.325,111.832 266.075,108.832 266.075,105.832 265.325,102.832 263.075,99.832 260.075,96.832 
	257.075,96.082 253.325,96.082 250.325,96.832 247.325,98.332 242.825,101.332 242.075,102.832 241.325,103.582 241.325,104.332 
	238.325,107.332 235.325,107.332 233.825,108.832 233.075,108.832 231.575,110.332 230.825,109.582 230.075,109.582 
	230.075,108.832 229.325,108.082 229.325,107.332 227.075,107.332 224.825,108.832 222.575,109.582 220.325,111.082 
	218.075,111.832 215.825,113.332 213.575,114.082 212.075,114.082 216.575,107.332 218.825,105.832 220.325,103.582 226.325,97.582 
	226.325,96.832 225.575,96.082 224.825,96.082 224.075,95.332 221.075,96.082 218.075,96.082 215.825,96.832 213.575,98.332 
	209.075,99.832 206.825,101.332 203.825,102.082 204.575,101.332 204.575,99.832 203.825,99.082 203.825,98.332 206.825,96.082 
	209.075,94.582 212.075,93.082 214.325,90.832 217.325,89.332 219.575,87.832 224.075,83.332 224.075,81.082 220.325,80.332 
	209.825,80.332 206.075,81.082 203.075,81.082 199.325,81.832 196.325,83.332 197.825,81.832 197.825,79.582 197.075,79.582 
	195.575,80.332 194.075,80.332 191.825,81.832 188.825,82.582 182.075,84.832 186.575,80.332 188.825,78.832 191.075,76.582 
	197.825,72.082 199.325,70.582 199.325,69.832 198.575,69.082 186.575,69.082 191.075,66.832 192.575,66.832 194.075,66.082 
	195.575,66.082 197.825,65.332 199.325,64.582 209.075,64.582 209.075,63.832 207.575,59.332 206.825,58.582 215.075,58.582 
	215.825,59.332 216.575,59.332 217.325,58.582 217.325,57.832 216.575,54.832 215.075,53.332 213.575,51.082 203.825,41.332 
	206.825,42.082 209.075,42.832 212.075,43.582 214.325,44.332 216.575,45.832 218.825,46.582 220.325,48.082 222.575,49.582 
	223.325,49.582 224.075,48.832 224.075,43.582 225.575,44.332 227.825,45.082 230.075,46.582 232.325,47.332 233.825,48.082 
	236.075,48.832 239.075,51.832 240.575,51.832 241.325,52.582 242.825,52.582 243.575,51.082 244.325,47.332 245.825,47.332 
	247.325,48.832 248.825,48.832 249.575,44.332 249.575,37.582 248.825,28.582 250.325,19.582 252.575,24.082 253.325,26.332 
	254.825,27.832 255.575,29.332 257.075,33.832 "/>
<polygon fill-rule="evenodd" clip-rule="evenodd" points="271.325,48.832 271.325,51.832 272.075,53.332 271.325,54.832 
	269.825,54.832 269.825,54.082 269.075,52.582 268.325,51.832 266.075,54.082 266.075,55.582 264.575,57.082 262.325,57.082 
	260.075,54.082 259.325,55.582 259.325,57.082 258.575,58.582 259.325,60.082 257.825,60.082 257.075,59.332 257.075,50.332 
	257.825,49.582 258.575,49.582 259.325,49.582 260.825,51.082 261.575,52.582 262.325,52.582 263.825,53.332 265.325,51.832 
	266.825,48.832 269.075,48.082 269.825,48.082 270.575,48.832 "/>
<polygon fill-rule="evenodd" clip-rule="evenodd" points="314.075,77.332 314.825,78.082 313.325,79.582 312.575,79.582 
	311.075,80.332 308.075,80.332 307.325,81.082 307.325,83.332 308.075,84.832 308.825,87.082 308.825,88.582 305.825,88.582 
	304.325,87.832 303.575,87.082 302.075,87.082 300.575,86.332 297.575,86.332 297.575,87.832 296.825,88.582 295.325,87.832 
	293.825,84.832 292.325,83.332 291.575,82.582 290.825,81.082 290.075,80.332 288.575,79.582 287.825,78.832 284.825,77.332 
	284.075,76.582 284.075,75.082 285.575,75.082 288.575,76.582 290.075,78.082 291.575,78.832 294.575,81.832 295.325,83.332 
	296.825,83.332 298.325,82.582 299.075,83.332 300.575,83.332 301.325,84.082 304.325,85.582 305.825,85.582 305.075,84.082 
	305.075,81.832 304.325,79.582 304.325,77.332 307.325,77.332 308.075,78.082 309.575,78.082 310.325,77.332 308.825,75.832 
	306.575,75.082 305.075,73.582 303.575,72.832 302.075,71.332 297.575,69.082 297.575,67.582 298.325,66.832 299.075,66.832 
	300.575,68.332 302.825,69.082 305.075,70.582 306.575,71.332 311.075,74.332 312.575,75.082 "/>
<polygon fill-rule="evenodd" clip-rule="evenodd" points="243.575,69.832 242.825,70.582 240.575,70.582 239.825,71.332 
	238.325,71.332 236.825,72.832 237.575,72.832 238.325,73.582 238.325,75.082 233.825,80.332 236.825,80.332 237.575,79.582 
	239.075,78.832 239.825,78.832 241.325,78.082 242.075,77.332 242.825,77.332 243.575,76.582 244.325,76.582 245.075,75.832 
	245.825,75.832 246.575,75.832 248.075,76.582 248.075,78.082 249.575,77.332 251.075,75.832 251.825,74.332 254.825,71.332 
	256.325,71.332 256.325,73.582 255.575,75.082 254.075,76.582 253.325,78.082 252.575,78.832 251.825,80.332 248.825,81.832 
	247.325,81.832 245.825,80.332 244.325,79.582 239.825,81.832 237.575,82.582 236.075,83.332 233.825,84.082 232.325,84.082 
	230.075,84.832 229.325,84.082 229.325,81.082 232.325,76.582 231.575,75.832 230.825,75.832 230.075,75.082 230.075,73.582 
	231.575,72.082 236.075,69.832 237.575,69.832 242.075,67.582 242.075,68.332 242.825,68.332 243.575,69.082 "/>
<polygon fill-rule="evenodd" clip-rule="evenodd" points="113.825,74.332 116.825,72.832 118.325,73.582 119.825,73.582 
	121.325,74.332 122.825,74.332 124.325,73.582 125.825,72.082 127.325,72.832 133.325,72.832 134.075,73.582 135.575,74.332 
	136.325,75.832 137.075,75.082 139.325,75.082 140.825,73.582 143.825,73.582 145.325,72.832 146.825,72.832 148.325,73.582 
	149.825,74.332 152.075,75.082 155.075,76.582 155.825,78.082 157.325,80.332 158.075,81.832 159.575,84.082 161.075,85.582 
	162.575,87.832 163.325,89.332 164.075,91.582 162.575,96.082 159.575,100.582 157.325,102.082 152.825,104.332 150.575,105.082 
	144.575,105.082 138.575,106.582 136.325,108.082 133.325,109.582 130.325,110.332 120.575,110.332 119.075,109.582 
	118.325,109.582 116.825,108.832 116.075,108.082 114.575,108.082 113.825,107.332 112.325,108.832 110.075,109.582 
	106.325,109.582 104.075,108.832 101.825,108.832 99.575,108.082 96.575,108.082 95.825,107.332 94.325,106.582 93.575,106.582 
	92.825,105.832 92.075,105.832 91.325,105.082 91.325,104.332 90.575,102.832 89.825,102.082 86.825,100.582 84.575,100.582 
	81.575,99.082 80.825,98.332 80.075,95.332 80.075,92.332 80.825,90.082 82.325,87.082 83.075,87.082 83.075,86.332 83.825,85.582 
	85.325,84.832 86.825,84.832 87.575,84.082 89.075,84.832 89.075,81.082 90.575,78.082 91.325,77.332 92.825,76.582 93.575,75.082 
	96.575,73.582 97.325,72.832 98.825,72.082 101.075,72.082 103.325,71.332 107.825,71.332 112.325,72.832 "/>
<polygon fill-rule="evenodd" clip-rule="evenodd" fill="#FFFFFF" points="116.825,76.582 119.825,76.582 120.575,77.332 
	122.075,78.082 123.575,78.082 126.575,75.082 129.575,75.082 131.075,75.832 131.825,75.832 132.575,76.582 133.325,76.582 
	134.075,77.332 134.075,78.082 134.825,78.832 134.825,79.582 136.325,80.332 137.075,80.332 138.575,78.832 138.575,78.082 
	140.075,78.082 141.575,76.582 143.075,75.832 147.575,75.832 149.825,76.582 152.825,78.082 155.825,84.082 155.825,85.582 
	157.325,85.582 158.825,87.082 160.325,87.832 160.325,90.082 161.075,92.332 161.075,94.582 159.575,96.082 158.075,98.332 
	153.575,101.332 151.325,102.082 149.075,102.082 146.075,102.832 143.825,102.082 141.575,102.082 139.325,103.582 
	133.325,106.582 130.325,107.332 122.825,107.332 119.825,106.582 116.075,105.832 113.825,103.582 111.575,105.832 
	110.075,106.582 104.075,106.582 101.825,105.832 99.575,105.832 98.075,105.082 96.575,105.082 92.825,101.332 92.825,99.082 
	92.075,98.332 86.825,98.332 85.325,97.582 83.075,95.332 83.075,90.832 83.825,90.082 83.825,89.332 85.325,87.832 91.325,87.832 
	92.825,87.082 93.575,85.582 92.825,81.082 93.575,79.582 95.075,78.082 97.325,77.332 98.825,75.832 103.325,74.332 
	107.075,74.332 108.575,75.082 109.325,75.832 112.325,77.332 113.075,78.082 114.575,78.082 115.325,77.332 "/>
<polygon fill-rule="evenodd" clip-rule="evenodd" points="239.075,85.582 238.325,86.332 238.325,87.082 237.575,87.832 
	237.575,88.582 243.575,87.832 242.825,89.332 241.325,90.832 239.825,90.832 238.325,91.582 236.075,91.582 234.575,92.332 
	233.075,90.832 233.075,88.582 234.575,87.832 235.325,86.332 236.825,85.582 "/>
<polygon fill-rule="evenodd" clip-rule="evenodd" points="292.325,99.832 292.325,104.332 291.575,105.832 290.075,105.082 
	289.325,105.082 287.825,103.582 287.075,103.582 286.325,102.832 284.825,102.082 284.075,102.082 283.325,104.332 
	281.825,107.332 280.325,107.332 275.825,101.332 275.825,99.832 277.325,99.832 280.325,102.832 281.825,99.832 283.325,99.082 
	284.825,99.082 286.325,99.832 287.075,100.582 290.075,100.582 289.325,97.582 290.825,97.582 292.325,99.082 "/>
<polygon fill-rule="evenodd" clip-rule="evenodd" fill="#A48250" points="261.575,105.082 262.325,107.332 262.325,110.332 
	260.825,114.832 260.075,116.332 257.075,119.332 252.575,121.582 250.325,121.582 249.575,120.832 245.825,120.832 
	244.325,120.082 243.575,120.082 242.825,119.332 242.075,117.082 241.325,114.082 240.575,111.832 240.575,111.082 
	241.325,108.832 244.325,104.332 245.825,103.582 247.325,103.582 248.075,102.832 249.575,102.832 250.325,102.082 
	251.825,101.332 252.575,101.332 254.075,100.582 258.575,100.582 261.575,103.582 "/>
<polygon fill-rule="evenodd" clip-rule="evenodd" fill="#9F7E48" points="242.825,123.082 243.575,123.832 245.075,123.832 
	245.825,124.582 248.075,124.582 247.325,126.082 245.825,127.582 245.075,129.082 243.575,129.832 242.075,129.832 
	241.325,129.082 239.825,129.082 238.325,129.832 238.325,131.332 239.075,132.082 240.575,132.082 241.325,132.832 
	240.575,134.332 239.075,136.582 238.325,137.332 236.075,137.332 235.325,136.582 233.825,135.832 233.075,135.082 
	231.575,135.082 231.575,137.332 233.075,138.832 233.825,138.832 235.325,139.582 236.825,141.082 233.825,145.582 
	232.325,145.582 230.075,144.832 228.575,144.082 227.075,144.082 221.075,141.082 219.575,141.082 218.825,141.832 
	218.825,142.582 220.325,144.082 221.825,144.832 223.325,146.332 224.825,146.332 226.325,147.082 228.575,147.832 
	231.575,149.332 231.575,150.832 230.825,150.832 230.825,151.582 228.575,151.582 227.825,150.832 226.325,150.832 
	224.825,149.332 223.325,149.332 222.575,148.582 221.075,150.082 221.075,150.832 221.825,150.832 221.825,151.582 
	223.325,153.082 230.075,155.332 227.075,162.832 225.575,167.332 224.075,171.082 222.575,171.082 221.075,170.332 
	219.575,170.332 216.575,168.832 215.825,168.082 214.325,167.332 212.075,167.332 212.075,168.082 211.325,168.832 
	212.825,170.332 217.325,172.582 218.825,172.582 221.825,174.082 223.325,174.082 224.075,174.832 223.325,174.832 
	223.325,176.332 218.825,176.332 217.325,175.582 215.825,175.582 214.325,174.832 212.825,175.582 212.075,175.582 
	212.825,177.082 213.575,177.832 215.075,178.582 215.825,178.582 218.075,179.332 222.575,179.332 221.075,182.332 
	220.325,185.332 219.575,189.082 218.825,192.082 217.325,192.082 215.075,191.332 212.075,191.332 209.825,190.582 
	208.325,190.582 206.825,189.832 206.075,188.332 205.325,188.332 204.575,189.082 203.825,189.082 203.825,189.832 
	204.575,190.582 204.575,191.332 205.325,192.082 206.825,192.832 207.575,192.832 208.325,193.582 209.075,193.582 
	209.825,194.332 218.825,195.082 218.075,199.582 214.325,199.582 212.825,198.832 211.325,198.832 209.825,199.582 
	209.075,199.582 208.325,201.082 209.075,201.832 209.825,201.832 211.325,202.582 217.325,202.582 216.575,206.332 
	215.075,213.082 214.325,219.832 214.325,225.832 213.575,226.582 213.575,227.332 212.825,228.832 212.825,230.332 
	212.075,231.082 211.325,232.582 210.575,231.082 207.575,228.082 208.325,226.582 207.575,225.832 205.325,225.832 
	203.825,230.332 203.075,231.832 202.325,234.082 200.825,231.082 199.325,228.832 198.575,227.332 197.825,226.582 
	195.575,226.582 193.325,233.332 191.075,233.332 190.325,232.582 190.325,229.582 189.575,228.832 189.575,225.832 
	190.325,219.082 191.075,209.332 193.325,196.582 196.325,182.332 200.825,166.582 207.575,150.832 215.825,136.582 
	218.075,133.582 219.575,131.332 221.825,128.332 223.325,126.082 227.075,122.332 228.575,120.082 230.825,117.832 
	231.575,116.332 233.075,115.582 233.825,114.832 234.575,114.832 235.325,114.082 236.825,114.082 237.575,115.582 
	237.575,116.332 239.075,119.332 239.825,120.082 240.575,121.582 241.325,122.332 "/>
<polygon fill-rule="evenodd" clip-rule="evenodd" points="374.825,139.582 376.325,142.582 377.825,144.082 377.825,146.332 
	379.325,146.332 380.825,147.832 381.575,147.832 384.575,150.832 385.325,153.832 383.825,158.332 380.075,162.082 
	377.825,162.832 374.825,163.582 369.575,163.582 366.575,164.332 364.325,165.082 362.075,166.582 359.825,167.332 
	355.325,167.332 353.825,167.332 351.575,167.332 347.075,165.832 344.825,165.832 343.325,165.082 341.075,165.082 
	339.575,164.332 338.075,162.832 336.575,162.082 334.325,159.832 333.575,158.332 333.575,155.332 335.075,152.332 
	335.825,151.582 336.575,150.082 336.575,146.332 337.325,144.832 338.825,144.082 341.075,142.582 342.575,141.832 
	344.825,141.832 346.325,141.082 348.575,141.082 350.825,141.832 351.575,140.332 354.575,138.832 357.575,138.832 
	360.575,137.332 361.325,136.582 362.825,135.832 365.075,135.082 366.575,135.082 368.825,135.832 373.325,138.082 "/>
<polygon fill-rule="evenodd" clip-rule="evenodd" fill="#FFFFFF" points="374.825,144.832 374.075,146.332 374.075,147.832 
	374.825,148.582 376.325,148.582 380.825,150.832 381.575,151.582 382.325,153.082 382.325,154.582 381.575,156.082 
	381.575,157.582 378.575,159.082 376.325,160.582 374.825,160.582 372.575,161.332 370.325,161.332 365.825,159.832 
	364.325,160.582 363.575,162.082 362.075,163.582 360.575,164.332 357.575,164.332 355.325,165.082 353.825,165.082 
	352.325,164.332 350.825,164.332 347.825,162.832 344.825,162.832 338.825,159.832 336.575,157.582 335.825,156.082 
	336.575,154.582 337.325,153.832 338.825,153.082 339.575,153.082 339.575,150.832 338.825,149.332 338.825,147.832 
	341.075,145.582 344.075,144.082 350.075,144.082 353.075,145.582 354.575,142.582 356.075,141.082 359.825,141.082 
	360.575,140.332 362.075,139.582 362.825,138.832 364.325,138.082 366.575,138.082 368.825,138.832 369.575,139.582 
	370.325,139.582 374.075,143.332 "/>
<polygon fill-rule="evenodd" clip-rule="evenodd" points="107.075,183.082 108.575,183.082 109.325,183.832 110.075,183.832 
	111.575,184.582 112.325,185.332 113.075,185.332 114.575,186.082 115.325,186.082 118.325,186.832 120.575,187.582 
	123.575,187.582 125.825,188.332 131.825,188.332 134.075,187.582 137.075,186.832 138.575,186.832 140.075,186.082 
	140.825,186.082 143.825,184.582 145.325,184.582 146.075,183.832 147.575,183.082 149.075,183.082 150.575,183.832 
	151.325,184.582 152.825,185.332 155.075,186.082 158.075,186.832 165.575,186.832 168.575,186.082 173.075,184.582 
	175.325,186.082 176.825,186.832 181.325,186.832 182.825,186.082 188.825,186.082 188.825,186.832 189.575,186.832 
	189.575,188.332 188.075,189.082 186.575,189.082 184.325,189.832 161.825,189.832 159.575,189.082 157.325,189.082 
	154.325,188.332 152.075,188.332 149.825,187.582 147.575,186.082 145.325,187.582 140.825,189.082 138.575,189.082 
	135.575,189.832 133.325,190.582 120.575,190.582 117.575,189.832 113.075,188.332 110.075,187.582 107.825,186.082 
	105.575,186.832 104.075,186.832 101.825,187.582 100.325,188.332 98.825,188.332 97.325,189.082 95.075,189.082 92.825,189.832 
	89.075,189.832 86.075,189.082 82.325,188.332 79.325,187.582 75.575,186.832 72.575,186.082 66.575,183.082 64.325,183.832 
	62.825,184.582 60.575,186.082 56.075,188.332 49.325,190.582 46.325,190.582 44.075,191.332 41.075,191.332 38.075,190.582 
	32.825,190.582 29.825,189.832 26.075,189.832 25.325,189.082 24.575,189.082 24.575,186.832 28.325,186.832 30.575,187.582 
	34.325,187.582 36.575,188.332 44.075,188.332 47.825,187.582 50.825,186.832 54.575,186.082 60.575,183.082 63.575,180.832 
	65.825,179.332 68.075,180.082 72.575,183.082 75.575,183.832 77.825,184.582 80.825,185.332 83.075,186.082 86.075,186.082 
	89.075,186.832 94.325,186.832 97.325,186.082 99.575,186.082 102.575,185.332 104.825,183.832 "/>
<polygon fill-rule="evenodd" clip-rule="evenodd" points="238.325,187.582 239.825,189.082 242.075,189.832 243.575,190.582 
	245.825,190.582 248.825,191.332 253.325,191.332 254.825,192.082 257.075,191.332 266.075,186.832 267.575,186.832 
	272.075,188.332 274.325,189.832 276.575,190.582 282.575,192.082 284.825,192.082 287.825,192.832 296.075,192.832 
	298.325,192.082 301.325,191.332 305.825,189.832 308.075,188.332 311.075,189.832 312.575,189.832 315.575,191.332 
	317.075,191.332 318.575,192.082 320.075,192.082 321.575,191.332 326.825,191.332 328.325,190.582 330.575,190.582 
	332.075,189.832 332.825,189.082 334.325,188.332 336.575,188.332 337.325,189.082 338.825,189.832 339.575,190.582 
	341.075,190.582 341.825,191.332 344.825,192.082 348.575,192.082 351.575,192.832 355.325,192.832 359.075,192.082 
	365.075,190.582 367.325,188.332 368.825,188.332 369.575,189.082 369.575,189.832 370.325,190.582 370.325,192.082 
	368.825,191.332 367.325,191.332 366.575,192.082 365.075,192.832 364.325,193.582 362.825,194.332 362.075,195.082 
	360.575,195.082 348.575,195.832 347.075,195.832 345.575,195.082 343.325,194.332 341.825,194.332 340.325,193.582 
	338.075,192.832 335.075,191.332 329.075,192.832 325.325,194.332 322.325,194.332 318.575,195.082 315.575,194.332 
	311.825,193.582 308.825,192.082 306.575,192.832 300.575,194.332 298.325,195.082 295.325,195.082 293.075,195.832 
	287.825,195.832 284.825,195.082 282.575,195.082 279.575,194.332 277.325,193.582 274.325,192.832 269.825,191.332 
	266.825,189.832 264.575,190.582 262.325,192.082 260.075,192.832 257.825,194.332 253.325,195.832 250.325,196.582 
	247.325,196.582 246.575,195.832 245.825,195.832 245.825,194.332 244.325,193.582 241.325,193.582 240.575,192.082 
	239.075,192.082 238.325,191.332 237.575,191.332 235.325,189.082 234.575,189.082 233.825,188.332 232.325,188.332 
	231.575,189.082 230.075,189.832 229.325,189.832 228.575,190.582 227.075,190.582 226.325,191.332 224.825,190.582 
	224.825,189.082 225.575,188.332 227.825,188.332 229.325,187.582 230.075,187.582 231.575,186.082 231.575,185.332 
	232.325,184.582 233.825,184.582 235.325,185.332 "/>
<polygon fill-rule="evenodd" clip-rule="evenodd" points="77.825,207.082 79.325,207.082 80.075,206.332 81.575,205.582 
	82.325,205.582 83.075,204.832 84.575,204.832 86.075,203.332 89.075,204.832 91.325,206.332 97.325,207.832 101.075,208.582 
	104.075,208.582 107.075,207.832 109.325,206.332 110.825,206.332 112.325,205.582 113.075,204.832 114.575,204.082 
	116.825,205.582 119.825,206.332 127.325,206.332 130.325,205.582 132.575,204.832 135.575,203.332 136.325,203.332 
	136.325,204.832 137.075,204.832 136.325,205.582 136.325,207.832 131.825,207.832 130.325,208.582 129.575,208.582 
	128.825,209.332 119.075,209.332 117.575,208.582 116.075,208.582 114.575,207.832 110.825,209.332 103.325,210.832 96.575,210.832 
	92.825,210.082 89.075,208.582 86.075,207.082 83.075,208.582 75.575,210.082 71.825,210.082 68.825,209.332 65.075,208.582 
	62.075,207.082 58.325,204.832 56.825,207.082 54.575,209.332 52.325,210.832 49.325,212.332 46.325,213.082 42.575,213.832 
	35.825,213.832 35.825,211.582 37.325,210.832 38.075,210.832 39.575,211.582 42.575,211.582 45.575,210.832 47.825,210.082 
	50.075,208.582 52.325,207.832 54.575,206.332 57.575,201.832 59.825,201.832 60.575,202.582 62.075,203.332 64.325,204.832 
	65.825,205.582 68.075,206.332 69.575,206.332 71.825,207.082 "/>
<polygon fill-rule="evenodd" clip-rule="evenodd" fill="#F7F2E2" points="249.575,208.582 251.825,209.332 254.825,210.832 
	259.325,212.332 261.575,213.832 263.825,214.582 268.325,217.582 270.575,218.332 272.825,219.832 275.075,220.582 
	277.325,222.082 279.575,222.832 282.575,223.582 284.825,224.332 287.825,225.082 290.075,226.582 294.575,228.082 
	299.075,231.082 302.075,234.082 305.075,238.582 308.825,242.332 310.325,244.582 311.825,246.082 316.325,252.832 
	323.075,257.332 324.575,259.582 328.325,263.332 329.825,265.582 330.575,267.832 332.825,270.832 333.575,273.082 
	334.325,276.082 334.325,281.332 333.575,283.582 332.075,285.832 331.325,287.332 329.075,288.082 327.575,288.832 
	320.825,291.082 318.575,292.582 316.325,293.332 314.075,293.332 311.825,294.082 310.325,294.832 305.825,294.832 
	303.575,294.082 301.325,294.082 299.075,292.582 296.825,291.832 296.825,290.332 295.325,288.832 293.075,288.832 
	292.325,289.582 291.575,289.582 288.575,292.582 287.825,292.582 286.325,294.082 279.575,296.332 270.575,296.332 
	269.075,295.582 266.825,293.332 266.075,291.832 265.325,291.082 264.575,289.582 263.825,288.832 262.325,288.082 
	261.575,288.832 259.325,289.582 256.325,291.832 252.575,294.082 248.825,295.582 244.325,297.832 240.575,299.332 
	236.825,300.082 233.825,300.082 227.825,298.582 221.825,295.582 219.575,294.082 216.575,291.832 214.325,290.332 
	211.325,290.332 211.325,291.082 210.575,291.832 209.825,291.832 206.825,294.832 204.575,295.582 202.325,295.582 
	200.075,296.332 197.825,296.332 195.575,297.082 192.575,297.082 190.325,297.832 188.825,297.832 187.325,297.082 
	185.075,297.082 179.075,294.082 178.325,292.582 176.825,291.832 174.575,291.832 170.825,295.582 169.325,296.332 
	160.325,299.332 146.825,299.332 135.575,295.582 134.075,294.832 129.575,293.332 126.575,291.832 123.575,288.832 
	122.075,288.082 120.575,286.582 118.325,286.582 116.825,287.332 116.075,287.332 114.575,288.832 113.075,289.582 
	112.325,289.582 106.325,292.582 96.575,292.582 92.825,291.832 86.825,291.832 84.575,291.082 78.575,289.582 72.575,286.582 
	70.325,285.832 68.825,284.332 67.325,283.582 69.575,279.082 78.575,265.582 82.325,261.082 86.825,257.332 90.575,253.582 
	95.075,250.582 101.075,246.082 105.575,241.582 107.825,238.582 110.825,236.332 113.075,234.082 116.075,231.832 118.325,231.082 
	121.325,229.582 123.575,228.832 126.575,227.332 129.575,226.582 131.825,225.832 137.825,224.332 140.075,222.082 
	140.825,222.082 141.575,221.332 142.325,221.332 143.075,220.582 144.575,220.582 145.325,219.082 149.825,214.582 
	152.075,213.832 153.575,213.082 155.825,212.332 157.325,212.332 159.575,211.582 162.575,211.582 176.075,209.332 
	186.575,209.332 186.575,227.332 185.075,226.582 183.575,225.082 182.825,223.582 182.825,222.832 181.325,219.832 
	179.825,218.332 179.075,218.332 178.325,219.082 178.325,223.582 179.825,226.582 180.575,228.832 181.325,231.832 
	182.825,236.332 182.825,237.832 183.575,238.582 185.075,238.582 185.825,236.332 185.825,233.332 185.075,231.832 
	185.825,231.832 186.575,232.582 186.575,234.082 190.325,237.832 191.825,238.582 193.325,238.582 194.825,237.082 
	195.575,235.582 196.325,234.832 196.325,233.332 197.075,231.832 200.075,234.832 200.825,236.332 203.075,238.582 
	203.825,238.582 206.825,232.582 208.325,234.082 209.825,237.082 210.575,239.332 211.325,239.332 212.825,238.582 
	213.575,238.582 214.325,237.832 214.325,234.082 215.075,231.832 215.825,230.332 217.325,230.332 218.075,231.082 
	218.075,232.582 220.325,232.582 220.325,229.582 224.825,225.082 225.575,223.582 227.075,222.082 227.075,221.332 
	226.325,220.582 225.575,221.332 224.825,221.332 223.325,222.082 222.575,222.832 221.825,224.332 219.575,226.582 
	218.825,222.832 218.825,209.332 220.325,205.582 221.075,206.332 224.075,207.082 242.075,207.082 "/>
<polygon fill-rule="evenodd" clip-rule="evenodd" points="362.075,209.332 368.075,209.332 370.325,208.582 374.825,208.582 
	374.825,209.332 375.575,210.082 375.575,210.832 371.825,210.832 369.575,211.582 364.325,211.582 362.075,212.332 
	354.575,212.332 352.325,211.582 350.825,211.582 348.575,210.832 347.075,210.082 345.575,209.332 343.325,210.832 
	341.075,211.582 338.075,213.082 335.825,213.082 332.825,213.832 329.825,213.832 327.575,213.082 324.575,212.332 
	322.325,210.832 318.575,210.832 317.075,212.332 314.825,213.082 313.325,214.582 311.075,215.332 304.325,215.332 
	302.825,214.582 301.325,214.582 299.825,213.832 298.325,213.832 296.825,213.082 296.825,210.832 298.325,210.832 
	299.825,211.582 300.575,211.582 302.075,212.332 304.325,212.332 305.075,213.082 307.325,212.332 309.575,212.332 
	311.825,211.582 313.325,210.832 315.575,210.082 318.575,208.582 320.075,207.082 321.575,207.082 322.325,207.832 
	323.075,207.832 323.825,208.582 324.575,208.582 325.325,209.332 326.075,209.332 329.075,210.082 332.075,210.082 
	334.325,209.332 337.325,208.582 340.325,207.082 342.575,206.332 344.075,205.582 346.325,205.582 347.075,206.332 
	347.825,206.332 349.325,207.832 350.825,207.832 351.575,208.582 353.075,208.582 353.825,209.332 "/>
<polygon fill-rule="evenodd" clip-rule="evenodd" points="236.825,220.582 236.075,222.082 233.075,225.082 231.575,225.832 
	230.075,227.332 229.325,228.832 227.825,230.332 227.075,231.832 226.325,232.582 225.575,232.582 225.575,229.582 
	227.825,227.332 228.575,225.832 231.575,222.832 233.075,222.082 234.575,220.582 236.825,219.832 236.825,221.332 "/>
<polygon fill-rule="evenodd" clip-rule="evenodd" points="78.575,229.582 79.325,229.582 80.825,228.832 81.575,228.082 
	82.325,228.082 83.075,227.332 83.825,227.332 85.325,228.082 86.075,228.832 87.575,229.582 90.575,229.582 92.075,228.832 
	95.075,228.832 95.825,230.332 95.825,231.832 86.825,231.832 84.575,231.082 80.825,231.082 79.325,231.832 76.325,232.582 
	74.075,232.582 71.825,231.832 69.575,231.082 67.325,230.332 65.825,229.582 63.575,228.832 61.325,228.832 59.825,227.332 
	53.075,231.832 50.825,232.582 48.575,234.082 46.325,234.832 43.325,235.582 41.075,234.832 41.075,233.332 41.825,232.582 
	44.825,232.582 47.825,231.832 59.075,224.332 61.325,223.582 62.825,225.082 64.325,225.832 66.575,227.332 68.825,228.082 
	71.825,228.832 74.075,229.582 "/>
<polygon fill-rule="evenodd" clip-rule="evenodd" points="148.325,230.332 147.575,231.832 147.575,237.832 147.575,236.332 
	148.325,234.832 149.825,232.582 151.325,231.082 152.075,231.832 152.075,233.332 151.325,234.082 149.075,238.582 
	148.325,239.332 148.325,246.082 146.825,246.832 146.075,246.082 145.325,244.582 145.325,243.082 145.325,243.832 
	145.325,231.082 147.575,227.332 147.575,228.082 148.325,228.832 149.075,229.582 "/>
<polygon fill-rule="evenodd" clip-rule="evenodd" points="263.825,229.582 263.075,232.582 262.325,234.832 261.575,236.332 
	260.075,238.582 259.325,240.082 260.075,241.582 259.325,243.082 258.575,243.832 257.825,243.832 257.075,243.082 
	257.075,240.832 257.825,240.832 257.825,234.832 258.575,233.332 260.825,231.082 260.825,230.332 262.325,228.832 
	263.075,228.832 263.075,229.582 "/>
<polygon fill-rule="evenodd" clip-rule="evenodd" points="176.825,234.082 177.575,234.082 177.575,234.832 175.325,234.832 
	174.575,233.332 173.825,232.582 173.075,231.082 173.075,229.582 174.575,230.332 175.325,231.082 "/>
<polygon fill-rule="evenodd" clip-rule="evenodd" points="268.325,231.082 266.825,234.082 263.825,235.582 263.075,234.082 
	266.825,230.332 "/>
<polygon fill-rule="evenodd" clip-rule="evenodd" points="341.825,234.082 344.075,234.832 348.575,237.832 351.575,238.582 
	353.825,239.332 359.075,239.332 362.075,238.582 362.825,237.832 365.825,236.332 367.325,236.332 368.825,237.082 
	371.075,237.832 372.575,238.582 382.325,238.582 383.075,239.332 383.075,241.582 376.325,241.582 374.825,241.582 
	372.575,241.582 368.075,240.082 365.825,240.082 362.825,241.582 360.575,242.332 354.575,242.332 353.075,241.582 
	349.325,241.582 341.825,237.832 341.075,236.332 339.575,235.582 338.825,236.332 335.825,237.832 333.575,239.332 
	330.575,242.332 329.075,243.082 327.575,243.082 326.825,242.332 326.075,242.332 326.075,241.582 325.325,240.082 
	326.075,240.082 329.075,238.582 338.075,232.582 339.575,231.082 340.325,231.082 341.825,232.582 "/>
<polygon fill-rule="evenodd" clip-rule="evenodd" points="158.075,232.582 155.075,238.582 153.575,238.582 155.075,234.082 
	155.825,233.332 "/>
<polygon fill-rule="evenodd" clip-rule="evenodd" points="271.325,236.332 270.575,237.082 269.075,237.082 269.075,235.582 
	270.575,234.082 271.325,234.082 "/>
<polygon fill-rule="evenodd" clip-rule="evenodd" points="68.825,250.582 68.825,251.332 68.075,252.082 66.575,252.082 
	65.075,252.832 62.825,254.332 59.825,255.082 57.575,255.832 54.575,255.082 51.575,255.082 45.575,253.582 42.575,252.082 
	40.325,254.332 36.575,255.082 33.575,256.582 29.825,257.332 17.075,257.332 16.325,256.582 17.075,255.832 17.075,255.082 
	17.825,254.332 20.825,254.332 23.825,255.082 27.575,254.332 30.575,254.332 34.325,253.582 40.325,250.582 42.575,248.332 
	43.325,249.082 44.075,249.082 44.825,249.832 45.575,249.832 47.075,250.582 47.825,250.582 48.575,251.332 49.325,251.332 
	53.825,252.832 58.325,252.832 62.825,251.332 65.075,249.832 66.575,248.332 67.325,248.332 68.825,249.832 "/>
<polygon fill-rule="evenodd" clip-rule="evenodd" points="253.325,253.582 252.575,254.332 252.575,256.582 251.825,258.832 
	251.075,261.832 250.325,264.082 248.825,266.332 248.075,267.832 245.825,268.582 245.825,267.082 245.075,267.082 
	245.075,266.332 243.575,270.832 243.575,271.582 242.075,273.082 241.325,272.332 242.825,259.582 244.325,258.082 
	245.075,258.082 245.825,259.582 245.825,261.082 246.575,262.582 248.075,262.582 248.825,261.082 248.825,258.832 
	249.575,257.332 250.325,255.082 250.325,254.332 251.075,252.832 251.075,251.332 251.825,250.582 253.325,250.582 "/>
<polygon fill-rule="evenodd" clip-rule="evenodd" points="261.575,252.832 258.575,257.332 257.825,259.582 256.325,261.832 
	255.575,261.832 255.575,257.332 256.325,256.582 257.075,255.082 257.825,254.332 258.575,252.832 260.075,251.332 
	261.575,250.582 262.325,251.332 262.325,252.082 "/>
<polygon fill-rule="evenodd" clip-rule="evenodd" points="266.825,258.082 266.825,258.832 265.325,260.332 264.575,260.332 
	263.825,259.582 263.825,258.832 264.575,258.082 264.575,257.332 266.075,255.832 267.575,256.582 "/>
<polygon fill-rule="evenodd" clip-rule="evenodd" points="59.825,262.582 61.325,263.332 63.575,263.332 64.325,262.582 
	65.825,263.332 66.575,263.332 67.325,264.082 67.325,265.582 65.825,266.332 62.825,266.332 61.325,265.582 59.825,265.582 
	58.325,264.832 56.825,264.832 55.325,264.082 54.575,262.582 53.075,263.332 50.825,264.082 44.825,267.082 38.825,267.082 
	37.325,267.082 36.575,265.582 37.325,264.832 37.325,264.082 39.575,264.082 40.325,264.832 42.575,264.832 43.325,264.082 
	47.075,264.082 49.325,261.832 53.825,259.582 54.575,258.082 56.075,258.832 57.575,260.332 58.325,261.832 "/>
<polygon fill-rule="evenodd" clip-rule="evenodd" points="303.575,264.832 302.825,265.582 302.825,267.832 302.075,268.582 
	302.075,270.832 301.325,273.082 301.325,276.082 300.575,278.332 299.075,277.582 297.575,276.082 296.075,276.082 
	296.075,270.832 295.325,268.582 296.075,267.832 297.575,267.832 298.325,268.582 298.325,270.832 299.075,270.832 
	299.825,268.582 300.575,265.582 301.325,263.332 303.575,261.832 "/>
<polygon fill-rule="evenodd" clip-rule="evenodd" points="160.325,282.082 160.325,282.832 157.325,282.832 155.825,278.332 
	155.075,276.832 153.575,275.332 153.575,282.082 152.075,282.832 150.575,282.082 149.075,273.082 149.075,264.082 
	151.325,264.082 151.325,264.832 153.575,269.332 154.325,270.082 155.825,273.082 156.575,274.582 157.325,276.082 
	158.075,274.582 158.075,269.332 158.825,267.832 158.825,265.582 159.575,264.082 161.075,264.082 "/>
<polygon fill-rule="evenodd" clip-rule="evenodd" points="171.575,267.082 168.575,270.082 167.825,271.582 167.075,273.832 
	167.075,276.082 165.575,277.582 164.075,276.082 164.075,274.582 164.825,274.582 164.825,273.082 166.325,268.582 
	168.575,266.332 170.075,265.582 170.825,265.582 "/>
<polygon fill-rule="evenodd" clip-rule="evenodd" points="99.575,271.582 100.325,271.582 100.325,270.832 102.575,268.582 
	104.825,268.582 104.825,270.082 103.325,270.832 102.575,271.582 101.825,273.082 100.325,274.582 98.825,274.582 96.575,272.332 
	96.575,274.582 97.325,277.582 97.325,279.832 96.575,282.082 93.575,279.082 92.825,276.832 92.825,274.582 92.825,270.832 
	92.075,270.082 92.825,268.582 92.825,267.832 95.825,267.832 "/>
<polygon fill-rule="evenodd" clip-rule="evenodd" points="308.825,267.082 308.825,268.582 308.075,270.082 306.575,270.832 
	306.575,271.582 305.825,272.332 305.825,273.082 304.325,274.582 302.825,273.082 302.825,272.332 304.325,270.832 
	304.325,270.082 305.075,268.582 305.825,268.582 307.325,267.832 308.075,267.082 "/>
<polygon fill-rule="evenodd" clip-rule="evenodd" points="314.075,271.582 313.325,273.082 311.825,273.832 311.075,274.582 
	309.575,274.582 310.325,273.082 311.075,272.332 311.825,270.832 313.325,270.082 314.075,270.082 "/>
<g>
	<defs>
		<rect id="SVGID_1_" x="347.075" y="270.832" width="43.5" height="9"/>
	</defs>
	<clipPath id="SVGID_2_">
		<use xlink:href="#SVGID_1_"  overflow="visible"/>
	</clipPath>
	<polygon clip-path="url(#SVGID_2_)" fill-rule="evenodd" clip-rule="evenodd" points="374.075,275.332 375.575,276.082 
		383.075,276.082 385.325,275.332 388.325,273.832 389.075,273.082 389.825,273.832 390.575,273.832 390.575,276.082 
		388.325,277.582 386.075,278.332 383.075,279.082 377.825,279.082 374.825,278.332 372.575,278.332 369.575,276.832 
		365.825,274.582 361.325,277.582 359.075,278.332 353.825,278.332 350.825,278.332 348.575,277.582 347.075,277.582 
		347.075,275.332 347.825,275.332 348.575,274.582 350.825,275.332 359.075,275.332 360.575,274.582 362.825,273.832 
		365.825,270.832 368.075,270.832 368.075,272.332 368.825,272.332 371.075,274.582 373.325,274.582 	"/>
</g>
<polygon fill-rule="evenodd" clip-rule="evenodd" points="176.825,274.582 176.075,276.082 176.075,276.832 175.325,277.582 
	173.825,278.332 173.075,277.582 173.075,276.082 176.825,272.332 "/>
<polygon fill-rule="evenodd" clip-rule="evenodd" points="106.325,274.582 106.325,276.082 104.825,276.082 104.825,275.332 
	104.075,275.332 104.075,274.582 104.825,273.832 105.575,273.832 "/>
<polygon fill-rule="evenodd" clip-rule="evenodd" points="281.825,305.332 283.325,303.832 284.825,303.832 285.575,304.582 
	285.575,306.832 284.825,306.832 284.075,307.582 282.575,307.582 281.075,308.332 278.825,308.332 276.575,309.082 
	273.575,309.832 271.325,309.832 268.325,309.082 266.075,309.082 263.075,308.332 258.575,306.832 257.075,307.582 
	256.325,308.332 253.325,309.832 252.575,309.832 251.075,310.582 249.575,310.582 248.075,310.582 247.325,309.832 
	247.325,309.082 248.075,308.332 248.075,307.582 251.075,307.582 252.575,306.832 254.075,306.832 257.825,303.082 
	260.825,303.082 262.325,304.582 263.075,304.582 263.825,305.332 264.575,305.332 272.825,306.832 "/>
<polygon fill-rule="evenodd" clip-rule="evenodd" points="203.825,312.082 208.325,315.082 211.325,315.832 215.075,316.582 
	218.075,317.332 221.825,317.332 227.825,315.832 229.325,316.582 229.325,317.332 230.075,317.332 230.075,320.332 
	229.325,320.332 227.075,321.082 223.325,321.082 221.075,321.832 218.825,321.832 217.325,321.082 212.825,321.082 
	210.575,320.332 209.075,319.582 207.575,319.582 205.325,318.832 203.825,317.332 202.325,316.582 200.825,315.082 
	199.325,314.332 196.325,315.832 194.075,318.082 191.075,319.582 188.825,320.332 181.325,320.332 179.825,319.582 
	178.325,319.582 177.575,318.832 176.075,318.832 175.325,317.332 175.325,316.582 176.825,315.082 179.075,315.082 
	181.325,315.832 190.325,315.832 191.825,314.332 194.075,312.832 194.825,312.082 194.825,311.332 195.575,311.332 
	197.825,309.082 198.575,309.082 199.325,308.332 200.825,309.082 201.575,309.832 203.075,310.582 "/>
<polygon fill-rule="evenodd" clip-rule="evenodd" points="320.825,315.082 322.325,315.082 323.075,314.332 324.575,313.582 
	325.325,312.832 326.825,312.082 327.575,312.082 329.075,311.332 330.575,312.082 332.075,313.582 334.325,314.332 
	337.325,315.082 339.575,315.832 345.575,315.832 347.825,315.082 351.575,315.082 353.075,315.832 353.075,318.832 
	350.825,319.582 348.575,319.582 344.825,320.332 338.825,320.332 332.825,318.832 330.575,318.082 327.575,317.332 
	325.325,318.082 322.325,318.832 312.575,318.832 309.575,317.332 306.575,316.582 303.575,315.082 302.075,315.082 
	301.325,315.832 299.825,316.582 299.075,317.332 297.575,318.082 296.075,319.582 293.075,321.082 290.825,321.832 
	289.325,322.582 284.825,324.082 280.325,324.082 278.075,323.332 278.075,321.082 278.825,320.332 286.325,320.332 
	292.325,317.332 294.575,315.832 297.575,313.582 299.825,311.332 302.075,309.832 308.825,312.082 311.075,313.582 
	315.575,315.082 "/>
<polygon fill-rule="evenodd" clip-rule="evenodd" points="122.825,318.082 125.075,318.832 128.075,318.832 132.575,320.332 
	137.075,320.332 139.325,319.582 141.575,318.082 143.075,319.582 145.325,321.082 147.575,321.832 155.075,321.832 
	159.575,320.332 159.575,321.082 160.325,321.832 161.075,323.332 160.325,324.082 158.075,324.082 155.825,324.832 
	147.575,324.832 143.075,323.332 140.825,321.832 137.075,322.582 127.325,322.582 123.575,321.832 120.575,320.332 
	116.825,319.582 113.825,318.832 111.575,320.332 110.075,321.832 107.075,323.332 102.575,326.332 96.575,327.832 93.575,327.082 
	86.075,327.082 86.075,324.082 90.575,324.832 94.325,324.832 101.825,323.332 104.825,321.832 110.825,317.332 113.075,315.082 
	114.575,315.832 115.325,315.832 116.825,316.582 118.325,316.582 119.075,317.332 120.575,317.332 121.325,318.082 "/>
<polygon fill-rule="evenodd" clip-rule="evenodd" points="253.325,330.082 254.825,330.832 255.575,331.582 257.075,331.582 
	258.575,332.332 260.075,332.332 260.825,333.082 262.325,332.332 263.825,332.332 266.075,334.582 265.325,335.332 
	263.075,335.332 261.575,336.082 259.325,335.332 257.825,335.332 255.575,334.582 254.075,333.832 251.825,333.082 
	250.325,332.332 249.575,332.332 248.825,333.082 247.325,333.832 246.575,333.832 244.325,336.082 243.575,336.082 
	241.325,336.832 239.825,336.832 236.825,338.332 231.575,338.332 229.325,339.082 229.325,336.832 232.325,336.082 
	235.325,336.082 237.575,335.332 240.575,333.832 242.825,333.082 245.825,331.582 250.325,328.582 251.825,328.582 "/>
<polygon fill-rule="evenodd" clip-rule="evenodd" points="282.575,348.082 284.075,348.832 290.075,348.832 291.575,348.082 
	293.075,348.082 294.575,347.332 294.575,346.582 296.825,346.582 299.075,344.332 300.575,344.332 301.325,343.582 
	302.075,343.582 303.575,342.832 305.075,344.332 306.575,345.082 307.325,345.832 308.825,346.582 310.325,346.582 
	311.825,347.332 313.325,347.332 314.825,347.332 318.575,347.332 320.075,346.582 321.575,346.582 323.825,345.832 
	325.325,345.832 328.325,347.332 328.325,349.582 327.575,349.582 326.825,350.332 323.075,351.082 320.075,351.082 
	317.075,351.832 308.075,351.832 305.075,350.332 302.825,348.832 301.325,348.832 299.825,350.332 299.075,350.332 
	298.325,351.082 296.075,351.082 295.325,351.832 293.825,351.832 292.325,352.582 290.825,352.582 287.825,353.332 
	284.825,353.332 281.825,352.582 279.575,351.832 276.575,350.332 274.325,348.832 271.325,347.332 269.075,345.832 
	258.575,351.082 257.075,351.082 255.575,351.832 254.825,351.832 253.325,352.582 252.575,352.582 251.075,353.332 
	249.575,353.332 248.825,354.082 245.825,354.082 245.825,352.582 245.075,351.832 246.575,349.582 250.325,349.582 
	253.325,348.832 256.325,347.332 259.325,346.582 262.325,345.082 264.575,344.332 266.825,342.082 269.075,340.582 
	270.575,341.332 272.075,342.832 274.325,343.582 275.825,344.332 277.325,345.832 278.825,346.582 281.075,347.332 "/>
<polygon fill-rule="evenodd" clip-rule="evenodd" points="95.075,347.332 98.075,348.832 100.325,350.332 103.325,351.082 
	107.075,351.832 110.075,351.082 116.825,351.082 119.825,350.332 121.325,350.332 122.825,349.582 123.575,349.582 
	125.075,348.832 125.825,348.082 127.325,347.332 128.075,346.582 129.575,345.832 131.075,345.832 131.825,347.332 
	134.825,348.832 135.575,348.832 136.325,349.582 137.825,350.332 138.575,351.082 147.575,353.332 150.575,353.332 
	153.575,353.332 157.325,352.582 160.325,352.582 163.325,351.832 164.075,352.582 164.075,353.332 164.825,354.082 
	164.825,354.832 163.325,356.332 161.825,357.082 159.575,357.832 145.325,357.832 139.325,356.332 137.075,354.832 
	134.075,354.082 129.575,351.082 127.325,351.832 125.825,352.582 123.575,354.082 121.325,354.082 116.825,355.582 
	114.575,355.582 112.325,354.832 110.075,355.582 107.075,356.332 104.825,355.582 102.575,355.582 99.575,354.082 97.325,353.332 
	92.825,350.332 89.825,347.332 86.825,348.832 86.075,349.582 85.325,351.082 82.325,352.582 73.325,355.582 71.825,356.332 
	69.575,357.082 68.825,357.082 68.075,356.332 68.075,354.082 69.575,352.582 73.325,352.582 74.075,351.832 76.325,351.082 
	78.575,349.582 83.075,348.082 84.575,346.582 86.075,345.832 88.325,344.332 89.075,342.082 91.325,342.082 92.825,343.582 
	92.825,344.332 93.575,345.082 94.325,346.582 "/>
</svg>
