<?xml version="1.0" encoding="UTF-8" standalone="no"?>
<!-- Created with Inkscape (http://www.inkscape.org/) -->
<svg
   xmlns:dc="http://purl.org/dc/elements/1.1/"
   xmlns:cc="http://creativecommons.org/ns#"
   xmlns:rdf="http://www.w3.org/1999/02/22-rdf-syntax-ns#"
   xmlns:svg="http://www.w3.org/2000/svg"
   xmlns="http://www.w3.org/2000/svg"
   xmlns:sodipodi="http://sodipodi.sourceforge.net/DTD/sodipodi-0.dtd"
   xmlns:inkscape="http://www.inkscape.org/namespaces/inkscape"
   width="251.71774"
   height="463.82703"
   id="svg2"
   sodipodi:version="0.32"
   inkscape:version="0.46"
   version="1.0"
   sodipodi:docname="bourse.svg"
   inkscape:output_extension="org.inkscape.output.svg.inkscape">
  <defs
     id="defs4">
    <inkscape:perspective
       sodipodi:type="inkscape:persp3d"
       inkscape:vp_x="0 : 526.18109 : 1"
       inkscape:vp_y="0 : 1000 : 0"
       inkscape:vp_z="744.09448 : 526.18109 : 1"
       inkscape:persp3d-origin="372.04724 : 350.78739 : 1"
       id="perspective10" />
  </defs>
  <sodipodi:namedview
     id="base"
     pagecolor="#ffffff"
     bordercolor="#666666"
     borderopacity="1.0"
     inkscape:pageopacity="0.0"
     inkscape:pageshadow="2"
     inkscape:zoom="0.98994949"
     inkscape:cx="406.64689"
     inkscape:cy="269.07898"
     inkscape:document-units="px"
     inkscape:current-layer="layer1"
     showgrid="false"
     inkscape:window-width="1600"
     inkscape:window-height="1130"
     inkscape:window-x="0"
     inkscape:window-y="24" />
  <metadata
     id="metadata7">
    <rdf:RDF>
      <cc:Work
         rdf:about="">
        <dc:format>image/svg+xml</dc:format>
        <dc:type
           rdf:resource="http://purl.org/dc/dcmitype/StillImage" />
      </cc:Work>
    </rdf:RDF>
  </metadata>
  <g
     inkscape:label="Calque 1"
     inkscape:groupmode="layer"
     id="layer1"
     transform="translate(-180.2158,-136.60497)">
    <path
       style="opacity:1;fill:#000000;fill-opacity:1;fill-rule:nonzero;stroke:none;stroke-width:5;stroke-linecap:round;stroke-linejoin:round;stroke-miterlimit:4;stroke-dasharray:none;stroke-dashoffset:0;stroke-opacity:1"
       d="M 249.15639,348.59366 C 245.64786,361.50519 255.83178,380.24867 243.25693,389.31542 C 235.71998,382.35373 237.76861,356.07665 249.15639,348.59366 z"
       id="path2397" />
    <path
       style="opacity:1;fill:#000000;fill-opacity:1;fill-rule:nonzero;stroke:none;stroke-width:5;stroke-linecap:round;stroke-linejoin:round;stroke-miterlimit:4;stroke-dasharray:none;stroke-dashoffset:0;stroke-opacity:1"
       d="M 264.21646,346.6879 C 263.45745,359.6145 269.44255,379.03729 255.97156,386.77351 C 251.42052,373.52917 255.22879,357.1004 264.21646,346.6879 z"
       id="path2399" />
    <path
       style="opacity:1;fill:#000000;fill-opacity:1;fill-rule:nonzero;stroke:none;stroke-width:5;stroke-linecap:round;stroke-linejoin:round;stroke-miterlimit:4;stroke-dasharray:none;stroke-dashoffset:0;stroke-opacity:1"
       d="M 298.89438,345.50153 C 298.35136,357.30991 305.25713,377.74971 291.18115,383.11906 C 287.08004,370.48577 289.19062,355.08648 298.89438,345.50153 z"
       id="path2401" />
    <path
       style="opacity:1;fill:#000000;fill-opacity:1;fill-rule:nonzero;stroke:none;stroke-width:5;stroke-linecap:round;stroke-linejoin:round;stroke-miterlimit:4;stroke-dasharray:none;stroke-dashoffset:0;stroke-opacity:1"
       d="M 310.52747,341.77081 C 308.16609,354.72171 316.88553,373.54309 304.4106,382.45775 C 298.2852,374.98776 299.44443,349.61976 310.52747,341.77081 z"
       id="path2403" />
    <path
       style="opacity:1;fill:#000000;fill-opacity:1;fill-rule:nonzero;stroke:none;stroke-width:5;stroke-linecap:round;stroke-linejoin:round;stroke-miterlimit:4;stroke-dasharray:none;stroke-dashoffset:0;stroke-opacity:1"
       d="M 347.36926,345.33511 C 340.12304,355.15582 354.52641,382.81183 338.04747,381.2735 C 329.26515,370.05082 337.69353,353.04207 347.36926,345.33511 z"
       id="path2409" />
    <path
       style="opacity:1;fill:#000000;fill-opacity:1;fill-rule:nonzero;stroke:none;stroke-width:5;stroke-linecap:round;stroke-linejoin:round;stroke-miterlimit:4;stroke-dasharray:none;stroke-dashoffset:0;stroke-opacity:1"
       d="M 359.20462,343.60825 C 358.64752,354.87745 367.90078,377.66855 352.6768,380.94408 C 350.38074,368.59433 347.35873,352.22605 359.20462,343.60825 z"
       id="path2411" />
    <path
       style="opacity:1;fill:#000000;fill-opacity:1;fill-rule:nonzero;stroke:none;stroke-width:5;stroke-linecap:round;stroke-linejoin:round;stroke-miterlimit:4;stroke-dasharray:none;stroke-dashoffset:0;stroke-opacity:1"
       d="M 211.55608,318.1882 C 209.66363,321.36575 199.15195,325.74113 206.58651,319.19342 C 204.58259,337.19013 227.47438,333.07119 238.34626,329.40576 C 269.35399,318.77979 302.16031,314.37902 334.84921,314.88511 C 359.66582,313.4068 383.35744,323.38733 407.92319,324.11773 C 414.57037,321.82085 425.89738,321.01084 418.56666,323.43649 C 424.34164,309.81202 408.89668,304.27289 398.38106,302.59851 C 382.3083,299.26607 366.06848,304.43735 350.09029,303.73685 C 329.17066,297.86942 349.70287,278.58946 362.29461,277.25115 C 368.05292,273.12094 392.98489,271.47756 376.18499,278.7174 C 360.46594,280.83584 344.39791,275.89673 328.93083,281.67493 C 303.45316,286.97141 277.33173,285.04192 251.55423,284.00165 C 239.37858,281.31316 225.49806,282.818 215.53134,276.43363 C 221.26458,291.47087 255.47656,285.57388 246.58514,305.95815 C 239.94301,315.73877 209.93999,326.38183 210.55189,310.75035 C 218.12379,305.57457 244.99328,304.8444 242.68546,305.88037 C 230.31454,300.02534 205.55177,298.13857 211.81419,277.23057 C 221.60636,258.24367 244.46659,274.78362 260.26018,273.66202 C 288.55963,275.38954 317.25802,275.19596 345.11705,269.34216 C 357.30825,270.46412 379.53668,259.83405 384.27053,275.22617 C 378.23528,285.57328 353.70807,288.39133 349.64718,289.99088 C 362.61764,294.42423 376.26293,292.52919 389.61212,291.25374 C 406.45303,290.25828 432.95916,294.00937 428.18762,317.40387 C 421.70417,334.33144 400.30462,336.35505 384.76281,333.38996 C 362.84882,328.74241 340.6583,323.69069 318.07469,325.75303 C 295.82108,326.48804 273.21931,327.01967 251.95274,334.44052 C 236.89237,338.56018 221.58783,343.63061 205.75784,342.51588 C 186.31093,337.46924 205.51379,306.76005 215.52765,313.06792 C 214.55465,315.0635 212.46884,316.15145 211.55608,318.1882 z"
       id="path2413" />
    <path
       style="opacity:1;fill:#000000;fill-opacity:1;fill-rule:nonzero;stroke:none;stroke-width:5;stroke-linecap:round;stroke-linejoin:round;stroke-miterlimit:4;stroke-dasharray:none;stroke-dashoffset:0;stroke-opacity:1"
       d="M 259.85016,287.09534 C 269.54668,289.47231 286.14201,314.1252 266.55984,310.23005 C 258.68974,305.83616 245.2278,293.10691 259.85016,287.09534 z"
       id="path2417" />
    <path
       style="opacity:1;fill:#000000;fill-opacity:1;fill-rule:nonzero;stroke:none;stroke-width:5;stroke-linecap:round;stroke-linejoin:round;stroke-miterlimit:4;stroke-dasharray:none;stroke-dashoffset:0;stroke-opacity:1"
       d="M 309.1019,316.06631 C 309.72307,305.51678 325.37519,287.85386 329.78559,291.83136 C 321.46529,298.66101 317.50046,309.30171 309.1019,316.06631 z"
       id="path2421" />
    <path
       style="opacity:1;fill:#000000;fill-opacity:1;fill-rule:nonzero;stroke:none;stroke-width:5;stroke-linecap:round;stroke-linejoin:round;stroke-miterlimit:4;stroke-dasharray:none;stroke-dashoffset:0;stroke-opacity:1"
       d="M 231.87933,373.84787 C 226.66646,376.54198 207.363,375.82379 215.13964,376.87714 C 220.81976,387.92416 252.32484,367.80724 241.92281,386.36247 C 231.60225,392.96705 209.78201,394.93763 206.50567,380.04277 C 204.00025,366.37277 239.66154,356.73334 233.03742,372.45595 L 231.87933,373.84787 L 231.87933,373.84787 z"
       id="path2441" />
    <path
       style="opacity:1;fill:#000000;fill-opacity:1;fill-rule:nonzero;stroke:none;stroke-width:5;stroke-linecap:round;stroke-linejoin:round;stroke-miterlimit:4;stroke-dasharray:none;stroke-dashoffset:0;stroke-opacity:1"
       d="M 267.22299,360.97031 C 274.94835,366.40053 302.40439,354.07235 295.21887,370.17962 C 288.23996,375.61918 255.0934,377.35346 267.22299,360.97031 z"
       id="path2443" />
    <path
       style="opacity:1;fill:#000000;fill-opacity:1;fill-rule:nonzero;stroke:none;stroke-width:5;stroke-linecap:round;stroke-linejoin:round;stroke-miterlimit:4;stroke-dasharray:none;stroke-dashoffset:0;stroke-opacity:1"
       d="M 315.87262,355.20636 C 323.7636,351.66033 349.63481,356.6786 331.98942,365.2808 C 324.80074,367.73993 300.28109,366.81263 315.87262,355.20636 z"
       id="path2447" />
    <path
       style="opacity:1;fill:#000000;fill-opacity:1;fill-rule:nonzero;stroke:none;stroke-width:5;stroke-linecap:round;stroke-linejoin:round;stroke-miterlimit:4;stroke-dasharray:none;stroke-dashoffset:0;stroke-opacity:1"
       d="M 364.31531,353.2475 C 375.64709,344.47489 400.06865,357.99169 390.69476,372.13525 C 385.86642,381.3306 355.8289,384.27582 363.77211,370.78766 C 368.11043,363.73612 396.29315,371.51335 379.96031,364.10802 C 373.12287,363.63282 350.28449,365.80973 364.31531,353.2475 z"
       id="path2449" />
    <path
       style="opacity:1;fill:#000000;fill-opacity:1;fill-rule:nonzero;stroke:none;stroke-width:5;stroke-linecap:round;stroke-linejoin:round;stroke-miterlimit:4;stroke-dasharray:none;stroke-dashoffset:0;stroke-opacity:1"
       d="M 329.7605,381.82489 C 323.60729,388.00572 298.14499,383.98432 312.85931,375.37187 C 319.79121,374.51878 343.51127,366.0396 329.7605,381.82489 z"
       id="path2451" />
    <path
       style="opacity:1;fill:#000000;fill-opacity:1;fill-rule:nonzero;stroke:none;stroke-width:5;stroke-linecap:round;stroke-linejoin:round;stroke-miterlimit:4;stroke-dasharray:none;stroke-dashoffset:0;stroke-opacity:1"
       d="M 284.45416,388.68326 C 277.16081,390.59806 248.48141,394.0782 263.31139,381.2373 C 269.71915,378.29372 298.36949,374.4093 284.45416,388.68326 z"
       id="path2453" />
    <path
       style="opacity:1;fill:#000000;fill-opacity:1;fill-rule:nonzero;stroke:none;stroke-width:5;stroke-linecap:round;stroke-linejoin:round;stroke-miterlimit:4;stroke-dasharray:none;stroke-dashoffset:0;stroke-opacity:1"
       d="M 202.08665,334.60587 C 213.02775,337.46541 238.77557,357.50534 220.63319,363.74397 C 212.67894,356.64744 188.80848,345.42356 202.08665,334.60587 L 202.08665,334.60587 z"
       id="path2455" />
    <path
       style="opacity:1;fill:#000000;fill-opacity:1;fill-rule:nonzero;stroke:none;stroke-width:5;stroke-linecap:round;stroke-linejoin:round;stroke-miterlimit:4;stroke-dasharray:none;stroke-dashoffset:0;stroke-opacity:1"
       d="M 386.09457,350.39749 C 391.88376,346.15094 404.94018,329.09073 408.23802,335.42457 C 406.89099,337.63669 383.24705,361.39264 386.09457,350.39749 z"
       id="path2459" />
    <path
       style="opacity:1;fill:#000000;fill-opacity:1;fill-rule:nonzero;stroke:none;stroke-width:5;stroke-linecap:round;stroke-linejoin:round;stroke-miterlimit:4;stroke-dasharray:none;stroke-dashoffset:0;stroke-opacity:1"
       d="M 225.57237,385.37531 C 235.67306,402.16268 227.57975,423.73033 213.77462,435.7177 C 198.75438,453.56253 188.52141,476.03234 189.3586,499.72591 C 188.66841,533.99022 210.36639,568.2117 243.53686,578.92401 C 272.70063,589.75326 304.43684,589.11611 335.07647,589.67005 C 358.01545,587.75064 378.15507,575.51044 397.82292,564.59692 C 416.14427,564.25846 417.17601,545.68467 421.17253,531.05621 C 424.55818,507.27224 423.25745,482.07097 414.70459,459.47964 C 406.1653,438.67229 389.11476,423.22879 371.79335,409.72153 C 362.79385,404.48023 353.90133,378.38212 368.93339,381.7486 C 375.8217,396.2067 386.9612,407.18692 399.73902,416.35577 C 420.25913,435.36788 431.63693,462.90578 431.68365,490.77802 C 433.01972,517.4902 429.54688,548.6854 407.74657,566.93033 C 392.7356,576.0206 376.4295,582.82203 360.98507,591.18094 C 342.51942,600.07078 321.71698,601.73547 301.58911,599.59129 C 266.05864,598.76367 226.23089,593.69102 201.22176,565.57961 C 172.67754,533.30062 173.74521,480.81206 201.25255,448.20456 C 209.32083,436.1048 224.58297,425.14476 220.5462,408.71674 C 219.74319,401.01485 216.50801,389.50742 225.57237,385.37531 z"
       id="path2463" />
    <path
       style="opacity:1;fill:#000000;fill-opacity:1;fill-rule:nonzero;stroke:none;stroke-width:5;stroke-linecap:round;stroke-linejoin:round;stroke-miterlimit:4;stroke-dasharray:none;stroke-dashoffset:0;stroke-opacity:1"
       d="M 263.74622,406.63281 C 252.83251,431.57202 251.36006,459.41297 242.77922,484.99846 C 241.57445,490.99196 248.2522,513.04318 250.14486,495.99606 C 259.66293,486.86885 253.09069,457.47607 266.85714,458.89511 C 267.04334,472.41687 260.33309,485.46149 255.2882,497.85364 C 252.67226,511.16373 232.40332,515.94174 233.25412,498.31785 C 235.60912,478.69889 243.25837,459.98392 246.22254,440.33947 C 249.42768,428.13836 251.91308,413.62813 263.74622,406.63281 z"
       id="path2467" />
    <path
       style="opacity:1;fill:#000000;fill-opacity:1;fill-rule:nonzero;stroke:none;stroke-width:5;stroke-linecap:round;stroke-linejoin:round;stroke-miterlimit:4;stroke-dasharray:none;stroke-dashoffset:0;stroke-opacity:1"
       d="M 310.70636,411.41327 C 313.01191,435.33862 309.6219,459.49872 313.04447,483.35309 C 317.69359,488.63715 320.25078,503.24979 322.64949,503.89085 C 323.30887,497.25871 326.07834,471.47019 334.37746,481.89352 C 334.96792,493.38577 326.23623,518.35714 311.73862,508.86181 C 300.49283,491.21417 303.07815,468.83411 302.66092,448.77926 C 303.46903,436.2069 297.37774,419.53084 310.70636,411.41327 z"
       id="path2469" />
    <path
       style="opacity:1;fill:#000000;fill-opacity:1;fill-rule:nonzero;stroke:none;stroke-width:5;stroke-linecap:round;stroke-linejoin:round;stroke-miterlimit:4;stroke-dasharray:none;stroke-dashoffset:0;stroke-opacity:1"
       d="M 341.9321,408.59265 C 342.47685,429.24398 354.57943,446.8493 360.81424,465.95788 C 363.37605,473.01848 385.57189,479.52797 372.10197,486.3764 C 360.15657,476.14743 387.07187,458.37846 382.34932,478.93513 C 377.48512,494.75665 355.76699,487.00918 350.6589,475.20321 C 348.80728,463.4883 343.5633,452.80472 338.27249,442.07014 C 333.69646,431.72419 330.37932,415.60119 341.9321,408.59265 z"
       id="path2473" />
    <path
       style="opacity:1;fill:#000000;fill-opacity:1;fill-rule:nonzero;stroke:none;stroke-width:5;stroke-linecap:round;stroke-linejoin:round;stroke-miterlimit:4;stroke-dasharray:none;stroke-dashoffset:0;stroke-opacity:1"
       d="M 280.13766,278.16479 C 278.94158,247.9329 259.50588,221.72644 259.18503,191.37054 C 258.60771,175.96497 268.70479,163.06933 278.40928,152.17378 C 283.38544,146.38508 288.68071,140.19963 296.42605,138.26078 C 308.43302,134.88631 321.61313,136.93473 332.8364,142.00665 C 342.61787,146.4235 349.92735,155.69138 351.36432,166.38945 C 354.03183,179.57583 350.56463,193.37952 343.30269,204.54145 C 337.20772,215.66007 334.03258,228.32464 334.66678,241.01596 C 334.63379,248.54562 335.09182,256.13139 336.09452,263.55505 C 336.8592,266.31939 331.24978,273.2652 331.2002,270.56149 C 332.29706,269.11037 324.0905,274.32541 326.31777,268.98327 C 325.13969,256.53299 325.27296,243.88537 326.94,231.49942 C 329.5899,218.4395 338.13562,207.59244 341.77688,194.92504 C 344.66383,181.87019 343.14604,166.38531 332.82046,156.85705 C 322.50339,148.53449 308.45029,146.40609 295.57708,147.5303 C 287.75351,148.76718 280.26545,152.74492 275.29565,158.97782 C 276.5449,156.72785 280.442,153.48492 276.96956,157.59837 C 269.62025,167.19448 266.02739,179.99603 269.06717,191.87767 C 271.72834,213.31738 282.26748,232.66144 286.89117,253.63047 C 288.76903,259.97133 290.84139,267.98472 285.26094,273.1264 C 283.68527,274.93548 281.88509,276.52724 280.13766,278.16479 z"
       id="path2601" />
    <path
       style="opacity:1;fill:#000000;fill-opacity:1;fill-rule:nonzero;stroke:none;stroke-width:5;stroke-linecap:round;stroke-linejoin:round;stroke-miterlimit:4;stroke-dasharray:none;stroke-dashoffset:0;stroke-opacity:1"
       d="M 286.83853,275.64536 C 284.27316,259.64488 286.75404,242.83691 280.88941,227.41158 C 278.64428,214.63846 276.6587,201.3862 269.63654,190.19959 C 266.41852,183.10845 266.4444,173.98713 272.10865,168.10882 C 281.19673,155.87379 296.79357,150.21605 311.54971,149.26545 C 321.17314,149.33042 327.82583,157.65207 331.09433,165.87432 C 334.99578,175.70973 336.39614,186.3317 337.95538,196.72478 C 339.01318,211.55285 333.47226,225.66811 331.16849,240.09027 C 329.27042,247.43345 335.46327,256.26628 329.9634,262.37754 C 322.98187,268.23797 320.14041,258.51722 321.98808,253.01732 C 322.45847,242.28455 325.7539,232.01594 328.0536,221.61457 C 330.31987,206.57429 327.4504,191.20373 322.87025,176.86341 C 320.37689,168.86556 314.394,161.23008 305.6877,159.87396 C 296.59326,158.90025 288.05383,163.36304 279.9147,166.82178 C 277.72226,167.13357 271.6553,172.02591 276.14653,167.41355 C 277.36646,168.93914 276.27877,177.16936 278.85565,180.69705 C 282.88294,189.86622 286.99658,199.13328 288.33893,209.15796 C 289.24873,216.73359 291.84504,223.92661 293.33732,231.36538 C 294.92583,241.53781 293.75161,251.95081 295.72845,262.0796 C 295.64376,267.93527 290.83913,272.03652 286.83853,275.64536 z"
       id="path2603" />
  </g>
</svg>
