<?xml version="1.0" encoding="UTF-8" standalone="no"?>
<!-- Created with Inkscape (http://www.inkscape.org/) -->

<svg
   xmlns:dc="http://purl.org/dc/elements/1.1/"
   xmlns:cc="http://creativecommons.org/ns#"
   xmlns:rdf="http://www.w3.org/1999/02/22-rdf-syntax-ns#"
   xmlns:svg="http://www.w3.org/2000/svg"
   xmlns="http://www.w3.org/2000/svg"
   xmlns:xlink="http://www.w3.org/1999/xlink"
   xmlns:sodipodi="http://sodipodi.sourceforge.net/DTD/sodipodi-0.dtd"
   xmlns:inkscape="http://www.inkscape.org/namespaces/inkscape"
   width="83.564911"
   height="110.46358"
   id="svg40451"
   version="1.1"
   inkscape:version="0.48.1 r9760"
   sodipodi:docname="nicubunu_RPG_map_symbols_Round_Tower_with_Flag_modified.svg">
  <defs
     id="defs40453">
    <filter
       color-interpolation-filters="sRGB"
       height="1.1756427"
       y="-0.087821364"
       width="1.2159501"
       x="-0.10797507"
       id="filter3268"
       inkscape:collect="always">
      <feGaussianBlur
         id="feGaussianBlur3270"
         stdDeviation="2.4163667"
         inkscape:collect="always" />
    </filter>
    <linearGradient
       inkscape:collect="always"
       xlink:href="#linearGradient2338"
       id="linearGradient5443"
       gradientUnits="userSpaceOnUse"
       x1="48.801834"
       y1="98.584351"
       x2="87.451904"
       y2="115.46318" />
    <linearGradient
       id="linearGradient2338">
      <stop
         id="stop2340"
         offset="0"
         style="stop-color:#b1b1b1;stop-opacity:1;" />
      <stop
         id="stop2342"
         offset="1"
         style="stop-color:#e4e4e4;stop-opacity:1;" />
    </linearGradient>
    <linearGradient
       inkscape:collect="always"
       xlink:href="#linearGradient2338"
       id="linearGradient5445"
       gradientUnits="userSpaceOnUse"
       x1="58.21973"
       y1="63.420128"
       x2="78.890182"
       y2="71.003372" />
    <linearGradient
       id="linearGradient40390">
      <stop
         id="stop40392"
         offset="0"
         style="stop-color:#b1b1b1;stop-opacity:1;" />
      <stop
         id="stop40394"
         offset="1"
         style="stop-color:#e4e4e4;stop-opacity:1;" />
    </linearGradient>
    <linearGradient
       inkscape:collect="always"
       xlink:href="#linearGradient2338"
       id="linearGradient5447"
       gradientUnits="userSpaceOnUse"
       x1="55.161976"
       y1="36.144917"
       x2="77.789391"
       y2="41.404263" />
    <linearGradient
       id="linearGradient40397">
      <stop
         id="stop40399"
         offset="0"
         style="stop-color:#b1b1b1;stop-opacity:1;" />
      <stop
         id="stop40401"
         offset="1"
         style="stop-color:#e4e4e4;stop-opacity:1;" />
    </linearGradient>
    <linearGradient
       inkscape:collect="always"
       xlink:href="#linearGradient3098"
       id="linearGradient5449"
       gradientUnits="userSpaceOnUse"
       x1="62.989838"
       y1="27.338573"
       x2="71.306938"
       y2="31.130194" />
    <linearGradient
       id="linearGradient3098">
      <stop
         id="stop3100"
         offset="0"
         style="stop-color:#9e2612;stop-opacity:1;" />
      <stop
         id="stop3102"
         offset="1"
         style="stop-color:#bd5032;stop-opacity:1;" />
    </linearGradient>
    <linearGradient
       inkscape:collect="always"
       xlink:href="#linearGradient3108"
       id="linearGradient5451"
       gradientUnits="userSpaceOnUse"
       x1="69.47229"
       y1="10.704362"
       x2="72.163116"
       y2="5.6896377" />
    <linearGradient
       id="linearGradient3108">
      <stop
         id="stop3110"
         offset="0"
         style="stop-color:#c223c2;stop-opacity:1;" />
      <stop
         id="stop3112"
         offset="1"
         style="stop-color:#ff00dc;stop-opacity:1;" />
    </linearGradient>
    <linearGradient
       inkscape:collect="always"
       xlink:href="#linearGradient3098"
       id="linearGradient5453"
       gradientUnits="userSpaceOnUse"
       x1="72.89698"
       y1="93.019234"
       x2="81.336388"
       y2="97.055481" />
    <linearGradient
       id="linearGradient40412">
      <stop
         id="stop40414"
         offset="0"
         style="stop-color:#9e2612;stop-opacity:1;" />
      <stop
         id="stop40416"
         offset="1"
         style="stop-color:#bd5032;stop-opacity:1;" />
    </linearGradient>
    <linearGradient
       inkscape:collect="always"
       xlink:href="#linearGradient2320"
       id="linearGradient5455"
       gradientUnits="userSpaceOnUse"
       x1="80.35791"
       y1="111.06001"
       x2="75.465492"
       y2="119.49943" />
    <linearGradient
       id="linearGradient2320">
      <stop
         id="stop2322"
         offset="0"
         style="stop-color:#6a3c1d;stop-opacity:1;" />
      <stop
         id="stop2324"
         offset="1"
         style="stop-color:#8f5127;stop-opacity:1;" />
    </linearGradient>
  </defs>
  <sodipodi:namedview
     id="base"
     pagecolor="#ffffff"
     bordercolor="#666666"
     borderopacity="1.0"
     inkscape:pageopacity="0.0"
     inkscape:pageshadow="2"
     inkscape:zoom="0.35"
     inkscape:cx="41.782454"
     inkscape:cy="55.231792"
     inkscape:document-units="px"
     inkscape:current-layer="layer1"
     showgrid="false"
     inkscape:window-width="483"
     inkscape:window-height="420"
     inkscape:window-x="1400"
     inkscape:window-y="451"
     inkscape:window-maximized="0"
     fit-margin-top="0"
     fit-margin-left="0"
     fit-margin-right="0"
     fit-margin-bottom="0" />
  <metadata
     id="metadata40456">
    <rdf:RDF>
      <cc:Work
         rdf:about="">
        <dc:format>image/svg+xml</dc:format>
        <dc:type
           rdf:resource="http://purl.org/dc/dcmitype/StillImage" />
        <dc:title />
      </cc:Work>
    </rdf:RDF>
  </metadata>
  <g
     inkscape:label="Layer 1"
     inkscape:groupmode="layer"
     id="layer1"
     transform="translate(-333.21755,-477.13039)">
    <g
       id="g5413"
       transform="translate(-46.343161,326.78455)">
      <g
         transform="matrix(0.789185,0,0,0.789185,373.05486,183.05386)"
         inkscape:label="Layer 1"
         id="g5235">
        <g
           id="g2046"
           transform="matrix(2.469674,0,0,2.469674,-209.4758,-87.6608)">
          <path
             inkscape:connector-curvature="0"
             style="fill:#e4e4e4;fill-opacity:1;fill-rule:evenodd;stroke:none"
             d="m 106.40506,46.983379 c -0.0507,0.686567 -0.9908,1.677006 -1.42144,2.538288 -0.33412,0.668242 -0.33656,1.450604 -0.60919,2.132163 -0.35493,0.887334 -0.76565,1.882501 -1.42144,2.538289 -0.61579,0.615792 -0.94763,1.489153 -1.11685,2.335225 -0.16496,0.824817 -0.99973,1.276935 -1.72603,0.913784 -0.555234,-0.277616 -2.004071,0.17104 -2.538291,0.304595 -0.23903,0.05976 -0.473814,0.135375 -0.710721,0.203063 -0.270657,0.07733 -0.955854,1.810178 -1.116847,2.132162 -0.4838,0.967602 -1.065027,1.926992 -1.522973,2.842884 -0.272858,0.545715 0.04645,1.235656 -0.101532,1.827568 -0.298244,1.192978 -1.058691,2.218914 -1.624504,3.350541 -0.461331,0.922661 -1.381209,1.340975 -1.827568,2.233694 -0.424806,0.849612 -0.777162,1.103903 -1.31991,1.827568 -1.449879,1.933171 0.959231,0.8577 2.132162,2.030631 0.810851,0.810851 2.392841,1.418702 3.147478,1.116846 0.730335,-0.292134 2.218819,-0.406125 3.045947,-0.406125 2.067442,0 4.583129,0.09364 6.396489,-0.913784 1.06352,-0.590845 1.82987,-0.916085 2.63982,-1.726037 0.58241,-0.582409 1.91049,-1.199775 2.33522,-1.624504 0.25727,-0.257266 1.34617,-1.985688 1.85247,-1.732535 0.4578,0.228899 1.98256,0.290361 2.47161,0.412624 0.34243,0.08561 0.17687,1.556528 0.44791,1.827568 0.43975,0.439754 0.29044,0.855943 0.81225,1.116847 0.84378,0.421892 2.3422,0.413097 3.04595,1.116847 0.9844,0.984402 0.75967,-0.101531 1.9291,-0.101531 1.63044,0 4.15193,-0.03627 5.58423,-0.609189 1.25274,-0.501097 2.34371,-0.585927 3.65514,-0.913784 0.85263,-0.213158 2.09856,-0.540515 1.82756,-1.624505 -0.17114,-0.684579 -2.63538,-2.655302 -3.13752,-3.157437 -0.85407,-0.854073 -1.69137,-0.792265 -2.14212,-1.919141 -0.0562,-0.140529 -0.13537,-0.27075 -0.20306,-0.406126 -0.4311,-0.862202 -0.51813,-1.879929 -0.71072,-2.842883 -0.42206,-2.110305 -1.7684,-3.799026 -3.14748,-5.178109 -0.26312,-0.263123 -2.23608,2.765961 -2.33522,2.944415 -0.59307,1.067526 -1.03629,0.150636 -1.42145,-0.812253 -0.37985,-0.949638 -0.89567,-1.872528 -1.85094,-2.350164 -2.11625,-1.058124 -1.1996,-0.298852 -2.10879,-2.117224 -0.63227,-1.264544 -0.81104,-2.266734 -2.13216,-3.147478 -1.05264,-0.701764 -1.57265,-1.775714 -2.43676,-2.63982 -1.04826,-1.048269 -1.13374,-1.334714 -2.63982,-1.522973 z"
             id="path2174"
             sodipodi:nodetypes="ccccccccccccccccccccccccccccccccccccccccc" />
          <path
             inkscape:connector-curvature="0"
             style="fill:#c8c8c8;fill-opacity:1;fill-rule:evenodd;stroke:none"
             d="m 98.384072,58.253381 c -0.356253,-0.04345 -1.342133,0.397409 -2.030631,0.913783 -0.711493,0.53362 -1.246589,1.739582 -1.827568,2.436758 -0.467296,0.560754 -0.370066,2.154924 -0.507658,2.842883 -0.160874,0.804371 -0.344249,1.297687 -0.710721,2.030631 -0.500309,1.000618 -0.939114,1.624435 -1.624505,2.538289 -0.684122,0.912163 -1.45331,1.633152 -2.132162,2.538289 -0.401687,0.535582 -1.093469,1.042589 -1.093469,1.304971 0,0.278608 3.274277,1.739279 3.530226,1.944038 0.770617,0.616494 3.20289,0.683015 3.756667,0.406126 0.522556,-0.261278 0.963815,-2.669302 1.401524,-3.398816 0.280794,-0.46799 0.788891,-1.95904 0.933702,-2.490014 0.181313,-0.664815 -0.203063,-1.210648 -0.203063,-1.827567 0,-1.028841 -0.55395,-1.845462 -0.304595,-2.842884 0.348922,-1.395687 0.568886,-2.884731 0.913784,-4.264325 0.148719,-0.594876 0.101953,-1.62345 -0.101531,-2.132162 z"
             id="path2176"
             sodipodi:nodetypes="cccccccccccccccc" />
          <path
             inkscape:connector-curvature="0"
             style="fill:#c8c8c8;fill-opacity:1;fill-rule:evenodd;stroke:none"
             d="m 107.72497,46.983379 c 0,0.135375 0,0.135375 0,0 0,-2.398888 0.60919,2.677367 0.60919,3.655135 0,0.517931 -0.28455,1.239758 -0.40612,1.726037 -0.17371,0.694809 -0.75277,1.374265 -1.01532,2.030631 -0.30104,0.752612 -0.40612,1.319529 -0.40612,2.233694 0,0.924591 0.20306,1.640489 0.20306,2.538288 0,0.870473 0.40613,3.111214 0.40613,3.858199 0,0.806101 -0.31909,1.468585 -0.91379,1.319911 -0.61687,-0.154217 -1.32449,-0.381888 -1.82757,-0.507658 -0.66059,-0.16515 -1.19165,-0.614525 -1.72603,-1.015316 -0.41411,-0.31058 -0.62164,-1.382129 -0.71072,-1.827568 -0.0133,-0.06637 0,-0.135375 0,-0.203063 0,-1.119385 -0.6197,-1.89759 -0.20307,-3.147478 0.32281,-0.96841 0.77773,-1.860044 1.21838,-2.741352 0.68225,-1.364506 1.4532,-2.563769 1.82757,-4.061262 0.0338,-0.135375 0.0677,-0.27075 0.10153,-0.406126 0.34491,-1.379637 0.80102,-2.707544 1.9291,-3.553604 0.24518,-0.183881 0.61148,0.05115 0.91378,0.101532 z"
             id="path2178"
             sodipodi:nodetypes="ccccccccccccccccccc" />
          <path
             inkscape:connector-curvature="0"
             sodipodi:nodetypes="ccccccccccccccc"
             style="fill:#c8c8c8;fill-opacity:1;fill-rule:evenodd;stroke:none"
             d="m 119.90876,60.690138 c 0.13538,0.135375 0.27075,0.270751 0.40613,0.406126 0.34202,0.342029 0.20306,1.463753 0.20306,1.929099 0,0.676877 0,1.353754 0,2.030631 0,0.738857 0.0816,1.29824 -0.10153,2.030631 -0.2059,0.823576 -0.91019,1.508578 -1.11685,2.335226 -0.21609,0.864374 -0.19839,1.310558 -0.60919,2.132163 -0.23907,0.478147 -0.20306,1.076109 -0.20306,1.624504 0,0.902016 -0.40038,0.662831 -1.31991,0.203063 -0.7962,-0.398097 -2.18164,-0.464039 -2.76626,-1.048652 -0.62388,-0.623883 -0.70075,-0.435952 -0.70075,-1.474698 0,-0.789945 1.07682,-1.9738 1.23331,-2.75629 0.18829,-0.941409 0.76399,-2.203181 1.31991,-2.944415 0.95737,-1.27649 1.38871,-2.716798 2.63982,-3.655136 0.56678,-0.425079 0.47097,-0.131817 1.01532,-0.812252 z"
             id="path2180" />
          <path
             inkscape:connector-curvature="0"
             id="path1719"
             d="m 107.18846,45.592274 c -0.83011,0 -2.20194,1.51539 -2.625,2.875 -0.31511,1.01274 -0.6148,1.69773 -1.75,4.21875 -0.23675,0.52577 -0.66894,1.28069 -0.96875,1.65625 -0.29983,0.37555 -0.63235,1.08062 -0.71875,1.59375 -0.0864,0.51313 -0.21254,1.04511 -0.28125,1.15625 -0.0687,0.11115 -0.84009,-0.04375 -1.718756,-0.34375 l -1.59375,-0.5625 -0.65625,0.65625 c -0.91972,0.88399 -2.28935,2.64303 -2.78125,3.625 -0.54754,1.09302 -1.11934,3.6383 -1.0625,4.65625 0.03831,0.68596 -0.28817,1.16009 -2.03125,2.875 -2.02885,1.99607 -2.84374,3.21393 -2.84375,4.34375 0,1.02803 0.41698,0.6915 2.75,-2.1875 0.66953,-0.82621 1.29358,-1.54369 1.40625,-1.59375 0.11266,-0.05008 0.21875,-0.20797 0.21875,-0.375 0,-0.16704 0.32416,-0.65064 0.71875,-1.0625 0.58375,-0.6093 0.74392,-1.12471 0.90625,-2.75 0.25657,-2.56897 0.94622,-4.03843 2.1875,-4.65625 0.52577,-0.26168 1.10627,-0.66852 1.28125,-0.90625 0.41209,-0.55989 0.22567,1.30191 -0.34375,3.375 -0.51624,1.87942 -0.52479,2.83146 -0.09375,5 0.31214,1.57039 0.30133,1.96548 -0.09375,3.125 -0.53861,1.58074 -0.59427,2.40229 -0.125,2.25 0.44602,-0.14473 1.23681,-2.52915 1.25,-3.75 0.0057,-0.52577 -0.12385,-1.62959 -0.3125,-2.4375 -0.30771,-1.31783 -0.28065,-1.8157 0.34375,-4.96875 0.5629,-2.84253 0.7827,-3.53028 1.15625,-3.53125 0.564562,-0.0015 0.921756,0.52404 0.812506,1.1875 -0.0914,0.55507 0.4499,1.3298 0.78125,1.125 0.23999,-0.14832 0.81249,1.33495 0.8125,2.09375 0,0.6425 1.22969,1.46563 2.75,1.875 1.41597,0.38128 2.37715,1.01497 4,2.5625 0.80408,0.76676 1.27148,1.00979 1.46875,0.8125 0.19728,-0.19729 -0.13527,-0.663 -1.0625,-1.5625 -1.75059,-1.69821 -2.61871,-2.25507 -4.3125,-2.75 -1.60249,-0.46825 -1.87979,-0.7388 -2.15625,-2.0625 -0.1098,-0.52577 -0.32275,-1.0998 -0.46875,-1.28125 -0.50942,-0.63304 -0.0392,-2.98888 0.8125,-4.09375 0.44093,-0.57202 0.95374,-1.60525 1.15625,-2.28125 0.2025,-0.676 0.55316,-1.45369 0.75,-1.75 0.19684,-0.29631 0.34292,-0.78919 0.34375,-1.09375 0.003,-1.06106 0.55615,-2.53502 1.21875,-3.25 0.82654,-0.89185 0.9143,-0.89079 0.75,-0.03125 -0.0947,0.49547 -8.5e-4,0.6875 0.3125,0.6875 0.70213,0 0.47825,3.95381 -0.28125,5.03125 -0.63283,0.89773 -1.06046,2.04613 -0.9375,2.46875 0.0437,0.15022 0.15128,1.26541 0.25,2.5 0.14025,1.75395 0.2825,2.20537 0.5625,2.03125 0.39127,-0.24331 0.46601,-2.46653 0.15625,-4.21875 -0.13188,-0.74596 -0.0791,-1.16475 0.21875,-1.5 0.76168,-0.85739 1.29075,-2.56123 1.3125,-4.25 0.0119,-0.92053 0.0805,-1.50027 0.15625,-1.3125 0.0758,0.18778 0.27025,0.31251 0.40625,0.3125 0.69516,0 2.83377,2.68007 3.96875,4.9375 0.39984,0.79526 1.15332,1.60851 2.125,2.3125 0.82732,0.59942 1.71897,1.47367 1.96875,1.9375 0.43964,0.81636 0.41642,0.87201 -0.28125,2.0625 -0.39638,0.67638 -0.71876,1.44172 -0.71875,1.6875 0,0.5066 -1.96153,4.57876 -2.78125,5.75 -0.4153,0.59341 -0.51395,1.04457 -0.40625,2 0.25788,2.28795 1.32426,2.04721 1.65625,-0.375 0.20597,-1.50273 1.55043,-4.34637 2.4375,-5.1875 0.34266,-0.32492 0.99899,-0.94125 1.46875,-1.375 l 0.84375,-0.78125 0.34375,1.25 c 0.63321,2.42304 0.62594,2.6757 0.0625,3.46875 -0.83364,1.17337 -1.40717,2.68774 -1.15625,3.09375 0.29826,0.4826 1.09375,-0.12603 1.09375,-0.84375 0,-0.27538 0.31194,-0.94659 0.6875,-1.5 0.79835,-1.17642 0.80994,-1.55781 0.25,-3.71875 -0.34105,-1.31611 -0.35878,-1.80289 -0.0937,-2.6875 0.179,-0.59745 0.43605,-1.09374 0.5625,-1.09375 0.12644,0 0.21876,-0.2308 0.21875,-0.53125 0,-0.63072 0.0392,-0.63465 0.96875,-0.28125 0.56481,0.21474 0.68751,0.4294 0.6875,1.1875 0,0.5172 0.0651,1.1374 0.15625,1.375 0.29545,0.76993 0.65626,0.46483 0.65625,-0.5625 0,-1.52936 0.21146,-0.99984 0.40625,1.0625 0.23999,2.54088 0.32673,2.74721 2.1875,4.15625 2.60552,1.973 2.87839,2.28084 3.53125,4.3125 0.17463,0.54344 0.9779,0.67674 0.96875,0.15625 -0.0101,-0.57694 -1.0704,-2.77751 -1.5625,-3.21875 -0.2558,-0.22935 -1.19167,-0.96238 -2.0625,-1.625 -1.89061,-1.43853 -2.00329,-1.61358 -2.25,-3.71875 -0.17952,-1.5318 -0.44922,-2.15956 -2.03125,-4.5 -0.25582,-0.37846 -0.5617,-0.92083 -0.65625,-1.21875 -0.0946,-0.2979 -0.41722,-0.7297 -0.75,-0.9375 -0.54498,-0.34035 -0.65088,-0.30706 -1.03125,0.25 -0.67667,0.99101 -1.85367,2.1875 -2.15625,2.1875 -0.15328,0 -0.51494,-0.36164 -0.78125,-0.8125 -0.26633,-0.45085 -0.70839,-0.88612 -0.96875,-0.96875 -0.64029,-0.20322 -2.9375,-2.43576 -2.9375,-2.84375 0,-0.6552 -2.70721,-4.30438 -3.9375,-5.3125 -0.6954,-0.56983 -1.46064,-1.40506 -1.6875,-1.84375 -0.27268,-0.5273 -0.6199,-0.78124 -1.03125,-0.78125 z"
             style="fill:#5c2700;fill-opacity:1" />
        </g>
      </g>
      <g
         transform="matrix(0.7658071,0,0,0.7658071,365.18183,148.43132)"
         id="g5318">
        <g
           id="layer2"
           inkscape:label="colors">
          <path
             inkscape:connector-curvature="0"
             style="fill:#000000;fill-opacity:0.6877828;fill-rule:evenodd;stroke:none;filter:url(#filter3268)"
             d="m 40.949622,53.944971 c -4.371815,-0.171051 -2.403027,4.734051 1.863098,3.518697 4.339057,1.506431 8.77416,1.84464 12.675432,0.857522 2.66415,-0.437427 7.825739,-0.829572 8.830664,-1.443574 -4.762985,-0.258061 -9.449065,-0.186307 -14.181881,-0.350222 -3.561517,-0.755611 -4.676928,-2.895495 -9.187313,-2.582423 z m -0.490928,5.946149 c -2.624422,2.869144 -5.258548,5.734793 -7.892013,8.600678 1.432228,0.532623 8.580034,2.520698 3.710142,1.356617 -1.762114,2.303592 -0.401508,6.643519 4.007963,8.439008 18.721309,3.992796 0.716363,-2.329679 1.744707,2.649381 1.447858,6.97237 3.88831,14.011907 7.627277,21.002076 0.792472,0.59392 -1.445315,-2.62151 -3.22663,-1.20678 -8.353097,2.15366 -7.019516,2.73697 -5.02907,5.45906 -0.365451,3.02214 0.379491,6.21313 1.762814,9.33731 2.363264,2.4878 8.137409,2.81208 12.205377,3.74674 10.696294,2.0355 18.550134,-0.94679 26.944884,-3.56601 3.579029,-0.79812 5.123199,-2.53133 2.987919,-4.89273 -1.470166,-2.95676 -0.380135,-3.46624 -3.216446,-6.25845 2.315092,-2.88169 -7.749492,-3.69835 -10.776763,-5.42577 -2.306665,-2.939249 -2.676827,-6.037983 -4.931012,-9.028344 -2.158953,-3.880094 -4.497122,-7.75665 -7.36226,-11.577982 4.928856,-1.643895 0.657446,-5.692721 -1.850949,-8.261771 -2.026994,-1.002303 -7.342738,0.838294 -2.661138,-0.121677 5.356339,-0.972595 0.313461,-3.8304 -3.176997,-5.051108 -3.53113,-1.794794 -7.158418,-3.528834 -10.867805,-5.200248 z m 40.292749,45.09162 c -10.111011,2.5779 -8.09825,2.42323 0,0 z"
             id="path3142"
             sodipodi:nodetypes="cccccccccccccccccccccccccccc"
             inkscape:transform-center-x="-17"
             inkscape:transform-center-y="5" />
          <path
             inkscape:connector-curvature="0"
             style="fill:url(#linearGradient5443);fill-rule:evenodd;stroke:none"
             d="m 43.90942,114.66817 0.733862,-12.35335 2.323897,-8.439411 4.647794,3.547 7.583242,2.446208 3.547001,0.12231 5.748587,0.244623 7.827863,-1.223106 7.705553,-2.690828 3.180069,-2.201586 1.345414,3.913931 1.834656,9.173279 0.12231,7.95017 -4.525483,3.05776 c 0,0 -6.48245,2.44621 -7.705553,2.93545 -1.223104,0.48924 -10.15176,1.46772 -10.15176,1.46772 l -9.417898,-0.85617 -10.641002,-3.91393 -4.158552,-3.18007 z"
             id="path2505" />
          <path
             inkscape:connector-curvature="0"
             style="fill:url(#linearGradient5445);fill-rule:evenodd;stroke:none"
             d="m 55.895836,89.716857 -0.489242,-7.583243 -0.12231,-13.943381 1.100793,-14.799554 0.489241,-4.525483 3.669311,0.856172 3.547001,0.611552 7.583242,-0.856173 2.690828,-1.223103 1.345414,7.094001 1.467725,12.475657 1.100793,13.331829 0.611552,8.806346 -2.201587,1.100794 -5.993208,2.323897 -5.381656,0.366931 -4.158552,-0.733863 -3.42469,-1.345414 -1.834655,-1.956965 z"
             id="path2509" />
          <path
             inkscape:connector-curvature="0"
             style="fill:url(#linearGradient5447);fill-rule:evenodd;stroke:none"
             d="m 54.672732,32.842538 -1.467724,4.036242 0.12231,4.892415 0.489241,4.647793 3.30238,2.323897 7.950174,1.345414 5.014725,0 4.158552,-1.590034 3.057759,-2.323897 0.489241,-6.115518 -2.568517,-7.338622 -2.935449,1.100793 -6.115518,0.978483 -4.770104,-0.12231 -4.892415,-0.856173 -1.834655,-0.978483 z"
             id="path2515" />
          <path
             inkscape:connector-curvature="0"
             style="fill:url(#linearGradient5449);fill-opacity:1;fill-rule:evenodd;stroke:none"
             d="m 51.859594,30.640952 6.727069,-9.050967 4.525484,-6.115518 2.201586,2.079276 6.237829,6.60476 5.503966,6.360138 -1.712345,2.079276 -6.604759,2.079277 -8.317105,0.24462 -3.791621,-1.223103 -4.770104,-3.057759 z"
             id="path2519" />
          <path
             inkscape:connector-curvature="0"
             style="fill:url(#linearGradient5451);fill-opacity:1;fill-rule:evenodd;stroke:none"
             d="m 63.479078,5.4450171 2.446207,-0.4892415 3.30238,0.6115519 1.834655,0.7338621 1.712345,3.1800694 16.389589,0.611552 -1.467724,0.611552 -3.669311,0.733862 -6.971691,1.712345 -6.72707,0.611552 -1.223103,-1.345414 -2.323897,-1.467725 -4.036242,0.244621 0.733862,-5.7485869 z"
             id="path3106" />
          <path
             inkscape:connector-curvature="0"
             style="fill:url(#linearGradient5453);fill-opacity:1;fill-rule:evenodd;stroke:none"
             d="m 45.254834,91.918443 2.813138,-2.323897 4.525484,-1.956966 3.057759,-0.733862 0.12231,3.18007 5.993208,3.669311 4.525483,0.24462 4.158553,-0.489241 4.525483,-1.590035 3.669311,-1.834655 -0.12231,-4.280863 1.834655,0.489241 3.913932,1.834656 3.302379,2.813138 1.467725,2.568518 -5.014725,2.446207 -8.561726,3.30238 -7.216311,0.978485 -5.503966,0 -5.993208,-1.100795 -5.381656,-1.956966 -6.115518,-5.259346 z"
             id="path3116" />
          <path
             inkscape:connector-curvature="0"
             style="fill:url(#linearGradient5455);fill-rule:evenodd;stroke:none"
             d="m 73.141597,121.88448 -0.366932,-6.48245 -0.366931,-3.79162 2.323897,-4.52548 2.446208,-1.95697 2.323896,0.61155 2.813139,2.56852 0.733862,2.69083 0.611552,8.19479 -3.913932,1.34542 -6.604759,1.34541 z"
             id="path3120" />
          <path
             inkscape:connector-curvature="0"
             style="fill:#d59163;fill-opacity:1;fill-rule:evenodd;stroke:none"
             d="m 48.75,106.625 0.25,-3.75 1.125,-1.375 1.375,-0.625 1.25,2.25 0.5,2 -0.375,3.375 -4.125,-1.875 z"
             id="path3124" />
          <path
             inkscape:connector-curvature="0"
             style="fill:#d59163;fill-opacity:1;fill-rule:evenodd;stroke:none"
             d="m 74.125,86.25 -5.375,1.875 0,-5.25 1.875,-3.125 1.875,1 0.875,1.5 0.75,4 z"
             id="path3126" />
          <path
             inkscape:connector-curvature="0"
             style="fill:#d59163;fill-opacity:1;fill-rule:evenodd;stroke:none"
             d="M 61.125,74.5625 61.5,71.5 l -2.3125,-3 -1.75,1.625 -0.0625,1 -0.1875,2.6875 3.9375,0.75 z"
             id="path3128" />
          <path
             inkscape:connector-curvature="0"
             style="fill:#d59163;fill-opacity:1;fill-rule:evenodd;stroke:none"
             d="M 67.875,64.0625 71.9375,62.5 71.3125,58.9375 69.375,57.25 68.4375,58.6875 67.75,60.125 l 0.125,3.9375 z"
             id="path3130" />
          <path
             inkscape:connector-curvature="0"
             style="fill:#d59163;fill-opacity:1;fill-rule:evenodd;stroke:none"
             d="M 61.375,47.5625 61.5,43.0625 60.4375,40 l -1,-0.9375 -2.125,1.625 -0.25,1.9375 -0.125,3.3125 4.4375,1.625 z"
             id="path3132" />
          <path
             inkscape:connector-curvature="0"
             style="fill:#d59163;fill-opacity:1;fill-rule:evenodd;stroke:none"
             d="M 72.125,42.0625 75.3125,40.9375 74.6875,38 72.875,36.375 l -0.75,1.1875 -0.1875,1.25 0.1875,3.25 z"
             id="path3134" />
          <path
             inkscape:connector-curvature="0"
             id="path3136"
             d="M 61.125,74.5625 61.5,71.5 l -2.3125,-3 -1.75,1.625 -0.0625,1 -0.1875,2.6875 3.9375,0.75 z"
             style="fill:#000000;fill-opacity:0.15686275;fill-rule:evenodd;stroke:none" />
          <path
             inkscape:connector-curvature="0"
             id="path3138"
             d="M 61.375,47.5625 61.5,43.0625 60.4375,40 l -1,-0.9375 -2.125,1.625 -0.25,1.9375 -0.125,3.3125 4.4375,1.625 z"
             style="fill:#000000;fill-opacity:0.15686275;fill-rule:evenodd;stroke:none" />
          <path
             inkscape:connector-curvature="0"
             id="path3140"
             d="m 48.75,106.625 0.25,-3.75 1.125,-1.375 1.375,-0.625 1.25,2.25 0.5,2 -0.375,3.375 -4.125,-1.875 z"
             style="fill:#000000;fill-opacity:0.15686275;fill-rule:evenodd;stroke:none" />
        </g>
        <g
           inkscape:label="outline"
           id="g5338">
          <path
             inkscape:connector-curvature="0"
             style="fill:#000000;fill-opacity:1;fill-rule:evenodd;stroke:none"
             d="M 62.90625,2.5 62.4375,16.1875 51.25092,30.566942 c -0.180737,1.170105 1.718905,1.647242 2.62408,2.401808 -1.061527,3.89852 -1.692126,8.29977 -0.25,13.59375 0.81684,0.807046 1.828528,1.365482 2.8125,1.9375 -1.109084,13.99053 -1.848727,24.305775 -0.84375,38.28125 -1.326062,0.035 -8.111796,1.176379 -10.816942,5.385723 0.356401,0.602222 0.939123,1.016563 1.400889,1.536612 -1.586613,6.576885 -2.398489,7.545855 -2.765165,21.452665 7.025113,5.70817 16.098425,7.4437 24.868718,7.85892 6.072758,-0.55848 16.324795,-1.88558 22.375,-7.85892 0.644079,-7.1908 -0.401775,-14.05184 -2.875,-20.78125 l 1.660692,-0.755362 C 87.659765,89.01465 83.351941,86.979438 78.875,85.625 78.256016,72.037111 77.025542,60.286551 74.75,48.34375 l 2.78125,-2.125 c 0.898259,-4.827322 0.01482,-9.219647 -1.84375,-13.65625 0.82787,-0.554059 1.776225,-1.38585 2.009803,-2.176777 L 63.71875,15.625 63.4375,11.634803 c 3.317471,-0.886422 4.583601,0.575726 6.65625,2.619639 8.443009,0.07652 13.111141,-3.289845 19.875,-3.723192 L 89.8125,9.71875 C 84.17844,9.8192789 78.103812,9.7481493 72.5,9.1205583 72.110809,7.270482 71.525485,6.0557263 69.90625,5.4375 67.814364,4.655608 65.6958,4.498252 63.525888,4.7401966 L 63.4375,2.5 l -0.53125,0 z m 4.53125,3.125 c 0.799933,-0.015422 1.561424,0.033915 2.3125,0.25 1.479188,0.5647561 2.12785,2.0512747 2.375,3.875 1.601503,1.113325 13.473759,0.41738 16.3125,0.46875 -2.807529,0.162126 -9.313145,3.274531 -18.125,3.15625 -1.810195,-2.701173 -3.759732,-3.46381 -6.875,-3.125 l 0,-4.125 c 1.284842,-0.2224815 2.666779,-0.4742963 4,-0.5 z m -4.25,10.25 c 0.159712,-0.01069 0.380803,0.06047 0.65625,0.28125 l 8.34375,9.5625 c -0.431804,0.405175 -0.742973,1.139055 -1.34375,1.1875 l 0.1875,0.28125 1.53125,-1.0625 1.15625,1.34375 c -0.214076,0.355268 -0.601774,0.820323 -0.96875,1.1875 -0.196471,0.196578 -0.409708,0.450279 -0.625,0.6875 -0.400558,-0.455807 -0.771282,-0.878996 -0.875,-1 l -0.34375,0.25 c 0.112988,0.13182 0.503238,0.593812 0.90625,1.0625 -0.245379,0.250817 -0.489118,0.478005 -0.75,0.625 L 71.15625,30.5 c 0.296843,-0.167257 0.587398,-0.383226 0.875,-0.59375 0.141157,0.164149 0.40625,0.46875 0.40625,0.46875 l 0.375,-0.25 c 0,0 -0.277548,-0.318104 -0.4375,-0.5 0.256546,-0.207062 0.522971,-0.397847 0.75,-0.625 0.419816,-0.420046 0.732726,-0.736602 0.9375,-1.125 l 2.53125,2.875 c -2.570623,3.134813 -7.738962,3.560684 -11.53125,3.8125 -4.564811,0.195233 -9.311496,-0.573724 -12.46875,-4.09375 l 1,-1.375 c 1.237281,0.979238 2.627477,1.5407 4.0625,1.9375 -0.05021,0.2313 -0.116832,0.453501 -0.15625,0.6875 l 0.40625,0.15625 c 0.07643,-0.239351 0.14189,-0.480607 0.21875,-0.71875 1.880252,0.464364 3.836145,0.671294 5.6875,1 L 63.625,31.75 c -1.823389,-0.323741 -3.64792,-0.618545 -5.34375,-1.09375 0.360096,-1.120841 0.739281,-2.236758 1,-3.375 0.343738,0.08473 0.675711,0.177595 1.0625,0.3125 l 0.0625,-0.1875 c -0.435287,-0.15182 -0.746735,-0.260707 -1.09375,-0.375 0.112539,-0.518098 0.212942,-1.031157 0.28125,-1.5625 l -0.15625,-0.1875 c -0.167675,0.53664 -0.378084,1.061295 -0.5625,1.59375 -0.698205,-0.245111 -1.497222,-0.567539 -2.8125,-1.28125 l 6.5625,-9.1875 c 0.155843,-0.238501 0.296314,-0.513433 0.5625,-0.53125 z m -7.375,10.0625 c 1.387476,0.753403 2.241281,1.028738 2.96875,1.21875 -0.381817,1.099175 -0.719023,2.219365 -1,3.34375 -1.392044,-0.433013 -2.698027,-0.999854 -3.84375,-1.90625 l 1.875,-2.65625 z m 19.052697,7.083027 c 1.80976,3.884402 2.890437,7.120971 2.166053,12.766085 -3.384236,3.048849 -8.109206,4.051682 -12.182138,3.891085 -4.050042,-0.159693 -8.188483,-1.15432 -10.641085,-3.214309 -0.486744,-5.602954 -0.888317,-8.722913 0.432138,-13.270526 3.250781,1.566034 7.059685,2.021943 10.609835,1.963388 3.296824,-0.111801 6.61103,-0.771122 9.615197,-2.135723 z M 72.6875,36.0625 c -0.655055,0.84568 -0.806326,1.76026 -0.875,2.78125 L 71.90625,42.25 75.4375,41 74.90625,38.25 C 74.409675,37.230706 73.600222,36.655432 72.6875,36.0625 z m 0.25,0.71875 c 0.301613,0.303456 1.370316,1.305662 1.59375,1.625 l 0.5,2.40625 -2.78125,1 0,-3.0625 c -0.107996,-0.684546 0.596609,-1.291985 0.6875,-1.96875 z M 59.59375,38.8125 c -1.579724,0.747398 -2.415797,1.613808 -2.8125,3.25 l -0.09375,4.09375 4.78125,1.65625 0.1875,-4.90625 c -0.468613,-1.388904 -0.329802,-2.8453 -2.0625,-4.09375 z m -0.125,0.46875 c 0.627885,0.663715 1.698039,2.224391 1.65625,3.65625 l -0.03125,4.25 -3.8125,-1.28125 0.03125,-3.8125 c 0.154562,-1.035217 1.360276,-2.255804 2.15625,-2.8125 z m 14.615197,9.483915 c 2.459369,13.007283 3.461941,25.389516 4.270526,40.916973 -8.091216,5.63814 -18.073406,4.439772 -22.135723,0.07859 -1.166583,-15.964284 -0.398649,-25.588364 0.796415,-40.631281 2.208012,1.007525 5.143749,1.483444 7.828585,1.589308 3.000605,0.118315 6.397071,-0.502536 9.240197,-1.953585 z M 69.34375,57.15625 c -0.907756,0.764362 -1.284786,1.789666 -1.65625,2.875 l 0.0625,4.25 L 72,62.625 71.5625,59.1875 c -0.233259,-1.43657 -1.44227,-1.409512 -2.21875,-2.03125 z m 0.125,0.4375 c 0.610173,0.228006 1.393034,0.965563 1.6875,1.5 L 71.6875,62.375 68.09375,63.9375 68.0625,59.96875 c 0.209384,-0.735514 0.965032,-1.864319 1.40625,-2.375 z M 59.28125,68.4375 c -1.035086,0.310045 -1.525825,1.023079 -2.09375,1.84375 l -0.0625,3.625 4.1875,0.96875 0.3125,-3.46875 C 61.208879,70.051538 60.304846,69.184738 59.28125,68.4375 z M 59.1875,68.875 c 0.888433,0.622785 1.813251,1.982476 2.0625,2.65625 L 61.125,74.3125 57.375,73.65625 57.5625,70.5 c 0.176993,-0.392938 0.942668,-1.290563 1.625,-1.625 z m 11.53125,10.65625 c -1.174286,0.935859 -1.663476,2.234895 -2.15625,3.59375 l 0.0625,5.28125 5.5,-2 -0.53125,-4.3125 c -0.710239,-1.474402 -1.856059,-1.859852 -2.875,-2.5625 z m 0.1875,0.5 c 0.992903,0.303157 1.710863,1.582211 2.15625,2.4375 l 0.6875,3.5 -4.75,1.9375 -0.0625,-4.71875 c 0.213057,-1.016532 1.352034,-2.358814 1.96875,-3.15625 z m 7.9375,6.15625 c 3.38907,0.698402 5.833822,2.472152 7.40625,4.21875 -0.196159,0.349036 -0.403291,0.671713 -0.625,0.96875 -1.117117,-1.373863 -2.761243,-2.216527 -4.21875,-3.25 l -0.09375,0.1875 c 1.57164,0.96428 3.024622,2.060431 4,3.46875 -1.526466,1.803454 -3.53269,2.62194 -5.53125,3.25 l 0.09375,0.3125 c 1.964258,-0.61728 4.114122,-1.209554 5.78125,-3.0625 0.170381,0.295276 0.313336,0.615244 0.4375,0.9375 l 0.375,-0.4375 C 86.333374,92.459292 86.180769,92.151566 86,91.875 c 0.233742,-0.297386 0.446878,-0.609468 0.65625,-0.96875 0.661241,0.816987 1.165362,1.606581 1.4375,2.25 -5.524324,3.915951 -14.2815,6.86035 -22.3125,6.875 -8.042754,0.0147 -15.610075,-2.904055 -19.34375,-7.78125 0.33439,-0.619267 0.790136,-1.181533 1.34375,-1.6875 0.343823,1.05369 0.98064,1.919692 1.75,2.65625 -0.276651,0.237851 -0.557601,0.461522 -0.84375,0.6875 l 0.40625,0.28125 0.84375,-0.59375 c 0.0112,0.0097 0.02002,0.02164 0.03125,0.03125 1.125095,0.962434 2.440664,1.736579 3.5625,2.59375 L 53.4375,95.875 C 52.306667,95.010954 51.447885,94.104181 50.46875,93.25 l 1.46875,-1 -0.25,-0.375 c -0.656315,0.190378 -1.192457,0.545532 -1.6875,0.9375 -0.802189,-0.74615 -1.469071,-1.622004 -1.75,-2.625 0.606934,-0.48279 1.284956,-0.905494 2.03125,-1.28125 0.18035,1.193112 1.360526,1.609027 2.28125,2.40625 L 52.875,91 c -0.938627,-0.687113 -1.497649,-1.409251 -1.9375,-2.40625 1.436201,-0.644057 3.013691,-1.12102 4.53125,-1.4375 0.07894,1.020143 0.149743,1.991954 0.25,3.0625 7.747031,6.855875 15.198888,4.046358 23.0625,0 0.454489,-1.053145 0.121233,-2.779703 0.0625,-4.03125 z m -31.5625,8.53125 c 4.315651,3.962244 11.236348,5.70063 18.4375,5.6875 7.585536,-0.0138 15.506149,-1.980283 21.21875,-5.5 2.740089,6.18578 2.988887,13.24932 2.651808,20.06786 -1.609427,1.51676 -3.527967,2.51481 -5.776808,3.55714 l -0.65625,-8.5 c -0.974062,-2.94902 -3.36261,-4.21252 -6.03125,-5.375 -2.774087,1.90492 -4.733008,4.63423 -4.90625,8.03125 0.445289,2.89898 0.470297,5.87751 0.5625,8.8125 -1.473756,0.16474 -2.987277,0.23627 -4.5,0.25 -8.465557,0.0768 -17.588141,-1.68453 -23.59375,-6.53125 0.426287,-7.23832 -0.575704,-12.69404 2.59375,-20.5 z m 4.15625,5.875 c -0.911351,0.36953 -2.100876,1.03754 -2.53125,2.375 l -0.28125,3.96875 4.3125,1.8125 0.40625,-4 c -0.334164,-1.74803 -0.409481,-3.03875 -1.90625,-4.15625 z m -0.03125,0.5 c 0.761555,0.99927 1.665547,2.70255 1.53125,3.5625 l -0.125,3.46875 -3.875,-1.375 0.1875,-3.625 c 0.276177,-0.81556 1.656332,-1.74187 2.28125,-2.03125 z m 25.786612,4.22855 c 2.346716,1.04368 4.857324,2.5957 5.411611,4.8027 l 0.359835,8.86964 c -1.469069,1.01694 -6.628032,2.10377 -9.40717,2.5625 -0.0228,-3.05213 -0.330214,-6.17704 -0.786611,-9.16606 0.200022,-2.86668 2.474672,-5.23538 4.422335,-7.06878 z"
             id="path2308"
             sodipodi:nodetypes="ccccccccccccccccccccccccccccccccccccccccccccsccccccccccscccccccccccccccccccccccccccccsccccccccccccccccccccccccccccccccscccccccccccccccccccccccccccccccccccccccccccccccccccsccccccsccccccccccccccccscccccccscccccccccccccccccccc" />
        </g>
      </g>
    </g>
  </g>
</svg>
