<?xml version="1.0" encoding="UTF-8" standalone="no"?>
<!-- Created with Inkscape (http://www.inkscape.org/) -->

<svg
   xmlns:dc="http://purl.org/dc/elements/1.1/"
   xmlns:cc="http://creativecommons.org/ns#"
   xmlns:rdf="http://www.w3.org/1999/02/22-rdf-syntax-ns#"
   xmlns:svg="http://www.w3.org/2000/svg"
   xmlns="http://www.w3.org/2000/svg"
   xmlns:xlink="http://www.w3.org/1999/xlink"
   xmlns:sodipodi="http://sodipodi.sourceforge.net/DTD/sodipodi-0.dtd"
   xmlns:inkscape="http://www.inkscape.org/namespaces/inkscape"
   width="108.0625"
   height="97.78125"
   id="svg2"
   sodipodi:version="0.32"
   inkscape:version="0.48.1 r9760"
   version="1.0"
   sodipodi:docname="nicubunu_RPG_map_symbols_Shipwreck_modified.svg"
   inkscape:output_extension="org.inkscape.output.svg.inkscape">
  <defs
     id="defs4">
    <linearGradient
       id="linearGradient3049">
      <stop
         style="stop-color:#cfc7a9;stop-opacity:1;"
         offset="0"
         id="stop3051" />
      <stop
         style="stop-color:#eeebe0;stop-opacity:1;"
         offset="1"
         id="stop3053" />
    </linearGradient>
    <linearGradient
       id="linearGradient2320">
      <stop
         id="stop2322"
         offset="0"
         style="stop-color:#6a3c1d;stop-opacity:1;" />
      <stop
         id="stop2324"
         offset="1"
         style="stop-color:#8f5127;stop-opacity:1;" />
    </linearGradient>
    <linearGradient
       id="linearGradient3332">
      <stop
         id="stop3334"
         offset="0"
         style="stop-color:#bb8f56;stop-opacity:1;" />
      <stop
         id="stop3336"
         offset="1"
         style="stop-color:#d1af63;stop-opacity:1;" />
    </linearGradient>
    <linearGradient
       inkscape:collect="always"
       xlink:href="#linearGradient2320"
       id="linearGradient2433"
       x1="15.481081"
       y1="108.41081"
       x2="17.297297"
       y2="111.78378"
       gradientUnits="userSpaceOnUse" />
    <linearGradient
       inkscape:collect="always"
       xlink:href="#linearGradient2320"
       id="linearGradient2437"
       x1="49.658009"
       y1="98.55378"
       x2="57.852802"
       y2="103.75197"
       gradientUnits="userSpaceOnUse" />
    <linearGradient
       inkscape:collect="always"
       xlink:href="#linearGradient2320"
       id="linearGradient2441"
       x1="87.084976"
       y1="84.916183"
       x2="89.653496"
       y2="86.995453"
       gradientUnits="userSpaceOnUse" />
    <linearGradient
       inkscape:collect="always"
       xlink:href="#linearGradient2320"
       id="linearGradient2445"
       gradientUnits="userSpaceOnUse"
       x1="71.735023"
       y1="93.294441"
       x2="71.857338"
       y2="96.841438" />
    <linearGradient
       inkscape:collect="always"
       xlink:href="#linearGradient2320"
       id="linearGradient2449"
       x1="108.4893"
       y1="60.515255"
       x2="110.69087"
       y2="61.616051"
       gradientUnits="userSpaceOnUse" />
    <linearGradient
       inkscape:collect="always"
       xlink:href="#linearGradient2320"
       id="linearGradient2453"
       x1="56.302704"
       y1="89.946922"
       x2="90.624512"
       y2="55.525299"
       gradientUnits="userSpaceOnUse" />
    <linearGradient
       inkscape:collect="always"
       xlink:href="#linearGradient2320"
       id="linearGradient2457"
       x1="102.00015"
       y1="89.44059"
       x2="110.39704"
       y2="98.986526"
       gradientUnits="userSpaceOnUse" />
    <linearGradient
       inkscape:collect="always"
       xlink:href="#linearGradient2320"
       id="linearGradient2461"
       x1="112.51836"
       y1="94.022591"
       x2="113.40225"
       y2="94.022591"
       gradientUnits="userSpaceOnUse" />
    <linearGradient
       inkscape:collect="always"
       xlink:href="#linearGradient2320"
       id="linearGradient2465"
       x1="103.76793"
       y1="89.175415"
       x2="104.6076"
       y2="88.070564"
       gradientUnits="userSpaceOnUse" />
    <linearGradient
       inkscape:collect="always"
       xlink:href="#linearGradient2320"
       id="linearGradient2469"
       x1="95.238441"
       y1="61.399384"
       x2="91.747101"
       y2="70.856934"
       gradientUnits="userSpaceOnUse" />
    <linearGradient
       inkscape:collect="always"
       xlink:href="#linearGradient2320"
       id="linearGradient3052"
       x1="87.504463"
       y1="58.394176"
       x2="87.416077"
       y2="58.924507"
       gradientUnits="userSpaceOnUse" />
    <linearGradient
       inkscape:collect="always"
       xlink:href="#linearGradient2320"
       id="linearGradient3056"
       x1="91.791298"
       y1="56.096081"
       x2="92.586792"
       y2="56.449635"
       gradientUnits="userSpaceOnUse" />
    <linearGradient
       inkscape:collect="always"
       xlink:href="#linearGradient2320"
       id="linearGradient3060"
       x1="99.43689"
       y1="58.52676"
       x2="99.348495"
       y2="59.366447"
       gradientUnits="userSpaceOnUse" />
    <linearGradient
       inkscape:collect="always"
       xlink:href="#linearGradient2320"
       id="linearGradient3064"
       x1="101.42563"
       y1="65.111694"
       x2="100.80692"
       y2="65.244278"
       gradientUnits="userSpaceOnUse" />
    <linearGradient
       inkscape:collect="always"
       xlink:href="#linearGradient2320"
       id="linearGradient3068"
       x1="101.07207"
       y1="70.834839"
       x2="101.07207"
       y2="71.718719"
       gradientUnits="userSpaceOnUse" />
    <linearGradient
       inkscape:collect="always"
       xlink:href="#linearGradient2320"
       id="linearGradient3072"
       x1="85.250565"
       y1="66.768974"
       x2="85.957672"
       y2="67.564468"
       gradientUnits="userSpaceOnUse" />
    <linearGradient
       inkscape:collect="always"
       xlink:href="#linearGradient2320"
       id="linearGradient3088"
       x1="92.675179"
       y1="64.426682"
       x2="93.205505"
       y2="63.36602"
       gradientUnits="userSpaceOnUse" />
    <linearGradient
       inkscape:collect="always"
       xlink:href="#linearGradient2320"
       id="linearGradient3092"
       x1="96.741051"
       y1="62.614719"
       x2="98.332039"
       y2="62.614719"
       gradientUnits="userSpaceOnUse" />
    <linearGradient
       inkscape:collect="always"
       xlink:href="#linearGradient2320"
       id="linearGradient3096"
       x1="86.929939"
       y1="70.017242"
       x2="93.559067"
       y2="70.017242"
       gradientUnits="userSpaceOnUse" />
    <linearGradient
       inkscape:collect="always"
       xlink:href="#linearGradient2320"
       id="linearGradient3100"
       x1="83.875"
       y1="53.125"
       x2="88"
       y2="47.25"
       gradientUnits="userSpaceOnUse" />
    <linearGradient
       inkscape:collect="always"
       xlink:href="#linearGradient2320"
       id="linearGradient3104"
       x1="24.75"
       y1="61.3125"
       x2="26.590591"
       y2="61.3125"
       gradientUnits="userSpaceOnUse" />
    <linearGradient
       inkscape:collect="always"
       xlink:href="#linearGradient2320"
       id="linearGradient3108"
       x1="31.78125"
       y1="69.15625"
       x2="30.75"
       y2="71.9375"
       gradientUnits="userSpaceOnUse" />
    <linearGradient
       inkscape:collect="always"
       xlink:href="#linearGradient2320"
       id="linearGradient3112"
       x1="38.21875"
       y1="39.515625"
       x2="40.53125"
       y2="39.703125"
       gradientUnits="userSpaceOnUse" />
    <linearGradient
       inkscape:collect="always"
       xlink:href="#linearGradient2320"
       id="linearGradient3116"
       x1="49.762638"
       y1="53.135071"
       x2="48.657787"
       y2="55.388973"
       gradientUnits="userSpaceOnUse" />
    <linearGradient
       inkscape:collect="always"
       xlink:href="#linearGradient2320"
       id="linearGradient3120"
       x1="57.452427"
       y1="41.953941"
       x2="58.159531"
       y2="45.312702"
       gradientUnits="userSpaceOnUse" />
    <linearGradient
       inkscape:collect="always"
       xlink:href="#linearGradient2320"
       id="linearGradient3124"
       x1="79.726288"
       y1="34.706097"
       x2="79.151764"
       y2="36.694836"
       gradientUnits="userSpaceOnUse" />
    <linearGradient
       inkscape:collect="always"
       xlink:href="#linearGradient3332"
       id="linearGradient2428"
       x1="33.985569"
       y1="79.901451"
       x2="35.935135"
       y2="81.804153"
       gradientUnits="userSpaceOnUse" />
    <linearGradient
       inkscape:collect="always"
       xlink:href="#linearGradient2320"
       id="linearGradient3029"
       x1="54.659462"
       y1="26.313513"
       x2="52.670269"
       y2="27.135136"
       gradientUnits="userSpaceOnUse" />
    <linearGradient
       inkscape:collect="always"
       xlink:href="#linearGradient3332"
       id="linearGradient3033"
       x1="89.859459"
       y1="34.724323"
       x2="91.589188"
       y2="35.978378"
       gradientUnits="userSpaceOnUse" />
    <linearGradient
       inkscape:collect="always"
       xlink:href="#linearGradient3332"
       id="linearGradient3037"
       x1="97.967567"
       y1="28.086487"
       x2="99.545944"
       y2="29.210812"
       gradientUnits="userSpaceOnUse" />
    <linearGradient
       inkscape:collect="always"
       xlink:href="#linearGradient3049"
       id="linearGradient3055"
       x1="38.833542"
       y1="24.219658"
       x2="46.32505"
       y2="30.090555"
       gradientUnits="userSpaceOnUse" />
    <linearGradient
       inkscape:collect="always"
       xlink:href="#linearGradient3049"
       id="linearGradient3059"
       x1="37.578381"
       y1="42.81081"
       x2="45.405407"
       y2="46.054054"
       gradientUnits="userSpaceOnUse" />
    <linearGradient
       inkscape:collect="always"
       xlink:href="#linearGradient3049"
       id="linearGradient3063"
       x1="24"
       y1="53.924324"
       x2="31.43784"
       y2="55.956757"
       gradientUnits="userSpaceOnUse" />
    <linearGradient
       inkscape:collect="always"
       xlink:href="#linearGradient3049"
       id="linearGradient3067"
       x1="24"
       y1="62.032433"
       x2="30.962162"
       y2="64.88649"
       gradientUnits="userSpaceOnUse" />
    <filter
       inkscape:collect="always"
       id="filter3149"
       x="-0.11840964"
       width="1.2368193"
       y="-0.28905883"
       height="1.5781176"
       color-interpolation-filters="sRGB">
      <feGaussianBlur
         inkscape:collect="always"
         stdDeviation="0.7083243"
         id="feGaussianBlur3151" />
    </filter>
    <filter
       inkscape:collect="always"
       id="filter3189"
       color-interpolation-filters="sRGB">
      <feGaussianBlur
         inkscape:collect="always"
         stdDeviation="1.1213434"
         id="feGaussianBlur3191" />
    </filter>
  </defs>
  <sodipodi:namedview
     id="base"
     pagecolor="#ffffff"
     bordercolor="#666666"
     borderopacity="1.0"
     gridtolerance="10000"
     guidetolerance="10"
     objecttolerance="10"
     inkscape:pageopacity="0.0"
     inkscape:pageshadow="2"
     inkscape:zoom="1"
     inkscape:cx="230.5625"
     inkscape:cy="50.71875"
     inkscape:document-units="px"
     inkscape:current-layer="layer2"
     showgrid="false"
     width="744.09px"
     inkscape:window-width="1248"
     inkscape:window-height="975"
     inkscape:window-x="377"
     inkscape:window-y="24"
     showguides="true"
     inkscape:guide-bbox="true"
     inkscape:window-maximized="0"
     fit-margin-top="0"
     fit-margin-left="0"
     fit-margin-right="0"
     fit-margin-bottom="0" />
  <metadata
     id="metadata7">
    <rdf:RDF>
      <cc:Work
         rdf:about="">
        <dc:format>image/svg+xml</dc:format>
        <dc:type
           rdf:resource="http://purl.org/dc/dcmitype/StillImage" />
        <dc:title></dc:title>
      </cc:Work>
    </rdf:RDF>
  </metadata>
  <g
     inkscape:groupmode="layer"
     id="layer2"
     inkscape:label="colors"
     transform="translate(-8.4375,-16.9375)">
    <path
       style="fill:#000000;fill-opacity:0.66666667;fill-rule:evenodd;stroke:none;filter:url(#filter3149)"
       d="m 101.70811,95.654054 -6.054056,-3.978378 4.843246,-1.902703 9.51351,5.708108 -8.3027,0.172973 z"
       id="path3091"
       inkscape:connector-curvature="0" />
    <path
       style="fill:#000000;fill-opacity:0.70588235;fill-rule:evenodd;stroke:none;filter:url(#filter3189)"
       d="m 37.18919,101.53513 c 0,0 -21.448649,-5.189185 -22.832433,-6.918914 C 13.492311,93.535659 26.179288,84.735068 35.85283,78.32491 l -8.136026,-5.570884 -1.104694,1.061233 -2.069585,-2.372116 0.229005,-2.24306 2.549713,0.612707 5.403722,-6.503331 1.54763,1.299763 -4.629356,6.615514 9.712955,4.778675 c 4.072241,-2.698464 7.000562,-4.565573 7.000562,-4.565573 l 9.167568,2.94054 10.268854,-6.867705 -23.284313,-12.159254 -2.269321,3.32573 -0.200817,-3.808644 0.155288,-3.779116 2.22226,0.556065 5.03686,-6.961196 2.140822,1.075674 -4.435468,6.971137 24.023766,12.513024 13.498826,-9.027877 c 0,0 -1.902703,-2.594594 -2.075676,-3.286486 -0.04379,-0.175153 5.462795,-7.129389 6.99479,-7.988738 l -18.01881,-10.218748 3.30884,-1.1009 16.411762,7.244023 c 3.435003,-1.533922 4.843049,-3.754698 6.611527,-4.454556 L 89.427027,76.108108 37.18919,101.53513 z"
       id="path3069"
       sodipodi:nodetypes="cscccccccccccccccccccccccsccccccc"
       inkscape:connector-curvature="0" />
    <path
       style="fill:url(#linearGradient2433);fill-rule:evenodd;stroke:none"
       d="m 9.1064124,111.63921 6.1152096,-3.61759 6.832432,-3.97838 3.372973,-1.81621 -2.27398,4.14085 3.484791,-1.71923 -0.691892,1.98919 1.816216,0.17297 -1.72973,1.81622 0.25946,1.03783 -3.45946,0.43244 -2.421621,0.77838 -3.2,1.55675 -4.324325,2.16216 0.345946,-1.55675 -1.556756,0.0865 -1.037838,0 0.864865,-1.47027 -2.3962906,-0.0148 z"
       id="path2431"
       sodipodi:nodetypes="ccccccccccccccccccc"
       inkscape:connector-curvature="0" />
    <path
       style="fill:url(#linearGradient2437);fill-rule:evenodd;stroke:none"
       d="m 27.703297,96.443927 9.356743,0.489241 8.62288,0.550397 10.274071,0.366931 9.723674,-0.122311 5.932052,-0.06115 -4.95357,1.100793 c 0,0 -8.867501,2.568522 -9.662518,2.751992 -0.795018,0.18346 -9.784829,1.34541 -9.784829,1.34541 0,0 -3.057759,-0.0611 -4.097397,-0.24462 -1.039638,-0.18347 -5.503967,-1.34541 -5.870898,-1.52888 -0.366931,-0.18347 -5.809742,-2.323902 -5.809742,-2.323902 l -3.730466,-2.323896 z"
       id="path2435"
       inkscape:connector-curvature="0" />
    <path
       style="fill:url(#linearGradient2441);fill-rule:evenodd;stroke:none"
       d="m 80.113288,96.13815 5.137034,-3.42469 c 0,0 6.665915,-5.809742 6.665915,-6.054362 0,-0.244621 7.889019,-7.766708 7.889019,-7.766708 l -0.366931,-2.935449 1.161945,-1.223104 -0.795014,-0.917327 -0.366931,-2.201587 -8.500571,9.295588 -10.946777,11.069087 0.122311,4.158552 z"
       id="path2439"
       sodipodi:nodetypes="ccscccccccc"
       inkscape:connector-curvature="0" />
    <path
       id="path2443"
       d="m 27.03059,89.227615 c -0.672707,0.366931 -8.37826,3.730466 -8.37826,3.730466 l 3.852777,-0.305776 -1.161949,1.65119 2.140432,-0.06115 -3.363535,2.446207 5.626276,-0.12231 12.169881,0.183465 12.659123,0.978483 14.188002,0 7.889018,-0.366931 7.827864,-1.161949 -1e-6,-4.708948 -14.065691,2.262742 -8.37826,0.183465 -9.112122,-0.489241 c 0,0 -11.741795,-1.590035 -12.353347,-1.773501 -0.611551,-0.183465 -9.601363,-2.262741 -9.540208,-2.446207 z"
       style="fill:url(#linearGradient2445);fill-rule:evenodd;stroke:none"
       sodipodi:nodetypes="ccccccccccccccccsc"
       inkscape:connector-curvature="0" />
    <path
       style="fill:url(#linearGradient2449);fill-rule:evenodd;stroke:none"
       d="m 102.31262,68.373698 4.46433,-5.626276 6.17667,-8.684036 2.81314,-5.320501 0.36693,1.284259 0.0611,1.406569 -2.4462,5.381656 -3.48585,7.155156 -1.52888,2.996604 -2.44621,0.06115 -0.97848,1.467725 -2.9966,-0.122311 z"
       id="path2447"
       inkscape:connector-curvature="0" />
    <path
       style="fill:url(#linearGradient2453);fill-rule:evenodd;stroke:none"
       d="m 27.589189,89.340541 7.005406,1.902702 10.551351,1.902703 9.081081,0.778378 7.111866,0.01835 5.539886,-0.233618 9.661762,-1.168518 3.718919,-0.605406 10.251721,-10.688501 4.191522,-4.273661 3.695983,-4.012636 1.454207,-1.583482 -0.444695,-0.369182 -2.259355,0.890297 -2.419467,-2.056547 -3.485846,6.237828 -2.140431,-5.442811 -6.72707,-0.305776 4.770104,-5.687432 -3.832232,-7.396193 7.195767,1.831072 2.874294,-7.583243 1.89581,6.298984 11.313708,1.834656 -5.38166,2.079276 0.67271,7.155156 2.93545,-3.608156 5.25935,-6.604759 5.62627,-9.417898 -1.2231,-6.543605 -2.81314,-6.176673 -4.70895,-4.647794 -4.46433,-2.629673 -3.180066,1.223104 -2.690828,1.65119 -3.852776,2.874294 -4.770104,6.421294 -0.244621,0.795017 4.831259,5.381656 -5.626276,3.791621 -7.705553,6.054363 -14.799554,13.209519 -4.036242,3.363535 -7.032846,-3.180069 -5.932052,2.018121 -6.176674,3.608155 -3.057759,2.018121 c 0,0 -4.219707,3.791622 -4.586638,4.219708 -0.366931,0.428086 -5.932053,6.788225 -6.046161,6.65653 z"
       id="path2451"
       sodipodi:nodetypes="cccccccccccccccccccccccccccccccccccccccccccccccsc"
       inkscape:connector-curvature="0" />
    <path
       style="fill:url(#linearGradient2457);fill-rule:evenodd;stroke:none"
       d="m 101.38143,86.81103 0.44195,8.57367 1.72357,1.104854 8.57367,4.065866 0.13258,-12.551147 -3.09359,2.077126 -2.91682,-2.121321 -1.98873,2.386486 -2.87263,-3.535534 z"
       id="path2455"
       inkscape:connector-curvature="0" />
    <path
       style="fill:url(#linearGradient2461);fill-rule:evenodd;stroke:none"
       d="m 112.03223,100.29025 0.39775,-12.683725 c 0,0 1.45841,-0.707107 1.45841,-0.53033 0,0.176777 -0.53033,13.921165 -0.53033,13.921165 l -1.32583,-0.70711 z"
       id="path2459"
       inkscape:connector-curvature="0" />
    <path
       style="fill:url(#linearGradient2465);fill-rule:evenodd;stroke:none"
       d="m 101.29305,86.2807 1.01646,-0.441942 2.51907,3.314563 1.32583,-1.502602 1.5026,-0.618718 2.16551,2.386485 -0.7513,0.662913 -2.69584,-2.165515 -1.94455,2.386486 -3.0052,-3.314563 -0.13258,-0.707107 z"
       id="path2463"
       inkscape:connector-curvature="0" />
    <path
       style="fill:url(#linearGradient2469);fill-rule:evenodd;stroke:none"
       d="m 83.836348,58.349982 7.424621,2.342291 2.563262,-7.292039 1.502602,5.435884 9.192387,1.635184 -3.57973,1.546796 -0.57452,1.502602 1.19324,5.480078 1.37002,2.032932 -3.137785,-0.441942 -2.651651,1.370019 -2.563262,-2.165514 -3.226174,6.319767 -2.121321,-5.568466 -7.071068,-0.220971 5.038136,-5.701048 -3.358757,-6.275573 z"
       id="path2467"
       inkscape:connector-curvature="0" />
    <path
       id="path2471"
       d="m 83.836348,58.349982 7.424621,2.342291 2.563262,-7.292039 1.502602,5.435884 9.192387,1.635184 -3.57973,1.546796 -0.57452,1.502602 1.19324,5.480078 1.37002,2.032932 -3.137785,-0.441942 -2.651651,1.370019 -2.563262,-2.165514 -3.226174,6.319767 -2.121321,-5.568466 -7.071068,-0.220971 5.038136,-5.701048 -3.358757,-6.275573 z"
       style="fill:#000000;fill-opacity:0.15686275;fill-rule:evenodd;stroke:none"
       inkscape:connector-curvature="0" />
    <path
       style="fill:url(#linearGradient3052);fill-rule:evenodd;stroke:none"
       d="m 83.880542,58.305788 7.20365,2.342291 -0.309359,-1.635185 -7.557203,-1.811961 0.662912,1.104855 z"
       id="path3050"
       inkscape:connector-curvature="0" />
    <path
       style="fill:url(#linearGradient3056);fill-rule:evenodd;stroke:none"
       d="m 90.642251,59.233865 2.740039,-7.73398 0.53033,1.767767 -2.651651,7.424621 -0.53033,-0.353553 -0.08839,-1.104855 z"
       id="path3054"
       sodipodi:nodetypes="cccccc"
       inkscape:connector-curvature="0" />
    <path
       style="fill:url(#linearGradient3060);fill-rule:evenodd;stroke:none"
       d="m 95.371027,57.731263 10.960153,2.077127 -2.12132,0.751301 -9.015609,-1.635185 -0.220971,-1.06066 0.397747,-0.132583 z"
       id="path3058"
       inkscape:connector-curvature="0" />
    <path
       style="fill:url(#linearGradient3064);fill-rule:evenodd;stroke:none"
       d="m 101.11627,62.018098 -0.83969,1.458408 1.23744,5.61266 0.44194,-0.353553 -0.83969,-6.717515 z"
       id="path3062"
       inkscape:connector-curvature="0" />
    <path
       style="fill:url(#linearGradient3068);fill-rule:evenodd;stroke:none"
       d="m 99.348503,70.989516 0.707107,-0.397748 2.74004,0.53033 -0.13258,1.281631 -3.314567,-1.414213 z"
       id="path3066"
       inkscape:connector-curvature="0" />
    <path
       style="fill:url(#linearGradient3072);fill-rule:evenodd;stroke:none"
       d="m 82.466329,70.194021 4.596194,-5.39169 0.397747,1.856156 -4.640388,3.668116 -0.353553,-0.132582 z"
       id="path3070"
       inkscape:connector-curvature="0" />
    <path
       id="path3074"
       d="m 83.880542,58.305788 7.20365,2.342291 -0.309359,-1.635185 -7.557203,-1.811961 0.662912,1.104855 z"
       style="fill:#000000;fill-opacity:0.15686275;fill-rule:evenodd;stroke:none"
       inkscape:connector-curvature="0" />
    <path
       sodipodi:nodetypes="cccccc"
       id="path3076"
       d="m 90.642251,59.233865 2.740039,-7.73398 0.53033,1.767767 -2.651651,7.424621 -0.53033,-0.353553 -0.08839,-1.104855 z"
       style="fill:#000000;fill-opacity:0.15686275;fill-rule:evenodd;stroke:none"
       inkscape:connector-curvature="0" />
    <path
       id="path3078"
       d="m 95.371027,57.731263 10.960153,2.077127 -2.12132,0.751301 -9.015609,-1.635185 -0.220971,-1.06066 0.397747,-0.132583 z"
       style="fill:#000000;fill-opacity:0.15686275;fill-rule:evenodd;stroke:none"
       inkscape:connector-curvature="0" />
    <path
       id="path3080"
       d="m 101.11627,62.018098 -0.83969,1.458408 1.23744,5.61266 0.44194,-0.353553 -0.83969,-6.717515 z"
       style="fill:#000000;fill-opacity:0.15686275;fill-rule:evenodd;stroke:none"
       inkscape:connector-curvature="0" />
    <path
       id="path3082"
       d="m 99.348503,70.989516 0.707107,-0.397748 2.74004,0.53033 -0.13258,1.281631 -3.314567,-1.414213 z"
       style="fill:#000000;fill-opacity:0.15686275;fill-rule:evenodd;stroke:none"
       inkscape:connector-curvature="0" />
    <path
       id="path3084"
       d="m 82.466329,70.194021 4.596194,-5.39169 0.397747,1.856156 -4.640388,3.668116 -0.353553,-0.132582 z"
       style="fill:#000000;fill-opacity:0.15686275;fill-rule:evenodd;stroke:none"
       inkscape:connector-curvature="0" />
    <path
       style="fill:url(#linearGradient3088);fill-rule:evenodd;stroke:none"
       d="m 84.101513,58.349982 5.877825,1.856155 2.032932,2.165515 2.563262,1.59099 0.883884,0.441942 0.486136,1.016466 0.486136,0.618718 1.016466,0.04419 0.883883,-0.662912 2.430683,0.265165 0.48613,2.077126 -1.370017,0.176777 -1.546796,-0.0442 -4.065864,-1.104854 -3.623922,-2.253903 -4.905554,-2.784233 -1.635184,-3.402951 z"
       id="path3086"
       inkscape:connector-curvature="0" />
    <path
       style="fill:url(#linearGradient3092);fill-rule:evenodd;stroke:none"
       d="m 96.03394,59.101283 -0.397748,5.701048 0.30936,0.707107 0.574524,0.618718 1.237437,-0.22097 0.486136,-0.574525 0.132582,-2.077126 0.441942,-3.800699 -2.784233,-0.353553 z"
       id="path3090"
       inkscape:connector-curvature="0" />
    <path
       style="fill:url(#linearGradient3096);fill-rule:evenodd;stroke:none"
       d="m 86.92994,70.326603 5.524272,-3.314563 -0.397748,1.281631 1.016466,0.353553 -0.707106,0.486136 1.193242,0.441942 -3.49134,3.447146 -0.928077,-2.386486 -2.209709,-0.309359 z"
       id="path3094"
       inkscape:connector-curvature="0" />
    <path
       style="fill:url(#linearGradient3100);fill-rule:evenodd;stroke:none"
       d="m 87.5,42.4375 -4.875,12.1875 4,-2.75 6.0625,-4.1875 -4.75,-5.4375 -0.4375,0.1875 z"
       id="path3098"
       inkscape:connector-curvature="0" />
    <path
       style="fill:url(#linearGradient3104);fill-rule:evenodd;stroke:none"
       d="m 24.0625,72.625 0.375,-14.03125 0.03125,-3.6875 0,-0.65625 0.15625,-4.25 0.15625,-0.375 0.53125,0.3125 0.3125,0.03125 0.1875,-1.84375 0.25,0.1875 0.5,1.09375 c 0,0 0.8125,-0.625 0.625,-0.40625 C 27,49.21875 27.125,56.15625 27.125,56.15625 l -1.03125,0.3125 0.34375,0.5625 -1.59375,0.3125 2.34375,0.96875 -0.03125,8.21875 -0.3125,7.96875 -0.5,-1.0625 -0.8125,0 -0.5,-0.78125 -0.8125,0.21875 -0.15625,-0.25 z"
       id="path3102"
       inkscape:connector-curvature="0" />
    <path
       style="fill:url(#linearGradient3108);fill-rule:evenodd;stroke:none"
       d="m 39.96875,72.46875 -18.03125,-8.3125 -1.09375,0.40625 0.5625,1.40625 -4.3125,-0.15625 -0.71875,0.319764 18.90625,9.461486 4.03125,2.1875 4.28125,-2.96875 -3.625,-2.34375 z"
       id="path3106"
       sodipodi:nodetypes="cccccccccc"
       inkscape:connector-curvature="0" />
    <path
       style="fill:url(#linearGradient3112);fill-rule:evenodd;stroke:none"
       d="m 37.21875,56.96875 0.875,-10.28125 0.0625,-8.59375 0.09375,-18.4375 -0.0625,-2 0.5625,1.59375 0.59375,-0.59375 0.3125,0.90625 0.625,-1.25 1.15625,3.84375 -0.21875,6.53125 -0.125,6.1875 -1.0625,0.375 0.6875,0.6875 L 40.5,36.625 41.0625,37.3125 40.84375,46.625 40.6875,55.4375 40.53125,61.75 39.9375,58.8125 38.15625,58.375 38.09375,56.96875 37.25,57.125 37.21875,56.96875 z"
       id="path3110"
       inkscape:connector-curvature="0" />
    <path
       style="fill:url(#linearGradient3116);fill-rule:evenodd;stroke:none"
       d="m 73.406523,62.592623 -18.208,-8.087534 -0.795495,0.928077 -0.353553,1.104855 -0.486136,-1.90035 -0.707107,0.574525 -0.397748,-1.811962 -24.881319,-10.960155 0.04419,1.590991 -1.104855,0.309359 0.486136,1.414213 -2.430679,-0.707106 1.016466,1.06066 43.575455,20.373514 4.242641,-3.889087 z"
       id="path3114"
       inkscape:connector-curvature="0" />
    <path
       style="fill:url(#linearGradient3120);fill-rule:evenodd;stroke:none"
       d="m 48.967145,42.882021 22.627417,-2.784233 -3.226175,2.253903 2.209709,0.441942 -3.668117,0.751301 1.325826,0.928077 -18.208,2.872622 2.65165,-1.811962 -1.944543,-0.353553 1.59099,-1.016466 -3.358757,-1.281631 z"
       id="path3118"
       inkscape:connector-curvature="0" />
    <path
       style="fill:url(#linearGradient3124);fill-rule:evenodd;stroke:none"
       d="m 89.581591,38.816157 -11.53468,-5.435883 -1.104854,3.226174 -0.08839,-2.695844 -0.618718,0.441941 0.08839,-1.767767 -3.800699,-1.679378 -1.900349,0.04419 0.928078,1.149049 -1.767767,-0.397748 0.220971,1.016466 -1.37002,-0.176777 -1.414213,0.486136 20.240931,9.457553 2.121321,-3.668116 z"
       id="path3122"
       inkscape:connector-curvature="0" />
    <path
       style="fill:url(#linearGradient2428);fill-rule:evenodd;stroke:none"
       d="m 22.443951,91.368047 -0.428086,-1.834656 -1.223103,-0.489241 5.993207,-5.381656 8.133639,-7.460932 5.993208,-4.403173 5.687432,-3.363535 0.57813,1.230011 -2.94054,2.854054 1.47027,1.167567 -2.248648,1.297298 -2.421622,-1.210811 -3.545946,2.724324 1.989189,0.994595 -1.989189,1.643243 -1.902703,-1.124324 -2.724324,2.508108 1.816216,1.124324 -2.162162,1.989189 -1.72973,-0.908108 -2.767567,2.291892 1.945946,1.340541 L 28.627027,88 l -2.118919,-1.210811 -3.156757,2.248649 1.470271,1.383784 -2.377671,0.946425 z"
       id="path2426"
       inkscape:connector-curvature="0" />
    <path
       id="path2430"
       d="m 22.443951,91.368047 -0.428086,-1.834656 -1.223103,-0.489241 5.993207,-5.381656 8.133639,-7.460932 5.993208,-4.403173 5.687432,-3.363535 0.57813,1.230011 -2.94054,2.854054 1.47027,1.167567 -2.248648,1.297298 -2.421622,-1.210811 -3.545946,2.724324 1.989189,0.994595 -1.989189,1.643243 -1.902703,-1.124324 -2.724324,2.508108 1.816216,1.124324 -2.162162,1.989189 -1.72973,-0.908108 -2.767567,2.291892 1.945946,1.340541 L 28.627027,88 l -2.118919,-1.210811 -3.156757,2.248649 1.470271,1.383784 -2.377671,0.946425 z"
       style="fill:#000000;fill-opacity:0.15686275;fill-rule:evenodd;stroke:none"
       inkscape:connector-curvature="0" />
    <path
       id="path3015"
       d="m 84.101513,58.349982 5.877825,1.856155 2.032932,2.165515 2.563262,1.59099 0.883884,0.441942 0.486136,1.016466 0.486136,0.618718 1.016466,0.04419 0.883883,-0.662912 2.430683,0.265165 0.48613,2.077126 -1.370017,0.176777 -1.546796,-0.0442 -4.065864,-1.104854 -3.623922,-2.253903 -4.905554,-2.784233 -1.635184,-3.402951 z"
       style="fill:#000000;fill-opacity:0.15686275;fill-rule:evenodd;stroke:none"
       inkscape:connector-curvature="0" />
    <path
       id="path3017"
       d="m 96.03394,59.101283 -0.397748,5.701048 0.30936,0.707107 0.574524,0.618718 1.237437,-0.22097 0.486136,-0.574525 0.132582,-2.077126 0.441942,-3.800699 -2.784233,-0.353553 z"
       style="fill:#000000;fill-opacity:0.15686275;fill-rule:evenodd;stroke:none"
       inkscape:connector-curvature="0" />
    <path
       id="path3019"
       d="m 86.92994,70.326603 5.524272,-3.314563 -0.397748,1.281631 1.016466,0.353553 -0.707106,0.486136 1.193242,0.441942 -3.49134,3.447146 -0.928077,-2.386486 -2.209709,-0.309359 z"
       style="fill:#000000;fill-opacity:0.15686275;fill-rule:evenodd;stroke:none"
       inkscape:connector-curvature="0" />
    <path
       style="fill:#000000;fill-opacity:0.15686275;fill-rule:evenodd;stroke:none"
       d="m 84.101513,58.349982 5.877825,1.856155 2.032932,2.165515 2.563262,1.59099 0.883884,0.441942 0.486136,1.016466 0.486136,0.618718 1.016466,0.04419 0.883883,-0.662912 2.430683,0.265165 0.48613,2.077126 -1.370017,0.176777 -1.546796,-0.0442 -4.065864,-1.104854 -3.623922,-2.253903 -4.905554,-2.784233 -1.635184,-3.402951 z"
       id="path3021"
       inkscape:connector-curvature="0" />
    <path
       style="fill:#000000;fill-opacity:0.15686275;fill-rule:evenodd;stroke:none"
       d="m 96.03394,59.101283 -0.397748,5.701048 0.30936,0.707107 0.574524,0.618718 1.237437,-0.22097 0.486136,-0.574525 0.132582,-2.077126 0.441942,-3.800699 -2.784233,-0.353553 z"
       id="path3023"
       inkscape:connector-curvature="0" />
    <path
       style="fill:#000000;fill-opacity:0.15686275;fill-rule:evenodd;stroke:none"
       d="m 86.92994,70.326603 5.524272,-3.314563 -0.397748,1.281631 1.016466,0.353553 -0.707106,0.486136 1.193242,0.441942 -3.49134,3.447146 -0.928077,-2.386486 -2.209709,-0.309359 z"
       id="path3025"
       inkscape:connector-curvature="0" />
    <path
       style="fill:url(#linearGradient3029);fill-rule:evenodd;stroke:none"
       d="m 50.205405,23.135135 4.843244,13.102703 0.691892,-3.372973 1.081081,1.902702 0.648648,-3.545945 -2.854054,-6.443244 -1.945946,3.805406 -0.129729,-0.172973 0.172973,0 0.389189,-5.05946 -1.513514,-0.605405 -0.562162,-1.902703 -0.518919,-0.994594 -0.302703,3.286486 z"
       id="path3027"
       inkscape:connector-curvature="0" />
    <path
       style="fill:url(#linearGradient3033);fill-rule:evenodd;stroke:none"
       d="m 90.118919,38.14054 c -0.432432,-0.172973 -2.335135,-1.297297 -2.335135,-1.297297 l -2.162162,2.810811 -0.475676,-0.864865 -1.081081,0.216216 0.432432,-1.34054 1.643244,-2.335135 2.335135,-2.335136 4.108108,-3.2 0.562162,0.691892 0.08649,0.518919 -0.518919,0.605406 1.772973,1.816216 -1.124325,0.994595 L 91.2,32.951351 l -1.427027,1.816216 1.72973,1.816217 -1.383784,1.556756 z"
       id="path3031"
       inkscape:connector-curvature="0" />
    <path
       style="fill:url(#linearGradient3037);fill-rule:evenodd;stroke:none"
       d="m 99.848649,29.924324 -1.427027,-0.864865 1.945948,-2.335135 c 0,0 -1.081083,-0.172973 -1.081083,-0.345946 0,-0.172973 -0.216217,-1.081081 -0.216217,-1.081081 l -3.502702,4.627027 1.037838,-0.08649 0.236301,0.900239 0.801536,-0.64078 0.778379,0.691892 1.643238,-0.864865 -0.216211,0 z"
       id="path3035"
       sodipodi:nodetypes="cccscccccccc"
       inkscape:connector-curvature="0" />
    <path
       id="path3039"
       d="m 90.118919,38.14054 c -0.432432,-0.172973 -2.335135,-1.297297 -2.335135,-1.297297 l -2.162162,2.810811 -0.475676,-0.864865 -1.081081,0.216216 0.432432,-1.34054 1.643244,-2.335135 2.335135,-2.335136 4.108108,-3.2 0.562162,0.691892 0.08649,0.518919 -0.518919,0.605406 1.772973,1.816216 -1.124325,0.994595 L 91.2,32.951351 l -1.427027,1.816216 1.72973,1.816217 -1.383784,1.556756 z"
       style="fill:#000000;fill-opacity:0.15686275;fill-rule:evenodd;stroke:none"
       inkscape:connector-curvature="0" />
    <path
       sodipodi:nodetypes="cccscccccccc"
       id="path3041"
       d="m 99.848649,29.924324 -1.427027,-0.864865 1.945948,-2.335135 c 0,0 -1.081083,-0.172973 -1.081083,-0.345946 0,-0.172973 -0.216217,-1.081081 -0.216217,-1.081081 l -3.502702,4.627027 1.037838,-0.08649 0.236301,0.900239 0.801536,-0.64078 0.778379,0.691892 1.643238,-0.864865 -0.216211,0 z"
       style="fill:#000000;fill-opacity:0.15686275;fill-rule:evenodd;stroke:none"
       inkscape:connector-curvature="0" />
    <path
       id="path3043"
       d="m 27.703297,96.443927 9.356743,0.489241 8.62288,0.550397 10.274071,0.366931 9.723674,-0.122311 5.932052,-0.06115 -4.95357,1.100793 c 0,0 -8.867501,2.568522 -9.662518,2.751992 -0.795018,0.18346 -9.784829,1.34541 -9.784829,1.34541 0,0 -3.057759,-0.0611 -4.097397,-0.24462 -1.039638,-0.18347 -5.503967,-1.34541 -5.870898,-1.52888 -0.366931,-0.18347 -5.809742,-2.323902 -5.809742,-2.323902 l -3.730466,-2.323896 z"
       style="fill:#000000;fill-opacity:0.15686275;fill-rule:evenodd;stroke:none"
       inkscape:connector-curvature="0" />
    <path
       id="path3045"
       d="m 101.38143,86.81103 0.44195,8.57367 1.72357,1.104854 8.57367,4.065866 0.13258,-12.551147 -3.09359,2.077126 -2.91682,-2.121321 -1.98873,2.386486 -2.87263,-3.535534 z"
       style="fill:#000000;fill-opacity:0.15686275;fill-rule:evenodd;stroke:none"
       inkscape:connector-curvature="0" />
    <path
       style="fill:url(#linearGradient3055);fill-opacity:1;fill-rule:evenodd;stroke:none"
       d="m 38.283143,19.663597 2.171009,3.638733 1.559457,2.140431 2.018121,2.262742 0.886751,0.672707 2.354474,1.681767 -0.795017,-0.03058 c 0,0 -0.672707,-0.06115 -1.070216,-0.152888 -0.397509,-0.09173 -2.966026,-1.590035 -3.271802,-1.681768 -0.305776,-0.09173 -2.262742,-1.620612 -2.079276,-1.223103 0.183465,0.397508 1.406569,2.935448 1.406569,2.935448 l 1.406569,2.599096 2.018121,2.507362 -0.88675,0.03058 -2.171009,-0.947906 -0.978483,-0.580974 -2.721406,-1.956966 -0.764439,-3.638733 -0.03058,-2.109854 0.12231,-2.690828 0.397509,-2.323897 0.428086,-1.13137 z"
       id="path3047"
       inkscape:connector-curvature="0" />
    <path
       style="fill:url(#linearGradient3059);fill-opacity:1;fill-rule:evenodd;stroke:none"
       d="m 38.010811,38.875676 2.335135,2.075675 2.810811,2.854054 3.891892,2.508108 -0.562162,0.38919 -2.464865,0.04324 -2.983784,-1.167568 -2.897297,-1.210811 -0.605406,-1.21081 -0.172973,-1.686487 0.345946,-1.72973 0.302703,-0.864864 z"
       id="path3057"
       sodipodi:nodetypes="cccccccccccc"
       inkscape:connector-curvature="0" />
    <path
       style="fill:url(#linearGradient3063);fill-rule:evenodd;stroke:none"
       d="M 32.475676,56.605405 29.102703,54.832432 24.475676,51.243243 24.216216,52.194595 24,52.886486 l 0.345946,1.210811 0.778378,0.216216 2.551352,1.254054 2.032432,0.821622 1.124324,0.216216 1.643244,0 z"
       id="path3061"
       inkscape:connector-curvature="0" />
    <path
       style="fill:url(#linearGradient3067);fill-rule:evenodd;stroke:none"
       d="M 24.302703,58.681081 24,60.194595 l 0.04324,1.427027 0.389189,1.556756 5.05946,1.945946 2.162162,0.25946 -1.556757,-0.994595 -1.47027,-1.297297 -1.686486,-1.686487 -2.118919,-2.248648 -0.518919,-0.475676 z"
       id="path3065"
       inkscape:connector-curvature="0" />
  </g>
  <g
     inkscape:label="outline"
     inkscape:groupmode="layer"
     id="layer1"
     transform="translate(-8.4375,-16.9375)">
    <path
       style="fill:#000000;fill-opacity:1;fill-rule:evenodd;stroke:none"
       d="m 38.09375,16.9375 0,2.34375 C 37.087896,23.319818 36.831791,28.525115 38,31.71875 l -0.03125,6.625 c -0.727486,1.963648 -1.094651,4.303789 -0.0625,6.09375 l 0,2.4375 -10.375,-4.5 -0.125,1.6875 -1.34375,-0.71875 0.71875,2.21875 -2.71875,-0.84375 1.3125,1.53125 11.84375,5.5625 -0.125,5.4375 0.9375,-0.0625 0,1.3125 1.8125,0.46875 0.75,3.375 0.28125,-8.8125 27.6875,13.03125 c -2.725812,2.44653 -5.502966,4.867289 -8.4375,7.1875 l -6.71875,-3.125 c -2.260242,0.258583 -4.919959,1.213151 -7.78125,2.75 L 44.46875,72.5 46.75,70.3125 l 0.46875,-0.78125 -0.5,-1.40625 c -2.415182,1.240819 -4.703082,2.641262 -6.90625,4.15625 l -12.53125,-5.75 0,-2.0625 c 1.544211,0.600059 3.1167,1.104325 4.71875,0.96875 -2.126302,-1.028947 -3.486462,-2.357074 -4.71875,-3.75 l 0,-3.4375 -2.21875,-0.875 1.5625,-0.28125 -0.40625,-0.625 1.03125,-0.125 0,-0.8125 c 1.625429,0.830743 3.273306,1.582626 5.4375,1.15625 -1.802837,-1.047895 -3.700688,-2.164378 -5.4375,-3.40625 l 0,-4.46875 c -0.166704,0.06718 -0.417022,0.506266 -0.59375,0.34375 C 26.330467,48.856664 26.057305,47.831332 25.75,48 c -0.220254,0.120889 0.05951,1.285134 -0.15625,1.8125 -0.12231,0.298954 -0.71296,-0.328454 -0.84375,-0.25 l -0.3125,0.53125 c -0.0036,0.350692 0.0027,0.543362 0,0.875 -0.254281,1.10991 -0.7601,2.251263 -0.125,3.25 0.1855,1.246606 0.09472,2.853256 0.09375,4.21875 -0.390082,0.04348 -0.864667,3.664664 -0.0625,4.875 -0.01152,0.618136 -0.01409,1.157329 -0.03125,1.84375 L 21.8125,64 l -1.03125,0.53125 0.40625,1.25 -4.15625,-0.0625 -0.90625,0.46875 7.90625,3.96875 0.03125,2.875 1,-0.3125 0.3125,0.84375 0.78125,0 0.75,1.21875 0.1875,-3.125 8.09375,4.0625 c -5.18523,4.131691 -9.956744,8.814151 -14.75,13.4375 0.219815,0.533438 1.188252,0.317343 1.46875,0.65625 -0.0047,0.455961 0.219597,1.013353 0.28125,1.40625 l -3.53125,1.75 0.03125,0.125 3.25,0.09375 -1.03125,1.34375 2.125,-0.25 -3.8125,2.78125 c 2.78165,-0.13844 5.569585,-0.15606 8.375,-0.125 10.659239,6.05977 17.404659,6.656 23.9375,5.78125 0.90854,-0.12165 1.833891,-0.27734 2.78125,-0.46875 5.490791,-1.10939 11.71367,-3.2559 19.59375,-4.8125 2.226026,-0.23649 4.467407,-0.54013 6.71875,-0.9375 7.170595,-5.114248 13.397105,-11.170917 19.4375,-17.5625 -0.08651,-0.990889 -0.253187,-1.793438 -0.5,-2.8125 0.5997,-0.735362 0.95932,-0.733075 1.21875,-1.375 0.0116,-0.289735 -0.88997,-0.578141 -0.9375,-0.90625 -0.19163,-1.121328 -0.180396,-1.782644 -0.125,-2.1875 l 0.1875,-0.25 2.78125,1.15625 0.1875,-1.40625 0.125,0 -0.875,-1.9375 c 0.26366,-0.161115 0.55949,-0.408585 0.78125,-0.6875 0.68025,-0.110204 1.60593,0.416314 2.28125,0.28125 0.51658,-0.133079 0.70677,-1.161612 1.09375,-1.46875 1.03147,0.06054 1.79904,0.42033 2.5625,-0.125 L 116.5,51.375 l -0.40625,-2.3125 -0.125,-0.75 -0.0312,0 C 114.26707,39.749273 112.9301,34.594939 102.5,28.90625 c -0.83202,0.302614 -1.62707,0.639511 -2.40625,1 l -1.34375,-1.0625 1.625,-2.125 -0.96875,-0.34375 -0.34375,-1.28125 -3.84375,5 1.3125,0.03125 0.3125,0.78125 0.71875,-0.625 0.5625,0.625 c -1.23092,0.689083 -2.384964,1.46227 -3.46875,2.3125 L 92.8125,31.6875 93.375,31.09375 93.3125,30.3125 92.4375,29.53125 92.34375,29.75 c -3.134532,2.431044 -5.455435,3.946775 -7.25,6.78125 l -7.0625,-3.1875 c -0.195255,-0.06926 -0.95058,2.913008 -1.0625,2.84375 L 77,33.75 l -0.59375,0.40625 -0.0625,-1.59375 -3.8125,-1.71875 -2,0.09375 0.84375,1 -1.59375,-0.34375 0.1875,1 -1.34375,-0.15625 -1.78125,0.59375 20.28125,9.6875 -5,12.21875 c -3.104708,2.338781 -5.990414,4.834479 -8.84375,7.375 L 55.09375,54.375 54,55.9375 53.6875,53.78125 52.90625,55 52.59375,53.28125 40.96875,48.21875 41,45.65625 c 2.13785,1.012612 4.274963,1.997378 6.6875,0.8125 -2.608899,-1.279754 -4.647937,-2.962734 -6.59375,-4.875 l 0.0625,-4.40625 -0.5,-0.625 0.1875,-0.75 -0.625,-0.46875 1,-0.53125 L 41.25,33.875 c 1.210428,0.801176 2.454778,1.437485 3.8125,1.28125 -2.002439,-2.224612 -2.861288,-4.084131 -3.75,-5.9375 l 0.03125,-1.28125 c 1.971167,1.176703 3.856723,2.526971 6.4375,2.28125 -3.271527,-1.907804 -5.019941,-3.819949 -6.375,-5.78125 L 41.4375,21.875 40.375,17.75 l -0.6875,1.53125 -0.25,-1.46875 -0.5625,1.25 -0.78125,-2.125 z m 0.1875,0.90625 0.34375,1.75 0.53125,-0.625 0.53125,1.0625 0.5625,-1.6875 1,3.9375 c -0.01383,0.636066 -0.01864,1.259927 -0.03125,1.875 -1.018757,-1.519865 -1.839823,-3.062021 -2.9375,-4.6875 l 0,-1.625 z M 50.375,19.4375 50,23.0625 l 5,13.53125 0.78125,-3.0625 1.125,1.6875 0.71875,-4.15625 -3.03125,-6.53125 -1.875,3.875 L 53.3125,23.25 52,22.8125 50.375,19.4375 z m -12.09375,0.59375 c 2.311177,3.49396 4.09553,7.278343 8.5,9.6875 -1.737893,0.884415 -4.911611,-2.201185 -7.0625,-2.96875 1.199578,2.279028 2.778346,6.454439 4.84375,8.15625 -2.738414,-0.273271 -4.694988,-2.266364 -6.28125,-3.34375 -0.598881,-2.138217 -1.487118,-8.249507 0,-11.53125 z M 50.6875,20.25 l 0.78125,2.78125 1.40625,0.40625 -0.21875,4.78125 -2.21875,-5.0625 0.25,-2.90625 z m 3.71875,4.90625 2.96875,6.25 L 56.71875,34.25 55.59375,31.90625 55,35.5 l -2.1875,-7 1.59375,-3.34375 z M 99,25.5625 l 0.15625,0.90625 1,0.375 -1.9375,2.28125 1.34375,1.03125 c -0.371677,0.181066 -0.734416,0.367916 -1.09375,0.5625 l -0.9375,-0.78125 -0.5625,0.5625 -0.25,-0.75 -0.8125,0.125 L 99,25.5625 z m -58.59375,1.84375 c 0.241717,0.129439 0.481319,0.266811 0.71875,0.40625 -0.0062,0.319091 -0.02592,0.642437 -0.03125,0.96875 -0.221848,-0.457113 -0.432438,-0.906816 -0.6875,-1.375 z m 62.03125,2 c 0.41446,0.219739 0.79925,0.429345 1.1875,0.65625 -7.699568,4.534359 -11.694756,9.129118 -14.1875,13.46875 L 88.09375,42 c 1.82155,-3.053178 3.398542,-5.337119 5.34375,-7.21875 l 0.03125,0 c 0.0052,-0.005 -0.0052,-0.02623 0,-0.03125 2.209777,-2.128255 4.897735,-3.739273 8.96875,-5.34375 z m -9.9375,0.625 0.4375,0.40625 0.03125,0.65625 -0.5625,0.59375 1.875,1.8125 c -0.309107,0.251558 -0.609406,0.516262 -0.90625,0.78125 l -2.28125,-1.5 -1.6875,2.09375 1.71875,1.6875 c -0.391263,0.445142 -0.791597,0.900714 -1.15625,1.375 -0.123702,-0.112704 -0.545891,-0.368527 -2.1875,-1.21875 l -2.375,2.6875 L 85.1875,38.5 84.375,38.75 c 1.816748,-3.969331 4.328736,-5.769214 8.125,-8.71875 z m 11.375,0.1875 c 0.70671,0.421842 1.37776,0.867961 2,1.3125 C 101.19907,35.164522 97.15495,37.433861 90.5,44.75 l -0.96875,-1.09375 c 2.46818,-4.295232 6.636989,-8.929167 14.34375,-13.4375 z m -31.3125,0.8125 3.71875,1.75 -0.125,1.75 0.625,-0.4375 0.15625,2.8125 1.15625,-3.28125 6.8125,3.21875 c -0.380714,0.635677 -0.756494,1.331583 -1.09375,2.125 l 0.34375,0.21875 c 0.02507,-0.05898 0.06839,-0.09822 0.09375,-0.15625 l 0.75,-0.0625 0.46875,0.9375 1.59375,-2.03125 2.21875,1.03125 c -0.708006,1.006989 -1.370572,2.060223 -1.96875,3.1875 L 67.75,32.96875 68.8125,32.6875 70.15625,32.75 69.9375,31.8125 71.8125,32.34375 70.84375,31.125 72.5625,31.03125 z M 106,31.625 c 0.79595,0.575822 1.52111,1.171584 2.1875,1.78125 -6.08297,4.144906 -11.219625,8.630823 -16.03125,13.21875 L 90.5625,44.8125 C 97.080125,37.67048 101.29594,35.27277 106,31.625 z m -67.625,0.3125 c 0.888885,0.513933 1.749031,1.152112 2.625,1.75 -0.0085,0.340131 -0.02387,0.631378 -0.03125,1 -0.0041,0.206372 -1.02712,0.414658 -1.03125,0.625 -0.0036,0.181568 0.628566,0.31528 0.625,0.5 -0.0052,0.26954 -0.213547,0.504533 -0.21875,0.78125 l 0.5625,0.5625 -0.09375,4.15625 c -0.797313,-0.795342 -1.593047,-1.639852 -2.40625,-2.5 L 38.375,31.9375 z m 52.71875,1.25 2,1.34375 c -0.580747,0.533626 -1.154709,1.101351 -1.6875,1.6875 l -1.5625,-1.53125 1.25,-1.5 z M 108.25,33.46875 c 0.62302,0.574368 1.19977,1.149444 1.71875,1.75 C 100.9638,42.475402 92.472155,49.887938 84.0625,57.25 l -1.125,-0.28125 0.46875,0.875 C 69.954169,69.62278 56.690892,81.289102 41.9375,92.15625 c -0.892766,-0.159368 -1.777263,-0.328415 -2.65625,-0.5 L 60.25,74.1875 60.46875,74.28125 C 68.515867,68.012334 74.020489,61.661217 82.5,55.40625 l 0.03125,0 c 0.005,-0.0037 -0.005,-0.02755 0,-0.03125 3.234659,-2.383643 6.187033,-5.279165 10.59375,-7.625 l -0.90625,-1.03125 c 4.796205,-4.572851 10.00224,-9.143401 16.03125,-13.25 z m 1.78125,1.8125 c 0.53089,0.619713 1.00597,1.262669 1.4375,1.90625 -6.06943,4.949225 -11.961568,9.898802 -17.75,14.84375 L 93.40625,50.875 92.625,53 c -1.947326,1.666226 -3.88037,3.305886 -5.8125,4.96875 l -2.625,-0.6875 c 8.384988,-7.372809 16.85922,-14.75996 25.84375,-22 z M 87.75,37 l 1.9375,1.3125 c -0.0538,0.07248 -0.103054,0.145615 -0.15625,0.21875 l -2.21875,-1 L 87.75,37 z m 23.78125,0.3125 c 0.30091,0.455517 0.58747,0.909326 0.84375,1.375 -5.902,5.345823 -11.85794,10.674709 -17.875,15.96875 L 93.78125,52.1875 c 5.80077,-4.960639 11.67491,-9.919309 17.75,-14.875 z m 0.9375,1.5 c 0.35834,0.663132 0.65922,1.351185 0.9375,2.03125 -6.00499,5.501435 -12.07113,10.945138 -18.1875,16.34375 l -0.6875,-2.375 c 6.01971,-5.302712 12.00439,-10.627212 17.9375,-16 z M 38.1875,39.125 c 2.596618,2.398449 5.136461,5.625475 8.5625,7.03125 -2.259232,1.468172 -6.266318,-1.055495 -8.5625,-1.875 -0.905894,-1.774247 -0.916293,-3.53125 0,-5.15625 z M 72,39.96875 48.1875,42.75 l 3.4375,1.71875 -1.15625,0.65625 1.6875,0.53125 -2.96875,1.96875 19.375,-3.03125 -1.25,-1.0625 4,-0.6875 -2.5,-0.53125 L 72,39.96875 z m -1,0.46875 -2.90625,2 1.5625,0.34375 -2.9375,0.78125 1.21875,0.84375 -16.875,2.5625 2.0625,-1.53125 -1.96875,-0.28125 1.6875,-0.9375 L 49.6875,43.0625 71,40.4375 z m 42.46875,0.53125 c 0.2206,0.549012 0.4183,1.098677 0.59375,1.65625 -5.40127,5.160984 -10.86901,10.274539 -16.40625,15.34375 L 95.3125,57.53125 95.25,57.3125 c 6.12511,-5.402807 12.2082,-10.837641 18.21875,-16.34375 z m -25.625,1.8125 4.25,4.96875 C 88.531601,49.561388 86.020187,52.064004 83,54.28125 l 4.84375,-11.5 z m 26.28125,0.0625 c 0.20708,0.680114 0.38056,1.373435 0.53125,2.0625 -4.61121,4.623874 -9.26709,9.176614 -13.96875,13.625 L 97.84375,58 c 5.47571,-4.994769 10.91937,-10.035655 16.28125,-15.15625 z m -86.4375,0.0625 24.78125,10.78125 0.3125,1.6875 0.6875,-0.375 0.5625,1.90625 0.75,-1.90625 0.96875,0.125 17.1875,7.5 C 71.62347,63.798055 70.311874,64.976651 69,66.15625 L 25.84375,45.9375 25,45.15625 27.78125,46.1875 26.625,44.5 l 1.1875,-0.125 -0.125,-1.46875 z m 10.78125,1.6875 c 0.768353,0.253418 1.52593,0.611065 2.28125,0.96875 l -0.0625,2.53125 -2.21875,-0.96875 0,-2.53125 z m 76.25,0.46875 c 0.11754,0.552581 0.19338,1.100238 0.28125,1.65625 -4.11467,4.14532 -8.23948,8.171913 -12.375,12.15625 l -1.78125,-0.3125 c 4.71579,-4.404436 9.35955,-8.897432 13.875,-13.5 z m 0.3125,1.8125 c 0.0845,0.550976 0.12637,1.103934 0.1875,1.65625 -3.28366,3.628961 -6.6037,7.242319 -10,10.8125 l -2.375,-0.4375 c 4.06466,-3.935136 8.1254,-7.93822 12.1875,-12.03125 z m -89.1875,1.5 c 0.178152,-0.144962 0.571848,1.160666 0.75,1.09375 l 0.34375,-0.25 0.03125,3.84375 c -0.802257,-0.586416 -1.562261,-1.206598 -2.25,-1.84375 0.01419,-0.218348 0.01519,-0.400186 0.03125,-0.625 L 24.96875,49.90625 25.75,50.0625 25.84375,48.375 z M 115.25,48.78125 c 0.0143,0.13617 0.0494,0.270085 0.0625,0.40625 -0.59895,1.232969 -1.23681,2.436091 -1.90625,3.625 -1.18087,1.499036 -5.44187,6.844109 -11.53125,13.78125 L 101.53125,63.375 c 0.77671,-0.795278 1.56961,-1.57822 2.34375,-2.375 l 3,-1.34375 -1.46875,-0.28125 c 3.33975,-3.503094 6.61646,-7.029477 9.84375,-10.59375 z m 0.59375,0.71875 0.25,1.96875 c -2.52607,5.429296 -4.62653,10.409272 -7.65625,15.21875 -0.45864,0.346156 -1.64261,0.257698 -2.21875,0.3125 -0.47425,0.205868 -0.78107,1.103349 -1.1875,1.40625 -0.75488,-0.432577 -1.33273,-0.328675 -2.15625,-0.1875 4.46103,-5.206161 8.70125,-10.996262 12.96875,-18.71875 z M 24.5,51.53125 c 2.179663,1.764343 4.608064,3.710352 7.375,4.96875 -1.837646,0.174174 -5.509683,-1.66752 -7.40625,-2.53125 C 23.85101,53.024169 24.4442,52.320725 24.5,51.53125 z m 13.3125,0.5625 2.8125,1.3125 -0.125,7.8125 -0.5625,-2.78125 -1.625,-0.40625 -0.09375,-1.1875 -0.78125,0.125 0.375,-4.875 z m 55.59375,0 0.34375,1.3125 -2.625,6.875 C 91.052595,60.224165 90.981929,59.614571 90.90625,59.25 l 2.5,-7.15625 z M 92.5,53.3125 90.78125,57.9375 C 90.463308,58.213826 90.1302,58.473401 89.8125,58.75 L 87,58.03125 c 1.8276,-1.574767 3.65973,-3.141571 5.5,-4.71875 z m 1.3125,0.40625 0.625,2.4375 -2.03125,1.9375 1.40625,-4.375 z M 112.6875,54 c -2.96887,5.041282 -6.52752,9.759009 -10.59375,14.4375 l -0.1875,-1.5625 C 107.35328,60.675002 110.98066,56.15005 112.6875,54 z m -88.125,0.3125 c 0.834947,0.282215 1.623106,0.659412 2.40625,1.0625 l 0,0.71875 -1.03125,0.3125 L 26.25,57 24.625,57.34375 27,58.3125 l 0,3.03125 c -0.80863,-0.934434 -1.597353,-1.874827 -2.5,-2.78125 -0.01029,-1.389331 0.01693,-2.821989 0.0625,-4.25 z m 69.90625,2.03125 0.40625,1.59375 0.21875,0.9375 -3.4375,3 C 91.17901,61.470601 90.719578,61.03571 90.25,60.59375 L 91.46875,61 l 0.84375,-2.65625 2.15625,-2 z m -10.6875,1.28125 6.875,1.75 c -0.05276,0.382526 -0.05656,0.88313 -0.1875,0.84375 L 84.0625,58.15625 83.78125,57.625 z m -0.34375,0.3125 1.09375,2 C 71.660381,71.025987 58.957793,82.029505 45.3125,92.71875 44.281787,92.56303 43.257109,92.36504 42.25,92.1875 56.953442,81.341091 70.101586,69.668189 83.4375,57.9375 z M 95.375,58.03125 105.78125,59.875 104.5,60.34375 95.59375,58.71875 95.375,58.03125 z M 90.6875,58.1875 90.40625,58.90625 90,58.8125 c 0.23073,-0.206792 0.458001,-0.416954 0.6875,-0.625 z m -6.34375,0.4375 5.09375,1.6875 c 1.29441,1.306549 2.800885,2.402607 4.375,3.28125 l 0.03125,0 c 0.516754,0.287545 1.037629,0.575233 1.5625,0.8125 0.169035,1.812202 0.992905,2.17105 2.65625,1.4375 l 0.1875,-0.375 c 0.826455,0.206104 1.611119,0.312543 2.375,0.34375 l 0.46875,1.875 c -4.357458,1.013023 -10.724192,-3.607945 -15.125,-6.0625 l -1.625,-3 z m 10.75,0.3125 0.78125,0.15625 -0.25,2.71875 -1.8125,1.625 c -0.731148,-0.448638 -1.405226,-0.948285 -2.0625,-1.5 l 3.34375,-2.96875 0,-0.03125 z M 24.4375,59 c 2.149375,2.170162 4.168874,4.818337 6.75,6.125 C 28.670314,64.804069 26.439416,63.8506 24.40625,62.9375 23.853298,61.582373 24.449516,60.198065 24.4375,59 z m 71.8125,0.1875 2.34375,0.46875 -0.46875,5.5 c -0.154929,0.249133 -0.299058,0.469561 -0.46875,0.625 -1.132679,0.451575 -1.348269,0.03069 -1.8125,-1 L 96.25,59.1875 z m 2.65625,0.53125 1.65625,0.34375 -1.9375,2 0.28125,-2.34375 z m -14.3125,0.34375 1.1875,2.21875 C 73.755762,72.72805 61.558742,83.042267 49.3125,93.21875 48.028549,93.07554 46.771247,92.93489 45.53125,92.75 59.127975,82.092938 71.785443,71.108343 84.59375,60.0625 z m 16.09375,0.03125 1.84375,0.375 -0.9375,0.9375 -0.8125,0.3125 0.0312,0.1875 -0.1875,0.5 -2.3125,2.375 0.3125,-2.5 2.0625,-2.1875 z m 2,0.40625 0.9375,0.1875 -1.71875,0.625 0.78125,-0.8125 z m 0.75,0.6875 c -0.64469,0.667338 -1.29128,1.333565 -1.9375,2 l -0.125,-1.09375 2.0625,-0.90625 z M 95.625,62 95.40625,64.28125 C 94.888872,64.05555 94.402764,63.779071 93.9375,63.5 L 95.625,62 z m -9.375,0.125 c 0.957383,0.445408 2.009505,1.071691 3.09375,1.75 L 87.5,65.53125 87.40625,64.71875 87.5625,64.53125 86.25,62.125 z m -0.40625,0.3125 1.0625,2 C 75.760733,74.158019 64.473539,83.808207 53.09375,93.5625 51.891493,93.47879 50.7208,93.37609 49.5625,93.25 61.79405,83.08652 73.899389,72.829714 85.84375,62.4375 z m 15.03125,0.03125 0.71875,6.46875 -1.0625,-5.28125 0.34375,-1.1875 z M 100.5,62.75 l -0.3125,0.875 0.40625,1.84375 c -0.828682,-0.05452 -1.599639,-0.170837 -2.3125,-0.3125 l 0,-0.125 L 98.3125,65 100.5,62.75 z m -75.90625,0.65625 c 0.796481,0.287413 1.617786,0.612743 2.4375,0.9375 l 0,2.0625 -2.40625,-1.125 c -0.01161,-0.731179 -0.01853,-1.210521 -0.03125,-1.875 z M 89.4375,63.9375 c 0.736798,0.461895 1.477424,0.933986 2.25,1.40625 l -5.5625,4.9375 -2.9375,-0.125 4.40625,-3.59375 -0.09375,-0.875 1.9375,-1.75 z M 22,64.34375 l 17.5,8.125 c -1.396079,0.970357 -2.731126,2.00882 -4.0625,3.0625 l -18.875,-9.4375 0.53125,-0.25 4.5,0.1875 -0.6875,-1.3125 L 22,64.34375 z m 64.625,0.5 -4.625,5.5 1.8125,0.125 C 75.026608,78.295724 66.139017,86.05656 57.1875,93.78125 55.857421,93.75186 54.553391,93.64835 53.28125,93.5625 64.493372,83.951931 75.625069,74.427908 86.625,64.84375 z m 0.40625,0.3125 0.1875,1.25 -4.5,3.71875 -0.09375,0 4.40625,-4.96875 z m 4.78125,0.25 c 0.775938,0.471971 1.550416,0.941109 2.34375,1.34375 l -1.625,1.6875 -0.40625,-0.0625 0.75,-1.84375 -6.09375,3.78125 -0.3125,0 5.34375,-4.90625 z m 2.5,1.40625 c 0.4617,0.230183 0.94377,0.440196 1.40625,0.625 L 93.6875,69.5 92.65625,69.25 93.3125,68.5625 92.75,68.46875 94.3125,66.8125 z m -2.1875,0.5 -0.21875,1.125 0.8125,0.3125 -0.75,0.4375 1.28125,0.46875 -3.09375,2.90625 -0.875,-2.15625 -2.0625,-0.09375 4.90625,-3 z m 3.75,0.1875 c 0.866773,0.335025 1.711948,0.562158 2.5625,0.65625 L 96,70.84375 94.5625,69.625 91.28125,75.34375 90.375,73.125 95.875,67.5 z m 5.21875,0.4375 0.21875,0.75 -1.59375,1.84375 -0.03125,0 -2.65625,1.1875 L 96.1875,71 l 2.625,-2.8125 c 0.775791,0.04676 1.54034,-0.003 2.28125,-0.25 z M 46.375,68.78125 46.9375,69.59375 46.625,70.0625 43.90625,72.5 45.125,73.65625 c -0.593855,0.330202 -1.204429,0.68452 -1.8125,1.0625 l -2.34375,-1.125 -3.78125,2.90625 2,1.09375 c -0.574563,0.437226 -1.172906,0.871783 -1.75,1.34375 L 35.59375,77.875 32.53125,80.59375 34.375,81.625 c -0.625697,0.577049 -1.255372,1.168221 -1.875,1.78125 l -1.8125,-0.9375 -2.84375,2.625 1.84375,1.25 c -0.361297,0.397499 -0.706282,0.81002 -1.0625,1.21875 l -2.15625,-1.09375 -3.5625,2.625 1.40625,1.21875 -1.40625,0.59375 C 22.469818,90.579782 22.421052,90.107057 22.25,89.625 21.961328,89.231316 21.485058,89.312897 21.34375,89 29.167701,82.220156 35.919334,74.37341 46.375,68.78125 z m 54.96875,0.0625 0.0937,0.34375 1.28125,1.75 -2.75,-0.375 1.375,-1.71875 z m -6.625,1.34375 2.25,1.875 c -0.0393,0.04349 -0.08462,0.08134 -0.125,0.125 -6.137224,6.686954 -13.411957,13.334232 -19.71875,19.75 -1.926357,0.37521 -3.791842,0.68636 -5.59375,0.9375 6.383999,-6.052769 12.722773,-12.127864 18.9375,-18.28125 l 0.8125,1.96875 3.4375,-6.375 z M 24.5,70.375 l 2.34375,1.15625 -0.0625,2.75 -0.46875,-1 -0.71875,0 L 25.125,72.46875 24.40625,72.6875 24.5,70.375 z m 59.46875,0.09375 3.46875,0.25 c -8.629668,7.669177 -17.429799,15.26954 -26.25,23.03125 -1.306535,0.03221 -2.595749,0.05651 -3.84375,0.03125 9.002374,-7.767762 17.819274,-15.502975 26.625,-23.3125 z m 3.5625,0.25 1.375,0.09375 L 89.25,71.625 C 81.445999,78.937097 73.597718,86.138855 65.78125,93.5 64.360524,93.60962 62.975336,93.70992 61.625,93.75 70.405521,85.978873 78.980936,78.504111 87.53125,70.71875 z m 12.1875,0.15625 2.71875,0.21875 0.0625,1.1875 -2.96875,-1.3125 0.1875,-0.09375 z m -46.375,0.25 0.53125,0.21875 C 44.434469,76.556057 37.222047,83.0427 30.65625,89.875 29.778871,89.690182 28.912775,89.490985 28.03125,89.3125 33.987661,82.376542 41.28333,74.367681 53.34375,71.125 z m 45.875,0 0.40625,0.15625 c -0.09486,0.107341 -0.186602,0.20596 -0.28125,0.3125 -0.358726,0.403796 -0.706486,0.794423 -1.0625,1.1875 L 97.4375,72.0625 99.21875,71.125 z m -7.3125,0.21875 -1.59375,1.625 -0.03125,-0.09375 1.625,-1.53125 z M 54,71.40625 57.3125,72.875 C 49.394919,78.531216 41.447045,84.392795 35.03125,90.78125 33.728578,90.5067 32.423299,90.243298 31.125,89.96875 37.579888,83.265004 44.733977,76.520171 54,71.40625 z m 35.3125,0.40625 1.09375,2.59375 c -6.261396,6.223496 -12.643726,12.385122 -19.09375,18.5 -1.755001,0.24053 -3.444806,0.42727 -5.09375,0.5625 C 73.943974,86.194778 81.635282,79.046417 89.3125,71.8125 z m 10.09375,0.21875 c 0.05179,0.617222 0.02605,1.376419 0.09375,1.84375 0.04266,0.294526 0.82001,0.594314 0.8125,0.78125 -0.17319,0.45857 -1.026694,0.936201 -1.1875,1.40625 0.343591,0.807212 0.228318,1.422807 0.1875,2.21875 C 94.468949,83.797417 88.372609,89.45089 80.28125,95.71875 58.595917,100.45908 37.086362,94.93583 20.875,96.4375 l 2.90625,-2.28125 -1.8125,-0.0625 1.1875,-1.71875 -3.71875,0.46875 c 2.50906,-1.029433 5.09566,-1.865016 7.5,-3.15625 14.752609,4.35114 29.115948,5.25171 43.9375,3.8125 3.203926,-0.31111 6.432588,-0.73143 9.6875,-1.25 6.740802,-8.067938 12.185647,-12.742751 18.84375,-20.21875 z M 97.125,72.1875 98.09375,73 c -5.916217,6.510173 -11.514745,11.657167 -17.875,18.3125 -0.972009,0.217126 -1.903607,0.408474 -2.84375,0.59375 6.656365,-6.405257 13.324768,-12.733298 19.59375,-19.53125 0.05577,-0.06029 0.101294,-0.127645 0.15625,-0.1875 z m -39.65625,0.75 2.59375,1.15625 -21.125,17.5 C 37.740301,91.357905 36.556608,91.091965 35.375,90.84375 41.735921,84.541994 49.513741,78.657363 57.4375,73 l 0.03125,-0.0625 z m -16.53125,1.03125 2,0.96875 c -1.144476,0.726189 -2.29457,1.554969 -3.46875,2.4375 l -1.78125,-0.9375 3.25,-2.46875 z m -5.375,4.28125 1.59375,0.9375 C 36.309552,79.888171 35.468982,80.604243 34.625,81.375 L 33,80.53125 35.5625,78.25 z m -4.78125,4.59375 1.46875,0.8125 c -0.774134,0.773167 -1.554763,1.580656 -2.3125,2.40625 l -1.71875,-1.125 2.5625,-2.09375 z m 71.53125,2.9375 -1.15625,0.40625 0.1875,8.53125 c -0.73115,0.274308 -1.344375,-0.276872 -2,-0.53125 -1.53125,-0.604871 -3.0625,-0.681094 -4.59375,-0.625 2.527316,0.26192 4.951312,0.651844 6.59375,1.78125 3.79498,2.609579 6.12354,3.216461 10.3125,5.125 1.69706,0.7156 3.61319,1.2395 4.6875,2.5 -0.39801,-0.93623 -1.5304,-1.60624 -2.875,-2.1875 l 0.5,-13.875 -1.4375,0.5625 -2.71875,1.75 -2.15625,-2.28125 -1.5625,0.65625 -1.28125,1.375 -2.5,-3.1875 z m -0.0625,0.1875 2.4375,3.15625 -0.46875,0.53125 -2.90625,-3.3125 0.9375,-0.375 z m -75.90625,1 1.96875,0.9375 c -0.327399,0.380231 -0.646475,0.766899 -0.96875,1.15625 l -2.625,1.09375 -1,-1.15625 2.625,-2.03125 z M 107.375,87.1875 109.5,89.40625 109,89.75 106.34375,87.78125 107.375,87.1875 z m 6.34375,0.03125 -0.5,13.46875 c -0.30654,-0.12844 -0.6195,-0.25086 -0.9375,-0.375 l 0.25,-12.4375 1.1875,-0.65625 z m -12,0.40625 2.125,2.71875 -0.0312,6 -1.75,-0.84375 -0.34375,-7.875 z m 4.40625,0.59375 1.4375,1.09375 -0.15625,8.78125 L 104,96.4375 l 0.0937,-5.78125 0.25,0.3125 1.78125,-2.75 z m 5.71875,0.3125 -0.0937,11.65625 -1.6875,-0.8125 0.15625,-9.78125 1.625,-1.0625 z m -4.125,0.90625 1.25,0.96875 1.0625,-0.6875 -0.28125,9.5 -2.15625,-1.03125 0.125,-8.75 z m -78.78125,7.5 c 0.663544,0.01208 1.334991,0.04428 2,0.0625 l 0.34375,1.15625 C 30.522945,97.77339 29.74163,97.38121 28.9375,96.9375 z M 31.125,97 c 1.205556,0.03397 2.414395,0.07561 3.625,0.125 l 0.875,3 C 34.326395,99.60581 32.946305,99.00442 31.5,98.28125 L 31.125,97 z M 35,97.15625 c 1.095867,0.04547 2.181009,0.07171 3.28125,0.125 l 0.90625,4.09375 c -1.031763,-0.30216 -2.094393,-0.65503 -3.21875,-1.09375 L 35,97.15625 z m 3.46875,0.15625 c 1.054502,0.05137 2.12878,0.10175 3.1875,0.15625 l 1.0625,4.75 c -1.032198,-0.17549 -2.099393,-0.43362 -3.21875,-0.75 L 38.46875,97.3125 z m 3.4375,0.15625 c 1.192125,0.06145 2.39601,0.1275 3.59375,0.1875 l 0.9375,4.9375 c -1.122076,-0.0353 -2.293588,-0.14825 -3.5,-0.34375 l -1.03125,-4.78125 z m 3.9375,0.1875 c 1.072911,0.05335 2.141115,0.10852 3.21875,0.15625 l 0.78125,4.65625 c -1.025883,0.0903 -2.057425,0.14748 -3.125,0.125 l -0.875,-4.9375 z m 23.4375,0.15625 C 68.322762,98.03696 67.39132,98.26783 66.5,98.5 l -0.28125,-0.53125 c 1.017412,-0.04106 2.040081,-0.09028 3.0625,-0.15625 z m -20,0.03125 c 1.293731,0.05665 2.574142,0.0829 3.875,0.125 0.04288,1.30933 0.645712,2.57196 1.03125,3.84375 -0.933384,0.19867 -1.860728,0.37674 -2.78125,0.5 -0.435949,0.0584 -0.873554,0.0829 -1.3125,0.125 l -0.8125,-4.59375 z m 4.03125,0.125 c 1.370785,0.04359 2.745913,0.07417 4.125,0.09375 L 58,100.875 c -1.212339,0.33212 -2.380519,0.62272 -3.53125,0.875 -0.355247,-1.14908 -0.91432,-2.74981 -1.15625,-3.78125 z m 12.71875,0 0.3125,0.5625 c -1.273592,0.33343 -2.434216,0.67033 -3.59375,1 -0.171451,-0.48495 -0.331557,-0.97386 -0.46875,-1.46875 1.245193,-0.01635 2.497481,-0.04495 3.75,-0.09375 z m -8.375,0.09375 c 1.423237,0.01867 2.848737,0.01569 4.28125,0 0.148377,0.55061 0.40095,1.02083 0.625,1.53125 -1.518719,0.43275 -2.996602,0.83887 -4.375,1.21875 l -0.53125,-2.75 z M 25.75,101.59375 8.4375,111.75 l 2.71875,0.1875 -0.96875,1.53125 2.65625,-0.21875 -0.03125,1.46875 c 6.176427,-2.70668 6.897229,-3.96295 13.96875,-5.03125 l -0.4375,-1.09375 1.5,-1.875 -1.65625,-0.53125 0.71875,-1.75 -3.25,1.4375 2.09375,-4.28125 z m -0.90625,1 -2.1875,4.125 3.5625,-1.71875 -0.9375,1.75 2,0.1875 -1.375,1.6875 -0.1875,0.625 c -5.274982,1.09235 -7.831654,2.79158 -12.5,4.8125 l 0.5,-1.34375 -3.03125,0.46875 1.5625,-1.65625 -2.46875,0.0312 15.0625,-8.96875 z"
       id="path2308"
       inkscape:connector-curvature="0" />
  </g>
</svg>
