<?xml version="1.0" encoding="UTF-8" standalone="no"?>
<!-- Created with Inkscape (http://www.inkscape.org/) -->
<svg
   xmlns:svg="http://www.w3.org/2000/svg"
   xmlns="http://www.w3.org/2000/svg"
   xmlns:inkscape="http://www.inkscape.org/namespaces/inkscape"
   version="1.0"
   width="184.68811"
   height="276.75403"
   id="svg2"
   style="display:inline">
  <defs
     id="defs4">
    <filter
       id="filter3663">
      <feGaussianBlur
         id="feGaussianBlur3665"
         stdDeviation="0.48009458"
         inkscape:collect="always" />
    </filter>
    <filter
       height="2.4860501"
       y="-0.74302506"
       width="2.283407"
       x="-0.64170349"
       id="filter5122">
      <feGaussianBlur
         id="feGaussianBlur5124"
         stdDeviation="5.1534371"
         inkscape:collect="always" />
    </filter>
    <filter
       height="1.6722608"
       y="-0.33613038"
       width="1.6274434"
       x="-0.31372169"
       id="filter5126">
      <feGaussianBlur
         id="feGaussianBlur5128"
         stdDeviation="5.1534371"
         inkscape:collect="always" />
    </filter>
    <filter
       height="1.4278023"
       y="-0.21390115"
       width="1.4343839"
       x="-0.21719193"
       id="filter5130">
      <feGaussianBlur
         id="feGaussianBlur5132"
         stdDeviation="5.1534371"
         inkscape:collect="always" />
    </filter>
    <filter
       height="1.7020683"
       y="-0.35103416"
       width="1.1567726"
       x="-0.078386277"
       id="filter5372">
      <feGaussianBlur
         id="feGaussianBlur5374"
         stdDeviation="2.9472514"
         inkscape:collect="always" />
    </filter>
    <filter
       id="filter5596">
      <feGaussianBlur
         id="feGaussianBlur5598"
         stdDeviation="2.7978303"
         inkscape:collect="always" />
    </filter>
  </defs>
  <g
     transform="translate(-25.574684,-14.923696)"
     id="layer3"
     style="display:inline">
    <path
       d="M 63.954931,17.666499 C 63.954931,17.666499 27.158943,47.453727 26.282848,61.471246 C 25.406753,75.488765 27.158943,112.28475 34.167703,134.18713 C 41.176462,156.0895 85.857304,169.23092 85.857304,169.23092 C 85.857304,169.23092 139.2991,168.35483 146.30786,154.33731 C 153.31662,140.31979 171.71461,72.86048 163.82975,61.471246 C 155.9449,50.082012 126.15767,17.666499 109.51187,15.914309 C 92.866064,14.162119 64.831026,17.666499 63.954931,17.666499 z"
       id="path4556"
       style="opacity:1;fill:#96a88e;fill-opacity:1;fill-rule:evenodd;stroke:#000000;stroke-width:1;stroke-linecap:round;stroke-linejoin:round;stroke-miterlimit:4;stroke-dasharray:none;stroke-opacity:1;display:inline" />
  </g>
  <g
     transform="translate(224.05263,-440.52253)"
     id="layer2"
     style="display:inline">
    <path
       d="M 46.433032,283.99936 C 46.433032,283.99936 65.707121,265.60137 83.22902,266.47746 C 100.75092,267.35356 123.52939,264.72527 134.04253,267.35356 C 144.55567,269.98184 156.82099,281.37108 156.82099,281.37108 C 156.82099,281.37108 101.62701,288.37984 85.857304,286.62765 C 70.087595,284.87546 46.433032,284.87546 46.433032,283.99936 z"
       transform="translate(-249.62731,425.59883)"
       id="path4600"
       style="opacity:1;fill:#000000;fill-opacity:1;fill-rule:evenodd;stroke:#000000;stroke-width:1;stroke-linecap:round;stroke-linejoin:round;stroke-miterlimit:4;stroke-dasharray:none;stroke-opacity:1;display:inline" />
    <path
       d="M -98.175064,708.02049 C -95.316784,719.6884 -118.50535,716.39495 -132.40633,713.02402 C -150.13919,719.57062 -150.18537,717.35501 -150.18322,710.02002 C -150.18081,701.82806 -145.01656,694.37732 -126.77354,694.37732 C -108.53051,694.37732 -100.39883,698.23603 -98.175064,708.02049 z"
       id="path4561"
       style="fill:#806052;fill-opacity:1;fill-rule:nonzero;stroke:#000000;stroke-width:0.73571539;stroke-miterlimit:4;stroke-opacity:1" />
    <path
       d="M -150.19035,712.2753 C -132.51445,712.50592 -110.84942,711.85822 -97.228694,712.98168 L -98.854874,716.02727 L -119.97078,716.13683 C -126.22065,713.11402 -136.21626,715.17499 -138.30447,716.73367 L -150.19035,716.74227 L -150.19035,712.2753 z"
       id="path4563"
       style="fill:#6d6c6e;fill-opacity:1;fill-rule:nonzero;stroke:#000000;stroke-width:0.45498395;stroke-linecap:round;stroke-linejoin:round;stroke-miterlimit:4;stroke-opacity:1" />
    <path
       d="M -154.06055,679.65747 C -154.06055,679.65747 -153.7508,691.11809 -153.44106,696.69352 C -153.13131,702.26896 -152.51182,705.36642 -151.27283,708.46388 C -150.03385,711.56135 -150.96309,710.01261 -148.79486,707.53464 C -146.62664,705.05667 -137.64399,708.15414 -137.64399,708.15414 C -137.64399,708.15414 -131.44907,704.12743 -123.70541,701.33972 C -115.96175,698.552 -118.12997,697.93251 -118.12997,697.93251 L -122.15667,679.34773 L -154.06055,679.65747 z"
       id="path4573"
       style="opacity:1;fill:#806052;fill-opacity:1;fill-rule:evenodd;stroke:#000000;stroke-width:0.5;stroke-linecap:round;stroke-linejoin:round;stroke-miterlimit:4;stroke-dasharray:none;stroke-opacity:1" />
    <g
       transform="matrix(0.8369066,-0.1689058,0.1404842,0.9480679,-23.266945,103.92288)"
       id="g4090" />
    <path
       d="M 154.19271,181.71528 C 154.19271,181.71528 150.03126,185.00063 149.81224,189.81916 C 149.59321,194.63768 151.78345,206.90301 152.44052,208.21715 C 153.09759,209.53129 156.16392,210.62641 156.60197,207.34105 C 157.04002,204.0557 159.6683,185.87673 157.69709,183.90551 C 155.72588,181.9343 154.84978,181.49625 154.19271,181.71528 z"
       transform="translate(-249.62731,425.59883)"
       id="path4588"
       style="opacity:1;fill:#000000;fill-opacity:1;fill-rule:evenodd;stroke:#000000;stroke-width:1;stroke-linecap:round;stroke-linejoin:round;stroke-miterlimit:4;stroke-dasharray:none;stroke-opacity:1;display:inline" />
    <path
       d="M -180.64132,683.85468 C -181.25456,669.8727 -179.05474,658.2798 -176.44315,642.14441 C -178.99169,629.12982 -179.86069,620.3335 -184.38046,608.24747 L -189.11304,642.56964 L -205.98878,638.14204 C -205.61552,620.28909 -202.31836,596.56905 -191.4016,589.58001 L -170.65346,581.81164 L -160.40283,550.06001 L -138.28157,552.45751 L -134.33873,582.0485 L -118.89621,589.17155 C -115.33982,591.38407 -110.85305,602.26216 -107.90712,611.10398 C -104.70659,613.91218 -98.2632,610.02418 -84.90771,605.10386 L -80.85593,619.72856 C -87.91622,623.91269 -104.40146,633.89967 -111.36129,633.5825 C -122.07554,631.79826 -122.84383,621.92343 -126.50156,616.58597 C -126.47729,628.46353 -128.70755,630.55819 -127.93141,640.2793 L -124.02901,682.22609 L -148.27585,683.35498 L -150.88277,642.64213 L -160.60102,683.94853 L -180.64132,683.85468 z"
       id="path4746"
       style="fill:#e9c6af;fill-opacity:1;fill-rule:nonzero;stroke:#000000;stroke-width:0.96141565;stroke-linecap:round;stroke-linejoin:round;stroke-miterlimit:4;stroke-opacity:1" />
    <path
       d="M -104.65978,611.80489 C -107.37125,613.50931 -109.42742,619.13063 -110.61405,623.08106"
       id="path4868"
       style="fill:none;fill-rule:evenodd;stroke:#000000;stroke-width:0.91585451px;stroke-linecap:butt;stroke-linejoin:miter;stroke-opacity:1" />
    <g
       transform="matrix(0.9242287,0,0,0.9075562,-292.79927,41.044087)"
       id="g4870"
       style="fill:#e9c6af;fill-opacity:1">
      <g
         transform="matrix(-7.3609682e-2,-1.0079285,1.1977538,1.8368112e-2,-558.56157,716.85638)"
         id="g4872"
         style="fill:#e9c6af;fill-opacity:1">
        <path
           d="M 104.32277,654.45343 C 107.37385,655.61178 111.42657,661.39593 112.63695,664.25641 C 113.55267,666.42051 110.48661,674.4131 109.57087,674.36412 C 108.05868,674.28325 106.10986,672.96176 107.14349,670.4362 C 107.38694,664.40178 104.05572,669.87445 105.73039,673.84658 C 106.10923,674.99241 107.21592,685.93463 102.99203,679.4088 C 103.32742,682.78192 101.53389,686.48618 98.738119,681.21187 C 98.170092,685.05026 95.188609,681.02447 93.734799,679.69533 C 89.798673,682.65002 85.711402,670.71828 86.312359,664.52998 C 87.021368,661.24476 88.64431,658.69456 90.753293,656.89074"
           id="path4874"
           style="fill:#e9c6af;fill-opacity:1;fill-rule:nonzero;stroke:#000000;stroke-width:1;stroke-linecap:round;stroke-linejoin:round;stroke-miterlimit:4;stroke-dasharray:none;stroke-opacity:1" />
        <path
           d="M 94.327715,680.47487 C 93.926899,676.95763 90.304641,671.70189 92.096895,668.34959 L 92.096895,668.34959 L 92.096895,668.34959"
           id="path4876"
           style="fill:#e9c6af;fill-opacity:1;fill-rule:evenodd;stroke:#000000;stroke-width:0.65868837px;stroke-linecap:butt;stroke-linejoin:miter;stroke-opacity:1" />
        <path
           d="M 99.296431,682.44415 C 98.037448,678.10861 96.518431,671.90465 97.621949,670.19218"
           id="path4878"
           style="fill:#e9c6af;fill-opacity:1;fill-rule:evenodd;stroke:#000000;stroke-width:0.65868837px;stroke-linecap:butt;stroke-linejoin:miter;stroke-opacity:1" />
        <path
           d="M 102.7663,679.55127 C 101.69267,671.80108 100.68392,672.01501 101.75581,669.12933"
           id="path4880"
           style="fill:#e9c6af;fill-opacity:1;fill-rule:evenodd;stroke:#000000;stroke-width:0.65868837px;stroke-linecap:butt;stroke-linejoin:miter;stroke-opacity:1" />
      </g>
      <path
         d="M 234.26233,621.58007 C 231.04999,625.77968 227.83764,626.39138 224.62529,626.58004"
         id="path4882"
         style="fill:#e9c6af;fill-opacity:1;fill-rule:evenodd;stroke:#000000;stroke-width:1px;stroke-linecap:butt;stroke-linejoin:miter;stroke-opacity:1" />
      <path
         d="M 233.04125,627.45614 L 232.01485,636.27023"
         id="path4884"
         style="fill:#e9c6af;fill-opacity:1;fill-rule:evenodd;stroke:#000000;stroke-width:1px;stroke-linecap:butt;stroke-linejoin:miter;stroke-opacity:1" />
    </g>
    <path
       d="M 35.481845,217.19712 C 35.481845,217.19712 43.804747,209.53129 47.747174,209.75032 C 51.689602,209.96934 67.897358,217.63517 67.897358,217.63517 C 67.897358,217.63517 65.269073,219.60638 60.231527,220.04443 C 55.193981,220.48248 39.205249,222.01564 37.453059,220.04443 C 35.700869,218.07322 35.700869,217.41615 35.481845,217.19712 z"
       transform="translate(-249.62731,425.59883)"
       id="path4585"
       style="opacity:1;fill:#000000;fill-opacity:1;fill-rule:evenodd;stroke:#000000;stroke-width:1;stroke-linecap:round;stroke-linejoin:round;stroke-miterlimit:4;stroke-dasharray:none;stroke-opacity:1;display:inline" />
    <g
       transform="matrix(-1.0585762,0.2852971,0.2918285,1.0205914,-151.56917,-125.69249)"
       id="g4858"
       style="fill:#e9c6af;fill-opacity:1">
      <path
         d="M 236.84752,681.47684 C 239.20648,682.78779 242.36814,684.0333 243.82951,687.63189 C 245.7312,691.39936 247.19528,696.22814 245.45494,699.10769 C 244.60515,700.51376 244.00266,702.05425 243.19816,704.41811 C 242.82668,705.50963 240.73538,706.35615 238.73051,706.31735 C 238.0961,706.30507 237.35126,706.71354 236.64768,706.786 C 235.53864,706.90021 234.92829,706.28585 234.13698,706.26779 C 227.20479,706.10954 231.26964,701.94419 231.80167,699.67011 C 232.83827,695.23934 230.64004,691.16142 228.82983,696.85399 C 228.41091,698.17136 229.65196,697.92782 230.45564,700.04608 C 230.62056,700.48075 230.00703,704.07991 228.33785,702.84003 C 222.60951,698.58495 223.78326,693.46797 224.28532,686.15948"
         id="path4860"
         style="fill:#e9c6af;fill-opacity:1;fill-rule:nonzero;stroke:#000000;stroke-width:0.96926945;stroke-linecap:round;stroke-linejoin:round;stroke-miterlimit:4;stroke-dasharray:none;stroke-opacity:1" />
      <path
         d="M 240.15953,694.3679 L 240.15953,700.39105 L 238.51685,706.19518"
         id="path4862"
         style="fill:#e9c6af;fill-opacity:1;fill-rule:evenodd;stroke:#000000;stroke-width:1px;stroke-linecap:butt;stroke-linejoin:miter;stroke-opacity:1" />
      <path
         d="M 243.33537,692.94423 L 244.10196,699.51494 L 243.66391,702.8003"
         id="path4864"
         style="fill:#e9c6af;fill-opacity:1;fill-rule:evenodd;stroke:#000000;stroke-width:1px;stroke-linecap:butt;stroke-linejoin:miter;stroke-opacity:1" />
      <path
         d="M 236.32661,696.12008 L 235.66954,701.37665 L 234.13637,706.08566 L 234.13637,706.08566"
         id="path4866"
         style="fill:#e9c6af;fill-opacity:1;fill-rule:evenodd;stroke:#000000;stroke-width:1px;stroke-linecap:butt;stroke-linejoin:miter;stroke-opacity:1" />
    </g>
    <path
       d="M -214.52924,498.28528 C -207.95667,520.00071 -210.16918,534.75356 -203.07436,552.43521 C -195.88538,570.3515 -149.77518,579.65543 -141.36255,580.31033 C -133.08296,579.37368 -110.17092,562.26953 -107.04407,547.66041 L -96.476045,498.28528 C -124.54902,440.71425 -157.00569,438.09263 -214.52924,498.28528 z"
       id="path4786"
       style="fill:#e9c6af;fill-opacity:1;fill-rule:evenodd;stroke:#000000;stroke-width:0.76632208px;stroke-linecap:butt;stroke-linejoin:miter;stroke-opacity:1;display:inline" />
    <path
       d="M 147.18395,104.83794 C 147.19038,110.40327 126.98808,114.91563 102.06506,114.91563 C 77.142045,114.91563 56.939748,110.40327 56.946175,104.83794 C 56.939748,99.272606 77.142045,94.76025 102.06506,94.76025 C 126.98808,94.76025 147.19038,99.272606 147.18395,104.83794 z"
       transform="translate(-249.62731,425.59883)"
       id="path5134"
       style="opacity:1;fill:#de8787;fill-opacity:1;fill-rule:evenodd;stroke:none;stroke-width:1;stroke-linecap:round;stroke-linejoin:round;stroke-miterlimit:4;stroke-dasharray:none;stroke-opacity:1;filter:url(#filter5372)" />
    <path
       d="M -131.14843,508.73975 C -130.83869,515.86392 -130.52895,522.98808 -130.2192,530.11225 C -118.94357,533.6232 -115.59565,539.43261 -108.84671,527.94403 C -108.97297,511.41523 -111.97348,498.64691 -131.14843,508.73975 z"
       id="path5638"
       style="fill:#ffffff;fill-opacity:1;fill-rule:evenodd;stroke:#000000;stroke-width:1;stroke-linecap:round;stroke-linejoin:round;stroke-miterlimit:4;stroke-dasharray:none;stroke-opacity:1" />
    <path
       d="M -151.28196,509.97873 C -161.02064,504.42243 -168.39562,504.89074 -176.57393,508.7783 C -195.01163,535.06771 -173.33801,538.69774 -152.52095,531.66098 C -152.10795,524.43357 -151.69496,517.20615 -151.28196,509.97873 z"
       id="path5636"
       style="fill:#ffffff;fill-opacity:1;fill-rule:evenodd;stroke:#000000;stroke-width:1;stroke-linecap:round;stroke-linejoin:round;stroke-miterlimit:4;stroke-dasharray:none;stroke-opacity:1" />
    <path
       d="M 327.28943,695.77832 C 327.28943,746.54648 289.29953,787.7022 242.43661,787.7022 C 195.5737,787.7022 157.5838,746.54648 157.5838,695.77832 C 157.5838,645.01016 195.5737,603.85444 242.43661,603.85444 C 289.29953,603.85444 327.28943,645.01016 327.28943,695.77832 z"
       transform="matrix(0.1133305,-2.484402e-2,3.2755528e-2,0.1401931,-216.63853,428.94246)"
       id="path4794"
       style="opacity:0.74210522;fill:#d40000;fill-opacity:1;stroke:#000000;stroke-width:9.5;stroke-miterlimit:4;stroke-dasharray:none;stroke-opacity:1;filter:url(#filter3663)" />
    <path
       d="M -171.60004,513.33085 C -173.53594,515.91207 -173.02579,520.04485 -174.15769,518.98127 C -175.28958,517.91769 -175.56106,514.35534 -173.62516,511.77413 C -171.68925,509.19291 -169.21082,508.51144 -168.07892,509.57502 C -166.94702,510.6386 -169.66414,510.74965 -171.60004,513.33085 z"
       id="path4800"
       style="opacity:0.86315786;fill:#ffffff;fill-opacity:1;stroke:#fff9f9;stroke-width:1.1212219;stroke-miterlimit:4;stroke-opacity:1" />
    <path
       d="M -158.46653,525.25919 C -158.06559,523.97121 -158.71147,522.61542 -158.18827,522.76852 C -157.66506,522.92162 -157.16836,524.12321 -157.56929,525.41119 C -157.97023,526.69917 -158.77797,527.4242 -159.30118,527.27109 C -159.82438,527.11799 -158.86747,526.54716 -158.46653,525.25919 z"
       id="path4802"
       style="opacity:0.86315786;fill:#ffffff;fill-opacity:1;stroke:#fff9f9;stroke-width:0.43079421;stroke-miterlimit:4;stroke-opacity:1" />
    <path
       d="M 327.28943,695.77832 C 327.28943,746.54648 289.29953,787.7022 242.43661,787.7022 C 195.5737,787.7022 157.5838,746.54648 157.5838,695.77832 C 157.5838,645.01016 195.5737,603.85444 242.43661,603.85444 C 289.29953,603.85444 327.28943,645.01016 327.28943,695.77832 z"
       transform="matrix(-7.6738267e-2,-2.4020858e-2,-2.2179395e-2,0.1355481,-86.2794,430.15165)"
       id="path4820"
       style="opacity:0.74210522;fill:#d40000;fill-opacity:1;stroke:#000000;stroke-width:9.5;stroke-miterlimit:4;stroke-dasharray:none;stroke-opacity:1;filter:url(#filter3663)" />
    <path
       d="M -116.77582,511.74399 C -115.46498,514.23969 -115.81042,518.23554 -115.04399,517.2072 C -114.27756,516.17886 -114.09374,512.73454 -115.40458,510.23885 C -116.71541,507.74316 -118.39361,507.08426 -119.16004,508.11261 C -119.92647,509.14095 -118.08665,509.24831 -116.77582,511.74399 z"
       id="path4826"
       style="opacity:0.86315786;fill:#ffffff;fill-opacity:1;stroke:#fff9f9;stroke-width:0.90720916;stroke-miterlimit:4;stroke-opacity:1" />
    <path
       d="M -125.66877,523.27711 C -125.94026,522.0318 -125.50292,520.72094 -125.85719,520.86896 C -126.21146,521.017 -126.54779,522.17877 -126.27631,523.42408 C -126.00482,524.66938 -125.45789,525.37039 -125.10362,525.22235 C -124.74934,525.07432 -125.39729,524.5224 -125.66877,523.27711 z"
       id="path4828"
       style="opacity:0.86315786;fill:#ffffff;fill-opacity:1;stroke:#fff9f9;stroke-width:0.34856659;stroke-miterlimit:4;stroke-opacity:1" />
    <path
       d="M -231.69027,466.02097 C -231.68939,469.78548 -233.56181,472.83797 -235.87185,472.83797 C -238.18188,472.83797 -240.0543,469.78548 -240.05342,466.02097 C -240.0543,462.25646 -238.18188,459.20397 -235.87185,459.20397 C -233.56181,459.20397 -231.68939,462.25646 -231.69027,466.02097 L -231.69027,466.02097 z"
       transform="translate(115.40964,52.320926)"
       id="path5630"
       style="fill:#000000;fill-opacity:1;fill-rule:evenodd;stroke:none;stroke-width:0.5;stroke-linecap:round;stroke-linejoin:round;stroke-miterlimit:4;stroke-dasharray:none;stroke-opacity:1" />
    <path
       d="M -275.67423,468.34406 C -275.67423,472.36416 -278.17044,475.6231 -281.24966,475.6231 C -284.32889,475.6231 -286.8251,472.36416 -286.8251,468.34406 C -286.8251,464.32396 -284.32889,461.06502 -281.24966,461.06502 C -278.17044,461.06502 -275.67423,464.32396 -275.67423,468.34406 L -275.67423,468.34406 z"
       transform="translate(115.71939,52.320927)"
       id="path5628"
       style="fill:#000000;fill-opacity:1;fill-rule:evenodd;stroke:none;stroke-width:0.5;stroke-linecap:round;stroke-linejoin:round;stroke-miterlimit:4;stroke-dasharray:none;stroke-opacity:1" />
    <path
       d="M -277.53272,466.9502 C -277.53212,469.17467 -278.84974,470.97839 -280.47531,470.97839 C -282.10088,470.97839 -283.4185,469.17467 -283.4179,466.9502 C -283.4185,464.72573 -282.10088,462.92201 -280.47531,462.92201 C -278.84974,462.92201 -277.53212,464.72573 -277.53272,466.9502 z"
       transform="translate(117.57787,53.869658)"
       id="path5632"
       style="fill:#ffffff;fill-opacity:1;fill-rule:evenodd;stroke:none;stroke-width:0.5;stroke-linecap:round;stroke-linejoin:round;stroke-miterlimit:4;stroke-dasharray:none;stroke-opacity:1" />
    <path
       d="M -277.53272,466.9502 C -277.53212,469.17467 -278.84974,470.97839 -280.47531,470.97839 C -282.10088,470.97839 -283.4185,469.17467 -283.4179,466.9502 C -283.4185,464.72573 -282.10088,462.92201 -280.47531,462.92201 C -278.84974,462.92201 -277.53212,464.72573 -277.53272,466.9502 z"
       transform="matrix(0.7368421,0,0,1,88.21718,52.01118)"
       id="path5634"
       style="fill:#ffffff;fill-opacity:1;fill-rule:evenodd;stroke:none;stroke-width:0.5;stroke-linecap:round;stroke-linejoin:round;stroke-miterlimit:4;stroke-dasharray:none;stroke-opacity:1" />
    <g
       transform="translate(0.8760949,-4.3804747)"
       id="g5604">
      <path
         d="M -143.0365,566.35906 C -154.72498,565.8089 -173.57354,571.89782 -166.80043,559.30116 C -154.7369,536.86537 -154.77849,552.61179 -142.76213,549.66428 C -130.30678,546.60909 -131.76486,539.85234 -121.67116,556.93359 C -111.69266,573.8199 -135.64418,565.50555 -143.0365,566.35906 z"
         id="path3469"
         style="fill:#ffffff;fill-opacity:1;fill-rule:nonzero;stroke:#000000;stroke-width:1;stroke-linecap:butt;stroke-linejoin:miter;stroke-miterlimit:4;stroke-dasharray:none;stroke-opacity:1" />
      <path
         d="M -121.67092,556.97323 C -122.5777,557.46555 -125.67999,554.0495 -127.37797,554.67614 C -128.9736,555.26502 -130.65697,557.52029 -131.56752,557.46449 C -133.46813,557.348 -136.85861,554.45474 -138.5136,554.93659 C -141.74796,555.87826 -143.08522,559.04126 -145.59192,557.13557"
         id="path3471"
         style="fill:none;fill-rule:evenodd;stroke:#000000;stroke-width:1;stroke-linecap:butt;stroke-linejoin:miter;stroke-miterlimit:4;stroke-dasharray:none;stroke-opacity:1" />
    </g>
    <path
       d="M 162.29659,177.11577 C 170.42037,172.13268 175.08065,175.11155 180.47556,176.67773 C 180.07679,180.02482 176.70158,179.80018 173.4668,179.74406 C 173.4668,179.74406 172.15266,181.9343 168.64828,183.24844"
       transform="translate(-249.62731,425.59883)"
       id="path2575"
       style="opacity:1;fill:#e9c6af;fill-opacity:1;fill-rule:evenodd;stroke:#000000;stroke-width:1;stroke-linecap:round;stroke-linejoin:round;stroke-miterlimit:4;stroke-dasharray:none;stroke-opacity:1" />
    <path
       d="M -186.54847,515.10511 C -172.53096,511.45895 -158.51344,516.56763 -144.49592,519.48559 C -143.63141,497.56765 -160.68654,502.93542 -178.66362,501.96368 C -185.21559,505.55942 -185.64787,510.37909 -186.54847,515.10511 z"
       id="path4550"
       style="opacity:1;fill:#000000;fill-opacity:1;fill-rule:evenodd;stroke:none;stroke-width:1;stroke-linecap:round;stroke-linejoin:round;stroke-miterlimit:4;stroke-dasharray:none;stroke-opacity:1" />
    <path
       d="M -136.61106,507.22026 C -137.34396,511.07621 -138.86354,515.24682 -133.98278,516.8573 L -107.69993,516.8573 C -104.0894,513.35292 -105.55077,509.84854 -107.69993,506.34416 C -116.07063,500.30446 -125.90771,501.59668 -136.61106,507.22026 z"
       id="path4552"
       style="opacity:1;fill:#000000;fill-opacity:1;fill-rule:evenodd;stroke:none;stroke-width:1;stroke-linecap:round;stroke-linejoin:round;stroke-miterlimit:4;stroke-dasharray:none;stroke-opacity:1" />
    <path
       d="M -156.08758,681.20621 C -159.60836,691.65587 -163.87375,705.82278 -161.04352,712.49059 C -161.04352,712.49059 -176.53084,705.05667 -184.58424,706.29566 C -192.63765,707.53464 -196.9741,714.34906 -196.35461,707.53464 C -195.52382,698.61661 -187.45722,684.5226 -185.73882,677.44178 C -167.88029,678.47698 -174.98675,676.41544 -156.08758,681.20621 z"
       id="path4565"
       style="opacity:1;fill:#806052;fill-opacity:1;fill-rule:evenodd;stroke:#000000;stroke-width:0.5;stroke-linecap:round;stroke-linejoin:round;stroke-miterlimit:4;stroke-dasharray:none;stroke-opacity:1" />
    <path
       d="M 104.07477,45.326131 C 104.07477,45.326131 91.684916,72.583809 84.251004,73.822794 C 76.817092,75.06178 74.958614,76.300765 78.056077,71.964316 C 81.153541,67.627868 81.153541,61.432941 81.153541,61.432941 C 81.153541,61.432941 69.38318,73.822794 68.763687,76.920258 C 68.144194,80.017721 63.807746,79.398229 63.807746,72.583809 C 63.807746,65.76939 57.612819,73.203302 58.232312,76.300765 C 58.851804,79.398229 63.188253,88.690619 57.612819,94.266053 C 52.037385,99.841487 51.417892,102.93895 51.417892,107.2754 C 51.417892,111.61185 56.993326,110.37286 49.559414,107.89489 C 42.125502,105.41692 40.886517,104.79743 42.744995,108.51438 C 44.603473,112.23134 43.364487,124.62119 51.417892,128.33815 C 59.471297,132.05511 70.622165,141.96699 70.622165,141.96699 C 70.622165,141.96699 84.251004,156.21532 76.197599,154.35684 C 68.144194,152.49836 50.178907,151.25938 47.081443,145.06445 C 43.98398,138.86953 39.028039,124.62119 35.930575,110.37286 C 32.833112,96.124531 30.355141,73.822794 34.072097,67.008375 C 37.789053,60.193956 50.798399,39.750697 61.329775,33.555771 C 71.86115,27.360844 79.914555,20.546424 95.401872,20.546424 C 110.88919,20.546424 133.81042,32.936278 135.6689,35.414249 C 137.52737,37.892219 158.59012,58.335478 158.59012,71.964316 C 158.59012,85.593155 153.01469,125.24069 146.20027,137.01105 C 139.38585,148.78141 126.996,158.69329 122.04006,156.21532 C 117.08412,153.73735 102.83578,156.83481 113.98665,151.25938 C 125.13752,145.68394 129.47397,140.728 126.996,140.728 C 124.51803,140.728 120.80107,143.82547 126.996,138.25003 C 133.19093,132.6746 144.34179,124.62119 140.00534,125.24069 C 135.6689,125.86018 128.85448,130.81612 135.0494,123.38221 C 141.24433,115.9483 140.62484,112.23134 144.34179,100.46098 C 148.05875,88.690619 148.05875,60.813448 148.05875,60.813448 C 148.05875,60.813448 130.09346,75.06178 133.19093,66.388882 C 136.28839,57.715985 134.42991,39.131205 131.95194,47.804102 C 129.47397,56.477 131.33245,61.432941 125.75701,56.477 C 120.18158,51.521058 119.56209,33.555771 117.70361,49.66258 C 115.84513,65.76939 102.83578,77.539751 105.31375,73.822794 C 107.79173,70.105838 109.03071,58.335478 106.55274,52.760044 C 104.07477,47.184609 103.45528,45.326131 104.07477,45.326131 z"
       transform="translate(-249.62731,425.59883)"
       id="path4579"
       style="opacity:1;fill:#e6e6e6;fill-opacity:1;fill-rule:evenodd;stroke:#000000;stroke-width:1;stroke-linecap:round;stroke-linejoin:round;stroke-miterlimit:4;stroke-dasharray:none;stroke-opacity:1" />
    <path
       d="M 67.459311,145.57636 L 43.804747,159.59388 L 40.813572,196.25779 C 40.813572,196.25779 92.609462,228.55946 97.866032,228.55946 C 103.1226,228.55946 148.06005,198.07224 148.06005,198.07224 L 141.92738,154.33731 L 106.88358,159.15583 L 67.459311,145.57636 z"
       transform="translate(-249.62731,425.59883)"
       id="path4591"
       style="opacity:1;fill:#96a88e;fill-opacity:1;fill-rule:evenodd;stroke:#000000;stroke-width:1;stroke-linecap:round;stroke-linejoin:round;stroke-miterlimit:4;stroke-dasharray:none;stroke-opacity:1;display:inline" />
    <path
       d="M -161.71162,709.08716 C -161.71162,715.60522 -159.77625,716.74646 -175.75539,716.74646 C -191.73453,716.74646 -198.67233,716.56264 -198.67233,710.04457 C -198.67233,703.52651 -194.14684,697.59821 -178.1677,697.59821 C -162.18856,697.59821 -161.71162,702.56909 -161.71162,709.08716 z"
       id="path4567"
       style="fill:#806052;fill-opacity:1;fill-rule:nonzero;stroke:#000000;stroke-width:0.61419111;stroke-miterlimit:4;stroke-opacity:1;display:inline" />
    <rect
       width="36.225746"
       height="3.5982008"
       x="-197.91933"
       y="712.70166"
       id="rect4569"
       style="fill:#6d6c6e;fill-opacity:1;fill-rule:nonzero;stroke:#000000;stroke-width:0.61419111;stroke-linecap:round;stroke-linejoin:round;stroke-miterlimit:4;stroke-dasharray:none;stroke-opacity:1;display:inline" />
    <path
       d="M 92.923901,109.13388 L 123.89854,109.75337"
       transform="translate(-249.62731,425.59883)"
       id="path5616"
       style="opacity:1;fill:none;fill-opacity:1;fill-rule:evenodd;stroke:#000000;stroke-width:1;stroke-linecap:round;stroke-linejoin:round;stroke-miterlimit:4;stroke-dasharray:none;stroke-opacity:1" />
    <path
       d="M 101.5968,106.03641 L 116.15488,106.03641"
       transform="translate(-249.62731,425.59883)"
       id="path5618"
       style="opacity:1;fill:none;fill-opacity:1;fill-rule:evenodd;stroke:#000000;stroke-width:1;stroke-linecap:round;stroke-linejoin:round;stroke-miterlimit:4;stroke-dasharray:none;stroke-opacity:1" />
    <path
       d="M 68.763687,156.21532 L 45.842458,161.79075 L 43.364487,196.48234 L 97.26035,229.31546 L 147.43926,199.57981 L 138.76636,160.55177 C 138.76636,160.55177 79.914555,161.17126 68.763687,156.21532 z"
       transform="translate(-249.62731,425.59883)"
       id="path5654"
       style="opacity:1;fill:#506858;fill-opacity:1;fill-rule:evenodd;stroke:none;stroke-width:1;stroke-linecap:round;stroke-linejoin:round;stroke-miterlimit:4;stroke-dasharray:none;stroke-opacity:1" />
  </g>
  <path
     d="M 20.858348,145.54627 C 20.858348,151.24089 19.544206,161.31598 19.544206,161.31598 L 30.495392,148.61261 L 20.858348,145.54627 z"
     id="path4630"
     style="fill:#506858;fill-opacity:1;fill-rule:evenodd;stroke:none;stroke-width:1;stroke-linecap:round;stroke-linejoin:round;stroke-miterlimit:4;stroke-dasharray:none;stroke-opacity:1" />
  <path
     d="M 118.10489,154.74527 L 115.91465,163.50622 L 105.40151,156.93551 L 113.72442,151.24089 L 118.10489,154.74527 z"
     id="path4632"
     style="fill:#506858;fill-opacity:1;fill-rule:evenodd;stroke:none;stroke-width:1;stroke-linecap:round;stroke-linejoin:round;stroke-miterlimit:4;stroke-dasharray:none;stroke-opacity:1" />
  <path
     d="M 46.286466,136.95517 C 46.286466,136.95517 23.98473,141.91111 23.98473,149.96452 C 23.98473,158.01792 16.550818,165.45183 15.311833,180.31966 C 14.072847,195.18748 5.39995,206.33835 12.214369,202.0019 C 19.028789,197.66545 23.365237,195.80698 31.418642,198.28495 C 39.472047,200.76292 42.56951,205.09937 41.330525,202.0019 C 40.09154,198.90444 37.613569,192.09002 39.472047,185.89509 C 41.330525,179.70017 40.09154,178.46118 41.950018,180.93915 C 43.808496,183.41712 44.427988,205.09937 40.09154,215.63074 C 28.255074,231.06514 32.714411,249.98068 23.365237,254.03928 C 7.798445,269.28818 17.789803,270.76559 17.789803,270.76559 C 17.789803,270.76559 49.38393,258.99523 58.056827,262.71218 C 66.729725,266.42914 77.261096,268.90711 81.597546,268.90711 C 85.933996,268.90711 93.987406,263.95117 110.09422,259.61472 C 126.20103,255.27827 126.20103,267.04863 126.20103,267.04863 C 126.20103,267.04863 135.49342,270.1461 129.91798,262.71218 C 122.24158,246.02535 106.00579,229.26761 102.04081,211.91379 C 98.943346,195.18748 97.704356,187.75357 100.80183,188.99256 C 103.89929,190.23154 109.47472,201.38241 114.43066,197.66545 C 119.38661,193.9485 121.24508,193.32901 124.96204,193.9485 C 128.679,194.56799 126.20103,191.47053 125.58153,182.79763 C 124.96204,174.12473 128.679,166.69082 128.679,166.69082 L 117.52813,169.78828 C 117.52813,169.78828 113.81117,156.15944 110.71371,151.823 C 107.61625,147.48655 108.85523,143.76959 102.04081,142.53061 C 95.226386,141.29162 46.286466,135.71619 46.286466,136.95517 z"
     id="path4583"
     style="fill:#96a88e;fill-opacity:1;fill-rule:evenodd;stroke:#000000;stroke-width:1;stroke-linecap:round;stroke-linejoin:round;stroke-miterlimit:4;stroke-dasharray:none;stroke-opacity:1" />
  <path
     d="M 104.96347,236.66015 C 102.77323,236.66015 96.640556,244.10696 90.069846,251.55376 C 83.499136,259.00057 82.184996,269.07566 73.424045,262.943 C 64.663095,256.81033 48.893386,255.05814 51.083624,249.80157 C 53.273861,244.545 62.910905,246.29719 62.910905,246.29719 C 62.910905,246.29719 57.654336,238.85039 56.340193,237.0982 C 55.026051,235.34601 57.216288,234.90796 60.282621,233.15577 C 63.348953,231.40358 65.101143,231.84163 62.472858,229.21334 C 59.844573,226.58506 54.149956,224.39482 57.654336,222.64263 C 61.158715,220.89044 64.225048,220.45239 64.663095,218.26216 C 65.101143,216.07192 63.348953,211.2534 65.977238,210.81535 C 68.605522,210.3773 81.746946,208.18706 81.746946,208.18706 C 81.746946,208.18706 82.184996,214.75778 86.565466,215.19582 C 90.945946,215.63387 97.078606,216.50997 96.202516,218.26216 C 95.326416,220.01434 90.507896,226.58506 92.260086,230.08944 C 94.012276,233.59382 94.888366,229.65139 98.830796,231.84163 C 102.77323,234.03186 97.078606,236.2221 95.764466,238.41234 C 94.450326,240.60258 104.52542,235.78405 104.96347,236.66015 z"
     id="path4616"
     style="fill:#506858;fill-opacity:1;fill-rule:evenodd;stroke:none;stroke-width:1;stroke-linecap:round;stroke-linejoin:round;stroke-miterlimit:4;stroke-dasharray:none;stroke-opacity:1" />
  <path
     d="M 105.40151,160.87794 C 105.40151,160.87794 110.65808,163.50622 108.90589,166.57255 C 107.1537,169.63889 104.08737,175.3335 105.83956,175.3335 C 107.59175,175.3335 113.28637,171.39108 111.53418,174.89546 C 109.78199,178.39984 110.22004,184.09445 111.97223,182.78031 C 113.72442,181.46617 116.79075,178.83788 116.79075,178.83788 C 116.79075,178.83788 119.41903,180.15203 121.60927,182.34226 C 123.79951,184.5325 127.74194,191.97931 125.11365,191.97931 C 122.48537,191.97931 120.73318,188.91297 116.79075,191.97931 C 112.84832,195.04564 113.28637,198.11197 111.53418,195.04564 C 109.78199,191.97931 110.22004,192.8554 107.59175,190.66516 C 104.96347,188.47493 103.21128,191.10321 102.33518,187.16078 C 101.45909,183.21836 98.392746,178.39984 98.392746,178.39984 C 98.392746,178.39984 102.33518,170.51498 101.45909,168.32474 C 100.58299,166.13451 100.14494,163.06817 101.89713,162.63013 C 103.64932,162.19208 102.77323,157.37356 102.77323,157.37356 L 105.40151,160.87794 z"
     id="path4626"
     style="fill:#506858;fill-opacity:1;fill-rule:evenodd;stroke:none;stroke-width:1;stroke-linecap:round;stroke-linejoin:round;stroke-miterlimit:4;stroke-dasharray:none;stroke-opacity:1" />
  <path
     d="M 100.58299,183.21836 C 98.830796,188.03688 104.08737,194.16954 94.450326,195.48368 C 84.813286,196.79782 54.588003,200.74026 51.521671,201.1783 C 48.455338,201.61635 42.322674,198.98807 42.760722,196.35978 C 43.198769,193.7315 44.074864,184.97055 42.322674,181.90421 C 40.570484,178.83788 41.008532,170.51498 43.198769,170.07693 C 45.389006,169.63889 39.256342,149.05065 55.026051,158.24965 C 68.312389,166.00001 88.317656,157.81161 97.078606,157.81161 C 106.12388,163.77193 104.5949,165.98688 100.58299,183.21836 z"
     id="path4604"
     style="fill:#96a88e;fill-opacity:1;fill-rule:evenodd;stroke:#000000;stroke-width:1;stroke-linecap:round;stroke-linejoin:round;stroke-miterlimit:4;stroke-dasharray:none;stroke-opacity:1" />
  <path
     d="M 19.106158,145.54627 C 19.106158,145.54627 29.619297,149.05065 37.504152,155.18332 C 45.389006,161.31598 49.769481,170.95303 58.530431,171.82912 C 67.29138,172.70522 85.689376,172.70522 92.698136,167.44865 C 99.706896,162.19208 112.84832,156.93551 112.84832,156.93551 L 121.60927,153.43113 L 116.3527,135.90923 L 83.937186,142.91799 L 35.751962,130.65266 L 17.353968,141.1658 L 19.106158,145.54627 z"
     id="path4594"
     style="fill:#96a88e;fill-opacity:1;fill-rule:evenodd;stroke:#000000;stroke-width:1;stroke-linecap:round;stroke-linejoin:round;stroke-miterlimit:4;stroke-dasharray:none;stroke-opacity:1" />
  <path
     d="M 33.561725,138.53752 C 33.561725,138.53752 44.950959,145.10823 53.711908,149.4887 C 62.472858,153.86918 57.216288,155.18332 57.216288,158.24965 C 57.216288,161.31598 59.406526,163.06817 65.53919,162.63013 C 71.671855,162.19208 88.755706,159.56379 88.755706,159.56379 C 88.755706,159.56379 88.317656,153.86918 94.012276,152.55503 C 99.706896,151.24089 107.59175,146.86042 107.59175,146.86042 C 107.59175,146.86042 95.326416,143.79408 87.003516,143.35604 C 78.680616,142.91799 58.092383,142.04189 48.455339,140.28971 C 38.818294,138.53752 33.561725,137.66142 33.561725,138.53752 z"
     id="path4628"
     style="fill:#506858;fill-opacity:1;fill-rule:evenodd;stroke:none;stroke-width:1;stroke-linecap:round;stroke-linejoin:round;stroke-miterlimit:4;stroke-dasharray:none;stroke-opacity:1" />
  <path
     d="M 37.066104,8.875467 C 35.313915,9.751562 10.345209,28.587604 11.221304,30.339794 C 12.097399,32.091983 29.18125,30.777841 30.93344,29.025651 C 32.68563,27.273461 39.694389,15.884227 40.132437,13.69399 C 40.570484,11.503752 38.818294,7.999373 37.066104,8.875467 z"
     id="path4640"
     style="fill:#506858;fill-opacity:1;fill-rule:evenodd;stroke:none;stroke-width:1;stroke-linecap:round;stroke-linejoin:round;stroke-miterlimit:4;stroke-dasharray:none;stroke-opacity:1" />
  <path
     d="M 106.71566,126.27219 C 109.34394,121.89171 128.61803,65.821639 118.98099,57.936784 C 109.34394,50.05193 94.450326,36.034411 83.937186,36.910506 C 73.424045,37.786601 62.910905,36.034411 55.902146,43.919265 C 48.893386,51.80412 41.884627,57.936784 42.760722,71.954304 C 43.636817,85.971824 48.893386,119.26343 55.026051,128.02438 C 61.158715,136.78533 29.619297,107.87419 29.619297,96.484964 C 29.619297,85.095724 37.504152,34.282221 44.512911,25.521272 C 51.521671,16.760322 75.176236,8.875468 81.308896,10.627657 C 87.441566,12.379847 114.60051,24.645177 121.60927,35.158316 C 128.61803,45.671455 137.37898,77.210873 132.9985,86.847914 C 128.61803,96.484964 115.47661,125.39609 111.97223,127.14828 C 108.46785,128.90047 105.83956,127.14828 106.71566,126.27219 z"
     id="path5510"
     style="opacity:0.7;fill:#506858;fill-opacity:1;fill-rule:evenodd;stroke:none;stroke-width:1;stroke-linecap:round;stroke-linejoin:round;stroke-miterlimit:4;stroke-dasharray:none;stroke-opacity:1;filter:url(#filter5596)" />
  <path
     d="M 95.845876,154.30097 C 93.367906,153.68147 75.402626,146.24756 75.402626,146.24756 L 103.2798,153.06198 L 95.845876,154.30097 z"
     id="path5652"
     style="fill:#96a88e;fill-opacity:1;fill-rule:evenodd;stroke:none;stroke-width:1;stroke-linecap:round;stroke-linejoin:round;stroke-miterlimit:4;stroke-dasharray:none;stroke-opacity:1" />
  <path
     d="M 72.924651,18.012582 C 72.924651,18.012582 46.286466,40.314318 43.189003,49.606708 C 40.09154,58.899098 37.614628,100.40469 40.711032,108.45851 C 43.808078,116.514 72.049782,142.36143 72.884793,138.18637 L 66.110232,147.7963 C 66.110232,147.7963 29.879028,140.82244 21.206131,132.14954 C 12.533233,123.47664 7.87792,89.873734 6.638935,73.766923 C 5.39995,57.660113 1.682994,50.226201 12.214369,36.597362 C 22.745745,22.968523 44.427988,5.003236 53.720378,2.525265 C 63.012769,0.047294 73.544144,1.905772 80.358566,1.905772 C 87.172986,1.905772 98.943346,6.242221 105.13827,9.959177 C 111.3332,13.676133 134.87392,44.650767 140.44936,53.943157 C 146.02479,63.235547 131.77646,130.14075 126.20103,138.81365 C 120.62559,147.48655 97.084866,149.96452 84.695016,149.34503 C 72.305159,148.72553 64.871247,147.1768 64.871247,147.1768 L 72.692342,138.19415 C 72.692342,138.19415 75.402626,143.76959 89.031456,135.71619 C 102.6603,127.66278 113.19168,122.70684 117.52813,101.0246 C 121.86458,79.342357 131.15697,61.377069 123.72305,51.465186 C 116.28914,41.553304 72.924651,18.012582 72.924651,18.012582 z"
     id="path4577"
     style="fill:#96a88e;fill-opacity:1;fill-rule:evenodd;stroke:#000000;stroke-width:1;stroke-linecap:round;stroke-linejoin:round;stroke-miterlimit:4;stroke-dasharray:none;stroke-opacity:1" />
  <path
     d="M 90.069846,207.74902 C 90.069846,207.74902 91.822036,232.27967 86.565466,237.53624 C 81.308896,242.79281 70.79576,254.18205 70.79576,254.18205 C 70.79576,254.18205 76.052326,241.91672 74.30014,225.27091 C 72.54795,208.62511 68.167475,207.74902 74.30014,205.99683 C 80.432806,204.24464 89.193756,205.99683 90.069846,207.74902 z"
     id="path4598"
     style="fill:#ef5ba1;fill-opacity:1;fill-rule:evenodd;stroke:#000000;stroke-width:1;stroke-linecap:round;stroke-linejoin:round;stroke-miterlimit:4;stroke-dasharray:none;stroke-opacity:1" />
  <path
     d="M 85.689376,209.93925 C 85.689376,209.93925 79.556706,205.55878 81.308896,212.12949 C 83.061086,218.7002 85.251326,231.84163 81.308896,236.2221 C 77.366476,240.60258 79.118666,242.35477 81.308896,238.41234 C 83.499136,234.46991 86.565466,229.65139 85.689376,223.51872 C 84.813276,217.38606 85.689376,210.3773 85.689376,209.93925 z"
     id="path4612"
     style="fill:#d6007f;fill-opacity:1;fill-rule:evenodd;stroke:none;stroke-width:1;stroke-linecap:round;stroke-linejoin:round;stroke-miterlimit:4;stroke-dasharray:none;stroke-opacity:1" />
  <path
     d="M 101.45909,193.7315 C 101.45909,193.7315 66.415285,194.60759 58.530431,198.11197 C 50.645576,201.61635 41.884627,194.60759 41.884627,194.60759 L 40.132437,210.3773 C 40.132437,210.3773 39.256342,214.75778 48.893386,213.88168 C 58.530431,213.00559 66.415285,214.75778 79.556706,211.2534 C 92.698136,207.74902 95.326416,209.50121 100.58299,206.87292 C 105.83956,204.24464 102.33518,194.60759 101.45909,193.7315 z"
     id="path4596"
     style="fill:#ef5ba1;fill-opacity:1;fill-rule:evenodd;stroke:#000000;stroke-width:1;stroke-linecap:round;stroke-linejoin:round;stroke-miterlimit:4;stroke-dasharray:none;stroke-opacity:1" />
  <path
     d="M 57.654336,133.71899 C 66.229476,136.62381 75.329196,139.37927 89.193756,140.72775 C 91.383996,140.72775 84.813276,146.86042 77.804516,147.29846 C 63.71348,149.68355 57.149706,144.31687 50.207529,138.53752 C 48.893386,136.78533 58.092383,133.71899 57.654336,133.71899 z"
     id="path4606"
     style="fill:#96a88e;fill-opacity:1;fill-rule:evenodd;stroke:none;stroke-width:1;stroke-linecap:round;stroke-linejoin:round;stroke-miterlimit:4;stroke-dasharray:none;stroke-opacity:1" />
  <path
     d="M 102.77323,197.23588 C 102.77323,197.23588 84.813276,198.98807 77.804516,201.61635 C 70.79576,204.24464 50.207529,209.93925 50.645576,209.93925 C 51.083624,209.93925 51.083624,214.75778 61.596763,210.81535 C 72.109902,206.87292 74.30014,205.55878 86.565466,204.24464 C 98.830796,202.93049 101.45909,205.55878 102.77323,202.49245 C 104.08737,199.42611 103.21128,197.67392 102.77323,197.23588 z"
     id="path4608"
     style="fill:#d6007f;fill-opacity:1;fill-rule:evenodd;stroke:none;stroke-width:1;stroke-linecap:round;stroke-linejoin:round;stroke-miterlimit:4;stroke-dasharray:none;stroke-opacity:1" />
  <path
     d="M 41.884627,201.61635 C 44.950959,201.61635 55.902146,203.36854 61.158715,201.61635 C 66.415285,199.86416 78.242566,196.79783 72.985997,199.42611 C 67.729428,202.0544 58.968478,204.24464 53.711908,205.55878 C 48.455339,206.87292 46.265101,211.2534 44.074864,207.74902 C 41.884627,204.24464 41.884627,202.49245 41.884627,201.61635 z"
     id="path4610"
     style="fill:#d6007f;fill-opacity:1;fill-rule:evenodd;stroke:none;stroke-width:1;stroke-linecap:round;stroke-linejoin:round;stroke-miterlimit:4;stroke-dasharray:none;stroke-opacity:1" />
  <path
     d="M 77.366476,213.00559 C 77.366476,213.00559 78.680616,226.58506 77.804516,230.08944 C 76.928426,233.59382 77.804516,234.03186 79.118666,230.08944 C 80.432806,226.14701 80.870856,222.20458 79.994756,217.82411 C 79.118666,213.44363 79.994756,212.12949 79.994756,212.12949 L 77.366476,213.00559 z"
     id="path4614"
     style="fill:#d6007f;fill-opacity:1;fill-rule:evenodd;stroke:none;stroke-width:1;stroke-linecap:round;stroke-linejoin:round;stroke-miterlimit:4;stroke-dasharray:none;stroke-opacity:1" />
  <path
     d="M 97.954706,169.63889 C 97.954706,169.63889 63.787,191.54126 58.092383,192.41735 C 52.397766,193.29345 45.827054,189.78907 52.835813,189.35102 C 59.844573,188.91297 61.158715,189.35102 67.729428,185.40859 C 74.30014,181.46617 73.424045,177.52374 82.184996,174.01936 C 90.945946,170.51498 98.392746,168.32474 97.954706,169.63889 z"
     id="path4618"
     style="fill:#506858;fill-opacity:1;fill-rule:evenodd;stroke:none;stroke-width:1;stroke-linecap:round;stroke-linejoin:round;stroke-miterlimit:4;stroke-dasharray:none;stroke-opacity:1" />
  <path
     d="M 71.233807,175.77155 C 69.481617,176.64765 56.340193,187.16078 51.959719,185.84664 C 47.579244,184.5325 42.322674,182.78031 47.579244,181.90421 C 52.835813,181.02812 51.959719,184.09445 59.406526,179.71398 C 66.853333,175.3335 71.671855,175.3335 71.233807,175.77155 z"
     id="path4620"
     style="fill:#506858;fill-opacity:1;fill-rule:evenodd;stroke:none;stroke-width:1;stroke-linecap:round;stroke-linejoin:round;stroke-miterlimit:4;stroke-dasharray:none;stroke-opacity:1" />
  <path
     d="M 96.640556,179.71398 C 94.888366,179.71398 84.813276,190.66516 79.556706,191.54126 C 74.30014,192.41735 64.225048,195.48369 71.233807,191.97931 C 78.242566,188.47493 82.184996,186.72274 86.565466,184.5325 C 90.945946,182.34226 95.764466,179.27593 96.640556,179.71398 z"
     id="path4622"
     style="fill:#506858;fill-opacity:1;fill-rule:evenodd;stroke:none;stroke-width:1;stroke-linecap:round;stroke-linejoin:round;stroke-miterlimit:4;stroke-dasharray:none;stroke-opacity:1" />
  <path
     d="M 29.18125,152.99308 C 29.18125,152.99308 19.982253,162.63013 22.17249,162.63013 C 24.362728,162.63013 30.495392,159.56379 26.114918,163.06817 C 21.734443,166.57255 16.915921,170.07693 20.858348,170.51498 C 24.800775,170.95303 28.305155,171.39108 24.800775,173.58131 C 21.296395,175.77155 16.915921,184.5325 16.915921,184.5325 C 16.915921,184.5325 6.840829,201.61635 12.973494,198.11197 C 19.106158,194.60759 33.123677,194.60759 29.619297,191.97931 C 26.114918,189.35102 12.535446,193.29345 20.858348,188.03688 C 29.18125,182.78031 31.371487,179.71398 28.743203,179.71398 C 26.114918,179.71398 23.486633,182.34226 26.114918,178.39984 C 28.743203,174.45741 33.561725,173.58131 30.057345,170.95303 C 26.552965,168.32474 24.362728,170.07693 27.867108,166.57255 C 31.371487,163.06817 33.561725,162.19208 30.93344,160.43989 C 28.305155,158.6877 28.743203,160.87794 29.18125,157.37356 C 29.619297,153.86918 30.057345,152.99308 29.18125,152.99308 z"
     id="path4624"
     style="fill:#506858;fill-opacity:1;fill-rule:evenodd;stroke:none;stroke-width:1;stroke-linecap:round;stroke-linejoin:round;stroke-miterlimit:4;stroke-dasharray:none;stroke-opacity:1" />
  <path
     d="M 26.114918,262.0669 C 28.305155,261.62885 45.827054,252.86791 43.636817,253.30595 C 41.446579,253.744 34.875867,258.12448 36.19001,254.18205 C 37.504152,250.23962 41.446579,246.29719 41.446579,246.29719 L 38.818294,242.79281 C 38.818294,242.79281 42.760722,238.85039 41.884627,235.78405 C 41.008532,232.71772 44.950959,220.45239 44.950959,220.45239 L 35.313915,240.16453 C 35.313915,240.16453 35.751962,245.85915 34.875867,247.61134 C 33.999772,249.36353 31.371487,254.18205 31.371487,254.18205 L 26.114918,262.0669 z"
     id="path4634"
     style="fill:#506858;fill-opacity:1;fill-rule:evenodd;stroke:none;stroke-width:1;stroke-linecap:round;stroke-linejoin:round;stroke-miterlimit:4;stroke-dasharray:none;stroke-opacity:1" />
  <path
     d="M 24.800775,35.596363 C 22.123796,36.37509 10.165705,49.564762 17.876291,62.339272 C 20.630118,66.901673 21.070924,93.644094 21.070924,98.900664 C 21.070924,104.15723 15.601778,108.31224 14.287636,104.80786 C 12.973494,101.30348 11.520837,90.429264 11.16816,96.112944 C 10.880426,100.75002 17.385099,121.78542 24.393858,127.04199 C 31.402618,132.29856 44.950959,140.72775 43.198769,138.53752 C 41.446579,136.34728 32.68563,124.52 38.818294,126.71023 C 44.950959,128.90047 50.120938,129.14431 45.389006,128.90047 C 32.868941,128.2553 31.88184,76.164661 33.999772,77.648921 C 36.406182,79.335348 27.867108,92.980584 27.867108,92.980584 C 27.867108,92.980584 23.486633,85.533774 25.238823,72.392351 C 26.991013,59.250927 28.743203,46.54755 30.495392,42.167075 C 32.247582,37.786601 24.362728,48.29974 23.486633,50.05193 C 22.610538,51.80412 15.163731,52.242167 19.106158,46.54755 C 23.048585,40.852933 25.67687,34.720268 24.800775,35.596363 z"
     id="path4636"
     style="fill:#506858;fill-opacity:1;fill-rule:evenodd;stroke:none;stroke-width:1;stroke-linecap:round;stroke-linejoin:round;stroke-miterlimit:4;stroke-dasharray:none;stroke-opacity:1" />
  <path
     d="M 129.49413,69.326019 C 129.49413,71.516256 124.6756,118.82538 123.36146,124.95804 C 122.04732,131.09071 82.184996,147.29846 82.184996,147.29846 C 82.184996,147.29846 93.574226,138.97556 98.392746,135.47118 C 103.21128,131.9668 111.09613,126.71023 107.59175,127.58633 C 104.08737,128.46242 104.08737,130.21461 105.83956,127.58633 C 107.59175,124.95804 116.3527,117.94928 116.79075,116.19709 C 117.2288,114.4449 120.73318,92.542534 123.36146,86.409874 C 125.98975,80.277205 129.49413,68.887971 129.49413,69.326019 z"
     id="path4638"
     style="fill:#506858;fill-opacity:1;fill-rule:evenodd;stroke:none;stroke-width:1;stroke-linecap:round;stroke-linejoin:round;stroke-miterlimit:4;stroke-dasharray:none;stroke-opacity:1" />
  <path
     d="M 51.959719,7.123278 C 50.207529,7.999373 33.561725,21.578844 30.495392,24.645176 C 27.42906,27.711509 30.495392,29.901746 35.313915,26.397366 C 40.132437,22.892987 43.198769,31.215889 41.446579,36.034411 C 39.694389,40.852933 31.809535,52.242167 41.008532,43.919265 C 50.207529,35.596363 72.109902,11.503752 69.919665,11.503752 C 67.729428,11.503752 61.158715,17.198369 56.778241,17.198369 C 52.397766,17.198369 52.835813,13.255942 57.654336,10.627657 C 62.472858,7.999373 63.348953,8.43742 58.968478,8.875467 C 54.588003,9.313515 53.711908,11.065705 52.397766,9.313515 C 51.083624,7.561325 51.959719,6.68523 51.959719,7.123278 z"
     id="path4642"
     style="fill:#506858;fill-opacity:1;fill-rule:evenodd;stroke:none;stroke-width:1;stroke-linecap:round;stroke-linejoin:round;stroke-miterlimit:4;stroke-dasharray:none;stroke-opacity:1" />
  <path
     d="M 86.565466,13.69399 C 86.565466,13.69399 91.822036,25.959319 98.830796,28.149556 C 105.83956,30.339794 132.56046,59.250927 119.85708,42.167075 C 107.1537,25.083224 108.46785,24.645176 101.02104,19.826654 C 93.574226,15.008132 86.565466,12.817895 86.565466,13.69399 z"
     id="path4644"
     style="fill:#506858;fill-opacity:1;fill-rule:evenodd;stroke:none;stroke-width:1;stroke-linecap:round;stroke-linejoin:round;stroke-miterlimit:4;stroke-dasharray:none;stroke-opacity:1" />
  <path
     d="M 47.579244,133.71899 C 49.331434,133.71899 74.738186,143.79408 72.109902,143.79408 C 69.481617,143.79408 56.778241,142.04189 51.959719,140.28971 C 47.141196,138.53752 46.703149,134.15704 47.579244,133.71899 z"
     id="path4646"
     style="fill:#506858;fill-opacity:1;fill-rule:evenodd;stroke:none;stroke-width:1;stroke-linecap:round;stroke-linejoin:round;stroke-miterlimit:4;stroke-dasharray:none;stroke-opacity:1" />
  <path
     d="M 184.68811,170.95302 C 184.68811,186.9202 171.94028,199.86415 156.21502,199.86415 C 140.48977,199.86415 127.74194,186.9202 127.74194,170.95302 C 127.74194,154.98584 140.48977,142.04189 156.21502,142.04189 C 171.94028,142.04189 184.68811,154.98584 184.68811,170.95302 z"
     id="path4650"
     style="opacity:0.57425741;fill:#800080;fill-opacity:1;fill-rule:evenodd;stroke:none;stroke-width:1;stroke-linecap:round;stroke-linejoin:round;stroke-miterlimit:4;stroke-dasharray:none;stroke-opacity:1;filter:url(#filter5130)" />
  <path
     d="M 175.92715,170.95303 C 175.92715,181.11396 167.10173,189.35102 156.21501,189.35102 C 145.32831,189.35102 136.50288,181.11396 136.50288,170.95303 C 136.50288,160.7921 145.32831,152.55504 156.21501,152.55504 C 167.10173,152.55504 175.92715,160.7921 175.92715,170.95303 L 175.92715,170.95303 z"
     id="path4648"
     style="opacity:0.57425741;fill:#ef5ba1;fill-opacity:1;fill-rule:evenodd;stroke:none;stroke-width:1;stroke-linecap:round;stroke-linejoin:round;stroke-miterlimit:4;stroke-dasharray:none;stroke-opacity:1;filter:url(#filter5126)" />
  <path
     d="M 165.85206,170.95303 C 165.85206,175.54964 161.53741,179.27593 156.21501,179.27593 C 150.89262,179.27593 146.57797,175.54964 146.57797,170.95303 C 146.57797,166.35642 150.89262,162.63013 156.21501,162.63013 C 161.53741,162.63013 165.85206,166.35642 165.85206,170.95303 z"
     id="path4652"
     style="opacity:0.57425741;fill:#ffd5d5;fill-opacity:1;fill-rule:evenodd;stroke:none;stroke-width:1;stroke-linecap:round;stroke-linejoin:round;stroke-miterlimit:4;stroke-dasharray:none;stroke-opacity:1;filter:url(#filter5122)" />
  <path
     d="M 19.648281,90.802974 C 19.648281,90.802974 27.39194,113.1047 33.27712,122.08735 C 39.162301,131.06999 42.259764,132.61872 42.259764,132.61872 C 42.259764,132.61872 30.79915,125.49456 27.082193,119.60938 C 23.365237,113.7242 17.480057,101.64409 16.860564,97.927134 C 16.241072,94.210184 20.267774,90.802974 19.648281,90.802974 z"
     id="path5620"
     style="fill:#96a88e;fill-opacity:1;fill-rule:evenodd;stroke:none;stroke-width:1;stroke-linecap:round;stroke-linejoin:round;stroke-miterlimit:4;stroke-dasharray:none;stroke-opacity:1" />
  <path
     d="M 27.39194,88.015254 C 27.39194,88.015254 27.39194,96.688154 29.250418,102.88307 C 31.108896,109.078 33.586867,113.41445 33.586867,111.86572 C 33.586867,110.31699 28.630925,90.183474 27.39194,88.015254 z"
     id="path5622"
     style="fill:#96a88e;fill-opacity:1;fill-rule:evenodd;stroke:none;stroke-width:1;stroke-linecap:round;stroke-linejoin:round;stroke-miterlimit:4;stroke-dasharray:none;stroke-opacity:1" />
  <path
     d="M 58.056827,15.224865 C 56.508096,15.844357 32.657628,40.004572 34.206359,38.45584 C 35.755091,36.907108 54.030125,14.295626 54.030125,14.295626 L 58.056827,15.224865 z"
     id="path5624"
     style="fill:#96a88e;fill-opacity:1;fill-rule:evenodd;stroke:none;stroke-width:1;stroke-linecap:round;stroke-linejoin:round;stroke-miterlimit:4;stroke-dasharray:none;stroke-opacity:1" />
  <path
     d="M 89.650956,12.746894 C 90.580196,13.985879 99.872586,23.278269 101.73106,24.517255 C 103.58954,25.75624 100.49208,22.34903 98.633596,18.632074 C 96.775116,14.915118 96.465376,13.366387 94.916646,13.366387 C 93.367906,13.366387 89.650956,13.05664 89.650956,12.746894 z"
     id="path5626"
     style="fill:#96a88e;fill-opacity:1;fill-rule:evenodd;stroke:none;stroke-width:1;stroke-linecap:round;stroke-linejoin:round;stroke-miterlimit:4;stroke-dasharray:none;stroke-opacity:1" />
  <path
     d="M 22.126252,46.509245 C 20.887267,48.367723 19.648281,61.067323 20.57752,66.023264 C 21.506759,70.979206 22.126252,79.342357 22.435998,73.14743 C 22.745745,66.952503 26.462701,38.765586 25.843208,40.004572 C 25.223715,41.243557 22.126252,47.74823 22.126252,46.509245 z"
     id="path5629"
     style="fill:#96a88e;fill-opacity:1;fill-rule:evenodd;stroke:none;stroke-width:1;stroke-linecap:round;stroke-linejoin:round;stroke-miterlimit:4;stroke-dasharray:none;stroke-opacity:1" />
  <path
     d="M 54.339871,8.100699 C 52.79114,8.720192 33.896613,30.712182 33.896613,30.712182 C 33.896613,30.712182 49.38393,9.029938 52.171647,8.410445 C 54.959364,7.790953 54.959364,8.720192 54.339871,8.100699 z"
     id="path5633"
     style="fill:#96a88e;fill-opacity:1;fill-rule:evenodd;stroke:none;stroke-width:1;stroke-linecap:round;stroke-linejoin:round;stroke-miterlimit:4;stroke-dasharray:none;stroke-opacity:1" />
  <path
     d="M 19.958028,47.438484 C 18.719042,49.606708 11.594877,72.218191 11.904623,70.359713 C 12.214369,68.501235 14.072847,49.916455 16.860564,48.057977 C 19.648281,46.199499 20.57752,47.74823 19.958028,47.438484 z"
     id="path5635"
     style="fill:#96a88e;fill-opacity:1;fill-rule:evenodd;stroke:none;stroke-width:1;stroke-linecap:round;stroke-linejoin:round;stroke-miterlimit:4;stroke-dasharray:none;stroke-opacity:1" />
  <path
     d="M 52.481393,158.01792 C 52.481393,158.01792 87.172986,154.92046 83.456026,154.30097 C 79.739066,153.68147 59.915305,152.44249 53.100886,152.44249 C 46.286466,152.44249 53.100886,159.8764 52.481393,158.01792 z"
     id="path5637"
     style="fill:#96a88e;fill-opacity:1;fill-rule:evenodd;stroke:none;stroke-width:1;stroke-linecap:round;stroke-linejoin:round;stroke-miterlimit:4;stroke-dasharray:none;stroke-opacity:1" />
  <path
     d="M 101.42132,234.83501 C 98.943346,235.45451 78.500086,250.32233 78.500086,250.32233 L 102.04081,227.4011 L 101.42132,234.83501 z"
     id="path5639"
     style="fill:#96a88e;fill-opacity:1;fill-rule:evenodd;stroke:none;stroke-width:1;stroke-linecap:round;stroke-linejoin:round;stroke-miterlimit:4;stroke-dasharray:none;stroke-opacity:1" />
  <path
     d="M 49.38393,229.87907 C 52.481393,231.73755 72.924651,243.50791 72.924651,243.50791 L 52.481393,226.78161 L 49.38393,229.87907 z"
     id="path5641"
     style="fill:#96a88e;fill-opacity:1;fill-rule:evenodd;stroke:none;stroke-width:1;stroke-linecap:round;stroke-linejoin:round;stroke-miterlimit:4;stroke-dasharray:none;stroke-opacity:1" />
  <path
     d="M 56.817842,220.58668 L 75.402626,229.25958 L 61.154291,215.01125 L 56.817842,220.58668 z"
     id="path5643"
     style="fill:#96a88e;fill-opacity:1;fill-rule:evenodd;stroke:none;stroke-width:1;stroke-linecap:round;stroke-linejoin:round;stroke-miterlimit:4;stroke-dasharray:none;stroke-opacity:1" />
  <path
     d="M 113.19168,179.08067 L 106.99675,192.70951 L 109.47472,177.84169 L 113.19168,179.08067 z"
     id="path5647"
     style="fill:#96a88e;fill-opacity:1;fill-rule:evenodd;stroke:none;stroke-width:1;stroke-linecap:round;stroke-linejoin:round;stroke-miterlimit:4;stroke-dasharray:none;stroke-opacity:1" />
  <path
     d="M 32.657628,178.46118 C 29.560164,178.46118 16.550818,180.93915 16.550818,180.93915 L 33.896613,170.40778 L 32.657628,178.46118 z"
     id="path5650"
     style="fill:#96a88e;fill-opacity:1;fill-rule:evenodd;stroke:none;stroke-width:1;stroke-linecap:round;stroke-linejoin:round;stroke-miterlimit:4;stroke-dasharray:none;stroke-opacity:1" />
</svg>
