<?xml version="1.0" encoding="utf-8"?>
<!-- Generator: Adobe Illustrator 12.0.1, SVG Export Plug-In . SVG Version: 6.00 Build 51448)  -->
<!DOCTYPE svg PUBLIC "-//W3C//DTD SVG 1.1//EN" "http://www.w3.org/Graphics/SVG/1.1/DTD/svg11.dtd" [
	<!ENTITY ns_svg "http://www.w3.org/2000/svg">
	<!ENTITY ns_xlink "http://www.w3.org/1999/xlink">
]>
<svg  version="1.1" id="Layer_1" xmlns="&ns_svg;" xmlns:xlink="&ns_xlink;" width="321.6" height="251.52"
	 viewBox="0 0 321.6 251.52" overflow="visible" enable-background="new 0 0 321.6 251.52" xml:space="preserve">
<g>
	<path fill-rule="evenodd" clip-rule="evenodd" fill="#FFFFFF" d="M189.12,5.76c-1.668,9.302-7.673,17.845-12.479,26.88
		c-2.305,4.331-4.983,7.991-7.681,12.48c-4.516,7.516-8.109,15.168-13.439,22.08c0.338-5.59,4.694-10.349,7.68-15.36
		C171.687,37.594,180.842,20.991,189.12,5.76z"/>
	<path fill-rule="evenodd" clip-rule="evenodd" fill="#FFFFFF" d="M264,57.6c1.551-0.271,1.653,0.907,2.881,0.96
		c-5.285,9.928-12.461,20.025-19.2,29.76c-4.983,7.199-9.86,13.882-15.36,21.12c-1.167,1.536-1.372,6.771-4.8,4.8
		c-0.221-5.149,3.92-10.288,6.72-14.4c3.068-4.505,6.56-8.849,9.601-13.44C250.488,76.362,257.619,67.489,264,57.6z"/>
	<path fill-rule="evenodd" clip-rule="evenodd" fill="#FFE384" d="M109.44,91.2c0.968,2.887-2.139,1.701-3.84,1.92
		C106.231,91.832,107.652,91.332,109.44,91.2z"/>
	<path fill-rule="evenodd" clip-rule="evenodd" d="M57.6,107.52c5.405-1.865,16.198-0.853,17.28,4.8
		c-0.086,4.94-6.417,5.786-10.56,3.84c-0.919-3.479,4.144-0.976,4.8-2.879C67.214,109.425,62.202,108.678,57.6,107.52z"/>
	<path fill-rule="evenodd" clip-rule="evenodd" fill="#FFFFFF" d="M206.4,126.72c1.538-2.696,3.588,2.081,5.76,1.92
		C210.285,131.673,207.104,128.027,206.4,126.72z"/>
	<path fill-rule="evenodd" clip-rule="evenodd" fill="#FFFFFF" d="M71.04,138.24c2.713-0.793,2.487,1.354,4.8,0.96
		c0.774,4.295-1.708,5.332-4.8,5.761C71.04,142.72,71.04,140.48,71.04,138.24z"/>
	<path fill-rule="evenodd" clip-rule="evenodd" fill="#FFFFFF" d="M77.76,140.16c1.6,0,3.2,0,4.8,0
		c0.566,4.087-0.317,6.724-4.8,5.761C77.76,144,77.76,142.08,77.76,140.16z"/>
	<path fill-rule="evenodd" clip-rule="evenodd" fill="#FFFFFF" d="M85.44,141.12c2.713-0.793,2.487,1.354,4.8,0.96
		c0.127,3.327-0.827,5.573-4.8,4.801C85.44,144.96,85.44,143.041,85.44,141.12z"/>
	<path fill-rule="evenodd" clip-rule="evenodd" fill="#FFFFFF" d="M92.16,142.08c1.6,0,3.2,0,4.8,0c0,1.601,0,3.2,0,4.801
		C92.623,148.017,92.801,144.639,92.16,142.08z"/>
	<path fill-rule="evenodd" clip-rule="evenodd" fill="#FFFFFF" d="M98.88,143.041c3.281-0.401,5.47,0.289,4.8,3.84
		c-1.6,0-3.2,0-4.8,0C98.88,145.6,98.88,144.32,98.88,143.041z"/>
	<path fill-rule="evenodd" clip-rule="evenodd" fill="#FFFFFF" d="M105.6,144c1.673,0.887,5.152-0.033,4.8,2.88
		C107.864,146.856,104.385,147.775,105.6,144z"/>
	<path fill-rule="evenodd" clip-rule="evenodd" fill="#FFFFFF" d="M120.96,144.96c-1.021,2.179-6.035,0.365-8.64,0.96
		C114.192,144.577,118.766,143.047,120.96,144.96z"/>
	<path fill-rule="evenodd" clip-rule="evenodd" d="M61.44,200.64c-5.855,1.997-13.445-2.541-19.2-3.84
		C46.855,192.712,55.068,200.23,61.44,200.64z"/>
	<path fill-rule="evenodd" clip-rule="evenodd" d="M60.48,194.88c2.549,0.971,5.461,1.578,5.76,4.8
		C63.507,198.893,61.366,197.513,60.48,194.88z"/>
	<path fill-rule="evenodd" clip-rule="evenodd" fill="#FFFFFF" d="M72.96,204.48c-0.106,1.813-3.174,0.666-2.88,2.88
		C67.488,206.501,70.526,203.463,72.96,204.48z"/>
	<path fill-rule="evenodd" clip-rule="evenodd" d="M58.56,205.44c-2.599,1.882-4.958,4.002-9.6,3.84
		C51.45,207.29,54.65,206.01,58.56,205.44z"/>
	<path fill-rule="evenodd" clip-rule="evenodd" fill="#FFFFFF" d="M271.68,65.28c-1.783,8.271-12.391,17.01-16.32,26.88
		C257.201,83.435,266.869,74.233,271.68,65.28z"/>
	<path fill-rule="evenodd" clip-rule="evenodd" d="M321.6,244.8c0,2.24,0,4.479,0,6.72c-78.237-3.019-165.897-1.92-249.6-1.92
		c-19.448,0-38.348-0.787-55.68,0c-4.238,0.192-15.206,3.699-16.32-1.92c0.861-6.257,10.231-3.84,16.32-3.84
		c6.976,0,13.918,0,19.2,0c9.796-11.324,17.771-24.47,30.72-32.641c-1.513-4.618,0.521-8.271,4.8-9.6
		c-4.383-2.339-4.402-9.332-7.68-15.36c-1.863-3.426-5.735-5.084-6.72-8.64c-0.739-2.668,0.399-6.838,0-10.56
		c-0.846-7.885-2.834-13.712,1.92-21.12c3.4-0.44,5.544-2.136,9.6-1.92c1.978-9.49-8.27-11.363-4.8-19.2
		c-9.622-9.101-21.186-15.212-29.76-27.84c-5.761-8.484-13.507-19.088-7.68-31.68c10.458,2.428,17.448,10.724,26.88,15.36
		c12.654,6.22,25.146,12.417,46.08,11.52c2.178-2.059,4.836-7.414,7.68-5.76c0.294,2.214-2.773,1.066-2.88,2.88
		c6.402-0.009,18.095-3.017,24-6.72c-3.414-6.141-12.297-11.005-8.64-21.12c6.811-0.589,11.362,9.014,18.24,11.52
		c6.372-3.634,8.895-11.322,12.48-17.28C159.948,38.749,172.381,20.286,180.48,0c10.391,1.097,19.991,6.799,28.8,11.52
		c26.135,14.006,51.668,32.786,71.04,54.72c-9.832,20.888-25.438,36.002-37.439,54.72c6.492,4.067,17.48,3.639,25.92,5.76
		c-4.786,7.123-16.992,11.715-26.88,10.56c-0.236,4.075,2.511,5.169,1.92,9.601C285.111,164.169,301.613,206.227,321.6,244.8z
		 M163.2,51.84c-2.985,5.011-7.342,9.77-7.68,15.36c5.33-6.912,8.924-14.564,13.439-22.08c2.697-4.489,5.376-8.149,7.681-12.48
		c4.807-9.035,10.812-17.578,12.479-26.88C180.842,20.991,171.687,37.594,163.2,51.84z M243.84,86.4
		c-3.041,4.591-6.532,8.935-9.601,13.44c-2.8,4.112-6.94,9.251-6.72,14.4c3.428,1.971,3.633-3.265,4.8-4.8
		c5.5-7.238,10.377-13.921,15.36-21.12c6.739-9.734,13.915-19.832,19.2-29.76c-1.228-0.053-1.33-1.23-2.881-0.96
		C257.619,67.489,250.488,76.362,243.84,86.4z M255.36,92.16c3.93-9.87,14.537-18.608,16.32-26.88
		C266.869,74.233,257.201,83.435,255.36,92.16z M60.48,167.041c1.265,5.66-0.302,12.677,3.84,15.359
		c13.366-1.033,18.49-10.31,24-19.2c1.788,9.261-7.056,15.9-12.48,21.12c-1.868,2.097-10.567,0.974-7.68,4.8
		c5.917,2.593,18.451-1.997,22.08-3.84c-1.954,7.09-15.695,9.074-21.12,6.721c3.073,2.046,3.233,7.007,7.68,7.68
		c9.187-3.934,15.637-10.604,24.96-14.4c-0.306-2.226,0.154-3.686,0.96-4.8c3.461-2.747,8.346-5.48,11.52-9.6
		c2.343-3.041,2.641-9.521,6.72-8.641c-2.291,9.555-13.464,15.328-16.32,21.12c16.462-10.418,33.231-20.528,51.84-28.8
		c6.329-8.725,3.107-16.931-4.8-22.08c-11.548-7.521-34.221-4.841-42.24-14.4c20.43,7.301,61.163,3.831,52.8,33.601
		c10.002-1.711,21.502-6.395,17.28-19.2c-6.361-0.601-4.065,7.454-10.561,6.72c1.221-12.151,19.394-16.74,30.721-12.479
		c-4.924,2.437-13.604,1.117-17.28,4.8c5.345,3.25,1.844,11.135-0.96,14.4c13.066-0.054,14.035-12.205,22.08-17.28
		c-4.104-7.471-17.937-9.064-28.8-6.72c-2.905,2.215-2.222,8.019-6.721,8.64c-2.411-17.329,22.18-13.501,29.761-12.48
		c-4.947-0.144-7.52-6.8-11.521-4.799c-1.945-4.038-7.354-8.98-11.52-7.68c-3.78-7.442-10.843-9.364-19.2-14.4
		c-6.027-3.632-11.228-9.123-15.36-9.6c-8.459-0.978-12.315,5.685-20.16,8.64c-1.992,0.75-5.989-2.761-5.76,2.88
		c11.199,1.912,19.49-7.385,32.64-6.72c5.134,2.751,4.981,5.683,9.6,9.6c-2.227,4.827-0.452,13.18-7.68,14.4
		c-4.193,0.708-13.252-5.54-11.52-7.68c5.48,0.57,8.078,7.063,14.4,3.84c0.147-4.374,0.793-3.767,0-7.68
		c-5.859-3.519-9.621-5.901-16.32-5.76c-7.254,0.153-15.1,4.858-22.08,4.8c-5.114-0.042-10.254-3.539-15.36-3.84
		c-6.771-0.399-13.023,2.001-19.2,0.96c-2.021-0.341-4.237-2.082-6.72-2.88c-2.198-0.707-6.05-0.264-7.68-0.96
		c-1.766-0.755-4.453-3.525-6.72-4.8c-10.753-6.049-21.954-11.711-29.76-18.24c-3.564,12.175,2.526,16.356,7.68,24
		c3.558,5.276,5.87,11.058,9.6,14.4c6.181,5.539,14.485,8.526,19.2,13.44c0.5,1.42,1.42,2.419,1.92,3.84
		c1.21,1.684-0.972,5.789,0.96,8.64c9.125,4.545,24.89,7.51,38.4,8.64c7.739,0.647,18.241,1.899,22.08-2.88
		c-17.047-3.113-31.774-8.546-38.4-22.08c-2.597,6.208-16.183,10.021-22.08,6.721c7.212-3.028,18.484-1.997,19.2-11.521
		c-6.51-8.367-28.042-7.93-32.64-14.4c12.094,2.946,25.824,4.256,34.56,10.56c2.138,5.258,2.392,8.924,5.76,12.48
		c12.921,13.642,51.886,12.536,58.56,24.96c1.865,3.473,1.564,9.747-3.84,9.6c0.415-2.584,3.604-4.923,0.96-7.68
		c-2.613-2.507-6.816-3.424-10.56-4.801c3.1,13.267-9.697,22.533-18.24,24c5.46-5.638,18.733-11.872,12.48-23.039
		c-1.752,2.088-2.841,4.838-5.76,5.76c-19.036,5.277-50.968,6.374-67.2,0.96c0.533,0.003,1.09-0.777,0-0.96
		C54.999,154.731,59.363,162.042,60.48,167.041z M105.6,93.12c1.701-0.219,4.808,0.967,3.84-1.92
		C107.652,91.332,106.231,91.832,105.6,93.12z M242.88,108.48C236.413,116.124,242.409,113.723,242.88,108.48L242.88,108.48z
		 M212.16,128.64c-2.172,0.161-4.222-4.616-5.76-1.92C207.104,128.027,210.285,131.673,212.16,128.64z M196.8,143.041
		c12.713-2.192,29.231,0.203,39.359,0c-2.303-3.654-6.82-1.765-4.8-5.761c-7.295-6.49-19.592,0.601-27.84,0
		C209.971,129.138,196.49,137.522,196.8,143.041z M71.04,144.96c3.092-0.429,5.574-1.466,4.8-5.761
		c-2.313,0.394-2.086-1.753-4.8-0.96C71.04,140.48,71.04,142.72,71.04,144.96z M77.76,145.92c4.483,0.963,5.366-1.674,4.8-5.761
		c-1.6,0-3.2,0-4.8,0C77.76,142.08,77.76,144,77.76,145.92z M85.44,146.88c3.973,0.772,4.927-1.474,4.8-4.801
		c-2.313,0.394-2.086-1.753-4.8-0.96C85.44,143.041,85.44,144.96,85.44,146.88z M96.96,146.88c0-1.601,0-3.2,0-4.801
		c-1.6,0-3.2,0-4.8,0C92.801,144.639,92.623,148.017,96.96,146.88z M98.88,146.88c1.6,0,3.2,0,4.8,0
		c0.67-3.551-1.519-4.241-4.8-3.84C98.88,144.32,98.88,145.6,98.88,146.88z M110.4,146.88c0.353-2.913-3.127-1.993-4.8-2.88
		C104.385,147.775,107.864,146.856,110.4,146.88z M112.32,145.92c2.605-0.595,7.619,1.219,8.64-0.96
		C118.766,143.047,114.192,144.577,112.32,145.92z M70.08,207.36c-0.294-2.214,2.773-1.066,2.88-2.88
		C70.526,203.463,67.488,206.501,70.08,207.36z"/>
	<path fill-rule="evenodd" clip-rule="evenodd" fill="#FFE384" d="M60.48,148.8c1.09,0.183,0.533,0.963,0,0.96
		c16.232,5.414,48.164,4.317,67.2-0.96c2.918-0.922,4.008-3.672,5.76-5.76c6.253,11.167-7.02,17.401-12.48,23.039
		c8.543-1.467,21.339-10.733,18.24-24c3.744,1.377,7.947,2.294,10.56,4.801c2.644,2.757-0.545,5.096-0.96,7.68
		c5.404,0.147,5.706-6.127,3.84-9.6c-6.674-12.424-45.639-11.318-58.56-24.96c-3.368-3.557-3.623-7.223-5.76-12.48
		c-8.736-6.304-22.466-7.614-34.56-10.56c4.598,6.47,26.13,6.033,32.64,14.4c-0.716,9.523-11.988,8.492-19.2,11.521
		c5.897,3.3,19.483-0.513,22.08-6.721c6.626,13.534,21.354,18.967,38.4,22.08c-3.839,4.779-14.341,3.527-22.08,2.88
		c-13.511-1.13-29.276-4.095-38.4-8.64c-1.932-2.851,0.25-6.956-0.96-8.64c-0.5-1.421-1.42-2.42-1.92-3.84
		c-4.715-4.914-13.019-7.901-19.2-13.44c-3.73-3.342-6.042-9.124-9.6-14.4c-5.154-7.644-11.245-11.825-7.68-24
		c7.807,6.529,19.007,12.191,29.76,18.24c2.267,1.275,4.954,4.045,6.72,4.8c1.63,0.696,5.482,0.253,7.68,0.96
		c2.482,0.798,4.699,2.539,6.72,2.88c6.177,1.042,12.429-1.359,19.2-0.96c5.106,0.301,10.246,3.797,15.36,3.84
		c6.98,0.058,14.826-4.646,22.08-4.8c6.699-0.142,10.461,2.241,16.32,5.76c0.793,3.914,0.147,3.306,0,7.68
		c-6.322,3.224-8.92-3.27-14.4-3.84c-1.732,2.14,7.327,8.388,11.52,7.68c7.228-1.22,5.454-9.573,7.68-14.4
		c-4.619-3.917-4.466-6.849-9.6-9.6c-13.15-0.665-21.441,8.632-32.64,6.72c-0.229-5.641,3.768-2.129,5.76-2.88
		c7.845-2.956,11.701-9.618,20.16-8.64c4.132,0.478,9.333,5.968,15.36,9.6c8.357,5.036,15.42,6.958,19.2,14.4
		c4.165-1.3,9.574,3.643,11.52,7.68c4.001-2,6.573,4.656,11.521,4.799c-7.581-1.021-32.172-4.849-29.761,12.48
		c4.499-0.621,3.815-6.425,6.721-8.64c10.863-2.345,24.696-0.751,28.8,6.72c-8.045,5.075-9.014,17.227-22.08,17.28
		c2.804-3.266,6.305-11.15,0.96-14.4c3.677-3.683,12.356-2.363,17.28-4.8c-11.327-4.261-29.5,0.328-30.721,12.479
		c6.495,0.734,4.199-7.32,10.561-6.72c4.222,12.806-7.278,17.489-17.28,19.2c8.363-29.77-32.37-26.3-52.8-33.601
		c8.02,9.56,30.692,6.88,42.24,14.4c7.907,5.149,11.129,13.355,4.8,22.08c-18.608,8.271-35.378,18.382-51.84,28.8
		c2.855-5.792,14.029-11.565,16.32-21.12c-4.079-0.881-4.377,5.6-6.72,8.641c-3.174,4.119-8.059,6.853-11.52,9.6
		c-0.806,1.114-1.266,2.574-0.96,4.8c-9.323,3.797-15.773,10.467-24.96,14.4c-4.447-0.673-4.606-5.634-7.68-7.68
		c5.424,2.354,19.166,0.369,21.12-6.721c-3.629,1.843-16.162,6.433-22.08,3.84c-2.888-3.826,5.812-2.703,7.68-4.8
		c5.424-5.22,14.268-11.859,12.48-21.12c-5.51,8.891-10.634,18.167-24,19.2c-4.142-2.683-2.575-9.699-3.84-15.359
		C59.363,162.042,54.999,154.731,60.48,148.8z M120.96,112.32c-4.7-1.7-10.706-2.094-12.48-6.72c5.187-0.995,7.78,5.616,10.56,3.84
		c-0.372-1.941,18.541,0.88,16.32-5.76c-5.433,0.932-11.382,4.928-16.32,0.96c5.123,0.323,5.74-3.86,9.6-4.8
		c5.524-1.974,11.54,4.618,13.44,0c-13.354-4.435-34.389-0.672-40.32,8.64c2.188,1.318,3.609-2.475,3.84,0
		c-2.989,1.832,1.5,4.168,0.96,6.72c8.346,6.999,20.606,0.904,29.76,0.96c4.084,0.025,9.273,3.292,11.52,0
		c-11.169-6.372-36.299,5.872-39.36-5.76C109.659,113.059,118.924,116.799,120.96,112.32z M69.12,113.28
		c-0.656,1.904-5.719-0.599-4.8,2.879c4.143,1.946,10.474,1.101,10.56-3.84c-1.082-5.653-11.875-6.665-17.28-4.8
		C62.202,108.678,67.214,109.425,69.12,113.28z"/>
	<path fill-rule="evenodd" clip-rule="evenodd" fill="#FFFFFF" d="M242.88,108.48C242.409,113.723,236.413,116.124,242.88,108.48
		L242.88,108.48z"/>
	<path fill-rule="evenodd" clip-rule="evenodd" fill="#FFFFFF" d="M203.52,137.28c8.248,0.601,20.545-6.49,27.84,0
		c-2.021,3.996,2.497,2.106,4.8,5.761c-10.128,0.203-26.646-2.192-39.359,0C196.49,137.522,209.971,129.138,203.52,137.28z"/>
	<path fill-rule="evenodd" clip-rule="evenodd" d="M58.56,211.2c-2.143,3.938-7.536,4.625-11.52,6.721
		C49.832,214.632,53.926,212.646,58.56,211.2z"/>
	<path fill-rule="evenodd" clip-rule="evenodd" d="M108.48,110.4c3.061,11.632,28.19-0.612,39.36,5.76
		c-2.247,3.292-7.436,0.025-11.52,0c-9.154-0.056-21.414,6.039-29.76-0.96c0.541-2.551-3.949-4.888-0.96-6.72
		c-0.231-2.475-1.652,1.318-3.84,0c5.932-9.312,26.966-13.075,40.32-8.64c-1.9,4.618-7.916-1.974-13.44,0
		c-3.86,0.94-4.477,5.124-9.6,4.8c4.938,3.968,10.887-0.028,16.32-0.96c2.221,6.64-16.692,3.818-16.32,5.76
		c-2.78,1.776-5.373-4.834-10.56-3.84c1.774,4.626,7.78,5.02,12.48,6.72C118.924,116.799,109.659,113.059,108.48,110.4z"/>
</g>
</svg>
