<?xml version="1.0" encoding="UTF-8" standalone="no"?>
<!-- Created with Inkscape (http://www.inkscape.org/) -->
<svg
   xmlns:svg="http://www.w3.org/2000/svg"
   xmlns="http://www.w3.org/2000/svg"
   xmlns:xlink="http://www.w3.org/1999/xlink"
   xmlns:inkscape="http://www.inkscape.org/namespaces/inkscape"
   version="1.0"
   width="200.01878"
   height="286.4791"
   id="svg2"
   style="display:inline">
  <defs
     id="defs4">
    <linearGradient
       id="linearGradient3892">
      <stop
         id="stop3894"
         style="stop-color:#000000;stop-opacity:1"
         offset="0" />
      <stop
         id="stop3896"
         style="stop-color:#4d4d4d;stop-opacity:1"
         offset="1" />
    </linearGradient>
    <filter
       id="filter3663">
      <feGaussianBlur
         inkscape:collect="always"
         stdDeviation="0.48009458"
         id="feGaussianBlur3665" />
    </filter>
    <filter
       id="filter5122"
       x="-0.64170349"
       width="2.283407"
       y="-0.74302506"
       height="2.4860501">
      <feGaussianBlur
         inkscape:collect="always"
         stdDeviation="5.1534371"
         id="feGaussianBlur5124" />
    </filter>
    <filter
       id="filter5126"
       x="-0.31372169"
       width="1.6274434"
       y="-0.33613038"
       height="1.6722608">
      <feGaussianBlur
         inkscape:collect="always"
         stdDeviation="5.1534371"
         id="feGaussianBlur5128" />
    </filter>
    <filter
       id="filter5130"
       x="-0.21719193"
       width="1.4343839"
       y="-0.21390115"
       height="1.4278023">
      <feGaussianBlur
         inkscape:collect="always"
         stdDeviation="5.1534371"
         id="feGaussianBlur5132" />
    </filter>
    <filter
       id="filter5372"
       x="-0.078386277"
       width="1.1567726"
       y="-0.35103416"
       height="1.7020683">
      <feGaussianBlur
         inkscape:collect="always"
         stdDeviation="2.9472514"
         id="feGaussianBlur5374" />
    </filter>
    <filter
       height="1.2460632"
       y="-0.12303159"
       width="1.5848594"
       x="-0.29242972"
       id="filter4342">
      <feGaussianBlur
         id="feGaussianBlur4344"
         stdDeviation="1.4618913"
         inkscape:collect="always" />
    </filter>
    <filter
       id="filter4318">
      <feGaussianBlur
         id="feGaussianBlur4320"
         stdDeviation="1.2039195"
         inkscape:collect="always" />
    </filter>
    <linearGradient
       x1="32.370262"
       y1="51.091034"
       x2="27.41432"
       y2="118.61574"
       id="linearGradient3898"
       xlink:href="#linearGradient3892"
       gradientUnits="userSpaceOnUse" />
  </defs>
  <g
     transform="translate(-25.111833,-10.606405)"
     id="layer3"
     style="display:inline" />
  <g
     transform="translate(224.51548,-436.20524)"
     id="layer2"
     style="display:inline">
    <path
       d="M -195.14087,715.79312 C -195.14087,715.79312 -175.86678,697.39513 -158.34489,698.27122 C -140.82299,699.14732 -118.04452,696.51903 -107.53138,699.14732 C -97.018236,701.7756 -92.806324,712.54535 -92.806324,712.54535 C -92.806324,712.54535 -139.9469,720.1736 -155.7166,718.42141 C -171.48631,716.66922 -195.14087,716.66922 -195.14087,715.79312 z"
       id="path4600"
       style="opacity:1;fill:#000000;fill-opacity:1;fill-rule:evenodd;stroke:#000000;stroke-width:1;stroke-linecap:round;stroke-linejoin:round;stroke-miterlimit:4;stroke-dasharray:none;stroke-opacity:1;display:inline" />
    <path
       d="M -88.263181,711.11796 C -85.404901,722.78587 -108.59347,719.49242 -122.49445,716.12149 C -140.22731,722.66809 -140.27349,720.45248 -140.27134,713.11749 C -140.26893,704.92553 -135.10468,697.47479 -116.86166,697.47479 C -98.618628,697.47479 -90.486951,701.3335 -88.263181,711.11796 z"
       id="path4561"
       style="fill:#806052;fill-opacity:1;fill-rule:nonzero;stroke:#000000;stroke-width:0.73571539;stroke-miterlimit:4;stroke-opacity:1" />
    <path
       d="M -140.27847,715.37277 C -122.60257,715.60339 -100.93754,714.95569 -87.316811,716.07915 L -88.942991,719.12474 L -110.0589,719.2343 C -116.30877,716.21149 -126.30438,718.27246 -128.39259,719.83114 L -140.27847,719.83974 L -140.27847,715.37277 z"
       id="path4563"
       style="fill:#6d6c6e;fill-opacity:1;fill-rule:nonzero;stroke:#000000;stroke-width:0.45498395;stroke-linecap:round;stroke-linejoin:round;stroke-miterlimit:4;stroke-opacity:1" />
    <g
       transform="matrix(0.8369066,-0.1689058,0.1404842,0.9480679,-23.266945,103.92288)"
       id="g4090" />
    <path
       d="M -151.79974,712.18463 C -151.79974,718.70269 -149.86437,719.84393 -165.84351,719.84393 C -181.82265,719.84393 -188.76045,719.66011 -188.76045,713.14204 C -188.76045,706.62398 -184.23496,700.69568 -168.25582,700.69568 C -152.27668,700.69568 -151.79974,705.66656 -151.79974,712.18463 z"
       id="path4567"
       style="fill:#806052;fill-opacity:1;fill-rule:nonzero;stroke:#000000;stroke-width:0.61419111;stroke-miterlimit:4;stroke-opacity:1;display:inline" />
    <rect
       width="36.225746"
       height="3.5982008"
       x="-188.00745"
       y="715.79913"
       id="rect4569"
       style="fill:#6d6c6e;fill-opacity:1;fill-rule:nonzero;stroke:#000000;stroke-width:0.61419111;stroke-linecap:round;stroke-linejoin:round;stroke-miterlimit:4;stroke-dasharray:none;stroke-opacity:1;display:inline" />
    <g
       transform="matrix(0.8369066,-0.1689058,0.1404842,0.9480679,-23.459515,411.83046)"
       id="g3055" />
    <path
       d="M -168.44404,689.44983 C -169.05728,675.46785 -166.85746,663.87495 -164.24587,647.73956 C -166.79441,634.72497 -167.66341,625.92865 -172.18318,613.84262 L -176.91576,648.16479 L -193.7915,643.73719 C -193.41824,625.88424 -190.12108,602.1642 -179.20432,595.17516 L -158.45618,587.40679 L -148.20555,555.65516 L -126.08429,558.05266 L -122.14145,587.64365 L -106.69893,594.7667 C -103.14254,596.97922 -98.655766,607.85731 -95.709836,616.69913 C -92.509306,619.50733 -86.065916,615.61933 -72.710426,610.69901 L -68.658646,625.32371 C -75.718936,629.50784 -92.204176,639.49482 -99.164006,639.17765 C -109.87826,637.39341 -110.64655,627.51858 -114.30428,622.18112 C -114.28001,634.05868 -116.51027,636.15334 -115.73413,645.87445 L -115.53957,687.90929 L -133.76004,688.98503 L -138.68549,648.23728 L -148.40374,689.54368 L -168.44404,689.44983 z"
       id="path3057"
       style="fill:#e9c6af;fill-opacity:1;fill-rule:nonzero;stroke:#000000;stroke-width:0.96141565;stroke-linecap:round;stroke-linejoin:round;stroke-miterlimit:4;stroke-opacity:1" />
    <path
       d="M -92.462496,617.40004 C -95.173966,619.10446 -97.230136,624.72578 -98.416766,628.67621"
       id="path3065"
       style="fill:none;fill-rule:evenodd;stroke:#000000;stroke-width:0.91585451px;stroke-linecap:butt;stroke-linejoin:miter;stroke-opacity:1" />
    <g
       transform="matrix(0.8369066,-0.1689058,0.1404842,0.9480679,-242.96585,-53.22716)"
       id="g3729" />
    <path
       d="M -193.65564,563.39394 C -193.65564,563.39394 -197.99209,564.63293 -202.32854,565.25242 C -206.66499,565.87191 -208.52347,567.1109 -208.52347,567.1109 L -212.85991,591.89061 C -211.36616,588.03389 -199.11538,573.08887 -195.20438,576.40329 C -192.10691,578.88126 -173.21238,587.55416 -171.35391,590.65162 C -169.49543,593.74908 -144.71572,606.75843 -144.71572,606.75843 L -108.16565,596.84655 L -102.59022,585.69568 C -102.59022,585.69568 -93.29783,587.55416 -88.96138,578.26177 C -84.62493,568.96938 -82.76645,559.05749 -82.76645,559.05749 C -82.76645,559.05749 -76.57153,557.19902 -84.00544,557.19902 C -91.43935,557.19902 -193.65564,563.39394 -193.65564,563.39394 z"
       id="path6863"
       style="fill:#2c3731;fill-opacity:1;fill-rule:evenodd;stroke:none;stroke-width:0.5;stroke-linecap:round;stroke-linejoin:round;stroke-miterlimit:4;stroke-dasharray:none;stroke-opacity:1" />
    <path
       d="M -156.12163,590.18127 C -139.73783,607.67649 -124.04407,609.30069 -109.31122,588.82394 C -94.75304,597.17201 -102.83545,591.26886 -88.74,617.36097 C -93.97991,619.27334 -97.47341,626.92017 -102.71333,626.03294 L -105.29105,613.19091 L -93.79111,703.94558 C -112.99251,714.52438 -135.09288,732.14578 -153.35316,711.71778 C -163.67577,700.16978 -187.4685,707.00018 -191.49126,715.49598 C -192.52737,712.46368 -191.08538,702.14338 -188.5821,689.29958 C -183.21463,661.7603 -172.96791,622.61986 -171.80845,618.84709 L -175.8805,634.37744 C -188.5982,635.31645 -190.60265,628.07947 -197.32858,625.32857 C -182.12113,596.46523 -178.71741,585.87422 -156.12163,590.18127 z"
       id="path6461"
       style="fill:#2c3731;fill-opacity:1;fill-rule:nonzero;stroke:#000000;stroke-width:0.91585451;stroke-linecap:round;stroke-linejoin:round;stroke-miterlimit:4;stroke-opacity:1" />
    <path
       d="M 114.76845,604.67764 L 128.78597,604.67764 C 94.900505,619.56181 100.52,649.31471 108.21494,647.97102 C 100.13126,647.90088 96.744845,644.34675 91.989975,642.34973 C 90.878875,625.38893 97.353895,607.78418 114.76845,604.67764 z"
       transform="matrix(0.9192722,9.3864454e-2,-9.5588815e-2,0.9026892,-212.22548,33.65946)"
       id="path6465"
       style="opacity:0.51052629;fill:#999999;fill-opacity:1;fill-rule:nonzero;stroke:none;stroke-width:1;stroke-linecap:round;stroke-linejoin:round;stroke-miterlimit:4;stroke-opacity:1;filter:url(#filter4318)" />
    <path
       d="M -145.33522,652.60089 C -149.33221,662.10834 -170.19523,676.11028 -177.54884,668.08821 C -181.26579,662.51277 -182.50478,655.69835 -182.50478,655.69835 L -184.98275,670.56618 C -165.34007,688.53878 -156.8566,668.09655 -144.09623,659.41531 C -139.75978,657.55683 -142.85725,654.45937 -142.85725,654.45937 L -145.33522,652.60089 z"
       id="path6824"
       style="fill:#d6007f;fill-opacity:1;fill-rule:evenodd;stroke:#000000;stroke-width:0.5;stroke-linecap:round;stroke-linejoin:round;stroke-miterlimit:4;stroke-dasharray:none;stroke-opacity:1" />
    <path
       d="M -207.90397,566.49141 C -207.90397,566.49141 -189.93869,580.73974 -176.30985,587.55416 C -162.68101,594.36858 -140.37927,603.04147 -137.28181,606.13894 C -134.18435,609.2364 -136.04282,631.53813 -136.04282,631.53813 L -127.98942,630.91864 C -127.98942,630.91864 -129.8479,616.67031 -127.36993,609.85589 C -124.89196,603.04147 -124.27246,601.80249 -118.69703,598.08553 C -113.12159,594.36858 -112.5021,591.27111 -102.59022,588.17365 C -82.75581,584.13259 -83.00387,575.05028 -80.90798,557.19902 L -86.48341,557.81851 C -89.42775,578.84616 -87.66919,578.40907 -105.06819,585.07619 C -111.88261,588.17365 -122.41398,593.74908 -126.75043,599.32452 C -131.08688,604.89995 -134.18435,603.04147 -136.66232,600.5635 C -139.14029,598.08553 -168.25644,586.93466 -177.54883,582.59822 C -186.84122,578.26177 -201.08956,565.25242 -201.08956,565.25242 L -207.90397,566.49141 z"
       id="path6820"
       style="fill:#d6007f;fill-opacity:1;fill-rule:evenodd;stroke:#000000;stroke-width:0.5;stroke-linecap:round;stroke-linejoin:round;stroke-miterlimit:4;stroke-dasharray:none;stroke-opacity:1" />
    <path
       d="M -119.93602,654.45937 C -114.01383,662.14718 -106.26297,668.3099 -96.3953,669.32719 L -95.7758,673.04418 C -101.13346,675.46858 -115.25515,664.82039 -119.93602,659.41531 C -121.79449,656.93734 -121.79449,655.07886 -119.93602,654.45937 z"
       id="path6826"
       style="fill:#d6007f;fill-opacity:1;fill-rule:evenodd;stroke:#000000;stroke-width:0.5;stroke-linecap:round;stroke-linejoin:round;stroke-miterlimit:4;stroke-dasharray:none;stroke-opacity:1" />
    <path
       d="M 212.88171,617.42817 L 220.16811,615.09741 C 229.66101,622.27106 223.66605,664.88013 228.24377,675.87253 L 207.41562,680.80088 L 212.88171,617.42817 z"
       transform="matrix(1.5146888,0.2284355,-0.2306867,1.4999088,-347.43662,-363.00139)"
       id="path6467"
       style="opacity:0.42105264;fill:#999999;fill-opacity:1;fill-rule:nonzero;stroke:none;stroke-width:0.67064518;stroke-linecap:round;stroke-linejoin:round;stroke-miterlimit:4;stroke-opacity:1;filter:url(#filter4342)" />
    <g
       transform="matrix(-1.0585762,0.2852971,0.2918285,1.0205914,-139.37189,-120.09734)"
       id="g3097"
       style="fill:#e9c6af;fill-opacity:1">
      <path
         d="M 236.84752,681.47684 C 239.20648,682.78779 242.36814,684.0333 243.82951,687.63189 C 245.7312,691.39936 247.19528,696.22814 245.45494,699.10769 C 244.60515,700.51376 244.00266,702.05425 243.19816,704.41811 C 242.82668,705.50963 240.73538,706.35615 238.73051,706.31735 C 238.0961,706.30507 237.35126,706.71354 236.64768,706.786 C 235.53864,706.90021 234.92829,706.28585 234.13698,706.26779 C 227.20479,706.10954 231.26964,701.94419 231.80167,699.67011 C 232.83827,695.23934 230.64004,691.16142 228.82983,696.85399 C 228.41091,698.17136 229.65196,697.92782 230.45564,700.04608 C 230.62056,700.48075 230.00703,704.07991 228.33785,702.84003 C 222.60951,698.58495 223.78326,693.46797 224.28532,686.15948"
         id="path3099"
         style="fill:#e9c6af;fill-opacity:1;fill-rule:nonzero;stroke:#000000;stroke-width:0.96926945;stroke-linecap:round;stroke-linejoin:round;stroke-miterlimit:4;stroke-dasharray:none;stroke-opacity:1" />
      <path
         d="M 240.15953,694.3679 L 240.15953,700.39105 L 238.51685,706.19518"
         id="path3101"
         style="fill:#e9c6af;fill-opacity:1;fill-rule:evenodd;stroke:#000000;stroke-width:1px;stroke-linecap:butt;stroke-linejoin:miter;stroke-opacity:1" />
      <path
         d="M 243.33537,692.94423 L 244.10196,699.51494 L 243.66391,702.8003"
         id="path3103"
         style="fill:#e9c6af;fill-opacity:1;fill-rule:evenodd;stroke:#000000;stroke-width:1px;stroke-linecap:butt;stroke-linejoin:miter;stroke-opacity:1" />
      <path
         d="M 236.32661,696.12008 L 235.66954,701.37665 L 234.13637,706.08566 L 234.13637,706.08566"
         id="path3105"
         style="fill:#e9c6af;fill-opacity:1;fill-rule:evenodd;stroke:#000000;stroke-width:1px;stroke-linecap:butt;stroke-linejoin:miter;stroke-opacity:1" />
    </g>
    <path
       d="M -197.99209,623.48473 L -201.08956,631.53814 C -201.08956,631.53814 -194.27514,637.11357 -188.6997,637.73306 C -180.41513,637.86626 -175.41252,645.05264 -174.45137,642.06951 C -173.21239,636.49408 -170.11492,634.6356 -173.21239,634.6356 C -176.30985,634.6356 -170.42467,635.87459 -180.02681,634.01611 C -189.54672,632.17355 -187.46072,629.67966 -193.03615,627.20169 C -198.61159,624.72372 -199.85057,623.48473 -197.99209,623.48473 z"
       id="path6828"
       style="fill:#d6007f;fill-opacity:1;fill-rule:evenodd;stroke:#000000;stroke-width:1;stroke-linecap:round;stroke-linejoin:round;stroke-miterlimit:4;stroke-dasharray:none;stroke-opacity:1" />
    <path
       d="M -86.48341,616.05082 C -86.48341,616.05082 -88.34189,612.95336 -92.05885,614.81183 C -95.7758,616.67031 -97.01479,620.38727 -98.87327,622.86524 C -100.73174,625.34321 -103.20971,627.20169 -103.20971,627.20169 L -101.35124,637.11357 C -101.35124,637.11357 -101.35124,636.49408 -95.15631,629.67966 C -88.96138,622.86524 -91.43935,627.82118 -87.7224,622.24575 C -84.00544,616.67031 -84.00544,616.05082 -86.48341,616.05082 z"
       id="path6830"
       style="fill:#d6007f;fill-opacity:1;fill-rule:evenodd;stroke:#000000;stroke-width:1;stroke-linecap:round;stroke-linejoin:round;stroke-miterlimit:4;stroke-dasharray:none;stroke-opacity:1" />
    <path
       d="M -193.03615,705.25778 L -194.89463,716.40868 C -194.89463,716.40868 -192.41666,717.02818 -190.55818,714.55018 C -182.10185,707.83978 -168.29797,706.64788 -158.34456,710.21368 C -147.52251,719.44758 -136.24375,725.59168 -121.79449,720.12558 C -110.09408,715.31738 -99.22174,709.17538 -88.34189,702.77978 L -90.20037,697.20438 C -90.20037,697.20438 -96.3953,698.44338 -100.73174,700.92128 C -108.6998,707.47318 -129.55194,720.63058 -139.14029,714.55018 C -148.70205,702.59138 -171.01044,695.71568 -185.60224,699.68238 C -191.79717,702.77978 -194.89463,705.87728 -193.03615,705.25778 z"
       id="path6888"
       style="fill:#d6007f;fill-opacity:1;fill-rule:evenodd;stroke:#000000;stroke-width:1;stroke-linecap:round;stroke-linejoin:round;stroke-miterlimit:4;stroke-dasharray:none;stroke-opacity:1" />
    <path
       d="M -202.33196,508.83637 C -195.75939,530.5518 -197.9719,545.30465 -190.87708,562.9863 C -183.6881,580.90259 -137.5779,590.20652 -129.16527,590.86142 C -120.88568,589.92477 -97.973636,572.82062 -94.846786,558.2115 L -84.278761,508.83637 C -112.35174,451.26534 -144.80841,448.64372 -202.33196,508.83637 z"
       id="path3108"
       style="fill:#e9c6af;fill-rule:evenodd;stroke:#000000;stroke-width:0.76632208px;stroke-linecap:butt;stroke-linejoin:miter;stroke-opacity:1;display:inline" />
    <g
       transform="matrix(0.9242287,0,0,0.9075562,-277.93145,47.239013)"
       id="g3804"
       style="fill:#e9c6af;fill-opacity:1">
      <g
         transform="matrix(-7.3609682e-2,-1.0079285,1.1977538,1.8368112e-2,-558.56157,716.85638)"
         id="g3806"
         style="fill:#e9c6af;fill-opacity:1">
        <path
           d="M 104.32277,654.45343 C 107.37385,655.61178 111.42657,661.39593 112.63695,664.25641 C 113.55267,666.42051 110.48661,674.4131 109.57087,674.36412 C 108.05868,674.28325 106.10986,672.96176 107.14349,670.4362 C 107.38694,664.40178 104.05572,669.87445 105.73039,673.84658 C 106.10923,674.99241 107.21592,685.93463 102.99203,679.4088 C 103.32742,682.78192 101.53389,686.48618 98.738119,681.21187 C 98.170092,685.05026 95.188609,681.02447 93.734799,679.69533 C 89.798673,682.65002 85.711402,670.71828 86.312359,664.52998 C 87.021368,661.24476 88.64431,658.69456 90.753293,656.89074"
           id="path3808"
           style="fill:#e9c6af;fill-opacity:1;fill-rule:nonzero;stroke:#000000;stroke-width:1;stroke-linecap:round;stroke-linejoin:round;stroke-miterlimit:4;stroke-dasharray:none;stroke-opacity:1" />
        <path
           d="M 94.327715,680.47487 C 93.926899,676.95763 90.304641,671.70189 92.096895,668.34959 L 92.096895,668.34959 L 92.096895,668.34959"
           id="path3810"
           style="fill:#e9c6af;fill-opacity:1;fill-rule:evenodd;stroke:#000000;stroke-width:0.65868837px;stroke-linecap:butt;stroke-linejoin:miter;stroke-opacity:1" />
        <path
           d="M 99.296431,682.44415 C 98.037448,678.10861 96.518431,671.90465 97.621949,670.19218"
           id="path3812"
           style="fill:#e9c6af;fill-opacity:1;fill-rule:evenodd;stroke:#000000;stroke-width:0.65868837px;stroke-linecap:butt;stroke-linejoin:miter;stroke-opacity:1" />
        <path
           d="M 102.7663,679.55127 C 101.69267,671.80108 100.68392,672.01501 101.75581,669.12933"
           id="path3814"
           style="fill:#e9c6af;fill-opacity:1;fill-rule:evenodd;stroke:#000000;stroke-width:0.65868837px;stroke-linecap:butt;stroke-linejoin:miter;stroke-opacity:1" />
      </g>
      <path
         d="M 234.26233,621.58007 C 231.04999,625.77968 227.83764,626.39138 224.62529,626.58004"
         id="path3816"
         style="fill:#e9c6af;fill-opacity:1;fill-rule:evenodd;stroke:#000000;stroke-width:1px;stroke-linecap:butt;stroke-linejoin:miter;stroke-opacity:1" />
      <path
         d="M 233.04125,627.45614 L 232.01485,636.27023"
         id="path3818"
         style="fill:#e9c6af;fill-opacity:1;fill-rule:evenodd;stroke:#000000;stroke-width:1px;stroke-linecap:butt;stroke-linejoin:miter;stroke-opacity:1" />
    </g>
    <path
       d="M -72.462898,608.90953 C -64.339118,603.92644 -59.678838,606.90531 -54.283928,608.47149 C -54.682698,611.81858 -58.057908,611.59394 -61.292688,611.53782 C -61.292688,611.53782 -62.606828,613.72806 -66.111208,615.0422"
       id="path3820"
       style="opacity:1;fill:#e9c6af;fill-opacity:1;fill-rule:evenodd;stroke:#000000;stroke-width:1;stroke-linecap:round;stroke-linejoin:round;stroke-miterlimit:4;stroke-dasharray:none;stroke-opacity:1" />
    <path
       d="M 147.18395,104.83794 C 147.19038,110.40327 126.98808,114.91563 102.06506,114.91563 C 77.142045,114.91563 56.939748,110.40327 56.946175,104.83794 C 56.939748,99.272606 77.142045,94.76025 102.06506,94.76025 C 126.98808,94.76025 147.19038,99.272606 147.18395,104.83794 z"
       transform="translate(-240.33492,430.55478)"
       id="path3828"
       style="opacity:1;fill:#de8787;fill-opacity:1;fill-rule:evenodd;stroke:none;stroke-width:1;stroke-linecap:round;stroke-linejoin:round;stroke-miterlimit:4;stroke-dasharray:none;stroke-opacity:1;filter:url(#filter5372)" />
    <path
       d="M -121.85604,513.6957 C -121.5463,520.81987 -121.23656,527.94403 -120.92681,535.0682 C -109.65118,538.57915 -106.30326,544.38856 -99.55432,532.89998 C -99.68058,516.37118 -102.68109,503.60286 -121.85604,513.6957 z"
       id="path3830"
       style="fill:#ffffff;fill-opacity:1;fill-rule:evenodd;stroke:#000000;stroke-width:1;stroke-linecap:round;stroke-linejoin:round;stroke-miterlimit:4;stroke-dasharray:none;stroke-opacity:1" />
    <path
       d="M -141.98957,514.93468 C -151.72825,509.37838 -159.10323,509.84669 -167.28154,513.73425 C -185.71924,540.02366 -164.04562,543.65369 -143.22856,536.61693 C -142.81556,529.38952 -142.40257,522.1621 -141.98957,514.93468 z"
       id="path3832"
       style="fill:#ffffff;fill-opacity:1;fill-rule:evenodd;stroke:#000000;stroke-width:1;stroke-linecap:round;stroke-linejoin:round;stroke-miterlimit:4;stroke-dasharray:none;stroke-opacity:1" />
    <path
       d="M 327.28943,695.77832 C 327.28943,746.54648 289.29953,787.7022 242.43661,787.7022 C 195.5737,787.7022 157.5838,746.54648 157.5838,695.77832 C 157.5838,645.01016 195.5737,603.85444 242.43661,603.85444 C 289.29953,603.85444 327.28943,645.01016 327.28943,695.77832 z"
       transform="matrix(0.1133305,-2.484402e-2,3.2755528e-2,0.1401931,-207.34614,433.89841)"
       id="path3834"
       style="opacity:0.74210522;fill:#d40000;fill-opacity:1;stroke:#000000;stroke-width:9.5;stroke-miterlimit:4;stroke-dasharray:none;stroke-opacity:1;filter:url(#filter3663)" />
    <path
       d="M -162.30765,518.2868 C -164.24355,520.86802 -163.7334,525.0008 -164.8653,523.93722 C -165.99719,522.87364 -166.26867,519.31129 -164.33277,516.73008 C -162.39686,514.14886 -159.91843,513.46739 -158.78653,514.53097 C -157.65463,515.59455 -160.37175,515.7056 -162.30765,518.2868 z"
       id="path3836"
       style="opacity:0.86315786;fill:#ffffff;fill-opacity:1;stroke:#fff9f9;stroke-width:1.1212219;stroke-miterlimit:4;stroke-opacity:1" />
    <path
       d="M -149.17414,530.21514 C -148.7732,528.92716 -149.41908,527.57137 -148.89588,527.72447 C -148.37267,527.87757 -147.87597,529.07916 -148.2769,530.36714 C -148.67784,531.65512 -149.48558,532.38015 -150.00879,532.22704 C -150.53199,532.07394 -149.57508,531.50311 -149.17414,530.21514 z"
       id="path3838"
       style="opacity:0.86315786;fill:#ffffff;fill-opacity:1;stroke:#fff9f9;stroke-width:0.43079421;stroke-miterlimit:4;stroke-opacity:1" />
    <path
       d="M 327.28943,695.77832 C 327.28943,746.54648 289.29953,787.7022 242.43661,787.7022 C 195.5737,787.7022 157.5838,746.54648 157.5838,695.77832 C 157.5838,645.01016 195.5737,603.85444 242.43661,603.85444 C 289.29953,603.85444 327.28943,645.01016 327.28943,695.77832 z"
       transform="matrix(-7.6738267e-2,-2.4020858e-2,-2.2179395e-2,0.1355481,-76.987013,435.1076)"
       id="path3840"
       style="opacity:0.74210522;fill:#d40000;fill-opacity:1;stroke:#000000;stroke-width:9.5;stroke-miterlimit:4;stroke-dasharray:none;stroke-opacity:1;filter:url(#filter3663)" />
    <path
       d="M -107.48343,516.69994 C -106.17259,519.19564 -106.51803,523.19149 -105.7516,522.16315 C -104.98517,521.13481 -104.80135,517.69049 -106.11219,515.1948 C -107.42302,512.69911 -109.10122,512.04021 -109.86765,513.06856 C -110.63408,514.0969 -108.79426,514.20426 -107.48343,516.69994 z"
       id="path3842"
       style="opacity:0.86315786;fill:#ffffff;fill-opacity:1;stroke:#fff9f9;stroke-width:0.90720916;stroke-miterlimit:4;stroke-opacity:1" />
    <path
       d="M -116.37638,528.23306 C -116.64787,526.98775 -116.21053,525.67689 -116.5648,525.82491 C -116.91907,525.97295 -117.2554,527.13472 -116.98392,528.38003 C -116.71243,529.62533 -116.1655,530.32634 -115.81123,530.1783 C -115.45695,530.03027 -116.1049,529.47835 -116.37638,528.23306 z"
       id="path3844"
       style="opacity:0.86315786;fill:#ffffff;fill-opacity:1;stroke:#fff9f9;stroke-width:0.34856659;stroke-miterlimit:4;stroke-opacity:1" />
    <path
       d="M -231.69027,466.02097 C -231.68939,469.78548 -233.56181,472.83797 -235.87185,472.83797 C -238.18188,472.83797 -240.0543,469.78548 -240.05342,466.02097 C -240.0543,462.25646 -238.18188,459.20397 -235.87185,459.20397 C -233.56181,459.20397 -231.68939,462.25646 -231.69027,466.02097 L -231.69027,466.02097 z"
       transform="translate(124.70203,57.276867)"
       id="path3846"
       style="fill:#000000;fill-opacity:1;fill-rule:evenodd;stroke:none;stroke-width:0.5;stroke-linecap:round;stroke-linejoin:round;stroke-miterlimit:4;stroke-dasharray:none;stroke-opacity:1" />
    <path
       d="M -275.67423,468.34406 C -275.67423,472.36416 -278.17044,475.6231 -281.24966,475.6231 C -284.32889,475.6231 -286.8251,472.36416 -286.8251,468.34406 C -286.8251,464.32396 -284.32889,461.06502 -281.24966,461.06502 C -278.17044,461.06502 -275.67423,464.32396 -275.67423,468.34406 L -275.67423,468.34406 z"
       transform="translate(125.01178,57.276868)"
       id="path3848"
       style="fill:#000000;fill-opacity:1;fill-rule:evenodd;stroke:none;stroke-width:0.5;stroke-linecap:round;stroke-linejoin:round;stroke-miterlimit:4;stroke-dasharray:none;stroke-opacity:1" />
    <path
       d="M -277.53272,466.9502 C -277.53212,469.17467 -278.84974,470.97839 -280.47531,470.97839 C -282.10088,470.97839 -283.4185,469.17467 -283.4179,466.9502 C -283.4185,464.72573 -282.10088,462.92201 -280.47531,462.92201 C -278.84974,462.92201 -277.53212,464.72573 -277.53272,466.9502 z"
       transform="translate(126.87026,58.825599)"
       id="path3850"
       style="fill:#ffffff;fill-opacity:1;fill-rule:evenodd;stroke:none;stroke-width:0.5;stroke-linecap:round;stroke-linejoin:round;stroke-miterlimit:4;stroke-dasharray:none;stroke-opacity:1" />
    <path
       d="M -277.53272,466.9502 C -277.53212,469.17467 -278.84974,470.97839 -280.47531,470.97839 C -282.10088,470.97839 -283.4185,469.17467 -283.4179,466.9502 C -283.4185,464.72573 -282.10088,462.92201 -280.47531,462.92201 C -278.84974,462.92201 -277.53212,464.72573 -277.53272,466.9502 z"
       transform="matrix(0.7368421,0,0,1,97.509567,56.967121)"
       id="path3852"
       style="fill:#ffffff;fill-opacity:1;fill-rule:evenodd;stroke:none;stroke-width:0.5;stroke-linecap:round;stroke-linejoin:round;stroke-miterlimit:4;stroke-dasharray:none;stroke-opacity:1" />
    <g
       transform="translate(10.168487,0.5754668)"
       id="g3854">
      <path
         d="M -143.0365,566.35906 C -154.72498,565.8089 -173.57354,571.89782 -166.80043,559.30116 C -154.7369,536.86537 -154.77849,552.61179 -142.76213,549.66428 C -130.30678,546.60909 -131.76486,539.85234 -121.67116,556.93359 C -111.69266,573.8199 -135.64418,565.50555 -143.0365,566.35906 z"
         id="path3856"
         style="fill:#ffffff;fill-opacity:1;fill-rule:nonzero;stroke:#000000;stroke-width:1;stroke-linecap:butt;stroke-linejoin:miter;stroke-miterlimit:4;stroke-dasharray:none;stroke-opacity:1" />
      <path
         d="M -121.67092,556.97323 C -122.5777,557.46555 -125.67999,554.0495 -127.37797,554.67614 C -128.9736,555.26502 -130.65697,557.52029 -131.56752,557.46449 C -133.46813,557.348 -136.85861,554.45474 -138.5136,554.93659 C -141.74796,555.87826 -143.08522,559.04126 -145.59192,557.13557"
         id="path3858"
         style="fill:none;fill-rule:evenodd;stroke:#000000;stroke-width:1;stroke-linecap:butt;stroke-linejoin:miter;stroke-miterlimit:4;stroke-dasharray:none;stroke-opacity:1" />
    </g>
    <path
       d="M -177.25608,520.06106 C -163.23857,516.4149 -149.22105,521.52358 -135.20353,524.44154 C -134.33902,502.5236 -151.39415,507.89137 -169.37123,506.91963 C -175.9232,510.51537 -176.35548,515.33504 -177.25608,520.06106 z"
       id="path3860"
       style="opacity:1;fill:#4d4d4d;fill-opacity:1;fill-rule:evenodd;stroke:none;stroke-width:1;stroke-linecap:round;stroke-linejoin:round;stroke-miterlimit:4;stroke-dasharray:none;stroke-opacity:1" />
    <path
       d="M -127.31867,512.17621 C -128.05157,516.03216 -129.57115,520.20277 -124.69039,521.81325 L -98.40754,521.81325 C -94.79701,518.30887 -96.25838,514.80449 -98.40754,511.30011 C -106.77824,505.26041 -116.61532,506.55263 -127.31867,512.17621 z"
       id="path3862"
       style="opacity:1;fill:#4d4d4d;fill-opacity:1;fill-rule:evenodd;stroke:none;stroke-width:1;stroke-linecap:round;stroke-linejoin:round;stroke-miterlimit:4;stroke-dasharray:none;stroke-opacity:1" />
    <path
       d="M -147.41102,539.68866 L -116.43638,540.30815"
       id="path3864"
       style="opacity:1;fill:none;fill-opacity:1;fill-rule:evenodd;stroke:#000000;stroke-width:1;stroke-linecap:round;stroke-linejoin:round;stroke-miterlimit:4;stroke-dasharray:none;stroke-opacity:1" />
    <path
       d="M -138.73812,536.59119 L -124.18004,536.59119"
       id="path3866"
       style="opacity:1;fill:none;fill-opacity:1;fill-rule:evenodd;stroke:#000000;stroke-width:1;stroke-linecap:round;stroke-linejoin:round;stroke-miterlimit:4;stroke-dasharray:none;stroke-opacity:1" />
  </g>
  <g
     transform="translate(-25.111833,-10.606405)"
     id="layer1"
     style="display:inline">
    <path
       d="M 210.26279,185.87672 C 210.26279,201.8439 197.51496,214.78785 181.7897,214.78785 C 166.06445,214.78785 153.31662,201.8439 153.31662,185.87672 C 153.31662,169.90954 166.06445,156.96559 181.7897,156.96559 C 197.51496,156.96559 210.26279,169.90954 210.26279,185.87672 z"
       transform="translate(14.867822,6.1949264)"
       id="path3822"
       style="opacity:0.57425741;fill:#800080;fill-opacity:1;fill-rule:evenodd;stroke:none;stroke-width:1;stroke-linecap:round;stroke-linejoin:round;stroke-miterlimit:4;stroke-dasharray:none;stroke-opacity:1;filter:url(#filter5130)" />
    <path
       d="M 204.13012,153.46121 C 204.13012,163.62214 195.3047,171.8592 184.41798,171.8592 C 173.53127,171.8592 164.70585,163.62214 164.70585,153.46121 C 164.70585,143.30028 173.53127,135.06322 184.41798,135.06322 C 195.3047,135.06322 204.13012,143.30028 204.13012,153.46121 L 204.13012,153.46121 z"
       transform="translate(12.239542,38.610438)"
       id="path3824"
       style="opacity:0.57425741;fill:#ef5ba1;fill-opacity:1;fill-rule:evenodd;stroke:none;stroke-width:1;stroke-linecap:round;stroke-linejoin:round;stroke-miterlimit:4;stroke-dasharray:none;stroke-opacity:1;filter:url(#filter5126)" />
    <path
       d="M 192.74088,188.06697 C 192.74088,192.66358 188.42623,196.38987 183.10383,196.38987 C 177.78144,196.38987 173.46679,192.66358 173.46679,188.06697 C 173.46679,183.47036 177.78144,179.74407 183.10383,179.74407 C 188.42623,179.74407 192.74088,183.47036 192.74088,188.06697 z"
       transform="translate(13.553692,4.0046804)"
       id="path3826"
       style="opacity:0.57425741;fill:#ffd5d5;fill-opacity:1;fill-rule:evenodd;stroke:none;stroke-width:1;stroke-linecap:round;stroke-linejoin:round;stroke-miterlimit:4;stroke-dasharray:none;stroke-opacity:1;filter:url(#filter5122)" />
    <path
       d="M 99.118829,35.151883 C 99.118829,35.151883 89.516693,73.250684 82.702273,74.489669 C 75.887854,75.728654 74.029376,73.250684 74.029376,73.250684 C 74.029376,73.250684 80.534048,54.356156 80.534048,45.683259 C 80.534048,37.010361 80.534048,36.390869 76.817092,41.966303 C 73.100136,47.541737 66.905209,53.736664 67.524702,51.258693 C 68.144195,48.780722 69.38318,35.771376 66.905209,40.727317 C 64.427239,45.683259 61.639522,71.392206 61.639522,71.392206 C 61.639522,71.392206 56.993327,40.727317 55.134848,46.922244 C 53.27637,53.117171 49.869161,77.587132 43.674234,81.923581 C 37.479307,86.26003 35.620829,91.835464 37.479307,84.401552 C 39.337785,76.96764 38.718293,67.055757 36.240322,73.250684 C 33.762351,79.44561 29.735649,88.428254 36.550068,96.481659 C 43.364488,104.53506 56.993327,110.1105 50.178907,110.1105 C 43.364488,110.1105 37.789053,105.77405 40.267024,108.87151 C 42.744995,111.96898 49.559414,120.02238 52.037385,122.50035 C 54.515356,124.97832 65.046731,128.69528 55.754341,126.8368 C 46.461951,124.97832 40.886517,119.40289 45.222966,126.8368 C 49.559414,134.27071 59.475877,141.17226 50.488654,138.29741 C 41.686976,135.48192 43.883462,133.11587 39.647531,133.65122 C 28.364911,135.07717 31.594127,162.76738 30.974634,147.28006 C 30.355141,131.79274 34.69159,124.97832 28.496663,130.55376 C 22.301736,136.12919 16.10681,146.66057 17.345795,137.36818 C 18.58478,128.07579 23.571853,112.188 16.137941,116.52444 C 8.7040287,120.86089 9.2923902,131.17325 10.531376,121.88086 C 11.770361,112.58847 10.531375,92.14521 8.0534052,97.720644 C 5.5754342,103.29608 3.0469897,109.91616 2.4274977,96.90681 C 1.8080046,83.897464 8.0534052,72.321444 4.9559412,76.0384 C 1.858478,79.755356 -3.0974634,89.047746 1.2389854,75.418908 C 5.5754342,61.790069 16.117009,50.715362 11.770361,51.258693 C 6.8144195,51.878186 -3.0974634,59.931591 2.4779707,53.117171 C 8.0534052,46.302752 14.867824,28.337464 20.443259,30.195942 C 26.018693,32.05442 31.594127,30.815435 31.594127,30.815435 C 31.594127,30.815435 19.204273,19.664567 11.77036,22.142537 C 4.3364484,24.620508 13.009346,15.94761 17.965288,13.469639 C 22.921229,10.991668 34.69159,8.5136985 39.028039,10.991668 C 43.364488,13.469639 49.559414,24.620508 49.559414,24.620508 C 49.559414,24.620508 43.364488,8.5136985 37.789053,5.4162345 C 32.213619,2.3187715 26.018693,1.079786 37.789053,1.6992785 C 49.559414,2.3187715 48.320429,0.46029329 54.515356,4.1772495 C 60.710283,7.8942055 61.949268,7.8942055 61.949268,7.8942055 C 61.949268,7.8942055 52.656878,-3.8761555 55.134849,-2.6371701 C 57.612819,-1.3981847 58.232312,-5.1151408 67.524702,-0.77869211 C 76.817092,3.5577565 78.056078,10.991668 78.67557,5.4162345 C 79.295063,-0.15919941 71.241658,-6.9736188 78.67557,-3.2566628 C 86.109482,0.46029329 91.065424,2.3187715 92.304409,4.7967425 C 93.543395,7.2747125 96.021365,9.7526835 99.118832,6.6552205 C 102.21629,3.5577565 104.07477,8.5136981 105.93325,11.611162 C 107.79173,14.708625 101.5968,19.045074 109.6502,15.94761 C 117.70361,12.850147 131.33245,10.991669 126.37651,14.089132 C 121.42057,17.186596 112.74767,20.284059 120.80107,20.284059 C 128.85448,20.284059 144.96129,20.284059 140.62484,23.381522 C 136.28839,26.478986 122.65955,25.24 134.42991,31.434927 C 146.20027,37.629854 157.35114,36.390869 149.29774,40.107825 C 141.24433,43.824781 135.0494,41.34681 140.62484,45.683259 C 146.20027,50.019708 153.01469,53.736664 148.05875,53.736664 C 143.10281,53.736664 139.38585,49.400215 144.34179,54.356156 C 149.29774,59.312098 154.25368,71.701951 151.77571,79.135864 C 149.29774,86.569776 148.05875,92.14521 146.81977,87.808761 C 145.58078,83.472312 144.96129,76.657893 143.7223,82.85282 C 142.48332,89.047746 145.58078,93.384195 146.20027,99.579122 C 146.81977,105.77405 144.96129,113.82745 141.86382,109.491 C 138.76636,105.15456 140.00535,101.4376 138.14687,108.25202 C 136.28839,115.06644 134.42991,126.8368 131.33245,123.11984 C 128.23498,119.40289 129.16422,115.68594 127.92523,121.88086 C 126.68625,128.07579 118.94259,137.36817 120.80107,129.31477 C 122.65955,121.26137 124.51803,107.01303 122.04006,108.87151 C 119.56209,110.72999 117.70361,111.96898 122.65955,107.01303 C 127.61549,102.05709 134.42991,93.384195 131.33245,94.623181 C 128.23498,95.862166 125.75701,103.91557 128.23498,94.623181 C 130.71296,85.33079 132.88118,97.410898 132.26168,87.499015 C 131.64219,77.587132 133.50067,73.250684 131.64219,75.728654 C 129.78371,78.206625 126.06676,85.640537 126.06676,78.826118 C 126.06676,72.011698 126.996,41.966303 122.65955,47.541737 C 118.3231,53.117171 117.08412,47.541737 116.46462,45.063766 C 115.84513,42.585795 112.74767,30.815435 108.41122,39.488332 C 104.07477,48.16123 101.5968,57.45362 100.97731,50.019708 C 100.35781,42.585795 99.738321,35.151883 99.118829,35.151883 z"
       transform="translate(25.574684,14.923696)"
       id="path3870"
       style="opacity:1;fill:url(#linearGradient3898);fill-opacity:1;fill-rule:evenodd;stroke:none;stroke-width:3;stroke-linecap:round;stroke-linejoin:round;stroke-miterlimit:4;stroke-dasharray:none;stroke-opacity:1" />
  </g>
</svg>
