<?xml version="1.0" encoding="UTF-8" standalone="no"?>
<!-- Created with Inkscape (http://www.inkscape.org/) -->
<svg
   xmlns:svg="http://www.w3.org/2000/svg"
   xmlns="http://www.w3.org/2000/svg"
   version="1.0"
   width="191.43303"
   height="558.81085"
   id="svg2">
  <defs
     id="defs4" />
  <g
     transform="translate(13.661767,-181.70404)"
     style="display:inline"
     id="layer2">
    <path
       d="M 64.249212,533.41313 L 76.371042,532.90805 L 76.876122,484.92581 L 81.926882,533.91821 L 94.553792,532.40298 L 114.25176,502.0984 L 75.360892,454.11616 L 64.754292,455.12631 L 64.249212,533.41313 z "
       style="fill:#552200;fill-opacity:1;fill-rule:evenodd;stroke:#000000;stroke-width:1px;stroke-linecap:butt;stroke-linejoin:miter;stroke-opacity:1"
       id="path2415" />
    <path
       d="M 34.068241,395.25333 C 29.544432,435.49143 25.020622,475.72954 20.496813,515.96765 C 24.82546,536.74602 28.497584,557.7055 33.238681,578.37008 C 45.102922,611.32351 52.069885,648.86542 38.353962,682.3962 C 24.782532,690.01525 11.211103,697.6343 -2.360327,705.25336 C -3.4114304,722.80447 53.760963,709.69168 68.353966,708.82477 C 70.128591,695.09618 65.576781,681.4459 67.593084,667.62912 C 68.842164,650.49805 71.885529,633.56521 77.671327,617.37782 C 88.578294,590.08242 76.341114,581.76053 63.353962,556.68188 C 66.449198,527.63428 69.544435,498.58667 72.639671,469.53906 C 85.557022,500.59571 97.796314,531.96976 111.14427,562.82483 C 115.89064,592.71938 125.65081,618.5375 134.92993,647.61941 C 138.97916,666.51741 144.29727,686.94428 138.24646,705.86106 C 133.04419,714.22993 127.84193,722.59879 122.63967,730.96765 C 125.96372,733.53415 127.33275,740.88076 132.09504,739.93068 C 156.81031,736.39515 160.04577,740.95728 171.85492,718.04966 C 170.04737,701.18032 165.2786,684.69065 164.34922,667.66374 C 174.01623,598.30043 150.92654,555.67467 119.55217,495.22419 C 109.15277,461.66248 98.753368,428.10077 88.353966,394.53906 C 70.258724,394.77715 52.163483,395.01524 34.068241,395.25333 z "
       style="fill:#aa4400;fill-opacity:1;fill-rule:evenodd;stroke:#000000;stroke-width:1px;stroke-linecap:butt;stroke-linejoin:miter;stroke-opacity:1"
       id="path2417" />
    <path
       d="M 36.925392,418.82477 L 48.353962,448.11049 L 70.496812,463.82477 L 73.353962,470.25334"
       style="fill:#aa4400;fill-opacity:1;fill-rule:evenodd;stroke:#000000;stroke-width:1px;stroke-linecap:butt;stroke-linejoin:miter;stroke-opacity:1"
       id="path2423" />
    <path
       d="M 84.782532,417.3962 C 74.573742,424.8365 70.485912,434.72517 69.782532,445.96763"
       style="fill:#aa4400;fill-opacity:1;fill-rule:evenodd;stroke:#000000;stroke-width:1px;stroke-linecap:butt;stroke-linejoin:miter;stroke-opacity:1"
       id="path2425" />
    <path
       d="M 71.211102,457.3962 C 74.199342,447.96469 74.678002,437.90578 84.782532,430.25334"
       style="fill:#aa4400;fill-opacity:1;fill-rule:evenodd;stroke:#000000;stroke-width:1px;stroke-linecap:butt;stroke-linejoin:miter;stroke-opacity:1"
       id="path2427" />
    <path
       d="M 152.2111,553.68191 C 149.35396,553.68191 107.2111,386.53906 107.2111,386.53906 L 81.496812,397.25334 L 92.925392,522.25334 C 97.982942,548.9609 112.65443,557.64234 132.92539,555.82477 L 152.2111,553.68191 z "
       style="fill:#552200;fill-opacity:1;fill-rule:evenodd;stroke:#000000;stroke-width:1px;stroke-linecap:butt;stroke-linejoin:miter;stroke-opacity:1"
       id="path2435" />
    <path
       d="M 156.2111,551.68191 C 153.35396,551.68191 111.2111,384.53906 111.2111,384.53906 L 85.496812,395.25334 L 96.925392,520.25334 C 101.98294,546.9609 116.65443,555.64234 136.92539,553.82477 L 156.2111,551.68191 z "
       style="fill:#552200;fill-rule:evenodd;stroke:#000000;stroke-width:1px;stroke-linecap:butt;stroke-linejoin:miter;stroke-opacity:1"
       id="path2437" />
    <path
       d="M 9.639673,544.3962 L 29.996822,392.96763 L 34.996822,395.11049 C 32.981352,454.93006 25.033712,543.62794 9.639673,544.3962 z "
       style="fill:#552200;fill-opacity:1;fill-rule:evenodd;stroke:#000000;stroke-width:1px;stroke-linecap:butt;stroke-linejoin:miter;stroke-opacity:1"
       id="path2439" />
    <path
       d="M 8.139674,542.3962 L 28.496802,390.96763 L 33.496802,393.11049 C 31.481332,452.93006 23.533692,541.62794 8.139674,542.3962 z "
       style="fill:#552200;fill-rule:evenodd;stroke:#000000;stroke-width:1px;stroke-linecap:butt;stroke-linejoin:miter;stroke-opacity:1"
       id="path2441" />
    <path
       d="M -135.25,97.96875 L -154.375,110.8125 L -180.75,109.78125 C -180.49753,107.89085 -178.78384,105.45014 -175.59375,102.59375 L -178.8125,101.15625 L -200.59375,107.59375 C -201.32657,109.5299 -201.93415,111.4073 -202.4375,113.21875 L -202.75,110.8125 C -217.07896,121.01729 -227.23423,132.43545 -217.375,152.96875 L -227.75,195.8125 C -245.65315,225.69792 -234.89459,255.58333 -236.65625,285.46875 L -239.0625,292.3125 L -222.09375,291.1875 L -199.3125,221.53125 L -196.65625,222.96875 C -172.85806,228.60934 -155.05306,226.77517 -138.8125,222.96875 L -120.25,219.75 L -121.3125,187.25 L -121.65625,182.96875 L -110.25,168.3125 C -97.84621,204.68616 -82.15083,238.86394 -74.875,278.65625 C -75.375853,281.47651 -76.198386,284.06046 -77.375,286.34375 C -71.778684,281.36543 -63.207007,283.44173 -57.4375,286.65625 C -45.13894,237.70573 -67.206205,199.2194 -78.8125,153.3125 C -77.44362,136.95205 -78.741874,122.11823 -90.59375,113.3125 L -95.375,113.125 L -94.875,112.59375 C -105.37386,104.75927 -117.24085,98.292936 -135.25,97.96875 z "
       transform="translate(231.09138,170.86939)"
       style="fill:#552200;fill-opacity:1;fill-rule:evenodd;stroke:#000000;stroke-width:1px;stroke-linecap:butt;stroke-linejoin:miter;stroke-opacity:1"
       id="path2453" />
    <path
       d="M 56.925392,269.53906 C 57.320572,271.08668 58.096762,272.63429 56.211102,274.18191 L 39.425392,282.75334 C 54.044201,310.6415 82.788806,293.43696 102.63967,279.8962 L 95.139672,268.82477 C 90.450532,268.24937 93.096022,261.26525 92.282532,257.3962 L 57.282532,265.61048 L 56.925392,269.53906 z "
       style="fill:#ff8080;fill-opacity:1;fill-rule:evenodd;stroke:#000000;stroke-width:1px;stroke-linecap:butt;stroke-linejoin:miter;stroke-opacity:1"
       id="path2467" />
    <path
       d="M 120.13967,338.46763 L 112.63967,317.3962"
       style="fill:none;fill-rule:evenodd;stroke:#000000;stroke-width:1px;stroke-linecap:butt;stroke-linejoin:miter;stroke-opacity:1"
       id="path2485" />
    <path
       d="M 30.496812,370.25334 C 63.794562,377.10199 85.040542,368.61203 108.35396,362.75334 L 110.49681,390.25334 C 84.544432,394.94752 48.234912,401.93981 29.425392,389.8962 L 30.496812,370.25334 z "
       style="fill:#d40000;fill-rule:evenodd;stroke:#000000;stroke-width:1px;stroke-linecap:butt;stroke-linejoin:miter;stroke-opacity:1"
       id="path2489" />
    <path
       d="M 21.568242,362.3962 C 27.09361,360.03594 29.814704,363.28424 33.353962,364.8962 C 35.99946,377.72248 34.393591,389.13163 34.068242,400.96763 C 30.377765,402.96368 26.687289,402.181 22.996812,399.8962 C 21.935515,387.54248 18.735166,375.72352 21.568242,362.3962 z "
       style="fill:#aa4400;fill-opacity:1;fill-rule:evenodd;stroke:#000000;stroke-width:1px;stroke-linecap:butt;stroke-linejoin:miter;stroke-opacity:1"
       id="path2493" />
    <path
       d="M 90.853966,361.32477 C 88.046315,376.25735 90.18452,389.2116 92.639671,402.03906 C 94.663483,402.6343 96.687294,403.22953 98.711105,403.82477 C 105.17812,404.33203 111.51614,403.93624 116.92539,397.03906 C 118.78258,384.45574 120.30794,371.70652 115.85396,355.96762 C 109.62043,362.65286 100.22546,361.96142 90.853966,361.32477 z "
       style="fill:#aa4400;fill-opacity:1;fill-rule:evenodd;stroke:#000000;stroke-width:1px;stroke-linecap:butt;stroke-linejoin:miter;stroke-opacity:1"
       id="path2495" />
    <path
       d="M 59.191672,372.80565 L 58.700152,396.26545"
       style="fill:none;fill-rule:evenodd;stroke:#000000;stroke-width:1.01355815px;stroke-linecap:butt;stroke-linejoin:miter;stroke-opacity:1"
       id="path2497" />
    <path
       d="M 37.996812,371.68191 L 38.353962,393.28906"
       style="fill:none;fill-rule:evenodd;stroke:#000000;stroke-width:1px;stroke-linecap:butt;stroke-linejoin:miter;stroke-opacity:1"
       id="path2501" />
    <path
       d="M 172.84061,457.14661 C 166.21377,454.87644 162.21304,454.32864 154.74452,455.98852"
       style="fill:none;fill-rule:evenodd;stroke:#000000;stroke-width:1px;stroke-linecap:butt;stroke-linejoin:miter;stroke-opacity:1"
       id="path2509" />
    <path
       d="M 25.853962,424.53906 L 15.853962,423.11048 C 2.351493,518.4747 -5.5515315,600.26803 19.068242,472.03906 L 25.853962,424.53906 z "
       style="fill:#aa4400;fill-opacity:1;fill-rule:evenodd;stroke:#000000;stroke-width:1px;stroke-linecap:butt;stroke-linejoin:miter;stroke-opacity:1"
       id="path2517" />
    <path
       d="M 18.792352,422.54889 L 18.539812,416.48797 L 27.631182,417.49812 L 26.368492,424.06412 L 18.792352,422.54889 z "
       style="fill:#ffffff;fill-rule:evenodd;stroke:#000000;stroke-width:1px;stroke-linecap:butt;stroke-linejoin:miter;stroke-opacity:1"
       id="path2519" />
    <path
       d="M 19.802502,416.23543 L 19.549962,413.20498 L 25.863412,413.96259 L 26.368492,418.0032 L 19.802502,416.23543 z "
       style="fill:#e6e6e6;fill-rule:evenodd;stroke:#000000;stroke-width:1px;stroke-linecap:butt;stroke-linejoin:miter;stroke-opacity:1"
       id="path2521" />
    <path
       d="M 18.185404,414.75925 L 14.136908,413.99925 L 14.873004,407.91926 L 32.539165,411.33926 L 31.066974,416.65926 L 18.185404,414.75925 z "
       style="fill:#552200;fill-opacity:1;fill-rule:evenodd;stroke:#000000;stroke-width:1.48086369px;stroke-linecap:butt;stroke-linejoin:miter;stroke-opacity:1"
       id="path2523" />
    <path
       d="M 19.549962,409.4169 L 22.08483,394.43321 C 25.035436,385.28335 27.303587,387.05278 29.183643,395.03172 L 26.621032,412.6999 L 19.549962,409.4169 z "
       style="fill:#552200;fill-opacity:1;fill-rule:evenodd;stroke:#000000;stroke-width:1px;stroke-linecap:butt;stroke-linejoin:miter;stroke-opacity:1"
       id="path2525" />
    <path
       d="M -194.51129,416.3224 C -178.86116,428.06168 -165.26891,422.65202 -151.8553,415.75366"
       transform="translate(231.09138,170.86939)"
       style="opacity:1;fill:none;fill-opacity:1;fill-rule:evenodd;stroke:#000000;stroke-width:1;stroke-linecap:round;stroke-linejoin:round;stroke-miterlimit:4;stroke-dasharray:none;stroke-dashoffset:0;stroke-opacity:1"
       id="path2576" />
    <path
       d="M -115.45553,414.61616 C -101.86201,422.76096 -87.90033,425.38343 -72.799546,410.91931"
       transform="translate(231.09138,170.86939)"
       style="opacity:1;fill:none;fill-opacity:1;fill-rule:evenodd;stroke:#000000;stroke-width:1;stroke-linecap:round;stroke-linejoin:round;stroke-miterlimit:4;stroke-dasharray:none;stroke-dashoffset:0;stroke-opacity:1"
       id="path2578" />
    <path
       d="M -115.4212,184.66754 C -118.37041,180.10968 -143.5204,184.24246 -139.95324,189.49351 C -136.38608,194.74456 -133.81586,202.98643 -128.29047,202.36278 C -123.06233,203.57585 -117.83419,203.0234 -112.60605,199.94979 C -111.2655,195.39193 -112.47199,189.2254 -115.4212,184.66754 z "
       transform="translate(231.09138,170.86939)"
       style="fill:#aa4400;fill-opacity:1;fill-rule:evenodd;stroke:#000000;stroke-width:1;stroke-linecap:round;stroke-linejoin:round;stroke-miterlimit:4;stroke-dashoffset:0;stroke-opacity:1"
       id="path3615" />
    <path
       d="M 154.59498,455.52698 C 151.65646,458.37072 148.71794,461.21446 145.77941,464.0582 C 145.02108,471.54669 144.26276,479.03517 143.50443,486.52366 C 144.44505,488.70768 147.40593,490.33947 149.19184,488.03394 C 150.24586,487.35925 150.48801,486.30563 150.37436,485.14375 C 150.45416,482.19124 150.53396,479.23874 150.61376,476.28623 C 151.75125,475.52791 152.88874,474.76959 154.02623,474.01127 C 154.59498,478.94039 155.16373,483.86952 155.73248,488.79865 C 153.17312,494.29653 150.61376,499.79442 148.0544,505.2923 C 149.54736,507.276 151.34183,507.87848 152.53328,505.86105 C 171.69213,473.42014 155.5192,506.24022 157.01216,506.4298 C 159.99807,506.80896 162.98399,507.18813 165.96991,507.5673 C 177.85818,503.383 169.21512,486.9084 174.78548,485.67054 C 174.40631,476.00186 174.02715,466.33317 173.64799,456.66449 C 170.02502,453.33625 164.71407,452.61397 160.06541,453.78174 C 158.19393,454.19711 156.37238,454.81354 154.59498,455.52698 z "
       style="opacity:1;fill:#ff8080;fill-opacity:1;fill-rule:evenodd;stroke:#000000;stroke-width:1;stroke-linecap:round;stroke-linejoin:round;stroke-miterlimit:4;stroke-dasharray:none;stroke-dashoffset:0;stroke-opacity:1"
       id="path3646" />
    <path
       d="M 8.7115164,462.63632 C 2.8344701,463.01549 -3.0425762,463.39466 -8.9196224,463.77383 C -14.646101,478.58844 -14.68939,477.16147 -8.350873,490.78928 C -2.8269118,490.60922 2.9348287,491.38027 7.0052767,485.38617 C 7.7636067,481.31016 8.5219367,477.23415 9.2802668,473.15814 C 8.6167267,472.39981 7.9531867,471.64148 7.2896466,470.88315 C 7.7636032,468.13421 8.2375598,465.38526 8.7115164,462.63632 z "
       style="opacity:1;fill:#ff8080;fill-opacity:1;fill-rule:evenodd;stroke:#000000;stroke-width:1;stroke-linecap:round;stroke-linejoin:round;stroke-miterlimit:4;stroke-dasharray:none;stroke-dashoffset:0;stroke-opacity:1"
       id="path3649" />
    <path
       d="M 97.091987,234.74511 C 97.634241,240.1551 98.176494,245.56509 98.718748,250.97509 C 92.931676,261.72807 85.122326,270.0033 73.155412,273.18455 C 57.877415,274.64145 60.423321,275.47171 51.07799,261.79508 C 50.148417,248.22263 49.218842,234.6502 48.289268,221.07776 C 50.458279,215.85759 52.62729,210.63742 54.7963,205.41725 C 62.073278,191.17368 76.929216,197.77225 89.887778,199.15305 C 92.676507,208.26461 95.465235,217.37618 98.253964,226.48775 C 97.866639,229.2402 97.479313,231.99266 97.091987,234.74511 z "
       style="opacity:1;fill:#ff8080;fill-opacity:1;fill-rule:evenodd;stroke:#000000;stroke-width:0.90457636;stroke-linecap:round;stroke-linejoin:round;stroke-miterlimit:4;stroke-dasharray:none;stroke-dashoffset:0;stroke-opacity:1"
       id="path3657" />
    <path
       d="M -143.89285,58.580884 L -158.11151,62.56211 L -149.58032,65.974588 L -143.89285,58.580884 z "
       transform="translate(231.09138,170.86939)"
       style="opacity:1;fill:#552200;fill-opacity:1;fill-rule:evenodd;stroke:none;stroke-width:1;stroke-linecap:round;stroke-linejoin:round;stroke-miterlimit:4;stroke-dasharray:none;stroke-dashoffset:0;stroke-opacity:1"
       id="path3660" />
    <path
       d="M -160.3865,79.055757 L -168.34895,79.624503 L -163.79898,83.605728 L -160.3865,79.055757 z "
       transform="translate(231.09138,170.86939)"
       style="opacity:1;fill:#552200;fill-opacity:1;fill-rule:evenodd;stroke:none;stroke-width:1;stroke-linecap:round;stroke-linejoin:round;stroke-miterlimit:4;stroke-dasharray:none;stroke-dashoffset:0;stroke-opacity:1"
       id="path3662" />
    <path
       d="M -171.76143,62.56211 L -179.72388,61.424617 L -175.17391,67.112081 L -171.76143,62.56211 z "
       transform="translate(231.09138,170.86939)"
       style="opacity:1;fill:#552200;fill-opacity:1;fill-rule:evenodd;stroke:none;stroke-width:1;stroke-linecap:round;stroke-linejoin:round;stroke-miterlimit:4;stroke-dasharray:none;stroke-dashoffset:0;stroke-opacity:1"
       id="path3664" />
    <path
       d="M -170.05519,90.430686 L -155.83653,88.724447"
       transform="translate(231.09138,170.86939)"
       style="opacity:1;fill:#ff8080;fill-opacity:1;fill-rule:evenodd;stroke:#000000;stroke-width:1;stroke-linecap:round;stroke-linejoin:round;stroke-miterlimit:4;stroke-dasharray:none;stroke-dashoffset:0;stroke-opacity:1"
       id="path3666" />
    <path
       d="M 55.819878,224.94072 C 57.109644,229.88769 62.856428,231.2045 66.905123,233.1504 C 69.00361,233.53393 72.849339,236.78536 73.332387,236.37362 C 71.106086,234.57642 66.25575,230.23944 69.289403,229.31617 C 69.703595,232.89134 76.824751,233.72336 78.378883,233.90511 C 77.696114,231.8621 75.556757,225.87595 77.218555,226.27257 C 79.764469,229.71065 83.035132,232.91506 87.043781,234.55225 C 87.352598,232.30038 83.058287,224.21552 87.940114,228.05821 C 92.827746,230.26697 87.572027,235.55446 90.229623,239.36438 C 90.716975,241.95589 91.263537,243.20458 93.121454,240.58748 C 95.952682,239.79913 97.204712,233.82817 96.511751,234.21352 C 98.940856,238.52831 97.059389,242.46286 94.876886,246.37789 C 92.911982,250.80108 93.083794,255.84673 91.843611,260.45785 C 87.564382,271.28681 81.389229,281.30904 77.519724,292.29761 C 77.628543,298.03675 84.496058,291.93483 86.451634,290.03604 C 89.622806,286.9592 91.967151,283.32882 94.601864,279.84223 C 96.925159,276.23781 99.072307,272.33001 101.88583,269.1905 C 104.67234,261.90323 107.24507,253.91191 105.03339,246.11059 C 103.23895,236.29012 101.982,226.343 99.787221,216.61282 C 97.392642,210.31457 96.484409,203.30086 92.635536,197.65339 C 88.075939,192.80521 81.109805,191.69544 75.187034,189.24692 C 69.869271,190.58689 64.230521,192.79573 59.167679,195.28716 C 51.411086,199.7432 47.213615,208.03437 43.9738,216.01618 C 43.107553,232.21226 41.069695,248.60021 43.9738,264.71255 C 46.201579,269.01499 48.889465,273.18153 50.871487,277.54149 C 51.936123,283.49784 51.133491,289.71099 52.642922,295.58124 C 52.23979,298.07553 54.156688,299.42608 55.449791,296.5092 C 59.306652,289.33196 59.813659,280.95898 60.274113,272.98212 C 58.423836,269.33673 53.384904,264.37383 51.066536,260.98108 C 47.240977,256.28748 60.216867,267.26555 56.116942,261.37627 C 50.924738,253.9591 50.631177,245.83398 50.527558,236.89317 C 51.592557,234.39898 48.569637,230.02484 50.815486,229.01101 C 50.824895,233.80588 57.599436,235.85999 61.651263,238.53643 C 59.433935,234.49939 56.0634,230.79119 55.419813,226.09234 L 55.524562,225.44423 L 55.819878,224.94072 L 55.819878,224.94072 z "
       style="opacity:1;fill:#000000;fill-opacity:1;fill-rule:evenodd;stroke:none;stroke-width:1;stroke-linecap:round;stroke-linejoin:round;stroke-miterlimit:4;stroke-dasharray:none;stroke-dashoffset:0;stroke-opacity:1"
       id="path3812" />
    <path
       d="M -143.57272,118.3104 L -135.12726,66.029022 L -152.8225,32.247206 L -165.69176,41.899153 L -178.56103,37.07318 L -188.21297,73.670147 L -176.14804,125.54936 C -189.20536,130.20824 -190.18069,119.76464 -195.45193,114.69092 L -197.46276,93.778371 L -189.82163,29.02989 C -178.93098,20.850806 -167.40301,13.521486 -152.01817,11.334653 L -131.50778,16.964956 C -123.75553,27.359937 -122.09744,39.278458 -120.24718,51.148936 L -122.258,99.006509 L -129.89913,117.90824 L -143.57272,118.3104 z "
       transform="translate(231.09138,170.86939)"
       style="opacity:1;fill:#552200;fill-opacity:1;fill-rule:evenodd;stroke:#000000;stroke-width:1;stroke-linecap:round;stroke-linejoin:round;stroke-miterlimit:4;stroke-dasharray:none;stroke-dashoffset:0;stroke-opacity:1"
       id="path4027" />
    <path
       d="M 40.465416,290.78845 L 35.639446,252.58283 L 43.682736,201.10577 L 62.584466,200.70361 L 81.084036,193.06248 L 103.20308,222.42049 L 101.59442,289.58195"
       style="opacity:1;fill:none;fill-opacity:1;fill-rule:evenodd;stroke:#000000;stroke-width:1;stroke-linecap:round;stroke-linejoin:round;stroke-miterlimit:4;stroke-dasharray:none;stroke-dashoffset:0;stroke-opacity:1"
       id="path4029" />
    <path
       d="M -122.66016,106.64763 L -125.87748,66.029022"
       transform="translate(231.09138,170.86939)"
       style="opacity:1;fill:none;fill-opacity:1;fill-rule:evenodd;stroke:#000000;stroke-width:1;stroke-linecap:round;stroke-linejoin:round;stroke-miterlimit:4;stroke-dasharray:none;stroke-dashoffset:0;stroke-opacity:1"
       id="path4031" />
    <path
       d="M -218.39864,126.83046 L -211.00493,158.11151 L -205.88622,166.07396 L -203.04248,190.53006"
       transform="translate(231.09138,170.86939)"
       style="opacity:1;fill:none;fill-opacity:1;fill-rule:evenodd;stroke:#000000;stroke-width:1;stroke-linecap:round;stroke-linejoin:round;stroke-miterlimit:4;stroke-dasharray:none;stroke-dashoffset:0;stroke-opacity:1"
       id="path4039" />
    <path
       d="M -94.411911,112.04305 L -128.5367,139.91163 L -150.14906,197.92377"
       transform="translate(231.09138,170.86939)"
       style="opacity:1;fill:none;fill-opacity:1;fill-rule:evenodd;stroke:#000000;stroke-width:1;stroke-linecap:round;stroke-linejoin:round;stroke-miterlimit:4;stroke-dasharray:none;stroke-dashoffset:0;stroke-opacity:1"
       id="path4041" />
    <path
       d="M -198.26709,116.29958 L -193.03895,113.68551 L -190.42488,121.12556 L -187.40865,115.29417 L -174.94155,127.3591 L -167.09934,128.96776 L -146.38787,122.93529 L -139.14891,112.27794 L -129.49696,117.50607 L -127.68722,102.22382 L -122.45908,101.4195 L -121.65475,99.609755 L -114.21471,102.82707 L -119.44285,126.35369 L -169.11016,143.44568 L -199.67466,123.94071 L -198.26709,116.29958 z "
       transform="translate(231.09138,170.86939)"
       style="opacity:1;fill:#552200;fill-opacity:1;fill-rule:evenodd;stroke:none;stroke-width:1;stroke-linecap:round;stroke-linejoin:round;stroke-miterlimit:4;stroke-dasharray:none;stroke-dashoffset:0;stroke-opacity:1"
       id="path4045" />
  </g>
</svg>
