<?xml version="1.0" encoding="UTF-8" standalone="no"?>
<!-- Created with Inkscape (http://www.inkscape.org/) -->
<svg
   xmlns:dc="http://purl.org/dc/elements/1.1/"
   xmlns:cc="http://creativecommons.org/ns#"
   xmlns:rdf="http://www.w3.org/1999/02/22-rdf-syntax-ns#"
   xmlns:svg="http://www.w3.org/2000/svg"
   xmlns="http://www.w3.org/2000/svg"
   xmlns:sodipodi="http://sodipodi.sourceforge.net/DTD/sodipodi-0.dtd"
   xmlns:inkscape="http://www.inkscape.org/namespaces/inkscape"
   width="416.50601"
   height="433.96103"
   id="svg2"
   sodipodi:version="0.32"
   inkscape:version="0.46"
   sodipodi:docbase="D:\Mark's Data\Personal\Church"
   sodipodi:docname="Hammer_and_Nails.svg"
   inkscape:output_extension="org.inkscape.output.svg.inkscape"
   version="1.0">
  <defs
     id="defs4">
    <inkscape:perspective
       sodipodi:type="inkscape:persp3d"
       inkscape:vp_x="0 : 526.18109 : 1"
       inkscape:vp_y="0 : 1000 : 0"
       inkscape:vp_z="744.09448 : 526.18109 : 1"
       inkscape:persp3d-origin="372.04724 : 350.78739 : 1"
       id="perspective3171" />
    <filter
       inkscape:collect="always"
       x="-0.082449749"
       width="1.1648995"
       y="-0.1240933"
       height="1.2481866"
       id="filter9659">
      <feGaussianBlur
         inkscape:collect="always"
         stdDeviation="0.71132048"
         id="feGaussianBlur9661" />
    </filter>
    <filter
       inkscape:collect="always"
       id="filter10640">
      <feGaussianBlur
         inkscape:collect="always"
         stdDeviation="0.27076698"
         id="feGaussianBlur10642" />
    </filter>
    <filter
       inkscape:collect="always"
       id="filter12627">
      <feGaussianBlur
         inkscape:collect="always"
         stdDeviation="1.9175345"
         id="feGaussianBlur12629" />
    </filter>
    <filter
       inkscape:collect="always"
       id="filter12643">
      <feGaussianBlur
         inkscape:collect="always"
         stdDeviation="2.6170519"
         id="feGaussianBlur12645" />
    </filter>
  </defs>
  <sodipodi:namedview
     id="base"
     pagecolor="#ffffff"
     bordercolor="#666666"
     borderopacity="1.0"
     gridtolerance="10000"
     guidetolerance="10"
     objecttolerance="10"
     inkscape:pageopacity="0.0"
     inkscape:pageshadow="2"
     inkscape:zoom="0.91510101"
     inkscape:cx="329.98495"
     inkscape:cy="212.18528"
     inkscape:document-units="px"
     inkscape:current-layer="layer1"
     inkscape:window-width="1024"
     inkscape:window-height="708"
     inkscape:window-x="0"
     inkscape:window-y="26"
     showgrid="false" />
  <metadata
     id="metadata7">
    <rdf:RDF>
      <cc:Work
         rdf:about="">
        <dc:format>image/svg+xml</dc:format>
        <dc:type
           rdf:resource="http://purl.org/dc/dcmitype/StillImage" />
      </cc:Work>
    </rdf:RDF>
  </metadata>
  <g
     inkscape:label="Layer 1"
     inkscape:groupmode="layer"
     id="layer1"
     transform="translate(-177.46349,-87.994412)">
    <g
       id="g2256">
      <g
         transform="translate(55.731547,29.50494)"
         id="g12660">
        <path
           style="fill:#ececec;fill-opacity:1;fill-rule:evenodd;stroke:#ececec;stroke-width:0.5948807"
           d="M 130.00302,129.64441 C 130.00302,129.64441 126.98822,126.9585 146.99555,116.16003 C 164.41565,106.75795 183.06353,98.509732 198.63089,91.27421 C 215.95229,80.969067 241.28982,71.595774 258.15954,64.634322 C 272.85222,58.571239 279.53723,59.481751 279.53723,59.481751 C 279.53723,59.481751 335.00404,97.185902 351.09122,114.23672 C 332.88215,121.41283 338.69586,117.37965 308.19839,137.66789 C 292.94966,147.81202 261.10448,168.95839 248.08649,177.06844 C 230.4713,188.0425 227.75113,198.72448 226.47668,204.19224 C 223.9278,196.92931 218.30931,191.85896 204.37956,181.84845 C 194.50585,174.75278 183.55687,168.72721 177.58208,164.50649 C 165.6325,156.06504 155.43699,148.50063 147.54369,142.36139 L 130.00302,129.64441 z"
           id="rect2203"
           sodipodi:nodetypes="cscsccsscsscc" />
        <path
           style="fill:#cccccc;fill-opacity:1;fill-rule:evenodd;stroke:#cccccc;stroke-width:0.5948807"
           d="M 130.632,210.90391 C 124.69047,202.14492 124.60239,184.04477 123.50611,170.23149 C 125.47943,146.77085 122.38954,140.64895 130.41276,128.24352 C 136.33511,139.72111 167.13854,158.6108 167.13854,158.6108 C 167.13854,158.6108 185.0733,170.27346 197.39511,178.35925 C 209.70977,186.44033 228.2371,194.44326 225.89976,213.42538 C 226.63206,222.97939 226.75943,231.34697 227.6464,244.72441 C 228.53337,258.10186 229.30291,275.1736 225.18031,280.21009 C 208.80049,275.96894 204.83592,270.28002 190.94089,261.28793 C 173.51722,250.01227 167.21615,244.3214 153.81172,233.6177 C 144.37653,226.08352 141.69391,224.23559 130.632,210.90391 z"
           id="path2215"
           sodipodi:nodetypes="ccccscscssc" />
        <path
           style="fill:#000000;fill-rule:evenodd;stroke:#000000;stroke-width:0.5948807px;stroke-linecap:butt;stroke-linejoin:miter;stroke-opacity:1"
           d="M 124.48779,202.00021 C 124.48779,202.00021 117.30232,139.82743 127.50028,126.23015 C 132.59926,119.43151 165.37665,102.46712 196.60027,88.597491 C 227.82389,74.727866 263.40724,62.427098 263.40724,62.427098 C 263.40724,62.427098 258.03972,66.08426 249.97887,70.300383 C 241.91802,74.516506 226.92447,80.538466 214.81877,86.645735 C 190.60738,98.860271 167.2889,108.73245 155.5142,115.29216 C 143.91717,121.75289 135.23455,127.08875 132.14577,135.31452 C 129.01618,143.64899 128.39325,157.97258 128.15009,168.82583 C 127.92264,178.72531 127.62146,187.58852 127.95861,194.57906 C 128.10424,197.59865 127.59601,206.58606 136.10691,216.9826 C 131.75523,215.969 130.61357,213.79123 128.51837,211.21165 C 125.05132,206.94308 124.70024,202.00021 124.48779,202.00021 z"
           id="path2164"
           sodipodi:nodetypes="csscsssssscsc" />
        <path
           style="fill:#000000;fill-opacity:1;fill-rule:evenodd;stroke:none;stroke-width:1px;stroke-linecap:butt;stroke-linejoin:miter;stroke-opacity:1"
           d="M 135.27081,133.60133 C 135.27081,133.60133 134.78769,134.77791 139.44027,138.57456 C 149.23675,146.56881 157.95916,152.21562 163.99505,156.40302 C 166.50827,158.14658 187.1739,172.00544 193.14311,176.11408 C 199.11232,180.22272 208.09313,184.88344 211.48856,187.59305 C 214.8761,190.29637 215.73129,190.59441 216.55397,191.83303 C 217.97056,193.96582 220.07413,195.97238 221.76223,197.38034 C 221.76223,197.38034 220.3517,194.03537 219.74557,191.97209 C 219.33368,190.56999 217.70494,188.8426 214.26522,186.09765 C 210.83339,183.35899 204.2763,179.51105 198.30606,175.4017 C 192.33581,171.29236 187.06532,167.86844 182.29898,164.65446 C 168.37168,155.26317 145.41086,140.95232 135.27081,133.60133 z"
           id="path2166"
           sodipodi:nodetypes="cssssscssssc" />
        <path
           style="fill:#b3b3b3;fill-opacity:1;fill-rule:evenodd;stroke:#b3b3b3;stroke-width:0.5948807"
           d="M 227.6538,208.6017 C 227.6538,208.6017 224.63901,190.56771 244.64633,179.76923 C 262.06643,170.36716 275.01361,156.85674 290.58096,149.62122 C 307.90236,139.31607 313.89401,135.0741 329.49933,125.61243 C 338.05278,120.42637 344.70427,115.01672 349.99999,115.63617 C 355.23295,118.55615 351.1665,149.15015 352.63108,172.64333 C 351.02604,182.5425 352.58996,187.5666 340.51019,198.20748 C 326.76716,210.3135 327.62059,211.5188 314.6026,221.82143 C 298.32859,234.70092 294.33039,240.39398 280.10451,250.28134 C 263.53419,261.79814 241.82954,274.70237 228.31159,278.54511 C 226.44789,272.29624 227.65381,255.08446 227.21529,228.33494 L 227.6538,208.6017 z"
           id="path2213"
           sodipodi:nodetypes="cscsccsssccc" />
        <path
           style="fill:#000000;fill-opacity:1;fill-rule:evenodd;stroke:none;stroke-width:1px;stroke-linecap:butt;stroke-linejoin:miter;stroke-opacity:1"
           d="M 343.17762,116.71354 C 342.22141,116.95259 337.43155,118.30083 330.08728,122.35868 C 321.70744,126.98871 315.56801,131.15511 307.41057,136.26091 C 302.45054,139.36542 286.94051,149.6678 270.7603,159.97867 C 262.6702,165.1341 254.60427,170.36183 247.98752,174.8135 C 241.37077,179.26517 236.21639,182.93264 233.89629,185.03801 C 223.42672,194.53861 225.48996,205.73035 225.07773,214.81028 C 224.84472,219.94259 225.37811,230.87952 225.75156,240.70847 C 226.25513,253.96203 226.54416,261.20343 228.89534,267.75834 C 230.88771,260.26936 230.15208,241.42967 230.13917,239.81319 C 230.11334,236.58024 229.77743,222.42822 230.00806,217.3482 C 230.42722,208.11583 227.13775,197.36319 237.34219,188.10319 C 239.59141,186.06214 245.64096,181.94487 252.25066,177.49794 C 258.86037,173.05102 266.91711,168.25353 275.00485,163.09961 C 291.18032,152.79177 305.71381,142.31123 310.68055,139.2025 C 318.85878,134.08369 324.52838,129.3975 333.04435,125.13951 C 334.49535,124.41401 337.53807,121.91245 339.17627,120.40224 L 343.17762,116.71354 z"
           id="path2168"
           sodipodi:nodetypes="cssssssscssssssssc" />
        <path
           style="fill:#000000;fill-opacity:1;fill-rule:evenodd;stroke:none;stroke-width:1px;stroke-linecap:butt;stroke-linejoin:miter;stroke-opacity:1"
           d="M 269.25354,60.479196 C 274.72693,61.381804 277.0687,61.063198 281.46598,62.306182 C 287.23206,63.936085 291.84949,68.036141 295.73592,70.485284 C 303.50877,75.383571 311.20418,81.738301 313.92886,83.677333 C 325.1134,91.636849 332.04884,97.363593 341.32352,106.29049 C 345.81223,110.61089 349.51665,114.99471 349.8272,119.98046 C 350.13775,124.96621 350.12095,130.74539 350.12095,135.22244 C 350.12096,148.06777 350.34035,153.51472 350.34035,167.3589 C 350.34034,173.65619 350.8371,183.11065 347.59862,190.92155 L 350.46026,188.4137 C 354.62646,180.92012 353.44871,173.72467 353.44872,167.3589 C 353.44872,153.52636 353.8577,145.881 353.8577,133.02313 C 353.8577,128.60394 354.50771,123.12159 354.19232,118.05817 C 353.87693,112.99474 352.26438,108.72378 348.6339,105.58426 C 339.08861,97.329798 327.82878,89.300943 317.30336,81.290283 C 314.71634,79.321367 306.75037,73.955645 299.36851,68.458643 C 293.72959,64.259548 284.91449,59.737955 280.52475,58.67143 C 277.56643,57.952679 272.16449,59.531514 269.25354,60.479196 z"
           id="path2170"
           sodipodi:nodetypes="csssssssccsssssssc" />
        <path
           style="fill:#000000;fill-opacity:1;fill-rule:evenodd;stroke:none;stroke-width:1px;stroke-linecap:butt;stroke-linejoin:miter;stroke-opacity:1"
           d="M 299.92953,232.00345 C 298.50299,233.24697 281.02368,246.67701 278.78662,248.34881 C 274.3125,251.6924 268.61889,255.65702 262.29727,259.70226 C 257.43177,262.81573 249.59657,266.4281 238.92661,272.01843 C 233.00103,274.65919 226.0763,275.74186 222.70509,274.89047 C 219.4365,274.065 215.53213,272.94188 209.89657,269.21363 C 203.45774,265.71642 195.10206,260.62492 187.58179,256.52704 C 180.06152,252.42915 173.51266,246.04319 164.31969,239.17125 C 160.73244,236.48971 153.96943,231.08499 151.42377,229.01909 L 140.34034,220.02442 C 141.16948,223.7317 146.25536,229.84759 148.89799,231.88491 C 151.54063,233.92224 161.41016,244.50518 168.18352,250.43928 C 174.65134,255.12121 180.14109,258.44489 187.27998,263.16545 C 194.79514,268.13481 199.68145,271.72383 203.87931,274.74251 L 212.2033,279.11378 C 223.13567,285.06342 230.52972,282.93532 237.04964,280.9627 L 255.42066,271.13423 C 265.59863,265.2179 277.27319,255.77903 281.56768,252.18158 C 289.24623,245.74934 300.87837,236.92113 301.96904,235.3434 C 303.93173,232.50421 306.27528,231.21383 305.72612,228.21622 C 305.72612,228.21622 301.35607,230.75994 299.92953,232.00345 z"
           id="path2176"
           sodipodi:nodetypes="csscscssscscsccccsscs" />
        <path
           style="fill:#a05a2c;fill-opacity:1;fill-rule:evenodd;stroke:#a05a2c;stroke-width:0.5948807"
           d="M 318.2933,180.2936 C 322.54318,182.42723 526.9086,292.76272 526.9086,292.76272 L 492.13503,337.69929 C 492.13503,337.69929 340.46587,242.70935 286.43588,208.27828 C 284.05361,205.11634 283.9302,192.38245 292.06663,182.87608 C 301.14276,172.2718 314.30735,178.29248 318.2933,180.2936 z"
           id="rect2217"
           sodipodi:nodetypes="cccczz" />
        <path
           style="fill:#c87137;fill-opacity:1;fill-rule:evenodd;stroke:#c87137;stroke-width:0.5948807;filter:url(#filter12627)"
           d="M 287.0772,190.82002 C 296.91529,173.33285 304.92448,174.97367 318.04038,180.02494 C 322.29026,182.15856 528.74663,293.01544 528.74663,293.01544 L 496.9362,317.2512"
           id="path2226"
           sodipodi:nodetypes="cczc" />
        <path
           style="fill:#deaa87;fill-opacity:1;fill-rule:evenodd;stroke:#deaa87;stroke-width:0.5948807;filter:url(#filter12643)"
           d="M 293.37936,180.57013 C 297.01212,177.8917 303.95749,175.7832 307.62529,176.59984 C 311.87518,178.73346 518.37179,290.87416 518.37179,290.87416 L 502.89559,299.1799"
           id="path2228"
           sodipodi:nodetypes="cczc" />
        <path
           sodipodi:type="arc"
           style="fill:#552200;fill-opacity:1;fill-rule:evenodd;stroke:#552200"
           id="path2224"
           sodipodi:cx="714.85193"
           sodipodi:cy="416.72742"
           sodipodi:rx="59.294289"
           sodipodi:ry="39.84576"
           d="M 774.14622,416.72742 A 59.294289,39.84576 0 1 1 655.55764,416.72742 A 59.294289,39.84576 0 1 1 774.14622,416.72742 z"
           transform="matrix(0.3371754,-0.3463626,0.3214596,0.4184967,136.68376,389.6403)" />
        <path
           style="fill:#000000;fill-opacity:1;fill-rule:evenodd;stroke:none;stroke-width:1px;stroke-linecap:butt;stroke-linejoin:miter;stroke-opacity:1"
           d="M 302.70689,175.56273 C 302.70689,175.56273 287.72567,178.12401 284.44614,187.81806 C 281.19963,197.41453 281.81068,202.84659 281.81068,202.84659 C 281.81068,202.84659 282.14963,207.52175 283.64296,209.66973 C 289.44476,214.06876 300.1967,220.73024 300.1967,220.73024 L 395.59789,283.18725 L 491.81661,342.96694 C 491.81661,342.96694 496.54935,346.66697 504.05388,346.13478 C 506.91681,345.93176 514.42991,344.13073 521.15209,338.43876 L 523.15356,334.41743 C 512.69057,344.90484 497.77274,340.32254 497.65349,340.29003 L 286.80131,206.34861 C 285.59443,204.70657 284.4291,199.09425 287.55056,189.86739 C 290.70132,180.55395 302.92379,176.12453 302.92379,176.12453 L 302.70689,175.56273 z"
           id="path2233"
           sodipodi:nodetypes="cscccccsccccscc" />
        <path
           style="fill:#000000;fill-opacity:1;fill-rule:evenodd;stroke:none;stroke-width:1px;stroke-linecap:butt;stroke-linejoin:miter;stroke-opacity:1"
           d="M 308.86448,175.69601 L 305.9982,176.02012 C 309.79408,176.91349 313.23237,178.31764 317.50442,180.18933 C 317.81637,180.326 318.94819,180.90965 320.76403,181.86038 C 322.57986,182.81109 325.07877,184.14707 328.17331,185.78706 C 334.36238,189.06701 343.81289,194.2181 353.91547,199.6092 C 374.12064,210.39141 399.71401,224.59208 425.97725,238.65911 C 478.48084,266.78092 520.96116,289.64244 520.91675,289.61684 C 519.50564,288.80341 525.94018,291.65891 529.68798,294.679 C 531.09104,295.80963 534.47025,300.82146 534.28846,306.73101 C 533.95213,317.66482 530.94385,321.29625 524.22834,333.68699 C 524.22834,333.68699 525.97727,332.98787 526.89298,332.01076 C 531.22676,327.02074 534.35003,323.62127 536.50732,316.81171 C 538.08625,311.82772 538.66066,305.91103 537.91379,302.81505 C 536.42005,296.62308 534.88678,294.95735 531.85321,291.48222 C 528.77503,287.95596 481.19619,263.04731 428.66944,234.91311 C 402.40606,220.84601 373.9607,205.75866 353.755,194.97617 C 343.65214,189.5849 335.49576,186.62091 329.30572,183.34044 C 326.2107,181.7002 322.64003,179.85559 320.82256,178.90401 C 319.00509,177.95245 314.31658,177.30166 308.86448,175.69601 z"
           id="path2235"
           sodipodi:nodetypes="ccssssssssccsszssssc" />
        <path
           style="fill:#000000;fill-opacity:1;fill-rule:evenodd;stroke:none;stroke-width:1px;stroke-linecap:butt;stroke-linejoin:miter;stroke-opacity:1"
           d="M 514.11551,289.94529 C 509.89446,290.88933 500.27102,292.57083 494.34883,299.64345 C 488.46317,306.67244 487.72897,309.23408 486.46537,313.39971 C 485.22941,317.47421 485.8905,322.48945 486.32873,325.97109 C 486.54784,327.71189 487.83335,330.63735 488.32802,332.02977 C 488.90406,333.65121 489.56393,333.76762 489.56393,333.76762 C 488.34782,330.0927 488.21871,323.24874 489.20965,318.38637 C 490.18732,313.58909 492.96947,307.92206 495.74077,304.32987 C 498.54037,300.70099 503.53957,295.35627 517.18093,289.78097 L 514.11551,289.94529 z"
           id="path2246"
           sodipodi:nodetypes="czzzsczzcc" />
      </g>
      <g
         transform="matrix(1.1378479,0,0,1,-108.99235,-211.05017)"
         id="g12721">
        <g
           id="g12712"
           transform="matrix(0.7464028,0.4218868,0.6654945,-0.963604,-298.11611,977.80347)">
          <path
             sodipodi:nodetypes="cssssz"
             id="path12679"
             d="M 309.87557,542.21042 C 320.15784,543.81753 316.42153,545.92991 316.32466,546.07856 C 314.00878,549.63239 311.99222,558.7244 310.44994,564.01238 C 308.8791,569.39824 306.91169,584.22734 299.86956,584.71993 C 285.26261,585.73825 280.59151,574.23139 283.3373,563.65103 C 286.79243,550.36285 299.72392,540.62372 309.87557,542.21042 z"
             style="fill:#c8b7b7;fill-opacity:1;fill-rule:evenodd;stroke:#f4d7d7;stroke-width:0;stroke-miterlimit:4;stroke-dasharray:none" />
          <path
             sodipodi:nodetypes="csssc"
             id="path12681"
             d="M 314.27485,544.69419 C 321.96514,544.8905 325.58322,553.64689 322.39377,564.22767 C 320.76953,569.61598 310.53599,582.98093 302.8457,582.78463 C 295.15541,582.58832 291.54286,574.09244 294.67286,563.50988 C 297.80286,552.92732 306.58455,544.49789 314.27485,544.69419 z"
             style="fill:#6c5353;fill-opacity:1;fill-rule:evenodd;stroke:#6c5353;stroke-width:0.51574987" />
          <path
             sodipodi:nodetypes="cssscz"
             id="path12691"
             d="M 209.57938,301.8964 C 210.74462,305.59043 210.38034,307.8391 209.36106,309.38152 C 208.34178,310.92394 206.086,311.83224 203.46821,312.84551 C 198.18184,314.89172 197.18553,317.47105 196.87082,310.35423 C 196.7049,306.60209 204.28621,302.2796 202.02575,302.59251 C 199.04146,303.90869 207.2345,294.46266 209.57938,301.8964 z"
             style="fill:#f4d7d7;fill-opacity:1;fill-rule:evenodd;stroke:#f4d7d7;stroke-width:0;stroke-miterlimit:4;filter:url(#filter9659)"
             transform="matrix(0.203879,-0.6847197,0.4710765,0.1063002,101.57812,677.91539)" />
          <path
             transform="matrix(0.1062164,-0.5097099,0.5613858,-2.5788727e-2,86.017303,726.69028)"
             sodipodi:nodetypes="cscssc"
             id="path12693"
             d="M 329.81934,303.89842 C 334.71875,306.27105 338.92302,311.11509 341.71485,319.23678 C 344.50668,327.35846 342.93992,337.67579 339.81712,344.70493 C 338.77977,338.32768 338.33961,337.93187 335.04989,332.57794 C 334.01236,330.88938 330.40428,327.6012 330.39321,327.23683 C 330.32429,324.9678 330.1612,308.31185 329.81934,303.89842 z"
             style="fill:#ac9393;fill-rule:evenodd;stroke:#000000;stroke-width:0;stroke-linecap:butt;stroke-linejoin:miter;stroke-miterlimit:4;stroke-dasharray:none;stroke-opacity:1;filter:url(#filter10640)" />
          <path
             sodipodi:nodetypes="cscssc"
             id="path12695"
             d="M 291.63785,549.60987 C 293.4902,547.0514 296.65614,544.78352 301.51208,543.15105 C 306.36802,541.51858 311.9936,542.0511 315.60797,543.46155 C 311.91769,544.15476 311.64873,544.38932 308.29369,546.20419 C 307.23556,546.77658 305.00638,548.70045 304.80065,548.71549 C 303.51953,548.80914 294.15179,549.3218 291.63785,549.60987 z"
             style="fill:#ac9393;fill-rule:evenodd;stroke:#000000;stroke-width:0;stroke-linecap:butt;stroke-linejoin:miter;stroke-miterlimit:4;stroke-dasharray:none;stroke-opacity:1" />
          <path
             sodipodi:nodetypes="cscssscssz"
             id="path12697"
             d="M 293.80474,562.56391 C 292.6816,566.43229 291.71143,570.39315 292.27017,574.51874 C 292.66977,577.4693 294.51521,581.30687 300.57118,582.74638 C 295.71194,579.34099 295.66075,574.84179 295.82663,571.68438 C 295.98389,568.69126 297.39497,563.79129 299.02588,560.00818 C 301.1805,555.01027 305.70117,547.71348 312.18676,546.11572 C 315.98486,545.18003 318.45908,546.36978 322.81223,550.53938 C 320.84089,546.09052 317.17218,542.66321 313.134,543.28757 C 309.09582,543.91193 304.99296,545.62785 300.794,550.46913 C 298.83645,552.72615 294.92789,558.69553 293.80474,562.56391 z"
             style="fill:#000000;fill-opacity:1;fill-rule:evenodd;stroke:none;stroke-width:1px;stroke-linecap:butt;stroke-linejoin:miter;stroke-opacity:1" />
          <path
             sodipodi:nodetypes="cscsssscssz"
             id="path12699"
             d="M 284.4304,558.67156 C 287.20905,551.89925 294.04456,546.10776 299.49456,543.7341 C 305.2883,541.21072 309.69714,541.35634 313.24179,542.75658 C 307.48639,542.39007 304.42091,543.54608 300.79309,545.55396 C 298.51106,546.81699 290.34255,552.42322 287.91566,560.33212 C 286.12149,566.17911 285.5765,572.50711 287.60186,576.66851 C 289.65055,580.87787 295.66624,583.49209 299.46463,583.43732 C 302.5745,583.38964 304.95123,582.86819 309.56768,580.54958 C 305.43438,583.72091 301.32607,585.70669 297.23864,585.68353 C 290.9954,585.64815 285.38382,582.43004 283.18648,576.64301 C 281.23006,571.49048 281.65964,565.42467 284.4304,558.67156 z"
             style="fill:#000000;fill-opacity:1;fill-rule:evenodd;stroke:none;stroke-opacity:1" />
        </g>
        <path
           style="fill:#f4d7d7;fill-opacity:1;fill-rule:evenodd;stroke:#f4d7d7;stroke-width:0.53235769"
           d="M 304.58435,561.88214 L 307.04978,558.06057 L 313.06037,552.796 L 343.24695,560.0873 L 379.93113,572.61211 L 451.52363,596.95116 L 473.29165,607.11364 L 495.05967,617.27611 L 444.86174,603.63573 L 304.58435,561.88214 z"
           id="path12683"
           sodipodi:nodetypes="cccccccccc" />
        <path
           style="fill:#ac9393;fill-opacity:1;fill-rule:evenodd;stroke:#ac9393;stroke-width:0.53235769"
           d="M 304.7892,561.3952 L 302.56504,569.2589 L 303.01355,577.77092 L 331.32973,585.95194 L 374.92126,597.47783 L 426.92088,607.16899 L 466.91936,614.25531 L 495.41615,617.1588 L 443.96604,603.49146 L 304.7892,561.3952 z"
           id="path12685"
           sodipodi:nodetypes="cccccccccc" />
        <path
           style="fill:#000000;fill-opacity:1;fill-rule:evenodd;stroke:none;stroke-width:1px;stroke-linecap:butt;stroke-linejoin:miter;stroke-opacity:1"
           d="M 490.94606,614.43516 C 478.48232,608.90157 457.251,597.71878 447.68516,594.11493 C 432.56225,588.41748 396.44532,577.13457 381.7673,571.64539 C 363.53879,564.82843 318.97185,551.52886 313.03571,552.10941 C 308.15977,553.81712 306.35707,558.95688 306.35707,558.95688 C 307.75851,558.65826 309.36919,557.16517 310.18603,556.43444 C 312.81069,554.0865 314.18304,555.00637 315.71561,555.19622 C 318.3171,555.12761 369.35582,572.26461 378.45003,575.6656 C 393.18688,581.17677 432.13097,593.08529 446.71799,599.3913 C 454.46219,602.73914 468.18955,606.1565 469.75669,607.167 M 438.88783,606.90589 L 398.85582,598.85494 C 379.53068,595.68335 310.34323,577.69742 306.78794,575.59315 C 305.48527,574.67798 304.12764,574.45149 305.11136,568.41888 C 305.75435,564.47576 305.26559,563.7867 303.90011,562.51852 C 303.90011,562.51852 297.35362,578.42073 305.45169,580.49747 C 323.68704,587.38083 380.00272,601.29177 418.68853,607.64079 C 436.42877,611.14681 468.15154,615.93197 498.70316,617.99055 C 498.70316,617.99055 484.75697,614.49869 475.5639,612.84383"
           id="path12687"
           sodipodi:nodetypes="cssccscssccccsccccs" />
        <path
           style="fill:#000000;fill-opacity:1;fill-rule:evenodd;stroke:none;stroke-width:1px;stroke-linecap:butt;stroke-linejoin:miter;stroke-opacity:1"
           d="M 308.47609,564.89007 C 391.49803,589.3348 457.28151,607.22232 457.28151,607.22232 L 422.15819,594.43168 C 422.15819,594.43168 391.33084,585.20244 308.29891,560.75476 L 308.47609,564.89007 z"
           id="path12689"
           sodipodi:nodetypes="ccccc" />
      </g>
      <g
         transform="matrix(0.5713457,0,0,0.5713457,188.70553,118.92683)"
         id="g12647">
        <path
           style="fill:#c8b7b7;fill-opacity:1;fill-rule:evenodd;stroke:#f4d7d7;stroke-width:0;stroke-miterlimit:4;stroke-dasharray:none"
           d="M 345.05903,333.47359 C 340.93992,352.56882 337.09556,346.64067 336.80993,346.52217 C 329.98101,343.68894 312.15449,343.46966 301.82007,342.6777 C 291.29437,341.87107 262.09898,343.89038 261.76404,331.40957 C 261.07606,305.52029 284.29462,292.80658 305.00301,293.77957 C 331.01065,295.01347 349.12581,314.62095 345.05903,333.47359 z"
           id="path5684"
           sodipodi:nodetypes="cssssz" />
        <path
           transform="matrix(0.9491577,7.6343376e-2,-7.693576e-2,0.9826673,43.406811,-18.671741)"
           style="fill:#6c5353;fill-opacity:1;fill-rule:evenodd;stroke:#6c5353"
           d="M 339.84171,340.95343 C 339.84171,355.10343 322.13946,366.44036 300.3546,366.33084 C 289.26057,366.27506 261.41973,354.80548 261.41973,340.65548 C 261.41973,326.50548 278.58999,315.31936 300.3754,315.31936 C 322.1608,315.31936 339.84171,326.80343 339.84171,340.95343 z"
           id="path5680"
           sodipodi:nodetypes="csssc" />
        <path
           style="fill:#ac9393;fill-opacity:1;fill-rule:evenodd;stroke:#ac9393"
           d="M 309.00462,335.2465 L 316.35027,338.24835 L 326.23173,347.08544 L 309.04179,404.1094 L 280.89376,474.78087 L 226.1668,612.66358 L 204.05552,655.62264 L 181.94425,698.58169 L 213.53179,603.18732 L 309.00462,335.2465 z"
           id="rect5673"
           sodipodi:nodetypes="cccccccccc" />
        <path
           style="fill:#f4d7d7;fill-opacity:1;fill-rule:evenodd;stroke:#f4d7d7;stroke-width:1"
           d="M 309.95054,335.43243 L 294.57602,334.37943 L 277.67406,338.37629 L 258.89192,392.36972 L 232.09406,475.08985 L 208.16544,572.24449 L 190.4887,646.83854 L 182.14419,699.17885 L 213.89908,601.5223 L 309.95054,335.43243 z"
           id="path5678"
           sodipodi:nodetypes="cccccccccc" />
        <path
           style="fill:#000000;fill-opacity:1;fill-rule:evenodd;stroke:none;stroke-width:1px;stroke-linecap:butt;stroke-linejoin:miter;stroke-opacity:1"
           d="M 187.9461,690.11852 C 200.04155,665.62826 224.12507,623.25209 232.13427,604.69703 C 244.79625,575.3628 270.43266,506.17698 282.6416,477.72095 C 297.80379,442.38164 328.20383,357.24247 327.59401,346.78377 C 324.65495,338.65431 314.63783,337.33842 314.63783,337.33842 C 315.10183,339.74703 317.91288,342.08428 319.28602,343.27953 C 323.69814,347.12005 321.75112,349.93302 321.23559,352.76054 C 321.13479,357.41365 282.54441,455.6307 274.97999,473.26148 C 262.72211,501.83157 235.58921,576.33657 221.77051,604.93506 C 214.4342,620.11792 206.41575,646.08767 204.27149,649.28492 M 207.59766,593.66871 L 227.18823,518.65283 C 235.22924,482.70745 277.15268,351.53133 281.64447,344.34841 C 283.57583,341.66254 284.14801,339.13593 296.00828,338.64423 C 303.76055,338.32283 305.16995,337.18552 307.80629,334.25439 C 307.80629,334.25439 276.9019,328.44031 272.05127,343.78321 C 256.75694,379.1597 224.07678,485.65838 207.97998,557.61524 C 199.42073,590.83548 187.05534,649.68302 180.19751,705.40235 C 180.19751,705.40235 188.38344,679.0111 192.49804,661.85693"
           id="path2512"
           sodipodi:nodetypes="cssccscssccccsccccs" />
        <path
           style="fill:#000000;fill-opacity:1;fill-rule:evenodd;stroke:none;stroke-width:1px;stroke-linecap:butt;stroke-linejoin:miter;stroke-opacity:1"
           d="M 302.69219,343.37321 C 246.71586,501.85165 205.29709,626.86876 205.29709,626.86876 L 233.82969,558.9049 C 233.82969,558.9049 254.91671,500.00221 310.89978,341.50469 L 302.69219,343.37321 z"
           id="path2550"
           sodipodi:nodetypes="ccccc" />
        <path
           transform="matrix(1.3377834,0.1100571,-0.2534323,0.8870818,95.200386,9.7062954)"
           style="fill:#f4d7d7;fill-opacity:1;fill-rule:evenodd;stroke:#f4d7d7;stroke-width:0;stroke-miterlimit:4;filter:url(#filter9659)"
           d="M 209.57938,301.8964 C 210.74462,305.59043 210.38034,307.8391 209.36106,309.38152 C 208.34178,310.92394 206.086,311.83224 203.46821,312.84551 C 198.18184,314.89172 197.18553,317.47105 196.87082,310.35423 C 196.7049,306.60209 204.28621,302.2796 202.02575,302.59251 C 199.04146,303.90869 207.2345,294.46266 209.57938,301.8964 z"
           id="path8648"
           sodipodi:nodetypes="cssscz" />
        <path
           style="fill:#ac9393;fill-rule:evenodd;stroke:#000000;stroke-width:0;stroke-linecap:butt;stroke-linejoin:miter;stroke-miterlimit:4;stroke-dasharray:none;stroke-opacity:1;filter:url(#filter10640)"
           d="M 329.81934,303.89842 C 334.71875,306.27105 338.92302,311.11509 341.71485,319.23678 C 344.50668,327.35846 342.93992,337.67579 339.81712,344.70493 C 338.77977,338.32768 338.33961,337.93187 335.04989,332.57794 C 334.01236,330.88938 330.40428,327.6012 330.39321,327.23683 C 330.32429,324.9678 330.1612,308.31185 329.81934,303.89842 z"
           id="path9665"
           sodipodi:nodetypes="cscssc" />
        <path
           style="fill:#ac9393;fill-rule:evenodd;stroke:#000000;stroke-width:0;stroke-linecap:butt;stroke-linejoin:miter;stroke-miterlimit:4;stroke-dasharray:none;stroke-opacity:1"
           d="M 332.0613,303.44585 C 336.96071,305.81848 341.16498,310.66252 343.95681,318.78421 C 346.74864,326.90589 345.18188,337.22322 342.05908,344.25236 C 341.02173,337.87511 340.58157,337.4793 337.29185,332.12537 C 336.25432,330.43681 332.64624,327.14863 332.63517,326.78426 C 332.56625,324.51523 332.40316,307.85928 332.0613,303.44585 z"
           id="path10646"
           sodipodi:nodetypes="cscssc" />
        <path
           style="fill:#000000;fill-opacity:1;fill-rule:evenodd;stroke:none;stroke-width:1px;stroke-linecap:butt;stroke-linejoin:miter;stroke-opacity:1"
           d="M 306.20394,312.19807 C 298.64342,311.62789 290.88577,311.3675 282.6627,313.91862 C 276.78168,315.74315 269.01207,320.50047 265.60951,331.93179 C 272.79731,321.91603 281.71426,320.13773 287.95356,319.25272 C 293.8682,318.41377 303.44597,319.11518 310.79138,320.63056 C 320.49549,322.63254 334.53807,328.02833 337.11286,339.09399 C 338.62071,345.57427 336.03884,350.47012 327.38332,359.86206 C 336.37527,354.6492 343.49815,346.76642 342.62884,339.73766 C 341.75953,332.7089 338.73387,325.97292 329.52604,320.23545 C 325.23333,317.56064 313.76446,312.76826 306.20394,312.19807 z"
           id="path5665"
           sodipodi:nodetypes="cscssscssz" />
        <path
           style="fill:#000000;fill-opacity:1;fill-rule:evenodd;stroke:none;stroke-opacity:1"
           d="M 314.76718,293.8793 C 327.92935,296.33859 338.77949,306.46183 342.98546,315.37417 C 347.45671,324.84861 346.76707,332.8326 343.67085,339.73251 C 344.92057,329.24394 342.90961,324.16386 339.2624,318.39167 C 336.96817,314.76075 326.6063,302.17063 311.16069,300.76998 C 299.74187,299.73449 287.25657,301.12597 278.8291,306.32826 C 270.30452,311.5905 264.57871,323.38962 264.34156,330.20059 C 264.15301,335.7759 264.96967,339.85506 269.14243,347.28888 C 263.23658,341.04361 259.67686,334.39897 260.09468,327.03894 C 260.73287,315.79708 267.61814,304.49842 279.28139,298.37755 C 289.66588,292.92778 301.64233,291.42699 314.76718,293.8793 z"
           id="path4676"
           sodipodi:nodetypes="cscsssscssz" />
      </g>
    </g>
  </g>
</svg>
