<?xml version="1.0" encoding="UTF-8" standalone="no"?>
<!-- Created with Inkscape (http://www.inkscape.org/) -->

<svg
   xmlns:svg="http://www.w3.org/2000/svg"
   xmlns="http://www.w3.org/2000/svg"
   xmlns:xlink="http://www.w3.org/1999/xlink"
   version="1.0"
   width="500"
   height="100"
   id="svg2">
  <defs
     id="defs4">
    <linearGradient
       id="linearGradient3680">
      <stop
         id="stop3682"
         style="stop-color:#c6c6c6;stop-opacity:1"
         offset="0" />
      <stop
         id="stop3684"
         style="stop-color:#000003;stop-opacity:1"
         offset="1" />
    </linearGradient>
    <linearGradient
       id="linearGradient3249">
      <stop
         id="stop3251"
         style="stop-color:#222c37;stop-opacity:1"
         offset="0" />
      <stop
         id="stop3253"
         style="stop-color:#707d7d;stop-opacity:1"
         offset="1" />
    </linearGradient>
    <linearGradient
       id="linearGradient3190">
      <stop
         id="stop3192"
         style="stop-color:#1a1608;stop-opacity:1"
         offset="0" />
      <stop
         id="stop3194"
         style="stop-color:#5f4121;stop-opacity:1"
         offset="1" />
    </linearGradient>
    <filter
       color-interpolation-filters="sRGB"
       id="filter3870">
      <feGaussianBlur
         stdDeviation="0.6301229"
         id="feGaussianBlur3872" />
    </filter>
    <filter
       color-interpolation-filters="sRGB"
       id="filter3890">
      <feGaussianBlur
         stdDeviation="0.6301229"
         id="feGaussianBlur3892" />
    </filter>
    <linearGradient
       x1="450.4176"
       y1="267.60138"
       x2="452.47379"
       y2="302.59485"
       id="linearGradient3930"
       xlink:href="#linearGradient3249"
       gradientUnits="userSpaceOnUse"
       gradientTransform="matrix(1.01461,0,0,1.1821694,-69.45138,204.45961)" />
    <linearGradient
       x1="28.757851"
       y1="58.300659"
       x2="0"
       y2="58.300659"
       id="linearGradient3932"
       xlink:href="#linearGradient3680"
       gradientUnits="userSpaceOnUse"
       gradientTransform="matrix(0.99952557,0.03079963,-0.03079963,0.99952557,128.74004,476.9854)" />
    <linearGradient
       x1="21.259842"
       y1="426.96851"
       x2="28.346457"
       y2="426.96851"
       id="linearGradient3934"
       xlink:href="#linearGradient3190"
       gradientUnits="userSpaceOnUse"
       gradientTransform="matrix(1.0160453,0.03130867,-0.02843834,0.92289567,118.36962,124.79633)" />
    <linearGradient
       x1="283.79147"
       y1="379.91382"
       x2="276.18192"
       y2="380.01672"
       id="linearGradient3936"
       xlink:href="#linearGradient3680"
       gradientUnits="userSpaceOnUse"
       gradientTransform="matrix(1.050809,0.03237989,-0.02911019,0.94469908,-152.28874,169.94496)" />
    <radialGradient
       cx="296.53055"
       cy="366.45499"
       r="3.233532"
       fx="296.53055"
       fy="366.45499"
       id="radialGradient3938"
       xlink:href="#linearGradient3680"
       gradientUnits="userSpaceOnUse"
       gradientTransform="matrix(0.99952557,0.03079963,-0.03079963,0.99952557,-136.28881,150.97627)" />
    <radialGradient
       cx="296.53055"
       cy="366.45499"
       r="3.233532"
       fx="296.53055"
       fy="366.45499"
       id="radialGradient3940"
       xlink:href="#linearGradient3680"
       gradientUnits="userSpaceOnUse"
       gradientTransform="matrix(0.99952557,0.03079963,-0.03079963,0.99952557,-136.94217,172.17942)" />
    <linearGradient
       x1="471.24048"
       y1="59.370609"
       x2="499.99832"
       y2="59.370609"
       id="linearGradient3942"
       xlink:href="#linearGradient3680"
       gradientUnits="userSpaceOnUse"
       gradientTransform="matrix(0.99959998,-0.02828248,0.02828248,0.99959998,115.74846,491.01312)" />
    <linearGradient
       x1="21.259842"
       y1="426.96851"
       x2="28.346457"
       y2="426.96851"
       id="linearGradient3944"
       xlink:href="#linearGradient3190"
       gradientUnits="userSpaceOnUse"
       gradientTransform="matrix(1.0161209,-0.02874994,0.02611418,0.92296438,576.78841,126.12518)" />
    <linearGradient
       x1="10.630208"
       y1="425.93787"
       x2="17.716845"
       y2="426.07532"
       id="linearGradient3947"
       xlink:href="#linearGradient3680"
       gradientUnits="userSpaceOnUse"
       gradientTransform="matrix(1.1288854,0,0,1.0007411,-614.20415,126.18152)" />
    <radialGradient
       cx="296.53055"
       cy="366.45499"
       r="3.233532"
       fx="296.53055"
       fy="366.45499"
       id="radialGradient3949"
       xlink:href="#linearGradient3680"
       gradientUnits="userSpaceOnUse"
       gradientTransform="matrix(0.99959998,-0.02828248,0.02828248,0.99959998,289.17178,189.50921)" />
    <radialGradient
       cx="296.53055"
       cy="366.45499"
       r="3.233532"
       fx="296.53055"
       fy="366.45499"
       id="radialGradient3951"
       xlink:href="#linearGradient3680"
       gradientUnits="userSpaceOnUse"
       gradientTransform="matrix(0.99959998,-0.02828248,0.02828248,0.99959998,288.57219,168.31746)" />
  </defs>
  <g
     transform="matrix(1.0169879,0,0,1.0173231,-128.56735,-485.23434)"
     id="g3912">
    <path
       d="m 140.0971,558.51379 c 0,0 35.95089,4.1888 35.95089,4.1888 0,0 5.02953,-9.79299 5.02953,-9.79299 0,0 2.78051,8.80054 2.78051,8.80054 0,0 4.41915,-7.84601 4.41915,-7.84601 0,0 2.78051,8.8005 2.78051,8.8005 0,0 4.41913,-7.84598 4.41913,-7.84598 0,0 2.7805,8.80052 2.7805,8.80052 0,0 4.41915,-7.846 4.41915,-7.846 0,0 2.78051,8.80054 2.78051,8.80054 0,0 4.349,-7.88757 4.349,-7.88757 0,0 2.88516,8.75513 2.88516,8.75513 0,0 4.32524,-7.91625 4.32524,-7.91625 0,0 2.88516,8.75515 2.88516,8.75515 0,0 4.32525,-7.91627 4.32525,-7.91627 0,0 2.90777,8.71839 2.90777,8.71839 0,0 4.2549,-7.96744 4.2549,-7.96744 0,0 2.96254,8.72028 2.96254,8.72028 0,0 4.25492,-7.96743 4.25492,-7.96743 0,0 2.96254,8.72025 2.96254,8.72025 0,0 4.19935,-8.01374 4.19935,-8.01374 0,0 3.04527,8.68179 3.04527,8.68179 0,0 4.17889,-8.02146 4.17889,-8.02146 0,0 3.04528,8.6818 3.04528,8.6818 0,0 4.17887,-8.02143 4.17887,-8.02143 0,0 3.06942,8.6578 3.06942,8.6578 0,0 4.09648,-8.07846 4.09648,-8.07846 0,0 3.13392,8.63916 3.13392,8.63916 0,0 4.09648,-8.07845 4.09648,-8.07845 0,0 3.13391,8.63916 3.13391,8.63916 0,0 4.09648,-8.07845 4.09648,-8.07845 0,0 3.16066,8.59435 3.16066,8.59435 0,0 4.00693,-8.13874 4.00693,-8.13874 0,0 3.22905,8.59184 3.22905,8.59184 0,0 4.00694,-8.13871 4.00694,-8.13871 0,0 3.22906,8.59186 3.22906,8.59186 0,0 4.00692,-8.13876 4.00692,-8.13876 0,0 3.25763,8.53786 3.25763,8.53786 0,0 3.90931,-8.20242 3.90931,-8.20242 0,0 3.33138,8.53905 3.33138,8.53905 0,0 3.90931,-8.20236 3.90931,-8.20236 0,0 3.33138,8.53904 3.33138,8.53904 0,0 3.90932,-8.20241 3.90932,-8.20241 0,0 3.36139,8.48853 3.36139,8.48853 0,0 3.80257,-8.26967 3.80257,-8.26967 0,0 3.44167,8.47993 3.44167,8.47993 0,0 3.80255,-8.26969 3.80255,-8.26969 0,0 3.44167,8.47993 3.44167,8.47993 0,0 3.80257,-8.26969 3.80257,-8.26969 0,0 3.47323,8.44661 3.47323,8.44661 0,0 3.68547,-8.34076 3.68547,-8.34076 0,0 3.56075,8.41343 3.56075,8.41343 0,0 3.68546,-8.3408 3.68546,-8.3408 0,0 3.56074,8.41343 3.56074,8.41343 0,0 3.68547,-8.34076 3.68547,-8.34076 0,0 3.59358,8.41214 3.59358,8.41214 0,0 3.62412,-8.48797 3.62412,-8.48797 0,0 3.68545,8.34081 3.68545,8.34081 0,0 3.56075,-8.41345 3.56075,-8.41345 0,0 3.68548,8.34079 3.68548,8.34079 0,0 3.56074,-8.41341 3.56074,-8.41341 0,0 3.68545,8.34075 3.68545,8.34075 0,0 3.47214,-8.45022 3.47214,-8.45022 0,0 3.80257,8.26969 3.80257,8.26969 0,0 3.44165,-8.47994 3.44165,-8.47994 0,0 3.80258,8.26969 3.80258,8.26969 0,0 3.44166,-8.47994 3.44166,-8.47994 0,0 3.80258,8.2697 3.80258,8.2697 0,0 3.36034,-8.49185 3.36034,-8.49185 0,0 3.90931,8.20241 3.90931,8.20241 0,0 3.33137,-8.53908 3.33137,-8.53908 0,0 3.90933,8.2024 3.90933,8.2024 0,0 3.33138,-8.53906 3.33138,-8.53906 0,0 3.90932,8.20241 3.90932,8.20241 0,0 3.2566,-8.54087 3.2566,-8.54087 0,0 4.00695,8.13872 4.00695,8.13872 0,0 3.22906,-8.59183 3.22906,-8.59183 0,0 4.00692,8.13871 4.00692,8.13871 0,0 3.22906,-8.59186 3.22906,-8.59186 0,0 4.00692,8.13874 4.00692,8.13874 0,0 3.15969,-8.59714 3.15969,-8.59714 0,0 4.09648,8.07848 4.09648,8.07848 0,0 3.13393,-8.63918 3.13393,-8.63918 0,0 4.09648,8.07848 4.09648,8.07848 0,0 3.13391,-8.6392 3.13391,-8.6392 0,0 4.09649,8.07848 4.09649,8.07848 0,0 3.06849,-8.66036 3.06849,-8.66036 0,0 4.17887,8.02141 4.17887,8.02141 0,0 3.04528,-8.68177 3.04528,-8.68177 0,0 4.17889,8.02144 4.17889,8.02144 0,0 3.04528,-8.68179 3.04528,-8.68179 0,0 4.19846,8.01135 4.19846,8.01135 0,0 2.96256,-8.72025 2.96256,-8.72025 0,0 4.25489,7.96743 4.25489,7.96743 0,0 2.96255,-8.72026 2.96255,-8.72026 0,0 4.25491,7.96742 4.25491,7.96742 0,0 2.90693,-8.7206 2.90693,-8.7206 0,0 4.32525,7.91625 4.32525,7.91625 0,0 2.88516,-8.75513 2.88516,-8.75513 0,0 4.32526,7.91624 4.32526,7.91624 0,0 2.88514,-8.75511 2.88514,-8.75511 0,0 4.34785,7.88462 4.34785,7.88462 0,0 2.78052,-8.80055 2.78052,-8.80055 0,0 4.41911,7.84601 4.41911,7.84601 0,0 2.78052,-8.80053 2.78052,-8.80053 0,0 4.41914,7.846 4.41914,7.846 0,0 2.78052,-8.80051 2.78052,-8.80051 0,0 4.41912,7.846 4.41912,7.846 0,0 2.78052,-8.80053 2.78052,-8.80053 0,0 4.90969,9.89165 4.90969,9.89165 l 35.95087,-4.1888 c 0,0 3.59509,0 3.59509,-4.18881 0,-4.18878 0,-29.32163 0,-33.51042 0,-4.18881 -3.59509,-4.18881 -3.59509,-4.18881 l -463.76621,0 c 0,0 -3.59509,0 -3.59509,4.18881 0,4.18881 0,29.32162 0,33.51042 0,4.18881 3.59509,4.18881 3.59509,4.18881 z"
       id="path3157"
       style="fill:url(#linearGradient3930);fill-opacity:1;fill-rule:evenodd;stroke:none" />
    <g
       id="g3896">
      <path
         d="m 659.13356,520.5625 -14.59375,0.40625 c -2.00723,0.0568 -3.57203,2.14207 -3.5,4.6875 l 0.65625,22.75 c 0.072,2.54544 1.71152,4.52554 3.71875,4.46875 -10e-6,-10e-6 6.922,-0.18269 13.71875,-0.375 l 0,-31.9375 z m -10.96875,2.09375 c 1.99087,-0.0564 3.63194,1.50509 3.6875,3.46875 0.0555,1.96365 -1.50913,3.56866 -3.5,3.625 -1.99088,0.0563 -3.66319,-1.47384 -3.71875,-3.4375 -0.0555,-1.96365 1.54036,-3.59993 3.53125,-3.65625 z m 0.59375,21.25 c 1.99087,-0.0563 3.63194,1.5051 3.6875,3.46875 0.0555,1.96367 -1.50914,3.56867 -3.5,3.625 -1.99088,0.0563 -3.63194,-1.47385 -3.6875,-3.4375 -0.0555,-1.96366 1.50912,-3.59992 3.5,-3.65625 z"
         transform="matrix(-1,0,0,1,797.90696,0)"
         id="path3844"
         style="fill:#000000;fill-opacity:1;fill-rule:nonzero;stroke:none;filter:url(#filter3890)" />
      <path
         d="m 127.40317,520.37046 -0.98343,31.91475 c 0,0 25.13137,0.7744 25.13137,0.77441 2.00708,0.0619 3.67599,-1.9384 3.75442,-4.48365 l 0.70025,-22.72481 c 0.0784,-2.54524 -1.46416,-4.64444 -3.47124,-4.70629 l -25.13137,-0.77441 z m 21.52702,2.44676 c 1.99072,0.0613 3.53184,1.71029 3.47134,3.6738 -0.0605,1.9635 -1.69926,3.48318 -3.68999,3.42184 -1.99072,-0.0613 -3.5645,-1.68001 -3.50399,-3.64352 0.0605,-1.96351 1.73192,-3.51347 3.72264,-3.45212 z m -0.65498,21.25566 c 1.99073,0.0613 3.53184,1.71028 3.47134,3.67379 -0.0605,1.96352 -1.69926,3.48318 -3.68998,3.42184 -1.99073,-0.0613 -3.5645,-1.68 -3.504,-3.64352 0.0605,-1.96351 1.73192,-3.51345 3.72264,-3.45211 z"
         id="rect3186"
         style="fill:url(#linearGradient3932);fill-opacity:1;fill-rule:nonzero;stroke:none" />
      <path
         d="m 132.73815,477.10859 c 1.99449,0.0615 3.56827,1.14557 3.52867,2.43077 l -2.47694,80.38298 c -0.0396,1.28519 -1.67715,2.27035 -3.67164,2.20889 -1.99449,-0.0615 -3.56828,-1.14558 -3.52867,-2.43077 l 2.47694,-80.38298 c 0.0396,-1.28519 1.67715,-2.27034 3.67164,-2.20889 z"
         id="rect3182"
         style="fill:url(#linearGradient3934);fill-opacity:1;fill-rule:nonzero;stroke:none" />
      <path
         d="m 127.40273,520.38447 7.99621,0.2464 -0.98292,31.89826 -7.99621,-0.2464 0.98292,-31.89826 z"
         id="rect3184"
         style="fill:url(#linearGradient3936);fill-opacity:1;fill-rule:nonzero;stroke:none" />
      <path
         d="m 152.04638,526.49002 a 3.233532,3.233532 0 1 1 -6.46399,-0.19918 3.233532,3.233532 0 1 1 6.46399,0.19918 z"
         id="path3651"
         style="opacity:0.7171717;fill:url(#radialGradient3938);fill-opacity:1;stroke:none" />
      <path
         d="m 151.39302,547.69318 a 3.233534,3.233534 0 1 1 -6.464,-0.19918 3.233534,3.233534 0 1 1 6.464,0.19918 z"
         id="path3688"
         style="opacity:0.7171717;fill:url(#radialGradient3940);fill-opacity:1;stroke:none" />
    </g>
    <g
       id="g3904">
      <path
         d="m 605.75266,520.5625 -14.59375,0.40625 c -2.00723,0.0568 -3.57203,2.14207 -3.5,4.6875 l 0.65625,22.75 c 0.072,2.54544 1.71152,4.52554 3.71875,4.46875 -10e-6,-10e-6 6.922,-0.18269 13.71875,-0.375 l 0,-31.9375 z m -10.96875,2.09375 c 1.99087,-0.0564 3.63194,1.50509 3.6875,3.46875 0.0555,1.96365 -1.50913,3.56866 -3.5,3.625 -1.99088,0.0563 -3.66319,-1.47384 -3.71875,-3.4375 -0.0555,-1.96365 1.54036,-3.59993 3.53125,-3.65625 z m 0.59375,21.25 c 1.99087,-0.0563 3.63194,1.5051 3.6875,3.46875 0.0555,1.96367 -1.50914,3.56867 -3.5,3.625 -1.99088,0.0563 -3.63194,-1.47385 -3.6875,-3.4375 -0.0555,-1.96366 1.50912,-3.59992 3.5,-3.65625 z"
         id="path3049"
         style="fill:#000000;fill-opacity:1;fill-rule:nonzero;stroke:none;filter:url(#filter3870)" />
      <path
         d="m 591.64115,520.97134 c -2.00723,0.0568 -3.55511,2.15211 -3.48308,4.69754 l 0.64302,22.7265 c 0.072,2.54544 1.73589,4.54988 3.74312,4.49309 -10e-6,-10e-6 25.13325,-0.71112 25.13325,-0.71112 l -0.90306,-31.91711 -25.13325,0.7111 z m 3.63183,1.68053 c 1.99087,-0.0564 3.62668,1.49872 3.68224,3.46238 0.0555,1.96365 -1.4906,3.57745 -3.48147,3.63379 -1.99088,0.0563 -3.65748,-1.46657 -3.71304,-3.43023 -0.0555,-1.96365 1.52138,-3.60962 3.51227,-3.66594 z m 0.60144,21.25724 c 1.99087,-0.0563 3.62669,1.49872 3.68225,3.46237 0.0555,1.96367 -1.49061,3.57746 -3.48147,3.63379 -1.99088,0.0563 -3.65748,-1.46657 -3.71304,-3.43022 -0.0555,-1.96366 1.52138,-3.60961 3.51226,-3.66594 z"
         id="path3206"
         style="fill:url(#linearGradient3942);fill-opacity:1;fill-rule:nonzero;stroke:none" />
      <path
         d="m 611.93866,476.97401 c 1.99464,-0.0564 3.6297,0.93285 3.66605,2.21814 l 2.27453,80.38896 c 0.0363,1.28529 -1.54015,2.36543 -3.53478,2.42187 -1.99463,0.0565 -3.62971,-0.93285 -3.66608,-2.21814 l -2.27451,-80.38896 c -0.0364,-1.28528 1.54016,-2.36543 3.53479,-2.42187 z"
         id="path3265"
         style="fill:url(#linearGradient3944);fill-opacity:1;fill-rule:nonzero;stroke:none" />
      <rect
         width="8"
         height="31.913404"
         rx="0"
         ry="0"
         x="-602.20386"
         y="537.51007"
         transform="matrix(-0.99959997,0.02828248,0.02828248,0.99959997,0,0)"
         id="rect3208"
         style="fill:url(#linearGradient3947);fill-opacity:1;fill-rule:nonzero;stroke:none" />
      <path
         d="m 599.18021,547.33954 a 3.2335334,3.2335334 0 1 1 -6.46448,0.1829 3.2335334,3.2335334 0 1 1 6.46448,-0.1829 z"
         id="path3692"
         style="opacity:0.7171717;fill:url(#radialGradient3949);fill-opacity:1;stroke:none" />
      <path
         d="m 598.58061,526.14778 a 3.233532,3.233532 0 1 1 -6.46447,0.18291 3.233532,3.233532 0 1 1 6.46447,-0.18291 z"
         id="path3696"
         style="opacity:0.7171717;fill:url(#radialGradient3951);fill-opacity:1;stroke:none" />
    </g>
  </g>
</svg>
