<?xml version="1.0" encoding="utf-8"?>
<!-- Generator: Adobe Illustrator 12.0.1, SVG Export Plug-In . SVG Version: 6.00 Build 51448)  -->
<!DOCTYPE svg PUBLIC "-//W3C//DTD SVG 1.1//EN" "http://www.w3.org/Graphics/SVG/1.1/DTD/svg11.dtd" [
	<!ENTITY ns_svg "http://www.w3.org/2000/svg">
	<!ENTITY ns_xlink "http://www.w3.org/1999/xlink">
]>
<svg  version="1.1" id="Layer_1" xmlns="&ns_svg;" xmlns:xlink="&ns_xlink;" width="346.305" height="212.223"
	 viewBox="0 0 346.305 212.223" overflow="visible" enable-background="new 0 0 346.305 212.223" xml:space="preserve">
<g>
	<path fill-rule="evenodd" clip-rule="evenodd" d="M203.991,23.471c4.855-7.102,15.68,0.897,22.661,1.619
		c1.086-0.533,1.507-1.73,1.618-3.237c2.97,0.34,4.153,1.49,4.856-1.619c3.921,1.429,4.434,5.022,8.902,4.046
		c2.38-1.127,2.125-4.889,3.237-7.284c2.462,2.025,1.64,2.304,5.666,2.428c-0.03-5.636-6.445-4.885-6.475-10.521
		c2.54-0.582,4.852-1.755,7.283-1.619c5.854,0.329,17.745,9.836,20.233,14.568c1.762,3.35,0.67,8.805,4.856,10.521
		c-1.054,4.292,2.345,4.13,1.618,8.093c6.145-3.446,11.971,6.604,8.903,9.712c0.508,1.65,4.089,0.227,3.237,3.237
		c-2.37,5.581-5.447,3.894-0.81,9.712c-1.197,0.421-2.04,1.198-3.237,1.619c0.503,2.194,3.381,2.014,3.237,4.856
		c-9.799,3.959-16.538,10.979-21.043,20.233c-9.332-2.151-9.064,11.123-15.377,14.568c6.714,11.898,19.835,8.719,33.183,3.237
		c6.569-2.698,14.262-7.689,21.042-11.331c4.717-2.533,9.958-7.677,20.233-5.666c2.297,0.45,4.021,3,7.284,4.856
		c3.777,2.148,13.904,5.159,10.521,12.14c-4.044,0.807-3.961-2.513-7.284-2.428c-0.189,6.395,6.105,6.304,5.666,12.949
		c-1.198,0.421-2.04,1.197-3.237,1.619c-3.85,0.072-3.202-4.353-4.856-6.475c-3.261-0.077-0.994,4.412-1.618,6.475
		c-0.761,2.509-3.801,3.636-2.429,4.856c-3.624,2.174-3.849-4.301-4.047-6.475c-1.051,3.241-3.53,8.542-8.093,5.665
		c-0.022-3.528,2.581-4.432,3.237-7.283c-1.299,0.283-2.816-4.663-4.856-4.856c-0.789-0.075-12.819,9.279-15.377,11.331
		c-6.836,5.483-18.359,12.33-25.898,17.805c-0.768,0.558-7.495,3.054-8.903,3.238c-7.905,1.033-12.407-2.605-22.661-5.666
		c3.397,16.027,8.511,30.338,19.424,38.848c0.986,3.459,4.948,9.852,9.713,10.521c4.525,0.637,8.074-3.627,12.14-3.236
		c3.751,0.359,8.977,4.387,9.712,7.283c2.1,8.273-6.431,12.744-12.949,18.615c-1.766,0.146-2.575-0.662-2.428-2.428
		c-2.455,1.051-1.898,5.115-6.475,4.047c-0.908-2.551-0.073-1.834,0-4.857c-2.132-1.541-4.348,2.244-7.284,2.428
		c-3.352-0.965-5.069-3.564-5.666-7.283c-3.595-3.959-8.582-6.525-12.949-9.711c-4.742-8.746-11.801-15.178-16.996-23.471
		c-0.989-1.17-3.089-1.229-4.046-2.43c0.974-2.66-3.851-6.09,0-6.475c-3.36-2.305-7.057-4.273-10.521-6.475
		c-5.655-10.655-7.468-20.848-16.187-27.517c0.047-4.094-1.798-6.296-3.237-8.903c0.266-1.892,0.973-3.344,1.618-4.856
		c-1.544-1.519-1.464,0.48-4.047,0c-1.348-1.608,0.073-1.029,0-3.237c-1.256,0.166-1.986,0.762-3.237,0
		c-0.018-0.011-3.368-3.156-4.855-4.856c-0.74-0.846,0.001-2.495-0.81-3.237c-0.577-0.528-2.003-0.153-2.428-0.81
		c-0.253-0.391,1.185-1.049,0.81-1.618c-1.495-2.266-4.704-3.336-4.047-6.475c-0.818-1.34-3.438-0.879-4.856-1.619
		c1.715-7.114-7.564-7.326-10.521-12.14c-8.622-0.259-11.119,5.606-17.805,7.284c1.318,17.423-1.221,36.718-1.619,54.226
		c-0.353,15.502,10.069,19.594,24.28,26.707c2.506-1.461,0.432-2.479,0.81-5.664c3.385-5.172,16.301-9.4,22.661-4.047
		c-1.102,5.641,2.378,12.146,1.618,16.996c-1.062,1.039-2.983,1.039-4.046,0c1.613,3.02,1.706,3.713,0.809,7.283
		c-3.189,0.492-3.584-1.811-4.046-4.047c-2.055,4.152-7.131,5.279-8.903,9.713c-6.556-3.27-10.602,3.789-16.996,0.809
		c-3.186-6.256-13.638-5.246-16.996-11.33c-8.321-0.852-11.858-6.486-18.614-8.902c-4.824-5.967-4.996-16.586-7.284-25.09
		c-6.075-5.524-11.005-12.195-17.805-16.996c-0.629-0.721-0.87-1.828-0.81-3.237c-17.159,4.423-30.496,12.669-42.085,22.661
		c0.018,1.906-1.394,2.383-0.809,4.856c-1.544,0.345-1.465,2.312-4.047,1.618c1.04,9.936-4.093,19.266-4.856,29.945
		c0.443,2.525,4.694,1.242,6.475,2.428c2.286,4.377,5.636,5.328,4.856,11.332c-1.745,13.424-27.149,9.236-31.564-2.428
		c1.349,0,2.698,0,4.047,0c-1.325-1.832-6.552-4.051-2.428-6.477c-0.078-1.115-3.159-3.156-3.237-1.617
		c-1.945-2.488,0.706-5.883,1.619-10.521c0.546-2.771-0.45-5.867,0-8.094c0.513-2.541,2.672-5,3.237-7.283
		c0.61-2.465-0.319-4.619,0-7.285c2.494-20.847,18.12-32.188,25.899-50.178c0-1.619,0-3.237,0-4.856
		c5.38-6.586,7.023-20.713,13.758-28.327c1.787-2.021,4.694-1.74,5.666-4.856c-3.797-1.513-6.71-5.182-10.521-4.856
		c-11.19,0.958-8.935,21.429-12.949,31.564c0.263,2.687,3.53-2.131,4.047,0.809c-2.61,4.134-7.739,5.75-6.475,13.759
		c-3.423,1.886-2.805,5.432-4.856,9.712c-0.709,1.481-2.934,2.216-4.046,4.047c-0.747,1.229-0.07,2.512-0.81,4.046
		c-0.701,1.455-3.074,2.456-4.046,4.047c-1.97,3.223-2.506,6.696-4.856,8.903c-4.759,4.468-11.452,5.598-16.187,10.521
		c-4.079-1.671-4.03,0.726-7.284,1.618c-2.627-2.229-6.116-3.596-8.903-5.664c-0.85-13.754,12.467-22.756,5.666-34.802
		c3.172-6.315,1.317-15.626-2.428-22.662c0.085-2.073,0.458-3.858,1.619-4.856c-0.2-0.879-1.609-0.549-1.619-1.619
		c1.484-6.104,0.582-10.784,4.047-13.759C5.972,59.761,9.242,55,12.988,53.416c0-1.079,0-2.158,0-3.237
		c7.428-6.601,14.546-13.511,19.424-22.662c1.708-0.719,2.392-2.464,4.856-2.428c-0.669-2.288,1.141-2.097,0.809-4.047
		c3.435-0.286,7.449-3.997,8.903-7.284c5.65-0.015,10.384-0.947,13.759-3.238c13.206,2.711,20.347,11.487,32.373,15.377
		c1.737,2.04,1.607,5.947,5.665,5.666c1.887-4.771,2.905-5.608,4.856-9.712c1.95,0.331,1.759-1.479,4.047-0.81
		c1.806-4.527,6.661-9.89,10.521-9.712c0.948-0.131,0.682-1.476,0.809-2.428c2.954-0.526,4.311,0.545,5.666,1.618
		c2.268-0.794-1.176-2.159,0.809-3.237c5.285,1.512,12.103-4.817,16.996-1.619c1.497-0.122,0.497-2.74,1.619-3.237
		c5.396,2.634,7.902-1.412,11.33,2.428c1.681-0.208,0.222-3.556,1.619-4.047c2.639-0.21,3.895,0.961,4.047,3.237
		c1.39-1.038,1.625-3.23,3.237-4.046c1.423,0.195,1.845,1.393,1.618,3.237c1.529-0.09,0.562-2.676,2.428-2.428
		c2.209-0.589,1.63,1.608,3.237,1.619c5.849-3.369,9.787,0.162,15.378,4.856c3.664,3.077,6.554,4.233,6.475,8.903
		c3.877,1.249,5.787,4.464,8.093,7.284c0.54,0,1.079,0,1.619,0l-0.404,1.214l1.214,0.405c3.043,5.589,6.178,11.087,8.902,16.996
		c-1.764-6.675-1.854-13.39-8.094-16.996l0.405-1.214L203.991,23.471z M253.36,25.089c-1.166,0.432-1.975-3.154-2.428-0.81
		C251.761,24.185,252.569,27.771,253.36,25.089z M265.5,29.945c-1.069-0.009-0.739-1.418-1.618-1.619
		C262.954,29.987,265.152,32.185,265.5,29.945z M255.788,34.801c-1.427,0.232-2.506-3.811-3.237-1.619
		C253.323,33.605,255.237,36.813,255.788,34.801z M267.254,53.011l1.483-0.405c2.02,1.698,3.981-7.837,2.428-9.712
		c-1.509,4.241-2.432-4.755-6.475-3.237c-3.268,1.588-1.554,8.158-3.237,11.331c0.036-2.07-0.602-0.987-1.618-0.809
		c0.247,2.463,5.057,2.799,6.475,1.619L267.254,53.011z M256.598,42.895c0.22-1.102-0.501-3.159-0.81-1.619
		C255.567,42.378,256.289,44.435,256.598,42.895z M239.602,59.081c-0.132,0.941,0.179,1.44,0.81,1.619
		c0.323-2.914,3.114-3.36,4.047-5.665c0.247-2.529-2.339,2.057-2.429-0.81c3.208-2.206-3.231-6.378-3.237-8.902
		c-7.277-0.365-8.798,12.663-2.428,14.568c-0.132-0.941,0.179-1.44,0.81-1.619l0.944,1.214L239.602,59.081z M276.831,51.797
		c-0.171-2.645,5.839-3.271,3.237-5.666C279.765,48.303,274.541,49.715,276.831,51.797z M257.407,62.318
		c0.204,0.003-0.836-5.593-1.619-7.284c0.579,2.198-3.816-0.579-3.237,1.619c4.23-0.084,1.998,4.497,3.237,5.665l-0.404,1.214
		l0.404,1.214c-2.191,1.586-2.902,4.651-4.047,7.284c-1.607-0.011-1.029-2.208-3.237-1.619c-0.392,5.788-0.245,11.037,4.856,11.331
		c0.773-1.507-2.424-2.705,0-3.237c1.866-0.248,0.898,2.338,2.428,2.428c1.54-2.776,6.941-1.691,7.284-5.665
		c2.128-0.24,0.637,3.14,3.237,2.428c1.095-2.791-0.71-6.578-1.619-9.712c-2.6-0.712-1.108,2.668-3.237,2.428
		c-1.397-0.491,0.062-3.839-1.618-4.046c-0.258,1.719-2.505-1.156-3.237-1.619l1.214-0.944L257.407,62.318z M212.084,60.7
		c-0.181-1.53,0.912-1.786,0.81-3.237c-0.539,0-1.079,0-1.619,0c-0.493,0.046-0.958,0.121-0.809,0.81
		C211.802,58.284,210.919,60.517,212.084,60.7z M212.084,68.793c0.54,0,1.079,0,1.619,0c0-0.54,0-1.08,0-1.619
		c-0.54,0-1.079,0-1.619,0C212.084,67.714,212.084,68.253,212.084,68.793z M237.983,86.599c0.116-0.957,1.44-1.835,0-2.428
		C237.866,85.127,236.542,86.005,237.983,86.599z"/>
	<path fill-rule="evenodd" clip-rule="evenodd" d="M266.31,50.988c0.024-3.146-2.676-6.446-1.619-8.093
		c3.945-1.315,6.605,4.402,4.047,8.903l-0.944-1.214L266.31,50.988z"/>
	<path fill-rule="evenodd" clip-rule="evenodd" d="M238.657,57.867l-1.483,0.405c-1.419-1.818-0.388-6.088-1.619-8.093
		c1.419,0.739,4.038,0.278,4.856,1.619c-0.502,2.196,1.027,6.423-0.81,7.284L238.657,57.867z"/>
	<g>
		<path fill-rule="evenodd" clip-rule="evenodd" fill="none" stroke="#000000" stroke-width="1.7484" stroke-linecap="round" d="
			M202.777,24.685c0.809-0.26,1.618-0.494,2.428-0.809"/>
		<path fill-rule="evenodd" clip-rule="evenodd" fill="none" stroke="#000000" stroke-width="2.5163" stroke-linecap="round" d="
			M267.254,53.011c0.173-0.81,0.329-1.619,0.539-2.428"/>
		<path fill-rule="evenodd" clip-rule="evenodd" fill="none" stroke="#000000" stroke-width="2.5593" stroke-linecap="round" d="
			M238.657,57.867c-0.18,0.54-0.359,1.079-0.539,1.619"/>
		<path fill-rule="evenodd" clip-rule="evenodd" fill="none" stroke="#000000" stroke-width="2.4945" stroke-linecap="round" d="
			M255.384,63.533c0.809-0.016,1.618,0.123,2.428,0.27"/>
	</g>
</g>
</svg>
