<?xml version="1.0" encoding="UTF-8" standalone="no"?>
<!-- Created with Inkscape (http://www.inkscape.org/) -->

<svg
   xmlns:dc="http://purl.org/dc/elements/1.1/"
   xmlns:cc="http://creativecommons.org/ns#"
   xmlns:rdf="http://www.w3.org/1999/02/22-rdf-syntax-ns#"
   xmlns:svg="http://www.w3.org/2000/svg"
   xmlns="http://www.w3.org/2000/svg"
   xmlns:xlink="http://www.w3.org/1999/xlink"
   xmlns:sodipodi="http://sodipodi.sourceforge.net/DTD/sodipodi-0.dtd"
   xmlns:inkscape="http://www.inkscape.org/namespaces/inkscape"
   width="31.28125"
   height="27.9375"
   id="svg33631"
   version="1.1"
   inkscape:version="0.48.1 r9760"
   sodipodi:docname="house02.svg">
  <defs
     id="defs33633">
    <linearGradient
       inkscape:collect="always"
       xlink:href="#linearGradient2320"
       id="linearGradient4969"
       gradientUnits="userSpaceOnUse"
       gradientTransform="translate(519.94607,115.89301)"
       x1="33.131119"
       y1="76.256607"
       x2="35.045101"
       y2="78.571999" />
    <linearGradient
       id="linearGradient2320">
      <stop
         id="stop2322"
         offset="0"
         style="stop-color:#6a3c1d;stop-opacity:1;" />
      <stop
         id="stop2324"
         offset="1"
         style="stop-color:#8f5127;stop-opacity:1;" />
    </linearGradient>
    <linearGradient
       inkscape:collect="always"
       xlink:href="#linearGradient2320"
       id="linearGradient4939"
       gradientUnits="userSpaceOnUse"
       gradientTransform="translate(513.29337,138.6262)"
       x1="33.131119"
       y1="76.256607"
       x2="35.045101"
       y2="78.571999" />
    <linearGradient
       id="linearGradient33561">
      <stop
         id="stop33563"
         offset="0"
         style="stop-color:#6a3c1d;stop-opacity:1;" />
      <stop
         id="stop33565"
         offset="1"
         style="stop-color:#8f5127;stop-opacity:1;" />
    </linearGradient>
    <linearGradient
       inkscape:collect="always"
       xlink:href="#linearGradient3392"
       id="linearGradient4595"
       x1="69.472282"
       y1="57.977318"
       x2="70.878853"
       y2="57.855007"
       gradientUnits="userSpaceOnUse"
       gradientTransform="translate(480.06793,138.39811)" />
    <linearGradient
       id="linearGradient3392">
      <stop
         id="stop3394"
         offset="0"
         style="stop-color:#4a585b;stop-opacity:1;" />
      <stop
         id="stop3396"
         offset="1"
         style="stop-color:#5e7074;stop-opacity:1;" />
    </linearGradient>
    <linearGradient
       inkscape:collect="always"
       xlink:href="#linearGradient3392"
       id="linearGradient4591"
       x1="59.50399"
       y1="55.898041"
       x2="70.878853"
       y2="63.420128"
       gradientUnits="userSpaceOnUse"
       gradientTransform="translate(480.06793,138.39811)" />
    <linearGradient
       id="linearGradient33572">
      <stop
         id="stop33574"
         offset="0"
         style="stop-color:#4a585b;stop-opacity:1;" />
      <stop
         id="stop33576"
         offset="1"
         style="stop-color:#5e7074;stop-opacity:1;" />
    </linearGradient>
    <linearGradient
       inkscape:collect="always"
       xlink:href="#linearGradient3392"
       id="linearGradient4587"
       x1="69.594597"
       y1="64.643234"
       x2="69.839218"
       y2="69.291023"
       gradientUnits="userSpaceOnUse"
       gradientTransform="translate(480.06793,138.39811)" />
    <linearGradient
       id="linearGradient33579">
      <stop
         id="stop33581"
         offset="0"
         style="stop-color:#4a585b;stop-opacity:1;" />
      <stop
         id="stop33583"
         offset="1"
         style="stop-color:#5e7074;stop-opacity:1;" />
    </linearGradient>
    <linearGradient
       inkscape:collect="always"
       xlink:href="#linearGradient3392"
       id="linearGradient4583"
       x1="73.263908"
       y1="73.082649"
       x2="77.398666"
       y2="62.197025"
       gradientUnits="userSpaceOnUse"
       gradientTransform="translate(480.06793,138.39811)" />
    <linearGradient
       id="linearGradient33586">
      <stop
         id="stop33588"
         offset="0"
         style="stop-color:#4a585b;stop-opacity:1;" />
      <stop
         id="stop33590"
         offset="1"
         style="stop-color:#5e7074;stop-opacity:1;" />
    </linearGradient>
    <linearGradient
       inkscape:collect="always"
       xlink:href="#linearGradient2338"
       id="linearGradient2881"
       x1="75.4375"
       y1="78.125"
       x2="84"
       y2="65.1875"
       gradientUnits="userSpaceOnUse"
       gradientTransform="translate(480.06793,138.39811)" />
    <linearGradient
       id="linearGradient2338">
      <stop
         id="stop2340"
         offset="0"
         style="stop-color:#b1b1b1;stop-opacity:1;" />
      <stop
         id="stop2342"
         offset="1"
         style="stop-color:#e4e4e4;stop-opacity:1;" />
    </linearGradient>
    <linearGradient
       inkscape:collect="always"
       xlink:href="#linearGradient2338"
       id="linearGradient2877"
       x1="64.8125"
       y1="72.25"
       x2="72.375"
       y2="78.9375"
       gradientUnits="userSpaceOnUse"
       gradientTransform="translate(480.06793,138.39811)" />
    <linearGradient
       id="linearGradient33597">
      <stop
         id="stop33599"
         offset="0"
         style="stop-color:#b1b1b1;stop-opacity:1;" />
      <stop
         id="stop33601"
         offset="1"
         style="stop-color:#e4e4e4;stop-opacity:1;" />
    </linearGradient>
    <filter
       color-interpolation-filters="sRGB"
       inkscape:collect="always"
       id="filter5730">
      <feGaussianBlur
         inkscape:collect="always"
         stdDeviation="0.1256739"
         id="feGaussianBlur5732" />
    </filter>
    <linearGradient
       inkscape:collect="always"
       xlink:href="#linearGradient2338"
       id="linearGradient2873"
       x1="58.6875"
       y1="61.5"
       x2="65.5"
       y2="67.875"
       gradientUnits="userSpaceOnUse"
       gradientTransform="translate(-74.96706,0.7147143)" />
    <linearGradient
       id="linearGradient33606">
      <stop
         id="stop33608"
         offset="0"
         style="stop-color:#b1b1b1;stop-opacity:1;" />
      <stop
         id="stop33610"
         offset="1"
         style="stop-color:#e4e4e4;stop-opacity:1;" />
    </linearGradient>
    <linearGradient
       y2="67.875"
       x2="65.5"
       y1="61.5"
       x1="58.6875"
       gradientTransform="translate(480.06793,138.39811)"
       gradientUnits="userSpaceOnUse"
       id="linearGradient33629"
       xlink:href="#linearGradient2338"
       inkscape:collect="always" />
  </defs>
  <sodipodi:namedview
     id="base"
     pagecolor="#ffffff"
     bordercolor="#666666"
     borderopacity="1.0"
     inkscape:pageopacity="0.0"
     inkscape:pageshadow="2"
     inkscape:zoom="22.4"
     inkscape:cx="15.610072"
     inkscape:cy="14.142281"
     inkscape:document-units="px"
     inkscape:current-layer="layer1"
     showgrid="false"
     fit-margin-top="0"
     fit-margin-left="0"
     fit-margin-right="0"
     fit-margin-bottom="0"
     inkscape:window-width="1912"
     inkscape:window-height="1049"
     inkscape:window-x="0"
     inkscape:window-y="0"
     inkscape:window-maximized="1" />
  <metadata
     id="metadata33636">
    <rdf:RDF>
      <cc:Work
         rdf:about="">
        <dc:format>image/svg+xml</dc:format>
        <dc:type
           rdf:resource="http://purl.org/dc/dcmitype/StillImage" />
        <dc:title></dc:title>
      </cc:Work>
    </rdf:RDF>
  </metadata>
  <g
     inkscape:label="Layer 1"
     inkscape:groupmode="layer"
     id="layer1"
     transform="translate(-535.34375,-191.78125)">
    <path
       style="fill:url(#linearGradient33629);fill-opacity:1;fill-rule:evenodd;stroke:none"
       d="m 536.13043,197.52311 13.3125,5 -4.125,4.1875 -9.5625,-3.6875 0.375,-5.5 z"
       id="path2871"
       inkscape:connector-curvature="0" />
    <path
       style="fill:#000000;fill-opacity:0.66666667;fill-rule:evenodd;stroke:none;filter:url(#filter5730)"
       d="m 542.23791,215.67944 -3.05776,-2.56851 5.25935,-5.50397 3.42469,1.95697 -5.62628,6.11551 z"
       id="path5703"
       inkscape:connector-curvature="0" />
    <path
       style="fill:url(#linearGradient2877);fill-opacity:1;fill-rule:evenodd;stroke:none"
       d="m 542.06793,210.33561 7.1875,-1.8125 4.5,5.375 0.0625,5.375 -11.6875,-3.5625 -0.0625,-5.375 z"
       id="path2875"
       inkscape:connector-curvature="0" />
    <path
       style="fill:url(#linearGradient2881);fill-opacity:1;fill-rule:evenodd;stroke:none"
       d="m 553.63043,213.71061 12,-10.9375 0.125,5.6875 -11.75,10.8125 -0.375,-5.5625 z"
       id="path2879"
       inkscape:connector-curvature="0" />
    <path
       style="fill:url(#linearGradient4583);fill-opacity:1;fill-rule:evenodd;stroke:none"
       d="m 549.05098,208.36184 7.39977,-8.3171 c 0,0 9.84599,2.01812 9.4179,2.38505 -0.42808,0.36693 -12.04757,11.25256 -12.04757,11.25256 l -4.7701,-5.32051 z"
       id="path4581"
       inkscape:connector-curvature="0" />
    <path
       style="fill:url(#linearGradient4587);fill-opacity:1;fill-rule:evenodd;stroke:none"
       d="m 541.40658,210.50228 8.13364,-7.88902 6.66591,-2.38505 -7.21631,8.19479 -7.27746,2.14043 -0.30578,-0.0612 z"
       id="path4585"
       inkscape:connector-curvature="0" />
    <path
       style="fill:url(#linearGradient4591);fill-opacity:1;fill-rule:evenodd;stroke:none"
       d="m 538.28767,192.15572 -2.62968,5.19819 14.00454,5.19819 c 0,0 7.21631,-2.26274 6.66591,-2.50736 -0.55039,-0.24462 -17.97962,-7.6444 -18.04077,-7.88902 z"
       id="path4589"
       sodipodi:nodetypes="cccsc"
       inkscape:connector-curvature="0" />
    <path
       style="fill:url(#linearGradient4595);fill-opacity:1;fill-rule:evenodd;stroke:none"
       d="m 538.40998,192.15572 2.93544,-0.18346 24.27861,10.0906 -8.98981,-2.07928 -18.22424,-7.82786 z"
       id="path4593"
       inkscape:connector-curvature="0" />
    <path
       sodipodi:nodetypes="ccccc"
       style="fill:#d59163;fill-opacity:1;fill-rule:evenodd;stroke:none"
       d="m 538.70734,199.26573 3.14948,1.28383 0.0516,3.39949 -3.20103,-1.24582 0,-3.4375 z"
       id="path4935"
       inkscape:connector-curvature="0" />
    <path
       style="fill:url(#linearGradient4939);fill-rule:evenodd;stroke:none"
       d="m 545.82462,217.15745 0.0693,-3.65721 3.05767,1.15366 -0.076,3.07507 -3.0509,-0.57152 z"
       id="path4937"
       sodipodi:nodetypes="ccccc"
       inkscape:connector-curvature="0" />
    <path
       style="fill:#d59163;fill-opacity:1;fill-rule:evenodd;stroke:none"
       d="m 548.00141,209.60314 -0.15206,0.64626 0.076,0.41817 0.41817,0.4942 0.76031,0.34214 0.30412,-0.4942 -0.076,-0.79833 -0.45618,-0.45618 -0.4942,-0.19008 -0.38015,0.038 z"
       id="path4941"
       inkscape:connector-curvature="0" />
    <path
       id="path5021"
       d="m 542.06793,210.33561 7.1875,-1.8125 4.5,5.375 0.0625,5.375 -11.6875,-3.5625 -0.0625,-5.375 z"
       style="fill:#000000;fill-opacity:0.15686275;fill-rule:evenodd;stroke:none"
       inkscape:connector-curvature="0" />
    <path
       id="path5031"
       d="m 541.40658,210.50228 8.13364,-7.88902 6.66591,-2.38505 -7.21631,8.19479 -7.27746,2.14043 -0.30578,-0.0612 z"
       style="fill:#000000;fill-opacity:0.15686275;fill-rule:evenodd;stroke:none"
       inkscape:connector-curvature="0" />
    <path
       sodipodi:nodetypes="cccsc"
       id="path5033"
       d="m 538.28767,192.15572 -2.62968,5.19819 14.00454,5.19819 c 0,0 7.21631,-2.26274 6.66591,-2.50736 -0.55039,-0.24462 -17.97962,-7.6444 -18.04077,-7.88902 z"
       style="fill:#000000;fill-opacity:0.15686275;fill-rule:evenodd;stroke:none"
       inkscape:connector-curvature="0" />
    <path
       style="fill:#000000;fill-opacity:1;stroke:#000000;stroke-width:0.1;stroke-linecap:butt;stroke-linejoin:miter;stroke-miterlimit:4;stroke-opacity:1;stroke-dasharray:none"
       d="m 538.12849,192.1834 -2.71875,5.375 0.21875,0.0937 0,5.46875 9.25,3.65625 -4.3125,4.21875 1.21875,-0.3125 0,5.1875 12.21875,3.8125 12.01339,-11.14732 -0.0758,-5.75893 0.59375,-0.53125 -25.28125,-10.375 -2.8125,-0.0312 c -0.11875,0.0994 -0.42187,0.45344 -0.31255,0.34375 z m 0.84375,0.0625 2.03125,0.15625 20.15625,8.28125 0.0312,0 3.03125,1.25 -7.375,-2.125 -17.875,-7.5625 z m 22.1875,8.4375 -2.40625,-0.625 -15.3125,-6.3125 0.40625,0.0625 0.0625,-0.0937 -0.78125,-0.0937 -2.25,-0.9375 -0.0937,0.0312 2.09375,0.875 -0.6875,-0.0937 0.0937,0.0625 0.875,0.15625 15.03125,6.1875 -2.34375,-0.59375 0.0937,0.0937 5.125,1.34375 0.0937,-0.0625 z m -22.875,-8.125 17.625,7.53125 -6.28125,2.1875 -13.625,-5.03125 z m 1.15625,1.125 -0.21875,0.46875 -0.71875,-0.3125 -0.125,0.0625 0.8125,0.34375 -1.40625,3.15625 0.0937,0.0312 1.46875,-3.09375 4.75,2.0625 -0.65625,1.40625 -3.25,-1.375 -0.125,0.0937 3.3125,1.40625 -0.59375,1.25 0.0937,0.125 0.65625,-1.3125 5.71875,2.375 -0.5,1.03125 0.125,-0.0312 0.46875,-0.9375 0.625,0.25 -0.0312,-0.125 -0.53125,-0.21875 0.65625,-1.34375 1.1875,0.53125 -0.0312,-0.15625 -1.09375,-0.46875 0.4375,-0.90625 -0.0937,-0.0312 -0.4375,0.875 -5.71875,-2.46875 0.3125,-0.625 -0.1875,-0.0625 -0.28125,0.625 -4.75,-2.09375 0.21875,-0.46875 -0.1875,-0.0625 z m 4.84375,2.78125 5.6875,2.5 -0.65625,1.3125 -5.71875,-2.40625 z m -8.03125,1.40625 12.90625,4.71875 -3.875,3.78125 -9.1875,-3.375 z m 2.4375,1.28125 0,3.59375 3.25,1.34375 0,-3.59375 z m 0.15625,0.21875 2.9375,1.25 -0.0312,3.25 -2.9375,-1.25 z m 0.0625,0.0937 0,3.15625 2.8125,1.15625 0,-3.125 z m 0.125,0.1875 2.59375,1.09375 -0.0625,2.84375 -2.53125,-1.09375 z m 17.875,0.59375 8.3125,2.21875 -11.5,11.03125 -4.34375,-5.125 z m -1.15625,0.28125 -6.9375,7.78125 -6.75,1.90625 7.75,-7.5 z m 1.65625,0.40625 -0.0937,0.0937 1.21875,0.375 c -0.59551,0.48442 -1.09513,1.02376 -1.59375,1.59375 l -0.625,-0.4375 -0.125,0.0937 0.65625,0.4375 c -0.46454,0.53357 -0.92686,1.09048 -1.4375,1.59375 l -0.625,-0.625 -0.125,0.0937 0.65625,0.625 c -0.1692,0.16291 -0.34789,0.31649 -0.53125,0.46875 l 0.0937,0.0937 c 0.18323,-0.14555 0.35888,-0.30567 0.53125,-0.46875 l 1.1875,1.15625 -3.4375,3.125 -1.34375,-1.59375 -0.25,0.0625 1.46875,1.65625 -0.9375,0.84375 0.0312,0.0312 0.9375,-0.84375 1.25,1.4375 0.15625,-0.0312 -1.28125,-1.53125 3.46875,-3.09375 1.21875,1.15625 0.0312,-0.125 -1.15625,-1.125 1.90625,-1.6875 1.90625,1.3125 -0.875,0.84375 0.0625,0 0.9375,-0.84375 0.125,-0.0312 -0.0625,-0.0312 2.78125,-2.53125 0.0937,0.0312 0.1875,-0.0625 -0.1875,-0.0625 0.125,-0.125 -0.1875,-0.0625 -0.125,0.125 -2.34375,-0.75 0.21875,-0.1875 -0.125,-0.0625 -0.21875,0.21875 -2.25,-0.75 c 0.10255,-0.0846 0.20585,-0.17191 0.3125,-0.25 l -0.0625,-0.0312 c -0.1219,0.0851 -0.22876,0.19035 -0.34375,0.28125 l -1.21875,-0.40625 z m 1.1875,0.5 2.25,0.75 -2.1875,1.96875 -1.59375,-1.09375 c 0.49404,-0.57372 0.97584,-1.14761 1.53125,-1.625 z m -5.6875,0.4375 -2,2.25 -1.8125,0.21875 -3.21875,3.21875 -1.125,0.28125 0,0.0937 0.96875,-0.25 -0.84375,0.84375 0.15625,0.0937 0.96875,-1 2.5625,-0.625 2.4375,-2.8125 1.46875,-0.1875 -0.0312,-0.0625 -1.34375,0.15625 1.90625,-2.1875 -0.0937,-0.0312 z m 8.09375,0.34375 2.34375,0.75 -2.65625,2.53125 -1.9375,-1.28125 z m -4.0625,0.96875 1.625,1.0625 -1.875,1.6875 -1.15625,-1.15625 c 0.49652,-0.48454 0.94322,-1.05407 1.40625,-1.59375 z m 8.5625,0 0.0937,5.03125 -11.375,10.40625 -0.25,-4.875 11.53125,-10.5625 z m -14.6875,1.0312 -2.375,2.65625 -2.28125,0.59375 3,-3.03125 z m -1.875,4.53125 4.5625,5.3125 0.15625,4.875 -4.65625,-1.40625 0,-3.03125 -3.25,-1.09375 0,3.125 -3.40625,-1.03125 0.1875,-5.03125 z m -0.6875,0.6875 c -0.47054,0.002 -0.49109,0.39043 -0.53125,0.84375 0.35686,0.98601 0.73893,1.13432 1.15625,1.3125 0.66033,0.12548 0.70124,-0.3136 0.75,-0.8125 -0.27406,-0.93196 -0.62324,-1.07984 -1.125,-1.3125 -0.0858,-0.017 -0.18278,-0.0315 -0.25,-0.0312 z m 0.3125,0.21875 c 0.47452,0.0773 0.69002,0.76694 0.75,1.03125 0.002,0.39572 -0.14963,0.64013 -0.5,0.625 -0.71647,-0.13172 -0.73581,-0.64478 -0.75,-0.9375 -0.13855,-0.52855 0.19401,-0.69392 0.5,-0.71875 z m -2.65625,3.96875 2.9375,1.03125 -0.0312,2.8125 -0.0312,0 0,-2.78125 -2.8125,-0.96875 0,2.875 -0.0937,-0.0312 0.0312,-2.9375 z m 0.1875,0.25 2.59375,0.90625 -0.0625,2.625 -2.53125,-0.78125 z"
       id="rect33532"
       inkscape:connector-curvature="0"
       sodipodi:nodetypes="cccccccccccccccccccccccccccccccccccccccccccccccccccccccccccccccccccccccccccccccccccccccccccccccccccccccccccccccccccccccccccccccccccccccccccccccccccccccccccccccccccccccccccccccccccccccccccccccccccccccccccccccccccccccccccccccccccccccccccccccccccccccccccccccccc" />
  </g>
</svg>
