<?xml version="1.0" encoding="UTF-8" standalone="no"?>
<!-- Created with Inkscape (http://www.inkscape.org/) -->

<svg
   xmlns:dc="http://purl.org/dc/elements/1.1/"
   xmlns:cc="http://creativecommons.org/ns#"
   xmlns:rdf="http://www.w3.org/1999/02/22-rdf-syntax-ns#"
   xmlns:svg="http://www.w3.org/2000/svg"
   xmlns="http://www.w3.org/2000/svg"
   xmlns:xlink="http://www.w3.org/1999/xlink"
   xmlns:sodipodi="http://sodipodi.sourceforge.net/DTD/sodipodi-0.dtd"
   xmlns:inkscape="http://www.inkscape.org/namespaces/inkscape"
   width="28.787401"
   height="24.25"
   id="svg34281"
   version="1.1"
   inkscape:version="0.48.1 r9760"
   sodipodi:docname="house04.svg">
  <defs
     id="defs34283">
    <linearGradient
       inkscape:collect="always"
       xlink:href="#linearGradient2320"
       id="linearGradient4961"
       x1="86.142845"
       y1="83.522011"
       x2="85.230476"
       y2="82.19651"
       gradientUnits="userSpaceOnUse"
       gradientTransform="translate(284.05062,458.10843)" />
    <linearGradient
       id="linearGradient2320">
      <stop
         id="stop2322"
         offset="0"
         style="stop-color:#6a3c1d;stop-opacity:1;" />
      <stop
         id="stop2324"
         offset="1"
         style="stop-color:#8f5127;stop-opacity:1;" />
    </linearGradient>
    <linearGradient
       inkscape:collect="always"
       xlink:href="#linearGradient3392"
       id="linearGradient4563"
       x1="92.405479"
       y1="76.690804"
       x2="97.664825"
       y2="64.215149"
       gradientUnits="userSpaceOnUse"
       gradientTransform="translate(284.05062,458.10843)" />
    <linearGradient
       id="linearGradient3392">
      <stop
         id="stop3394"
         offset="0"
         style="stop-color:#4a585b;stop-opacity:1;" />
      <stop
         id="stop3396"
         offset="1"
         style="stop-color:#5e7074;stop-opacity:1;" />
    </linearGradient>
    <linearGradient
       inkscape:collect="always"
       xlink:href="#linearGradient3392"
       id="linearGradient4559"
       x1="90.570824"
       y1="66.844818"
       x2="91.182373"
       y2="68.373695"
       gradientUnits="userSpaceOnUse"
       gradientTransform="translate(284.05062,458.10843)" />
    <linearGradient
       id="linearGradient34249">
      <stop
         id="stop34251"
         offset="0"
         style="stop-color:#4a585b;stop-opacity:1;" />
      <stop
         id="stop34253"
         offset="1"
         style="stop-color:#5e7074;stop-opacity:1;" />
    </linearGradient>
    <linearGradient
       inkscape:collect="always"
       xlink:href="#linearGradient2320"
       id="linearGradient2895"
       x1="93.625"
       y1="83.5625"
       x2="103.375"
       y2="69.9375"
       gradientUnits="userSpaceOnUse"
       gradientTransform="translate(284.05062,458.10843)" />
    <linearGradient
       id="linearGradient34256">
      <stop
         id="stop34258"
         offset="0"
         style="stop-color:#6a3c1d;stop-opacity:1;" />
      <stop
         id="stop34260"
         offset="1"
         style="stop-color:#8f5127;stop-opacity:1;" />
    </linearGradient>
    <linearGradient
       inkscape:collect="always"
       xlink:href="#linearGradient2320"
       id="linearGradient2891"
       x1="83.5"
       y1="76.875"
       x2="90.875"
       y2="84.6875"
       gradientUnits="userSpaceOnUse"
       gradientTransform="translate(284.05062,458.10843)" />
    <linearGradient
       id="linearGradient34263">
      <stop
         id="stop34265"
         offset="0"
         style="stop-color:#6a3c1d;stop-opacity:1;" />
      <stop
         id="stop34267"
         offset="1"
         style="stop-color:#8f5127;stop-opacity:1;" />
    </linearGradient>
    <filter
       color-interpolation-filters="sRGB"
       inkscape:collect="always"
       id="filter5766">
      <feGaussianBlur
         inkscape:collect="always"
         stdDeviation="0.22566261"
         id="feGaussianBlur5768" />
    </filter>
  </defs>
  <sodipodi:namedview
     id="base"
     pagecolor="#ffffff"
     bordercolor="#666666"
     borderopacity="1.0"
     inkscape:pageopacity="0.0"
     inkscape:pageshadow="2"
     inkscape:zoom="31.678384"
     inkscape:cx="14.64375"
     inkscape:cy="10.799807"
     inkscape:document-units="px"
     inkscape:current-layer="layer1"
     showgrid="false"
     fit-margin-top="0"
     fit-margin-left="0"
     fit-margin-right="0"
     fit-margin-bottom="0"
     inkscape:window-width="1912"
     inkscape:window-height="1049"
     inkscape:window-x="0"
     inkscape:window-y="0"
     inkscape:window-maximized="1" />
  <metadata
     id="metadata34286">
    <rdf:RDF>
      <cc:Work
         rdf:about="">
        <dc:format>image/svg+xml</dc:format>
        <dc:type
           rdf:resource="http://purl.org/dc/dcmitype/StillImage" />
        <dc:title></dc:title>
      </cc:Work>
    </rdf:RDF>
  </metadata>
  <g
     inkscape:label="Layer 1"
     inkscape:groupmode="layer"
     id="layer1"
     transform="translate(-360.35625,-520.17468)">
    <path
       style="fill:#000000;fill-opacity:0.66666667;fill-rule:evenodd;stroke:none;filter:url(#filter5766)"
       d="m 364.07791,540.28218 -2.69083,-2.44621 -0.48924,-5.99321 8.43942,-6.97169 6.23782,3.18007 -11.49717,12.23104 z"
       id="path5699"
       inkscape:connector-curvature="0" />
    <path
       style="fill:url(#linearGradient2891);fill-opacity:1;fill-rule:evenodd;stroke:none"
       d="m 364.30062,533.48343 -0.1875,7.0625 12.3125,3.3125 c 0,0 0.9375,-6.25 0.3125,-6.4375 -0.625,-0.1875 -6.0625,-6 -6.0625,-6 l -6.375,2.0625 z"
       id="path2889"
       inkscape:connector-curvature="0" />
    <path
       style="fill:url(#linearGradient2895);fill-opacity:1;fill-rule:evenodd;stroke:none"
       d="m 376.55062,537.42093 12.1875,-10.8125 0,6.5625 -11.875,10.8125 -0.3125,-6.5625 z"
       id="path2893"
       inkscape:connector-curvature="0" />
    <path
       style="fill:url(#linearGradient4559);fill-opacity:1;fill-rule:evenodd;stroke:none"
       d="m 364.46968,533.2092 11.25256,-10.641 5.93205,-1.95697 -11.25255,10.64101 -5.93206,1.95696 z"
       id="path4557"
       inkscape:connector-curvature="0" />
    <path
       style="fill:url(#linearGradient4563);fill-opacity:1;fill-rule:evenodd;stroke:none"
       d="m 370.40174,531.19108 c 0,0 11.1914,-11.31371 11.61948,-10.88562 0.42809,0.42808 6.84938,6.05436 6.84938,6.05436 l -12.23103,11.06909 -6.23783,-6.23783 z"
       id="path4561"
       inkscape:connector-curvature="0" />
    <path
       sodipodi:nodetypes="ccccc"
       style="fill:#d59163;fill-opacity:1;fill-rule:evenodd;stroke:none"
       d="m 378.5333,536.99256 1.9768,-2.31893 0.038,3.53543 -2.09085,2.2429 0.076,-3.4594 z"
       id="path4953"
       inkscape:connector-curvature="0" />
    <path
       id="path4955"
       d="m 385.56525,530.72003 2.09084,-2.39497 -0.038,3.53543 -2.01482,2.2429 -0.038,-3.38336 z"
       style="fill:#d59163;fill-opacity:1;fill-rule:evenodd;stroke:none"
       sodipodi:nodetypes="ccccc"
       inkscape:connector-curvature="0" />
    <path
       sodipodi:nodetypes="ccccc"
       id="path4957"
       d="m 367.94065,541.84779 0.0693,-3.65722 3.05766,1.15367 -0.076,3.07506 -3.0509,-0.57151 z"
       style="fill:url(#linearGradient4961);fill-opacity:1;fill-rule:evenodd;stroke:none"
       inkscape:connector-curvature="0" />
    <path
       id="path5025"
       d="m 364.30062,533.48343 -0.1875,7.0625 12.3125,3.3125 c 0,0 0.9375,-6.25 0.3125,-6.4375 -0.625,-0.1875 -6.0625,-6 -6.0625,-6 l -6.375,2.0625 z"
       style="fill:#000000;fill-opacity:0.15686275;fill-rule:evenodd;stroke:none"
       inkscape:connector-curvature="0" />
    <path
       style="fill:#000000;fill-opacity:1;stroke:none"
       d="m 363.86245,533.27423 -0.1875,7.46295 12.875,3.6875 12.375,-11.09375 0.0312,-6.78125 0.1875,-0.15625 -7.0625,-6.21875 -6.5937,2.25 z m 18.00005,-12.6308 6.5,5.8125 -11.84375,10.53125 -0.0312,0.0312 -5.78125,-5.90625 11.15625,-10.46875 z m -1.15625,0.5937 -10.625,9.75 -5.40625,2.09375 11.09375,-10.125 z m 1.25,0.5625 -0.5625,0.5625 -0.28125,-0.25 0.0312,0.21875 0.125,0.125 -2.875,2.78125 -0.1875,-0.1875 -0.0937,0.0312 0.21875,0.21875 -1.4375,1.375 0.15625,0.0937 1.40625,-1.34375 1,1 -3.15625,3.03125 0.15625,0.125 3.125,-3.03125 2.25,2.25 0.0312,-0.0937 -2.21875,-2.21875 1.75,-1.71875 -0.0625,-0.15625 -1.8125,1.75 -1,-1 2.90625,-2.78125 2.71875,2.46875 -1.4375,1.4375 0.15625,0.0937 1.40625,-1.40625 2.09375,1.90625 -2.90625,2.78125 0.125,0.0625 3,-2.8125 -2.21875,-2.03125 0.90625,-0.875 -0.0937,-0.1875 -0.9375,0.9375 -2.71875,-2.46875 0.625,-0.59375 -0.1875,-0.0937 z m -4.21875,1.34375 -2.28125,2.25 -1.53125,0.1875 0.59375,-0.5625 -0.15625,-0.0937 -0.71875,0.6875 -0.65625,0.0937 0.625,-0.0625 -1.46875,1.4375 -1.125,0.34375 -0.0312,0.0625 1,-0.25 -2.9375,2.875 -1.21875,0.4375 -0.0312,0.125 1.125,-0.40625 -0.75,0.71875 0.0312,0.0625 0.90625,-0.84375 1.5625,-0.59375 0,-0.0625 -1.4375,0.5 3.03125,-2.875 1.25,-0.3125 -0.0625,-0.15625 -1.03125,0.3125 1.46875,-1.40625 1.4375,-0.125 -0.40625,0.40625 0.15625,0.0937 0.5625,-0.53125 0.4375,-0.0312 0,-0.125 -0.3125,0.0312 2.125,-2.03125 -0.15625,-0.15625 z m 10.53125,4.03125 0.0312,5.90625 -11.40625,10.21875 -0.15625,-5.75 11.53125,-10.375 z m -0.59375,1.03125 -2.125,2.40625 0,3.59375 2.125,-2.40625 z m -7.34375,0.0937 -3.9375,3.71875 -1.59375,-1.46875 -0.15625,0.0625 1.625,1.53125 -0.5,0.46875 0.0937,0.125 0.53125,-0.5 1.1875,1.125 -2,1.875 0.15625,0.0625 1.96875,-1.8125 0.9375,0.875 0.15625,-0.0937 -0.96875,-0.90625 2.46875,-2.3125 -0.0937,-0.125 -2.5,2.34375 -1.21875,-1.125 3.96875,-3.71875 -0.125,-0.125 z m 7.25,0.21875 -0.0312,3.28125 -1.90625,2.15625 0,-3.3125 1.875,-2.03125 0.0625,-0.0937 z m -0.0625,0.0937 -1.8125,2.0625 0,3.15625 1.8125,-2.09375 z m -0.0625,0.21875 -0.0312,2.90625 -1.65625,1.84375 0,-2.84375 1.6875,-1.90625 z m -17.28125,2.71875 5.84375,5.90625 0.0625,6.34375 -5.03125,-1.46875 0,-3.125 -3.25,-1.09375 0,3.25 -3.625,-1.0625 0.125,-6.53125 z m 10.375,3.03125 -2.125,2.40625 0,3.59375 2.125,-2.40625 z m -0.0937,0.3125 -0.0312,3.28125 -1.90625,2.15625 0,-3.3125 1.875,-2.03125 0.0625,-0.0937 z m -0.0625,0.0937 -1.8125,2.0625 0,3.15625 1.8125,-2.09375 z m -0.0625,0.21875 -0.0312,2.90625 -1.65625,1.84375 0,-2.84375 1.6875,-1.90625 z m -12.375,3.125 2.9375,1.03125 -0.0312,2.90625 -0.0312,0 0,-2.875 -2.8125,-0.96875 0,3 -0.0937,-0.0312 0.0312,-3.0625 z m 0.1875,0.25 2.59375,0.90625 -0.0625,2.71875 -1.875,-0.5625 -0.65625,-0.21875 z"
       id="rect34227"
       inkscape:connector-curvature="0"
       sodipodi:nodetypes="cccccccccccccccccccccccccccccccccccccccccccccccccccccccccccccccccccccccccccccccccccccccccccccccccccccccccccccccccccccccccccccccccccccccccccccccccccccccccccccccccccccccccccccccccccccccccccccccccccccc" />
  </g>
</svg>
