<?xml version="1.0" encoding="UTF-8" standalone="no"?>
<!-- Created with Inkscape (http://www.inkscape.org/) -->

<svg
   xmlns:dc="http://purl.org/dc/elements/1.1/"
   xmlns:cc="http://creativecommons.org/ns#"
   xmlns:rdf="http://www.w3.org/1999/02/22-rdf-syntax-ns#"
   xmlns:svg="http://www.w3.org/2000/svg"
   xmlns="http://www.w3.org/2000/svg"
   xmlns:sodipodi="http://sodipodi.sourceforge.net/DTD/sodipodi-0.dtd"
   xmlns:inkscape="http://www.inkscape.org/namespaces/inkscape"
   width="902.38049"
   height="1003.066"
   id="svg5675"
   version="1.1"
   inkscape:version="0.48.0 r9654"
   sodipodi:docname="Новый документ 59">
  <defs
     id="defs5677" />
  <sodipodi:namedview
     id="base"
     pagecolor="#ffffff"
     bordercolor="#666666"
     borderopacity="1.0"
     inkscape:pageopacity="0.0"
     inkscape:pageshadow="2"
     inkscape:zoom="0.35"
     inkscape:cx="603.17835"
     inkscape:cy="464.4933"
     inkscape:document-units="px"
     inkscape:current-layer="layer1"
     showgrid="false"
     fit-margin-top="0"
     fit-margin-left="0"
     fit-margin-right="0"
     fit-margin-bottom="0"
     inkscape:window-width="1280"
     inkscape:window-height="904"
     inkscape:window-x="-4"
     inkscape:window-y="-4"
     inkscape:window-maximized="1" />
  <metadata
     id="metadata5680">
    <rdf:RDF>
      <cc:Work
         rdf:about="">
        <dc:format>image/svg+xml</dc:format>
        <dc:type
           rdf:resource="http://purl.org/dc/dcmitype/StillImage" />
        <dc:title></dc:title>
      </cc:Work>
    </rdf:RDF>
  </metadata>
  <g
     inkscape:label="Layer 1"
     inkscape:groupmode="layer"
     id="layer1"
     transform="translate(94.909419,-22.353761)">
    <path
       style="fill:#000000;stroke:none"
       d="M 452.79053,330.14751 684.07987,400.23519 561.42641,521.13644 451.03832,451.04876 514.11726,552.67593 338.89803,545.66714 328.38487,354.67821 z"
       id="path3640"
       inkscape:connector-curvature="0" />
    <path
       style="fill:#ff9e80;fill-opacity:1;stroke:#000000;stroke-width:9;stroke-linecap:round;stroke-linejoin:round;stroke-miterlimit:4;stroke-opacity:1;stroke-dasharray:none;stroke-dashoffset:7.29999956"
       d="m 46.288623,426.27727 c -0.562386,39.52293 22.301761,116.46474 22.301761,116.46474 -57.091608,14.02056 -71.5806733,78.4909 7.433931,113.98683 0,0 -29.262463,101.00501 -7.433931,143.72248 C 129.47368,919.59731 273.0711,1000.0739 405.59485,1018.513 492.0285,1030.5393 593.76713,996.01695 662.06514,941.69582 733.02792,885.25527 775.04959,817.12024 794.63676,728.59006 806.63969,674.33915 808.93791,597.08448 777.29095,551.41496 723.00225,473.07125 627.33878,499.55925 517.10365,403.97547 439.34384,336.55072 452.86331,309.07824 403.11689,272.64286 246.91562,158.23759 48.3849,278.96097 46.288623,426.27727 z"
       id="path3601"
       inkscape:connector-curvature="0"
       sodipodi:nodetypes="sccssssssss" />
    <path
       style="fill:#000000;stroke:none"
       d="m 46.242171,432.48568 c -38.1173298,53.11848 -83.247157,104.9908 -141.15159,154.81142 38.667297,45.3256 75.003593,93.22233 142.452526,106.56837 L 61.636584,649.3084 C -0.85717001,612.9065 16.320938,555.62832 70.595216,547.28573 92.297598,543.94982 111.67205,547.03396 120.61236,571.25222 98.505189,638.37596 97.615279,684.31334 87.221665,739.72348 119.0784,770.44105 144.95788,809.60908 198.66854,809.10675 180.35209,626.59541 204.97975,581.30693 217.3153,496.88203 124.8505,477.57274 83.854772,455.25113 46.458994,432.70251 l -0.108238,-0.10824 -0.108238,-0.10824 z"
       id="path3603"
       inkscape:connector-curvature="0"
       sodipodi:nodetypes="ccccscccccccc" />
    <path
       style="fill:none;stroke:#000000;stroke-width:9;stroke-linecap:round;stroke-linejoin:round;stroke-miterlimit:4;stroke-opacity:1;stroke-dasharray:none;stroke-dashoffset:7.29999956"
       d="m 154.08049,702.57134 c 47.77063,-51.3762 120.90476,-98.68515 183.37006,-130.09363"
       id="path3611"
       inkscape:connector-curvature="0"
       sodipodi:nodetypes="cc" />
    <path
       style="fill:none;stroke:#000000;stroke-width:9;stroke-linecap:round;stroke-linejoin:round;stroke-miterlimit:4;stroke-opacity:1;stroke-dasharray:none;stroke-dashoffset:7.29999956"
       d="M 172.66532,732.30703 C 218.09686,672.4685 282.46719,625.40215 338.68957,583.6286"
       id="path3615"
       inkscape:connector-curvature="0"
       sodipodi:nodetypes="cc" />
    <path
       style="fill:none;stroke:#000000;stroke-width:9;stroke-linecap:round;stroke-linejoin:round;stroke-miterlimit:4;stroke-opacity:1;stroke-dasharray:none;stroke-dashoffset:7.29999956"
       d="M 196.20606,760.80374 C 225.64236,693.74873 306.4677,625.75004 344.88449,589.82352"
       id="path3617"
       inkscape:connector-curvature="0"
       sodipodi:nodetypes="cc" />
    <path
       style="fill:none;stroke:#000000;stroke-width:9;stroke-linecap:round;stroke-linejoin:round;stroke-miterlimit:4;stroke-opacity:1;stroke-dasharray:none;stroke-dashoffset:7.29999956"
       d="M 230.8977,763.2817 C 290.55319,655.90772 323.27854,634.32699 354.79637,598.49643"
       id="path3619"
       inkscape:connector-curvature="0"
       sodipodi:nodetypes="cc" />
    <path
       style="fill:none;stroke:#000000;stroke-width:9;stroke-linecap:round;stroke-linejoin:round;stroke-miterlimit:4;stroke-opacity:1;stroke-dasharray:none;stroke-dashoffset:7.29999956"
       d="M 525.77659,530.35217 C 587.8631,508.14134 661.11883,504.54586 732.68743,498.13849"
       id="path3621"
       inkscape:connector-curvature="0"
       sodipodi:nodetypes="cc" />
    <path
       style="fill:none;stroke:#000000;stroke-width:9;stroke-linecap:round;stroke-linejoin:round;stroke-miterlimit:4;stroke-opacity:1;stroke-dasharray:none;stroke-dashoffset:7.29999956"
       d="M 531.97151,546.45898 C 604.11346,523.08282 681.23713,524.61515 759.94513,534.0691"
       id="path3623"
       inkscape:connector-curvature="0"
       sodipodi:nodetypes="cc" />
    <path
       style="fill:none;stroke:#000000;stroke-width:9;stroke-linecap:round;stroke-linejoin:round;stroke-miterlimit:4;stroke-opacity:1;stroke-dasharray:none;stroke-dashoffset:7.29999956"
       d="m 533.21052,552.65393 c 81.64531,-7.76339 161.57352,-6.08265 236.6465,22.30176"
       id="path3625"
       inkscape:connector-curvature="0"
       sodipodi:nodetypes="cc" />
    <path
       style="fill:none;stroke:#000000;stroke-width:9;stroke-linecap:round;stroke-linejoin:round;stroke-miterlimit:4;stroke-opacity:1;stroke-dasharray:none;stroke-dashoffset:7.29999956"
       d="m 539.40544,566.28279 c 55.94807,-12.18163 130.8469,11.16942 213.10576,48.32048"
       id="path3627"
       inkscape:connector-curvature="0"
       sodipodi:nodetypes="cc" />
    <path
       style="fill:none;stroke:#000000;stroke-width:9;stroke-linecap:round;stroke-linejoin:round;stroke-miterlimit:4;stroke-opacity:1;stroke-dasharray:none;stroke-dashoffset:7.29999956"
       d="m 548.07835,643.09999 c 0,0 3.08347,12.171 -1.23897,13.62885 -44.69573,15.0748 -101.54218,36.83575 -151.15642,24.77971 -56.50598,-13.7307 -140.00552,-104.0749 -140.00552,-104.0749 0,0 51.63313,96.03682 78.05618,143.72252 21.15361,38.17589 27.51064,95.57826 64.4273,113.98679 22.01826,10.97941 96.26914,-22.35054 135.0496,-50.79848 15.65478,-11.48376 35.93062,-45.8425 35.93062,-45.8425"
       id="path3631"
       inkscape:connector-curvature="0"
       sodipodi:nodetypes="csscsssc" />
    <path
       style="fill:#000000;stroke:#000000;stroke-width:4.50991249;stroke-linecap:round;stroke-linejoin:miter;stroke-miterlimit:4;stroke-opacity:1;stroke-dasharray:none;stroke-dashoffset:7.29999956"
       d="m 255.69292,577.43167 c 0,0 51.63312,96.06776 78.05618,143.75346 21.1536,38.17589 27.47969,95.53182 64.39634,113.94034 20.17649,10.06103 84.15275,-17.08001 124.56466,-43.58136 -47.28425,-17.72955 -62.19756,-84.87323 -55.94027,-109.7123 l -0.54205,-1.08411 c -23.80388,4.7303 -47.94193,6.25878 -70.5758,0.75888 C 339.146,667.77587 255.69292,577.43167 255.69292,577.43167 z"
       id="path3633"
       inkscape:connector-curvature="0" />
    <path
       style="fill:#ffecdc;fill-opacity:1;stroke:#000000;stroke-width:9;stroke-linecap:round;stroke-linejoin:round;stroke-miterlimit:4;stroke-opacity:1;stroke-dasharray:none;stroke-dashoffset:7.29999956"
       d="m 389.71159,458.93365 c -5.62816,-6.1851 -9.399,-14.49056 -10.51316,-22.77853 -1.89333,-14.08421 -1.07596,-30.36559 7.00879,-42.05261 9.60313,-13.88196 27.12393,-27.99098 43.80478,-25.40676 17.16077,2.65855 26.02258,23.70989 35.04386,38.54823 4.36806,7.18467 8.59301,15.24798 8.76096,23.6546 0.26365,13.20353 -3.06775,28.19545 -12.26534,37.67213 -8.42777,8.68349 -22.11695,13.36488 -34.16775,12.26533 -14.46537,-1.31984 -27.89617,-11.15905 -37.67214,-21.90239 z"
       id="path3646"
       inkscape:connector-curvature="0"
       sodipodi:nodetypes="sssssssss" />
    <path
       style="fill:#ff9e80;fill-opacity:1;stroke:#000000;stroke-width:9;stroke-linecap:round;stroke-linejoin:round;stroke-miterlimit:4;stroke-opacity:1;stroke-dasharray:none;stroke-dashoffset:7.29999956"
       d="m 346.12346,553.89291 c -7.35733,51.16544 28.0245,51.90857 58.23241,24.77975 0,0 14.43019,19.99109 24.77975,26.01873 39.72938,23.13855 88.86682,43.14158 133.81056,33.45262 12.35806,-2.66414 22.50513,-12.63584 26.01873,-24.77972 13.50462,-46.6754 -11.23867,-124.88999 -44.60352,-136.28858 -51.43784,-17.57298 -161.0683,-14.86783 -161.0683,-14.86783"
       id="path3629"
       inkscape:connector-curvature="0"
       sodipodi:nodetypes="ccssssc" />
    <path
       sodipodi:type="arc"
       style="fill:#000000;stroke:none"
       id="path3650"
       sodipodi:cx="-356.07877"
       sodipodi:cy="296.89435"
       sodipodi:rx="3.2829957"
       sodipodi:ry="4.9244938"
       d="m -352.79577,296.89435 c 0,2.71972 -1.46985,4.92449 -3.283,4.92449 -1.81314,0 -3.28299,-2.20477 -3.28299,-4.92449 0,-2.71972 1.46985,-4.9245 3.28299,-4.9245 1.81315,0 3.283,2.20478 3.283,4.9245 z"
       transform="matrix(3.4691635,0,0,3.4691635,1649.5378,-585.49698)" />
    <path
       style="fill:#957285;fill-opacity:1;stroke:#000000;stroke-width:9;stroke-linecap:round;stroke-linejoin:round;stroke-miterlimit:4;stroke-opacity:1;stroke-dasharray:none;stroke-dashoffset:7.29999956"
       d="M 111.11303,331.89972 53.290713,181.21119 C 44.162095,157.42143 50.724018,134.99752 79.573582,105.86692 133.32161,51.595329 197.31848,42.427544 261.80156,30.522659 c 28.40561,-5.244265 52.85121,-12.264915 78.84864,38.548235 0,0 22.58446,34.050776 29.78728,61.326726 3.43308,13.00052 10.18286,39.67797 14.01753,52.56574 5.22772,17.56944 18.34668,41.29872 26.28291,57.82235 16.48505,34.32272 38.5482,98.12276 38.5482,98.12276 L 373.94185,365.19137 253.0406,328.39531 147.90906,307.36902 z"
       id="path3652"
       inkscape:connector-curvature="0"
       sodipodi:nodetypes="csssssssccccc" />
    <path
       style="fill:none;stroke:#000000;stroke-width:9;stroke-linecap:round;stroke-linejoin:round;stroke-miterlimit:4;stroke-opacity:1;stroke-dasharray:none;stroke-dashoffset:7.29999956"
       d="M 352.03946,221.51159 C 344.8721,210.41436 339.35842,199.31717 334.51755,188.21994"
       id="path3659"
       inkscape:connector-curvature="0"
       sodipodi:nodetypes="cc" />
    <path
       style="fill:none;stroke:#000000;stroke-width:9;stroke-linecap:round;stroke-linejoin:round;stroke-miterlimit:4;stroke-opacity:1;stroke-dasharray:none;stroke-dashoffset:7.29999956"
       d="m 371.31358,222.3877 c -14.43047,-14.31811 -14.1596,-35.87251 -15.76974,-55.19405"
       id="path3661"
       inkscape:connector-curvature="0"
       sodipodi:nodetypes="cc" />
    <path
       style="fill:#ff3a48;fill-opacity:1;stroke:#000000;stroke-width:9;stroke-linecap:round;stroke-linejoin:round;stroke-miterlimit:4;stroke-opacity:1;stroke-dasharray:none;stroke-dashoffset:7.29999956"
       d="m 398.57909,216.31343 c -105.71471,11.60425 -197.5927,45.83123 -290.75927,107.21884 l 3.25234,8.34767 36.85987,-24.50097 105.15901,21.03181 120.87867,36.75145 75.3459,-26.23555 c 0,0 -22.1094,-63.78956 -38.59445,-98.11228 -3.43749,-7.15699 -7.82234,-15.72638 -12.14207,-24.50097 z"
       id="path3654"
       inkscape:connector-curvature="0" />
    <path
       style="fill:#957285;fill-opacity:1;stroke:#000000;stroke-width:9;stroke-linecap:round;stroke-linejoin:round;stroke-miterlimit:4;stroke-opacity:1;stroke-dasharray:none;stroke-dashoffset:7.29999956"
       d="m 29.636118,433.52685 c 0,0 -27.8584236,-20.99312 -35.0438592,-35.91993 -6.8446598,-14.21889 -6.9523078,-32.41007 -1.7522051,-47.30919 7.98497367,-22.8782 29.2595143,-39.02681 47.3091913,-55.19408 28.176545,-25.23799 56.267021,-58.80933 93.742275,-63.955 22.59827,-3.10292 45.0091,10.6154 64.83114,21.90239 33.11344,18.85536 53.61166,55.62766 86.73349,74.4682 25.44601,14.47432 53.95865,28.53075 83.22912,28.03507 22.45288,-0.38022 46.79201,-8.19454 63.07894,-23.65459 23.33407,-22.14943 30.75826,-57.27048 38.54823,-88.48574 3.61726,-14.49482 3.50438,-44.68088 3.50438,-44.68088 0,0 33.45945,7.19785 42.05261,20.15022 6.78845,10.23212 4.23463,24.77035 1.7522,36.79603 -5.91447,28.65165 -20.31098,55.97291 -38.54823,78.84864 -12.16848,15.26338 -27.7514,28.79579 -45.55699,36.79603 -25.92509,11.64844 -55.70883,15.21887 -84.10522,14.01754 -44.86544,-1.89809 -87.37796,-20.89439 -130.53834,-33.29166 -29.47034,-8.46497 -87.6096,-28.03507 -87.6096,-28.03507 l 28.91118,14.01753 c 0,0 -27.47047,6.32457 -42.92872,15.76975 -34.680981,21.19055 -69.969867,45.33593 -87.609592,79.72474 z"
       id="path3663"
       inkscape:connector-curvature="0"
       sodipodi:nodetypes="cssssssssscssssssccsc" />
    <path
       style="fill:none;stroke:#000000;stroke-width:9;stroke-linecap:round;stroke-linejoin:round;stroke-miterlimit:4;stroke-opacity:1;stroke-dasharray:none;stroke-dashoffset:7.29999956"
       d="m 341.5263,944.29085 c 0,0 43.19799,26.02702 67.45941,30.66339 29.29296,5.59787 61.49748,6.24935 89.3618,-4.38048 16.49119,-6.29116 30.13958,-19.51766 41.17651,-33.29166 23.43816,-29.25063 49.93746,-100.75106 49.93746,-100.75106"
       id="path3665"
       inkscape:connector-curvature="0"
       sodipodi:nodetypes="csssc" />
    <path
       style="fill:#ffecdc;fill-opacity:1;stroke:#000000;stroke-width:9;stroke-linecap:round;stroke-linejoin:round;stroke-miterlimit:4;stroke-opacity:1;stroke-dasharray:none;stroke-dashoffset:7.29999956"
       d="m 302.97807,381.83718 c -23.36981,4.22201 -44.79755,27.62831 -49.93747,50.81357 -6.43706,29.03648 3.86715,69.52103 29.78728,84.10522 18.71822,10.53196 44.73431,-1.97143 63.0789,-13.14144 15.42643,-9.39314 30.1011,-24.45521 34.16776,-42.05261 3.78014,-16.35755 -0.81786,-36.01897 -11.38927,-49.06139 -15.21922,-18.77661 -41.92231,-34.96036 -65.7072,-30.66335 z"
       id="path3644"
       inkscape:connector-curvature="0"
       sodipodi:nodetypes="sssssss" />
    <path
       sodipodi:type="arc"
       style="fill:#000000;stroke:none"
       id="path3648"
       sodipodi:cx="-371.98868"
       sodipodi:cy="299.54599"
       sodipodi:rx="4.2931485"
       sodipodi:ry="4.2931485"
       d="m -367.69553,299.54599 c 0,2.37104 -1.92211,4.29315 -4.29315,4.29315 -2.37104,0 -4.29315,-1.92211 -4.29315,-4.29315 0,-2.37104 1.92211,-4.29315 4.29315,-4.29315 2.37104,0 4.29315,1.92211 4.29315,4.29315 z"
       transform="matrix(3.4691635,0,0,3.4691635,1649.5378,-585.49698)" />
    <path
       style="fill:#000000;stroke:none"
       d="m 378.76229,432.24673 c 29.67526,-47.13185 69.60554,-76.52462 108.6057,-84.02564 -16.45251,-19.86204 -29.05736,-30.10485 -40.88655,-38.4086 -27.41739,30.29981 -59.46192,57.00075 -66.90532,102.83589 -110.15489,-66.3551 -111.69496,-57.28328 -143.72248,-69.38327 -4.77864,14.45486 -0.64783,28.90969 3.71696,43.36455 14.01431,0.77168 105.15784,8.87037 139.19169,45.61707 z"
       id="path3638"
       inkscape:connector-curvature="0"
       sodipodi:nodetypes="ccccccc" />
  </g>
</svg>
