<?xml version="1.0" encoding="iso-8859-1"?>
<!-- Generator: Adobe Illustrator 13.0.2, SVG Export Plug-In . SVG Version: 6.00 Build 14948)  -->
<!DOCTYPE svg PUBLIC "-//W3C//DTD SVG 1.1//EN" "http://www.w3.org/Graphics/SVG/1.1/DTD/svg11.dtd">
<svg version="1.1" id="Layer_1" xmlns="http://www.w3.org/2000/svg" xmlns:xlink="http://www.w3.org/1999/xlink" x="0px" y="0px"
	 width="517.538px" height="161.762px" viewBox="0 0 517.538 161.762" style="enable-background:new 0 0 517.538 161.762;"
	 xml:space="preserve">
<g>
	<path style="fill-rule:evenodd;clip-rule:evenodd;fill:#A65B2F;" d="M194.511,22.826c0.777,2.771-1.162,7.101-1.985,9.924
		C191.686,29.914,193.624,25.584,194.511,22.826z"/>
	<path style="fill-rule:evenodd;clip-rule:evenodd;fill:#A65B2F;" d="M338.409,93.783c0.996-0.169,1.553,0.101,1.489,0.992
		c-0.496,0-0.992,0-1.489,0C338.409,94.444,338.409,94.113,338.409,93.783z"/>
	<path style="fill-rule:evenodd;clip-rule:evenodd;fill:#A65B2F;" d="M422.764,113.134c1.968,0.183,4.756-0.455,5.955,0.496
		C428.082,115.423,423.053,114.799,422.764,113.134z"/>
	<path style="fill-rule:evenodd;clip-rule:evenodd;fill:#A65B2F;" d="M213.863,119.088c2.73,1.735,5.319,3.612,5.458,7.939
		c-0.508,0.484-1.004,0.98-1.489,1.488C215.915,126.231,213.646,121.88,213.863,119.088z"/>
	<path style="fill-rule:evenodd;clip-rule:evenodd;fill:#A65B2F;" d="M517.042,104.699c-2.899-2.559-5.903-5.014-9.924-6.45
		c0.826-5.572-5.563-5.378-2.481-10.421c-5.283-3.152-8.405-8.465-17.366-7.939c-2.114,1.292-4.102,5.028-6.947,3.969
		c0.471-4.326,7.141-2.452,6.947-7.443c-2.167-0.678-1.057,1.921-2.978,1.489c-1.95-0.034-3.729-0.24-4.962-0.992
		c1.414-3.701-2.729-4.437-2.978-7.939c-2.178,0.027-2.658-1.642-4.466-1.985c-1.181,1.301-3.725,1.237-5.458,1.985
		c-0.447-5.838-2.907-9.663-7.443-11.413c1.179,4.461-4.229,4.857-1.488,7.939c-1.011,0.147-1.321,0.994-1.985,1.488
		c-0.014,2.991-0.154,6.109,0.497,8.436c-0.731,1.253-1.753,2.217-1.985,3.97c0.754,1.727,1.885,3.078,1.985,5.458
		c-5.324,1.885-9.527-0.346-16.375-1.489c-11.855-1.979-24.585-4.412-37.215-3.473c0.496-3.805-3.317-3.299-4.962-4.962
		c-0.41-2.023-0.076-1.709,0-3.97c-5.193-2.523-11.689-0.737-17.367-2.481c3.744-3.038,9.099-4.464,13.894-6.451
		c9.192,6.521,21.486,9.94,31.757,15.382c0.104-1.46-1.961-3.287-0.496-4.466c2.89,1.446,7.711,2.286,10.42,0
		c0.203-1.196-0.906-1.079-0.496-2.481c4.768-0.057,6.695-5.88,11.909-2.481c0.435-2.692-4.587-3.936-7.939-4.466
		c-1.16-1.983-3.44-2.845-6.947-2.481c0.038-0.865-0.11-1.543-0.496-1.985c-5.28-0.272-8.326,3.289-12.405,1.488
		c3.122-2.336,6.422-4.495,6.947-9.428c2.283-1.521,4.282-3.327,7.443-3.97c-1.762-2.373-5.521-2.75-9.924-2.481
		c0.567-1.561-0.779-1.206-0.993-1.985c-2.78-0.299-4.699,0.263-6.45,0.993c-0.689-0.634-0.304-2.343-0.992-2.977
		c-2.93,0.176-4.628,2.29-6.947,0.496c-2.059,1.415-2.766,4.181-5.458,4.962c1.197-5.085-4.558-4.446-2.481-8.932
		c-4.3,0.166-6.557,2.375-9.428,3.97c-4.257-1.94-6.265-0.36-10.42,0.496c-1.556-2.249-4.557-3.052-7.939-3.474
		c-1.238-0.416-1.044-2.264-2.978-1.984c4.372,10.845,16.88,13.554,21.833,23.817c-2.851,3.272-8.788,6.094-13.397,5.955
		c1.624-4.368,6.751-7.754,7.443-11.413c-2.909,0.713-5.316,0.263-7.939-0.496c-1.293-5.475-7.925-1.965-12.405-1.985
		c-0.822,2.32-2.138,4.146-4.466,4.962c-1.15-3.207-3.077-4.897-1.488-8.436c-1.828-0.488-2.86-1.771-4.466-2.481
		c-1.016-1.852,2.326-2.912,0-2.977c-2.698-1.084-6.47-0.67-9.924-1.985c1.946-6.82,9.763-7.77,13.397-12.901
		c1.668-0.979,4.96-0.333,5.458-2.481c-4.116-1.672-10.087-1.491-12.901-4.466c-1.632,0.683-3.329,1.301-4.962,1.985
		c-1.429-0.06-0.861-2.116-2.48-1.985c-3.172,0.964-4.963,3.308-7.939,4.466c-2.114-3.345-4.936-5.981-7.939-8.436
		c-0.315,2.993-1.447,5.168-2.978,6.947c-0.203,1.196,0.906,1.079,0.497,2.481c-2.903,1.398-1.907,6.694-2.481,10.42
		c-2.221-1.015-2.396-4.688-4.962-3.97c-0.031-2.946-2.278-3.677-3.474-5.458c2.986-2.141,5.549-4.707,8.436-6.947
		c-1.298,0.14-2.135-0.181-1.985-1.489c0.669-3.466,3.356-4.914,4.963-7.443c-2.402-0.575-5.572-0.382-6.947-1.985
		c-5.194,0.595-7.088,4.49-10.916,6.451c-0.37-4.427-2.863-6.73-3.97-10.42c-5.06,1.097-6.99-4.804-11.413-5.955
		c-0.921,1.812,2.664,2.793,1.985,5.955c-1.409,1.734-1.667,4.619-3.97,5.458c0.337,4.638-1.468,7.133-3.97,8.932
		c-3.98-1.974-5.21-6.699-8.932-8.932c1.62-4.505-4.771-6.568-2.978-11.413c-5.354,1.758-6.209,8.015-8.932,12.405
		c-0.853-5.267-4.957-7.283-7.443-10.917c0.263,1.083,1.201,3.209-0.496,3.474c-4.523,0.217-7.805-3.435-11.413-2.481
		c3,3.45,6.556,6.345,7.443,11.909c-0.734,0.258-1.25,0.734-1.985,0.992c-2.776-1.193-5.675-2.264-8.932-2.977
		c-3.166,2.126-8.547,2.038-12.901,2.977c0.016,2.643,5.633,2.29,6.947,1.985c-1.092-0.728-3.698,0.059-3.97-1.489
		c5.571-2.714,8.541,2.128,14.886,1.489c1.632,1.51,2.547,3.738,3.473,5.955c2.793-0.019,2.871-2.753,5.458-2.978
		c2.094,1.058,4.015,4.905,3.97,6.451c-3.279-1.929-8.278-1.101-11.909-2.481c-4.308-1.637-6.867-5.548-11.413-6.451
		c1.643,1.86,4.252,2.713,6.451,3.97c2.244,1.282,4.469,2.502,6.451,3.97c6.225-0.105,10.694,1.545,13.894,4.466
		c-0.3,5.431,6.146,6.749,5.458,10.917c-2.374-3.25-6.339-4.908-11.413-5.458c-1.51,0.475-1.996,1.974-4.466,1.489
		c-0.988-0.5-2.119-0.858-2.481-1.985c0.813-1.999,3.044-2.58,3.474-4.962c-4.83,1.892-7.041-1.898-10.917-2.481
		c-1.764,1.709-3.125,3.822-5.955,4.466c-2.333-4.284-7.896-5.336-11.413-8.436c1.184,4.113,1.681,7.467,0.496,10.917
		c-3.779-2.671-7.268-5.634-10.917-8.436c0.157-1.652-0.757-1.732-1.984-2.977c0.68-1.868-0.327-3.209,0.496-5.458
		c-3.833-0.707-3.564-5.599-2.978-9.428c-3.831,1.131-7.07,2.854-8.932,5.955c-0.986,0.827-0.631-0.045-1.984,0
		c-1.505,1.472-1.421,4.533-4.466,4.466c0.659-3.636-2.476-3.479-2.481-6.451c-5.037,1.82-6.418-3.217-7.443-6.947
		c-2.741-0.094-1.147,4.146-3.473,4.466c-0.541-1.009-1.254-3.153-2.481-1.985c0.248,4.218-0.682,7.257-2.481,9.428
		c-1.357-1.289-4.103-1.19-5.458-2.481c-0.302,3.275,7.5,7.53,4.466,11.909c-2.346-1.127-4.184-2.763-7.443-2.977
		c-1.305-0.147-0.391,1.925-1.985,1.489c-2.422-1.287-4.857-0.012-6.451,0.992c-2.4-0.412-4.211-1.412-6.947-1.489
		c1.48,3.979,6.406,4.51,6.947,9.428c2.552,0.425,4.04,1.914,4.466,4.466c3.351,1.031,5.558,0.538,7.443,2.481
		c-4.718,2.89-7.149,8.067-12.901,9.924c2.622,0.416,6.512-1.873,7.939,0.496c-3.213,0.756-7.075,0.864-8.436,3.474
		c-1.655-1.322-4.928-1.026-6.947-1.985c0.791,3.344,2.095,6.175,2.978,9.428c-3.633-0.771-6.172-2.315-9.924-1.985
		c-2.122,0.187-3.969,2.35-6.451,1.489c-1.926,3.036-6.947,2.978-8.932,5.955c0.863,0.957,3.446,0.193,3.474,1.985
		c-2.18,1.625-3.522,4.086-5.955,5.458c1.259,3.017-0.312,5.005-0.992,7.443c1.586,0.552,3.43-2.373,5.954-2.48
		c1.926,2.173,5.001-1.096,8.436-0.497c1.275,0.048,0.709,1.937,1.985,1.985c2.291-1.522,5.792-6.539,8.932-3.97
		c-2.617,5.322-7.993,7.886-9.924,13.894c1.873,0.607,3.856,1.105,4.466,2.978c-1.707,2.098-3.049,4.56-3.474,7.939
		c1.421-0.098,2.708-0.062,2.481,1.488c-0.068,0.924-0.326,1.658-0.992,1.984c-0.877-0.734,0.932-2.564-1.489-2.48
		c-2.849-0.037-3.151,2.473-5.458,2.977c-0.87-1.776-1.757-3.535-2.481-5.458c-2.886-0.587-4.912-2.034-5.458-4.962
		c-3.374,0.892-3.905-3.144-5.955-1.984c1.824,3.944,0.408,8.986,0.993,13.397c-0.804,0.85-3.116,0.191-2.978,1.984
		c2.711,1.424,6.74,1.53,8.436,3.97c-4.886-1.553-6.47,2.418-9.924,3.97c-1.702,0.765-3.99,1.223-5.955,1.488
		c-13.236,1.794-26.604-0.565-42.177,0.496c-2.195-2.932-5.245-5.009-6.45-8.932c1.531-3.373,4.861-2.25,7.443-3.97
		c4.11-2.736,4.715-9.708,9.924-11.412c1.488-5.79,3.584-10.972,7.443-14.39c-3.266-0.289-4.779,1.176-6.947,1.984
		c-0.376,2.271-0.92,4.373-3.474,4.466c-0.392-3.022,1.97-5.432,1.489-6.946c-3.304,0.734-8.441,0.823-11.909,0.496
		c0.06,3.202-0.854,5.432-2.481,6.946c-4.395-1.21-9.294,0.811-11.909,2.978c-0.603,2.793,1.312,5.02,0,6.946
		c-1.944-0.688-3.502-3.069-4.962-2.977c0.363-0.023-3.621,2.312-4.962,3.474c-1.784,1.544-1.547,3.048-3.473,3.969
		c-2.138,1.022-3.096,0.041-5.458,0c-0.742,1.077-2.847,0.793-2.978,2.481c3.434-0.126,4.614,2.002,5.955,3.97
		c-3.366,2.872-10.215,3.865-14.39,1.984c-1.697,2.272-4.699,3.24-6.947,4.962c1.089,1.097,2.028-0.49,3.97,0
		c1.141,0.468,1.811,0.83,2.977,0.993c13.76,1.915,28.186-1.904,38.704-4.466c2.464,2.167,4.448,4.813,6.451,7.442
		c-8.229,0.903-17.2,1.561-25.803,0.993C30.84,119.699,14.78,122.443,0,122.562c3.912,3.831,10.534,1.48,16.871,0.992
		c19.365-1.491,41.08-0.471,59.544-1.984c12.216-1.002,23.581,0.655,34.734,0c8.292-0.487,15.868-3.213,24.314-3.97
		c15.063-1.35,28.07-4.277,41.681-6.451c2.555-0.407,5.284-0.886,7.939-1.488c2.454-0.557,4.992-2.146,7.443-2.48
		c1.006-0.138,2.577,0.503,3.474,0.496c3.022-0.025,5.863-0.76,8.932-0.993c16.514-1.253,33.312-3.391,49.62-4.466
		c12.104-0.797,23.651-5.098,35.727-3.969c-26.152,4.034-53.59,6.52-79.393,9.428c-4.723,0.532-9.762-0.134-14.39,0.992
		c-0.851,0.207-2.291,1.318-3.474,1.488c-1.903,0.274-4.005-0.298-5.954,0c-5.901,0.903-12.236,2.378-18.359,3.474
		c-9.946,1.779-19.804,4.173-29.772,5.458c-2.082,0.269-4.398,0.062-6.451,0.496c-3.457,0.73-6.854,2.986-10.42,3.474
		c-5.293,0.724-11.042,0.276-16.375,0.496c-19.443,0.801-39.558-0.491-61.033,0.992c-1.545,0.44-2.448,1.522-3.969,1.985
		c-10.816-3.009-26.418-0.225-38.704,0c0.875,5.31,9.235,1.768,15.382,1.488c8.243-0.374,15.097-0.265,21.337,0
		c8.479,11.577,32.389,10.016,49.62,9.924c-1.908,1.07-4.986,0.969-5.458,3.474c-1.637,0.741,1.66,0.585,0.993,1.985
		c-1.13,1.682-1.917,3.706-2.481,5.954c0.366,0.791,2.429-0.113,1.985,1.488c0.488,4.624-3.425,4.845-5.458,6.947
		c4.467,1.812,8.998-0.59,11.909-1.985c3.519,3.057,7.314-2.645,10.42,0c3.001-2.126,4.867-5.388,8.436-6.946
		c-0.292,1.78,0.577,2.4,0.992,3.474c1.54,0.051,1.416-1.562,3.474-0.993c1.192,0.463,1.314,1.994,3.473,1.489
		c0.662,0.827-0.18,3.157,1.489,2.977c1.55-0.931,1.923-3.038,3.473-3.97c1.83,0.085,2.458,3.135,3.97,1.985
		c0.946-2.361,0.188-6.429,3.97-5.954c0.437,2.21,0.895,4.398,1.985,5.954c2.072,0.252,1.04-2.599,2.977-2.481
		c0.573,1.908,1.183,3.78,1.985,5.459c5.231-3.739,9.368,2.936,14.39,3.969c0.155-2.636-1.711-3.251-1.985-5.458
		c0.119-0.873,0.854-1.131,1.985-0.992c-0.164-1.986-1.352-2.949-1.985-4.466c0.048-1.275,1.937-0.71,1.985-1.984
		c-1.281-1.707-4.423-4.165-3.97-5.955c2.126,1.017,6.454-0.169,8.436,0.992h-3.474c0.776,3.643,1.638,7.405,3.97,10.421
		c1.238,1.601,2.934,1.717,3.473,3.474c0.623,2.026-0.441,2.953-0.496,4.962c4.833-1.621,4.008-7.737,1.985-11.909
		c3.332,0.307,3.74,3.537,6.947,3.97c1.594,0.437,0.68-1.636,1.985-1.488c1.146,0.673,2.212,1.426,3.97,1.488
		c-0.374-2.935-2.347-4.27-1.985-7.939c-1.046-0.773-2.751-0.888-2.977-2.48c3.262-0.12,6.262,0.022,8.931,0.496
		c-0.222-2.094-2.129-2.502-1.488-5.458c-2.631-1.34-4.532-3.407-6.947-4.963c-0.291-1.742,2.345-1.632,0.992-2.977
		c-3.708-0.886-6.712,1.543-8.932,0.496c0.261-3.298,3.525-5.388,2.978-7.939c-3.303-0.444-8.028-0.018-11.413,0
		c-2.139,2.133-4.511,7.162-3.473,9.428c-2.271-0.211-4.125-0.837-4.466-2.977c0.606-1.709,3.363-1.269,3.97-2.978
		c-2.526-0.782-4.252-2.364-6.451-3.474c-6.706-0.262-10.593,0.251-13.397,4.466c-3.571-0.052-6.184-0.576-9.924,0.992
		c-0.941,1.464,0.147,3.072-0.496,3.97c-2.182-3.603-7.269,0.805-9.924-0.496c1.576-3.882,7.212-3.704,9.924-6.45
		c3.198,0.386,4.886-0.737,7.939-0.497c0.801-0.688,1.571-1.405,2.481-1.984c20.671-3.973,41.653-7.636,63.018-10.916
		c3.744,3.385,3.851,8.678,5.954,13.894c1.231,3.051,3.164,6.435,2.978,9.924c-4.623,1.993-9.428,3.804-10.42,9.428
		c1.84,2.115,3.416-1.915,4.466-0.496c-0.57,2.05-0.569,3.904,0,5.954c0.938-0.111,1.095,0.56,1.985,0.496
		c2.729-1.736,3.051-5.881,5.955-7.442c0.899,4.228-0.119,10.374,3.473,11.908c2.648-5.237-3.03-10.879-2.481-15.382
		c3.739,1.389,2.04,8.215,7.443,7.939c3.095-3.4-1.758-7.932-1.984-9.428c3.212,1.749,3.504,6.419,8.932,5.954
		c0.104-0.557,0.55-0.772,0.992-0.992c-0.858-9.867-13.466-6.888-18.359-13.397c-2.432-3.235-3.874-7.703-3.474-13.397
		c2.856,2.933,7.007,4.571,9.924,7.442c-0.313,3.456,1.113,5.173,3.473,5.955c0.777-0.712,0.391-2.587,1.985-2.481
		c5.606,2.995,11.277,5.925,17.863,7.939c-5.307,1.616-6.539,8.652-2.481,12.405c1.542-5.085,8.788-2.604,8.932,1.984
		c3.503,0.36,5.909-0.376,7.939-1.488c0.948,0.705,1.423,1.885,2.977,1.984c8.051-0.961,17.584-1.439,22.329-6.946
		c-5.377,2.381-9.654-2.44-12.405-4.962c3.66,0.6,5.68-2.296,9.924-0.993c-0.642-4.14-7.14-4.562-5.955-8.932
		c-2.2-0.941-3.9-2.384-5.954-3.473c-1.72-0.265-4.707,0.736-4.962-0.993c-0.369-2.022,1.6-1.708,0.993-3.969
		c-5.097-0.135-8.49,1.434-11.909,2.977c-0.684-0.64-0.491-2.155-0.496-3.474c-6.371-1.813-8.837,3.879-11.909,6.947
		c-0.953,3.765,1.73,3.894,1.985,6.45c-6.941-1.494-12.678-4.193-17.367-7.938c0.337-2.505-1.006-3.623,0-5.459
		c-3.183,0.122,0.246,4.64-1.985,4.962c-0.055-0.937-1.641-0.344-1.489-1.488c0.119-2.858,2.37-3.585,2.481-6.45
		c-2.354,0.788-2.136,4.149-3.969,5.458c-4.365-3.243-9.368-5.85-11.909-10.916c3.899-1.337,12.107-3.294,16.375-0.993
		c-0.314,1.671-1.425,2.545-0.993,4.962c5.165-0.037,5.329,4.927,8.932,6.451c1.751-1.724-2.365-3.689-0.992-4.962
		c2.542,1.294,5.617,1.645,8.436,0.496c-0.666-6.768-11.532-0.757-14.886-3.474c0.474-1.842,0.658-3.974,1.985-4.962
		c12.504-1.059,24.436-2.689,36.719-3.97c1.115,0.87,0.977,2.992,1.489,4.466c5.33-0.864,5.031,3.9,7.939,5.458
		c4.764-1.963,5.733,2.854,9.428,3.474c1.455-1.854,1.865-4.751,2.978-6.946c1.42,1.722,5.781,0.503,5.954,3.473
		c-0.917,2.392-4.306,2.311-6.45,3.474c-1.455,3.342-5.733,3.86-6.947,7.443c1.353,1.459,6.358-0.735,6.947,1.488
		c-1.19,1.456-1.929,3.364-1.985,5.954c0.135,1.023,2.197,0.119,1.985,1.489c-0.506,3.723,0.873,8.761,2.977,11.412
		c1.146-4.644,4.92-6.658,7.939-9.428c0.99,0.499,0.783,2.194,2.481,1.985c1.657-3.03,4.674-7.157,7.442-7.443
		c0.205,3.228-0.955,6.694,0.993,9.924c1.626-0.027,1.896-1.411,3.97-0.992c0.327,2.814,2.518,3.768,2.48,6.946
		c3.156-0.316,3.798-3.148,5.458-4.962c5.021,0.604,6.43,4.818,11.413,5.459c1.047-0.441,0.861-2.116,2.48-1.985
		c5.857,2.082,12.043-1.947,14.391-6.45c-1.22-0.89-2.081,1.34-3.97,1.488c-2.005,0.158-4.335-0.793-5.458-1.984
		c0.211-0.946,1.417-0.898,0.992-2.481c-0.972-1.013-2.931-1.039-2.978-2.978c0.386-2.26,3.141-2.152,3.97-3.969
		c-2.108-3.351-9.397-1.52-10.42-5.955c5.566,0.929,10.917,3.225,16.374,0.496c1.626,0.69,0.882,3.75,2.978,3.97
		c4.13-3.312,6.341-8.545,10.42-11.908c1.93,3.714-1.177,8.146-0.992,12.404c0.028,0.643,0.805,1.782,0.992,2.481
		c0.409,1.521-0.286,3.302,0,4.466c0.553,2.24,2.65,4.247,2.978,6.45c4.927-0.627,4.077,4.523,8.436,4.466
		c-1.817-5.422,4.062-9.786,7.939-7.938c1.849-2.782,4.393-4.87,4.466-9.429c1.44,0.379,1.286,2.353,3.473,1.985
		c0.816-4.389,0.62-10.457,0-14.886c-0.912-1.403-2.391-2.24-2.48-4.466c2.588,1.877,3.45,5.48,5.954,7.442
		c1.894,0.344,2.39-2.018,3.97-0.496c-0.801,1.515-0.863,3.769-1.488,5.458c1.854-0.045,1.414-0.556,2.977,0
		c0.814,2.99,0.039,7.57,2.481,8.932c1.841-2.128,3.422-4.517,6.946-4.962c1.85-1.789,2.255-5.023,4.963-5.954
		c2.235,3.223,3.078,7.838,5.954,10.42c2.714-2.14,4.515,1.467,7.442,1.985c0.99-0.499,0.783-2.194,2.481-1.985
		c3.785,2.5,7.322,5.248,10.42,8.436c1.469-4.197-0.062-9.021-0.992-12.405c3.114-1.388,0.143-5.634,0.496-7.442
		c1.511,1.135,1.594,3.699,3.97,3.969c0.99-0.498,0.783-2.193,2.481-1.984c2.169,1.305,5.606,1.341,7.442,2.978
		c0.799-1.979-2.798-3.351-1.984-6.947c-2.327-0.484-2.992-2.632-3.97-4.466c0.44-1.048,1.511-1.467,1.488-2.977
		c-2.673-2.521-7.491-4.184-6.946-8.436c-3.348-1.284-8.221-1.042-9.428-4.466c-7.481-1.187-13.75-1.393-18.359,2.977
		c-3.385-3.231-6.684-6.549-7.939-11.908c4.509-0.957,8.113-0.433,10.42,1.984c1.229-1.287-0.482-2.434,0-4.466
		c0.665-1.154,2.872-0.767,3.97-1.488c-0.158-1.165-0.784-1.862-0.496-3.474c18.081-4.132,34.253,5.495,53.59,4.962
		c1.815,1.708,2.315,4.128,3.474,6.451c1.11,2.229,2.929,4.244,3.969,6.45c2.27,4.811,2.157,8.289,4.963,10.916
		c1.919,1.799,7.149,3.355,7.938,6.451c1.722-2.413,1.126-7.145,2.978-9.428c2.406,2.109,3.093,5.075,5.954,6.946
		c4.73,3.094,12.497,3.046,14.692,8.917c1.665,0.729,3.047,1.842,3.778,3.455c0.302,0.417,0.577,0.858,0.796,1.357
		c0.652,0.432,1.253,0.953,1.831,1.496c-0.094-0.942-0.199-1.873-0.205-2.822c-0.019-0.001-0.032,0.003-0.052,0.002
		c-0.111-4.188-0.936-6.447,1.488-8.436c-0.484-2.607-3.378-5.065-1.984-7.939c-3.183-4.425-8.559-6.658-11.909-10.916
		c3.146,0.153,5.128,2.132,6.451,3.474c1.595,1.618,3.862,3.762,5.954,4.466c1.296,0.437,2.596-0.125,3.97,0.496
		c2.271,1.027,3.874,3.658,6.45,4.466C517.552,110.143,516.692,108.026,517.042,104.699z M413.832,67.98
		c3.976,0.987,7.34,2.584,9.428,5.458c-2.619,1.196-5.062-0.85-7.442-1.985c-6.599-3.146-15.169-5.506-20.345-10.42
		C401.569,62.749,411.821,60.99,413.832,67.98z M388.526,53.59c-3.98-4.574-11.004-7.696-14.391-12.901
		c3.716-1.392,5.31,3.616,9.925,2.977c3.061,4.125,8.378,8.392,8.435,13.894C389.961,58.111,389.812,55.068,388.526,53.59z
		 M38.208,115.615c-3.227,0.204-6.098-0.378-8.932-0.496c-2.17-0.09-4.466,1.41-5.954-0.496c2.694-3.981,11.986,0.089,15.382-4.466
		c1.561-0.237,1.939,0.707,2.977,0.992c3.877-3.1,10.03,0.115,15.382,0C54.241,114.669,44.434,115.221,38.208,115.615z
		 M124.051,117.6c-0.232-1.059,0.709-0.945,1.488-0.992C125.323,117.218,124.904,117.626,124.051,117.6z M130.501,114.126
		c0.611,0.217,1.02,0.635,0.993,1.488C130.883,115.399,130.475,114.98,130.501,114.126z M142.906,114.126
		c-0.122-2.106,1.298-2.672,0.992-4.962C144.586,108.176,145.126,114.799,142.906,114.126z M77.904,136.456
		c-1.111-0.08-2.36-0.97-3.473-0.992c-4.734-0.097-9.487,0.263-14.886-0.496c-7.397-1.041-13.241-2.205-14.886-7.939
		c8.934,0.884,22.245-3.011,30.765-0.992c3.198,0.757,4.337,3.869,6.947,4.466c0.254,2.074-2.277,1.361-2.977,2.48
		c2.913,0.926,5.612,2.295,8.436,1.985C85.417,136.046,81.417,136.708,77.904,136.456z M92.294,126.532
		c-1.838,0.212-4.133,1.833-5.458,0.992c-0.888,0.932-1.772,1.867-2.481,2.978c-2.355-0.953-3.95-2.666-5.955-3.97
		c3.207-1.639,9.413-0.693,14.39-0.496c1.616,0.063,3.938-1.119,4.962,0.496C97.595,128.491,93.598,126.637,92.294,126.532z
		 M161.266,157.792c-1.436-4.066-7.279-6.226-6.451-10.917C156.634,150.845,162.152,151.117,161.266,157.792z M157.792,142.906
		c-0.056-1.268-0.91-1.736-1.489-2.48C156.831,138.892,159.759,143.498,157.792,142.906z M154.815,135.959
		c0.392-1.142,1.736,0.854,2.481,0.992c0.37,1.527-1.362,0.954-0.992,2.481c-0.399-0.263-0.806-0.518-1.489-0.496
		C154.417,137.192,157.089,136.801,154.815,135.959z M152.333,133.965c0.711,0.428,1.072,0.692,0.001,0.01
		C152.334,133.972,152.333,133.968,152.333,133.965c-0.633-0.38-1.544-0.89-1.984-0.983
		C150.951,131.488,152.319,133.23,152.333,133.965z M128.02,136.952c-0.69,1.134-1.716-1.552-2.481-1.984
		C126.229,133.833,127.256,136.519,128.02,136.952z M123.058,140.921c0.738,0.42,0.718,1.598,0.993,2.481
		C122.966,143.33,122.985,142.152,123.058,140.921z M107.18,130.005c-0.231-1.754-2.225-1.745-1.985-3.97
		c2.986-0.818,7.206-0.402,10.917-0.496C114.343,128.236,109.887,128.247,107.18,130.005z M205.924,153.327
		c-1.173-0.646-0.957-2.683-1.489-3.97C206.099,149.512,205.826,151.605,205.924,153.327z M207.413,136.456
		c5.083,0.582,11.542,2.296,10.42,7.443c-3.733-0.605-5.193-4.31-7.939-5.955C208.941,137.374,207.287,138.417,207.413,136.456z
		 M210.886,147.372c-3.652-0.648-3.03-5.57-5.458-7.442C208.359,139.053,212.393,143.787,210.886,147.372z M201.954,133.975
		c2.886-0.239,3.388,1.904,3.97,3.969c-2.125,0.307-2.023-1.615-3.97-1.488V133.975z M200.466,145.387
		c-1.17,1.214-0.923-0.741-2.481-0.496c0.05,2.034,0.098,4.067-0.496,5.458c-3.894-3.593,0.472-10.4,2.978-12.405
		C201.505,139.502,200.981,143.736,200.466,145.387z M228.749,138.937v-0.993h0.993v0.993H228.749z M235.2,144.395
		c-1.957,0.303-0.583-2.725-0.992-3.97C235.068,141.218,235.282,142.659,235.2,144.395z M237.185,140.425
		c0.995,0.824,2.307,1.332,2.481,2.978C238,143.249,237.687,141.743,237.185,140.425z M242.643,147.372
		c1.748-3.183,4.357,0.253,5.955,1.489C246.266,150.372,245.599,145.525,242.643,147.372z M256.04,145.883
		c1.011-1.454,2.597,0.673,3.474,0.992c-0.245-1.917,1.89-1.669,3.474-0.496C261.631,148.481,257.187,149.162,256.04,145.883z
		 M259.514,140.921c0.688,0.801,0.419,2.558,1.488,2.978c-0.893,1.02-2.615-1.326-4.466-0.993c0.947-3.002-4.042-2.396-3.969-5.954
		c1.84-0.352,2.129,0.848,3.969,0.496C257.437,138.698,256.589,141.696,259.514,140.921z M254.552,133.975
		c1.082-0.091,1.579,0.405,1.488,1.488C254.958,135.553,254.461,135.057,254.552,133.975z M260.506,137.944
		c-0.416-0.575-0.654-1.33-0.496-2.48c1.517-0.358,1.809,0.507,2.978,0.496C262.895,137.355,262.124,138.074,260.506,137.944z
		 M251.078,122.562c-0.12,0.873-0.854,1.131-1.985,0.992C249.542,122.69,250.203,121.643,251.078,122.562z M252.567,126.532
		c1.611,1.013-1.675,1.255-1.489,2.48c1.972,1.29,4.056-1.552,6.947-0.992c-1.224,2.909,4.551,3.773,5.955,6.947
		c-4.728-1.93-10.793-3.897-17.367-2.481C246.74,128.644,250.383,128.318,252.567,126.532z M248.597,132.982
		c1.788-0.134,3.432-0.124,2.977,1.985C250.405,134.483,248.427,134.806,248.597,132.982z M251.078,140.921
		c-0.385,0.982-3.198,0.268-2.977-0.992C249.662,139.691,250.041,140.636,251.078,140.921z M251.574,144.891
		c1.328,1.185,2.633,2.058,3.474,3.474c-5.354,1.003-8.938-3.927-10.917-7.939h0.993
		C247.877,141.024,249.405,142.957,251.574,144.891z M244.627,127.028c1.432,1.626-1.307,3.303-0.992,5.458h-2.481
		C241.152,129.507,243.195,128.573,244.627,127.028z M243.139,141.417c-1.788-1.189-4.34-1.614-4.962-3.97
		C239.972,138.63,242.723,138.857,243.139,141.417z M237.681,135.959c-0.865-0.459-2.663,0.017-2.481-1.488
		c1.721,0.397,1.907-0.739,3.474-0.496C238.415,134.708,237.939,135.225,237.681,135.959z M233.711,125.54
		c1.076-0.084,0.225,1.76,0.497,2.48c1.583-1.394,2.064-3.89,3.473-5.458c2.125,0.96-2.284,5.736-2.977,7.443v2.977
		c-0.737,0.586-2.217,0.43-1.985,1.985C229.554,133.2,233.712,128.779,233.711,125.54z M233.215,141.914
		c-1.148-1.174-2.651-2.133-2.977,0.496c-1.498-1.211,0.526-3.08,0.992-3.969C232.993,138.498,233.227,140.083,233.215,141.914z
		 M229.245,128.516c1.038,0.451,1.513,1.465,1.489,2.978C229.666,131.073,228.979,130.272,229.245,128.516z M208.901,126.036
		c1.884-0.433,2.33,1.647,1.489,2.48C208.839,128.744,208.803,127.457,208.901,126.036z M225.276,116.608
		c-0.827,2.159-4.312,0.578-4.962-0.496C221.141,113.952,224.625,115.533,225.276,116.608z M257.529,107.18
		c-1.144,0.151-0.551-1.434-1.489-1.489c0.12-0.873,0.854-1.131,1.985-0.992C258.576,106.256,258.257,106.009,257.529,107.18z
		 M380.587,104.203c1.447-0.729,1.447,2.218,0,1.488V104.203z M360.738,127.028c-1.692-0.623-0.723-3.908-3.473-3.474
		c0.361-1.127-0.895-3.871,0.992-3.474C358.002,123.48,360.543,124.081,360.738,127.028z M357.266,109.165
		c-1.894,0.231-0.94-3.876-0.496-4.466C357.896,105.227,356.958,107.818,357.266,109.165z M356.77,103.707
		c-1.076,0.083-0.226-1.76-0.497-2.481C358.061,100.75,357.152,103.367,356.77,103.707z M356.77,98.745
		c-0.712-0.612-0.94-1.707-0.993-2.978C357.622,95.883,357.167,97.527,356.77,98.745z M356.272,94.775
		c-0.188,0.944-0.631-0.317-0.496-0.992C355.966,92.837,356.408,94.099,356.272,94.775z M354.784,85.843h0.992v0.992h-0.992V85.843z
		 M355.28,87.332v1.985c-0.398-0.263-0.806-0.519-1.488-0.497v-0.992C354.191,87.565,354.598,87.31,355.28,87.332z M354.288,106.187
		c0.041,1.861-1.817,1.821-1.984,3.474C351.321,108.806,353.021,106.436,354.288,106.187z M342.875,83.858
		c-5.896,1.051-9.122,4.771-12.404,8.436c-2.944,0.657-5.856,1.234-8.932,0.496c1.659-4.516,5.57-5.521,11.412-7.938
		c3.154-1.307,6.455-3.97,8.932-3.97c4.184,0,7.56,4.952,12.405,3.473C352.815,90.105,345.78,85.315,342.875,83.858z
		 M331.959,109.165c-0.892,2.622-0.896,4.447-0.992,6.947c-3.15-0.819-5.011-2.93-8.436-3.474c1.212-1.27,2.089-2.874,2.978-4.466
		c-0.707-1.939-4.598-0.696-4.466-3.474c3.511,0.037,3.169-3.777,7.442-2.978c-0.481-3.156-5.021-2.255-6.946-3.97
		c1.117-1.875,3.684-0.772,5.458-0.992c2.873-0.355,5.713-1.716,7.443,0c-3.486,2.635-5.463,6.777-6.451,11.909
		C328.403,109.795,331.038,107.68,331.959,109.165z M331.959,116.112c1.443,0.431,0.558,0.742,0.496,1.984
		C331.782,117.943,332.044,116.854,331.959,116.112z M295.24,94.775c-0.153,0.673-1.242,0.411-1.985,0.496
		C293.394,94.121,294.581,94.13,295.24,94.775z M291.767,74.43c0.587-0.571,1.754-0.562,2.978-0.496
		C295.218,75.335,291.517,76.385,291.767,74.43z M294.744,88.82c1.965-1.83,1.215-4.183,0.992-7.442
		c2.07,1.237,1.745,4.871,3.474,6.45c1.069-1.576,0.121-5.171,0.992-6.946c1.174,1.142,1.588,3.043,2.481,4.466
		c1.887,0.729,0.097-2.219,1.984-1.489c0.416,0.576,0.654,1.331,0.496,2.481c-0.586,0.571-1.754,0.562-2.978,0.496v4.962
		c-2.691-0.542-3.299,1.001-5.458,0.992C296.505,91.029,295.054,90.495,294.744,88.82z M293.752,63.514
		c-1.257,0.105-2.05-4.445-0.497-3.97c-0.578-0.91-1.297-1.68-1.984-2.481c2.936-1.599,6.349,0.587,8.436,1.489
		c-0.493,1.843-1.06,1.297-0.496,3.473c-2.634,0.153-3.295-1.667-5.458-1.985C293.01,61.035,293.494,61.879,293.752,63.514z
		 M285.316,61.033c1.672,0.809,2.117,2.844,4.466,2.977c-0.367,1.949-2.268,2.364-4.466,2.481
		C285.642,63.999,284.692,62.486,285.316,61.033z M281.347,57.56c0.24-1.859,0.591-3.67,0.496-6.947
		c3.204,0.435,3.664,3.613,3.474,7.443c-0.944,0.911-0.043-4.233-1.985-3.969C281.24,53.814,283.572,57.966,281.347,57.56z
		 M292.263,66.491c0.303,1.957-2.724,0.583-3.97,0.992C288.403,65.94,290.763,66.645,292.263,66.491z M315.088,71.949
		c-0.504,2.914,2.134,5.392,2.481,8.932c2.645-0.168,3.186-2.438,5.458-2.978c-0.084,1.242,0.763,1.553,1.488,1.985
		c1.165-0.489,2.438-0.87,3.97-0.993c-4.018,2.433-7.069,5.831-7.442,11.909c-2.803,1.002-5.113,2.495-8.932,2.48
		c-0.935-1.216-0.744-3.556-1.489-4.962c-2.979-0.69-6.001,4.343-7.442,0.496c0.564-2.081,3.65-1.642,4.962-2.977
		c-1.132-3.004-1.329-6.941-2.978-9.428c-2.953-0.685-3.723-3.554-6.45-4.466c2.12-0.691,3.745-1.878,5.458-2.977
		C308.196,69.579,311.323,71.083,315.088,71.949z M305.66,67.98c1.044-2.142,10.036-3.043,8.436,1.985
		C310.619,69.968,307.917,69.196,305.66,67.98z M335.929,76.912c1.671-5.134,6.033-1.545,8.932,0
		C343.526,81.65,338.36,78.115,335.929,76.912z M350.814,82.866c-2.562-0.581-5.363-0.922-6.946-2.48
		C345.996,76.849,350.504,79.182,350.814,82.866z M333.447,74.927c-0.481-4.15,2.746-5.392,4.962-2.978
		C338.01,74.032,334.994,75.583,333.447,74.927z M333.943,76.912c1.841,0.971,3.865,1.759,5.459,2.977
		c-3.833,3.635-11.562,5.937-16.375,6.947C324.927,81.788,329.9,79.815,333.943,76.912z M300.202,66.987
		c0.654-1.43,3.146-1.019,4.466-0.496C304.143,68.184,301.156,68.415,300.202,66.987z M301.194,68.972
		c-0.432,0.727-0.742,1.573-1.984,1.489v-1.489H301.194z M299.706,64.01c0.109,1.598-0.878,2.1-0.496,3.97
		c-2.315-0.662-2.511-3.444-3.474-5.458C298.058,62.02,297.385,64.512,299.706,64.01z M298.714,93.286
		c0.715,0.112,0.173,1.481,0.992,1.489c-0.422,1.456-1.249-0.646-2.481,0C297.073,93.63,298.658,94.223,298.714,93.286z
		 M303.18,96.263c3.836-0.4,7.694-1.908,12.901-1.984c1.119-0.017,3.554-0.841,3.969,0.992c-9.598-0.021-13.354,2.223-22.329,1.984
		C299.172,95.346,301.211,96.469,303.18,96.263z M315.088,104.203c1.599,0.221,2.688,0.95,4.466,0.992
		C318.708,106.167,314.796,106.012,315.088,104.203z M311.614,108.172c3.294-0.64,7.714,1.874,9.429,4.466
		C318.494,112.453,315.359,108.792,311.614,108.172z M315.088,117.6c-4.345-2.271-8.948-4.284-11.412-8.436
		C308.153,111.302,312.402,113.669,315.088,117.6z M317.073,97.751c-0.304-1.957,2.724-0.583,3.97-0.992
		C320.932,98.303,318.573,97.598,317.073,97.751z M346.845,55.079c2.736,0.881,3.334,2.468,6.947,1.489
		c-2.084,1.72-5.595,2.014-8.932,2.481C345.188,57.39,346.403,56.622,346.845,55.079z M345.853,75.919
		c-8.805-4.459-15.153-11.259-21.337-18.359c-0.37-0.426-1.2-0.477-0.992-1.489c9.592-0.66,11.448,6.416,16.375,10.42
		C339.777,71.74,343.558,73.087,345.853,75.919z M322.531,52.102c6.54-2.042,8.681,4.88,15.382,2.481
		c1.816,0.665,2.687,2.275,3.474,3.97c-6.957-0.113-13.064-5.386-19.848-2.481C320.137,54.955,322.354,53.281,322.531,52.102z
		 M319.058,57.063c2.554-0.073,3.981,0.981,5.458,1.985c-1.261,0.929-3.535,2.796-5.458,1.488c-1.384,1.428-2.207,3.417-3.474,4.962
		c-2.768-0.402-4.388,1.108-6.45,0C311.918,62.163,316.182,60.307,319.058,57.063z M314.592,38.704
		c2.558,4.451,1.249,11.573,1.985,15.878c-4.673-8.229-9.532-16.271-11.413-27.291C310.307,29.096,307.74,38.609,314.592,38.704z
		 M304.668,35.23c0.453,0.069,1.31,0.197,1.488,0.496c1.202,2.006,3.644,8.792,5.458,13.397c0.992,2.516,3.333,4.583,3.474,5.458
		c1,6.208-4.509,7.368-8.436,10.917c-2.35,0.2-3.414-0.886-5.954-0.497c-0.392-1.27-1.316-3.5-0.496-4.466
		c1.87-0.381,2.372,0.605,3.97,0.497c-2.275-3.845-1.98-10.259-6.947-11.413c0.274-1.38,1.919-1.39,2.978-1.985
		c-0.922-2.386-3.155-3.46-4.466-5.458C296.883,38.031,301.264,37.119,304.668,35.23z M264.972,29.276
		c3.45-1.346,4.464-5.13,9.428-4.962c-1.248,2.06-3.541,3.074-5.458,4.466c2.446,1.415,4.816-1.011,7.443,0.496
		c0.67,0.385,0.852,1.526,1.488,1.985c4.959,3.574,10.789,6.122,17.367,7.939c-0.22,2.923-2.269,0.338-3.474,0
		c-4.88-0.279-11.042-2.173-15.382,0c5.507-0.317,8.384,0.55,14.39,0.496c2.434,2.363,5.476,4.117,7.443,6.947
		c0.373,1.862-1.896,1.082-1.985,2.481c-0.18,2.496,3.613,1.018,2.978,3.97c-1.852-0.96-3.662-1.961-6.451-1.985
		c-0.92-1.299,1.292-0.003,1.985-0.496c0.97-0.689,0.216-2.878,1.488-2.977c-0.703-1.347-4.008-1.958-5.458-0.993
		c-0.203,1.196,0.906,1.079,0.496,2.481c-1.799,0.351-2.124,2.176-4.962,1.489c0.91,2.233,5.094,1.191,6.946,2.481
		c-0.487,1.594-1.412,1.208,0.497,1.985c-1.217,0.26-2.428,0.488-4.466,0.992c0.158,1.165,0.783,1.863,0.496,3.474
		c-1.54-0.791-2.736-4.521-2.978-4.962c1.354-0.361,0.999,0.986,1.984,0.992c-2.726-5.048-9.447-6.1-12.404-10.917
		c1.251-0.898,2.599-1.701,4.962-1.488c-3.38-2.55-5.484,1.84-8.932,0.496c-0.939,1.621,3.452,2.156,3.474,4.466
		c-2.506-2.279-5.887-0.953-5.955-5.955c2.343,1.101,5.138-0.078,5.955-1.985c-0.86-0.827-2.327,1.949-4.466,1.489
		C270.29,36.528,264.796,35.737,264.972,29.276z M275.392,63.018c-0.521,0.809-2.244-1.361-3.473-1.488v-3.97
		c2.185,1.289,5.255,1.692,5.954,4.466C276.831,61.868,273.575,61.95,275.392,63.018z M271.919,56.071v-5.954
		c5.112,1.833,6.582,7.312,9.428,11.413C278.142,61.75,276.028,56.598,271.919,56.071z M276.881,49.124
		c1.646-2.588,4.207,1.03,3.97,3.474C279.159,51.807,278.389,50.097,276.881,49.124z M268.941,49.124
		c1.306,4.879,1.242,10.587,0.496,15.878c-1.443-0.431-0.558-0.743-0.496-1.985c-2.324,2.142-4.788,4.144-7.939,5.458
		c2.33-3.19,6.162-4.399,5.458-9.428c0.746-0.743,2.09-0.888,2.481-1.985c-3.587,1.375-5.855,4.069-8.436,6.451
		c-0.323-3.307,5.503-4.748,6.947-7.939c-0.893-1.129-3.269,2.345-4.466,0.993c0.462-1.357,1.522-2.116,1.984-3.474
		c-2.109,1.529-3.143,4.135-5.458,5.458c-0.017-2.67,3.888-5.7,4.962-8.932c1.402,0.41,1.285-0.7,2.481-0.497
		c-0.065,1.223-0.075,2.391,0.496,2.978C268.522,51.682,268.254,49.925,268.941,49.124z M268.445,69.965
		c-0.11,2.371-2.834,2.128-3.474,3.969C264.141,72.584,266.836,70.522,268.445,69.965z M262.491,77.904
		c-0.322-1.811,0.334-2.643,0.992-3.474C264.333,74.837,263.803,78.019,262.491,77.904z M255.048,68.972
		c-4.311-0.341-7.454,0.486-11.413,0.496V67.98c4.153-0.265,8.187-2.416,10.917-5.458C255.693,63.696,254.729,66.975,255.048,68.972
		z M239.666,62.521c1.546-0.935,2.832-2.13,4.466-2.977c0.44,2.599-3.526,5.068-3.473,8.932
		C238.926,67.654,241.044,64.448,239.666,62.521z M251.574,62.521c-0.313-2.308,2.143-6.12,2.978-8.932
		c1.978-0.051-0.558,2.757-0.993,3.474C254.023,60.009,252.204,60.67,251.574,62.521z M242.146,59.544
		c-1.065-1.313,0.521-3.152,0.993-4.466c3.64,0.498,4.795-1.49,8.435-0.992C249.414,56.887,246.375,58.811,242.146,59.544z
		 M247.108,61.033c1.516,0.917-0.573,2.357,0,3.969c0.907-0.747,1.167-2.141,1.985-2.977c0.071,0.293,0.225,3.532,1.489,0.992
		c1.016,3.67-6.754,2.834-8.436,5.458C241.534,65.704,247.304,65.04,247.108,61.033z M253.063,62.025
		c0.657-1.328,1.065-2.905,3.473-2.481c3.06-0.58,1.02-6.258,3.97-6.947c-1.695,2.605-1.601,7-3.473,9.428
		C255.455,61.267,254.85,61.851,253.063,62.025z M256.536,52.598c2.563-1.407,4.029-3.91,7.443-4.466
		C261.767,49.889,259.789,51.881,256.536,52.598z M248.101,49.621c-0.849-2.128-2.227-3.728-3.97-4.962
		c0.579-1.902,2.296-2.666,2.481-4.962c2.202-1.067,6.026-2.167,8.932-0.992c1.742,0.088,1.632-1.676,2.977-1.985
		c4.181,0.781,8.544,1.379,9.428,5.458c-3.452-1.343-7.686-6.564-12.405-1.985c1.02,1.131,4.285,0.016,5.458,0.993
		c-1.767,2.353-7.644,1.783-8.931-0.496c-1.662,0.157-3.128,0.511-3.97,1.488c0.704,2.152,2.09-0.842,4.466,0
		c3.368,3.74,10.484-1.448,14.39,1.489c-0.354,1.631-1.883,2.087-2.978,2.977c-2.721-0.091-3.588-2.035-6.451-1.985
		c1.142,1.173,2.783,1.849,4.465,2.481c-3.107,6.101-8.457-1.326-12.901-1.488c3.132,1.168,5.074,3.527,8.436,4.466
		c-1.249,3.382-5.878,3.384-10.42,3.473c1.101-1.38,2.764-2.199,3.97-3.473c-2.892,0.587-7.914,3.329-10.917,5.458
		C241.113,51.895,245.977,52.127,248.101,49.621z M235.2,52.598c2.351,0.366,3.412-0.558,5.458-0.496
		c-0.008,1.812-1.411,2.228-1.985,3.473c2.39,3.854-1.206,8.151-3.97,9.924C234.722,61.052,235.538,57.401,235.2,52.598z
		 M191.038,82.37c-0.025-3.69-0.506-8.925,1.489-11.909c-2.562-2.566-5.025-5.229-8.932-6.451c0.014-0.482,0.607-0.385,0.992-0.496
		c9.46,3.441,17.246,8.556,27.292,11.413c-2.125,2.517-6.347,3.428-9.924,4.466C198.337,80.442,194.399,81.233,191.038,82.37z
		 M195.007,83.362c-0.422,0.736-1.249,1.067-2.481,0.992C192.948,83.619,193.775,83.288,195.007,83.362z M189.053,82.866
		c-0.304,1.351-1.363,1.945-2.977,1.985v-1.985C186.71,82.187,188.418,82.187,189.053,82.866z M183.595,81.377
		c1.037-0.21,1.314,0.34,1.985,0.496c-0.209,0.949-0.18,2.136-1.489,1.984C184.501,82.456,183.392,82.573,183.595,81.377z
		 M184.091,85.843c-0.61-0.217-1.019-0.635-0.992-1.489C183.709,84.571,184.118,84.99,184.091,85.843z M183.099,74.927
		c0.873,0.12,1.131,0.854,0.992,1.985C183.218,76.792,182.96,76.058,183.099,74.927z M217.833,77.904
		c-1.458,2.678-3.981,4.288-6.947,5.458c-2.253,3.205-6.146,4.771-11.909,4.466c-0.574-1.245-1.977-1.661-1.985-3.474
		C202.972,81.237,210.218,79.386,217.833,77.904z M219.321,78.896c4.064,1.395,11.323-0.406,12.901,3.474
		c-10.232,1.512-15.537,7.95-28.284,6.947C209.938,86.714,214.538,82.714,219.321,78.896z M231.727,83.362
		c1.125,0.529,1.803,1.505,1.984,2.978c-8.811,0.633-16.075,5.405-24.81,4.466C217.321,89.136,223.882,85.607,231.727,83.362z
		 M231.23,79.889c-3.45-0.52-6.626-1.313-9.924-1.985c0.646-3.07,5.228-2.18,7.939-2.977c2.682-0.789,6.133-3.467,10.42-1.985
		C238.99,77.394,233.887,77.418,231.23,79.889z M239.169,69.468c-1.545,0.605-3.146,1.155-5.458,0.993
		c0.518-3.122,2.54-4.738,4.466-6.451C239.976,64.361,238.861,67.626,239.169,69.468z M230.734,53.094
		c1.223-0.065,2.391-0.075,2.977,0.496c0.294,2.551,2.106,10.628-1.488,10.917c-1.075-0.803-2.426-4.957-2.481-7.443
		C229.708,55.527,230.163,54.184,230.734,53.094z M228.749,41.681c-1.849,0.525-1.602-1.045-2.481-1.489
		C226.93,38.932,229.511,39.879,228.749,41.681z M229.245,52.598c-1.242,1.542-3.545,4.206-5.954,2.977
		C223.858,53.358,227.037,51.57,229.245,52.598z M222.795,58.552c-0.674-0.154-0.412-1.243-0.497-1.985
		C224.324,56.416,222.563,57.603,222.795,58.552z M216.84,55.079c2.488-0.158,2.093-3.199,4.962-2.977
		c1.415,3.514-3.483,4.703-4.962,6.947c-6.406-4.014-17.654-3.187-20.84-10.42c3.614-0.307,5.751,0.865,9.428,0.496
		c2.343-1.626,3.506-4.433,8.436-3.473c0.015,2.589-0.549,8.645-4.466,8.932C210.898,55.728,214.515,54.757,216.84,55.079z
		 M206.42,36.223c-3.61,0.193-4.027,3.581-7.939,3.473c0.586-2.887,2.056-4.891,4.466-5.955c-2.397-0.911-3.49-3.125-2.978-6.947
		c0.89,1.26,1.727,2.574,1.985,4.466c1.112-1.204,1.279-3.352,2.978-3.969c-0.095-0.402-0.498-0.495-0.497-0.993
		c-1.272,0.05-0.797,1.849-1.488,2.481c-1.346-0.639-1.504-2.466-1.489-4.466c0.399,0.263,0.806,0.518,1.489,0.496
		c0.288-1.611-0.338-2.308-0.497-3.473c0.725-0.433,1.922-0.394,1.489-1.985c0.945,0.213,1.247,1.069,2.481,0.992
		c0.086-1.243-1.111-1.204-1.488-1.984c0.745-1.728,2.478-0.988,1.488-3.474c0.61,0.217,1.019,0.635,0.993,1.489
		c1.771-1.042,0.786-4.837,2.977-5.458c1.266,6.268-1.336,9.345-3.97,12.901c2.382-0.43,3.459-2.165,6.451-1.985
		c3.879,6.458-2.154,10.762-5.955,13.894c0.37,1.119,2.783,0.194,3.97,0.497c-0.444,1.923-2.473,1.869-4.466,2.977
		c-3.17,1.763-4.951,5.059-9.428,3.97C199.15,39.87,204.536,39.797,206.42,36.223z M194.015,18.36
		c3.774,0.918,2.052,4.469,2.977,8.435c-2.828,2.961-4.146,7.433-4.962,12.405C186.529,33.834,193.307,25.093,194.015,18.36z
		 M190.045,15.878c3.095,2.42-0.13,11.679-0.993,15.879c-3.272-3.188-1.627-11.008-1.488-16.375c1.25,0.279,0.1,6.249,0,8.436
		C189.833,22.613,189.491,18.798,190.045,15.878z M185.083,7.939c1.627,1.019,1.895,3.398,2.977,4.962
		c-0.447,1.372-1.303,2.336-2.481,2.977C187.491,11.511,182.111,11.839,185.083,7.939z M180.618,9.924
		c1.854-0.531,1.414,1.232,2.977,0.992c-0.569,7.517,1.257,12.637,1.985,18.856c-2.638-0.521-3.199-2.88-3.97-4.962
		c-0.819-2.212-2.941-3.008-2.977-5.954C178.598,15.999,182.024,13.59,180.618,9.924z M178.633,25.803
		c2.945,2.844,7.82,3.758,8.436,8.932c-4.078-1.215-6.363-4.223-9.924-5.955C177.152,27.299,178.434,27.093,178.633,25.803z
		 M178.137,39.2c1.471-0.721-0.654-1.936,0-3.474c1.395,0.756,0.761,3.54,2.481,3.97c1.02-0.893-1.326-2.615-0.993-4.466
		c1.886,1.753,2.071,5.207,2.978,7.939c-2.269-0.544-3.619-2.005-5.458-2.978c-0.302-4.164-2.425-6.506-3.473-9.924
		C175.728,32.677,176.778,36.093,178.137,39.2z M180.618,43.666c-1.798,2.227-6.003,2.938-8.436,4.962
		C173.201,47.158,176.48,43.669,180.618,43.666z M162.754,32.253c1.234-0.077,1.536,0.779,2.481,0.992
		C164.846,34.385,162.164,33.729,162.754,32.253z M165.731,26.795c-0.835,1.586,2.057,3.052,1.489,5.955
		c-3.34-1.622-6.651-3.273-9.924-4.962c0.251-1.723,2.834-0.753,3.474,0c1.403-1.321,4.584-2.114,6.947-0.993
		c1.182-0.306,0.815-2.162,2.977-1.488c-1.058,5.246,4.916,7.616,4.962,13.397C169.317,37.765,169.407,30.397,165.731,26.795z
		 M173.671,44.162c-0.432,0.727-0.743,1.573-1.985,1.489C172.117,44.924,172.429,44.078,173.671,44.162z M176.648,50.613
		c1.182,0.497,3.313,2.608,4.962,0.992c3.976,2.401,9.259,2.558,12.901,0v-0.992c-4.785-3.65-12.466-4.404-11.909-13.397
		c1.248,0.406,0.692,2.616,1.488,3.474c0.844,0.182,0.937-0.387,0.993-0.993c1.112,0.707,0.947,2.692,1.985,3.474
		c0.481-0.842,1.371-1.275,2.977-0.993c0.498,1.653,0.892,3.409,1.489,4.962c0.673-0.153,0.412-1.242,0.496-1.984
		c1.095,0.394,0.645,2.332,1.985,2.481c-0.236-5.296-0.223-12.598,1.488-17.367c-0.234,3.774,0.755,12.057-0.496,15.382
		c6.747,0.624,10.479-6.059,16.871-7.443c-1.832,3.296-4.003,6.252-5.955,9.428c-4.437,1.64-8.48-1.305-11.413,0
		c-0.961,6.562,4.158,6.102,8.932,7.443c5.456,1.532,10.374,4.273,12.901,6.451c-0.061,1.263-0.722,1.924-1.985,1.985
		c2.208,6.018,13.203,9.335,18.359,3.969c1.478,1.035-1.248,2.021-0.992,3.474c-4.687,1.518-9.219,2.011-13.397,2.977
		c-1.374,0.318-2.39,1.098-3.97,0.993c-2.433-0.163-5.642-2.341-8.436-3.474c-5.479-2.221-10.549-4.153-15.878-6.947
		c-2.407-1.262-5.036-4.082-7.939-2.481c-0.931,1.219-0.901,3.399-1.488,4.962c-4.382-2.136-7.871,3.614-11.413,5.458
		c3.264-3.683,6.886-7.008,11.909-8.932c-0.102-1.553,0.334-3.643-0.496-4.466c-4.043-2.407-8.361-4.54-12.405-6.947
		C169.061,50.528,174.862,52.545,176.648,50.613z M179.625,81.377V69.468c0.577-0.081,0.883,0.11,0.993,0.497
		c0.049,2.034,0.098,4.067-0.497,5.458c0,1.819,0,3.639,0,5.458C180.511,83.097,179.36,84.248,179.625,81.377z M180.618,89.317
		c0.323-1.399,0.576,1.143,0.496,1.488C180.884,91.801,180.182,91.206,180.618,89.317z M174.663,86.339
		c-0.767,1.517-0.437-2.152-0.496-2.978C174.934,81.845,174.604,85.514,174.663,86.339z M173.174,89.317
		c0.98,0.343,1.323,1.323,1.489,2.48c-0.986,0.007-0.631,1.354-1.985,0.992C171.607,91.727,172.424,90.017,173.174,89.317z
		 M171.19,88.82c0.317-2.66,0.393-5.562,0.992-7.938C172.709,82.417,173.808,88.78,171.19,88.82z M167.22,48.132
		c0.12-0.873,0.854-1.131,1.985-0.993C169.085,48.012,168.351,48.271,167.22,48.132z M166.228,95.767
		c0.323-1.399,0.576,1.143,0.497,1.488C166.494,98.252,165.792,97.656,166.228,95.767z M163.747,92.293
		c0.175,3.795,1.823,6.116,2.978,8.932C163.669,102.183,162.481,95.772,163.747,92.293z M164.243,85.843
		c1.104,0.208,0.388,2.633,0,2.977C163.139,88.612,163.854,86.187,164.243,85.843z M165.731,77.408
		c-3.836,4.434-6.323,10.217-9.428,15.382C157.593,87.792,161.255,80.873,165.731,77.408z M162.258,96.263
		c-1.01-0.479-1.072-1.905-0.993-3.474C162.685,92.859,162.173,94.86,162.258,96.263z M190.045,105.195
		c-3.181,0.489-5.075,1.923-9.428,2.481c-11.35,1.455-22.036,5.5-34.734,6.45c1.47-3.492,5.723-4.201,8.436-6.45
		c0.688,0.305,0.075,1.91,0.993,1.984c2.851-2.111,4.786-5.138,8.435-6.45c2.263-0.609,1.568,1.74,2.978,1.984
		c3.576-2.556,5.353-10.148,10.42-9.924c3.524,0.156,3.274,3.722,6.451,5.458c0.959-3.838,1.78-7.813,2.977-11.412
		c2.675-1.592,6.41-3.483,9.924-1.489c0.803,2.836,3.044,4.233,6.947,3.97c3.392,3.224,6.678,6.554,7.443,12.405
		C203.53,105.649,196.811,104.154,190.045,105.195z M251.078,100.233c-0.224-2.87,0.647-4.646,2.977-4.962
		C253.98,97.842,253.847,100.355,251.078,100.233z M259.018,99.241v-3.474c-1.228,0.427,0.146,3.454-0.993,3.97h-2.481
		c-1.435-4.394,1.225-5.521,1.985-8.932c-1.523-0.515-2.658,3.615-5.458,3.474c-0.593-1.481-0.137-1.688,0.496-2.978
		c3.284-0.852,3.349-4.921,7.443-4.962c-2.134,4.608,0.38,7.455,1.984,10.916c1.594,0.436,1.029-1.286,1.985-1.488
		c1.51,0.31,2.537,1.103,2.48,2.978C264.761,99.526,260.053,99.385,259.018,99.241z M261.002,85.347
		c-1.516,0.358-1.808-0.508-2.977-0.496c-3.906,4.838-8.948,7.105-8.436,15.382c-11.441,1.46-24.636,3.812-36.223,3.474
		c-1.69-1.573-2.298-3.934-3.473-5.955c-1.131-1.945-2.368-3.57-3.474-5.458c3.083-1.148,6.025-0.053,9.428-0.496
		c5.401-0.704,12.881-4.953,20.345-4.466c4.048,0.265,7.314,2.087,11.413,3.97c1.076,0.084,0.225-1.76,0.496-2.481
		c4.274-1.019,5.439-5.146,7.443-8.435c-0.37-1.12-2.783-0.194-3.97-0.497c-0.959-1.853-1.185-4.439-0.992-7.443
		c-0.79-0.925-3.933,2.415-4.962,0c-0.127-2.93,6.472,0.489,8.435-1.489c1.012,0.146,0.973,1.343,1.985,1.489
		c1.395-0.59,2.853-1.117,4.466-1.489c0.719,2.755,0.378,6.569,1.488,8.932c1.99-0.461,3.199-2.732,4.466,0
		C264.623,81.69,260.687,81.392,261.002,85.347z M268.941,75.919c1.112,0.827-0.91,2.695-0.992,3.97
		C266.329,78.555,268.781,77.115,268.941,75.919z M268.941,98.249c0.073-1.085,1.25-1.065,2.481-0.993
		C271.35,98.34,270.172,98.321,268.941,98.249z M271.919,74.927c-0.765-2.961-2.018-9.307,0-11.909
		c1.645,0.175,2.152,1.486,2.977,2.481c0.394,1.716-0.551,2.095-0.992,2.977c1.107,1.705,2.83,2.793,3.97,4.466
		c-2.6,0.934-2.881-4.719-5.954-4.962C272.162,70.615,274.68,73.445,271.919,74.927z M273.407,84.851
		c-1.109-0.214-0.201-2.446-0.496-3.474C274.354,81.386,274.084,84.181,273.407,84.851z M275.392,80.881
		c1.369-1.72,0.908-3.969,1.489-5.458c1.956-0.137,1.518,2.122,3.474,1.985c1.343-1.799,2.146-4.139,1.984-7.443
		c4.425-0.675,13.489-3.986,13.894,2.481c-4.051,0.263-7.418,3.25-11.909,1.488c-0.844,2.133-2.129,3.826-1.984,6.947
		C279.521,80.232,278.305,79.814,275.392,80.881z M288.789,75.423c-0.885,1.596-2.445,2.516-4.466,2.977v-2.481
		C285.718,75.23,287.177,74.607,288.789,75.423z M283.331,79.889c1.847-1.718,6.47-3,9.428-1.985
		c-0.024,2.953-4.605,1.348-5.954,2.978c0.849,1.134,2.796-0.81,4.466-0.496c-0.742,2.896-4.38,2.897-6.45,4.466
		c-0.014-0.483-0.607-0.386-0.993-0.497C282.996,83.532,283.433,81.441,283.331,79.889z M290.278,83.362
		c-0.51,1.807-1.736,2.896-1.985,4.962c-1.691,0.038-1.469-1.838-1.488-3.473C288.234,84.626,288.356,83.094,290.278,83.362z
		 M284.82,94.279c0.457-2.277-1.242-2.397-0.993-4.466c1.406,0.083,2.068,0.909,3.474,0.992
		C287.207,92.697,286.597,94.07,284.82,94.279z M286.805,95.767c-0.98-1.825,2.192-3.748,1.984-6.45
		c1.637,0.018,1.897,1.411,1.985,2.977c1.65-2.169-0.946-4.329-0.992-6.45c0.67-0.487,0.991-1.324,1.488-1.985
		c2.107,2.028,3.29,4.98,2.978,9.428C292.071,94.417,289.602,95.256,286.805,95.767z M261.498,107.676
		c0.386-1.104,1.043-1.936,0.993-3.474C264.614,104.297,262.735,107.762,261.498,107.676z M269.934,104.699
		c-2.419,0.497-0.915-2.641,0-0.992V104.699z M271.919,106.683c0.352-1.84-0.848-2.129-0.496-3.969
		c6.72-1.22,13.813-2.064,21.336-2.481c-3.147,4.26-10.757,3.534-15.382,2.978c-1.18,0.986-1.787,2.841-3.97,1.488
		C272.199,105.198,274.38,106.893,271.919,106.683z M278.865,107.676c-0.711-0.777-2.586-0.391-2.48-1.985
		C277.593,105.971,278.937,106.116,278.865,107.676z M284.323,110.157c-2.459-0.292-2.799,4.125-3.969,3.474
		c-2.47-0.266,0.694-1.851,0-3.474c-2.111-0.096-2.887,0.788-1.985,2.481c-2.9,0.254-3.562-1.73-5.954-1.985
		c1.705-2.079,4.343-0.688,6.45-0.992c4.097-0.593,7.437-2.409,10.917-3.97c-2.586,8.827-8.996,13.829-17.863,16.375
		C275.107,117.15,282.343,116.281,284.323,110.157z M280.851,136.952c-1.132-0.688-0.186-3.454-0.496-4.962
		C281.683,133.59,280.724,134.529,280.851,136.952z M283.331,135.959c-2.301-0.11-1.86-5.265-1.488-7.939
		c0.204-1.466,1.04-2.712,0.992-3.474c0.802-0.14,0.854,0.47,1.488,0.496C283.986,128.675,284.143,132.8,283.331,135.959z
		 M275.392,139.929c-1.538-0.116-1.548-1.76-1.984-2.978c0.182-1.472,0.86-2.447,1.984-2.977c-0.208-1.115-2.633-0.014-2.977-0.993
		c0.893-2.911,3.696-3.911,6.45-4.962c0.355-0.805-2.34-0.805-1.984,0c-1.213-1.245,2.537-1.738,2.977-2.978
		c-1.335-0.816-3.948,1.328-5.458,1.985c-1.353-0.798-2.218-2.082-4.962-1.488c1.49-2.07,4.283-2.001,6.451-2.978
		c3.312-1.491,5.822-3.998,8.932-5.458C282.004,125.039,278.758,132.543,275.392,139.929z M286.805,133.975
		c1.375-6.908-4.072-10.91-0.992-16.375C289.812,120.251,292.696,131.184,286.805,133.975z M290.774,130.005
		c1.212-8.753-6.024-14.74-0.992-21.337c0.576-0.081,0.883,0.109,0.992,0.496c1.379,6.56,3.2,12.679,3.474,20.345
		C292.682,129.266,292.495,130.403,290.774,130.005z M299.706,140.425c-1.113-1.368-2.963-2-3.97-3.474
		c-0.073-5.815-0.967-8.009-0.496-13.894c1.697,0.287,1.55,2.42,2.978,2.978C298.259,131.333,301.589,134.698,299.706,140.425z
		 M307.646,140.921c-3.889-0.746-2.854,3.431-5.459,3.97c-1.13-6.922-1.199-14.865,0-21.833c1.31,1.999-0.248,6.864,0.993,8.932
		c0.504-0.322,0.513-1.141,1.488-0.992v2.978c2.354,1.614,2.769,5.17,4.466,7.442c0.659-0.645,1.847-0.654,1.984,0.496
		c1.86-0.392,0.031-1.735,0.993-2.48c1.614,0.866,1.572,3.39,2.48,4.962C312.372,145.114,309.737,141.981,307.646,140.921z
		 M308.142,133.478c-0.832-0.718-1.454-2.953-0.496-3.969C308.765,129.878,307.839,132.292,308.142,133.478z M325.509,144.395
		c-1.096,3.064-7.795,0.666-6.947-2.978C321.38,141.908,323.019,143.577,325.509,144.395z M322.531,140.921
		c-2.669,1.332-4.331-2.605-6.45-3.474c-1.648,2.75,3.214,5.575,1.488,8.436c-1.28,0.354-0.653-0.869-0.992-1.488
		c-1.18-2.152-4.392-4.823-2.481-9.428C318.666,135.194,319.407,139.249,322.531,140.921z M313.104,133.975
		c-1.257-1.555-2.596-3.028-3.97-4.466c3.371-0.388,7.742,2.508,10.42,4.466C318.008,135.215,315.284,132.286,313.104,133.975z
		 M318.562,130.005c-2.072-0.439-7.632-3.23-8.932-1.985c-1.209,1.158-4.672-3.502-5.458-5.954
		c3.638,2.316,6.786,5.123,12.405,5.458C317.075,128.514,318.771,128.307,318.562,130.005z M299.706,111.646
		c0.791,4.669,7.562,7.651,11.412,10.916c-3.14,1.862-6.121-3.934-8.435-1.488c-3.17-6.59-7.084-12.435-10.917-18.359
		c6.981,3.935,11.383,10.449,17.863,14.886c3.139-0.169,6.959,1.938,6.947,4.466C309.804,119.742,304.479,115.969,299.706,111.646z
		 M321.043,123.058c0.884-1.955,3.906,0.805,5.954-0.496c1.712-0.604,2.623-2.009,3.97-2.978c1.636,0.019,1.896,1.411,1.984,2.978
		C330.101,124.426,323.955,125.398,321.043,123.058z M336.425,125.042c-0.839-0.896,0.41-2.505,0.496-3.969
		c1.425,1.88,2.738-1.292,4.466-1.985C341.281,120.648,338.979,124.281,336.425,125.042z M340.395,107.676
		c-1.361,3.85-3.319,7.539-4.466,12.404c-0.311,1.317,0.205,3.383-1.488,3.97c0.3-6.977,2.607-11.947,5.458-16.374
		c-0.891-0.063-1.047,0.607-1.985,0.496c0.21-1.61,2.063-1.576,2.481-2.978c-2.839,0.635-4.379,2.567-6.451,3.97
		c-0.721-1.264-2.455-1.514-3.969-1.984c0.153-5.471,3.539-7.708,6.45-10.421c-1.194-1.452-3.933-1.359-4.466-3.474
		c0.294-2.824,1.979-3.423,4.466-4.962c2.185-1.351,2.556-3.013,5.954-2.977c3.432,0.036,5.505,3.785,9.428,2.977
		c-1.818,2.151-6.811,1.128-8.435,3.474c1.396,0.389,4.679-1.594,7.442-1.488c0.653,2.43-2.199,3.045-3.474,3.97
		c-4.115,2.987-9.042,5.823-12.404,9.924c2.287,0.283,3.217-2.6,4.962-3.97c2.879-2.261,6.501-4.063,9.428-5.954
		C346.235,98.63,344.421,104.259,340.395,107.676z M349.822,100.729c1.084-0.035-1.715,4.09-3.474,4.466
		c-0.19,1.629-1.451,2.188-1.984,3.474c-0.182-0.542-2.173-2.076-1.985,0c-1.201-1.558,1.468-3.476,2.481-4.466
		c1.058-3.739,3.791-5.803,5.458-8.932c0.459,2.453-3.448,4.814-3.474,8.436C348.68,103.556,348.706,101.597,349.822,100.729z
		 M341.883,117.6c0.925-2.203,3.178-4.649,6.451-2.978c1.085-1.23,1.499-3.132,2.48-4.466c1.155,2-1.617,4.323-1.984,6.451
		C346.24,114.071,344.05,115.921,341.883,117.6z M349.326,137.448c-2.914-2.1-0.452-8.505-2.978-9.924
		c1.577-3.075,0.531-6.437,1.985-8.932c0.801-0.14,0.854,0.469,1.488,0.496c-1.114,4.935-0.437,8.915,0,13.894
		c1.012-0.312,0.14-2.507,1.984-1.984C351.37,133.538,349.702,134.847,349.326,137.448z M354.288,142.906
		c-1.561-0.589-0.927-3.373-3.97-2.48c-0.21-1.037,0.34-1.314,0.496-1.984c0.464,0.363,0.752,0.901,0.992,1.488
		c2.374-0.92-1.031-4.891,2.481-4.962C353.369,137.562,354.084,140.106,354.288,142.906z M353.296,127.524
		c-1.234-0.074-0.146-1.681,0-1.984C354.782,125.866,352.821,126.6,353.296,127.524z M352.8,118.592
		c-1.311-1.505,1.818-2.79,1.984-4.466C355.948,115.485,353.241,117.193,352.8,118.592z M355.28,141.914
		c0.055-2.151-0.716-3.965,0-5.954C355.441,137.937,358.134,141.301,355.28,141.914z M389.519,121.074
		c-2.784-0.359-3.043-3.243-6.947-2.481c-1.088-2.616-2.846-2.397-5.458-1.488c-2.507-2.124-3.383-5.88-5.954-7.939
		c-0.891-0.063-1.047,0.607-1.985,0.496c-0.028,3.172,1.204,5.082,2.978,6.451c0.38,5.016,1.178,8.734,0.496,12.9
		c-0.91-0.578-1.68-1.297-2.48-1.984c-2.148,2.813-2.066,7.858-4.963,9.924c-1.012-0.146-0.973-1.343-1.984-1.488
		c-2.461,1.013-2.845,4.103-5.954,4.466c-0.139-1.297-0.168-2.483,1.488-1.985c0.062-2.229-0.899-6.024-2.481-4.962
		c-1.213-1.569,0.177-4.767,0.497-6.45c0.126,2.92,0.575,6.545,2.48,8.932c0.664-1.156,0.55-3.089,2.481-2.978
		c-0.301-1.188-0.714-2.264-0.496-3.97c1.269,0.881,1.112,3.188,1.984,4.466c1.892-0.258,1.2-3.112,2.978-0.992
		c1.838-6.309-2.145-11.085-3.97-15.382c-1.963,0.529,0.126,1.505,0,2.977c-1.574-0.576-1.223-3.077-2.978-3.473
		c-0.673,0.153-0.411,1.242-0.496,1.984c-2.17-2.296-0.437-8.495-0.992-12.405c4.844,1.441,5.094,7.477,8.932,9.924
		c-0.288-2.649-3.268-4.83-2.481-6.946c1.346-1.354,1.235,1.283,2.978,0.992c-0.746-3.248-1.849-5.675-3.474-7.939
		c-1.799-2.507-5.018-3.718-5.954-6.946c4.791,1.99,5.971,7.592,10.42,9.924c1.353-0.457-0.693-1.551,0-2.978
		c1.427,0.89,2.462,2.169,2.978,3.97c3.216-0.829,1.832-3.179,2.48-6.45c0.739-0.545,0.565,4.045,0.992,5.458
		c5.619,3.147,8.829,8.704,12.405,13.894c0.442-1.053-0.171-2.661,1.489-3.474c-0.543-2.104-3.415-1.878-4.466-3.473
		c-0.183-2.081,1.616-0.354,2.48-0.497c-0.041-2.77-2.478-3.146-3.97-4.466c0.547-1.946,3.33,0.008,4.962,0
		C388.355,112.262,389.925,115.084,389.519,121.074z M388.526,106.683c-0.596-2.382-3.518-2.437-2.978-5.954
		C389.057,100.418,391.497,104.902,388.526,106.683z M391.999,126.036c-1.669-1.071,0.652-2.279,0.496-3.474
		C394.913,122.854,392.305,125.307,391.999,126.036z M401.427,124.546c-0.188,0.945-0.631-0.316-0.496-0.992
		C401.12,122.61,401.562,123.872,401.427,124.546z M401.924,121.074c-0.189,0.944-0.632-0.317-0.497-0.993
		C401.616,119.136,402.059,120.398,401.924,121.074z M402.916,130.005v-1.489C404.363,127.787,404.363,130.735,402.916,130.005z
		 M410.358,132.486c-4.364-0.241-6.008-4.81-4.962-8.932c0.979,2.329,1.669,4.948,3.97,5.955c1.109-0.214,0.201-2.446,0.496-3.474
		C412.006,127.153,411.317,130.667,410.358,132.486z M405.894,118.592c0.659,0.374,1.244,4.851-0.497,4.466
		C405.132,121.139,406.282,120.636,405.894,118.592z M409.862,123.058c0.845-0.183,0.937,0.387,0.993,0.992
		c-0.423-0.091-0.469,0.193-0.497,0.496C409.777,124.466,409.94,123.642,409.862,123.058z M412.344,130.998
		c-0.41-1.402,0.699-1.285,0.496-2.481C413.92,128.957,414.355,131.287,412.344,130.998z M422.268,134.471
		c-3.628-2.988-5.852-7.381-8.932-10.917c1.765-0.264,5.132,2.137,7.443,2.978C419.91,130.543,422.518,131.079,422.268,134.471z
		 M418.298,124.546c-3.665-1.93-7.679-4.935-10.42-7.938c3.603-0.784,6.744,3.174,10.42,3.97c-2.677-3.112-7.652-3.926-10.916-6.451
		c1.905-1.061,3.72,2.221,6.45,1.985c0.505-0.323,0.514-1.142,1.489-0.993c-0.154-1.665-1.66-1.979-2.978-2.48
		c4.966,0.825,8.399,7.477,9.924,13.397C421.1,126.305,419.488,125.173,418.298,124.546z M426.733,123.058
		c-1.207-0.312-0.263-2.507,0.992-1.984C427.468,121.807,426.991,122.324,426.733,123.058z M421.771,106.187
		c-0.151-1.144,1.434-0.551,1.488-1.488c0.658,1.327,1.505,2.465,1.985,3.97c-1.287,1.228-2.434-0.482-4.466,0
		C419.965,108.222,424.691,107.672,421.771,106.187z M411.352,100.233c2.685-1.329,4.862,0.719,5.458,2.978h-3.474
		C415.273,101.126,410.999,102.248,411.352,100.233z M409.862,99.241c0.51,1.667-1.543,0.772-2.48,0.992
		C407.802,99.496,408.979,99.515,409.862,99.241z M405.396,99.241c0.501,1.492-1.105,0.879-1.984,0.992
		C403.531,99.36,404.266,99.102,405.396,99.241z M402.916,100.233c-0.344,0.98-1.323,1.323-2.481,1.488
		C400.778,100.742,401.759,100.399,402.916,100.233z M415.817,107.676c0.222,0.137,0.386,1.447,0.496,1.488
		c4.827,1.78,11.348-1.313,13.894,2.978c-3.21,5.19,3.364,6.083,3.474,10.916c-2.017,0.928-1.387-1.295-1.985-1.984
		c-1.104-1.272-2.952-2.106-3.97-3.474c-0.785,0.041-1.893-0.239-1.984,0.496c-4.898-5.687-12.16-9.012-19.352-12.405
		c1.075,2.563,3.855,3.422,5.458,5.458c-3.633-0.671-7.91-4.987-12.405-6.45C404.42,104.534,411.095,104.77,415.817,107.676z
		 M396.465,118.592c1.784-1.854,0.39-6.889,1.985-8.932c0.252,3.4,0.897,11.479-3.97,11.413v-3.97
		C396.075,116.667,395.16,118.74,396.465,118.592z M394.48,101.721c-3.666,0.086-5.278-0.732-7.939-2.48
		C389.105,94.341,393.364,97.494,394.48,101.721z M469.903,108.668c-2.271-1.838-2.416-4.824-3.474-7.443
		c-1.05-2.598-2.699-4.079-3.97-6.45c-0.765-1.428-0.812-3.479-1.488-4.962c-0.57-1.251-2.571-1.962-1.489-3.474
		c6.68,1.756,7.896,8.976,10.421,14.886C469.087,104.478,469.275,105.158,469.903,108.668z M502.652,122.562
		c-1.988-1.816-4.259-3.35-6.45-4.962C498.146,115.783,503.085,118.777,502.652,122.562z M502.156,116.112
		c-0.422,0.735-1.249,1.066-2.481,0.992c-0.571-0.587-0.562-1.754-0.496-2.978c1.16-0.153,2.05-0.972,2.978,0
		C502.631,115.05,500.67,115.785,502.156,116.112z M501.164,112.638c-1.403,0.41-1.286-0.699-2.481-0.496
		C498.596,111.333,501.929,111.14,501.164,112.638z M498.187,108.172c0.084,1.076-1.76,0.225-2.48,0.496
		C495.622,107.592,497.466,108.444,498.187,108.172z M490.743,114.623c-3.707-0.758-5.871-3.061-7.442-5.954
		C486.644,105.28,493.797,110.25,490.743,114.623z M515.554,109.165c-1.249,0.887-2.594-1.446-3.97-1.984
		c-5.193,0.018-9.484-3.353-9.924-6.451c7.093-0.973,10.553,1.688,13.894,4.466V109.165z"/>
	<path style="fill-rule:evenodd;clip-rule:evenodd;fill:#A65B2F;" d="M299.706,54.583C300.905,57.134,300.988,52.874,299.706,54.583
		L299.706,54.583z"/>
	<path style="fill-rule:evenodd;clip-rule:evenodd;fill:#A65B2F;" d="M271.919,75.919C271.52,78.923,274.193,76.25,271.919,75.919
		L271.919,75.919z"/>
	<path style="fill-rule:evenodd;clip-rule:evenodd;fill:#A65B2F;" d="M388.526,91.797C390.208,96.263,388.421,90.212,388.526,91.797
		L388.526,91.797z"/>
	<path style="fill-rule:evenodd;clip-rule:evenodd;fill:#A65B2F;" d="M324.516,94.775C318.819,94.22,320.963,96.257,324.516,94.775
		L324.516,94.775z"/>
	<path style="fill-rule:evenodd;clip-rule:evenodd;fill:#A65B2F;" d="M378.105,101.721
		C377.583,104.601,380.256,101.928,378.105,101.721L378.105,101.721z"/>
	<path style="fill-rule:evenodd;clip-rule:evenodd;fill:#A65B2F;" d="M122.066,147.869
		C120.154,152.105,124.099,148.211,122.066,147.869L122.066,147.869z"/>
	<path style="fill-rule:evenodd;clip-rule:evenodd;fill:#A65B2F;" d="M289.286,43.666c0.326,0.666,1.061,0.924,1.984,0.992
		c-2.779,0.867-5.322-3.422-9.428-1.488c2.631-2.872,9.472-3.349,10.916,0.992C291.148,44.45,290.45,43.824,289.286,43.666z"/>
</g>
</svg>
