<?xml version="1.0" encoding="UTF-8" standalone="no"?>
<!-- Created with Inkscape (http://www.inkscape.org/) -->

<svg
   xmlns:dc="http://purl.org/dc/elements/1.1/"
   xmlns:cc="http://creativecommons.org/ns#"
   xmlns:rdf="http://www.w3.org/1999/02/22-rdf-syntax-ns#"
   xmlns:svg="http://www.w3.org/2000/svg"
   xmlns="http://www.w3.org/2000/svg"
   xmlns:xlink="http://www.w3.org/1999/xlink"
   xmlns:sodipodi="http://sodipodi.sourceforge.net/DTD/sodipodi-0.dtd"
   xmlns:inkscape="http://www.inkscape.org/namespaces/inkscape"
   width="33.1562"
   height="26.9063"
   id="svg22630"
   version="1.1"
   inkscape:version="0.48.1 r9760"
   sodipodi:docname="New document 28">
  <defs
     id="defs22632">
    <linearGradient
       inkscape:collect="always"
       xlink:href="#linearGradient3193"
       id="linearGradient3749"
       gradientUnits="userSpaceOnUse"
       x1="105.15633"
       y1="79.65683"
       x2="108.2141"
       y2="76.568489"
       gradientTransform="translate(-79.3502,962.94556)" />
    <linearGradient
       id="linearGradient3193">
      <stop
         id="stop3195"
         offset="0"
         style="stop-color:#c2a05c;stop-opacity:1;" />
      <stop
         id="stop3197"
         offset="1"
         style="stop-color:#d6be91;stop-opacity:1;" />
    </linearGradient>
    <linearGradient
       inkscape:collect="always"
       xlink:href="#linearGradient3193"
       id="linearGradient3745"
       x1="105.15633"
       y1="79.65683"
       x2="108.2141"
       y2="76.568489"
       gradientUnits="userSpaceOnUse"
       gradientTransform="translate(-88.1871,966.73718)" />
    <linearGradient
       id="linearGradient22576">
      <stop
         id="stop22578"
         offset="0"
         style="stop-color:#c2a05c;stop-opacity:1;" />
      <stop
         id="stop22580"
         offset="1"
         style="stop-color:#d6be91;stop-opacity:1;" />
    </linearGradient>
    <linearGradient
       inkscape:collect="always"
       xlink:href="#linearGradient3193"
       id="linearGradient3741"
       x1="94.821106"
       y1="70.269508"
       x2="96.044212"
       y2="72.409943"
       gradientUnits="userSpaceOnUse"
       gradientTransform="translate(-88.1871,966.73718)" />
    <linearGradient
       id="linearGradient22583">
      <stop
         id="stop22585"
         offset="0"
         style="stop-color:#c2a05c;stop-opacity:1;" />
      <stop
         id="stop22587"
         offset="1"
         style="stop-color:#d6be91;stop-opacity:1;" />
    </linearGradient>
    <linearGradient
       inkscape:collect="always"
       xlink:href="#linearGradient2320"
       id="linearGradient3737"
       x1="95.340927"
       y1="79.412209"
       x2="94.148399"
       y2="76.996582"
       gradientUnits="userSpaceOnUse"
       gradientTransform="translate(-88.1871,966.73718)" />
    <linearGradient
       id="linearGradient2320">
      <stop
         style="stop-color:#6a3c1d;stop-opacity:1;"
         offset="0"
         id="stop2322" />
      <stop
         style="stop-color:#8f5127;stop-opacity:1;"
         offset="1"
         id="stop2324" />
    </linearGradient>
    <linearGradient
       inkscape:collect="always"
       xlink:href="#linearGradient2320"
       id="linearGradient3733"
       x1="102.49609"
       y1="83.173256"
       x2="118.82452"
       y2="70.544708"
       gradientUnits="userSpaceOnUse"
       gradientTransform="translate(-88.1871,966.73718)" />
    <linearGradient
       id="linearGradient22594">
      <stop
         style="stop-color:#6a3c1d;stop-opacity:1;"
         offset="0"
         id="stop22596" />
      <stop
         style="stop-color:#8f5127;stop-opacity:1;"
         offset="1"
         id="stop22598" />
    </linearGradient>
    <linearGradient
       inkscape:collect="always"
       xlink:href="#linearGradient2320"
       id="linearGradient3729"
       x1="92.497215"
       y1="71.0951"
       x2="98.949089"
       y2="80.910515"
       gradientUnits="userSpaceOnUse"
       gradientTransform="translate(-88.1871,966.73718)" />
    <linearGradient
       id="linearGradient22601">
      <stop
         style="stop-color:#6a3c1d;stop-opacity:1;"
         offset="0"
         id="stop22603" />
      <stop
         style="stop-color:#8f5127;stop-opacity:1;"
         offset="1"
         id="stop22605" />
    </linearGradient>
    <linearGradient
       inkscape:collect="always"
       xlink:href="#linearGradient3494"
       id="linearGradient3725"
       x1="102.95475"
       y1="74.764412"
       x2="114.02383"
       y2="61.891251"
       gradientUnits="userSpaceOnUse"
       gradientTransform="translate(-88.1871,966.73718)" />
    <linearGradient
       id="linearGradient3494">
      <stop
         style="stop-color:#cf8d00;stop-opacity:1;"
         offset="0"
         id="stop3496" />
      <stop
         style="stop-color:#cea33e;stop-opacity:1;"
         offset="1"
         id="stop3498" />
    </linearGradient>
    <linearGradient
       inkscape:collect="always"
       xlink:href="#linearGradient3494"
       id="linearGradient3721"
       x1="101.08952"
       y1="64.734962"
       x2="103.87208"
       y2="60.48468"
       gradientUnits="userSpaceOnUse"
       gradientTransform="translate(49.608387,2.1213203)" />
    <linearGradient
       id="linearGradient22612">
      <stop
         style="stop-color:#cf8d00;stop-opacity:1;"
         offset="0"
         id="stop22614" />
      <stop
         style="stop-color:#cea33e;stop-opacity:1;"
         offset="1"
         id="stop22616" />
    </linearGradient>
    <linearGradient
       y2="60.48468"
       x2="103.87208"
       y1="64.734962"
       x1="101.08952"
       gradientTransform="translate(-88.1871,966.73718)"
       gradientUnits="userSpaceOnUse"
       id="linearGradient22628"
       xlink:href="#linearGradient3494"
       inkscape:collect="always" />
  </defs>
  <sodipodi:namedview
     id="base"
     pagecolor="#ffffff"
     bordercolor="#666666"
     borderopacity="1.0"
     inkscape:pageopacity="0.0"
     inkscape:pageshadow="2"
     inkscape:zoom="7.9195959"
     inkscape:cx="43.710743"
     inkscape:cy="-3.2487974"
     inkscape:document-units="px"
     inkscape:current-layer="layer1"
     showgrid="false"
     fit-margin-top="0"
     fit-margin-left="0"
     fit-margin-right="0"
     fit-margin-bottom="0"
     inkscape:window-width="1392"
     inkscape:window-height="929"
     inkscape:window-x="1920"
     inkscape:window-y="0"
     inkscape:window-maximized="1" />
  <metadata
     id="metadata22635">
    <rdf:RDF>
      <cc:Work
         rdf:about="">
        <dc:format>image/svg+xml</dc:format>
        <dc:type
           rdf:resource="http://purl.org/dc/dcmitype/StillImage" />
        <dc:title></dc:title>
      </cc:Work>
    </rdf:RDF>
  </metadata>
  <g
     inkscape:label="Layer 1"
     inkscape:groupmode="layer"
     id="layer1"
     transform="translate(0,-1025.4559)">
    <path
       style="fill:url(#linearGradient22628);fill-opacity:1;fill-rule:evenodd;stroke:none;display:inline"
       d="m 1.2524,1034.0712 18.3465,-8.47 5.9321,1.4678 -17.9797,8.103 -6.2989,-1.1008 z"
       id="path3719"
       inkscape:connector-curvature="0" />
    <path
       style="fill:url(#linearGradient3725);fill-opacity:1;fill-rule:evenodd;stroke:none;display:inline"
       d="m 7.5819,1035.0803 c 0.2752,-0.1223 18.316,-8.0113 18.316,-8.0113 l 6.6965,7.889 -19.3862,8.4394 -5.6263,-8.3171 z"
       id="path3723"
       inkscape:connector-curvature="0" />
    <path
       style="fill:url(#linearGradient3729);fill-opacity:1;fill-rule:evenodd;stroke:none;display:inline"
       d="m 1.9556,1034.4382 0.061,8.5311 11.3749,8.9593 -0.1529,-8.7758 -5.6263,-7.9808 -5.6568,-0.7338 z"
       id="path3727"
       inkscape:connector-curvature="0" />
    <path
       style="fill:url(#linearGradient3733);fill-opacity:1;fill-rule:evenodd;stroke:none;display:inline"
       d="m 13.2694,1043.3974 18.8969,-8.0419 0.092,8.5006 -18.8664,8.2253 -0.1223,-8.684 z"
       id="path3731"
       inkscape:connector-curvature="0" />
    <path
       style="fill:url(#linearGradient3737);fill-opacity:1;fill-rule:evenodd;stroke:none;display:inline"
       d="m 5.4721,1045.6296 0,-4.5255 2.6296,1.6818 -0.031,4.8312 -2.599,-1.9875 z"
       id="path3735"
       inkscape:connector-curvature="0" />
    <path
       style="fill:url(#linearGradient3741);fill-opacity:1;fill-rule:evenodd;stroke:none;display:inline"
       d="m 6.4811,1036.3951 0.7339,0.2447 0.7339,0.8867 0.3669,1.0396 -0.3364,0.581 -0.9479,-0.092 -0.9173,-1.1313 -0.1529,-1.1314 0.6727,-0.3975 -0.1529,0 z"
       id="path3739"
       inkscape:connector-curvature="0" />
    <path
       style="fill:url(#linearGradient3745);fill-opacity:1;fill-rule:evenodd;stroke:none;display:inline"
       d="m 16.6023,1043.6115 3.6999,-1.376 0.031,3.3635 -3.7305,1.4983 0,-3.4858 z"
       id="path3743"
       inkscape:connector-curvature="0" />
    <path
       id="path3747"
       d="m 25.4392,1039.8198 3.6999,-1.376 0.031,3.3636 -3.7304,1.4983 0,-3.4859 z"
       style="fill:url(#linearGradient3749);fill-opacity:1;fill-rule:evenodd;stroke:none;display:inline"
       inkscape:connector-curvature="0" />
    <path
       id="path3899"
       d="m 1.9556,1034.4382 0.061,8.5311 11.3749,8.9593 -0.1529,-8.7758 -5.6263,-7.9808 -5.6568,-0.7338 z"
       style="fill:#000000;fill-opacity:0.15686275;fill-rule:evenodd;stroke:none;display:inline"
       inkscape:connector-curvature="0" />
    <path
       style="fill:#000000;fill-opacity:1;fill-rule:evenodd;stroke:none;display:inline"
       d="m 5e-4,1034.3622 1.6875,0.2187 0.031,8.5625 11.6562,9.2188 19.0938,-8.375 c -0.095,-6.5321 0.031,-1.7525 0.031,-8.5 l 0.6562,-0.2813 -7.0625,-8.375 -6.5312,-1.375 c -14.5921,6.651 6.3756,-3.0064 -19.5625,8.9063 z m 19.4687,-8.3438 5.5,1.0625 -17.5625,7.8125 0.094,0.062 -5.625,-0.9062 17.5937,-8.0313 z m -0.4063,0.6875 -0.094,0.094 1.9375,0.4063 -7.9062,3.8437 -1.125,-0.3437 c 0.2793,-0.1379 0.5663,-0.2675 0.8437,-0.4063 l -0.094,-0.125 c -0.3217,0.1595 -0.6699,0.3102 -1,0.4688 l -0.875,-0.2813 -0.062,0.125 0.75,0.25 c -1.4955,0.7144 -3.0313,1.3754 -4.5625,2.0313 l -1.375,-0.2813 -0.094,0.125 1.25,0.2813 c -0.4444,0.1895 -0.9084,0.3815 -1.3437,0.5625 l 0.062,0.1562 c 0.5399,-0.2086 1.0884,-0.4299 1.625,-0.6562 l 2.5625,0.5625 0.125,-0.125 -2.4375,-0.5313 c 1.5012,-0.6406 2.976,-1.3439 4.4375,-2.0625 l 1.125,0.3438 -2.5938,1.2812 0.094,0.094 2.6875,-1.3125 0.4688,0.1563 0,-0.1563 -0.2813,-0.094 7.9375,-3.875 1.125,0.25 0,-0.094 -1,-0.2187 0.2813,-0.125 -0.094,-0.094 -0.375,0.1875 -2,-0.4375 z m 6.8125,0.6563 6.25,7.3437 -18.6875,8.3438 -5.5625,-7.8438 0.094,0.062 z m -4.0312,3.375 -0.1563,0.094 0.7813,1.2812 -3.4375,1.625 -1.3438,-2.125 -0.094,0.125 1.3125,2.0625 -2.0312,0.9688 0.062,0.125 2.0312,-0.9688 1.5,2.3438 0.125,-0.062 -1.5,-2.3438 3.4375,-1.6562 1.1875,1.9375 -0.7812,0.375 0.031,0.125 0.8125,-0.4063 0.9687,1.5313 -5.5937,2.5625 -0.9375,-1.5625 -0.1563,0.062 0.9688,1.5312 -2.5625,1.1875 -1.8125,-2.9687 -0.125,0.062 1.75,2.9687 -2.4375,1.125 -3.0625,-4.6875 4.0625,-1.8125 -0.094,-0.1562 -4.0625,1.8125 -0.2188,-0.3438 -0.094,0.031 0.2188,0.375 -0.094,0.031 0.094,0.1563 0.094,-0.062 3,4.7187 -0.031,0.031 -0.094,0.1875 0.2187,-0.094 0.3438,0.5625 0.1562,-0.094 -0.3437,-0.5312 2.4375,-1.0938 0.094,0.1563 0.1562,-0.125 -0.062,-0.125 2.5625,-1.1563 0.2813,0.4375 0.094,-0.062 -0.25,-0.4375 5.5937,-2.5312 0.1563,0.25 0.1875,-0.125 -0.125,-0.2188 0.7187,-0.3125 -0.094,-0.1875 -0.75,0.3438 -0.9375,-1.5313 3.6563,-1.8125 1.375,1.8125 0.094,-0.062 -1.3125,-1.8125 0.375,-0.1875 -0.031,-0.094 -0.4063,0.1875 -0.5625,-0.75 -0.125,0.125 0.5313,0.7188 -3.6875,1.7812 -1.1875,-1.9375 1.375,-0.6562 -0.031,-0.094 -1.4063,0.6562 -0.8125,-1.2812 z m -19.7188,3.9062 5.2188,0.7188 5.625,7.9375 0.062,8.0312 -4.8438,-3.8125 0.031,-4.7812 -2.7812,-1.75 -0.031,4.3437 -3.125,-2.4687 z m 29.7188,1.125 0.094,7.875 -18.3125,7.9688 -0.1875,-7.9375 18.4062,-7.9063 z m -25.4063,0.4375 c -0.091,-0.01 -0.1719,0.01 -0.25,0.031 -0.1875,0.053 -0.3416,0.2114 -0.4062,0.4375 -0.1724,0.6031 0.2506,1.6042 0.9687,2.25 0.7181,0.6458 1.4214,0.6656 1.5938,0.062 0.1724,-0.603 -0.2507,-1.6354 -0.9688,-2.2812 -0.3366,-0.3027 -0.6648,-0.4752 -0.9375,-0.5 z m 0.125,0.4688 c 0.2297,-0.01 0.5102,0.095 0.7813,0.3437 0.6616,0.702 0.8161,1.4108 0.7187,1.75 -0.1369,0.4772 -0.9072,0.2458 -1.25,-0.062 -0.3428,-0.3082 -0.7846,-1.1998 -0.6875,-1.7187 0.035,-0.1866 0.2078,-0.3021 0.4375,-0.3125 z m 22.625,1.6875 -3.8437,1.4375 0.031,3.5625 3.8125,-1.5313 0,-3.4687 z m -0.1562,0.1562 0,3.2188 -3.5,1.4375 -0.031,-3.2813 3.5312,-1.375 z m -0.094,0.1563 -3.3438,1.2812 0.062,3.0313 3.2813,-1.3438 z m -0.1251,0.1562 -0.031,2.6875 -2.9687,1.2813 -0.062,-2.7813 3.0625,-1.1875 z m -23.2187,2.4375 2.375,1.5625 0.031,4.5313 -0.1563,-0.125 0,-4.3125 -2.0625,-1.2813 -0.031,3.9688 -0.125,-0.094 -0.031,-4.25 z m 0.3437,0.6563 1.625,1.0937 0.062,4.0625 -1.6562,-1.3125 -0.031,-3.8437 z m 14.4375,0.25 -3.8437,1.4375 0.031,3.5625 3.8125,-1.5313 0,-3.4687 z m -0.1562,0.1562 0,3.2188 -3.5,1.4375 -0.031,-3.2813 3.5312,-1.375 z m -0.094,0.1563 -3.3438,1.2812 0.062,3.0313 3.2813,-1.3438 z m -0.125,0.1562 -0.031,2.6875 -2.9688,1.2813 -0.062,-2.7813 3.0625,-1.1875 z"
       id="path8242"
       inkscape:connector-curvature="0"
       sodipodi:nodetypes="ccccccccccccccccccccccccccccccccccccccccccccccccccccccccccccccccccccccccccccccccccccccccccccccccccccccccccccccccccccccccccccccccccccccccccccccccccccccccccccccssscsccscscccccccccccccccccccccccccccccccccccccccccccccccccccccccccccccc" />
  </g>
</svg>
