<?xml version="1.0" encoding="UTF-8" standalone="no"?>
<!-- Generator: Adobe Illustrator 13.0.2, SVG Export Plug-In . SVG Version: 6.00 Build 14948)  -->

<svg
   xmlns:ns0="http://ns.adobe.com/SaveForWeb/1.0/"
   xmlns:dc="http://purl.org/dc/elements/1.1/"
   xmlns:cc="http://creativecommons.org/ns#"
   xmlns:rdf="http://www.w3.org/1999/02/22-rdf-syntax-ns#"
   xmlns:svg="http://www.w3.org/2000/svg"
   xmlns="http://www.w3.org/2000/svg"
   xmlns:sodipodi="http://sodipodi.sourceforge.net/DTD/sodipodi-0.dtd"
   xmlns:inkscape="http://www.inkscape.org/namespaces/inkscape"
   version="1.1"
   id="boar_hunt_xA0_Image_1_"
   x="0px"
   y="0px"
   width="321.10706"
   height="200.42177"
   viewBox="0 0 321.10705 200.42176"
   enable-background="new 0 0 483.117 200.421"
   xml:space="preserve"
   inkscape:version="0.48.1 r9760"
   sodipodi:docname="johnny_automatic_boar_hunt_modified.svg"><defs
   id="defs18868">
	
	
	
	
	
	
	
	
	
	
	
	
	
	
	
	
	
	
	
	
	
	
	
	
	
	
	
	
	
	
	
	
	
	
	
	
	
	
	
	
	
	
	
	
	
	
	
	
	
	
	
	
	
	
	
	
	
	
	
	
	
	
	
	
	
	
	
	
	
	
	
	
	
	
	
	
	
	
	
	
	
	
	
	
	
	
	
	
	
	
	
	
	
	
	
	
	
	
	
	
	
	
	
	
	
	
	
	
	
	
	
	
	
	
	
	
	
	
	
	
	
	
	
	
	
	
	
	
	
	
	
	
	
	
	
	
	
</defs><sodipodi:namedview
   pagecolor="#ffffff"
   bordercolor="#666666"
   borderopacity="1"
   objecttolerance="10"
   gridtolerance="10"
   guidetolerance="10"
   inkscape:pageopacity="0"
   inkscape:pageshadow="2"
   inkscape:window-width="1912"
   inkscape:window-height="1049"
   id="namedview18866"
   showgrid="false"
   inkscape:zoom="1.0018277"
   inkscape:cx="79.548501"
   inkscape:cy="100.2109"
   inkscape:window-x="0"
   inkscape:window-y="0"
   inkscape:window-maximized="1"
   inkscape:current-layer="boar_hunt_xA0_Image_1_"
   fit-margin-top="0"
   fit-margin-left="0"
   fit-margin-right="0"
   fit-margin-bottom="0" />
<metadata
   id="metadata18588">
	<ns0:sfw>
		<ns0:slices />
		<ns0:sliceSourceBounds
   x="149.097"
   y="211.408"
   width="483.117"
   height="200.422"
   bottomLeftOrigin="true" />
	</ns0:sfw>
<rdf:RDF><cc:Work
     rdf:about=""><dc:format>image/svg+xml</dc:format><dc:type
       rdf:resource="http://purl.org/dc/dcmitype/StillImage" /><dc:title></dc:title></cc:Work></rdf:RDF></metadata>
<path
   style="fill-rule:evenodd"
   inkscape:connector-curvature="0"
   id="path18592"
   d="m 108.661,0.08336205 c 1.137,5.65700005 -2.685,7.30000005 -2.425,10.67099995 -3.215,-0.343 -8.185,1.07 -8.731,-1.9399999 2.336,-1.005 4.792,1.2699999 7.761,0 -2.204,-3.235 2.281,-6.284 0,-8.24700005 1.531,0.239 1.713,-0.873 3.395,-0.484 z"
   clip-rule="evenodd" /><path
   style="fill-rule:evenodd"
   inkscape:connector-curvature="0"
   id="path18594"
   d="m 113.512,2.5093621 c 2.84,1.041 2.436,5.326 2.911,8.7309999 -1.292,0.972 -1.801,2.727 -3.881,2.91 0.579,-4.5679999 -0.221,-7.5989999 0.97,-11.6409999 z"
   clip-rule="evenodd" /><path
   style="fill-rule:evenodd"
   inkscape:connector-curvature="0"
   id="path18596"
   d="m 108.661,14.150362 c 2.521,-1.022 3.306,2.475 1.455,2.911 -1.737,0.282 -1.474,-1.436 -1.455,-2.911 z"
   clip-rule="evenodd" /><path
   style="fill-rule:evenodd"
   inkscape:connector-curvature="0"
   id="path18598"
   d="m 97.505,18.031362 c -0.311,1.954 -4.228,0.3 -4.366,2.425 -1.958,-2.306 2.057,-2.776 4.366,-2.425 z"
   clip-rule="evenodd" /><path
   style="fill-rule:evenodd"
   inkscape:connector-curvature="0"
   id="path18600"
   d="m 107.692,20.457362 c 0.516,-1.101 3.049,-0.185 4.365,-0.485 -0.806,1.362 -3.258,2.054 -4.365,0.485 z"
   clip-rule="evenodd" /><path
   style="fill-rule:evenodd"
   inkscape:connector-curvature="0"
   id="path18602"
   d="m 86.833,25.307362 c -0.886,3.421 -4.842,3.354 -7.761,1.94 0.643,1.666 -3.022,2.902 -4.366,0.97 0.721,-1.543 1.667,-2.861 4.366,-2.425 -1.376,-3.007 -5.597,-2.253 -8.247,-2.911 4.568,-6.478 10.73,3.709 16.008,2.426 z"
   clip-rule="evenodd" /><path
   style="fill-rule:evenodd"
   inkscape:connector-curvature="0"
   id="path18604"
   d="m 65.975,37.919362 c 0.809,0 1.617,0 2.425,0 -1.002,3.043 -1.097,3.797 -0.97,6.306 -1.725,-0.539 -2.14,-2.387 -4.365,-2.425 0.193,-2.071 3.477,-1.05 2.91,-3.881 z"
   clip-rule="evenodd" /><path
   style="fill-rule:evenodd"
   inkscape:connector-curvature="0"
   id="path18606"
   d="m 62.094,39.375362 c 0.585,3.011 -3.767,1.084 -4.366,2.91 1.297,0.74 2.409,1.662 3.88,0.97 -0.147,1.132 -1.035,2.09 0.485,2.425 -0.734,0.721 -2.129,0.782 -3.396,0.97 0.255,-1.699 -1.058,-1.793 -1.456,-3.88 -6.064,-0.729 -8.266,2.405 -11.642,4.366 1.515,1.008 3.798,-1.359 6.791,-0.485 -2.136,2.274 -5.791,2.316 -8.731,3.396 -2.568,0.943 -4.051,2.188 -8.731,1.94 -0.446,-1.902 2.559,-0.352 2.911,-1.455 -3.634,-1.363 -7.521,1.204 -10.187,2.425 0.423,2.363 -0.663,3.217 -0.97,4.851 2.542,2.632 8.418,1.93 13.097,2.425 -0.079,0.564 0.107,0.863 0.485,0.97 0.23,2.171 -1.453,2.428 -3.396,2.425 -0.137,-0.783 0.458,-0.835 0.485,-1.455 -3.77,-1.878 -8.214,-0.739 -12.127,-2.91 -0.191,-3.101 0.711,-5.109 0.97,-7.761 6.65,-4.183 19.729,-1.937 22.798,-9.702 4.287,1.207 9.438,-3.053 13.1,-2.425 z m -22.313,10.186 c 2.04,0.099 4.055,0.175 4.366,-1.455 -1.932,0.008 -3.417,0.464 -4.366,1.455 z"
   clip-rule="evenodd" /><path
   style="fill-rule:evenodd"
   inkscape:connector-curvature="0"
   id="path18608"
   d="m 75.677,40.830362 c -0.796,3.893 -3.698,5.68 -5.821,8.246 -1.516,-0.425 -2.533,-1.348 -2.426,-3.396 2.019,-1.053 5.506,-0.638 6.306,-2.91 -1.249,-1.529 -2.314,1.211 -4.366,0.485 1.487,-1.235 4.367,-3.211 6.307,-2.425 z"
   clip-rule="evenodd" /><path
   style="fill-rule:evenodd"
   inkscape:connector-curvature="0"
   id="path18610"
   d="m 159.11,40.345362 c 0.388,2.013 -1.867,2.841 -2.911,1.94 0.421,-1.196 1.13,-2.103 2.911,-1.94 z"
   clip-rule="evenodd" /><path
   style="fill-rule:evenodd"
   inkscape:connector-curvature="0"
   id="path18612"
   d="m 170.266,46.650362 c -0.141,2.931 0.389,6.533 -0.485,8.731 -2.081,-1.476 -0.16,-6.954 -1.94,-8.731 -2.014,-1.704 -3.851,-3.586 -6.306,-4.851 2.841,-1.986 6.51,3.04 8.731,4.851 z"
   clip-rule="evenodd" /><path
   style="fill-rule:evenodd"
   inkscape:connector-curvature="0"
   id="path18614"
   d="m 73.251,46.650362 c 0.078,-0.568 0.884,-0.409 1.455,-0.485 3.598,3.193 10.411,3.171 12.612,7.761 -4.84,-2.274 -10.016,-4.212 -14.067,-7.276 z"
   clip-rule="evenodd" /><path
   style="fill-rule:evenodd"
   inkscape:connector-curvature="0"
   id="path18616"
   d="m 59.184,47.621362 c 1.042,1.221 2.615,1.913 2.425,4.366 -0.97,0 -1.94,0 -2.91,0 -0.703,-1.834 1.333,-0.931 0.97,-2.425 -0.734,-1.467 -2.129,0.402 -3.396,0 -0.337,-1.955 2.414,-0.822 2.911,-1.941 z"
   clip-rule="evenodd" /><path
   style="fill-rule:evenodd"
   inkscape:connector-curvature="0"
   id="path18618"
   d="m 65.975,47.621362 c 1.9,-0.155 1.738,3.355 0.97,4.366 -1.777,0.161 -2.695,-0.539 -3.88,-0.97 0.901,-1.202 2.185,-2.019 2.91,-3.396 z"
   clip-rule="evenodd" /><path
   style="fill-rule:evenodd"
   inkscape:connector-curvature="0"
   id="path18620"
   d="m 125.154,51.501362 c 1.771,-0.315 2.584,0.327 3.396,0.97 0.049,1.504 -0.593,2.318 -0.97,3.396 -1.522,-0.901 -3.509,-2.266 -2.426,-4.366 z"
   clip-rule="evenodd" /><path
   style="fill-rule:evenodd"
   inkscape:connector-curvature="0"
   id="path18622"
   d="m 56.273,52.471362 c -1.633,1.601 -3.685,2.783 -6.306,3.396 0.437,-2.797 3.001,-3.468 6.306,-3.396 z"
   clip-rule="evenodd" /><path
   style="fill-rule:evenodd"
   inkscape:connector-curvature="0"
   id="path18624"
   d="m 39.781,53.927362 c 0.2,1.979 -0.497,3.06 -2.425,2.91 1.73,-3.333 -2.165,-0.249 -1.94,-2.91 1.616,-0.843 2.151,0.244 4.365,0 z"
   clip-rule="evenodd" /><path
   style="fill-rule:evenodd"
   inkscape:connector-curvature="0"
   id="path18626"
   d="m 52.878,55.867362 c 4.281,0.814 7.38,1.155 11.642,0 0,0.809 0,1.617 0,2.426 -1.703,0.902 -1.596,-0.369 -2.911,-0.97 -4.04,-0.321 -6.508,0.93 -9.216,1.94 -1.339,-0.208 -0.455,1.808 -1.455,1.94 -2.563,0.062 -3.039,-2.88 -7.761,-1.94 0.284,-2.653 4.147,-0.019 5.821,-1.94 2.424,-0.387 2.374,1.697 4.366,0.485 -0.378,-0.433 -0.522,-1.096 -0.486,-1.941 z"
   clip-rule="evenodd" /><path
   style="fill-rule:evenodd"
   inkscape:connector-curvature="0"
   id="path18628"
   d="m 68.4,57.807362 c 0.324,0 0.647,0 0.97,0 2.074,-0.134 2.473,1.408 3.396,2.425 2.561,0.997 5.769,1.346 6.306,4.366 -3.627,-0.738 -4.933,-3.798 -9.702,-3.396 -0.712,-1.256 -1.788,-1.803 -0.97,-3.395 z"
   clip-rule="evenodd" /><path
   style="fill-rule:evenodd"
   inkscape:connector-curvature="0"
   id="path18630"
   d="m 122.729,58.292362 c -0.078,3.312 3.411,3.056 3.396,6.306 -2.118,0.017 -3.783,-0.421 -5.336,-0.97 -0.311,-2.736 1.054,-3.795 1.94,-5.336 z"
   clip-rule="evenodd" /><path
   style="fill-rule:evenodd"
   inkscape:connector-curvature="0"
   id="path18632"
   d="m 47.542,60.232362 c 0.031,2.295 -4.056,0.472 -4.366,2.426 2.422,1.263 6.17,-1.097 6.791,2.425 -2.443,-0.885 -5.531,-1.401 -7.761,0 0,0.97 0,1.94 0,2.91 -1.554,-1.88 -1.754,-5.712 0,-7.276 2.082,1.219 3.224,-0.386 5.336,-0.485 z"
   clip-rule="evenodd" /><path
   style="fill-rule:evenodd"
   inkscape:connector-curvature="0"
   id="path18634"
   d="m 39.781,65.083362 c -0.431,0.862 -1.354,1.233 -0.97,2.91 -0.432,-0.376 -1.096,-0.521 -1.94,-0.485 -0.062,-0.87 0.594,-1.023 0.485,-1.94 -1.519,-0.225 -2.166,0.422 -1.94,1.94 -1.098,-1.651 -3.345,-2.152 -5.336,-2.911 0.018,-6.048 6.14,2.696 9.701,0.486 z"
   clip-rule="evenodd" /><path
   style="fill-rule:evenodd"
   inkscape:connector-curvature="0"
   id="path18636"
   d="m 251.758,63.628362 c -1.755,1.802 -4.466,2.648 -6.306,4.366 -1.781,-3.167 3.679,-5.58 6.306,-4.366 z"
   clip-rule="evenodd" /><path
   style="fill-rule:evenodd"
   inkscape:connector-curvature="0"
   id="path18638"
   d="m 127.094,64.598362 c 1.811,-0.194 2.847,0.388 2.911,1.94 -1.531,-0.085 -2.893,-0.34 -2.911,-1.94 z"
   clip-rule="evenodd" /><path
   style="fill-rule:evenodd"
   inkscape:connector-curvature="0"
   id="path18640"
   d="m 121.274,70.419362 c 0.235,2.485 3.956,3.62 2.425,6.306 -1.172,-0.93 -0.899,-3.304 -2.91,-3.396 -0.064,-1.195 -0.074,-2.336 0.485,-2.91 z"
   clip-rule="evenodd" /><path
   style="fill-rule:evenodd"
   inkscape:connector-curvature="0"
   id="path18642"
   d="m 135.34,73.330362 c -1.269,0.734 -3.727,2.104 -5.335,0.97 0.835,-2.119 3.975,-0.925 5.335,-0.97 z"
   clip-rule="evenodd" /><path
   style="fill-rule:evenodd"
   inkscape:connector-curvature="0"
   id="path18644"
   d="m 93.139,73.815362 c 0.825,-0.179 0.915,0.378 0.971,0.97 -2.242,3.417 -1.972,9.348 -6.791,10.187 -0.215,-4.088 4.688,-6.841 5.82,-11.157 z"
   clip-rule="evenodd" /><path
   style="fill-rule:evenodd"
   inkscape:connector-curvature="0"
   id="path18646"
   d="m 104.781,82.061362 c -0.743,5.078 -5.448,6.193 -7.761,9.702 5.708,-0.436 7.491,-4.797 13.097,-5.336 -0.467,2.711 -3.781,3.206 -5.82,4.366 -2.876,1.636 -5.596,3.828 -8.731,5.335 -0.673,0.298 -0.073,1.868 -0.971,1.94 -2.673,-0.296 0.566,-5.102 -2.91,-5.336 0.578,-2.332 2.978,-2.843 4.851,-3.88 3.391,-1.62 3.911,-6.113 8.245,-6.791 z"
   clip-rule="evenodd" /><path
   style="fill-rule:evenodd"
   inkscape:connector-curvature="0"
   id="path18648"
   d="m 169.781,84.486362 c -0.233,2.262 -2.647,1.084 -3.88,1.455 -3.778,1.136 -7.87,2.997 -11.643,3.881 2.852,-3.328 9.461,-4.197 15.523,-5.336 z"
   clip-rule="evenodd" /><path
   style="fill-rule:evenodd"
   inkscape:connector-curvature="0"
   id="path18650"
   d="m 282.803,84.971362 c 0.658,0.15 0.402,1.215 0.485,1.94 3.851,-0.98 9.591,-0.852 9.701,3.396 -3.974,-0.547 -8.627,1.468 -11.156,3.881 -0.916,-0.702 -2.15,-1.083 -1.94,-2.911 0.503,-1.76 2.152,-2.375 2.91,-3.88 -2.22,-0.99 -4.787,4.138 -7.275,2.91 0.754,-3.449 5.209,-3.199 7.275,-5.336 z"
   clip-rule="evenodd" /><path
   style="fill-rule:evenodd"
   inkscape:connector-curvature="0"
   id="path18652"
   d="m 175.116,88.367362 c -1.746,1.335 -5.41,3.309 -7.276,2.911 1.747,-1.65 4.116,-2.676 7.276,-2.911 z"
   clip-rule="evenodd" /><path
   style="fill-rule:evenodd"
   inkscape:connector-curvature="0"
   id="path18654"
   d="m 163.475,90.792362 c -0.509,0.616 -3.602,2.748 -3.881,0.485 1.162,-0.293 2.213,-0.697 3.881,-0.485 z"
   clip-rule="evenodd" /><path
   style="fill-rule:evenodd"
   inkscape:connector-curvature="0"
   id="path18656"
   d="m 106.237,91.763362 c 0.344,2.55 -4.091,4.24 -5.336,6.791 -1.686,0.093 -1.842,1.714998 -3.396,1.939998 0.384,1.891 0.501,2.515 -0.485,3.881 -1.369,-0.572 -1.476,-2.405 -1.94,-3.881 2.492,-3.651998 7.398,-4.889998 9.701,-8.730998 0.485,0 0.97,0 1.456,0 z"
   clip-rule="evenodd" /><path
   style="fill-rule:evenodd"
   inkscape:connector-curvature="0"
   id="path18668"
   d="m 72.281,99.039362 c 0.564,-0.079 0.863,0.107 0.97,0.485 -1.014,3.368998 -0.247,7.602998 0,11.155998 -2.633,-1.508 -2.426,-8.285 -0.97,-11.640998 z"
   clip-rule="evenodd" /><path
   style="fill-rule:evenodd"
   inkscape:connector-curvature="0"
   id="path18672"
   d="m 169.296,102.43436 c 1.433,1.316 3.253,2.244 3.88,4.366 -2.554,0.434 -6.009,-0.642 -7.275,-2.911 1.469,0.472 2.599,1.281 4.365,1.456 1.102,-0.518 -1.394,-1.471 -0.97,-2.911 z"
   clip-rule="evenodd" /><path
   style="fill-rule:evenodd"
   inkscape:connector-curvature="0"
   id="path18674"
   d="m 144.557,103.88936 c 0.564,-0.079 0.863,0.107 0.971,0.485 -0.798,3.406 -3.053,5.355 -7.276,5.336 1.154,-2.887 5.87,-2.212 6.305,-5.821 z"
   clip-rule="evenodd" /><path
   style="fill-rule:evenodd"
   inkscape:connector-curvature="0"
   id="path18676"
   d="m 96.534,105.34536 c 0.783,-0.137 0.835,0.458 1.455,0.485 0.581,4.306 -4.018,5.998 -2.425,9.701 -6.227,-0.057 -0.26,-6.894 0.97,-10.186 z"
   clip-rule="evenodd" /><path
   style="fill-rule:evenodd"
   inkscape:connector-curvature="0"
   id="path18680"
   d="m 248.363,106.80036 c 3.273,3.225 7.333,8.148 5.821,14.552 -1.992,-1.754 -1.518,-4.219 -2.426,-6.306 -1.068,-2.458 -3.914,-4.6 -3.395,-8.246 z"
   clip-rule="evenodd" /><path
   style="fill-rule:evenodd"
   inkscape:connector-curvature="0"
   id="path18682"
   d="m 227.02,107.77036 c 6.413,1.466 -0.106,14.728 -3.396,9.217 1.379,-3.361 3.717,-5.332 3.396,-9.217 z"
   clip-rule="evenodd" /><path
   style="fill-rule:evenodd"
   inkscape:connector-curvature="0"
   id="path18688"
   d="m 316.274,109.71036 c 0.013,-0.472 0.594,-0.377 0.97,-0.485 2.05,0.456 1.112,2.621 0.485,3.881 1.082,-0.211 1.729,-0.857 1.94,-1.94 1.802,0.315 1.641,2.885 0.97,4.365 -3.377,0.989 -6.802,1.93 -10.672,2.426 1.378,2.274 4.135,3.852 6.307,5.821 1.947,1.767 5.189,3.751 4.365,6.791 -5.789,-5.69 -10.789,-12.172 -19.402,-15.038 -0.884,-1.38 -2.666,-1.862 -3.881,-2.91 -2.832,0.335 -3.517,-0.044 -6.791,0 -0.232,1.85 2.245,0.988 1.455,3.396 -2.354,-1.688 -4.857,-3.227 -7.762,-4.365 0.974,-1.015 5.951,-0.822 9.217,-0.485 6.025,0.622 11.4,3.51 14.553,6.306 4.039,-0.978 9.722,-2.886 8.246,-7.763 z"
   clip-rule="evenodd" /><path
   style="fill-rule:evenodd"
   inkscape:connector-curvature="0"
   id="path18690"
   d="m 276.983,110.19536 c 3.23,2.025 1.797,8.761 -1.455,9.702 -0.047,-2.917 2.075,-6.758 1.455,-9.702 z"
   clip-rule="evenodd" /><path
   style="fill-rule:evenodd"
   inkscape:connector-curvature="0"
   id="path18700"
   d="m 231.385,113.59136 c 0.472,0.013 0.377,0.594 0.485,0.97 -2.571,3.411 -3.484,8.48 -5.821,12.127 -1.323,0.354 -0.976,-0.964 -1.939,-0.971 0.3,-1.801 1.984,-2.219 1.455,-4.851 3.373,-0.991 3.564,-5.165 5.82,-7.275 z"
   clip-rule="evenodd" /><path
   style="fill-rule:evenodd"
   inkscape:connector-curvature="0"
   id="path18702"
   d="m 84.893,114.07636 c 3.464,2.357 5.176,6.466 8.731,8.731 2.708,0.203 6.645,-0.824 6.791,1.94 -5.413,0.886 -7.714,-1.341 -10.672,-2.91 -0.919,-3.034 -5.253,-4.998 -4.85,-7.761 z"
   clip-rule="evenodd" /><path
   style="fill-rule:evenodd"
   inkscape:connector-curvature="0"
   id="path18704"
   d="m 21.833,115.04636 c -0.266,1.513 -2.813,0.744 -3.881,1.455 1.517,2.364 6.73,1.031 7.276,4.365 -2.982,0.466 -6.778,-2.209 -10.187,-2.91 -0.483,-3.506 5.107,-3.148 6.792,-2.91 z"
   clip-rule="evenodd" /><path
   style="fill-rule:evenodd"
   inkscape:connector-curvature="0"
   id="path18706"
   d="m 114.483,114.56136 c -0.275,3.468 -3.563,0.94 -5.821,2.426 -1.082,0.071 0.63,1.222 0,2.425 -1.459,0.489 -0.859,-1.081 -0.97,-1.94 -1.374,0.877 -5.499,2.061 -4.852,-1.455 4.287,1.618 7.241,-1.64 11.643,-1.456 z"
   clip-rule="evenodd" /><path
   style="fill-rule:evenodd"
   inkscape:connector-curvature="0"
   id="path18708"
   d="m 217.803,115.04636 c 0.895,-0.992 4.607,1.24 2.911,2.91 -1.833,-0.107 -1.387,-2.494 -2.911,-2.91 z"
   clip-rule="evenodd" /><path
   style="fill-rule:evenodd"
   inkscape:connector-curvature="0"
   id="path18710"
   d="m 178.997,116.01636 c 2.804,2.894 6.32,7.533 5.821,12.127 -1.518,-1.53 -2.312,-4.158 -3.396,-6.306 -1.013,-2.008 -2.681,-4.087 -2.425,-5.821 z"
   clip-rule="evenodd" /><path
   style="fill-rule:evenodd"
   inkscape:connector-curvature="0"
   id="path18714"
   d="m 303.176,139.78536 c 0.202,-4.729 -0.402,-8.652 -1.939,-11.642 -2.515,-2.175 -5.835,-3.544 -5.821,-8.246 4.287,-3.124 5.16,0.76 7.276,5.82 1.347,3.226 5.125,11.043 0.484,14.068 z"
   clip-rule="evenodd" /><path
   style="fill-rule:evenodd"
   inkscape:connector-curvature="0"
   id="path18718"
   d="m 235.266,121.35236 c 0.564,-0.079 0.863,0.107 0.971,0.485 -1.499,3.189 -4.017,5.361 -6.792,7.275 -0.944,0.995 -0.677,3.204 -2.425,3.396 -0.822,-5.393 6.841,-6.383 8.246,-11.156 z"
   clip-rule="evenodd" /><path
   style="fill-rule:evenodd"
   inkscape:connector-curvature="0"
   id="path18720"
   d="m 87.319,122.32236 c 2.62,-0.188 5.222,3.827 7.275,5.821 -2.431,0.964 -2.964,-4.141 -6.306,-3.881 0.136,-1.105 -0.117,-1.823 -0.969,-1.94 z"
   clip-rule="evenodd" /><path
   style="fill-rule:evenodd"
   inkscape:connector-curvature="0"
   id="path18722"
   d="m 217.803,122.32236 c 2.194,0.317 0.033,3.636 -1.455,3.396 -0.511,-2.128 1.641,-1.593 1.455,-3.396 z"
   clip-rule="evenodd" /><path
   style="fill-rule:evenodd"
   inkscape:connector-curvature="0"
   id="path18726"
   d="m 42.206,125.23336 c 0.229,1.522 -1.306,1.281 -1.455,2.425 -8.629,-0.706 -11.498,4.349 -17.463,6.307 -0.672,0.782 -1.375,1.535 -1.94,2.425 -2.534,-1.217 -2.932,-0.284 -5.821,0 -0.416,-1.548 0.764,-1.5 0.97,-2.425 4.624,1.123 4.777,-1.1 8.246,-1.94 0.6,-1.569 -1.569,-0.371 -0.97,-1.94 2.76,-0.307 6.228,-4.006 7.761,-2.426 0.72,-0.212 -0.191,-0.62 0,-1.455 1.014,0.205 1.285,-0.332 1.94,-0.485 2.688,1.775 6.263,0.011 8.732,-0.486 z"
   clip-rule="evenodd" /><path
   style="fill-rule:evenodd"
   inkscape:connector-curvature="0"
   id="path18728"
   d="m 102.356,125.71736 c 1.948,-0.008 1.348,2.532 1.455,4.366 -1.617,2.162 -7.019,1.79 -7.762,-0.971 2.177,1.509 8.273,0.485 6.307,-3.395 z"
   clip-rule="evenodd" /><path
   style="fill-rule:evenodd"
   inkscape:connector-curvature="0"
   id="path18730"
   d="m 195.975,126.20336 c -3.114,-0.114 -7.062,3.812 -9.701,0.971 4.448,0.576 5.467,-2.651 9.701,-0.971 z"
   clip-rule="evenodd" /><path
   style="fill-rule:evenodd"
   inkscape:connector-curvature="0"
   id="path18732"
   d="m 196.945,126.20336 c 1.384,-1.054 3.893,0.135 4.852,0 0.905,0.862 -0.395,1.233 0,2.91 -0.746,-1.842 -2.605,-2.57 -4.852,-2.91 z"
   clip-rule="evenodd" /><path
   style="fill-rule:evenodd"
   inkscape:connector-curvature="0"
   id="path18736"
   d="m 49.968,126.68836 c -0.53,2.219 -4.178,1.319 -5.821,2.425 2.829,1.699 4.193,4.861 8.731,4.852 0.425,1.557 -1.258,1.005 -1.455,1.939 -4.028,-0.822 -6.814,-2.887 -9.702,-4.851 0.63,-3.574 4.531,-3.877 8.247,-4.365 z"
   clip-rule="evenodd" /><path
   style="fill-rule:evenodd"
   inkscape:connector-curvature="0"
   id="path18742"
   d="m 183.848,129.59836 c 1.85,1.501 5.838,5.423 8.246,1.94 1.403,0.214 2.212,1.022 2.426,2.426 -0.989,-0.144 -0.951,-1.312 -1.94,-1.456 -0.393,0.093 -0.483,0.487 -0.97,0.485 -0.361,1.493 1.331,0.933 0.97,2.426 -3.346,-1.505 -7.962,-1.741 -8.732,-5.821 z"
   clip-rule="evenodd" /><path
   style="fill-rule:evenodd"
   inkscape:connector-curvature="0"
   id="path18754"
   d="m 10.677,133.96436 c -0.329,2.258 -4.091,1.083 -4.851,2.91 1.349,2.693 8.317,-0.232 8.247,3.881 -2.851,1.123 -5.066,-0.64 -9.216,-0.485 -0.02,-2.083 -2.142,-2.062 -2.426,-3.881 2.735,-0.821 4.753,-2.36 8.246,-2.425 z"
   clip-rule="evenodd" /><path
   style="fill-rule:evenodd"
   inkscape:connector-curvature="0"
   id="path18758"
   d="m 252.729,135.90436 c 0.432,0.216 0.867,0.427 0.97,0.971 -0.315,6.638 -2.992,10.912 -8.246,12.611 -1.369,-3.509 3.814,-4.236 5.336,-6.791 1.489,-2.5 0.442,-4.729 1.94,-6.791 z"
   clip-rule="evenodd" /><path
   style="fill-rule:evenodd"
   inkscape:connector-curvature="0"
   id="path18760"
   d="m 86.348,137.36036 c 1.51,1.238 2.783,2.715 2.91,5.335 -4.326,-1.972 -8.613,-1.986 -14.552,-2.91 1.937,-2.494 6.278,-0.105 8.246,0.485 1.007,-0.125 0.133,-2.131 0.97,-2.426 1.429,0.188 0.948,2.286 1.94,2.911 2.248,-0.038 0.107,-2.199 0.486,-3.395 z"
   clip-rule="evenodd" /><path
   style="fill-rule:evenodd"
   inkscape:connector-curvature="0"
   id="path18762"
   d="m 193.065,140.27036 c 1.917,4.064 5.664,6.301 6.791,11.156 -3.293,-2.205 -4.581,-6.414 -7.276,-9.216 -2.216,-0.048 -4.92,0.393 -5.821,-0.971 1.644,-0.78 3.856,-0.993 6.306,-0.969 z"
   clip-rule="evenodd" /><path
   style="fill-rule:evenodd"
   inkscape:connector-curvature="0"
   id="path18764"
   d="m 304.147,141.24036 c -0.061,1.719 -2.753,0.805 -3.396,1.94 -1.118,0.499 -1.564,1.67 -3.396,1.455 0.177,-2.985 4.028,-6.056 6.792,-3.395 z"
   clip-rule="evenodd" /><path
   style="fill-rule:evenodd"
   inkscape:connector-curvature="0"
   id="path18766"
   d="m 172.692,141.24036 c 1.316,0.301 3.85,-0.615 4.365,0.485 0.319,2.099 -3.398,0.159 -3.881,1.455 0.242,1.698 1.962,1.919 1.94,3.881 -2.173,0.525 -3.071,-3.023 -2.424,-5.821 z"
   clip-rule="evenodd" /><path
   style="fill-rule:evenodd"
   inkscape:connector-curvature="0"
   id="path18768"
   d="m 236.721,141.72536 c 1.807,0.619 2.44,2.411 3.396,3.881 -2.196,-0.231 -3.46,-1.392 -3.396,-3.881 z"
   clip-rule="evenodd" /><path
   style="fill-rule:evenodd"
   inkscape:connector-curvature="0"
   id="path18770"
   d="m 104.781,142.21036 c 2.01,-0.068 0.506,3.375 0.971,4.851 -0.87,0.062 -1.023,-0.594 -1.94,-0.485 0.637,-1.14 1.35,-2.205 0.969,-4.366 z"
   clip-rule="evenodd" /><path
   style="fill-rule:evenodd"
   inkscape:connector-curvature="0"
   id="path18772"
   d="m 169.781,142.69536 c 1.741,0.98 3.294,4.284 2.911,5.821 -2.452,-0.459 -2.34,-3.481 -2.911,-5.821 z"
   clip-rule="evenodd" /><path
   style="fill-rule:evenodd"
   inkscape:connector-curvature="0"
   id="path18774"
   d="m 128.549,144.15136 c 2.742,0.169 3.119,2.701 5.336,3.396 1.163,0.192 -0.269,-2.21 1.455,-1.455 0.58,1.447 0.134,1.648 -0.484,2.91 -3.1,-0.054 -3.824,-5.168 -6.791,-2.426 -0.402,-1.371 0.683,-1.257 0.484,-2.425 z"
   clip-rule="evenodd" /><path
   style="fill-rule:evenodd"
   inkscape:connector-curvature="0"
   id="path18776"
   d="m 292.99,147.06136 c 1.432,-1.399 2.911,1.269 2.911,2.91 -1.319,-0.622 -1.397,-2.484 -2.911,-2.91 z"
   clip-rule="evenodd" /><path
   style="fill-rule:evenodd"
   inkscape:connector-curvature="0"
   id="path18780"
   d="m 64.52,147.54636 c 1.509,0.107 0.819,2.414 0.97,3.88 -2.148,0.531 -2.413,-0.821 -3.881,-0.97 1.536,-0.955 3.61,0.793 2.911,-2.91 z"
   clip-rule="evenodd" /><path
   style="fill-rule:evenodd"
   inkscape:connector-curvature="0"
   id="path18782"
   d="m 58.214,148.51636 c 0.784,-0.137 0.835,0.459 1.455,0.485 -1.358,1.39 -0.419,5.078 -1.94,6.306 -2.291,0.027 -2.833,-1.694 -4.366,-2.425 -0.917,1.508 -4.379,2.511 -5.821,1.939 -0.865,-3.613 5.259,-0.238 3.88,-4.365 2.236,0.189 2.285,2.565 4.366,2.91 0.51,-1.915 1.727,-3.123 2.426,-4.85 z"
   clip-rule="evenodd" /><path
   style="fill-rule:evenodd"
   inkscape:connector-curvature="0"
   id="path18784"
   d="m 92.169,150.94236 c 1.189,2.496 -2.4,4.381 -4.851,4.851 0.046,-1.895 0.35,-3.531 1.939,-3.881 -0.962,1.119 0.122,0.539 0.485,1.455 1.701,0.082 1.529,-1.706 2.427,-2.425 z"
   clip-rule="evenodd" /><path
   style="fill-rule:evenodd"
   inkscape:connector-curvature="0"
   id="path18786"
   d="m 37.841,153.36736 c -1.107,4.383 -9.286,2.907 -12.612,1.455 1.406,-3.096 4.968,0.548 8.246,0 1.902,0.031 2.635,-2.831 4.366,-1.455 z"
   clip-rule="evenodd" /><path
   style="fill-rule:evenodd"
   inkscape:connector-curvature="0"
   id="path18788"
   d="m 120.303,152.88236 c 1.653,0.447 0.299,1.529 1.455,2.91 1.817,2.225 3.322,4.762 5.336,6.791 -2.449,0.821 -5.671,-1.758 -6.791,-3.881 -4.697,0.96 -8.332,3.447 -12.611,2.426 0.843,-1.987 0.339,-2.479 0.97,-4.851 0.453,0.355 0.735,0.882 0.97,1.455 0.72,-0.413 1.043,-1.221 0.971,-2.426 1.69,0.25 0.711,3.169 0.97,4.851 3.897,0.664 2.255,-4.213 4.852,-4.851 -0.074,1.543 -1.101,2.134 -0.971,3.881 3.104,-0.613 3.317,-4.119 4.849,-6.305 z"
   clip-rule="evenodd" /><path
   style="fill-rule:evenodd"
   inkscape:connector-curvature="0"
   id="path18790"
   d="m 97.99,153.85236 c 1.569,0.694 2.477,2.052 2.911,3.881 1.952,0.335 1.19,-2.043 2.91,-1.94 0.237,1.531 -0.874,1.713 -0.485,3.396 -1.718,-0.85 -1.192,0.323 -2.91,0.485 -0.694,-2.217 -4.306,-1.516 -4.366,-4.366 1.394,0.525 2.303,0.787 1.94,-1.456 z"
   clip-rule="evenodd" /><path
   style="fill-rule:evenodd"
   inkscape:connector-curvature="0"
   id="path18792"
   d="m 140.676,159.18836 c 0,0.646 0,1.293 0,1.94 -1.419,-0.324 -2.384,-1.718 -3.396,0 -0.393,-0.093 -0.483,-0.487 -0.97,-0.485 0,-0.323 0,-0.646 0,-0.97 0.805,-0.812 2.848,-0.386 4.366,-0.485 z"
   clip-rule="evenodd" /><path
   style="fill-rule:evenodd"
   inkscape:connector-curvature="0"
   id="path18794"
   d="m 145.042,160.64336 c 0,0.646 0,1.294 0,1.94 -0.809,0 -1.617,0 -2.426,0 -0.309,-1.764 1.005,-1.906 2.426,-1.94 z"
   clip-rule="evenodd" /><path
   style="fill-rule:evenodd"
   inkscape:connector-curvature="0"
   id="path18796"
   d="m 225.565,188.29236 c 0.484,0 0.97,0 1.455,0 -0.282,1.797 1.496,2.812 0.485,3.881 -1.704,0.086 -1.596,-1.639 -2.911,-1.94 0.867,-0.989 1.79,-0.137 0.971,-1.941 z"
   clip-rule="evenodd" /><path
   style="fill-rule:evenodd"
   inkscape:connector-curvature="0"
   id="path18798"
   d="m 211.983,190.23336 c 1.133,0.645 1.39,2.167 1.939,3.396 -1.671,-0.073 -2.918,-2.176 -1.939,-3.396 z"
   clip-rule="evenodd" /><path
   style="fill-rule:evenodd"
   inkscape:connector-curvature="0"
   id="path18800"
   d="m 291.049,197.02436 c 2.315,1.063 2.666,1.732 5.336,0.484 -0.24,2.021 2.156,1.401 2.426,2.911 -2.741,0.078 -4.771,-1.777 -7.276,-0.485 -0.559,-0.573 -0.549,-1.715 -0.486,-2.91 z"
   clip-rule="evenodd" /><path
   style="fill-rule:evenodd"
   inkscape:connector-curvature="0"
   id="path18802"
   d="m 110.116,62.658362 c 3.298,-5.147 -0.545,-8.934 0.485,-16.008 0.731,-5.024 4.305,-8.746 4.851,-14.067 0.481,-4.696 0.333,-10.212 0,-13.582 1.805,-0.511 0.951,1.636 1.94,1.94 1.927,14.548 -6.343,21.457 -4.365,34.44 3.586,-0.779 6.262,-2.469 10.187,-2.911 -1.689,1.707 -4.463,2.328 -6.791,3.396 0.706,0.918 2.323,2.384 0.97,3.881 0.705,0.265 2.507,-0.567 2.426,0.485 -0.415,3.218 -4.816,2.246 -6.791,1.456 -4.068,7.155 7.58,2.406 10.187,5.821 -2.872,-0.123 -4.756,0.742 -7.276,0.97 0.017,1.762 2.296,1.261 2.91,2.425 -1.536,2.339 -4.147,-2.197 -5.82,-2.911 0.622,3.102 2.172,9.466 7.761,9.217 1.741,3.482 8.912,4.834 10.187,0 2.535,-0.052 4.671,-0.503 6.306,-1.456 0.319,-1.774 -1.049,-1.861 -0.97,-3.396 4.561,0.39 8.284,-3.037 8.731,-8.246 -2.745,0.792 -4.581,1.091 -7.762,0.485 -1.53,1.313 -1.302,2.505 -0.97,4.851 -1.581,-1.997 -2.428,-0.982 -4.366,0 -0.256,-0.39 -0.506,-0.788 -0.484,-1.456 -2.06,0.367 -3.719,1.133 -6.307,0.97 0.045,1.456 2.16,4.606 1.94,5.821 -3.271,0.302 -0.759,-3.776 -3.88,-4.365 1.008,-5.599 10.632,-0.498 12.126,-4.851 -0.728,-1.041 -1.186,0.347 -2.425,-0.485 -0.401,-1.371 0.684,-1.257 0.485,-2.425 -1.234,-2.324 -5.304,-1.812 -7.762,-2.911 3.662,-0.381 6.98,-1.104 8.246,-3.881 -0.352,-1.104 -2.766,-0.144 -2.425,-1.94 -0.179,-2.034 1.58,-0.346 2.425,-0.485 -0.738,-1.834 -2.99,-2.792 -0.97,-4.851 -1.289,-0.005 -2.771,0.183 -3.396,-0.485 0.457,-2.721 -1.238,-3.289 -1.455,-5.336 -2.891,0.142 -5.27,-0.229 -5.336,-2.911 0.15,-1.628 1.622,-1.935 2.91,-2.425 1.314,-3.428 3.09,-8.804 7.276,-7.761 -1.912,1.322 -3.529,2.938 -4.851,4.851 1.75,2.316 8.566,1.522 10.187,2.425 -2.667,2.993 -8.409,-0.94 -11.642,0.485 -1.152,0.508 -1.708,1.34 -2.426,2.911 3.162,2.497 8.78,2.538 14.553,2.425 -1.618,1.549 -2.508,2.364 -3.881,1.94 1.142,3.395 5.158,-0.733 6.791,-1.456 3.554,-1.025 6.279,1.922 7.761,0 -0.71,-1.426 -2.661,1.16 -2.425,-1.455 0.797,-1.791 3.651,-1.523 4.851,-2.911 0.712,1.187 -0.202,4.1 -0.485,5.821 -1.42,0.436 -1.49,0.436 -2.91,0 0.405,2.62 4.592,0.143 5.82,1.94 1.758,-1.438 4.677,-3.332 7.276,-2.425 -1.343,1.892 -4.841,1.627 -6.306,3.396 -3.552,-0.802 -3.301,2.197 -5.821,2.425 0.374,2.051 3.855,0.996 3.396,3.881 -2.319,0.541 -2.046,-1.511 -4.365,-0.97 -1.574,0.841 1.26,1.271 0.485,2.91 -0.344,1.759 -2.128,2.077 -1.456,4.851 -2.482,-1.583 0.251,-5.401 -3.396,-5.821 -0.998,0.133 -0.456,1.807 -1.455,1.94 -3.918,-1.311 -5.897,2.154 -9.701,2.426 0.699,0.618 1.988,3.36 3.881,3.88 0.229,0.063 9.317,0.105 9.701,0 2.542,-0.697 3.354,-3.135 4.365,-4.366 5.301,-0.523 11.247,-7.479 15.522,-2.425 -1.049,1.094 -1.654,-0.401 -3.396,0 0.198,1.419 1.66,1.574 2.426,2.425 -0.411,1.422 -1.562,-0.29 -2.426,0 0.105,2.336 0.924,3.178 0,5.336 -3.344,-0.051 -2.518,-4.273 -6.306,-3.881 -1.868,4.286 4.694,6.417 2.426,11.157 -2.02,-0.301 -4.183,1.017 -7.276,0.97 1.265,2.688 7.556,2.694 6.791,5.821 -3.765,-1.571 -7.2,-3.472 -11.642,-4.365 2.112,3.061 7.841,2.507 9.216,6.306 -3.385,-1.149 -6.674,1.198 -9.701,1.94 -0.435,1.566 1.582,0.682 1.94,1.455 -2.044,1.392 -5.293,-0.07 -6.307,1.455 0.117,1.5 3.992,-0.758 3.396,1.456 -2.357,-0.487 -4.638,0.83 -5.821,0 0.054,-0.917 1.604,-0.337 1.455,-1.456 -0.067,-1.387 -2.023,-0.887 -3.396,-0.97 -1.167,0.75 0.294,3.373 -1.94,1.94 -0.361,1.493 1.332,0.933 0.971,2.425 -1.125,-0.154 -1.862,0.078 -2.426,0.485 2.55,3.676 1.549,12.078998 -0.485,15.521998 -1.741,-1.234 0.583,-4.107 0,-6.790998 -0.403,-1.858 -1.983,-2.713 -2.91,-3.881 -2.754,0.566 -2.383,4.723 -3.396,6.790998 -1.132,2.312 -2.649,6.069 -2.426,10.187 -3.536,-3.675 -0.852,-12.014998 1.94,-15.036998 -2.405,-5.121 -1.755,-9.125 -3.396,-13.582 -2.994,1.356 -3.372,-1.452 -5.336,-2.425 -2.216,-0.048 -5.013,0.486 -5.335,-1.456 -0.179,-1.472 1.58,-1.007 2.425,-1.455 0.234,-1.528 -2.224,-0.363 -2.425,-1.455 -2.928,1.438 -3.256,5.476 -7.276,5.821 -1.138,-4.552 6.313,-4.227 7.276,-8.246 -0.898,-1.483 -0.728,2.138 -2.426,1.455 -1.036,-0.991 0.137,-1.919 0.485,-2.911 -0.469,-1.954 -3.041,-2.734 -1.456,-5.335 -1.432,-2.378 -5.065,0.127 -6.306,-1.94 -0.398,-1.854 2.339,-0.572 1.94,-2.425 -2.519,-5.082 -7.167,-8.032 -9.701,-13.097 -1.703,-0.086 -1.596,1.639 -2.911,1.94 0,0.808 0,1.617 0,2.425 -7.439,6.951 -6.472,22.309 -11.642,31.53 -1.209,0.408 -2.599,0.635 -4.365,0.485 -3.384,1.144 -4.266,4.79 -7.276,6.306 -1.762,7.131 -6.791,10.995998 -8.731,17.947998 -7.877,5.381 -17.3,9.218 -26.679,13.097 -4.205,5.659 -13.348,6.38 -18.918,10.672 -1.446,-0.01 -2.956,0.045 -2.911,-1.455 2.577,-0.334 4.424,-1.397 5.821,-2.91 6.585,-1.015 12.163,-3.037 15.038,-7.762 3.729,-1.121 7.111,-2.59 10.187,-4.365 5.129,-0.207 8.038,-2.634 11.157,-4.851 -0.355,-0.453 -0.882,-0.735 -1.456,-0.971 0.999,-1.427 4.423,-0.428 5.336,-1.94 0.178,-0.825 -0.378,-0.915 -0.97,-0.97 0.639,-0.979 1.593,-1.642 2.911,-1.94 1.505,-6.416998 6.659,-9.186998 7.761,-16.006998 3.026,-2.633 5.538,-5.781 7.761,-9.216 2.783,-0.127 3.686,-2.135 5.335,-3.396 -0.408,-1.733 -2.01,-0.006 -3.396,0 -3.176,0.014 -7.389,-1.061 -8.731,-1.94 -1.324,-0.354 -0.977,0.964 -1.94,0.97 -4.647,-0.177 -8.757,-3.584 -13.582,-3.881 -3.728,-0.229 -8.796,0.949 -13.097,1.456 -4.663,0.548 -9.332,1.239 -13.582,1.94 -2.208,0.364 -4.131,1.496 -6.306,1.94 -6.745,1.379 -13.688,1.077 -19.403,2.911 -0.695,-0.598 -0.919,-1.668 -0.97,-2.911 7.567,-1.067 13.729,-1.017 19.403,-3.396 12.206,0.211 25.465,-2.647 37.351,-4.366 -0.12,0.527 -0.964,0.329 -0.97,0.97 3.491,-1.524 12.056,-2.516 16.978,-2.911 -0.872,-1.553 -3.195,-1.656 -4.366,-2.91 -4.037,3.04 -13.341,5.072 -17.462,0.485 4.239,1.697 14.154,2.604 13.582,-2.425 3.43,-0.674 9.224,0.473 10.187,3.881 3.889,0.654 5.079,-1.389 8.731,-0.97 2.265,-5.496 4.576,-10.946 7.761,-15.522 -3.471,-4.022 -6.783,-9.046 -10.671,-13.582 -1.72,-2.006 -5.346,-3.689 -4.366,-6.791 2.533,-0.431 2.479,1.725 3.396,2.91 3.395,4.69 8.104,8.066 10.672,13.582 1.718,0.162 1.192,1.334 2.91,0.485 1.123,-1.478 -1.857,-2.092 -1.94,-3.881 -0.985,-1.223 1.165,0.928 1.455,1.456 0.985,0.148 -0.099,-1.401 -0.484,-1.456 0.271,-1.405 0.756,0.744 1.455,0.485 1.657,-0.93 1.716,-3.458 2.425,-5.336 -3.428,-2.882 -5.093,-9.553 -11.156,-8.246 -0.033,-2.62 2.934,-2.241 2.91,-4.851 1.201,0.468 -0.668,1.863 0,3.396 4.897,0.762 8.213,3.106 11.157,5.821 1.276,-0.502 2.977,-0.581 4.851,-0.485 0.651,-0.319 0.903,-1.037 0.97,-1.94 1.377,-0.083 0.947,1.641 2.911,0.97 -1.387,3.464 -2.678,7.024 -5.336,9.216 0.465,-2.93 2.083,-4.708 2.91,-7.276 -1.796,1.298 -4.164,4.433 -6.791,7.276 -1.41,1.527 -4.135,3.383 -3.396,5.336 0.61,-0.12 0.489,-0.964 0,-0.97 5.412,3.003 9.33,11.695 15.039,16.01 z m 25.709,-13.097 c -0.211,-1.083 -0.857,-1.729 -1.94,-1.94 -0.994,1.459 0.594,3.047 1.94,1.94 z m -0.485,7.276 c 2.719,-0.041 6.228,-1.843 5.336,-3.88 -1.034,2.037 -4.948,1.195 -5.336,3.88 z m -22.798,2.911 c 0.65,0.593 2.808,-0.043 3.881,-0.485 0.074,-1.207 -0.763,-1.502 -0.971,-2.426 -0.809,0 -1.617,0 -2.425,0 0.011,1.143 -0.835,1.428 -0.485,2.911 z m 38.806,8.731 c 0.008,0.801 1.346,0.271 1.455,0.97 -0.354,2.648 -3.197,-0.207 -3.88,1.94 1.557,-0.425 1.005,1.258 1.939,1.456 0.267,-1.969 3.524,-3.481 3.881,-6.791 -0.972,-0.807 -1.797,-1.76 -3.396,-1.94 -0.152,0.656 -0.69,0.926 -0.485,1.94 1.533,-0.078 2.928,-0.017 3.396,0.97 -0.632,1.719 -3.079,-0.221 -2.91,1.455 z m -74.216,-0.485 c 1.613,2.268 2.464,5.297 5.336,6.306 -0.244,-1.513 1.602,-5.61 0.97,-7.276 -1.688,0.738 -3.975,0.876 -6.306,0.97 z m -2.911,0.97 c -5.088,-0.399 -8.546,0.832 -12.126,1.94 5.208,1.422 10.933,2.325 16.492,3.396 -1.464,-2.85 -2.126,-3.592 -4.366,-5.336 z m -16.492,2.425 c -0.378,0.107 -0.564,0.406 -0.485,0.97 3.67,1.346 9.25,3.357 14.067,1.94 -4.231,-0.987 -9.425,-3.449 -13.582,-2.91 z m 16.492,4.366 c 2.179,-0.238 3.635,0.246 5.336,0.485 0.6,-2.112 -5.324,-2.134 -5.336,-0.485 z m 54.813,15.522 c 2.405,-0.375 3.232,-0.651 4.366,0.97 0.375,-3.205 -1.303,-8.34 -4.852,-9.216 2.286,2.684 0.408,5.957 0.486,8.246 z"
   clip-rule="evenodd" /><path
   style="fill-rule:evenodd"
   inkscape:connector-curvature="0"
   id="path18804"
   d="m 84.407,32.583362 c 3.214,1.799 4.228,5.797 6.791,8.246 -2.536,-0.541 -4.834,-5.508 -6.791,-8.246 z"
   clip-rule="evenodd" /><path
   style="fill-rule:evenodd"
   inkscape:connector-curvature="0"
   id="path18806"
   d="m 225.565,48.106362 c 0.193,2.456 2.88,-0.938 1.455,1.94 1.876,0.26 2.368,-0.866 4.365,-0.485 -0.041,0.688 -0.08,1.374 0.485,1.455 -0.133,0.999 -1.807,0.457 -1.94,1.455 1.757,1.907 4.39,0.173 6.791,0 0,0.809 0,1.617 0,2.426 -1.246,-1.29 -0.693,0.933 -1.94,0.97 -1.849,0.232 -0.988,-2.245 -3.396,-1.455 -0.59,0.311 1.199,2.326 0.485,4.366 2.491,-0.922 4.739,-0.296 5.821,1.455 -0.886,1.529 -2.943,-2.928 -3.881,0 0.411,0.721 1.562,0.702 2.426,0.97 -1.146,1.544 -0.403,1.961 -0.971,3.881 2.987,-0.731 6.484,-0.953 7.762,-3.396 1.302,2.459 -4.08,3.279 -2.911,5.821 0.83,1.455 1.766,0.539 3.396,0.485 -0.935,2.622 -1.157,5.958 -3.881,6.791 0.51,2.078 4.943,0.231 4.852,2.911 -2.124,0.184 -2.494,-1.386 -4.366,-1.455 0.226,3.17 5.831,0.96 5.336,4.851 -1.564,0.3 -6.034,-1.585 -4.851,0.485 -1.35,0.646 -2.394,-1.382 -4.365,-1.455 -2.082,-0.077 -3.617,1.267 -5.336,1.94 2.103,1.454 4.121,2.993 6.306,4.366 4.74,-0.438 8.308,-4.624 12.127,-4.366 1.258,-3.237 7.018,-10.228 10.187,-5.336 -1.767,-0.15 -3.157,0.077 -4.366,0.485 0.434,1.506 1.783,2.098 3.396,2.425 1.001,4.174 7.684,2.665 9.217,6.306 -5.019,-1.125 -8.363,-3.925 -13.097,-5.335 -0.159,2.099 1.638,2.243 2.91,2.91 -3.329,3.751 11.523,4.034 12.612,8.247 -3.881,-0.97 -6.483,-3.219 -10.187,-4.366 0.651,2.265 5.752,4.268 8.246,6.306 -0.172,0.637 -0.854,0.763 -0.971,1.456 0.397,1.381 3.509,0.049 3.396,1.94 -3.501,0.268 -4.169,-2.298 -7.761,-1.94 -0.416,-1.992 2.171,0.575 2.91,-0.97 -1.073,-1.999 -3.044,-3.1 -4.851,-4.366 -1.565,1.755 1.66,2.846 1.94,4.366 -1.46,1.317 -2.165,-1.062 -4.366,-0.485 0,0.485 0,0.97 0,1.456 4.918,1.226 8.509,3.78 12.127,6.305998 2.303,-1.254 4.682,-2.432998 8.731,-1.939998 3.729,-1.606 7.268,-3.405 11.157,-4.851 0.728,4.91 -6.832,5.354998 -10.187,7.760998 -0.038,2.463 2.143,2.708 2.91,4.366 -0.884,3.403 0.039,6.657 -0.485,9.216 -0.473,2.311 -2.246,3.731 -2.425,6.306 -1.015,0.279 -1.385,1.203 -2.911,0.971 0.871,2.338 3.53,5.352 1.455,7.761 2.726,4.875 8.952,6.248 11.157,11.642 -4.979,-3.752 -9.445,-8.018 -14.067,-12.126 0.422,-1.411 0.727,-0.546 1.94,-0.485 0.147,-2.25 -0.005,-4.199 -0.97,-5.336 -1.929,0.488 -0.466,2.923 -0.485,4.365 -1.471,-0.793 -1.597,-2.93 -3.881,-2.91 2.36,-3.784 7.428,-4.861 8.731,-9.701 0.066,-2.007 -1.103,-2.778 -1.94,-3.881 1.556,-0.601 3.373,-4.824 1.455,-5.821 -0.808,0.647 -0.753,2.157 -1.455,2.911 -2.317,-1.078 -2.744,-4.047 -5.336,-4.851 -1.173,0.39 1.522,1.997 0,2.911 -1.641,0.187 -0.763,-2.147 -2.91,-1.455 -2.201,0.603 0.838,1.41 -0.485,2.425 -3.202,-1.531 -5.361,0.674 -8.731,-1.455 -0.939,0.516 -0.116,2.794 -1.455,2.91 2.361,2.976 2.237,8.435 5.821,10.188 -0.473,2.018 1.878,4.695 -0.971,4.851 -0.546,-8.554 -8.835,-11.8 -8.73,-19.403 -0.311,-1.63 -2.326,-1.555 -4.366,-1.455 0.236,1.722 3.374,3.068 1.455,5.336 -1.134,-1.147 -3.245,-3.296 -2.425,-4.851 -1.371,-0.401 -1.257,0.684 -2.426,0.485 0.125,-1.794 0.948,-2.143 -1.455,-1.94 -0.207,-2.471 0.745,-3.782998 1.455,-5.335998 3.433,0.522 4.336,-1.485 5.336,-3.396 -0.905,-0.712 -1.287,-1.946 -2.91,-1.94 -0.401,-1.371 0.684,-1.256 0.484,-2.425 0.073,-1.528 -2.705,-0.205 -1.939,-2.425 -3.839,2.629 -2.453,10.483 -8.731,10.672 -0.336,-1.912 -0.553,-2.149 1.455,-2.426 -0.44,-1.76 -1.432,-0.295 -2.911,-0.485 -0.089,-0.413 0.189,-0.458 0.485,-0.485 1.63,0.498 0.755,-1.509 0.971,-2.426 -1.794,-0.338 -2.144,0.768 -1.94,2.426 -1.85,1.222 -4.042,2.102 -4.851,4.366 1.123,1.090998 4,-0.18 4.365,-1.456 1.361,2.519998 7.985,-0.224 7.276,4.365998 -2.091,-0.173 -4.146,-0.382 -5.336,-1.455 -0.861,1.169 0.819,3.4 -1.94,3.396 -0.132,1.647 0.376,3.933 -0.485,4.851 -1.315,-0.624 -1.47,-2.411 -1.455,-4.366 -1.459,-0.489 -0.859,1.081 -0.97,1.94 -1.884,-0.779 -2.8,-3.748 -5.821,-1.94 -0.351,-1.482 0.496,-1.768 0.485,-2.91 1.369,0.049 2.06,1.828 3.396,0.485 0.043,-1.983 -2.403,-1.478 -2.91,-2.909998 0.44,-1.761 1.432,-0.295 2.91,-0.485 1.359,-0.476 -0.704,-1.294 0.485,-1.94 1.023,-0.431 1.434,-1.477 2.91,-1.455 0.297,-4.554 4.347,-5.355 4.851,-9.702 -0.574,-0.384 -3.306,1.201 -3.881,2.425 -3.268,-2.086 -6.455,0.711 -9.701,1.456 0.251,-2.498 3.814,-1.683 4.365,-3.881 -0.032,-1.422 -1.108,-1.801 -1.939,-2.425 -3.025,0.831 -5.837,1.24 -8.247,-0.485 6.078,0.866 8.148,-4.634 15.038,-4.366 2.396,-5.777 -6.609,-8.486 -3.396,-13.582 -1.269,-2.372 -4.22,-5.369 -2.911,-8.731 -0.361,-1.094 -2.721,-0.189 -3.88,-0.485 -1.385,-2.172 -4.055,-3.06 -3.396,-7.276 5.811,-3.567 6.716,-12.04 17.462,-10.671 -0.72,1.867 -3.083,2.091 -5.82,1.94 -0.227,1.035 0.692,0.924 1.455,0.97 0.795,3.222 -2.477,4.414 -4.366,3.396 -2.31,1.398 -3.936,3.491 -7.275,3.871 z m 30.074,38.321 c 0.435,-1.566 -1.582,-0.682 -1.94,-1.456 -0.066,2.015 -0.319,0.098 -0.97,0 -1.65,2.982 -1.005,1.274 0.485,3.881 0.152,-1.141 2.299,-0.288 1.939,-1.94 -0.834,-0.191 -1.243,0.72 -1.455,0 0.657,-0.153 0.927,-0.691 1.941,-0.485 z m 6.791,19.402998 c 0.396,-1.22 2.558,-0.676 3.396,-1.455 0.076,0.571 -0.083,1.377 0.485,1.455 0.604,-2.816 3.354,-0.501 4.851,-2.425 -2.478,-1.966 -4.847,0.068 -5.821,0 -0.196,-0.014 0.2,-1.511 -0.484,-1.455 -0.082,0.006 0.087,1.376 0,1.455 -0.753,0.68 -2.866,0.223 -2.911,-0.97 -0.677,-1.394 1.322,-2.463998 0,-2.909998 -0.623,1.255998 -1.003,1.523998 -2.425,0.969998 -0.254,1.716 -0.584,3.019 0.97,3.881 -0.088,-1.058 0.397,-1.543 1.455,-1.455 0.425,1.714 -1.247,2.497 0.484,2.909 z"
   clip-rule="evenodd" /><path
   style="fill-rule:evenodd"
   inkscape:connector-curvature="0"
   id="path18808"
   d="m 240.602,46.166362 c 1.335,-0.987 4.205,0.627 4.365,2.425 0.904,-0.067 1.621,-0.319 1.94,-0.97 0.07,-1.364 -1.188,-1.399 -2.425,-1.455 0.124,-1.278 0.999,-1.592 -0.971,-1.455 1.772,-1.912 -0.204,-3.002 0,-5.336 3.033,1.393 5.328,5.593 5.336,8.246 0.001,0.246 -0.928,1.111 -0.97,0.97 0.992,3.319 3.731,4.692 4.851,7.761 -0.653,5.458 6.148,7.348 9.701,10.187 4.028,3.571 5.059,10.141 9.701,13.097 0.017,2.125 2.558,3.633 1.456,5.335 -2.394,0.13 -1.921,-2.606 -2.911,-3.88 -4.854,-5.333 -7.207,-13.166 -14.552,-16.007 -1.019,-2.377 -2.742,-4.049 -4.851,-5.336 -1.439,0.986 -3.757,1.095 -4.852,2.425 -1.146,-0.632 -0.935,-2.622 -1.455,-3.88 1.62,-0.417 2.076,-1.996 1.455,-3.396 -4.274,2.741 -7.595,-6.7 -12.611,-3.396 -0.975,-0.989 0.214,-0.951 0.485,-1.94 -0.15,-1.025 -1.685,0.509 -1.456,1.455 -0.698,-0.11 -0.169,-1.448 -0.97,-1.455 0.071,-1.061 1.222,-1.042 2.426,-0.97 0.178,-1.472 -1.58,-1.007 -2.426,-1.455 2.229,-1.237 3.84,0.112 5.821,0 0.081,1.052 -1.721,0.22 -2.426,0.485 2.249,2.266 6.827,2.126 10.187,4.366 0.154,0.103 -0.149,0.856 0,0.97 1.477,1.132 3.358,1.536 4.366,2.91 0.287,1.548 -0.911,1.5 0,2.426 0.39,-0.257 0.787,-0.506 1.455,-0.485 0.027,-2.291 -1.771,-2.756 -2.911,-3.88 0.477,-1.487 1.295,0.557 1.94,0.485 -0.115,-1.502 -1.35,-1.884 -1.94,-2.91 -0.568,0.078 -0.409,0.884 -0.484,1.455 -3.584,-1.104 -3.833,-5.545 -7.274,-6.792 z"
   clip-rule="evenodd" /><path
   style="fill-rule:evenodd"
   inkscape:connector-curvature="0"
   id="path18810"
   d="m 172.692,107.77036 c -0.068,1.388 -2.023,0.887 -3.396,0.97 1.225,2.333 3.818,3.296 6.791,3.881 0.075,1.369 -1.372,1.216 -1.94,1.94 -5.312,-0.671 -7.961,-4.004 -13.582,-4.366 -0.567,-1.535 -0.79,-3.414 -2.426,-3.88 1.902,-1.357 3.642,2.942 5.821,1.455 -0.391,-1.874 -2.201,-2.326 -3.396,-3.396 -3.811,2.031 -12.374,0.474 -11.642,-3.396 2.284,0.14 3.434,1.416 6.306,0.97 1.569,0.558 -1.303,0.549 -1.94,0.485 0.363,3.075 3.382,0.192 4.365,-0.485 -1.29,-0.488 -2.154,-1.402 -2.425,-2.910998 -2.316,1.556998 -7.146,0.971998 -10.187,0.485 -1.069,-1.195 -1.776,-2.751 -3.396,-3.396 1.628,-2.09 1.567,-5.87 3.396,-7.761 8.865,-1.16 15.343,-4.706 19.888,-10.187 0.127,-1.42 -1.097,-1.49 -0.97,-2.91 3.645,-3.793 3.848,-11.028 4.365,-17.948 2.159,2.092 -0.107,5.833 1.455,8.731 -1.355,3.495 -1.91,7.791 -4.365,10.187 1.737,-1.137 5.087,-0.583 7.276,-1.456 3.402,-1.357 5.582,-5.668 10.187,-4.851 2.671,-1.371 4.73,-3.354 7.761,-4.366 0.018,3.251 -1.727,4.741 -3.881,5.821 2.8,4.226 8.404,2.643 14.067,3.881 -0.15,2.274 -2.888,1.962 -3.396,3.88 6.589,2.79 12.885,5.872 16.978,11.157 4.224,-0.789 2.854,-7.17 7.276,-7.761 -1.219,2.824 -2.941,5.143 -3.881,8.247 2.998,-0.074 1.296,-4.849 3.881,-5.336 0,1.132 0,2.264 0,3.396 2.197,0.742 -0.257,-3.167 1.94,-2.425 0.407,0.563 0.64,1.3 0.485,2.425 1.221,1.623 1.912,1.896 4.365,1.455 1.959,2.431 4.855,7.008 0.97,8.731 -3.001,-1.208 -7.88,-3.107 -11.156,-2.425 -0.864,-0.355 -0.069,-0.882 0,-1.455 -7.013,-4.953 -12.494,-11.436 -21.344,-14.552 -1.651,0.328 2.138,1.612 0.485,1.94 -1.866,-0.397 -4.148,-0.378 -4.365,-2.425 -2.466,1.243 1.147,2.878 0.97,4.851 -1.644,0.847 -4.138,-0.954 -3.396,2.911 -2.005,-0.42 -2.713,-2.138 -3.396,-3.88 0.392,-0.417 1.329,-0.289 1.455,-0.97 -0.579,-1.521 -1.66,-0.167 -2.91,-1.456 -1.357,1.781 -0.012,5.557 0,5.821 0.196,4.258 -0.344,6.15 -2.426,10.187 2.492,-0.096 4.429,-0.746 5.336,-2.425 4.886,3.845 8.82,8.642998 10.672,15.521998 2.896,0.632 2.827,-1.699 5.336,-1.455 -2.386,-3.784 -3.683,-7.294 -6.791,-10.186998 -2.627,-2.444 -7.507,-3.288 -8.731,-7.761 0.688,0.042 1.374,0.08 1.455,-0.485 5.04,5.631 13.545,7.799 15.037,16.977998 5.997,-1.441 7.136,-7.74 10.187,-12.126998 1.422,0.411 -0.29,1.562 0,2.425 3.13,-1.466 5.638,3.356998 10.187,3.395998 0.416,1.548 -0.763,1.5 -0.97,2.425 -2.817,-1.225 -4.948,-3.136 -6.791,-5.334998 -0.961,-0.747 -1.807,1.694998 -2.426,1.939998 -0.216,0.085 -0.71,-0.721998 -0.97,-0.485 -1.382,1.259 -0.924,2.708 -1.94,4.366 -1.517,2.475 -4.471,4.108 -5.821,6.306 1.748,6.319 8.155,6.347 8.731,12.127 0.465,4.663 -5.177,10.467 -2.425,15.037 3.178,-2.615 4.727,1.121 7.276,1.94 1.123,-0.97 -1.56,-6.113 1.455,-6.306 -1.448,2.289 -0.753,4.356 1.455,5.336 2.224,0.122 2.009,-2.195 4.365,-1.94 0.065,-1.552 -0.478,-3.712 1.455,-3.396 0.442,3.822 0.965,5.272 -0.484,8.731 2.062,0.191 3.148,-2.318 4.851,-0.971 -5.065,6.786 -12.221,-2.459 -18.918,-2.91 -1.099,1.873 1.092,1.305 0.97,3.396 -1.76,0.467 -0.407,-2.18 -1.94,-1.94 -2.188,-0.086 -2.32,1.884 -3.395,2.91 0.135,0.997 1.295,0.969 1.939,1.456 -1.242,1.469 -2.606,-1.402 -4.851,0.97 -1.085,-1.328 1.198,-2.394 1.455,-3.881 -0.731,-2.664 -2.016,-4.775 -2.91,-7.275 -9.041,0.3 2.396,7.902 -1.455,11.642 0.703,0.913 0.713,2.521 1.94,2.91 1.378,0.085 -0.587,-3.173 1.455,-2.425 -0.651,5.909 -2.796,12.822 -6.306,16.492 -1.093,1.143 -3.052,2.415 -2.911,4.851 0.155,2.664 2.148,3.247 3.881,5.336 2.771,-0.021 5.53,-0.033 5.821,2.425 -1.232,-1.647 -2.701,-0.463 -4.366,0 -2.479,-0.432 -2.554,-3.267 -5.336,-3.396 -5.443,-9.506 6.352,-13.315 7.762,-21.828 -2.036,-1.285 -4.435,-4.847 -2.426,-7.276 -0.543,-3.595 -4.071,-3.854 -4.365,-6.791 -0.451,-4.506 7.322,-8.057 4.851,-14.066 0.066,-0.903 0.319,-1.621 0.97,-1.94 -1.814,-1.257 -3.01,-3.135 -4.851,-4.366 -7.24,1.613 -11.711,2.418 -19.402,1.456 0.662,-2.118 -1.879,-1.032 -1.456,-2.911 1.455,0 2.911,0 4.366,0 0.179,0.825 -0.379,0.915 -0.971,0.971 0.63,2.42 4.581,-1.075 1.456,0 3.021,-1.039 5.498,-0.474 8.246,-2.911 -0.641,-0.607 -5.454,-1.273 -5.336,0.485 -1.463,-0.316 -1.652,-1.905 -2.91,-2.426 -3.746,0.188 -6.229,-0.886 -8.731,-1.939 -0.335,2.437 1.948,2.255 1.455,4.851 -1.857,-1.054 -2.506,-3.315 -3.396,-5.336 2.094,-1.14 4.457,-2.011 7.276,-2.425 0.907,-2.201 -1.928,-0.66 -1.456,-2.425 1.879,-0.302 1.998,-0.402 3.396,0.485 -0.355,0.864 -0.882,0.07 -1.455,0 0.007,4.713 6.654,-0.94 7.762,1.94 -0.62,1.384 -4.575,1.257 -5.821,0.485 -1.479,0.299 -1.38,2.177 -3.881,1.455 0.405,1.697 3.06,1.145 4.366,1.94 1.487,-0.477 -0.558,-1.294 -0.485,-1.94 0.225,-0.658 1.847,1.349 1.94,2.426 3.354,0.441 8.194,1.726 11.156,0.97 -1.274,-2.282 -1.484,-5.63 -5.335,-5.335 0.078,-0.569 0.884,-0.409 1.455,-0.485 -3.155,-8.332998 -16.076,-1.956 -23.284,-3.396 -0.137,-0.783 0.459,-0.835 0.485,-1.455 -1.47,1.174 -3.262,1.573 -3.881,2.425 -1.859,0.088 -0.176,-0.397 -0.484,-1.455 -2.087,0.198 -0.645,1.66 -1.456,2.425 -0.622,-0.667 -2.9,-0.844 -2.91,0.485 2.214,1.862 5.61,3.909 7.276,4.851 0.04,-2.154 1.142,-0.928 3.885,-0.974 z m 45.111,-14.066998 c 4.272,0.255 6.162,2.894 10.672,2.911 -0.355,-1.747 -1.754,-2.45 -1.455,-4.851 -2.25,-0.407 -3.001,0.211 -3.881,-0.97 -0.806,0.972 -1.303,2.254 -2.91,2.425 -0.083,-1.372 0.417,-3.328 -0.971,-3.396 -0.246,1.533 -1.428,2.13 -1.455,3.881 z m 12.127,2.91 c 1.096,-1.57 -1.187,-3.115 -2.425,-3.881 0.843,1.259 0.681,3.523 2.425,3.881 z m -17.947,39.775998 c -0.334,-1.95 0.465,-2.769 0.484,-4.365 -3.641,-0.568 -3.932,2.213 -4.851,4.365 1.373,0.598 2.995,0.598 4.367,0 z M 186.274,79.636362 c 1.631,-2.432 8.935,1.728 9.216,-2.911 -2.435,-2.229 -6.212,-0.11 -9.216,0 0.164,-1.291 1.21,-1.7 1.455,-2.91 -0.699,-0.272 -1.184,-0.757 -1.455,-1.456 -3.253,1.695 -4.849,0.011 -8.731,0 2.164,3.171 6.251,4.42 8.731,7.277 z m -25.225,19.888 c 0.144,-0.989 1.312,-0.952 1.456,-1.94 -1.922,-0.43 -2.965,0.105 -3.881,-0.485 0,-0.485 0,-0.97 0,-1.455 4.566,-0.772 9.283,-3.97 13.097,-3.88 -2.648,0.988 -2.105,2.154 -3.881,3.88 2.058,-1.015 4.611,-1.534 7.276,-1.94 0.755,-1.724 -1.647,-0.292 -1.455,-1.455 3.759,-0.607 6.688,-2.044 10.187,-2.911 -0.424,0.855 -1.623,1.502 0,1.94 0.152,-1.018 3.257,-1.542 1.455,-2.911 -0.871,2.337 -0.781,-0.84 -0.97,-0.97 -0.441,-0.304 -1.456,0.242 -1.94,0 -0.996,-0.499 -0.589,-2.977 -1.94,-1.94 -0.925,0.207 -0.878,1.386 -2.425,0.97 -1.266,-1.087 -1.015,-1.845 -2.426,-1.94 0.806,-0.973 1.303,-2.255 2.91,-2.425 2.099,0.812 2.114,3.707 5.336,3.396 -0.117,-2.658 1.566,-4.6 0.485,-6.791 -2.281,2.31 -3.019,-1.492 -5.336,-1.94 -0.799,0.818 -1.054,2.18 -1.94,2.911 -1.011,-1.068 0.768,-2.083 0.485,-3.881 -3.022,-0.755 -7.657,1.071 -10.187,0.97 -2.561,7.626 -10.927,9.446 -17.948,12.612 -0.074,1.207 0.763,1.502 0.971,2.426 2.753,-1.311 5.317,0.492 4.851,3.88 -0.809,0 -1.617,0 -2.426,0 -0.108,-0.917 0.547,-1.07 0.485,-1.94 -2.307,-0.366 -2.658,1.223 -3.881,1.94 3.427,4.059 9.588,0.354 11.642,3.879 z m 8.732,-3.396 c 0.443,0.851 0.167,2.42 0.971,2.911 0.198,-0.609 0.625,-0.991 1.455,-0.97 1.671,1.171 6.386,2.145998 8.731,0.97 2.421,-1.213 2.035,-4.228 2.91,-6.306 -6.608,-2.342 -8.945,5.94 -14.067,3.395 z m -8.247,5.335998 c 0.377,0.109 0.957,0.013 0.971,0.485 1.78,0.002 1.858,-1.699 2.91,-2.424998 0.636,1.243998 3.585,-0.109 1.94,-0.97 -0.874,1.749998 -1.521,-0.673 -1.94,-0.97 0.278,2.863998 -4.094,1.079 -3.881,3.879998 z m 10.672,10.671 c -2.339,-0.733 -3.39,-2.754 -6.306,-2.91 0.528,2.232 4.774,3.296 6.306,2.91 z m 28.134,-0.969 c -0.165,2.202 1.336,2.735 2.911,1.94 -2.086,2.353 3.014,4.659 5.336,7.761 1.77,2.364 2.114,4.208 3.396,6.307 0.914,-0.645 1.352,-1.812 1.455,-2.911 0.27,-2.877 -6.302,-12.122 -6.307,-12.127 -0.453,-0.395 -1.995,0.41 -1.939,-0.484 0.137,-0.569 2.137,-2.016 0,-1.94 -0.998,1.103 -2.53,1.673 -4.852,1.454 z m -6.306,1.455 c 0.354,2.617 -3.764,0.764 -3.881,2.91 3.911,0.03 7.927,0.165 9.702,-1.939 -1.573,-1.747 -2.717,-0.907 -5.821,-0.971 z"
   clip-rule="evenodd" /><path
   style="fill-rule:evenodd"
   inkscape:connector-curvature="0"
   id="path18812"
   d="m 47.542,67.994362 c -0.56,-0.948 4.284,0.371 5.335,0.97 -1.423,1.234 -3.497,-1.008 -5.335,-0.97 z"
   clip-rule="evenodd" /><path
   style="fill-rule:evenodd"
   inkscape:connector-curvature="0"
   id="path18814"
   d="m 45.116,68.964362 c -0.639,1.397 -3.075,0.997 -4.365,0.485 0.412,-0.72 1.221,-1.043 2.425,-0.97 -0.079,0.564 0.107,0.863 0.485,0.97 0.391,-0.257 0.788,-0.506 1.455,-0.485 z"
   clip-rule="evenodd" /><path
   style="fill-rule:evenodd"
   inkscape:connector-curvature="0"
   id="path18820"
   d="m 50.452,105.34536 c 2.44,-0.338 3.381,0.823 5.821,0.485 -0.519,3.109 -4.986,-0.245 -7.276,1.455 -1.081,1.992 -3.49,2.654 -5.821,3.396 1.08,2.448 2.195,-1.067 4.366,-0.485 0.894,2.896 -2.239,1.972 -3.396,2.426 -2.074,0.815 -4.599,2.106 -6.791,1.94 -0.918,1.022 -2.792,1.089 -3.396,2.426 -1.371,0.4 -1.257,-0.685 -2.426,-0.485 -1.753,0.349 -1.386,2.817 -3.396,2.91 0.36,-4.739 8.455,-4.652 12.127,-7.276 -3.133,-0.605 -6.933,1.09 -10.187,0.971 -0.967,1.754 -4.368,3.209 -6.791,1.94 0.061,-1.071 2.058,-0.206 2.911,-0.485 6.535,-4.626 19.223,-3.094 24.255,-9.218 z"
   clip-rule="evenodd" /><path
   style="fill-rule:evenodd"
   inkscape:connector-curvature="0"
   id="path18822"
   d="m 58.699,114.07636 c -0.077,2.35 -2.617,2.234 -4.366,2.911 -1.445,1.789 -4.789,1.679 -5.821,3.88 0.09,-2.069 3.439,-2.887 5.821,-4.365 1.458,-0.906 2.659,-2.427 4.366,-2.426 z"
   clip-rule="evenodd" /><path
   style="fill-rule:evenodd"
   inkscape:connector-curvature="0"
   id="path18824"
   d="m 269.221,138.33036 c -0.98,-1.444 -2.773,-2.077 -3.881,-3.396 0.133,4.175 0.04,8.124 -1.939,10.187 -0.439,-0.96 0.881,-2.698 0.97,-3.881 0.604,-8.034 -6.993,-12.725 -5.821,-22.313 -0.278,-1.984 -2.232,-2.294 -2.425,-4.365 7.419,3.014 3.128,15.091 9.701,18.433 1.851,-1.597 0.476,-3.322 0.971,-5.336 3.376,0.343 4.381,3.057 6.791,4.366 -0.747,0.87 -2.844,0.391 -2.911,1.94 0.586,1.354 1.556,2.324 2.911,2.91 1.466,-1.422 -0.993,-1.062 -0.485,-2.91 2.011,0.556 1.89,-1.021 3.396,-0.971 3.339,4.099 8.332,6.544 11.642,10.672 -0.193,1.423 -1.592,1.643 -1.94,2.91 -1.323,0.354 -0.977,-0.964 -1.94,-0.97 -0.001,1.618 1.578,1.655 1.456,3.396 -1.124,-1.409 -4.54,-4.236 -2.911,-5.336 -2.324,-1.557 -3.536,-4.225 -6.306,-5.336 -1.109,1.376 -0.886,3.007 -0.485,4.851 -1.451,0.65 -2.351,1.854 -2.91,3.396 -3.193,2.466 -7.316,4.002 -11.157,5.821 -4.096,-2.401 -8.261,2.011 -11.642,3.396 3.927,0.807 9.201,-0.313 13.582,0.97 -1.2,3.188 -6.2,-0.402 -8.246,1.94 -2.767,-1.636 -7.858,0.403 -10.672,-1.94 -1.737,0.365 -2.055,2.148 -3.396,2.911 -6.169,-2.4 -10.928,-6.211 -18.918,-6.791 -0.208,-0.762 -1.525,-0.415 -0.97,-1.94 -6.967,4.737 0.127,14.369 2.91,19.402 6.021,-0.508 9.969,-0.589 12.612,-3.88 1.64,0.139 2.047,1.51 3.396,1.939 0.682,-2.066 2.284,-3.213 5.336,-2.91 0.808,0.964 -0.044,0.617 0,1.94 2.331,0.715 2.024,-1.209 3.881,-0.97 -2.061,-1.659 -5.445,-1.993 -9.217,-1.94 -1.639,0.197 1.291,1.88 -0.971,1.455 -1.066,-3.599 4.393,-2.554 7.276,-1.94 2.723,0.579 5.617,2.445 6.791,2.91 -1.788,4.518 -9.528,3.084 -11.642,7.276 -5.181,-2.345 -12.105,-0.938 -17.947,0.485 -0.738,0.18 -0.982,0.104 -0.971,0.97 -2.406,-0.76 -4.162,-1.87 -7.276,-2.91 0.274,-2.214 -0.859,-3.021 -0.484,-5.336 0.538,0.917 1.21,1.7 1.455,2.91 0.851,-0.159 2.509,-3.449 0.485,-3.396 0.826,-0.892 2.433,-1.3 2.91,0 0.526,-0.119 0.329,-0.964 0.97,-0.97 -0.579,-1.959 -1.66,-0.604 -2.91,-1.455 -0.06,-2.437 -0.312,-3.248 -2.426,-4.366 2.651,-1.279 -2.034,-3.243 -0.484,-4.851 -0.825,-0.179 -0.915,0.379 -0.971,0.971 -1.046,-0.895 -1.407,-2.474 -2.425,-3.396 2.881,-0.219 4.486,2.061 3.88,3.88 0.485,0 0.971,0 1.456,0 1.988,-2.171 -3.613,-2.939 -1.94,-4.851 -0.705,-0.266 -2.508,0.566 -2.426,-0.485 1.397,-3.453 6.395,-3.307 6.791,-7.761 5.95,1.649 8.148,7.05 15.522,7.276 0.417,0.391 0.288,1.328 0.971,1.455 2.633,-0.116 2.498,-3 4.851,-3.396 2.049,3.646 -2.56,4.452 -4.851,5.336 -4.993,-3.415 -11.213,-5.604 -16.008,-9.217 0.247,1.369 1.174,2.061 1.455,3.396 3.126,0.27 4.877,1.914 6.306,3.881 5.29,0.693 8.014,3.952 12.612,5.336 5.074,-3.981 11.161,-6.948 19.403,-7.762 -0.137,0.784 0.458,0.835 0.484,1.455 5.768,-1.506 7.637,-6.913 8.731,-13.095 z m -49.478,33.955 c -0.266,-0.705 0.567,-2.507 -0.485,-2.425 -0.859,0.757 -2.584,0.649 -1.939,2.91 1.828,-0.373 2.318,0.592 3.88,0.485 -0.334,-1.951 0.465,-2.77 0.485,-4.366 -0.485,0 -0.97,0 -1.455,0 0.1,1.677 0.69,2.286 -0.486,3.396 z"
   clip-rule="evenodd" /><path
   style="fill-rule:evenodd"
   inkscape:connector-curvature="0"
   id="path18830"
   d="m 194.52,122.32236 c 1.547,-0.878 3.11,-1.739 5.336,-1.939 0.624,2.062 2.049,3.963 0,1.455 -2.217,0.613 -2.616,0.202 -5.336,0.484 z"
   clip-rule="evenodd" /><path
   style="fill-rule:evenodd"
   inkscape:connector-curvature="0"
   id="path18834"
   d="m 155.714,132.99436 c -0.86,-1.295 1.247,1.242 0.97,2.426 -1.685,1.388 -2.011,4.133 -4.365,4.851 -0.304,2.187 1.679,4.862 -0.971,5.336 0.088,-2.499 -0.559,-5.733 1.94,-5.821 -0.113,-1.826 -1.827,-2.054 -1.94,-3.881 0.925,0.207 0.878,1.387 2.426,0.971 0.717,-1.224 2.305,-1.576 1.94,-3.882 z"
   clip-rule="evenodd" /><path
   style="fill-rule:evenodd"
   inkscape:connector-curvature="0"
   id="path18836"
   d="m 195.005,135.90436 c 2.469,0.28 3.044,2.454 2.91,5.336 0.784,1.642 1.38,3.471 1.94,5.336 -0.852,-0.38 -4.166,-4.76 -2.911,-7.275 -0.224,-1.555 -1.846,-1.712 -1.939,-3.397 z"
   clip-rule="evenodd" /><path
   style="fill-rule:evenodd"
   inkscape:connector-curvature="0"
   id="path18838"
   d="m 94.11,142.69536 c 0.135,-1.146 1.295,0.557 1.939,0.485 1.479,-0.593 -0.709,-1.852 0.485,-2.425 0.596,0.859 0.945,1.965 1.94,2.425 1.453,-0.319 -0.464,-1.037 0,-1.94 1.453,1.134 3.524,1.65 3.881,3.881 -2.402,-0.088 -2.932,-0.252 -4.851,-1.455 -0.985,-0.148 0.099,1.401 0.484,1.455 -1.662,1.473 -2.606,-1.899 -3.878,-2.426 z"
   clip-rule="evenodd" /><path
   style="fill-rule:evenodd"
   inkscape:connector-curvature="0"
   id="path18840"
   d="m 113.997,143.18036 c 1.09,0.204 0.013,2.574 0.97,2.911 1.507,-0.434 2.098,-1.783 2.426,-3.396 0.822,1.721 0.655,2.239 2.426,0.971 0.078,0.568 0.884,0.409 1.455,0.485 -0.374,1.404 -1.199,2.357 -3.396,1.94 -2.544,1.659 -6.134,2.273 -10.187,2.425 -0.413,-1.365 -1.567,-1.99 -1.455,-3.881 1.957,0.145 0.714,3.489 2.91,3.396 0.854,-0.116 1.105,-0.834 0.97,-1.939 -0.485,-0.809 -2.243,-0.344 -2.425,-1.456 0.211,-1.082 0.857,-1.729 1.939,-1.94 -0.4,1.371 0.685,1.257 0.485,2.426 0.964,-0.006 0.617,-1.323 1.94,-0.97 0.039,1.807 0.728,1.565 -0.485,2.425 0.204,1.08 2.574,0.38 2.911,0 -1.422,-0.938 -1.477,-0.903 -0.484,-3.397 z"
   clip-rule="evenodd" /><path
   style="fill-rule:evenodd"
   inkscape:connector-curvature="0"
   id="path18842"
   d="m 71.311,147.06136 c -0.323,0 -0.647,0 -0.97,0 -0.673,2.613 1.848,2.033 1.455,4.365 2.87,0.444 2.797,-2.053 4.851,-2.425 1.115,1.258 -0.018,3.208 -0.485,4.365 3.377,0.306 4.789,-1.355 5.821,-3.396 1.747,0.879 1.43,-0.086 2.911,-0.485 -0.042,5.294 -6.238,4.434 -10.187,5.821 -0.951,-1.193 0.905,-2.687 1.455,-3.881 -1.538,-1.348 -2.507,1.999 -4.851,1.456 -0.377,-0.432 -0.521,-1.096 -0.485,-1.94 -1.047,1.51 -3.521,0.839 -4.365,-0.485 0.476,-1.487 1.294,0.558 1.94,0.485 0.637,-0.172 0.763,-0.854 1.456,-0.971 0.272,-1.914 -2.033,-3.756 -0.485,-5.336 1.804,-0.187 0.898,2.337 2.425,2.426 0.94,-0.677 0.724,-2.511 1.456,-3.396 1.161,0.617 1.975,1.582 1.94,3.396 -0.999,-0.134 -0.457,-1.808 -1.455,-1.94 -0.987,0.468 -1.048,1.863 -0.97,3.396 -1.06,0.088 -1.545,-0.397 -1.457,-1.455 z"
   clip-rule="evenodd" /><path
   style="fill-rule:evenodd"
   inkscape:connector-curvature="0"
   id="path18844"
   d="m 203.251,169.86036 c 0.603,-1.015 1.41,-1.823 2.425,-2.426 -0.463,-1.477 -1.929,-1.951 -1.455,-4.365 2.574,-3.765 3.302,-11.855 7.762,-12.127 -0.145,0.987 -0.972,1.292 -1.455,1.94 1.062,1.363 0.925,3.925 3.395,3.88 -0.171,0.638 -0.854,0.764 -0.97,1.455 2.425,1.979 2.757,7.002 2.91,8.731 -3.462,-2.521 -2.712,-9.253 -5.82,-12.127 -1.624,3.769 -5.124,7.509 -3.396,13.098 1.169,0.198 1.055,-0.886 2.425,-0.485 3.643,3.177 8.441,7.69 7.276,14.067 -2.559,-0.837 -6.551,-0.24 -6.791,-3.396 2.24,0.185 4,0.851 5.821,1.455 -0.102,-3.461 -2.559,-8.757 -6.307,-10.187 -0.728,1.874 3.194,3.263 1.94,7.276 -0.753,0.11 -2.264,1.864 -2.91,0.484 -0.434,-1.565 1.582,-0.682 1.94,-1.455 1.318,-5.518 -3.983,-4.422 -6.79,-5.818 z"
   clip-rule="evenodd" /><path
   style="fill-rule:evenodd"
   inkscape:connector-curvature="0"
   id="path18846"
   d="m 287.654,157.73336 c 2.127,0.868 3.207,-0.58 3.881,-2.911 -1.562,-0.54 -2.347,-1.857 -2.91,-3.396 0.198,-1.742 2.141,-1.739 1.94,-3.88 -1.902,0.361 -2.609,1.918 -3.396,3.396 -1.396,-2.896 2.64,-4.757 4.851,-4.366 0.944,3.26 3.932,4.477 4.365,8.246 0.854,-0.116 1.106,-0.834 0.971,-1.939 0.796,-0.08 0.796,2.989 0,2.91 0.915,0.863 2.147,1.409 1.94,3.396 0.97,0 1.94,0 2.91,0 0.462,1.641 0.532,3.672 2.91,3.396 -0.133,-1.024 -1.341,-6.018 -3.396,-5.336 -0.352,-1.483 0.837,-1.427 0.485,-2.91 -0.282,-1.497 -1.754,-1.804 -2.91,-2.426 0.496,-1.364 0.551,-2.066 -1.456,-1.94 3.434,-7.87 13.759,-2.627 13.098,5.821 -2.812,-0.211 -4.312,-3.943 -3.881,-5.821 -2.531,-0.008 -4.303,-1.863 -6.791,-0.485 5.461,5.211 5.43,15.914 9.701,22.313 2.033,-0.383 1.5,-1.889 3.881,-0.97 1.11,1.844 -0.047,4.947 -0.485,6.791 -2.039,-1.521 -2.302,0.216 -5.335,0 -2.76,-3.386 -3.92,-8.369 -5.336,-13.097 -0.758,-1.183 -2.613,-1.268 -2.911,-2.911 -1.978,-0.36 -1.67,1.563 -3.88,0.971 -1.024,-1.726 -1.883,-3.615 -3.396,-4.851 -1.647,1.213 1.329,1.865 0.484,3.88 -3.67,1.619 -5.06,4.22 -10.671,2.911 -2.423,-2.913 -5.257,-5.416 -7.762,-8.246 -2.444,1.87 -6.498,2.072 -10.187,1.455 0.855,-2.331 2.86,-1.063 4.851,-1.455 3.511,-0.692 6.962,-2.666 10.187,-3.396 0.901,-0.204 1.766,0.49 1.94,0.484 1.296,-0.038 2.126,-0.688 3.396,-0.484 0.697,0.111 1.508,-0.955 1.455,-0.971 1.906,0.546 2.872,2.577 3.396,4.366 0.147,1.277 -0.671,1.592 -1.939,1.455 z m 21.829,18.433 c 1.411,-1.76 -0.109,-4.723 -1.455,-5.336 0.216,2.045 -0.742,5.267 1.455,5.336 z"
   clip-rule="evenodd" /><path
   style="fill-rule:evenodd"
   inkscape:connector-curvature="0"
   id="path18848"
   d="m 127.094,161.61336 c 0.093,-0.55 0.487,-0.269 0.485,0 2.414,-0.536 -0.091,-3.512 0,-4.851 1.993,0.109 2.063,2.141 4.365,1.94 0.012,1.143 -0.835,1.429 -0.484,2.91 1.657,0.364 0.616,-1.971 2.425,-1.455 -0.214,1.403 -1.022,2.212 -2.425,2.426 -0.448,-2.603 -1.529,0.959 -2.911,0.485 -0.271,-0.698 -0.756,-1.183 -1.455,-1.455 z"
   clip-rule="evenodd" /><path
   style="fill-rule:evenodd"
   inkscape:connector-curvature="0"
   id="path18850"
   d="m 259.52,179.56136 c 0.992,-0.644 2.813,2.019 2.91,3.881 0.646,0 1.294,0 1.94,0 -0.518,-2.069 -2.738,-2.437 -2.91,-4.851 2.158,1.075 2.692,3.774 4.851,4.851 0.664,-3.047 -2.742,-3.265 -1.94,-7.762 1.465,0.313 1.354,2.203 2.426,2.911 1.447,-0.966 -1.236,-3.507 0,-4.366 1.278,0.338 1.025,2.208 2.425,2.426 1.334,-0.897 -1.759,-4.014 0,-5.336 1.615,0.596 0.619,4.7 2.426,6.306 2.07,-1.739 -1.81,-6.749 1.455,-6.791 0.026,2.237 -0.215,4.742 0.485,6.306 2.439,0.177 0.995,-3.531 3.88,-2.91 1.068,2.117 -0.6,4.043 0.485,5.821 1.585,-0.841 1.47,-3.381 2.91,-4.366 1.33,0.01 1.152,2.288 0.485,2.911 1.278,-0.125 1.592,-1 1.455,0.97 1.275,0.144 0.382,-1.882 1.94,-1.455 -0.125,2.138 -0.775,3.752 -0.485,6.306 1.857,-0.406 3.215,-1.312 3.881,-2.91 2.544,0.775 3.153,0.471 4.851,1.94 -0.949,5.707 -7.078,1.044 -10.671,3.396 -0.395,-1.678 0.905,-2.048 0,-2.911 -1.794,0.146 -0.776,3.104 -3.396,2.426 0.034,-1.65 0.151,-3.385 -0.97,-3.881 -1.254,2.55 0.37,4.748 -0.485,6.791 0.15,0.658 1.215,0.402 1.94,0.485 0.392,2.12 -0.216,4.158 1.455,5.821 1.999,0.382 0.912,-2.323 2.911,-1.94 0.932,0.685 0.877,2.355 1.455,3.396 1.144,-0.15 0.902,-1.685 2.425,-1.455 0.826,1.515 1.056,2.562 0,3.88 -2.22,-1.175 -3.715,-3.075 -7.275,-2.91 -0.845,-1.581 -2.423,-2.428 -2.911,-4.365 -0.952,0.825 -2.424,1.133 -2.91,2.425 -3.21,-1.964 -1.888,-8.46 -5.336,-10.187 -0.872,1.699 0.973,4.835 1.455,6.791 -1.68,-2.913 -3.394,-2.786 -3.88,-6.791 -2.775,0.063 -0.903,4.094 0,4.851 -0.272,1.405 -0.757,-0.744 -1.456,-0.484 -0.417,3.288 2.795,5.121 1.456,7.761 -2.011,-0.738 -1.976,-3.522 -2.426,-5.821 -2.327,0.677 -0.719,2.612 -0.97,4.852 -4.398,-0.797 -2.053,-5.24 -1.94,-8.247 -0.426,-0.548 -1.538,0.117 -0.485,-1.455 -2.461,0.288 -2.477,3.021 -4.365,3.881 0.627,0.99 2.352,0.882 1.939,2.91 -0.47,-0.822 -1.34,-1.246 -2.91,-0.97 -0.005,-1.773 -0.958,-2.599 -1.94,-3.396 0.12,-0.527 0.965,-0.329 0.971,-0.971 -0.271,-0.698 -0.757,-1.184 -1.455,-1.455 -0.759,0.343 0.928,2.738 -1.456,1.455 -0.61,4.492 1.943,5.819 3.881,7.762 -2.646,-0.108 -4.863,-4.833 -8.246,-5.821 0.337,3.059 2.477,4.315 4.365,5.821 -1.607,2.292 -3.081,-2.744 -4.851,-3.396 -0.813,1.48 2.113,3.37 2.911,4.851 -2.923,0.65 -3.632,-5.094 -6.791,-5.821 -0.896,0.616 1.578,1.947 1.939,2.911 -1.623,0.956 -2.693,-2.79 -3.88,-3.881 -1.305,-0.334 -0.938,1.003 -1.456,1.455 -1.745,-1.164 -2.184,-3.637 -3.88,-4.851 -1.035,-0.227 -0.924,0.693 -0.971,1.455 -2.997,-1.196 -7.487,-0.707 -6.306,-4.851 1.082,2.017 2.799,0.408 3.881,2.426 2.411,-0.688 -0.712,-3.919 0.97,-5.336 1.374,0.404 0.577,2.979 1.455,3.88 2.012,0.557 1.891,-1.02 3.396,-0.97 0.783,1.157 0.773,3.107 1.455,4.365 2.641,-0.755 3.485,-3.306 4.366,-5.82 2.417,1.083 0.366,5.51 3.881,6.306 1.631,-1.047 -0.638,-2.228 -0.485,-3.396 1.059,-0.088 1.543,0.397 1.455,1.455 2.223,-1.301 -0.751,-4.368 -1.94,-5.336 -0.079,1.498 1.146,2.742 0,3.881 -1.03,-0.748 -0.206,-3.352 -1.455,-3.881 0.067,-1.387 2.023,-0.887 3.396,-0.97 0.106,1.834 1.525,2.355 1.94,3.881 2.423,-1.688 1.888,3.106 4.851,2.425 1.524,-0.827 -0.543,-3.402 0.485,-3.88 1.548,-0.416 1.5,0.763 2.425,0.97 0.963,-0.209 2.206,-2.594 0.969,-3.398 z m 15.522,0.485 c 1.94,0.614 1.854,-3.277 0.97,-3.881 -0.706,0.918 -2.324,2.384 -0.97,3.881 z m -5.336,3.396 c 1.559,0.299 0.665,-1.746 1.94,-0.485 -0.251,-2.101 0.145,-3.004 -0.485,-3.881 -1.6,2.19 -2.052,-3.389 -3.396,-1.455 1.196,1.467 3.068,3.48 1.941,5.821 z m -10.186,1.94 c 2.27,0.847 2.602,-2.72 0.97,-2.911 -0.28,1.015 -1.203,1.385 -0.97,2.911 z m 2.425,-0.485 c 0.008,1.286 -0.269,2.856 0.971,2.91 -0.186,-1.802 1.966,-1.269 1.455,-3.396 -1.17,-0.198 -1.055,0.886 -2.426,0.486 z m 10.186,2.91 c 1.86,-0.088 0.177,0.397 0.485,1.455 1.205,-0.631 2.013,1.424 2.426,0 -2.476,-1.107 0.495,-2.767 0,-4.851 -0.485,0 -0.971,0 -1.455,0 0.036,0.845 -0.108,1.509 -0.485,1.94 0.376,0.108 0.957,0.014 0.97,0.485 -0.904,0.068 -1.622,0.32 -1.941,0.971 z m -31.044,0.971 c 1.641,-0.187 0.763,2.146 2.91,1.455 0,-1.132 0,-2.264 0,-3.396 -1.827,-0.21 -2.209,1.025 -2.91,1.941 z"
   clip-rule="evenodd" /><path
   style="fill-rule:evenodd"
   inkscape:connector-curvature="0"
   id="path18852"
   d="m 219.258,192.65836 c -0.021,-1.24 0.361,-0.591 0.971,-0.484 0.313,-1.931 -1.284,-1.95 -0.971,-3.881 1.127,0.328 1.299,1.611 2.426,1.94 1.143,-0.41 -0.03,-2.501 -0.485,-2.911 1.346,-1.625 2.269,1.257 3.396,1.456 -2.043,-0.07 -1.377,1.593 -0.484,3.396 -1.371,0.4 -1.257,-0.684 -2.426,-0.485 -0.361,1.493 1.331,0.932 0.97,2.425 -2.159,-0.325 -2.505,-1.387 -4.851,-0.484 -1.226,-0.876 -1.225,-2.979 -2.91,-3.396 -1.604,0.728 1.008,1.186 0.485,2.425 -1.301,-0.801 -1.743,-2.461 -2.911,-3.396 3.457,-3.613 4.569,2.633 6.307,3.881 0.411,0.088 0.456,-0.19 0.483,-0.486 z"
   clip-rule="evenodd" /><path
   style="fill-rule:evenodd"
   inkscape:connector-curvature="0"
   id="path18854"
   d="m 74.221,10.270362 c 0.868,-1.3019999 1.732,1.463 2.426,1.94 4.66,2.354 7.719,-0.839 14.067,-0.485 1.799,-0.567 3.777,-2.9739999 5.335,-0.97 -1.494,2.386 -5.556,2.205 -8.246,3.396 0.204,1.09 2.574,0.013 2.911,0.97 -2.052,1.578 -5.992,-1.25 -8.247,0.485 1.035,1.067 3.157,1.047 2.425,3.88 -2.157,-0.532 -3.536,1.172 -4.851,0 0.442,-1.66 1.198,-3.005 1.455,-4.851 -2.217,-0.855 -4.738,-1.406 -7.761,-1.456 -1.23,0.87 1.149,2.978 -0.97,3.396 -4.437,-1.966 2.332,-4.998 1.456,-6.305 z"
   clip-rule="evenodd" /><path
   style="fill-rule:evenodd"
   inkscape:connector-curvature="0"
   id="path18856"
   d="m 105.751,15.121362 c 0.98,0.645 1.464,3.244 0.485,4.366 -2.211,-0.538 -3.652,-1.846 -4.366,-3.88 1.545,-0.915 2.031,0.122 3.881,-0.486 z"
   clip-rule="evenodd" /><path
   style="fill-rule:evenodd"
   inkscape:connector-curvature="0"
   id="path18858"
   d="m 106.237,21.427362 c -0.696,0.534 -1.646,2.489 -2.911,2.91 -2.544,0.848 -6.679,-0.698 -9.216,0.485 -1.093,0.202 0.072,2.66 -1.456,2.425 -2.335,-0.251 -2.892,-2.282 -4.365,-3.396 5.611,-1.178 11.775,-1.806 17.948,-2.424 z"
   clip-rule="evenodd" /><path
   style="fill-rule:evenodd"
   inkscape:connector-curvature="0"
   id="path18860"
   d="m 142.131,17.546362 c 0.486,2.912 -2.451,2.399 -2.425,4.851 0.412,1.423 1.221,-0.631 2.425,0 0.416,2.032 -2.171,1.062 -2.91,1.94 -1.821,1.412 -3.188,3.279 -3.881,5.821 2.196,0.74 1.05,-1.861 1.94,-2.426 2.363,-0.272 6.786,-3.458 11.157,-2.91 4.2,0.526 10.455,2.447 10.187,5.821 2.537,-3.849 -2.765,-7.339 -6.791,-7.761 0.609,-1.508 3.017,-1.508 2.425,-2.911 1.894,-0.369 1.851,2.484 3.396,4.366 1.459,1.777 3.669,2.476 3.881,3.881 0.521,3.45 -1.91,4.776 -5.336,4.851 -0.256,2.035 0.848,2.71 0.971,4.366 -1.482,0.351 -1.768,-0.496 -2.911,-0.485 -0.626,-2.89 1.238,-3.289 1.456,-5.336 -1.499,-0.174 -5.521,-3.533 -8.731,-1.94 -0.692,2.147 1.641,1.269 1.455,2.911 -2.504,0.406 -7.208,-1.387 -6.307,2.425 0.439,1.762 2.738,-1.011 2.911,0.485 1.354,1.31 -1.187,0.87 -1.455,1.94 -0.062,0.87 0.594,1.023 0.484,1.94 1.932,0.263 -0.522,-1.718 1.94,-1.455 1.438,1.798 -1.527,3.297 -0.97,4.365 -2.682,-1.684 -3.969,-4.763 -4.366,-8.731 -3.392,0.487 -6.149,-1.333 -6.306,-4.366 -0.057,-1.111 1.487,-1.865 2.426,-4.366 0.691,-1.843 0.293,-3.868 0.97,-4.851 1.09,-1.581 3.552,-2.416 4.365,-2.425 z"
   clip-rule="evenodd" /><path
   style="fill-rule:evenodd"
   inkscape:connector-curvature="0"
   id="path18862"
   d="m 122.243,98.554362 c 2.502,4.733998 -0.479,12.036998 -1.94,16.006998 0.998,0.241 5.011,-2.042 6.307,-0.485 0.91,-0.642 -0.494,-2.218 1.455,-0.97 1.207,-2.188 0.421,-6.37 3.88,-6.306 0.252,2.515 -1.761,2.766 -1.455,5.335 5.047,-0.596 10.114,-0.191 15.522,-0.97 -0.153,-3.227 0.897,-5.247 2.911,-6.306 0.167,2.108 -1.174,2.708 -1.456,4.366 0.911,1.029 3.871,0.01 4.366,1.455 0.891,-1.195 1.209,-1.749 2.425,-0.485 0.833,-0.622 0.975,-1.936 1.94,-2.425 2.011,0.9 2.688,3.133 2.426,6.306 -0.924,0.909 -1.219,0.054 -2.426,0 0.752,3.988 -1.48,7.444 -4.365,9.217 1.933,-3.08 3.209,-6.815 3.396,-11.642 -2.523,-1.217 -5.791,0.99 -9.217,0.484 -1.746,0.356 -0.38,3.824 -1.94,4.366 2.089,4.217 6.444,6.167 7.762,11.156 1.276,-0.664 1.839,-2.042 3.396,-2.425 1.574,-0.281 2.257,0.33 3.396,0.484 2.736,5.511 5.722,10.771 9.701,15.038 1.139,-0.155 1.821,-0.767 3.396,-0.485 -0.45,2.804 -4.565,1.883 -6.306,0.97 -2.134,-5.465 -7.725,-7.475 -10.187,-12.611 -1.683,-0.39 -1.864,0.723 -3.396,0.484 -3.135,-5.273 -7.104,-9.711 -10.672,-14.552 -1.035,-0.227 -0.924,0.693 -0.97,1.455 -2.146,-1.489 -4.078,-3.256 -7.762,-1.94 -0.558,1.384 1.984,3.824 5.336,2.911 4.251,4.965 7.801,10.631 12.127,15.521 -0.506,1.375 -0.506,2.021 0,3.396 -2.124,0.185 -2.494,-1.386 -4.365,-1.455 -0.5,1.167 3.32,2.162 4.365,3.396 -0.749,1.03 -1.396,2.162 -1.94,3.396 1.986,1.427 2.286,6.651 -1.94,5.821 -0.358,-3.28 0.589,-6.7 0,-8.731 -2.438,1.643 -7.212,0.231 -8.731,-1.94 -9.131,2.639 -21.173,0.832 -30.074,-0.97 -3.951,2.828 -5.753,1.096 -9.217,-0.971 -3.054,-1.821 -4.629,-2.603 -7.275,-4.851 -2.675,-2.271 -6.216,-5.881 -9.702,-7.276 -2.471,0.479 -4.695,1.598 -6.791,0 -5.511,1.765 -10.555,3.997 -14.067,7.762 -1.139,-0.155 -1.821,-0.767 -3.396,-0.485 -2.019,0.407 -1.133,3.718 -2.911,4.366 -0.855,-1.867 1.272,-4.401 2.425,-5.821 1.064,1.071 1.982,-0.479 3.881,0 1.227,-0.39 1.237,-1.997 1.94,-2.91 -3.062,-1.128 -5.775,0.291 -9.217,0.97 -0.128,-1.583 1.882,-1.028 1.94,-2.425 7.846,0.893 11.104,-2.802 15.522,-5.336 -1.751,-1.457 -4.928,-0.94 -6.306,0.484 -2.094,0.142 -3.654,-0.196 -5.335,0 -5.309,0.622 -8.698,4.247 -12.612,4.366 1.163,-2.496 5.975,-2.26 8.247,-4.851 3.791,-0.513 8.104,-0.189 10.187,-3.396 3.673,-0.883 5.667,-0.955 9.216,0 1.106,-3.399 10.147,-6.86 10.671,-0.971 -7.682,-4.323 -11.896,5.34 -17.462,7.762 4.088,-0.621 8.196,-1.256 14.067,-1.94 1.248,-0.37 2.056,-1.178 2.426,-2.426 1.422,0.356 2.086,1.472 2.91,2.426 -0.411,1.422 -1.562,-0.29 -2.425,0 4.549,6.77 11.113,11.524 17.948,16.007 1.818,-1.292 5.046,-2.054 5.821,-4.365 0.307,-0.915 -0.952,-1.52 -0.485,-2.426 1.714,-3.326 4.552,-3.734 7.761,-6.306 1.508,4.023 -5.563,3.424 -6.306,6.791 0.25,0.529 3.169,-0.355 4.851,0 1.998,0.202 3.017,1.906 4.851,2.426 0.915,0.259 3.675,-1.726 3.396,0.97 -1.924,-0.565 -3.684,0.501 -5.82,-0.485 -1.544,-0.548 -0.843,1.119 -1.94,1.456 -2.269,0.695 -5.743,-1.324 -6.306,0.484 10.44,2.023 28.238,3.149 36.38,-2.425 -2.842,-5.081 -7.351,-8.495 -10.671,-13.098 -0.995,0.946 -0.624,3.257 -1.456,4.366 -5.334,-0.646 -6.559,2.819 -10.671,3.396 1.672,-4.634 5.896,-6.717 7.275,-11.642 -3.016,-0.993 -5.208,-0.004 -8.246,0.484 -1.772,1.403 -2.631,5.959 -5.82,4.366 2.034,-3.948 4.745,-7.221 6.791,-11.157 -0.415,-4.13 1.583,-5.851 0.966,-10.184998 z m 20.373,16.491998 c 1.364,-0.091 2.066,-0.844 1.94,-2.426 -0.646,0 -1.293,0 -1.94,0 0,0.809 0,1.618 0,2.426 z"
   clip-rule="evenodd" />
</svg>