<?xml version="1.0" encoding="utf-8"?>
<!-- Generator: Adobe Illustrator 12.0.1, SVG Export Plug-In . SVG Version: 6.00 Build 51448)  -->
<!DOCTYPE svg PUBLIC "-//W3C//DTD SVG 1.1//EN" "http://www.w3.org/Graphics/SVG/1.1/DTD/svg11.dtd" [
	<!ENTITY ns_svg "http://www.w3.org/2000/svg">
	<!ENTITY ns_xlink "http://www.w3.org/1999/xlink">
]>
<svg  version="1.1" id="Layer_1" xmlns="&ns_svg;" xmlns:xlink="&ns_xlink;" width="458.339" height="671.148"
	 viewBox="0 0 458.339 671.148" overflow="visible" enable-background="new 0 0 458.339 671.148" xml:space="preserve">
<g>
	<path fill-rule="evenodd" clip-rule="evenodd" fill="#E7A614" d="M255.823,85.443c-1.607,3.311-3.449,1.12-7.199,0.48
		c-4.207-0.718-16.37-4.58-17.76-5.28c-0.358-0.181-0.421-0.937-0.48-1.44C238.483,79.761,247.417,83.595,255.823,85.443z"/>
	<path fill-rule="evenodd" clip-rule="evenodd" fill="#E7A614" d="M131.503,85.923c0.511-1.089,3.018-0.183,4.32-0.48
		c0.415,0.948,2.208,4.815,0,5.28c-0.493-1.587-0.493-3.667-1.44-4.8c-1.467-0.347-1.75,0.491-2.88,0.48
		C131.503,86.243,131.503,86.083,131.503,85.923z"/>
	<path fill-rule="evenodd" clip-rule="evenodd" fill="#E7A614" d="M279.823,86.403c3.2,0,6.4,0,9.601,0
		C287.332,87.201,281.915,87.201,279.823,86.403z"/>
	<path fill-rule="evenodd" clip-rule="evenodd" fill="#E7A614" d="M259.183,87.363c0.553,8.838,6.327,14.41,2.88,22.08
		c-1.462-0.778-2.07-2.41-3.84-2.88c-1.812-0.212-2.254,0.946-3.36,1.44c-3.02-3.38-7.568-5.232-14.399-4.8
		c3.079-2.521,7.118-4.082,8.64-8.16C255.196,95.215,253.419,87.52,259.183,87.363z"/>
	<path fill-rule="evenodd" clip-rule="evenodd" fill="#E7A614" d="M250.543,88.323c-0.072,0.888-1.626,0.295-1.92,0.96
		c-0.165,1.261,4.258,1.826,3.359-0.48c1.947,2.788-2.882,5.173-4.8,2.88c0-0.96,0-1.92,0-2.88
		C248.138,88.354,249.468,87.24,250.543,88.323z"/>
	<path fill-rule="evenodd" clip-rule="evenodd" fill="#E7A614" d="M292.783,89.763c-0.16,0-0.319,0-0.479,0
		c-1.458,0.592,0.521,1.651,0,2.88c-0.775,0.135-0.826-0.454-1.44-0.48c0.005-1.275-0.181-2.741,0.48-3.36
		c0.613,0.026,0.664,0.615,1.439,0.48C292.783,89.443,292.783,89.603,292.783,89.763z"/>
	<path fill-rule="evenodd" clip-rule="evenodd" fill="#130F06" d="M104.623,94.563c-2.209-0.358-3.116,2.293-4.8,0.96
		c3.878-5.315,16.069-6.724,20.64-2.4c-0.245,1.516-2.192,1.328-3.36,1.92C114.724,93.458,107.421,92.644,104.623,94.563z"/>
	<path fill-rule="evenodd" clip-rule="evenodd" fill="#E7A614" d="M136.783,100.803c3.56-2.766,0.235-8.095-4.8-6.72
		c5.584-2.987,9.691,3.16,5.76,7.68C137.316,101.55,136.885,101.341,136.783,100.803z"/>
	<path fill-rule="evenodd" clip-rule="evenodd" fill="#E7A614" d="M246.703,94.563c-2.464,9.535-17.497,6.503-23.04,12.96
		c4.367,2.846,12.693-3.204,18.72-2.88c3.715,0.199,9.58,1.494,10.08,4.8c0.749,4.959-7.744,7.479-13.92,7.68
		c-6.069,0.197-12.876-3.832-15.36,0.96c2.244,4.02,7.292,2.108,11.04,2.88c11.034,2.272,15.468,14.268,12,27.36
		c-6.791,1.978-7.851-5.236-10.56-8.64c-1.738-2.184-4.778-2.844-6.721-4.8c-2.505-2.521-3.371-8.049-8.16-6.24
		c-2.206,5.719,3.971,6.875,6.24,11.04c1.615,2.965,2.785,8.926,3.36,12.96c2.192,15.386-0.232,36.565-7.2,46.08
		c-5.674-12.705-9.46-29.537-9.12-45.6c0.108-5.08,1.5-10.787-3.36-12.96c-4.119,2.757-2.08,7.649-1.92,12.96
		c0.101,3.366,1.808,5.777,2.4,9.12c2.796,15.784-3.643,34.363-4.8,48.96c-1.887,0.354-3.479,1.001-5.28,1.44
		c-1.468-1.412-2.188-3.572-5.28-3.36c0.229-4.148-0.169-10.431-0.48-17.28c-0.283-6.225,1.257-13.012,0.96-18.24
		c-0.105-1.847-1.707-3.961-1.92-5.76c-0.636-5.363,3.112-13.76-0.96-14.4c-3.467-0.545-4.774,12.451-1.44,13.92
		c0.378,1.978-2.298,0.902-1.92,2.88c-0.285,4.429,1.771,7.594,2.4,11.52c1.244,7.758-0.96,15.814,0,24
		c0.211,1.798,0.42,2.587,1.92,3.84c-6.175,2.77-10.704,7.86-19.68,5.28c-2.377-10.89,4.594-26.07-1.92-32.16
		c-4.124,0.037-2.601,5.719-2.88,9.6c4.383,5.431,2.448,14.206,1.44,22.56c-4.157,2.243-10.107,2.693-16.32,2.88
		c1.768-15.04,3.844-34.438-1.92-46.56c-2.007,4.526,2.005,11.028,0.96,17.76c-1.211-2.628-2.167-5.513-5.28-6.24
		c-0.427-11.441,4.961-19.479,5.76-28.8c0.531-6.194-2.186-12.719,0-20.16c8.382-2.03,17.824-7.54,25.92-6.72
		c1.804,2.604,4.271,8.031,8.16,10.08c7.311-4.234-1.139-13.009-7.2-12.96c9.877-8.092,22.661-14.996,36-20.16
		C226.377,100.697,235.526,90.587,246.703,94.563z M199.663,132.963c-0.134-5.499-5.865-9.471-12.96-9.6
		C190.194,126.29,196.905,127.958,199.663,132.963z M182.863,139.683c-0.207-3.154-0.99-5.73-3.36-6.72
		C180.699,135.127,181.385,137.801,182.863,139.683z"/>
	<path fill-rule="evenodd" clip-rule="evenodd" fill="#E7A614" d="M299.983,98.403c21.894,4.667,45.209,12.071,67.681,17.76
		c-6.233,2.969-14.953,2.849-19.2-1.92c-1.931-0.33-2.74,0.46-4.32,0.48C330.017,108.689,311.267,107.279,299.983,98.403z"/>
	<path fill-rule="evenodd" clip-rule="evenodd" fill="#E7A614" d="M114.703,98.883c-1.447,1.015-2.273-0.135-4.32,0.48
		C110.812,98.184,113.741,98.062,114.703,98.883z"/>
	<path fill-rule="evenodd" clip-rule="evenodd" fill="#E7A614" d="M100.783,101.763c-0.087,1.047,0.393,1.527,1.44,1.44
		c-1.028,1.185-2.864,1.044-2.88-0.96c0.372-0.107,0.947-0.013,0.96-0.48C100.463,101.763,100.623,101.763,100.783,101.763z"/>
	<path fill-rule="evenodd" clip-rule="evenodd" fill="#E7A614" d="M102.703,103.203c3.819-1.73,6.887,1.427,10.56,1.44
		c0.079,1.358-2.959-0.399-2.88,0.96c-1.253-1.147-3.611-1.189-5.28-1.92C105.184,102.642,103.4,103.465,102.703,103.203z"/>
	<path fill-rule="evenodd" clip-rule="evenodd" fill="#130F06" d="M110.383,105.603c3.234,1.559,5.524-0.914,7.2-2.4
		c1.34,1.685-1.602,3.18-2.88,3.84c-4.885,2.587-7.394-3.326-11.52-1.44c-1.093,0.667-1.859,1.66-2.88,2.4
		c0.136,3.064,1.975,4.425,1.44,8.16c-0.02,1.58-0.811,2.39-0.48,4.32c-2.069,5.492,1.562,9.271,2.4,13.44
		c-6.965-4.004-2.299-18.531-5.76-26.88c0-0.16,0-0.32,0-0.48c4.026,0.666,3.634-3.086,7.2-2.88
		C106.772,104.414,109.13,104.456,110.383,105.603z"/>
	<path fill-rule="evenodd" clip-rule="evenodd" fill="#E7A614" d="M351.343,103.683c2.186-1.21,3.512,2.556,4.32,4.32
		c-1.881-0.307-5.734,0.47-5.761-2.88C351.646,105.9,352.562,104.984,351.343,103.683z"/>
	<path fill-rule="evenodd" clip-rule="evenodd" fill="#E7A614" d="M257.263,108.483c2-0.24,2.304,1.216,2.4,2.88
		c-0.691-0.269-1.172-0.749-1.44-1.44c-2.098,0.414,0.258,2.499-0.96,3.36c-1.222-0.059-1.861-0.698-1.92-1.92
		C255.011,109.431,257.365,110.184,257.263,108.483z"/>
	<path fill-rule="evenodd" clip-rule="evenodd" fill="#E7A614" d="M429.103,131.043c0.006,0.634,0.842,0.438,0.96,0.96
		c-1.854,5.666-2.917,12.123-9.12,13.44c-0.06-1.98,0.835-3.006,0.48-5.28c-0.985-4.071-6.269-3.919-10.561-6.24
		c-5.044-2.727-8.286-7.168-13.439-7.2c-4.14-0.025-6.75,2.972-10.561,4.8c3.771-11.292,15.958-21.033,30.721-15.36
		c-1.251,4.089-3.758,6.458-3.841,10.56C415.298,133.48,424.529,134.831,429.103,131.043z"/>
	<path fill-rule="evenodd" clip-rule="evenodd" fill="#E7A614" d="M101.743,116.163c0.16,0,0.32,0,0.48,0
		c1.532,7.588,3.747,14.494,6.72,20.64c-0.292,0.027-0.568,0.072-0.48,0.48c-4.273-3.726-3.507-12.493-7.2-16.8
		C100.933,118.552,101.723,117.743,101.743,116.163z"/>
	<path fill-rule="evenodd" clip-rule="evenodd" fill="#E7A614" d="M125.743,123.363c-1.529-3.111-6.999-2.281-8.16-5.76
		c0.091-0.389,0.481-0.479,0.48-0.96C118.6,120.28,129.728,120.59,125.743,123.363z"/>
	<path fill-rule="evenodd" clip-rule="evenodd" fill="#130F06" d="M186.703,123.363c7.095,0.129,12.826,4.101,12.96,9.6
		C196.905,127.958,190.194,126.29,186.703,123.363z"/>
	<path fill-rule="evenodd" clip-rule="evenodd" fill="#130F06" d="M112.303,132.003c2.132,0.567,8.181,4.56,10.56,0
		c1.134,1.011-0.975,2.838-1.92,3.36C117.095,137.027,113.704,134.358,112.303,132.003z"/>
	<path fill-rule="evenodd" clip-rule="evenodd" fill="#E7A614" d="M131.503,132.963c1.207,0.929-0.564,2.924-0.48,4.32
		C129.606,136.143,131.604,134.375,131.503,132.963z"/>
	<path fill-rule="evenodd" clip-rule="evenodd" fill="#130F06" d="M179.503,132.963c2.371,0.989,3.154,3.566,3.36,6.72
		C181.385,137.801,180.699,135.127,179.503,132.963z"/>
	<path fill-rule="evenodd" clip-rule="evenodd" fill="#130F06" d="M104.143,133.923c0.633,0.991,2.625,3.103,1.44,4.32
		C105.222,136.753,103.229,135.187,104.143,133.923z"/>
	<path fill-rule="evenodd" clip-rule="evenodd" fill="#E7A614" d="M388.303,140.163c1.971,0.229,0.919,4.836,0,5.28
		C386.825,144.187,387.614,141.754,388.303,140.163z"/>
	<path fill-rule="evenodd" clip-rule="evenodd" fill="#E7A614" d="M246.703,150.243c2.136,0.441,2.93,5.548,0,5.76
		c0.686-0.641,0.686-2.72,0-3.36c-1.909,0.01-1.419,2.42-1.439,4.32c-1.971-0.109-1.819-2.34-1.92-4.32
		C244.548,151.928,245.987,151.447,246.703,150.243z"/>
	<path fill-rule="evenodd" clip-rule="evenodd" fill="#130F06" d="M347.023,155.523c1.293,0.032,2.308,1.097,1.44,1.92
		C347.199,157.587,346.888,156.778,347.023,155.523z"/>
	<path fill-rule="evenodd" clip-rule="evenodd" fill="#E7A614" d="M46.063,180.483c-11.254,10.666-19.721,24.119-31.68,34.08
		c0.063,1.183,0.072,2.312-0.48,2.88c5.812-21.389,12.852-45.708,28.32-59.04C44.954,164.312,44.5,173.405,46.063,180.483z"/>
	<path fill-rule="evenodd" clip-rule="evenodd" fill="#E7A614" d="M454.543,164.643c-1.182,0.544-2.659,2.381-3.841,1.44
		c-0.361-1.802,1.834-1.046,1.921-2.4c0.021-0.821-0.357-1.243-0.96-1.44c-1.634,0.126-1.358,2.162-2.4,2.88
		C443.619,161.095,455.953,157.382,454.543,164.643z"/>
	<path fill-rule="evenodd" clip-rule="evenodd" fill="#130F06" d="M365.743,169.443c1.351,0.09,2.046,0.835,1.921,2.4
		C365.888,172.178,365.542,171.083,365.743,169.443z"/>
	<path fill-rule="evenodd" clip-rule="evenodd" fill="#E7A614" d="M99.343,197.763c4.662,4.458,7.491,10.749,8.64,18.72
		c-4.473-1.309-13.445-6.941-13.44-11.52C94.546,201.768,98.599,201.405,99.343,197.763z"/>
	<path fill-rule="evenodd" clip-rule="evenodd" fill="#E7A614" d="M34.543,202.083c0.65-0.083,0.622,2.778,1.44,0.96
		c4.529,18.199,14.797,30.943,25.44,43.68c2.602,3.114,6.388,5.472,8.64,8.64c6.54,9.202,8.367,21.532,8.16,37.44
		c-11.146-0.066-23.279-3.272-33.12-6.24C46.6,257.782,32.419,230.01,34.543,202.083z"/>
	<path fill-rule="evenodd" clip-rule="evenodd" fill="#130F06" d="M224.143,205.923c-0.775,0.135-0.826-0.454-1.44-0.48
		c-0.35-1.31,0.954-0.966,0.96-1.92C224.884,203.572,224.797,205.312,224.143,205.923z"/>
	<path fill-rule="evenodd" clip-rule="evenodd" fill="#E7A614" d="M191.983,236.163c0.816-0.176,0.906,0.375,0.96,0.96
		c-1.569,8.99-2.686,18.434-7.2,24.48c-6.181-4.379-6.673-14.447-9.12-22.56C182.828,237.798,190.017,244.6,191.983,236.163z"/>
	<path fill-rule="evenodd" clip-rule="evenodd" fill="#E7A614" d="M168.463,249.123c3.017,3.386-0.882,10.468-3.36,12.96
		c0.014-4.174,0.298-8.618-0.96-11.52C166.055,250.554,167.524,250.104,168.463,249.123z"/>
	<path fill-rule="evenodd" clip-rule="evenodd" fill="#E7A614" d="M28.303,261.123c-0.29-1.789,1.227-3.036,0-4.32
		c-1.194-0.074-1.486,0.754-2.4,0.96c0.498,1.11,0.977,3.682,0.48,4.32c-7.633-1.282-3.131-13.77,4.32-10.08
		C33.897,253.584,34.704,259.948,28.303,261.123z"/>
	<path fill-rule="evenodd" clip-rule="evenodd" fill="#E7A614" d="M187.663,264.003c0.506,1.277,0.903,3.687-0.48,4.32
		c-1.734,0.455-0.669-1.891-0.96-2.88c-0.48,0-0.96,0-1.44,0c-1.423,0.697,0.632,1.872,0,3.36c-1.145-0.615-2.601-0.919-2.88-2.4
		C182.245,263.983,185.22,262.871,187.663,264.003z"/>
	<path fill-rule="evenodd" clip-rule="evenodd" fill="#E7A614" d="M165.103,264.483c1.816-0.316,0.9,3.363,0.48,3.84
		C164.5,267.965,165.396,265.63,165.103,264.483z"/>
	<path fill-rule="evenodd" clip-rule="evenodd" fill="#E7A614" d="M157.903,283.203c2.013,0.067,1.96,2.199,1.92,4.32
		c-1.058-0.699-2.732-3.64-2.88,0C155.495,286.197,157.298,284.065,157.903,283.203z"/>
	<path fill-rule="evenodd" clip-rule="evenodd" fill="#E7A614" d="M148.783,307.683c1.719-0.279,1.459,1.421,1.44,2.88
		c-2.137-1.706-2.443-0.402-1.44,1.92c-1.088-0.512-1.744-1.456-1.92-2.88C147.709,309.169,148.35,308.529,148.783,307.683z"/>
	<path fill-rule="evenodd" clip-rule="evenodd" fill="#E7A614" d="M126.703,342.243c1.705,0.055,1.932,1.589,1.92,3.36
		c-1.266,0.146-1.238-1.002-1.44-1.92c-1.567,0.693-1.208,1.072-0.96,2.88c-1.433-0.328-1.609-1.911-1.44-3.84
		C125.543,342.683,126.614,342.954,126.703,342.243z"/>
	<path fill-rule="evenodd" clip-rule="evenodd" fill="#E7A614" d="M87.343,348.483c1.583,0.018,1.835,1.365,1.92,2.88
		c-1.075-0.578-2.84-1.996-2.4,0.96c-1.291,0.331-0.928-0.992-1.44-1.439C85.221,349.241,86.861,349.44,87.343,348.483z"/>
	<path fill-rule="evenodd" clip-rule="evenodd" fill="#E7A614" d="M14.383,356.643c1.219,2.671-1.79,5.241-1.44,8.64
		C11.27,362.158,14.123,359.432,14.383,356.643z"/>
	<path fill-rule="evenodd" clip-rule="evenodd" fill="#E7A614" d="M157.423,378.723c1.826,0.428,4.192,2.827,2.88,4.8
		c-2.299,0.186,0.825-2.312-1.44-2.4c-0.775-0.135-0.827,0.454-1.44,0.48c-0.695,1.814,1.319,0.921,0.96,2.399
		C155.713,385.894,155.039,379.352,157.423,378.723z"/>
	<path fill-rule="evenodd" clip-rule="evenodd" fill="#E7A614" d="M147.343,381.123c3.087,0.695,2.817,2.847,2.4,6.24
		c-1.882,0.442-0.348-2.532-1.44-2.88c-0.861-0.062-1.013,0.588-1.92,0.479c-0.514,1.794,1.192,1.368,0.96,2.881
		C143.778,387.405,144.745,381.832,147.343,381.123z"/>
	<path fill-rule="evenodd" clip-rule="evenodd" fill="#E7A614" d="M131.023,384.483c0.983,1.482,3.407,5.002,0.48,6.24
		c-0.005-1.275,0.182-2.741-0.48-3.36c-0.999,0.281-1.551,1.009-2.4,1.44c-0.51,1.79,1.8,0.76,1.44,2.399
		C125.837,390.926,126.974,384.186,131.023,384.483z"/>
	<path fill-rule="evenodd" clip-rule="evenodd" fill="#E7A614" d="M18.703,385.443c0,1.439,0,2.88,0,4.32
		c-1.889,0.769-0.167-2.073-1.44-1.92c-2.062-0.165-1.299,1.748-0.96,2.88c-1.547-0.533-1.519-2.642-1.44-4.801
		C15.861,385.421,17.417,384.213,18.703,385.443z"/>
	<path fill-rule="evenodd" clip-rule="evenodd" fill="#E7A614" d="M107.983,394.563c0.739-1.366,1.446-3.286,0-4.32
		c-1.407,0.032-1.783,1.098-2.4,1.92c-0.51,1.79,1.8,0.76,1.44,2.4c-2.13,0.37-1.932-1.588-2.88-2.4
		C105.265,381.368,116.782,391.798,107.983,394.563z"/>
	<path fill-rule="evenodd" clip-rule="evenodd" fill="#E7A614" d="M85.903,389.763c1.198,2.244,2.231,5.879-0.96,6.72
		c0.304-1.794,0.756-2.749-0.96-3.36c-2.081-0.32-1.292,2.228-1.44,3.84C77.522,395.375,81.456,385.972,85.903,389.763z"/>
	<path fill-rule="evenodd" clip-rule="evenodd" fill="#E7A614" d="M56.623,396.962c-0.159-1.759,0.533-2.667,0.96-3.84
		c-2.911-1.826-3.213,1.458-2.4,3.84c-4.484-1.41-1.77-9.487,2.88-7.199C59.717,392.021,59.881,396.126,56.623,396.962z"/>
	<path fill-rule="evenodd" clip-rule="evenodd" fill="#E7A614" d="M35.503,393.123c0.232,1.833-0.136,3.064-0.96,3.84
		c-0.597-1.683-0.079-4.482-2.88-3.359c-0.573,2.072,1.573,2.69,0.48,3.84C27.311,394.837,31.719,388.381,35.503,393.123z"/>
	<path fill-rule="evenodd" clip-rule="evenodd" fill="#130F06" d="M123.823,467.042c3.205,1.918,7.716,6.682,11.04,10.08
		C130.483,474.463,127.027,470.878,123.823,467.042z"/>
	<path fill-rule="evenodd" clip-rule="evenodd" fill="#130F06" d="M155.503,480.962c-0.166-2.893,1.464-8.131,3.36-10.56
		C158.464,474.644,156.756,477.576,155.503,480.962z"/>
	<path fill-rule="evenodd" clip-rule="evenodd" fill="#130F06" d="M154.543,484.803c1.309-3.652,2.772-7.148,4.8-10.08
		C158.638,478.977,157.12,482.419,154.543,484.803z"/>
	<path fill-rule="evenodd" clip-rule="evenodd" fill="#130F06" d="M160.783,477.603c-1.527,3.434-3.113,6.808-5.76,9.12
		C156.663,483.403,157.992,479.772,160.783,477.603z"/>
	<path fill-rule="evenodd" clip-rule="evenodd" fill="#130F06" d="M135.343,484.323c-2.098-1.742-4.064-3.616-5.28-6.24
		c2.266,1.415,4.118,3.242,5.76,5.28c1.952-0.646,0.103-1.227,0-2.4c2.826,0.694,4.209,2.831,6.72,3.841
		c-1.691,1.031-3.402-2.024-5.28-2.4c0.419,2.62,3.174,2.906,4.8,4.32c-4.547,2.992-8.673-2.784-12-5.28
		C131.866,480.458,132.908,484.345,135.343,484.323z"/>
	<path fill-rule="evenodd" clip-rule="evenodd" fill="#130F06" d="M134.863,492.483c0.907,2.458,4.912,5.964,8.16,7.68
		c-5.325-0.917-9.894-6.744-12-12.479c4.055,4.425,8.668,8.291,13.92,11.52C141.208,499.254,137.767,494.863,134.863,492.483z"/>
	<path fill-rule="evenodd" clip-rule="evenodd" fill="#130F06" d="M150.703,490.563c0.726,0.883,1.646-0.174,3.36-0.48
		c-0.975,0.785-1.328,2.192-2.88,2.4c0.225-1.975-1.207,0.377-1.92-0.96c1.013-1.707,2.454-2.986,4.8-3.36
		C153.128,489.148,151.799,489.739,150.703,490.563z"/>
	<path fill-rule="evenodd" clip-rule="evenodd" fill="#130F06" d="M161.743,489.123c1.967,2.379-3.447,5.445-4.32,8.16
		C155.686,494.993,161.469,492.538,161.743,489.123z"/>
	<path fill-rule="evenodd" clip-rule="evenodd" fill="#130F06" d="M131.983,492.962c2.756,4.444,7.857,6.544,11.52,10.08
		c-2.157-0.715-5.751-2.639-8.16-4.8C133.795,496.854,132.566,494.874,131.983,492.962z"/>
	<path fill-rule="evenodd" clip-rule="evenodd" fill="#130F06" d="M80.623,502.083c-1.192-1.688-0.785-2.979-2.4-4.8
		C80.535,495.788,81.911,500.074,80.623,502.083z"/>
	<path fill-rule="evenodd" clip-rule="evenodd" fill="#130F06" d="M147.823,498.243c0.708-1.058,9.229-1.236,5.76-0.479
		C151.99,497.739,149.635,498.97,147.823,498.243z"/>
	<path fill-rule="evenodd" clip-rule="evenodd" fill="#E7A614" d="M39.343,497.763c1.511,1.411,1.325,7.121-0.96,7.68
		c0.312-1.752-0.324-2.557-0.96-3.36c-0.26-1.699,1.7-1.18,1.44-2.88c-2.618-1.58-3.482,3.552-1.92,5.28
		C33.381,504.961,35.19,496.739,39.343,497.763z"/>
	<path fill-rule="evenodd" clip-rule="evenodd" fill="#E7A614" d="M71.983,498.723c0,2.239,0,4.479,0,6.72
		c-1.709-1.848-0.196-4.577-1.92-5.76c-0.775-0.136-0.826,0.453-1.44,0.479c0.456,1.944,1.524,3.276,1.44,5.76
		c-1.751,0.312-2.557-0.323-3.36-0.96c-0.35-1.31,0.954-0.966,0.96-1.92c-0.861-0.061-1.012,0.588-1.92,0.48
		c-0.507-3.311,2.287-3.361,1.92-5.28C69.461,497.891,70.346,497.968,71.983,498.723z"/>
	<path fill-rule="evenodd" clip-rule="evenodd" fill="#130F06" d="M133.423,498.243c2.154,2.646,5.79,3.81,7.68,6.72
		C138.137,503.129,134.417,502.049,133.423,498.243z"/>
	<path fill-rule="evenodd" clip-rule="evenodd" fill="#E7A614" d="M52.303,500.643c0.185,2.281-1.016,3.462,0,5.279
		C41.28,511.399,43.54,493.856,52.303,500.643z M49.903,506.403c-1.714-2.578,0.556-2.591,0.48-5.76
		c-0.954-0.007-0.61-1.31-1.92-0.96C47.034,500.922,46.613,506.962,49.903,506.403z"/>
	<path fill-rule="evenodd" clip-rule="evenodd" fill="#E7A614" d="M59.983,502.083c-1.281-1.756-3.596-0.515-4.32,0.96
		c1.836,2.099,0.472,1.835,1.44,4.801c-5.416-1.66-1.99-12.279,3.84-8.641C61.836,500.888,60.579,500.782,59.983,502.083z"/>
	<path fill-rule="evenodd" clip-rule="evenodd" fill="#130F06" d="M48.463,499.683c1.31-0.35,0.966,0.953,1.92,0.96
		c0.076,3.169-2.194,3.182-0.48,5.76C46.613,506.962,47.034,500.922,48.463,499.683z"/>
	<path fill-rule="evenodd" clip-rule="evenodd" fill="#130F06" d="M156.943,509.283c-1.306,1.414-3.965,1.475-5.76,2.4
		C150.586,510.268,155.105,509.858,156.943,509.283z"/>
	<path fill-rule="evenodd" clip-rule="evenodd" fill="#E7A614" d="M46.063,587.042c-17.6,4.633-17.264,39.893-9.12,55.2
		c1.603,3.012,5.146,6.421,7.2,9.12c4.677,6.146,4.307,11.325,10.08,10.56c-3.3-4.06-4.938-9.782-8.64-13.439
		c1.057-4.544,4.445-6.755,6.24-10.561c1.956,2.54-0.696,4.808,0.48,7.2c5.167-6.026,6.615-13.693,12.96-18.239
		c6.509-4.665,14.736-7.049,18.24-14.881c0-1.119,0-2.239,0-3.359c-1.59,0.649-1.109,3.371-2.4,4.319
		c0.22-2.792-1.426-7.358-0.96-10.079c3.649,0.35,5.299,2.7,7.2,4.8c-0.364,16.436-17.11,16.49-24.96,25.439
		c6.552-2.567,12.645-5.595,19.2-8.16c4.387,4.328,2.524,11.914-0.96,15.841c-8.377,7.11-12.696,18.772-24,22.56
		c-1.925,0.645-3.521-0.605-5.28,0.96c-2.633-1.527-3.688-4.632-5.76-6.72c-0.712,1.573,1.36,3.919,2.4,5.28
		c-2.455,0.685-3.075-4.598-4.32-6.721c-1.905,2.027,1.896,5.901,2.88,8.16c-4.815,0.176-2.812-6.468-5.76-8.16
		c-0.744,2.176,1.735,4.874,1.92,7.681c-3.359-1.281-2.308-6.973-4.32-9.601c-1.122,2.574,1.143,5.888,1.44,8.641
		c-2.279-1.562-2.605-5.075-3.36-8.16c-1.672,2.807,0.631,5.758,1.44,7.68c-3.714-1.246-4.612-5.309-4.32-10.56
		c-2.474,3.662,0.014,10.495,3.84,11.04c-5.396,1.71-6.115-5.402-7.2-9.601c-1.453,3.542,1.45,6.863,2.4,9.601
		c-3.455,0.094-3.384-3.336-4.32-5.761c-1.432,0.008,0.677,3.558-1.44,2.88c0.993-5.282,1.282-11.177-0.48-17.76
		c1.979,2.341,1.276,7.364,3.84,9.12c-3.095-8.831-6.143-16.955-5.76-26.88c0.612-15.891,9.583-28.982,17.28-37.92
		C43.673,586.233,44.483,587.023,46.063,587.042z M38.383,653.283c-1.987-5.054-3.038-11.043-4.8-16.32
		C33.766,641.938,35.728,649.191,38.383,653.283z M32.143,651.363c-1.14-2.38-1.152-5.888-3.36-7.2
		C30.08,646.386,29.83,650.156,32.143,651.363z M40.303,655.683c-0.878-3.603-1.143-7.817-3.36-10.08
		C37.917,649.109,38.615,652.891,40.303,655.683z M43.183,655.203c0-0.8,0-1.6,0-2.399c-3.083,0.203-1.497-4.264-3.36-5.28
		C39.391,649.835,40.797,654.141,43.183,655.203z"/>
	<path fill-rule="evenodd" clip-rule="evenodd" fill="#E7A614" d="M47.983,589.922c1.467,1.254,3.521,1.92,4.8,3.36
		c0.546,3.392-0.198,7.593-3.84,8.16c-1.418-1.888,0.249-4.009,0.48-5.76c-0.091-0.389-0.482-0.479-0.48-0.96
		c-1.66-0.381-2.026,0.533-2.88,0.96c0.528,1.59,1.648,4.477,0.96,5.76c-5.5-0.569-4.638-10.262,0.96-10.08
		C47.983,590.883,47.983,590.403,47.983,589.922z"/>
	<path fill-rule="evenodd" clip-rule="evenodd" fill="#E7A614" d="M56.623,612.483c1.184,3.206-1.719,5.817-1.92,9.6
		c-0.293,5.526,2.676,11.824-0.48,16.801C53.373,630.398,48.296,617.685,56.623,612.483z"/>
	<path fill-rule="evenodd" clip-rule="evenodd" fill="#130F06" d="M33.583,636.962c1.763,5.277,2.813,11.267,4.8,16.32
		C35.728,649.191,33.766,641.938,33.583,636.962z"/>
	<path fill-rule="evenodd" clip-rule="evenodd" fill="#130F06" d="M28.783,644.163c2.208,1.312,2.22,4.82,3.36,7.2
		C29.83,650.156,30.08,646.386,28.783,644.163z"/>
	<path fill-rule="evenodd" clip-rule="evenodd" fill="#130F06" d="M36.943,645.603c2.218,2.263,2.482,6.478,3.36,10.08
		C38.615,652.891,37.917,649.109,36.943,645.603z"/>
	<path fill-rule="evenodd" clip-rule="evenodd" fill="#130F06" d="M39.823,647.523c1.863,1.017,0.276,5.483,3.36,5.28
		c0,0.8,0,1.6,0,2.399C40.797,654.141,39.391,649.835,39.823,647.523z"/>
	<path fill-rule="evenodd" clip-rule="evenodd" fill="#F2D2AE" d="M105.103,435.843c-2.009-2.151-3.513-4.808-3.84-8.641
		C102.9,429.726,103.754,433.032,105.103,435.843z"/>
	<path fill-rule="evenodd" clip-rule="evenodd" fill="#F2D2AE" d="M130.063,516.002c-0.479-7.467-0.92-14.721-1.92-19.68
		C130.507,501.159,130.085,508.781,130.063,516.002z"/>
	<path fill-rule="evenodd" clip-rule="evenodd" fill="#F2D2AE" d="M185.743,657.123c2.25,2.23,3.118,5.843,5.28,8.16
		C188.537,663.29,186.861,660.485,185.743,657.123z"/>
	<path fill-rule="evenodd" clip-rule="evenodd" fill="#F2D2AE" d="M437.263,142.083c1.527,0.712,4.477,0.003,5.76,0.96
		c-2.088,0.008-4.318,0.159-5.76-0.48C437.263,142.403,437.263,142.243,437.263,142.083z"/>
	<path fill-rule="evenodd" clip-rule="evenodd" fill="#130F06" d="M118.063,12.963c8.902-3.358,17.432-12.703,27.36-12.96
		c5.437-0.141,14.799,4.493,17.28,10.08c1.237,2.786-0.163,5.677,0.48,8.64c0.372,1.716,2.599,2.755,2.88,5.76
		c0.693,7.41-8.299,12.856-13.92,8.16c-5.137-4.292-1.604-12.591,4.32-14.4c0.098-3.792-1.404-9.571-6.24-10.08
		c-6.487-0.683-15.417,10.223-15.84,17.76c-0.495,8.819,5.734,17.123,2.4,24.96c8.597,0.266,24.687-3.964,31.2,0
		c1.405,0.855,1.96,3.369,3.36,5.28c3.037,4.146,7.568,7.871,10.08,13.44c2.405,5.332,5.979,13.065,5.76,20.64
		c-0.175,6.029-4.235,10.226-4.32,15.36c0.791,1.929,2.775,2.664,3.84,4.32c0.283,10.261-16.205,12.746-16.8,3.36
		c-0.263-4.147,2.785-4.903,4.8-7.68c1.231-9.63-1.135-21.519-12.48-17.28c-2.4,0-4.8,0-7.2,0c-2.096,0.336-2.704-0.816-4.8-0.48
		c2.641,12.125,9.941,29.167,5.28,43.2c4.716-0.248,8.805-5.273,15.84-4.8c1.866-0.854,3.448-1.992,5.76-2.4
		c9.12-5.243,18.018-12.368,28.32-17.28c4.913-2.343,11.008-3.505,16.32-6.24c7.08-3.646,11.47-9.053,21.6-9.12
		c1.539-0.701,1.386-3.094,2.88-3.84c-5.666-2.814-12.668-4.292-18.72-6.72c0.285-1.795,1.678-2.482,2.4-3.84
		c8.85,2.507,19.115,4.575,28.799,7.2c2.16,0.585,3.724,1.965,6.24,1.92c1.957-0.035,3.315-1.5,5.28-1.92
		c4.598-0.982,17.329-1.283,23.04-0.48c7.918,1.113,10.334,9.08,15.36,14.88c13.076,2.62,25.31,8.588,38.88,9.12
		c0.267-5.667,7.17-8.652,9.12-2.4c3.782-0.963,6.922-3.669,11.52-2.4c-1.143-3.337-3.882-5.078-4.32-9.12
		c-2.516,0.116-4.421-0.378-5.76-1.44c-1.871-4.714,2.027-7.353,4.32-7.2c3.768,0.251,7.006,9.84,13.92,8.64
		c1.076-2.853-3.988-3.531-3.84-7.2c0.127-3.146,3.107-5.148,7.2-2.88c0.645,1.834,1.111,2.582,0,4.32
		c0.847,3.773,5.986,3.424,9.119,5.28c5.059,2.996,11.244,11.332,11.521,20.16c6.619-2.438,12.607,1.017,19.2,1.44
		c5.271-5.966,5.29-14.298-0.48-20.16c-3.431-0.725-7.401-2.508-7.68-7.68c1.518-1.842,3.203-3.517,7.2-2.88
		c4.847,10.569,19.313,16.452,17.279,31.68c-0.41,3.07-2.986,4.954-2.399,9.6c1.136,1.104,6.24,0.8,6.24,0.96
		c1.974,0.39,2.717,0.804,4.8,2.4c2.979,2.189,6.802,5.434,8.64,10.08c0.392,0.99,0.048,2.429,0.48,3.36
		c0.987,2.126,3.668,3.727,4.319,5.76c1.229,3.833-0.318,8.533-2.399,12c0.304,1.616,1.378,2.461,0.96,4.8
		c-3.489,10.013-15.967-2.52-6.24-6.24c2.261-7.345-1.372-13.338-7.2-15.36c-1.283-0.957-4.232-0.248-5.76-0.96
		c-3.734-1.363-4.886,4.647-8.16,0.48c1.811,4.303,4.911,10.2,2.88,16.8c-1.91,6.209-8.762,6.749-14.399,9.12
		c3.297,11.337-10.854,11.047-9.601,2.4c0.624-4.303,9.569-7.514,10.08-13.44c0.539-6.256-5.65-5.846-8.64-9.12
		c-2.977,2.934-9.54,6.101-14.4,2.88c-2.518-1.402-2.42-5.831,0.48-6.72c1.507,0.227,1.268-1.292,2.399-1.44
		c-0.747-1.652-3.771-1.029-2.88-4.32c-1.249,0.358-2.887,1.772-4.32,0.48c-0.159,1.919,0.856,2.665,0.48,4.8
		c-0.796,1.444-1.378,3.102-2.88,3.84c0.068,13.188-15.427,10.813-21.12,18.24c1.196,0.883,3.465,0.695,3.84,2.4
		c0.524,4.204-2.035,5.324-4.8,6.24c-2.46-0.1-3.685-1.435-4.8-2.88c0-0.48,0-0.96,0-1.44c1.154-1.51,2.45-5.674,0-6.72
		c-0.525-3.011-0.152-4.053,0.96-6.24c-6.536-1.979-10.718,1.912-16.8,1.92c-1.626-2.2-0.804-5.776,1.439-6.72
		c1.752-0.312,2.557,0.323,3.36,0.96c3.424,0.218,5.623-4.933,7.68-7.68c0.386-0.254,0.779-0.5,1.44-0.48
		c-5.29-4.524-12.281,0.404-17.28,1.92c-0.014-0.467-0.588-0.373-0.96-0.48c-2.93-1.675-1.894-6.195,0.479-7.68
		c7.11,1.549,9.048-6.621,15.841-8.16c0.16,0,0.319,0,0.479,0c0.013-0.467,0.588-0.373,0.96-0.48
		c-1.331-2.029-3.988-2.732-6.24-3.84c-3.094-1.756-3.353-5.312-8.159-4.32c-1.432-1.091-2.992-4.548-0.96-6.24
		c-1.784-0.296-3.017-1.144-4.801-1.44c-3.162-0.517-5.187-2.173-8.64-2.4c-4.572-2.234-9.298-2.48-14.88-2.88
		c-5.8-5.406-10.097,1.54-16.32,2.4c-1.664,0.256-4.553-0.713-4.8,0.96c-5.828,1.38-13.153-0.242-17.28,1.92
		c-1.861-0.869-4.378-3.607-6.24-2.88c-7.641-1.574-11.23,5.475-16.8,1.92c-4.52,2.84-8.891,5.829-16.319,5.76
		c9.623,3.565,14.955,16.908,10.56,28.8c3.826,3.847,2.498,11.401-5.28,10.08c-1.029-1.371-2.381-2.419-1.92-5.28
		c0.649-0.472,0.96-1.281,1.44-1.92c-6.676-1.644-7.242-9.398-12.48-12.48c-0.698,0.213,0.048,0.422,0,0.96
		c5.505,19.078,5.042,43.103-3.84,60c1.672,1.219,3.254,3.959,1.92,6.72c10.322-1.755,18.475-2.882,29.28-4.32
		c-0.746,10.874-15.582,9.403-24.48,12c0.272,4.459,5.624,5.123,5.761,9.6c0.086,2.838-3.97,9.486-6.721,11.52
		c-5.497,4.065-14.537,3.96-21.12,5.28c-0.999-1.239-0.41-3.964,0.96-4.32c-1.221-1.067-3.486-1.83-1.92-4.32
		c-4.055,1.864-10.406,1.441-13.92,1.44c-1.095,0.666-0.179,3.341-0.48,4.8c-1.496,8.584-2.861,17.299-6.72,23.52
		c-0.591,1.592,2.516,3.099,1.44,6.72c-2.979,3.561-9.142,3.294-10.56-1.44c-0.354-2.721,4.137-3.93,0.96-5.28
		c-1.948-3.172-3.085-7.154-4.32-11.04c-2.939,0.74-4.729,2.63-4.8,6.24c-2.4,4.125-3.281,6.868-2.88,12
		c-1.091,0.989-1.839,2.321-4.32,1.92c0,0.32,0,0.64,0,0.96c0.34,1.78-0.82,2.06-0.48,3.84c0.564,3.772-3.581,5.368-3.36,7.2
		c0,0.16,0,0.32,0,0.48c0.389,0.091,0.479,0.482,0.96,0.48c-0.061,0.861,0.587,1.013,0.48,1.92c1.035,4.322-3.879,5.305-6.24,3.36
		c-0.403,0.557-0.633,1.287-0.48,2.4c0.271,2.19-0.851,2.989-0.48,5.28c-1.041-0.081-0.217,1.702-0.48,2.4
		c-0.861,2.659-1.917,5.122-3.84,6.72c0.269,0.691,0.749,1.171,1.44,1.44c1.206,1.802,0.185,4.786-0.96,5.76
		c-1.15,0.29-2.19,0.69-3.84,0.48c2.849,8.031,4.146,17.613,6.24,26.4c0.729,5.786-0.258,13.211,1.92,16.319
		c1.93,3.351,3.803,6.758,4.8,11.04c-0.49,2.482-0.007,2.953,0,5.76c0.498,2.069-1.96,4.194,0,4.801
		c1.659,0.9,2.579,2.54,3.36,4.319c-0.519,1.562-1.418,2.742-2.4,3.84c-2.028-0.107-3.1,0.74-4.8,0.961
		c3.405,4.595,2.505,13.495,4.32,19.68c-0.159,4.004,0.722,11.114,1.44,15.84c0,0.32,0,0.64,0,0.96c0,5.6,0,11.2,0,16.8
		c-3.744,30.939,6.726,55.567,13.44,80.641c6.796,25.378,7.879,52.258,13.44,77.76c4.592,5.488,12.638,7.521,13.44,16.8
		c1.326,2.514,0.843,6.837,1.92,9.6c0,0.16,0,0.32,0,0.48c-2.651,6.564-0.6,13.956,2.4,18.72c0.815,2.865,3.324,4.036,5.76,5.28
		c0,0.16,0,0.32,0,0.479c1.585,0.354,5.053,1.322,6.24,0.48c3.878-0.055,7.366,2.163,10.56,1.44c5.706-1.292,15.28-20.185,16.8-26.4
		c0.333-1.361-0.257-1.986,0-2.88c0.611-1.79,0.993-5.826,0.48-7.2c0.769-9.357-2.717-15.349-12.96-14.88
		c2.26,7.095-2.354,15.102-10.08,15.36c-4.86-1.7-6.97-6.15-6.72-12.96c8.221-4.107,19.629-10.47,27.84-4.801
		c5.157,3.562,6.249,10.379,10.56,15.36c0.433,1.808,0.85,3.631,1.44,5.28c0,0.479,0,0.96,0,1.439
		c0.432,8.287-0.794,12.891-3.36,18.721c-2.931,7.321-7.872,15.149-10.08,21.6c-1.165,0.914-3.146,1.013-3.359,2.88
		c-0.316,0.645-1.026,0.894-1.92,0.96c-7.421,2.979-13.218,7.582-24.48,6.72c-8.518-0.762-16.884-1.676-22.08-5.76
		c-2.162-2.317-3.03-5.93-5.28-8.16c-1.25-1.31-2.992-2.128-4.8-2.88c-2.455-3.055-2.43,2.009-3.84,2.88
		c-4.508-1.092-8.223-2.978-12.48-4.319c0-1.44,0-2.881,0-4.32c-7.417-7.324-4.031-19.404,0.96-27.36
		c0.651-0.148,0.398-1.201,0.48-1.92c-2.005,0.405-2.267-0.933-3.84-0.96c-10.029-4.733-4.381-16.422,0.48-22.56
		c-1.906-14.946-12.561-23.678-18.24-35.521c-0.755-1.574-0.721-3.667-1.44-5.279c-2.732-6.134-6.287-10.492-8.16-17.28
		c-1.749-6.337-3.818-13.082-4.8-21.601c0.022-7.222,0.444-14.844-1.92-19.68c-4.071-23.77-13.133-42.547-23.04-60.479
		c-1.349-2.812-2.203-6.117-3.84-8.641c-0.266-0.854-0.247-1.993-0.96-2.399c-2.672-9.648-7.068-17.572-9.6-27.36
		c0.347-1.467-0.491-1.749-0.48-2.88c-0.994-1.246-0.583-3.896-1.92-4.8c-1.466,25.619-3.925,58.441-12.96,79.68
		c0.196,1.156-0.877,1.043-0.48,2.4c-0.799,3.366-0.799,10.073,0,13.439c0,0.479,0,0.96,0,1.44c0,1.6,0,3.199,0,4.8
		c0.385,1.665-0.715,1.845-0.48,3.36c1.312,0.572,5.942-1.699,7.68,0.479c1.756,1.604,3.047,6.915,0.48,8.64
		c-1.824,0.416-2.311,2.169-4.8,1.92c2.04,6.92,3.836,14.084,3.84,23.04c-1.129,13.017-3.133,24.673-3.84,36.96
		c-2.398,11.935,0.789,24.972,1.44,35.521c14.16-2.447,11.75,17.534,5.76,22.56c5.396,7.153-2.06,13.306-3.36,18.721
		c-0.374,1.559,0.519,3.419,0,4.8c-1.001,2.665-3.862,4.368-6.24,4.8c-0.347-1.467,0.491-1.749,0.48-2.88
		c-5.733,6.811-14.021,17.392-27.84,18.24c-9.933,0.609-25.115-1.16-24.96-11.521c2.236-2.604,2.721-9.394,0.48-12.479
		c-3.371-16.262-1.564-27.911,4.8-40.8c4.017-8.137,7.825-15.525,15.84-18.24c2.926,2.514,6.011,4.869,9.6,6.72
		c-4.28-19.24-13.462-37.737-15.36-60.96c-0.312-2.408,0.629-6.069-0.48-7.68c-0.519-5.959,0.825-10.055,1.44-14.88
		c-3.738,0.339-9.004-3.4-6.72-9.12c2.244-1.68,4.635-2.662,7.2-2.88c0.049-4.854-2.143-11.615-2.4-17.761c0-1.76,0-3.52,0-5.279
		c0-1.28,0-2.561,0-3.841c0-2.079,0-4.159,0-6.239c-0.062-4.259-1.53-7.11-1.92-11.04c-1.286-2.395-1.406-5.954-2.88-8.16
		c-5.514-15.126-8.217-33.062-11.52-50.4c0-0.479,0-0.96,0-1.439c-0.906-1.184-2.176,1.312-3.36,1.439c-0.16,0-0.32,0-0.48,0
		c-1.24-1.319-3.665-1.455-4.8-2.88c-1.528-2.956,0.573-5.175,2.4-6.24c-7.121-7.943-3.846-20.963-0.96-31.199
		c2.739-9.716,5-19.521,9.12-28.8c4.153-9.354,10.469-16.731,14.88-23.04c-1.617-6.319,3.409-11.362,4.32-17.28
		c2.237-14.539-4.792-29.151-6.72-42.24c-2.612,1.548-2.719,5.601-4.8,7.68c4.502,3.12,5.312,9.519,0.96,13.44
		c-0.64,0-1.28,0-1.92,0c-3.969,1.265-7.948,1.355-9.6-3.84c0-0.32,0-0.64,0-0.96c-0.471-3.671,1.686-4.715,2.88-6.72
		c2.019,0.098,2.016-1.824,3.84-1.92c2.814-9.201,2.614-22.547,4.32-34.08c0-1.6,0-3.2,0-4.8c0-1.92,0-3.84,0-5.76
		c0-0.32,0-0.64,0-0.96c0-0.32,0-0.64,0-0.96c-1.048-0.703-2.528,2.254-3.36,3.36c-3.034,7.526-6.266,14.854-9.12,22.56
		c-1.227,3.953-2.228,7.706-1.44,12c5.159,4.857-0.174,13.274-5.76,13.92c-8.313,0.961-11.863-9.513-4.32-13.92
		c1.157,0.196,1.043-0.877,2.4-0.48c0.639-1.441,0.488-3.672,0.48-5.76c-0.306-2.594,0.534-4.783,0-6.24
		c1.114-2.566,0.165-7.196,0.48-10.56c7.187-24.653,13.266-50.414,32.16-63.36c-3.721-15.606,3.004-27.379,6.24-41.28
		c2.042-8.772,3.557-18.51,7.2-24.48c2.633-4.313,7.459-6.64,8.16-11.52c-3.602,0.07-7.588-2.733-12.96-2.4
		c-4.642-3.136-9.65-5.2-15.84-7.68c-10.361,5.959-18.316,14.324-23.52,25.44c5.349,5.682,1.393,12.517-4.8,14.4
		c-8.752-0.747-10.015-14.009-0.96-15.36c0.998-6.921,3.884-13.538,7.2-19.68c2.872-5.321,5.895-12.799,10.56-16.32
		c4.224-3.188,17.302-8.252,23.04-9.6c3.331-0.782,7.54-0.96,10.56-0.96c8.416,0,16.51,3.662,26.4,2.4c2.4,0,4.8,0,7.2,0
		c1.764,0.156,2.656,1.184,4.32,1.44c0.938-11.916,9.574-19.711,15.36-28.32C113.463,17.963,115.864,15.563,118.063,12.963z
		 M103.183,148.803c1.358-1.03-0.7-1.192,0-2.88c-2.536-0.185-4.462-0.978-6.72-1.44c4.681-8.21,10.35,5.345,16.32,1.44
		c-10.702-2.972-18.835-10.474-19.2-22.56c-0.197-6.51,1.842-14.464,0.96-21.6c-0.595-4.817-3.825-9.005-2.4-12.96
		c7.493-10.459,20.062-2.6,33.12-4.32c4.089-0.539,6.818-2.438,11.04-1.92c1.272,4.809,5.236,9.204,5.28,13.92
		c0.02,2.163-1.771,4.029-1.92,6.24c-0.208,3.109,1.824,5.324,0.96,8.64c-3.324,4.516-7.911,7.77-7.2,16.32
		c-5.502,2.107-5.447,9.603-8.16,14.4c-1.185,2.093-3.614,2.764-3.84,4.8c2.871,0.193,4.95-5.844,5.28-2.4
		c0.684-1.986,5.239-4.304,3.36-5.76c-1.11,1.145-3.403,3.618-4.32,3.36c3.626-2.962,3.804-11.838,8.16-12.48
		c0.692,13.943,11.495,23.48,12.48,36.96c0.43,5.889-0.382,13.192-0.48,19.2c-1.478,0.358-0.923-1.317-2.4-0.96
		c-3.778,2.831-3.487,9.69,1.92,10.56c0.798-2.174-0.449-3.745,0.48-5.28c0.614-0.657,2.266-0.657,2.88,0
		c-0.056,1.926-2.556,3.215-1.44,4.8c4.484,0.433,6.202-9.933,0-10.56c-2.364-11.752,3.263-19.441,4.32-29.76
		c0.36-3.515-0.487-7.218-0.48-11.04c0.02-10.613,5.432-21.098,2.88-31.2c-0.366-1.451-1.548-2.646-1.92-3.84
		c-0.815-2.619-0.509-4.962-0.96-7.68c-0.832-5.009-2.8-7.553-4.8-11.04c0.639-0.071,1.448,1.952,1.92,0.48
		c-2.411-1.914-4.751-6.442-7.68-6.24c2.197,3.083,3.866,6.694,6.72,9.12c-5.598-0.643-5.052-7.428-8.64-10.08
		c0.565-0.075,1.362,0.083,1.44-0.48c-2.024-1.016-4.676-1.404-6.72-2.4c0.416-4.391-6.184-10.031-5.28-17.76
		c0.44-3.763,5.016-9.074,5.76-14.4c1.469-10.51-4.08-20.311-1.92-27.84c2.328-8.114,12.351-13.959,20.16-14.4
		c4.744,2.345,8.117,6.797,6.72,13.92c-5.758,0.216-10.234,11.207-1.92,12c0-0.8,0-1.6,0-2.4c-0.418-1.419-0.381,1.451-1.92,0.48
		c0.183-1.951,3.84-4.271,5.28-1.92c-0.094,1.507-1.899,1.301-1.44,3.36c3.912-0.248,5.053-3.266,4.8-7.68
		c-0.647-1.113-2.027-1.494-2.4-2.88c-0.689-4.224,0.293-8.419-1.92-11.521c-1.932-2.707-8.933-6.354-11.52-6.72
		c-6.264-0.887-11.036,3.093-15.84,5.76c-9.471,5.257-15.885,9.665-22.08,17.76c-3.415,4.462-7.109,9.685-8.64,12.48
		c-1.431,2.611-3.316,8.857-2.88,11.04c1.13,5.661,9.01,7.293,9.12,13.92c-2.932,1.388-4.142,4.498-9.12,3.84
		c-6.154,3.447-6.725,12.476-12.96,15.84c0,0.8,0,1.6,0,2.4c-2.577,1.583-3.884,4.437-6.24,6.24
		c-6.263,13.528-20.038,20.716-26.4,34.08c-0.872,1.832-0.051,4.346-2.88,5.28c2.891-12.367,12.41-19.4,20.16-28.32
		c5.13-5.904,9.071-12.66,13.92-18.72c-3.854-3.506-9.024-5.696-14.88-7.2c-12.404,11.565-16.777,29.188-20.64,48.96
		c-1.248,6.386-4.554,10.611-3.84,18.24c1.484,15.846,5.703,31.14,3.36,46.56c-5.001,0.568-6.631,9.66-0.96,10.56
		c0.282-2.552-1.447-4.536,1.44-4.8c1.094-0.134,1.805,0.116,1.92,0.96c1.731,1.972-1.913,1.641-1.44,3.84
		c4.139-0.181,4.408-4.232,4.8-8.16c-0.333-2.068-2.754-2.045-3.36-3.84c-0.595-7.512,3.505-11.563,5.28-17.76
		c1.116-3.896,1.229-8.941,1.44-12.96c0.346-6.582,1.314-10.052,4.32-14.4c4.402-6.368,9.153-12.507,11.04-19.68
		c0.347-1.467-0.491-1.749-0.48-2.88c5.703-6.778,1.685-23.275,9.12-28.32c-2.491,3.272-3.442,10.634-2.88,15.36
		c0.982-2.378,0.323-6.396,1.44-8.64c1.057,6.69-1.154,14.182-2.88,19.68c2.71,8.49,11.067,13.892,12.96,21.6
		c-4.688-6.512-10.221-12.179-13.92-19.68c-0.353,1.887-1.001,3.479-1.44,5.28c8.315,5.605,10.565,17.275,22.56,19.2
		c1.854,1.667,4.14,2.9,6.24,4.32c6.742,0.363,13.048,0.094,17.28-3.84c-2.941,0.258-5.752,0.647-6.72,2.88
		C111.584,149.464,105.564,148.634,103.183,148.803z M73.903,127.683c-0.461,2.739-1.993,4.407-1.44,8.16
		c5.073,0.528,8.196,3.004,8.16,8.64c-5.422,0.622-7.198-2.402-9.12-5.28c3.332-0.601,4.471,3.515,6.72,2.4
		c-2.226-1.294-4.19-2.85-6.72-3.84c-0.57,1.509-1.62,2.54-1.92,4.32c-4.409,3.838-8.856,6.695-9.6,13.92
		c-0.512,4.972,1.205,10.978-1.44,15.84c4.709-1.371,6.543-5.617,10.56-7.68c2.728,1.608-0.533,3.817-0.96,5.28
		c0.178,19.182,11.092,27.627,24,34.08c2.455-7.786,6.477-14.003,9.6-21.12c0.088,12.406,6.364,20.545,8.64,30.72
		c0.649,2.9,0.434,5.98,2.4,8.64c3.176-3.688,6.2,1.851,9.6,0.48c2.471-13.065,7.714-25.863,8.64-38.88
		c0.824,0.616,0.964,1.916,1.92,2.4c1.997,15.443,14.988,19.892,19.2,33.12c-0.073-9.097,2.662-19.637,1.44-27.36
		c-6.581,16.018-23.729-4.962-8.64-9.12c-2.873-5.494-0.593-15.639-2.4-21.6c-2.565-8.463-8.143-13.48-10.56-21.6
		c-2.804,3.677-6.297,8.953-12,8.16c-3.965,3.8-11.355,5.561-16.8,4.32c-1.85-0.421-3.1-2.386-5.28-3.36
		c-1.899-0.848-4.569-0.67-6.24-1.44c-7.087-3.267-10.621-12.316-15.36-15.84c1.304-0.299,2.248,2.17,2.88,0.96
		C77.068,130.918,76.414,128.372,73.903,127.683z M230.383,79.203c0.059,0.503,0.122,1.26,0.48,1.44
		c1.39,0.7,13.553,4.562,17.76,5.28c3.75,0.64,5.592,2.831,7.199-0.48C247.417,83.595,238.483,79.761,230.383,79.203z
		 M359.983,90.243c0.266,2.707,1.958,1.338,4.32,1.44c3.905,6.322,6.376,13.279,14.399,15.36c3.295,0.854,7.364-0.542,9.12,3.36
		c0.228,1.508-0.599,1.961-1.439,2.4c-9.771-2.768-18.99-12.329-30.24-5.28c3.152,1.888,5.875,1.314,9.12,2.88
		c3.197,1.543,5.04,5.605,8.16,6.72c4.384,1.566,9.152-0.673,9.6,4.32c-5.191,0.842-7.389-2.488-12.479-2.88
		c-4.836-0.372-8.886,2.853-13.44,2.88c-3.083,0.019-5.372-2.206-8.16-2.4c0.071-1.191,0.09-2.33-0.96-2.4
		c-1.155,1.277-2.551-0.664-3.359,0.96c0,0.8,0,1.6,0,2.4c1.474,1.832,3.764-0.004,4.8,0.48c5.893,7.302,18.461,12.721,29.279,7.2
		c0.007,0.954,1.311,0.61,0.961,1.92c-3.946,6.039-12.833,1.238-18.721,1.92c-7.188,0.832-11.037,7.69-15.359,11.52
		c-1.309-0.452-0.912-2.608-3.36-1.92c-1.259,0.846-1.259,3.473,0,4.32c4.272-0.251,5.258-2.909,8.64-3.84
		c4.332-1.192,7.746,1.508,12.48,1.92c6.46,0.562,10.057-3.049,15.84-4.8c0.206,0.914,1.034,1.206,0.96,2.4
		c-4.163,2.789-10.984,5.238-17.28,4.32c-5.292,2.3-7.335,13.083-14.88,8.64c-1.226,0.871-2.426,2.052-1.439,3.84
		c4.52-0.587,8.228-3.277,13.439-2.88c1.419,0.108,2.841,1.006,4.32,0.96c7.499-0.233,10.471-6.804,15.84-9.12
		c-0.336-2.416,0.996-3.164,3.36-2.88c-0.021,0.661,0.226,1.054,0.479,1.44c-4.295,7.865-15.05,9.27-21.12,15.36
		c1.554,3.692,3.453,7.793,0.48,11.04c2.926,1.923,6.719-0.003,5.76-2.88c-0.193-1.407-2.816-0.384-3.36-1.44
		c-0.916-1.917,1.126-4.489,1.921-6.24c10.11-2.562,20.549-6.15,18.239-19.68c-6.843-11.245,5.026-22.185,12.48-26.88
		c1.293-14.567-12.565-17.722-20.16-24.96c0.435-2.134,0.462-5.606-2.88-5.28c-2.74,3.787,3.545,4.904,3.84,8.64
		c5.405,4.515,13.354,6.486,15.36,14.4c-4.538-0.158-5.171-4.095-8.16-6.72c-5.644-4.956-14.754-3.546-19.681-9.6
		c-1.463-0.396-2.443-0.057-2.88-0.48c0.279-1.878-0.413-2.787-0.96-3.84c-2.227-0.146-3.318,0.842-3.359,2.88
		c1.403,0.102,1.558-2.708,2.399-0.48C361.469,90.899,360.83,89.339,359.983,90.243z M123.823,87.363
		c-7.809,0.213-16.43-4.539-23.04-0.96c-3.043,0.637-4.891,2.469-7.2,3.84c1.096,5.625,3.772,9.668,3.36,16.8c0,1.28,0,2.56,0,3.84
		c-2.436,12.116,1.119,21.72,7.2,27.84c0.027,0.293,0.072,0.568,0.48,0.48c2.132,4.488,10.763,5.742,15.84,4.32
		c3.713-0.927,3.133-6.147,3.84-10.08c0.426-0.854,1.34-1.22,0.96-2.88c2.304-1.856,2.982-5.338,5.28-7.2
		c-0.182,2.538-1.315,4.125-2.4,5.76c3.08-0.288,3.447-5.823,2.88-8.16c-2.467,2.013-3.783,5.177-5.28,8.16
		c-1.348,1.052-2.233,2.567-4.32,2.88c-10.181,0.26-12.747-7.093-16.32-13.44c1.833-1.237,3.519,1.083,4.8,1.92
		c3.967,3.535,11.022,7.763,15.84,2.88c3.985-2.772-7.144-3.083-7.68-6.72c0.001,0.481-0.389,0.571-0.48,0.96
		c-1.831,0.409-3.053,1.427-4.8,1.92c-3.574-0.056-6.324-3.76-8.64-0.96c-0.405,2.165,1.124,2.396,1.44,3.84
		c0.945,4.818,3.367,10.709,3.84,14.4c-0.16,0-0.32,0-0.48,0c-2.973-6.146-5.188-13.052-6.72-20.64c0.332-0.948,1.28-1.279,2.4-1.44
		c5.32,4.744,12.326,0.528,17.28-0.48c-0.522,0.882-2.651,1.197-1.44,2.4c2.559,1.761,6.127,2.513,8.64,4.32
		c0.115-0.685,0.791-0.81,0.96-1.44c4.998-9.19-6.95-18.676-1.44-27.36c1.674-1.019,4.708-2.79,7.2-1.44
		c2.208-0.465,0.415-4.332,0-5.28c-1.303,0.297-3.81-0.609-4.32,0.48C129.027,86.486,126.358,86.858,123.823,87.363z
		 M279.823,86.403c-7.217-1.947-11.364,2.063-17.279,2.88c0.063,5.949,4.691,9.583,2.88,15.84c3.488-0.991,7.326-1.633,12-1.439
		c3.285-1.359,6.586-5.248,9.6-5.28c0.355,1.635-1.769,0.791-1.92,1.92c4.525,1.44,9.903,3.589,15.84,2.88
		c0.206-2.454-4.016-4.618-6.24-6.24c-0.648-0.151-0.916-0.683-1.92-0.48c-2.176-1.184-3.857-2.862-6.72-3.36
		c-2.796,0.238-1.467-0.66-0.96-1.92c-0.718-0.082-1.771,0.172-1.92-0.48c0.92-1,1.84-2,3.36-2.4
		c1.711,1.009,1.374,4.066,4.319,3.84c0.614,0.026,0.665,0.615,1.44,0.48c0.521-1.229-1.458-2.289,0-2.88c0.16,0,0.319,0,0.479,0
		c1.449,1.186,3.951,2.528,2.4,5.28c2.494-0.123,6.33,1.776,7.68,0.48c0.635,0.005,0.439,0.841,0.96,0.96
		c-1.618-4.781-5.509-7.291-9.6-9.6c-1.501-1.332-2.381-0.433-4.8-0.48C286.223,86.403,283.023,86.403,279.823,86.403z
		 M249.103,95.043c-1.521,4.078-5.561,5.639-8.64,8.16c6.831-0.432,11.38,1.42,14.399,4.8c1.106-0.494,1.548-1.652,3.36-1.44
		c1.77,0.47,2.378,2.102,3.84,2.88c3.447-7.67-2.327-13.242-2.88-22.08C253.419,87.52,255.196,95.215,249.103,95.043z
		 M247.183,88.803c0,0.96,0,1.92,0,2.88c1.918,2.293,6.747-0.092,4.8-2.88c0.898,2.306-3.524,1.741-3.359,0.48
		c0.294-0.665,1.848-0.072,1.92-0.96C249.468,87.24,248.138,88.354,247.183,88.803z M131.983,94.083
		c-1.127,1.112-2.907,1.573-2.88,3.84c3.094-0.882,7.572-0.641,7.68,2.88c0.102,0.539,0.533,0.748,0.96,0.96
		C141.674,97.243,137.567,91.096,131.983,94.083z M217.423,104.163c-13.339,5.164-26.123,12.068-36,20.16
		c6.061-0.049,14.511,8.726,7.2,12.96c-3.89-2.049-6.356-7.476-8.16-10.08c-8.096-0.819-17.538,4.69-25.92,6.72
		c-2.186,7.441,0.531,13.966,0,20.16c-0.799,9.321-6.187,17.358-5.76,28.8c3.112,0.728,4.068,3.612,5.28,6.24
		c1.045-6.732-2.967-13.234-0.96-17.76c5.764,12.123,3.688,31.521,1.92,46.56c6.213-0.187,12.164-0.637,16.32-2.88
		c1.008-8.354,2.943-17.129-1.44-22.56c0.279-3.881-1.244-9.563,2.88-9.6c6.514,6.09-0.457,21.271,1.92,32.16
		c8.976,2.58,13.505-2.51,19.68-5.28c-1.5-1.252-1.709-2.042-1.92-3.84c-0.96-8.186,1.244-16.242,0-24
		c-0.629-3.926-2.685-7.091-2.4-11.52c-0.378-1.978,2.298-0.902,1.92-2.88c-3.334-1.469-2.026-14.465,1.44-13.92
		c4.072,0.64,0.324,9.037,0.96,14.4c0.213,1.798,1.814,3.913,1.92,5.76c0.297,5.229-1.243,12.016-0.96,18.24
		c0.311,6.849,0.709,13.132,0.48,17.28c3.092-0.212,3.812,1.948,5.28,3.36c1.801-0.439,3.393-1.087,5.28-1.44
		c1.157-14.597,7.596-33.176,4.8-48.96c-0.592-3.343-2.299-5.753-2.4-9.12c-0.16-5.312-2.199-10.203,1.92-12.96
		c4.86,2.174,3.468,7.881,3.36,12.96c-0.34,16.063,3.446,32.895,9.12,45.6c6.968-9.515,9.393-30.693,7.2-46.08
		c-0.575-4.035-1.746-9.996-3.36-12.96c-2.269-4.165-8.445-5.321-6.24-11.04c4.789-1.81,5.655,3.718,8.16,6.24
		c1.943,1.956,4.982,2.616,6.721,4.8c2.709,3.404,3.769,10.618,10.56,8.64c3.468-13.092-0.966-25.087-12-27.36
		c-3.748-0.772-8.796,1.14-11.04-2.88c2.484-4.792,9.291-0.763,15.36-0.96c6.176-0.201,14.669-2.721,13.92-7.68
		c-0.5-3.306-6.365-4.601-10.08-4.8c-6.027-0.324-14.354,5.726-18.72,2.88c5.543-6.457,20.576-3.425,23.04-12.96
		C235.526,90.587,226.377,100.697,217.423,104.163z M344.143,114.723c1.58-0.02,2.39-0.81,4.32-0.48
		c4.247,4.769,12.967,4.889,19.2,1.92c-22.472-5.688-45.787-13.093-67.681-17.76C311.267,107.279,330.017,108.689,344.143,114.723z
		 M135.823,113.763c0.16,0,0.32,0,0.48,0c3.237-1.673,2.911-11.234-0.48-11.04c0.671,0.703-2.323,1.813-4.32,1.44
		c1.319,2.811,4.05-0.555,5.76-0.479c-0.115,0.685-0.791,0.81-0.96,1.439c-1.357,0.883-2.167,2.313-4.32,2.4
		c0.995,3.576,0.527,5.956,0.96,9.6C134.334,116.435,135.323,115.343,135.823,113.763z M349.903,105.123
		c0.026,3.351,3.88,2.573,5.761,2.88c-0.809-1.764-2.135-5.53-4.32-4.32C352.562,104.984,351.646,105.9,349.903,105.123z
		 M303.343,103.683c0.713,1.604,1.231,2.347,0,3.84c1.583-0.018,1.835-1.365,1.92-2.88
		C304.553,104.393,304.053,103.933,303.343,103.683z M289.903,105.123c2.649,2.784,9.349,6.774,13.44,2.4
		C300.414,104.216,294.644,106.23,289.903,105.123z M284.624,106.563c0.152-0.556,1.485-2.261,1.92-0.96
		c-0.268,1.172-1.857,1.022-1.44,2.88c0.826-0.189,1.23,0.712,1.44,0c-2.136-0.709,0.575-1.856,0.479-3.36
		C286.107,103.74,283.478,106.007,284.624,106.563z M291.823,111.363c0.32,0,0.641,0,0.96,0c0.445-1.552-4.386-6.135-5.76-4.32
		c0.002,0.481-0.389,0.571-0.479,0.96c0.718,0.082,1.771-0.171,1.92,0.48c-0.691,0.269-1.172,0.749-1.44,1.44
		C289.434,109.591,289.254,111.852,291.823,111.363z M284.143,111.843c2.012-1.364-2.835-3.774-4.32-4.8
		c0.459,0.894-1.438,1.604,0,1.92c0.055-0.585,0.144-1.137,0.96-0.96c0,0.32,0,0.64,0,0.96
		C280.259,111.566,282.298,111.608,284.143,111.843z M255.343,111.363c0.059,1.222,0.698,1.861,1.92,1.92
		c1.218-0.861-1.138-2.946,0.96-3.36c0.269,0.691,0.749,1.171,1.44,1.44c-0.097-1.664-0.4-3.12-2.4-2.88
		C257.365,110.184,255.011,109.431,255.343,111.363z M430.063,132.003c1.377,3.517-0.558,6.302,0,8.64
		c2.768,0.784,5.211-1.562,8.16-1.44c7.168,0.297,15.615,9.012,15.84,13.44c0.139,2.721-2.689,3.937-1.92,6.72
		c1.416,0.44,2.104-3.963,3.36-5.28c0.889-1.031,0.323-3.516,0.479-5.28c-4.16-3.565-5.69-13.354-11.52-17.76
		c-4.584-3.465-13.026-5.848-15.36,0c-4.574,3.788-13.805,2.438-15.36-4.32c0.083-4.102,2.59-6.471,3.841-10.56
		c-14.763-5.672-26.949,4.068-30.721,15.36c3.811-1.828,6.421-4.825,10.561-4.8c5.153,0.032,8.396,4.473,13.439,7.2
		c4.292,2.321,9.575,2.169,10.561,6.24c0.354,2.274-0.54,3.3-0.48,5.28C427.146,144.126,428.208,137.668,430.063,132.003z
		 M117.583,128.643c0.378-1.849-2.298-1.849-1.92,0C116.303,128.643,116.943,128.643,117.583,128.643z M119.983,129.603
		c0.192-2.089-0.383-2.664-1.92-1.92C117.838,129.188,119.27,129.036,119.983,129.603z M120.943,128.643
		c0.396,0.672,3.126-0.362,3.36-1.44C123.502,128.002,120.798,126.898,120.943,128.643z M409.903,137.763
		c-3.215-10.25-17.694-9.686-24-2.88c0.286,0.995-0.593,3.153,0.48,3.36c0.692-1.227,2.208-1.631,3.84-1.92
		c1.264,0.236,1.616,2.646,2.88,1.44c1.848-2.366,7.679-8.575,12-3.36c-0.52,1.721-1.324,3.156-3.36,3.36
		c-0.183,1.784,1.945,1.255,1.44,3.36c-1.756-0.865-2.196-1.081-2.88,0.96c1.374-0.095,2.619-0.06,2.399,1.44
		c-0.512,0.448-0.148,1.771-1.439,1.44c-1.706,0.746-0.29-1.63-1.44-1.44c-0.751,2.448-4.269,2.13-4.8,4.8
		c8.278,5.921,15.539-5.459,22.561-5.28c-0.757,2.283-2.417,3.663-5.761,3.36c0.523,2.238,5.355,1.493,7.2,0.96
		c0-0.64,0-1.28,0-1.92c-0.295-2.215,1.078-2.762,0.96-4.8c-0.685-0.115-0.81-0.791-1.439-0.96c-2.015-1.505-4.353-2.688-7.2-3.36
		c0.533,2.598,0.538,6.984-0.48,8.16c-1.121-0.639-2.704-0.815-3.84-1.44C407.034,140.64,411.416,140.093,409.903,137.763z
		 M188.623,134.883c3.354-0.233-0.649-5.34-1.44-4.32C188.147,131.519,188.825,132.761,188.623,134.883z M131.023,137.283
		c-0.084-1.396,1.687-3.391,0.48-4.32C131.604,134.375,129.606,136.143,131.023,137.283z M400.783,135.843
		c0.908,0.107,1.06-0.541,1.92-0.48c0.251-2.364-3.19-1.323-3.84-0.48c1.854,2.199-2.004,2.777-1.92,4.8
		c0.954,0.006,0.61,1.31,1.92,0.96C399.999,139.538,399.693,136.993,400.783,135.843z M388.303,145.443
		c0.919-0.444,1.971-5.052,0-5.28C387.614,141.754,386.825,144.187,388.303,145.443z M243.343,152.643
		c0.101,1.979-0.051,4.21,1.92,4.32c0.021-1.899-0.47-4.31,1.439-4.32c0.686,0.64,0.686,2.719,0,3.36c2.93-0.212,2.136-5.319,0-5.76
		C245.987,151.447,244.548,151.928,243.343,152.643z M42.223,158.403c-15.468,13.332-27.777,57.343-27.84,56.16
		c11.959-9.961,20.426-23.414,31.68-34.08C44.5,173.405,44.954,164.312,42.223,158.403z M449.263,165.123
		c1.042-0.718,0.767-2.754,2.4-2.88c0.603,0.197,0.98,0.619,0.96,1.44c-0.087,1.354-2.282,0.599-1.921,2.4
		c1.182,0.941,2.659-0.896,3.841-1.44C455.953,157.382,443.619,161.095,449.263,165.123z M215.503,184.803
		c-0.121-1.639-1.213-2.306-0.96-4.32c-2.52,2.058-1.146,9.292-2.88,14.4c-0.696,6.243-1.109,10.646-3.36,15.84
		c3.97-0.83,7.361-2.239,11.04-3.36c-1.246-3.034,0.181-5.329,0.96-7.68C217.284,196.142,216.964,189.902,215.503,184.803z
		 M94.543,204.963c-0.005,4.579,8.967,10.211,13.44,11.52c-1.148-7.971-3.978-14.262-8.64-18.72
		C98.599,201.405,94.546,201.768,94.543,204.963z M35.983,203.043c0.067-1.987-0.132-3.708-0.96-4.8
		c0.106,1.546-0.849,2.031-0.48,3.84c-2.124,27.927,12.057,55.699,10.56,84.48c9.841,2.968,21.975,6.174,33.12,6.24
		c0.207-15.908-1.621-28.238-8.16-37.44c-2.251-3.168-6.038-5.526-8.64-8.64C50.78,233.986,40.512,221.242,35.983,203.043z
		 M225.583,201.123c-2.288,0.432-3.849,1.591-4.32,3.84C223.014,208.74,228.849,203.911,225.583,201.123z M251.503,204.963
		c1.883,0.195,3.053-1.245,3.84,0.48c0.15-0.649,0.683-0.917,0.479-1.92C254.208,203.828,252.324,203.863,251.503,204.963z
		 M195.823,216.963c-0.989,4.717,0.393,8.915-0.96,12.96c6.421,4.255,16.475,0.043,21.6-2.88c1.818,1.012-2.131,2.661,0.48,2.88
		c1.196,1.916,3.465-1.908,3.84,0.48c-1.897,3.645-8.234-2.266-9.12,2.88c5.812,2.744,13.36,1.881,12.96-4.32
		c-0.217-3.372-5.417-4.294-4.32-8.16c2.794,2.646,5.337,5.542,6.72,9.6c-1.67,2.33-3.906,4.094-5.76,6.24
		c5.107-1.449,10.289-5.702,9.6-10.56c-0.6-4.225-7.494-5.911-7.68-10.56c2.453,2.775,9.29,6.544,9.6,11.04
		c0.202,2.927-2.667,4.733-2.879,7.2c2.645-4.03,7.429-7.175,5.76-11.52c-1.622-4.22-8.659-6.897-8.161-12.48
		c1.728,0.353,2.193,1.967,2.88,3.36c8.204-2.516,18.971-2.469,24.479-7.68C236.855,205.794,211.301,209.446,195.823,216.963z
		 M23.503,208.803c-2.802,3.438-7.032,5.448-8.64,10.08c-0.197-0.603-0.619-0.981-1.44-0.96c-0.624,8.274,0.678,16.995-1.92,24
		c-7.062-1.174-8.708,10.749-0.96,10.08c0.241-2.32-1.497-2.663-1.44-4.8c1.129-0.987,3.689-0.497,3.84,0.96
		c-0.276,1.004-1.19,1.37-0.96,2.88c2.576,0.392,5.053-3.191,4.8-7.2C7.775,235.35,22.235,217.328,23.503,208.803z M212.143,238.563
		c1.411,0.269,5.159-0.789,6.72-1.92C215.679,235.984,212.978,235.082,212.143,238.563z M176.623,239.043
		c2.447,8.113,2.939,18.181,9.12,22.56c4.514-6.046,5.63-15.49,7.2-24.48c-0.054-0.586-0.144-1.137-0.96-0.96
		C190.017,244.6,182.828,237.798,176.623,239.043z M174.703,239.043c-2.024,0.055-1.591,2.569-1.92,4.32
		c1.113-0.153,1.843,0.077,2.4,0.48C175.342,241.923,174.328,241.179,174.703,239.043z M164.143,250.563
		c1.258,2.902,0.974,7.346,0.96,11.52c2.478-2.492,6.376-9.574,3.36-12.96C167.524,250.104,166.055,250.554,164.143,250.563z
		 M30.703,252.003c-7.451-3.689-11.953,8.798-4.32,10.08c0.497-0.638,0.018-3.21-0.48-4.32c0.914-0.206,1.206-1.034,2.4-0.96
		c1.227,1.284-0.29,2.531,0,4.32C34.704,259.948,33.897,253.584,30.703,252.003z M181.903,266.403c0.279,1.481,1.735,1.785,2.88,2.4
		c0.632-1.488-1.423-2.663,0-3.36c0.48,0,0.96,0,1.44,0c0.291,0.989-0.774,3.334,0.96,2.88c1.383-0.633,0.986-3.042,0.48-4.32
		C185.22,262.871,182.245,263.983,181.903,266.403z M165.583,268.323c0.42-0.477,1.336-4.156-0.48-3.84
		C165.396,265.63,164.5,267.965,165.583,268.323z M156.943,287.523c0.148-3.64,1.822-0.699,2.88,0
		c0.041-2.121,0.093-4.253-1.92-4.32C157.298,284.065,155.495,286.197,156.943,287.523z M41.743,301.443
		c0.465,2.325-1.39,1.111-2.4,0.96c-4.571,8.214-12.867,19.51-17.76,31.68c-2.094,5.209-4.71,12.46-5.28,17.76
		c-0.174,1.621,0.641,3.822,0.48,5.76c-0.697,8.36-7.76,20.574,0.48,24.479c1.948-3.021,1.687-6.668,2.4-10.56
		c1.102-6.014,1.185-14.044,4.8-17.76c5.635,4.038-1.402,10.643-1.92,17.279c-0.321,4.125,0.844,8.309,2.4,10.561
		c5.667,8.197,15.616,3.104,17.28-6.24c1.219-6.844-3.012-10.522-2.4-14.88c0.404-2.882,2.409-4.261,4.8-5.28
		c9.069,3.585-0.333,12.966,0,20.641c3.121,18.22,25.702,10.557,22.56-7.681c-0.602-3.492-3.361-5.738-2.4-8.64
		c0.831-2.508,4.838-3.143,7.68-2.88c3.999,6.207-2.939,11.872-0.96,20.64c4.739,14.063,26.737,9.738,24-6.72
		c-1.061-6.383-4.884-11.035,0.96-14.4c-0.033-5.406-1.009-9.871-1.92-14.399c-1.361,1.934-2.538,6.292-4.8,5.76
		c4.95,4.717-4.38,9.89-6.24,3.84c2.314-3.497,0.557-4.332-0.48-7.68c-0.733-2.368-0.424-5.891-0.96-8.16
		c-0.682-2.893-2.703-5.422-3.36-8.64c-1.195-5.856-0.073-11.76-0.48-18.72C66.458,305.715,53.522,306.39,41.743,301.443z
		 M146.863,309.603c0.176,1.424,0.832,2.368,1.92,2.88c-1.003-2.322-0.697-3.626,1.44-1.92c0.02-1.459,0.279-3.159-1.44-2.88
		C148.35,308.529,147.709,309.169,146.863,309.603z M124.783,342.723c-0.169,1.929,0.007,3.512,1.44,3.84
		c-0.248-1.808-0.607-2.187,0.96-2.88c0.202,0.918,0.174,2.065,1.44,1.92c0.012-1.771-0.215-3.306-1.92-3.36
		C126.614,342.954,125.543,342.683,124.783,342.723z M85.423,350.883c0.512,0.447,0.149,1.771,1.44,1.439
		c-0.44-2.956,1.325-1.538,2.4-0.96c-0.085-1.515-0.337-2.862-1.92-2.88C86.861,349.44,85.221,349.241,85.423,350.883z
		 M12.943,365.283c-0.35-3.398,2.659-5.969,1.44-8.64C14.123,359.432,11.27,362.158,12.943,365.283z M101.743,366.723
		c-0.146-1.12-1.025-2.068,0.48-2.4c1.665-0.226,0.275,2.604,1.44,2.88c1.483-2.707,0.812-4.499-0.96-6.72
		c-0.027,0.293-0.072,0.568-0.48,0.479C102.026,361.882,98.861,365.191,101.743,366.723z M155.023,496.323
		c2.604-4.117,5.913-7.527,8.16-12c-2.761,1.447-4.843,7.602-8.16,10.08c-1.128-1.943-0.796,0.383-2.4,0.48
		c2.857-5.143,7.062-8.938,9.6-14.4c-5.061-13.396-2.381-30.459-2.4-47.521c-0.023-21.014-4.795-41.36-6.72-58.56
		c-2.165,1.035-1.892,4.508-3.84,5.76c10.191,7.42-11.179,15.021-5.28,1.44c-1.994-1.366-3.14-3.58-4.8-5.28
		c-0.784,4.017-4.017,5.583-6.72,7.68c2.016,0.866,2.083,0.991,2.4,2.881c1.573,9.38-14.098,5.445-7.68-2.881
		c-3.298-0.541-6.571-1.108-7.2-4.319c-2.875,2.403-5.518,5.041-8.64,7.2c8.578,6.919-8.643,14.96-9.12,5.279
		c-0.126-2.552,1.455-3.36,2.88-5.279c-4.072-0.568-7.337-1.943-8.16-5.761c-2.052,2.269-4.758,3.882-6.24,6.721
		c2.908,12.417,7.711,23.985,12,35.52c4.433,11.92,10.595,22.348,14.88,33.12c2.967,7.459,13.425,10.916,16.32,18.24
		c-4.702-3.938-8.106-9.175-12.96-12.96c4.692,10.159,7.773,23.826,11.04,35.52c1.929,6.903-0.405,15.538,0.48,22.561
		c1.575,12.489,5.864,23.449,11.04,32.64c10.162,18.043,22.025,34.208,26.4,58.08c9.665,4.414,20.363,7.797,26.4,15.84
		c-2.062-9.254-7.799-17.646-10.08-27.36c-7.075-30.128-7.526-67.192-17.76-94.56c-0.138,1.461,0.077,3.276-1.44,3.36
		c1.838-8.466-2.337-14.459-3.36-21.601C160.75,489.252,158.153,495.128,155.023,496.323z M158.383,384.002
		c0.359-1.479-1.655-0.585-0.96-2.399c0.613-0.026,0.665-0.615,1.44-0.48c2.265,0.089-0.859,2.586,1.44,2.4
		c1.312-1.973-1.054-4.372-2.88-4.8C155.039,379.352,155.713,385.894,158.383,384.002z M20.623,384.002
		c-0.297-1.303,0.609-3.809-0.48-4.319c0.335,2.095-1.386,2.134-1.44,3.84C19.611,383.416,19.762,384.064,20.623,384.002z
		 M147.343,387.843c0.232-1.513-1.474-1.087-0.96-2.881c0.907,0.108,1.059-0.541,1.92-0.479c1.092,0.348-0.442,3.322,1.44,2.88
		c0.417-3.394,0.688-5.545-2.4-6.24C144.745,381.832,143.778,387.405,147.343,387.843z M130.063,391.203
		c0.36-1.64-1.95-0.609-1.44-2.399c0.849-0.432,1.401-1.159,2.4-1.44c0.662,0.619,0.475,2.085,0.48,3.36
		c2.927-1.238,0.503-4.758-0.48-6.24C126.974,384.186,125.837,390.926,130.063,391.203z M14.863,385.922
		c-0.079,2.159-0.107,4.268,1.44,4.801c-0.339-1.132-1.102-3.045,0.96-2.88c1.273-0.153-0.449,2.688,1.44,1.92
		c0-1.44,0-2.881,0-4.32C17.417,384.213,15.861,385.421,14.863,385.922z M104.143,392.163c0.948,0.812,0.75,2.771,2.88,2.4
		c0.36-1.641-1.95-0.61-1.44-2.4c0.617-0.822,0.993-1.888,2.4-1.92c1.446,1.034,0.739,2.954,0,4.32
		C116.782,391.798,105.265,381.368,104.143,392.163z M82.543,396.962c0.148-1.612-0.641-4.16,1.44-3.84
		c1.716,0.611,1.264,1.566,0.96,3.36c3.191-0.841,2.158-4.476,0.96-6.72C81.456,385.972,77.522,395.375,82.543,396.962z
		 M58.063,389.763c-4.649-2.288-7.364,5.789-2.88,7.199c-0.813-2.382-0.511-5.666,2.4-3.84c-0.427,1.173-1.119,2.081-0.96,3.84
		C59.881,396.126,59.717,392.021,58.063,389.763z M32.143,397.443c1.093-1.149-1.053-1.768-0.48-3.84
		c2.801-1.123,2.283,1.677,2.88,3.359c0.824-0.775,1.192-2.007,0.96-3.84C31.719,388.381,27.311,394.837,32.143,397.443z
		 M157.423,490.563c0.566-0.683,1.853-2.905,1.92-3.84C157.086,489.132,154.773,493.757,157.423,490.563z M80.143,496.323
		c-2-0.079-4.006-0.166-4.8,0.96c0.063,2.496,0.907,4.213,1.92,5.76C82.332,503.676,82.996,498.665,80.143,496.323z M36.943,504.483
		c-1.562-1.729-0.697-6.86,1.92-5.28c0.26,1.7-1.7,1.181-1.44,2.88c0.636,0.804,1.271,1.608,0.96,3.36
		c2.285-0.559,2.471-6.269,0.96-7.68C35.19,496.739,33.381,504.961,36.943,504.483z M67.663,498.243
		c0.367,1.919-2.427,1.97-1.92,5.28c0.908,0.107,1.059-0.541,1.92-0.48c-0.006,0.954-1.31,0.61-0.96,1.92
		c0.803,0.637,1.608,1.272,3.36,0.96c0.084-2.483-0.984-3.815-1.44-5.76c0.614-0.026,0.665-0.615,1.44-0.479
		c1.724,1.183,0.211,3.912,1.92,5.76c0-2.24,0-4.48,0-6.72C70.346,497.968,69.461,497.891,67.663,498.243z M52.303,505.922
		c-1.016-1.817,0.185-2.998,0-5.279C43.54,493.856,41.28,511.399,52.303,505.922z M60.943,499.203
		c-5.83-3.639-9.255,6.98-3.84,8.641c-0.968-2.966,0.396-2.702-1.44-4.801c0.724-1.475,3.039-2.716,4.32-0.96
		C60.579,500.782,61.836,500.888,60.943,499.203z M59.503,506.403c1.417-0.663,1.943-2.217,3.36-2.88
		c0.196-1.156-0.877-1.044-0.48-2.4c-2.097,1.264-4.46,2.261-3.84,6.24C62.691,506.585,61.812,505.333,59.503,506.403z
		 M41.743,586.563c-7.697,8.938-16.668,22.029-17.28,37.92c-0.382,9.925,2.666,18.049,5.76,26.88c-2.564-1.756-1.86-6.779-3.84-9.12
		c1.762,6.583,1.473,12.478,0.48,17.76c2.117,0.678,0.008-2.872,1.44-2.88c0.936,2.425,0.865,5.854,4.32,5.761
		c-0.95-2.737-3.853-6.059-2.4-9.601c1.085,4.198,1.805,11.311,7.2,9.601c-3.826-0.545-6.314-7.378-3.84-11.04
		c-0.292,5.251,0.606,9.313,4.32,10.56c-0.809-1.922-3.113-4.873-1.44-7.68c0.755,3.085,1.081,6.599,3.36,8.16
		c-0.297-2.753-2.562-6.066-1.44-8.641c2.012,2.628,0.96,8.319,4.32,9.601c-0.185-2.807-2.664-5.505-1.92-7.681
		c2.948,1.692,0.944,8.336,5.76,8.16c-0.984-2.259-4.785-6.133-2.88-8.16c1.245,2.123,1.865,7.405,4.32,6.721
		c-1.04-1.361-3.112-3.707-2.4-5.28c2.072,2.088,3.127,5.192,5.76,6.72c1.759-1.565,3.355-0.315,5.28-0.96
		c11.304-3.787,15.623-15.449,24-22.56c3.484-3.927,5.347-11.513,0.96-15.841c-6.555,2.565-12.647,5.593-19.2,8.16
		c7.85-8.949,24.596-9.004,24.96-25.439c-1.901-2.1-3.551-4.45-7.2-4.8c-0.466,2.721,1.18,7.287,0.96,10.079
		c1.291-0.948,0.81-3.67,2.4-4.319c0,1.12,0,2.24,0,3.359c-3.503,7.832-11.73,10.216-18.24,14.881
		c-6.345,4.546-7.792,12.213-12.96,18.239c-1.176-2.393,1.476-4.66-0.48-7.2c-1.795,3.806-5.184,6.017-6.24,10.561
		c3.703,3.657,5.34,9.38,8.64,13.439c-5.773,0.766-5.403-4.414-10.08-10.56c-2.055-2.699-5.598-6.108-7.2-9.12
		c-8.144-15.308-8.48-50.567,9.12-55.2C44.483,587.023,43.673,586.233,41.743,586.563z M42.703,591.843
		c1.205-0.716,2.644-1.196,3.36-2.4c-2.788-0.582-5.422,1.484-6.72,3.36c-8.857,12.794-6.032,43.922,3.84,52.319
		c2.814-3.707,8.398-8.008,8.64-12c0.276-4.568-6.408-9.697-1.92-16.319c2.001-2.959,5.292-4.629,7.2-7.681
		c1.676-3.256-1.012-5.926-0.96-9.12c0-0.159,0-0.319,0-0.479c-0.907-0.054-0.333-1.587-1.44-1.44c-0.22,2.5-2.456,2.984-3.36,4.801
		c-3.053,0.332-4.627-0.812-7.68-0.48C41.142,600.601,40.309,594.476,42.703,591.843z M47.983,591.363
		c-5.598-0.182-6.459,9.511-0.96,10.08c0.688-1.283-0.432-4.17-0.96-5.76c0.854-0.427,1.22-1.341,2.88-0.96
		c-0.001,0.481,0.389,0.571,0.48,0.96c-0.231,1.751-1.899,3.872-0.48,5.76c3.642-0.567,4.386-4.769,3.84-8.16
		c-1.279-1.44-3.333-2.106-4.8-3.36C47.983,590.403,47.983,590.883,47.983,591.363z M54.223,638.883
		c3.156-4.977,0.187-11.274,0.48-16.801c0.201-3.782,3.104-6.394,1.92-9.6C48.296,617.685,53.373,630.398,54.223,638.883z"/>
	<path fill-rule="evenodd" clip-rule="evenodd" fill="#E7A614" d="M79.183,132.003c-0.632,1.21-1.576-1.259-2.88-0.96
		c4.739,3.523,8.272,12.573,15.36,15.84c1.671,0.77,4.341,0.592,6.24,1.44c2.18,0.974,3.43,2.938,5.28,3.36
		c5.445,1.241,12.835-0.52,16.8-4.32c5.703,0.792,9.196-4.483,12-8.16c2.417,8.12,7.995,13.137,10.56,21.6
		c1.807,5.961-0.473,16.106,2.4,21.6c-15.088,4.158,2.06,25.138,8.64,9.12c1.222,7.723-1.513,18.263-1.44,27.36
		c-4.212-13.228-17.203-17.677-19.2-33.12c-0.956-0.484-1.096-1.784-1.92-2.4c-0.925,13.017-6.169,25.814-8.64,38.88
		c-3.4,1.371-6.424-4.168-9.6-0.48c-1.966-2.659-1.751-5.739-2.4-8.64c-2.276-10.175-8.552-18.314-8.64-30.72
		c-3.124,7.117-7.146,13.334-9.6,21.12c-12.908-6.453-23.822-14.898-24-34.08c0.427-1.463,3.688-3.672,0.96-5.28
		c-4.017,2.063-5.851,6.31-10.56,7.68c2.645-4.862,0.928-10.868,1.44-15.84c0.744-7.225,5.191-10.082,9.6-13.92
		c0.3-1.78,1.35-2.811,1.92-4.32c2.53,0.991,4.495,2.546,6.72,3.84c-2.25,1.115-3.389-3.001-6.72-2.4
		c1.922,2.878,3.698,5.902,9.12,5.28c0.036-5.636-3.087-8.112-8.16-8.64c-0.553-3.753,0.979-5.421,1.44-8.16
		C76.414,128.372,77.068,130.918,79.183,132.003z M118.063,151.203c1.626-1.254,4.371-1.389,5.28-3.36
		C121.838,148.909,117.583,149.747,118.063,151.203z"/>
	<path fill-rule="evenodd" clip-rule="evenodd" fill="#E7A614" d="M113.743,149.283c0.968-2.232,3.778-2.622,6.72-2.88
		c-4.232,3.934-10.538,4.203-17.28,3.84c-2.1-1.42-4.387-2.653-6.24-4.32c-11.995-1.925-14.245-13.595-22.56-19.2
		c0.438-1.801,1.087-3.393,1.44-5.28c3.699,7.501,9.231,13.168,13.92,19.68c-1.893-7.708-10.25-13.11-12.96-21.6
		c1.726-5.499,3.937-12.99,2.88-19.68c-1.117,2.244-0.458,6.262-1.44,8.64c-0.562-4.727,0.389-12.088,2.88-15.36
		c-7.435,5.045-3.417,21.542-9.12,28.32c-0.011,1.131,0.827,1.413,0.48,2.88c-1.886,7.173-6.637,13.312-11.04,19.68
		c-3.006,4.348-3.975,7.818-4.32,14.4c-0.211,4.019-0.324,9.063-1.44,12.96c-1.774,6.197-5.875,10.249-5.28,17.76
		c0.605,1.794,3.027,1.772,3.36,3.84c-0.392,3.928-0.661,7.979-4.8,8.16c-0.473-2.199,3.172-1.869,1.44-3.84
		c-0.116-0.844-0.826-1.094-1.92-0.96c-2.887,0.265-1.158,2.249-1.44,4.8c-5.671-0.9-4.041-9.992,0.96-10.56
		c2.343-15.42-1.875-30.714-3.36-46.56c-0.714-7.629,2.592-11.854,3.84-18.24c3.863-19.772,8.236-37.395,20.64-48.96
		c5.856,1.504,11.026,3.694,14.88,7.2c-4.849,6.06-8.79,12.816-13.92,18.72c-7.75,8.92-17.269,15.953-20.16,28.32
		c2.829-0.935,2.008-3.449,2.88-5.28c6.362-13.363,20.137-20.552,26.4-34.08c2.356-1.804,3.664-4.657,6.24-6.24c0-0.8,0-1.6,0-2.4
		c6.235-3.365,6.806-12.394,12.96-15.84c4.978,0.658,6.188-2.452,9.12-3.84c-0.11-6.627-7.99-8.259-9.12-13.92
		c-0.436-2.183,1.449-8.429,2.88-11.04c1.531-2.795,5.226-8.018,8.64-12.48c6.195-8.096,12.609-12.503,22.08-17.76
		c4.805-2.667,9.576-6.646,15.84-5.76c2.587,0.366,9.588,4.013,11.52,6.72c2.213,3.101,1.23,7.296,1.92,11.521
		c0.373,1.386,1.752,1.767,2.4,2.88c0.253,4.414-0.888,7.432-4.8,7.68c-0.459-2.059,1.346-1.853,1.44-3.36
		c-1.44-2.351-5.097-0.031-5.28,1.92c1.539,0.971,1.501-1.899,1.92-0.48c0,0.8,0,1.6,0,2.4c-8.313-0.793-3.838-11.784,1.92-12
		c1.397-7.124-1.976-11.575-6.72-13.92c-7.809,0.44-17.833,6.286-20.16,14.4c-2.159,7.529,3.39,17.33,1.92,27.84
		c-0.745,5.326-5.32,10.637-5.76,14.4c-0.904,7.729,5.696,13.369,5.28,17.76c2.044,0.996,4.695,1.385,6.72,2.4
		c-0.078,0.562-0.875,0.405-1.44,0.48c3.588,2.651,3.042,9.437,8.64,10.08c-2.854-2.426-4.523-6.037-6.72-9.12
		c2.929-0.202,5.27,4.326,7.68,6.24c-0.472,1.472-1.281-0.551-1.92-0.48c2,3.487,3.968,6.031,4.8,11.04
		c0.451,2.718,0.145,5.061,0.96,7.68c0.372,1.194,1.554,2.389,1.92,3.84c2.552,10.102-2.86,20.587-2.88,31.2
		c-0.007,3.822,0.84,7.525,0.48,11.04c-1.057,10.318-6.684,18.007-4.32,29.76c6.202,0.627,4.484,10.993,0,10.56
		c-1.116-1.585,1.384-2.874,1.44-4.8c-0.614-0.657-2.266-0.657-2.88,0c-0.929,1.535,0.318,3.106-0.48,5.28
		c-5.408-0.87-5.698-7.729-1.92-10.56c1.478-0.357,0.923,1.318,2.4,0.96c0.098-6.007,0.91-13.311,0.48-19.2
		c-0.985-13.479-11.788-23.017-12.48-36.96c-4.356,0.642-4.534,9.518-8.16,12.48c0.917,0.257,3.209-2.216,4.32-3.36
		c1.879,1.456-2.676,3.774-3.36,5.76c-0.33-3.444-2.409,2.593-5.28,2.4c0.226-2.036,2.655-2.707,3.84-4.8
		c2.713-4.797,2.658-12.293,8.16-14.4c-0.711-8.551,3.876-11.804,7.2-16.32c0.864-3.316-1.168-5.531-0.96-8.64
		c0.148-2.21,1.94-4.077,1.92-6.24c-0.043-4.716-4.007-9.111-5.28-13.92c-4.222-0.519-6.951,1.381-11.04,1.92
		c-13.058,1.72-25.627-6.139-33.12,4.32c-1.425,3.955,1.805,8.143,2.4,12.96c0.882,7.136-1.157,15.09-0.96,21.6
		c0.365,12.086,8.499,19.588,19.2,22.56c-5.971,3.905-11.64-9.65-16.32-1.44c2.258,0.462,4.185,1.255,6.72,1.44
		c-0.7,1.688,1.358,1.85,0,2.88C105.564,148.634,111.584,149.464,113.743,149.283z"/>
	<path fill-rule="evenodd" clip-rule="evenodd" fill="#E7A614" d="M100.783,86.403c6.61-3.579,15.231,1.173,23.04,0.96
		C116.073,89.484,108.876,83.472,100.783,86.403z"/>
	<path fill-rule="evenodd" clip-rule="evenodd" fill="#F2D2AE" d="M96.943,110.883c3.659,2.843,0.845,8.074,0.96,12.48
		c0.171,6.542,5.589,11.91,6.24,15.36C98.062,132.603,94.507,122.999,96.943,110.883z"/>
	<path fill-rule="evenodd" clip-rule="evenodd" fill="#E7A614" d="M124.303,133.443c-0.707,3.933-0.127,9.153-3.84,10.08
		c2.596-2.34,2.546-7.174,3.36-10.08C123.983,133.443,124.143,133.443,124.303,133.443z"/>
	<path fill-rule="evenodd" clip-rule="evenodd" fill="#F2D2AE" d="M125.743,123.363c-4.817,4.883-11.873,0.655-15.84-2.88
		c-1.465-2.348,2.356,0.665,2.88-0.96c1.747-0.493,2.969-1.511,4.8-1.92C118.744,121.082,124.214,120.251,125.743,123.363z"/>
	<path fill-rule="evenodd" clip-rule="evenodd" fill="#E7A614" d="M130.063,119.523c2.833-9.896-8.498-19.192-1.44-27.36
		C123.113,100.847,135.061,110.333,130.063,119.523z"/>
	<path fill-rule="evenodd" clip-rule="evenodd" fill="#E7A614" d="M103.183,105.603c4.126-1.886,6.635,4.027,11.52,1.44
		C110.867,110.47,107.144,106.223,103.183,105.603z"/>
	<path fill-rule="evenodd" clip-rule="evenodd" fill="#F2D2AE" d="M100.783,86.403c8.093-2.931,15.29,3.081,23.04,0.96
		c2.535-0.505,5.204-0.876,7.68-1.44c0,0.16,0,0.32,0,0.48c1.131,0.011,1.414-0.827,2.88-0.48c0.947,1.132,0.947,3.213,1.44,4.8
		c-2.493-1.35-5.526,0.421-7.2,1.44c-7.058,8.168,4.273,17.464,1.44,27.36c-0.169,0.63-0.845,0.755-0.96,1.44
		c-2.513-1.807-6.081-2.559-8.64-4.32c-1.21-1.204,0.918-1.519,1.44-2.4c-4.955,1.008-11.96,5.224-17.28,0.48
		c-1.12,0.161-2.068,0.492-2.4,1.44c-0.16,0-0.32,0-0.48,0c0.535-3.735-1.304-5.096-1.44-8.16c1.021-0.74,1.787-1.733,2.88-2.4
		c3.961,0.62,7.684,4.867,11.52,1.44c1.278-0.66,4.22-2.156,2.88-3.84c-1.676,1.486-3.966,3.959-7.2,2.4
		c-0.079-1.359,2.958,0.398,2.88-0.96c1.78-0.46,3.304-1.176,4.32-2.4c0.334-1.614-0.986-1.573-1.44-2.4
		c-0.656-1.399,1.745,1.095,2.4,1.44c-3.547-7.684-12.854-1.098-17.76,0.48c-0.16,0-0.32,0-0.48,0
		c-0.013,0.467-0.588,0.373-0.96,0.48c0.016,2.004,1.852,2.145,2.88,0.96c0.16,0,0.32,0,0.48,0c0.697,0.263,2.481-0.561,2.4,0.48
		c-3.566-0.206-3.174,3.546-7.2,2.88c0,0.16,0,0.32,0,0.48c-0.32,0-0.64,0-0.96,0c0.412-7.132-2.264-11.175-3.36-16.8
		C95.892,88.872,97.74,87.04,100.783,86.403z M117.103,95.043c1.168-0.592,3.115-0.405,3.36-1.92
		c-4.57-4.323-16.762-2.915-20.64,2.4c1.684,1.333,2.591-1.318,4.8-0.96C108.851,92.632,114.242,95.664,117.103,95.043z"/>
	<path fill-rule="evenodd" clip-rule="evenodd" fill="#F2D2AE" d="M300.943,103.203c-5.937,0.709-11.314-1.44-15.84-2.88
		c0.151-1.129,2.275-0.285,1.92-1.92c-3.014,0.032-6.314,3.921-9.6,5.28c-4.674-0.194-8.512,0.448-12,1.439
		c1.812-6.257-2.816-9.891-2.88-15.84c5.915-0.817,10.062-4.827,17.279-2.88c2.092,0.798,7.509,0.798,9.601,0
		c2.419,0.047,3.299-0.852,4.8,0.48c3.353,2.407,6.424,5.096,8.64,8.64c-1.35,1.296-5.186-0.603-7.68-0.48
		c1.551-2.752-0.951-4.094-2.4-5.28c0-0.16,0-0.32,0-0.48c-0.775,0.135-0.826-0.454-1.439-0.48c-0.661,0.619-0.476,2.085-0.48,3.36
		c-2.945,0.226-2.608-2.831-4.319-3.84c-1.521,0.4-2.44,1.4-3.36,2.4c0.148,0.652,1.202,0.398,1.92,0.48
		c-0.507,1.26-1.836,2.158,0.96,1.92c2.271,1.09,3.927,2.793,6.72,3.36c1.004-0.203,1.271,0.329,1.92,0.48
		c1.608,2.133,4.5,3.42,3.36,5.76c2.092,0.767,1.736-1.667,2.88-0.48C300.943,102.563,300.943,102.883,300.943,103.203z"/>
	<path fill-rule="evenodd" clip-rule="evenodd" fill="#E7A614" d="M294.703,96.963c2.225,1.622,6.446,3.786,6.24,6.24
		c0-0.32,0-0.64,0-0.96c-1.144-1.188-0.788,1.247-2.88,0.48C299.203,100.383,296.311,99.096,294.703,96.963z"/>
	<path fill-rule="evenodd" clip-rule="evenodd" fill="#E7A614" d="M286.063,93.123c2.862,0.498,4.544,2.176,6.72,3.36
		C289.99,95.916,288.333,94.212,286.063,93.123z"/>
	<path fill-rule="evenodd" clip-rule="evenodd" fill="#E7A614" d="M294.223,86.883c4.091,2.309,7.981,4.819,9.6,9.6
		c-0.521-0.119-0.325-0.955-0.96-0.96C300.647,91.979,297.576,89.29,294.223,86.883z"/>
	<path fill-rule="evenodd" clip-rule="evenodd" fill="#E7A614" d="M104.623,94.563c2.798-1.919,10.101-1.105,12.48,0.48
		C114.242,95.664,108.851,92.632,104.623,94.563z"/>
	<path fill-rule="evenodd" clip-rule="evenodd" fill="#F2D2AE" d="M131.983,94.083c5.035-1.375,8.36,3.954,4.8,6.72
		c-0.108-3.521-4.586-3.762-7.68-2.88C129.076,95.656,130.855,95.195,131.983,94.083z"/>
	<path fill-rule="evenodd" clip-rule="evenodd" fill="#E7A614" d="M136.303,105.123c0.169-0.63,0.845-0.755,0.96-1.439
		c-1.71-0.076-4.441,3.291-5.76,0.479c1.997,0.373,4.991-0.737,4.32-1.44c3.391-0.194,3.717,9.367,0.48,11.04c-0.16,0-0.32,0-0.48,0
		C137.929,112.03,138.308,107.373,136.303,105.123z"/>
	<path fill-rule="evenodd" clip-rule="evenodd" fill="#E7A614" d="M97.903,107.043c3.46,8.349-1.206,22.875,5.76,26.88
		c0.16,0,0.32,0,0.48,0c-0.914,1.264,1.079,2.83,1.44,4.32c-0.119,0.521-0.954,0.326-0.96,0.96c-0.408,0.088-0.453-0.187-0.48-0.48
		c-0.65-3.45-6.068-8.817-6.24-15.36c-0.116-4.406,2.699-9.637-0.96-12.48c0-1.28,0-2.56,0-3.84
		C97.263,107.043,97.583,107.043,97.903,107.043z"/>
	<path fill-rule="evenodd" clip-rule="evenodd" fill="#E7A614" d="M305.263,104.643c-0.085,1.515-0.337,2.862-1.92,2.88
		c1.231-1.493,0.713-2.236,0-3.84C304.053,103.933,304.553,104.393,305.263,104.643z"/>
	<path fill-rule="evenodd" clip-rule="evenodd" fill="#E7A614" d="M287.023,105.123c0.096,1.504-2.615,2.651-0.479,3.36
		c-0.21,0.712-0.614-0.189-1.44,0c-0.417-1.857,1.173-1.708,1.44-2.88c-0.435-1.301-1.768,0.404-1.92,0.96
		C283.478,106.007,286.107,103.74,287.023,105.123z"/>
	<path fill-rule="evenodd" clip-rule="evenodd" fill="#F2D2AE" d="M303.343,107.523c-4.092,4.374-10.791,0.383-13.44-2.4
		C294.644,106.23,300.414,104.216,303.343,107.523z"/>
	<path fill-rule="evenodd" clip-rule="evenodd" fill="#E7A614" d="M287.023,107.043c1.374-1.815,6.205,2.768,5.76,4.32
		c-0.319,0-0.64,0-0.96,0C291.083,109.262,288.644,106.708,287.023,107.043z"/>
	<path fill-rule="evenodd" clip-rule="evenodd" fill="#F2D2AE" d="M287.023,107.043c1.621-0.335,4.061,2.219,4.8,4.32
		c-2.568,0.489-2.389-1.771-4.8-1.44c0.269-0.691,0.749-1.171,1.44-1.44c-0.148-0.651-1.202-0.398-1.92-0.48
		C286.634,107.614,287.025,107.524,287.023,107.043z"/>
	<path fill-rule="evenodd" clip-rule="evenodd" fill="#E7A614" d="M284.143,111.843c-0.397-1.682-1.913-2.247-3.36-2.88
		c0-0.32,0-0.64,0-0.96c-0.816-0.177-0.905,0.375-0.96,0.96c-1.438-0.316,0.459-1.026,0-1.92
		C281.308,108.069,286.155,110.479,284.143,111.843z"/>
	<path fill-rule="evenodd" clip-rule="evenodd" fill="#F2D2AE" d="M280.783,108.963c1.447,0.633,2.963,1.198,3.36,2.88
		C282.298,111.608,280.259,111.566,280.783,108.963z"/>
	<path fill-rule="evenodd" clip-rule="evenodd" fill="#F2D2AE" d="M429.103,131.043c2.334-5.848,10.776-3.465,15.36,0
		c5.829,4.406,7.359,14.194,11.52,17.76c-0.156,1.764,0.409,4.25-0.479,5.28c-2.009,0.872-1.897,3.862-3.36,5.28
		c-0.77-2.783,2.059-3.999,1.92-6.72c-0.225-4.428-8.672-13.143-15.84-13.44c-2.949-0.122-5.393,2.225-8.16,1.44
		c-0.558-2.338,1.377-5.124,0-8.64C429.945,131.481,429.109,131.677,429.103,131.043z"/>
	<path fill-rule="evenodd" clip-rule="evenodd" fill="#E7A614" d="M455.503,154.083c-1.256,1.316-1.944,5.72-3.36,5.28
		C453.606,157.945,453.495,154.955,455.503,154.083z"/>
	<path fill-rule="evenodd" clip-rule="evenodd" fill="#E7A614" d="M105.583,122.403c-0.316-1.443-1.845-1.675-1.44-3.84
		c2.316-2.8,5.066,0.904,8.64,0.96c-0.524,1.625-4.345-1.388-2.88,0.96c-1.282-0.837-2.968-3.157-4.8-1.92
		c3.573,6.347,6.14,13.7,16.32,13.44C113.287,134.73,108.958,127.399,105.583,122.403z"/>
	<path fill-rule="evenodd" clip-rule="evenodd" fill="#F2D2AE" d="M105.583,122.403c3.375,4.996,7.704,12.328,15.84,9.6
		c2.087-0.313,2.972-1.828,4.32-2.88c0.135,0.775-0.454,0.826-0.48,1.44c0.38,1.66-0.534,2.026-0.96,2.88c-0.16,0-0.32,0-0.48,0
		c-0.814,2.906-0.765,7.74-3.36,10.08c-5.077,1.421-13.708,0.167-15.84-4.32c0.006-0.634,0.841-0.438,0.96-0.96
		c1.185-1.217-0.807-3.329-1.44-4.32c-0.16,0-0.32,0-0.48,0c-0.838-4.168-4.469-7.948-2.4-13.44c3.693,4.307,2.926,13.074,7.2,16.8
		c-0.088-0.408,0.188-0.453,0.48-0.48c0.16,0,0.32,0,0.48,0C108.95,133.112,106.528,127.221,105.583,122.403z M120.943,135.363
		c0.946-0.522,3.055-2.349,1.92-3.36c-2.379,4.56-8.428,0.567-10.56,0C110.292,134.309,118.352,138.755,120.943,135.363z"/>
	<path fill-rule="evenodd" clip-rule="evenodd" fill="#E7A614" d="M112.303,132.003c1.4,2.355,4.792,5.024,8.64,3.36
		C118.352,138.755,110.292,134.309,112.303,132.003z"/>
	<path fill-rule="evenodd" clip-rule="evenodd" fill="#E7A614" d="M124.303,127.203c-0.234,1.078-2.965,2.113-3.36,1.44
		C120.798,126.898,123.502,128.002,124.303,127.203z"/>
	<path fill-rule="evenodd" clip-rule="evenodd" fill="#F2D2AE" d="M419.023,145.443c0,0.64,0,1.28,0,1.92
		c-1.845,0.533-6.677,1.278-7.2-0.96c3.344,0.303,5.004-1.077,5.761-3.36c-7.021-0.18-14.282,11.201-22.561,5.28
		c0.531-2.669,4.049-2.352,4.8-4.8c1.15-0.19-0.266,2.186,1.44,1.44c1.291,0.331,0.928-0.992,1.439-1.44
		c0.22-1.5-1.025-1.535-2.399-1.44c0.684-2.041,1.124-1.825,2.88-0.96c0.505-2.105-1.623-1.577-1.44-3.36
		c2.036-0.204,2.841-1.639,3.36-3.36c-4.321-5.215-10.152,0.994-12,3.36c-1.264,1.207-1.616-1.204-2.88-1.44
		c-1.632,0.289-3.147,0.693-3.84,1.92c-1.073-0.207-0.194-2.365-0.48-3.36c6.306-6.806,20.785-7.37,24,2.88
		c-0.006,2.554-2.224,2.896-3.359,4.32c-0.078,0.558,0.105,0.854,0.479,0.96c1.136,0.625,2.719,0.801,3.84,1.44
		c1.019-1.176,1.014-5.562,0.48-8.16c2.848,0.672,5.186,1.854,7.2,3.36C420.958,141.033,417.467,143.764,419.023,145.443z"/>
	<path fill-rule="evenodd" clip-rule="evenodd" fill="#E7A614" d="M418.543,139.683c0.63,0.17,0.755,0.845,1.439,0.96
		c0.118,2.038-1.255,2.584-0.96,4.8C417.467,143.764,420.958,141.033,418.543,139.683z"/>
	<path fill-rule="evenodd" clip-rule="evenodd" fill="#E7A614" d="M407.023,143.043c-0.374-0.106-0.558-0.402-0.479-0.96
		c1.136-1.425,3.354-1.766,3.359-4.32C411.416,140.093,407.034,140.64,407.023,143.043z"/>
	<path fill-rule="evenodd" clip-rule="evenodd" fill="#E7A614" d="M187.183,130.563c0.791-1.02,4.794,4.087,1.44,4.32
		C188.825,132.761,188.147,131.519,187.183,130.563z"/>
	<path fill-rule="evenodd" clip-rule="evenodd" fill="#E7A614" d="M398.863,140.643c0.373-1.868,0.383-4.098,1.92-4.8
		C399.693,136.993,399.999,139.538,398.863,140.643z"/>
	<path fill-rule="evenodd" clip-rule="evenodd" fill="#F2D2AE" d="M398.863,140.643c-1.31,0.35-0.966-0.954-1.92-0.96
		c-0.084-2.023,3.774-2.601,1.92-4.8c0.649-0.843,4.091-1.884,3.84,0.48c-0.86-0.061-1.012,0.587-1.92,0.48
		C399.246,136.545,399.236,138.775,398.863,140.643z"/>
	<path fill-rule="evenodd" clip-rule="evenodd" fill="#130F06" d="M123.343,147.843c-0.909,1.971-3.654,2.106-5.28,3.36
		C117.583,149.747,121.838,148.909,123.343,147.843z"/>
	<path fill-rule="evenodd" clip-rule="evenodd" fill="#E7A614" d="M221.263,204.963c0.471-2.249,2.032-3.408,4.32-3.84
		C228.849,203.911,223.014,208.74,221.263,204.963z M223.663,203.523c-0.006,0.954-1.31,0.61-0.96,1.92
		c0.614,0.026,0.665,0.615,1.44,0.48C224.797,205.312,224.884,203.572,223.663,203.523z"/>
	<path fill-rule="evenodd" clip-rule="evenodd" fill="#F2D2AE" d="M254.863,205.443c-5.509,5.211-16.275,5.164-24.479,7.68
		c-0.688-1.393-1.153-3.007-2.88-3.36c-0.499,5.583,6.539,8.26,8.161,12.48c1.669,4.345-3.115,7.49-5.76,11.52
		c0.213-2.467,3.082-4.272,2.879-7.2c-0.31-4.496-7.146-8.265-9.6-11.04c0.187,4.649,7.081,6.335,7.68,10.56
		c0.689,4.858-4.493,9.111-9.6,10.56c1.854-2.146,4.089-3.911,5.76-6.24c-1.382-4.058-3.926-6.954-6.72-9.6
		c-1.097,3.866,4.103,4.789,4.32,8.16c0.4,6.201-7.148,7.064-12.96,4.32c0.886-5.146,7.223,0.765,9.12-2.88
		c-0.375-2.388-2.644,1.436-3.84-0.48c-2.611-0.219,1.338-1.868-0.48-2.88c-5.125,2.923-15.179,7.135-21.6,2.88
		c1.353-4.045-0.029-8.243,0.96-12.96C211.301,209.446,236.855,205.794,254.863,205.443z"/>
	<path fill-rule="evenodd" clip-rule="evenodd" fill="#F2D2AE" d="M255.823,203.523c0.203,1.003-0.329,1.271-0.479,1.92
		c-0.787-1.725-1.957-0.285-3.84-0.48C252.324,203.863,254.208,203.828,255.823,203.523z"/>
	<path fill-rule="evenodd" clip-rule="evenodd" fill="#E7A614" d="M16.783,243.843c0.253,4.009-2.224,7.592-4.8,7.2
		c-0.23-1.51,0.684-1.876,0.96-2.88c-0.151-1.457-2.711-1.947-3.84-0.96c-0.057,2.137,1.681,2.48,1.44,4.8
		c-7.748,0.668-6.102-11.254,0.96-10.08c2.599-7.005,1.296-15.726,1.92-24c0.821-0.021,1.243,0.357,1.44,0.96
		c1.607-4.632,5.837-6.643,8.64-10.08C22.235,217.328,7.775,235.35,16.783,243.843z"/>
	<path fill-rule="evenodd" clip-rule="evenodd" fill="#F2D2AE" d="M218.863,236.643c-1.561,1.131-5.309,2.188-6.72,1.92
		C212.978,235.082,215.679,235.984,218.863,236.643z"/>
	<path fill-rule="evenodd" clip-rule="evenodd" fill="#E7A614" d="M163.663,486.243c1.022,7.142,5.198,13.135,3.36,21.601
		c1.517-0.084,1.302-1.899,1.44-3.36c10.234,27.367,10.685,64.432,17.76,94.56c2.281,9.715,8.018,18.106,10.08,27.36
		c-6.037-8.043-16.735-11.426-26.4-15.84c-4.375-23.872-16.238-40.037-26.4-58.08c-5.176-9.19-9.465-20.15-11.04-32.64
		c-0.885-7.022,1.449-15.657-0.48-22.561c-3.267-11.693-6.348-25.36-11.04-35.52c4.854,3.785,8.258,9.021,12.96,12.96
		c-2.895-7.324-13.353-10.781-16.32-18.24c-4.285-10.772-10.447-21.2-14.88-33.12c-4.289-11.534-9.092-23.103-12-35.52
		c1.481-2.839,4.188-4.452,6.24-6.721c0.823,3.817,4.088,5.192,8.16,5.761c-1.425,1.919-3.006,2.728-2.88,5.279
		c0.477,9.681,17.698,1.64,9.12-5.279c3.122-2.159,5.764-4.797,8.64-7.2c0.629,3.211,3.902,3.778,7.2,4.319
		c-6.418,8.326,9.253,12.261,7.68,2.881c-0.317-1.89-0.384-2.015-2.4-2.881c2.704-2.097,5.937-3.663,6.72-7.68
		c1.66,1.7,2.806,3.914,4.8,5.28c-5.899,13.58,15.471,5.979,5.28-1.44c1.948-1.252,1.675-4.725,3.84-5.76
		c1.925,17.199,6.697,37.546,6.72,58.56c0.019,17.062-2.661,34.124,2.4,47.521c-2.538,5.462-6.743,9.258-9.6,14.4
		c1.604-0.098,1.272-2.424,2.4-0.48c3.317-2.479,5.399-8.633,8.16-10.08c-2.248,4.473-5.557,7.883-8.16,12
		C158.153,495.128,160.75,489.252,163.663,486.243z M157.423,497.283c0.873-2.715,6.287-5.781,4.32-8.16
		C161.469,492.538,155.686,494.993,157.423,497.283z M136.783,475.203c-1.725-6.595-7.927-8.713-11.52-13.439
		C127.713,467.632,134.337,469.329,136.783,475.203z M134.863,477.123c-3.324-3.398-7.835-8.162-11.04-10.08
		C127.027,470.878,130.483,474.463,134.863,477.123z M159.343,474.723c-2.028,2.932-3.492,6.428-4.8,10.08
		C157.12,482.419,158.638,478.977,159.343,474.723z M155.023,486.723c2.647-2.312,4.233-5.687,5.76-9.12
		C157.992,479.772,156.663,483.403,155.023,486.723z M158.863,470.403c-1.896,2.429-3.526,7.667-3.36,10.56
		C156.756,477.576,158.464,474.644,158.863,470.403z M130.543,476.643c-1.586-1.623-3.613-5.336-5.28-5.28
		C127.21,472.936,127.817,475.849,130.543,476.643z M130.063,481.443c3.327,2.496,7.453,8.272,12,5.28
		c-1.626-1.414-4.38-1.7-4.8-4.32c1.878,0.376,3.588,3.432,5.28,2.4c-2.511-1.01-3.894-3.146-6.72-3.841
		c0.103,1.174,1.952,1.754,0,2.4c-1.642-2.038-3.495-3.865-5.76-5.28c1.216,2.624,3.182,4.498,5.28,6.24
		C132.908,484.345,131.866,480.458,130.063,481.443z M144.943,499.203c-5.251-3.229-9.865-7.095-13.92-11.52
		c2.106,5.735,6.675,11.562,12,12.479c-3.248-1.716-7.253-5.222-8.16-7.68C137.767,494.863,141.208,499.254,144.943,499.203z
		 M154.063,488.163c-2.346,0.374-3.787,1.653-4.8,3.36c0.713,1.337,2.145-1.015,1.92,0.96c1.552-0.208,1.905-1.615,2.88-2.4
		c-1.714,0.307-2.634,1.363-3.36,0.48C151.799,489.739,153.128,489.148,154.063,488.163z M151.663,502.083
		c1.791-0.289,2.354-1.805,4.32-1.92c-0.413,1.066,0.216,1.301,0.48,2.4c2.419-1.421,3.605-4.075,6.24-5.28
		c-0.581,1.499-2.073,2.087-2.4,3.84c3.487-1.249,3.646-5.706,3.36-8.64C162.256,500.137,155.682,498.394,151.663,502.083z
		 M135.343,498.243c2.409,2.161,6.003,4.085,8.16,4.8c-3.663-3.536-8.764-5.636-11.52-10.08
		C132.566,494.874,133.795,496.854,135.343,498.243z M153.583,497.763c3.469-0.757-5.051-0.578-5.76,0.479
		C149.635,498.97,151.99,497.739,153.583,497.763z M141.103,504.962c-1.89-2.91-5.525-4.074-7.68-6.72
		C134.417,502.049,138.137,503.129,141.103,504.962z M151.183,511.683c1.795-0.926,4.454-0.986,5.76-2.4
		C155.105,509.858,150.586,510.268,151.183,511.683z M156.943,512.163c1.049-1.19,2.791-1.688,3.84-2.88
		C159.288,509.726,156.008,510.883,156.943,512.163z"/>
	<path fill-rule="evenodd" clip-rule="evenodd" fill="#130F06" d="M125.263,461.763c3.593,4.727,9.795,6.845,11.52,13.439
		C134.337,469.329,127.713,467.632,125.263,461.763z"/>
	<path fill-rule="evenodd" clip-rule="evenodd" fill="#130F06" d="M125.263,471.363c1.667-0.056,3.694,3.657,5.28,5.28
		C127.817,475.849,127.21,472.936,125.263,471.363z"/>
	<path fill-rule="evenodd" clip-rule="evenodd" fill="#E7A614" d="M159.343,486.723c-0.067,0.935-1.354,3.157-1.92,3.84
		C154.773,493.757,157.086,489.132,159.343,486.723z"/>
	<path fill-rule="evenodd" clip-rule="evenodd" fill="#130F06" d="M163.663,492.483c0.286,2.934,0.127,7.391-3.36,8.64
		c0.327-1.753,1.819-2.341,2.4-3.84c-2.635,1.205-3.821,3.859-6.24,5.28c-0.264-1.1-0.893-1.334-0.48-2.4
		c-1.965,0.115-2.529,1.631-4.32,1.92C155.682,498.394,162.256,500.137,163.663,492.483z"/>
	<path fill-rule="evenodd" clip-rule="evenodd" fill="#E7A614" d="M77.263,503.042c-1.013-1.547-1.856-3.264-1.92-5.76
		c0.794-1.126,2.8-1.039,4.8-0.96C82.996,498.665,82.332,503.676,77.263,503.042z M78.223,497.283c1.615,1.821,1.208,3.112,2.4,4.8
		C81.911,500.074,80.535,495.788,78.223,497.283z"/>
	<path fill-rule="evenodd" clip-rule="evenodd" fill="#E7A614" d="M58.543,507.363c-0.62-3.979,1.744-4.977,3.84-6.24
		c-0.397,1.356,0.676,1.244,0.48,2.4c-1.417,0.663-1.943,2.217-3.36,2.88C61.812,505.333,62.691,506.585,58.543,507.363z"/>
	<path fill-rule="evenodd" clip-rule="evenodd" fill="#130F06" d="M160.783,509.283c-1.049,1.191-2.791,1.689-3.84,2.88
		C156.008,510.883,159.288,509.726,160.783,509.283z"/>
	<path fill-rule="evenodd" clip-rule="evenodd" fill="#F2D2AE" d="M135.823,113.763c-0.5,1.58-1.489,2.672-2.88,3.36
		c-0.433-3.644,0.035-6.023-0.96-9.6c2.153-0.087,2.963-1.517,4.32-2.4C138.308,107.373,137.929,112.03,135.823,113.763z"/>
	<path fill-rule="evenodd" clip-rule="evenodd" fill="#E7A614" d="M125.743,129.123c1.497-2.983,2.812-6.147,5.28-8.16
		c0.567,2.337,0.2,7.873-2.88,8.16c1.085-1.635,2.218-3.222,2.4-5.76c-2.297,1.862-2.976,5.344-5.28,7.2
		C125.29,129.949,125.878,129.898,125.743,129.123z"/>
	<path fill-rule="evenodd" clip-rule="evenodd" fill="#E7A614" d="M115.663,128.643c-0.378-1.849,2.298-1.849,1.92,0
		C116.943,128.643,116.303,128.643,115.663,128.643z"/>
	<path fill-rule="evenodd" clip-rule="evenodd" fill="#E7A614" d="M118.063,127.683c1.537-0.744,2.112-0.169,1.92,1.92
		C119.27,129.036,117.838,129.188,118.063,127.683z"/>
	<path fill-rule="evenodd" clip-rule="evenodd" fill="#F2D2AE" d="M34.543,202.083c-0.369-1.809,0.586-2.294,0.48-3.84
		c0.828,1.092,1.027,2.813,0.96,4.8C35.165,204.861,35.193,202,34.543,202.083z"/>
	<path fill-rule="evenodd" clip-rule="evenodd" fill="#E7A614" d="M102.223,360.962c0.408,0.089,0.453-0.187,0.48-0.479
		c1.772,2.221,2.443,4.013,0.96,6.72c-1.165-0.275,0.225-3.105-1.44-2.88c-1.505,0.332-0.626,1.28-0.48,2.4
		C98.861,365.191,102.026,361.882,102.223,360.962z"/>
	<path fill-rule="evenodd" clip-rule="evenodd" fill="#E7A614" d="M361.903,89.283c-0.842-2.229-0.996,0.582-2.399,0.48
		c0.041-2.038,1.133-3.026,3.359-2.88c0.547,1.053,1.239,1.961,0.96,3.84c0.437,0.423,1.417,0.083,2.88,0.48
		c4.927,6.054,14.037,4.644,19.681,9.6c2.989,2.625,3.622,6.562,8.16,6.72c-2.006-7.914-9.955-9.885-15.36-14.4
		c-0.295-3.736-6.58-4.853-3.84-8.64c3.342-0.326,3.314,3.146,2.88,5.28c7.595,7.238,21.453,10.393,20.16,24.96
		c-7.454,4.696-19.323,15.635-12.48,26.88c2.31,13.53-8.129,17.117-18.239,19.68c-0.795,1.751-2.837,4.324-1.921,6.24
		c0.544,1.056,3.167,0.033,3.36,1.44c0.959,2.876-2.834,4.803-5.76,2.88c2.973-3.247,1.073-7.348-0.48-11.04
		c6.07-6.09,16.825-7.495,21.12-15.36c-0.254-0.386-0.501-0.779-0.479-1.44c-2.364-0.284-3.696,0.464-3.36,2.88
		c-5.369,2.316-8.341,8.887-15.84,9.12c-1.479,0.046-2.901-0.852-4.32-0.96c-5.212-0.397-8.92,2.292-13.439,2.88
		c-0.986-1.788,0.214-2.969,1.439-3.84c7.545,4.443,9.588-6.34,14.88-8.64c6.296,0.918,13.117-1.531,17.28-4.32
		c0.074-1.194-0.754-1.486-0.96-2.4c-5.783,1.751-9.38,5.362-15.84,4.8c-4.734-0.412-8.148-3.112-12.48-1.92
		c-3.382,0.931-4.367,3.589-8.64,3.84c-1.259-0.847-1.259-3.474,0-4.32c2.448-0.688,2.052,1.468,3.36,1.92
		c4.322-3.83,8.172-10.688,15.359-11.52c5.888-0.682,14.774,4.119,18.721-1.92c0.35-1.31-0.954-0.966-0.961-1.92
		c-10.818,5.521-23.387,0.102-29.279-7.2c-1.036-0.484-3.326,1.352-4.8-0.48c0-0.8,0-1.6,0-2.4c0.809-1.624,2.204,0.317,3.359-0.96
		c1.05,0.07,1.031,1.209,0.96,2.4c2.788,0.194,5.077,2.418,8.16,2.4c4.555-0.027,8.604-3.252,13.44-2.88
		c5.091,0.392,7.288,3.722,12.479,2.88c-0.447-4.994-5.216-2.754-9.6-4.32c-3.12-1.114-4.963-5.176-8.16-6.72
		c-3.245-1.566-5.968-0.992-9.12-2.88c11.25-7.049,20.47,2.512,30.24,5.28c0.841-0.438,1.667-0.892,1.439-2.4
		c-1.756-3.902-5.825-2.506-9.12-3.36c-8.023-2.081-10.494-9.038-14.399-15.36c-2.362-0.102-4.055,1.266-4.32-1.44
		C360.83,89.339,361.469,90.899,361.903,89.283z M348.463,157.443c0.867-0.823-0.147-1.888-1.44-1.92
		C346.888,156.778,347.199,157.587,348.463,157.443z M367.664,171.843c0.125-1.565-0.57-2.31-1.921-2.4
		C365.542,171.083,365.888,172.178,367.664,171.843z"/>
	<path fill-rule="evenodd" clip-rule="evenodd" fill="#130F06" d="M100.783,101.763c4.905-1.578,14.213-8.164,17.76-0.48
		c-0.655-0.345-3.056-2.839-2.4-1.44c0.454,0.827,1.774,0.786,1.44,2.4c-1.016,1.225-2.54,1.94-4.32,2.4
		c-3.673-0.013-6.741-3.17-10.56-1.44c-0.16,0-0.32,0-0.48,0C101.176,103.29,100.696,102.81,100.783,101.763z M110.383,99.363
		c2.046-0.615,2.873,0.535,4.32-0.48C113.741,98.062,110.812,98.184,110.383,99.363z"/>
	<path fill-rule="evenodd" clip-rule="evenodd" fill="#E7A614" d="M78.223,308.163c0.407,6.96-0.715,12.864,0.48,18.72
		c0.657,3.218,2.678,5.747,3.36,8.64c0.536,2.27,0.227,5.792,0.96,8.16c1.037,3.348,2.794,4.183,0.48,7.68
		c1.86,6.05,11.19,0.877,6.24-3.84c2.262,0.532,3.439-3.826,4.8-5.76c0.911,4.528,1.887,8.993,1.92,14.399
		c-5.844,3.365-2.021,8.018-0.96,14.4c2.737,16.458-19.261,20.783-24,6.72c-1.979-8.768,4.959-14.433,0.96-20.64
		c-2.841-0.263-6.849,0.372-7.68,2.88c-0.961,2.901,1.798,5.147,2.4,8.64c3.142,18.237-19.439,25.9-22.56,7.681
		c-0.333-7.675,9.069-17.056,0-20.641c-2.391,1.02-4.396,2.398-4.8,5.28c-0.612,4.357,3.619,8.036,2.4,14.88
		c-1.664,9.345-11.613,14.438-17.28,6.24c-1.556-2.252-2.721-6.436-2.4-10.561c0.518-6.637,7.555-13.241,1.92-17.279
		c-3.615,3.716-3.698,11.746-4.8,17.76c-0.713,3.892-0.452,7.538-2.4,10.56c-8.24-3.905-1.177-16.119-0.48-24.479
		c0.161-1.938-0.654-4.139-0.48-5.76c0.569-5.3,3.186-12.551,5.28-17.76c4.893-12.17,13.189-23.466,17.76-31.68
		c1.01,0.151,2.865,1.365,2.4-0.96C53.522,306.39,66.458,305.715,78.223,308.163z"/>
</g>
</svg>
