<?xml version="1.0" encoding="UTF-8" standalone="no"?>
<!-- Created with Inkscape (http://www.inkscape.org/) -->

<svg
   xmlns:dc="http://purl.org/dc/elements/1.1/"
   xmlns:cc="http://creativecommons.org/ns#"
   xmlns:rdf="http://www.w3.org/1999/02/22-rdf-syntax-ns#"
   xmlns:svg="http://www.w3.org/2000/svg"
   xmlns="http://www.w3.org/2000/svg"
   xmlns:xlink="http://www.w3.org/1999/xlink"
   xmlns:sodipodi="http://sodipodi.sourceforge.net/DTD/sodipodi-0.dtd"
   xmlns:inkscape="http://www.inkscape.org/namespaces/inkscape"
   width="138.2177"
   height="200.39432"
   id="svg26573"
   sodipodi:version="0.32"
   inkscape:version="0.48.1 r9760"
   version="1.0"
   sodipodi:docname="liftarn_Witch_with_crystal_ball_modified.svg">
  <defs
     id="defs26575">
    <radialGradient
       inkscape:collect="always"
       xlink:href="#linearGradient10323"
       id="radialGradient10338"
       gradientUnits="userSpaceOnUse"
       cx="-160.25"
       cy="197.30621"
       fx="-160.25"
       fy="197.30621"
       r="65.018501" />
    <linearGradient
       id="linearGradient10323">
      <stop
         id="stop10325"
         offset="0"
         style="stop-color:#000000;stop-opacity:0;" />
      <stop
         style="stop-color:#00678d;stop-opacity:0.65693432;"
         offset="1"
         id="stop10329" />
    </linearGradient>
    <radialGradient
       r="65.018501"
       fy="197.30621"
       fx="-160.25"
       cy="197.30621"
       cx="-160.25"
       gradientUnits="userSpaceOnUse"
       id="radialGradient16958"
       xlink:href="#linearGradient10323"
       inkscape:collect="always" />
  </defs>
  <sodipodi:namedview
     id="base"
     pagecolor="#ffffff"
     bordercolor="#666666"
     borderopacity="1.0"
     inkscape:pageopacity="0.0"
     inkscape:pageshadow="2"
     inkscape:zoom="2.5942489"
     inkscape:cx="68.891733"
     inkscape:cy="102.71885"
     inkscape:document-units="px"
     inkscape:current-layer="layer1"
     inkscape:window-width="1912"
     inkscape:window-height="1049"
     inkscape:window-x="0"
     inkscape:window-y="0"
     showgrid="false"
     inkscape:window-maximized="1"
     fit-margin-top="0"
     fit-margin-left="0"
     fit-margin-right="0"
     fit-margin-bottom="0" />
  <metadata
     id="metadata26578">
    <rdf:RDF>
      <cc:Work
         rdf:about="">
        <dc:format>image/svg+xml</dc:format>
        <dc:type
           rdf:resource="http://purl.org/dc/dcmitype/StillImage" />
        <cc:license
           rdf:resource="http://web.resource.org/cc/PublicDomain" />
        <dc:title></dc:title>
      </cc:Work>
      <cc:License
         rdf:about="http://web.resource.org/cc/PublicDomain">
        <cc:permits
           rdf:resource="http://web.resource.org/cc/Reproduction" />
        <cc:permits
           rdf:resource="http://web.resource.org/cc/Distribution" />
        <cc:permits
           rdf:resource="http://web.resource.org/cc/DerivativeWorks" />
      </cc:License>
    </rdf:RDF>
  </metadata>
  <g
     inkscape:label="Layer 1"
     inkscape:groupmode="layer"
     id="layer1"
     transform="translate(-0.69658326,-0.69036994)">
    <path
       sodipodi:type="arc"
       style="fill:url(#radialGradient16958);fill-opacity:1;stroke:#00678d;stroke-width:0.19259462;stroke-miterlimit:4;stroke-opacity:1;stroke-dasharray:none"
       id="path8637"
       sodipodi:cx="-160.25"
       sodipodi:cy="197.30621"
       sodipodi:rx="64.25"
       sodipodi:ry="64.25"
       d="m -96,197.30621 c 0,35.4843 -28.7657,64.25 -64.25,64.25 -35.4843,0 -64.25,-28.7657 -64.25,-64.25 0,-35.48429 28.7657,-64.25 64.25,-64.25 35.4843,0 64.25,28.76571 64.25,64.25 z"
       transform="matrix(1.0398727,0,0,1.0398727,236.20156,-71.158303)" />
    <path
       style="font-size:248.59294128px;font-style:normal;font-weight:normal;line-height:125%;fill:#000000;fill-opacity:1;stroke:none;font-family:Bitstream Vera Sans"
       d="m 103.61408,5.6622203 c -1e-4,0.16593 -0.083,0.33166 -0.2486,0.49719 -1e-4,1.9e-4 -0.083,-0.08267 -0.2486,-0.24859 0.1656,-0.16554 0.3313,-0.2484 0.4972,-0.2486 m 0.9943,3.48031 c -1e-4,1.9e-4 -1e-4,0.08305 0,0.24859 -0.1658,1.9e-4 -0.3315,1.9e-4 -0.4971,0 0.1656,-0.16554 0.3313,-0.2484 0.4971,-0.24859 m -1.9887,2.4859197 c -1e-4,0.16592 -0.083,0.33165 -0.2486,0.49719 -0.1658,1.9e-4 -0.3315,-0.08267 -0.4972,-0.24859 0.1657,-0.16554 0.4142,-0.24841 0.7458,-0.2486 M 89.195683,10.88268 c -0.1658,-0.33127 -0.4144,-0.41414 -0.7458,-0.2486 l 0.2486,-0.49718 0.4972,0.74578 m 2.7345,0.74577 c -0.3315,0.16592 -0.4973,0.66311 -0.4972,1.49156 l -1.7401,0.2486 0,1.24296 c -10e-5,1.9e-4 -0.1658,-0.08268 -0.4972,-0.24859 -1e-4,-0.33127 -1e-4,-0.74559 0,-1.24297 0.3314,0.16592 -1e-4,0.33165 -0.9944,0.49719 -1e-4,1.9e-4 0.1657,-0.16554 0.4972,-0.49719 l 0,-1.24296 c 0.1656,0.16592 0.4142,0.24878 0.7458,0.24859 0.3313,-0.497 0.3313,-0.74559 0,-0.74578 0.3313,0.49738 0.8285,0.58024 1.4915,0.24859 -0.1658,-0.16553 -0.2486,-0.16553 -0.2486,0 0,-0.16553 0,-0.2484 0,-0.24859 0,1.9e-4 0.4143,0.08306 1.243,0.24859 m -0.9944,2.23734 c -1e-4,0.16592 -0.1658,0.41451 -0.4971,0.74578 l 0,-1.24296 c -1e-4,0.16591 0.1656,0.33164 0.4971,0.49718 m -2.7345,1.98874 -0.4972,-0.49718 c 0.1657,1.8e-4 0.3314,0.08305 0.4972,0.24859 l 0,0.24859 m -4.9718,-0.74577 c -1e-4,1.8e-4 -0.083,0.08305 -0.2486,0.24859 -0.1658,1.8e-4 -0.3316,1.8e-4 -0.4972,0 0.1656,-0.16554 0.4142,-0.24841 0.7458,-0.24859 m 0,0.99437 c -1e-4,0.16591 -0.083,0.33164 -0.2486,0.49718 -0.1658,1.9e-4 -0.3316,-0.08268 -0.4972,-0.24859 0.1656,-0.16554 0.4142,-0.24841 0.7458,-0.24859 m -12.1811,13.67261 -0.9944,-0.99437 c 0,0.1659 0.1657,0.33163 0.4972,0.49718 0.3314,1.8e-4 0.4971,0.1659 0.4972,0.49719 m -9.4465,0.24859 c -1e-4,1.7e-4 -0.083,0.08304 -0.2486,0.2486 -10e-5,1.7e-4 -0.0829,1.7e-4 -0.2486,0 -1e-4,-0.16556 0.1657,-0.24843 0.4972,-0.2486 m -23.3678,9.19794 c 0,0.33162 -0.0829,0.49735 -0.2486,0.49719 l -0.4971,0 c 0.1656,-0.66276 0.4142,-0.82848 0.7457,-0.49719 m -14.4184,-7.95497 c 0,0.1659 -0.0828,0.33162 -0.2486,0.49718 l -0.2485,0 c 0.1657,-0.16556 0.3314,-0.33128 0.4971,-0.49718 m 22.622,29.08537 -0.7458,-0.99437 c 0,1.4e-4 0.2486,0.24873 0.7458,0.74578 l 0,0.24859 m -1.243,-0.99437 -1.7401,-0.99437 c 0.1657,1.4e-4 0.1657,-0.24845 0,-0.74578 0.3314,0.16587 0.7457,0.41446 1.2429,0.74578 l -0.2485,0.49718 c -10e-5,1.5e-4 0.2485,0.16587 0.7457,0.49719 l 0,0 m -1.9887,-2.23734 -3.2317,0 c 1.3258,-0.33131 2.3201,-0.33131 2.9831,0 l 0.2486,0 m -9.4465,-8.20356 c -0.4973,0.82879 -0.9944,1.24311 -1.4916,1.24296 -0.4972,1.5e-4 -1.243,-0.33131 -2.2373,-0.99437 -0.9944,-0.82849 -1.7402,-1.24281 -2.2374,-1.24297 l -2.2373,-0.49718 c -0.3315,-0.82849 -1.243,-1.57427 -2.7345,-2.23734 -1.4916,-0.82848 -2.4031,-1.73999 -2.7346,-2.73452 l -0.9943,0.24859 c 0.3314,-0.49702 0.4971,-0.82848 0.4972,-0.99437 l -1.4916,-1.49156 c 0.4972,0.33162 1.7401,1.65745 3.7289,3.97749 l 2.9831,1.98874 0.2486,0 c -0.4972,-2.15431 -1.4087,-5.30315 -2.7345,-9.44653 l 0,-2.48593 c 0.4971,0.33163 0.9943,0.99454 1.4915,1.98875 l 1.9888,1.49155 c -0.8287,-0.16556 -1.6573,-0.82848 -2.4859,-1.98874 l -0.2486,-0.49719 -0.2486,0.2486 c -10e-5,1.49172 0.4971,3.31473 1.4915,5.46904 0.9944,2.15463 1.5744,3.81192 1.7402,4.97186 0.4971,0.49734 2.5687,1.7403 6.2148,3.72889 0.3314,-0.49703 0.8286,-0.74562 1.4916,-0.74577 m 5.9662,7.20919 c -0.663,0.16587 -1.6573,0.5802 -2.9831,1.24297 1.6572,-0.8285 2.6516,-1.24282 2.9831,-1.24297 m 4.2261,9.44653 -0.4972,0.2486 c -10e-5,1.3e-4 -0.0829,-0.24846 -0.2486,-0.74578 l 0.4972,-0.49719 c -1e-4,0.16587 0.0828,0.49732 0.2486,0.99437 m -7.955,-8.20356 c -0.663,0.49732 -1.1601,0.74592 -1.4916,0.74577 0.3315,-0.16558 0.8286,-0.41417 1.4916,-0.74577 m -10.4409,-9.19794 c 0,1.5e-4 -0.1658,0.24874 -0.4972,0.74578 l 0,0 c -0.1657,-0.33131 0,-0.5799 0.4972,-0.74578 m -9.4465,-8.70076 c -0.1658,1.7e-4 -0.4972,0.08303 -0.9944,0.2486 -0.1658,-0.16557 -0.1658,-0.3313 0,-0.49719 0.6629,0.16589 0.9943,0.24876 0.9944,0.24859 m 19.1416,17.40151 c -0.6629,0.66306 -1.7402,1.16024 -3.2317,1.49156 l 3.2317,-1.49156 m -20.3846,-17.89869 c -0.3315,-0.16557 -0.7458,-0.24843 -1.243,-0.24859 -0.1657,-0.16557 -0.1657,-0.41416 0,-0.74578 0.3315,1.6e-4 0.7458,0.33162 1.243,0.99437 m -0.9944,0.99437 -0.2486,-0.99437 c 0,0.33162 0.0829,0.66307 0.2486,0.99437 m 15.6614,17.40151 c -0.4972,0.82878 -0.7458,1.4917 -0.7458,1.98874 -1.9888,0.16587 -3.2317,1.4e-4 -3.7289,-0.49719 -0.8287,1.5e-4 -1.4916,0.16587 -1.9887,0.49719 l -0.4972,-0.49719 -1.243,0.99438 c 0,1.4e-4 0.3314,-0.49705 0.9944,-1.49156 0,1.4e-4 -0.4972,-0.24845 -1.4916,-0.74578 l 0,-0.24859 c 2.9831,1.32597 5.2205,1.74029 6.712,1.24296 0,1.4e-4 -1.9059,-0.8285 -5.7176,-2.48593 -3.3146,-2.32005 -5.2205,-4.39166 -5.7176,-6.21482 -0.4972,-0.49704 -0.9944,-1.32568 -1.4916,-2.48593 l 0.4972,-0.49719 c 0.1657,0.66307 0.7458,1.07739 1.7401,1.24297 0.9944,1.5e-4 1.5744,0.08301 1.7402,0.24859 l 0.2486,0 -4.4747,-6.9606 c 0,-0.3313 -0.1657,-0.74562 -0.4972,-1.24297 l 0.4972,0.49719 0.4972,-0.49719 c 0.3314,0.66308 0.58,1.57458 0.7458,2.73453 1.823,1.82317 3.0659,3.31472 3.7289,4.47467 1.6572,0.82879 3.8946,2.48608 6.712,4.97186 0.1657,1.5e-4 1.3258,0.16587 3.4803,0.49718 0,0.33161 -0.0829,0.49734 -0.2486,0.49719 -0.9944,-0.33131 -2.486,-0.66277 -4.4747,-0.99437 -0.1657,0.16587 -0.4972,0.41447 -0.9944,0.74578 0,1.4e-4 0.2486,-0.24845 0.7458,-0.74578 0,-0.16558 -0.2486,-0.24845 -0.7458,-0.2486 0,0.16588 -0.1657,0.33161 -0.4971,0.49719 -10e-5,1.5e-4 0.1657,-0.24844 0.4971,-0.74578 -1.1601,-0.99422 -2.4859,-1.74 -3.9774,-2.23734 -0.3315,0.33161 -0.5801,0.49734 -0.7458,0.49719 0,1.5e-4 -0.4144,-0.5799 -1.243,-1.74015 -1.3258,0.16588 -2.2373,-0.16558 -2.7345,-0.99437 0,1.5e-4 0,0.24874 0,0.74578 l 4.9718,5.71763 9.4466,3.48031 M 136.67688,84.96337 c -0.1658,1.2e-4 -0.4973,0.16585 -0.9943,0.49719 -0.3316,0.16584 -0.5802,0.33157 -0.7458,0.49718 -0.1659,0.16585 -0.3316,0.58017 -0.4972,1.24297 -0.1659,0.66303 -0.4973,0.91162 -0.9944,0.74578 l -0.4972,0.49718 c 0.1656,0.16584 0.4142,0.16584 0.7458,0 0.1656,0.16584 0.2485,0.33157 0.2486,0.49719 -0.3316,1.1e-4 -0.8288,0.16584 -1.4915,0.49719 0.1656,0.16584 0.497,0.2487 0.9943,0.24859 -0.1658,1.1e-4 -0.1658,0.58016 0,1.74015 0.4971,0.16584 0.6628,0.99448 0.4972,2.48593 -0.4973,0.331561 -0.9945,1.077341 -1.4915,2.237331 l -1.7402,0.2486 c 1.9886,2.15457 2.983,5.552009 2.9831,10.192309 0.3313,1.49165 1.16,3.72898 2.486,6.71201 1.8228,6.79495 2.7343,13.67268 2.7345,20.63321 -2e-4,7.62358 -1.1603,14.41845 -3.4803,20.38462 -1.6574,3.64608 -3.3147,7.20924 -4.9719,10.6895 -1.9889,4.30898 -4.1433,7.70641 -6.4634,10.19231 -5.6349,6.62916 -10.8553,11.43529 -15.6614,14.41839 l -6.2148,3.97749 c -2.320297,1.1601 -6.049197,2.65166 -11.186697,4.47467 -5.1376,1.82302 -10.6895,2.81739 -16.6557,2.98312 -14.087,0.33145 -26.4338,-2.23734 -37.0403,-7.70639 -3.1489,-1.98873 -6.3806,-4.06033 -9.6952,-6.21482 -3.3146,-2.32018 -5.9662,-4.88897 -7.9549,-7.70638 -5.6348,-5.80047 -10.6894997,-13.92117 -15.1641997,-24.36211 -0.4972,-2.15442 -1.4087,-5.30326 -2.7345,-9.44653 -0.6629,-3.14879 -0.99440004,-6.62908 -0.99440004,-10.4409 0,-5.13752 0.99440004,-12.5953 2.98310004,-22.37337 1.3258,-3.14875 3.4803,-7.95488 6.4633997,-14.418389 1.3258,-2.48582 3.8946,-5.883261 7.7064,-10.192311 0.1657,-0.33134 0.2486,-0.82853 0.2486,-1.49156 -0.4972,0.4973 -1.0772,0.99449 -1.7401,1.49156 -0.4972,0.4973 -1.0773,0.58016 -1.7402,0.24859 l 1.9887,-2.73452 c -0.8286,-0.6628 -0.58,-2.40295 0.7458,-5.22045 0.3315,-0.33134 0.4972,-0.74566 0.4972,-1.24297 0,1.3e-4 -0.3315,1.3e-4 -0.9944,0 l -1.7401,3.23171 -0.4972,-0.49718 c 0,0.33157 -0.2486,0.66303 -0.7458,0.99437 l -0.2486,0 c 0,-0.33134 0.3315,-0.82853 0.9944,-1.49156 -0.3315,-1.49144 0.1657,-2.7344 1.4916,-3.72889 -0.3315,-1.82289 -0.3315,-2.90013 0,-3.23171 0.4971,-0.49706 1.16,-1.3257 1.9887,-2.48593 -0.6629,-0.33133 -1.4087,-0.82851 -2.2373,-1.49156 1.3258,0.66305 2.3202,0.91164 2.9831,0.74578 0.1657,1.3e-4 0.9115,-0.57992 2.2373,-1.74015 -0.8286,0.33159 -2.2373,0.41445 -4.2261,0.24859 l 3.2317,-0.74578 c -1.6573,1.4e-4 -3.9775,-0.41419 -6.9606,-1.24296 l 0,0.24859 c 0.3315,0.49732 1.243,1.07737 2.7346,1.74015 -0.663,0.33159 -1.3259,0.16586 -1.9888,-0.49718 -0.4972,-0.82851 -0.9944,-1.57429 -1.4915,-2.23734 l 0,-0.74578 c 0,1.4e-4 0.0828,0.16586 0.2486,0.49719 0.1657,0.33159 0.4143,0.66305 0.7457,0.99437 2.6517,1.3e-4 4.7233,-0.74565 6.2149,-2.23734 0.8286,0.16587 1.6572,1.4e-4 2.4859,-0.49718 0.9943,-0.66278 1.5744,-0.99424 1.7401,-0.99437 -0.8286,-0.49705 -2.1545,-1.15997 -3.9774,-1.98875 -0.663,-0.49704 -1.6573,-1.24282 -2.9832,-2.23733 -0.4972,-0.49705 -1.2429,-1.24283 -2.2373,-2.23734 0,1.4e-4 0.4143,-0.24845 1.243,-0.74578 -0.1658,1.4e-4 1.0772,0.08301 3.7289,0.24859 -0.663,-0.16558 -1.4916,-0.08272 -2.486,0.2486 -0.8286,0.3316 -1.4915,0.49732 -1.9887,0.49718 1.1601,0.82879 4.4746,2.6518 9.9437,5.46905 -0.1657,1.3e-4 1.1601,-0.16559 3.9775,-0.49719 1.3258,0.66305 3.1488,1.74029 5.469,3.23171 0.6629,1.3e-4 1.4916,0.33159 2.486,0.99437 1.16,0.66305 1.9058,1.07737 2.2373,1.24297 l 2.7345,0 c 0,1.3e-4 0,0.08299 0,0.24859 -0.4972,-0.1656 0.1657,-0.41419 1.9888,-0.74578 -10e-5,-0.1656 0.1657,-0.33132 0.4972,-0.49719 -10e-5,0.16587 -0.4973,0.58019 -1.4916,1.24297 -0.8287,0.49732 -1.3259,0.82877 -1.4916,0.99437 -0.1657,0.16586 -0.3315,0.58018 -0.4971,1.24296 0.8286,0.82878 1.5743,0.91164 2.2373,0.2486 -1e-4,1.3e-4 3.1488,-1.07711 9.4465,-3.23171 0.1657,-0.49705 0.1657,-1.0771 0,-1.74015 -0.8287,-1.49142 -1.5744,-3.06584 -2.2373,-4.72327 -0.663,-1.82287 -0.8287,-3.56302 -0.4972,-5.22045 -0.1658,-1.49141 -1.3259,-3.48015 -3.4803,-5.96623 -2.1545,-2.48578 -3.2318,-4.55738 -3.2317,-6.21482 l -1.4916,-1.49156 0,-2.23734 c -1.4916,-0.49702 -2.8174,-1.49139 -3.9775,-2.98311 -1.1601,-1.49139 -2.2373,-2.90009 -3.2317,-4.22608 -0.8286,1.7e-4 -1.3258,0.08303 -1.4915,0.24859 -1e-4,0.1659 -0.0829,0.33163 -0.2486,0.49719 0.1657,0.99453 0.1657,1.49172 0,1.49155 0,0.1659 0.0828,0.24876 0.2486,0.2486 l 0.9944,-1.24297 0.2485,0.49719 c -0.8286,0.49735 -0.9944,1.16026 -0.4971,1.98874 0.3314,0.82881 0.7457,1.65745 1.2429,2.48593 0.6629,0.66308 1.6573,1.82318 2.9831,3.4803 0,0.8288 0.1657,1.9889 0.4972,3.4803 0.1657,1.6e-4 0.4143,-0.08271 0.7458,-0.24859 0.3314,0.49734 0.7457,0.66307 1.243,0.49719 -10e-5,1.5e-4 -0.3315,0.24874 -0.9944,0.74578 -0.663,0.49733 -1.243,0.74593 -1.7402,0.74577 -0.8286,1.6e-4 -1.9059,-0.41416 -3.2317,-1.24296 -1.1601,-0.99422 -2.1545,-1.4914 -2.9831,-1.49156 -0.9944,0.8288 -1.5744,1.16026 -1.7401,0.99437 l 1.2429,-0.99437 c -0.1657,-0.49703 -0.4143,-0.57989 -0.7457,-0.24859 -0.4973,0.49734 -0.8287,0.74593 -0.9944,0.74578 l 1.243,-1.49156 c -1.3259,-1.32567 -2.1545,-1.90572 -2.486,-1.74015 0,0.16589 -0.1657,0.24875 -0.4972,0.24859 l 0.7458,-0.74578 c -0.4972,-0.82848 -1.1601,-1.98858 -1.9887,-3.4803 0.4971,0.66308 1.3258,1.57459 2.4859,2.73452 0.1657,1.6e-4 0.1657,-0.0827 0,-0.24859 0.1657,1.6e-4 0.3314,0.08303 0.4972,0.24859 l -0.4972,0.74578 2.2373,2.73453 c 1.6573,0.49734 3.4803,1.40884 5.4691,2.73452 1.16,-1.32568 1.5744,-2.56864 1.2429,-3.7289 -0.4972,-0.82848 -0.9944,-1.65712 -1.4915,-2.48593 -0.3315,-0.82848 -0.9944,-1.15993 -1.9888,-0.99437 -0.9944,1.6e-4 -2.1545,-0.33129 -3.4803,-0.99437 -1.3258,-0.66275 -2.2373,-1.07707 -2.7345,-1.24296 -1.1601,-0.66275 -2.7345,-1.98858 -4.7232,-3.97749 l 0,-1.74015 c 0.1657,1.7e-4 0.3314,0.08303 0.4971,0.24859 0.4972,-0.16556 1.0773,-0.33129 1.7402,-0.49718 0.6629,-0.33129 1.2429,-0.99421 1.7401,-1.98875 0.4972,-1.15993 1.0773,-1.65711 1.7402,-1.49156 6.4634,-1.65711 12.6782,-1.24279 18.6445,1.24297 0.6628,0.1659 1.5743,1.7e-4 2.7345,-0.49719 -0.1658,1.8e-4 -0.2487,-0.08269 -0.2486,-0.24859 0.1657,1.7e-4 0.2485,1.7e-4 0.2486,0 -10e-5,1.7e-4 0.0828,0.24877 0.2486,0.74578 3.4802,-0.33129 5.5518,-0.24842 6.2148,0.24859 l 3.9775,1.74015 c 0.6628,0.33163 1.2429,0.49736 1.7401,0.49719 0.9943,1.7e-4 2.3202,-0.33129 3.9775,-0.99437 1.6572,-0.82848 3.0659,-1.2428 4.2261,-1.24297 0.8286,1.7e-4 1.9887,0.24877 3.4803,0.74578 1.4915,0.49736 3.7288,0.74595 6.712,0.74578 3.1488,-0.16556 5.3032,0.08303 6.4634,0.74578 3.8117,1.82318 9.6122,4.47484 17.401497,7.95497 l 0.4972,-0.49718 c 0.1657,0.49734 0.58,0.99453 1.243,1.49155 0.3313,1.6e-4 0.7457,1.6e-4 1.243,0 -2e-4,-0.16556 -0.083,-0.33129 -0.2486,-0.49718 -0.3316,1.6e-4 -0.1659,0.24875 0.4971,0.74578 0.1657,0.16589 0.4971,0.41448 0.9944,0.74578 0.6628,0.33161 0.8286,0.74593 0.4972,1.24296 -0.4973,1.16026 -0.7459,1.74031 -0.7458,1.74015 -1e-4,1.6e-4 0.4142,-0.3313 1.243,-0.99437 l 0.2486,0.49719 0.4972,-0.49719 c 0.1656,0.16589 0.3313,0.33161 0.4972,0.49719 l -0.4972,0.24859 -0.2486,-0.24859 c -0.1659,0.16588 -0.2487,0.33161 -0.2486,0.49718 0.1656,0.49734 0.4971,0.66307 0.9944,0.49719 0.6628,-0.49703 1.0771,-0.74563 1.2429,-0.74578 0.3314,-0.99422 0.0828,-1.90572 -0.7458,-2.73452 -1.3259,-1.65713 -1.9888,-2.48577 -1.9887,-2.48593 -9.1152,-5.96607 -16.738697,-9.61209 -22.870597,-10.93809 -0.663,-0.33129 -1.6573,-0.66274 -2.9831,-0.99437 l -0.2486,0.24859 c -0.663,-0.33129 -0.9944,-0.49701 -0.9943,-0.49719 -0.4973,0.33163 -0.663,0.49736 -0.4972,0.49719 -1e-4,-0.16556 -0.4144,-0.33129 -1.243,-0.49719 l -1.2429,-0.99437 c -0.8288,1.8e-4 -1.5745,-0.16555 -2.2374,-0.49718 0.1657,1.7e-4 -2.7346,0.1659 -8.7007,0.49718 0.8285,0.49736 1.16,0.99455 0.9943,1.49156 -0.8287,-1.15993 -2.7346,-1.65711 -5.7176,-1.49156 -0.3315,1.8e-4 -0.8287,0.33163 -1.4916,0.99437 -0.4972,0.66309 -0.9944,0.82882 -1.4915,0.49719 -1e-4,0.33163 -0.1658,0.66309 -0.4972,0.99437 -1e-4,1.7e-4 -0.0829,-0.24842 -0.2486,-0.74578 0.8286,-0.33128 1.5744,-0.91133 2.2373,-1.74015 l 0,0 c -2.6517,0.82882 -5.7177,0.82882 -9.1979,0 -10e-5,0.1659 -0.2486,0.49736 -0.7458,0.99437 -0.4972,0.49736 -0.9944,0.58023 -1.4915,0.2486 0.1656,1.7e-4 0.4971,-0.24842 0.9943,-0.74578 l -0.2486,-0.2486 -4.7232,-0.24859 c -0.1658,-0.49701 -0.663,-0.57987 -1.4916,-0.24859 -1.3259,1.7e-4 -3.2317,0.08304 -5.7176,0.24859 -2.3203,0.1659 -5.7177,0.58023 -10.1923,1.24297 -0.3315,0.33163 -0.9944,0.33163 -1.9888,0 -0.6629,0.1659 -1.1601,0.74595 -1.4915,1.74015 -0.1658,0.99454 -0.4144,1.57459 -0.7458,1.74015 l -1.243,0 c 1.1601,-0.66275 1.6573,-1.2428 1.4916,-1.74015 -0.1658,-0.66275 0.1657,-1.32566 0.9944,-1.98875 l 0,-0.49718 c -10e-5,1.7e-4 0.4971,1.7e-4 1.4915,0 0,1.7e-4 0.6629,1.7e-4 1.9888,0 -10e-5,1.7e-4 0.9114,-0.16556 2.7345,-0.49719 4.8061,0.1659 10.0265,-0.33128 15.6613,-1.49156 0.1657,1.8e-4 0.2486,0.08304 0.2486,0.2486 l -0.7457,0.49718 c 0.8285,1.8e-4 1.2429,1.8e-4 1.2429,0 -0.1658,-0.33128 0.0828,-0.91133 0.7458,-1.74015 -0.1658,-0.49701 -1e-4,-0.99419 0.4972,-1.49156 0.6628,-0.66273 0.9943,-1.15992 0.9944,-1.49155 -1e-4,-0.33128 -0.083,-0.66274 -0.2486,-0.99438 -0.1658,-0.497 -0.4973,-1.15991 -0.9944,-1.98874 l 0,-0.24859 c 0.8286,-0.497 1.7401,-0.99419 2.7345,-1.49156 0.9943,-0.497 1.4086,-1.24278 1.243,-2.23734 0.8286,-0.66272 1.4086,-1.82282 1.7401,-3.4803 1.3258,-0.49699 3.2317,-1.6570897 5.7177,-3.4802997 2.4858,-1.82282 4.4746,-3.0657804 5.9662,-3.7288904 0.1657,-0.33126 0.3314,-0.66272 0.4972,-0.99437 0.8286,0.33165 1.2429,0.49738 1.2429,0.49718 0.6629,-0.16553 1.5744,-0.57985 2.7346,-1.24296 0.6628,0.16592 1.6572,2e-4 2.9831,-0.49719 l 4.4747,2.23734 c 1.6572,0.16592 3.8945,-0.16553 6.712,-0.99437 l 0.4971,0.49718 c 0,-0.16553 0,-0.41412 0,-0.74578 1.1601,-0.82844 3.1488,-1.32562996 5.9663,-1.49154996 1.6572,1.32601996 2.6515,1.90606996 2.9831,1.74014996 l 1.7401,0.74577 c -1.9888,0.16593 -3.1489,0.08307 -3.4803,-0.24859 -1.1601,-0.82844 -1.7402,-1.24276 -1.7401,-1.24296 l -0.2486,-0.49719 c -0.1658,0.16593 -0.2487,0.41452 -0.2486,0.74578 0.1656,2e-4 0.1656,0.16593 0,0.49719 0.1656,0.82884 -1e-4,1.9060704 -0.4972,3.2317004 l 0.2486,0.49719 c -0.4973,0.16592 -0.9116,1.9e-4 -1.2429,-0.49719 l 0.4971,-0.49718 c -1e-4,1.9e-4 -0.4144,-0.08267 -1.2429,-0.24859 -10e-5,0.16592 -0.5802,0.16592 -1.7402,0 -0.663,1.9e-4 -1.6574,-0.08267 -2.9831,-0.2486 -1.1602,-0.33126 -2.1545,-0.4969904 -2.9831,-0.4971804 -0.8287,1.9e-4 -2.0717,-0.2484 -3.7289,-0.74578 -0.8287,-1.1599 -1.9888,-1.65709 -3.4803,-1.49156 -0.663,2e-4 -1.5745,0.33166 -2.7345,0.99437 -0.4973,-0.16553 -1.0773,2e-4 -1.7402,0.49719 -0.3315,2e-4 -0.8287,2e-4 -1.4915,0 0.1656,0.33165 0.4971,0.49738 0.9943,0.49718 0,-0.16553 0,-0.24839 0,-0.24859 0.4972,-0.33126 1.4087,-0.41412 2.7346,-0.24859 0.1656,0.16592 0.3313,0.41452 0.4971,0.74578 -0.4972,0.8288404 -0.7458,1.0774304 -0.7457,0.7457804 -0.9945,0.33165 -1.4917,0.66311 -1.4916,0.99437 -1e-4,0.16592 -0.0829,0.24878 -0.2486,0.24859 l -0.2486,-0.49719 c -0.1658,0.16593 -0.3315,0.66311 -0.4972,1.49156 0,2e-4 -0.0829,-0.08267 -0.2486,-0.24859 0,0.49738 -0.2486,0.99456 -0.7457,1.49156 -0.3316,-0.33127 -0.4973,-0.497 -0.4972,-0.49719 -0.4973,0.33165 -0.7459,0.49738 -0.7458,0.49719 -1e-4,1.9e-4 -1e-4,0.24878 0,0.74578 -1e-4,0.33164 -0.1658,0.41451 -0.4972,0.24859 -0.3315,0.33165 -0.663,0.58024 -0.9944,0.7457797 l 0.2486,0.49718 c 0,0.16592 -0.2486,0.33165 -0.7457,0.49719 -0.3316,1.9e-4 -0.4144,0.16592 -0.2486,0.49718 0.9943,0.49738 2.1544,1.40889 3.4803,2.73453 1.3257,-1.49137 2.4858,-2.23715 3.4803,-2.23734 l 0.2486,-0.49719 0.4971,0.49719 -2.7345,1.49156 c -0.4972,0.33164 -1.1601,0.91169 -1.9887,1.74015 2.1544,0.33164 4.3917,0.6631 6.712,0.99437 2.4858,0.33164 4.3917,1.16028 5.7176,2.48593 0.1657,0.33164 0.7457,0.49737 1.7402,0.49719 -1e-4,-0.16555 -1e-4,-0.33128 0,-0.49719 -0.3316,-0.497 -0.4973,-0.66273 -0.4972,-0.49719 0.1656,-0.16554 0.3314,-0.24841 0.4972,-0.24859 0.3314,0.33164 0.7457,0.49737 1.2429,0.49719 l 0.2486,-0.2486 c 0,1.9e-4 -0.1658,-0.08268 -0.4972,-0.24859 0.1657,1.8e-4 0.2486,-0.33127 0.2486,-0.99437 0,-0.66273 0.1657,-0.91132 0.4972,-0.74578 0.3314,1.9e-4 0.4971,-0.33127 0.4972,-0.99437 -0.1658,1.8e-4 -0.2487,-0.16554 -0.2486,-0.49719 -10e-5,1.9e-4 0.4143,0.33165 1.243,0.99437 0.4971,-0.33127 0.6628,-0.497 0.4972,-0.49718 0.1656,1.8e-4 0.2485,0.16591 0.2486,0.49718 l -0.4972,0.49719 2.2373,0.24859 c -1e-4,0.16592 -1e-4,0.33164 0,0.49719 0.3314,-0.497 0.8286,-0.66273 1.4916,-0.49719 -10e-5,0.49737 0.2485,0.6631 0.7458,0.49719 0.3313,-0.33127 0.497,-0.57987 0.4971,-0.74578 -1e-4,1.9e-4 0.0828,0.08305 0.2486,0.24859 -1e-4,1.9e-4 -0.2487,0.33164 -0.7457,0.99438 -1e-4,1.8e-4 0.1656,1.8e-4 0.4971,0 0.6629,-0.33128 0.9943,-0.49701 0.9944,-0.49719 0.6628,-1.15992 1.3257,-2.40288 1.9888,-3.72889 0.8285,-1.32564 1.8229,-1.98856 2.9831,-1.98875 3.314397,-0.82845 4.971697,-1.24277 4.971797,-1.24296 -0.1658,0.49737 -0.663,0.82883 -1.4915,0.99437 -0.828797,1.9e-4 -1.243097,0.16592 -1.242997,0.49718 l -0.4972,0.2486 c 0.4971,0.33164 1.16,0.58024 1.988797,0.74578 l 0.2486,1.24296 c 0.6628,1.9e-4 1.4914,-0.33127 2.4859,-0.99437 0.9943,-0.82845 1.74,-1.24278 2.2373,-1.24297 l 1.9888,-1.49155 c -0.1659,-0.1655397 -0.4145,-0.4141297 -0.7458,-0.7457797 -0.3316,0.49738 -0.7459,0.49738 -1.243,0 -10e-5,1.9e-4 -0.0829,1.9e-4 -0.2486,0 0.3314,-0.16554 0.4971,-0.497 0.4972,-0.99437 -0.3315,-0.66272 -0.4973,-0.99418 -0.4972,-0.99438 -0.4973,2e-4 -0.9944,-0.16553 -1.4915,-0.49718 l 0.7457,-0.24859 c 0.1657,-0.16554 -0.2486,-0.91132 -1.2429,-2.23734 -1.4917,-0.4969904 -3.0661,-0.8284504 -4.723297,-0.9943704 2.817297,-0.16553 4.805997,0.33165 5.966197,1.4915604 0.4971,-0.16554 0.9943,0.08306 1.4916,0.74577 0.6628,0.49738 0.9943,0.74598 0.9944,0.74578 0.6628,0.16593 1.2428,0.41452 1.7401,0.74578 0.6628,0.16592 1.16,2e-4 1.4916,-0.49718 1.4914,0.16592 2.983,-0.16554 4.4747,-0.99438 1.3257,-0.33126 3.4801,-0.57985 6.4634,-0.74577 -0.8288,1.32602 -2.4032,2.40325 -4.7233,3.2317 -2.3203,0.66311 -3.8947,1.57462 -4.7233,2.7345297 l -3.7289,0 c -0.663,0.82883 -1.6573,1.65747 -2.9831,2.48593 -0.4973,1.8e-4 -1.1602,0.4145 -1.9887,1.24296 -0.663,0.82883 -1.3259,1.16029 -1.9888,0.99437 -0.663,0.49737 -2.817397,0.99456 -6.463397,1.49156 -0.663,0.49737 -1.0773,1.40888 -1.2429,2.73452 -1e-4,1.32601 -0.4144,2.15465 -1.243,2.48593 l -1.7401,1.49156 c -0.1659,0.82882 -1e-4,2.07178 0.4971,3.72889 0.4971,1.8e-4 1.2429,0.4145 2.2374,1.24297 1.16,0.82881 1.9886,1.24313 2.4859,1.24296 0.6628,1.7e-4 1.2429,0.33163 1.7402,0.99437 0.6628,0.66309 1.16,0.99454 1.4915,0.99438 0.3314,-0.16556 0.58,-0.33129 0.7458,-0.49719 0.994297,0.82881 2.651497,1.90605 4.971797,3.23171 0.8286,0.82881 1.5744,1.32599 2.2374,1.49156 l 6.2148,5.71763 0,3.7289 c -0.4973,0.33161 -1.2431,0.74593 -2.2373,1.24296 1.16,0.33161 2.4029,1.32598 3.7289,2.98312 1.4914,1.5e-4 3.3973,1.98889 5.7176,5.96623 0.6628,1.4917 2.1544,3.31471 4.4747,5.46904 0.1656,0.3316 0.5799,0.91165 1.2429,1.74015 0.6628,0.66306 0.9114,1.32597 0.7458,1.98875 0.6628,1.16023 1.9058,2.81752 3.7289,4.97186 0.1656,0.49731 0.7457,1.49168 1.7402,2.98311 0.9942,1.32596 1.4914,2.40319 1.4915,3.23171 -1e-4,0.49731 -0.083,1.07736 -0.2486,1.74015 0.8285,0.16585 1.4915,0.49731 1.9888,0.99437 l -0.7458,0.74578 c 0.3313,0.66304 0.497,0.99449 0.4972,0.99437 -0.4973,0.33158 -0.6631,0.66304 -0.4972,0.99437 0.3313,0.33158 0.5799,0.7459 0.7458,1.24297 0.1656,0.33157 0.5799,0.99449 1.2429,1.98874 M 22.572783,59.60689 c 0,0.16587 -0.0829,0.41446 -0.2486,0.74578 0,1.4e-4 0.0828,-0.24845 0.2486,-0.74578 m 76.5666,-46.48688 0,-0.24859 -0.4972,0 0,0.24859 0.4972,0 m -7.2092,5.96623 c -1e-4,-0.33127 -1e-4,-0.74559 0,-1.24296 l -0.2486,0 c -1e-4,0.33164 -0.4144,0.49737 -1.2429,0.49718 l 0,0.2486 c 0.3313,1.8e-4 0.6628,0.08304 0.9943,0.24859 -10e-5,0.6631 -0.0829,0.91169 -0.2486,0.74578 -1e-4,-0.16555 0.2485,-0.33128 0.7458,-0.49719 m 0,0.99437 -0.2486,0 c -0.1658,-0.66273 -0.4973,-0.41414 -0.9944,0.74578 0,1.8e-4 0.0828,1.8e-4 0.2486,0 -0.1658,0.16591 -0.3315,0.4145 -0.4971,0.74578 l -0.4972,-0.24859 c -0.3316,0.16591 -0.4144,0.58023 -0.2486,1.24296 1.3257,-0.99419 2.0715,-1.82283 2.2373,-2.48593 m -2.7345,0.74578 0,-0.24859 -0.4972,0 0,0.24859 0.4972,0 m -1.243,-0.49718 0,-0.2486 -0.2486,0 0,0.2486 0.2486,0 m -2.7345,-2.23734 0,-0.24859 -0.2486,0 0,0.24859 0.2486,0 m -13.9212,-13.6726097 0,-0.2485904 -0.2486,0 0,0.2485904 0.2486,0 m 14.9156,15.9099497 0,-0.2486 -0.2486,0 0,0.2486 0.2486,0 m 0.7457,1.49156 0,-0.2486 -0.2485,0 0,0.2486 0.2485,0 m 21.378997,22.12477 0,-0.2486 -0.2486,0 0,0.2486 0.2486,0 M 68.562483,4.4192603 l 0,-0.2485904 -0.2486,0 0,0.2485904 0.2486,0 m 38.780497,40.5206497 0,-0.24859 -0.2486,0 0,0.24859 0.2486,0 M 67.568083,4.6678503 c -0.3315,-0.16553 -0.7458,-0.08267 -1.243,0.2486 0.3314,1.9e-4 0.7457,-0.08267 1.243,-0.2486 m 0.4972,1.24297 0,-0.2486 -0.2486,0 0,0.2486 0.2486,0 m 39.277697,40.2720497 0,-0.24859 -0.2486,0 0,0.24859 0.2486,0 M 64.087783,6.1594103 c -0.1658,1.9e-4 -0.3315,0.16592 -0.4972,0.49719 0.3314,1.9e-4 0.4971,-0.16554 0.4972,-0.49719 M 89.692883,27.5384 c -10e-5,1.8e-4 -0.3316,-0.49701 -0.9944,-1.49155 -0.663,-1.15993 -1.8231,-2.32003 -3.4803,-3.48031 -2.6517,-1.98856 -3.9776,-2.98293 -3.9775,-2.98311 -4.9719,-2.48575 -9.4466,-3.48012 -13.424,-2.98312 l -0.4972,3.23171 c 0.9943,0.16591 2.403,0.49737 4.2261,0.99437 l 0,0 c -10e-5,0.16591 -1.6574,0.24878 -4.9719,0.2486 l 0,0.24859 4.2261,0 0.2486,0.24859 c -0.663,0.16591 -1.5745,0.33164 -2.7345,0.49719 1.3257,0.16591 2.5687,0.4145 3.7289,0.74578 1.3257,0.1659 2.4858,0.49736 3.4803,0.99437 -1e-4,0.1659 -0.083,0.33163 -0.2486,0.49718 l -7.4578,-1.49155 -0.7458,-0.74578 c -0.663,0.49736 -0.9944,1.40887 -0.9944,2.73452 0.6629,0.16591 1.5744,0.33163 2.7346,0.49719 0.4971,0.33163 1.0771,0.49736 1.7401,0.49718 0.4971,1.8e-4 1.2429,-0.16555 2.2374,-0.49718 0.9942,-0.49701 1.74,-0.74561 2.2373,-0.74578 0.6628,1.7e-4 1.3257,0.1659 1.9887,0.49718 1.4915,0.16591 2.403,0.08304 2.7346,-0.24859 l 0.4971,0.49719 c 0.4971,-0.16556 0.9943,-0.08269 1.4916,0.24859 0.4971,0.33163 0.7457,0.58022 0.7458,0.74578 0.6628,0.1659 1.4086,1.7e-4 2.2373,-0.49719 0.4971,0.66309 0.7457,0.99455 0.7458,0.99437 0.3314,0.16591 0.6628,0.08304 0.9944,-0.24859 0.6628,0.1659 1.5743,0.66309 2.7345,1.49156 l 0,-0.24859 c 0.1656,-0.33129 0.3314,-0.41415 0.4972,-0.2486 m -24.8593,-18.1472797 0,-0.24859 -0.4972,0 0,0.24859 0.4972,0 m -2.2374,-1.74015 0,-0.2486 c -0.4972,2e-4 -0.9944,0.16593 -1.4915,0.49719 l 0.2486,0.24859 0,-0.24859 c 0.3314,1.9e-4 0.7457,-0.08267 1.2429,-0.24859 m 5.9663,6.9605997 0,-0.24859 -0.2486,0 0,0.24859 0.2486,0 m 20.8818,20.88181 0,0 m 6.712,9.19794 c 0.1656,-0.16558 0.0828,-0.5799 -0.2486,-1.24297 -1e-4,0.16589 0.0828,0.58021 0.2486,1.24297 m -7.955,-6.96061 c -0.3315,-0.82848 -0.9944,-2.07144 -1.9887,-3.72889 l 1.9887,3.72889 m 45.741097,45.9897 -1.2429,-7.2092 c -0.3316,-2.15434 -3.2319,-6.21469 -8.7008,-12.18105 -1.326,-3.14871 -3.8947,-7.62337 -7.7064,-13.42402 l -0.9944,0 c 0.4971,0.82879 1.2429,2.07176 2.2374,3.72889 -1e-4,0.16588 0.2485,0.5802 0.7458,1.24297 0.497,0.49733 0.6628,0.99451 0.4971,1.49156 0.9943,0.82878 1.2429,2.07175 0.7458,3.72889 -0.3316,-0.66277 -0.8287,-0.74564 -1.4915,-0.24859 l 1.4915,2.23733 c 0.1656,1.4e-4 0.3314,0.49733 0.4972,1.49156 0.3313,0.82878 0.9114,1.07737 1.7402,0.74578 0.497,0.16586 0.9113,0.58019 1.2429,1.24296 l 0.4972,0 c 0.6628,0.66305 0.9943,1.16024 0.9944,1.49156 -1e-4,0.16586 -1e-4,0.24873 0,0.2486 -0.3316,0.49731 -0.3316,0.82877 0,0.99437 l 0,-0.2486 c 0.1656,-0.33132 0.3313,-0.49705 0.4972,-0.49718 0.1656,0.33159 0.2484,0.74591 0.2486,1.24296 l 0.2486,0 c 0.1656,0.16586 0.4142,0.41446 0.7457,0.74578 -0.1658,1.3e-4 -0.4973,1.3e-4 -0.9943,0 l 1.4915,0.24859 c -1e-4,0.33159 0.2485,0.74591 0.7458,1.24297 l -0.9944,0.74578 c 0.3314,1.3e-4 0.6628,0.16585 0.9944,0.49718 0.1656,0.82877 0.2485,1.32596 0.2486,1.49156 -1e-4,0.16586 0.1656,0.66304 0.4972,1.49156 0.3313,0.66304 0.9942,1.65741 1.9887,2.98311 l 0,0.2486 c -0.663,-0.82852 -1.8231,-2.07149 -3.4803,-3.7289 -1e-4,-0.33133 -0.1658,-0.74565 -0.4972,-1.24296 -0.3315,-0.49706 -0.5801,-1.07711 -0.7457,-1.74015 -0.1659,-0.66279 -0.5802,-1.40857 -1.243,-2.23734 -0.1659,1.3e-4 -0.4973,-0.1656 -0.9944,-0.49718 -0.4973,-0.49706 -0.9945,-0.66279 -1.4915,-0.49719 -0.3316,-0.66278 -0.4973,-0.99424 -0.4972,-0.99437 -10e-5,1.3e-4 -0.7459,-1.65715 -2.2374,-4.97186 -0.3315,-0.49705 -2.1546,-4.5574 -5.469,-12.18105 -0.663,-0.66277 -1.4088,-1.74 -2.2373,-3.23171 l -0.9944,0 c 1.3257,1.98889 2.4858,5.63492 3.4803,10.93809 1.16,5.13772 2.5687,8.86661 4.2261,11.18668 l 0.2486,0 c 0.3313,0.16586 0.497,0.41445 0.4971,0.74578 3.9774,5.80062 5.9662,11.43539 5.9663,16.90432 -0.4973,0.99448 -0.2487,1.74026 0.7458,2.23733 1.3257,1.16021 1.9886,1.74026 1.9887,1.74015 l 0.7458,2.23734 c 0.497,-0.33135 0.9942,-0.82853 1.4915,-1.49156 0.1656,1.1e-4 0.8285,0.41443 1.9888,1.24297 -2e-4,1.1e-4 -0.1659,-0.33135 -0.4972,-0.99437 0.1656,-0.82854 0.4142,-0.99427 0.7458,-0.49719 0.6628,0.66302 1.1599,0.91162 1.4915,0.74578 -1e-4,-0.49708 -0.3316,-1.07713 -0.9943,-1.74015 0.1656,1.1e-4 -0.4974,-0.57994 -1.9888,-1.74015 0.4971,-1.49145 1.6572,-3.48019 3.4803,-5.96623 M 67.070883,14.86016 c -0.1658,1.9e-4 -0.8287,-0.41413 -1.9887,-1.24296 -1.3259,-1.82283 -2.3203,-2.65147 -2.9831,-2.48593 -0.8287,0.82883 -1.1602,1.49174 -0.9944,1.98874 0.6628,-0.33127 1.3258,-0.08267 1.9887,0.74578 0.8286,0.6631 1.4087,0.99456 1.7402,0.99437 -0.8287,-0.99418 -1.2431,-1.49137 -1.243,-1.49155 0.1657,-0.16555 0.4143,-0.33127 0.7458,-0.49719 0.4971,0.6631 1.2429,1.65747 2.2373,2.98311 l 0.4972,-0.99437 m 26.3509,26.84804 c -0.3316,-1.32567 -1.1602,-3.23155 -2.486,-5.71764 0.3314,0.49735 0.6629,1.57459 0.9944,3.23171 0.9943,0.82881 1.4915,2.15463 1.4916,3.97749 -0.1659,3.149 -0.2487,4.64055 -0.2486,4.47467 0.1656,-1.32567 0.2485,-3.31441 0.2486,-5.96623 m 2.2373,7.2092 c 0.1656,-2.65151 -0.083,-5.13743 -0.7458,-7.45779 0.3314,1.65744 0.4971,4.14337 0.4972,7.45779 l 0.2486,0 m -8.2036,-9.44654 c -0.3315,-2.32003 -1.243,-4.30877 -2.7345,-5.96623 l 2.7345,5.96623 m 0,1.74015 c -0.1658,-0.33129 -0.4144,-0.74561 -0.7457,-1.24296 -0.8288,-1.4914 -1.906,-3.81159 -3.2318,-6.9606 0,1.32599 0.4972,2.73469 1.4916,4.22608 1.16,1.9889 1.9058,3.31473 2.2373,3.97748 l 0.2486,0 m -24.1135,-26.10225 -0.2486,0 -0.4972,0 0.7458,0 m 28.8368,32.31708 c 0.3314,-1.32568 -10e-5,-3.39728 -0.9944,-6.21483 0.6629,4.3091 0.9943,6.38071 0.9944,6.21483 m -34.0572,-36.04598 0,-0.24859 -0.2486,0 0,0.24859 0.2486,0 m 2.2373,0.74578 c -0.1658,0.49737 -0.5801,1.16029 -1.243,1.98874 l 0.2486,0 c 0.8286,-0.82845 1.1601,-1.49137 0.9944,-1.98874 m 21.8762,23.11914 0,0 m 8.9493,15.41277 c -0.1658,-6.62899 -0.9944,-11.26939 -2.4859,-13.92121 0.8286,9.44669 1.2429,14.16995 1.243,14.1698 0.3313,-0.33131 0.7457,-0.41417 1.2429,-0.24859 m -34.3058,-39.27769 c -0.1658,-0.16554 -0.3315,-0.08267 -0.4972,0.24859 0.1657,1.9e-4 0.3314,-0.08267 0.4972,-0.24859 m 50.961597,51.70733 c -2e-4,0.16587 -0.083,0.58019 -0.2486,1.24297 -10e-5,-0.33132 0.0827,-0.74564 0.2486,-1.24297 m -27.096697,-25.85366 -0.7458,-1.74015 c -0.1658,0.66308 0.0828,1.24313 0.7458,1.74015 m -4.7232,-3.97749 0,-0.24859 -0.7458,0 0.7458,0.24859 m -10.6895,-17.15291 c -0.663,1.16028 -1.3259,3.72907 -1.9888,7.70638 -0.663,0.66309 -1.5745,1.326 -2.7345,1.98874 0.6629,-0.49701 1.4915,-0.66274 2.4859,-0.49718 l 0.9944,-1.49156 c -0.1658,-0.82847 -1e-4,-1.65711 0.4972,-2.48593 0.4971,-0.99419 0.7457,-2.73434 0.7458,-5.22045 m -0.2486,6.46341 0,0.74578 0,0.49719 0,-1.24297 m 18.893,21.379 -1.2429,-2.73453 c -0.1658,0.49735 -10e-5,1.0774 0.4972,1.74016 0.4971,0.66307 0.7457,0.99452 0.7457,0.99437 m -27.5938,-29.33397 -0.4972,1.98874 0.4972,-0.74578 0,-1.24296 m 8.4522,9.44653 -0.2486,0.49719 0.2486,0 c -1e-4,1.7e-4 -1e-4,-0.16555 0,-0.49719 m 10.9381,10.93809 c -0.1658,-0.16556 -0.4144,-0.24843 -0.7458,-0.24859 0.1656,0.16589 0.4142,0.24876 0.7458,0.24859 m 5.9662,6.9606 -0.2486,-0.99437 -1.243,-1.24296 1.4916,2.23733 m 6.712,3.7289 c -1e-4,1.16025 -0.0829,2.9004 -0.2486,5.22045 0.1657,-1.15995 0.2485,-2.9001 0.2486,-5.22045 m -25.3565,-24.6107 c -0.4972,0.33163 -1.3259,0.49736 -2.4859,0.49718 -0.663,-0.33128 -1.0773,-0.33128 -1.243,0 -0.3315,1.8e-4 -0.5801,-0.08268 -0.7457,-0.24859 -1e-4,1.8e-4 0.9114,-0.16555 2.7345,-0.49719 1.16,-0.33127 1.7401,-0.497 1.7401,-0.49718 l 0,-3.23171 c -0.4972,0.16591 -1.1601,0.08305 -1.9887,-0.24859 -1e-4,1.8e-4 0.0828,-0.24841 0.2486,-0.74578 l -1.4916,0 c -0.9944,-0.16555 -1.5745,0.24878 -1.7401,1.24296 -0.3315,1.65747 -0.4973,2.48611 -0.4972,2.48593 0.3314,0.33164 0.3314,0.58023 0,0.74578 -0.1658,0.66309 -0.4973,1.65747 -0.9944,2.98312 l 0.2486,0 c 0.4971,0.99454 1.16,1.326 1.9887,0.99437 1.1601,-0.33128 1.9059,-0.49701 2.2374,-0.49719 0.9943,-0.16555 1.4915,-0.49701 1.4915,-0.99437 -0.1657,1.8e-4 -0.4972,-0.16555 -0.9943,-0.49719 -1e-4,1.8e-4 0.1656,-0.16555 0.4972,-0.49718 l 0.4971,0.49718 c -0.1657,-0.66273 0,-1.15992 0.4972,-1.49155 m 23.8649,31.5713 c 0.1657,-2.48578 -0.1658,-5.96608 -0.9943,-10.4409 0.6628,1.49171 0.8285,3.56332 0.4972,6.21482 l -0.2486,0 -0.2486,-3.23171 c -1e-4,-1.82286 -0.7459,-3.89446 -2.2374,-6.21482 -2.486,-3.64587 -3.7289,-5.46888 -3.7289,-5.46905 0,1.7e-4 0.3314,0.74595 0.9944,2.23734 2.9831,6.96076 4.4746,11.43543 4.4747,13.42402 -1e-4,1.82316 -0.3316,3.48045 -0.9944,4.97186 0.8286,-0.16558 1.3258,-0.74563 1.4916,-1.74015 0.1656,-0.99423 0.2485,-1.90573 0.2486,-2.73453 l 0.2486,0 c -1e-4,1.6e-4 0.0827,0.99453 0.2486,2.98312 l 0.2485,0 m -6.2148,-8.20357 c -0.4972,-1.32567 -1.3259,-3.31441 -2.4859,-5.96623 0.4971,0.66308 0.6628,1.65745 0.4972,2.98312 0.3314,0.66307 0.9943,1.65744 1.9887,2.98311 m -21.8762,-31.32271 c -0.1657,0.16592 -0.5801,0.24878 -1.2429,0.2486 -0.663,1.8e-4 -0.9944,0.33164 -0.9944,0.99437 l 0,-0.2486 c 0.1657,1.9e-4 0.4143,0.08306 0.7458,0.2486 l -1.7402,7.70638 c 0,0.66309 -0.4143,1.40887 -1.2429,2.23733 l -0.4972,-0.24859 0,0.49719 c -10e-5,-0.49701 0.4971,-0.08269 1.4915,1.24296 0,1.8e-4 0.4972,-3.23153 1.4916,-9.69512 0.8286,-0.99419 1.2429,-1.49137 1.243,-1.49156 l -0.2486,0.24859 c -0.1658,1.9e-4 -0.2487,-0.08268 -0.2486,-0.24859 -0.3315,-0.497 -0.2487,-0.82846 0.2486,-0.99437 0.6628,-0.16554 0.9943,-0.33127 0.9943,-0.49719 m 52.453197,41.26643 c -0.3316,-2.15432 -0.5802,-3.31442 -0.7458,-3.4803 -0.3316,-1.32568 -1.0774,-2.15432 -2.2374,-2.48593 l -1.4915,-1.49156 c -3.4804,-0.3313 -7.209297,0.99453 -11.186697,3.97749 -1.6574,0.33161 -3.9776,1.16025 -6.9606,2.48593 -1.1602,-0.16558 -2.1546,0.41447 -2.9831,1.74015 -0.8287,1.16024 -1.4917,1.90602 -1.9888,2.23734 -0.3315,0.3316 -1.4087,1.07737 -3.2317,2.23733 l 0,0.2486 c 1.3258,0.16586 3.2317,1.4e-4 5.7177,-0.49719 1.3257,-0.8285 1.9886,-1.24282 1.9887,-1.24297 0.8286,-0.49704 1.4086,-1.49141 1.7402,-2.98311 0.3313,-1.49141 0.9114,-2.48578 1.7401,-2.98312 -1e-4,1.5e-4 1.0772,-0.3313 3.2317,-0.99437 l 0.2486,0.2486 -0.9944,0.99437 c -1.6573,0.3316 -2.9003,0.99452 -3.7288,1.98874 0.497,1.4917 0.1656,2.9004 -0.9944,4.22608 -1.1602,1.16024 -2.3203,2.32034 -3.4803,3.4803 -1e-4,1.16024 -1e-4,1.82315 0,1.98875 0.1656,1.32596 -1e-4,3.14897 -0.4972,5.46904 0.3314,0.33159 0.4971,1.24309 0.4972,2.73452 1.9886,-1.65715 3.0659,-4.5574 3.2317,-8.70075 0.3314,-0.49705 0.6628,-1.32569 0.9944,-2.48593 0.1656,-0.16559 0.4142,-0.24845 0.7457,-0.24859 l 2.486,-2.48593 c 0.1656,-0.49705 0.0827,-1.07709 -0.2486,-1.74015 0.4971,-0.66277 1.3257,-1.74001 2.4859,-3.23171 0.1656,0.3316 -10e-5,0.74592 -0.4972,1.24296 -0.4973,0.49734 -0.7459,0.91166 -0.7458,1.24297 0.3314,1.32597 -1e-4,2.98326 -0.9943,4.97186 -0.8288,1.82315 -1.2431,3.23184 -1.243,4.22608 0.3314,0.33159 0.8286,0.74591 1.4916,1.24296 -1e-4,1.4e-4 0.7456,-0.16559 2.2373,-0.49718 0.6628,-1.15997 1.4915,-3.06585 2.4859,-5.71764 -0.4973,1.4e-4 -0.663,-0.41418 -0.4972,-1.24297 0.1657,-0.49704 0.6629,-1.07709 1.4916,-1.74015 0.1656,-0.16558 0.3314,-0.08272 0.4972,0.2486 -1e-4,0.99451 -0.4144,2.4032 -1.243,4.22608 -0.663,1.82315 -0.9945,3.3147 -0.9944,4.47467 0.1657,0.33159 1.16,0.66305 2.983197,0.99437 0.1656,1.3e-4 0.3313,-0.57992 0.4971,-1.74015 -1e-4,-0.66278 0.4143,-1.40856 1.243,-2.23734 0.8286,-0.8285 1.0771,-1.65714 0.7458,-2.48593 0.4971,-0.16558 1.2429,-0.16558 2.2373,0 -0.663,0.82879 -1.1602,1.24311 -1.4915,1.24297 -0.8288,2.81752 -1.2431,4.80626 -1.243,5.96623 l 1.4916,0.24859 1.4915,-0.99437 c 0.3314,-1.32569 1.0771,-3.06584 2.2374,-5.22045 l 0,-0.24859 c 1.3257,-0.16559 2.1543,-1.0771 2.4859,-2.73453 0.3313,-1.65714 0.6628,-3.1487 0.9944,-4.47467 M 83.726583,52.3977 c 0.4971,-4.14307 0.3314,-6.71186 -0.4971,-7.70638 l 0,1.24296 c -1e-4,1.6e-4 0.1656,2.15463 0.4971,6.46342 m -5.469,-3.7289 -0.7458,-6.46341 c -0.3315,-0.82849 -0.4972,-2.6515 -0.4972,-5.46905 l -0.4972,1.98875 c 0.3314,2.15463 0.9115,5.4692 1.7402,9.94371 m 32.317097,27.09663 0,-0.24859 -0.7458,0 0,0.24859 0.7458,0 m 8.7007,9.19794 -0.2486,-0.74578 -0.2486,0 0.4972,0.74578 M 70.302583,33.75323 c -0.663,-0.49702 -1.3259,-0.74561 -1.9887,-0.74578 -0.9945,0.33162 -1.3259,0.91167 -0.9944,1.74015 -1e-4,0.66308 0.58,0.91167 1.7402,0.74578 0.9943,-0.49702 1.4086,-1.07707 1.2429,-1.74015 m 45.989697,48.72421 -1.7401,-2.48593 c -1e-4,-0.33133 -0.1659,-0.82852 -0.4972,-1.49155 -0.3316,-0.16561 -0.5802,-0.6628 -0.7458,-1.49156 -1e-4,-0.16561 -0.4144,-0.33133 -1.243,-0.49719 -0.1658,-0.1656 -0.2487,-0.33133 -0.2486,-0.49718 -0.3315,-0.16561 -0.663,1.2e-4 -0.9943,0.49718 1.16,0.33158 2.1543,1.32595 2.9831,2.98312 0.9942,1.49168 1.8229,2.48605 2.4859,2.98311 m 10.1923,9.69513 0,0 m -17.4015,-17.6501 0,-0.24859 -0.7458,0 0.7458,0.24859 m -54.193197,-57.67356 -0.4972,0 c -0.9945,-0.16555 -2.0717,0.33164 -3.2317,1.49155 l 0.9943,0.99438 c 0.3314,0.49736 0.2486,1.32601 -0.2486,2.48593 1.1601,1.7e-4 1.9059,-0.66274 2.2374,-1.98875 0.3314,-1.98856 0.58,-2.98293 0.7458,-2.98311 m 0.4971,1.74015 c -0.4972,1.16028 -0.9944,2.81756 -1.4915,4.97186 0.1657,-0.16556 0.4143,-0.57988 0.7458,-1.24297 0.4971,-0.66273 0.7457,-1.9057 0.7457,-3.72889 m 69.606097,73.8321 c -0.1659,-0.82853 -1.2431,-2.48582 -3.2317,-4.97186 0.8285,0.99449 1.9057,2.65177 3.2317,4.97186 m -65.131397,-66.37431 -0.9944,0 c 0.1657,0.1659 0.3314,0.24876 0.4972,0.24859 0.1657,1.7e-4 0.3314,-0.08269 0.4972,-0.24859 m 43.503797,43.50376 -0.7458,0 c -1e-4,0.49732 0.0828,0.74591 0.2486,0.74578 -1e-4,1.3e-4 0.1656,-0.24846 0.4972,-0.74578 m 23.3677,24.11352 0,-0.2486 -0.4972,-0.49718 0.4972,0.74578 m 3.7289,4.723261 -0.7458,-1.74015 -0.7457,-0.99437 1.4915,2.73452 M 81.986483,55.13222 c 0.8286,-3.97734 0.4971,-8.03769 -0.9944,-12.18105 0.1657,2.65181 0.4971,6.71216 0.9944,12.18105 m -23.8649,-29.33397 -0.7458,-0.74578 0,0.74578 0.7458,0 m 21.6276,23.86492 c 0.8285,-2.15431 0.1656,-4.88883 -1.9888,-8.20356 0.3314,2.32036 0.9114,5.88352 1.7402,10.68949 -1e-4,-0.49703 0.0827,-1.32567 0.2486,-2.48593 m 43.503697,42.01221 c -0.1658,-0.6628 -0.4973,-1.15999 -0.9944,-1.49156 -1e-4,0.4973 0.3314,0.99449 0.9944,1.49156 m -18.6445,-18.64447 0,-0.99437 -0.7457,0 0.7457,0.99437 m 13.6727,15.16417 c -0.1659,-0.99426 -1.4089,-2.90013 -3.7289,-5.71764 -0.1659,-0.82852 -0.7459,-1.82289 -1.7402,-2.98311 l 0.2486,1.24296 c 0.9943,1.65741 2.7344,4.14333 5.2205,7.45779 m -4.4747,-4.72327 c -0.4973,-1.32571 -1.5745,-3.14872 -3.2317,-5.46904 0.4971,1.32595 1.5743,3.14896 3.2317,5.46904 m 10.4409,10.938091 c -1.326,-2.154361 -3.5633,-5.386061 -6.712,-9.695121 0.9942,2.32031 1.9057,4.30906 2.7345,5.96623 0.9943,0.33157 1.5743,0.82875 1.7402,1.49156 -0.1659,0.16583 -0.3316,0.2487 -0.4972,0.24859 0.6628,0.49729 1.5743,1.16021 2.7345,1.988741 M 56.381383,26.29544 l 0,-1.49156 c -0.3315,0.66309 -0.3315,1.16028 0,1.49156 m 69.108897,68.611651 c -2e-4,-0.16562 -0.1659,-0.41422 -0.4972,-0.745781 l -0.2486,0.497191 c 0.1656,0.16583 0.4142,0.2487 0.7458,0.24859 m -10.6895,-9.197941 c -0.9945,-1.65717 -2.5689,-3.97737 -4.7233,-6.9606 0.6628,1.82313 2.2372,4.14333 4.7233,6.9606 m 14.1698,13.672611 c -0.3316,-1.65718 -0.8288,-2.81728 -1.4916,-3.4803 l 0,0.74578 c -1.1602,1e-4 -1.4917,-0.08276 -0.9944,-0.24859 0.6628,0.66302 1.4915,1.65739 2.486,2.98311 m 1.4915,2.485929 c 0.1656,-0.49708 0.1656,-1.07713 0,-1.74015 -0.4973,-0.828539 -0.7459,-1.325729 -0.7458,-1.491559 -1e-4,1.1e-4 0.2485,1.07734 0.7458,3.231709 m -15.1642,-14.66698 -0.7457,-0.74578 c -1e-4,1.1e-4 -1.0774,-0.91139 -3.2317,-2.73452 -0.6631,-1.65717 -2.1546,-4.06023 -4.4747,-7.2092 0.4971,1.16023 1.4086,2.73465 2.7345,4.72327 0.3314,2.48604 2.2372,4.47479 5.7176,5.96623 m 17.4016,18.64447 c -2e-4,-0.82855 -0.3316,-2.07151 -0.9944,-3.72889 -0.4973,0.49728 -0.4973,1.16019 0,1.98874 0.3313,0.49728 0.6628,1.07733 0.9944,1.74015 M 53.149683,22.81514 c 0,1.8e-4 -0.3315,0.1659 -0.9944,0.49718 0,1.8e-4 -0.3315,-0.16555 -0.9943,-0.49718 -1e-4,1.8e-4 -0.1658,0.99455 -0.4972,2.98311 l 0.7458,0 c 0.6628,1.8e-4 1.0771,-0.33128 1.2429,-0.99437 0.1657,-0.66274 0.3314,-1.32565 0.4972,-1.98874 m 28.091,33.80864 -0.2486,-6.71201 c -0.1658,4.64055 -0.2487,7.04361 -0.2486,7.20919 l 0.4972,-0.49718 m 33.560097,32.81427 c -2e-4,1.1e-4 -1.906,-1.74004 -5.7177,-5.22046 -0.4973,-1.98862 -1.7402,-4.72314 -3.7289,-8.20356 0.6628,2.48605 2.1544,5.96635 4.4747,10.4409 0.9943,0.82876 2.6515,1.82313 4.9719,2.98312 M 98.890783,73.5281 l -1.9887,-3.7289 c -1e-4,-0.33132 -0.2487,-0.91137 -0.7458,-1.74015 0.4971,2.15461 1.4086,3.97762 2.7345,5.46905 m 11.683897,11.43527 c -0.1659,-0.6628 -0.663,-1.65717 -1.4916,-2.98311 -10e-5,0.66303 0.4971,1.6574 1.4916,2.98311 m 4.9718,3.97749 0,-0.24859 c -0.8287,-0.82853 -2.2374,-1.8229 -4.226,-2.98312 0.8285,0.99449 2.2372,2.07172 4.226,3.23171 m -13.1754,-9.94372 0,-2.48593 -5.220397,-7.70638 c 0.1656,0.16586 1.8229,3.14897 4.971797,8.94935 l 0.2486,1.24296 m 3.7289,4.97186 -0.7458,-2.23734 c -1e-4,-1.98862 -0.7459,-4.06022 -2.2373,-6.21482 -1.3259,-2.15434 -2.6518,-4.14309 -3.977497,-5.96623 l -0.7458,-0.24859 c 0.8286,0.82877 2.237297,2.90038 4.226097,6.21482 -1e-4,1.32595 0.4142,2.81751 1.243,4.47467 1.3257,2.32032 2.0715,3.64615 2.2373,3.97749 m 1.7402,0.99437 c -0.6631,-1.49144 -1.4088,-3.72877 -2.2374,-6.71201 -10e-5,1.82314 0.7457,4.06047 2.2374,6.71201 m -8.203597,-3.97748 c 0.1656,-1.98863 -0.3316,-4.22596 -1.4916,-6.71201 -0.9944,-1.98862 -1.9059,-3.97736 -2.7345,-5.96623 l -0.4972,0 4.7233,12.67824 m -1.7402,-2.73453 c -0.3315,-0.82852 -0.9116,-1.98862 -1.7401,-3.4803 l -1.7402,-5.71764 c -1e-4,-0.49705 -0.4144,-0.82851 -1.2429,-0.99437 l 1.9887,5.46905 c 0.6628,1.16022 1.5743,2.73464 2.7345,4.72326 m 10.440897,10.6895 c -3.4804,-1.8229 -5.6348,-4.22596 -6.4634,-7.2092 -0.1658,-2.15435 -0.9944,-4.55741 -2.485897,-7.20919 0.4971,0.82877 0.911397,2.81751 1.242997,5.96623 0.1656,2.48605 0.9942,4.2262 2.4859,5.22045 1.6572,0.82876 2.983,1.6574 3.9775,2.48593 0.4971,0.33157 0.9114,0.58016 1.2429,0.74578 m -29.831097,-31.32271 0,-2.98312 -0.7458,2.98312 0.7458,0 m 28.588197,29.08537 c -0.4973,-0.49707 -0.8288,-0.91139 -0.9944,-1.24296 -0.1658,-0.33134 -1.3259,-2.40295 -3.4803,-6.21483 -1e-4,1.32595 0.2485,2.90037 0.7458,4.72327 0.3313,0.99449 1.5743,1.90599 3.7289,2.73452 M 81.986483,57.86674 c -1.3259,-0.16558 -2.8175,0.24874 -4.4747,1.24297 l 4.4747,-1.24297 m 18.644497,27.59382 c -0.663097,-0.99426 -1.325997,-2.65154 -1.988797,-4.97186 -0.663,-0.49707 -1.243,-1.32571 -1.7401,-2.48593 -2.4861,-4.30882 -4.1433,-8.03771 -4.9719,-11.18668 -0.3315,-1.15997 -0.5801,-1.57429 -0.7458,-1.24297 l -0.2486,0 c 0.3314,1.16024 1.4086,4.39194 3.2317,9.69513 1.823,2.15459 3.9774,5.55203 6.463497,10.19231 m -1.740197,-1.74015 c -0.4973,-0.6628 -1.0773,-1.65717 -1.7401,-2.98312 -1.8232,-1.65716 -3.2318,-3.8945 -4.2261,-6.71201 -0.9945,-2.81725 -1.8231,-5.55177 -2.4859,-8.20356 -0.4973,1.16023 -0.4973,2.40319 0,3.72889 0.8285,2.1546 1.2428,3.39756 1.2429,3.72889 0.4971,1.49169 2.9002,4.97199 7.2092,10.44091 m -14.1698,-15.90995 c 0.1657,-0.82851 -0.0829,-1.90574 -0.7458,-3.23171 -0.663,-1.49142 -0.9944,-2.65152 -0.9943,-3.4803 l -0.2486,0 c 0.1656,1.65742 0.8285,3.89476 1.9887,6.71201 m -30.5769,-33.06286 -0.9944,0 c -0.4972,-0.33129 -0.663,-0.91134 -0.4972,-1.74015 -0.3315,1.7e-4 -0.6629,0.74594 -0.9943,2.23733 1.3257,0.33163 2.1544,0.1659 2.4859,-0.49718 m 36.5431,37.53753 -0.2485,-1.24296 -0.4972,-0.2486 0.7457,1.49156 m -39.2776,-40.02346 0,-0.24859 -0.2486,0 c -0.4973,0.33162 -0.663,0.58021 -0.4972,0.74577 0.4971,-0.33128 0.7457,-0.49701 0.7458,-0.49718 m 28.3396,29.08537 0,-0.74578 -0.2486,0 0,0.74578 0.2486,0 m -2.486,-4.97186 c -0.8287,0.99452 -2.1545,2.23748 -3.9775,3.7289 0,1.4e-4 0.3314,-0.08273 0.9944,-0.24859 0.1657,0.16586 0.2485,0.24873 0.2486,0.24859 -0.1658,0.16587 -0.3315,0.24873 -0.4972,0.24859 l 0.9944,0 c 0.6628,-0.16559 1.0771,-0.57991 1.243,-1.24296 -0.1659,0.16587 -0.4973,0.24873 -0.9944,0.24859 0.6628,-0.33132 1.3257,-1.32569 1.9887,-2.98312 m 2.9831,8.45216 c 0,-0.66277 -0.0829,-1.65714 -0.2486,-2.98311 -0.1658,0.82878 -0.0829,1.82315 0.2486,2.98311 m 3.7289,5.96623 c -0.4972,-1.82288 -1.1601,-4.64026 -1.9887,-8.45216 l -0.4972,-0.49718 c 0.8286,1.98888 1.5743,4.97199 2.2373,8.94934 l 0.2486,0 m -33.0628,-35.30019 c -10e-5,-0.49702 -0.2487,-1.07707 -0.7458,-1.74015 -0.3315,-0.49702 -0.5801,-0.16556 -0.7458,0.99437 0.4972,1.6e-4 0.9943,0.24876 1.4916,0.74578 m 31.8199,35.0516 c -0.3316,-1.65715 -0.9945,-4.30881 -1.9888,-7.95497 -1e-4,2.32033 0.6629,4.97199 1.9888,7.95497 m 15.6613,13.92121 c -1e-4,-0.16562 -0.4973,-0.6628 -1.4915,-1.49156 -1.326,-1.49144 -2.9832,-3.8945 -4.9719,-7.2092 l 1.4916,3.4803 c 0.9942,1.49168 2.6515,3.23183 4.9718,5.22046 m -3.7289,-2.48593 c -1.3259,-0.99425 -2.486,-2.81727 -3.4803,-5.46905 -0.9944,-2.81726 -1.6573,-4.64027 -1.9887,-5.46904 l -0.9944,0.99437 c 0.1657,0.9945 0.58,2.32033 1.243,3.97749 0.3313,2.81751 2.0715,4.80625 5.2204,5.96623 m -16.6557,-30.07975 -0.4972,-2.98311 c -0.9944,-2.48578 -1.5745,-6.13181 -1.7401,-10.93809 -0.8288,1.6e-4 -1.9889,-0.16557 -3.4803,-0.49719 -10e-5,1.6e-4 0.2485,-0.24843 0.7457,-0.74578 0,1.7e-4 0.9115,0.16589 2.7346,0.49719 l 0,-1.24297 c -0.4973,-0.16556 -1.1602,-0.82847 -1.9888,-1.98874 0.1657,1.7e-4 0.8286,1.7e-4 1.9888,0 -0.4973,-0.16556 -1.3259,-0.24843 -2.486,-0.24859 0,1.6e-4 -0.2486,0.33162 -0.7457,0.99437 l -0.4972,-0.49719 c 0.3314,1.7e-4 -1e-4,0.33163 -0.9944,0.99437 -1.4916,1.82318 -3.729,2.2375 -6.712,1.24297 -0.3315,-0.33129 -0.3315,-0.57989 0,-0.74578 0.6628,-0.33129 0.9943,-0.49702 0.9944,-0.49719 0.1656,0.1659 0.6628,0.24876 1.4915,0.2486 l -0.4972,-0.2486 c -0.1658,-0.66274 0.0828,-1.40852 0.7458,-2.23733 l -2.2373,0 c -1e-4,1.7e-4 -0.1658,0.66308 -0.4972,1.98874 -0.1658,1.7e-4 -0.4973,0.24876 -0.9944,0.74578 0.1657,1.7e-4 0.4143,0.16589 0.7458,0.49719 -0.3315,1.6e-4 -0.663,0.16589 -0.9944,0.49718 -0.4972,-0.33129 -0.5801,-0.74561 -0.2486,-1.24296 0.3314,-0.49702 0.4143,-0.91134 0.2486,-1.24297 -0.1658,0.1659 -0.5801,0.24876 -1.2429,0.2486 -10e-5,-0.3313 0.1656,-0.66275 0.4971,-0.99438 -0.1657,-0.16556 -0.4143,-0.08269 -0.7457,0.2486 -0.1658,0.16589 -0.4973,0.08303 -0.9944,-0.2486 -1e-4,1.7e-4 0.0828,-0.16556 0.2486,-0.49718 l -1.4916,0 c -0.1658,1.7e-4 -0.3315,-0.0827 -0.4972,-0.2486 0,-0.33128 -0.3315,-0.74561 -0.9943,-1.24296 -10e-5,1.7e-4 -0.7459,0.33163 -2.2374,0.99437 0,0.66308 0,0.99454 0,0.99437 0.3314,-0.16556 0.6629,-0.16556 0.9944,0 -0.1658,0.1659 -0.3315,0.41449 -0.4972,0.74578 -0.6629,1.7e-4 -1.0773,0.49735 -1.2429,1.49156 -10e-5,0.82881 -0.2487,1.32599 -0.7458,1.49156 0.1657,0.33162 0.2485,0.49735 0.2486,0.49718 -10e-5,0.1659 -0.3315,0.33162 -0.9944,0.49719 -0.4972,1.6e-4 -0.7458,0.16589 -0.7458,0.49719 0.6629,-0.3313 1.2429,-0.41416 1.7402,-0.2486 -0.1658,0.16589 -0.3315,0.33162 -0.4972,0.49719 -10e-5,0.16589 -0.7458,0.58021 -2.2373,1.24296 -0.3316,1.32599 -1.0773,3.23187 -2.2374,5.71764 l -2.2373,0 c -0.1658,1.6e-4 -0.3315,0.41448 -0.4972,1.24297 0.3314,1.5e-4 0.7457,0.16588 1.243,0.49718 -0.1658,0.16588 -0.1658,0.5802 0,1.24297 0.4971,0.3316 0.9943,0.49733 1.4915,0.49718 0.3314,1.5e-4 0.7457,-0.16558 1.243,-0.49718 0.9943,0.3316 1.8229,0.16588 2.4859,-0.49719 0.6629,-0.82849 1.2429,-1.57427 1.7402,-2.23734 0.8285,0.16589 1.5743,-0.24843 2.2373,-1.24296 0.6629,-1.15994 1.4086,-1.65713 2.2373,-1.49156 0.4972,0.8288 0.7458,1.24312 0.7458,1.24297 -0.8287,0.66307 -1.6573,0.82879 -2.4859,0.49718 -0.1658,0.33161 -0.4144,0.66307 -0.7458,0.99437 -0.1658,0.33162 -0.3315,0.66307 -0.4972,0.99438 0,0.33161 -0.0829,0.66306 -0.2486,0.99437 0,-0.49704 -0.0829,-1.07709 -0.2486,-1.74015 l -1.9887,2.23733 0.9944,0.74578 c 0.8285,0.16588 1.5743,-0.08271 2.2373,-0.74578 0.1657,1.6e-4 0.2485,0.08302 0.2486,0.2486 0.3314,1.5e-4 0.58,-0.16558 0.7458,-0.49719 0.4971,0.33161 2.1544,0.08302 4.9718,-0.74578 0.3314,-0.82849 1.0772,-2.07145 2.2374,-3.72889 1.6572,0.33161 3.8945,1.07739 6.712,2.23733 1.3257,1.49171 1.9058,3.149 1.7401,4.97186 -1e-4,0.66307 -0.4144,1.57457 -1.2429,2.73452 0.3313,-0.99422 0.4971,-2.6515 0.4971,-4.97185 -1.3259,-2.15432 -2.9003,-3.31442 -4.7232,-3.48031 -0.663,1.6e-4 -1.5745,-0.16557 -2.7345,-0.49718 -0.3316,1.49171 -1.1602,3.56332 -2.486,6.21482 -0.1658,0.16588 -0.8287,0.66307 -1.9887,1.49156 -0.9944,0.82879 -1.906,1.07738 -2.7345,0.74578 -10e-5,-0.33131 -0.083,-0.8285 -0.2486,-1.49156 -0.3315,-0.16558 -0.5801,-0.08271 -0.7458,0.24859 -0.1658,0.16588 -0.3315,0.33161 -0.4972,0.49719 -0.4972,-0.33131 -0.7458,-0.41417 -0.7458,-0.24859 -0.4972,-0.33131 -0.7458,-1.07709 -0.7458,-2.23734 l -0.4971,0 c -10e-5,0.16588 -0.083,0.41447 -0.2486,0.74578 -0.1658,1.49171 -0.083,2.40321 0.2486,2.73452 0.4971,0.82879 1.3257,1.32598 2.4859,1.49156 0.1657,0.82879 0.4971,1.90602 0.9944,3.23171 -1.9888,2.6518 -2.0717,5.55204 -0.2486,8.70075 2.1544,0.82878 4.0603,1.16023 5.7176,0.99437 2.8173,-2.32006 6.2976,-6.13182 10.4409,-11.43527 l 0.4972,0.49718 c -1e-4,0.16588 -1e-4,0.24874 0,0.2486 l 0,0 c 0.9943,-0.8285 2.0715,-2.65152 3.2317,-5.46905 m 7.2092,22.37337 0,-3.48031 c -0.1658,0.49732 -0.2487,1.07737 -0.2486,1.74016 -1e-4,0.66304 0.0828,1.24309 0.2486,1.74015 m -5.469,-7.70639 0,-2.23733 c -0.4973,-0.49705 -0.7459,-0.82851 -0.7458,-0.99437 -0.1658,0.66305 -0.2487,0.9945 -0.2486,0.99437 -0.663,0.33159 -1.0773,0.49732 -1.243,0.49718 0.9943,-1.49142 1.2429,-2.81724 0.7458,-3.97748 -0.3315,0.66305 -0.7459,1.65742 -1.243,2.98311 -0.3315,1.32597 -0.663,2.32034 -0.9943,2.98312 l 1.4915,2.48593 c -10e-5,-0.82851 -0.1658,-1.3257 -0.4972,-1.49156 -0.1658,-1.3257 0,-2.15434 0.4972,-2.48593 0.1657,1.16023 0.6629,2.90038 1.4916,5.22045 l 0,-3.72889 c 0.3314,-0.33133 0.5799,-0.41419 0.7458,-0.2486 m -32.8143,-33.56004 c -10e-5,-0.16556 -0.4144,-0.33129 -1.243,-0.49719 0,-0.16556 -0.1658,-0.41415 -0.4972,-0.74578 1.1601,-0.33128 1.7401,-0.49701 1.7402,-0.49718 -0.3315,-0.49702 -0.4972,-0.74561 -0.4972,-0.74578 -0.4972,0.1659 -1.1601,0.1659 -1.9887,0 l 0,0.74578 c -0.3315,1.7e-4 -0.8287,0.08303 -1.4916,0.24859 0.1657,0.66308 0.2485,0.99454 0.2486,0.99437 -1e-4,1.7e-4 -0.0829,1.7e-4 -0.2486,0 -0.1658,1.7e-4 -0.2486,-0.08269 -0.2486,-0.24859 0,0.1659 0.0828,0.58022 0.2486,1.24296 0,-0.16556 0.0828,-0.33129 0.2486,-0.49718 0.4971,0.33162 0.7457,0.99454 0.7458,1.98874 0.1657,1.7e-4 0.4971,-0.0827 0.9943,-0.24859 0,1.6e-4 0.0829,0.24876 0.2486,0.74578 0.3314,0.16589 0.4972,0.08303 0.4972,-0.2486 0.1657,-0.49702 0.3314,-0.74561 0.4972,-0.74577 -0.1658,1.6e-4 -0.3315,0.08303 -0.4972,0.24859 -0.3315,-0.33129 -0.2486,-0.66275 0.2486,-0.99437 0.6629,-0.49702 0.9943,-0.74561 0.9944,-0.74578 m 6.2148,3.4803 c -0.9944,1.6e-4 -2.3202,-0.41416 -3.9775,-1.24297 -0.3315,0.49736 -0.5801,0.74595 -0.7458,0.74578 -0.1657,-0.33129 -0.2486,-0.57988 -0.2485,-0.74578 0.1656,-0.16556 0.3314,-0.24842 0.4971,-0.24859 l 0,-1.24296 c -0.6629,0.33162 -0.9115,1.16026 -0.7457,2.48593 l 0.7457,0 c 0.3314,0.33162 0.0829,1.32599 -0.7457,2.98311 -0.3315,1.9889 0.0828,3.56332 1.2429,4.72327 0,1.5e-4 0.0828,-0.24844 0.2486,-0.74578 0.1657,-0.66276 0.4972,-1.4914 0.9944,-2.48593 0.4971,-0.99421 0.8286,-1.73999 0.9944,-2.23734 -0.4973,1.6e-4 -1.1602,0.08303 -1.9888,0.2486 0.1657,-0.3313 0.3314,-0.66276 0.4972,-0.99438 0.8286,1.7e-4 1.3258,-0.0827 1.4916,-0.24859 l -0.9944,0 c -0.1658,-0.16556 -0.3315,-0.41416 -0.4972,-0.74578 0.8286,0.16589 1.9058,0.08303 3.2317,-0.24859 m 22.1248,25.10789 c -0.4973,-0.49705 -1.0773,-0.57991 -1.7402,-0.2486 -0.8287,0.3316 -1.4916,0.49733 -1.9887,0.49719 l 0,0.24859 c 0.9943,1.4e-4 2.2372,-0.16559 3.7289,-0.49718 m 2.2373,-0.49719 -0.9944,0 c 0,0.16587 -0.6629,2.4032 -1.9887,6.71201 0.4971,0.33159 1.2429,1.16023 2.2373,2.48593 -0.3315,-0.82851 -0.8287,-1.57429 -1.4915,-2.23734 -0.1658,-1.15996 0.0828,-2.48579 0.7458,-3.97748 0.8285,-1.65715 1.3257,-2.65152 1.4915,-2.98312 m 2.7345,10.93809 c 0,-0.99424 -0.0829,-2.40293 -0.2486,-4.22608 -0.1658,0.9945 -0.0829,2.4032 0.2486,4.22608 m 15.6614,14.1698 c -0.3316,-1.32572 -1.4917,-2.56868 -3.4803,-3.7289 0.8285,0.82876 1.9886,2.07173 3.4803,3.7289 m -35.0516,-36.54317 c -0.3315,1.6e-4 -0.8287,0.16588 -1.4916,0.49719 0.4972,0.49734 0.8286,0.74593 0.9944,0.74578 -10e-5,1.5e-4 0.1657,-0.41417 0.4972,-1.24297 m 22.6219,28.3396 c -0.3315,-2.4858 -1.243,-6.04897 -2.7345,-10.6895 -1e-4,0.33159 0.0828,2.32034 0.2486,5.96623 0.1657,2.32033 0.9943,3.89475 2.4859,4.72327 m -12.4296,-15.66136 0,0 m -28.3396,-28.58818 c -0.3315,0.16589 -0.4972,0.41448 -0.4972,0.74578 0.3314,-0.16557 0.4972,-0.41416 0.4972,-0.74578 m 4.2261,2.98311 -1.7402,3.4803 0.7458,-1.24296 0.9944,-2.23734 m -0.4972,-1.24296 c -0.663,0.99453 -1.5745,2.56895 -2.7345,4.72326 1.16,-0.99421 2.0715,-2.56863 2.7345,-4.72326 m 24.8593,28.58819 c -0.3315,-0.1656 -0.8287,-0.08273 -1.4916,0.24859 0.3314,1.3e-4 0.8286,-0.08273 1.4916,-0.24859 m 2.2373,1.98874 c -0.3315,-0.16559 -0.7458,1.3e-4 -1.2429,0.49718 -0.3316,0.3316 -0.5802,0.49732 -0.7458,0.49719 l 1.7401,0 c 0.1657,-0.16559 0.2486,-0.49705 0.2486,-0.99437 m -0.7457,-1.74015 c -1.1602,0.16586 -2.6518,0.66305 -4.4747,1.49156 1.8229,-0.33133 3.3145,-0.82851 4.4747,-1.49156 m 12.6782,15.66135 0,-0.24859 -0.7458,-0.24859 0.7458,0.49718 m -39.5263,-39.52627 c -0.4972,1.16026 -0.7458,1.74031 -0.7458,1.74015 0.4972,-1.15994 0.7458,-1.73999 0.7458,-1.74015 m 24.8593,26.35085 c -0.3315,-0.1656 -0.7458,-0.08273 -1.243,0.24859 0,1.3e-4 0.4143,-0.08273 1.243,-0.24859 m 0.7458,-1.24297 c -1.1602,1.4e-4 -2.7346,0.49732 -4.7233,1.49156 1.1601,-0.33132 2.7345,-0.82851 4.7233,-1.49156 m -25.1079,-22.87055 c -0.4972,0.33162 -0.7458,0.91167 -0.7458,1.74015 l 0.7458,-1.74015 m 0.4972,0.74578 c -0.9944,1.49171 -1.4088,2.73468 -1.243,3.7289 l 1.243,-3.7289 m 3.9775,7.95498 c -0.3315,-0.66277 -0.8287,-0.5799 -1.4916,0.24859 0,0.49733 0.1657,1.24311 0.4972,2.23733 -0.1658,-0.66276 0,-1.15995 0.4972,-1.49155 -10e-5,1.5e-4 0.0828,0.49733 0.2486,1.49155 -1e-4,-0.16558 -1e-4,-0.33131 0,-0.49718 l 0.2486,-1.98874 m 0.7458,0 c -0.1658,1.32597 -0.3316,3.23185 -0.4972,5.71763 0.8286,-2.32005 0.9943,-4.22593 0.4972,-5.71763 m -18.3959,-13.67262 c -10e-5,-0.33129 -0.0829,-0.82848 -0.2486,-1.49155 -0.1658,0.33162 -0.0829,0.74594 0.2486,1.24296 -0.1658,1.6e-4 -0.2487,1.6e-4 -0.2486,0 l 0.2486,0.24859 m 21.6276,20.13603 c -0.3316,0.99452 -0.4973,1.4917 -0.4972,1.49156 0.3314,-0.99423 0.4971,-1.49142 0.4972,-1.49156 m -2.2374,-3.23171 c -0.6629,2.81753 -0.9944,4.22623 -0.9943,4.22608 0.6628,-1.65714 0.9943,-3.06583 0.9943,-4.22608 m 0.4972,0.99438 c -0.3315,0.99451 -0.8287,2.56893 -1.4915,4.72326 l 0.4971,2.98312 c 0.6629,-5.30318 0.9944,-7.87197 0.9944,-7.70638 m 0.4972,3.72889 -0.7458,2.98311 0.7458,-1.24296 0,-1.74015 m 1.9887,-1.49156 c -0.4972,2.15461 -1.243,5.22059 -2.2373,9.19794 0.6629,-0.82851 1.4086,-3.89448 2.2373,-9.19794 m -26.848,-20.13603 0,-0.24859 c -0.3315,-0.33129 -0.5801,-0.49702 -0.7458,-0.49719 l 0.7458,0.74578 m 24.8593,25.10789 c -0.1658,1.32597 -0.2487,1.98888 -0.2486,1.98874 0.1657,-1.32569 0.2485,-1.9886 0.2486,-1.98874 m -17.1529,5.46905 -0.2486,0 -0.2486,0.74577 0.4972,-0.74577 m -1.7402,-0.49719 -0.2486,-0.49719 c -0.3315,0.16587 -0.9115,1.07737 -1.7401,2.73453 0.4971,-0.49706 1.1601,-1.24284 1.9887,-2.23734 m -0.4972,2.73452 c -0.4972,-0.1656 -0.9115,0.16586 -1.2429,0.99437 l 1.2429,-0.99437 m -5.9662,-5.46904 -0.4972,0 c -0.6629,0.49732 -1.6573,1.2431 -2.9831,2.23733 1.4915,-0.66278 2.6516,-1.40855 3.4803,-2.23733 m 3.2317,7.20919 -1.2429,1.24297 0.7457,-0.49719 0.4972,-0.74578 m -4.7232,-5.22045 c -0.8287,0.66305 -2.0717,1.57455 -3.7289,2.73452 -10e-5,1.3e-4 0.0828,-0.24846 0.2486,-0.74578 -0.663,0.16586 -1.4088,0.66305 -2.2374,1.49156 0.9944,-0.1656 1.4087,-0.24846 1.243,-0.24859 l -0.2486,0.24859 c 0.3314,1.3e-4 1.9058,-1.15997 4.7233,-3.4803 m -1.243,-2.48593 c -0.1658,1.4e-4 -1.0773,0.41446 -2.7345,1.24297 -0.9944,0.33159 -1.4916,0.49732 -1.4916,0.49718 0.6629,-0.16559 1.4087,-0.74564 2.2373,-1.74015 -0.3314,0.49732 -1.7401,1.16024 -4.226,1.98874 0.3314,-0.16559 0.7457,-0.08273 1.2429,0.2486 -0.6629,0.16586 -2.0716,0.58018 -4.226,1.24296 3.3145,0.66305 6.3805,-0.49705 9.1979,-3.4803 m 3.9775,9.69513 c -0.663,0.66304 -0.9944,0.99449 -0.9944,0.99437 l 0.9944,-0.99437 m 2.4859,-4.97186 c -3.8118,3.3147 -7.1263,5.80062 -9.9437,7.45779 0.1657,1.2e-4 2.6516,-1.24284 7.4578,-3.7289 0,-0.49706 0.4143,-1.07711 1.2429,-1.74015 0.8287,-0.66278 1.243,-1.3257 1.243,-1.98874 m -4.9718,2.98311 -1.243,1.24297 0.4972,0 0.7458,-1.24297 m 3.9774,-6.71201 -0.4971,0 -4.9719,5.22045 -7.2092,3.48031 -1.243,1.74015 6.4634,-3.23171 c 1.9888,-1.3257 4.4747,-3.72876 7.4578,-7.2092 m 0.7458,0.99437 c -1.4916,0.99451 -3.5632,2.81752 -6.2148,5.46905 -3.6461,1.82314 -6.3806,3.48043 -8.2036,4.97186 1.3258,-0.66279 2.7345,-1.07711 4.2261,-1.24297 4.9718,-3.6459 8.3693,-6.71187 10.1923,-9.19794 m -3.4803,0.2486 c -1.4916,1.98887 -4.9719,4.14334 -10.4409,6.46341 l -0.4972,0.74578 c 1.9888,-0.82851 4.0604,-1.74002 6.2148,-2.73452 2.1545,-1.15997 3.7289,-2.65153 4.7233,-4.47467 m 1.9888,11.18668 c -0.3315,1.2e-4 -0.9116,0.16585 -1.7402,0.49719 0.3314,1.2e-4 0.9115,-0.16561 1.7402,-0.49719 m 5.9662,-8.20357 c -2.486,2.32033 -6.3806,5.05485 -11.6839,8.20357 l -0.2486,-0.24859 c 0.1657,-0.16561 0.4972,-0.4142 0.9944,-0.74578 0,1.2e-4 -1.243,0.58017 -3.7289,1.74015 0.8286,-0.16561 1.2429,-0.24847 1.243,-0.24859 -0.1658,0.16585 -0.9944,0.58017 -2.486,1.24296 -0.6629,0.33158 -1.1601,0.99449 -1.4915,1.98874 -0.3315,0.99449 -0.6629,1.65741 -0.9944,1.98875 1.4916,-2.32008 4.6404,-4.30883 9.4465,-5.96623 1.823,-0.66279 4.8061,-3.31445 8.9494,-7.95498 m -10.6895,6.21483 c -0.3315,0.16585 -0.6629,0.24871 -0.9944,0.24859 0.1657,1.2e-4 0.4972,-0.08274 0.9944,-0.24859 m 12.6782,-6.71201 c -0.3315,-0.1656 -0.4972,-0.24846 -0.4972,-0.2486 l -5.7176,5.96623 c -1.1601,1.16023 -2.8174,2.32033 -4.9718,3.48031 -2.8175,1.32595 -4.6405,2.32032 -5.4691,2.98311 -0.8287,0.49731 -2.7345,2.56891 -5.7176,6.21482 1.1601,-0.33134 2.2373,-1.32571 3.2317,-2.98311 1.1601,-1.65717 1.9058,-2.65154 2.2373,-2.98312 2.4859,-1.3257 6.1319,-3.31445 10.9381,-5.96623 1.4915,-1.3257 3.4803,-3.48017 5.9662,-6.46341 m -14.9155,5.71763 c -0.3315,0.16586 -0.4144,0.41445 -0.2486,0.74578 0.1657,-0.1656 0.2485,-0.41419 0.2486,-0.74578 m 2.4859,5.46905 c -0.4972,0.49731 -1.243,1.16022 -2.2374,1.98874 0.4972,-0.49706 1.243,-1.15998 2.2374,-1.98874 m -3.9775,-2.73452 c -0.8287,-0.33134 -1.823,0.08298 -2.9831,1.24296 0.6629,-0.49706 1.6572,-0.91138 2.9831,-1.24296 m -3.9775,0.24859 c -0.8286,1.2e-4 -1.6573,0.49731 -2.4859,1.49156 0.3314,-0.33134 1.1601,-0.82852 2.4859,-1.49156 m 5.7176,3.23171 c -1.4915,0.82876 -2.9831,2.8175 -4.4746,5.96623 0,1.1e-4 0.4971,-0.49707 1.4915,-1.49156 0,-0.6628 0.4143,-1.40858 1.243,-2.23734 0.9943,-0.99425 1.5744,-1.74003 1.7401,-2.23733 m 112.612697,52.45311 -1.7402,-14.91558 -3.7289,-12.42964 -6.712,-11.683869 c -1.1602,-0.662811 -2.9004,-1.740051 -5.2205,-3.231711 -1e-4,0.33157 -0.0829,0.66302 -0.2485,0.99437 -0.1659,-0.33135 -0.4974,-0.6628 -0.9944,-0.99437 -1.1602,-0.49708 -2.8175,-1.15999 -4.9719,-1.98874 l -4.4747,-3.97749 c 0.6629,1.16021 1.7401,2.73463 3.2318,4.72326 0.1656,0.16584 0.497,0.41444 0.9943,0.74578 0.6628,0.16584 0.8286,0.4973 0.4972,0.99437 -0.8287,1.1e-4 -1.3259,-0.08275 -1.4915,-0.24859 -2e-4,-0.16562 -1.2431,-0.9114 -3.7289,-2.23733 -10e-5,1.1e-4 -1.9889,-1.32572 -5.9663,-3.97749 -0.3315,0.82876 -0.1658,1.74026 0.4972,2.73452 0.8286,0.99448 1.2429,1.57453 1.243,1.74015 l -0.2486,0 c -10e-5,1.1e-4 -1.1602,-1.49144 -3.480297,-4.47467 l -0.2486,0 c -0.1658,0.16584 -0.083,0.4973 0.2486,0.99437 -0.663,-0.49707 -1.6574,-0.82853 -2.9831,-0.99437 -0.1659,0.4973 -0.083,1.07735 0.2486,1.74015 0.3313,0.66303 0.4971,1.07735 0.4972,1.24296 l 0,0.2486 c -0.6631,-0.82853 -1.5746,-1.98863 -2.7346,-3.4803 -3.4804,-2.48582 -5.552,-4.80601 -6.2148,-6.96061 0.1656,-0.1656 0.2485,-0.24847 0.2486,-0.24859 0.1656,0.66304 0.9114,1.65741 2.2373,2.98312 -0.4972,-1.8229 -1.5745,-4.47455 -3.2317,-7.95498 -1e-4,0.82877 0.1657,2.07173 0.4972,3.7289 0.3314,0.33158 0.4971,0.7459 0.4972,1.24296 -10e-5,1.2e-4 -0.3315,-0.57993 -0.9944,-1.74015 -0.1658,1.98887 0.58,3.89474 2.2374,5.71764 1.8229,1.6574 3.563,3.23182 5.2204,4.72326 l -0.2486,0.2486 c -2.486,-1.15999 -5.9663,-3.31446 -10.4409,-6.46342 l -3.7289,-4.22608 c -1e-4,-1.3257 -0.7458,-2.81726 -2.2373,-4.47467 -1.8231,-0.1656 -3.2318,-1.3257 -4.2261,-3.4803 l -7.7064,0 c -3.1489,0.9945 -5.3033,1.24309 -6.4634,0.74577 -0.3315,1.4e-4 -0.7458,-0.24846 -1.243,-0.74577 -2.8174,0.33158 -6.712,1.24309 -11.6838,2.73452 -2.6517,0.49731 -5.6348,1.82314 -8.9494,3.97748 -2.6517,1.65742 -5.3033,3.48043 -7.9549,5.46905 -2.6517,1.82313 -6.4635,5.1377 -11.4353,9.94372 -0.4972,1.32594 -1.7402,2.90036 -3.7289,4.723261 -1.9888,2.98322 -5.0547,9.695219 -9.1978997,20.136029 -0.4972,3.31466 -1.0773,6.62923 -1.7402,9.94372 -0.6629,3.97756 -0.8286,7.45786 -0.4972,10.4409 -0.1657,6.62921 2.4859,16.24146 7.9549997,28.83678 1.4915,2.48597 4.5575,6.71204 9.1979,12.67824 2.3202,2.98314 8.9493,7.95499 19.8875,14.91558 -1e-4,1e-5 5.3032,1.65729 15.9099,4.97186 6.7948,0.99437 12.3467,1.40869 16.6557,1.24296 3.1488,-0.16572 7.7063,-0.82864 13.6726,-1.98874 5.9662,-1.16009 12.0981,-3.81175 18.395897,-7.95497 6.7948,-3.48029 14.2526,-11.18666 22.3734,-23.11915 6.2975,-14.08688 9.1149,-24.61064 8.4522,-31.5713 M 19.341083,79.49433 c -0.663,0.33158 -1.3259,1.24308 -1.9888,2.73452 -0.4972,1.49167 -0.7458,2.23745 -0.7458,2.23734 0.4972,-1.49144 1.4087,-3.14873 2.7346,-4.97186 m 67.3687,-53.19889 c -0.663,-0.82847 -1.8231,-1.65711 -3.4803,-2.48593 l -0.4972,-0.49719 c 1.9886,0.49737 3.3145,1.49174 3.9775,2.98312 m -5.2205,-3.23171 -0.4972,-0.49719 c 0.1657,1.8e-4 0.3314,0.08305 0.4972,0.2486 l 0,0.24859 m -1.7401,-0.99437 c -0.1659,0.49736 -0.663,0.49736 -1.4916,0 l 1.4916,0 m -4.9719,-0.99437 c -1e-4,0.1659 -1e-4,0.33163 0,0.49718 l -2.4859,-0.74578 c 0.4971,1.8e-4 1.3257,0.08305 2.4859,0.2486 m -14.4184,-1.74015 c -10e-5,0.16591 -10e-5,0.33163 0,0.49718 -0.1658,1.8e-4 -0.3315,-0.08268 -0.4972,-0.24859 0.1657,-0.16555 0.3314,-0.24841 0.4972,-0.24859 m 8.9494,14.66698 c -1e-4,0.16589 -0.083,0.41449 -0.2486,0.74578 -1e-4,1.6e-4 -0.2487,-0.24843 -0.7458,-0.74578 -1e-4,-0.16556 0.0828,-0.33129 0.2486,-0.49719 0.4971,1.7e-4 0.7457,0.1659 0.7458,0.49719 m 5.2204,5.96623 c -1e-4,1.6e-4 -0.0829,0.41448 -0.2486,1.24296 -1.3259,0.16589 -2.0717,-0.16556 -2.2373,-0.99437 -1e-4,1.6e-4 0.2485,-0.41416 0.7458,-1.24296 0.3313,1.6e-4 0.7457,0.16589 1.2429,0.49718 -0.3315,0.33162 -0.5801,0.66308 -0.7458,0.99438 0.1657,0.16588 0.3314,0.24875 0.4972,0.24859 -1e-4,-0.3313 0.2485,-0.57989 0.7458,-0.74578 m -3.7289,-2.73452 -0.9944,0.74578 -0.2486,0 1.243,-0.74578 m -2.2373,0.74578 c -0.8287,1.6e-4 -1.9888,0.24875 -3.4803,0.74578 -1e-4,1.6e-4 0.1656,0.08302 0.4972,0.24859 -0.3316,0.33162 -0.7459,0.33162 -1.243,0 -0.4973,-0.16557 -0.9944,-0.66275 -1.4916,-1.49156 0.4972,-0.16556 1.1601,1.6e-4 1.9888,0.49719 l 3.7289,0 m -6.9606,-2.98312 c -1e-4,1.7e-4 -0.1658,0.1659 -0.4972,0.49719 l 0,0 c -0.1658,-0.16557 -1e-4,-0.33129 0.4972,-0.49719 m -0.4972,-0.74578 c -0.1658,0.49735 -0.4973,0.99454 -0.9944,1.49156 -0.1658,-0.33129 0.1657,-0.82848 0.9944,-1.49156 m -3.7289,-0.74578 -0.4972,0 0.2486,-0.49718 c 0.1657,0.16589 0.2485,0.33162 0.2486,0.49718 m 13.9212,15.16417 c -0.663,-1.32567 -1.5745,-2.23718 -2.7345,-2.73452 0.4971,1.6e-4 1.4086,0.91166 2.7345,2.73452 m -14.4184,-14.66698 c -10e-5,0.16589 -0.0829,0.41449 -0.2486,0.74578 l -0.2486,0 c 0.1657,-0.49702 0.3314,-0.74561 0.4972,-0.74578 m 4.4747,4.97186 c -10e-5,0.16589 -0.0829,0.33162 -0.2486,0.49718 l 0,0 c -1e-4,-0.16556 0.0828,-0.33129 0.2486,-0.49718 m 3.4803,4.97186 c -0.8287,-0.49703 -1.906,-0.49703 -3.2317,0 -0.1658,0.16588 -0.3315,0.16588 -0.4972,0 0.1657,1.5e-4 0.3314,-0.3313 0.4972,-0.99437 0.3314,1.5e-4 0.4142,-0.91135 0.2486,-2.73453 -0.1658,-0.33129 -0.2487,-0.49702 -0.2486,-0.49718 l 0.4972,-0.49719 c 0.4971,0.99453 1.4086,2.56895 2.7345,4.72327 m -4.4747,-4.72327 c -10e-5,0.16589 -10e-5,0.33162 0,0.49719 -0.1658,1.6e-4 -0.3315,-0.08271 -0.4972,-0.2486 0.1657,-0.16556 0.3314,-0.24843 0.4972,-0.24859 m 4.4747,12.92683 c -0.1658,0.33161 -0.4144,0.74593 -0.7458,1.24297 l -0.7458,-0.49719 0.7458,-0.24859 -0.2486,-0.49719 0.9944,0 m -19.3903,-18.64447 c 0,0.1659 -0.1657,0.33163 -0.4972,0.49719 -0.1657,0.16589 -0.3315,0.16589 -0.4971,0 -10e-5,-0.16556 0.3314,-0.33129 0.9943,-0.49719 m 12.6783,14.1698 c -0.1658,-0.16557 -0.3315,-0.24844 -0.4972,-0.24859 -0.1658,0.16588 -0.3315,0.24874 -0.4972,0.24859 0.1657,1.5e-4 0.3314,1.5e-4 0.4972,0 0.3314,-0.16557 0.4971,-0.3313 0.4972,-0.49718 -1e-4,1.5e-4 -1e-4,0.16588 0,0.49718 m 4.9718,5.96623 -0.2486,-0.24859 c 0,1.5e-4 0.0828,1.5e-4 0.2486,0 l 0,0.24859 m -0.4972,0.24859 c 0,0.33161 0,0.49734 0,0.49719 -0.3315,0.16588 -0.6629,1.5e-4 -0.9943,-0.49719 0.3314,1.5e-4 0.6628,1.5e-4 0.9943,0 m -0.7457,0.99438 c -0.3316,0.16587 -0.5801,1.4e-4 -0.7458,-0.49719 -1e-4,1.5e-4 0.2485,0.16588 0.7458,0.49719 l 0,0 m -0.9944,0.24859 -0.2486,0.24859 c -0.3315,1.5e-4 -0.663,-0.24844 -0.9944,-0.74578 0.3314,1.5e-4 0.7457,0.16588 1.243,0.49719 m -11.6839,-7.70638 c 0,1.5e-4 -0.0829,0.16588 -0.2486,0.49718 l -0.2486,0 c 0,-0.49703 0.1657,-0.66276 0.4972,-0.49718 m 12.4297,18.39588 c -0.3315,0.49732 -0.4973,0.74591 -0.4972,0.74577 -0.1658,1.4e-4 -0.7459,1.4e-4 -1.7402,0 -0.4972,-0.16559 -0.6629,-0.91137 -0.4972,-2.23733 0,0.49732 0.3314,0.91164 0.9944,1.24296 -0.1658,0.3316 0.1657,0.49732 0.9944,0.49719 0.4971,-0.33132 0.6628,-0.49705 0.4972,-0.49719 0.1656,1.4e-4 0.2485,0.083 0.2486,0.2486"
       id="text1343"
       inkscape:connector-curvature="0" />
  </g>
</svg>
