<?xml version="1.0" encoding="UTF-8" standalone="no"?>
<!-- Created with Inkscape (http://www.inkscape.org/) -->
<svg
   xmlns:dc="http://purl.org/dc/elements/1.1/"
   xmlns:cc="http://web.resource.org/cc/"
   xmlns:rdf="http://www.w3.org/1999/02/22-rdf-syntax-ns#"
   xmlns:svg="http://www.w3.org/2000/svg"
   xmlns="http://www.w3.org/2000/svg"
   xmlns:sodipodi="http://inkscape.sourceforge.net/DTD/sodipodi-0.dtd"
   xmlns:inkscape="http://www.inkscape.org/namespaces/inkscape"
   width="112pt"
   height="161pt"
   id="svg26573"
   sodipodi:version="0.32"
   inkscape:version="0.43"
   version="1.0"
   sodipodi:docbase="C:\foo\wikipedia\transfer"
   sodipodi:docname="witch_and_ball.svg">
  <defs
     id="defs26575" />
  <sodipodi:namedview
     id="base"
     pagecolor="#ffffff"
     bordercolor="#666666"
     borderopacity="1.0"
     inkscape:pageopacity="0.0"
     inkscape:pageshadow="2"
     inkscape:zoom="2.5942489"
     inkscape:cx="69.588316"
     inkscape:cy="102.88416"
     inkscape:document-units="px"
     inkscape:current-layer="layer1"
     inkscape:window-width="1024"
     inkscape:window-height="721"
     inkscape:window-x="-4"
     inkscape:window-y="-4" />
  <metadata
     id="metadata26578">
    <rdf:RDF>
      <cc:Work
         rdf:about="">
        <dc:format>image/svg+xml</dc:format>
        <dc:type
           rdf:resource="http://purl.org/dc/dcmitype/StillImage" />
        <cc:license
           rdf:resource="http://web.resource.org/cc/PublicDomain" />
      </cc:Work>
      <cc:License
         rdf:about="http://web.resource.org/cc/PublicDomain">
        <cc:permits
           rdf:resource="http://web.resource.org/cc/Reproduction" />
        <cc:permits
           rdf:resource="http://web.resource.org/cc/Distribution" />
        <cc:permits
           rdf:resource="http://web.resource.org/cc/DerivativeWorks" />
      </cc:License>
    </rdf:RDF>
  </metadata>
  <g
     inkscape:label="Layer 1"
     inkscape:groupmode="layer"
     id="layer1">
    <path
       style="font-size:248.59294128px;font-style:normal;font-weight:normal;line-height:125%;fill:#000000;fill-opacity:1;stroke:none;stroke-width:1px;stroke-linecap:butt;stroke-linejoin:miter;stroke-opacity:1;font-family:Bitstream Vera Sans"
       d="M 103.61408,5.6622203 C 103.61398,5.8281503 103.53108,5.9938803 103.36548,6.1594103 C 103.36538,6.1596003 103.28248,6.0767403 103.11688,5.9108203 C 103.28248,5.7452803 103.44818,5.6624203 103.61408,5.6622203 M 104.60838,9.1425303 C 104.60828,9.1427203 104.60828,9.2255803 104.60838,9.3911203 C 104.44258,9.3913103 104.27688,9.3913103 104.11128,9.3911203 C 104.27688,9.2255803 104.44258,9.1427203 104.60838,9.1425303 M 102.61968,11.62845 C 102.61958,11.79437 102.53668,11.9601 102.37108,12.12564 C 102.20528,12.12583 102.03958,12.04297 101.87388,11.87705 C 102.03958,11.71151 102.28808,11.62864 102.61968,11.62845 M 89.195683,10.88268 C 89.029883,10.55141 88.781283,10.46854 88.449883,10.63408 L 88.698483,10.1369 L 89.195683,10.88268 M 91.930183,11.62845 C 91.598683,11.79437 91.432883,12.29156 91.432983,13.12001 L 89.692883,13.36861 L 89.692883,14.61157 C 89.692783,14.61176 89.527083,14.52889 89.195683,14.36298 C 89.195583,14.03171 89.195583,13.61739 89.195683,13.12001 C 89.527083,13.28593 89.195583,13.45166 88.201283,13.6172 C 88.201183,13.61739 88.366983,13.45166 88.698483,13.12001 L 88.698483,11.87705 C 88.864083,12.04297 89.112683,12.12583 89.444283,12.12564 C 89.775583,11.62864 89.775583,11.38005 89.444283,11.37986 C 89.775583,11.87724 90.272783,11.9601 90.935783,11.62845 C 90.769983,11.46292 90.687183,11.46292 90.687183,11.62845 C 90.687183,11.46292 90.687183,11.38005 90.687183,11.37986 C 90.687183,11.38005 91.101483,11.46292 91.930183,11.62845 M 90.935783,13.86579 C 90.935683,14.03171 90.769983,14.2803 90.438683,14.61157 L 90.438683,13.36861 C 90.438583,13.53452 90.604283,13.70025 90.935783,13.86579 M 88.201283,15.85453 L 87.704083,15.35735 C 87.869783,15.35753 88.035483,15.4404 88.201283,15.60594 L 88.201283,15.85453 M 83.229483,15.10876 C 83.229383,15.10894 83.146483,15.19181 82.980883,15.35735 C 82.815083,15.35753 82.649283,15.35753 82.483683,15.35735 C 82.649283,15.19181 82.897883,15.10894 83.229483,15.10876 M 83.229483,16.10313 C 83.229383,16.26904 83.146483,16.43477 82.980883,16.60031 C 82.815083,16.6005 82.649283,16.51763 82.483683,16.35172 C 82.649283,16.18618 82.897883,16.10331 83.229483,16.10313 M 71.048383,29.77574 L 70.053983,28.78137 C 70.053983,28.94727 70.219683,29.113 70.551183,29.27855 C 70.882583,29.27873 71.048283,29.44445 71.048383,29.77574 M 61.601883,30.02433 C 61.601783,30.0245 61.518883,30.10737 61.353283,30.27293 C 61.353183,30.2731 61.270383,30.2731 61.104683,30.27293 C 61.104583,30.10737 61.270383,30.0245 61.601883,30.02433 M 38.234083,39.22227 C 38.234083,39.55389 38.151183,39.71962 37.985483,39.71946 L 37.488383,39.71946 C 37.653983,39.0567 37.902583,38.89098 38.234083,39.22227 M 23.815683,31.2673 C 23.815683,31.4332 23.732883,31.59892 23.567083,31.76448 L 23.318583,31.76448 C 23.484283,31.59892 23.649983,31.4332 23.815683,31.2673 M 46.437683,60.35267 L 45.691883,59.3583 C 45.691883,59.35844 45.940483,59.60703 46.437683,60.10408 L 46.437683,60.35267 M 45.194683,59.3583 L 43.454583,58.36393 C 43.620283,58.36407 43.620283,58.11548 43.454583,57.61815 C 43.785983,57.78402 44.200283,58.03261 44.697483,58.36393 L 44.448983,58.86111 C 44.448883,58.86126 44.697483,59.02698 45.194683,59.3583 L 45.194683,59.3583 M 43.205983,57.12096 L 39.974283,57.12096 C 41.300083,56.78965 42.294383,56.78965 42.957383,57.12096 L 43.205983,57.12096 M 33.759483,48.9174 C 33.262183,49.74619 32.765083,50.16051 32.267883,50.16036 C 31.770683,50.16051 31.024883,49.82905 30.030583,49.16599 C 29.036183,48.3375 28.290383,47.92318 27.793183,47.92302 L 25.555883,47.42584 C 25.224383,46.59735 24.312883,45.85157 22.821383,45.1885 C 21.329783,44.36002 20.418283,43.44851 20.086783,42.45398 L 19.092483,42.70257 C 19.423883,42.20555 19.589583,41.87409 19.589683,41.7082 L 18.098083,40.21664 C 18.595283,40.54826 19.838183,41.87409 21.826983,44.19413 L 24.810083,46.18287 L 25.058683,46.18287 C 24.561483,44.02856 23.649983,40.87972 22.324183,36.73634 L 22.324183,34.25041 C 22.821283,34.58204 23.318483,35.24495 23.815683,36.23916 L 25.804483,37.73071 C 24.975783,37.56515 24.147183,36.90223 23.318583,35.74197 L 23.069983,35.24478 L 22.821383,35.49338 C 22.821283,36.9851 23.318483,38.80811 24.312883,40.96242 C 25.307283,43.11705 25.887283,44.77434 26.053083,45.93428 C 26.550183,46.43162 28.621783,47.67458 32.267883,49.66317 C 32.599283,49.16614 33.096483,48.91755 33.759483,48.9174 M 39.725683,56.12659 C 39.062683,56.29246 38.068383,56.70679 36.742583,57.36956 C 38.399783,56.54106 39.394183,56.12674 39.725683,56.12659 M 43.951783,65.57312 L 43.454583,65.82172 C 43.454483,65.82185 43.371683,65.57326 43.205983,65.07594 L 43.703183,64.57875 C 43.703083,64.74462 43.785983,65.07607 43.951783,65.57312 M 35.996783,57.36956 C 35.333783,57.86688 34.836683,58.11548 34.505183,58.11533 C 34.836683,57.94975 35.333783,57.70116 35.996783,57.36956 M 25.555883,48.17162 C 25.555883,48.17177 25.390083,48.42036 25.058683,48.9174 L 25.058683,48.9174 C 24.892983,48.58609 25.058683,48.3375 25.555883,48.17162 M 16.109383,39.47086 C 15.943583,39.47103 15.612183,39.55389 15.114983,39.71946 C 14.949183,39.55389 14.949183,39.38816 15.114983,39.22227 C 15.777883,39.38816 16.109283,39.47103 16.109383,39.47086 M 35.250983,56.87237 C 34.588083,57.53543 33.510783,58.03261 32.019283,58.36393 L 35.250983,56.87237 M 14.866383,38.97368 C 14.534883,38.80811 14.120583,38.72525 13.623383,38.72509 C 13.457683,38.55952 13.457683,38.31093 13.623383,37.97931 C 13.954883,37.97947 14.369183,38.31093 14.866383,38.97368 M 13.871983,39.96805 L 13.623383,38.97368 C 13.623383,39.3053 13.706283,39.63675 13.871983,39.96805 M 29.533383,57.36956 C 29.036183,58.19834 28.787583,58.86126 28.787583,59.3583 C 26.798783,59.52417 25.555883,59.35844 25.058683,58.86111 C 24.229983,58.86126 23.567083,59.02698 23.069983,59.3583 L 22.572783,58.86111 L 21.329783,59.85549 C 21.329783,59.85563 21.661183,59.35844 22.324183,58.36393 C 22.324183,58.36407 21.826983,58.11548 20.832583,57.61815 L 20.832583,57.36956 C 23.815683,58.69553 26.053083,59.10985 27.544583,58.61252 C 27.544583,58.61266 25.638683,57.78402 21.826983,56.12659 C 18.512383,53.80654 16.606483,51.73493 16.109383,49.91177 C 15.612183,49.41473 15.114983,48.58609 14.617783,47.42584 L 15.114983,46.92865 C 15.280683,47.59172 15.860783,48.00604 16.855083,48.17162 C 17.849483,48.17177 18.429483,48.25463 18.595283,48.42021 L 18.843883,48.42021 L 14.369183,41.45961 C 14.369183,41.12831 14.203483,40.71399 13.871983,40.21664 L 14.369183,40.71383 L 14.866383,40.21664 C 15.197783,40.87972 15.446383,41.79122 15.612183,42.95117 C 17.435183,44.77434 18.678083,46.26589 19.341083,47.42584 C 20.998283,48.25463 23.235683,49.91192 26.053083,52.3977 C 26.218783,52.39785 27.378883,52.56357 29.533383,52.89488 C 29.533383,53.22649 29.450483,53.39222 29.284783,53.39207 C 28.290383,53.06076 26.798783,52.7293 24.810083,52.3977 C 24.644383,52.56357 24.312883,52.81217 23.815683,53.14348 C 23.815683,53.14362 24.064283,52.89503 24.561483,52.3977 C 24.561483,52.23212 24.312883,52.14925 23.815683,52.1491 C 23.815683,52.31498 23.649983,52.48071 23.318583,52.64629 C 23.318483,52.64644 23.484283,52.39785 23.815683,51.90051 C 22.655583,50.90629 21.329783,50.16051 19.838283,49.66317 C 19.506783,49.99478 19.258183,50.16051 19.092483,50.16036 C 19.092483,50.16051 18.678083,49.58046 17.849483,48.42021 C 16.523683,48.58609 15.612183,48.25463 15.114983,47.42584 C 15.114983,47.42599 15.114983,47.67458 15.114983,48.17162 L 20.086783,53.88925 L 29.533383,57.36956 M 136.67688,84.96337 C 136.51108,84.96349 136.17958,85.12922 135.68258,85.46056 C 135.35098,85.6264 135.10238,85.79213 134.93678,85.95774 C 134.77088,86.12359 134.60518,86.53791 134.43958,87.20071 C 134.27368,87.86374 133.94228,88.11233 133.44518,87.94649 L 132.94798,88.44367 C 133.11358,88.60951 133.36218,88.60951 133.69378,88.44367 C 133.85938,88.60951 133.94228,88.77524 133.94238,88.94086 C 133.61078,88.94097 133.11358,89.1067 132.45088,89.43805 C 132.61648,89.60389 132.94788,89.68675 133.44518,89.68664 C 133.27938,89.68675 133.27938,90.2668 133.44518,91.42679 C 133.94228,91.59263 134.10798,92.42127 133.94238,93.91272 C 133.44508,94.244281 132.94788,94.990061 132.45088,96.150051 L 130.71068,96.398651 C 132.69928,98.553221 133.69368,101.95066 133.69378,106.59096 C 134.02508,108.08261 134.85378,110.31994 136.17978,113.30297 C 138.00258,120.09792 138.91408,126.97565 138.91428,133.93618 C 138.91408,141.55976 137.75398,148.35463 135.43398,154.3208 C 133.77658,157.96688 132.11928,161.53004 130.46208,165.0103 C 128.47318,169.31928 126.31878,172.71671 123.99868,175.20261 C 118.36378,181.83177 113.14338,186.6379 108.33728,189.621 L 102.12248,193.59849 C 99.802183,194.75859 96.073283,196.25015 90.935783,198.07316 C 85.798183,199.89618 80.246283,200.89055 74.280083,201.05628 C 60.193083,201.38773 47.846283,198.81894 37.239783,193.34989 C 34.090883,191.36116 30.859183,189.28956 27.544583,187.13507 C 24.229983,184.81489 21.578383,182.2461 19.589683,179.42869 C 13.954883,173.62822 8.9001833,165.50752 4.4254833,155.06658 C 3.9282833,152.91216 3.0167833,149.76332 1.6909833,145.62005 C 1.0280833,142.47126 0.69658326,138.99097 0.69658326,135.17915 C 0.69658326,130.04163 1.6909833,122.58385 3.6796833,112.80578 C 5.0054833,109.65703 7.1599833,104.8509 10.143083,98.387391 C 11.468883,95.901571 14.037683,92.50413 17.849483,88.19508 C 18.015183,87.86374 18.098083,87.36655 18.098083,86.70352 C 17.600883,87.20082 17.020883,87.69801 16.357983,88.19508 C 15.860783,88.69238 15.280683,88.77524 14.617783,88.44367 L 16.606483,85.70915 C 15.777883,85.04635 16.026483,83.3062 17.352283,80.4887 C 17.683783,80.15736 17.849483,79.74304 17.849483,79.24573 C 17.849483,79.24586 17.517983,79.24586 16.855083,79.24573 L 15.114983,82.47744 L 14.617783,81.98026 C 14.617783,82.31183 14.369183,82.64329 13.871983,82.97463 L 13.623383,82.97463 C 13.623383,82.64329 13.954883,82.1461 14.617783,81.48307 C 14.286283,79.99163 14.783483,78.74867 16.109383,77.75418 C 15.777883,75.93129 15.777883,74.85405 16.109383,74.52247 C 16.606483,74.02541 17.269383,73.19677 18.098083,72.03654 C 17.435183,71.70521 16.689383,71.20803 15.860783,70.54498 C 17.186583,71.20803 18.180983,71.45662 18.843883,71.29076 C 19.009583,71.29089 19.755383,70.71084 21.081183,69.55061 C 20.252583,69.8822 18.843883,69.96506 16.855083,69.7992 L 20.086783,69.05342 C 18.429483,69.05356 16.109283,68.63923 13.126183,67.81046 L 13.126183,68.05905 C 13.457683,68.55637 14.369183,69.13642 15.860783,69.7992 C 15.197783,70.13079 14.534883,69.96506 13.871983,69.30202 C 13.374783,68.47351 12.877583,67.72773 12.380483,67.06468 L 12.380483,66.3189 C 12.380483,66.31904 12.463283,66.48476 12.629083,66.81609 C 12.794783,67.14768 13.043383,67.47914 13.374783,67.81046 C 16.026483,67.81059 18.098083,67.06481 19.589683,65.57312 C 20.418283,65.73899 21.246883,65.57326 22.075583,65.07594 C 23.069883,64.41316 23.649983,64.0817 23.815683,64.08157 C 22.987083,63.58452 21.661183,62.9216 19.838283,62.09282 C 19.175283,61.59578 18.180983,60.85 16.855083,59.85549 C 16.357883,59.35844 15.612183,58.61266 14.617783,57.61815 C 14.617783,57.61829 15.032083,57.3697 15.860783,56.87237 C 15.694983,56.87251 16.937983,56.95538 19.589683,57.12096 C 18.926683,56.95538 18.098083,57.03824 17.103683,57.36956 C 16.275083,57.70116 15.612183,57.86688 15.114983,57.86674 C 16.275083,58.69553 19.589583,60.51854 25.058683,63.33579 C 24.892983,63.33592 26.218783,63.1702 29.036183,62.8386 C 30.361983,63.50165 32.184983,64.57889 34.505183,66.07031 C 35.168083,66.07044 35.996783,66.4019 36.991183,67.06468 C 38.151183,67.72773 38.896983,68.14205 39.228483,68.30765 L 41.962983,68.30765 C 41.962983,68.30778 41.962983,68.39064 41.962983,68.55624 C 41.465783,68.39064 42.128683,68.14205 43.951783,67.81046 C 43.951683,67.64486 44.117483,67.47914 44.448983,67.31327 C 44.448883,67.47914 43.951683,67.89346 42.957383,68.55624 C 42.128683,69.05356 41.631483,69.38501 41.465783,69.55061 C 41.300083,69.71647 41.134283,70.13079 40.968683,70.79357 C 41.797283,71.62235 42.542983,71.70521 43.205983,71.04217 C 43.205883,71.0423 46.354783,69.96506 52.652483,67.81046 C 52.818183,67.31341 52.818183,66.73336 52.652483,66.07031 C 51.823783,64.57889 51.078083,63.00447 50.415183,61.34704 C 49.752183,59.52417 49.586483,57.78402 49.917983,56.12659 C 49.752183,54.63518 48.592083,52.64644 46.437683,50.16036 C 44.283183,47.67458 43.205883,45.60298 43.205983,43.94554 L 41.714383,42.45398 L 41.714383,40.21664 C 40.222783,39.71962 38.896983,38.72525 37.736883,37.23353 C 36.576783,35.74214 35.499583,34.33344 34.505183,33.00745 C 33.676583,33.00762 33.179383,33.09048 33.013683,33.25604 C 33.013583,33.42194 32.930783,33.58767 32.765083,33.75323 C 32.930783,34.74776 32.930783,35.24495 32.765083,35.24478 C 32.765083,35.41068 32.847883,35.49354 33.013683,35.49338 L 34.008083,34.25041 L 34.256583,34.7476 C 33.427983,35.24495 33.262183,35.90786 33.759483,36.73634 C 34.090883,37.56515 34.505183,38.39379 35.002383,39.22227 C 35.665283,39.88535 36.659683,41.04545 37.985483,42.70257 C 37.985483,43.53137 38.151183,44.69147 38.482683,46.18287 C 38.648383,46.18303 38.896983,46.10016 39.228483,45.93428 C 39.559883,46.43162 39.974183,46.59735 40.471483,46.43147 C 40.471383,46.43162 40.139983,46.68021 39.477083,47.17725 C 38.814083,47.67458 38.234083,47.92318 37.736883,47.92302 C 36.908283,47.92318 35.830983,47.50886 34.505183,46.68006 C 33.345083,45.68584 32.350683,45.18866 31.522083,45.1885 C 30.527683,46.0173 29.947683,46.34876 29.781983,46.18287 L 31.024883,45.1885 C 30.859183,44.69147 30.610583,44.60861 30.279183,44.93991 C 29.781883,45.43725 29.450483,45.68584 29.284783,45.68569 L 30.527783,44.19413 C 29.201883,42.86846 28.373283,42.28841 28.041783,42.45398 C 28.041783,42.61987 27.876083,42.70273 27.544583,42.70257 L 28.290383,41.95679 C 27.793183,41.12831 27.130283,39.96821 26.301683,38.47649 C 26.798783,39.13957 27.627483,40.05108 28.787583,41.21101 C 28.953283,41.21117 28.953283,41.12831 28.787583,40.96242 C 28.953283,40.96258 29.118983,41.04545 29.284783,41.21101 L 28.787583,41.95679 L 31.024883,44.69132 C 32.682183,45.18866 34.505183,46.10016 36.493983,47.42584 C 37.653983,46.10016 38.068383,44.8572 37.736883,43.69694 C 37.239683,42.86846 36.742483,42.03982 36.245383,41.21101 C 35.913883,40.38253 35.250983,40.05108 34.256583,40.21664 C 33.262183,40.2168 32.102083,39.88535 30.776283,39.22227 C 29.450483,38.55952 28.538983,38.1452 28.041783,37.97931 C 26.881683,37.31656 25.307283,35.99073 23.318583,34.00182 L 23.318583,32.26167 C 23.484283,32.26184 23.649983,32.3447 23.815683,32.51026 C 24.312883,32.3447 24.892983,32.17897 25.555883,32.01308 C 26.218783,31.68179 26.798783,31.01887 27.295983,30.02433 C 27.793183,28.8644 28.373283,28.36722 29.036183,28.53277 C 35.499583,26.87566 41.714383,27.28998 47.680683,29.77574 C 48.343483,29.94164 49.254983,29.77591 50.415183,29.27855 C 50.249383,29.27873 50.166483,29.19586 50.166583,29.02996 C 50.332283,29.03013 50.415083,29.03013 50.415183,29.02996 C 50.415083,29.03013 50.497983,29.27873 50.663783,29.77574 C 54.143983,29.44445 56.215583,29.52732 56.878583,30.02433 L 60.856083,31.76448 C 61.518883,32.09611 62.098983,32.26184 62.596183,32.26167 C 63.590483,32.26184 64.916383,31.93038 66.573683,31.2673 C 68.230883,30.43882 69.639583,30.0245 70.799783,30.02433 C 71.628383,30.0245 72.788483,30.2731 74.280083,30.77011 C 75.771583,31.26747 78.008883,31.51606 80.992083,31.51589 C 84.140883,31.35033 86.295283,31.59892 87.455483,32.26167 C 91.267183,34.08485 97.067683,36.73651 104.85698,40.21664 L 105.35418,39.71946 C 105.51988,40.2168 105.93418,40.71399 106.59718,41.21101 C 106.92848,41.21117 107.34288,41.21117 107.84018,41.21101 C 107.83998,41.04545 107.75718,40.87972 107.59158,40.71383 C 107.25998,40.71399 107.42568,40.96258 108.08868,41.45961 C 108.25438,41.6255 108.58578,41.87409 109.08308,42.20539 C 109.74588,42.537 109.91168,42.95132 109.58028,43.44835 C 109.08298,44.60861 108.83438,45.18866 108.83448,45.1885 C 108.83438,45.18866 109.24868,44.8572 110.07748,44.19413 L 110.32608,44.69132 L 110.82328,44.19413 C 110.98888,44.36002 111.15458,44.52574 111.32048,44.69132 L 110.82328,44.93991 L 110.57468,44.69132 C 110.40878,44.8572 110.32598,45.02293 110.32608,45.1885 C 110.49168,45.68584 110.82318,45.85157 111.32048,45.68569 C 111.98328,45.18866 112.39758,44.94006 112.56338,44.93991 C 112.89478,43.94569 112.64618,43.03419 111.81758,42.20539 C 110.49168,40.54826 109.82878,39.71962 109.82888,39.71946 C 100.71368,33.75339 93.090183,30.10737 86.958283,28.78137 C 86.295283,28.45008 85.300983,28.11863 83.975183,27.787 L 83.726583,28.03559 C 83.063583,27.7043 82.732183,27.53858 82.732283,27.5384 C 82.234983,27.87003 82.069283,28.03576 82.235083,28.03559 C 82.234983,27.87003 81.820683,27.7043 80.992083,27.5384 L 79.749183,26.54403 C 78.920383,26.54421 78.174683,26.37848 77.511783,26.04685 C 77.677483,26.04702 74.777183,26.21275 68.811083,26.54403 C 69.639583,27.04139 69.971083,27.53858 69.805383,28.03559 C 68.976683,26.87566 67.070783,26.37848 64.087783,26.54403 C 63.756283,26.54421 63.259083,26.87566 62.596183,27.5384 C 62.098983,28.20149 61.601783,28.36722 61.104683,28.03559 C 61.104583,28.36722 60.938883,28.69868 60.607483,29.02996 C 60.607383,29.03013 60.524583,28.78154 60.358883,28.28418 C 61.187483,27.9529 61.933283,27.37285 62.596183,26.54403 L 62.596183,26.54403 C 59.944483,27.37285 56.878483,27.37285 53.398283,26.54403 C 53.398183,26.70993 53.149683,27.04139 52.652483,27.5384 C 52.155283,28.03576 51.658083,28.11863 51.160983,27.787 C 51.326583,27.78717 51.658083,27.53858 52.155283,27.04122 L 51.906683,26.79262 L 47.183483,26.54403 C 47.017683,26.04702 46.520483,25.96416 45.691883,26.29544 C 44.365983,26.29561 42.460183,26.37848 39.974283,26.54403 C 37.653983,26.70993 34.256583,27.12426 29.781983,27.787 C 29.450483,28.11863 28.787583,28.11863 27.793183,27.787 C 27.130283,27.9529 26.633083,28.53295 26.301683,29.52715 C 26.135883,30.52169 25.887283,31.10174 25.555883,31.2673 L 24.312883,31.2673 C 25.472983,30.60455 25.970183,30.0245 25.804483,29.52715 C 25.638683,28.8644 25.970183,28.20149 26.798883,27.5384 L 26.798883,27.04122 C 26.798783,27.04139 27.295983,27.04139 28.290383,27.04122 C 28.290383,27.04139 28.953283,27.04139 30.279183,27.04122 C 30.279083,27.04139 31.190583,26.87566 33.013683,26.54403 C 37.819783,26.70993 43.040183,26.21275 48.674983,25.05247 C 48.840683,25.05265 48.923583,25.13551 48.923583,25.30107 L 48.177883,25.79825 C 49.006383,25.79843 49.420783,25.79843 49.420783,25.79825 C 49.254983,25.46697 49.503583,24.88692 50.166583,24.0581 C 50.000783,23.56109 50.166483,23.06391 50.663783,22.56654 C 51.326583,21.90381 51.658083,21.40662 51.658183,21.07499 C 51.658083,20.74371 51.575183,20.41225 51.409583,20.08061 C 51.243783,19.58361 50.912283,18.9207 50.415183,18.09187 L 50.415183,17.84328 C 51.243783,17.34628 52.155283,16.84909 53.149683,16.35172 C 54.143983,15.85472 54.558283,15.10894 54.392683,14.11438 C 55.221283,13.45166 55.801283,12.29156 56.132783,10.63408 C 57.458583,10.13709 59.364483,8.9769903 61.850483,7.1537803 C 64.336283,5.3309603 66.325083,4.0879999 67.816683,3.4248899 C 67.982383,3.0936299 68.148083,2.7621699 68.313883,2.4305199 C 69.142483,2.7621699 69.556783,2.9278999 69.556783,2.9276999 C 70.219683,2.7621699 71.131183,2.3478499 72.291383,1.6847399 C 72.954183,1.8506599 73.948583,1.6849399 75.274483,1.1875499 L 79.749183,3.4248899 C 81.406383,3.5908099 83.643683,3.2593599 86.461183,2.4305199 L 86.958283,2.9276999 C 86.958283,2.7621699 86.958283,2.5135799 86.958283,2.1819199 C 88.118383,1.3534799 90.107083,0.85628994 92.924583,0.69036994 C 94.581783,2.0163899 95.576083,2.5964399 95.907683,2.4305199 L 97.647783,3.1762899 C 95.658983,3.3422199 94.498883,3.2593599 94.167483,2.9276999 C 93.007383,2.0992599 92.427283,1.6849399 92.427383,1.6847399 L 92.178783,1.1875499 C 92.012983,1.3534799 91.930083,1.6020699 91.930183,1.9333299 C 92.095783,1.9335299 92.095783,2.0992599 91.930183,2.4305199 C 92.095783,3.2593599 91.930083,4.3365903 91.432983,5.6622203 L 91.681583,6.1594103 C 91.184283,6.3253303 90.769983,6.1596003 90.438683,5.6622203 L 90.935783,5.1650403 C 90.935683,5.1652303 90.521383,5.0823703 89.692883,4.9164503 C 89.692783,5.0823703 89.112683,5.0823703 87.952683,4.9164503 C 87.289683,4.9166403 86.295283,4.8337803 84.969583,4.6678503 C 83.809383,4.3365903 82.815083,4.1708599 81.986483,4.1706699 C 81.157783,4.1708599 79.914783,3.9222699 78.257583,3.4248899 C 77.428883,2.2649899 76.268783,1.7677999 74.777283,1.9333299 C 74.114283,1.9335299 73.202783,2.2649899 72.042783,2.9276999 C 71.545483,2.7621699 70.965483,2.9278999 70.302583,3.4248899 C 69.971083,3.4250899 69.473883,3.4250899 68.811083,3.4248899 C 68.976683,3.7565399 69.308183,3.9222699 69.805383,3.9220699 C 69.805383,3.7565399 69.805383,3.6736799 69.805383,3.6734799 C 70.302583,3.3422199 71.214083,3.2593599 72.539983,3.4248899 C 72.705583,3.5908099 72.871283,3.8394099 73.037083,4.1706699 C 72.539883,4.9995103 72.291283,5.2481003 72.291383,4.9164503 C 71.296883,5.2481003 70.799683,5.5795603 70.799783,5.9108203 C 70.799683,6.0767403 70.716883,6.1596003 70.551183,6.1594103 L 70.302583,5.6622203 C 70.136783,5.8281503 69.971083,6.3253303 69.805383,7.1537803 C 69.805383,7.1539803 69.722483,7.0711103 69.556783,6.9051903 C 69.556783,7.4025703 69.308183,7.8997503 68.811083,8.3967503 C 68.479483,8.0654803 68.313783,7.8997503 68.313883,7.8995603 C 67.816583,8.2312103 67.567983,8.3969403 67.568083,8.3967503 C 67.567983,8.3969403 67.567983,8.6455303 67.568083,9.1425303 C 67.567983,9.4741703 67.402283,9.5570403 67.070883,9.3911203 C 66.739383,9.7227703 66.407883,9.9713603 66.076483,10.1369 L 66.325083,10.63408 C 66.325083,10.8 66.076483,10.96573 65.579383,11.13127 C 65.247783,11.13146 65.164983,11.29719 65.330783,11.62845 C 66.325083,12.12583 67.485183,13.03734 68.811083,14.36298 C 70.136783,12.87161 71.296883,12.12583 72.291383,12.12564 L 72.539983,11.62845 L 73.037083,12.12564 L 70.302583,13.6172 C 69.805383,13.94884 69.142483,14.52889 68.313883,15.35735 C 70.468283,15.68899 72.705583,16.02045 75.025883,16.35172 C 77.511683,16.68336 79.417583,17.512 80.743483,18.83765 C 80.909183,19.16929 81.489183,19.33502 82.483683,19.33484 C 82.483583,19.16929 82.483583,19.00356 82.483683,18.83765 C 82.152083,18.34065 81.986383,18.17492 81.986483,18.34046 C 82.152083,18.17492 82.317883,18.09205 82.483683,18.09187 C 82.815083,18.42351 83.229383,18.58924 83.726583,18.58906 L 83.975183,18.34046 C 83.975183,18.34065 83.809383,18.25778 83.477983,18.09187 C 83.643683,18.09205 83.726583,17.7606 83.726583,17.0975 C 83.726583,16.43477 83.892283,16.18618 84.223783,16.35172 C 84.555183,16.35191 84.720883,16.02045 84.720983,15.35735 C 84.555183,15.35753 84.472283,15.19181 84.472383,14.86016 C 84.472283,14.86035 84.886683,15.19181 85.715383,15.85453 C 86.212483,15.52326 86.378183,15.35753 86.212583,15.35735 C 86.378183,15.35753 86.461083,15.52326 86.461183,15.85453 L 85.963983,16.35172 L 88.201283,16.60031 C 88.201183,16.76623 88.201183,16.93195 88.201283,17.0975 C 88.532683,16.6005 89.029883,16.43477 89.692883,16.60031 C 89.692783,17.09768 89.941383,17.26341 90.438683,17.0975 C 90.769983,16.76623 90.935683,16.51763 90.935783,16.35172 C 90.935683,16.35191 91.018583,16.43477 91.184383,16.60031 C 91.184283,16.6005 90.935683,16.93195 90.438683,17.59469 C 90.438583,17.59487 90.604283,17.59487 90.935783,17.59469 C 91.598683,17.26341 91.930083,17.09768 91.930183,17.0975 C 92.592983,15.93758 93.255883,14.69462 93.918983,13.36861 C 94.747483,12.04297 95.741883,11.38005 96.902083,11.37986 C 100.21648,10.55141 101.87378,10.13709 101.87388,10.1369 C 101.70808,10.63427 101.21088,10.96573 100.38238,11.13127 C 99.553583,11.13146 99.139283,11.29719 99.139383,11.62845 L 98.642183,11.87705 C 99.139283,12.20869 99.802183,12.45729 100.63098,12.62283 L 100.87958,13.86579 C 101.54238,13.86598 102.37098,13.53452 103.36548,12.87142 C 104.35978,12.04297 105.10548,11.62864 105.60278,11.62845 L 107.59158,10.1369 C 107.42568,9.9713603 107.17708,9.7227703 106.84578,9.3911203 C 106.51418,9.8885003 106.09988,9.8885003 105.60278,9.3911203 C 105.60268,9.3913103 105.51988,9.3913103 105.35418,9.3911203 C 105.68558,9.2255803 105.85128,8.8941203 105.85138,8.3967503 C 105.51988,7.7340303 105.35408,7.4025703 105.35418,7.4023703 C 104.85688,7.4025703 104.35978,7.2368403 103.86268,6.9051903 L 104.60838,6.6566003 C 104.77408,6.4910603 104.35978,5.7452803 103.36548,4.4192603 C 101.87378,3.9222699 100.29938,3.5908099 98.642183,3.4248899 C 101.45948,3.2593599 103.44818,3.7565399 104.60838,4.9164503 C 105.10548,4.7509103 105.60268,4.9995103 106.09998,5.6622203 C 106.76278,6.1596003 107.09428,6.4082003 107.09438,6.4080003 C 107.75718,6.5739303 108.33718,6.8225203 108.83448,7.1537803 C 109.49728,7.3197003 109.99448,7.1539803 110.32608,6.6566003 C 111.81748,6.8225203 113.30908,6.4910603 114.80078,5.6622203 C 116.12648,5.3309603 118.28088,5.0823703 121.26418,4.9164503 C 120.43538,6.2424703 118.86098,7.3197003 116.54088,8.1481503 C 114.22058,8.8112603 112.64618,9.7227703 111.81758,10.88268 L 108.08868,10.88268 C 107.42568,11.71151 106.43138,12.54015 105.10558,13.36861 C 104.60828,13.36879 103.94538,13.78311 103.11688,14.61157 C 102.45388,15.4404 101.79098,15.77186 101.12808,15.60594 C 100.46508,16.10331 98.310683,16.6005 94.664683,17.0975 C 94.001683,17.59487 93.587383,18.50638 93.421783,19.83202 C 93.421683,21.15803 93.007383,21.98667 92.178783,22.31795 L 90.438683,23.80951 C 90.272783,24.63833 90.438583,25.88129 90.935783,27.5384 C 91.432883,27.53858 92.178683,27.9529 93.173183,28.78137 C 94.333183,29.61018 95.161783,30.0245 95.659083,30.02433 C 96.321883,30.0245 96.901983,30.35596 97.399283,31.0187 C 98.062083,31.68179 98.559283,32.01324 98.890783,32.01308 C 99.222183,31.84752 99.470783,31.68179 99.636583,31.51589 C 100.63088,32.3447 102.28808,33.42194 104.60838,34.7476 C 105.43698,35.57641 106.18278,36.07359 106.84578,36.23916 L 113.06058,41.95679 L 113.06058,45.68569 C 112.56328,46.0173 111.81748,46.43162 110.82328,46.92865 C 111.98328,47.26026 113.22618,48.25463 114.55218,49.91177 C 116.04358,49.91192 117.94948,51.90066 120.26978,55.878 C 120.93258,57.3697 122.42418,59.19271 124.74448,61.34704 C 124.91008,61.67864 125.32438,62.25869 125.98738,63.08719 C 126.65018,63.75025 126.89878,64.41316 126.73318,65.07594 C 127.39598,66.23617 128.63898,67.89346 130.46208,70.0478 C 130.62768,70.54511 131.20778,71.53948 132.20228,73.03091 C 133.19648,74.35687 133.69368,75.4341 133.69378,76.26262 C 133.69368,76.75993 133.61078,77.33998 133.44518,78.00277 C 134.27368,78.16862 134.93668,78.50008 135.43398,78.99714 L 134.68818,79.74292 C 135.01948,80.40596 135.18518,80.73741 135.18538,80.73729 C 134.68808,81.06887 134.52228,81.40033 134.68818,81.73166 C 135.01948,82.06324 135.26808,82.47756 135.43398,82.97463 C 135.59958,83.3062 136.01388,83.96912 136.67688,84.96337 M 22.572783,59.60689 C 22.572783,59.77276 22.489883,60.02135 22.324183,60.35267 C 22.324183,60.35281 22.406983,60.10422 22.572783,59.60689 M 99.139383,13.12001 L 99.139383,12.87142 L 98.642183,12.87142 L 98.642183,13.12001 L 99.139383,13.12001 M 91.930183,19.08624 C 91.930083,18.75497 91.930083,18.34065 91.930183,17.84328 L 91.681583,17.84328 C 91.681483,18.17492 91.267183,18.34065 90.438683,18.34046 L 90.438683,18.58906 C 90.769983,18.58924 91.101483,18.6721 91.432983,18.83765 C 91.432883,19.50075 91.350083,19.74934 91.184383,19.58343 C 91.184283,19.41788 91.432883,19.25215 91.930183,19.08624 M 91.930183,20.08061 L 91.681583,20.08061 C 91.515783,19.41788 91.184283,19.66647 90.687183,20.82639 C 90.687183,20.82657 90.769983,20.82657 90.935783,20.82639 C 90.769983,20.9923 90.604283,21.24089 90.438683,21.57217 L 89.941483,21.32358 C 89.609883,21.48949 89.527083,21.90381 89.692883,22.56654 C 91.018583,21.57235 91.764383,20.74371 91.930183,20.08061 M 89.195683,20.82639 L 89.195683,20.5778 L 88.698483,20.5778 L 88.698483,20.82639 L 89.195683,20.82639 M 87.952683,20.32921 L 87.952683,20.08061 L 87.704083,20.08061 L 87.704083,20.32921 L 87.952683,20.32921 M 85.218183,18.09187 L 85.218183,17.84328 L 84.969583,17.84328 L 84.969583,18.09187 L 85.218183,18.09187 M 71.296983,4.4192603 L 71.296983,4.1706699 L 71.048383,4.1706699 L 71.048383,4.4192603 L 71.296983,4.4192603 M 86.212583,20.32921 L 86.212583,20.08061 L 85.963983,20.08061 L 85.963983,20.32921 L 86.212583,20.32921 M 86.958283,21.82077 L 86.958283,21.57217 L 86.709783,21.57217 L 86.709783,21.82077 L 86.958283,21.82077 M 108.33728,43.94554 L 108.33728,43.69694 L 108.08868,43.69694 L 108.08868,43.94554 L 108.33728,43.94554 M 68.562483,4.4192603 L 68.562483,4.1706699 L 68.313883,4.1706699 L 68.313883,4.4192603 L 68.562483,4.4192603 M 107.34298,44.93991 L 107.34298,44.69132 L 107.09438,44.69132 L 107.09438,44.93991 L 107.34298,44.93991 M 67.568083,4.6678503 C 67.236583,4.5023203 66.822283,4.5851803 66.325083,4.9164503 C 66.656483,4.9166403 67.070783,4.8337803 67.568083,4.6678503 M 68.065283,5.9108203 L 68.065283,5.6622203 L 67.816683,5.6622203 L 67.816683,5.9108203 L 68.065283,5.9108203 M 107.34298,46.18287 L 107.34298,45.93428 L 107.09438,45.93428 L 107.09438,46.18287 L 107.34298,46.18287 M 64.087783,6.1594103 C 63.921983,6.1596003 63.756283,6.3253303 63.590583,6.6566003 C 63.921983,6.6567903 64.087683,6.4910603 64.087783,6.1594103 M 89.692883,27.5384 C 89.692783,27.53858 89.361283,27.04139 88.698483,26.04685 C 88.035483,24.88692 86.875383,23.72682 85.218183,22.56654 C 82.566483,20.57798 81.240583,19.58361 81.240683,19.58343 C 76.268783,17.09768 71.794083,16.10331 67.816683,16.60031 L 67.319483,19.83202 C 68.313783,19.99793 69.722483,20.32939 71.545583,20.82639 L 71.545583,20.82639 C 71.545483,20.9923 69.888183,21.07517 66.573683,21.07499 L 66.573683,21.32358 L 70.799783,21.32358 L 71.048383,21.57217 C 70.385383,21.73808 69.473883,21.90381 68.313883,22.06936 C 69.639583,22.23527 70.882583,22.48386 72.042783,22.81514 C 73.368483,22.98104 74.528583,23.3125 75.523083,23.80951 C 75.522983,23.97541 75.440083,24.14114 75.274483,24.30669 L 67.816683,22.81514 L 67.070883,22.06936 C 66.407883,22.56672 66.076483,23.47823 66.076483,24.80388 C 66.739383,24.96979 67.650883,25.13551 68.811083,25.30107 C 69.308183,25.6327 69.888183,25.79843 70.551183,25.79825 C 71.048283,25.79843 71.794083,25.6327 72.788583,25.30107 C 73.782783,24.80406 74.528583,24.55546 75.025883,24.55529 C 75.688683,24.55546 76.351583,24.72119 77.014583,25.05247 C 78.506083,25.21838 79.417583,25.13551 79.749183,24.80388 L 80.246283,25.30107 C 80.743383,25.13551 81.240583,25.21838 81.737883,25.54966 C 82.234983,25.88129 82.483583,26.12988 82.483683,26.29544 C 83.146483,26.46134 83.892283,26.29561 84.720983,25.79825 C 85.218083,26.46134 85.466683,26.7928 85.466783,26.79262 C 85.798183,26.95853 86.129583,26.87566 86.461183,26.54403 C 87.123983,26.70993 88.035483,27.20712 89.195683,28.03559 L 89.195683,27.787 C 89.361283,27.45571 89.527083,27.37285 89.692883,27.5384 M 64.833583,9.3911203 L 64.833583,9.1425303 L 64.336383,9.1425303 L 64.336383,9.3911203 L 64.833583,9.3911203 M 62.596183,7.6509703 L 62.596183,7.4023703 C 62.098983,7.4025703 61.601783,7.5683003 61.104683,7.8995603 L 61.353283,8.1481503 L 61.353283,7.8995603 C 61.684683,7.8997503 62.098983,7.8168903 62.596183,7.6509703 M 68.562483,14.61157 L 68.562483,14.36298 L 68.313883,14.36298 L 68.313883,14.61157 L 68.562483,14.61157 M 89.444283,35.49338 L 89.444283,35.49338 M 96.156283,44.69132 C 96.321883,44.52574 96.239083,44.11142 95.907683,43.44835 C 95.907583,43.61424 95.990483,44.02856 96.156283,44.69132 M 88.201283,37.73071 C 87.869783,36.90223 87.206883,35.65927 86.212583,34.00182 L 88.201283,37.73071 M 133.94238,83.72041 L 132.69948,76.51121 C 132.36788,74.35687 129.46758,70.29652 123.99868,64.33016 C 122.67268,61.18145 120.10398,56.70679 116.29228,50.90614 L 115.29788,50.90614 C 115.79498,51.73493 116.54078,52.9779 117.53528,54.63503 C 117.53518,54.80091 117.78378,55.21523 118.28108,55.878 C 118.77808,56.37533 118.94388,56.87251 118.77818,57.36956 C 119.77248,58.19834 120.02108,59.44131 119.52398,61.09845 C 119.19238,60.43568 118.69528,60.35281 118.03248,60.84986 L 119.52398,63.08719 C 119.68958,63.08733 119.85538,63.58452 120.02118,64.57875 C 120.35248,65.40753 120.93258,65.65612 121.76138,65.32453 C 122.25838,65.49039 122.67268,65.90472 123.00428,66.56749 L 123.50148,66.56749 C 124.16428,67.23054 124.49578,67.72773 124.49588,68.05905 C 124.49578,68.22491 124.49578,68.30778 124.49588,68.30765 C 124.16428,68.80496 124.16428,69.13642 124.49588,69.30202 L 124.49588,69.05342 C 124.66148,68.7221 124.82718,68.55637 124.99308,68.55624 C 125.15868,68.88783 125.24148,69.30215 125.24168,69.7992 L 125.49028,69.7992 C 125.65588,69.96506 125.90448,70.21366 126.23598,70.54498 C 126.07018,70.54511 125.73868,70.54511 125.24168,70.54498 L 126.73318,70.79357 C 126.73308,71.12516 126.98168,71.53948 127.47898,72.03654 L 126.48458,72.78232 C 126.81598,72.78245 127.14738,72.94817 127.47898,73.2795 C 127.64458,74.10827 127.72748,74.60546 127.72758,74.77106 C 127.72748,74.93692 127.89318,75.4341 128.22478,76.26262 C 128.55608,76.92566 129.21898,77.92003 130.21348,79.24573 L 130.21348,79.49433 C 129.55048,78.66581 128.39038,77.42284 126.73318,75.76543 C 126.73308,75.4341 126.56738,75.01978 126.23598,74.52247 C 125.90448,74.02541 125.65588,73.44536 125.49028,72.78232 C 125.32438,72.11953 124.91008,71.37375 124.24728,70.54498 C 124.08138,70.54511 123.74998,70.37938 123.25288,70.0478 C 122.75558,69.55074 122.25838,69.38501 121.76138,69.55061 C 121.42978,68.88783 121.26408,68.55637 121.26418,68.55624 C 121.26408,68.55637 120.51828,66.89909 119.02678,63.58438 C 118.69528,63.08733 116.87218,59.02698 113.55778,51.40333 C 112.89478,50.74056 112.14898,49.66333 111.32048,48.17162 L 110.32608,48.17162 C 111.65178,50.16051 112.81188,53.80654 113.80638,59.10971 C 114.96638,64.24743 116.37508,67.97632 118.03248,70.29639 L 118.28108,70.29639 C 118.61238,70.46225 118.77808,70.71084 118.77818,71.04217 C 122.75558,76.84279 124.74438,82.47756 124.74448,87.94649 C 124.24718,88.94097 124.49578,89.68675 125.49028,90.18382 C 126.81598,91.34403 127.47888,91.92408 127.47898,91.92397 L 128.22478,94.16131 C 128.72178,93.82996 129.21898,93.33278 129.71628,92.66975 C 129.88188,92.66986 130.54478,93.08418 131.70508,93.91272 C 131.70488,93.91283 131.53918,93.58137 131.20788,92.91835 C 131.37348,92.08981 131.62208,91.92408 131.95368,92.42116 C 132.61648,93.08418 133.11358,93.33278 133.44518,93.16694 C 133.44508,92.66986 133.11358,92.08981 132.45088,91.42679 C 132.61648,91.4269 131.95348,90.84685 130.46208,89.68664 C 130.95918,88.19519 132.11928,86.20645 133.94238,83.72041 M 67.070883,14.86016 C 66.905083,14.86035 66.242183,14.44603 65.082183,13.6172 C 63.756283,11.79437 62.761883,10.96573 62.099083,11.13127 C 61.270383,11.9601 60.938883,12.62301 61.104683,13.12001 C 61.767483,12.78874 62.430483,13.03734 63.093383,13.86579 C 63.921983,14.52889 64.502083,14.86035 64.833583,14.86016 C 64.004883,13.86598 63.590483,13.36879 63.590583,13.36861 C 63.756283,13.20306 64.004883,13.03734 64.336383,12.87142 C 64.833483,13.53452 65.579283,14.52889 66.573683,15.85453 L 67.070883,14.86016 M 93.421783,41.7082 C 93.090183,40.38253 92.261583,38.47665 90.935783,35.99056 C 91.267183,36.48791 91.598683,37.56515 91.930183,39.22227 C 92.924483,40.05108 93.421683,41.3769 93.421783,43.19976 C 93.255883,46.34876 93.173083,47.84031 93.173183,47.67443 C 93.338783,46.34876 93.421683,44.36002 93.421783,41.7082 M 95.659083,48.9174 C 95.824683,46.26589 95.576083,43.77997 94.913283,41.45961 C 95.244683,43.11705 95.410383,45.60298 95.410483,48.9174 L 95.659083,48.9174 M 87.455483,39.47086 C 87.123983,37.15083 86.212483,35.16209 84.720983,33.50463 L 87.455483,39.47086 M 87.455483,41.21101 C 87.289683,40.87972 87.041083,40.4654 86.709783,39.96805 C 85.880983,38.47665 84.803783,36.15646 83.477983,33.00745 C 83.477983,34.33344 83.975183,35.74214 84.969583,37.23353 C 86.129583,39.22243 86.875383,40.54826 87.206883,41.21101 L 87.455483,41.21101 M 63.341983,15.10876 L 63.093383,15.10876 L 62.596183,15.10876 L 63.341983,15.10876 M 92.178783,47.42584 C 92.510183,46.10016 92.178683,44.02856 91.184383,41.21101 C 91.847283,45.52011 92.178683,47.59172 92.178783,47.42584 M 58.121583,11.37986 L 58.121583,11.13127 L 57.872983,11.13127 L 57.872983,11.37986 L 58.121583,11.37986 M 60.358883,12.12564 C 60.193083,12.62301 59.778783,13.28593 59.115883,14.11438 L 59.364483,14.11438 C 60.193083,13.28593 60.524583,12.62301 60.358883,12.12564 M 82.235083,35.24478 L 82.235083,35.24478 M 91.184383,50.65755 C 91.018583,44.02856 90.189983,39.38816 88.698483,36.73634 C 89.527083,46.18303 89.941383,50.90629 89.941483,50.90614 C 90.272783,50.57483 90.687183,50.49197 91.184383,50.65755 M 56.878583,11.37986 C 56.712783,11.21432 56.547083,11.29719 56.381383,11.62845 C 56.547083,11.62864 56.712783,11.54578 56.878583,11.37986 M 107.84018,63.08719 C 107.83998,63.25306 107.75718,63.66738 107.59158,64.33016 C 107.59148,63.99884 107.67428,63.58452 107.84018,63.08719 M 80.743483,37.23353 L 79.997683,35.49338 C 79.831883,36.15646 80.080483,36.73651 80.743483,37.23353 M 76.020283,33.25604 L 76.020283,33.00745 L 75.274483,33.00745 L 76.020283,33.25604 M 65.330783,16.10313 C 64.667783,17.26341 64.004883,19.8322 63.341983,23.80951 C 62.678983,24.4726 61.767483,25.13551 60.607483,25.79825 C 61.270383,25.30124 62.098983,25.13551 63.093383,25.30107 L 64.087783,23.80951 C 63.921983,22.98104 64.087683,22.1524 64.584983,21.32358 C 65.082083,20.32939 65.330683,18.58924 65.330783,16.10313 M 65.082183,22.56654 L 65.082183,23.31232 L 65.082183,23.80951 L 65.082183,22.56654 M 83.975183,43.94554 L 82.732283,41.21101 C 82.566483,41.70836 82.732183,42.28841 83.229483,42.95117 C 83.726583,43.61424 83.975183,43.94569 83.975183,43.94554 M 56.381383,14.61157 L 55.884183,16.60031 L 56.381383,15.85453 L 56.381383,14.61157 M 64.833583,24.0581 L 64.584983,24.55529 L 64.833583,24.55529 C 64.833483,24.55546 64.833483,24.38974 64.833583,24.0581 M 75.771683,34.99619 C 75.605883,34.83063 75.357283,34.74776 75.025883,34.7476 C 75.191483,34.91349 75.440083,34.99636 75.771683,34.99619 M 81.737883,41.95679 L 81.489283,40.96242 L 80.246283,39.71946 L 81.737883,41.95679 M 88.449883,45.68569 C 88.449783,46.84594 88.366983,48.58609 88.201283,50.90614 C 88.366983,49.74619 88.449783,48.00604 88.449883,45.68569 M 63.093383,21.07499 C 62.596183,21.40662 61.767483,21.57235 60.607483,21.57217 C 59.944483,21.24089 59.530183,21.24089 59.364483,21.57217 C 59.032983,21.57235 58.784383,21.48949 58.618783,21.32358 C 58.618683,21.32376 59.530183,21.15803 61.353283,20.82639 C 62.513283,20.49512 63.093383,20.32939 63.093383,20.32921 L 63.093383,17.0975 C 62.596183,17.26341 61.933283,17.18055 61.104683,16.84891 C 61.104583,16.84909 61.187483,16.6005 61.353283,16.10313 L 59.861683,16.10313 C 58.867283,15.93758 58.287183,16.35191 58.121583,17.34609 C 57.790083,19.00356 57.624283,19.8322 57.624383,19.83202 C 57.955783,20.16366 57.955783,20.41225 57.624383,20.5778 C 57.458583,21.24089 57.127083,22.23527 56.629983,23.56092 L 56.878583,23.56092 C 57.375683,24.55546 58.038583,24.88692 58.867283,24.55529 C 60.027383,24.22401 60.773183,24.05828 61.104683,24.0581 C 62.098983,23.89255 62.596183,23.56109 62.596183,23.06373 C 62.430483,23.06391 62.098983,22.89818 61.601883,22.56654 C 61.601783,22.56672 61.767483,22.40099 62.099083,22.06936 L 62.596183,22.56654 C 62.430483,21.90381 62.596183,21.40662 63.093383,21.07499 M 86.958283,52.64629 C 87.123983,50.16051 86.792483,46.68021 85.963983,42.20539 C 86.626783,43.6971 86.792483,45.76871 86.461183,48.42021 L 86.212583,48.42021 L 85.963983,45.1885 C 85.963883,43.36564 85.218083,41.29404 83.726583,38.97368 C 81.240583,35.32781 79.997683,33.5048 79.997683,33.50463 C 79.997683,33.5048 80.329083,34.25058 80.992083,35.74197 C 83.975183,42.70273 85.466683,47.1774 85.466783,49.16599 C 85.466683,50.98915 85.135183,52.64644 84.472383,54.13785 C 85.300983,53.97227 85.798183,53.39222 85.963983,52.3977 C 86.129583,51.40347 86.212483,50.49197 86.212583,49.66317 L 86.461183,49.66317 C 86.461083,49.66333 86.543883,50.6577 86.709783,52.64629 L 86.958283,52.64629 M 80.743483,44.44272 C 80.246283,43.11705 79.417583,41.12831 78.257583,38.47649 C 78.754683,39.13957 78.920383,40.13394 78.754783,41.45961 C 79.086183,42.12268 79.749083,43.11705 80.743483,44.44272 M 58.867283,13.12001 C 58.701583,13.28593 58.287183,13.36879 57.624383,13.36861 C 56.961383,13.36879 56.629983,13.70025 56.629983,14.36298 L 56.629983,14.11438 C 56.795683,14.11457 57.044283,14.19744 57.375783,14.36298 L 55.635583,22.06936 C 55.635583,22.73245 55.221283,23.47823 54.392683,24.30669 L 53.895483,24.0581 L 53.895483,24.55529 C 53.895383,24.05828 54.392583,24.4726 55.386983,25.79825 C 55.386983,25.79843 55.884183,22.56672 56.878583,16.10313 C 57.707183,15.10894 58.121483,14.61176 58.121583,14.61157 L 57.872983,14.86016 C 57.707183,14.86035 57.624283,14.77748 57.624383,14.61157 C 57.292883,14.11457 57.375683,13.78311 57.872983,13.6172 C 58.535783,13.45166 58.867283,13.28593 58.867283,13.12001 M 111.32048,54.38644 C 110.98888,52.23212 110.74028,51.07202 110.57468,50.90614 C 110.24308,49.58046 109.49728,48.75182 108.33728,48.42021 L 106.84578,46.92865 C 103.36538,46.59735 99.636483,47.92318 95.659083,50.90614 C 94.001683,51.23775 91.681483,52.06639 88.698483,53.39207 C 87.538283,53.22649 86.543883,53.80654 85.715383,55.13222 C 84.886683,56.29246 84.223683,57.03824 83.726583,57.36956 C 83.395083,57.70116 82.317883,58.44693 80.494883,59.60689 L 80.494883,59.85549 C 81.820683,60.02135 83.726583,59.85563 86.212583,59.3583 C 87.538283,58.5298 88.201183,58.11548 88.201283,58.11533 C 89.029883,57.61829 89.609883,56.62392 89.941483,55.13222 C 90.272783,53.64081 90.852883,52.64644 91.681583,52.1491 C 91.681483,52.14925 92.758783,51.8178 94.913283,51.15473 L 95.161883,51.40333 L 94.167483,52.3977 C 92.510183,52.7293 91.267183,53.39222 90.438683,54.38644 C 90.935683,55.87814 90.604283,57.28684 89.444283,58.61252 C 88.284083,59.77276 87.123983,60.93286 85.963983,62.09282 C 85.963883,63.25306 85.963883,63.91597 85.963983,64.08157 C 86.129583,65.40753 85.963883,67.23054 85.466783,69.55061 C 85.798183,69.8822 85.963883,70.7937 85.963983,72.28513 C 87.952583,70.62798 89.029883,67.72773 89.195683,63.58438 C 89.527083,63.08733 89.858483,62.25869 90.190083,61.09845 C 90.355683,60.93286 90.604283,60.85 90.935783,60.84986 L 93.421783,58.36393 C 93.587383,57.86688 93.504483,57.28684 93.173183,56.62378 C 93.670283,55.96101 94.498883,54.88377 95.659083,53.39207 C 95.824683,53.72367 95.658983,54.13799 95.161883,54.63503 C 94.664583,55.13237 94.415983,55.54669 94.416083,55.878 C 94.747483,57.20397 94.415983,58.86126 93.421783,60.84986 C 92.592983,62.67301 92.178683,64.0817 92.178783,65.07594 C 92.510183,65.40753 93.007383,65.82185 93.670383,66.3189 C 93.670283,66.31904 94.415983,66.15331 95.907683,65.82172 C 96.570483,64.66175 97.399183,62.75587 98.393583,60.10408 C 97.896283,60.10422 97.730583,59.6899 97.896383,58.86111 C 98.062083,58.36407 98.559283,57.78402 99.387983,57.12096 C 99.553583,56.95538 99.719383,57.03824 99.885183,57.36956 C 99.885083,58.36407 99.470783,59.77276 98.642183,61.59564 C 97.979183,63.41879 97.647683,64.91034 97.647783,66.07031 C 97.813483,66.4019 98.807783,66.73336 100.63098,67.06468 C 100.79658,67.06481 100.96228,66.48476 101.12808,65.32453 C 101.12798,64.66175 101.54238,63.91597 102.37108,63.08719 C 103.19968,62.25869 103.44818,61.43005 103.11688,60.60126 C 103.61398,60.43568 104.35978,60.43568 105.35418,60.60126 C 104.69118,61.43005 104.19398,61.84437 103.86268,61.84423 C 103.03388,64.66175 102.61958,66.65049 102.61968,67.81046 L 104.11128,68.05905 L 105.60278,67.06468 C 105.93418,65.73899 106.67988,63.99884 107.84018,61.84423 L 107.84018,61.59564 C 109.16588,61.43005 109.99448,60.51854 110.32608,58.86111 C 110.65738,57.20397 110.98888,55.71241 111.32048,54.38644 M 83.726583,52.3977 C 84.223683,48.25463 84.057983,45.68584 83.229483,44.69132 L 83.229483,45.93428 C 83.229383,45.93444 83.395083,48.08891 83.726583,52.3977 M 78.257583,48.6688 L 77.511783,42.20539 C 77.180283,41.3769 77.014583,39.55389 77.014583,36.73634 L 76.517383,38.72509 C 76.848783,40.87972 77.428883,44.19429 78.257583,48.6688 M 110.57468,75.76543 L 110.57468,75.51684 L 109.82888,75.51684 L 109.82888,75.76543 L 110.57468,75.76543 M 119.27538,84.96337 L 119.02678,84.21759 L 118.77818,84.21759 L 119.27538,84.96337 M 70.302583,33.75323 C 69.639583,33.25621 68.976683,33.00762 68.313883,33.00745 C 67.319383,33.33907 66.987983,33.91912 67.319483,34.7476 C 67.319383,35.41068 67.899483,35.65927 69.059683,35.49338 C 70.053983,34.99636 70.468283,34.41631 70.302583,33.75323 M 116.29228,82.47744 L 114.55218,79.99151 C 114.55208,79.66018 114.38628,79.16299 114.05498,78.49996 C 113.72338,78.33435 113.47478,77.83716 113.30918,77.0084 C 113.30908,76.84279 112.89478,76.67707 112.06618,76.51121 C 111.90038,76.34561 111.81748,76.17988 111.81758,76.01403 C 111.48608,75.84842 111.15458,76.01415 110.82328,76.51121 C 111.98328,76.84279 112.97758,77.83716 113.80638,79.49433 C 114.80058,80.98601 115.62928,81.98038 116.29228,82.47744 M 126.48458,92.17257 L 126.48458,92.17257 M 109.08308,74.52247 L 109.08308,74.27388 L 108.33728,74.27388 L 109.08308,74.52247 M 54.889883,16.84891 L 54.392683,16.84891 C 53.398183,16.68336 52.320983,17.18055 51.160983,18.34046 L 52.155283,19.33484 C 52.486683,19.8322 52.403883,20.66085 51.906683,21.82077 C 53.066783,21.82094 53.812583,21.15803 54.144083,19.83202 C 54.475483,17.84346 54.724083,16.84909 54.889883,16.84891 M 55.386983,18.58906 C 54.889783,19.74934 54.392583,21.40662 53.895483,23.56092 C 54.061183,23.39536 54.309783,22.98104 54.641283,22.31795 C 55.138383,21.65522 55.386983,20.41225 55.386983,18.58906 M 124.99308,92.42116 C 124.82718,91.59263 123.74998,89.93534 121.76138,87.4493 C 122.58988,88.44379 123.66708,90.10107 124.99308,92.42116 M 59.861683,26.04685 L 58.867283,26.04685 C 59.032983,26.21275 59.198683,26.29561 59.364483,26.29544 C 59.530183,26.29561 59.695883,26.21275 59.861683,26.04685 M 103.36548,69.55061 L 102.61968,69.55061 C 102.61958,70.04793 102.70248,70.29652 102.86828,70.29639 C 102.86818,70.29652 103.03388,70.04793 103.36548,69.55061 M 126.73318,93.66413 L 126.73318,93.41553 L 126.23598,92.91835 L 126.73318,93.66413 M 130.46208,98.387391 L 129.71628,96.647241 L 128.97058,95.652871 L 130.46208,98.387391 M 81.986483,55.13222 C 82.815083,51.15488 82.483583,47.09453 80.992083,42.95117 C 81.157783,45.60298 81.489183,49.66333 81.986483,55.13222 M 58.121583,25.79825 L 57.375783,25.05247 L 57.375783,25.79825 L 58.121583,25.79825 M 79.749183,49.66317 C 80.577683,47.50886 79.914783,44.77434 77.760383,41.45961 C 78.091783,43.77997 78.671783,47.34313 79.500583,52.1491 C 79.500483,51.65207 79.583283,50.82343 79.749183,49.66317 M 123.25288,91.67538 C 123.08708,91.01258 122.75558,90.51539 122.25848,90.18382 C 122.25838,90.68112 122.58988,91.17831 123.25288,91.67538 M 104.60838,73.03091 L 104.60838,72.03654 L 103.86268,72.03654 L 104.60838,73.03091 M 118.28108,88.19508 C 118.11518,87.20082 116.87218,85.29495 114.55218,82.47744 C 114.38628,81.64892 113.80628,80.65455 112.81198,79.49433 L 113.06058,80.73729 C 114.05488,82.3947 115.79498,84.88062 118.28108,88.19508 M 113.80638,83.47181 C 113.30908,82.1461 112.23188,80.32309 110.57468,78.00277 C 111.07178,79.32872 112.14898,81.15173 113.80638,83.47181 M 124.24728,94.409901 C 122.92128,92.25554 120.68398,89.02384 117.53528,84.71478 C 118.52948,87.03509 119.44098,89.02384 120.26978,90.68101 C 121.26408,91.01258 121.84408,91.50976 122.00998,92.17257 C 121.84408,92.3384 121.67838,92.42127 121.51278,92.42116 C 122.17558,92.91845 123.08708,93.58137 124.24728,94.409901 M 56.381383,26.29544 L 56.381383,24.80388 C 56.049883,25.46697 56.049883,25.96416 56.381383,26.29544 M 125.49028,94.907091 C 125.49008,94.741471 125.32438,94.492871 124.99308,94.16131 L 124.74448,94.658501 C 124.91008,94.824331 125.15868,94.907201 125.49028,94.907091 M 114.80078,85.70915 C 113.80628,84.05198 112.23188,81.73178 110.07748,78.74855 C 110.74028,80.57168 112.31468,82.89188 114.80078,85.70915 M 128.97058,99.381761 C 128.63898,97.724581 128.14178,96.564481 127.47898,95.901461 L 127.47898,96.647241 C 126.31878,96.647341 125.98728,96.564481 126.48458,96.398651 C 127.14738,97.061671 127.97608,98.056041 128.97058,99.381761 M 130.46208,101.86769 C 130.62768,101.37061 130.62768,100.79056 130.46208,100.12754 C 129.96478,99.299001 129.71618,98.801811 129.71628,98.635981 C 129.71618,98.636091 129.96478,99.713321 130.46208,101.86769 M 115.29788,87.20071 L 114.55218,86.45493 C 114.55208,86.45504 113.47478,85.54354 111.32048,83.72041 C 110.65738,82.06324 109.16588,79.66018 106.84578,76.51121 C 107.34288,77.67144 108.25438,79.24586 109.58028,81.23448 C 109.91168,83.72052 111.81748,85.70927 115.29788,87.20071 M 132.69948,105.84518 C 132.69928,105.01663 132.36788,103.77367 131.70508,102.11629 C 131.20778,102.61357 131.20778,103.27648 131.70508,104.10503 C 132.03638,104.60231 132.36788,105.18236 132.69948,105.84518 M 53.149683,22.81514 C 53.149683,22.81532 52.818183,22.98104 52.155283,23.31232 C 52.155283,23.3125 51.823783,23.14677 51.160983,22.81514 C 51.160883,22.81532 50.995183,23.80969 50.663783,25.79825 L 51.409583,25.79825 C 52.072383,25.79843 52.486683,25.46697 52.652483,24.80388 C 52.818183,24.14114 52.983883,23.47823 53.149683,22.81514 M 81.240683,56.62378 L 80.992083,49.91177 C 80.826283,54.55232 80.743383,56.95538 80.743483,57.12096 L 81.240683,56.62378 M 114.80078,89.43805 C 114.80058,89.43816 112.89478,87.69801 109.08308,84.21759 C 108.58578,82.22897 107.34288,79.49445 105.35418,76.01403 C 106.01698,78.50008 107.50858,81.98038 109.82888,86.45493 C 110.82318,87.28369 112.48038,88.27806 114.80078,89.43805 M 98.890783,73.5281 L 96.902083,69.7992 C 96.901983,69.46788 96.653383,68.88783 96.156283,68.05905 C 96.653383,70.21366 97.564883,72.03667 98.890783,73.5281 M 110.57468,84.96337 C 110.40878,84.30057 109.91168,83.3062 109.08308,81.98026 C 109.08298,82.64329 109.58018,83.63766 110.57468,84.96337 M 115.54648,88.94086 L 115.54648,88.69227 C 114.71778,87.86374 113.30908,86.86937 111.32048,85.70915 C 112.14898,86.70364 113.55768,87.78087 115.54648,88.94086 M 102.37108,78.99714 L 102.37108,76.51121 L 97.150683,68.80483 C 97.316283,68.97069 98.973583,71.9538 102.12248,77.75418 L 102.37108,78.99714 M 106.09998,83.969 L 105.35418,81.73166 C 105.35408,79.74304 104.60828,77.67144 103.11688,75.51684 C 101.79098,73.3625 100.46508,71.37375 99.139383,69.55061 L 98.393583,69.30202 C 99.222183,70.13079 100.63088,72.2024 102.61968,75.51684 C 102.61958,76.84279 103.03388,78.33435 103.86268,79.99151 C 105.18838,82.31183 105.93418,83.63766 106.09998,83.969 M 107.84018,84.96337 C 107.17708,83.47193 106.43138,81.2346 105.60278,78.25136 C 105.60268,80.0745 106.34848,82.31183 107.84018,84.96337 M 99.636583,80.98589 C 99.802183,78.99726 99.304983,76.75993 98.144983,74.27388 C 97.150583,72.28526 96.239083,70.29652 95.410483,68.30765 L 94.913283,68.30765 L 99.636583,80.98589 M 97.896383,78.25136 C 97.564883,77.42284 96.984783,76.26274 96.156283,74.77106 L 94.416083,69.05342 C 94.415983,68.55637 94.001683,68.22491 93.173183,68.05905 L 95.161883,73.5281 C 95.824683,74.68832 96.736183,76.26274 97.896383,78.25136 M 108.33728,88.94086 C 104.85688,87.11796 102.70248,84.7149 101.87388,81.73166 C 101.70808,79.57731 100.87948,77.17425 99.387983,74.52247 C 99.885083,75.35124 100.29938,77.33998 100.63098,80.4887 C 100.79658,82.97475 101.62518,84.7149 103.11688,85.70915 C 104.77408,86.53791 106.09988,87.36655 107.09438,88.19508 C 107.59148,88.52665 108.00578,88.77524 108.33728,88.94086 M 78.506183,57.61815 L 78.506183,54.63503 L 77.760383,57.61815 L 78.506183,57.61815 M 107.09438,86.70352 C 106.59708,86.20645 106.26558,85.79213 106.09998,85.46056 C 105.93418,85.12922 104.77408,83.05761 102.61968,79.24573 C 102.61958,80.57168 102.86818,82.1461 103.36548,83.969 C 103.69678,84.96349 104.93978,85.87499 107.09438,86.70352 M 81.986483,57.86674 C 80.660583,57.70116 79.168983,58.11548 77.511783,59.10971 L 81.986483,57.86674 M 100.63098,85.46056 C 99.967883,84.4663 99.304983,82.80902 98.642183,80.4887 C 97.979183,79.99163 97.399183,79.16299 96.902083,78.00277 C 94.415983,73.69395 92.758783,69.96506 91.930183,66.81609 C 91.598683,65.65612 91.350083,65.2418 91.184383,65.57312 L 90.935783,65.57312 C 91.267183,66.73336 92.344383,69.96506 94.167483,75.26825 C 95.990483,77.42284 98.144883,80.82028 100.63098,85.46056 M 98.890783,83.72041 C 98.393483,83.05761 97.813483,82.06324 97.150683,80.73729 C 95.327483,79.08013 93.918883,76.84279 92.924583,74.02528 C 91.930083,71.20803 91.101483,68.47351 90.438683,65.82172 C 89.941383,66.98195 89.941383,68.22491 90.438683,69.55061 C 91.267183,71.70521 91.681483,72.94817 91.681583,73.2795 C 92.178683,74.77119 94.581783,78.25149 98.890783,83.72041 M 84.720983,67.81046 C 84.886683,66.98195 84.638083,65.90472 83.975183,64.57875 C 83.312183,63.08733 82.980783,61.92723 82.980883,61.09845 L 82.732283,61.09845 C 82.897883,62.75587 83.560783,64.99321 84.720983,67.81046 M 54.144083,34.7476 L 53.149683,34.7476 C 52.652483,34.41631 52.486683,33.83626 52.652483,33.00745 C 52.320983,33.00762 51.989583,33.75339 51.658183,35.24478 C 52.983883,35.57641 53.812583,35.41068 54.144083,34.7476 M 90.687183,72.28513 L 90.438683,71.04217 L 89.941483,70.79357 L 90.687183,72.28513 M 51.409583,32.26167 L 51.409583,32.01308 L 51.160983,32.01308 C 50.663683,32.3447 50.497983,32.59329 50.663783,32.75885 C 51.160883,32.42757 51.409483,32.26184 51.409583,32.26167 M 79.749183,61.34704 L 79.749183,60.60126 L 79.500583,60.60126 L 79.500583,61.34704 L 79.749183,61.34704 M 77.263183,56.37518 C 76.434483,57.3697 75.108683,58.61266 73.285683,60.10408 C 73.285683,60.10422 73.617083,60.02135 74.280083,59.85549 C 74.445783,60.02135 74.528583,60.10422 74.528683,60.10408 C 74.362883,60.26995 74.197183,60.35281 74.031483,60.35267 L 75.025883,60.35267 C 75.688683,60.18708 76.102983,59.77276 76.268883,59.10971 C 76.102983,59.27558 75.771583,59.35844 75.274483,59.3583 C 75.937283,59.02698 76.600183,58.03261 77.263183,56.37518 M 80.246283,64.82734 C 80.246283,64.16457 80.163383,63.1702 79.997683,61.84423 C 79.831883,62.67301 79.914783,63.66738 80.246283,64.82734 M 83.975183,70.79357 C 83.477983,68.97069 82.815083,66.15331 81.986483,62.34141 L 81.489283,61.84423 C 82.317883,63.83311 83.063583,66.81622 83.726583,70.79357 L 83.975183,70.79357 M 50.912383,35.49338 C 50.912283,34.99636 50.663683,34.41631 50.166583,33.75323 C 49.835083,33.25621 49.586483,33.58767 49.420783,34.7476 C 49.917983,34.74776 50.415083,34.99636 50.912383,35.49338 M 82.732283,70.54498 C 82.400683,68.88783 81.737783,66.23617 80.743483,62.59001 C 80.743383,64.91034 81.406383,67.562 82.732283,70.54498 M 98.393583,84.46619 C 98.393483,84.30057 97.896283,83.80339 96.902083,82.97463 C 95.576083,81.48319 93.918883,79.08013 91.930183,75.76543 L 93.421783,79.24573 C 94.415983,80.73741 96.073283,82.47756 98.393583,84.46619 M 94.664683,81.98026 C 93.338783,80.98601 92.178683,79.16299 91.184383,76.51121 C 90.189983,73.69395 89.527083,71.87094 89.195683,71.04217 L 88.201283,72.03654 C 88.366983,73.03104 88.781283,74.35687 89.444283,76.01403 C 89.775583,78.83154 91.515783,80.82028 94.664683,81.98026 M 78.008983,51.90051 L 77.511783,48.9174 C 76.517383,46.43162 75.937283,42.78559 75.771683,37.97931 C 74.942883,37.97947 73.782783,37.81374 72.291383,37.48212 C 72.291283,37.48228 72.539883,37.23369 73.037083,36.73634 C 73.037083,36.73651 73.948583,36.90223 75.771683,37.23353 L 75.771683,35.99056 C 75.274383,35.825 74.611483,35.16209 73.782883,34.00182 C 73.948583,34.00199 74.611483,34.00199 75.771683,34.00182 C 75.274383,33.83626 74.445783,33.75339 73.285683,33.75323 C 73.285683,33.75339 73.037083,34.08485 72.539983,34.7476 L 72.042783,34.25041 C 72.374183,34.25058 72.042683,34.58204 71.048383,35.24478 C 69.556783,37.06796 67.319383,37.48228 64.336383,36.48775 C 64.004883,36.15646 64.004883,35.90786 64.336383,35.74197 C 64.999183,35.41068 65.330683,35.24495 65.330783,35.24478 C 65.496383,35.41068 65.993583,35.49354 66.822283,35.49338 L 66.325083,35.24478 C 66.159283,34.58204 66.407883,33.83626 67.070883,33.00745 L 64.833583,33.00745 C 64.833483,33.00762 64.667783,33.67053 64.336383,34.99619 C 64.170583,34.99636 63.839083,35.24495 63.341983,35.74197 C 63.507683,35.74214 63.756283,35.90786 64.087783,36.23916 C 63.756283,36.23932 63.424783,36.40505 63.093383,36.73634 C 62.596183,36.40505 62.513283,35.99073 62.844783,35.49338 C 63.176183,34.99636 63.259083,34.58204 63.093383,34.25041 C 62.927583,34.41631 62.513283,34.49917 61.850483,34.49901 C 61.850383,34.16771 62.016083,33.83626 62.347583,33.50463 C 62.181883,33.33907 61.933283,33.42194 61.601883,33.75323 C 61.436083,33.91912 61.104583,33.83626 60.607483,33.50463 C 60.607383,33.5048 60.690283,33.33907 60.856083,33.00745 L 59.364483,33.00745 C 59.198683,33.00762 59.032983,32.92475 58.867283,32.75885 C 58.867283,32.42757 58.535783,32.01324 57.872983,31.51589 C 57.872883,31.51606 57.127083,31.84752 55.635583,32.51026 C 55.635583,33.17334 55.635583,33.5048 55.635583,33.50463 C 55.966983,33.33907 56.298483,33.33907 56.629983,33.50463 C 56.464183,33.67053 56.298483,33.91912 56.132783,34.25041 C 55.469883,34.25058 55.055483,34.74776 54.889883,35.74197 C 54.889783,36.57078 54.641183,37.06796 54.144083,37.23353 C 54.309783,37.56515 54.392583,37.73088 54.392683,37.73071 C 54.392583,37.89661 54.061183,38.06233 53.398283,38.2279 C 52.901083,38.22806 52.652483,38.39379 52.652483,38.72509 C 53.315383,38.39379 53.895383,38.31093 54.392683,38.47649 C 54.226883,38.64238 54.061183,38.80811 53.895483,38.97368 C 53.895383,39.13957 53.149683,39.55389 51.658183,40.21664 C 51.326583,41.54263 50.580883,43.44851 49.420783,45.93428 L 47.183483,45.93428 C 47.017683,45.93444 46.851983,46.34876 46.686283,47.17725 C 47.017683,47.1774 47.431983,47.34313 47.929283,47.67443 C 47.763483,47.84031 47.763483,48.25463 47.929283,48.9174 C 48.426383,49.249 48.923583,49.41473 49.420783,49.41458 C 49.752183,49.41473 50.166483,49.249 50.663783,48.9174 C 51.658083,49.249 52.486683,49.08328 53.149683,48.42021 C 53.812583,47.59172 54.392583,46.84594 54.889883,46.18287 C 55.718383,46.34876 56.464183,45.93444 57.127183,44.93991 C 57.790083,43.77997 58.535783,43.28278 59.364483,43.44835 C 59.861683,44.27715 60.110283,44.69147 60.110283,44.69132 C 59.281583,45.35439 58.452983,45.52011 57.624383,45.1885 C 57.458583,45.52011 57.209983,45.85157 56.878583,46.18287 C 56.712783,46.51449 56.547083,46.84594 56.381383,47.17725 C 56.381383,47.50886 56.298483,47.84031 56.132783,48.17162 C 56.132783,47.67458 56.049883,47.09453 55.884183,46.43147 L 53.895483,48.6688 L 54.889883,49.41458 C 55.718383,49.58046 56.464183,49.33187 57.127183,48.6688 C 57.292883,48.66896 57.375683,48.75182 57.375783,48.9174 C 57.707183,48.91755 57.955783,48.75182 58.121583,48.42021 C 58.618683,48.75182 60.275983,48.50323 63.093383,47.67443 C 63.424783,46.84594 64.170583,45.60298 65.330783,43.94554 C 66.987983,44.27715 69.225283,45.02293 72.042783,46.18287 C 73.368483,47.67458 73.948583,49.33187 73.782883,51.15473 C 73.782783,51.8178 73.368483,52.7293 72.539983,53.88925 C 72.871283,52.89503 73.037083,51.23775 73.037083,48.9174 C 71.711183,46.76308 70.136783,45.60298 68.313883,45.43709 C 67.650883,45.43725 66.739383,45.27152 65.579383,44.93991 C 65.247783,46.43162 64.419183,48.50323 63.093383,51.15473 C 62.927583,51.32061 62.264683,51.8178 61.104683,52.64629 C 60.110283,53.47508 59.198683,53.72367 58.370183,53.39207 C 58.370083,53.06076 58.287183,52.56357 58.121583,51.90051 C 57.790083,51.73493 57.541483,51.8178 57.375783,52.1491 C 57.209983,52.31498 57.044283,52.48071 56.878583,52.64629 C 56.381383,52.31498 56.132783,52.23212 56.132783,52.3977 C 55.635583,52.06639 55.386983,51.32061 55.386983,50.16036 L 54.889883,50.16036 C 54.889783,50.32624 54.806883,50.57483 54.641283,50.90614 C 54.475483,52.39785 54.558283,53.30935 54.889883,53.64066 C 55.386983,54.46945 56.215583,54.96664 57.375783,55.13222 C 57.541483,55.96101 57.872883,57.03824 58.370183,58.36393 C 56.381383,61.01573 56.298483,63.91597 58.121583,67.06468 C 60.275983,67.89346 62.181883,68.22491 63.839183,68.05905 C 66.656483,65.73899 70.136783,61.92723 74.280083,56.62378 L 74.777283,57.12096 C 74.777183,57.28684 74.777183,57.3697 74.777283,57.36956 L 74.777283,57.36956 C 75.771583,56.54106 76.848783,54.71804 78.008983,51.90051 M 85.218183,74.27388 L 85.218183,70.79357 C 85.052383,71.29089 84.969483,71.87094 84.969583,72.53373 C 84.969483,73.19677 85.052383,73.77682 85.218183,74.27388 M 79.749183,66.56749 L 79.749183,64.33016 C 79.251883,63.83311 79.003283,63.50165 79.003383,63.33579 C 78.837583,63.99884 78.754683,64.33029 78.754783,64.33016 C 78.091783,64.66175 77.677483,64.82748 77.511783,64.82734 C 78.506083,63.33592 78.754683,62.0101 78.257583,60.84986 C 77.926083,61.51291 77.511683,62.50728 77.014583,63.83297 C 76.683083,65.15894 76.351583,66.15331 76.020283,66.81609 L 77.511783,69.30202 C 77.511683,68.47351 77.345983,67.97632 77.014583,67.81046 C 76.848783,66.48476 77.014583,65.65612 77.511783,65.32453 C 77.677483,66.48476 78.174683,68.22491 79.003383,70.54498 L 79.003383,66.81609 C 79.334783,66.48476 79.583283,66.4019 79.749183,66.56749 M 46.934883,33.00745 C 46.934783,32.84189 46.520483,32.67616 45.691883,32.51026 C 45.691883,32.3447 45.526083,32.09611 45.194683,31.76448 C 46.354783,31.4332 46.934783,31.26747 46.934883,31.2673 C 46.603383,30.77028 46.437683,30.52169 46.437683,30.52152 C 45.940483,30.68742 45.277583,30.68742 44.448983,30.52152 L 44.448983,31.2673 C 44.117483,31.26747 43.620283,31.35033 42.957383,31.51589 C 43.123083,32.17897 43.205883,32.51043 43.205983,32.51026 C 43.205883,32.51043 43.123083,32.51043 42.957383,32.51026 C 42.791583,32.51043 42.708783,32.42757 42.708783,32.26167 C 42.708783,32.42757 42.791583,32.84189 42.957383,33.50463 C 42.957383,33.33907 43.040183,33.17334 43.205983,33.00745 C 43.703083,33.33907 43.951683,34.00199 43.951783,34.99619 C 44.117483,34.99636 44.448883,34.91349 44.946083,34.7476 C 44.946083,34.74776 45.028983,34.99636 45.194683,35.49338 C 45.526083,35.65927 45.691883,35.57641 45.691883,35.24478 C 45.857583,34.74776 46.023283,34.49917 46.189083,34.49901 C 46.023283,34.49917 45.857583,34.58204 45.691883,34.7476 C 45.360383,34.41631 45.443283,34.08485 45.940483,33.75323 C 46.603383,33.25621 46.934783,33.00762 46.934883,33.00745 M 53.149683,36.48775 C 52.155283,36.48791 50.829483,36.07359 49.172183,35.24478 C 48.840683,35.74214 48.592083,35.99073 48.426383,35.99056 C 48.260683,35.65927 48.177783,35.41068 48.177883,35.24478 C 48.343483,35.07922 48.509283,34.99636 48.674983,34.99619 L 48.674983,33.75323 C 48.012083,34.08485 47.763483,34.91349 47.929283,36.23916 L 48.674983,36.23916 C 49.006383,36.57078 48.757883,37.56515 47.929283,39.22227 C 47.597783,41.21117 48.012083,42.78559 49.172183,43.94554 C 49.172183,43.94569 49.254983,43.6971 49.420783,43.19976 C 49.586483,42.537 49.917983,41.70836 50.415183,40.71383 C 50.912283,39.71962 51.243783,38.97384 51.409583,38.47649 C 50.912283,38.47665 50.249383,38.55952 49.420783,38.72509 C 49.586483,38.39379 49.752183,38.06233 49.917983,37.73071 C 50.746583,37.73088 51.243783,37.64801 51.409583,37.48212 L 50.415183,37.48212 C 50.249383,37.31656 50.083683,37.06796 49.917983,36.73634 C 50.746583,36.90223 51.823783,36.81937 53.149683,36.48775 M 75.274483,61.59564 C 74.777183,61.09859 74.197183,61.01573 73.534283,61.34704 C 72.705583,61.67864 72.042683,61.84437 71.545583,61.84423 L 71.545583,62.09282 C 72.539883,62.09296 73.782783,61.92723 75.274483,61.59564 M 77.511783,61.09845 L 76.517383,61.09845 C 76.517383,61.26432 75.854483,63.50165 74.528683,67.81046 C 75.025783,68.14205 75.771583,68.97069 76.765983,70.29639 C 76.434483,69.46788 75.937283,68.7221 75.274483,68.05905 C 75.108683,66.89909 75.357283,65.57326 76.020283,64.08157 C 76.848783,62.42442 77.345983,61.43005 77.511783,61.09845 M 80.246283,72.03654 C 80.246283,71.0423 80.163383,69.63361 79.997683,67.81046 C 79.831883,68.80496 79.914783,70.21366 80.246283,72.03654 M 95.907683,86.20634 C 95.576083,84.88062 94.415983,83.63766 92.427383,82.47744 C 93.255883,83.3062 94.415983,84.54917 95.907683,86.20634 M 60.856083,49.66317 C 60.524583,49.66333 60.027383,49.82905 59.364483,50.16036 C 59.861683,50.6577 60.193083,50.90629 60.358883,50.90614 C 60.358783,50.90629 60.524583,50.49197 60.856083,49.66317 M 83.477983,78.00277 C 83.146483,75.51697 82.234983,71.9538 80.743483,67.31327 C 80.743383,67.64486 80.826283,69.63361 80.992083,73.2795 C 81.157783,75.59983 81.986383,77.17425 83.477983,78.00277 M 71.048383,62.34141 L 71.048383,62.34141 M 42.708783,33.75323 C 42.377283,33.91912 42.211583,34.16771 42.211583,34.49901 C 42.542983,34.33344 42.708783,34.08485 42.708783,33.75323 M 46.934883,36.73634 L 45.194683,40.21664 L 45.940483,38.97368 L 46.934883,36.73634 M 46.437683,35.49338 C 45.774683,36.48791 44.863183,38.06233 43.703183,40.21664 C 44.863183,39.22243 45.774683,37.64801 46.437683,35.49338 M 71.296983,64.08157 C 70.965483,63.91597 70.468283,63.99884 69.805383,64.33016 C 70.136783,64.33029 70.633983,64.24743 71.296983,64.08157 M 73.534283,66.07031 C 73.202783,65.90472 72.788483,66.07044 72.291383,66.56749 C 71.959783,66.89909 71.711183,67.06481 71.545583,67.06468 L 73.285683,67.06468 C 73.451383,66.89909 73.534283,66.56763 73.534283,66.07031 M 72.788583,64.33016 C 71.628383,64.49602 70.136783,64.99321 68.313883,65.82172 C 70.136783,65.49039 71.628383,64.99321 72.788583,64.33016 M 85.466783,79.99151 L 85.466783,79.74292 L 84.720983,79.49433 L 85.466783,79.99151 M 45.940483,40.46524 C 45.443283,41.6255 45.194683,42.20555 45.194683,42.20539 C 45.691883,41.04545 45.940483,40.4654 45.940483,40.46524 M 70.799783,66.81609 C 70.468283,66.65049 70.053983,66.73336 69.556783,67.06468 C 69.556783,67.06481 69.971083,66.98195 70.799783,66.81609 M 71.545583,65.57312 C 70.385383,65.57326 68.810983,66.07044 66.822283,67.06468 C 67.982383,66.73336 69.556783,66.23617 71.545583,65.57312 M 46.437683,42.70257 C 45.940483,43.03419 45.691883,43.61424 45.691883,44.44272 L 46.437683,42.70257 M 46.934883,43.44835 C 45.940483,44.94006 45.526083,46.18303 45.691883,47.17725 L 46.934883,43.44835 M 50.912383,51.40333 C 50.580883,50.74056 50.083683,50.82343 49.420783,51.65192 C 49.420783,52.14925 49.586483,52.89503 49.917983,53.88925 C 49.752183,53.22649 49.917983,52.7293 50.415183,52.3977 C 50.415083,52.39785 50.497983,52.89503 50.663783,53.88925 C 50.663683,53.72367 50.663683,53.55794 50.663783,53.39207 L 50.912383,51.40333 M 51.658183,51.40333 C 51.492383,52.7293 51.326583,54.63518 51.160983,57.12096 C 51.989583,54.80091 52.155283,52.89503 51.658183,51.40333 M 33.262283,37.73071 C 33.262183,37.39942 33.179383,36.90223 33.013683,36.23916 C 32.847883,36.57078 32.930783,36.9851 33.262283,37.48212 C 33.096483,37.48228 33.013583,37.48228 33.013683,37.48212 L 33.262283,37.73071 M 54.889883,57.86674 C 54.558283,58.86126 54.392583,59.35844 54.392683,59.3583 C 54.724083,58.36407 54.889783,57.86688 54.889883,57.86674 M 52.652483,54.63503 C 51.989583,57.45256 51.658083,58.86126 51.658183,58.86111 C 52.320983,57.20397 52.652483,55.79528 52.652483,54.63503 M 53.149683,55.62941 C 52.818183,56.62392 52.320983,58.19834 51.658183,60.35267 L 52.155283,63.33579 C 52.818183,58.03261 53.149683,55.46382 53.149683,55.62941 M 53.646883,59.3583 L 52.901083,62.34141 L 53.646883,61.09845 L 53.646883,59.3583 M 55.635583,57.86674 C 55.138383,60.02135 54.392583,63.08733 53.398283,67.06468 C 54.061183,66.23617 54.806883,63.1702 55.635583,57.86674 M 28.787583,37.73071 L 28.787583,37.48212 C 28.456083,37.15083 28.207483,36.9851 28.041783,36.98493 L 28.787583,37.73071 M 53.646883,62.8386 C 53.481083,64.16457 53.398183,64.82748 53.398283,64.82734 C 53.563983,63.50165 53.646783,62.83874 53.646883,62.8386 M 36.493983,68.30765 L 36.245383,68.30765 L 35.996783,69.05342 L 36.493983,68.30765 M 34.753783,67.81046 L 34.505183,67.31327 C 34.173683,67.47914 33.593683,68.39064 32.765083,70.0478 C 33.262183,69.55074 33.925183,68.80496 34.753783,67.81046 M 34.256583,70.54498 C 33.759383,70.37938 33.345083,70.71084 33.013683,71.53935 L 34.256583,70.54498 M 28.290383,65.07594 L 27.793183,65.07594 C 27.130283,65.57326 26.135883,66.31904 24.810083,67.31327 C 26.301583,66.65049 27.461683,65.90472 28.290383,65.07594 M 31.522083,72.28513 L 30.279183,73.5281 L 31.024883,73.03091 L 31.522083,72.28513 M 26.798883,67.06468 C 25.970183,67.72773 24.727183,68.63923 23.069983,69.7992 C 23.069883,69.79933 23.152783,69.55074 23.318583,69.05342 C 22.655583,69.21928 21.909783,69.71647 21.081183,70.54498 C 22.075583,70.37938 22.489883,70.29652 22.324183,70.29639 L 22.075583,70.54498 C 22.406983,70.54511 23.981383,69.38501 26.798883,67.06468 M 25.555883,64.57875 C 25.390083,64.57889 24.478583,64.99321 22.821383,65.82172 C 21.826983,66.15331 21.329783,66.31904 21.329783,66.3189 C 21.992683,66.15331 22.738483,65.57326 23.567083,64.57875 C 23.235683,65.07607 21.826983,65.73899 19.341083,66.56749 C 19.672483,66.4019 20.086783,66.48476 20.583983,66.81609 C 19.921083,66.98195 18.512383,67.39627 16.357983,68.05905 C 19.672483,68.7221 22.738483,67.562 25.555883,64.57875 M 29.533383,74.27388 C 28.870383,74.93692 28.538983,75.26837 28.538983,75.26825 L 29.533383,74.27388 M 32.019283,69.30202 C 28.207483,72.61672 24.892983,75.10264 22.075583,76.75981 C 22.241283,76.75993 24.727183,75.51697 29.533383,73.03091 C 29.533383,72.53385 29.947683,71.9538 30.776283,71.29076 C 31.604983,70.62798 32.019283,69.96506 32.019283,69.30202 M 27.047483,72.28513 L 25.804483,73.5281 L 26.301683,73.5281 L 27.047483,72.28513 M 31.024883,65.57312 L 30.527783,65.57312 L 25.555883,70.79357 L 18.346683,74.27388 L 17.103683,76.01403 L 23.567083,72.78232 C 25.555883,71.45662 28.041783,69.05356 31.024883,65.57312 M 31.770683,66.56749 C 30.279083,67.562 28.207483,69.38501 25.555883,72.03654 C 21.909783,73.85968 19.175283,75.51697 17.352283,77.0084 C 18.678083,76.34561 20.086783,75.93129 21.578383,75.76543 C 26.550183,72.11953 29.947683,69.05356 31.770683,66.56749 M 28.290383,66.81609 C 26.798783,68.80496 23.318483,70.95943 17.849483,73.2795 L 17.352283,74.02528 C 19.341083,73.19677 21.412683,72.28526 23.567083,71.29076 C 25.721583,70.13079 27.295983,68.63923 28.290383,66.81609 M 30.279183,78.00277 C 29.947683,78.00289 29.367583,78.16862 28.538983,78.49996 C 28.870383,78.50008 29.450483,78.33435 30.279183,78.00277 M 36.245383,69.7992 C 33.759383,72.11953 29.864783,74.85405 24.561483,78.00277 L 24.312883,77.75418 C 24.478583,77.58857 24.810083,77.33998 25.307283,77.0084 C 25.307283,77.00852 24.064283,77.58857 21.578383,78.74855 C 22.406983,78.58294 22.821283,78.50008 22.821383,78.49996 C 22.655583,78.66581 21.826983,79.08013 20.335383,79.74292 C 19.672483,80.0745 19.175283,80.73741 18.843883,81.73166 C 18.512383,82.72615 18.180983,83.38907 17.849483,83.72041 C 19.341083,81.40033 22.489883,79.41158 27.295983,77.75418 C 29.118983,77.09139 32.102083,74.43973 36.245383,69.7992 M 25.555883,76.01403 C 25.224383,76.17988 24.892983,76.26274 24.561483,76.26262 C 24.727183,76.26274 25.058683,76.17988 25.555883,76.01403 M 38.234083,69.30202 C 37.902583,69.13642 37.736883,69.05356 37.736883,69.05342 L 32.019283,75.01965 C 30.859183,76.17988 29.201883,77.33998 27.047483,78.49996 C 24.229983,79.82591 22.406983,80.82028 21.578383,81.48307 C 20.749683,81.98038 18.843883,84.05198 15.860783,87.69789 C 17.020883,87.36655 18.098083,86.37218 19.092483,84.71478 C 20.252583,83.05761 20.998283,82.06324 21.329783,81.73166 C 23.815683,80.40596 27.461683,78.41721 32.267883,75.76543 C 33.759383,74.43973 35.748183,72.28526 38.234083,69.30202 M 23.318583,75.01965 C 22.987083,75.18551 22.904183,75.4341 23.069983,75.76543 C 23.235683,75.59983 23.318483,75.35124 23.318583,75.01965 M 25.804483,80.4887 C 25.307283,80.98601 24.561483,81.64892 23.567083,82.47744 C 24.064283,81.98038 24.810083,81.31746 25.804483,80.4887 M 21.826983,77.75418 C 20.998283,77.42284 20.003983,77.83716 18.843883,78.99714 C 19.506783,78.50008 20.501083,78.08576 21.826983,77.75418 M 17.849483,78.00277 C 17.020883,78.00289 16.192183,78.50008 15.363583,79.49433 C 15.694983,79.16299 16.523683,78.66581 17.849483,78.00277 M 23.567083,81.23448 C 22.075583,82.06324 20.583983,84.05198 19.092483,87.20071 C 19.092483,87.20082 19.589583,86.70364 20.583983,85.70915 C 20.583983,85.04635 20.998283,84.30057 21.826983,83.47181 C 22.821283,82.47756 23.401383,81.73178 23.567083,81.23448 M 136.17978,133.68759 L 134.43958,118.77201 L 130.71068,106.34237 L 123.99868,94.658501 C 122.83848,93.99569 121.09828,92.91845 118.77818,91.42679 C 118.77808,91.75836 118.69528,92.08981 118.52968,92.42116 C 118.36378,92.08981 118.03228,91.75836 117.53528,91.42679 C 116.37508,90.92971 114.71778,90.2668 112.56338,89.43805 L 108.08868,85.46056 C 108.75158,86.62077 109.82878,88.19519 111.32048,90.18382 C 111.48608,90.34966 111.81748,90.59826 112.31478,90.9296 C 112.97758,91.09544 113.14338,91.4269 112.81198,91.92397 C 111.98328,91.92408 111.48608,91.84122 111.32048,91.67538 C 111.32028,91.50976 110.07738,90.76398 107.59158,89.43805 C 107.59148,89.43816 105.60268,88.11233 101.62528,85.46056 C 101.29378,86.28932 101.45948,87.20082 102.12248,88.19508 C 102.95108,89.18956 103.36538,89.76961 103.36548,89.93523 L 103.11688,89.93523 C 103.11678,89.93534 101.95668,88.44379 99.636583,85.46056 L 99.387983,85.46056 C 99.222183,85.6264 99.304983,85.95786 99.636583,86.45493 C 98.973583,85.95786 97.979183,85.6264 96.653483,85.46056 C 96.487583,85.95786 96.570483,86.53791 96.902083,87.20071 C 97.233383,87.86374 97.399183,88.27806 97.399283,88.44367 L 97.399283,88.69227 C 96.736183,87.86374 95.824683,86.70364 94.664683,85.21197 C 91.184283,82.72615 89.112683,80.40596 88.449883,78.25136 C 88.615483,78.08576 88.698383,78.00289 88.698483,78.00277 C 88.864083,78.66581 89.609883,79.66018 90.935783,80.98589 C 90.438583,79.16299 89.361283,76.51134 87.704083,73.03091 C 87.703983,73.85968 87.869783,75.10264 88.201283,76.75981 C 88.532683,77.09139 88.698383,77.50571 88.698483,78.00277 C 88.698383,78.00289 88.366983,77.42284 87.704083,76.26262 C 87.538283,78.25149 88.284083,80.15736 89.941483,81.98026 C 91.764383,83.63766 93.504483,85.21208 95.161883,86.70352 L 94.913283,86.95212 C 92.427283,85.79213 88.946983,83.63766 84.472383,80.4887 L 80.743483,76.26262 C 80.743383,74.93692 79.997683,73.44536 78.506183,71.78795 C 76.683083,71.62235 75.274383,70.46225 74.280083,68.30765 L 66.573683,68.30765 C 63.424783,69.30215 61.270383,69.55074 60.110283,69.05342 C 59.778783,69.05356 59.364483,68.80496 58.867283,68.30765 C 56.049883,68.63923 52.155283,69.55074 47.183483,71.04217 C 44.531783,71.53948 41.548683,72.86531 38.234083,75.01965 C 35.582383,76.67707 32.930783,78.50008 30.279183,80.4887 C 27.627483,82.31183 23.815683,85.6264 18.843883,90.43242 C 18.346683,91.75836 17.103683,93.33278 15.114983,95.155681 C 13.126183,98.138901 10.060283,104.8509 5.9170833,115.29171 C 5.4198833,118.60637 4.8397833,121.92094 4.1768833,125.23543 C 3.5139833,129.21299 3.3482833,132.69329 3.6796833,135.67633 C 3.5139833,142.30554 6.1655833,151.91779 11.634683,164.51311 C 13.126183,166.99908 16.192183,171.22515 20.832583,177.19135 C 23.152783,180.17449 29.781883,185.14634 40.720083,192.10693 C 40.719983,192.10694 46.023283,193.76422 56.629983,197.07879 C 63.424783,198.07316 68.976683,198.48748 73.285683,198.32175 C 76.434483,198.15603 80.991983,197.49311 86.958283,196.33301 C 92.924483,195.17292 99.056383,192.52126 105.35418,188.37804 C 112.14898,184.89775 119.60678,177.19138 127.72758,165.25889 C 134.02508,151.17201 136.84248,140.64825 136.17978,133.68759 M 19.341083,79.49433 C 18.678083,79.82591 18.015183,80.73741 17.352283,82.22885 C 16.855083,83.72052 16.606483,84.4663 16.606483,84.46619 C 17.103683,82.97475 18.015183,81.31746 19.341083,79.49433 M 86.709783,26.29544 C 86.046783,25.46697 84.886683,24.63833 83.229483,23.80951 L 82.732283,23.31232 C 84.720883,23.80969 86.046783,24.80406 86.709783,26.29544 M 81.489283,23.06373 L 80.992083,22.56654 C 81.157783,22.56672 81.323483,22.64959 81.489283,22.81514 L 81.489283,23.06373 M 79.749183,22.06936 C 79.583283,22.56672 79.086183,22.56672 78.257583,22.06936 L 79.749183,22.06936 M 74.777283,21.07499 C 74.777183,21.24089 74.777183,21.40662 74.777283,21.57217 L 72.291383,20.82639 C 72.788483,20.82657 73.617083,20.90944 74.777283,21.07499 M 60.358883,19.33484 C 60.358783,19.50075 60.358783,19.66647 60.358883,19.83202 C 60.193083,19.8322 60.027383,19.74934 59.861683,19.58343 C 60.027383,19.41788 60.193083,19.33502 60.358883,19.33484 M 69.308283,34.00182 C 69.308183,34.16771 69.225283,34.41631 69.059683,34.7476 C 69.059583,34.74776 68.810983,34.49917 68.313883,34.00182 C 68.313783,33.83626 68.396683,33.67053 68.562483,33.50463 C 69.059583,33.5048 69.308183,33.67053 69.308283,34.00182 M 74.528683,39.96805 C 74.528583,39.96821 74.445783,40.38253 74.280083,41.21101 C 72.954183,41.3769 72.208383,41.04545 72.042783,40.21664 C 72.042683,40.2168 72.291283,39.80248 72.788583,38.97368 C 73.119883,38.97384 73.534283,39.13957 74.031483,39.47086 C 73.699983,39.80248 73.451383,40.13394 73.285683,40.46524 C 73.451383,40.63112 73.617083,40.71399 73.782883,40.71383 C 73.782783,40.38253 74.031383,40.13394 74.528683,39.96805 M 70.799783,37.23353 L 69.805383,37.97931 L 69.556783,37.97931 L 70.799783,37.23353 M 68.562483,37.97931 C 67.733783,37.97947 66.573683,38.22806 65.082183,38.72509 C 65.082083,38.72525 65.247783,38.80811 65.579383,38.97368 C 65.247783,39.3053 64.833483,39.3053 64.336383,38.97368 C 63.839083,38.80811 63.341983,38.31093 62.844783,37.48212 C 63.341983,37.31656 64.004883,37.48228 64.833583,37.97931 L 68.562483,37.97931 M 61.601883,34.99619 C 61.601783,34.99636 61.436083,35.16209 61.104683,35.49338 L 61.104683,35.49338 C 60.938883,35.32781 61.104583,35.16209 61.601883,34.99619 M 61.104683,34.25041 C 60.938883,34.74776 60.607383,35.24495 60.110283,35.74197 C 59.944483,35.41068 60.275983,34.91349 61.104683,34.25041 M 57.375783,33.50463 L 56.878583,33.50463 L 57.127183,33.00745 C 57.292883,33.17334 57.375683,33.33907 57.375783,33.50463 M 71.296983,48.6688 C 70.633983,47.34313 69.722483,46.43162 68.562483,45.93428 C 69.059583,45.93444 69.971083,46.84594 71.296983,48.6688 M 56.878583,34.00182 C 56.878483,34.16771 56.795683,34.41631 56.629983,34.7476 L 56.381383,34.7476 C 56.547083,34.25058 56.712783,34.00199 56.878583,34.00182 M 61.353283,38.97368 C 61.353183,39.13957 61.270383,39.3053 61.104683,39.47086 L 61.104683,39.47086 C 61.104583,39.3053 61.187483,39.13957 61.353283,38.97368 M 64.833583,43.94554 C 64.004883,43.44851 62.927583,43.44851 61.601883,43.94554 C 61.436083,44.11142 61.270383,44.11142 61.104683,43.94554 C 61.270383,43.94569 61.436083,43.61424 61.601883,42.95117 C 61.933283,42.95132 62.016083,42.03982 61.850483,40.21664 C 61.684683,39.88535 61.601783,39.71962 61.601883,39.71946 L 62.099083,39.22227 C 62.596183,40.2168 63.507683,41.79122 64.833583,43.94554 M 60.358883,39.22227 C 60.358783,39.38816 60.358783,39.55389 60.358883,39.71946 C 60.193083,39.71962 60.027383,39.63675 59.861683,39.47086 C 60.027383,39.3053 60.193083,39.22243 60.358883,39.22227 M 64.833583,52.1491 C 64.667783,52.48071 64.419183,52.89503 64.087783,53.39207 L 63.341983,52.89488 L 64.087783,52.64629 L 63.839183,52.1491 L 64.833583,52.1491 M 45.443283,33.50463 C 45.443283,33.67053 45.277583,33.83626 44.946083,34.00182 C 44.780383,34.16771 44.614583,34.16771 44.448983,34.00182 C 44.448883,33.83626 44.780383,33.67053 45.443283,33.50463 M 58.121583,47.67443 C 57.955783,47.50886 57.790083,47.42599 57.624383,47.42584 C 57.458583,47.59172 57.292883,47.67458 57.127183,47.67443 C 57.292883,47.67458 57.458583,47.67458 57.624383,47.67443 C 57.955783,47.50886 58.121483,47.34313 58.121583,47.17725 C 58.121483,47.1774 58.121483,47.34313 58.121583,47.67443 M 63.093383,53.64066 L 62.844783,53.39207 C 62.844783,53.39222 62.927583,53.39222 63.093383,53.39207 L 63.093383,53.64066 M 62.596183,53.88925 C 62.596183,54.22086 62.596183,54.38659 62.596183,54.38644 C 62.264683,54.55232 61.933283,54.38659 61.601883,53.88925 C 61.933283,53.8894 62.264683,53.8894 62.596183,53.88925 M 61.850483,54.88363 C 61.518883,55.0495 61.270383,54.88377 61.104683,54.38644 C 61.104583,54.38659 61.353183,54.55232 61.850483,54.88363 L 61.850483,54.88363 M 60.856083,55.13222 L 60.607483,55.38081 C 60.275983,55.38096 59.944483,55.13237 59.613083,54.63503 C 59.944483,54.63518 60.358783,54.80091 60.856083,55.13222 M 49.172183,47.42584 C 49.172183,47.42599 49.089283,47.59172 48.923583,47.92302 L 48.674983,47.92302 C 48.674983,47.42599 48.840683,47.26026 49.172183,47.42584 M 61.601883,65.82172 C 61.270383,66.31904 61.104583,66.56763 61.104683,66.56749 C 60.938883,66.56763 60.358783,66.56763 59.364483,66.56749 C 58.867283,66.4019 58.701583,65.65612 58.867283,64.33016 C 58.867283,64.82748 59.198683,65.2418 59.861683,65.57312 C 59.695883,65.90472 60.027383,66.07044 60.856083,66.07031 C 61.353183,65.73899 61.518883,65.57326 61.353283,65.57312 C 61.518883,65.57326 61.601783,65.65612 61.601883,65.82172"
       id="text1343" />
  </g>
</svg>
