<?xml version="1.0" encoding="UTF-8" standalone="no"?>
<!-- Created with Inkscape (http://www.inkscape.org/) -->

<svg
   xmlns:dc="http://purl.org/dc/elements/1.1/"
   xmlns:cc="http://creativecommons.org/ns#"
   xmlns:rdf="http://www.w3.org/1999/02/22-rdf-syntax-ns#"
   xmlns:svg="http://www.w3.org/2000/svg"
   xmlns="http://www.w3.org/2000/svg"
   xmlns:sodipodi="http://sodipodi.sourceforge.net/DTD/sodipodi-0.dtd"
   xmlns:inkscape="http://www.inkscape.org/namespaces/inkscape"
   width="188.93155"
   height="134.07172"
   id="svg9030"
   version="1.1"
   inkscape:version="0.48.1 r9760"
   sodipodi:docname="New document 6">
  <defs
     id="defs9032" />
  <sodipodi:namedview
     id="base"
     pagecolor="#ffffff"
     bordercolor="#666666"
     borderopacity="1.0"
     inkscape:pageopacity="0.0"
     inkscape:pageshadow="2"
     inkscape:zoom="0.35"
     inkscape:cx="1089.4658"
     inkscape:cy="-461.53557"
     inkscape:document-units="px"
     inkscape:current-layer="layer1"
     showgrid="false"
     fit-margin-top="0"
     fit-margin-left="0"
     fit-margin-right="0"
     fit-margin-bottom="0"
     inkscape:window-width="1392"
     inkscape:window-height="929"
     inkscape:window-x="1920"
     inkscape:window-y="0"
     inkscape:window-maximized="1" />
  <metadata
     id="metadata9035">
    <rdf:RDF>
      <cc:Work
         rdf:about="">
        <dc:format>image/svg+xml</dc:format>
        <dc:type
           rdf:resource="http://purl.org/dc/dcmitype/StillImage" />
        <dc:title></dc:title>
      </cc:Work>
    </rdf:RDF>
  </metadata>
  <g
     inkscape:label="Layer 1"
     inkscape:groupmode="layer"
     id="layer1"
     transform="translate(714.46578,63.245103)">
    <g
       style="overflow:visible"
       id="g36469"
       transform="matrix(0.28903599,0,0,0.28903599,-714.46578,-36.406754)">
      <path
         style="fill:#707070;fill-rule:evenodd"
         id="path3-4"
         d="m 173.017,31.512 c -2.14,1.704 -3.894,4.284 -5.738,6.313 2.924,1.158 16.071,-3.408 17.358,-5.166 3.741,-5.112 -7.874,-7.681 -11.62,-1.147"
         inkscape:connector-curvature="0" />
      <path
         style="fill:#cfcfcf;fill-rule:evenodd"
         id="path5-7"
         d="m 181.48,34.524 c -1.883,1.354 -3.399,3.496 -5.021,5.165 15.638,0.205 28.733,3.715 41.032,-5.883 -11.912,0.286 -24.356,1.027 -36.011,0.718"
         inkscape:connector-curvature="0" />
      <path
         style="fill:#9e9e9e;fill-rule:evenodd"
         id="path7-1"
         d="m 62.693,69.673 c -1.9,2.455 -3.285,5.508 -4.877,8.178 6.293,2.442 16.993,3.542 23.671,2.438 9.37,-1.548 9.85,-6.307 15.064,-15.063 -11.286,1.482 -22.572,2.964 -33.858,4.447"
         inkscape:connector-curvature="0" />
      <path
         style="fill:#a8a8a8;fill-rule:evenodd"
         id="path9-5"
         d="m 69.436,45.284 c -0.287,1.148 -0.574,2.295 -0.861,3.443 16.283,-0.585 19.648,-4.146 20.803,11.047 4.342,-0.101 8.749,-0.099 13.055,-0.43 0.445,4.825 0.85,9.726 1.435,14.489 3.828,-0.723 3.854,-2.812 5.021,-4.592 0.963,-1.469 -1.731,-5.247 -0.717,-6.743 0.934,-1.378 4.166,-2.009 5.738,-3.299 3.671,-3.012 10.933,-3.196 10.545,-8.608 -0.357,-4.975 -0.259,-10.073 -0.215,-15.064 -18.406,4.548 -35.844,9.896 -54.804,9.757"
         inkscape:connector-curvature="0" />
      <path
         style="fill:#cfcfcf;fill-rule:evenodd"
         id="path11-9"
         d="m 149.058,41.411 c -12.194,7.747 -24.389,15.494 -36.583,23.24 14.073,3.519 21.327,8.59 32.997,0.145 10.019,-7.251 20.006,-14.566 30.127,-21.664 -8.814,-0.804 -17.733,-1.071 -26.541,-1.721"
         inkscape:connector-curvature="0" />
      <path
         style="fill:#707070;fill-rule:evenodd"
         id="path13-4"
         d="m 123.377,28.068 c 5.451,6.801 3.772,13.873 3.731,23.672 8.483,-3.308 2.241,-10.716 6.599,-16.067 3.115,-3.824 17.711,-3.853 21.232,-2.583 2.87,1.035 -1.943,5.22 2.87,5.165 6.375,-0.072 1.723,-1.311 4.591,-4.448 1.922,-2.102 3.111,-4.25 4.591,-6.886 -14.534,0.44 -29.078,0.752 -43.614,1.147"
         inkscape:connector-curvature="0" />
      <path
         style="fill:#666666;fill-rule:evenodd"
         id="path15-4"
         d="m 75.749,179.709 c -4.995,19.777 5.99,32.551 25.967,31.274 17.976,-1.148 27.404,-8.358 36.44,-22.954 -5.066,0.846 -10.231,1.504 -15.279,2.512 -4.651,0.929 -7.699,7.866 -13.198,10.257 -17.198,7.477 -33.238,-2.649 -33.93,-21.089"
         inkscape:connector-curvature="0" />
      <path
         style="fill:#a8a8a8;fill-rule:evenodd"
         id="path17-2"
         d="m 134.855,165.075 c -11.135,4.761 -14.233,9.158 -23.456,3.014 -6.915,-4.605 -20.77,-4.852 -27.904,-0.717 -8.257,4.785 -13.821,14.943 -12.553,24.245 1,7.337 2.888,15.464 -5.092,6.742 -28.385,-31.021 47.022,-63.617 69.005,-33.284"
         inkscape:connector-curvature="0" />
      <path
         style="fill:#cfcfcf;fill-rule:evenodd"
         id="path19-0"
         d="m 212.899,154.747 c 3.033,8.303 7.143,39.897 19.798,34.432 4.926,-2.127 6.593,-13.039 9.11,-18.58 7.097,-15.613 14.379,-31.349 22.309,-46.553 -16.104,12.616 -21.499,35.77 -29.697,54.229 -4.812,-10.046 -9.809,-20.013 -14.776,-29.982 -1.962,2.29 -4.976,4.602 -6.744,6.454"
         inkscape:connector-curvature="0" />
      <path
         style="fill:#fabc1c;fill-rule:evenodd"
         id="path21-0"
         d="m 257.947,34.956 c -0.198,6.802 0.205,13.645 -1.722,20.228 5.832,-4.936 11.691,-9.491 18.65,-12.769 5.114,-2.409 14.746,-3.46 18.793,-7.459 1.412,-1.396 -0.766,-5.849 0.862,-7.605 1.561,-1.684 5.643,-2.749 7.675,-3.729 6.406,-3.093 12.819,-6.729 19.438,-9.325 2.776,-1.089 16.599,-3.397 17.359,-6.168 2.462,-8.966 -22.675,1.913 -24.747,2.869 -9.858,4.55 -38.738,13.218 -39.381,22.954 -0.639,-1.867 -2.438,-3.323 -3.156,-5.165 -2.565,5.789 -7.883,7.515 -13.771,6.169"
         inkscape:connector-curvature="0" />
      <path
         style="fill:#fabc1c;fill-rule:evenodd"
         id="path23-0"
         d="m 95.977,183.44 c 31.241,-3.483 54.833,-16.494 81.931,-31.706 30.641,-17.202 60.993,-35.363 90.225,-54.804 27.044,-17.986 54.642,-35.146 83.783,-49.358 9.196,-4.484 16.629,-12.753 25.966,-17.423 4.353,-2.177 20.937,-15.821 26.398,-13.701 9.219,3.579 -8.01,12.329 -12.052,14.059 -12.11,5.184 -23.634,11.809 -35.291,17.933 -8.109,4.261 -16.102,8.741 -24.126,13.167 -2.597,1.433 2.515,6.977 0.74,8.927 -1.361,1.496 -6.088,2.566 -7.962,3.371 -10.807,4.636 -19.074,10.274 -28.621,16.857 -14.831,10.226 -31.045,17.676 -47.415,24.964 -19.568,8.712 -33.887,23.567 -52.148,33.713 -5.102,2.835 -8.432,7.701 -13.414,10.688 -9.463,5.674 -20.56,9.596 -30.629,14.132 -19.953,8.988 -39.915,14.143 -61.402,18.363 1.36,-2.978 2.398,-6.373 4.017,-9.182"
         inkscape:connector-curvature="0" />
      <path
         style="fill:#9fc4b3;fill-rule:evenodd"
         id="path25-0"
         d="m 1.147,69.673 c 10.508,3.226 22.757,9.404 33.703,10.105 14.008,0.898 13.859,2.287 21.531,-6.52 1.67,-1.917 2.307,-5.574 4.304,-7.173 2.792,-2.235 13.518,-1.44 13.229,-5.419 -0.426,-5.884 -6.716,-11.559 -5.984,-14.02 1.671,-5.622 13.017,-6.882 18.159,-8.659 6.91,-2.389 13.821,-4.778 20.731,-7.167 1.584,-0.547 3.693,2.429 4.938,1.838 2.326,-1.103 2.644,-6.958 5.021,-7.891 10.754,-4.216 28.455,-1.709 40.083,-2.407 4.204,-0.253 8.712,6.579 12.826,4.988 8.282,-3.203 8.792,-4.286 16.148,0.548 5.709,3.751 2.472,7.1 9.975,6.469 7.896,-0.665 15.792,-1.33 23.688,-1.994 0.287,3.874 0.575,7.748 0.862,11.621 6.503,-3.634 13.007,-7.269 19.51,-10.903 -14.076,-2.54 -28.348,-4.464 -42.32,-7.46 -8.682,-1.861 -15.426,-3.618 -23.413,-7.542 -16.079,-7.898 -18.039,-7.25 -35.227,-2.764 -28.376,7.404 -53.273,15.125 -80.135,26.71 -19.591,8.45 -38.06,19.393 -57.629,27.64"
         inkscape:connector-curvature="0" />
      <path
         style="fill:#9fc4b3;fill-rule:evenodd"
         id="path27-8"
         d="m 23.097,94.493 c 25.495,16.347 60.777,36.594 90.956,41.029 14.932,2.194 32.824,4.953 47.917,4.376 14.72,-0.563 23.667,-7.69 35.579,-15.853 13.073,-8.957 30.184,-18.031 40.241,-30.342 4.848,-5.933 20.238,-39.534 18.436,-46.553 -2.59,-10.083 -13.378,-0.179 -19.225,2.869 -8.1,4.223 -16.221,8.398 -24.316,12.624 C 195.486,71.619 175.283,76.323 157.021,82.8 131.015,92.024 95.065,93.988 67.572,93.058 45.522,92.312 23.306,83.776 1.579,79.714 c 7.144,4.667 15.186,9.771 21.518,14.779"
         inkscape:connector-curvature="0" />
      <path
         style="fill-rule:evenodd"
         id="path29-1"
         d="m 412.026,18.458 c -2.133,-13.997 -27.338,2.208 -31.777,4.805 -16.303,9.535 -31.908,20.16 -47.661,30.562 -3.546,2.341 -8.24,3.999 -10.226,4.515 -0.619,0.161 -0.848,-2.536 -1.147,-2.439 -9.176,2.946 -20.295,12.339 -29.367,18.209 -32.951,21.322 -66.527,41.583 -99.846,62.311 -26.465,16.466 -60.615,39.681 -91.864,44.149 -15.07,2.155 -3.654,26.923 -5.595,2.438 22.759,3.417 58.636,-19.077 76.753,-28.693 29.881,-15.861 58.656,-35.394 87.566,-53.213 15.35,-9.461 31.305,-18.619 45.425,-28.99 4.645,-3.412 10.476,-10.32 15.351,-12.338 2.088,-0.864 1.568,4.154 4.877,3.013 9.25,-3.191 23.781,-15.658 33.427,-21.09 11.809,-6.649 32.069,-23.547 46.195,-24.674 3.048,-0.244 -1.43,12.882 7.889,1.435"
         inkscape:connector-curvature="0" />
      <path
         style="fill-rule:evenodd"
         id="path31-7"
         d="m 403.13,25.631 c -6.24,-2.931 -32.036,15.179 -39.148,19.075 -10.205,5.591 -26.373,10.792 -34.018,19.946 11.235,-2.567 24.347,-11.542 35.006,-17.216 9.75,-5.19 31.589,-11.468 38.16,-21.805"
         inkscape:connector-curvature="0" />
      <path
         style="fill-rule:evenodd"
         id="path33-1"
         d="m 337.569,75.411 c 0.011,-3.577 -1.425,-5.213 -3.73,-7.316 -5.443,-4.965 -1.964,2.204 -1.435,1.865 -12.628,8.093 -29.987,20.121 -45.191,28.119 -43.726,23.004 -84.899,49.633 -129.259,72.018 -19.364,9.771 -40.721,13.468 -60.112,21.52 13.854,9.479 58.745,-14.236 72.162,-21.232 17.061,-8.896 34.108,-19.396 51.791,-28.548 27.832,-14.404 56.145,-28.75 83.208,-44.474 10,-5.812 25.94,-13.099 32.566,-21.952"
         inkscape:connector-curvature="0" />
      <path
         style="fill-rule:evenodd"
         id="path35-9"
         d="m 342.876,5.976 c -4.239,-18.047 -40.534,10.378 -49.351,12.05 -13.142,2.492 -21.706,-0.362 -34.432,14.491 11.026,-2.799 23.051,-8.931 33.14,-11.478 10.09,-2.547 20.371,-8.564 30.558,-12.481 4.528,-1.741 11.027,-3.04 14.203,-3.157 -0.026,0.001 -0.035,2.313 0.144,2.296 2.21,-0.207 2.493,3.09 5.738,-1.721"
         inkscape:connector-curvature="0" />
      <path
         style="fill-rule:evenodd"
         id="path37-9"
         d="m 330.827,12.145 c -8.907,-1.892 -30.085,8.049 -34.719,15.206 8.555,-1.603 30.733,-9.023 34.719,-15.206"
         inkscape:connector-curvature="0" />
      <path
         style="fill-rule:evenodd"
         id="path39-0"
         d="m 298.69,35.528 c -3.141,-11.935 -2.942,-1.396 -11.189,3.731 -5.657,3.517 -11.709,5.99 -17.253,9.659 -10.139,6.709 -15.478,16.042 -14.597,1.531 0.183,-3.014 4.178,-6.965 1.865,-11.477 -16.332,52.352 -46.153,79.783 -96.838,102.576 0,0.096 0,0.191 0,0.287 32.036,-2.722 75.213,-31.457 87.513,-61.834 2.209,-5.456 2.289,-13.13 6.17,-17.358 9.553,-10.406 33.418,-15.11 44.329,-27.115"
         inkscape:connector-curvature="0" />
      <path
         style="fill-rule:evenodd"
         id="path41-9"
         d="m 267.128,123.615 c -10.351,10.084 -17.783,36.337 -24.344,50.086 -1.543,3.234 -9.329,15.576 -9.083,16.194 3.171,7.971 15.093,-20.357 14.203,-18.507 7.388,-15.358 12.457,-32.702 19.224,-47.773"
         inkscape:connector-curvature="0" />
      <path
         style="fill-rule:evenodd"
         id="path43-3"
         d="m 252.208,136.098 c 0.191,-1.482 0.382,-2.966 0.573,-4.448 -6.751,4.286 -13.798,31.614 -17.976,39.968 -3.895,7.79 -1.224,7.622 2.698,0.562 6.308,-11.359 10.392,-23.89 14.705,-36.082"
         inkscape:connector-curvature="0" />
      <path
         style="fill-rule:evenodd"
         id="path45-4"
         d="M 254.791,35.959 C 253.099,22.811 183.914,13.59 172.013,12.862 c 3.924,5.313 14.785,6.688 21.089,8.465 6.732,1.897 47.196,5.98 48.491,11.619 0.716,3.116 -6.913,7.664 -9.634,8.73 -18.062,7.078 -5.155,3.311 -10.595,-5.717 -2.212,6.806 -3.062,14.35 -11.621,14.634 0.434,-5.56 10.275,-15.825 7.317,-18.076 -7.889,12.905 -30.404,6.689 -43.756,12.05 -9.285,3.728 -17.226,11.528 -24.748,18.365 -11.713,10.644 -20.868,2.703 -35.077,2.438 -0.207,-0.604 0.717,-1.288 0.86,-1.865 -0.843,-0.087 -1.63,-1.089 -2.725,0.431 -5.452,7.564 3.717,7.198 8.104,8.393 9.921,2.702 16.606,5.583 1.506,5.811 -1.188,0.018 -0.421,-5.112 -2.869,-5.021 -0.097,0.003 0.508,5.146 -1.578,5.882 -4.218,1.488 -9.824,1.364 -14.293,1.69 -11.803,0.862 -23.601,1.285 -35.435,0.998 -15.539,-0.376 -8.663,0.955 -7.37,-10.435 -2.828,1.921 -4.153,7.089 -6.599,8.463 -4.544,2.553 -11.978,0.828 -17.575,0.001 -6.095,-0.9 -16.958,-4.095 -21.735,-1.865 33.777,15.822 86.005,10.224 121.506,5.272 41.388,-5.774 87.153,-22.534 119.515,-47.166"
         inkscape:connector-curvature="0" />
      <path
         style="fill-rule:evenodd"
         id="path47-7"
         d="m 231.98,192.048 c -9.364,0.959 -8.725,-10.982 -10.597,-17.794 -2.044,-7.441 -6.81,-13.346 -10.493,-20.368 0.006,0.153 -0.567,0.437 -0.573,0.43 1.058,3.325 14.38,52.155 21.663,37.732"
         inkscape:connector-curvature="0" />
      <path
         style="fill-rule:evenodd"
         id="path49-3"
         d="m 230.115,174.258 c -0.082,-6.615 -5.299,-19.997 -8.751,-25.966 0.043,6.062 4.788,23.701 8.751,25.966"
         inkscape:connector-curvature="0" />
      <path
         style="fill-rule:evenodd"
         id="path51-1"
         d="m 242.596,61.782 c -1.54,-0.802 -23.799,13.478 -27.832,16.213 2.027,-0.235 6.631,0.596 8.32,0.572 -5.61,4.509 -11.859,8.164 -18.219,11.622 0.129,0.062 0.177,0.156 0.143,0.285 4.759,-0.604 10.794,-3.31 15.781,-4.877 -0.096,0.15 0.187,0.438 0.287,0.431 -7.824,7.06 -17.61,12.296 -26.971,17.215 3.822,1.971 9.934,-2.524 14.202,-3.586 -0.048,0.143 0.001,0.191 0.145,0.143 -7.869,7.214 -17.804,12.423 -26.972,17.933 6.587,-0.674 14.104,-5.176 19.512,-7.459 -8.087,7.995 -19.309,11.923 -28.12,18.363 33.078,-6.857 60.146,-35.765 69.724,-66.855"
         inkscape:connector-curvature="0" />
      <path
         style="fill:#ffffff;fill-rule:evenodd"
         id="path53-7"
         d="m 206.586,51.597 c 2.736,-8.233 -2.005,-7.717 -8.321,-8.178 -15.751,-1.149 -14.73,6.194 -18.076,20.516 5.547,-2.104 11.094,-4.208 16.641,-6.312 -1.799,-2.677 -4.1,-5.66 -8.47,-6.621 -2.616,-0.576 -2.817,-1.213 -1.715,-3.135 3.535,-6.167 19.746,-1.973 13.199,7.746 2.665,-0.614 5.728,-2.92 6.742,-4.016"
         inkscape:connector-curvature="0" />
      <path
         style="fill-rule:evenodd"
         id="path55-8"
         d="m 207.59,33.951 c -8.763,-0.144 -19.247,-1.995 -27.688,0.143 -1.327,0.336 -4.542,4.425 -3.729,5.021 -2.009,-1.474 23.604,-4.058 24.282,-4.054 4.061,0.026 5.553,0.511 7.135,-1.11"
         inkscape:connector-curvature="0" />
      <path
         style="fill-rule:evenodd"
         id="path57-2"
         d="m 185.499,29.503 c -2.299,-2.197 -12.179,-6.512 -12.769,1.005 -0.009,0.11 11.972,-0.987 12.769,-1.005"
         inkscape:connector-curvature="0" />
      <path
         style="fill:#ffffff;fill-rule:evenodd"
         id="path59-5"
         d="m 180.19,47.436 c -0.747,-8.09 -22.048,10.766 -26.182,13.773 -3.763,2.736 -12.067,12.256 -16.858,11.191 -7.918,-1.761 -16.313,-5.497 -24.245,-4.017 4.847,3.003 20.867,8.015 27.402,6.742 10.506,-2.046 15.629,-19.439 28.118,-21.089 6.836,-0.903 9.275,3.228 3.443,8.607 -2.974,2.743 -1.582,-1.758 -5.453,-0.287 -6.634,2.521 -12.33,6.75 -18.219,10.617 8.416,-1.469 17.007,-3.425 25.034,-6.385 7.066,-2.605 5.272,-10.998 6.96,-19.152"
         inkscape:connector-curvature="0" />
      <path
         style="fill-rule:evenodd"
         id="path61-3"
         d="m 162.257,134.088 c -3.739,0.212 -26.501,4.747 -22.094,-0.86 -3.342,-0.17 -7.208,-0.415 -10.185,-1.148 1.642,-0.599 3.549,-1.782 5.451,-2.295 -9.3,0.028 -18.079,2.97 -27.401,-0.86 3.004,-1.498 6.942,-2.539 9.611,-3.586 -7.621,-0.064 -20.239,1.42 -26.541,-2.584 6.761,0.729 11.646,-1.117 17.647,-2.725 -5.843,0.814 -23.296,0.206 -26.685,-2.297 6.439,-1.98 13.437,0.214 19.798,-1.435 -8.338,-4.042 -21.594,1.751 -28.836,-4.017 12.367,0.123 23.4,0.239 34.861,-1.722 -5.051,-0.611 -44.292,-2.063 -42.321,-4.59 1.658,-2.127 24.478,0.286 28.12,0.286 8.439,0 16.809,-0.297 25.106,-1.865 0.009,0.005 -0.048,-0.932 -0.145,-0.859 -13.546,-0.759 -27.283,0.118 -40.887,-0.288 -11.191,-0.334 -24.342,-4.098 -35.005,-2.726 20.056,17.656 49.479,28.462 74.887,35.148 12.558,3.306 34.954,5.711 44.619,-1.577"
         inkscape:connector-curvature="0" />
      <path
         style="fill-rule:evenodd"
         id="path63-1"
         d="m 174.021,41.984 c -22.995,-13.541 -37.906,9.434 -56.813,17.503 -0.013,-0.002 0.033,0.691 0,0.718 6.336,-1.037 10.971,-5.251 16.211,-8.608 3.307,-2.118 7.071,-3.757 10.414,-6.002 9.956,-6.687 21.018,0.127 30.188,-3.611"
         inkscape:connector-curvature="0" />
      <path
         style="fill-rule:evenodd"
         id="path65-2"
         d="m 167.708,30.364 c 1.2,-9.185 -39.817,-4.602 -45.766,-1.864 11.463,5.15 29.028,-2.499 41.892,-1.221 3.996,0.397 -4.393,5.51 -1.435,9.541 0.8,-3.448 2.808,-5.448 5.309,-6.456"
         inkscape:connector-curvature="0" />
      <path
         style="fill-rule:evenodd"
         id="path67-1"
         d="m 152.357,143.557 c -3.997,-1.639 -9.777,-2.128 -14.489,-2.726 C 115.92,138.048 95.687,133.611 75.28,124.759 47.792,112.833 21.453,98.333 0,77.707 c 1.607,6.34 10.387,13.188 15.781,17.503 19.476,15.582 41.808,26.479 63.625,38.232 12,6.465 25.72,11.534 39.237,13.127 9.294,1.096 27.306,5.749 33.714,-3.012"
         inkscape:connector-curvature="0" />
      <path
         style="fill-rule:evenodd"
         id="path69-2"
         d="m 143.462,186.31 c -0.456,-4.181 -2.72,2.031 -5.021,4.159 -6.09,5.632 -11.851,12.017 -19.869,15.853 -16.417,7.854 -45.369,7.644 -53.01,-12.696 -8.834,-23.516 16.05,-32.506 26.971,-46.338 -26.726,2.802 -46.456,40.021 -27.257,61.114 22.176,24.365 66.471,3.464 78.186,-22.092"
         inkscape:connector-curvature="0" />
      <path
         style="fill-rule:evenodd"
         id="path71-9"
         d="m 162.113,8.128 c -7.686,-9.214 -42.943,6.513 -52.884,9.495 -25.371,7.61 -49.855,18.47 -73.65,29.958 C 24.98,52.696 9.961,58.917 3.012,69.673 22.505,59.405 39.646,49.354 61.221,40.385 c 22.176,-9.218 44.594,-17.246 67.705,-23.782 8.247,-2.332 28.152,-2.941 33.187,-8.475"
         inkscape:connector-curvature="0" />
      <path
         style="fill-rule:evenodd"
         id="path73-2"
         d="m 156.949,34.669 c -0.099,-7.335 -36.958,-6.401 -25.249,13.342 3.28,-8.856 1.508,-14.077 12.912,-13.917 4.72,0.066 9.414,3.586 12.337,0.575"
         inkscape:connector-curvature="0" />
      <path
         style="fill-rule:evenodd"
         id="path75-6"
         d="m 132.99,157.76 c -11.342,-16.11 -38.729,-8.762 -50.212,3.586 8.051,0.813 16.571,-7.086 25.536,-7.531 5.521,-0.275 23.387,5.673 24.676,3.945"
         inkscape:connector-curvature="0" />
      <path
         style="fill-rule:evenodd"
         id="path77"
         d="m 111.615,172.536 c -13.635,-14.023 -43.97,9.728 -29.124,20.372 3.231,2.316 1.492,-7.596 2.236,-10.006 4.645,-15.029 18.536,-8.439 26.888,-10.366"
         inkscape:connector-curvature="0" />
      <path
         style="fill-rule:evenodd"
         id="path79"
         d="m 125.244,53.031 c 0.113,-4.292 -1.251,-11.712 -4.878,-13.485 0.903,4.73 0.852,16.166 4.878,13.485"
         inkscape:connector-curvature="0" />
      <path
         style="fill-rule:evenodd"
         id="path81"
         d="m 124.669,36.391 c 0.187,-8.278 -41.916,7.704 -54.373,8.463 14.154,5.313 35.537,-6.861 50.234,-9.893 4.424,-0.913 -0.007,3.093 4.139,1.43"
         inkscape:connector-curvature="0" />
      <path
         style="fill-rule:evenodd"
         id="path83"
         d="m 116.205,96.357 c -30.846,-4.746 -65.432,-3.071 -96.98,-8.178 0.048,0.144 0,0.191 -0.144,0.144 28.306,15.08 67.295,13.125 97.124,8.034"
         inkscape:connector-curvature="0" />
      <path
         style="fill-rule:evenodd"
         id="path85"
         d="m 102.29,185.447 c -2.453,0.519 -4.115,2.47 0,0"
         inkscape:connector-curvature="0" />
      <path
         style="fill-rule:evenodd"
         id="path87"
         d="m 114.77,54.323 c 8.276,-23.879 -25.816,-5.592 -18.506,1.29 -0.028,-0.121 0.279,-0.351 0.43,-0.287 -1.73,-5.823 1.222,-5.711 6.733,-6.662 9.506,-1.639 4.256,-0.015 8.474,3.219 1.472,1.13 1.108,2.088 2.869,2.44"
         inkscape:connector-curvature="0" />
      <path
         style="fill-rule:evenodd"
         id="path89"
         d="m 102.29,76.416 c -1.047,-3.518 -0.847,-7.552 -1.866,-9.756 -1.6,3.449 -1.693,10.771 1.866,9.756"
         inkscape:connector-curvature="0" />
      <path
         style="fill-rule:evenodd"
         id="path91"
         d="m 102.002,62.499 c -9.753,-4.813 -30.888,2.607 -41.03,4.019 6.81,4.305 34.229,0.133 41.03,-4.019"
         inkscape:connector-curvature="0" />
      <path
         style="fill-rule:evenodd"
         id="path93"
         d="m 98.559,77.133 c -2.627,-7.025 -10.365,7.783 0,0"
         inkscape:connector-curvature="0" />
      <path
         style="fill-rule:evenodd"
         id="path95"
         d="m 97.986,65.369 c -3.676,3.409 -7.484,8.393 -9.039,12.769 3.936,-3.106 7.497,-8.675 9.039,-12.769"
         inkscape:connector-curvature="0" />
      <path
         style="fill-rule:evenodd"
         id="path97"
         d="M 90.238,56.331 C 92.924,42.57 76.404,49.446 68.575,50.019 c 4.016,1.509 16.107,-0.929 16.785,-0.574 3.056,1.6 1.731,10.876 4.878,6.886"
         inkscape:connector-curvature="0" />
      <path
         style="fill-rule:evenodd"
         id="path99"
         d="m 76.322,61.496 c -0.629,-3.045 -2.028,-6.085 -3.013,-9.039 -0.63,2.828 -1.091,12.526 3.013,9.039"
         inkscape:connector-curvature="0" />
      <path
         style="fill:#707070;fill-rule:evenodd"
         id="path101"
         d="m 183.632,51.454 c -0.526,3.539 -1.052,7.077 -1.578,10.615 3.461,-1.194 12.19,-1.898 11.477,-5.738 -0.8,-4.31 -5.941,-5.19 -9.899,-4.877"
         inkscape:connector-curvature="0" />
      <path
         style="fill:#707070;fill-rule:evenodd"
         id="path103"
         d="m 217.204,39.402 c 1.017,4.95 -1.401,8.579 -6.313,9.755 0.232,-4.201 2.774,-7.717 6.313,-9.755"
         inkscape:connector-curvature="0" />
    </g>
    <g
       style="overflow:visible"
       id="g36283"
       transform="matrix(0.34027021,0,0,0.34027021,-621.46797,-63.245464)">
      <path
         id="path3"
         d="m 166.052,85.146 c 0.915,-4.804 -14.029,-5.729 -18.243,-6.707 -0.065,2.551 -0.615,5 -0.805,7.513 6.35,-0.269 12.699,-0.537 19.048,-0.806"
         inkscape:connector-curvature="0" />
      <path
         id="path5"
         d="M 276.841,349.646 C 264.136,297.332 245.59,246.721 232.362,194.571 219.192,142.65 203.511,91.495 189.058,39.894 c -0.756,-2.699 -4.691,-14.508 -2.888,-15.106 3.154,-1.046 7.393,-1.971 8.854,-5.365 3.147,-7.321 -5.505,-6.35 -10.414,-6.989 -6.069,-0.791 -12.17,-1.37 -18.256,-2.017 C 139.529,7.563 112.72,4.672 85.893,1.877 80.539,1.319 72.962,-1.152 68.004,0.647 61.57,2.981 55.529,5.482 48.824,7.085 46.82,7.564 41.122,7.597 39.702,8.96 c -0.604,0.58 -2.502,7.644 -2.146,8.317 1.543,2.915 7.461,1.89 9.926,1.476 8.427,-1.415 4.389,22.418 3.943,28.434 -0.908,12.253 -1.53,24.635 -1.53,36.924 0,3.478 0.149,6.948 0.27,10.423 -15.261,-0.593 -30.522,-1.186 -45.784,-1.778 -5.046,-0.196 -6.413,10.879 -0.446,10.625 14.636,-0.622 29.271,-1.244 43.907,-1.866 2.791,-0.118 0.178,30.261 0.178,34.388 0,52.528 -3.203,105.417 -5.098,158.483 -0.452,12.642 -1.074,25.282 -1.625,37.92 -0.344,7.901 -4.821,31.926 -0.254,37.729 1.771,2.249 6.99,3.331 9.659,3.486 7.761,0.451 6.237,-3.536 6.396,-10.024 0.324,-13.186 0.276,-26.229 0.31,-39.335 0.011,-4.067 0.123,-10.166 2.95,-13.413 3.903,-4.483 11.604,-3.947 17.269,-4.865 8.391,-1.361 36.808,-11.83 40.088,0.457 6.328,23.702 9.515,47.778 14.535,71.742 1.095,5.228 1.02,12.294 6.169,14.754 2.073,0.99 10.872,1.621 12.878,0.805 8.431,-3.429 -1.729,-25.626 -2.683,-33.532 7.383,0.605 6.91,-5.42 11.802,-8.315 3.095,-1.832 11.062,-1.143 14.754,-1.608 5.009,-0.632 10.004,-1.349 15.024,-1.881 -1.642,-3.984 -3.283,-7.969 -4.924,-11.953 -1.181,-2.865 -4.601,-1.338 -7.418,-1.055 -6.412,0.645 -13.273,1.182 -19.582,2.548 -0.287,-13.022 1,-26.163 1.608,-39.167 -2.886,0.229 -15.238,-0.633 -16.9,1.341 -1.501,1.782 0,11.491 0,13.981 0,8.945 2.356,17.473 5.903,24.648 -0.645,0.167 -2.411,0.288 -2.95,0.268 -2.285,-10.731 -4.57,-21.462 -6.855,-32.192 -0.747,-3.508 -4.41,-10.173 0.684,-10.189 -3.032,-8.718 -6.206,-16.894 -7.511,-26.023 0.475,1.053 1.35,1.924 1.878,2.952 1.172,-6.505 3.176,-12.705 1.609,-18.778 -1.479,-5.734 -4.76,-11.638 -6.974,-17.166 -2.345,-5.856 -2.275,-7.257 4.159,-8.184 3.873,-0.558 7.76,-0.404 11.669,-0.404 -0.09,4.382 -0.18,8.764 -0.27,13.146 4.454,-0.494 17.169,0.885 17.169,-4.561 0,-3.54 0.795,-6.916 0.805,-10.461 2.739,0.649 13.521,2.026 15.559,-0.267 1.651,-1.858 -1.362,-11.146 -2.683,-11.805 -1.733,-0.865 -6.449,0.534 -8.448,0.534 -8.084,0 -3.623,-0.471 -3.623,-5.61 0,-3.285 1.848,-13.545 -1.18,-15.124 -5.776,-3.014 -11.553,-6.027 -17.329,-9.041 0,7.545 0,15.089 0,22.634 0,6.316 1.284,6.89 -4.831,8.482 -3.749,0.977 -10.626,0.834 -14.484,0.27 -1.596,-0.233 -4.653,1.138 -5.008,-0.624 -0.853,-4.228 -1.706,-8.455 -2.558,-12.682 -0.728,-3.606 -5.582,-16.702 -2.628,-19.287 4.731,-4.141 4.243,-10.752 7.512,-15.693 3.937,-5.95 8.679,-5.365 15.165,-5.365 2.817,0 6.833,-1.499 6.833,1.794 0,4.141 0,8.282 0,12.423 5.053,-2.215 10.108,-4.43 15.161,-6.645 5.471,-2.397 4.652,-3.615 5.493,-9.718 1.668,0.602 8.86,2.105 10.196,0.535 2.306,-2.713 -1.81,-9.849 -3.221,-10.46 -1.64,-0.711 -5.25,0.054 -6.976,0.27 -0.638,-5.577 0,-11.574 0,-17.437 -6.224,0.438 -12.447,0.876 -18.671,1.315 -1.566,0.11 0.152,13.068 -0.375,14.241 -2.104,4.688 -17.027,2.953 -23.068,2.953 8.931,-0.93 10.179,-11.412 12.338,-18.241 -8.206,-2.12 -7.993,-2.627 -11.132,4.695 -1.832,4.271 -3.574,8.765 -4.696,13.276 0.702,0.104 1.172,0.189 1.878,0.27 -3.139,-0.185 -5.483,-1.226 -5.987,2 -1.499,9.604 -2.998,19.209 -4.497,28.814 -1.956,12.53 -3.911,25.062 -5.867,37.592 -0.934,5.983 -3.032,12.535 -1.832,18.539 2.937,14.696 7.299,29.196 9.932,43.869 1.037,5.775 -1.703,4.6 -6.93,5.519 -3.937,0.692 -7.92,1.5 -11.823,2.367 -8.979,1.994 -18.026,2.66 -27.185,3.206 -0.566,-4.431 3.809,-4.515 4.696,-8.045 1.644,-6.54 4.732,-12.897 7.377,-19.182 2.986,-7.096 6.037,-14.203 8.827,-21.377 1.294,-3.326 2.729,-6.597 4.024,-9.925 1.092,-2.809 -3.155,-9.478 -4.267,-12.29 -8.184,20.776 -17.375,41.742 -27.093,61.969 0,-17.365 -0.099,-34.591 0.485,-51.962 0.462,-13.771 0.925,-27.54 1.388,-41.31 0.043,-1.28 -0.652,-7.137 0.273,-8.131 1.505,-1.618 12.773,0 15.292,0 -1.435,-7.641 -0.374,-7.281 -6.439,-8.852 -1.362,-0.353 -7.255,-0.231 -7.23,-1.426 0.354,-17.14 0.708,-34.281 1.061,-51.421 2.79,5.584 5.527,11.193 8.048,16.902 0.759,-9.247 2.662,-17.496 -0.806,-26.155 -1.563,-3.902 -5.834,-9.345 0.539,-10.06 -0.626,-2.325 -1.252,-4.651 -1.878,-6.976 -10.208,3.835 -5.244,-26.482 -2.953,-31.654 1.413,7.857 2.826,15.714 4.239,23.572 0.192,1.068 19.344,-0.412 21.782,-0.502 -6.273,-21.505 -8.461,-43.964 -13.68,-65.723 11.161,0 22.206,0.889 33.262,2.416 5.34,0.737 10.722,1.401 16.043,2.253 3.334,0.534 15.427,0.163 17.489,2.305 1.535,1.596 -0.224,15.019 -0.07,17.796 0.3,5.414 0.529,10.857 0.607,16.276 0.037,2.646 -1.98,13.443 -0.537,15.289 2.137,2.733 14.883,3.45 18.51,4.291 0.531,-9.482 1.063,-18.963 1.595,-28.445 0.165,-2.943 3.847,5.88 4.038,6.718 0.813,3.563 1.344,7.116 1.879,10.73 0.527,3.563 0.848,7.268 1.878,10.73 1.247,4.189 4.371,6.736 -0.804,9.389 -2.466,1.264 -8.057,-0.314 -9.123,-1.341 -0.227,-0.219 0.271,-5.211 0.271,-5.365 -5.879,0.249 -11.758,0.498 -17.637,0.747 -2.96,0.125 -0.739,1.303 -1.411,1.936 0.375,-0.353 2.578,3.774 0.217,3.75 -6.099,-0.063 -12.199,-0.125 -18.298,-0.188 -10.551,-0.108 -24.349,1.231 -33.692,-1.147 -1.234,-0.314 0.805,-2.465 -1.922,-2.364 -6.781,0.252 -13.562,0.503 -20.343,0.755 0.447,2.414 0.894,4.827 1.341,7.241 -0.992,0.024 -1.736,0.501 -2.683,0.537 0.584,2.17 0.84,4.994 1.878,6.976 0.439,0.839 2.734,0.907 3.487,2.683 1.545,3.644 1.189,8.228 2.146,12.07 0.875,3.514 1.569,8.939 1.878,13.145 -2.43,-3.359 -4.485,-7.292 -5.635,-11.268 -0.989,12.038 -1.885,19.175 2.953,30.045 3.636,8.171 7.725,16.209 12.338,23.873 -4.67,1.286 -9.09,2.026 -13.95,1.881 0.313,1.665 0.405,7.572 1.611,8.582 1.7,1.424 10.218,0 12.578,0 3.969,0 4.73,13.342 4.588,16.095 -0.295,5.732 -2.196,11.564 -4.44,16.803 -3.338,7.792 -1.729,9.927 1.491,18.071 1.686,-4.6 3.495,-9.669 5.902,-13.947 1.346,5.141 3.272,10.043 4.291,15.288 4.382,-28.078 8.764,-56.156 13.146,-84.233 -8.651,0 -8.749,-1.77 -10.63,-10.72 -1.917,-9.118 -3.191,-18.284 -4.719,-27.46 -0.644,-3.866 -2.595,-10.664 1.569,-11.308 3.875,-0.6 7.477,-0.736 11.396,-0.477 8.422,0.559 17.02,1.891 25.454,1.678 -3.237,9.66 -8.284,18.611 -11.801,28.167 2.771,0.716 5.543,1.432 8.314,2.148 0.512,-2.793 2.072,-9.881 4.829,-11.267 4.406,-2.216 1.748,-10.257 6.438,-10.193 -0.179,7.512 -0.357,15.023 -0.537,22.535 5.357,-0.377 10.713,-0.754 16.07,-1.132 4.643,-0.327 3.05,-3.039 3.166,-7.496 0.175,-6.679 0.35,-13.358 0.523,-20.037 0.158,-6.002 5.238,-3.526 10.695,-3.526 5.334,0 6.602,-0.167 8.427,5.313 1.604,4.82 3.097,9.632 3.981,14.646 1.65,9.359 3.398,18.429 7.031,27.252 -7.313,0 -14.698,0.859 -21.994,0.534 0.263,2.104 0.236,10.809 2.314,10.661 3.453,-0.246 6.854,-1.017 10.291,-1.272 3.711,-0.275 7.584,-0.498 11,1.21 2.037,1.019 6.889,7.507 4.828,10.06 -1.916,2.374 -16.84,1.471 -19.82,1.271 -3.959,-0.266 -20.004,1.129 -18.539,-3.954 -5.253,2.302 -19.583,5.337 -19.583,11.415 0,8.985 11.01,10.958 18.508,14.871 0,-5.275 0,-10.55 0,-15.825 11.346,0.672 22.75,2.146 34.107,2.146 2.636,0 7.193,-1.38 7.874,1.341 0.917,3.667 1.83,7.35 2.817,10.998 1.715,6.338 3.576,12.358 7.511,17.706 0,-0.179 0,-0.358 0,-0.537 -0.246,0.408 0.145,0.444 0.27,0.537 -13.049,0.146 -26.155,2.296 -39.167,3.22 0.447,3.935 0.895,7.87 1.342,11.805 13.912,-2.321 44.971,-12.711 44.169,11.415 -0.35,10.512 7.637,20.835 6.532,30.966 -9.007,-2.403 -23.649,1.85 -33.102,2.825 -11.678,1.205 -23.357,2.409 -35.036,3.614 0,-11.811 0.804,-23.566 0.804,-35.408 -4.277,0.475 -16.85,-0.666 -16.944,4.154 -0.164,8.451 -0.329,16.903 -0.493,25.354 -2.351,-4.131 -5.03,-8.136 -6.706,-12.611 -1.142,6.335 -5.539,15.764 0,20.926 -1.184,-0.288 -2.56,0.249 -3.754,0 2.167,6.232 4.494,14.247 7.778,18.511 0.898,1.166 2.711,0.181 1.878,3.484 4.3,-0.341 16.752,1.088 17.04,-3.635 0.584,-9.631 3.182,-9.252 12.146,-9.967 12.795,-1.019 25.479,-3.089 38.227,-4.554 5.757,-0.661 11.797,-1.27 17.586,-1.063 7.567,0.271 7.449,6.445 8.892,13.052 2.507,11.484 6.949,22.442 10.193,33.8 -20.797,0.709 -42.016,3.406 -62.503,6.974 1.729,4.2 3.196,14.063 8.182,13.278 5.185,-0.815 10.374,-1.596 15.559,-2.414 10.874,-1.715 21.88,-3.877 32.862,-4.692 15.216,-1.129 11.82,9.835 15.032,21.093 3.077,10.782 16.508,8.342 25.741,7.876 -0.542,-6.764 -3.164,-14.023 -5.093,-20.123"
         inkscape:connector-curvature="0" />
      <path
         style="fill:#5a3d1c"
         id="path7"
         d="M 67.331,5.475 C 59.175,9.351 50.495,12.262 41.58,13.79 49.228,8.541 58.697,6.378 67.331,5.475"
         inkscape:connector-curvature="0" />
      <path
         style="fill:#5a3d1c"
         id="path9"
         d="m 168.734,12.449 c 1.707,3.296 17.621,3.604 22.531,4.828 C 155.643,15.62 119.921,11.884 84.482,7.946 80.554,7.509 76.605,7.22 72.669,6.863 71.758,6.78 71.738,4.936 72.897,4.936 c 3.059,0 6.131,-0.086 9.188,0 9.663,0.272 19.386,1.217 28.974,2.416 19.226,2.403 38.267,5.097 57.675,5.097"
         inkscape:connector-curvature="0" />
      <path
         style="fill:#5a3d1c"
         id="path11"
         d="m 148.615,375.669 c -8.272,-31.238 -14.677,-63.05 -21.193,-94.696 1.23,35.981 12.632,72.82 19.314,108.109 -9.789,-1.015 -8.25,-2.891 -10.406,-12.438 -1.519,-6.729 -3.038,-13.456 -4.557,-20.184 -2.639,-11.687 -5.231,-23.372 -7.652,-35.105 C 118.738,295.267 113.332,269.203 108.27,243.05 98.135,190.69 87.031,138.591 75.798,86.453 72.008,68.864 65.247,50.487 74.308,33.91 86.711,94.18 98.645,154.589 112.935,214.446 110.482,184.942 102.535,155.72 96.729,126.709 90.403,95.099 84.201,63.46 78.331,31.762 c 22.552,106.086 43.523,212.458 65.116,318.739 1.637,8.056 3.404,18.09 5.168,25.168"
         inkscape:connector-curvature="0" />
      <path
         style="fill:#5a3d1c"
         id="path13"
         d="m 196.094,96.413 c -1.072,-0.179 -2.145,-0.358 -3.217,-0.537 4.266,-5.156 -3.32,-3.788 -5.365,-4.558 -7.518,-2.834 -7.047,-9.756 -9.121,-16.635 -2.998,-9.946 -12.869,-28.999 -0.805,-36.749 9.727,18.066 10.82,40.645 18.508,58.479"
         inkscape:connector-curvature="0" />
      <path
         style="fill:#5a3d1c"
         id="path15"
         d="m 63.577,67.441 c -0.946,35.766 -1.813,71.535 -2.683,107.303 -1.75,-42.854 -1.406,-85.798 2.95,-128.496 0.177,4.693 2.445,19.654 -0.267,21.193"
         inkscape:connector-curvature="0" />
      <path
         style="fill:#5a3d1c"
         id="path17"
         d="m 191.266,95.608 c -31.711,0.957 -63.284,2.99 -94.96,0.267 2.123,-4.333 16.16,-1.229 20.814,-1.361 8.753,-0.249 17.506,-0.505 26.259,-0.765 15.885,-0.469 32.663,2.307 47.887,1.859"
         inkscape:connector-curvature="0" />
      <path
         style="fill:#5a3d1c"
         id="path19"
         d="m 38.36,96.413 c -9.351,2.04 -19.457,1.071 -28.971,1.071 9.396,-2.507 19.947,0.571 28.971,-1.071"
         inkscape:connector-curvature="0" />
      <path
         style="fill:#5a3d1c"
         id="path21"
         d="m 213.264,156.5 c -1.196,-0.233 -1.894,-1.474 -3.757,-1.071 5.298,-5.059 -2.455,-4.125 -4.828,-4.828 -1.199,-0.355 -3.034,0 -4.29,0 -0.804,0 -2.525,-8.261 -2.969,-9.667 -4.438,-14.067 -10.359,-26.986 -0.519,-40.228 3.072,9.231 5.527,18.511 8.048,27.897 2.423,9.023 6.877,19.334 8.315,27.897"
         inkscape:connector-curvature="0" />
      <path
         style="fill:#5a3d1c"
         id="path23"
         d="m 196.901,155.159 c -29.362,1.845 -58.254,5.324 -87.721,3.489 14.987,-0.415 29.846,-1.199 44.8,-2.148 13.824,-0.877 29.797,0.739 42.921,-1.341"
         inkscape:connector-curvature="0" />
      <path
         style="fill:#5a3d1c"
         id="path25"
         d="m 160.953,170.987 c -0.851,-1.908 -0.536,-6.029 -0.536,-8.852 1.101,2.792 0.99,6.333 0.536,8.852"
         inkscape:connector-curvature="0" />
      <path
         style="fill:#5a3d1c"
         id="path27"
         d="m 114.009,164.014 c 0.129,2.192 -1.055,3.557 -3.219,4.291 -0.867,-3.195 0.418,-4.807 3.219,-4.291"
         inkscape:connector-curvature="0" />
      <path
         style="fill:#5a3d1c"
         id="path29"
         d="m 171.951,176.62 c 10.193,0 20.389,0 30.582,0 -16.363,-0.267 -32.727,-0.534 -49.09,-0.801 5.715,-0.928 13.426,-2.966 18.508,0.801"
         inkscape:connector-curvature="0" />
      <path
         style="fill:#5a3d1c"
         id="path31"
         d="m 63.577,180.644 c 0.384,-4.08 22.537,-1.208 27.093,-1.071 -9.03,0.36 -18.061,0.772 -27.093,1.071"
         inkscape:connector-curvature="0" />
      <path
         id="path33"
         d="m 126.348,280.705 c -3.66,-22.001 -11.442,-42.978 -12.339,-65.455 1.395,11.166 3.757,22.021 6.169,32.997 2.204,10.028 6.546,23.24 6.17,32.458"
         inkscape:connector-curvature="0" />
      <path
         style="fill:#5a3d1c"
         id="path35"
         d="m 212.189,219.273 c -20.581,0.719 -40.773,6.14 -61.429,4.831 9.791,-3.112 19.1,-2.862 29.238,-2.952 10.871,-0.095 21.315,-1.879 32.191,-1.879"
         inkscape:connector-curvature="0" />
      <path
         style="fill:#5a3d1c"
         id="path37"
         d="m 146.467,224.104 c -3.866,1.637 -8.228,0.987 -12.339,0.802 4.28,1.706 9.407,-3.79 12.339,-0.802"
         inkscape:connector-curvature="0" />
      <path
         style="fill:#5a3d1c"
         id="path39"
         d="m 198.777,275.073 c 1.699,0.071 3.398,0.178 5.098,0.267 -1.696,0.168 -3.596,-0.152 -5.098,-0.267"
         inkscape:connector-curvature="0" />
      <path
         style="fill:#5a3d1c"
         id="path41"
         d="m 234.725,275.875 c -30.963,3.643 -61.753,8.176 -92.816,11 29.72,-8.807 62.885,-6.466 92.816,-11"
         inkscape:connector-curvature="0" />
      <path
         style="fill:#5a3d1c"
         id="path43"
         d="m 148.615,280.705 c 4.192,-0.477 8.397,-1.097 12.605,-1.341 -3.979,0.508 -9.095,1.599 -12.605,1.341"
         inkscape:connector-curvature="0" />
      <path
         style="fill:#5a3d1c"
         id="path45"
         d="m 155.321,289.558 c 0.716,-0.179 1.431,-0.358 2.146,-0.537 -0.626,13.771 -1.252,27.542 -1.878,41.313 0,-12.996 2.171,-28.189 -0.268,-40.776"
         inkscape:connector-curvature="0" />
      <path
         style="fill:#5a3d1c"
         id="path47"
         d="m 140.834,291.703 c -0.635,0.854 -1.845,1.477 -2.683,2.147 -0.689,-0.74 -1.618,-2.248 -1.878,-3.222 2.039,-0.238 3.686,0.404 4.561,1.075"
         inkscape:connector-curvature="0" />
      <path
         style="fill:#5a3d1c"
         id="path49"
         d="m 114.813,294.386 c -1.367,5.212 -16.851,5.229 -21.46,6.172 -5.944,1.216 -29.505,7.255 -33.532,3.483 -3.739,-3.501 4.409,-4.048 6.841,-4.559 7.227,-1.521 14.552,-2.502 21.862,-3.488 7.835,-1.056 19.97,-5.917 26.289,-1.608"
         inkscape:connector-curvature="0" />
      <path
         style="fill:#5a3d1c"
         id="path51"
         d="m 262.354,335.161 c -37.757,7.896 -76.185,11.719 -114.546,15.291 20.717,-2.86 41.242,-6.875 61.991,-9.549 9.283,-1.196 18.551,-1.881 27.876,-2.656 7.974,-0.663 17.53,-3.691 24.679,-3.086"
         inkscape:connector-curvature="0" />
      <path
         style="fill:#5a3d1c"
         id="path53"
         d="m 271.206,368.963 c -5.188,-0.732 -10.732,-1.463 -11.534,-7.514 -0.666,-5.031 2.688,-16.422 6.976,-19.313 0.644,8.731 7.422,18.304 4.558,26.827"
         inkscape:connector-curvature="0" />
      <path
         style="fill:#5a3d1c"
         id="path55"
         d="m 145.933,276.682 c -2.294,0.553 -4.69,0.861 -6.977,1.341 2.391,-0.267 6.273,-0.731 6.977,-1.341"
         inkscape:connector-curvature="0" />
      <path
         style="fill:#5a3d1c"
         id="path57"
         d="m 249.211,280.705 c -11.039,10.7 -4.165,28.772 -0.882,41.468 0.325,1.255 3.123,6.39 2.49,7.353 -1.542,2.348 -16.573,1.55 -19.921,1.822 -14.267,1.16 -28.475,4.177 -42.582,6.496 -7.148,1.175 -14.319,2.105 -21.503,3.026 -4.126,0.528 -20.847,0.348 -20.077,4.751 38.852,-4.414 77.41,-9.359 115.888,-16.362 -5.585,-15.808 -8.263,-32.606 -13.413,-48.554"
         inkscape:connector-curvature="0" />
      <path
         style="fill:#5a3d1c"
         id="path59"
         d="m 232.579,224.906 c -10.982,13.492 -3.076,32.176 0.537,47.214 3.92,-1.021 8.049,-2.689 12.071,-1.61 -3.331,-15.27 -8.257,-30.964 -12.608,-45.604"
         inkscape:connector-curvature="0" />
      <path
         style="fill:#5a3d1c"
         id="path61"
         d="m 158.004,270.779 c -0.912,-14.501 -0.247,-28.462 0.268,-42.921 -1.906,9.304 -2.078,18.173 -1.879,27.63 0.104,4.904 1.857,17.664 -1.071,20.656 3.018,-0.09 3.291,-2.387 2.682,-5.365"
         inkscape:connector-curvature="0" />
      <path
         style="fill:#5a3d1c"
         id="path63"
         d="m 223.994,188.691 c 0.273,0.551 0.358,1.131 0.537,1.881 0.093,-0.469 0.445,-1.456 0.537,-2.148 17.239,58.999 34.211,118.019 53.114,176.515 -13.852,-53.602 -29.456,-106.575 -45.138,-159.663 -7.639,-25.862 -15.568,-51.67 -22.464,-77.744 -6.838,-25.853 -12.21,-52.086 -20.895,-77.418 -2.104,-6.139 -4.265,-12.249 -6.468,-18.353 -4.182,3.903 7.969,34.993 9.797,41.65 3.807,13.863 7.732,27.682 11.663,41.509 3.949,13.892 7.971,27.719 12.22,41.524 2.425,7.875 10.59,23.96 7.097,32.247"
         inkscape:connector-curvature="0" />
      <path
         style="fill:#5a3d1c"
         id="path65"
         d="m 160.687,212.834 c -6.413,-5.45 4.226,-25.66 -2.415,-32.19 -0.634,5.754 0,11.651 0,17.438 0,6.123 -1.971,11.956 -1.879,17.975 2.91,0.741 4.952,-0.124 4.294,-3.223"
         inkscape:connector-curvature="0" />
      <path
         style="fill:#5a3d1c"
         id="path67"
         d="m 224.262,192.447 c -0.453,-4.039 -3.574,-7.029 -4.693,-11.131 -1.95,-7.149 -1.418,-15.708 -6.037,-21.863 -5.29,9.104 -4.104,19.057 -2.539,28.981 0.788,4.993 1.972,18.803 4.954,22.524 2.369,2.957 9.744,4.137 13.279,2.012 0.752,-0.451 -4.605,-18.241 -4.964,-20.523"
         inkscape:connector-curvature="0" />
      <path
         style="fill:#5a3d1c"
         id="path69"
         d="m 164.174,147.918 c -0.358,0.625 -0.717,1.25 -1.074,1.875 -3.393,-15.178 1.37,-31.02 -0.805,-46.405 -0.674,9.884 -1.348,19.767 -2.021,29.651 -0.254,3.712 0.897,16.492 -2.539,17.829 0,0.358 0,0.716 0,1.074 2.287,-0.249 4.639,-0.392 6.977,-0.268 -0.168,-1.105 -0.132,-2.707 -0.538,-3.756"
         inkscape:connector-curvature="0" />
      <path
         style="fill:#5a3d1c"
         id="path71"
         d="m 165.245,88.902 c -3.857,-16.18 2.513,-33.24 -1.341,-49.36 -1.945,3.36 -0.703,11.672 -0.805,15.828 -0.158,6.386 -0.652,12.673 -1.072,19.045 -0.172,2.613 -2.526,15.757 -1.074,17.169 2.404,2.337 4.597,-0.501 4.292,-2.682"
         inkscape:connector-curvature="0" />
      <path
         style="fill:#ffffff"
         id="path73"
         d="m 57.675,220.08 c 0,-0.359 0,-0.359 0,0"
         inkscape:connector-curvature="0" />
      <path
         style="fill:#5a3d1c"
         id="path75"
         d="m 53.918,364.132 c 0,-61.707 5.902,-123.534 5.902,-185.364 -2.226,13.81 0.823,29.485 -1.341,42.384 -2.011,11.983 -1.995,26.801 -2.146,41.579 -0.342,33.67 -3.285,68.591 -2.415,101.401"
         inkscape:connector-curvature="0" />
    </g>
  </g>
</svg>
