<?xml version="1.0" encoding="UTF-8" standalone="no"?>
<!-- Created with Inkscape (http://www.inkscape.org/) -->
<svg
   xmlns:dc="http://purl.org/dc/elements/1.1/"
   xmlns:cc="http://web.resource.org/cc/"
   xmlns:rdf="http://www.w3.org/1999/02/22-rdf-syntax-ns#"
   xmlns:svg="http://www.w3.org/2000/svg"
   xmlns="http://www.w3.org/2000/svg"
   xmlns:sodipodi="http://inkscape.sourceforge.net/DTD/sodipodi-0.dtd"
   xmlns:inkscape="http://www.inkscape.org/namespaces/inkscape"
   id="svg3383"
   sodipodi:version="0.32"
   inkscape:version="0.43"
   width="417pt"
   height="248pt"
   sodipodi:docbase="C:\foo\wikipedia\transfer"
   sodipodi:docname="barrel_large.svg"
   version="1.0">
  <metadata
     id="metadata3388">
    <rdf:RDF>
      <cc:Work
         rdf:about="">
        <dc:format>image/svg+xml</dc:format>
        <dc:type
           rdf:resource="http://purl.org/dc/dcmitype/StillImage" />
        <cc:license
           rdf:resource="http://web.resource.org/cc/PublicDomain" />
      </cc:Work>
      <cc:License
         rdf:about="http://web.resource.org/cc/PublicDomain">
        <cc:permits
           rdf:resource="http://web.resource.org/cc/Reproduction" />
        <cc:permits
           rdf:resource="http://web.resource.org/cc/Distribution" />
        <cc:permits
           rdf:resource="http://web.resource.org/cc/DerivativeWorks" />
      </cc:License>
    </rdf:RDF>
  </metadata>
  <defs
     id="defs3386" />
  <sodipodi:namedview
     inkscape:window-height="721"
     inkscape:window-width="1024"
     inkscape:pageshadow="2"
     inkscape:pageopacity="0.0"
     borderopacity="1.0"
     bordercolor="#666666"
     pagecolor="#ffffff"
     id="base"
     inkscape:zoom="1.2651827"
     inkscape:cx="241.45711"
     inkscape:cy="150.73623"
     inkscape:window-x="-4"
     inkscape:window-y="-4"
     inkscape:current-layer="svg3383" />
  <g
     id="g4512">
    <path
       d="M 318.08282,306.24623 C 290.66917,305.63137 284.61882,304.98225 283.81465,302.56972 C 283.32516,301.10126 280.24522,301.22662 316.58282,301.23605 C 356.76795,301.24649 376.86172,302.25314 378.97007,304.36149 C 382.02676,307.41818 377.11428,307.57024 318.08282,306.24623 z M 171.31391,302.772 C 171.16187,302.61996 160.47268,302.27514 147.56015,302.00573 C 124.49896,301.52457 116.06623,300.44119 116.84851,298.06013 C 117.62145,295.70752 124.3405,295.66941 184.72941,297.67513 C 192.23503,297.92442 198.87253,298.43526 199.47941,298.81033 C 201.23518,299.89546 200.76783,301.18006 198.33282,301.96195 C 196.21869,302.64081 171.91147,303.36956 171.31391,302.772 z M 253.51499,300.98522 C 253.20268,300.66623 246.78307,300.36324 239.24919,300.31189 C 226.35973,300.22404 225.38465,300.07837 222.72925,297.844 C 220.36579,295.85528 218.05306,295.2836 208.49505,294.32546 C 202.21832,293.69626 194.27952,292.32186 190.85326,291.27124 C 185.89646,289.7513 180.48222,289.26547 164.35326,288.89338 C 139.78333,288.32656 122.49309,287.43682 121.26194,286.67593 C 120.76018,286.36582 103.30211,286.1549 82.466229,286.20722 C 45.246579,286.30068 44.582819,286.26738 44.582819,284.30691 C 44.582819,283.20942 45.145319,282.13129 45.832819,281.91106 C 47.856399,281.26286 92.308729,280.26265 115.33282,280.34726 C 127.02032,280.39021 136.58282,280.03508 136.58282,279.55808 C 136.58282,277.05922 126.90597,276.42504 80.082819,275.85531 C 19.177739,275.11425 19.171199,275.1139 18.784569,272.62175 C 18.090479,268.14774 19.640979,267.95788 58.227869,267.79193 C 78.262859,267.70577 94.897769,267.39263 95.194329,267.09606 C 97.003379,265.28702 75.529439,263.37424 53.411129,263.37424 C 35.593139,263.37424 31.582819,262.73822 31.582819,259.91238 C 31.582819,257.96318 33.212879,257.80335 46.957769,258.40488 C 65.401359,259.21205 73.160169,258.23704 67.832819,255.78163 C 66.870319,255.33801 53.032819,254.82698 37.082819,254.64601 C 21.132819,254.46505 7.5203188,254.11899 6.8328188,253.877 C 5.0218088,253.23954 5.2979488,249.69754 7.2160388,248.96149 C 8.1143088,248.61679 20.688639,248.49858 35.158979,248.69879 C 49.629329,248.899 62.012429,248.72676 62.676989,248.31604 C 63.541779,247.78157 62.760359,245.76475 59.928289,241.22176 C 50.627079,226.30142 42.911419,204.86615 39.558859,184.63241 C 37.875399,174.47219 37.300759,143.7378 38.539109,130.09115 C 39.988439,114.11944 45.486249,90.348439 50.188339,79.723109 C 50.955309,77.989989 51.582819,76.263029 51.582819,75.885439 C 51.582819,74.038849 61.198109,56.146309 63.608839,53.506899 C 65.124009,51.847999 67.352499,49.102069 68.561029,47.404849 C 71.119539,43.811749 77.600549,40.319639 86.082819,37.963719 C 89.382819,37.047159 92.982819,35.888679 94.082819,35.389319 C 99.009759,33.152669 106.67298,30.400239 113.58282,28.385429 C 117.70782,27.182639 124.00782,25.345689 127.58282,24.303319 C 153.2138,16.829999 179.0994,11.714499 198.58642,10.271619 C 229.01187,8.0188189 279.80306,8.5367689 301.08282,11.316849 C 318.43969,13.584419 348.1237,20.415889 363.08282,25.585519 C 366.38282,26.725939 372.06876,28.683929 375.71825,29.936599 C 379.36773,31.189269 383.19273,32.636779 384.21825,33.153269 C 385.24376,33.669769 388.55782,34.874379 391.58282,35.830169 C 394.60782,36.785959 399.78282,38.847879 403.08282,40.412199 C 406.38282,41.976529 411.27563,43.971369 413.95574,44.845199 C 416.63584,45.719019 422.11357,48.035759 426.12846,49.993509 C 434.43046,54.041739 440.2205,60.445609 445.00772,70.874239 C 446.52257,74.174239 448.56244,78.461939 449.54076,80.402459 C 451.24408,83.781029 456.08408,101.59945 457.00301,107.87466 C 457.2446,109.52443 457.9222,113.34924 458.50878,116.37424 C 461.22712,130.39265 462.69278,155.1754 461.54035,167.63485 C 461.07033,172.71652 460.42563,179.79924 460.10767,183.37424 C 459.2101,193.4664 457.86306,199.07596 450.8625,221.87424 C 449.2482,227.13144 440.92404,244.96163 437.92608,249.58382 C 436.95949,251.07408 436.37433,252.48806 436.62573,252.72599 C 437.2404,253.30772 472.7287,254.55809 495.24243,254.79125 C 508.77495,254.93139 513.81576,255.32267 515.02573,256.32686 C 515.91877,257.06801 516.50826,258.09793 516.33571,258.61556 C 516.14733,259.1807 499.05483,259.62013 473.55241,259.71547 C 435.90412,259.85622 430.81905,260.06105 428.75938,261.51983 C 427.48148,262.42491 426.85967,263.42731 427.37757,263.74739 C 427.89547,264.06747 435.24102,264.57326 443.70101,264.87138 C 459.73547,265.43641 474.51378,267.06942 476.76829,268.52534 C 479.19336,270.0914 475.45335,271.33938 468.08282,271.42354 C 410.72162,272.07852 393.03324,273.15799 395.71516,275.83991 C 396.30507,276.42982 406.35998,276.93319 436.08282,277.86081 C 453.24428,278.3964 475.39589,280.52264 477.52533,281.83871 C 478.38689,282.37118 478.36121,282.93634 477.42416,284.06542 C 476.32118,285.39443 470.87037,285.49047 432.6256,284.85472 C 364.28265,283.71866 357.58282,283.84882 357.58282,286.31256 C 357.58282,288.15135 362.14489,288.49189 392.04852,288.88531 C 426.47468,289.33823 435.99062,289.95576 437.55298,291.83829 C 438.36625,292.81822 437.69202,293.23038 434.59654,293.64557 C 429.9413,294.26997 400.44517,293.63956 376.46391,292.40312 C 360.20279,291.56472 327.51305,291.75075 316.58282,292.74389 C 313.55782,293.01875 303.88282,293.74234 295.08282,294.35188 C 276.04309,295.67068 265.45164,297.27939 264.08282,299.06039 C 263.03215,300.42744 254.49186,301.98297 253.51499,300.98522 z M 8.3328188,266.31926 C 7.3703188,265.74484 6.5828188,264.37751 6.5828188,263.28074 C 6.5828188,261.44516 7.1583788,261.30998 13.822219,261.58043 C 19.634109,261.8163 21.124219,262.20247 21.379089,263.5388 C 21.557629,264.47489 20.905809,265.42761 19.889689,265.71575 C 15.401009,266.98864 9.9329088,267.27419 8.3328188,266.31926 z "
       style="fill:#000000;stroke:none;stroke-opacity:1"
       id="path3392" />
    <path
       d="M 299.04424,286.28748 C 302.5882,283.88622 307.87345,277.03492 312.93072,268.28638 C 317.87215,259.73822 320.01538,260.27424 281.83282,260.50874 C 263.27032,260.62274 240.09532,260.34987 230.33282,259.90236 C 214.78575,259.18969 212.58282,259.27672 212.58282,260.60366 C 212.58282,262.5499 218.01813,263.52117 231.08282,263.90954 C 236.58282,264.07304 248.50782,264.68489 257.58282,265.26922 C 268.58191,265.97743 277.91679,266.01077 285.58282,265.36921 C 300.7046,264.10368 301.83293,264.12195 301.33607,265.62424 C 300.88809,266.97872 293.82428,267.97 278.58282,268.81726 C 273.35782,269.10771 266.60782,269.59823 263.58282,269.90731 C 260.55782,270.21639 252.68282,269.96652 246.08282,269.35205 C 215.17071,266.47407 206.26593,266.39069 208.87891,269.00367 C 210.99156,271.11631 247.28394,274.48458 271.688,274.83292 C 291.0286,275.109 299.03212,276.31696 291.22487,277.78161 C 282.16644,279.48099 224.46356,277.08552 211.65123,274.47821 C 206.70314,273.47127 204.58282,273.91642 204.58282,275.96218 C 204.58282,277.41127 206.24968,277.93182 213.58282,278.7728 C 216.05782,279.05665 221.23282,279.75497 225.08282,280.32464 C 228.93282,280.89432 240.40782,281.60976 250.58282,281.91451 C 260.75782,282.21927 271.33282,282.64331 274.08282,282.85683 C 276.83282,283.07036 282.21032,283.27412 286.03282,283.30965 C 291.40553,283.35958 292.71278,283.64428 291.79294,284.56412 C 290.01433,286.34273 288.6547,286.44943 268.63068,286.38173 C 251.31471,286.3232 220.20485,283.76796 207.52023,281.36237 C 200.85828,280.09896 200.58282,280.11242 200.58282,281.70139 C 200.58282,285.47061 240.47977,289.33293 275.28271,288.9329 C 294.79498,288.70862 295.60384,288.61857 299.04424,286.28748 z M 314.09169,281.30162 C 327.14677,262.49374 337.57662,238.05498 345.23369,208.33101 C 347.08109,201.15959 348.61394,199.88207 350.93973,203.57542 C 353.35595,207.41238 343.01677,239.03914 332.53495,259.87424 C 326.67613,271.52004 324.2906,275.50445 319.83282,281.0899 C 316.24449,285.58596 315.95553,286.37424 317.89573,286.37424 C 319.49419,286.37424 323.30901,282.26533 326.71576,276.87424 C 328.10599,274.67424 330.4142,271.01765 331.84511,268.74848 C 334.25447,264.92766 342.58282,247.80793 342.58282,246.67608 C 342.58282,246.40131 343.1967,244.75849 343.947,243.02537 C 344.6973,241.29225 346.10117,237.84924 347.06672,235.37424 C 348.03226,232.89924 349.2212,229.97424 349.7088,228.87424 C 353.08407,221.25991 357.84971,197.03046 360.68176,173.08552 C 361.95054,162.3581 361.21923,128.26575 359.49744,117.87424 C 358.95066,114.57424 358.0975,109.17424 357.60153,105.87424 C 355.7164,93.331209 354.70725,88.646859 352.32345,81.374239 C 350.97138,77.249239 348.87035,70.724239 347.6545,66.874239 C 346.43865,63.024239 343.60637,56.274239 341.36054,51.874239 C 339.11471,47.474239 334.83176,39.054609 331.84286,33.163959 C 326.31858,22.276429 325.75678,21.727419 319.58282,21.182909 C 316.66075,20.925209 316.03292,21.223879 315.78063,22.991719 C 315.61443,24.156339 316.77046,27.306339 318.34958,29.991719 C 321.47163,35.300939 328.75263,50.062159 330.62293,54.874239 C 337.24388,71.909279 341.21966,84.546159 342.57838,92.874239 C 343.02704,95.624239 343.84809,99.674239 344.40294,101.87424 C 346.43685,109.93876 347.86136,130.38454 347.76933,150.19145 C 347.71741,161.36592 347.44604,171.26592 347.16629,172.19145 C 346.88653,173.11699 345.96927,179.72424 345.12792,186.87424 C 344.28658,194.02424 343.17159,201.67424 342.65017,203.87424 C 339.53853,217.00311 337.90245,222.61436 335.39366,228.76178 C 333.8477,232.54992 332.58282,236.33903 332.58282,237.18202 C 332.58282,238.02501 331.23282,241.78812 329.58282,245.54448 C 327.93282,249.30085 325.16224,255.63674 323.42597,259.62424 C 320.45992,266.43606 315.03987,275.25218 309.84856,281.70891 C 307.62177,284.47851 307.6454,286.85338 309.89231,286.10441 C 310.51173,285.89794 312.40145,283.73668 314.09169,281.30162 z M 346.08282,280.93396 C 348.83282,280.18598 354.19556,278.84671 358.00003,277.9578 C 365.29799,276.25263 367.58282,275.01136 367.58282,272.7518 C 367.58282,270.84074 366.50115,270.97753 354.70369,274.38044 C 348.99517,276.02703 342.55309,277.37424 340.38795,277.37424 C 334.56312,277.37424 329.10613,280.74926 331.88561,282.63273 C 333.26312,283.56618 338.87317,282.89491 346.08282,280.93396 z M 196.08282,276.75177 C 197.73282,274.78319 199.56041,272.65541 200.14413,272.02338 C 201.68813,270.35162 210.30593,252.35726 211.11545,249.11479 C 211.49436,247.59709 212.14397,246.14546 212.55903,245.88894 C 212.97409,245.63242 214.75955,240.79917 216.52671,235.14839 C 218.29388,229.49761 220.15444,224.09285 220.66128,223.13781 C 221.16813,222.18277 221.58282,220.36027 221.58282,219.08781 C 221.58282,217.81535 221.96939,216.34674 222.44187,215.82424 C 222.91435,215.30174 223.80607,212.39924 224.42347,209.37424 C 225.04087,206.34924 226.40217,200.72424 227.44857,196.87424 C 230.6988,184.91577 231.97318,160.92583 230.69184,135.82038 C 230.07579,123.75 229.13575,111.62424 228.60286,108.87424 C 228.06997,106.12424 226.70498,98.973199 225.56954,92.983049 C 221.93742,73.821239 210.58957,42.248469 202.23898,28.071169 C 198.83006,22.283629 197.31526,20.648129 194.50384,19.719659 C 191.40019,18.694679 183.39887,19.224859 182.0809,20.542819 C 181.84845,20.775269 183.19191,23.869929 185.06637,27.419849 C 191.99992,40.550829 199.22682,55.809239 200.61404,60.246149 C 201.06597,61.691599 202.83747,66.699239 204.55072,71.374239 C 207.98862,80.755319 208.17992,81.503899 212.52859,102.5925 C 216.6182,122.42479 217.33488,129.9794 216.96661,149.37424 C 216.6019,168.58138 215.22402,177.57082 208.45972,204.87424 C 201.37091,233.4875 200.9761,234.90836 198.8048,239.62029 C 197.72666,241.95996 196.2758,245.44924 195.58066,247.37424 C 193.54511,253.01115 187.69408,264.37712 183.3288,271.17422 C 180.58951,275.43952 179.61085,277.80227 180.29857,278.48999 C 182.0597,280.25112 188.34478,271.63285 194.60386,258.87424 C 201.14515,245.54036 207.22614,228.50399 210.52801,214.26145 C 211.72496,209.09848 213.54645,201.27424 214.57577,196.87424 C 215.6051,192.47424 216.70708,187.07424 217.02461,184.87424 C 218.03804,177.85272 219.88543,170.34352 220.45845,170.91653 C 220.76348,171.22157 221.58203,173.58684 222.27744,176.17269 C 223.83235,181.95456 222.46618,194.62773 218.92881,207.23611 C 217.63851,211.83513 216.58282,216.53641 216.58282,217.68339 C 216.58282,224.95092 198.81929,267.52987 192.4521,275.52441 C 190.56576,277.89287 190.53433,280.41072 192.39184,280.35263 C 192.77188,280.34074 194.43282,278.72036 196.08282,276.75177 z M 170.03577,276.21372 C 175.53651,273.70742 172.6938,272.51878 157.33917,270.90484 C 150.89521,270.22751 144.55483,268.70424 135.31285,265.61303 C 129.31618,263.6073 127.27194,263.28512 126.35571,264.20135 C 124.27405,266.28301 127.51645,268.16479 138.59856,271.30669 C 148.5084,274.11624 162.04034,277.0924 165.78577,277.28615 C 166.72239,277.3346 168.63489,276.85201 170.03577,276.21372 z M 346.70267,272.93124 C 349.7497,272.13759 354.68174,271.19898 357.66277,270.84544 C 365.92235,269.86587 372.33255,267.50787 374.61132,264.61088 C 376.45151,262.27145 376.49826,261.90642 375.06067,261.10191 C 373.36233,260.15147 365.75323,260.84703 359.08282,262.56247 C 356.88282,263.12825 352.29735,263.57617 348.89288,263.55786 C 344.91313,263.53646 342.3071,264.00154 341.59432,264.86038 C 339.54587,267.32861 342.29503,267.45049 353.69907,265.39701 C 366.14775,263.15543 369.58282,262.91967 369.58282,264.30685 C 369.58282,265.57963 367.29517,266.21944 351.69012,269.31109 C 344.27821,270.77952 338.03442,272.51945 337.81503,273.1776 C 337.28695,274.76185 339.95884,274.68779 346.70267,272.93124 z M 384.27375,264.62424 C 387.52398,259.81174 392.35188,251.59924 395.0024,246.37424 C 400.43758,235.65986 400.98409,234.88617 402.46893,235.80385 C 404.23067,236.89267 392.51494,258.13526 382.989,271.12424 C 381.64547,272.95619 381.60218,273.37424 382.75603,273.37424 C 385.01636,273.37424 402.58282,247.24758 402.58282,243.88579 C 402.58282,243.18913 403.22889,242.08294 404.01854,241.42759 C 404.80819,240.77224 405.72444,239.00593 406.05466,237.50245 C 406.38488,235.99897 407.7638,232.5788 409.11894,229.90207 C 410.47407,227.22534 411.58282,224.23811 411.58282,223.26378 C 411.58282,222.28945 411.98094,221.24622 412.46752,220.9455 C 412.95411,220.64477 413.5776,219.15571 413.85306,217.63648 C 414.12852,216.11725 415.26212,211.27424 416.37216,206.87424 C 420.95737,188.69934 422.12143,181.0251 423.04628,162.87424 C 423.63968,151.2283 421.3342,118.64672 419.70076,115.59461 C 419.08589,114.44572 418.58282,112.32019 418.58282,110.8712 C 418.58282,107.00025 413.68627,88.241649 411.99262,85.624239 C 409.96962,82.497839 405.87676,82.634989 404.39883,85.878709 C 403.28783,88.317089 404.37319,95.789749 407.71022,108.67747 C 409.7991,116.74477 411.70145,129.2485 412.15229,137.87424 C 413.27548,159.36389 413.25884,162.99585 411.98398,174.61625 C 411.24433,181.35814 410.00786,189.57424 409.23625,192.87424 C 408.46465,196.17424 407.06824,202.24924 406.13311,206.37424 C 405.19799,210.49924 404.04374,214.77424 403.56813,215.87424 C 403.09251,216.97424 401.27261,222.5668 399.5239,228.30215 C 395.54496,241.35221 386.166,259.65966 378.35449,269.62424 C 376.28293,272.26678 375.85029,273.37424 376.88951,273.37424 C 377.70061,273.37424 381.02353,269.43674 384.27375,264.62424 z M 178.01139,268.80281 C 181.28565,265.52855 179.96969,264.81671 167.94887,263.35972 C 155.11765,261.80451 148.53829,260.626 140.18524,258.38665 C 134.99926,256.99635 131.9494,256.60766 131.30246,257.2546 C 129.825,258.73206 131.1127,261.03984 133.75067,261.64222 C 135.03335,261.93512 138.55782,262.83477 141.58282,263.64143 C 144.60782,264.4481 151.35782,265.8823 156.58282,266.82854 C 161.80782,267.77478 167.43282,268.91372 169.08282,269.35952 C 173.84511,270.6462 176.32247,270.49173 178.01139,268.80281 z M 400.66609,266.83118 C 402.62566,265.81784 403.85516,264.26252 404.24754,262.30063 C 404.57617,260.65751 405.81227,258.53939 406.99444,257.59369 C 410.89115,254.47645 414.97093,248.36235 413.88134,247.27276 C 412.28439,245.67581 407.52925,247.3977 406.34233,250.00272 C 405.74803,251.30706 404.88402,252.37424 404.4223,252.37424 C 403.96059,252.37424 403.58282,253.06845 403.58282,253.91694 C 403.58282,254.76542 401.76189,257.92454 399.53632,260.93719 C 397.31074,263.94984 395.7623,266.85563 396.09533,267.39449 C 396.88978,268.67993 397.15396,268.64737 400.66609,266.83118 z M 122.85722,259.12424 C 133.31428,246.08477 145.56401,224.53002 148.85731,213.37424 C 149.75032,210.34924 151.39857,204.84345 152.5201,201.13915 C 154.38522,194.97885 157.22821,182.52948 158.17553,176.37424 C 158.38714,174.99924 158.85691,165.51141 159.21944,155.29017 C 160.15176,129.00452 158.31098,113.71862 151.37126,90.118929 C 149.45716,83.609699 146.197,79.374239 143.10078,79.374239 C 141.18883,79.374239 139.83287,83.523179 140.65894,86.845699 C 144.95985,104.14417 148.17928,123.2168 148.5129,133.37424 C 148.63033,136.94924 148.88436,143.47424 149.07743,147.87424 C 149.84446,165.35457 144.0736,198.17225 137.29721,214.8659 C 135.16734,220.11286 125.43581,238.8146 123.98287,240.45298 C 123.21284,241.32129 122.58282,242.4221 122.58282,242.89923 C 122.58282,243.88189 118.27995,250.45803 114.86075,254.70097 C 112.21172,257.98819 111.92864,259.5625 114.13912,258.71426 C 116.39066,257.85026 133.58282,232.07543 133.58282,229.56387 C 133.58282,227.97633 137.70049,223.32893 138.60938,223.89066 C 139.90291,224.6901 137.34503,231.09371 132.70222,238.67916 C 130.43655,242.38083 128.58282,245.62491 128.58282,245.88824 C 128.58282,246.15156 126.30091,249.56498 123.51192,253.47361 C 120.72292,257.38224 118.19977,261.20886 117.90493,261.97722 C 116.81317,264.8223 119.55383,263.24342 122.85722,259.12424 z M 104.35366,260.18674 C 103.86832,258.73072 98.719549,256.90418 97.771899,257.85183 C 96.825009,258.79872 100.54335,261.37424 102.85729,261.37424 C 103.898,261.37424 104.57137,260.83986 104.35366,260.18674 z M 182.04447,260.02594 C 185.88431,257.21818 183.35704,256.30803 166.49983,254.42787 C 161.77919,253.90135 154.57919,252.72177 150.49983,251.80657 C 138.63943,249.14569 137.10624,249.03864 135.66854,250.77096 C 133.77789,253.04905 137.00639,254.16485 156.08282,257.82629 C 175.59792,261.57193 179.48034,261.90088 182.04447,260.02594 z M 358.83227,259.3466 C 360.34447,258.86923 365.51947,258.16526 370.33227,257.78221 C 375.14507,257.39916 379.40384,256.58827 379.7962,255.98024 C 380.92793,254.22639 377.76214,253.67889 371.68988,254.5783 C 368.606,255.03508 361.47122,256.00013 355.83483,256.72285 C 345.18541,258.08836 343.92993,258.50882 345.0569,260.33231 C 345.77413,261.49281 353.86822,260.91363 358.83227,259.3466 z M 317.74461,256.77425 C 320.60221,255.00816 315.21485,254.73114 286.15571,255.14997 C 266.52403,255.43293 249.2607,255.18723 242.40571,254.52732 C 216.7867,252.06103 215.58282,252.02178 215.58282,253.65267 C 215.58282,255.38262 222.17942,256.16253 247.08282,257.3769 C 262.6806,258.13749 316.27846,257.68038 317.74461,256.77425 z M 107.58282,256.34949 C 107.58282,255.12178 102.56561,253.05812 101.69571,253.92802 C 100.93465,254.68908 104.50184,257.37424 106.27395,257.37424 C 106.99383,257.37424 107.58282,256.9131 107.58282,256.34949 z M 423.35269,254.98328 C 431.26786,249.90975 438.71529,238.91679 444.02616,224.46767 C 445.35906,220.84128 447.34361,215.62424 448.43626,212.87424 C 449.52891,210.12424 450.87325,206.07424 451.42369,203.87424 C 451.97412,201.67424 452.89343,198.07424 453.4666,195.87424 C 455.06211,189.75022 456.81349,174.88601 457.1192,164.87424 C 457.44366,154.24826 456.00768,130.38407 454.53176,121.87424 C 452.57041,110.56549 451.34075,104.8703 449.9976,100.87424 C 449.25815,98.674239 448.17046,94.963569 447.58053,92.628299 C 445.87708,85.885179 440.18831,82.168749 436.78282,85.574239 C 434.97637,87.380689 435.29796,91.102749 438.5158,105.63159 C 445.0895,135.31246 444.93482,171.64026 438.08898,205.87424 C 436.99046,211.36763 434.42713,219.83915 432.99621,222.70528 C 432.21885,224.26235 431.58282,226.0369 431.58282,226.64873 C 431.58282,227.26055 430.05974,230.93658 428.19819,234.81769 C 418.65928,254.7052 417.58305,257.37424 419.10269,257.37424 C 419.38862,257.37424 421.30112,256.29831 423.35269,254.98328 z M 97.280389,251.62109 C 101.85381,245.77968 116.58282,218.2921 116.58282,215.59851 C 116.58282,215.09416 117.28073,213.28253 118.13373,211.57265 C 120.90294,206.02163 126.19624,186.31103 128.66049,172.37424 C 129.19536,169.34924 129.65296,157.87017 129.67737,146.8652 C 129.71268,130.95043 129.27643,124.09751 127.54538,113.37438 C 124.43459,94.104419 120.82502,83.374239 117.45351,83.374239 C 115.488,83.374239 113.6835,89.093539 114.58071,92.479479 C 117.51529,103.5542 118.81689,114.68825 120.00438,138.87424 C 120.96474,158.43434 115.86686,194.86637 110.45578,207.11334 C 109.42565,209.44485 108.58282,211.81345 108.58282,212.37691 C 108.58282,212.94037 108.16409,214.18277 107.65232,215.13781 C 107.14054,216.09285 104.49524,221.60562 101.77386,227.38843 C 99.052479,233.17123 95.211989,240.01693 93.239449,242.6011 C 91.266909,245.18527 90.059229,247.55064 90.555719,247.85749 C 91.052199,248.16433 92.273909,247.25303 93.270619,245.83236 C 94.267329,244.4117 96.075809,241.99817 97.289459,240.46897 C 98.503109,238.93977 101.3547,234.24287 103.62632,230.03142 C 108.03076,221.86588 110.19478,219.9503 108.04024,226.12424 C 104.76891,235.49839 97.929149,247.71019 93.658369,251.80187 C 90.673619,254.66144 90.352799,256.78348 93.062419,255.7437 C 93.840969,255.44494 95.739059,253.58977 97.280389,251.62109 z M 111.05181,252.42441 C 111.71383,251.35324 108.53252,249.37424 106.14856,249.37424 C 103.81263,249.37424 104.25839,251.30828 106.83282,252.34308 C 109.81054,253.53997 110.35586,253.55049 111.05181,252.42441 z M 187.71552,250.22123 C 188.74254,249.03707 189.58282,247.47791 189.58282,246.75641 C 189.58282,245.04743 186.13908,243.22355 184.26797,243.94157 C 182.73811,244.52863 169.6327,242.1041 165.17521,240.40937 C 163.7494,239.86727 162.58282,238.9001 162.58282,238.2601 C 162.58282,237.02838 166.42572,237.23995 182.37027,239.3495 C 186.92837,239.95257 191.05647,240.19954 191.54381,239.89835 C 192.89585,239.06274 195.81613,229.56076 195.08465,228.3772 C 194.70338,227.76029 190.49223,227.37111 184.76174,227.42319 C 174.2087,227.51911 158.19308,225.93696 154.14764,224.39889 C 150.99626,223.20073 148.85281,223.94821 148.033,226.53122 C 147.68872,227.61594 145.64659,231.5569 143.49493,235.28891 C 141.34327,239.02091 139.58282,242.57377 139.58282,243.18416 C 139.58282,244.36396 143.3476,245.52958 153.08282,247.36394 C 156.38282,247.98574 160.46477,248.91743 162.15382,249.43436 C 163.84287,249.9513 167.21787,250.42748 169.65382,250.49255 C 172.08977,250.55763 175.43282,250.95439 177.08282,251.37424 C 182.67296,252.79669 185.77344,252.46047 187.71552,250.22123 z M 314.58282,250.95695 C 316.50782,250.79608 318.87032,250.59916 319.83282,250.51935 C 320.79532,250.43954 321.58282,249.69924 321.58282,248.87424 C 321.58282,247.59918 318.84609,247.35997 303.33282,247.2791 C 286.27023,247.19016 269.10407,246.83905 241.58282,246.01608 C 235.25782,245.82694 227.8133,245.33452 225.03944,244.9218 C 221.03352,244.32576 219.72969,244.49235 218.70119,245.73162 C 217.59814,247.06071 217.7527,247.363 219.74457,247.77223 C 223.78712,248.60277 243.60594,250.53353 255.58282,251.26362 C 265.94537,251.8953 305.83577,251.68796 314.58282,250.95695 z M 367.57622,249.38209 C 369.49759,248.82777 372.95853,248.37424 375.2672,248.37424 C 377.57587,248.37424 379.70698,247.98236 380.00299,247.5034 C 380.29901,247.02444 381.90799,246.35921 383.57851,246.0251 C 386.51646,245.43751 388.58282,242.45792 388.58282,238.80914 C 388.58282,237.0599 381.13121,236.85156 373.88204,238.39812 C 371.24247,238.96126 365.26325,239.52376 360.59489,239.64812 C 353.13802,239.84677 352.06254,240.1059 351.74131,241.78135 C 351.39412,243.59216 351.89841,243.65476 361.72924,243.02103 C 367.42371,242.65394 374.6966,241.84452 377.89122,241.22232 C 382.31415,240.36089 383.98187,240.37329 384.88287,241.27429 C 386.59209,242.98351 384.03866,244.33996 379.07622,244.35893 C 376.87259,244.36735 373.53795,244.81352 371.66591,245.35041 C 369.79386,245.88731 364.17183,246.62238 359.17251,246.98391 C 350.37238,247.62029 347.58282,248.5013 347.58282,250.64421 C 347.58282,251.85613 362.19884,250.93347 367.57622,249.38209 z M 78.073009,247.39011 C 78.407539,246.84884 77.159159,244.88391 75.298839,243.02359 C 69.448369,237.17312 59.551159,214.64341 56.123859,199.37424 C 53.303339,186.80837 51.409809,180.97193 49.452089,178.80979 C 47.322409,176.45773 46.899319,166.83047 48.619929,159.87424 C 49.164089,157.67424 49.854669,148.44924 50.154539,139.37424 C 50.454409,130.29924 51.112979,121.29002 51.618029,119.35376 C 52.123079,117.41749 52.740649,114.26749 52.990399,112.35376 C 55.303189,94.631649 61.221719,77.230569 69.154509,64.829619 C 71.040079,61.881999 72.582819,59.170599 72.582819,58.804289 C 72.582819,58.437979 73.932819,56.600699 75.582819,54.721449 C 79.327289,50.456739 79.396709,49.142759 75.832819,49.989489 C 71.947579,50.912569 70.222959,52.668539 64.738039,61.285979 C 56.641859,74.005969 53.439059,81.970509 48.215109,102.37424 C 44.007069,118.81001 43.205899,126.61794 43.187199,151.37424 C 43.171659,171.94416 43.448159,176.18342 45.404769,185.37424 C 46.634199,191.14924 48.021369,196.99924 48.487369,198.37424 C 48.953369,199.74924 49.902779,203.34924 50.597169,206.37424 C 51.970449,212.35673 60.077129,231.90415 62.241939,234.45298 C 62.979429,235.32129 63.582819,236.6441 63.582819,237.39257 C 63.582819,239.29902 73.620349,248.37424 75.728949,248.37424 C 76.683659,248.37424 77.738489,247.93138 78.073009,247.39011 z M 115.10989,247.33044 C 116.09158,245.74203 113.51754,243.23917 111.24865,243.57598 C 108.33143,244.00904 108.0352,246.22437 110.74907,247.3121 C 113.85488,248.55691 114.3506,248.559 115.10989,247.33044 z M 416.67657,244.32407 C 419.63054,242.74315 418.23485,241.75921 413.65757,242.19572 C 411.02431,242.44684 409.58282,243.0778 409.58282,243.97928 C 409.58282,245.64033 413.83127,245.84682 416.67657,244.32407 z M 322.33282,242.85076 C 323.57032,242.56772 324.58282,241.63929 324.58282,240.78759 C 324.58282,239.49729 323.2904,239.2884 316.83282,239.53494 C 305.53449,239.96629 230.18429,237.66426 225.33282,236.73951 C 223.0957,236.31309 222.58282,236.5781 222.58282,238.16042 C 222.58282,239.84643 223.54846,240.19518 229.83282,240.77875 C 233.82032,241.14903 243.38282,241.70173 251.08282,242.00697 C 258.78282,242.3122 272.50782,242.85721 281.58282,243.21809 C 298.85565,243.90497 318.49784,243.72792 322.33282,242.85076 z M 90.082939,238.12424 C 100.91632,225.5306 113.28943,186.37481 113.86323,162.86945 L 114.08282,153.87424 L 110.58282,154.1457 C 108.65782,154.295 105.95782,155.23075 104.58282,156.22514 C 103.20782,157.21954 100.05782,158.89738 97.582819,159.95369 C 95.107819,161.00999 86.438369,165.13674 78.317369,169.12424 C 70.196359,173.11174 63.169549,176.37424 62.702229,176.37424 C 62.234899,176.37424 60.654429,177.31668 59.190059,178.46855 C 56.256879,180.77579 56.265299,182.05075 59.288509,193.37424 C 60.096139,196.39924 61.193279,200.67424 61.726589,202.87424 C 62.680109,206.80768 68.175579,221.99327 70.773769,227.87424 C 71.502729,229.52424 73.846689,233.46174 75.982569,236.62424 C 79.388009,241.66653 80.269749,242.37424 83.146479,242.37424 C 85.765739,242.37424 87.163899,241.51758 90.082939,238.12424 z M 119.58282,239.98123 C 119.58282,238.45221 117.48153,237.37424 114.50103,237.37424 C 112.37451,237.37424 111.86524,239.91802 113.83282,240.71196 C 116.40154,241.74846 119.58282,241.34417 119.58282,239.98123 z M 417.26772,239.30392 C 419.68399,238.38524 419.84611,238.10113 418.41203,237.29856 C 416.39577,236.17018 411.16222,237.88468 412.08166,239.37237 C 412.86737,240.64366 413.77553,240.63167 417.26772,239.30392 z M 122.40614,234.04137 C 122.61787,232.94965 122.01386,232.32247 120.65614,232.22424 C 119.51582,232.14174 118.05782,232.02924 117.41615,231.97424 C 115.17511,231.78215 115.43495,234.38457 117.74907,235.30854 C 120.71357,236.49219 121.99865,236.14253 122.40614,234.04137 z M 327.93385,234.1722 C 329.38099,231.88783 328.20984,230.94733 323.86843,230.90745 C 321.88065,230.88918 320.06571,230.31174 319.83522,229.62424 C 319.53882,228.74013 320.83094,228.36976 324.24949,228.35893 C 329.93198,228.34092 331.91705,227.34228 331.41445,224.75441 C 331.07372,223 329.81296,222.86689 312.56606,222.76429 C 302.40028,222.70382 279.00782,222.47882 260.58282,222.26429 C 231.71183,221.92814 227.08282,222.07584 227.08282,223.33324 C 227.08282,225.53912 232.0423,226.17912 254.08282,226.81747 C 290.51745,227.87271 304.58977,228.57647 305.07885,229.36782 C 305.34481,229.79815 304.3295,230.31314 302.82262,230.51224 C 296.36069,231.36603 251.14632,230.50629 241.08282,229.33826 C 235.03282,228.63606 229.24177,228.01939 228.21382,227.96789 C 226.12894,227.86342 223.72406,230.84882 224.92538,232.05014 C 225.34988,232.47464 232.53397,233.12958 240.89001,233.50556 C 258.81748,234.3122 279.0076,235.48195 279.264,235.72882 C 279.36365,235.82476 290.11253,235.89673 303.1504,235.88875 C 324.37361,235.87576 326.96851,235.69603 327.93385,234.1722 z M 376.08282,233.38873 C 386.95486,232.18652 392.58282,230.77234 392.58282,229.24265 C 392.58282,228.17872 386.10603,228.49317 367.58282,230.45644 C 356.39169,231.64258 353.02185,232.65755 354.16008,234.49926 C 354.74665,235.44834 359.74795,235.195 376.08282,233.38873 z M 420.37371,233.73326 C 423.30197,232.94886 422.69011,230.96349 419.4432,230.71392 C 416.36457,230.47729 414.09827,231.78121 415.01372,233.26244 C 415.78761,234.51462 417.04463,234.62504 420.37371,233.73326 z M 125.39795,227.62424 C 125.17962,226.47169 123.95968,225.76726 121.82463,225.56088 C 118.31053,225.2212 117.5257,226.65915 120.33282,228.29414 C 123.17467,229.94937 125.77331,229.60568 125.39795,227.62424 z M 425.13667,226.28711 C 425.50621,225.68918 425.34714,224.73856 424.78319,224.17461 C 423.54367,222.93509 418.4011,224.41941 417.81199,226.18674 C 417.30298,227.71376 424.19657,227.80822 425.13667,226.28711 z M 385.97962,224.54128 C 391.98103,224.03434 394.1412,223.44737 394.97962,222.09577 C 396.59486,219.49185 394.05408,218.18485 388.58282,218.80522 C 386.10782,219.08586 378.23282,219.80411 371.08282,220.40133 C 363.93282,220.99856 357.68557,221.88154 357.20004,222.3635 C 356.71451,222.84547 356.61081,224.00479 356.9696,224.93978 C 357.65354,226.72211 360.64906,226.68097 385.97962,224.54128 z M 197.14169,223.93281 C 198.7217,222.75954 198.86759,222.15492 197.92588,220.68281 C 197.28956,219.6881 196.38956,218.94519 195.92588,219.0319 C 195.4622,219.11862 191.25782,218.79053 186.58282,218.30282 C 181.90782,217.81511 173.80782,217.1548 168.58282,216.83548 C 163.35782,216.51615 158.31232,216.03181 157.37059,215.75916 C 155.04778,215.08667 151.07441,217.26583 152.33144,218.52286 C 152.86127,219.05269 161.10191,220.60333 170.64397,221.96872 C 180.18603,223.33411 188.20084,224.65892 188.45466,224.91275 C 189.48216,225.94025 195.32608,225.28103 197.14169,223.93281 z M 127.58282,220.99087 C 127.58282,219.80588 124.81396,218.43307 122.33282,218.38789 C 121.07553,218.365 121.49796,221.17333 122.83282,221.71196 C 125.2843,222.70115 127.58282,222.35222 127.58282,220.99087 z M 429.39538,216.10903 C 429.65927,214.73874 429.01883,214.37424 426.34727,214.37424 C 422.28166,214.37424 418.3771,216.8698 420.37582,218.19083 C 422.48748,219.58651 429.01586,218.0797 429.39538,216.10903 z M 329.58282,216.74919 C 332.83061,216.05966 335.58282,213.5392 335.58282,211.25444 C 335.58282,208.50233 332.77834,207.63309 325.08282,207.99998 C 317.7355,208.35027 308.86989,206.68717 310.32542,205.23164 C 310.79403,204.76303 316.64083,204.34554 323.3183,204.30389 C 331.54522,204.25259 335.78439,203.83629 336.46803,203.01255 C 337.65372,201.58389 339.86939,188.64693 339.13257,187.45473 C 338.85482,187.00533 335.80946,186.3188 332.3651,185.92912 C 320.9185,184.63408 320.78118,181.37424 332.17322,181.37424 C 338.05608,181.37424 339.77436,181.03867 340.25095,179.7967 C 341.57701,176.34103 338.57294,175.56432 321.58282,174.96999 C 289.23255,173.83837 240.78263,173.17605 238.70024,173.83697 C 236.33835,174.58661 235.92858,176.61038 237.83282,178.1209 C 238.52032,178.66625 248.30782,179.45745 259.58282,179.87912 C 300.50884,181.40969 306.90978,181.83546 307.31262,183.05398 C 307.99997,185.13304 299.75559,185.57787 267.15156,185.22087 L 235.49471,184.87424 L 234.94462,187.0674 C 234.64207,188.27365 234.65955,189.68937 234.98345,190.21346 C 235.30736,190.73755 241.53722,191.24416 248.82759,191.33927 C 256.11797,191.43438 272.65782,191.65148 285.58282,191.82173 C 313.6698,192.1917 326.13739,193.1326 327.68653,194.9992 C 328.54893,196.03833 328.37769,196.5266 326.94544,197.11241 C 323.25181,198.62314 258.24267,197.33495 244.58282,195.48034 C 234.19779,194.07036 233.79789,194.10387 232.52038,196.4909 C 229.9745,201.24792 233.98043,201.94002 269.58282,202.89415 C 279.20782,203.1521 287.64532,203.36564 288.33282,203.36869 C 291.22515,203.38153 289.2759,205.2503 285.74857,205.84624 C 280.35181,206.75801 240.98236,206.8089 235.73953,205.91087 C 231.84418,205.24365 231.43285,205.3581 231.75114,207.02058 C 232.25395,209.64689 239.90438,210.21274 282.81452,210.79742 C 317.81953,211.27439 323.65045,211.83776 321.95615,214.57919 C 321.24079,215.73668 257.66017,215.09504 238.83282,213.74033 C 230.88986,213.1688 229.58282,213.29192 229.58282,214.61165 C 229.58282,216.39661 235.58312,216.95686 258.04395,217.26909 C 265.72257,217.37583 272.23608,217.69417 272.51842,217.97651 C 273.15813,218.61622 326.15796,217.47632 329.58282,216.74919 z M 131.32674,214.66112 C 131.79782,213.22584 127.28824,211.88957 124.97243,212.77823 C 123.63957,213.2897 123.58057,213.66661 124.6346,214.93663 C 126.08586,216.68529 130.72507,216.4943 131.32674,214.66112 z M 381.75499,213.95107 C 389.82469,213.20164 396.91219,212.28871 397.50499,211.92234 C 398.0978,211.55597 398.58282,210.12744 398.58282,208.74784 C 398.58282,206.83658 398.16623,206.35756 396.83282,206.73558 C 395.87032,207.00844 387.31591,207.5405 377.82302,207.91792 C 360.84286,208.59303 360.55375,208.64187 359.97888,210.93236 C 358.72199,215.94018 359.36973,216.02997 381.75499,213.95107 z M 199.15641,212.34626 C 200.64349,211.78087 201.53651,210.99337 201.14088,210.59626 C 200.74526,210.19915 194.92514,209.37696 188.20728,208.76918 C 175.74899,207.64205 169.83387,205.93251 172.74849,204.30141 C 173.57309,203.83993 180.20633,204.10726 187.65839,204.90229 C 195.04183,205.68999 201.42032,206.34343 201.83282,206.35436 C 202.24532,206.36529 202.58282,205.51006 202.58282,204.45383 C 202.58282,202.80782 201.61835,202.44924 195.83282,201.94421 C 187.96519,201.25742 163.99193,198.67166 161.10494,198.19844 C 159.55996,197.9452 158.79446,198.82246 157.60739,202.20664 C 156.20444,206.20626 156.22126,206.63669 157.82634,207.81035 C 159.52117,209.04965 168.88295,210.58368 185.08282,212.27662 C 196.53565,213.47348 196.19602,213.4718 199.15641,212.34626 z M 133.08282,209.29091 C 133.08282,207.68687 129.28893,206.86125 126.76009,207.91496 C 125.38957,208.48603 125.63148,208.85754 128.08282,209.94637 C 131.55723,211.48962 133.08282,211.28962 133.08282,209.29091 z M 429.43962,208.27431 C 431.2938,207.62794 432.81357,206.2878 433.12524,205.02431 C 434.27599,200.35922 434.04487,197.13102 432.4876,196.11772 C 430.58713,194.88111 425.62931,195.9236 425.18121,197.65404 C 425.00743,198.32515 424.29476,200.63864 423.59751,202.79514 C 422.46347,206.30251 422.52147,206.85621 424.14742,208.04514 C 426.3169,209.6315 425.63154,209.60182 429.43962,208.27431 z M 135.4517,205.03223 C 136.97282,203.1994 135.87523,202.37424 131.91615,202.37424 C 128.28262,202.37424 127.57143,203.68578 130.33282,205.29414 C 132.72747,206.68889 134.13663,206.61679 135.4517,205.03223 z M 399.83282,201.63772 C 401.96684,199.71899 402.11141,196.79106 400.11004,196.02306 C 399.30001,195.71222 394.91251,195.8634 390.36004,196.35901 C 385.80757,196.85462 378.1187,196.93427 373.27366,196.536 C 363.0987,195.69961 361.89569,196.44624 362.46767,203.24251 C 362.64498,205.34932 397.36317,203.85822 399.83282,201.63772 z M 136.13667,196.46137 C 135.34852,195.18612 130.58282,194.98023 130.58282,196.22143 C 130.58282,197.51746 134.96771,199.25753 135.94569,198.34958 C 136.42026,197.90899 136.50621,197.0593 136.13667,196.46137 z M 205.39924,195.62424 C 205.20243,193.91376 204.22265,192.49694 202.80728,191.87611 C 200.10554,190.69104 200.27985,188.05051 203.0943,187.52812 C 205.62361,187.05865 207.58282,185.47845 207.58282,183.90793 C 207.58282,183.03135 203.41842,182.49838 192.83282,182.02018 C 176.10128,181.26435 168.26557,179.68096 167.73954,176.94948 C 167.4143,175.26068 168.32854,175.19627 183.23837,175.85749 C 191.95282,176.24396 200.88282,176.948 203.08282,177.42204 C 206.09289,178.07062 207.43278,177.93629 208.49692,176.87927 C 210.91659,174.47576 208.14121,172.58291 201.27093,171.95104 C 187.06242,170.64425 166.77986,170.50967 165.13657,171.71128 C 163.58385,172.84666 161.44378,182.67699 161.1886,189.84609 C 161.09256,192.54425 161.45119,192.88902 165.08282,193.58979 C 167.28282,194.01431 171.33282,194.59619 174.08282,194.88286 C 176.83282,195.16954 182.00782,195.84939 185.58282,196.39366 C 196.29332,198.02424 196.91323,198.09653 201.39924,198.23806 C 205.54528,198.36886 205.70317,198.26569 205.39924,195.62424 z M 139.24699,191.80702 C 140.0341,189.75585 138.73568,188.55481 134.90224,187.78812 C 132.27195,187.26207 131.67345,187.51332 131.07648,189.39422 C 130.23889,192.03323 131.81285,193.33662 135.8642,193.35893 C 137.47801,193.36781 138.89805,192.71635 139.24699,191.80702 z M 402.47312,191.94204 C 403.08345,191.56483 403.58282,190.16538 403.58282,188.83215 L 403.58282,186.4081 L 384.59784,186.55618 C 366.77101,186.69522 365.57538,186.82234 364.9985,188.63991 C 364.30378,190.82879 365.172,191.96086 368.08282,192.66154 C 371.03725,193.37271 401.17859,192.7421 402.47312,191.94204 z M 435.44576,190.92424 C 436.95753,187.78375 437.55294,176.74436 436.27925,175.47067 C 435.67621,174.86763 433.91168,174.37424 432.35807,174.37424 C 430.24602,174.37424 429.28726,175.02143 428.55807,176.93934 C 426.76355,181.65928 427.28743,183.37424 430.5238,183.37424 C 432.14134,183.37424 433.73475,183.81105 434.0647,184.34492 C 434.62202,185.24668 433.01243,185.85378 428.0943,186.59679 C 425.83392,186.93828 424.9034,189.85067 426.4567,191.72228 C 428.20367,193.82725 434.30924,193.2852 435.44576,190.92424 z M 140.58282,183.38739 C 142.58976,182.10801 140.78701,179.14777 137.48818,178.30578 C 134.65238,177.58198 132.58282,178.89727 132.58282,181.42336 C 132.58282,183.95167 137.71946,185.21273 140.58282,183.38739 z M 404.71251,181.19864 C 407.83204,176.27834 402.97949,173.92906 391.36811,174.73817 C 386.8112,175.05571 379.58418,175.32873 375.30807,175.34488 C 367.77852,175.37331 367.5007,175.46003 366.49907,178.09452 C 364.77804,182.62117 366.53877,183.03944 386.17175,182.76788 C 399.56077,182.58268 404.07738,182.2004 404.71251,181.19864 z M 142.39774,172.65959 C 142.63318,171.00389 142.08526,170.28746 140.22683,169.82103 C 134.9293,168.49143 132.08512,170.73368 135.1639,173.81246 C 137.53957,176.18813 141.997,175.47774 142.39774,172.65959 z M 79.690429,161.46338 C 117.2051,142.36177 113.94191,144.31844 114.71351,140.46289 C 115.49316,136.56716 114.92483,134.37424 113.13555,134.37424 C 112.45724,134.37424 109.24289,135.67268 105.99254,137.25965 C 78.322569,150.76948 66.474329,156.74078 66.083569,157.37303 C 65.831049,157.78162 64.222889,158.39623 62.509879,158.73883 C 58.125399,159.61572 52.582819,165.40491 52.582819,169.10757 C 52.582819,172.27197 53.234959,173.37424 55.107099,173.37424 C 55.762109,173.37424 66.824609,168.01435 79.690429,161.46338 z M 338.08282,167.56925 C 343.00692,166.1923 341.90925,163.7292 335.33282,161.39839 C 331.50351,160.04122 331.71277,157.37424 335.64856,157.37424 C 341.7741,157.37424 342.75677,156.0399 342.13977,148.56004 C 341.83645,144.88285 341.3671,135.84046 341.09677,128.46584 C 340.75577,119.16311 340.1627,114.382 339.15991,112.85154 C 337.73163,110.67172 336.18205,110.34105 320.58282,108.88734 C 319.20782,108.7592 309.75782,108.3322 299.58282,107.93846 C 289.40782,107.54472 280.48301,107.0315 279.74991,106.79797 C 279.01682,106.56444 268.82725,106.10287 257.10644,105.77226 C 238.02426,105.23399 235.70013,105.3422 234.88036,106.80705 C 234.31485,107.81756 234.42262,112.53952 235.16226,119.15861 C 235.82084,125.0522 236.62306,135.72424 236.94497,142.87424 C 237.26688,150.02424 237.54208,155.96635 237.55654,156.07893 C 237.72262,157.37238 267.07038,158.43627 300.83282,158.37277 C 322.10444,158.33276 325.58282,158.53546 325.58282,159.81505 C 325.58282,163.17601 321.80038,163.59011 291.69787,163.52479 C 275.40959,163.48945 256.81179,163.23244 250.36942,162.95366 C 243.92705,162.67488 238.41041,162.84419 238.11023,163.3299 C 237.81004,163.8156 238.27572,164.92428 239.14506,165.79362 C 240.37141,167.01997 243.11911,167.40071 251.40425,167.49236 C 284.86932,167.86253 307.89666,168.35475 308.24937,168.70746 C 308.96779,169.42588 334.99427,168.43291 338.08282,167.56925 z M 403.9381,167.42926 C 405.95464,166.66257 406.36104,165.65214 406.87757,160.12079 C 407.35921,154.96303 406.59927,140.00222 405.13801,125.87424 C 404.45252,119.2467 401.54848,117.17502 391.08282,115.84757 C 388.33282,115.49877 382.51692,114.56913 378.1586,113.78172 C 373.80028,112.9943 369.45752,112.59662 368.50802,112.89798 C 366.6794,113.47836 365.10786,117.79673 366.12584,119.44385 C 366.45816,119.98155 366.70408,128.62335 366.67232,138.64786 C 366.64057,148.67237 367.04089,157.54924 367.56191,158.37424 C 368.32183,159.57753 371.20032,159.89752 382.11372,159.99194 C 390.48175,160.06434 396.13975,160.53117 396.81336,161.20478 C 398.84755,163.23897 392.83148,164.37424 380.01772,164.37424 C 369.95624,164.37424 367.58282,164.64464 367.58282,165.79091 C 367.58282,166.57007 368.14532,167.42096 368.83282,167.68176 C 371.12514,168.55136 401.56258,168.33243 403.9381,167.42926 z M 436.65239,166.79042 C 438.46639,164.60467 436.67645,161.96831 433.09046,161.54416 C 430.0369,161.18299 428.62194,162.62558 428.59813,166.12424 C 428.58525,168.01649 429.11985,168.37424 431.96038,168.37424 C 433.82214,168.37424 435.92784,167.66345 436.65239,166.79042 z M 209.71038,163.71932 C 212.81532,159.97533 210.70977,108.8068 207.36571,106.74006 C 206.31737,106.09214 198.14206,106.14915 182.58282,106.91285 C 177.90782,107.14232 171.83282,107.3469 169.08282,107.36746 C 160.99047,107.42799 161.0356,107.32403 162.93575,121.52573 C 163.84446,128.31741 164.58679,137.75664 164.58538,142.5018 C 164.58367,148.27777 165.00432,151.47916 165.85808,152.18772 C 166.55947,152.76982 173.64697,153.51288 181.60808,153.83895 C 198.23959,154.52016 204.61854,155.16025 206.52636,156.33935 C 208.77298,157.72783 206.96451,160.08005 203.09181,160.80658 C 197.46152,161.86282 174.86228,161.52658 170.38095,160.31988 C 165.88705,159.1098 164.64547,159.6632 166.22521,162.1722 C 167.14716,163.63648 169.79633,163.94898 185.18984,164.40928 C 195.03098,164.70355 204.26522,165.04105 205.71038,165.15928 C 207.16158,165.278 208.95237,164.63334 209.71038,163.71932 z M 143.40216,159.62585 C 143.63818,157.96408 143.03406,157.1161 141.08668,156.37571 C 137.54735,155.03006 134.58282,156.66697 134.58282,159.96692 C 134.58282,162.31592 134.87485,162.46811 138.83282,162.18174 C 142.36486,161.92619 143.13677,161.49442 143.40216,159.62585 z M 437.68096,156.65641 C 438.36449,154.88423 438.55171,148.83462 438.19668,139.99182 C 437.54908,123.86192 436.60333,121.37424 431.11878,121.37424 C 429.23892,121.37424 427.44238,121.79246 427.12646,122.30363 C 426.61389,123.13298 428.37663,155.34035 429.07536,157.91226 C 429.23046,158.48317 430.98872,159.06015 432.98261,159.19443 C 436.12619,159.40614 436.75044,159.06892 437.68096,156.65641 z M 73.214039,148.5529 C 81.941869,144.25116 94.360809,138.16436 100.81168,135.02667 C 107.26255,131.88897 113.00682,128.45052 113.57671,127.38565 C 114.99465,124.73621 113.37647,111.21352 110.08107,98.173579 C 104.96427,77.926299 97.983039,60.832149 92.295569,54.624239 C 88.260979,50.220449 82.771099,52.368489 77.288639,60.496049 C 70.000539,71.300399 67.385719,77.725739 60.246099,102.37424 C 57.783299,110.87669 55.819489,125.51675 55.114389,140.63059 C 54.498009,153.84296 54.724499,156.37424 56.523049,156.37424 C 56.975259,156.37424 64.486199,152.85464 73.214039,148.5529 z M 142.58707,150.37197 C 144.25799,149.47772 144.41684,148.37298 144.06094,140.12197 C 143.2354,120.98326 142.45934,115.25076 140.41748,113.2089 C 138.59017,111.38159 135.36088,111.39436 133.40637,113.23663 C 133.03432,113.58732 133.30483,118.82424 134.0075,124.87424 C 134.71018,130.92424 135.21793,138.55259 135.13585,141.82614 C 135.02211,146.36251 135.41425,148.20567 136.78472,149.57614 C 138.84054,151.63196 139.94874,151.78396 142.58707,150.37197 z M 434.58282,111.82976 C 434.58282,108.00938 430.15393,89.348059 428.48536,86.137799 C 427.98896,85.182769 427.58282,83.520779 427.58282,82.444509 C 427.58282,79.953139 423.93923,77.374239 420.41933,77.374239 C 416.0804,77.374239 415.98123,75.553709 421.67224,100.37424 C 424.52074,112.79754 425.52685,114.37424 430.60587,114.37424 C 434.19982,114.37424 434.58282,114.1292 434.58282,111.82976 z M 401.01424,105.87424 C 400.97652,103.67424 400.17285,98.499239 399.22829,94.374239 C 398.28374,90.249239 397.0888,84.737019 396.57288,82.124859 C 395.3313,75.838709 392.99009,71.483939 390.28472,70.428539 C 388.01068,69.541399 379.34513,67.486169 364.58282,64.332749 C 352.72924,61.800669 352.3471,62.279289 356.43305,74.540139 C 358.14388,79.673889 360.55225,88.554379 361.78499,94.274559 C 363.01772,99.994739 364.59742,105.24598 365.29543,105.94399 C 365.99343,106.64199 369.60615,107.51663 373.32368,107.88762 C 377.0412,108.25862 382.33282,108.92689 385.08282,109.37268 C 387.83282,109.81846 392.55782,110.11368 395.58282,110.02871 L 401.08282,109.87424 L 401.01424,105.87424 z M 136.75408,104.71925 C 137.75989,103.809 138.58282,101.7908 138.58282,100.23436 C 138.58282,94.352109 130.18984,70.220419 126.66815,65.977049 C 125.07325,64.055309 122.58121,63.917719 120.27802,65.624239 C 118.71874,66.779559 118.71232,67.101459 120.19336,69.874239 C 122.9478,75.031079 126.26368,84.518199 128.58171,93.874239 C 131.80705,106.89241 132.83923,108.26214 136.75408,104.71925 z M 337.58282,100.80849 C 337.58282,99.397339 337.17104,97.473329 336.66774,96.532919 C 336.16445,95.592509 335.52059,92.134589 335.23693,88.848659 C 334.95328,85.562729 333.08828,77.777579 331.09249,71.548339 C 327.60413,60.660469 327.32106,60.162629 323.77331,58.675689 C 321.74354,57.824979 316.70782,56.732849 312.58282,56.248749 C 308.45782,55.764639 301.48282,54.920199 297.08282,54.372199 C 285.97651,52.988959 259.36556,51.424739 238.88099,50.951019 C 225.48635,50.641259 221.4372,50.844769 220.58591,51.870519 C 219.77239,52.850749 220.38569,55.834399 222.98279,63.531019 C 226.84256,74.969669 231.58282,92.562299 231.58282,95.448529 C 231.58282,96.468959 232.42827,97.756339 233.46159,98.309349 C 234.49491,98.862369 244.28241,99.580819 255.21159,99.905909 C 290.94147,100.9687 317.77044,102.26853 318.49949,102.97212 C 318.72865,103.19328 323.11615,103.37424 328.24949,103.37424 L 337.58282,103.37424 L 337.58282,100.80849 z M 184.08282,100.86694 C 193.43282,100.06047 202.15782,99.394699 203.47171,99.387439 C 205.77693,99.374699 205.84104,99.172859 205.30223,93.624239 C 204.55354,85.914269 196.49937,61.576259 192.6898,55.512129 C 191.28279,53.272429 190.81407,53.180409 183.64436,53.736199 C 175.21656,54.389529 153.54255,57.042399 149.41636,57.925659 C 145.99302,58.658469 145.22896,60.756249 146.94338,64.715469 C 151.0529,74.205859 153.94945,82.229569 156.11755,90.128759 C 156.91076,93.018749 158.21699,96.956249 159.02026,98.878759 C 160.75799,103.03773 159.79794,102.96157 184.08282,100.86694 z M 438.501,80.252909 C 441.60161,79.172039 441.69297,78.982679 441.03427,75.002909 C 440.11692,69.460549 429.53597,56.374239 425.97204,56.374239 C 424.06687,56.374239 424.23004,58.259399 426.52482,62.760469 C 427.59292,64.855479 428.76398,67.922559 429.12718,69.576189 C 430.04166,73.739799 433.50569,81.374239 434.48039,81.374239 C 434.92258,81.374239 436.73185,80.869639 438.501,80.252909 z M 115.52469,78.622389 C 117.62111,76.924809 117.6377,76.746679 116.0601,72.872389 C 112.73756,64.712859 108.19853,56.361839 105.92542,54.226359 C 104.63699,53.015949 103.58282,51.475669 103.58282,50.803509 C 103.58282,48.298289 96.639579,43.374239 93.107049,43.374239 C 88.275649,43.374239 88.098489,44.597579 92.360069,48.532179 C 96.182399,52.061219 100.58282,57.040949 100.58282,57.837429 C 100.58282,58.083819 101.67784,59.899019 103.0162,61.871189 C 104.35455,63.843369 106.20553,67.800849 107.12949,70.665599 C 108.98865,76.429969 111.1685,80.374239 112.49509,80.374239 C 112.97148,80.374239 114.3348,79.585899 115.52469,78.622389 z M 409.97731,77.544949 C 410.91955,76.020379 403.66481,55.571669 401.04732,52.374239 C 400.37195,51.549239 399.5171,49.881499 399.14765,48.668159 C 398.36743,46.105759 393.08605,41.374239 391.00609,41.374239 C 389.01732,41.374239 389.23272,44.273939 391.58282,49.138099 C 392.68282,51.414839 393.58282,53.948759 393.58282,54.769029 C 393.58282,56.444709 399.29429,73.916869 400.72707,76.624239 C 401.69883,78.460469 408.96453,79.183659 409.97731,77.544949 z M 141.92716,73.930909 C 144.87155,71.202149 144.85869,71.117959 140.08594,61.874239 C 135.35527,52.712019 132.25433,48.213549 126.04878,41.510809 C 121.61277,36.719389 119.73339,35.374239 117.47511,35.374239 C 113.82761,35.374239 113.7062,37.358369 117.08282,41.785349 C 118.45782,43.588069 119.58282,45.353019 119.58282,45.707459 C 119.58282,46.061899 121.52558,48.944429 123.90006,52.113069 C 128.14597,57.779059 129.3253,59.941839 133.57506,69.856139 C 136.64527,77.018629 137.92289,77.641949 141.92716,73.930909 z M 422.58282,68.264209 C 422.58282,66.262379 417.88859,56.644819 415.29279,53.328339 C 413.56652,51.122819 409.38118,48.374239 407.74902,48.374239 C 406.13457,48.374239 406.8852,54.154939 409.04754,58.374239 C 409.75221,59.749239 411.06047,62.576069 411.9548,64.656099 C 413.58925,68.457489 416.16104,70.193319 420.33282,70.310849 C 421.97529,70.357119 422.58282,69.804499 422.58282,68.264209 z M 389.03079,59.124239 C 388.30692,55.815099 382.59213,44.131159 380.3291,41.333549 C 377.77803,38.179839 371.9301,34.470949 367.08282,32.932439 C 361.08106,31.027499 350.23445,27.637659 346.08282,26.369419 C 344.43282,25.865379 341.17017,25.152719 338.83249,24.785749 L 334.58216,24.118509 L 336.70572,28.996369 C 337.87367,31.679199 339.39663,34.549239 340.09008,35.374239 C 340.78352,36.199239 342.92414,40.249239 344.84701,44.374239 C 346.76987,48.499239 348.95955,52.658969 349.71297,53.618079 C 351.09052,55.371729 362.44539,58.315559 377.58282,60.843529 C 389.90173,62.900809 389.85834,62.907329 389.03079,59.124239 z M 119.91864,57.206489 C 121.10738,55.318699 118.50704,51.011309 111.71914,43.624239 C 108.14275,39.732139 103.58282,37.895319 103.58282,40.346779 C 103.58282,40.881669 106.33817,45.404009 109.70582,50.396409 C 115.85221,59.508199 117.69533,60.737219 119.91864,57.206489 z M 153.08319,51.839669 C 160.71088,50.167419 161.57763,50.030099 175.58282,48.275149 C 185.79885,46.994999 187.7787,46.168779 186.90288,43.551119 C 184.95704,37.735389 181.20675,31.355799 176.91738,26.564829 C 174.07881,23.394319 173.25272,23.040699 168.91738,23.140349 C 163.94893,23.254539 154.49868,24.983839 139.58282,28.508249 C 131.00646,30.534729 126.19666,32.746889 126.77073,34.400879 C 126.94238,34.895429 130.23282,39.363729 134.08282,44.330439 C 141.94367,54.471349 141.63525,54.349459 153.08319,51.839669 z M 321.09064,49.361579 C 321.81157,48.195099 314.03068,32.308729 309.04904,24.776019 L 305.67741,19.677809 L 296.38012,18.332699 C 290.00702,17.410649 275.6028,16.969759 250.58282,16.930909 C 213.04921,16.872629 204.58282,17.418329 204.58282,19.895799 C 204.58282,20.665269 206.33327,24.800199 208.4727,29.084529 C 210.61213,33.368869 213.07422,38.549919 213.944,40.597979 C 214.94934,42.965229 216.35551,44.499459 217.80412,44.809639 C 219.05741,45.077989 232.00782,45.545249 246.58282,45.847989 C 261.15782,46.150729 275.10782,46.572779 277.58282,46.785889 C 280.05782,46.998989 285.68282,47.466799 290.08282,47.825469 C 303.2831,48.901499 309.05967,49.538869 309.49949,49.967839 C 310.39727,50.843489 320.50139,50.315009 321.09064,49.361579 z "
       style="fill:#b2aa7e;fill-opacity:1;stroke:none;stroke-opacity:1"
       id="path3548" />
  </g>
</svg>
