<?xml version="1.0" encoding="UTF-8" standalone="no"?>
<!-- Created with Inkscape (http://www.inkscape.org/) -->

<svg
   xmlns:dc="http://purl.org/dc/elements/1.1/"
   xmlns:cc="http://creativecommons.org/ns#"
   xmlns:rdf="http://www.w3.org/1999/02/22-rdf-syntax-ns#"
   xmlns:svg="http://www.w3.org/2000/svg"
   xmlns="http://www.w3.org/2000/svg"
   xmlns:xlink="http://www.w3.org/1999/xlink"
   xmlns:sodipodi="http://sodipodi.sourceforge.net/DTD/sodipodi-0.dtd"
   xmlns:inkscape="http://www.inkscape.org/namespaces/inkscape"
   width="710.00067"
   height="216.32384"
   id="svg30279"
   version="1.1"
   inkscape:version="0.48.0 r9654"
   sodipodi:docname="rpg_sword2.svg">
  <defs
     id="defs30281">
    <linearGradient
       id="linearGradient4525">
      <stop
         style="stop-color:#353535;stop-opacity:1;"
         offset="0"
         id="stop4527" />
      <stop
         style="stop-color:#bd9d73;stop-opacity:1;"
         offset="1"
         id="stop4529" />
    </linearGradient>
    <linearGradient
       id="linearGradient4415">
      <stop
         id="stop4417"
         offset="0"
         style="stop-color:#353535;stop-opacity:1;" />
      <stop
         id="stop4419"
         offset="1"
         style="stop-color:#bd9d73;stop-opacity:1;" />
    </linearGradient>
    <linearGradient
       id="linearGradient4405">
      <stop
         style="stop-color:#816647;stop-opacity:1;"
         offset="0"
         id="stop4407" />
      <stop
         style="stop-color:#000000;stop-opacity:1;"
         offset="1"
         id="stop4409" />
    </linearGradient>
    <linearGradient
       id="linearGradient4397">
      <stop
         style="stop-color:#9d7c56;stop-opacity:1;"
         offset="0"
         id="stop4399" />
      <stop
         style="stop-color:#bfbcb8;stop-opacity:1;"
         offset="1"
         id="stop4401" />
    </linearGradient>
    <linearGradient
       inkscape:collect="always"
       id="linearGradient4333">
      <stop
         style="stop-color:#000000;stop-opacity:1;"
         offset="0"
         id="stop4335" />
      <stop
         style="stop-color:#000000;stop-opacity:0;"
         offset="1"
         id="stop4337" />
    </linearGradient>
    <linearGradient
       id="linearGradient4223">
      <stop
         style="stop-color:#ff0000;stop-opacity:1;"
         offset="0"
         id="stop4225" />
      <stop
         id="stop4231"
         offset="0.5"
         style="stop-color:#850000;stop-opacity:1;" />
      <stop
         style="stop-color:#000000;stop-opacity:1;"
         offset="1"
         id="stop4227" />
    </linearGradient>
    <linearGradient
       id="linearGradient3965">
      <stop
         style="stop-color:#000000;stop-opacity:1;"
         offset="0"
         id="stop3967" />
      <stop
         style="stop-color:#ffffff;stop-opacity:1;"
         offset="1"
         id="stop3969" />
    </linearGradient>
    <linearGradient
       id="linearGradient3947">
      <stop
         style="stop-color:#816647;stop-opacity:1;"
         offset="0"
         id="stop3949" />
      <stop
         id="stop3955"
         offset="0.29842165"
         style="stop-color:#a27a4f;stop-opacity:1;" />
      <stop
         style="stop-color:#ffffff;stop-opacity:1;"
         offset="1"
         id="stop3951" />
    </linearGradient>
    <filter
       inkscape:collect="always"
       id="filter3825"
       x="-0.060534853"
       width="1.1210697"
       y="-0.23180747"
       height="1.4636149"
       color-interpolation-filters="sRGB">
      <feGaussianBlur
         inkscape:collect="always"
         stdDeviation="1.244752"
         id="feGaussianBlur3827" />
    </filter>
    <filter
       inkscape:collect="always"
       id="filter3939"
       color-interpolation-filters="sRGB">
      <feGaussianBlur
         inkscape:collect="always"
         stdDeviation="0.52382177"
         id="feGaussianBlur3941" />
    </filter>
    <linearGradient
       inkscape:collect="always"
       xlink:href="#linearGradient3947"
       id="linearGradient3953"
       x1="556.52313"
       y1="344.4754"
       x2="552.29681"
       y2="362.88968"
       gradientUnits="userSpaceOnUse"
       gradientTransform="matrix(8.516862,0,0,8.516862,-4231.5469,-2714.1566)" />
    <linearGradient
       inkscape:collect="always"
       xlink:href="#linearGradient3965"
       id="linearGradient3973"
       x1="555.58118"
       y1="348.89484"
       x2="552.20752"
       y2="369.5188"
       gradientUnits="userSpaceOnUse"
       gradientTransform="matrix(8.5168619,0,0,8.5168619,-4231.5469,-2714.1566)" />
    <filter
       inkscape:collect="always"
       id="filter4205"
       x="-0.087862968"
       width="1.1757259"
       y="-0.14210863"
       height="1.2842174"
       color-interpolation-filters="sRGB">
      <feGaussianBlur
         inkscape:collect="always"
         stdDeviation="1.2670542"
         id="feGaussianBlur4207" />
    </filter>
    <radialGradient
       inkscape:collect="always"
       xlink:href="#linearGradient4223"
       id="radialGradient4229"
       cx="557.06757"
       cy="353.1019"
       fx="557.06757"
       fy="353.1019"
       r="2.8503101"
       gradientTransform="matrix(8.516862,0,0,10.937853,-4215.7679,-3569.0132)"
       gradientUnits="userSpaceOnUse" />
    <filter
       inkscape:collect="always"
       id="filter4319"
       x="-0.41351327"
       width="1.8270265"
       y="-0.31875014"
       height="1.6375003"
       color-interpolation-filters="sRGB">
      <feGaussianBlur
         inkscape:collect="always"
         stdDeviation="0.43149075"
         id="feGaussianBlur4321" />
    </filter>
    <linearGradient
       inkscape:collect="always"
       xlink:href="#linearGradient4333"
       id="linearGradient4339"
       x1="555.39575"
       y1="350.45026"
       x2="559.32855"
       y2="356.49011"
       gradientUnits="userSpaceOnUse"
       gradientTransform="matrix(8.5168619,0,0,8.5168619,-4215.7677,-2714.1566)" />
    <linearGradient
       inkscape:collect="always"
       xlink:href="#linearGradient4397"
       id="linearGradient4403"
       x1="574.43494"
       y1="352.75146"
       x2="574.45905"
       y2="351.13687"
       gradientUnits="userSpaceOnUse"
       gradientTransform="matrix(8.3265959,-0.41357182,0.63377188,12.759966,-4335.6029,-3981.6999)" />
    <linearGradient
       inkscape:collect="always"
       xlink:href="#linearGradient4405"
       id="linearGradient4411"
       x1="573.75793"
       y1="349.83481"
       x2="573.78198"
       y2="353.22021"
       gradientUnits="userSpaceOnUse"
       gradientTransform="matrix(8.1644469,-0.40551806,0.57918701,11.660989,-4224.4353,-3598.639)" />
    <linearGradient
       inkscape:collect="always"
       xlink:href="#linearGradient4415"
       id="linearGradient4421"
       gradientUnits="userSpaceOnUse"
       gradientTransform="matrix(8.3659223,-0.41552509,0.68835665,13.858943,-4376.9659,-4367.0098)"
       x1="574.43494"
       y1="352.75146"
       x2="574.45905"
       y2="351.13687" />
    <filter
       inkscape:collect="always"
       id="filter4561"
       x="-0.020667622"
       width="1.0413352"
       y="-0.13945656"
       height="1.2789131"
       color-interpolation-filters="sRGB">
      <feGaussianBlur
         inkscape:collect="always"
         stdDeviation="0.19082595"
         id="feGaussianBlur4563" />
    </filter>
  </defs>
  <sodipodi:namedview
     id="base"
     pagecolor="#ffffff"
     bordercolor="#666666"
     borderopacity="1.0"
     inkscape:pageopacity="0.0"
     inkscape:pageshadow="2"
     inkscape:zoom="0.6"
     inkscape:cx="347.836"
     inkscape:cy="218.90539"
     inkscape:current-layer="layer1"
     inkscape:document-units="px"
     showgrid="false"
     showborder="true"
     inkscape:showpageshadow="false"
     borderlayer="false"
     inkscape:window-width="936"
     inkscape:window-height="774"
     inkscape:window-x="430"
     inkscape:window-y="36"
     inkscape:window-maximized="0"
     fit-margin-top="0"
     fit-margin-left="0"
     fit-margin-right="0"
     fit-margin-bottom="0" />
  <metadata
     id="metadata30284">
    <rdf:RDF>
      <cc:Work
         rdf:about="">
        <dc:format>image/svg+xml</dc:format>
        <dc:type
           rdf:resource="http://purl.org/dc/dcmitype/StillImage" />
        <dc:title></dc:title>
      </cc:Work>
    </rdf:RDF>
  </metadata>
  <g
     id="layer1"
     inkscape:label="Layer 1"
     inkscape:groupmode="layer"
     transform="translate(-55.673121,-188.70845)">
    <path
       sodipodi:nodetypes="ccccc"
       inkscape:connector-curvature="0"
       id="path4341"
       d="m 555.41197,260.71932 c 51.3867,5.74989 166.05614,2.95096 207.01843,-2.30618 l 2.12301,33.20722 c -41.89214,-5.35629 -158.92905,6.25524 -205.0782,16.81535 z"
       style="fill:#000000;stroke:none" />
    <path
       style="fill:url(#linearGradient4411);fill-opacity:1;stroke:none"
       d="m 572.55319,263.22249 c 46.23303,4.56591 149.45901,1.83309 186.34902,-2.66293 l 1.7898,27.4462 c -37.6882,-4.27525 -143.07742,5.75209 -184.6556,14.6512 z"
       id="path3005"
       inkscape:connector-curvature="0"
       sodipodi:nodetypes="ccccc" />
    <path
       sodipodi:nodetypes="ccccc"
       inkscape:connector-curvature="0"
       id="path4343"
       d="m 581.07132,264.62589 c 44.22569,3.92733 143.01145,1.1573 178.32584,-2.9737 l 1.6244,24.49153 c -36.05014,-3.69503 -136.92913,5.59236 -176.74374,13.66853 z"
       style="fill:url(#linearGradient4403);fill-opacity:1;stroke:none" />
    <path
       sodipodi:nodetypes="ccccc"
       inkscape:connector-curvature="0"
       id="path3001"
       d="m 520.63917,216.52562 c -149.46855,16.55374 -269.56985,57.27487 -449.191397,49.01471 42.893107,74.01427 73.941847,74.72979 107.108487,85.66058 34.18635,7.44433 73.79065,9.96575 347.44742,-8.35619 z"
       style="fill:#cccccf;stroke:#003366;stroke-width:10.13450909px;stroke-linecap:butt;stroke-linejoin:miter;stroke-opacity:1" />
    <path
       style="fill:#eeeeee;stroke:#003366;stroke-width:1.18993461px;stroke-linecap:butt;stroke-linejoin:miter;stroke-opacity:1;filter:url(#filter3939)"
       d="m 556.12112,344.10352 c -17.54972,1.94364 -31.65131,6.72488 -52.74142,5.75502 5.03626,8.69032 8.68182,8.77433 12.57605,10.05776 4.01396,0.87407 8.66407,1.17012 40.79524,-0.98113 z"
       id="path3869"
       inkscape:connector-curvature="0"
       sodipodi:nodetypes="ccccc"
       transform="matrix(8.516862,0,0,8.516862,-4215.7679,-2714.1566)" />
    <path
       style="fill:#666666;stroke:none"
       d="m 506.74341,235.44942 c -137.76775,13.9638 -248.18009,46.16461 -414.035247,41.40351 40.360037,56.26069 69.021667,56.53859 99.744817,64.61455 31.62771,5.39934 68.20403,6.98494 320.56369,-9.40989 z"
       id="path2999"
       inkscape:connector-curvature="0"
       sodipodi:nodetypes="ccccc" />
    <path
       sodipodi:nodetypes="ccccc"
       inkscape:connector-curvature="0"
       id="path3023"
       d="m 554.48956,346.32544 c -16.17588,1.63955 -29.13985,5.42038 -48.61359,4.86136 4.73884,6.6058 8.10412,6.63843 11.71145,7.58666 3.71354,0.63396 8.00812,0.82013 37.63871,-1.10485 z"
       style="fill:#eeeeee;stroke:none;filter:url(#filter3825)"
       transform="matrix(8.516862,0,0,8.516862,-4215.7679,-2714.1566)" />
    <path
       style="fill:url(#linearGradient3953);fill-opacity:1;stroke:none"
       d="m 582.55396,270.57967 c -7.28926,-16.97929 -33.24175,-6.54368 -40.16808,-23.85796 -14.48312,-15.88681 17.35931,-23.65555 12.86794,-37.93271 -7.86496,-17.06613 -28.09134,-11.1519 -36.63716,1.26627 -13.41796,9.28533 -27.77703,19.48208 -33.21021,35.65899 -5.67523,11.63439 -11.35051,23.26865 -17.02582,34.90307 -12.44985,-11.25789 -27.198,-27.56954 -46.29866,-16.65074 -19.88341,15.64282 -26.28448,14.55959 -41.50567,14.83711 -13.07075,3.26657 -28.99036,12.48778 -41.01858,1.75374 -8.98136,-9.13947 -23.08356,-4.91042 -34.33964,-4.30042 -12.43308,-0.22502 -15.10139,10.89759 -18.51268,26.23967 -21.52046,16.62415 -6.07232,35.45067 10.85987,9.51795 9.67677,-10.09231 8.81808,-13.4505 20.84315,-18.52778 18.13596,-1.94157 25.14823,23.00381 44.07099,16.53799 11.01008,-1.63534 18.27686,-18.73231 26.81749,-3.3301 7.40413,15.2904 22.51432,5.11864 34.95292,6.4821 9.08879,0.49311 21.4454,-7.51306 4.17985,-14.49629 -5.10068,-1.72732 -24.33509,0.8338 -20.37625,-3.64231 5.05322,-3.97042 10.10652,-7.94089 15.15985,-11.91126 12.96469,9.20076 25.92949,18.40159 38.89418,27.60237 0,6.27327 -28.85696,7.52795 -7.52788,17.56518 12.12829,0 31.78451,1.25461 43.91276,1.25461 6.27329,7.94615 12.54655,15.89221 18.81982,23.83836 -11.71622,3.55639 -30.09552,21.77904 -15.88419,32.35156 12.13822,-4.40909 32.26971,-15.0551 39.03891,2.27698 7.57479,15.28682 36.35831,-0.83209 31.19183,-13.22234 -9.64097,-14.37102 -12.85342,-32.6883 -10.31479,-49.61143 6.1897,-13.05179 25.85955,-18.45277 23.69868,-36.29406 0.44966,-6.37164 -3.33981,-11.94303 -2.48863,-18.30855 z"
       id="path3003"
       inkscape:connector-curvature="0"
       sodipodi:nodetypes="ccccccccccccccccccccccccccccc" />
    <path
       style="opacity:0.80288463;fill:url(#linearGradient4421);fill-opacity:1;stroke:none"
       d="m 581.04115,264.01861 c 44.45928,4.44315 143.72026,1.83348 179.19177,-2.51 l 1.73089,26.60241 c -36.24254,-4.15779 -137.58072,5.52071 -177.55879,14.13028 z"
       id="path4413"
       inkscape:connector-curvature="0"
       sodipodi:nodetypes="ccccc" />
    <path
       sodipodi:nodetypes="ccccccccccccccccccccccccccccc"
       inkscape:connector-curvature="0"
       id="path3945"
       d="m 582.55396,270.57967 c -7.28926,-16.97929 -33.24175,-6.54368 -40.16808,-23.85796 -14.48312,-15.88681 17.35931,-23.65555 12.86794,-37.93271 -7.86496,-17.06613 -28.09134,-11.1519 -36.63716,1.26627 -13.41796,9.28533 -27.77703,19.48208 -33.21021,35.65899 -5.67523,11.63439 -11.35051,23.26865 -17.02582,34.90307 -12.44985,-11.25789 -27.198,-27.56954 -46.29866,-16.65074 -19.88341,15.64282 -26.28448,14.55959 -41.50567,14.83711 -13.07075,3.26657 -28.99036,12.48778 -41.01858,1.75374 -8.98136,-9.13947 -23.08356,-4.91042 -34.33964,-4.30042 -12.43308,-0.22502 -15.10139,10.89759 -18.51268,26.23967 -21.52046,16.62415 -6.07232,35.45067 10.85987,9.51795 9.67677,-10.09231 8.81808,-13.4505 20.84315,-18.52778 18.13596,-1.94157 25.14823,23.00381 44.07099,16.53799 11.01008,-1.63534 18.27686,-18.73231 26.81749,-3.3301 7.40413,15.2904 22.51432,5.11864 34.95292,6.4821 9.08879,0.49311 21.4454,-7.51306 4.17985,-14.49629 -5.10068,-1.72732 -24.33509,0.8338 -20.37625,-3.64231 5.05322,-3.97042 10.10652,-7.94089 15.15985,-11.91126 12.96469,9.20076 25.92949,18.40159 38.89418,27.60237 0,6.27327 -28.85696,7.52795 -7.52788,17.56518 12.12829,0 31.78451,1.25461 43.91276,1.25461 6.27329,7.94615 12.54655,15.89221 18.81982,23.83836 -11.71622,3.55639 -30.09552,21.77904 -15.88419,32.35156 12.13822,-4.40909 32.26971,-15.0551 39.03891,2.27698 7.57479,15.28682 36.35831,-0.83209 31.19183,-13.22234 -9.64097,-14.37102 -12.85342,-32.6883 -10.31479,-49.61143 6.1897,-13.05179 25.85955,-18.45277 23.69868,-36.29406 0.44966,-6.37164 -3.33981,-11.94303 -2.48863,-18.30855 z"
       style="fill:none;stroke:url(#linearGradient3973);stroke-width:4.25843096;stroke-linecap:butt;stroke-linejoin:miter;stroke-opacity:1" />
    <path
       sodipodi:type="inkscape:offset"
       inkscape:radius="-0.80414099"
       inkscape:original="M 559.90625 341.96875 C 559.07168 342.07414 558.2517 342.61471 557.75 343.34375 C 556.17454 344.43398 554.48168 345.63185 553.84375 347.53125 L 551.84375 351.625 C 550.38196 350.30317 548.64894 348.40548 546.40625 349.6875 C 544.07166 351.52419 543.31843 351.37366 541.53125 351.40625 C 539.99656 351.78979 538.13103 352.88533 536.71875 351.625 C 535.66421 350.5519 534.00912 351.05338 532.6875 351.125 C 531.22768 351.0986 530.90053 352.38612 530.5 354.1875 C 527.97319 356.13941 529.79317 358.35737 531.78125 355.3125 C 532.91744 354.12752 532.80684 353.72114 534.21875 353.125 C 536.34817 352.89703 537.18445 355.85293 539.40625 355.09375 C 540.69899 354.90174 541.55971 352.87906 542.5625 354.6875 C 543.43185 356.48281 545.19578 355.27741 546.65625 355.4375 C 547.7234 355.4954 549.18347 354.56993 547.15625 353.75 C 546.55736 353.54719 544.28518 353.83806 544.75 353.3125 L 546.53125 351.9375 L 551.09375 355.15625 C 551.09375 355.89282 547.71441 356.04024 550.21875 357.21875 C 551.64278 357.21875 553.95097 357.375 555.375 357.375 L 557.59375 360.1875 C 556.2181 360.60507 554.05014 362.72739 555.71875 363.96875 C 557.14395 363.45106 559.5177 362.21497 560.3125 364.25 C 561.20189 366.04489 564.57537 364.14229 563.96875 362.6875 C 562.83677 361.00014 562.45193 358.86201 562.75 356.875 C 563.47676 355.34253 565.78497 354.68857 565.53125 352.59375 C 565.58405 351.84563 565.15006 351.1849 565.25 350.4375 C 564.39414 348.44389 561.3445 349.68919 560.53125 347.65625 C 558.83073 345.79091 562.5586 344.86384 562.03125 343.1875 C 561.56952 342.1856 560.74082 341.86336 559.90625 341.96875 z "
       style="opacity:0.3317308;fill:#fdd99b;fill-opacity:1;stroke:none"
       id="path3983"
       d="m 560,342.78125 c -0.56043,0.0708 -1.21878,0.48637 -1.59375,1.03125 A 0.8042214,0.8042214 0 0 1 558.21875,344 c -1.57047,1.08677 -3.09128,2.19214 -3.625,3.78125 a 0.8042214,0.8042214 0 0 1 -0.0312,0.0937 l -2,4.09375 a 0.8042214,0.8042214 0 0 1 -1.25,0.25 c -0.75563,-0.68328 -1.53982,-1.44719 -2.28125,-1.84375 -0.74143,-0.39656 -1.32329,-0.51188 -2.21875,0 -2.24578,1.73588 -3.48875,1.78515 -5.09375,1.8125 -0.0178,0.004 -0.0444,0.0265 -0.0625,0.0312 -0.65949,0.17303 -1.47427,0.50408 -2.40625,0.6875 -0.95758,0.18846 -2.13876,0.13685 -3.0625,-0.6875 a 0.8042214,0.8042214 0 0 1 -0.0312,-0.0312 c -0.33596,-0.34188 -0.74087,-0.43766 -1.34375,-0.4375 -0.60288,1.6e-4 -1.34979,0.14718 -2.09375,0.1875 a 0.8042214,0.8042214 0 0 1 -0.0312,0 c -0.49253,-0.009 -0.56473,0.063 -0.78125,0.4375 -0.21652,0.37454 -0.42599,1.10497 -0.625,2 A 0.8042214,0.8042214 0 0 1 531,354.8125 c -0.53644,0.41439 -0.78771,0.81546 -0.875,1.0625 0.21925,-0.12034 0.55952,-0.37324 0.96875,-1 a 0.8042214,0.8042214 0 0 1 0.0937,-0.125 c 0.52729,-0.54993 0.77266,-0.88848 1.125,-1.28125 0.35234,-0.39277 0.82054,-0.76728 1.59375,-1.09375 a 0.8042214,0.8042214 0 0 1 0.21875,-0.0625 c 1.44157,-0.15433 2.42833,0.7799 3.15625,1.375 0.36396,0.29755 0.68929,0.5151 0.96875,0.625 0.27946,0.1099 0.51649,0.16443 0.90625,0.0312 a 0.8042214,0.8042214 0 0 1 0.125,-0.0312 c 0.26613,-0.0395 0.7515,-0.47909 1.40625,-0.875 0.32738,-0.19795 0.79738,-0.38932 1.34375,-0.25 0.54637,0.13932 0.94481,0.57463 1.25,1.125 a 0.8042214,0.8042214 0 0 1 0,0.0312 c 0.15546,0.32105 0.27288,0.40776 0.40625,0.46875 0.13337,0.061 0.33097,0.0854 0.625,0.0625 0.57315,-0.0446 1.42426,-0.33531 2.375,-0.25 0.0174,9.4e-4 0.0435,1.8e-4 0.0625,0 0.0773,-7.4e-4 0.16231,-0.0139 0.25,-0.0312 -0.0789,-0.0443 -0.0354,-0.0449 -0.15625,-0.0937 -0.0193,0.002 -0.17326,-0.0236 -0.40625,-0.0312 -0.26866,-0.009 -0.59348,0.01 -0.90625,0 -0.31277,-0.01 -0.59431,-0.0161 -0.9375,-0.125 -0.17159,-0.0544 -0.44261,-0.11692 -0.625,-0.53125 -0.0912,-0.20716 -0.0887,-0.48027 -0.0312,-0.65625 0.0575,-0.17598 0.14195,-0.28816 0.21875,-0.375 a 0.8042214,0.8042214 0 0 1 0.0937,-0.0937 l 1.78125,-1.375 A 0.8042214,0.8042214 0 0 1 547,351.28125 l 4.5625,3.21875 a 0.8042214,0.8042214 0 0 1 0.34375,0.65625 c 0,0.39952 -0.25506,0.68359 -0.4375,0.84375 -0.18244,0.16016 -0.33036,0.26078 -0.5,0.34375 -0.0737,0.036 -0.11515,0.0614 -0.1875,0.0937 1.46272,0.0271 3.37759,0.125 4.59375,0.125 A 0.8042214,0.8042214 0 0 1 556,356.875 l 2.21875,2.8125 a 0.8042214,0.8042214 0 0 1 -0.40625,1.28125 c -0.43785,0.13291 -1.24567,0.69609 -1.625,1.25 -0.18967,0.27695 -0.28499,0.54395 -0.28125,0.6875 0.001,0.0454 0.0829,0.0849 0.0937,0.125 0.61937,-0.24707 1.31988,-0.57288 2.15625,-0.6875 0.52774,-0.0723 1.07676,-0.0619 1.625,0.1875 0.52312,0.23796 0.95486,0.75835 1.21875,1.375 0.003,0.007 0.0283,-0.007 0.0312,0 0.10746,0.21687 0.1844,0.22364 0.40625,0.25 0.22185,0.0264 0.5766,-0.025 0.90625,-0.1875 0.32965,-0.16249 0.63701,-0.41594 0.78125,-0.625 0.14424,-0.20906 0.11955,-0.28188 0.0937,-0.34375 l 0.0312,0 c -1.19879,-1.8572 -1.6001,-4.12447 -1.28125,-6.25 a 0.8042214,0.8042214 0 0 1 0.0625,-0.21875 c 0.48564,-1.02403 1.32904,-1.59653 1.90625,-2.15625 0.57721,-0.55972 0.87191,-0.93898 0.78125,-1.6875 a 0.8042214,0.8042214 0 0 1 0,-0.15625 c 0.0143,-0.20313 -0.0335,-0.45224 -0.125,-0.8125 -0.0643,-0.25334 -0.0777,-0.61628 -0.0937,-0.96875 -0.007,-0.0173 -0.0236,-0.015 -0.0312,-0.0312 -0.12917,-0.27566 -0.25454,-0.40222 -0.53125,-0.53125 -0.29298,-0.13662 -0.73167,-0.24745 -1.21875,-0.34375 -0.48708,-0.0963 -1.01919,-0.17443 -1.5625,-0.4375 -0.47427,-0.22964 -0.92249,-0.6598 -1.21875,-1.21875 -0.0431,-0.0814 -0.1209,-0.13038 -0.15625,-0.21875 l 0.0312,0 c -0.41798,-0.56319 -0.62032,-1.22401 -0.46875,-1.78125 0.17077,-0.62785 0.55533,-1.04405 0.90625,-1.40625 0.35092,-0.3622 0.70197,-0.66155 0.875,-0.90625 0.17303,-0.2447 0.16909,-0.29736 0.125,-0.4375 -0.32182,-0.6105 -0.71899,-0.72331 -1.25,-0.65625 z"
       transform="matrix(8.516862,0,0,8.516862,-4231.5469,-2714.1566)" />
    <path
       d="m 560,342.78125 c -0.56043,0.0708 -1.21878,0.48637 -1.59375,1.03125 A 0.8042214,0.8042214 0 0 1 558.21875,344 c -1.57047,1.08677 -3.09128,2.19214 -3.625,3.78125 a 0.8042214,0.8042214 0 0 1 -0.0312,0.0937 l -2,4.09375 a 0.8042214,0.8042214 0 0 1 -1.25,0.25 c -0.75563,-0.68328 -1.53982,-1.44719 -2.28125,-1.84375 -0.74143,-0.39656 -1.32329,-0.51188 -2.21875,0 -2.24578,1.73588 -3.48875,1.78515 -5.09375,1.8125 -0.0178,0.004 -0.0444,0.0265 -0.0625,0.0312 -0.65949,0.17303 -1.47427,0.50408 -2.40625,0.6875 -0.95758,0.18846 -2.13876,0.13685 -3.0625,-0.6875 a 0.8042214,0.8042214 0 0 1 -0.0312,-0.0312 c -0.33596,-0.34188 -0.74087,-0.43766 -1.34375,-0.4375 -0.60288,1.6e-4 -1.34979,0.14718 -2.09375,0.1875 a 0.8042214,0.8042214 0 0 1 -0.0312,0 c -0.49253,-0.009 -0.56473,0.063 -0.78125,0.4375 -0.21652,0.37454 -0.42599,1.10497 -0.625,2 A 0.8042214,0.8042214 0 0 1 531,354.8125 c -0.53644,0.41439 -0.78771,0.81546 -0.875,1.0625 0.21925,-0.12034 0.55952,-0.37324 0.96875,-1 a 0.8042214,0.8042214 0 0 1 0.0937,-0.125 c 0.52729,-0.54993 0.77266,-0.88848 1.125,-1.28125 0.35234,-0.39277 0.82054,-0.76728 1.59375,-1.09375 a 0.8042214,0.8042214 0 0 1 0.21875,-0.0625 c 1.44157,-0.15433 2.42833,0.7799 3.15625,1.375 0.36396,0.29755 0.68929,0.5151 0.96875,0.625 0.27946,0.1099 0.51649,0.16443 0.90625,0.0312 a 0.8042214,0.8042214 0 0 1 0.125,-0.0312 c 0.26613,-0.0395 0.7515,-0.47909 1.40625,-0.875 0.32738,-0.19795 0.79738,-0.38932 1.34375,-0.25 0.54637,0.13932 0.94481,0.57463 1.25,1.125 a 0.8042214,0.8042214 0 0 1 0,0.0312 c 0.15546,0.32105 0.27288,0.40776 0.40625,0.46875 0.13337,0.061 0.33097,0.0854 0.625,0.0625 0.57315,-0.0446 1.42426,-0.33531 2.375,-0.25 0.0174,9.4e-4 0.0435,1.8e-4 0.0625,0 0.0773,-7.4e-4 0.16231,-0.0139 0.25,-0.0312 -0.0789,-0.0443 -0.0354,-0.0449 -0.15625,-0.0937 -0.0193,0.002 -0.17326,-0.0236 -0.40625,-0.0312 -0.26866,-0.009 -0.59348,0.01 -0.90625,0 -0.31277,-0.01 -0.59431,-0.0161 -0.9375,-0.125 -0.17159,-0.0544 -0.44261,-0.11692 -0.625,-0.53125 -0.0912,-0.20716 -0.0887,-0.48027 -0.0312,-0.65625 0.0575,-0.17598 0.14195,-0.28816 0.21875,-0.375 a 0.8042214,0.8042214 0 0 1 0.0937,-0.0937 l 1.78125,-1.375 A 0.8042214,0.8042214 0 0 1 547,351.28125 l 4.5625,3.21875 a 0.8042214,0.8042214 0 0 1 0.34375,0.65625 c 0,0.39952 -0.25506,0.68359 -0.4375,0.84375 -0.18244,0.16016 -0.33036,0.26078 -0.5,0.34375 -0.0737,0.036 -0.11515,0.0614 -0.1875,0.0937 1.46272,0.0271 3.37759,0.125 4.59375,0.125 A 0.8042214,0.8042214 0 0 1 556,356.875 l 2.21875,2.8125 a 0.8042214,0.8042214 0 0 1 -0.40625,1.28125 c -0.43785,0.13291 -1.24567,0.69609 -1.625,1.25 -0.18967,0.27695 -0.28499,0.54395 -0.28125,0.6875 0.001,0.0454 0.0829,0.0849 0.0937,0.125 0.61937,-0.24707 1.31988,-0.57288 2.15625,-0.6875 0.52774,-0.0723 1.07676,-0.0619 1.625,0.1875 0.52312,0.23796 0.95486,0.75835 1.21875,1.375 0.003,0.007 0.0283,-0.007 0.0312,0 0.10746,0.21687 0.1844,0.22364 0.40625,0.25 0.22185,0.0264 0.5766,-0.025 0.90625,-0.1875 0.32965,-0.16249 0.63701,-0.41594 0.78125,-0.625 0.14424,-0.20906 0.11955,-0.28188 0.0937,-0.34375 l 0.0312,0 c -1.19879,-1.8572 -1.6001,-4.12447 -1.28125,-6.25 a 0.8042214,0.8042214 0 0 1 0.0625,-0.21875 c 0.48564,-1.02403 1.32904,-1.59653 1.90625,-2.15625 0.57721,-0.55972 0.87191,-0.93898 0.78125,-1.6875 a 0.8042214,0.8042214 0 0 1 0,-0.15625 c 0.0143,-0.20313 -0.0335,-0.45224 -0.125,-0.8125 -0.0643,-0.25334 -0.0777,-0.61628 -0.0937,-0.96875 -0.007,-0.0173 -0.0236,-0.015 -0.0312,-0.0312 -0.12917,-0.27566 -0.25454,-0.40222 -0.53125,-0.53125 -0.29298,-0.13662 -0.73167,-0.24745 -1.21875,-0.34375 -0.48708,-0.0963 -1.01919,-0.17443 -1.5625,-0.4375 -0.47427,-0.22964 -0.92249,-0.6598 -1.21875,-1.21875 -0.0431,-0.0814 -0.1209,-0.13038 -0.15625,-0.21875 l 0.0312,0 c -0.41798,-0.56319 -0.62032,-1.22401 -0.46875,-1.78125 0.17077,-0.62785 0.55533,-1.04405 0.90625,-1.40625 0.35092,-0.3622 0.70197,-0.66155 0.875,-0.90625 0.17303,-0.2447 0.16909,-0.29736 0.125,-0.4375 -0.32182,-0.6105 -0.71899,-0.72331 -1.25,-0.65625 z"
       id="path4039"
       style="opacity:0.65865383;fill:#000000;fill-opacity:1;stroke:none;filter:url(#filter4205)"
       inkscape:original="M 559.90625 341.96875 C 559.07168 342.07414 558.2517 342.61471 557.75 343.34375 C 556.17454 344.43398 554.48168 345.63185 553.84375 347.53125 L 551.84375 351.625 C 550.38196 350.30317 548.64894 348.40548 546.40625 349.6875 C 544.07166 351.52419 543.31843 351.37366 541.53125 351.40625 C 539.99656 351.78979 538.13103 352.88533 536.71875 351.625 C 535.66421 350.5519 534.00912 351.05338 532.6875 351.125 C 531.22768 351.0986 530.90053 352.38612 530.5 354.1875 C 527.97319 356.13941 529.79317 358.35737 531.78125 355.3125 C 532.91744 354.12752 532.80684 353.72114 534.21875 353.125 C 536.34817 352.89703 537.18445 355.85293 539.40625 355.09375 C 540.69899 354.90174 541.55971 352.87906 542.5625 354.6875 C 543.43185 356.48281 545.19578 355.27741 546.65625 355.4375 C 547.7234 355.4954 549.18347 354.56993 547.15625 353.75 C 546.55736 353.54719 544.28518 353.83806 544.75 353.3125 L 546.53125 351.9375 L 551.09375 355.15625 C 551.09375 355.89282 547.71441 356.04024 550.21875 357.21875 C 551.64278 357.21875 553.95097 357.375 555.375 357.375 L 557.59375 360.1875 C 556.2181 360.60507 554.05014 362.72739 555.71875 363.96875 C 557.14395 363.45106 559.5177 362.21497 560.3125 364.25 C 561.20189 366.04489 564.57537 364.14229 563.96875 362.6875 C 562.83677 361.00014 562.45193 358.86201 562.75 356.875 C 563.47676 355.34253 565.78497 354.68857 565.53125 352.59375 C 565.58405 351.84563 565.15006 351.1849 565.25 350.4375 C 564.39414 348.44389 561.3445 349.68919 560.53125 347.65625 C 558.83073 345.79091 562.5586 344.86384 562.03125 343.1875 C 561.56952 342.1856 560.74082 341.86336 559.90625 341.96875 z "
       inkscape:radius="-0.80414099"
       sodipodi:type="inkscape:offset"
       transform="matrix(8.2268524,0,0,7.8719061,-4070.2774,-2485.561)" />
    <path
       style="fill:url(#radialGradient4229);fill-opacity:1;stroke:none"
       d="m 526.81788,263.05179 25.09308,23.83836 -11.29191,36.38496 -35.13025,-26.34776 z"
       id="path4221"
       inkscape:connector-curvature="0" />
    <path
       inkscape:connector-curvature="0"
       id="path4233"
       d="m 556.96603,351.47745 1.3537,1.28601 -0.60916,1.96286 -1.89518,-1.42138 z"
       style="opacity:0.25961537;fill:#eeeeee;fill-opacity:1;stroke:none;filter:url(#filter4319)"
       transform="matrix(8.516862,0,0,8.516862,-4215.7679,-2714.1566)" />
    <path
       inkscape:connector-curvature="0"
       id="path4323"
       d="m 526.81788,263.05179 25.09308,23.83836 -11.29191,36.38496 -35.13025,-26.34776 z"
       style="fill:none;stroke:url(#linearGradient4339);stroke-width:2.12921548;stroke-linecap:butt;stroke-linejoin:miter;stroke-opacity:1" />
    <path
       sodipodi:nodetypes="ccccc"
       inkscape:connector-curvature="0"
       id="path4523"
       d="m 563.49748,350.84903 c 5.45442,0.56899 17.70883,0.7675 22.10891,0.54665 l 0.0505,2.28306 c -4.44308,-0.50967 -16.99689,-0.1123 -21.97873,0.45434 z"
       style="opacity:0.16826926;fill:#d40000;fill-opacity:1;stroke:none;filter:url(#filter4561)"
       transform="matrix(8.0906374,-0.40185203,0.57918701,11.660989,-4181.2198,-3600.7854)" />
  </g>
</svg>
