<?xml version="1.0" encoding="iso-8859-1"?>
<!-- Generator: Adobe Illustrator 13.0.2, SVG Export Plug-In . SVG Version: 6.00 Build 14948)  -->
<!DOCTYPE svg PUBLIC "-//W3C//DTD SVG 1.1//EN" "http://www.w3.org/Graphics/SVG/1.1/DTD/svg11.dtd">
<svg version="1.1"
	 id="svg2" sodipodi:docname="barrel.svg" xmlns:inkscape="http://www.inkscape.org/namespaces/inkscape" xmlns:rdf="http://www.w3.org/1999/02/22-rdf-syntax-ns#" sodipodi:version="0.32" xmlns:svg="http://www.w3.org/2000/svg" sodipodi:docbase="/home/petri/Desktop/Omat Open ClipArt kuvat" inkscape:version="0.41" xmlns:cc="http://web.resource.org/cc/" xmlns:dc="http://purl.org/dc/elements/1.1/" xmlns:sodipodi="http://inkscape.sourceforge.net/DTD/sodipodi-0.dtd"
	 xmlns="http://www.w3.org/2000/svg" xmlns:xlink="http://www.w3.org/1999/xlink" x="0px" y="0px" width="385.64px"
	 height="367.593px" viewBox="83.128 234.219 385.64 367.593" style="enable-background:new 83.128 234.219 385.64 367.593;"
	 xml:space="preserve">
<sodipodi:namedview  inkscape:document-units="px" inkscape:zoom="0.51265240" inkscape:window-x="0" inkscape:pageshadow="2" inkscape:pageopacity="0.0" showborder="false" inkscape:window-height="691" inkscape:window-width="1024" inkscape:window-y="26" pagecolor="#ffffff" bordercolor="#666666" borderopacity="1.0" inkscape:cx="423.10345" inkscape:current-layer="layer1" inkscape:cy="394.61773" id="base">
	</sodipodi:namedview>
<g id="layer1" inkscape:label="Layer 1" inkscape:groupmode="layer">
	<path id="rect12474" sodipodi:nodetypes="ccccccscsccccc" style="opacity:0.1469;enable-background:new    ;" d="M362.875,408.093
		c-2.589,0.086-4.991,0.324-7.188,0.719c-25.977,0.756-69.613,14.986-110.5,37.281l-47.094,25.688
		c-52.433,28.592-83.736,46.537-65.339,55.947l-0.19-21.215c-20.463,4.414-36.22,38.09-35.043,48.514
		c1.951,17.279,50.518,46.785,99.51,46.785c35.09,0,63.454-11.211,80.481-17.148c24.065-8.393,50.435-18.273,77.112-32.82
		l47.125-25.688c44.057-24.023,70.297-49.404,66.688-62.5c2.252-9.623-11.848-24.42-36.812-37.188
		C407.9,414.335,381,407.49,362.875,408.093z"/>
	<g id="g2082">
		<path id="rect1291" style="fill:#7B4600;" d="M126.197,253.505H280.66c22.042,0,39.911,70.674,39.911,157.858l0,0
			c0,87.182-17.869,157.857-39.911,157.857H126.197c-22.042,0-39.911-70.676-39.911-157.857l0,0
			C86.286,324.179,104.154,253.505,126.197,253.505z"/>
		
			<path id="path1293" sodipodi:cy="593.07648" sodipodi:rx="96.428574" sodipodi:type="arc" sodipodi:ry="42.142857" sodipodi:cx="250.71428" style="fill:#7B4600;" d="
			M299.143,545.648c0,24.064-43.172,43.57-96.429,43.57c-53.256,0-96.428-19.506-96.428-43.57s43.172-43.572,96.428-43.572
			C255.971,502.076,299.143,521.583,299.143,545.648z"/>
		
			<path id="path2055" sodipodi:cy="593.07648" sodipodi:rx="96.428574" sodipodi:type="arc" sodipodi:ry="42.142857" sodipodi:cx="250.71428" style="fill:#87612D;" d="
			M299.857,277.791c0,24.063-43.173,43.572-96.429,43.572S107,301.854,107,277.791c0-24.064,43.173-43.572,96.429-43.572
			S299.857,253.727,299.857,277.791z"/>
	</g>
	
		<linearGradient id="path6951_1_" gradientUnits="userSpaceOnUse" x1="1175.9756" y1="528.7544" x2="1275.2214" y2="521.1964" gradientTransform="matrix(-0.4103 -0.0018 -0.0106 2.4369 716.9727 -907.2078)">
		<stop  offset="0" style="stop-color:#5C3400"/>
		<stop  offset="0" style="stop-color:#8E5100"/>
		<stop  offset="0.25" style="stop-color:#8B5000"/>
		<stop  offset="0.5" style="stop-color:#764400"/>
		<stop  offset="0.625" style="stop-color:#864E00"/>
		<stop  offset="0.75" style="stop-color:#915400"/>
		<stop  offset="0.875" style="stop-color:#794600"/>
		<stop  offset="1" style="stop-color:#834D00"/>
	</linearGradient>
	<path id="path6951" sodipodi:nodetypes="csccscc" style="fill:url(#path6951_1_);" d="M221.864,500.609
		c2.947-20.703,7.721-101.766,7.009-133.186c-0.599-26.465-0.879-126.077-1.577-129.651c-0.699-3.574-35.354-0.868-39.64-0.887
		c-4.286-0.019-3.042,102.489-3.077,132.487c-0.051,42.863-1.264,126.068,0.146,130.359
		C186.135,504.023,221.864,500.609,221.864,500.609z"/>
	
		<path id="path2057" sodipodi:cy="593.07648" sodipodi:rx="96.428574" sodipodi:type="arc" sodipodi:ry="42.142857" sodipodi:cx="250.71428" style="fill:#BC873E;" d="
		M301.285,289.934c0,18.146-43.492,32.857-97.143,32.857S107,308.08,107,289.934c0-18.146,43.492-32.857,97.143-32.857
		S301.285,271.787,301.285,289.934z"/>
	
		<linearGradient id="path6953_1_" gradientUnits="userSpaceOnUse" x1="1343.2725" y1="538.062" x2="1448.1152" y2="538.062" gradientTransform="matrix(-0.3921 -0.0017 -0.0111 2.5504 717.538 -999.834)">
		<stop  offset="0" style="stop-color:#5C3400"/>
		<stop  offset="0" style="stop-color:#8E5100"/>
		<stop  offset="0.25" style="stop-color:#8B5000"/>
		<stop  offset="0.5" style="stop-color:#764400"/>
		<stop  offset="0.625" style="stop-color:#864E00"/>
		<stop  offset="0.75" style="stop-color:#915400"/>
		<stop  offset="0.875" style="stop-color:#794600"/>
		<stop  offset="1" style="stop-color:#834D00"/>
	</linearGradient>
	<path id="path6953" sodipodi:nodetypes="csccscc" style="fill:url(#path6953_1_);" d="M182.621,500.783
		c2.588-20.705,0.458-100.727-0.146-132.146c-0.509-26.463,3.507-127.842,2.898-131.417c-0.609-3.574-31.61,5.934-35.355,5.917
		c-3.746-0.016-6.212,97.476-6.259,127.474c-0.068,42.863,3.191,127.158,4.422,131.449
		C149.41,506.351,182.621,500.783,182.621,500.783z"/>
	
		<linearGradient id="path2085_1_" gradientUnits="userSpaceOnUse" x1="447.6133" y1="643.7495" x2="546.8605" y2="636.1914" gradientTransform="matrix(0.4104 0 0 -2.4369 -5.2259 2014.0613)">
		<stop  offset="0" style="stop-color:#5C3400"/>
		<stop  offset="0" style="stop-color:#8E5100"/>
		<stop  offset="0.25" style="stop-color:#8B5000"/>
		<stop  offset="0.5" style="stop-color:#764400"/>
		<stop  offset="0.625" style="stop-color:#864E00"/>
		<stop  offset="0.75" style="stop-color:#915400"/>
		<stop  offset="0.875" style="stop-color:#794600"/>
		<stop  offset="1" style="stop-color:#834D00"/>
	</linearGradient>
	<path id="path2085" sodipodi:nodetypes="csccscc" style="fill:url(#path2085_1_);" d="M184.857,323.863
		c-2.857,20.713-7.277,101.797-6.429,133.213c0.714,26.461,1.429,126.072,2.143,129.645c0.715,3.57,35.357,0.713,39.643,0.713
		c4.286,0,2.596-102.5,2.5-132.5c-0.136-42.863,0.715-126.07-0.714-130.357C220.571,320.291,184.857,323.863,184.857,323.863z"/>
	
		<linearGradient id="path6955_1_" gradientUnits="userSpaceOnUse" x1="1135.9971" y1="541.7075" x2="1197.9956" y2="538.4793" gradientTransform="matrix(-0.3928 -0.0017 -0.0111 2.5461 717.5176 -996.3218)">
		<stop  offset="0" style="stop-color:#5C3400"/>
		<stop  offset="0" style="stop-color:#8E5100"/>
		<stop  offset="0.25" style="stop-color:#8B5000"/>
		<stop  offset="0.5" style="stop-color:#764400"/>
		<stop  offset="0.625" style="stop-color:#864E00"/>
		<stop  offset="0.75" style="stop-color:#915400"/>
		<stop  offset="0.875" style="stop-color:#794600"/>
		<stop  offset="1" style="stop-color:#834D00"/>
	</linearGradient>
	<path id="path6955" sodipodi:nodetypes="csccscc" style="fill:url(#path6955_1_);" d="M257.249,505.75
		c2.362-20.703,8.665-105.332,8.127-136.752c-0.452-26.463-3.749-119.302-4.302-122.876c-0.552-3.574-27.138-7.618-30.547-7.633
		c-3.408-0.015-0.325,102.5-0.381,132.5c-0.078,42.863-7.493,124.969-6.376,129.26C224.889,504.537,253.322,505.376,257.249,505.75z
		"/>
	
		<linearGradient id="path2087_1_" gradientUnits="userSpaceOnUse" x1="581" y1="647.9429" x2="685.8408" y2="647.9429" gradientTransform="matrix(0.3921 0 0 -2.5504 -5.3872 2106.6868)">
		<stop  offset="0" style="stop-color:#5C3400"/>
		<stop  offset="0" style="stop-color:#8E5100"/>
		<stop  offset="0.25" style="stop-color:#8B5000"/>
		<stop  offset="0.5" style="stop-color:#764400"/>
		<stop  offset="0.625" style="stop-color:#864E00"/>
		<stop  offset="0.75" style="stop-color:#915400"/>
		<stop  offset="0.875" style="stop-color:#794600"/>
		<stop  offset="1" style="stop-color:#834D00"/>
	</linearGradient>
	<path id="path2087" sodipodi:nodetypes="csccscc" style="fill:url(#path2087_1_);" d="M224.1,323.517
		c-2.498,20.715-0.02,100.727,0.722,132.143c0.625,26.461-2.949,127.857-2.325,131.43c0.624,3.57,31.584-6.072,35.329-6.072
		c3.746,0,5.787-97.5,5.703-127.5c-0.118-42.863-3.745-127.143-4.994-131.428C257.286,317.802,224.1,323.517,224.1,323.517z"/>
	
		<linearGradient id="path6957_1_" gradientUnits="userSpaceOnUse" x1="1180.333" y1="581.2993" x2="1265.8473" y2="559.8389" gradientTransform="matrix(-0.3556 -0.0015 -0.0123 2.812 718.7928 -1213.4226)">
		<stop  offset="0" style="stop-color:#5C3400"/>
		<stop  offset="0" style="stop-color:#8E5100"/>
		<stop  offset="0.25" style="stop-color:#8B5000"/>
		<stop  offset="0.5" style="stop-color:#764400"/>
		<stop  offset="0.625" style="stop-color:#864E00"/>
		<stop  offset="0.75" style="stop-color:#915400"/>
		<stop  offset="0.875" style="stop-color:#794600"/>
		<stop  offset="1" style="stop-color:#834D00"/>
	</linearGradient>
	<path id="path6957" sodipodi:nodetypes="csccscc" style="fill:url(#path6957_1_);" d="M287.51,514.81
		c1.822-20.707,6.153-101.414,5.775-132.832c-0.317-26.463-4.856-120.023-5.273-123.596c-0.418-3.573-21.81-13.667-24.408-13.678
		s2.894,109.3,2.821,139.3c-0.104,42.863-8.628,117.463-7.78,121.752C259.492,510.046,286.784,517.308,287.51,514.81z"/>
	
		<linearGradient id="path2089_1_" gradientUnits="userSpaceOnUse" x1="375.0049" y1="651.7739" x2="437.0052" y2="648.5456" gradientTransform="matrix(0.3928 0 0 -2.5461 -5.3815 2103.177)">
		<stop  offset="0" style="stop-color:#5C3400"/>
		<stop  offset="0" style="stop-color:#8E5100"/>
		<stop  offset="0.25" style="stop-color:#8B5000"/>
		<stop  offset="0.5" style="stop-color:#764400"/>
		<stop  offset="0.625" style="stop-color:#864E00"/>
		<stop  offset="0.75" style="stop-color:#915400"/>
		<stop  offset="0.875" style="stop-color:#794600"/>
		<stop  offset="1" style="stop-color:#834D00"/>
	</linearGradient>
	<path id="path2089" sodipodi:nodetypes="csccscc" style="fill:url(#path2089_1_);" d="M149.45,318.875
		c-2.271,20.715-8.205,105.369-7.531,136.785c0.568,26.461,4.27,119.287,4.838,122.857c0.567,3.572,27.171,7.5,30.579,7.5
		s-0.121-102.5-0.196-132.5c-0.108-42.863,6.948-125,5.812-129.285S153.379,319.232,149.45,318.875z"/>
	
		<linearGradient id="path6959_1_" gradientUnits="userSpaceOnUse" x1="1609.835" y1="565.1938" x2="1815.9434" y2="598.5336" gradientTransform="matrix(-0.3502 -0.0015 -0.0124 2.8551 718.994 -1248.6401)">
		<stop  offset="0" style="stop-color:#5C3400"/>
		<stop  offset="0" style="stop-color:#8E5100"/>
		<stop  offset="0.25" style="stop-color:#8B5000"/>
		<stop  offset="0.5" style="stop-color:#764400"/>
		<stop  offset="0.625" style="stop-color:#864E00"/>
		<stop  offset="0.75" style="stop-color:#915400"/>
		<stop  offset="0.875" style="stop-color:#794600"/>
		<stop  offset="1" style="stop-color:#834D00"/>
	</linearGradient>
	<path id="path6959" sodipodi:nodetypes="csccscc" style="fill:url(#path6959_1_);" d="M147.548,505.628
		c1.823-20.705-4.939-96.461-5.316-127.881c-0.318-26.463,5.186-129.622,4.768-133.195s-24.783,13.106-27.381,13.095
		s-4.175,92.127-4.248,122.125c-0.104,42.863,4.541,127.879,5.389,132.168S147.548,505.628,147.548,505.628z"/>
	
		<linearGradient id="path2091_1_" gradientUnits="userSpaceOnUse" x1="339.8701" y1="680.9575" x2="425.3809" y2="659.4979" gradientTransform="matrix(0.3556 0 0 -2.812 -5.7104 2320.2795)">
		<stop  offset="0" style="stop-color:#5C3400"/>
		<stop  offset="0" style="stop-color:#8E5100"/>
		<stop  offset="0.25" style="stop-color:#8B5000"/>
		<stop  offset="0.5" style="stop-color:#764400"/>
		<stop  offset="0.625" style="stop-color:#864E00"/>
		<stop  offset="0.75" style="stop-color:#915400"/>
		<stop  offset="0.875" style="stop-color:#794600"/>
		<stop  offset="1" style="stop-color:#834D00"/>
	</linearGradient>
	<path id="path2091" sodipodi:nodetypes="csccscc" style="fill:url(#path2091_1_);" d="M119.151,309.947
		c-1.732,20.713-5.711,101.439-5.197,132.855c0.433,26.463,5.38,120,5.813,123.572s21.868,13.572,24.467,13.572
		s-3.37-109.287-3.428-139.287c-0.082-42.861,8.115-117.5,7.25-121.785C147.188,314.589,119.865,307.447,119.151,309.947z"/>
	
		<linearGradient id="path6961_1_" gradientUnits="userSpaceOnUse" x1="1933.1641" y1="602.3296" x2="2003.2542" y2="618.6838" gradientTransform="matrix(-0.3071 -0.0013 -0.0142 3.2558 720.8016 -1575.7817)">
		<stop  offset="0" style="stop-color:#5C3400"/>
		<stop  offset="0" style="stop-color:#8E5100"/>
		<stop  offset="0.25" style="stop-color:#8B5000"/>
		<stop  offset="0.5" style="stop-color:#764400"/>
		<stop  offset="0.625" style="stop-color:#864E00"/>
		<stop  offset="0.75" style="stop-color:#915400"/>
		<stop  offset="0.875" style="stop-color:#794600"/>
		<stop  offset="1" style="stop-color:#834D00"/>
	</linearGradient>
	<path id="path6961" sodipodi:nodetypes="csccscc" style="fill:url(#path6961_1_);" d="M120.379,514.439
		c1.599-20.707-6.391-96.469-6.702-127.887c-0.262-26.463,4.722-123.195,4.361-126.769c-0.362-3.573-9.326,16.388-11.589,16.378
		s-10.378,83.527-10.458,113.527c-0.115,42.863,8.479,130.752,9.215,135.041S117.164,514.783,120.379,514.439z"/>
	
		<linearGradient id="path2093_1_" gradientUnits="userSpaceOnUse" x1="351.8379" y1="708.6372" x2="482.4283" y2="680.9118" gradientTransform="matrix(0.294 0 0 -3.4011 -6.2566 2801.2888)">
		<stop  offset="0" style="stop-color:#5C3400"/>
		<stop  offset="0" style="stop-color:#8E5100"/>
		<stop  offset="0.25" style="stop-color:#8B5000"/>
		<stop  offset="0.5" style="stop-color:#764400"/>
		<stop  offset="0.625" style="stop-color:#864E00"/>
		<stop  offset="0.75" style="stop-color:#915400"/>
		<stop  offset="0.875" style="stop-color:#794600"/>
		<stop  offset="1" style="stop-color:#834D00"/>
	</linearGradient>
	<path id="path2093" sodipodi:nodetypes="csccscc" style="fill:url(#path2093_1_);" d="M108.832,299.946
		C105.85,320.66,95.244,402.814,95.6,434.232c0.299,26.461,11.853,113.57,12.152,117.143s8.742,15,10.537,15
		s-4.103-104.287-4.142-134.285c-0.057-42.863,4.991-118.572,4.393-122.857C117.94,304.946,112.046,299.231,108.832,299.946z"/>
	
		<linearGradient id="path6977_1_" gradientUnits="userSpaceOnUse" x1="922.9775" y1="606.1733" x2="993.0676" y2="622.5275" gradientTransform="matrix(0.306 0.0261 -0.2764 3.2441 162.7212 -1609.967)">
		<stop  offset="0" style="stop-color:#5C3400"/>
		<stop  offset="0" style="stop-color:#8E5100"/>
		<stop  offset="0.25" style="stop-color:#8B5000"/>
		<stop  offset="0.5" style="stop-color:#764400"/>
		<stop  offset="0.625" style="stop-color:#864E00"/>
		<stop  offset="0.75" style="stop-color:#915400"/>
		<stop  offset="0.875" style="stop-color:#794600"/>
		<stop  offset="1" style="stop-color:#834D00"/>
	</linearGradient>
	<path id="path6977" sodipodi:nodetypes="csccscc" style="fill:url(#path6977_1_);" d="M264.023,511.623
		c0.255-20.768,14.974-95.514,18.087-126.779c2.622-26.332,6.289-123.124,6.969-126.65c0.679-3.526,7.825,17.155,10.08,17.347
		c2.256,0.192,2.884,84.12,0.287,114.007c-3.71,42.703-20.112,129.475-21.228,133.682
		C277.103,527.433,267.196,512.251,264.023,511.623z"/>
	
		<linearGradient id="path2095_1_" gradientUnits="userSpaceOnUse" x1="756.4785" y1="663.3472" x2="962.5848" y2="696.6866" gradientTransform="matrix(0.3502 0 0 -2.8551 -5.7581 2355.4993)">
		<stop  offset="0" style="stop-color:#5C3400"/>
		<stop  offset="0" style="stop-color:#8E5100"/>
		<stop  offset="0.25" style="stop-color:#8B5000"/>
		<stop  offset="0.5" style="stop-color:#764400"/>
		<stop  offset="0.625" style="stop-color:#864E00"/>
		<stop  offset="0.75" style="stop-color:#915400"/>
		<stop  offset="0.875" style="stop-color:#794600"/>
		<stop  offset="1" style="stop-color:#834D00"/>
	</linearGradient>
	<path id="path2095" sodipodi:nodetypes="csccscc" style="fill:url(#path2095_1_);" d="M259.15,318.517
		c-1.732,20.715,5.36,96.439,5.875,127.857c0.433,26.461-4.621,129.643-4.188,133.215c0.433,3.57,24.726-13.215,27.324-13.215
		s3.772-92.143,3.715-122.143c-0.082-42.863-5.099-127.857-5.965-132.143C285.046,307.802,259.15,318.517,259.15,318.517z"/>
	
		<linearGradient id="path2097_1_" gradientUnits="userSpaceOnUse" x1="960.042" y1="688.4038" x2="1030.1321" y2="704.758" gradientTransform="matrix(0.3071 0 0 -3.2558 -6.1401 2682.6455)">
		<stop  offset="0" style="stop-color:#5C3400"/>
		<stop  offset="0" style="stop-color:#8E5100"/>
		<stop  offset="0.25" style="stop-color:#8B5000"/>
		<stop  offset="0.5" style="stop-color:#764400"/>
		<stop  offset="0.625" style="stop-color:#864E00"/>
		<stop  offset="0.75" style="stop-color:#915400"/>
		<stop  offset="0.875" style="stop-color:#794600"/>
		<stop  offset="1" style="stop-color:#834D00"/>
	</linearGradient>
	<path id="path2097" sodipodi:nodetypes="csccscc" style="fill:url(#path2097_1_);" d="M286.281,309.589
		c-1.509,20.715,6.812,96.439,7.259,127.857c0.378,26.461-4.186,123.213-3.808,126.785c0.377,3.57,9.254-16.43,11.517-16.43
		c2.264,0,10.015-83.57,9.964-113.57c-0.071-42.863-9.049-130.714-9.803-135C300.655,294.946,289.495,309.232,286.281,309.589z"/>
	
		<linearGradient id="path2099_1_" gradientUnits="userSpaceOnUse" x1="331.8232" y1="727.7251" x2="382.657" y2="706.0222" gradientTransform="matrix(0.2867 0 0 -3.4875 -6.3209 2871.8127)">
		<stop  offset="0" style="stop-color:#5C3400"/>
		<stop  offset="0" style="stop-color:#8E5100"/>
		<stop  offset="0.25" style="stop-color:#8B5000"/>
		<stop  offset="0.5" style="stop-color:#764400"/>
		<stop  offset="0.625" style="stop-color:#864E00"/>
		<stop  offset="0.75" style="stop-color:#915400"/>
		<stop  offset="0.875" style="stop-color:#794600"/>
		<stop  offset="1" style="stop-color:#834D00"/>
	</linearGradient>
	<path id="path2099" sodipodi:nodetypes="csccscc" style="fill:url(#path2099_1_);" d="M104.138,281.375
		c-7.223,20.356-18.84,72.542-18.098,142.857c0.574,54.373,13.315,102.143,13.692,105.715c0.377,3.57,3.897,17.143,6.16,17.143
		s-12.673-92.168-11.465-122.143c1.714-42.506,14.166-123.215,13.411-127.5C107.084,293.16,107.353,279.232,104.138,281.375z"/>
	
		<linearGradient id="path2101_1_" gradientUnits="userSpaceOnUse" x1="1117.6826" y1="707.8911" x2="1182.8267" y2="713.9047" gradientTransform="matrix(0.2775 0 0 -3.6042 -6.4034 2967.0427)">
		<stop  offset="0" style="stop-color:#5C3400"/>
		<stop  offset="0" style="stop-color:#8E5100"/>
		<stop  offset="0.25" style="stop-color:#8B5000"/>
		<stop  offset="0.5" style="stop-color:#764400"/>
		<stop  offset="0.625" style="stop-color:#864E00"/>
		<stop  offset="0.75" style="stop-color:#915400"/>
		<stop  offset="0.875" style="stop-color:#794600"/>
		<stop  offset="1" style="stop-color:#834D00"/>
	</linearGradient>
	<path id="path2101" sodipodi:nodetypes="csccscc" style="fill:url(#path2101_1_);" d="M302.353,298.16
		c-1.509,20.714,9.669,101.083,10.116,132.5c0.377,26.461-9.542,108.572-9.165,112.143c0.377,3.572,6.039-20.713,7.231-23.213
		c0.478-4.287,11.273-57.502,11.393-87.5c0.285-72.148-15.835-140-16.59-144.286C304.584,283.518,302.353,298.16,302.353,298.16z"/>
	
		<linearGradient id="path5970_1_" gradientUnits="userSpaceOnUse" x1="-258.7319" y1="681.0444" x2="-159.483" y2="673.4862" gradientTransform="matrix(0.2446 0.105 1.2584 -0.3135 -618.0293 511.7962)">
		<stop  offset="0" style="stop-color:#FFCD00"/>
		<stop  offset="0" style="stop-color:#F8C800"/>
		<stop  offset="0.25" style="stop-color:#EDAB1F"/>
		<stop  offset="0.5" style="stop-color:#FAC324"/>
		<stop  offset="0.625" style="stop-color:#F5AF19"/>
		<stop  offset="0.75" style="stop-color:#FFAD27"/>
		<stop  offset="0.875" style="stop-color:#FAAA00"/>
		<stop  offset="1" style="stop-color:#F5B93A"/>
	</linearGradient>
	<path id="path5970" sodipodi:nodetypes="ccccccc" style="fill:url(#path5970_1_);" d="M230.35,258.667
		c-12.399,1.934-51.982,11.369-67.7,15.627c-13.238,3.587-53.315,13.7-54.733,14.342c-1.419,0.642-4.217,10.303,4.316,14.956
		c2.554,1.097,62.115-14.185,77.55-18.068c22.053-5.548,79.126-19.423,80.487-20.34C267.132,262.665,230.35,258.667,230.35,258.667z
		"/>
	
		<linearGradient id="path5972_1_" gradientUnits="userSpaceOnUse" x1="-158.6558" y1="666.8589" x2="-53.815" y2="666.8589" gradientTransform="matrix(0.2337 0.1004 1.5317 -0.3816 -792.1498 555.108)">
		<stop  offset="0" style="stop-color:#FFCD00"/>
		<stop  offset="0" style="stop-color:#F8C800"/>
		<stop  offset="0.25" style="stop-color:#EDAB1F"/>
		<stop  offset="0.5" style="stop-color:#FAC324"/>
		<stop  offset="0.625" style="stop-color:#F5AF19"/>
		<stop  offset="0.75" style="stop-color:#FFAD27"/>
		<stop  offset="0.875" style="stop-color:#FAAA00"/>
		<stop  offset="1" style="stop-color:#F5B93A"/>
	</linearGradient>
	<path id="path5972" sodipodi:nodetypes="ccccccc" style="fill:url(#path5972_1_);" d="M271.671,265.444
		c-13.929,2.46-62.932,15.67-82.185,20.206c-16.478,4.037-74.319,17.883-76.092,18.577c-1.772,0.694,18.689,8.517,20.921,9.476
		s64.079-13.864,82.045-18.374c25.672-6.443,75.424-19.424,77.254-20.385S271.671,265.444,271.671,265.444z"/>
	
		<linearGradient id="path5974_1_" gradientUnits="userSpaceOnUse" x1="-362.1709" y1="932.7222" x2="-300.1754" y2="929.4941" gradientTransform="matrix(0.2341 0.1005 0.3586 -0.0893 -102.476 383.2954)">
		<stop  offset="0" style="stop-color:#FFCD00"/>
		<stop  offset="0" style="stop-color:#F8C800"/>
		<stop  offset="0.25" style="stop-color:#EDAB1F"/>
		<stop  offset="0.5" style="stop-color:#FAC324"/>
		<stop  offset="0.625" style="stop-color:#F5AF19"/>
		<stop  offset="0.75" style="stop-color:#FFAD27"/>
		<stop  offset="0.875" style="stop-color:#FAAA00"/>
		<stop  offset="1" style="stop-color:#F5B93A"/>
	</linearGradient>
	<path id="path5974" sodipodi:nodetypes="ccccccc" style="fill:url(#path5974_1_);" d="M177.806,259.921
		c-4.271,0.145-23.763,3.162-35.557,6.373c-28.094,8.59-30.751,14.673-30.916,14.944s-8.022,6.499-5.991,7.372
		c2.031,0.872,49.702-12.511,53.882-13.583c5.974-1.532,70.974-16.072,70.9-16.514C230.051,258.072,200.559,257.203,177.806,259.921
		z"/>
	
		<linearGradient id="path5998_1_" gradientUnits="userSpaceOnUse" x1="-158.6582" y1="671.644" x2="-53.815" y2="671.644" gradientTransform="matrix(0.2337 0.1004 1.4231 -0.3545 -704.2435 548.7596)">
		<stop  offset="0" style="stop-color:#FFCD00"/>
		<stop  offset="0" style="stop-color:#F8C800"/>
		<stop  offset="0.25" style="stop-color:#EDAB1F"/>
		<stop  offset="0.5" style="stop-color:#FAC324"/>
		<stop  offset="0.625" style="stop-color:#F5AF19"/>
		<stop  offset="0.75" style="stop-color:#FFAD27"/>
		<stop  offset="0.875" style="stop-color:#FAAA00"/>
		<stop  offset="1" style="stop-color:#F5B93A"/>
	</linearGradient>
	<path id="path5998" sodipodi:nodetypes="csccscc" style="fill:url(#path5998_1_);" d="M294.14,275.478
		c-13.047,2.24-63.737,15.71-81.784,20.186c-14.869,3.688-75.058,17.826-76.679,18.482c-1.621,0.656,27.422,6.182,29.655,7.141
		s57.264-12.326,73.954-16.518c23.847-5.988,61.047-16.322,64.4-17.823C305.333,286.03,296.75,276.27,294.14,275.478z"/>
	
		<linearGradient id="path6002_1_" gradientUnits="userSpaceOnUse" x1="-158.6538" y1="758.3306" x2="-53.8111" y2="758.3306" gradientTransform="matrix(0.2337 0.1004 0.6903 -0.172 -249.0801 450.3836)">
		<stop  offset="0" style="stop-color:#FFCD00"/>
		<stop  offset="0" style="stop-color:#F8C800"/>
		<stop  offset="0.25" style="stop-color:#EDAB1F"/>
		<stop  offset="0.5" style="stop-color:#FAC324"/>
		<stop  offset="0.625" style="stop-color:#F5AF19"/>
		<stop  offset="0.75" style="stop-color:#FFAD27"/>
		<stop  offset="0.875" style="stop-color:#FAAA00"/>
		<stop  offset="1" style="stop-color:#F5B93A"/>
	</linearGradient>
	<path id="path6002" sodipodi:nodetypes="csccscc" style="fill:url(#path6002_1_);" d="M304.29,287.165
		c-7.095,0.757-59.487,15.693-67.55,18.001c-6.79,1.945-65.637,15.4-66.231,15.8s27.955,1.002,41.422,0.523
		c6.722-0.08,28.663-1.32,50.874-6.844c24.278-6.037,32.33-13.092,32.746-13.701C300.995,297.882,304.29,287.165,304.29,287.165z"/>
	
		<linearGradient id="path5968_1_" gradientUnits="userSpaceOnUse" x1="14.082" y1="326.0571" x2="155.3291" y2="326.0571" gradientTransform="matrix(1.4147 -0.0488 -0.0681 -0.4535 106.668 443.1286)">
		<stop  offset="0" style="stop-color:#000000"/>
		<stop  offset="1" style="stop-color:#000000"/>
	</linearGradient>
	
		<path id="path5968" sodipodi:cy="593.07648" sodipodi:rx="96.428574" sodipodi:type="arc" sodipodi:ry="51.723885" sodipodi:cx="250.71428" style="opacity:0.2938;fill:url(#path5968_1_);enable-background:new    ;" d="
		M304.227,287.69c2.654,17.688-39.927,33.569-95.107,35.471c-55.181,1.904-102.065-10.893-104.719-28.58
		c-2.655-17.688,39.926-33.569,95.107-35.472C254.688,257.207,301.571,270.002,304.227,287.69L304.227,287.69z"/>
	
		<linearGradient id="path6981_1_" gradientUnits="userSpaceOnUse" x1="48.6299" y1="321.0039" x2="146.0747" y2="321.0039" gradientTransform="matrix(2.0118 0 0 -0.5326 8.9669 431.3318)">
		<stop  offset="0" style="stop-color:#000000"/>
		<stop  offset="0.5588" style="stop-color:#B6B6B6"/>
		<stop  offset="1" style="stop-color:#000000"/>
	</linearGradient>
	<path id="path6981" sodipodi:nodetypes="cccccc" style="opacity:0.3373;fill:url(#path6981_1_);enable-background:new    ;" d="
		M106.799,285.553c29.26-25.08,62.42-27.693,97.044-28.738c53.154,1.567,85.34,7.552,98.995,29.26
		c-1.463-31.35-45.353-53.818-101.921-51.206c-28.284,1.045-51.205-1.045-84.853,27.17
		C114.114,264.13,106.799,285.553,106.799,285.553z"/>
</g>
<g id="layer3" inkscape:label="ring" inkscape:groupmode="layer">
</g>
<g id="layer2" inkscape:label="shadows" inkscape:groupmode="layer">
	<path id="path2147" sodipodi:nodetypes="ccccccccc" style="fill:#FFFFFF;fill-opacity:0.1598;" d="M220.26,323.859
		c-2.416-0.82-35.409-2.051-35.812,0.822c-0.402,2.871-5.233,111.588-5.233,116.1c0,4.514-1.934,147.361,0.482,146.131
		c2.415-1.23,2.817-1.641,3.22-4.512c0.402-2.873-0.466-143.26-0.466-143.26l5.218-111.588l29.386,0.41L220.26,323.859z"/>
	<path id="path2908" sodipodi:nodetypes="ccccccccc" style="fill:#FFFFFF;fill-opacity:0.142;" d="M183.76,322.892
		c-2.415-0.82-34.588-6.154-34.99-3.281c-0.403,2.871-5.233,111.588-5.233,116.1c0,4.514,2.469,144.408,4.885,143.178
		c2.415-1.23,1.177,2.461,1.579-0.41c0.402-2.873-4.048-143.998-4.048-143.998l6.037-111.998l28.155,3.281L183.76,322.892z"/>
	<path id="path2910" sodipodi:nodetypes="ccccccccc" style="fill:#FFFFFF;fill-opacity:0.1598;" d="M258.015,320.242
		c-2.415-0.82-33.767,1.643-34.17,4.514c-0.402,2.871-1.32,113.283-1.32,117.797c0,4.512-0.623,145.174,1.792,143.941
		c2.416-1.23,2.818-2.051,3.221-2.461c0.402-2.871-1.34-143.205-1.34-143.205l0.868-113.201l27.335-3.691L258.015,320.242z"/>
	<path id="path2912" sodipodi:nodetypes="ccccccccc" style="fill:#FFFFFF;fill-opacity:0.1598;" d="M285.502,312.039
		c-2.415-0.822-24.387,3.199-24.789,6.07c-0.403,2.871,2.727,110.467,2.727,114.98c0,4.512-4.205,147.252-1.79,146.021
		c2.415-1.232,2.9-1.121,3.303-3.994c0.402-2.871,1.75-143.258,1.75-143.258l-3.535-112.027l21.181-5.742L285.502,312.039z"/>
	<path id="path2914" sodipodi:nodetypes="ccccccccc" style="fill:#FFFFFF;fill-opacity:0.1598;" d="M301.55,299.518
		c-2.415-0.821-13.665,7.794-14.068,10.666c-0.402,2.873,5.023,111.998,5.023,116.512c0,4.512-4.505,137.844-2.09,136.613
		s2.408-4.924,2.811-7.795c0.402-2.873,2.926-130.049,2.926-130.049l-5.449-112.408l8.873-9.026L301.55,299.518z"/>
	<path id="path2916" sodipodi:nodetypes="ccccccccc" style="fill:#FFFFFF;fill-opacity:0.1598;" d="M307.293,287.62
		c-2.415-0.82-5.05,8.205-5.452,11.076c-0.402,2.872,8.058,111.67,9.698,116.592c0,4.514-10.001,126.275-7.586,125.045
		c2.416-1.23,2.818-9.846,3.221-12.717c0.402-2.873,8.75-111.588,7.109-111.588l-9.223-114.46l1.489-6.975L307.293,287.62z"/>
	<path id="path2918" sodipodi:nodetypes="ccccccccc" style="fill:#FFFFFF;fill-opacity:0.1598;" d="M148.937,318.388
		c-2.415-0.82-29.254-10.666-29.657-7.795c-0.403,2.873-4.413,113.229-4.413,117.742s1.648,137.844,4.064,136.613
		c2.415-1.23,0.576-0.271,0.979-3.143c0.402-2.873-1.396-131.475-1.396-131.475l3.987-116.865l24.873,9.436L148.937,318.388z"/>
	<path id="path2920" sodipodi:nodetypes="ccccccccc" style="fill:#FFFFFF;fill-opacity:0.1598;" d="M118.579,307.722
		c-2.416-0.82-9.153-9.026-9.555-6.154c-0.403,2.872-13.438,120.613-13.438,125.126c0,4.512,9.033,125.535,11.448,124.305
		c2.416-1.23,1.587,0,1.99-2.871c-0.828-3.281-12.253-121.434-10.613-120.613l12.192-123.896l7.232,7.384L118.579,307.722z"/>
	<path id="path2922" sodipodi:nodetypes="cccccccccc" style="fill:#FFFFFF;fill-opacity:0.1598;" d="M107.441,297.492
		c-2.415-0.82-2.999-16.82-3.401-13.948c-0.402,2.872-15.079,43.077-18.361,136.614c0,4.512,12.725,121.844,15.141,120.613
		c2.415-1.23,3.638,6.152,4.041,3.281c-0.828-3.281-18.008-76.064-15.946-128.408l2.814-63.998l12.25-63.589l1.899,11.897
		L107.441,297.492z"/>
	<path id="path2924" sodipodi:nodetypes="ccccccccc" style="fill-opacity:0.2959;" d="M180.01,587.279
		c2.415,0.82,42.326,1.127,42.729-1.744c0.402-2.873-0.787-111.205-0.787-115.719c0-4.512,2.567-147.969,0.152-146.738
		s-3.359,2.725-3.762,5.596s0.373,143.867,0.373,143.867l0.196,111.045l-35.696,1.121L180.01,587.279z"/>
	<path id="path5200" sodipodi:nodetypes="ccccccccc" style="fill-opacity:0.2959;" d="M225.797,586.869
		c2.415,0.82,32.702-4.445,33.104-7.316s4.15-107.799,4.15-112.311c1.148-38.58-2.846-147.971-5.261-146.738
		c-2.415,1.23-2.276,0.016-2.679,2.889c-0.403,2.871,5.786,144.406,4.162,144.406l-3.052,109.424l-29.386,6.627L225.797,586.869z"/>
	<path id="path5202" sodipodi:nodetypes="ccccccccc" style="fill-opacity:0.2959;" d="M264.641,578.048
		c2.416,0.82,23.631-10.24,24.033-13.111c0.403-2.873,3.834-102.928,3.834-107.439c0-4.514-4.693-146.887-7.109-145.656
		c-2.415,1.23-1.193,0.018-1.596,2.889c-0.403,2.871,6.869,97.312,5.786,144.949l-3.594,104.551l-20.156,10.865L264.641,578.048z"/>
	<path id="path5962" sodipodi:nodetypes="ccccccccc" style="fill-opacity:0.2959;" d="M148.53,580.679
		c2.415,0.82,29.311,8.781,29.713,5.91c0.403-2.871,0.361-111.588,0.361-116.1c0-4.514,7.544-149.117,5.129-147.887
		s-3.742,0.809-4.145,3.682c-0.402,2.871-4.22,146.928-4.22,146.928l0.195,111.047l-25.744-6.152L148.53,580.679z"/>
	<path id="path5964" sodipodi:nodetypes="ccccccccc" style="fill-opacity:0.2959;" d="M118.734,565.958
		c7.407,5.414,27.419,16.438,27.697,13.566s-2.812-114.268-2.812-118.779c0-4.514,5.979-140.314,4.315-139.084
		c-1.665,1.23-1.933-1.486-2.21,1.385c-0.277,2.873-5.102,140.039-5.102,140.039l3.58,112.961l-23.642-11.512L118.734,565.958z"/>
	<path id="path5966" sodipodi:nodetypes="ccccccccc" style="fill-opacity:0.2959;" d="M107.35,552.966
		c-1.121-2.625,10.509,15.291,10.705,12.418c0.196-2.871-3.27-105.463-3.27-109.977c0-4.512,5.46-147.969,4.285-146.736
		c-1.175,1.23-2.783-1.105-2.979,1.768c-0.196,2.871-4.794,143.865-4.794,143.865l3.923,106.453l-5.162-11.51L107.35,552.966z"/>
	
		<linearGradient id="path7753_1_" gradientUnits="userSpaceOnUse" x1="87.123" y1="476.9067" x2="340.7001" y2="485.2528" gradientTransform="matrix(0.8356 0 0 -1.1968 -1.4573 1001.5684)">
		<stop  offset="0" style="stop-color:#000000"/>
		<stop  offset="0.5588" style="stop-color:#B6B6B6"/>
		<stop  offset="1" style="stop-color:#000000"/>
	</linearGradient>
	
		<path id="path7753" sodipodi:nodetypes="ccccccccccccccccccccccc" style="opacity:0.4689;fill:url(#path7753_1_);enable-background:new    ;" d="
		M123.154,264.035c-3.78,1.361-7.388,4.813-10.781,9.903C114.965,270.398,118.641,267.101,123.154,264.035z M285.278,264.065
		c4.573,3.112,8.282,6.456,10.875,10.055C292.742,268.951,289.082,265.459,285.278,264.065z M296.372,274.423
		c0.791,1.128,1.455,2.287,2.031,3.452C297.734,276.673,297.062,275.485,296.372,274.423z M111.873,274.635
		c-0.552,0.861-1.086,1.835-1.625,2.786C110.735,276.486,111.246,275.545,111.873,274.635z M298.685,278.451
		c1.25,2.711,1.938,5.516,1.938,8.389c0,23.308-43.209,35.564-96.438,35.564s-96.437-12.256-96.437-35.564
		c0-2.851,0.675-5.637,1.906-8.329c-13.383,24.645-22.625,76.85-22.625,137.764c0,57.484,8.198,107.312,20.375,133.465
		c3.872,21.758,45.386,38.916,96.062,38.916c34.95,0,65.494-8.182,82.406-20.381c19.995-8.469,35.469-73.043,35.469-152
		C321.341,355.306,312.087,303.068,298.685,278.451z"/>
	
		<linearGradient id="path10826_1_" gradientUnits="userSpaceOnUse" x1="427.876" y1="799.5435" x2="427.876" y2="740.1415" gradientTransform="matrix(0.8496 0 0 -1.177 -163.2363 1418.4717)">
		<stop  offset="0" style="stop-color:#FFFFFF"/>
		<stop  offset="0.1765" style="stop-color:#A4A4A4"/>
		<stop  offset="1" style="stop-color:#000000"/>
	</linearGradient>
	
		<path id="path10826" sodipodi:nodetypes="ccccccccccccccccccccccc" style="opacity:0.3446;fill:url(#path10826_1_);enable-background:new    ;" d="
		M119.253,260.134c-3.779,1.361-7.388,4.813-10.781,9.903C111.064,266.497,114.741,263.2,119.253,260.134z M281.378,260.165
		c4.572,3.112,8.282,6.456,10.875,10.055C288.842,265.05,285.182,261.558,281.378,260.165z M292.472,270.522
		c0.791,1.128,1.455,2.287,2.031,3.452C293.834,272.772,293.161,271.584,292.472,270.522z M107.972,270.734
		c-0.552,0.861-1.085,1.835-1.625,2.786C106.834,272.585,107.345,271.644,107.972,270.734z M294.784,274.55
		c1.25,2.712,1.938,5.516,1.938,8.389c0,23.309-43.209,35.565-96.438,35.565s-96.438-12.256-96.438-35.565
		c0-2.85,0.675-5.636,1.906-8.328c-13.382,24.646-22.625,76.85-22.625,137.764c0,57.484,8.198,107.312,20.375,133.465
		c3.872,21.758,45.387,38.916,96.062,38.916c34.95,0,65.494-8.182,82.406-20.383c19.994-8.467,35.469-73.041,35.469-151.998
		C317.44,351.406,308.187,299.167,294.784,274.55z"/>
</g>
<g id="layer4" inkscape:label="ring" inkscape:groupmode="layer">
	
		<linearGradient id="path12401_1_" gradientUnits="userSpaceOnUse" x1="-141.8071" y1="156.396" x2="-34.9243" y2="156.396" gradientTransform="matrix(2.1196 0 0 -0.5239 390.555 433.9764)">
		<stop  offset="0" style="stop-color:#000000"/>
		<stop  offset="0.1387" style="stop-color:#D5D5D5"/>
		<stop  offset="0.1985" style="stop-color:#868686"/>
		<stop  offset="0.2436" style="stop-color:#969696"/>
		<stop  offset="0.2927" style="stop-color:#797979"/>
		<stop  offset="0.3551" style="stop-color:#C5C5C5"/>
		<stop  offset="0.5637" style="stop-color:#696969"/>
		<stop  offset="0.6226" style="stop-color:#5C5C5C"/>
		<stop  offset="0.8973" style="stop-color:#616161"/>
		<stop  offset="1" style="stop-color:#000000"/>
	</linearGradient>
	<path id="path12401" style="fill:url(#path12401_1_);" d="M92.47,324.052c-1.604,3.107-2.489,6.299-2.489,9.602
		c0,25.611,50.743,46.389,113.274,46.389c62.532,0,113.274-20.777,113.274-46.389l-0.157-2.615c-0.15-1.086-0.525-2.137-0.851-3.201
		c-10.86,20.98-56.34,36.754-110.785,36.754C147.053,364.591,99.514,346.898,92.47,324.052z"/>
	
		<linearGradient id="path12405_1_" gradientUnits="userSpaceOnUse" x1="-143.8188" y1="183.5386" x2="-36.9355" y2="183.5386" gradientTransform="matrix(2.0607 0 0 -0.4757 388.947 620.0931)">
		<stop  offset="0" style="stop-color:#000000"/>
		<stop  offset="0.1387" style="stop-color:#D5D5D5"/>
		<stop  offset="0.1985" style="stop-color:#868686"/>
		<stop  offset="0.2436" style="stop-color:#969696"/>
		<stop  offset="0.2927" style="stop-color:#797979"/>
		<stop  offset="0.3551" style="stop-color:#C5C5C5"/>
		<stop  offset="0.5637" style="stop-color:#696969"/>
		<stop  offset="0.6226" style="stop-color:#5C5C5C"/>
		<stop  offset="0.8973" style="stop-color:#616161"/>
		<stop  offset="1" style="stop-color:#000000"/>
	</linearGradient>
	<path id="path12405" style="fill:url(#path12405_1_);" d="M95.001,507.363c-1.56,2.822-2.42,5.719-2.42,8.719
		c0,23.256,49.332,42.125,110.126,42.125s110.127-18.869,110.127-42.125l-0.153-2.375c-0.146-0.986-0.511-1.941-0.827-2.906
		c-10.559,19.051-54.773,33.375-107.707,33.375C148.067,544.175,101.849,528.109,95.001,507.363z"/>
</g>
</svg>
