<?xml version="1.0" encoding="UTF-8" standalone="no"?>
<!-- Created with Inkscape (http://www.inkscape.org/) -->

<svg
   xmlns:dc="http://purl.org/dc/elements/1.1/"
   xmlns:cc="http://creativecommons.org/ns#"
   xmlns:rdf="http://www.w3.org/1999/02/22-rdf-syntax-ns#"
   xmlns:svg="http://www.w3.org/2000/svg"
   xmlns="http://www.w3.org/2000/svg"
   xmlns:sodipodi="http://sodipodi.sourceforge.net/DTD/sodipodi-0.dtd"
   xmlns:inkscape="http://www.inkscape.org/namespaces/inkscape"
   width="694.90631"
   height="154.69453"
   id="svg2"
   sodipodi:version="0.32"
   inkscape:version="0.48.1 r9760"
   sodipodi:docname="label-background.svg"
   inkscape:output_extension="org.inkscape.output.svg.inkscape"
   
   inkscape:export-xdpi="82.379997"
   inkscape:export-ydpi="82.379997"
   version="1.0"
   viewBox="0 0 694.90631 154.69453"
   sodipodi:modified="TRUE">
  <defs
     id="defs4" />
  <sodipodi:namedview
     id="base"
     pagecolor="#ffffff"
     bordercolor="#666666"
     borderopacity="1.0"
     gridtolerance="10000"
     guidetolerance="10"
     objecttolerance="10"
     inkscape:pageopacity="0.0"
     inkscape:pageshadow="2"
     inkscape:zoom="1"
     inkscape:cx="315.04799"
     inkscape:cy="-7.434487"
     inkscape:document-units="px"
     inkscape:current-layer="layer1"
     inkscape:window-width="1280"
     inkscape:window-height="929"
     inkscape:window-x="21"
     inkscape:window-y="34"
     showgrid="false"
     inkscape:window-maximized="0" />
  <metadata
     id="metadata7">
    <rdf:RDF>
      <cc:Work
         rdf:about="">
        <dc:format>image/svg+xml</dc:format>
        <dc:type
           rdf:resource="http://purl.org/dc/dcmitype/StillImage" />
      </cc:Work>
    </rdf:RDF>
  </metadata>
  <g
     inkscape:label="Layer 1"
     inkscape:groupmode="layer"
     id="layer1"
     transform="translate(-37.930355,-293.75229)">
    <g
       id="g5012"
       style="fill:#e0ddb8;fill-opacity:1">
      <g
         id="g5014"
         transform="matrix(1.062727,0,0,1.1653785,85.818104,-68.361381)"
         
         inkscape:export-xdpi="82.379997"
         inkscape:export-ydpi="82.379997"
         style="fill:#e0ddb8;fill-opacity:1">
        <g
           transform="translate(-38.133513,-1.2928932)"
           id="g5016"
           style="fill:#e0ddb8;fill-opacity:1">
          <path
             style="fill:#e0ddb8;fill-rule:evenodd;stroke:#000000;stroke-width:5.45868015000000018;stroke-linecap:butt;stroke-linejoin:miter;stroke-miterlimit:4;stroke-dasharray:none;stroke-opacity:1;fill-opacity:1"
             d="M 609.25746,334.00672 C 615.86299,326.6216 637.40273,323.7396 643.72106,334.00672 C 643.72106,372.01303 644.58265,402.63424 643.72106,435.59706 C 633.66919,444.42316 620.17093,443.70267 610.40624,435.59706 C 608.68306,402.63424 608.97026,372.01303 609.25746,334.00672 z "
             id="path5018"
             sodipodi:nodetypes="ccccc" />
          <path
             style="fill:#e0ddb8;fill-rule:evenodd;stroke:#000000;stroke-width:4.75899981999999966;stroke-linecap:round;stroke-linejoin:round;stroke-miterlimit:4;stroke-dasharray:none;stroke-opacity:1;fill-opacity:1"
             d="M 642.69474,436.38046 C 644.9096,435.08778 633.0561,428.12575 619.16786,431.55705 C 611.73789,433.39275 611.86927,437.6085 626.78069,437.33914 C 636.58364,437.16207 630.92486,433.49177 627.11647,431.56809"
             id="path5020"
             sodipodi:nodetypes="cssc" />
          <path
             style="fill:#e0ddb8;fill-opacity:1;fill-rule:evenodd;stroke:none;stroke-width:1px;stroke-linecap:butt;stroke-linejoin:miter;stroke-opacity:1"
             d="M 609.375,359.53125 C 609.375,359.53125 606.59111,369.71418 609.96875,364.5625 C 613.375,359.36719 618.49071,358.05492 628.0625,355 C 620.95839,355.22212 617.08628,355.26786 609.375,359.53125 z "
             id="path5022"
             sodipodi:nodetypes="czcc" />
          <path
             style="fill:#e0ddb8;fill-opacity:1;fill-rule:evenodd;stroke:none;stroke-width:1px;stroke-linecap:butt;stroke-linejoin:miter;stroke-opacity:1"
             d="M 607.96938,363.5465 C 607.96938,363.5465 605.18549,373.72943 608.56313,368.57775 C 611.96938,363.38244 617.08509,362.07017 626.65688,359.01525 C 619.55277,359.23737 615.68066,359.28311 607.96938,363.5465 z "
             id="path5024"
             sodipodi:nodetypes="czcc" />
          <path
             style="fill:#e0ddb8;fill-opacity:1;fill-rule:evenodd;stroke:none;stroke-width:1px;stroke-linecap:butt;stroke-linejoin:miter;stroke-opacity:1"
             d="M 609.03005,383.69905 C 609.03005,383.69905 606.24616,393.88198 609.6238,388.7303 C 613.03005,383.53499 618.14576,382.22272 627.71755,379.1678 C 620.61344,379.38992 616.74133,379.43566 609.03005,383.69905 z "
             id="path5026"
             sodipodi:nodetypes="czcc" />
        </g>
        <path
           sodipodi:nodetypes="cccscccc"
           id="path5028"
           d="M 596.43934,331.57078 L 590.98959,422.93474 C 591.86688,422.78451 592.70516,422.79945 594.12146,422.92171 C 595.7481,388.35425 597.18182,335.37335 598.09354,335.3205 C 598.52414,335.29554 598.77978,357.73924 597.14703,423.4031 C 598.92232,423.77466 599.55248,424.16255 601.0052,424.73376 L 599.91421,333.72335 C 599.48086,332.53592 597.47865,331.58137 596.43934,331.57078 z "
           style="fill:#e0ddb8;fill-opacity:1;fill-rule:evenodd;stroke:none;stroke-width:1px;stroke-linecap:butt;stroke-linejoin:miter;stroke-opacity:1" />
      </g>
      <g
         id="g5030"
         transform="matrix(1.062727,0,0,1.1653785,-77.84185,-68.361381)"
         
         inkscape:export-xdpi="82.379997"
         inkscape:export-ydpi="82.379997"
         style="fill:#e0ddb8;fill-opacity:1">
        <g
           transform="matrix(-1.0939776,0,0,1,816.56354,-1.207288)"
           id="g5032"
           style="fill:#e0ddb8;fill-opacity:1">
          <path
             style="fill:#e0ddb8;fill-rule:evenodd;stroke:#000000;stroke-width:5.45868015000000018;stroke-linecap:butt;stroke-linejoin:miter;stroke-miterlimit:4;stroke-dasharray:none;stroke-opacity:1;fill-opacity:1"
             d="M 609.25746,334.00672 C 615.86299,326.6216 637.40273,323.7396 643.72106,334.00672 C 643.72106,372.01303 644.58265,402.63424 643.72106,435.59706 C 633.66919,444.42316 620.17093,443.70267 610.40624,435.59706 C 608.68306,402.63424 608.97026,372.01303 609.25746,334.00672 z "
             id="path5034"
             sodipodi:nodetypes="ccccc" />
          <path
             style="fill:#e0ddb8;fill-rule:evenodd;stroke:#000000;stroke-width:4.75899981999999966;stroke-linecap:round;stroke-linejoin:round;stroke-miterlimit:4;stroke-dasharray:none;stroke-opacity:1;fill-opacity:1"
             d="M 642.69474,436.38046 C 644.9096,435.08778 633.0561,428.12575 619.16786,431.55705 C 611.73789,433.39275 611.86927,437.6085 626.78069,437.33914 C 636.58364,437.16207 630.92486,433.49177 627.11647,431.56809"
             id="path5036"
             sodipodi:nodetypes="cssc" />
          <path
             style="fill:#e0ddb8;fill-opacity:1;fill-rule:evenodd;stroke:none;stroke-width:1px;stroke-linecap:butt;stroke-linejoin:miter;stroke-opacity:1"
             d="M 609.375,359.53125 C 609.375,359.53125 606.59111,369.71418 609.96875,364.5625 C 613.375,359.36719 618.49071,358.05492 628.0625,355 C 620.95839,355.22212 617.08628,355.26786 609.375,359.53125 z "
             id="path5038"
             sodipodi:nodetypes="czcc" />
          <path
             style="fill:#e0ddb8;fill-opacity:1;fill-rule:evenodd;stroke:none;stroke-width:1px;stroke-linecap:butt;stroke-linejoin:miter;stroke-opacity:1"
             d="M 607.96938,363.5465 C 607.96938,363.5465 605.18549,373.72943 608.56313,368.57775 C 611.96938,363.38244 617.08509,362.07017 626.65688,359.01525 C 619.55277,359.23737 615.68066,359.28311 607.96938,363.5465 z "
             id="path5040"
             sodipodi:nodetypes="czcc" />
          <path
             style="fill:#e0ddb8;fill-opacity:1;fill-rule:evenodd;stroke:none;stroke-width:1px;stroke-linecap:butt;stroke-linejoin:miter;stroke-opacity:1"
             d="M 609.03005,383.69905 C 609.03005,383.69905 606.24616,393.88198 609.6238,388.7303 C 613.03005,383.53499 618.14576,382.22272 627.71755,379.1678 C 620.61344,379.38992 616.74133,379.43566 609.03005,383.69905 z "
             id="path5042"
             sodipodi:nodetypes="czcc" />
        </g>
        <path
           sodipodi:nodetypes="cccscccc"
           id="path5044"
           d="M 118.88233,334.55958 L 117.32167,426.10032 C 118.17204,425.89625 119.56651,425.39597 120.95798,424.9534 C 121.68397,390.38594 120.14476,336.51198 121.77397,336.09959 C 121.82756,336.08603 123.25889,359.13705 123.39072,424.80091 C 124.98923,424.38734 125.79617,424.33802 127.42567,424.09864 L 124.47852,332.5579 C 121.92385,331.98919 120.01003,333.5979 118.88233,334.55958 z "
           style="fill:#e0ddb8;fill-opacity:1;fill-rule:evenodd;stroke:none;stroke-width:1px;stroke-linecap:butt;stroke-linejoin:miter;stroke-opacity:1" />
      </g>
      <g
         id="g5046"
         transform="matrix(1.4453061,0,0,1.1653785,-134.12296,-69.52676)"
         
         inkscape:export-xdpi="82.379997"
         inkscape:export-ydpi="82.379997"
         style="fill:#e0ddb8;fill-opacity:1">
        <path
           sodipodi:nodetypes="ccccc"
           id="path5048"
           d="M 150,336.36218 C 352,278.86218 349.5,358.36218 571,337.36218 C 570.5,349.36218 571,420.86218 572,434.36218 C 347,456.86218 349.5,364.36218 151,432.36218 C 151.5,419.36218 151,351.86218 150,336.36218 z "
           style="fill:#e0ddb8;fill-rule:evenodd;stroke:#000000;stroke-width:6;stroke-linecap:butt;stroke-linejoin:miter;stroke-miterlimit:4;stroke-dasharray:none;stroke-opacity:1;fill-opacity:1" />
        <path
           style="fill:#e0ddb8;fill-opacity:1;fill-rule:evenodd;stroke:none;stroke-width:1px;stroke-linecap:butt;stroke-linejoin:miter;stroke-opacity:1"
           d="M 570.6875,384.90625 C 559.16949,387.45451 554.43153,388.20651 540.15625,390.70527 C 553.02851,390.90629 561.81468,389.95637 570.95803,389.31434 L 570.6875,384.90625 z "
           id="path5050"
           sodipodi:nodetypes="cccc" />
        <path
           style="fill:#e0ddb8;fill-opacity:1;fill-rule:evenodd;stroke:none;stroke-width:1px;stroke-linecap:butt;stroke-linejoin:miter;stroke-opacity:1"
           d="M 573.03761,390.77901 C 561.5196,393.32727 556.78164,394.07927 542.50636,396.57803 C 555.37862,396.77905 564.16479,395.82913 573.30814,395.1871 L 573.03761,390.77901 z "
           id="path5052"
           sodipodi:nodetypes="cccc" />
        <path
           style="fill:#e0ddb8;fill-opacity:1;fill-rule:evenodd;stroke:none;stroke-width:1px;stroke-linecap:butt;stroke-linejoin:miter;stroke-opacity:1"
           d="M 151.9189,376.17465 C 163.80106,377.3087 169.39593,370.81285 184.12254,370.83674 C 171.55042,374.39652 161.07224,381.22477 151.63981,380.58274 L 151.9189,376.17465 z "
           id="path5054"
           sodipodi:nodetypes="cccc" />
        <path
           style="fill:#e0ddb8;fill-opacity:1;fill-rule:evenodd;stroke:none;stroke-width:1px;stroke-linecap:butt;stroke-linejoin:miter;stroke-opacity:1"
           d="M 149.49448,382.04741 C 161.37665,384.59567 168.91606,376.68562 183.28912,375.47207 C 170.54022,380.79961 158.64783,387.09753 149.2154,386.4555 L 149.49448,382.04741 z "
           id="path5056"
           sodipodi:nodetypes="cccc" />
        <path
           sodipodi:nodetypes="cccc"
           id="path5058"
           d="M 556.4375,348.96875 C 562.97054,373.8125 560.37551,398.65625 563.53125,423.5 L 561.9375,348.09375 L 556.4375,348.96875 z "
           style="fill:#e0ddb8;fill-opacity:1;fill-rule:evenodd;stroke:none;stroke-width:1px;stroke-linecap:butt;stroke-linejoin:miter;stroke-opacity:1" />
        <path
           sodipodi:nodetypes="cccc"
           id="path5060"
           d="M 162.45313,416.61468 C 156.04777,392.28573 158.89094,368.89426 155.79688,344.56531 C 156.31775,369.17989 156.83861,393.79448 157.35948,418.40906 L 162.45313,416.61468 z "
           style="fill:#e0ddb8;fill-opacity:1;fill-rule:evenodd;stroke:none;stroke-width:1px;stroke-linecap:butt;stroke-linejoin:miter;stroke-opacity:1" />
        <path
           sodipodi:nodetypes="ccccc"
           id="path5062"
           d="M 432.5625,424.375 L 432.4375,425.375 C 468.43491,429.70416 516.35844,431.24214 547.03125,428.375 L 546.96875,420.65749 C 516.37678,425.15022 468.49119,428.70846 432.5625,424.375 z "
           style="fill:#e0ddb8;fill-opacity:1;fill-rule:evenodd;stroke:none;stroke-width:1px;stroke-linecap:butt;stroke-linejoin:miter;stroke-opacity:1" />
        <path
           sodipodi:nodetypes="ccccc"
           id="path5064"
           d="M 303.50276,329.49312 L 303.48639,328.41425 C 266.51129,323.19529 213.75635,330.3047 178.43055,342.42856 L 179.68286,350.5917 C 212.16912,336.02654 263.14742,326.23235 303.50276,329.49312 z "
           style="fill:#e0ddb8;fill-opacity:1;fill-rule:evenodd;stroke:none;stroke-width:1px;stroke-linecap:butt;stroke-linejoin:miter;stroke-opacity:1" />
      </g>
    </g>
    <g
       id="g4984">
      <g
         inkscape:export-ydpi="82.379997"
         inkscape:export-xdpi="82.379997"
         
         transform="matrix(1.062727,0,0,1.1653785,85.818104,-68.361381)"
         id="g3232">
        <g
           id="g3183"
           transform="translate(-38.133513,-1.2928932)">
          <path
             sodipodi:nodetypes="ccccc"
             id="path3151"
             d="M 609.25746,334.00672 C 615.86299,326.6216 637.40273,323.7396 643.72106,334.00672 C 643.72106,372.01303 644.58265,402.63424 643.72106,435.59706 C 633.66919,444.42316 620.17093,443.70267 610.40624,435.59706 C 608.68306,402.63424 608.97026,372.01303 609.25746,334.00672 z "
             style="fill:none;fill-rule:evenodd;stroke:#000000;stroke-width:5.45868015;stroke-linecap:butt;stroke-linejoin:miter;stroke-miterlimit:4;stroke-dasharray:none;stroke-opacity:1" />
          <path
             sodipodi:nodetypes="cssc"
             id="path3153"
             d="M 642.69474,436.38046 C 644.9096,435.08778 633.0561,428.12575 619.16786,431.55705 C 611.73789,433.39275 611.86927,437.6085 626.78069,437.33914 C 636.58364,437.16207 630.92486,433.49177 627.11647,431.56809"
             style="fill:none;fill-rule:evenodd;stroke:#000000;stroke-width:4.75899982;stroke-linecap:round;stroke-linejoin:round;stroke-miterlimit:4;stroke-dasharray:none;stroke-opacity:1" />
          <path
             sodipodi:nodetypes="czcc"
             id="path3161"
             d="M 609.375,359.53125 C 609.375,359.53125 606.59111,369.71418 609.96875,364.5625 C 613.375,359.36719 618.49071,358.05492 628.0625,355 C 620.95839,355.22212 617.08628,355.26786 609.375,359.53125 z "
             style="fill:#000000;fill-opacity:1;fill-rule:evenodd;stroke:none;stroke-width:1px;stroke-linecap:butt;stroke-linejoin:miter;stroke-opacity:1" />
          <path
             sodipodi:nodetypes="czcc"
             id="path3167"
             d="M 607.96938,363.5465 C 607.96938,363.5465 605.18549,373.72943 608.56313,368.57775 C 611.96938,363.38244 617.08509,362.07017 626.65688,359.01525 C 619.55277,359.23737 615.68066,359.28311 607.96938,363.5465 z "
             style="fill:#000000;fill-opacity:1;fill-rule:evenodd;stroke:none;stroke-width:1px;stroke-linecap:butt;stroke-linejoin:miter;stroke-opacity:1" />
          <path
             sodipodi:nodetypes="czcc"
             id="path3169"
             d="M 609.03005,383.69905 C 609.03005,383.69905 606.24616,393.88198 609.6238,388.7303 C 613.03005,383.53499 618.14576,382.22272 627.71755,379.1678 C 620.61344,379.38992 616.74133,379.43566 609.03005,383.69905 z "
             style="fill:#000000;fill-opacity:1;fill-rule:evenodd;stroke:none;stroke-width:1px;stroke-linecap:butt;stroke-linejoin:miter;stroke-opacity:1" />
        </g>
        <path
           style="fill:#000000;fill-opacity:1;fill-rule:evenodd;stroke:none;stroke-width:1px;stroke-linecap:butt;stroke-linejoin:miter;stroke-opacity:1"
           d="M 596.43934,331.57078 L 590.98959,422.93474 C 591.86688,422.78451 592.70516,422.79945 594.12146,422.92171 C 595.7481,388.35425 597.18182,335.37335 598.09354,335.3205 C 598.52414,335.29554 598.77978,357.73924 597.14703,423.4031 C 598.92232,423.77466 599.55248,424.16255 601.0052,424.73376 L 599.91421,333.72335 C 599.48086,332.53592 597.47865,331.58137 596.43934,331.57078 z "
           id="path3214"
           sodipodi:nodetypes="cccscccc" />
      </g>
      <g
         inkscape:export-ydpi="82.379997"
         inkscape:export-xdpi="82.379997"
         
         transform="matrix(1.062727,0,0,1.1653785,-77.84185,-68.361381)"
         id="g3241">
        <g
           id="g3194"
           transform="matrix(-1.0939776,0,0,1,816.56354,-1.207288)">
          <path
             sodipodi:nodetypes="ccccc"
             id="path3196"
             d="M 609.25746,334.00672 C 615.86299,326.6216 637.40273,323.7396 643.72106,334.00672 C 643.72106,372.01303 644.58265,402.63424 643.72106,435.59706 C 633.66919,444.42316 620.17093,443.70267 610.40624,435.59706 C 608.68306,402.63424 608.97026,372.01303 609.25746,334.00672 z "
             style="fill:none;fill-rule:evenodd;stroke:#000000;stroke-width:5.45868015;stroke-linecap:butt;stroke-linejoin:miter;stroke-miterlimit:4;stroke-dasharray:none;stroke-opacity:1" />
          <path
             sodipodi:nodetypes="cssc"
             id="path3198"
             d="M 642.69474,436.38046 C 644.9096,435.08778 633.0561,428.12575 619.16786,431.55705 C 611.73789,433.39275 611.86927,437.6085 626.78069,437.33914 C 636.58364,437.16207 630.92486,433.49177 627.11647,431.56809"
             style="fill:none;fill-rule:evenodd;stroke:#000000;stroke-width:4.75899982;stroke-linecap:round;stroke-linejoin:round;stroke-miterlimit:4;stroke-dasharray:none;stroke-opacity:1" />
          <path
             sodipodi:nodetypes="czcc"
             id="path3200"
             d="M 609.375,359.53125 C 609.375,359.53125 606.59111,369.71418 609.96875,364.5625 C 613.375,359.36719 618.49071,358.05492 628.0625,355 C 620.95839,355.22212 617.08628,355.26786 609.375,359.53125 z "
             style="fill:#000000;fill-opacity:1;fill-rule:evenodd;stroke:none;stroke-width:1px;stroke-linecap:butt;stroke-linejoin:miter;stroke-opacity:1" />
          <path
             sodipodi:nodetypes="czcc"
             id="path3202"
             d="M 607.96938,363.5465 C 607.96938,363.5465 605.18549,373.72943 608.56313,368.57775 C 611.96938,363.38244 617.08509,362.07017 626.65688,359.01525 C 619.55277,359.23737 615.68066,359.28311 607.96938,363.5465 z "
             style="fill:#000000;fill-opacity:1;fill-rule:evenodd;stroke:none;stroke-width:1px;stroke-linecap:butt;stroke-linejoin:miter;stroke-opacity:1" />
          <path
             sodipodi:nodetypes="czcc"
             id="path3204"
             d="M 609.03005,383.69905 C 609.03005,383.69905 606.24616,393.88198 609.6238,388.7303 C 613.03005,383.53499 618.14576,382.22272 627.71755,379.1678 C 620.61344,379.38992 616.74133,379.43566 609.03005,383.69905 z "
             style="fill:#000000;fill-opacity:1;fill-rule:evenodd;stroke:none;stroke-width:1px;stroke-linecap:butt;stroke-linejoin:miter;stroke-opacity:1" />
        </g>
        <path
           style="fill:#000000;fill-opacity:1;fill-rule:evenodd;stroke:none;stroke-width:1px;stroke-linecap:butt;stroke-linejoin:miter;stroke-opacity:1"
           d="M 118.88233,334.55958 L 117.32167,426.10032 C 118.17204,425.89625 119.56651,425.39597 120.95798,424.9534 C 121.68397,390.38594 120.14476,336.51198 121.77397,336.09959 C 121.82756,336.08603 123.25889,359.13705 123.39072,424.80091 C 124.98923,424.38734 125.79617,424.33802 127.42567,424.09864 L 124.47852,332.5579 C 121.92385,331.98919 120.01003,333.5979 118.88233,334.55958 z "
           id="path3220"
           sodipodi:nodetypes="cccscccc" />
      </g>
      <g
         inkscape:export-ydpi="82.379997"
         inkscape:export-xdpi="82.379997"
         
         transform="matrix(1.4453061,0,0,1.1653785,-134.12296,-69.52676)"
         id="g3250">
        <path
           style="fill:none;fill-rule:evenodd;stroke:#000000;stroke-width:6;stroke-linecap:butt;stroke-linejoin:miter;stroke-miterlimit:4;stroke-dasharray:none;stroke-opacity:1"
           d="M 150,336.36218 C 352,278.86218 349.5,358.36218 571,337.36218 C 570.5,349.36218 571,420.86218 572,434.36218 C 347,456.86218 349.5,364.36218 151,432.36218 C 151.5,419.36218 151,351.86218 150,336.36218 z "
           id="path2160"
           sodipodi:nodetypes="ccccc" />
        <path
           sodipodi:nodetypes="cccc"
           id="path3171"
           d="M 570.6875,384.90625 C 559.16949,387.45451 554.43153,388.20651 540.15625,390.70527 C 553.02851,390.90629 561.81468,389.95637 570.95803,389.31434 L 570.6875,384.90625 z "
           style="fill:#000000;fill-opacity:1;fill-rule:evenodd;stroke:none;stroke-width:1px;stroke-linecap:butt;stroke-linejoin:miter;stroke-opacity:1" />
        <path
           sodipodi:nodetypes="cccc"
           id="path3177"
           d="M 573.03761,390.77901 C 561.5196,393.32727 556.78164,394.07927 542.50636,396.57803 C 555.37862,396.77905 564.16479,395.82913 573.30814,395.1871 L 573.03761,390.77901 z "
           style="fill:#000000;fill-opacity:1;fill-rule:evenodd;stroke:none;stroke-width:1px;stroke-linecap:butt;stroke-linejoin:miter;stroke-opacity:1" />
        <path
           sodipodi:nodetypes="cccc"
           id="path3190"
           d="M 151.9189,376.17465 C 163.80106,377.3087 169.39593,370.81285 184.12254,370.83674 C 171.55042,374.39652 161.07224,381.22477 151.63981,380.58274 L 151.9189,376.17465 z "
           style="fill:#000000;fill-opacity:1;fill-rule:evenodd;stroke:none;stroke-width:1px;stroke-linecap:butt;stroke-linejoin:miter;stroke-opacity:1" />
        <path
           sodipodi:nodetypes="cccc"
           id="path3192"
           d="M 149.49448,382.04741 C 161.37665,384.59567 168.91606,376.68562 183.28912,375.47207 C 170.54022,380.79961 158.64783,387.09753 149.2154,386.4555 L 149.49448,382.04741 z "
           style="fill:#000000;fill-opacity:1;fill-rule:evenodd;stroke:none;stroke-width:1px;stroke-linecap:butt;stroke-linejoin:miter;stroke-opacity:1" />
        <path
           style="fill:#000000;fill-opacity:1;fill-rule:evenodd;stroke:none;stroke-width:1px;stroke-linecap:butt;stroke-linejoin:miter;stroke-opacity:1"
           d="M 556.4375,348.96875 C 562.97054,373.8125 560.37551,398.65625 563.53125,423.5 L 561.9375,348.09375 L 556.4375,348.96875 z "
           id="path3206"
           sodipodi:nodetypes="cccc" />
        <path
           style="fill:#000000;fill-opacity:1;fill-rule:evenodd;stroke:none;stroke-width:1px;stroke-linecap:butt;stroke-linejoin:miter;stroke-opacity:1"
           d="M 162.45313,416.61468 C 156.04777,392.28573 158.89094,368.89426 155.79688,344.56531 C 156.31775,369.17989 156.83861,393.79448 157.35948,418.40906 L 162.45313,416.61468 z "
           id="path3212"
           sodipodi:nodetypes="cccc" />
        <path
           style="fill:#000000;fill-opacity:1;fill-rule:evenodd;stroke:none;stroke-width:1px;stroke-linecap:butt;stroke-linejoin:miter;stroke-opacity:1"
           d="M 432.5625,424.375 L 432.4375,425.375 C 468.43491,429.70416 516.35844,431.24214 547.03125,428.375 L 546.96875,420.65749 C 516.37678,425.15022 468.49119,428.70846 432.5625,424.375 z "
           id="path3224"
           sodipodi:nodetypes="ccccc" />
        <path
           style="fill:#000000;fill-opacity:1;fill-rule:evenodd;stroke:none;stroke-width:1px;stroke-linecap:butt;stroke-linejoin:miter;stroke-opacity:1"
           d="M 303.50276,329.49312 L 303.48639,328.41425 C 266.51129,323.19529 213.75635,330.3047 178.43055,342.42856 L 179.68286,350.5917 C 212.16912,336.02654 263.14742,326.23235 303.50276,329.49312 z "
           id="path3230"
           sodipodi:nodetypes="ccccc" />
      </g>
    </g>
  </g>
</svg>
