<?xml version="1.0" encoding="UTF-8" standalone="no"?>
<svg
   xmlns:dc="http://purl.org/dc/elements/1.1/"
   xmlns:cc="http://creativecommons.org/ns#"
   xmlns:rdf="http://www.w3.org/1999/02/22-rdf-syntax-ns#"
   xmlns:svg="http://www.w3.org/2000/svg"
   xmlns="http://www.w3.org/2000/svg"
   xmlns:sodipodi="http://sodipodi.sourceforge.net/DTD/sodipodi-0.dtd"
   xmlns:inkscape="http://www.inkscape.org/namespaces/inkscape"
   width="291.28329"
   height="564.11908"
   viewBox="0 0 233.02664 451.29526"
   version="1.1"
   id="svg30493"
   inkscape:version="0.48.1 r9760"
   sodipodi:docname="bauarbeiter_modified.svg">
  <metadata
     id="metadata30829">
    <rdf:RDF>
      <cc:Work
         rdf:about="">
        <dc:format>image/svg+xml</dc:format>
        <dc:type
           rdf:resource="http://purl.org/dc/dcmitype/StillImage" />
        <dc:title></dc:title>
      </cc:Work>
    </rdf:RDF>
  </metadata>
  <defs
     id="defs30827" />
  <sodipodi:namedview
     pagecolor="#ffffff"
     bordercolor="#666666"
     borderopacity="1"
     objecttolerance="10"
     gridtolerance="10"
     guidetolerance="10"
     inkscape:pageopacity="0"
     inkscape:pageshadow="2"
     inkscape:window-width="1392"
     inkscape:window-height="929"
     id="namedview30825"
     showgrid="false"
     inkscape:zoom="0.72378091"
     inkscape:cx="147.44607"
     inkscape:cy="213.5957"
     inkscape:window-x="1920"
     inkscape:window-y="0"
     inkscape:window-maximized="1"
     inkscape:current-layer="svg30493"
     fit-margin-top="0"
     fit-margin-left="0"
     fit-margin-right="0"
     fit-margin-bottom="0" />
  <path
     d="m 125.50686,0.00336306 c -2.91125,-0.06625 -5.815,0.845 -8.05,2.85000004 -3.94,1.27 -8.435,0.78 -12.375,-0.5 -4.68,-1.29 -8.570002,2.42 -13.100002,2.7 -5.53,0.71 -11.275,2.82 -14.375,7.7499999 -5.19,3.3 -9.06,8.47 -10.7,14.4 -3.62,13.86 -5.92,28.715 -14.2,40.725 -6.89,5.06 -14.52,9.51 -19.65,16.55 -0.83,1.74 -1.58,3.605 -1.3,5.575 0.34,6.49 5.945,10.944997 11.025,14.124997 -0.89,8.32 -0.535,17.87 5.175,24.55 -5.72,6.63 -8.5,16.285 -5.25,24.675 2.43,6.3 8.535,9.79 13.725,13.55 -12.95,1.88 -25.405,6.66 -36.875,12.9 -3.92,2.2 -7.905,4.735 -10.2250002,8.725 -4.33,7.44 -6.35,15.985 -7.3,24.475 -0.17,5.41 -0.575,11.115 1.875,16.125 -3.75000002,4.48 -5.27,11.26 -2.45,16.6 2.2,4.21 3.735,9.265 7.925,11.975 4.1400002,2.65 9.2250002,1.515 13.8250002,1.325 -1.77,4.51 -5.025,9.195 -3.475,14.225 0.73,5.2 4.805,8.98 9.225,11.35 -3.81,2.57 -7.58,5.83 -8.9,10.4 -0.85,4.49 -0.7,9.99 3.1,13.15 6.94,1.13 13.45,-2.055 19.8,-4.325 -8.03,7.96 -17.06,14.775 -26.1,21.525 -0.8,4.97 4.03,9.84 9,8.8 8.61,-4.36 15.11,-11.705 21.95,-18.325 -2.69,6.06 -5.38,12.425 -5.25,19.175 0.65,6.53 6.025,10.935 9.525,16.025 -1.76,1.33 -3.875,2.385 -4.775,4.525 -3.03,6.42 -6.51,13.33 -5.3,20.65 0.84,3.83 4.61,5.665 7.95,6.925 -9.7,0.28 -20.855,2.915 -26.225,11.825 -4.47,7.57 -6.435,17.08 -4.125,25.65 -7.12,3.87 -6.465,13.185 -6.675,20.125 3.42,3.34 7.65,5.805 12.25,7.125 12.58,3.72 25.885,3.705 38.875,3.075 19.58,-2.19 37.355002,-16.38 44.175002,-34.8 0.9,0.62 1.79,1.23 2.7,1.85 5.93,-3.14 9.425,-9.255 12.825,-14.775 0.07,7.34 5.9,12.63 11,17.1 1.33,1.44 3.21,0.54 4.7,-0.05 5.54,10.78 15.12,19.655 26.6,23.725 8.35,3.06 17.28,1.075 25.9,0.975 9.06,-1.06 18.445,-1.44 26.975,-4.95 2.49,-0.89 3.95,-3.125 4.9,-5.475 -1.77,-5.65 -0.09,-13.23 -5.85,-16.85 2.32,-8.14 0.97,-17.695 -4.25,-24.475 -3.73,-4.95 -10.115,-6.295 -15.925,-6.925 2.65,-7.16 1.39,-15.09 -0.75,-22.2 -0.78,-2.93 -4.29,-3.985 -7,-3.675 -2.05,-11.77 -4.015,-24.185 0.025,-35.775 5.9,-3.82 11.015,-9.11 13.975,-15.55 3.41,-7.13 2.925,-15.19 4.675,-22.75 6.29,-2.67 12.535,-6.41 16.025,-12.5 2.46,-4.03 2.625,-8.94 4.675,-13.15 1.36,-3.05 2.995,-6.06 3.475,-9.4 0.73,-8.05 -2.005,-15.86 -4.725,-23.3 -1.32,-3.8 -4.065,-7.035 -7.875,-8.475 -0.44,-7.21 -1.475,-14.37 -2.575,-21.5 -2.55,-7.53 -4.785,-15.81 -11.325,-20.95 1.04,-4.23 2.025,-8.5 2.325,-12.85 0.18,-2.88 -0.66,-6.34 -3.6,-7.55 2.51,-5.29 1.6,-11.245 -0.2,-16.575 4.61,-3.49 7.75,-8.705 8.45,-14.475 0.89,-6.96 1.65,-14.92 -2.8,-20.9 6.11,-1.56 12.31,-5.579997 13.75,-12.099997 1.46,-3.92 -0.31,-8.115 -3,-11.025 -4.99,-5.56 -11.69,-9.105 -18.05,-12.825 -4.68,-8.83 -7.83,-18.385 -11.45,-27.675 -2.54,-6.23 -3.905,-12.885 -6.925,-18.925 -2.06,-4.4 -6.05,-7.4 -8.7,-11.4 -5.13996,-6.8899999 -15.13996,-3.9099999 -21.64996,-8.3999999 -3.98,-2.46000004 -9.395,-2.31000004 -13.025,0.75 -2.66,0 -5.325,-0.09 -7.975,-0.15 -2.24,-1.9 -5.13875,-2.93375004 -8.05,-3.00000004 z M 56.406858,226.10336 c 0.42,3.2 3.585,4.25 6.375,4.35 0.39,2.35 0.785,4.7 1.175,7.05 -0.83,-0.12 -2.52,-0.38 -3.35,-0.5 -0.21,2.97 -0.585,5.955 -1.425,8.825 -0.51,-0.47 -1.53,-1.43 -2.05,-1.9 4.2,-6.04 -1.28,-12.645 -5.5,-16.875 1.59,-0.32 3.185,-0.65 4.775,-0.95 z m 52.800002,103.05 c 7.11,4.38 15.29,6.79 23.5,8.1 0.29,3.23 1.97,6.04 3.25,8.95 -3.33,3.85 -1.89,9.19 -0.85,13.65 -4.54,0.66 -8.825,4.42 -8.925,9.2 -0.33,6.53 -1.535,13.635 1.675,19.675 0.39,2.6 -1.1,4.515 -2.95,6.125 -0.01,-4.2 -1.695,-8.34 -5.525,-10.4 -0.46,-4.84 -2.15,-9.4 -3.9,-13.9 2.49,-4.83 6.77,-10.815 3.35,-16.225 -2.91,-4.46 -7.515,-10.355 -13.575,-8.125 -1.5,-1.73 -3.4,-3.4 -3.6,-5.85 2.99,-3.39 5.57,-7.12 7.55,-11.2 z"
     id="path30497"
     inkscape:connector-curvature="0" />
  <path
     d="m 118.41686,3.9833631 c 1.58,-0.8 3.19,-1.55 4.84,-2.21 -0.23,13.1399999 -0.52,26.2999999 -0.14,39.4399999 0.41,4.99 0.2,10.21 2.2,14.9 2.31,-8.46 1.51,-17.28 1.65,-25.93 0.19,-9.49 -1.32,-18.98 0.01,-28.4299999 1.89,0.63 3.72,1.43 5.51,2.33 -1.93,6.1999999 -1.43,12.7499999 -1.21,19.1399999 0.82,9.97 1.18,19.99 0.75,29.98 -0.37,5.09 -0.75,10.32 -2.86,15.03 -0.73,1.98 -2.62,3.04 -4.26,4.16 -1.57,-1.19 -3.26,-2.43 -3.85,-4.41 -2.35,-6.34 -2.57,-13.2 -3.01,-19.87 -0.72,-14.71 0.27,-29.42 0.37,-44.1299999 z"
     id="path30499"
     inkscape:connector-curvature="0"
     style="fill:#fece00" />
  <path
     d="m 123.25686,1.7733631 c 1.24,0 2.48,0 3.72,-0.02 -1.33,9.4499999 0.18,18.9399999 -0.01,28.4299999 -0.14,8.65 0.66,17.47 -1.65,25.93 -2,-4.69 -1.79,-9.91 -2.2,-14.9 -0.38,-13.14 -0.09,-26.3 0.14,-39.4399999 z"
     id="path30501"
     inkscape:connector-curvature="0"
     style="fill:#fdf6a8" />
  <path
     d="m 142.60686,4.2133631 c 4.67,-3.30000004 10.62,-1.47 14.61,2 -1.16,3.8799999 -2.2,7.8699999 -1.94,11.9599999 0.79,12.32 3.83,24.51 3.09,36.9 -0.31,3.32 -0.86,7.68 -4.41,9.11 -2.63,0.6 -4.01,-2.24 -4.91,-4.21 -3.64,-9.86 -3.63,-20.53 -5.24,-30.81 -1.36,-8.23 -2.19,-16.63 -1.2,-24.9499999 z"
     id="path30503"
     inkscape:connector-curvature="0"
     style="fill:#fece00" />
  <path
     d="m 146.68686,2.8533631 c 1.85,0.19 3.67,0.57 5.39,1.28 -2.71,9.8799999 0.36,20.0199999 0.82,29.9799999 0.06,5.37 1.09,11.03 -0.9,16.18 -2.63,-5.68 -2.69,-12.08 -3.48,-18.18 -0.73,-9.74 -2.79,-19.46 -1.83,-29.2599999 z"
     id="path30505"
     inkscape:connector-curvature="0"
     style="fill:#fdf6a5" />
  <path
     d="m 95.606858,6.2233631 c 1.47,-0.63 2.95,-1.26 4.440002,-1.84 -0.230002,0.28 -0.680002,0.83 -0.910002,1.11 0.32,7.0399999 1.260002,14.0899999 0.53,21.1399999 -1.11,8.27 0.3,16.58 -0.33,24.88 2.480002,-4.06 3.380002,-8.8 3.800002,-13.48 1.42,-11.35 0.62,-22.8 0.63,-34.1999999 1.61,0.4 3.21,0.81 4.83,1.21 -0.61,15.6899999 1.36,31.5499999 -1.76,47.0899999 -1.21,5.46 -2.81,12.26 -8.760002,14.33 -3.2,-3.64 -3.09,-8.75 -3.26,-13.3 -0.22,-9.37 1.96,-18.6 1.67,-27.97 -0.11,-6.33 -0.84,-12.63 -0.88,-18.9699999 z"
     id="path30507"
     inkscape:connector-curvature="0"
     style="fill:#fece00" />
  <path
     d="m 100.04686,4.3833631 c 1.23,-0.23 2.47,-0.41 3.72,-0.55 -0.01,11.3999999 0.79,22.8499999 -0.63,34.1999999 -0.42,4.68 -1.32,9.42 -3.800002,13.48 0.63,-8.3 -0.78,-16.61 0.33,-24.88 0.730002,-7.05 -0.21,-14.1 -0.53,-21.1399999 0.23,-0.28 0.68,-0.83 0.910002,-1.11 z"
     id="path30509"
     inkscape:connector-curvature="0"
     style="fill:#fdf6a7" />
  <path
     d="m 109.44686,5.3933631 c 2.71,-0.05 5.42,-0.15 8.12,-0.43 -0.17,17.3699999 -1.43,34.7899999 0.29,52.1199999 0.63,4.65 1.1,9.61 3.7,13.67 1.23,2.06 4.15,2.68 6,1.04 3.06,-2.6 3.76,-6.86 4.5,-10.6 1.91,-13.26 0.8,-26.69 -0.01,-39.99 -0.29,-5.51 -0.32,-11.12 1.07,-16.4999999 2.86,0.02 5.71,0.05 8.57,0.06 -0.82,7.8199999 -0.13,15.7199999 1.1,23.4599999 1.77,10.6 1.69,21.61 5.36,31.83 0.91,2.47 2.77,5.65 5.91,4.95 3.38,-0.95 4.53,-4.77 4.96,-7.86 0.9,-7.27 -0.03,-14.62 -0.95,-21.85 -1,-9.66 -3.61,-19.68 0.02,-29.1299999 4.19,0.57 8.39,1.25 12.44,2.51 2.99,0.81 4.53,3.7399999 6.59,5.7799999 -5.41,0.25 -6.89,6.2 -7.65,10.54 -1.73,12.22 -0.73,24.93 3.14,36.66 1.7,4.49 4.12,9.96 9.38,10.96 6.7,1.19 13.77,0.15 19.95,-2.67 7.95,5.22 18.37,9.31 21.52,19.15 -2.15,-1.23 -4.3,-2.48 -6.24,-4.03 l 0.21,-0.7 -1.44,0.09 c -3.14,-1.67 -6.27,-3.44 -9.73,-4.38 -0.41,-0.12 -1.24,-0.35 -1.65,-0.47 -6.6,-1.31 -13.26,1.01 -19.65,2.54 -19.56,5.35 -38.78,12.4 -59,14.94 -11.4,1.17 -22.8,-0.93 -33.940002,-3.15 -11.13,-2.35 -22.14,-5.29 -32.98,-8.73 -8.71,-3.17 -18.73,-1.09 -26.2,4.17 3.53,-9.24 12.81,-14.26 20.61,-19.47 4.96,1.81 10.39,1.33 15.55,0.94 6.85,-0.83 11.15,-7.21 13.37,-13.18 3.75,-10.33 4.4,-21.68 2.66,-32.49 -0.71,-4.55 -2.27,-9.01 -5.13,-12.66 3.56,-4.4199999 9.48,-5.2099999 14.68,-6.2799999 0.52,9.2499999 1.55,18.5299999 0.77,27.7899999 -0.95,9.02 -2.14,18.18 -0.71,27.21 0.49,2.28 1.29,5.53 4.13,5.73 4.500002,-1.14 6.450002,-5.92 7.740002,-9.92 4.72,-16.83 2.31,-34.45 2.94,-51.6499999 z"
     id="path30511"
     inkscape:connector-curvature="0"
     style="fill:#fece00" />
  <path
     d="m 68.306858,28.723363 c 1.47,-6.46 5.82,-11.84 11.37,-15.32 6.68,10.87 6.2,24.54 4.01,36.66 -1.72,7.54 -4.78,16.52 -12.7,19.46 -5.52,1.3 -11.33,0.96 -16.87,0.01 7.83,-12.33 10.89,-26.8 14.19,-40.81 z"
     id="path30513"
     inkscape:connector-curvature="0"
     style="fill:#ffbc01" />
  <path
     d="m 172.25686,18.703363 c 0.92,-1.98 3.38,-4.3 5.6,-2.67 6.59,5.3 8.12,14.07 10.83,21.6 3.99,10.65 7.75,21.44 12.78,31.66 -5.95,2.53 -12.63,3.61 -19.04,2.55 -4.5,-0.69 -6.78,-5.12 -8.39,-8.89 -3.46,-8.83 -4.5,-18.43 -4.56,-27.85 0.18,-5.53 0.4,-11.3 2.78,-16.4 z"
     id="path30515"
     inkscape:connector-curvature="0"
     style="fill:#ffbc01" />
  <path
     d="m 70.436858,29.683363 c 1.59,-4.23 3.14,-8.72 6.55,-11.87 0.95,5.65 -1.24,11.13 -3.05,16.38 -1.57,3.72 -2.84,7.91 -6.21,10.44 -0.65,-5.15 1.08,-10.15 2.71,-14.95 z"
     id="path30517"
     inkscape:connector-curvature="0"
     style="fill:#fee1a6" />
  <path
     d="m 177.34686,20.983363 c 0.3,-0.52 0.88,-1.54 1.17,-2.06 4.93,7.93 8.96,17.2 8.45,26.7 -3.19,-2.63 -4.6,-6.62 -6.1,-10.33 -1.69,-4.61 -3.29,-9.37 -3.52,-14.31 z"
     id="path30519"
     inkscape:connector-curvature="0"
     style="fill:#fee2a5" />
  <path
     d="m 71.256858,79.603363 c 18.89,4.57 38.440002,2.39 57.660002,2.76 14.79,0.28 29.57,-0.54 44.31,-1.79 -2.02,1.75 -4.85,1.42 -7.31,1.78 -12.3,1.24 -24.59,3.05 -36.99,2.85 -19.39,0.04 -38.970002,-0.12 -57.990002,-4.36 0.08,-0.31 0.24,-0.93 0.32,-1.24 z"
     id="path30521"
     inkscape:connector-curvature="0"
     style="fill:#e39d05" />
  <path
     d="m 204.60686,79.603363 c 0.41,0.12 1.24,0.35 1.65,0.47 -0.34,0.04 -1.01,0.11 -1.34,0.15 3.73,1.29 7.16,3.55 11.07,4.23 l 1.44,-0.09 -0.21,0.7 -0.39,0.78 c -1.6,5.09 -6.54,7.32 -11.22,8.81 l -0.54,0.2 c -5.22,-3.1 -6.82,-9.17 -7.68,-14.78 2.4,-0.17 4.8,-0.44 7.22,-0.47 z"
     id="path30523"
     inkscape:connector-curvature="0"
     style="fill:#a04c03" />
  <path
     d="m 204.91686,80.223363 c 0.33,-0.04 1,-0.11 1.34,-0.15 3.46,0.94 6.59,2.71 9.73,4.38 -3.91,-0.68 -7.34,-2.94 -11.07,-4.23 z"
     id="path30525"
     inkscape:connector-curvature="0"
     style="fill:#000000" />
  <path
     d="m 187.34686,82.383363 c 2.93,-0.75 5.89,-1.39 8.86,-2.01 0.83,3.5 1.45,7.11 3.07,10.36 1.87,3.55 6,4.84 8.51,7.79 2.1,5.239997 -0.63,10.819997 -2.76,15.599997 -2.84,5.72 -7.93,12.19 -15.13,11.04 -0.23,-1.64 -0.42,-3.29 -0.55,-4.94 3.96,-1.64 8.52,-2.06 12.05,-4.58 0.73,-2.48 0.5,-5.1 0.6,-7.65 -2.68,3.16 -5.43,6.27 -8.48,9.08 -3.09,-7.52 7.86,-11.79 5.71,-19.189997 -2.99,-5.84 -8.7,-9.74 -11.88,-15.5 z"
     id="path30527"
     inkscape:connector-curvature="0"
     style="fill:#ffe882" />
  <path
     d="m 181.15686,84.013363 c 2.06,-0.55 4.13,-1.09 6.19,-1.63 3.18,5.76 8.89,9.66 11.88,15.5 2.15,7.399997 -8.8,11.669997 -5.71,19.189997 3.05,-2.81 5.8,-5.92 8.48,-9.08 -0.1,2.55 0.13,5.17 -0.6,7.65 -3.53,2.52 -8.09,2.94 -12.05,4.58 0.26,-2.67 0.72,-5.38 0.41,-8.07 -2.46,-3.99 -6.09,-7.2 -7.97,-11.57 3.25,-2.359997 3.96,-6.699997 3.8,-10.449997 -0.17,-2.77 -2.49,-4.48 -4.43,-6.12 z"
     id="path30529"
     inkscape:connector-curvature="0"
     style="fill:#fece00" />
  <path
     d="m 41.306858,85.763363 c 3.86,-0.92 7.8,-1.51 11.77,-1.28 -0.3,3.2 -0.73,6.39 -1.26,9.57 -1.64,0.84 -3.28,1.67 -4.91,2.54 -1.82,-1.27 -4,-2.4 -4.92,-4.56 -1,-1.94 -0.64,-4.18 -0.68,-6.27 z"
     id="path30531"
     inkscape:connector-curvature="0"
     style="fill:#a04c03" />
  <path
     d="m 53.986858,84.593363 c 2.55,0.73 5.09,1.52 7.61,2.35 1.76,2.87 3.57,5.72 5.34,8.6 -1.71,-0.77 -3.41,-1.54 -5.11,-2.31 -0.57,2.62 -1.27,5.29 -0.89,7.979997 0.38,3.73 2.5,6.92 4.23,10.14 -2.59,-1.77 -5.12,-3.63 -7.64,-5.49 0.2,2.75 0,5.72 1.54,8.15 1.54,2.67 4.22,4.35 6.62,6.17 -1.47,0.55 -2.99,0.96 -4.53,1.21 -1.89,-1.61 -3.58,-3.51 -4.56,-5.81 -2.69,-6.08 -4.02,-12.74 -4.12,-19.369997 0.66,-3.85 1.61,-7.68 1.51,-11.62 z"
     id="path30533"
     inkscape:connector-curvature="0"
     style="fill:#ffe882" />
  <path
     d="m 175.40686,85.663363 c 4.48,-2.38 10.62,2.23 8.91,7.16 -0.98,1.2 -2.01,2.35 -3.02,3.52 -0.22,-1.91 0.11,-3.97 -0.7,-5.76 -1.46,-1.91 -3.41,-3.34 -5.19,-4.92 z"
     id="path30535"
     inkscape:connector-curvature="0"
     style="fill:#cb946c" />
  <path
     d="m 33.256858,90.103363 c 2.59,-1.61 5.27,-3.08 8.05,-4.34 0.04,2.09 -0.32,4.33 0.68,6.27 0.92,2.16 3.1,3.29 4.92,4.56 -1.29,1.98 -2.39,4.069997 -3.39,6.209997 -4.52,-3.129997 -9.37,-6.879997 -10.26,-12.699997 z"
     id="path30537"
     inkscape:connector-curvature="0"
     style="fill:#ff7f00" />
  <path
     d="m 71.946858,86.503363 c 16.92,1.54 33.430002,9.06 50.610002,6.2 12.31,-1.26 24.51,-3.32 36.71,-5.29 -5.59,2.65 -11.95,2.92 -17.94,4.17 -9.82,0.87 -19.49,3.79 -29.42,3.06 -13.640002,-0.85 -26.670002,-5.3 -39.960002,-8.14 z"
     id="path30539"
     inkscape:connector-curvature="0"
     style="fill:#ffffff" />
  <path
     d="m 155.63686,91.453363 c 6.66,-1.65 13.19,-3.82 19.77,-5.79 1.78,1.58 3.73,3.01 5.19,4.92 0.81,1.79 0.48,3.85 0.7,5.76 1.01,-1.17 2.04,-2.32 3.02,-3.52 -0.11,2.69 -1.06,5.35 -3.64,6.57 0.61,5.559997 5.5,9.069997 8.25,13.579997 -0.29,4.3 -1.4,8.86 0.29,13 2.38,4.14 6.9,6.62 8.9,11 2.6,6.62 3.19,14.12 0.76,20.9 l -0.02,0.08 c -7.14,0.5 -13.66,4.78 -17.31,10.87 l -0.41,0.18 c -8.51,2.91 -13.03,11.52 -20.98,15.33 -12.14,5.84 -24.57,11.86 -38.09,13.55 -8.09,0.92 -16.74,0.36 -23.860002,-3.94 -4.26,-2.28 -7.13,-6.5 -11.65,-8.36 l -0.25,-0.12 c -3.94,-3.92 -8.41,-7.32 -12,-11.58 l -0.08,-0.08 c -0.03,0.03 -0.09,0.09 -0.12,0.12 l -0.45,0.48 -0.59,-0.97 c -1.81,-3.64 -5.7,-5.32 -8.9,-7.5 -5.34,-3.45 -11.22,-6.94 -14.13,-12.86 -2.16,-4.67 -2.92,-10.22 -1.4,-15.19 1.92,-5.08 8.01,-5.56 12.17,-7.93 3.81,-1.79 5.7,-5.75 7.15,-9.47 0.68,-0.73 1.36,-1.47 2.04,-2.2 0.39,-4.08 -1.17,-8.25 0.02,-12.24 3.1,-1.39 7.06,-0.09 9.92,-2.55 -0.01,1.89 0.01,3.8 0.65,5.61 l 0,0.12 c -0.06,2.77 0.6,5.47 1.48,8.07 -0.85,0.89 -1.66,1.82 -2.44,2.77 0.68,-0.46 2.04,-1.37 2.72,-1.83 -0.17,2.45 -0.58,4.87 -1.06,7.28 -1.1,0.94 -2.1,1.97 -3.09,3.02 0.88,-0.47 1.75,-0.95 2.61,-1.45 5.75,1.43 11.95,-0.87 17.46,1.82 2.530002,1.21 5.480002,3.17 5.690002,6.25 -0.39,2.71 -1.43,5.26 -1.94,7.95 3.73,0.9 5.82,-3.14 8.13,-5.31 0.31,-0.08 0.94,-0.23 1.25,-0.31 4.16,-0.98 8.25,-2.59 12.6,-2.4 4.98,-0.19 9.73,1.42 14.5,2.62 -5.1,-3.39 -11.54,-3.56 -17.45,-3.38 -1.83,-4.31 -2.95,-8.87 -3.67,-13.49 -0.62,-3.21 -1.38,-6.93 -4.56,-8.6 0.82,-2.13 2.8,-4.62 0.92,-6.78 -3.29,-3.43 -8.37,-4.26 -12.92,-3.96 -5.680002,0.34 -11.340002,-1.39 -17.000002,-0.57 -1.67,0.02 -2.55,1.46 -3.57,2.53 -3.31,-3.479997 -4.81,-8.069997 -5.42,-12.739997 13.84,3.47 27.830002,6.85 42.140002,7.49 7.29,0.43 14.46,-1.14 21.61,-2.33 0.86,2.01 2.02,3.86 3.17,5.709997 -0.52,1.25 -1.12,2.46 -1.69,3.68 0.53,1.43 1.05,2.85 1.57,4.29 -2.47,2.84 -3.16,6.63 -2.96,10.3 -0.95,8.34 4.36,15.43 5.73,23.35 0.82,3.93 -2.11,7.5 -5.66,8.76 -5.55,2.02 -11.58,2.08 -17.41,1.85 -0.69,0.43 -1.38,0.86 -2.07,1.3 8.35,-0.67 18.23,0.69 24.8,-5.68 3.53,0.85 6.78,-0.68 9.55,-2.74 2.16,-1.32 4.74,-2.75 5.3,-5.47 -0.02,-1.71 -0.6,-3.33 -1.03,-4.97 -1.78,-0.53 -3.57,-1.06 -5.41,-1.4 -0.7,-2.03 -1.19,-4.12 -1.45,-6.24 6,-1.05 11.98,-2.18 18,-3.05 2.83,-0.46 5.24,1.46 7.75,2.45 -1.12,-1.2 -2.33,-2.38 -3.9,-2.95 0.15,-1.95 0.32,-3.9 0.62,-5.83 l 0.13,-0.83 c 1.35,-3.18 2.67,-6.58 1.38,-10.03 2.88,-1.21 3.02,-6.04 -0.13,-6.97 -6.72,-2.929997 -14.28,-2.169997 -21.39,-3.369997 0.46,-2.11 -0.08,-4.64 1.5,-6.36 0.78,1.51 -0.57,4.87 1.5,5.31 -0.44,-1.82 -0.77,-3.66 -0.84,-5.53 z"
     id="path30541"
     inkscape:connector-curvature="0"
     style="fill:#ddac83" />
  <path
     d="m 205.60686,94.653363 c 4.68,-1.49 9.62,-3.72 11.22,-8.81 2.1,1.39 4.16,2.83 6.19,4.33 -0.37,7.2 -6.93,11.319997 -13.13,13.269997 0,-3.449997 -1.22,-6.909997 -4.28,-8.789997 z"
     id="path30543"
     inkscape:connector-curvature="0"
     style="fill:#ff7f00" />
  <path
     d="m 61.596858,86.943363 c 4.08,1.16 8.14,2.39 12.25,3.43 0.17,4.59 1.7,9.01 4.36,12.739997 -2.61,1.18 -5.48,1.14 -8.29,1.02 -2.95,4.08 -0.56,9.14 -0.87,13.69 -1.12,0.79 -2.25,1.56 -3.36,2.36 -2.4,-1.82 -5.08,-3.5 -6.62,-6.17 -1.54,-2.43 -1.34,-5.4 -1.54,-8.15 2.52,1.86 5.05,3.72 7.64,5.49 -1.73,-3.22 -3.85,-6.41 -4.23,-10.14 -0.38,-2.689997 0.32,-5.359997 0.89,-7.979997 1.7,0.77 3.4,1.54 5.11,2.31 -1.77,-2.88 -3.58,-5.73 -5.34,-8.6 z"
     id="path30545"
     inkscape:connector-curvature="0"
     style="fill:#fece00" />
  <path
     d="m 152.10686,96.163363 c -1.93,-0.2 -1.9,-4.48 0.37,-2.99 0.41,1.08 0.29,2.07 -0.37,2.99 z"
     id="path30547"
     inkscape:connector-curvature="0"
     style="fill:#ebcf00" />
  <path
     d="m 144.99686,94.353363 c 1.27,-0.27 2.54,-0.45 3.83,-0.54 0.83,1.32 1.56,2.71 2.32,4.08 -0.86,0.2 -2.58,0.62 -3.44,0.83 -0.17,0.05 -0.5,0.17 -0.67,0.23 -0.52,0.1 -1.56,0.29 -2.08,0.39 0,-1.67 0.02,-3.33 0.04,-4.99 z"
     id="path30549"
     inkscape:connector-curvature="0"
     style="fill:#ddac83" />
  <path
     d="m 139.49686,95.643363 c 1.47,-0.3 2.94,-0.59 4.41,-0.88 -0.05,2.63 0.03,5.269997 0.82,7.799997 -2.11,-2.01 -3.94,-4.289997 -5.23,-6.919997 z"
     id="path30551"
     inkscape:connector-curvature="0"
     style="fill:#fad900" />
  <path
     d="m 44.216858,108.14336 c 0.01,-5.03 1.75,-10.799997 6.94,-12.709997 0.34,3.51 0.75,7.029997 1.14,10.539997 -2.68,4.51 -5.45,11.05 -1.29,15.54 l 1.41,0.42 c 1.02,0.56 2.03,1.13 3.05,1.71 -1.89,1.49 -3.76,3 -5.59,4.56 -4.95,-5.41 -5.58,-13.08 -5.66,-20.06 z"
     id="path30553"
     inkscape:connector-curvature="0"
     style="fill:#c99772" />
  <path
     d="m 147.03686,98.953363 c 0.17,-0.06 0.5,-0.18 0.67,-0.23 2.14,0.41 4.52,0.3 5.75,2.449997 -2.37,0.38 -4.71,0.87 -7.08,1.23 -0.29,-0.58 -0.87,-1.73 -1.16,-2.31 l 1.5,0.19 c 0.08,-0.329997 0.24,-0.999997 0.32,-1.329997 z"
     id="path30555"
     inkscape:connector-curvature="0"
     style="fill:#ffffa7" />
  <path
     d="m 153.81686,99.073363 c 6.58,1.259997 13.49,0.55 19.86,2.919997 1.68,0.41 2.65,1.95 2.71,3.63 -4.18,0.19 -7.91,-1.99 -11.78,-3.19 -3.49,-1.28 -7.26,-1.47 -10.94,-1.28 0.04,-0.52 0.11,-1.559997 0.15,-2.079997 z"
     id="path30557"
     inkscape:connector-curvature="0"
     style="fill:#fdfb9e" />
  <path
     d="m 146.37686,102.40336 c 2.37,-0.36 4.71,-0.85 7.08,-1.23 l 0.21,-0.02 c 3.68,-0.19 7.45,0 10.94,1.28 3.87,1.2 7.6,3.38 11.78,3.19 -1.15,1.07 -2.38,2.06 -3.6,3.04 -6.27,-1.56 -12.22,-5.63 -18.93,-4.29 -4.03,0.84 -8.44,1.14 -11.79,3.82 -0.25,-0.92 -0.77,-2.75 -1.02,-3.67 l 0.96,-0.14 c 0.49,-0.25 1.47,-0.74 1.96,-0.99 1.04,0.38 2.09,0.75 3.14,1.12 -0.18,-0.53 -0.54,-1.58 -0.73,-2.11 z"
     id="path30559"
     inkscape:connector-curvature="0"
     style="fill:#fdcc00" />
  <path
     d="m 82.326858,102.26336 c 6.53,-1.34 13.09,0.78 19.640002,0.33 4.62,-0.29 10.23,1.04 12.08,5.82 l -0.85,-0.54 c -3.86,-2.73 -8.71,-3.24 -13.280002,-3.7 -6.53,-0.69 -12.71,1.9 -18.96,3.31 0,-0.8 0,-2.4 0,-3.2 0.34,-0.5 1.03,-1.51 1.37,-2.02 z"
     id="path30561"
     inkscape:connector-curvature="0"
     style="fill:#fefc9f" />
  <path
     d="m 142.00686,104.38336 c -1.28,-1.36 1.83,-2.94 1.96,-0.99 -0.49,0.25 -1.47,0.74 -1.96,0.99 z"
     id="path30563"
     inkscape:connector-curvature="0"
     style="fill:#ffffff" />
  <path
     d="m 80.956858,107.48336 c 6.25,-1.41 12.43,-4 18.96,-3.31 4.570002,0.46 9.420002,0.97 13.280002,3.7 -0.07,0.7 -0.19,2.08 -0.26,2.77 -3.82,-2.54 -8.46,-3.12 -12.89,-3.72 -5.830002,-0.67 -11.330002,1.82 -16.820002,3.33 -0.76,-0.93 -1.51,-1.85 -2.27,-2.77 z"
     id="path30565"
     inkscape:connector-curvature="0"
     style="fill:#ffce00" />
  <path
     d="m 141.62686,109.55336 c 4.43,-3.17 10.06,-3.89 15.34,-4.43 5.59,0.38 10.64,3.22 15.94,4.83 0.52,-0.39 1.57,-1.18 2.09,-1.58 1.29,3.45 -0.03,6.85 -1.38,10.03 -4.06,-5.38 -11.36,-6.73 -17.69,-7.16 -2.37,-0.4 -4.47,0.75 -6.08,2.39 1.1,-0.44 2.18,-0.93 3.25,-1.43 7.28,-0.42 15.47,1.2 20.39,7.03 -0.3,1.93 -0.47,3.88 -0.62,5.83 l -1.53,-0.47 c 0.15,-1.89 0.18,-4.1 -1.69,-5.2 -5.86,-4.12 -13.69,-4.25 -20.46,-2.82 -4.68,1.73 -3.05,7.78 -2.84,11.59 -0.94,0.57 -1.86,1.15 -2.79,1.74 2.49,-0.44 4.98,-0.85 7.46,-1.29 0.26,2.12 0.75,4.21 1.45,6.24 -3.14,-0.01 -6.24,0.61 -9.3,1.3 -2.51,-6.14 -5.07,-12.93 -2.31,-19.47 -0.75,1.04 -1.48,2.1 -2.19,3.17 -0.2,-3.67 0.49,-7.46 2.96,-10.3 z"
     id="path30567"
     inkscape:connector-curvature="0"
     style="fill:#cc956c" />
  <path
     d="m 209.40686,105.90336 c 3.41,5.86 2.88,12.89 2.11,19.36 -0.74,5.36 -3.42,10.56 -8.14,13.43 -1.18,-2.17 -2.38,-4.32 -3.62,-6.45 1.28,-0.83 2.57,-1.67 3.88,-2.47 l 1.34,0.11 c 4.24,-3.54 2.25,-9.6 0.25,-13.81 1.68,-3.27 3.03,-6.69 4.18,-10.17 z"
     id="path30569"
     inkscape:connector-curvature="0"
     style="fill:#c99772" />
  <path
     d="m 52.416858,121.93336 c -4.73,-3.87 -2.51,-10.53 0.15,-14.94 1.47,5.25 2.99,10.86 7.21,14.64 -1.38,0.7 -2.75,1.41 -4.1,2.13 l -0.21,-0.12 c -1.02,-0.58 -2.03,-1.15 -3.05,-1.71 z"
     id="path30571"
     inkscape:connector-curvature="0"
     style="fill:#b5774e" />
  <path
     d="m 82.456858,111.36336 c 5.52,-1.02 10.74,-3.8 16.48,-3.42 4.850002,0.39 10.020002,1.03 13.880002,4.29 3.18,1.67 3.94,5.39 4.56,8.6 0.72,4.62 1.84,9.18 3.67,13.49 -3.39,0.37 -6.79,1.23 -9.65,3.16 -0.31,0.08 -0.94,0.23 -1.25,0.31 -2.31,2.17 -4.4,6.21 -8.13,5.31 0.51,-2.69 1.55,-5.24 1.94,-7.95 -0.21,-3.08 -3.16,-5.04 -5.690002,-6.25 -5.51,-2.69 -11.71,-0.39 -17.46,-1.82 2.64,-1.78 5.8,-3.14 9.03,-2.28 7.22,1.41 14.940002,1.58 21.470002,5.33 -0.6,-0.75 -1.2,-1.5 -1.8,-2.25 0.3,-3.92 2.27,-9.83 -1.99,-12.25 -7,-1.81 -15.180002,-1.48 -21.250002,2.8 -2.1,1.18 -1.28,3.68 -0.93,5.55 -1.36,0.49 -2.72,0.97 -4.05,1.53 0.48,-2.41 0.89,-4.83 1.06,-7.28 2.44,-1.89 4.78,-4.08 7.77,-5.03 5.36,-1.55 11.050002,-0.05 16.420002,-1.48 -4.67,-0.31 -9.390002,-0.3 -14.050002,0.13 -4.04,0.39 -7.4,2.92 -10.42,5.44 -0.88,-2.6 -1.54,-5.3 -1.48,-8.07 0.47,0.54 1.4,1.61 1.87,2.14 z"
     id="path30573"
     inkscape:connector-curvature="0"
     style="fill:#cc956c" />
  <path
     d="m 92.486858,111.85336 c 4.66,-0.43 9.380002,-0.44 14.050002,-0.13 -5.37,1.43 -11.060002,-0.07 -16.420002,1.48 -2.99,0.95 -5.33,3.14 -7.77,5.03 -0.68,0.46 -2.04,1.37 -2.72,1.83 0.78,-0.95 1.59,-1.88 2.44,-2.77 3.02,-2.52 6.38,-5.05 10.42,-5.44 z"
     id="path30575"
     inkscape:connector-curvature="0"
     style="fill:#000000" />
  <path
     d="m 149.84686,113.63336 c 1.61,-1.64 3.71,-2.79 6.08,-2.39 6.33,0.43 13.63,1.78 17.69,7.16 l -0.13,0.83 c -4.92,-5.83 -13.11,-7.45 -20.39,-7.03 -1.07,0.5 -2.15,0.99 -3.25,1.43 z"
     id="path30577"
     inkscape:connector-curvature="0"
     style="fill:#000000" />
  <path
     d="m 86.266858,118.43336 c 6.07,-4.28 14.250002,-4.61 21.250002,-2.8 4.26,2.42 2.29,8.33 1.99,12.25 0.6,0.75 1.2,1.5 1.8,2.25 -6.53,-3.75 -14.250002,-3.92 -21.470002,-5.33 -3.23,-0.86 -6.39,0.5 -9.03,2.28 -0.86,0.5 -1.73,0.98 -2.61,1.45 0.99,-1.05 1.99,-2.08 3.09,-3.02 1.33,-0.56 2.69,-1.04 4.05,-1.53 -0.35,-1.87 -1.17,-4.37 0.93,-5.55 z"
     id="path30579"
     inkscape:connector-curvature="0"
     style="fill:#000000" />
  <path
     d="m 149.18686,116.57336 c 6.77,-1.43 14.6,-1.3 20.46,2.82 1.87,1.1 1.84,3.31 1.69,5.2 l 1.53,0.47 c 1.57,0.57 2.78,1.75 3.9,2.95 -2.51,-0.99 -4.92,-2.91 -7.75,-2.45 -6.02,0.87 -12,2 -18,3.05 -2.48,0.44 -4.97,0.85 -7.46,1.29 0.93,-0.59 1.85,-1.17 2.79,-1.74 -0.21,-3.81 -1.84,-9.86 2.84,-11.59 z"
     id="path30581"
     inkscape:connector-curvature="0"
     style="fill:#000000" />
  <path
     d="m 86.996858,119.33336 c 3.55,-3 8.46,-3.48 12.92,-3.63 3.130002,0.28 6.860002,-0.19 9.070002,2.55 0.08,2.89 0.03,5.79 -0.09,8.69 -1.87,-0.25 -3.73,-0.57 -5.59,-0.82 0.86,-0.73 1.69,-1.49 2.49,-2.28 -1.2,-1.33 -3.12,-1.63 -4.6,-2.53 0.52,-0.52 1.55,-1.57 2.07,-2.09 -3.650002,-0.98 -8.220002,1.27 -8.240002,5.39 -3.09,-0.5 -6.16,-1.08 -9.21,-1.74 0.17,-1.26 -0.14,-2.81 1.18,-3.54 z"
     id="path30583"
     inkscape:connector-curvature="0"
     style="fill:#ffffff" />
  <path
     d="m 138.66686,119.85336 c 0.71,-1.07 1.44,-2.13 2.19,-3.17 -2.76,6.54 -0.2,13.33 2.31,19.47 3.06,-0.69 6.16,-1.31 9.3,-1.3 1.84,0.34 3.63,0.87 5.41,1.4 0.43,1.64 1.01,3.26 1.03,4.97 -0.56,2.72 -3.14,4.15 -5.3,5.47 2.14,-2.39 5.17,-4.7 4.48,-8.34 -3.78,-3.97 -9.67,-2.33 -14.41,-1.61 0.82,2.81 1.61,5.65 1.81,8.58 -0.41,1.39 -0.91,2.75 -1.43,4.11 -6.57,6.37 -16.45,5.01 -24.8,5.68 0.69,-0.44 1.38,-0.87 2.07,-1.3 5.83,0.23 11.86,0.17 17.41,-1.85 3.55,-1.26 6.48,-4.83 5.66,-8.76 -1.37,-7.92 -6.68,-15.01 -5.73,-23.35 z"
     id="path30585"
     inkscape:connector-curvature="0"
     style="fill:#000000" />
  <path
     d="m 147.98686,118.14336 c 6.34,-2.02 13.7,-1.86 19.7,1.2 1.52,0.93 4.15,2.91 2.06,4.66 -2.8,0.92 -5.75,1.16 -8.62,1.75 -0.11,-0.51 -0.33,-1.52 -0.44,-2.03 l -1.2,-0.59 c -0.13,-0.48 -0.38,-1.44 -0.51,-1.92 l -0.72,0.05 0.86,2.09 c -0.9,-0.42 -1.79,-0.84 -2.68,-1.26 0.33,-0.48 0.98,-1.43 1.3,-1.91 -3.97,-1.8 -9.89,3.94 -5.21,6.88 -1.63,0.4 -3.26,0.83 -4.89,1.26 -0.8,-3.34 -1.21,-6.98 0.35,-10.18 z"
     id="path30587"
     inkscape:connector-curvature="0"
     style="fill:#ffffff" />
  <path
     d="m 204.69686,116.92336 c 2.02,3.93 3.84,10.27 -1.06,12.85 -1.31,0.8 -2.6,1.64 -3.88,2.47 -1.49,-2.12 -3.01,-4.22 -4.55,-6.3 4.04,-1.93 7.18,-5.25 9.49,-9.02 z"
     id="path30589"
     inkscape:connector-curvature="0"
     style="fill:#b6784f" />
  <path
     d="m 56.586858,124.86336 c 3.46,-2.25 7.58,-2.93 11.37,-4.38 -1.45,3.72 -3.34,7.68 -7.15,9.47 -4.16,2.37 -10.25,2.85 -12.17,7.93 -1.52,4.97 -0.76,10.52 1.4,15.19 2.91,5.92 8.79,9.41 14.13,12.86 3.2,2.18 7.09,3.86 8.9,7.5 -7.66,-3.96 -15.35,-8.05 -22.13,-13.43 -3.81,-2.93 -7.01,-7.05 -7.44,-11.98 -1.09,-9.53 4.99,-18.61 13.09,-23.16 z"
     id="path30591"
     inkscape:connector-curvature="0"
     style="fill:#efcdb2" />
  <path
     d="m 189.21686,125.97336 c 1.5,0.09 3,0.15 4.51,0.21 4.8,6.21 9.54,12.92 10.88,20.84 0.86,3.52 -0.68,6.95 -1.95,10.17 -1.26,0.23 -2.52,0.46 -3.78,0.68 2.43,-6.78 1.84,-14.28 -0.76,-20.9 -2,-4.38 -6.52,-6.86 -8.9,-11 z"
     id="path30593"
     inkscape:connector-curvature="0"
     style="fill:#f0ceb3" />
  <path
     d="m 111.39686,137.48336 c 2.86,-1.93 6.26,-2.79 9.65,-3.16 5.91,-0.18 12.35,-0.01 17.45,3.38 -4.77,-1.2 -9.52,-2.81 -14.5,-2.62 -4.35,-0.19 -8.44,1.42 -12.6,2.4 z"
     id="path30595"
     inkscape:connector-curvature="0"
     style="fill:#000000" />
  <path
     d="m 180.56686,134.51336 c 4.27,1.93 8.66,3.78 12.48,6.51 2.79,1.96 4.5,5.22 4.39,8.64 -0.97,-2.05 -1.64,-4.28 -2.99,-6.13 -1.95,-2.33 -4.75,-3.7 -7.43,-5 -2.23,-1.2 -4.93,-1.84 -6.45,-4.02 z"
     id="path30597"
     inkscape:connector-curvature="0"
     style="fill:#000000" />
  <path
     d="m 143.67686,136.74336 c 4.74,-0.72 10.63,-2.36 14.41,1.61 -1.57,1.68 -2.96,3.59 -4.86,4.92 -2.39,1.27 -5.14,1.51 -7.74,2.05 -0.2,-2.93 -0.99,-5.77 -1.81,-8.58 z"
     id="path30599"
     inkscape:connector-curvature="0"
     style="fill:#ddac83" />
  <path
     d="m 123.33686,139.63336 c 3.14,-0.16 6.65,-0.06 9.36,1.7 0.06,0.43 0.17,1.29 0.22,1.72 -4.87,2.13 -11.89,2.95 -15.99,-1.02 1.56,-1.86 4.18,-2.05 6.41,-2.4 z"
     id="path30601"
     inkscape:connector-curvature="0"
     style="fill:#e4bd96" />
  <path
     d="m 153.22686,143.27336 c 1.9,-1.33 3.29,-3.24 4.86,-4.92 0.69,3.64 -2.34,5.95 -4.48,8.34 -2.77,2.06 -6.02,3.59 -9.55,2.74 0.52,-1.36 1.02,-2.72 1.43,-4.11 2.6,-0.54 5.35,-0.78 7.74,-2.05 z"
     id="path30603"
     inkscape:connector-curvature="0"
     style="fill:#cc956c" />
  <path
     d="m 187.01686,138.53336 c 2.68,1.3 5.48,2.67 7.43,5 1.35,1.85 2.02,4.08 2.99,6.13 -0.91,1.87 -1.85,3.73 -2.84,5.56 -1.21,-3.55 -2.22,-7.24 -4.31,-10.4 -1.31,-1.98 -2.63,-3.98 -3.27,-6.29 z"
     id="path30605"
     inkscape:connector-curvature="0"
     style="fill:#cb936b" />
  <path
     d="m 57.876858,148.23336 c 2.17,-5.55 8.58,-7.7 14.11,-7.43 3.64,0.24 7.72,0.7 10.42,3.41 -5.16,-1.99 -10.85,-3.5 -16.33,-1.81 -3.45,0.76 -5.64,3.67 -8.2,5.83 z"
     id="path30607"
     inkscape:connector-curvature="0"
     style="fill:#000000" />
  <path
     d="m 71.926858,143.69336 c 2.07,2.69 3.81,5.76 6.9,7.45 8.8,5.64 18.66,9.36 28.510002,12.71 7.33,2.27 14.82,4.81 22.61,4.34 13.1,-0.53 26.05,-3.76 38.08,-8.94 7.52,-3.46 15.32,-7.86 19.43,-15.38 l 0.86,0.29 c -4.37,7.94 -12.6,12.63 -20.61,16.21 -10.74,4.41 -22.09,7.44 -33.67,8.45 -5.04,0.4 -10.16,0.4 -15.09,-0.81 -10,-2.35 -19.700002,-5.87 -29.120002,-9.94 -5.22,-2.49 -10.55,-5.01 -14.9,-8.89 -1.65,-1.39 -2.49,-3.45 -3,-5.49 z"
     id="path30609"
     inkscape:connector-curvature="0"
     style="fill:#000000" />
  <path
     d="m 105.23686,148.83336 c 4.11,2.42 8.93,5.42 13.84,3.99 0.01,0.47 0.04,1.41 0.05,1.88 -4.83,-1 -10.97,-1.21 -13.89,-5.87 z"
     id="path30611"
     inkscape:connector-curvature="0"
     style="fill:#000000" />
  <path
     d="m 89.826858,158.07336 c 9.42,4.07 19.120002,7.59 29.120002,9.94 4.93,1.21 10.05,1.21 15.09,0.81 11.58,-1.01 22.93,-4.04 33.67,-8.45 0.24,0.35 0.71,1.06 0.95,1.41 -3.63,3.86 -8.64,6.1 -13.66,7.53 -9.46,2.55 -19.3,3.38 -29.06,3.5 -10.99,-0.43 -22.44,-2.53 -31.550002,-9.07 -2.06,-1.39 -3.66,-3.35 -4.56,-5.67 z"
     id="path30613"
     inkscape:connector-curvature="0"
     style="fill:#cb946b" />
  <path
     d="m 187.34686,163.63336 c 4.93,-4.04 11.43,-4.86 17.56,-5.33 1.95,13.01 -6.76,24.2 -7.93,36.84 -0.43,6.7 -1.55,13.33 -1.98,20.01 2.31,3.59 6.32,5.97 7.79,10.13 1.82,3.96 0.82,8.39 -0.37,12.37 1.94,0.86 4.79,1.17 5.28,3.68 1.6,7.49 -3.59,14.45 -9.66,18.23 2.9,0.44 6.88,0.27 8.03,3.67 2,5.56 -1.07,11.42 -4.94,15.36 l 0.46,0.83 c 3.19,5.26 -0.62,12.07 -5.56,14.65 -6.54,0.49 -13.57,3.37 -19.74,-0.21 -2.66,-1.8 0.77,-3.61 1.92,-5.17 0,-0.37 0,-1.11 0,-1.48 4.37,-0.79 8.95,-1.46 12.76,-3.89 -9.41,2.13 -19.29,5.76 -28.96,3.49 l -0.51,-0.47 c -5.47,-4.64 -13.95,-5.17 -18.1,-11.54 -1.13,-2.06 -1.24,-6.04 1.55,-6.72 4.36,0.06 8.68,0.92 13.05,0.58 8.69,0.94 17.41,-0.18 26.03,-1.33 2.85,-0.6 5.98,-0.56 8.49,-2.2 -6.96,0.75 -13.87,2.66 -20.91,2.34 -9.45,-2.42 -20.24,-2.32 -28.06,-8.96 -3.68,-2.93 -4.89,-9.51 -0.84,-12.61 5.33,-2.05 10.86,0.92 16.24,1.32 4.02,0.63 7.96,-0.63 11.56,-2.33 5.6,-1.58 12.07,-0.45 17.16,-3.51 -6.84,1 -13.77,2.69 -20.69,2.23 -4.92,-1.82 -10.17,-2.17 -15.3,-3.04 -3.14,-0.52 -6.87,-2 -7.52,-5.51 -0.86,-4.6 1.37,-8.99 2.99,-13.16 9.41,-4.29 19.91,-5.53 30.16,-5.66 4.11,-0.21 8.62,-0.46 11.91,-3.24 l -0.77,-0.62 c -6.59,-4.22 -8.86,-13.3 -6.46,-20.49 0.76,0.06 2.28,0.17 3.04,0.22 -1.58,-1.08 -3.7,-1.68 -4.55,-3.54 -2.49,-8.65 -0.39,-19.14 6.87,-24.94 z"
     id="path30615"
     inkscape:connector-curvature="0"
     style="fill:#ddac83" />
  <path
     d="m 204.90686,158.30336 c 1,1.41 2.07,2.95 1.96,4.78 -0.43,9.9 -4.63,19.17 -5.38,29.03 -1.06,6.99 -3.37,13.92 -2.71,21.08 4.76,2.49 9.51,6.38 10.39,12.01 1.02,3.83 -0.51,7.67 -2.22,11.05 6.58,5.45 7.45,17.12 0.19,22.37 3.12,2.93 3.65,7.61 2.02,11.45 -1.22,3.99 -4.2,7.05 -7.57,9.35 l -0.46,-0.83 c 3.87,-3.94 6.94,-9.8 4.94,-15.36 -1.15,-3.4 -5.13,-3.23 -8.03,-3.67 6.07,-3.78 11.26,-10.74 9.66,-18.23 -0.49,-2.51 -3.34,-2.82 -5.28,-3.68 1.19,-3.98 2.19,-8.41 0.37,-12.37 -1.47,-4.16 -5.48,-6.54 -7.79,-10.13 0.43,-6.68 1.55,-13.31 1.98,-20.01 1.17,-12.64 9.88,-23.83 7.93,-36.84 z"
     id="path30617"
     inkscape:connector-curvature="0"
     style="fill:#efceb3" />
  <path
     d="m 20.976858,181.26336 c 12.12,-6.59 25.39,-11.2 39.06,-13.15 3.71,1.63 7.09,3.93 10.68,5.82 -1.03,0.96 -2.06,2.13 -3.62,1.97 -11.44,0.57 -23.04,0.38 -34.27,2.98 -3.65,0.96 -7.61,1.94 -10.24,4.85 -2.26,2.51 -4.68,4.87 -7.52,6.73 0.09,0.81 0.18,1.63 0.27,2.46 -4.67,5.58 -5.27,13.28 -4.44,20.23 0.48,4.11 2.6,7.87 2.8,12.02 -0.3,3.47 -1.44,6.81 -1.85,10.28 -5.9900002,-3.25 -7.9200002,-10.9 -7.9300002,-17.27 0.11,-9.7 2.2,-19.59 6.8200002,-28.17 2.1,-4.19 6.33,-6.52 10.24,-8.75 z"
     id="path30619"
     inkscape:connector-curvature="0"
     style="fill:#f3f6ff" />
  <path
     d="m 160.15686,184.33336 c 7.95,-3.81 12.47,-12.42 20.98,-15.33 -0.43,1.37 -0.89,2.72 -1.3,4.08 -2.76,1.78 -6.02,3.06 -8.02,5.78 -3.67,4.99 -7.77,9.7 -12.63,13.57 -4.7,4.02 -11.06,4.9 -16.87,6.3 -10.65,2.07 -21.51,3.56 -32.38,3.25 -4.45,-0.47 -9.53,-0.5 -12.990002,-3.78 -3.96,-3.77 -7.1,-8.28 -10.39,-12.62 4.52,1.86 7.39,6.08 11.65,8.36 7.120002,4.3 15.770002,4.86 23.860002,3.94 13.52,-1.69 25.95,-7.71 38.09,-13.55 z"
     id="path30621"
     inkscape:connector-curvature="0"
     style="fill:#f0ceb3" />
  <path
     d="m 74.106858,173.92336 c 0.03,-0.03 0.09,-0.09 0.12,-0.12 l 0.08,0.08 -0.2,0.04 z"
     id="path30623"
     inkscape:connector-curvature="0"
     style="fill:#ffe1bc" />
  <path
     d="m 70.716858,173.93336 c 3.24,1.53 5.73,4.14 8.27,6.61 -2.64,10.48 -4.71,21.08 -6.78,31.69 -2.43,-3.71 -3.28,-8.09 -3.9,-12.4 -3.18,5.47 -2.79,13.34 -8.75,16.86 -4.66,2.34 -10.07,3.65 -15.28,3.04 -6.79,-2.02 -9.8,-9.07 -13.72,-14.32 -1.46,-3.42 0.75,-7.84 -2.23,-10.6 0.86,7.23 0.61,14.79 4.2,21.4 -2.62,-0.64 -5.25,-1.26 -7.81,-2.1 -0.84,-0.75 -1.61,-1.55 -2.46,-2.28 2.42,6.72 9.51,10.01 15.26,13.45 -3.1,3.54 -7.62,5.04 -12.21,5.28 -0.26,0.03 -0.77,0.1 -1.03,0.14 0.2,0.34 0.61,1.03 0.81,1.38 1.94,0.79 4,1.06 6.08,0.9 -0.93,0.66 -1.84,1.36 -2.74,2.06 -4.96,3.25 -11.29,2.41 -16.62,0.66 l 0.04,-0.25 c 0.41,-3.47 1.55,-6.81 1.85,-10.28 -0.2,-4.15 -2.32,-7.91 -2.8,-12.02 -0.83,-6.95 -0.23,-14.65 4.44,-20.23 -0.09,-0.83 -0.18,-1.65 -0.27,-2.46 2.84,-1.86 5.26,-4.22 7.52,-6.73 2.63,-2.91 6.59,-3.89 10.24,-4.85 11.23,-2.6 22.83,-2.41 34.27,-2.98 1.56,0.16 2.59,-1.01 3.62,-1.97 z"
     id="path30625"
     inkscape:connector-curvature="0"
     style="fill:#cce4ff" />
  <path
     d="m 174.88686,178.39336 c 0.33,-1.51 2.43,-2.85 3.93,-2.71 0.27,1.8 -2.39,2.99 -3.93,2.71 z"
     id="path30627"
     inkscape:connector-curvature="0"
     style="fill:#00469b" />
  <path
     d="m 113.85686,178.81336 c 10.53,-2.23 21.33,-2.93 32.08,-2.38 l -0.05,0.67 c -13.12,-0.09 -26.75,0.05 -39.08,5.07 1.86,-1.96 4.5,-2.75 7.05,-3.36 z"
     id="path30629"
     inkscape:connector-curvature="0"
     style="fill:#000000" />
  <path
     d="m 174.88686,178.39336 c -0.36,3.35 -3.06,-1.21 0,0 z"
     id="path30631"
     inkscape:connector-curvature="0"
     style="fill:#0060b6" />
  <path
     d="m 170.74686,183.99336 c 2,-2.53 4.75,-4.27 7.52,-5.82 -0.02,2.9 0.19,5.81 0.7,8.67 -6.45,7.66 -8.42,18.7 -5.95,28.28 -3.36,0.21 -6.67,0.78 -10.01,1.15 -1.84,-11.16 0.36,-23.46 7.74,-32.28 z"
     id="path30633"
     inkscape:connector-curvature="0"
     style="fill:#cce4ff" />
  <path
     d="m 205.14686,178.91336 c 6.04,5.07 8.63,12.86 10.74,20.19 1.15,7.09 1.92,14.23 2.64,21.37 -1.11,-0.8 -2.22,-1.61 -3.32,-2.41 l 0,-0.07 c 0.63,-5.2 -1.9,-9.94 -3.48,-14.72 -2.12,-6.16 -3.58,-12.85 -8.18,-17.74 0.44,-2.23 0.97,-4.44 1.6,-6.62 z"
     id="path30635"
     inkscape:connector-curvature="0"
     style="fill:#f3f6fe" />
  <path
     d="m 79.626858,181.09336 c 2.16,1.77 4.22,3.66 6.1,5.73 -0.66,0.09 -1.99,0.27 -2.65,0.37 -3.48,13.2 -5.15,26.82 -9.11,39.91 -1.29,4.94 -1.33,10.11 -2.76,15.03 -1.97,-1 -3.92,-2.05 -5.85,-3.13 -0.01,-2.45 -0.08,-4.89 -0.14,-7.34 5.49,-3.52 6.01,-10.68 7.53,-16.44 2.03,-11.43 4.72,-22.74 6.88,-34.13 z"
     id="path30637"
     inkscape:connector-curvature="0"
     style="fill:#014696" />
  <path
     d="m 122.28686,183.66336 c 5.03,-1.63 10.51,-1.7 15.62,-0.35 -0.24,2.27 -0.6,4.83 -2.76,6.12 -4.47,3.07 -12.11,4.31 -15.48,-0.97 -1.68,-1.94 0.85,-4.15 2.62,-4.8 z"
     id="path30639"
     inkscape:connector-curvature="0"
     style="fill:#cc956c" />
  <path
     d="m 203.54686,185.53336 c 4.6,4.89 6.06,11.58 8.18,17.74 1.58,4.78 4.11,9.52 3.48,14.72 -3.11,-1.26 -6,-3.61 -9.44,-3.67 l 0.06,-0.28 0.11,-0.52 -0.58,0.02 c -1.9,-0.46 -3.76,-1.01 -5.64,-1.52 0.03,-5.03 0.68,-10.03 2,-14.88 1.08,-3.79 0.91,-7.79 1.83,-11.61 z"
     id="path30641"
     inkscape:connector-curvature="0"
     style="fill:#cce4ff" />
  <path
     d="m 83.076858,187.19336 c 0.66,-0.1 1.99,-0.28 2.65,-0.37 2.12,2.8 4.58,5.37 6.37,8.41 -0.07,6.59 -1.85,13.5 0.91,19.81 10.690002,3.06 21.810002,4.62 32.930002,4.74 6.89,-0.38 14.21,-0.81 20.31,-4.35 1.84,-2.89 1.76,-6.58 2.27,-9.9 2.1,-1.07 4.19,-2.15 6.28,-3.25 -0.99,5.35 -1.69,10.75 -1.74,16.19 -5.92,2.05 -12.5,4.38 -15.56,10.33 -11.03,-2.88 -22.36,-4.53 -33.61,-6.33 -4.330002,-0.61 -8.680002,-1.31 -13.070002,-1.3 -0.35,0.31 -1.04,0.91 -1.39,1.22 -1.7,0.29 -3.47,0.38 -5.09,1.04 -4.46,2.55 -5.2,8.16 -8.02,12.08 -1.94,2.49 -2.17,5.58 -1.33,8.53 -1.26,-0.64 -2.51,-1.28 -3.78,-1.91 1.43,-4.92 1.47,-10.09 2.76,-15.03 3.96,-13.09 5.63,-26.71 9.11,-39.91 z"
     id="path30643"
     inkscape:connector-curvature="0"
     style="fill:#0060b6" />
  <path
     d="m 149.49686,198.30336 c 7.22,-1.3 12.47,-6.52 17.51,-11.4 -4.69,8.93 -7.34,19.38 -5.15,29.42 -2.93,0.75 -5.86,1.46 -8.8,2.15 0.05,-5.44 0.75,-10.84 1.74,-16.19 -2.09,1.1 -4.18,2.18 -6.28,3.25 -0.07,-2.45 0.12,-4.92 0.98,-7.23 z"
     id="path30645"
     inkscape:connector-curvature="0"
     style="fill:#014697" />
  <path
     d="m 174.04686,215.48336 c -2.19,-9.18 -0.92,-19.86 5.28,-27.26 0.79,1.22 1.7,2.34 2.75,3.36 l -0.09,0.31 c -2.4,7.19 -0.13,16.27 6.46,20.49 -3.95,3.37 -9.56,2.81 -14.4,3.1 z"
     id="path30647"
     inkscape:connector-curvature="0"
     style="fill:#cc956c" />
  <path
     d="m 93.976858,214.11336 c -1.84,-5.63 -1.03,-11.73 -0.48,-17.51 1.86,1.88 3.79,3.75 6.15,5.01 l 0.16,0.22 c 1.790002,2.34 3.460002,4.91 5.950002,6.59 2.72,1.75 6.08,1.79 9.2,1.94 10.86,0.24 21.74,-1.33 32.16,-4.36 -0.82,3.42 0.03,8.97 -4.46,9.88 -15.79,5.17 -32.96,2.33 -48.680002,-1.77 z"
     id="path30649"
     inkscape:connector-curvature="0"
     style="fill:#cce4ff" />
  <path
     d="m 99.806858,201.83336 c 16.110002,3.26 32.690002,0.23 48.540002,-3.14 -0.54,2.41 -0.97,4.85 -1.23,7.31 -10.42,3.03 -21.3,4.6 -32.16,4.36 -3.12,-0.15 -6.48,-0.19 -9.2,-1.94 -2.49,-1.68 -4.16,-4.25 -5.950002,-6.59 z"
     id="path30651"
     inkscape:connector-curvature="0"
     style="fill:#8db4eb" />
  <path
     d="m 59.556858,216.69336 c 5.96,-3.52 5.57,-11.39 8.75,-16.86 0.62,4.31 1.47,8.69 3.9,12.4 -1.25,6.02 -2.02,12.6 -6.01,17.55 -2.86,-1.42 -7.2,-0.83 -8.47,-4.39 2.51,-0.25 5.06,-0.23 7.53,-0.83 -7.44,-2.26 -14.89,2.42 -22.28,0.49 -7.12,-3.85 -11.96,-11.56 -12.42,-19.64 3.92,5.25 6.93,12.3 13.72,14.32 5.21,0.61 10.62,-0.7 15.28,-3.04 z"
     id="path30653"
     inkscape:connector-curvature="0"
     style="fill:#8db4eb" />
  <path
     d="m 205.35686,213.54336 0.58,-0.02 -0.11,0.52 c -0.06,0.28 -0.19,0.84 -0.25,1.12 4.36,1 8.44,3.2 11.94,5.96 0.36,-0.13 1.07,-0.4 1.43,-0.53 l 0.01,1.24 c 5.45,1.09 7.4,6.79 8.89,11.43 1.86,5.81 3.83,11.84 3.01,18.02 -0.85,4.23 -3.44,7.83 -4.6,11.96 -0.86,3.09 -1.58,6.23 -2.93,9.16 l -0.26,-1.1 c 0.48,-8.44 3.74,-16.6 2.93,-25.17 0.04,-10.32 -6.48,-20.63 -16.39,-24 l -0.14,-0.06 c -1.67,-2.92 -3.53,-6.02 -6.78,-7.39 0.89,-0.38 1.78,-0.76 2.67,-1.14 z"
     id="path30655"
     inkscape:connector-curvature="0"
     style="fill:#f3f6fe" />
  <path
     d="m 24.716858,214.11336 c 2.56,0.84 5.19,1.46 7.81,2.1 l 0.17,0.04 c 1.9,3.57 5.08,6.14 7.85,8.99 -5.92,-2.56 -11.97,-5.78 -15.83,-11.13 z"
     id="path30657"
     inkscape:connector-curvature="0"
     style="fill:#94bdf2" />
  <path
     d="m 90.816858,221.17336 c 4.39,-0.01 8.74,0.69 13.070002,1.3 11.25,1.8 22.58,3.45 33.61,6.33 l 0.57,1.4 c -2.16,0.17 -4.33,0.31 -6.49,0.1 -8.73,-2.66 -19.03,1.99 -26.86,-3.97 -0.94,2.65 -3.99,2.28 -6.250002,2.54 -2.91,-0.26 -5.83,-1.22 -7.89,-3.39 0,-1.44 0.08,-2.88 0.24,-4.31 z"
     id="path30659"
     inkscape:connector-curvature="0"
     style="fill:#014697" />
  <path
     d="m 138.96686,229.05336 c 1,-3.82 4.89,-5.67 8.18,-7.15 -1.62,4.17 -3.85,8.56 -2.99,13.16 0.65,3.51 4.38,4.99 7.52,5.51 5.13,0.87 10.38,1.22 15.3,3.04 l 0.7,0.22 c -4.53,0.5 -9.19,0.83 -13.67,-0.2 -4.32,-1.25 -8.89,-1.57 -13.02,-3.47 -1.13,-3.6 -2.18,-7.31 -2.02,-11.11 z"
     id="path30661"
     inkscape:connector-curvature="0"
     style="fill:#cc956c" />
  <path
     d="m 209.60686,222.13336 c 9.91,3.37 16.43,13.68 16.39,24 0.81,8.57 -2.45,16.73 -2.93,25.17 -0.02,0.42 -0.06,1.26 -0.08,1.67 -4.38,6.58 -11.75,10.28 -19.12,12.45 -0.02,-2 -0.22,-4 -0.75,-5.93 5.64,-4.07 11.4,-8.39 14.52,-14.81 5.7,-9.83 3.77,-22.24 -1.49,-31.81 -1.82,-3.9 -6.78,-5.92 -6.54,-10.74 z"
     id="path30663"
     inkscape:connector-curvature="0"
     style="fill:#cce4ff" />
  <path
     d="m 85.426858,226.67336 c 0.45,-1.77 2.35,-2.23 3.79,-2.9 -0.56,4.36 -2.22,8.52 -2.69,12.89 1.19,2.78 4.4,4.12 6.66,6 2.72,-0.66 5.78,-0.53 8.220002,-2 1.76,-4.08 2.13,-8.6 3.43,-12.83 0.52,0.55 1.57,1.66 2.09,2.22 -0.08,5.36 -0.22,10.72 0.1,16.08 -4.61,3.12 -10.530002,4.25 -16.000002,3.94 -4.79,-2.47 -9.64,-5.74 -11.96,-10.8 2.39,-4.06 4.8,-8.13 6.36,-12.6 z"
     id="path30665"
     inkscape:connector-curvature="0"
     style="fill:#b2b2b2" />
  <path
     d="m 37.516858,225.28336 c 2.01,0.47 4.04,0.82 6.08,1.14 -4.49,2.01 -8.84,4.59 -13.76,5.42 -1.69,0.57 -3.13,-0.5 -4.53,-1.28 4.59,-0.24 9.11,-1.74 12.21,-5.28 z"
     id="path30667"
     inkscape:connector-curvature="0"
     style="fill:#92bbef" />
  <path
     d="m 78.816858,233.13336 c 1.98,-3.44 2.9,-7.93 7.08,-9.47 -2.55,5.24 -4.85,10.61 -7.96,15.56 2.55,5.52 7.72,9.52 13.15,11.96 4.34,0.36 8.68,-0.74 12.780002,-2.07 1.64,-0.76 4.3,-1.54 4.06,-3.82 0.15,-5.14 -0.31,-10.29 0.23,-15.42 2.86,5.82 1.77,12.6 1.67,18.84 -3.96,5.59 -11.580002,6.33 -17.890002,6.52 -3.31,0.37 -5.88,-2.06 -8.47,-3.7 -3.82,-2.71 -7.89,-6.34 -8.03,-11.39 0.6,-2.56 2.18,-4.72 3.38,-7.01 z"
     id="path30669"
     inkscape:connector-curvature="0"
     style="fill:#838383" />
  <path
     d="m 90.106858,225.07336 0.47,0.41 c 2.06,2.17 4.98,3.13 7.89,3.39 1.610002,0.17 3.220002,0.3 4.840002,0.4 -0.72,3.64 -1.66,7.24 -2.53,10.85 -2.560002,0.57 -5.170002,1.37 -7.820002,1.11 -1.9,-1.36 -4.32,-2.6 -5.33,-4.76 0.48,-3.87 1.72,-7.59 2.48,-11.4 z"
     id="path30671"
     inkscape:connector-curvature="0"
     style="fill:#0060b6" />
  <path
     d="m 43.606858,227.17336 c 1.82,0.11 4.03,-0.55 5.42,0.99 3.66,3.61 8.04,8.04 7.06,13.68 -4.31,4.54 -9.84,7.75 -15.6,10.11 2.09,-2.41 4.6,-4.64 5.8,-7.65 0.85,-2.23 -0.36,-4.92 -2.6,-5.77 -9.32,-3.38 -19.31,5.36 -28.25,-0.31 4.32,-0.33 10.53,1.58 12.99,-3.18 0.9,-0.7 1.81,-1.4 2.74,-2.06 4.17,-1.84 8.7,-3.07 12.44,-5.81 z"
     id="path30675"
     inkscape:connector-curvature="0"
     style="fill:#8db4eb" />
  <path
     d="m 160.75686,238.67336 c -1.95,-3.57 -2.41,-9.12 0.93,-12.02 -1.94,3.79 -1.4,7.96 -0.93,12.02 z"
     id="path30677"
     inkscape:connector-curvature="0"
     style="fill:#000000" />
  <path
     d="m 210.83686,227.81336 c 7.07,7.03 9.92,17.62 8.99,27.38 -1.31,6.74 -4.65,13.41 -10.14,17.7 1.33,-4.68 2.31,-9.99 -0.8,-14.2 6.45,-6.01 5.47,-16.91 -0.62,-22.82 1.4,-2.49 2.12,-5.26 2.57,-8.06 z"
     id="path30679"
     inkscape:connector-curvature="0"
     style="fill:#d3986e" />
  <path
     d="m 3.3268578,244.67336 c -2.40000002,-4.86 -0.92,-10.83 2.41,-14.87 0.42,0.99 0.82,1.98 1.22,2.98 -3.3,6.49 -1.57,14.85 3.4200002,19.97 3.36,3.56 8.59,3.64 13.1,4.27 -4.18,0.16 -8.81,1.53 -12.67,-0.7 -3.9200002,-2.76 -5.4100002,-7.56 -7.4800002,-11.65 z"
     id="path30681"
     inkscape:connector-curvature="0"
     style="fill:#fbfeff" />
  <path
     d="m 109.37686,230.05601 c 7.35,1.23 14.81,0.29 22.2,0.8 2.16,0.21 4.33,0.07 6.49,-0.1 -0.12,3.44 0.8,6.76 1.9,9.98 -3.34,3.34 -4.77,7.93 -4.43,12.6 -6.57,0.29 -13.14,0.18 -19.71,0.12 l -0.22,-0.2 c -0.72,-0.65 -1.59,-1.01 -2.62,-1.06 0.77,-5.86 1.03,-11.77 1.34,-17.67 0.16,-1.35 -0.23,-2.65 -1.01,-3.74 -0.3,7.38 -1.14,14.74 -1.4,22.12 -0.88,-0.04 -2.65,-0.13 -3.53,-0.18 1.06,-1.52 2.81,-2.91 2.66,-4.96 -0.26,-5.91 0.68,-12.09 -1.67,-17.71 z"
     id="path30683"
     inkscape:connector-curvature="0"
     style="fill:#0060b6" />
  <path
     d="m 113.31686,230.23336 c 0.78,1.09 1.17,2.39 1.01,3.74 -0.31,5.9 -0.57,11.81 -1.34,17.67 1.03,0.05 1.9,0.41 2.62,1.06 -0.04,0.2 -0.14,0.59 -0.18,0.79 -0.89,0.1 -2.65,0.32 -3.54,0.43 0.01,-0.39 0.02,-1.18 0.03,-1.57 0.26,-7.38 1.1,-14.74 1.4,-22.12 z"
     id="path30685"
     inkscape:connector-curvature="0"
     style="fill:#021d67" />
  <path
     d="m 6.9568578,232.78336 c 2.2,2.7 5.2900002,4.22 8.4800002,5.44 8.94,5.67 18.93,-3.07 28.25,0.31 2.24,0.85 3.45,3.54 2.6,5.77 -1.2,3.01 -3.71,5.24 -5.8,7.65 -4.89,3.63 -11.13,4.37 -17.01,5.07 -4.51,-0.63 -9.74,-0.71 -13.1,-4.27 -4.9900002,-5.12 -6.7200002,-13.48 -3.4200002,-19.97 z"
     id="path30687"
     inkscape:connector-curvature="0"
     style="fill:#cce4ff" />
  <path
     d="m 136.72686,252.11336 c -0.61,-4.2 1.11,-8.32 4.03,-11.29 3.74,2.06 8.07,2.19 12.09,3.37 5.76,1.63 11.78,0.49 17.66,0.7 -3.6,1.7 -7.54,2.96 -11.56,2.33 -5.38,-0.4 -10.91,-3.37 -16.24,-1.32 -4.05,3.1 -2.84,9.68 0.84,12.61 7.82,6.64 18.61,6.54 28.06,8.96 -9.68,2.65 -19.42,-1.46 -27.73,-6.15 -3.4,-2.01 -7.01,-4.92 -7.15,-9.21 z"
     id="path30689"
     inkscape:connector-curvature="0"
     style="fill:#cb946b" />
  <path
     d="m 54.696858,244.89336 c 1.52,1.13 2.84,2.49 4.09,3.92 -1.13,1.68 -2.35,3.3 -3.65,4.86 0.36,0.35 1.07,1.07 1.43,1.42 -0.94,2.93 -2.41,5.86 -5.14,7.49 -2.85,1.78 -2.77,5.56 -3.76,8.43 -2.51,8.71 -3.05,17.82 -2.63,26.83 -5.42,-0.21 -11.17,2.13 -16.28,-0.49 -2.64,-1.42 -2.58,-4.71 -3.21,-7.24 3.93,-2.2 6.06,-6.58 10.04,-8.57 l 0.58,-0.07 c -2.3,-2.31 -4.54,-4.85 -5.49,-8.03 -1.78,-5.32 -0.75,-10.98 0.25,-16.34 2.63,-0.56 5.27,-1.25 7.65,-2.56 5.53,-2.93 11.4,-5.45 16.12,-9.65 z"
     id="path30691"
     inkscape:connector-curvature="0"
     style="fill:#ce9c77" />
  <path
     d="m 61.586858,253.77336 c 4.78,-3.14 10.82,-3.13 16.34,-3.3 2.23,-0.23 4.02,1.07 5.66,2.39 -0.7,2.78 -1.35,5.58 -1.82,8.41 l -0.28,-0.1 c -7.22,-2.49 -15.36,-4.36 -22.87,-2.18 -0.4,0.22 -1.18,0.67 -1.57,0.89 5.96,6.53 15.52,3.4 23.23,4.8 0.03,1.49 0.02,2.98 0,4.48 -0.31,2.81 -1.82,5.3 -2.31,8.07 -3.24,-2.45 -6.45,-4.93 -9.43,-7.69 -2.44,-2.55 -6.09,-2.97 -9.22,-4.2 -3.57,2.1 -7.08,4.32 -10.36,6.86 2.94,-6.86 6.69,-13.71 12.63,-18.43 z"
     id="path30693"
     inkscape:connector-curvature="0"
     style="fill:#d49758" />
  <path
     d="m 157.99686,252.49336 c 1.86,2.84 1.3,6.52 2.4,9.67 -0.33,0 -0.98,0.01 -1.31,0.02 -0.72,-3.18 -1.32,-6.42 -1.09,-9.69 z"
     id="path30695"
     inkscape:connector-curvature="0"
     style="fill:#652900" />
  <path
     d="m 84.216858,253.51336 c 3.4,2.53 7.47,3.29 11.62,2.56 0.17,0.39 0.51,1.16 0.68,1.55 l -0.03,0.07 -0.03,0.08 -1.9,-0.13 0.74,2.58 c -0.42,0.05 -1.28,0.13 -1.71,0.17 l 0.7,-3.61 c -1.16,1.77 -2.56,3.95 -2.13,6.16 0.27,-0.41 0.82,-1.24 1.09,-1.65 0.35,0.32 0.7,0.65 1.04,0.99 -0.61,1.33 -1.18,2.67 -1.72,4.03 -0.2,-0.28 -0.6,-0.83 -0.8,-1.11 l -0.47,0.18 -0.48,0.53 c -2.45,0.41 -4.75,-0.75 -7.08,-1.28 l 0.78,-2.18 c -0.89,0.57 -1.77,1.17 -2.64,1.79 0.88,-2.44 1.07,-5.07 2.14,-7.44 0.05,2.04 -0.47,4.3 0.78,6.12 0.15,-2.24 0.38,-4.44 0.84,-6.63 -0.46,0.11 -1.37,0.34 -1.83,0.45 0.1,-0.81 0.3,-2.42 0.41,-3.23 z"
     id="path30697"
     inkscape:connector-curvature="0"
     style="fill:#b2b2b2" />
  <path
     d="m 97.716858,255.75336 c 5.330002,-1.46 10.820002,1.95 14.440002,5.65 -7.4,5.99 -7.47,16.24 -9.29,24.8 -1.76,7.48 -2.46,15.61 -6.760002,22.16 -3.84,2.63 -8.92,1.77 -13.32,1.62 -8.62,-1.09 -17.26,-2.39 -25.64,-4.73 1.31,-1.4 2.63,-2.79 3.92,-4.2 1.03,-0.13 2.06,-0.26 3.1,-0.38 2.01,0.89 4.04,1.78 6.06,2.67 0.03,0.43 0.1,1.3 0.14,1.73 6.93,-0.06 13.75,1.42 20.64,2.07 3.3,0.22 5.09,-3.2 5.66,-5.98 0.75,-5.01 0.46,-10.13 -0.35,-15.11 -0.89,-5.32 0.82,-10.59 2.13,-15.69 -1.15,-0.07 -2.29,-0.13 -3.43,-0.19 l -0.04,1.03 -0.45,-0.27 c -3.72,-2.95 -8.63,-1.71 -12.96,-1.4 0.15,-1.35 0.27,-2.7 0.35,-4.05 -0.58,1.21 -1.11,2.44 -1.64,3.68 0.02,-1.5 0.03,-2.99 0,-4.48 6.11,1.74 12.63,4.16 18.93,1.79 2.810002,-0.94 3.980002,-3.78 4.950002,-6.32 -0.45,0.38 -1.33,1.14 -1.78,1.52 -1.54,-1.99 -3.050002,-3.99 -4.660002,-5.92 z"
     id="path30699"
     inkscape:connector-curvature="0"
     style="fill:#bb743c" />
  <path
     d="m 96.516858,257.62336 c 0.3,-0.47 0.9,-1.4 1.2,-1.87 1.61,1.93 3.120002,3.93 4.660002,5.92 -1.45,3.45 -5.120002,4.66 -8.610002,4.64 0.95,-2.83 1.83,-5.68 2.69,-8.54 l 0.03,-0.08 0.03,-0.07 z"
     id="path30701"
     inkscape:connector-curvature="0"
     style="fill:#d49657" />
  <path
     d="m 26.146858,257.86336 c 1.59,-0.29 3.18,-0.56 4.78,-0.76 -1,5.36 -2.03,11.02 -0.25,16.34 0.95,3.18 3.19,5.72 5.49,8.03 l -0.58,0.07 c -1.75,-0.24 -3.04,0.77 -4.14,2 -4,-2.06 -8.4,-4.74 -9.51,-9.46 -1.87,-5.8 2.05,-11.12 4.21,-16.22 z"
     id="path30703"
     inkscape:connector-curvature="0"
     style="fill:#b7815d" />
  <path
     d="m 58.616858,258.99336 c 7.51,-2.18 15.65,-0.31 22.87,2.18 0.05,0.65 0.16,1.95 0.21,2.59 -6.75,-1.37 -13.9,0.57 -20.42,-1.95 -1.43,-0.32 -2.09,-1.62 -2.66,-2.82 z"
     id="path30705"
     inkscape:connector-curvature="0"
     style="fill:#bb743c" />
  <path
     d="m 141.23686,260.81336 c 5.47,3.22 11.28,5.79 17.28,7.84 l -0.52,0.01 c -4.37,0.34 -8.69,-0.52 -13.05,-0.58 -2.79,0.68 -2.68,4.66 -1.55,6.72 4.15,6.37 12.63,6.9 18.1,11.54 l -0.46,0.11 c -4.69,-0.65 -9.09,-2.72 -13.11,-5.15 -3.73,-2.73 -8.32,-5.4 -9.39,-10.28 -1.15,-3.63 0.89,-7.19 2.7,-10.21 z"
     id="path30707"
     inkscape:connector-curvature="0"
     style="fill:#cb946b" />
  <path
     d="m 112.52686,262.41336 c 3.93,-0.32 8.07,-0.85 11.87,0.51 -3.92,0.17 -8.13,1.01 -11.87,-0.51 z"
     id="path30709"
     inkscape:connector-curvature="0"
     style="fill:#020051" />
  <path
     d="m 50.256858,265.36336 c 0.49,0.54 0.49,0.54 0,0 z"
     id="path30711"
     inkscape:connector-curvature="0"
     style="fill:#00296f" />
  <path
     d="m 105.51686,277.31336 c 0.86,-4.6 2.25,-9.21 5.16,-12.94 9.1,0.89 18.28,0.89 27.39,0.09 -0.29,0.93 -0.86,2.8 -1.15,3.73 -7.36,0.53 -14.74,0.25 -22.1,0 -4.09,5.84 -4.99,13.02 -6.18,19.86 -1.62,8.3 -2.97,16.8 -6.77,24.44 6.16,7.48 13.04,15.44 22.79,18.01 11.01,2.72 22.45,1.02 33.54,-0.3 -1.17,0.75 -2.32,1.53 -3.54,2.21 -3.98,-0.42 -7.73,1.31 -11.65,1.56 -3.37,0.23 -6.75,0.21 -10.11,0.58 -4.51,0.79 -8.84,-1.12 -13.07,-2.4 -3.92,-1.55 -8.25,-2.81 -11.19,-6.01 -2.02,-2.16 -4.32,-4.04 -6.99,-5.32 -0.41,-2.28 -0.9,-4.54 -1.39,-6.81 -14.210002,2.36 -28.240002,-2.24 -42.050002,-4.84 -1.16,-0.35 -2.32,-0.69 -3.48,-1.03 1.06,0.87 2.12,1.77 3.23,2.59 -2.26,4.96 -5.09,9.86 -5.71,15.37 -0.61,5.06 1.73,9.74 3.34,14.38 1.88,5.23 1.46,11.34 5.21,15.8 -3.03,-1.06 -4.97,-3.64 -6.75,-6.15 -3.16,-4.26 -7.38,-7.89 -9.3,-12.95 -1.34,-5.33 0.91,-10.66 2.66,-15.62 2.26,-5.39 3.99,-11.37 8.67,-15.23 7.18,2.24 14.66,3.31 22.07,4.49 5.43,0.56 11.07,1.36 16.43,-0.09 2.99,-0.95 4.05,-4.2 5.09,-6.83 2.870002,-8.63 4.210002,-17.67 5.850002,-26.59 z"
     id="path30713"
     inkscape:connector-curvature="0"
     style="fill:#024697" />
  <path
     d="m 46.736858,277.74336 c 1.91,-5.4 7.38,-7.89 11.88,-10.75 5.39,5.97 12.32,10.17 18.92,14.64 2.44,1.17 2.02,4.18 2.77,6.36 1.01,4.46 3.88,8.13 5.76,12.21 -1.29,1.62 -2.96,2.87 -4.56,4.16 -10.56,-10.05 -21.5,-20.27 -34.77,-26.62 z"
     id="path30715"
     inkscape:connector-curvature="0"
     style="fill:#666666" />
  <path
     d="m 60.446858,266.99336 c 2.32,0.74 4.89,1.22 6.71,2.97 5,4.38 10.35,8.34 15.57,12.44 0.94,6.3 2.75,12.45 5.94,18 -4.49,-4.52 -7.8,-10.91 -7.59,-17.4 -6.7,-5.56 -14.93,-9.27 -20.63,-16.01 z"
     id="path30717"
     inkscape:connector-curvature="0"
     style="fill:#838383" />
  <path
     d="m 114.81686,268.19336 c 7.36,0.25 14.74,0.53 22.1,0 0.36,5.29 3.86,9.52 8.15,12.31 -0.44,2.05 -0.77,4.32 0.54,6.15 3.91,5.92 10.28,9.49 16.3,12.91 l 0.21,0.53 c 0.16,3.62 -0.46,7.74 2.04,10.77 2.32,2.65 5.66,4.15 8.92,5.29 5.7,1.95 11.78,0.72 17.58,0.05 -6.98,5.72 -16.12,7.84 -22.87,13.93 2.67,-0.38 5.35,-0.68 8.01,-1.12 4.83,3.56 3.75,9.86 4.49,15.07 0.78,6.11 1.56,12.21 2.17,18.33 -4.18,1.98 -8.58,3.48 -13.14,4.31 5.4,1.17 10.95,0.78 16.42,1.18 3.48,0.24 4.27,4.45 4.23,7.26 0.3,5.03 -2.23,9.56 -5.02,13.54 -4.97,0.8 -9.24,3.47 -13.62,5.71 -10.42,0.4 -21.07,2.17 -31.34,-0.47 -2.98,-0.84 -6.55,-2.1 -7.55,-5.38 -1.46,-4.81 -0.32,-9.91 1.61,-14.41 3.39,-0.06 6.78,-0.24 10.17,-0.19 5.61,1.65 11.37,3.68 17.3,2.7 6.94,-1.18 15.58,-1.25 20.1,-7.54 -4.4,2.51 -9.17,4.34 -14.18,5.16 -6.29,-1.23 -12.42,-3.14 -18.54,-5.01 -3,-1 -6.31,-2.16 -8.06,-4.99 -2.56,-4.15 -3.12,-9.1 -3.72,-13.83 0.91,0.2 1.83,0.42 2.74,0.64 0.32,0.27 0.96,0.82 1.27,1.09 1.52,1.38 3.52,1.94 5.43,2.56 -2.73,-5.62 -6.98,-10.63 -7.54,-17.1 2.67,-0.7 5.32,-1.52 7.93,-2.43 2.6,-0.84 5.21,-1.69 7.71,-2.8 1.22,-0.68 2.37,-1.46 3.54,-2.21 -11.09,1.32 -22.53,3.02 -33.54,0.3 -9.75,-2.57 -16.63,-10.53 -22.79,-18.01 3.8,-7.64 5.15,-16.14 6.77,-24.44 1.19,-6.84 2.09,-14.02 6.18,-19.86 z"
     id="path30719"
     inkscape:connector-curvature="0"
     style="fill:#0060b6" />
  <path
     d="m 81.566858,269.53336 c 4.33,-0.31 9.24,-1.55 12.96,1.4 -3.03,6.28 -4.86,13.17 -5.21,20.14 -0.1,0.97 0.24,1.78 1,2.44 0.21,-7.97 2.13,-15.8 5.69,-22.93 0.38,0.54 0.76,1.08 1.12,1.63 -4.54,9.07 0.07,19.07 -1.58,28.56 -0.48,2.03 -1.27,4.65 -3.63,5.13 -2.17,0.16 -4.33,-0.26 -6.48,-0.5 1.77,-1.84 3.49,-3.75 4.71,-6.01 -3.84,-4.24 -4.81,-10.03 -5.93,-15.43 -0.3,-2.97 -3.3,-4.36 -5.53,-5.74 1.95,-2.49 1.94,-5.79 2.88,-8.69 z"
     id="path30721"
     inkscape:connector-curvature="0"
     style="fill:#d49758" />
  <path
     d="m 209.68686,272.89336 c -0.69,0.29 -0.69,0.29 0,0 z"
     id="path30723"
     inkscape:connector-curvature="0"
     style="fill:#c98c60" />
  <path
     d="m 165.22686,283.58336 c -2.43,-1.53 -4.03,-5.7 -1.91,-7.99 0.26,2.74 0.88,5.43 1.91,7.99 z"
     id="path30725"
     inkscape:connector-curvature="0"
     style="fill:#652900" />
  <path
     d="m 47.096858,278.93336 c 4.16,2.25 8.37,4.52 12.02,7.56 -0.26,3.19 -2.79,0.07 -4.07,-0.64 -1.36,1.19 -2.78,2.35 -3.92,3.76 -0.98,2.01 0.38,3.89 1.44,5.51 -0.8,0.91 -1.59,1.83 -2.39,2.75 -1.39,-1.28 -2.78,-2.55 -4.18,-3.81 -0.33,-5.08 0.2,-10.14 1.1,-15.13 z"
     id="path30727"
     inkscape:connector-curvature="0"
     style="fill:#d49758" />
  <path
     d="m 146.66686,286.40336 c -1.24,-1.51 -0.93,-3.49 -0.76,-5.27 5.77,3.59 12.2,6.23 18.94,7.26 4.49,0.48 8.93,-0.65 13.36,-1.18 0,0.37 0,1.11 0,1.48 -1.15,1.56 -4.58,3.37 -1.92,5.17 6.17,3.58 13.2,0.7 19.74,0.21 -4.89,3.75 -11.08,5.31 -17.07,6.21 -5.95,0.87 -12.39,0.7 -17.76,-2.29 -5.43,-2.97 -10.94,-6.42 -14.53,-11.59 z"
     id="path30729"
     inkscape:connector-curvature="0"
     style="fill:#cc956c" />
  <path
     d="m 202.98686,287.17336 c 1.29,-0.41 2.57,-0.81 3.85,-1.21 -1.96,7.92 -1.28,16.5 -5.18,23.89 -2.91,5.51 -7.36,10.51 -13.15,13.05 -4.26,2 -8,5.18 -12.71,6.11 -2.66,0.44 -5.34,0.74 -8.01,1.12 6.75,-6.09 15.89,-8.21 22.87,-13.93 2.3,-0.96 4.53,-2.17 6.12,-4.14 -1.16,0.46 -2.31,0.94 -3.45,1.43 3.29,-7.5 6.9,-14.97 8.57,-23.05 0.3,-1.11 0.71,-2.19 1.09,-3.27 z"
     id="path30731"
     inkscape:connector-curvature="0"
     style="fill:#014697" />
  <path
     d="m 51.966858,290.25336 c 0.95,-1.24 2.18,-2.21 3.35,-3.21 2.39,2.23 5.16,3.97 8.02,5.5 -1.82,1.83 -3.67,3.69 -4.86,6.02 -2.49,-2.34 -7.07,-4.3 -6.51,-8.31 z"
     id="path30733"
     inkscape:connector-curvature="0"
     style="fill:#d49758" />
  <path
     d="m 58.576858,288.51336 c 0.48,-0.3 1.45,-0.89 1.94,-1.19 2.12,1.53 4.14,3.22 5.85,5.2 -2.88,-0.71 -5.31,-2.48 -7.79,-4.01 z"
     id="path30735"
     inkscape:connector-curvature="0"
     style="fill:#e4b417" />
  <path
     d="m 24.066858,306.08336 c -4.32,-4.34 -2.81,-12.06 1.48,-15.97 0.63,2.53 0.57,5.82 3.21,7.24 5.11,2.62 10.86,0.28 16.28,0.49 l 1.56,-0.02 c -0.15,-0.94 -0.45,-2.82 -0.6,-3.76 1.4,1.26 2.79,2.53 4.18,3.81 -0.96,0.98 -1.91,1.96 -2.86,2.96 -0.3,-0.74 -0.9,-2.23 -1.2,-2.97 -0.38,3.38 -4.01,3.68 -6.49,4.8 -5.02,1.68 -10.14,4.13 -15.56,3.42 z"
     id="path30737"
     inkscape:connector-curvature="0"
     style="fill:#b7815d" />
  <path
     d="m 165.87686,291.15336 0.97,0 c -0.46,3.28 1.44,5.86 3.31,8.31 -3.59,-1.05 -4.7,-4.97 -4.28,-8.31 z"
     id="path30739"
     inkscape:connector-curvature="0"
     style="fill:#562d13" />
  <path
     d="m 172.82686,301.98336 c 10.5,-0.75 21.87,-3.22 29.07,-11.54 -1.67,8.08 -5.28,15.55 -8.57,23.05 -4.55,1.99 -9.61,2.58 -14.53,2.6 -4.97,-2.91 -5.26,-9.04 -5.97,-14.11 z"
     id="path30741"
     inkscape:connector-curvature="0"
     style="fill:#0060b6" />
  <path
     d="m 66.366858,292.52336 c 0.5,0.55 0.5,0.55 0,0 z"
     id="path30743"
     inkscape:connector-curvature="0"
     style="fill:#d69c0a" />
  <path
     d="m 58.476858,298.56336 c 1.19,-2.33 3.04,-4.19 4.86,-6.02 1.66,0.95 3.32,1.93 4.97,2.91 -1.53,1.55 -2.92,3.28 -4.78,4.46 -1.81,1.06 -3.57,-0.68 -5.41,-0.71 l 0.36,-0.64 z"
     id="path30745"
     inkscape:connector-curvature="0"
     style="fill:#ba743b" />
  <path
     d="m 70.346858,295.18336 c 3.41,3.32 6.9,6.56 10.44,9.74 -3.49,-0.75 -7.13,-0.57 -10.56,-1.58 -2.02,-0.89 -4.05,-1.78 -6.06,-2.67 2.06,-1.83 4.04,-3.75 6.18,-5.49 z"
     id="path30747"
     inkscape:connector-curvature="0"
     style="fill:#d49758" />
  <path
     d="m 53.476858,295.83336 c 1.44,1.16 2.87,2.34 4.28,3.55 -7.39,7.95 -15.4,15.29 -23.89,22.06 -3.58,3.12 -7.5,5.85 -10.78,9.29 2.5,-0.36 4.17,-2.31 6,-3.81 5.02,-4.19 10.05,-8.37 15.09,-12.54 5.1,-4.34 9.46,-9.46 14.37,-13.98 0.32,-0.01 0.96,-0.04 1.28,-0.06 -1.86,3.12 -4.9,5.49 -7.34,8.2 -8.81,8.42 -16.77,18.09 -27.57,24.07 -3.32,-0.5 -5.82,-2.79 -6.36,-6.13 12.56,-9.1 24.56,-19.07 34.92,-30.65 z"
     id="path30749"
     inkscape:connector-curvature="0"
     style="fill:#e7b119" />
  <path
     d="m 162.11686,300.09336 c 0.6,-0.01 1.81,-0.03 2.41,-0.04 l -0.17,0.7 c -0.77,2.99 -1.4,6.68 0.8,9.25 3.47,3.82 8.71,5.27 13.64,6.09 4.92,-0.02 9.98,-0.61 14.53,-2.6 1.14,-0.49 2.29,-0.97 3.45,-1.43 -1.59,1.97 -3.82,3.18 -6.12,4.14 -5.8,0.67 -11.88,1.9 -17.58,-0.05 -3.26,-1.14 -6.6,-2.64 -8.92,-5.29 -2.5,-3.03 -1.88,-7.15 -2.04,-10.77 z"
     id="path30751"
     inkscape:connector-curvature="0"
     style="fill:#02145f" />
  <path
     d="m 165.15686,310.00336 c -2.2,-2.57 -1.57,-6.26 -0.8,-9.25 2.82,0.43 5.65,0.82 8.47,1.23 0.71,5.07 1,11.2 5.97,14.11 -4.93,-0.82 -10.17,-2.27 -13.64,-6.09 z"
     id="path30753"
     inkscape:connector-curvature="0"
     style="fill:#024697" />
  <path
     d="m 54.726858,308.14336 c 1.16,0.34 2.32,0.68 3.48,1.03 3.21,1.51 6.62,2.73 9.37,5.04 -3.29,-0.9 -6.51,-2.08 -9.62,-3.48 -1.11,-0.82 -2.17,-1.72 -3.23,-2.59 z"
     id="path30755"
     inkscape:connector-curvature="0"
     style="fill:#02155d" />
  <path
     d="m 58.206858,309.17336 c 13.81,2.6 27.84,7.2 42.050002,4.84 0.49,2.27 0.98,4.53 1.39,6.81 l 0.29,1.72 c -2.910002,-1.96 -5.840002,-3.91 -8.920002,-5.59 0.42,5.19 3.16,9.78 7.640002,12.48 -1.840002,2.79 -3.210002,5.85 -4.030002,9.09 -0.47,0.01 -1.41,0.04 -1.88,0.05 -2.08,-0.06 -4.14,0.21 -6.14,0.74 2.36,1.38 4.77,2.69 7.18,3.99 -0.26,3.11 -1.6,6.73 0.43,9.52 1.39,2.17 4.160002,2.23 6.440002,2.56 l 1.07,0.13 c 0.86,-0.99 1.73,-1.97 2.61,-2.94 l 0.35,0.49 c 1.8,2.64 4.54,5.56 3.36,9.04 -1.36,3.7 -3.88,6.83 -5.97,10.14 -2.83,4.48 -7.070002,8.25 -12.260002,9.69 -3.62,0.96 -7.31,-0.26 -10.88,-0.88 -7.93,-1.67 -16.13,-1.12 -24.08,-2.59 -3.79,-0.77 -8.6,-2.73 -8.81,-7.24 0.12,-4.55 2.23,-8.83 4.4,-12.74 2.54,-1.58 5.78,-0.65 8.58,-0.42 9.16,3.88 19.47,5.88 29.27,3.42 2.6,-0.61 4.58,-2.47 6.18,-4.51 -3.7,1.58 -7.29,3.85 -11.44,3.91 -8.34,0.72 -16.63,-1.29 -24.24,-4.6 -3.75,-4.46 -3.33,-10.57 -5.21,-15.8 -1.61,-4.64 -3.95,-9.32 -3.34,-14.38 0.62,-5.51 3.45,-10.41 5.71,-15.37 3.11,1.4 6.33,2.58 9.62,3.48 -2.75,-2.31 -6.16,-3.53 -9.37,-5.04 z"
     id="path30757"
     inkscape:connector-curvature="0"
     style="fill:#0060b6" />
  <path
     d="m 93.016858,316.95336 c 3.08,1.68 6.01,3.63 8.920002,5.59 l -0.29,-1.72 c 2.67,1.28 4.97,3.16 6.99,5.32 -2.38,4.24 -4.34,8.78 -7.66,12.42 -1.450002,-0.01 -2.900002,-0.03 -4.350002,-0.04 0.82,-3.24 2.19,-6.3 4.030002,-9.09 -4.480002,-2.7 -7.220002,-7.29 -7.640002,-12.48 z"
     id="path30759"
     inkscape:connector-curvature="0"
     style="fill:#014696" />
  <path
     d="m 175.79686,329.01336 c 4.71,-0.93 8.45,-4.11 12.71,-6.11 -2.32,6.8 -3.13,14.05 -2.79,21.21 0.29,6.3 1.98,12.44 2.36,18.74 2.29,-0.44 5.38,-1.07 6.69,1.49 2.57,7.35 3.93,15.97 0.3,23.21 -3.39,0.24 -6.76,0.64 -10.12,1.15 2.79,-3.98 5.32,-8.51 5.02,-13.54 0.04,-2.81 -0.75,-7.02 -4.23,-7.26 -5.47,-0.4 -11.02,-0.01 -16.42,-1.18 4.56,-0.83 8.96,-2.33 13.14,-4.31 -0.61,-6.12 -1.39,-12.22 -2.17,-18.33 -0.74,-5.21 0.34,-11.51 -4.49,-15.07 z"
     id="path30761"
     inkscape:connector-curvature="0"
     style="fill:#024697" />
  <path
     d="m 143.00686,333.97336 c 3.92,-0.25 7.67,-1.98 11.65,-1.56 -2.5,1.11 -5.11,1.96 -7.71,2.8 -4.16,0.13 -8.31,0.07 -12.47,0.14 1.63,6.29 3.85,12.77 8.89,17.18 -0.56,-0.09 -1.68,-0.26 -2.24,-0.35 -0.31,-0.27 -0.95,-0.82 -1.27,-1.09 -0.88,-1.23 -1.69,-2.5 -2.44,-3.79 -1.55,-4.23 -2.77,-8.59 -4.52,-12.75 3.36,-0.37 6.74,-0.35 10.11,-0.58 z"
     id="path30765"
     inkscape:connector-curvature="0"
     style="fill:#020f53" />
  <path
     d="m 134.47686,335.35336 c 4.16,-0.07 8.31,-0.01 12.47,-0.14 -2.61,0.91 -5.26,1.73 -7.93,2.43 0.56,6.47 4.81,11.48 7.54,17.1 -1.91,-0.62 -3.91,-1.18 -5.43,-2.56 0.56,0.09 1.68,0.26 2.24,0.35 -5.04,-4.41 -7.26,-10.89 -8.89,-17.18 z"
     id="path30767"
     inkscape:connector-curvature="0"
     style="fill:#014697" />
  <path
     d="m 88.606858,339.31336 c 2,-0.53 4.06,-0.8 6.14,-0.74 l 0.04,0 c -0.53,0.39 -1.58,1.16 -2.11,1.55 2.22,-0.41 4.44,-0.79 6.67,-1.1 0.14,4.44 3.000002,8.01 6.790002,10.07 -0.05,0.73 -0.16,2.2 -0.22,2.93 -1.09,1.11 -2.18,2.23 -3.26,3.36 -2.28,-0.33 -5.050002,-0.39 -6.440002,-2.56 -2.03,-2.79 -0.69,-6.41 -0.43,-9.52 -2.41,-1.3 -4.82,-2.61 -7.18,-3.99 z"
     id="path30769"
     inkscape:connector-curvature="0"
     style="fill:#024696" />
  <path
     d="m 107.95686,347.10336 c 4.78,2.36 9.49,6.61 10.2,12.12 -1.97,9.46 -8.48,17.09 -14.8,24.07 l -0.06,0.05 -0.91,0.71 c -5.820002,3.51 -12.500002,6.58 -19.470002,5.29 -10.6,-0.82 -20.97,-3.46 -30.86,-7.32 -3.39,-1.31 -7.89,-2.59 -8.45,-6.84 -0.66,-6.47 2.56,-12.51 5.15,-18.24 0.85,-2.26 3.01,-3.47 5.26,-3.93 2.13,1.95 4.4,3.78 7.01,5.05 -2.8,-0.23 -6.04,-1.16 -8.58,0.42 -2.17,3.91 -4.28,8.19 -4.4,12.74 0.21,4.51 5.02,6.47 8.81,7.24 7.95,1.47 16.15,0.92 24.08,2.59 3.57,0.62 7.26,1.84 10.88,0.88 5.19,-1.44 9.430002,-5.21 12.260002,-9.69 2.09,-3.31 4.61,-6.44 5.97,-10.14 1.18,-3.48 -1.56,-6.4 -3.36,-9.04 -0.68,-2.09 0.24,-4.18 1.27,-5.96 z"
     id="path30771"
     inkscape:connector-curvature="0"
     style="fill:#024697" />
  <path
     d="m 137.41686,347.30336 c 0.75,1.29 1.56,2.56 2.44,3.79 -0.91,-0.22 -1.83,-0.44 -2.74,-0.64 0.6,4.73 1.16,9.68 3.72,13.83 1.75,2.83 5.06,3.99 8.06,4.99 6.12,1.87 12.25,3.78 18.54,5.01 -9.32,2.4 -19.95,1.14 -27.67,-4.88 -2.71,-1.84 -3.08,-5.2 -3.1,-8.21 0.2,-4.68 -2.62,-9.78 0.75,-13.89 z"
     id="path30773"
     inkscape:connector-curvature="0"
     style="fill:#014696" />
  <path
     d="m 54.046858,350.13336 c 1.78,2.51 3.72,5.09 6.75,6.15 7.61,3.31 15.9,5.32 24.24,4.6 4.15,-0.06 7.74,-2.33 11.44,-3.91 -1.6,2.04 -3.58,3.9 -6.18,4.51 -9.8,2.46 -20.11,0.46 -29.27,-3.42 -2.61,-1.27 -4.88,-3.1 -7.01,-5.05 0.01,-0.72 0.03,-2.16 0.03,-2.88 z"
     id="path30775"
     inkscape:connector-curvature="0"
     style="fill:#020f57" />
  <path
     d="m 134.71686,361.87336 c 0.49,-0.17 1.46,-0.51 1.95,-0.68 0.02,3.01 0.39,6.37 3.1,8.21 7.72,6.02 18.35,7.28 27.67,4.88 5.01,-0.82 9.78,-2.65 14.18,-5.16 -4.52,6.29 -13.16,6.36 -20.1,7.54 -5.93,0.98 -11.69,-1.05 -17.3,-2.7 -2.51,-1.46 -5.08,-2.99 -6.98,-5.23 -1.49,-1.99 -1.82,-4.54 -2.52,-6.86 z"
     id="path30777"
     inkscape:connector-curvature="0"
     style="fill:#021560" />
  <path
     d="m 128.25686,368.02336 c 0.48,-3.22 3.59,-5.21 6.46,-6.15 0.7,2.32 1.03,4.87 2.52,6.86 1.9,2.24 4.47,3.77 6.98,5.23 -3.39,-0.05 -6.78,0.13 -10.17,0.19 -1.93,4.5 -3.07,9.6 -1.61,14.41 1,3.28 4.57,4.54 7.55,5.38 10.27,2.64 20.92,0.87 31.34,0.47 -2.82,2.1 -5.58,4.3 -8.57,6.16 -6.87,0.93 -13.9,-0.36 -20.44,-2.51 -6.49,-2.38 -12.85,-7.23 -14.35,-14.31 -1.09,-5.18 -0.47,-10.55 0.29,-15.73 z"
     id="path30779"
     inkscape:connector-curvature="0"
     style="fill:#024697" />
  <path
     d="m 103.35686,383.29336 c 4.34,-2.68 6.98,-7.13 10.28,-10.87 2.15,5.86 4.78,12.21 2.95,18.52 -1.73,3.91 -4.45,7.51 -8.19,9.68 -2.34,1.38 -4.26,3.32 -5.87,5.48 l -0.04,-0.28 c -0.34,-3.57 -1.65,-6.96 -2.08,-10.5 0.05,-4.2 3.49,-7.71 2.89,-11.98 l 0.06,-0.05 z"
     id="path30781"
     inkscape:connector-curvature="0"
     style="fill:#652a00" />
  <path
     d="m 102.38686,384.05336 0.91,-0.71 c 0.6,4.27 -2.84,7.78 -2.89,11.98 0.43,3.54 1.74,6.93 2.08,10.5 -0.36,1.78 -1.54,3.21 -2.710002,4.53 l 0.370002,-1.72 c -4.560002,5.33 -9.360002,11.4 -16.710002,12.71 0.37,0.25 1.11,0.75 1.47,1 -0.66,1.47 -2.43,1.38 -3.79,1.51 l 0.69,-0.43 c 0.01,-0.33 0.04,-0.98 0.05,-1.3 -1.96,0.57 -4.2,0.67 -5.89,1.9 1.33,0.27 2.67,0.3 4.03,0.09 l -0.14,0.64 c -4.14,0.84 -8.33,1.44 -12.55,1.65 l -0.11,1.28 c 6.77,-0.61 13.68,-1.47 19.9,-4.4 3.29,-1.47 6.04,-3.84 9.08,-5.74 -3.19,6.9 -10.6,10.93 -17.87,12.06 -9.69,1.59 -19.53,2.11 -29.34,2.32 -10.08,0.26 -20.21,-2.03 -29.08,-6.85 -1.38,1.52 -2.77,3.03 -4.09,4.61 0.14,-3.58 3.79,-8.21 7.58,-6.04 13.64,5.76 28.81,4.51 43.26,4.33 l 0.06,-1.35 c -12.61,1 -25.52,1.08 -37.86,-2.08 -2.45,-0.88 -5.85,-1.17 -6.53,-4.23 12.55,5.1 26.28,5.65 39.65,5.08 4,-0.33 8.28,0.42 12.08,-0.97 -3.99,-0.71 -8.06,0.06 -12.09,0.01 -13.2,0.58 -26.77,0.05 -39.16,-5 0.6,-4.35 0.95,-8.83 2.65,-12.93 1.51,-3.79 4.07,-7.02 6,-10.58 4.92,1.94 10.24,1.26 15.35,0.71 4.35,-0.51 8.77,0.58 13.08,-0.32 1.63,-0.05 1.97,-1.78 2.52,-2.95 8.54,1.61 15.55,6.86 23.48,10.03 0.84,0.5 1.64,1.08 2.46,1.64 -2.98,-5.72 -8.96,-8.97 -14.42,-11.94 -5.04,-2.81 -10.73,-4.12 -15.8,-6.83 6.45,-0.77 12.45,2.6 18.86,2.88 8.66,1.5 18.7,1.43 25.420002,-5.09 z"
     id="path30783"
     inkscape:connector-curvature="0"
     style="fill:#8c4201" />
  <path
     d="m 41.946858,386.72336 c 4.29,-0.81 8.83,-1.09 13.06,0.21 7.6,2.29 15.17,5.01 21.97,9.18 3.26,2.02 6.66,4.06 8.89,7.28 -7.93,-3.17 -14.94,-8.42 -23.48,-10.03 -7.33,-4.21 -16.33,-4.6 -24.5,-3.32 -3.35,0.27 -5.24,3.06 -6.45,5.88 -1.93,3.56 -4.49,6.79 -6,10.58 -1.7,4.1 -2.05,8.58 -2.65,12.93 l -1.28,-0.48 -0.36,-0.16 c -0.54,-8.24 -0.19,-17.51 5.45,-24.11 3.72,-4.71 9.65,-6.85 15.35,-7.96 z"
     id="path30785"
     inkscape:connector-curvature="0"
     style="fill:#b3570e" />
  <path
     d="m 37.886858,390.04336 c 8.17,-1.28 17.17,-0.89 24.5,3.32 -0.55,1.17 -0.89,2.9 -2.52,2.95 -4.31,0.9 -8.73,-0.19 -13.08,0.32 -5.11,0.55 -10.43,1.23 -15.35,-0.71 1.21,-2.82 3.1,-5.61 6.45,-5.88 z"
     id="path30787"
     inkscape:connector-curvature="0"
     style="fill:#e4bd96" />
  <path
     d="m 118.47686,389.41336 c 1.2,-1.24 2.78,-0.45 3.21,1.03 0.71,1.91 1.72,4.16 0.74,6.16 -2.45,5.36 -6.02,10.15 -10.06,14.42 -0.57,-0.42 -1.7,-1.25 -2.27,-1.66 -2.5,3.84 -4.52,8.08 -7.99,11.2 -9.640002,9.98 -20.920002,20.16 -35.270002,21.89 -17.2,2.94 -35.97,2.54 -51.39,-6.52 0.04,-2.09 0,-4.2 0.35,-6.25 1.32,-1.58 2.71,-3.09 4.09,-4.61 8.87,4.82 19,7.11 29.08,6.85 9.81,-0.21 19.65,-0.73 29.34,-2.32 7.27,-1.13 14.68,-5.16 17.87,-12.06 0.96,-1.62 2.4,-2.87 3.52,-4.37 2.120002,-2.74 3.150002,-6.18 5.440002,-8.8 2.26,-2.52 5.67,-3.62 7.89,-6.18 2.41,-2.53 3.75,-5.79 5.45,-8.78 z"
     id="path30789"
     inkscape:connector-curvature="0"
     style="fill:#652a00" />
  <path
     d="m 176.96686,393.15336 c 8.86,-4.39 19.34,-5.7 28.84,-2.71 5.55,1.74 9.49,7.02 10.36,12.67 0.71,4.43 1.48,9.11 0.17,13.5 l -1.65,-0.02 c -0.14,-3.98 -0.03,-8.06 -1.25,-11.9 -1.08,-3.39 -3.76,-5.86 -5.66,-8.76 -1.32,-3.74 -5.19,-5.09 -8.87,-4.76 -7,0.51 -14.33,1.37 -20.41,5.17 -3.07,1.38 -6.31,2.4 -9.23,4.09 -3.3,1.8 -6.17,4.28 -9.55,5.92 -0.32,0.1 -0.96,0.3 -1.28,0.41 4.53,-6.39 11.69,-10.17 18.53,-13.61 z"
     id="path30791"
     inkscape:connector-curvature="0"
     style="fill:#b3570e" />
  <path
     d="m 129.86686,390.09336 c 4.16,4.61 9.56,8.11 15.69,9.4 l -0.04,0.21 c -0.72,3.17 -1.48,6.35 -1.96,9.57 -4.07,-3.11 -9.3,-5 -11.93,-9.68 -2.18,-2.68 -1.85,-6.28 -1.76,-9.5 z"
     id="path30793"
     inkscape:connector-curvature="0"
     style="fill:#652a00" />
  <path
     d="m 178.49686,396.34336 c 6.08,-3.8 13.41,-4.66 20.41,-5.17 3.68,-0.33 7.55,1.02 8.87,4.76 -3.77,1.49 -7.78,2.35 -11.86,2.23 -5.01,-0.19 -9.94,1.24 -14.94,0.91 -1.55,0.04 -2.02,-1.61 -2.48,-2.73 z"
     id="path30795"
     inkscape:connector-curvature="0"
     style="fill:#e4bd96" />
  <path
     d="m 127.08686,396.13336 c 1.46,-0.52 1.95,1.43 2.72,2.24 1.79,2.78 3.6,5.76 6.6,7.37 2.91,1.59 5.85,3.4 7.42,6.45 1.7,3.24 4.59,5.53 6.85,8.32 3.33,5.51 9.82,8.94 16.26,8.54 8.3,-0.25 16.37,-2.52 24.61,-3.41 7.56,-0.83 14.88,-3.26 22.48,-3.7 2.37,-0.24 4.41,1.16 6.46,2.11 -0.06,2.95 -0.02,5.9 -0.03,8.86 -11.08,2.29 -22.13,5.46 -33.54,5.44 -7.04,-0.03 -14.21,0.04 -21.03,-1.89 -7.82,-2.3 -14.18,-7.7 -20.18,-12.97 -3.33,-2.86 -5.89,-6.43 -8.34,-10.03 -0.68,0.6 -1.35,1.21 -2.03,1.82 -3.35,-3.59 -6.94,-7.11 -9.11,-11.58 -1.27,-2.35 -0.86,-5.56 0.86,-7.57 z"
     id="path30797"
     inkscape:connector-curvature="0"
     style="fill:#652a00" />
  <path
     d="m 169.26686,400.43336 c 2.92,-1.69 6.16,-2.71 9.23,-4.09 0.46,1.12 0.93,2.77 2.48,2.73 5,0.33 9.93,-1.1 14.94,-0.91 4.08,0.12 8.09,-0.74 11.86,-2.23 1.9,2.9 4.58,5.37 5.66,8.76 1.22,3.84 1.11,7.92 1.25,11.9 -12.86,-0.49 -25.68,1.66 -37.99,5.29 -4.41,1.39 -9.07,1.41 -13.64,1.28 l 0.1,1.05 c 3.9,0.01 7.8,-0.23 11.69,-0.58 -1,1.75 -3.25,1.31 -4.9,1.57 -3.62,0.27 -7.24,-0.37 -10.64,-1.6 l 1.08,-0.06 2.27,-0.11 c -5.81,-2.06 -11.55,-4.94 -15.2,-10.11 -0.47,-0.16 -1.41,-0.47 -1.88,-0.63 l -0.55,-0.19 c -0.59,-1.04 -1.08,-2.11 -1.47,-3.23 0.48,-3.22 1.24,-6.4 1.96,-9.57 5.3,1.2 10.73,1.76 16.16,1.53 -2.09,2.21 -4.17,4.48 -5.66,7.17 0.78,-0.53 1.55,-1.07 2.31,-1.61 l 0.11,-0.03 c 0.32,-0.11 0.96,-0.31 1.28,-0.41 3.38,-1.64 6.25,-4.12 9.55,-5.92 z"
     id="path30799"
     inkscape:connector-curvature="0"
     style="fill:#8c4201" />
  <path
     d="m 112.71686,412.28336 c 3.7,-3.59 6.36,-8.01 9.53,-12.03 -1.58,6.08 -6.34,10.64 -10.63,14.96 -0.4,-0.3 -1.19,-0.89 -1.59,-1.18 0.03,-0.7 0.09,-2.1 0.12,-2.79 0.85,0.34 1.71,0.69 2.57,1.04 z"
     id="path30801"
     inkscape:connector-curvature="0"
     style="fill:#a04c03" />
  <path
     d="m 126.33686,407.27336 c 3.29,2.77 5.53,6.52 8.68,9.44 0.82,-0.18 2.45,-0.54 3.27,-0.72 -0.49,1 -0.99,2 -1.48,3.01 -4.07,-3.32 -8.17,-6.91 -10.47,-11.73 z"
     id="path30803"
     inkscape:connector-curvature="0"
     style="fill:#a04c03" />
  <path
     d="m 83.436858,421.34336 c 7.35,-1.31 12.15,-7.38 16.710002,-12.71 l -0.370002,1.72 c -0.58,1.18 -1.46,2.18 -2.28,3.21 -0.04,0.04 -0.11,0.12 -0.15,0.16 -3.4,3.74 -7.51,7.17 -12.44,8.62 -0.36,-0.25 -1.1,-0.75 -1.47,-1 z"
     id="path30805"
     inkscape:connector-curvature="0"
     style="fill:#fee1a6" />
  <path
     d="m 145.57686,412.69336 c 0.47,0.16 1.41,0.47 1.88,0.63 3.65,5.17 9.39,8.05 15.2,10.11 l -2.27,0.11 c -6.08,-1.59 -11.32,-5.68 -14.81,-10.85 z"
     id="path30807"
     inkscape:connector-curvature="0"
     style="fill:#fee1a6" />
  <path
     d="m 97.346858,413.72336 c 0.04,-0.04 0.11,-0.12 0.15,-0.16 -0.04,0.04 -0.11,0.12 -0.15,0.16 z"
     id="path30809"
     inkscape:connector-curvature="0"
     style="fill:#ff7f00" />
  <path
     d="m 176.69686,421.88336 c 12.31,-3.63 25.13,-5.78 37.99,-5.29 l 1.65,0.02 c -0.56,0.89 -1.34,1.27 -2.34,1.16 -3.18,-0.01 -6.35,-0.06 -9.52,-0.06 l -0.03,0.86 c -3.02,-0.12 -6.04,-0.07 -9.05,0.03 l 0.17,1.02 c -1.78,-0.1 -3.56,-0.16 -5.33,-0.22 l 0.41,1.22 c -1.78,-0.09 -3.55,-0.14 -5.33,-0.2 l 0.3,1.22 c -1.44,-0.1 -2.87,-0.18 -4.3,-0.25 l 0.32,1.24 c -1.41,-0.06 -2.82,-0.11 -4.23,-0.14 l 0.18,1.06 c -0.92,0 -1.83,0.03 -2.74,0.08 -3.89,0.35 -7.79,0.59 -11.69,0.58 l -0.1,-1.05 c 4.57,0.13 9.23,0.11 13.64,-1.28 z"
     id="path30811"
     inkscape:connector-curvature="0"
     style="fill:#fee1a6" />
  <path
     d="m 21.506858,418.95336 1.28,0.48 c 12.39,5.05 25.96,5.58 39.16,5 4.03,0.05 8.1,-0.72 12.09,-0.01 -3.8,1.39 -8.08,0.64 -12.08,0.97 -13.37,0.57 -27.1,0.02 -39.65,-5.08 -0.2,-0.34 -0.6,-1.02 -0.8,-1.36 z"
     id="path30813"
     inkscape:connector-curvature="0"
     style="fill:#f0ceb3" />
  <path
     d="m 169.84686,426.27336 c 14.18,-1.46 27.86,-6.22 42.15,-6.89 3.47,-0.19 7.37,1 8.49,4.67 -2.05,-0.95 -4.09,-2.35 -6.46,-2.11 -7.6,0.44 -14.92,2.87 -22.48,3.7 -8.24,0.89 -16.31,3.16 -24.61,3.41 -6.44,0.4 -12.93,-3.03 -16.26,-8.54 5.81,3.38 12.23,6.59 19.17,5.76 z"
     id="path30815"
     inkscape:connector-curvature="0"
     style="fill:#8c4201" />
  <path
     d="m 79.646858,439.90336 c 9.47,-4.75 17.2,-12.14 24.470002,-19.7 -5.380002,11 -15.300002,19.42 -26.150002,24.83 -5.83,3.14 -12.55,3.68 -19.04,4.07 -10.72,0.36 -21.59,-0.2 -32.01,-2.91 -4.35,-1.32 -9.21,-2.77 -11.79,-6.85 3.78,0.04 7.16,1.87 10.77,2.74 11.19,3.06 22.93,3.73 34.45,2.56 6.58,-0.74 13.37,-1.58 19.3,-4.74 z"
     id="path30817"
     inkscape:connector-curvature="0"
     style="fill:#8c4201" />
  <path
     d="m 75.966858,424.02336 c 1.69,-1.23 3.93,-1.33 5.89,-1.9 -0.01,0.32 -0.04,0.97 -0.05,1.3 l -0.69,0.43 -1.12,0.26 c -1.36,0.21 -2.7,0.18 -4.03,-0.09 z"
     id="path30819"
     inkscape:connector-curvature="0"
     style="fill:#ffffff" />
  <path
     d="m 144.94686,425.01336 c 4.93,2.59 8.61,7.02 13.64,9.5 6.45,3.8 14.07,4.7 21.42,4.84 13.74,0.85 27.36,-2.06 40.54,-5.67 0.09,0.57 0.27,1.71 0.36,2.29 -6.75,4.42 -15.05,4.92 -22.82,5.99 -4.89,0.12 -9.73,1.28 -14.61,1.01 -4.09,-0.93 -8.3,-1.06 -12.41,-0.18 -10.69,-1.7 -20.13,-8.93 -26.12,-17.78 z"
     id="path30821"
     inkscape:connector-curvature="0"
     style="fill:#652900" />
  <path
     d="m 171.06686,442.79336 c 4.11,-0.88 8.32,-0.75 12.41,0.18 -4.13,0.27 -8.3,0.4 -12.41,-0.18 z"
     id="path30823"
     inkscape:connector-curvature="0"
     style="fill:#904300" />
</svg>
