<?xml version="1.0" encoding="UTF-8" standalone="no"?>
<!-- Created with Inkscape (http://www.inkscape.org/) -->
<svg
   xmlns:i="http://ns.adobe.com/AdobeIllustrator/10.0/"
   xmlns:dc="http://purl.org/dc/elements/1.1/"
   xmlns:cc="http://web.resource.org/cc/"
   xmlns:rdf="http://www.w3.org/1999/02/22-rdf-syntax-ns#"
   xmlns:svg="http://www.w3.org/2000/svg"
   xmlns="http://www.w3.org/2000/svg"
   xmlns:xlink="http://www.w3.org/1999/xlink"
   xmlns:sodipodi="http://sodipodi.sourceforge.net/DTD/sodipodi-0.dtd"
   xmlns:inkscape="http://www.inkscape.org/namespaces/inkscape"
   width="650.33649"
   height="604.85931"
   id="svg2652"
   sodipodi:version="0.32"
   inkscape:version="0.45.1"
   sodipodi:docbase="/home/dan/Desktop/Pages DIZ/OpenClipart.Projects/2 PART/International Network/International Network (2)"
   sodipodi:docname="cibo00_International_Network_(2).svg"
   inkscape:output_extension="org.inkscape.output.svg.inkscape"
   version="1.0"
   
   inkscape:export-xdpi="90"
   inkscape:export-ydpi="90">
  <sodipodi:namedview
     id="base"
     pagecolor="#ffffff"
     bordercolor="#666666"
     borderopacity="1.0"
     inkscape:pageopacity="0.0"
     inkscape:pageshadow="2"
     inkscape:zoom="1.6970563"
     inkscape:cx="298.60685"
     inkscape:cy="246.84013"
     inkscape:current-layer="layer1"
     inkscape:document-units="px"
     inkscape:window-width="1255"
     inkscape:window-height="783"
     inkscape:window-x="25"
     inkscape:window-y="0"
     showgrid="true"
     inkscape:showpageshadow="false" />
  <defs
     id="defs2654">
    <linearGradient
       id="linearGradient17783">
      <stop
         style="stop-color:#e5b800;stop-opacity:0.68041235;"
         offset="0"
         id="stop17785" />
      <stop
         style="stop-color:#88aa00;stop-opacity:0;"
         offset="1"
         id="stop17787" />
    </linearGradient>
    <linearGradient
       id="linearGradient15806">
      <stop
         style="stop-color:#f7ff00;stop-opacity:1;"
         offset="0"
         id="stop15808" />
      <stop
         style="stop-color:#f79b00;stop-opacity:0;"
         offset="1"
         id="stop15810" />
    </linearGradient>
    <linearGradient
       id="linearGradient14816">
      <stop
         style="stop-color:#fd3a27;stop-opacity:1;"
         offset="0"
         id="stop14818" />
      <stop
         style="stop-color:#0000e5;stop-opacity:0;"
         offset="1"
         id="stop14820" />
    </linearGradient>
    <radialGradient
       inkscape:collect="always"
       xlink:href="#linearGradient14816"
       id="radialGradient14824"
       cx="341.69485"
       cy="288.26428"
       fx="341.69485"
       fy="288.26428"
       r="122.95225"
       gradientTransform="matrix(1,0,0,1.150555,0,-43.399617)"
       gradientUnits="userSpaceOnUse" />
    <linearGradient
       inkscape:collect="always"
       xlink:href="#linearGradient15806"
       id="linearGradient15812"
       x1="463.50424"
       y1="100.34256"
       x2="605.80438"
       y2="100.34256"
       gradientUnits="userSpaceOnUse" />
    <linearGradient
       inkscape:collect="always"
       xlink:href="#linearGradient15806"
       id="linearGradient16789"
       x1="91.297638"
       y1="486.99872"
       x2="233.59775"
       y2="486.99872"
       gradientUnits="userSpaceOnUse" />
    <linearGradient
       inkscape:collect="always"
       xlink:href="#linearGradient15806"
       id="linearGradient16797"
       x1="419.06985"
       y1="482.47858"
       x2="561.36993"
       y2="482.47858"
       gradientUnits="userSpaceOnUse" />
    <radialGradient
       inkscape:collect="always"
       xlink:href="#linearGradient17783"
       id="radialGradient17789"
       cx="274.58334"
       cy="100.83334"
       fx="274.58334"
       fy="100.83334"
       r="71.150063"
       gradientTransform="matrix(0.6667845,0,0,1.2043458,49.937148,-9.1892913)"
       gradientUnits="userSpaceOnUse" />
    <linearGradient
       inkscape:collect="always"
       xlink:href="#linearGradient15806"
       id="linearGradient19830"
       gradientUnits="userSpaceOnUse"
       x1="91.297638"
       y1="486.99872"
       x2="233.59775"
       y2="486.99872" />
    <linearGradient
       inkscape:collect="always"
       xlink:href="#linearGradient15806"
       id="linearGradient19832"
       gradientUnits="userSpaceOnUse"
       x1="419.06985"
       y1="482.47858"
       x2="561.36993"
       y2="482.47858" />
    <linearGradient
       inkscape:collect="always"
       xlink:href="#linearGradient15806"
       id="linearGradient19834"
       gradientUnits="userSpaceOnUse"
       x1="463.50424"
       y1="100.34256"
       x2="605.80438"
       y2="100.34256"
       gradientTransform="matrix(1.331,0,0,1.331,-142.00067,-8.3851014)" />
    <linearGradient
       inkscape:collect="always"
       xlink:href="#linearGradient15806"
       id="linearGradient3168"
       gradientUnits="userSpaceOnUse"
       gradientTransform="matrix(1.331,0,0,1.331,-498.38906,-70.027497)"
       x1="463.50424"
       y1="100.34256"
       x2="605.80438"
       y2="100.34256" />
    <linearGradient
       inkscape:collect="always"
       xlink:href="#linearGradient15806"
       id="linearGradient3176"
       gradientUnits="userSpaceOnUse"
       gradientTransform="matrix(1.331,0,0,1.331,-603.19578,312.23191)"
       x1="463.50424"
       y1="100.34256"
       x2="605.80438"
       y2="100.34256" />
    <linearGradient
       inkscape:collect="always"
       xlink:href="#linearGradient15806"
       id="linearGradient3184"
       gradientUnits="userSpaceOnUse"
       gradientTransform="matrix(1.331,0,0,1.331,-232.38774,346.61492)"
       x1="463.50424"
       y1="100.34256"
       x2="605.80438"
       y2="100.34256" />
    <radialGradient
       inkscape:collect="always"
       xlink:href="#linearGradient15806"
       id="radialGradient12418"
       cx="333.7218"
       cy="274.53955"
       fx="333.7218"
       fy="274.53955"
       r="149.61658"
       gradientTransform="matrix(2.3283349,1.2718017e-7,-1.0462897e-7,1.9462243,-442.11577,-261.77607)"
       gradientUnits="userSpaceOnUse" />
  </defs>
  <metadata
     id="metadata2657">
    <rdf:RDF>
      <cc:Work
         rdf:about="">
        <dc:format>image/svg+xml</dc:format>
        <dc:type
           rdf:resource="http://purl.org/dc/dcmitype/StillImage" />
      </cc:Work>
    </rdf:RDF>
  </metadata>
  <g
     inkscape:label="Layer 1"
     id="layer1"
     inkscape:groupmode="layer"
     transform="translate(-13.822926,30.909002)">
    <path
       style="opacity:1;color:#000000;fill:#677821;fill-opacity:1;fill-rule:nonzero;stroke:url(#linearGradient19834);stroke-width:1.00015068;stroke-linecap:butt;stroke-linejoin:miter;marker:none;marker-start:none;marker-mid:none;marker-end:none;stroke-miterlimit:4;stroke-dasharray:none;stroke-dashoffset:0;stroke-opacity:1;visibility:visible;display:inline;overflow:visible;enable-background:accumulate"
       d="M 569.6242,31.891489 C 517.7124,31.891489 475.58906,73.676279 475.58906,125.17086 C 475.58906,176.66544 517.71241,218.45023 569.6242,218.45022 C 621.53599,218.45022 663.65933,176.66544 663.65934,125.17086 C 663.65934,73.676279 621.53599,31.891501 569.6242,31.891489 z M 567.69123,50.552763 C 568.33619,50.536537 568.9753,50.552763 569.6242,50.552763 C 611.15366,50.552763 644.84685,83.97519 644.84685,125.17086 C 644.84684,166.36652 611.15363,199.78894 569.6242,199.78894 C 528.09477,199.78894 494.40154,166.36652 494.40154,125.17086 C 494.40154,84.618874 527.05759,51.57509 567.69123,50.552763 z "
       id="path2785" />
    <path
       style="fill:#89a02c;fill-opacity:1;fill-rule:evenodd;stroke:#000000;stroke-width:2;stroke-linecap:butt;stroke-linejoin:miter;stroke-miterlimit:4;stroke-dasharray:none;stroke-opacity:1"
       d="M 486.15631,197.76381 L 422.93206,204.89559 L 443.00079,222.10934 L 333.20905,246.43897 L 316.32148,183.81184 L 336.73245,168.31691 L 274.93945,157.46532 L 282.22021,209.72227 L 304.1869,193.02159 L 324.71484,258.62456 L 321.69677,308.47005 L 214.79187,332.86391 L 192.14065,316.54805 L 185.51331,365.59826 L 244.226,354.07967 L 227.54874,342.07365 L 330.12873,320.70695 L 368.68339,361.44983 L 350.10815,372.58362 L 409.10086,387.95029 L 407.32734,338.23308 L 382.24921,353.2919 L 338.00065,307.93132 L 340.98762,259.2659 L 454.41973,231.90911 L 474.30177,248.94329 L 484.22724,206.43482 L 484.25834,206.43482 L 484.25834,206.30655 L 485.56514,200.53442 L 485.50291,200.53442 L 486.15631,197.76381 z "
       id="rect16802"
       sodipodi:nodetypes="cccccccccccccccccccccccccccccccc"
       inkscape:export-xdpi="90"
       inkscape:export-ydpi="90" />
    <path
       style="opacity:1;color:#000000;fill:#c87137;fill-opacity:1;fill-rule:nonzero;stroke:#f7f100;stroke-width:1.00015068;stroke-linecap:butt;stroke-linejoin:miter;marker:none;marker-start:none;marker-mid:none;marker-end:none;stroke-miterlimit:4;stroke-dasharray:none;stroke-dashoffset:0;stroke-opacity:1;visibility:visible;display:inline;overflow:visible;enable-background:accumulate"
       d="M 569.55324,31.404624 C 517.64144,31.404624 475.51811,73.1894 475.5181,124.68399 C 475.5181,176.17856 517.64146,217.96337 569.55324,217.96336 C 621.46502,217.96336 663.58836,176.17856 663.58837,124.68399 C 663.58837,73.1894 621.46503,31.404637 569.55324,31.404624 z M 569.3275,31.234561 C 569.69518,31.218323 569.25498,31.389276 569.69189,31.373198 C 601.68648,30.196089 663.20692,81.919722 663.20692,123.1154 C 663.20691,164.31106 590.69087,210.28226 549.16146,210.28226 C 507.63202,210.28226 475.67286,112.69526 506.48722,70.175191 C 517.3615,55.170016 525.2991,37.556665 569.3275,31.234561 z "
       id="path18771"
       sodipodi:nodetypes="csssccssssc" />
    <path
       style="opacity:1;color:#000000;fill:#ccff00;fill-opacity:1;fill-rule:nonzero;stroke:url(#linearGradient3168);stroke-width:1;stroke-linecap:butt;stroke-linejoin:miter;marker:none;marker-start:none;marker-mid:none;marker-end:none;stroke-miterlimit:4;stroke-dasharray:none;stroke-dashoffset:0;stroke-opacity:1;visibility:visible;display:inline;overflow:visible;enable-background:accumulate"
       d="M 213.23582,-29.750907 C 161.32402,-29.750907 119.20068,12.033884 119.20068,63.52846 C 119.20068,115.02304 161.32403,156.80783 213.23582,156.80782 C 265.14761,156.80782 307.27094,115.02304 307.27095,63.52846 C 307.27095,12.033884 265.14761,-29.750897 213.23582,-29.750907 z M 211.30285,-11.089637 C 211.94781,-11.105857 212.58692,-11.089637 213.23582,-11.089637 C 254.76528,-11.089637 288.45846,22.332793 288.45846,63.52846 C 288.45845,104.72412 254.76525,138.14654 213.23582,138.14654 C 171.70639,138.14654 138.01316,104.72412 138.01316,63.52846 C 138.01316,22.976473 170.66921,-10.067307 211.30285,-11.089637 z "
       id="path3162" />
    <path
       style="opacity:1;color:#000000;fill:#aa0000;fill-opacity:1;fill-rule:nonzero;stroke:#f7f100;stroke-width:1.00015068;stroke-linecap:butt;stroke-linejoin:miter;marker:none;marker-start:none;marker-mid:none;marker-end:none;stroke-miterlimit:4;stroke-dasharray:none;stroke-dashoffset:0;stroke-opacity:1;visibility:visible;display:inline;overflow:visible;enable-background:accumulate"
       d="M 213.16486,-30.237777 C 161.25306,-30.237777 119.12973,11.547004 119.12972,63.04159 C 119.12972,114.53616 161.25308,156.32097 213.16486,156.32096 C 265.07664,156.32096 307.19997,114.53616 307.19998,63.04159 C 307.19998,11.547004 265.07665,-30.237757 213.16486,-30.237777 z M 212.93912,-30.407837 C 213.3068,-30.424077 212.8666,-30.253127 213.30351,-30.269197 C 245.2981,-31.446307 306.81853,20.277323 306.81853,61.473 C 306.81852,102.66866 234.30249,148.63986 192.77308,148.63986 C 151.24364,148.63986 119.28448,51.05286 150.09884,8.5327935 C 160.97312,-6.4723865 168.91072,-24.085737 212.93912,-30.407837 z "
       id="path3166"
       sodipodi:nodetypes="csssccssssc" />
    <path
       style="opacity:1;color:#000000;fill:#c8ab37;fill-opacity:1;fill-rule:nonzero;stroke:url(#linearGradient3176);stroke-width:1.00015068;stroke-linecap:butt;stroke-linejoin:miter;marker:none;marker-start:none;marker-mid:none;marker-end:none;stroke-miterlimit:4;stroke-dasharray:none;stroke-dashoffset:0;stroke-opacity:1;visibility:visible;display:inline;overflow:visible;enable-background:accumulate"
       d="M 108.4291,352.5085 C 56.517301,352.5085 14.393961,394.29329 14.393961,445.78786 C 14.393961,497.28245 56.517311,539.06724 108.4291,539.06723 C 160.34089,539.06723 202.46422,497.28245 202.46423,445.78786 C 202.46423,394.29329 160.34089,352.50851 108.4291,352.5085 z M 106.49613,371.16977 C 107.14109,371.15355 107.7802,371.16977 108.4291,371.16977 C 149.95856,371.16977 183.65174,404.5922 183.65174,445.78786 C 183.65173,486.98353 149.95853,520.40595 108.4291,520.40595 C 66.899671,520.40595 33.206441,486.98353 33.206441,445.78786 C 33.206441,405.23588 65.862491,372.1921 106.49613,371.16977 z "
       id="path3170" />
    <path
       style="fill:#338000;fill-opacity:1;fill-rule:evenodd;stroke:url(#radialGradient12418);stroke-width:1.99999988;stroke-linecap:butt;stroke-linejoin:miter;stroke-miterlimit:4;stroke-dasharray:none;stroke-opacity:1"
       d="M 485.04057,197.8979 L 423.98639,204.8633 L 443.36628,221.67546 L 334.6408,246.02676 L 317.49952,183.19402 L 337.20992,168.06057 L 277.53789,157.46214 L 284.56873,208.49995 L 305.78146,192.18891 L 326.43813,257.92808 L 323.52364,306.61069 L 215.73588,331.57786 L 193.86213,315.64263 L 187.46226,363.54853 L 244.15971,352.29866 L 228.05487,340.57273 L 331.66621,318.56211 L 371.17364,360.06809 L 353.23596,370.94212 L 410.20384,385.9503 L 408.4912,337.39297 L 384.27385,352.10048 L 339.26792,306.08453 L 342.15238,258.55445 L 454.39329,231.24662 L 473.59291,247.88339 L 483.17769,206.36662 L 483.20774,206.36662 L 483.20774,206.24134 L 484.46969,200.60389 L 484.40959,200.60389 L 485.04057,197.8979 z "
       id="path11427"
       sodipodi:nodetypes="cccccccccccccccccccccccccccccccc"
       inkscape:export-xdpi="90"
       inkscape:export-ydpi="90" />
    <path
       style="opacity:1;color:#000000;fill:#d45500;fill-opacity:1;fill-rule:nonzero;stroke:#f7f100;stroke-width:1.00015068;stroke-linecap:butt;stroke-linejoin:miter;marker:none;marker-start:none;marker-mid:none;marker-end:none;stroke-miterlimit:4;stroke-dasharray:none;stroke-dashoffset:0;stroke-opacity:1;visibility:visible;display:inline;overflow:visible;enable-background:accumulate"
       d="M 108.35814,352.02163 C 56.446341,352.02163 14.323011,393.80641 14.323001,445.30099 C 14.323001,496.79557 56.446361,538.58038 108.35814,538.58037 C 160.26992,538.58037 202.39325,496.79557 202.39326,445.30099 C 202.39326,393.80641 160.26993,352.02165 108.35814,352.02163 z M 108.1324,351.85157 C 108.50008,351.83533 108.05988,352.00628 108.49679,351.99021 C 140.49138,350.8131 202.01181,402.53673 202.01181,443.7324 C 202.0118,484.92806 129.49577,530.89927 87.966359,530.89927 C 46.436921,530.89927 14.477761,433.31226 45.292121,390.7922 C 56.166401,375.78702 64.104001,358.17367 108.1324,351.85157 z "
       id="path3174"
       sodipodi:nodetypes="csssccssssc" />
    <path
       style="opacity:1;color:#000000;fill:#cdde87;fill-opacity:1;fill-rule:nonzero;stroke:url(#linearGradient3184);stroke-width:1.00015068;stroke-linecap:butt;stroke-linejoin:miter;marker:none;marker-start:none;marker-mid:none;marker-end:none;stroke-miterlimit:4;stroke-dasharray:none;stroke-dashoffset:0;stroke-opacity:1;visibility:visible;display:inline;overflow:visible;enable-background:accumulate"
       d="M 479.23714,386.89151 C 427.32534,386.89151 385.202,428.6763 385.202,480.17088 C 385.202,531.66546 427.32535,573.45025 479.23714,573.45024 C 531.14893,573.45024 573.27226,531.66546 573.27227,480.17088 C 573.27227,428.6763 531.14893,386.89152 479.23714,386.89151 z M 477.30417,405.55278 C 477.94913,405.53656 478.58824,405.55278 479.23714,405.55278 C 520.7666,405.55278 554.45978,438.97521 554.45978,480.17088 C 554.45977,521.36654 520.76657,554.78896 479.23714,554.78896 C 437.70771,554.78896 404.01448,521.36654 404.01448,480.17088 C 404.01448,439.61889 436.67053,406.57511 477.30417,405.55278 z "
       id="path3178" />
    <path
       style="opacity:1;color:#000000;fill:#554400;fill-opacity:1;fill-rule:nonzero;stroke:#f7f100;stroke-width:1.00015068;stroke-linecap:butt;stroke-linejoin:miter;marker:none;marker-start:none;marker-mid:none;marker-end:none;stroke-miterlimit:4;stroke-dasharray:none;stroke-dashoffset:0;stroke-opacity:1;visibility:visible;display:inline;overflow:visible;enable-background:accumulate"
       d="M 479.16618,386.40464 C 427.25438,386.40464 385.13105,428.18942 385.13104,479.68401 C 385.13104,531.17858 427.2544,572.96339 479.16618,572.96338 C 531.07796,572.96338 573.20129,531.17858 573.2013,479.68401 C 573.2013,428.18942 531.07797,386.40466 479.16618,386.40464 z M 478.94044,386.23458 C 479.30812,386.21834 478.86792,386.38929 479.30483,386.37322 C 511.29942,385.19611 572.81985,436.91974 572.81985,478.11542 C 572.81984,519.31108 500.30381,565.28228 458.7744,565.28228 C 417.24496,565.28228 385.2858,467.69528 416.10016,425.17521 C 426.97444,410.17003 434.91204,392.55668 478.94044,386.23458 z "
       id="path3182"
       sodipodi:nodetypes="csssccssssc" />
    <path
       id="path5500"
       d="M 595.1094,97.752387 C 596.2764,99.887267 592.58184,101.01002 593.52207,102.30422 C 594.46783,103.59289 593.87604,105.36273 593.16257,105.60056 C 591.10512,106.28637 591.50334,105.2853 590.30316,105.83285 C 589.10852,106.38593 589.66159,104.82072 587.72582,105.09726 C 585.79005,105.37379 586.34313,103.62054 585.32547,103.9911 C 584.30781,104.35613 585.50798,102.97897 583.66624,102.24338 C 581.82449,101.50779 579.42414,100.67817 579.42414,101.41929 C 579.42414,102.15489 578.04144,101.32527 576.8468,101.23678 C 575.64662,101.14275 577.12333,100.77772 576.10567,100.31314 C 575.08801,99.854077 573.15777,99.206977 571.77508,97.829817 C 570.39239,96.452657 570.29836,97.553277 568.45662,96.447127 C 567.05733,95.611977 568.91567,95.340977 570.11585,93.499227 C 571.31603,91.657477 570.20987,92.304577 570.5749,91.292447 C 570.94546,90.274787 571.71977,89.716177 571.71977,89.716177 C 571.40452,89.544727 571.10032,89.262657 570.7906,88.831257 C 569.29176,86.746157 567.72102,87.525997 566.61487,86.032687 C 565.92905,85.103517 563.67803,86.032687 562.50551,83.687637 C 561.20578,81.082647 562.43914,81.608067 560.9403,79.716547 C 558.75011,76.951157 563.68909,81.160077 561.78651,76.591657 C 560.02772,72.355087 557.87625,73.140457 559.82861,70.928147 C 554.80667,62.067857 554.10427,66.044477 552.08,64.285697 C 552.42291,65.657327 553.40739,64.617537 554.4527,66.824317 C 555.49802,69.036627 554.78455,69.235737 553.47376,69.235737 C 549.62987,69.235737 551.58223,70.795407 546.0404,69.622887 C 541.3669,68.638407 543.38563,70.922617 543.82256,71.055357 C 541.99741,71.641617 544.66877,72.227877 544.60793,73.466777 C 544.50285,75.424667 546.2561,73.029837 546.82577,73.665877 C 548.06466,75.031977 546.30035,76.464447 548.71729,75.745447 C 551.12871,75.031977 548.25824,77.570607 549.88982,77.957757 C 551.60989,78.372567 547.00275,79.572747 549.36992,81.475327 C 552.04129,83.621267 548.51266,81.995217 548.45182,86.685317 C 548.38545,92.348827 544.99508,90.003777 545.45414,92.608767 C 545.50945,92.912967 544.39223,95.849807 541.73746,97.298867 C 538.86699,98.858547 540.95209,95.081027 538.92783,97.232497 C 537.4843,98.775577 535.6702,100.68923 536.58278,101.59628 C 537.49536,102.50885 538.86699,101.78985 538.47431,104.00769 C 538.08715,106.22 539.71873,106.22 542.58367,108.89136 C 546.57689,112.60804 541.59366,111.09261 543.62345,112.14899 C 545.25503,112.9952 544.40882,112.4753 543.29714,112.9952 C 540.74192,114.19537 543.53496,111.57379 541.01293,112.66888 C 539.51409,113.32151 538.46877,112.66888 537.29625,113.38235 C 536.1182,114.09582 536.51088,112.46977 535.5983,113.57593 C 534.68573,114.68208 534.65254,113.02285 533.82293,115.02499 C 535.79188,116.11455 534.41472,117.07138 537.21329,116.42981 C 536.74871,116.96076 535.83613,116.96076 536.68234,118.26602 C 537.40687,119.37218 536.45557,121.8389 538.18117,120.80465 C 538.83381,120.41196 539.61918,121.2637 540.59812,120.67744 C 540.1446,121.65638 540.72533,121.91633 539.75191,122.56343 C 538.7785,123.21053 537.79402,122.30348 537.40134,122.69064 C 537.01418,123.08332 536.62703,121.97164 536.36708,122.49706 C 536.10714,123.01695 536.0297,123.53685 537.33497,124.32222 C 538.64023,125.10759 540.91891,130.18483 543.5958,130.2512 C 544.92872,130.28439 543.76172,129.82533 546.07359,128.81873 C 547.11337,128.35968 547.77153,127.45263 547.25164,125.95379 C 546.72622,124.45495 547.57796,124.0678 547.97064,123.02249 C 548.16422,124.26138 547.43415,124.72596 550.11658,123.96825 C 548.61774,124.7149 547.90427,124.77574 548.16422,125.88742 C 548.42416,126.99358 548.98277,126.74469 548.98277,126.74469 C 548.98277,126.74469 548.11997,128.53113 550.06127,128.0223 C 548.80579,128.94594 549.52479,129.33863 550.5701,131.48457 C 549.85663,132.1372 549.72389,134.2223 550.11658,134.8694 C 550.50373,135.52203 550.05021,136.88813 551.02916,136.16913 C 552.0081,135.45013 550.05021,136.42907 551.02916,139.29401 C 552.0081,142.15895 552.39526,149.3213 554.87304,151.9263 C 557.35083,154.53129 556.81434,158.37517 558.87732,160.84743 C 559.68481,161.82085 557.4172,158.8287 559.5742,164.03868 C 561.11728,167.78855 564.16474,170.61477 564.33066,175.4376 C 564.35831,176.16213 565.23771,174.91771 565.8295,178.36891 C 566.21665,180.64759 566.5485,179.73501 567.32834,181.88648 C 568.10818,184.03795 569.21986,184.16516 570.06607,185.01137 C 571.69765,186.63742 571.57044,184.92288 572.67659,184.61868 C 575.02164,183.96605 572.09033,182.08006 576.06143,180.64759 C 575.73511,179.66864 573.25733,180.18854 574.82253,178.30254 C 576.38774,176.41655 574.29711,174.91771 576.45411,175.69755 C 578.60558,176.48292 576.91317,174.5914 577.30032,172.76624 C 577.68747,170.94109 576.38774,170.48756 576.84127,168.60157 C 577.30032,166.71558 578.3401,167.1691 578.40647,164.03868 C 578.47284,160.9138 579.6509,161.76001 577.6211,160.39391 C 575.60237,159.02781 579.18631,160.39391 577.36116,155.64297 C 575.45304,150.68187 578.3567,149.8246 579.11994,150.30025 C 580.20951,150.98053 579.45179,149.19409 580.55794,148.6742 C 581.6641,148.15431 580.09889,147.56805 581.99041,147.30257 C 583.88194,147.03709 583.55562,146.13005 584.27462,145.21747 C 584.99362,144.30489 582.44947,144.76395 584.73368,143.59142 C 587.01235,142.4189 586.6971,140.54397 587.9913,139.48759 C 591.25446,136.82176 588.38398,135.12381 592.16703,132.97787 C 590.86177,132.9115 592.42698,131.60624 592.62056,132.65156 C 595.49656,131.93809 594.95454,129.63176 595.62376,128.7413 C 596.60271,127.44157 594.05856,125.80999 595.43019,125.22373 C 596.79629,124.63747 597.44339,124.38305 597.6425,123.49813 C 598.68228,124.50473 597.97434,121.767 598.55507,122.41963 C 599.14133,123.07226 598.29513,124.63194 599.0805,124.5711 C 599.86587,124.51026 599.86587,123.26584 600.38023,123.19947 C 600.90565,123.1331 600.20324,124.29456 600.95543,124.01249 C 601.25409,118.25496 598.70993,119.55469 599.81609,117.99501 C 600.68442,116.77271 599.2962,117.80144 599.68888,115.64997 C 600.08157,113.4985 596.09388,113.73632 596.62483,111.09261 C 597.01199,109.13472 597.99093,109.66014 598.12367,109.00751 C 598.38915,107.70778 593.62716,106.20894 593.75436,105.74989 C 593.88157,105.29636 595.91136,105.10279 595.9722,103.92473 C 596.03857,102.75221 596.08835,100.58415 596.49763,101.71242 C 598.45552,107.18236 597.73652,102.09958 598.70993,103.66479 C 599.18558,104.4225 598.48317,106.20341 599.42894,105.03089 C 600.72867,103.40484 600.40788,107.9622 603.27282,109.39466 C 606.14329,110.82713 610.02589,108.57058 611.09886,110.1745 C 611.49155,110.76077 609.72723,111.60697 610.25265,112.84587 C 610.97165,114.53828 606.27603,112.2596 606.27603,115.97075 C 606.27603,117.18752 607.2771,116.60126 607.64213,117.20964 C 608.36113,118.37664 607.90208,116.42428 608.74828,116.81696 C 609.59449,117.20964 609.46728,115.71081 610.31349,117.07691 C 611.1597,118.44301 611.92848,123.78573 613.31117,124.31115 C 614.69386,124.82552 615.14186,123.33221 614.87638,119.87548 C 614.60537,116.29707 617.53115,120.92079 616.83427,116.75059 C 616.38628,114.06817 618.14506,112.96201 616.11527,109.84819 C 615.01465,108.16683 616.84533,108.2332 616.56879,106.39146 C 616.36416,104.98111 619.14613,103.49333 621.33079,99.748997 C 622.24337,98.183787 625.63373,100.26889 623.68137,97.990207 C 621.87834,95.894047 626.70117,97.497977 622.28208,93.914037 C 621.8175,94.185037 621.61286,94.721527 620.63944,94.146327 C 619.6605,93.560067 617.90171,95.318847 619.59966,92.841067 C 616.86193,93.366487 620.68369,90.313497 616.72919,92.000387 C 613.66514,93.300117 613.66514,91.414127 612.09993,92.193967 C 610.53472,92.973807 611.90635,93.432857 608.96952,94.666217 C 606.94525,95.517957 605.70083,96.275677 604.93758,96.447127 C 605.06479,97.525627 605.85016,97.575407 606.90654,97.459257 C 607.96291,97.343107 607.61448,99.101897 607.73062,100.04213 C 607.84677,100.98236 604.66658,99.693687 603.72634,100.3961 C 602.78058,101.09851 601.60253,100.74454 600.90012,99.925977 C 600.19218,99.101897 598.09602,100.18593 597.10048,98.930447 C 597.11707,95.318847 597.17238,95.706007 596.12706,95.833207 C 595.13153,95.993607 595.02644,96.131877 595.1094,97.752387 z "
       clip-rule="evenodd"
       i:knockout="Off"
       style="fill:#c83737;fill-rule:evenodd;stroke:#ab0000;stroke-opacity:1" />
    <path
       id="path5502"
       d="M 221.46433,16.998635 C 224.96178,21.527524 229.50251,18.777 233.53344,21.171861 C 236.60406,22.997641 234.76644,25.013107 236.22469,24.906399 C 238.05046,24.775983 235.37108,26.471348 238.03861,28.048152 C 240.89583,29.743517 238.84481,31.486316 240.01852,33.110534 C 240.51647,33.798178 240.88397,34.224986 241.16851,34.497651 C 240.32678,36.868804 239.16491,34.296112 238.97522,35.576522 C 238.70253,37.532717 236.87673,33.893013 234.92056,34.734776 C 232.96439,35.576522 232.96439,34.319819 232.82212,35.718789 C 232.67985,37.117762 231.69579,34.734776 229.8819,36.975492 C 228.06795,39.204373 231.83809,38.374482 229.8819,41.018299 C 227.9257,43.662115 228.19838,42.002315 226.79944,44.64613 C 225.40045,47.301825 224.14373,44.515715 222.74475,46.744595 C 221.34578,48.973457 221.34578,46.744595 219.9468,48.428107 C 218.54786,50.099765 217.00661,47.586343 215.33494,49.400268 C 213.66332,51.214194 214.22051,48.985332 213.10606,50.929653 C 211.99165,52.885851 210.59266,48.428107 211.00762,51.48688 C 211.42257,54.557508 210.02357,55.399251 210.4504,57.213177 C 210.87721,59.027103 207.79475,60.841029 211.84936,63.911657 C 215.90403,66.982281 212.54886,63.354429 214.78957,64.196174 C 217.01847,65.026088 215.48907,65.310628 218.14473,66.152371 C 220.80042,66.994137 221.08494,68.381252 219.82826,68.523522 C 218.57155,68.665793 218.14473,70.337426 216.75761,69.222999 C 215.35864,68.108568 214.24424,68.381252 212.98753,68.523522 C 217.88394,69.353414 215.6432,71.036925 219.97053,69.507539 C 217.58753,74.807049 217.03032,71.606005 216.33081,73.135391 C 215.63135,74.664778 215.07412,73.550325 213.67512,72.293623 C 215.63135,76.206018 209.37152,73.004974 208.3875,73.98899 C 211.29215,74.949295 211.5767,74.949295 211.01949,76.063747 C 210.46226,77.178178 212.00349,77.047762 210.17769,78.434877 C 208.35193,79.821994 211.5767,81.220963 209.89317,83.177162 C 208.67206,84.599839 210.20143,86.022519 209.1937,89.045728 C 209.05142,89.460683 209.05142,92.673582 206.39575,92.673582 C 203.74007,92.673582 202.3411,90.717385 201.6416,92.258626 C 200.94212,93.788011 200.94212,90.717385 199.68542,93.930281 C 198.42871,97.143178 200.3849,95.044711 199.54314,96.716367 C 198.70141,98.399877 196.28283,95.661209 193.80501,96.989053 C 190.1653,98.945251 191.00705,95.459668 189.05086,93.776157 C 187.09465,92.092647 187.36737,91.819961 186.9524,90.705529 C 189.4658,92.1045 190.1653,90.432844 188.49362,89.448832 C 186.81012,88.464794 188.49362,88.749333 186.53745,87.492635 C 184.56941,86.235934 184.29674,84.422008 183.59725,82.323542 C 182.89776,80.225095 183.18229,84.552424 182.19826,80.92457 C 181.59365,78.695709 180.65701,81.766336 180.79929,79.395185 C 180.90601,77.58128 179.54257,79.810138 179.12763,76.739514 C 178.70085,73.668886 175.63023,74.641046 178.57045,73.668886 C 179.82714,74.747756 180.989,74.261675 179.68484,71.854961 C 178.70085,70.041057 180.09984,70.183303 179.9694,68.642063 C 179.82714,67.112677 184.72354,66.970429 182.19826,60.686906 C 184.15446,59.845139 184.15446,60.129679 184.15446,58.315753 C 184.15446,56.501828 182.05602,56.501828 182.19826,54.545654 C 182.34053,52.589455 181.21425,52.873996 181.64105,49.376558 C 182.06787,45.879123 180.79929,46.305934 180.79929,46.305934 C 184.85394,45.476042 183.04002,41.705919 188.63587,41.42138 C 194.23181,41.148714 190.44983,38.635293 192.26376,36.39458 C 194.08953,34.165696 192.12149,32.49404 193.80501,30.81053 C 194.78902,29.826517 195.90348,31.083217 197.5751,30.395596 C 199.25862,29.696099 196.46066,27.040427 201.2148,24.396612 C 205.96894,21.740919 201.58234,23.708969 207.09523,20.484221 C 213.52101,16.714118 210.16583,22.155874 214.91999,20.484221 C 218.41742,19.26308 215.72621,19.654328 221.46433,16.998635 z "
       clip-rule="evenodd"
       i:knockout="Off"
       style="fill:#c87137;fill-rule:evenodd;stroke:#ab0000;stroke-opacity:1" />
    <path
       id="path5504"
       d="M 74.246093,443.23184 C 73.550437,446.12228 73.668016,447.92514 74.931969,447.46462 C 76.205721,447.00411 76.901379,451.1585 76.901379,451.61902 C 76.901379,453.02994 76.666222,453.01035 75.980362,455.19531 C 75.284688,457.39009 74.941769,457.73301 76.558458,457.15495 C 77.812599,456.70424 75.343486,458.9088 75.637423,459.34974 C 79.527276,465.10119 77.646036,468.97145 77.83221,471.8031 C 78.175132,476.87852 74.745797,476.69234 76.244909,481.42484 C 77.401084,480.03351 77.136536,479.29864 78.518071,480.5724 C 79.909402,481.83635 79.909402,480.68997 80.947995,480.91534 C 81.986593,481.14067 81.526093,480.45483 82.917423,480.68997 C 84.29894,480.91534 83.83844,479.65138 84.994615,479.42601 C 86.150788,479.20066 84.073596,480.68997 87.306961,480.58221 C 90.540344,480.47441 89.854464,484.50143 92.274592,483.92334 C 93.646341,483.60001 92.509743,486.00054 93.901068,486.69622 C 95.292415,487.39187 93.901068,488.31289 95.165055,489.69444 C 96.438805,491.07597 95.037675,491.85982 97.810537,493.25114 C 100.0151,492.67304 100.36783,488.31289 101.64159,488.08753 C 102.90553,487.86219 101.98453,486.93137 103.48361,486.93137 C 104.98274,486.93137 104.6398,489.12614 107.41266,490.50767 C 108.91178,489.24373 110.76361,489.58665 112.84081,489.58665 C 114.918,489.58665 113.30132,487.96998 115.38831,487.96998 C 117.4655,487.96998 114.92782,489.46908 116.42691,489.46908 C 117.92602,489.46908 134.91593,489.46908 134.91593,489.46908 L 137.6888,481.39543 C 135.98393,480.37643 134.6514,480.25884 134.57298,476.32002 C 134.45541,471.12705 133.29923,415.97352 133.29923,415.97352 L 140.44206,415.97352 L 119.48393,396.96523 L 119.48393,407.01806 L 100.79895,407.01806 C 100.79895,407.01806 100.34825,420.57865 100.12288,424.96818 C 99.897497,429.34794 94.606555,424.50769 94.606555,432.34617 C 94.606555,440.18466 94.606555,440.99786 94.606555,440.99786 C 94.606555,440.99786 80.605057,440.99786 77.714632,440.99786 C 74.794799,441.00769 75.020141,441.46817 74.246093,443.23184 z "
       clip-rule="evenodd"
       i:knockout="Off"
       style="fill:#803300;fill-rule:evenodd;stroke:#ab0000;stroke-opacity:1" />
    <path
       id="path5506"
       d="M 465.37753,499.22765 C 466.16141,499.14926 466.69052,499.30603 467.10204,499.11007 C 467.50374,498.90429 468.04261,498.74752 467.67029,499.11007 C 467.3078,499.4726 467.54293,499.62936 467.75848,499.72735 C 467.96427,499.80571 467.99364,500.05066 468.32679,500.01149 C 468.65991,499.9527 468.77749,500.53078 469.14982,500.37403 C 469.51235,500.19764 469.79648,500.27603 470.00228,500.33482 C 470.20801,500.37403 470.58035,500.15845 470.12966,500.01149 C 469.67892,499.83512 469.63973,499.59018 469.72792,499.39419 C 469.80629,499.18845 469.2772,499.21785 469.44375,498.81612 C 469.60054,498.3948 469.89448,498.49276 469.80629,498.81612 C 469.72792,499.13944 470.09044,499.10027 470.05124,499.43341 C 470.00228,499.75673 470.28639,499.87432 470.54114,499.9527 C 470.7763,500.05066 470.90368,499.79592 470.74692,499.68813 C 470.58035,499.55098 471.19761,499.44319 470.91348,499.26681 C 470.62934,499.11007 471.19761,498.64955 470.8743,498.64955 C 470.55094,498.64955 470.91348,498.03228 470.55094,498.13025 C 470.17861,498.20865 470.10026,497.63053 469.90428,497.8069 C 469.6985,497.9637 469.08125,498.24782 468.91466,497.9637 C 468.7481,497.67955 469.81609,497.84612 469.60054,497.4248 C 469.39477,497.02305 469.7377,496.90548 469.89448,496.44498 C 470.06105,496.00405 470.66852,495.10264 471.15843,494.99485 C 471.64834,494.85767 473.8431,495.07326 474.18605,494.61272 C 474.50938,494.17181 475.61658,494.2502 475.64596,493.92687 C 475.67536,493.60353 476.09668,493.92687 476.04769,493.52515 C 476.00848,493.12344 476.29263,493.34878 476.62578,493.02545 C 476.95891,492.70209 478.71275,490.75228 478.95771,490.63472 C 479.19287,490.49754 478.75196,490.31135 479.28105,489.98803 C 479.81016,489.66469 480.1335,489.44913 480.30006,489.70389 C 480.46663,489.95863 480.83895,489.78228 480.6724,489.52752 C 480.50581,489.30218 480.22169,489.20418 480.99572,488.84165 C 481.76976,488.47912 481.89714,488.38115 482.67121,488.0186 C 483.44527,487.65609 482.83779,487.37194 483.84699,486.81345 C 484.86599,486.23535 485.68899,485.62788 486.12993,485.16738 C 486.58063,484.72646 486.74722,484.14838 487.07055,483.86422 C 487.40368,483.58009 486.99216,483.74664 486.86479,483.54089 C 486.73741,483.34492 487.22732,483.21755 486.86479,482.81583 C 486.50225,482.4141 486.16911,482.81583 486.77663,482.31613 C 487.39388,481.83603 487.14893,481.73803 487.27631,481.9536 C 487.40368,482.16914 487.40368,481.91439 487.8936,481.59106 C 488.38348,481.26771 488.70683,480.86601 488.12872,481.15014 C 487.55065,481.41469 487.35469,481.34611 486.8256,481.51267 C 486.2867,481.66943 485.1795,481.70866 486.09073,481.51267 C 486.99216,481.30691 487.63885,481.3755 487.67803,481.09136 C 487.71721,480.82679 486.95297,480.72882 487.44286,480.76801 C 487.93278,480.82679 487.71721,481.01296 488.08955,480.57207 C 488.45208,480.11154 488.3247,480.3663 487.76622,480.39569 C 487.18811,480.4349 487.67803,479.74901 486.95297,479.99397 C 486.21811,480.23892 486.86479,479.17095 486.33569,479.53347 C 485.80659,479.91559 487.3253,479.05337 486.70801,478.80842 C 486.09073,478.56344 486.54144,479.3081 485.80659,479.63143 C 485.07174,479.95478 484.99336,479.99397 485.18932,480.20953 C 485.39506,480.4055 484.98355,480.00377 484.62102,480.11154 C 484.24869,480.24871 484.04293,480.20953 483.60204,480.53287 C 483.1611,480.85619 483.11212,481.21874 482.77896,480.97378 C 482.45565,480.72882 482.73979,480.72882 482.70061,480.32712 C 482.66138,479.92539 483.11212,480.32712 483.06314,479.8274 C 483.02392,479.3473 483.30808,479.14154 482.82799,479.18075 C 482.32828,479.21993 482.17151,479.21993 482.41647,478.73982 C 482.66138,478.2401 482.66138,477.95596 483.31789,478.01477 C 483.96455,478.05393 484.50344,478.2401 484.50344,478.09312 C 484.50344,477.91678 483.76858,477.73059 483.1513,477.73059 C 482.534,477.73059 481.34846,477.88739 481.7208,478.2107 C 482.08331,478.53406 481.54442,478.09312 481.06432,478.45566 C 480.58421,478.81818 479.38884,479.39629 479.22226,479.71963 C 479.0557,480.04297 478.94794,480.73863 478.20326,481.74782 C 477.82113,482.28672 477.18426,482.28672 476.89033,482.61005 C 476.59638,482.9334 476.16526,483.18813 475.75374,483.35474 C 475.34221,483.51149 474.52897,484.07977 473.66676,484.23653 C 472.81432,484.41291 472.49098,484.07977 472.3146,484.15815 C 472.15785,484.23653 471.95208,484.5599 471.70712,484.98122 C 471.46217,485.38291 470.56073,486.00022 470.2766,486.43132 C 469.99246,486.89183 469.7867,486.89183 469.21842,487.75407 C 468.65011,488.5967 468.36597,489.05723 468.04261,489.0964 C 467.7193,489.13559 467.95446,489.45893 467.3078,489.53731 C 466.6611,489.6157 466.40635,490.47793 465.10321,490.89926 C 463.79028,491.30096 462.73207,491.87907 462.33035,492.2024 C 461.91883,492.52575 460.78224,492.35918 460.04737,493.32918 C 459.31253,494.29919 457.76442,494.47554 456.78462,495.62192 C 455.79502,496.74871 453.92358,496.67034 453.11033,497.40518 C 452.28728,498.14984 452.53225,496.84668 451.3075,497.65014 C 450.08271,498.47321 447.55481,499.11987 446.33004,500.54057 C 445.1053,501.97111 443.79233,501.56938 443.38083,501.56938 C 442.97911,501.56938 442.24425,501.56938 441.66615,502.45121 C 441.09788,503.35263 439.54975,503.59759 439.01088,504.21487 C 438.48178,504.83215 437.69794,503.96992 435.94408,506.01771 C 435.219,506.86035 433.05362,506.11572 430.5551,507.76178 C 428.06639,509.40787 427.65486,509.16291 428.06639,509.40787 C 428.46811,509.65283 425.66586,510.45627 426.31254,510.78939 C 425.57769,510.78939 423.61806,512.13172 424.18635,512.33751 C 423.03998,512.49426 422.06014,513.56225 423.12816,513.56225 C 424.19614,513.56225 423.69642,513.71903 423.61806,514.28731 C 423.53968,514.85561 425.66586,514.8654 424.51949,515.11037 C 423.37311,515.3357 421.9034,514.93398 422.64806,515.66885 C 423.37311,516.41351 423.37311,516.89362 424.68606,516.89362 C 425.99898,516.89362 426.23414,517.85382 426.55748,517.3541 C 426.88081,516.87401 427.37072,516.49188 427.78224,517.21693 C 428.19377,517.96161 428.42893,517.96161 429.25198,517.71664 C 430.06518,517.47169 430.06518,518.15757 429.89863,518.44172 C 429.73208,518.72587 429.73208,519.26474 431.0352,519.08838 C 432.34816,518.9316 433.98445,518.51029 434.47435,519.0492 C 434.96426,519.58809 435.7775,520.15636 436.91409,519.58809 C 438.06046,519.00999 439.04025,519.38233 439.45179,518.5201 C 439.86331,517.67746 441.65636,518.61807 442.14626,517.71664 C 442.63616,516.81523 444.5076,516.31551 444.35085,515.66885 C 444.19408,515.02217 444.58599,514.36572 446.34966,514.04235 C 448.1035,513.71903 447.03552,512.66083 449.44584,511.79861 C 451.85617,510.93637 450.42567,509.48623 453.52186,508.66323 C 456.62788,507.84016 455.3639,506.39005 456.25554,505.48862 C 457.14715,504.58722 457.02958,503.32326 458.4699,502.63739 C 459.90043,501.95151 460.05719,501.73595 462.09518,500.68755 C 464.15281,499.59018 464.6035,499.30603 465.37753,499.22765 z "
       clip-rule="evenodd"
       i:knockout="Off"
       style="fill:#aa4400;fill-rule:evenodd;stroke:#c11e00;stroke-opacity:1" />
    <path
       id="path5508"
       d="M 513.06465,438.50435 C 513.30726,438.08732 513.55236,439.17946 513.71927,438.61404 C 513.88616,438.04867 513.86919,437.3526 513.66767,436.56499 C 513.47556,435.79719 513.32986,435.1772 513.04768,435.06439 C 512.76602,434.92217 513.37342,434.93303 513.37603,434.78603 C 513.3792,434.60974 514.05744,435.0432 514.06043,434.87667 C 514.06338,434.71013 513.93848,435.11949 514.01158,435.41478 C 514.09469,435.70044 514.15941,436.46599 514.5649,436.80643 C 514.97041,437.14683 514.10849,437.12165 514.67934,437.53366 C 515.23998,437.96503 514.42688,437.95052 514.79565,438.1531 C 515.15447,438.3653 515.00612,437.89228 515.44695,437.90012 C 515.88779,437.90801 516.12796,438.1769 515.85297,438.21117 C 515.56786,438.26487 515.14782,438.73754 515.59615,438.87297 C 516.0447,438.99858 515.98941,438.80161 516.29173,438.88538 C 517.17971,439.09725 515.99837,439.39953 516.84626,439.65967 C 517.704,439.91998 517.03154,440.26077 517.47813,440.49414 C 518.61505,441.03382 517.66776,441.39909 518.19137,441.71224 C 518.71424,442.06454 518.69483,443.15196 518.21026,443.3981 C 517.70625,443.63408 518.05942,444.15979 517.82119,444.33193 C 517.57347,444.48429 518.09495,444.91499 517.72267,444.90835 C 517.36022,444.90185 517.40377,444.65765 517.33204,444.28399 C 517.25036,443.91996 517.00805,444.3174 516.84275,443.69707 C 516.69704,443.07707 516.63264,443.93832 516.62477,444.37914 C 516.61654,444.83959 517.3646,444.10818 517.12002,444.63299 C 516.86549,445.16743 516.46943,445.94432 516.84816,446.13729 C 517.01331,446.21863 516.30042,447.17606 516.90938,447.64754 C 517.5089,448.09923 516.98306,447.91342 516.72011,448.36931 C 516.4771,448.80595 516.54199,449.01291 516.1736,449.33953 C 515.80514,449.66613 516.00198,449.62067 516.19912,450.10435 C 516.39591,450.60764 515.81882,451.09712 515.84819,451.64645 C 515.87703,452.22513 515.19481,452.01696 515.26847,451.73405 C 515.36167,451.45156 514.83338,451.40291 514.29456,451.39329 C 513.75577,451.38369 515.51124,451.85603 514.73155,452.16548 C 513.95186,452.47495 515.59802,451.93595 515.53959,452.46408 C 515.49077,453.00219 516.41779,451.57822 516.52976,452.44258 C 516.63189,453.30678 516.64222,452.72877 516.97077,452.98945 C 517.29002,453.22052 517.36315,453.51583 517.1583,454.01193 C 516.94399,454.48831 516.73319,454.76871 517.42804,454.82034 C 518.1131,454.87177 518.12026,454.47014 518.0204,454.02734 C 517.89145,453.56449 518.39246,453.49501 518.2737,453.0127 C 518.15527,452.5108 517.87626,452.22165 518.2499,452.14991 C 518.61378,452.078 518.17399,451.46259 518.42974,451.40834 C 518.66556,451.37337 518.27475,450.7588 518.5211,450.68482 C 518.76738,450.61082 519.30201,450.85554 519.12933,451.19545 C 518.95704,451.51577 518.91435,451.71101 519.24744,451.71695 C 519.5805,451.72289 520.18611,451.83172 519.56492,452.04601 C 518.94338,452.27986 518.91188,452.39693 519.31881,452.65898 C 519.71608,452.91106 519.62876,453.40931 519.46416,453.84735 C 519.28938,454.30483 519.45192,454.5331 519.1937,455.27326 C 518.94561,455.99401 518.89736,455.95393 519.25789,456.61695 C 519.60881,457.26999 519.11181,457.66293 519.85109,457.97011 C 520.57097,458.26715 520.94321,458.27378 521.51475,458.64661 C 522.07646,459.01923 522.84725,459.2094 523.75062,459.10794 C 524.65437,458.98688 525.34869,458.51908 525.68755,458.20177 C 526.01661,457.88426 526.46392,458.07845 526.63381,457.89527 C 526.80401,457.69252 527.53211,457.52912 528.03454,457.38131 C 528.52752,457.21374 528.96415,457.45675 529.42126,457.65107 C 529.87855,457.83562 529.4634,458.03402 529.80525,458.09892 C 530.14674,458.18341 530.3785,458.37375 530.48959,458.73829 C 530.04193,459.11252 529.95097,459.26769 529.64798,459.22306 C 529.34465,459.19804 529.54038,459.76013 529.08675,459.91862 C 528.63333,460.06729 529.03393,460.68205 528.48935,460.99573 C 527.95458,461.30953 528.59833,462.02663 527.97694,462.25069 C 527.3554,462.48461 527.63317,463.3911 527.18116,463.46145 C 526.7291,463.53177 525.82101,463.89775 525.53113,464.21596 C 525.24124,464.53419 524.90676,464.60659 524.80618,464.203 C 524.68633,463.77949 524.74618,464.81931 524.51858,464.39388 C 524.28082,463.98785 524.64278,464.57247 524.22294,465.03537 C 523.80256,465.52761 523.65333,466.74992 523.19622,467.10436 C 522.73912,467.45876 522.08431,467.90767 522.44607,467.95332 C 522.81764,467.99916 523.62709,468.2194 523.05399,468.48354 C 522.47092,468.75732 522.30594,469.21498 522.01729,469.46462 C 521.72917,469.68486 521.85322,469.32448 521.78061,468.9998 C 521.70801,468.67512 521.91372,468.6788 522.07571,468.3877 C 522.23772,468.09662 522.32501,468.14716 521.87507,468.09991 C 521.42513,468.0527 519.2594,468.05318 518.56316,468.07999 C 517.87632,468.12648 515.66215,468.64553 514.70315,469.11836 C 513.75408,469.58159 514.78343,469.5608 514.32124,470.19932 C 513.8587,470.85742 512.49959,471.23493 512.86593,471.57468 C 513.22262,471.90447 512.15672,472.32636 512.93293,472.76161 C 513.68989,473.17695 512.92436,473.24166 512.5888,473.37286 C 512.26344,473.48463 511.28305,473.50634 511.31352,473.99686 C 511.34414,474.47761 510.4075,474.24526 510.15963,474.95622 C 509.90247,475.63758 509.61365,475.34824 509.20883,475.51741 C 508.79457,475.66683 509.25047,475.38097 508.83444,475.62832 C 508.42841,475.86606 508.70502,475.74362 508.205,476.30305 C 507.70506,476.86251 507.69912,477.1956 507.28467,477.35479 C 506.8802,477.50434 506.47157,477.34025 505.88358,477.88832 C 505.29529,478.45601 505.26468,477.97527 504.64503,478.65018 C 504.02539,479.32511 503.90135,479.68547 503.27894,479.96834 C 502.65647,480.25121 502.84999,480.94064 502.10717,481.37816 C 501.36455,481.80587 501.35879,482.12916 500.41325,482.39649 C 499.46772,482.66375 498.85578,482.90762 498.45341,482.93962 C 498.04126,482.97148 497.98652,483.29388 497.58483,483.28671 C 497.17341,483.27937 497.55599,482.70801 497.313,482.59587 C 497.08034,482.45452 497.0854,482.17044 496.66958,482.40798 C 496.25375,482.64556 496.01476,482.85689 495.76461,482.59761 C 495.51444,482.33836 495.93938,482.14015 495.77424,482.05881 C 495.6091,481.97745 496.31429,481.45108 496.0335,481.25988 C 495.75306,481.04904 495.27481,480.94254 495.13152,481.28296 C 494.97881,481.60361 495.4163,481.24886 495.40984,481.61133 C 495.40335,481.97378 494.66286,482.28393 494.38452,481.95557 C 494.10621,481.62725 493.65628,481.57999 493.9101,481.08473 C 494.1538,480.6089 494.39992,481.09349 494.82172,480.52286 C 495.23334,479.97161 495.81711,479.65865 495.96965,479.89657 C 496.13183,480.14447 495.72981,479.60811 496.51409,479.04392 C 497.29797,478.49935 496.76443,478.74462 497.72026,477.8993 C 498.67614,477.05403 499.0736,475.64996 499.24138,475.03558 C 499.40916,474.4212 499.23298,473.3107 498.82363,473.18579 C 498.41464,473.04128 498.40851,473.38416 498.01491,472.92636 C 497.61132,472.47815 497.73221,472.8429 497.57578,472.27172 C 497.40979,471.6906 497.04068,472.05639 496.76008,471.85536 C 496.47965,471.64457 496.0911,470.90265 496.22265,470.12104 C 496.35389,469.359 496.86888,468.50583 497.64929,468.15718 C 498.42969,467.80854 499.2633,466.67686 500.12678,466.61388 C 500.98046,466.55074 500.85645,466.91112 501.84836,466.24287 C 502.84061,465.55499 502.87978,465.5557 503.413,465.33003 C 503.94637,465.09458 504.61483,463.88156 505.24599,463.10884 C 505.87683,462.35575 505.90063,463.21855 506.44295,462.48346 C 506.99469,461.76814 507.23701,461.37069 507.70303,460.51664 C 508.16906,459.6626 508.46541,458.98189 508.35065,458.82305 C 508.22644,458.64444 508.6365,458.73018 508.9689,458.77531 C 509.29113,458.83985 508.63738,459.22996 509.08662,459.31637 C 509.53587,459.40281 510.52267,459.01866 509.95451,459.00851 C 509.3765,458.99818 509.09449,458.87554 509.34376,458.63501 C 509.59308,458.39446 510.17034,458.44399 509.68404,458.2393 C 509.18809,458.02467 510.6712,457.83555 510.79387,457.55355 C 510.91613,457.29115 511.3976,455.57499 511.76915,455.62084 C 512.1309,455.66649 512.43968,454.29024 512.57649,453.76352 C 512.71311,453.24657 512.80652,454.05182 513.06492,453.85065 C 513.31331,453.65909 512.68407,454.8728 513.34011,454.35533 C 513.9961,453.83788 515.38055,454.23498 514.70233,453.80148 C 514.49872,453.68026 514.37467,454.04062 514.1693,453.46857 C 513.97391,452.88691 513.7297,452.84335 513.39974,453.20985 C 513.06966,453.58612 513.18891,453.49027 512.86758,453.37675 C 512.54624,453.26318 512.33595,452.96545 512.63562,452.64739 C 512.92584,452.30959 513.27923,452.27675 513.19631,451.43247 C 513.09273,450.64664 513.3081,449.56274 513.41239,448.66304 C 513.50685,447.76314 513.42988,447.68337 513.79023,447.80739 C 514.15062,447.93145 514.36455,448.02344 514.23124,448.35425 C 514.09795,448.68509 513.8371,449.57219 514.17843,449.1177 C 514.5096,448.68261 515.06624,449.33936 514.87066,448.76747 C 514.67507,448.19559 515.34003,447.72728 514.81048,447.74725 C 514.27097,447.77679 513.95731,447.2322 514.49612,447.24184 C 515.02514,447.25127 515.80763,446.78509 515.18835,446.89159 C 514.56872,447.01774 514.6366,445.4118 514.46726,446.11436 C 514.28847,446.79715 514.10724,445.97071 514.04793,446.54787 C 513.99841,447.12516 514.01155,447.48796 513.64976,447.4423 C 513.28797,447.39665 513.02347,447.39192 513.32229,446.57408 C 513.62075,445.77584 513.56668,444.41273 513.46925,443.28403 C 513.36236,442.13555 513.04293,441.36545 513.26022,441.27135 C 513.46733,441.19665 513.439,440.58859 513.95754,440.63702 C 514.49563,440.68584 514.81888,440.69163 514.95202,440.37061 C 514.57662,440.54029 514.09064,440.31603 513.80478,440.40894 C 513.52909,440.48239 513.17834,440.91714 513.17834,440.91714 C 513.17834,440.91714 512.96264,439.82549 513.12185,439.69113 C 513.26163,439.54667 512.94289,438.73739 513.06465,438.50435 z "
       clip-rule="evenodd"
       i:knockout="Off"
       style="fill:#aa4400;fill-rule:evenodd;stroke:#c11e00;stroke-opacity:1" />
  </g>
</svg>
