<?xml version="1.0" encoding="UTF-8" standalone="no"?>
<!-- Created with Inkscape (http://www.inkscape.org/) -->

<svg
   xmlns:dc="http://purl.org/dc/elements/1.1/"
   xmlns:cc="http://creativecommons.org/ns#"
   xmlns:rdf="http://www.w3.org/1999/02/22-rdf-syntax-ns#"
   xmlns:svg="http://www.w3.org/2000/svg"
   xmlns="http://www.w3.org/2000/svg"
   xmlns:sodipodi="http://sodipodi.sourceforge.net/DTD/sodipodi-0.dtd"
   xmlns:inkscape="http://www.inkscape.org/namespaces/inkscape"
   id="svg2"
   version="1.1"
   inkscape:version="0.47 r22583"
   width="628.74414"
   height="982.25171"
   sodipodi:docname="adventurer-large.jpg">
  <title
     id="title2821">Adventurer</title>
  <metadata
     id="metadata8">
    <rdf:RDF>
      <cc:Work
         rdf:about="">
        <dc:format>image/svg+xml</dc:format>
        <dc:type
           rdf:resource="http://purl.org/dc/dcmitype/StillImage" />
        <dc:title>Adventurer</dc:title>
        <dc:date>07-06-10</dc:date>
        <dc:creator>
          <cc:Agent>
            <dc:title>Jason J. Patterson</dc:title>
          </cc:Agent>
        </dc:creator>
        <dc:rights>
          <cc:Agent>
            <dc:title>Public Domain</dc:title>
          </cc:Agent>
        </dc:rights>
        <dc:publisher>
          <cc:Agent>
            <dc:title>openclipart.org</dc:title>
          </cc:Agent>
        </dc:publisher>
        <dc:subject>
          <rdf:Bag>
            <rdf:li>adventurer</rdf:li>
            <rdf:li>rpg</rdf:li>
            <rdf:li>fantasy</rdf:li>
            <rdf:li>medieval</rdf:li>
            <rdf:li>hero</rdf:li>
            <rdf:li>lamp</rdf:li>
            <rdf:li>sword</rdf:li>
            <rdf:li>lantern</rdf:li>
          </rdf:Bag>
        </dc:subject>
        <cc:license
           rdf:resource="http://creativecommons.org/licenses/publicdomain/" />
      </cc:Work>
      <cc:License
         rdf:about="http://creativecommons.org/licenses/publicdomain/">
        <cc:permits
           rdf:resource="http://creativecommons.org/ns#Reproduction" />
        <cc:permits
           rdf:resource="http://creativecommons.org/ns#Distribution" />
        <cc:permits
           rdf:resource="http://creativecommons.org/ns#DerivativeWorks" />
      </cc:License>
    </rdf:RDF>
  </metadata>
  <defs
     id="defs6">
    <inkscape:perspective
       sodipodi:type="inkscape:persp3d"
       inkscape:vp_x="0 : 0.5 : 1"
       inkscape:vp_y="0 : 1000 : 0"
       inkscape:vp_z="1 : 0.5 : 1"
       inkscape:persp3d-origin="0.5 : 0.33333333 : 1"
       id="perspective10" />
  </defs>
  <sodipodi:namedview
     pagecolor="#ffffff"
     bordercolor="#666666"
     borderopacity="1"
     objecttolerance="10"
     gridtolerance="10"
     guidetolerance="10"
     inkscape:pageopacity="0"
     inkscape:pageshadow="2"
     inkscape:window-width="1280"
     inkscape:window-height="1005"
     id="namedview4"
     showgrid="false"
     inkscape:zoom="0.78666667"
     inkscape:cx="463.16116"
     inkscape:cy="502.68092"
     inkscape:window-x="-4"
     inkscape:window-y="-4"
     inkscape:window-maximized="1"
     inkscape:current-layer="svg2" />
  <path
     style="fill:#000000"
     d="m 485.15835,981.7824 c -40.58719,-20.75673 -9.98043,-67.38766 -11.87157,-100.71246 1.49704,-25.66242 0.39338,-50.34814 -9.8724,-73.89543 -15.91989,-32.40144 -35.10271,-66.19013 -63.20117,-84.08356 -7.26918,-27.9943 10.52109,-53.37421 10.92984,-75.94068 C 383.3695,606.98135 362.64216,562.891 346.18713,516.8996 c -9.3857,-29.41983 -26.98009,-63.071 -50.23589,-21.22984 -35.51024,32.41096 -73.89053,61.65623 -106.24217,97.32621 -15.4631,33.28889 36.04444,55.93807 20.10217,89.39797 13.32844,33.87016 -37.07585,70.02805 -16.94742,106.39994 -8.64499,-1.37025 7.20867,26.34003 1.704,39.55458 4.54753,30.72878 -40.55388,26.00523 -52.50261,36.63094 -18.54949,24.99835 -103.05013,26.59368 -68.14591,-16.48378 24.02706,-19.10574 49.90739,-36.98012 62.99653,-64.70718 8.46512,-24.49151 3.66151,-59.99626 -19.57006,-76.72231 -10.04368,-12.27598 -5.00367,-51.0675 4.36401,-69.81194 -0.40366,-25.24132 -8.11543,-29.43492 -0.37167,-58.79808 4.44885,-17.47476 21.34099,-34.75848 29.36587,-55.54288 17.85025,-32.64121 38.86366,-66.75536 61.19095,-97.7465 23.05576,-20.03067 10.96338,-34.24984 36.27248,-53.4653 15.07827,-16.51313 23.13147,-29.64935 14.78851,-42.52965 8.93261,-15.53098 -45.21656,-72.32032 2.29961,-63.779 3.88786,22.16053 13.41798,39.00978 7.99207,4.52956 1.67115,-22.12197 7.13286,-48.89807 -16.86111,-21.95056 -27.77817,17.72732 -45.1609,38.39993 -71.91859,55.56028 -20.58575,4.66683 -53.96926,28.63814 -41.97997,34.84418 11.3445,41.24888 3.72733,83.95164 7.93784,125.93821 -6.30464,21.63464 0.39069,-68.18019 -7.44714,-14.11138 5.76445,38.0956 -20.28004,-3.1082 -15.39702,-20.44271 0.48597,-11.46461 -4.66639,-56.89205 -10.93246,-24.52509 C 92.90138,417.20703 75.17357,386.15487 62.4084,375.71404 17.49199,378.28217 83.71159,340.10196 43.75681,325.19212 25.53369,298.26305 6.12199,281.5694 5.68373,248.1005 c -5.21561,-52.92301 7.00483,29.16406 17.51683,41.65935 7.01991,11.40129 44.93395,62.78213 26.92039,24.21271 -7.9853,-15.84372 -7.73342,-36.52723 -20.99003,-53.6279 -20.01029,-22.91956 -2.92759,4.29314 -9.68887,2.31649 4.24678,-12.3922 -21.81785,-51.02513 -11.14403,-41.92168 12.102,18.01191 15.68726,26.95455 24.64939,37.4663 14.32871,10.25225 35.89628,74.4605 52.3141,56.96109 35.36467,-10.11447 56.70872,-49.72882 88.49861,-71.74242 29.11699,-16.16137 42.28343,-47.22638 64.62941,-70.32253 17.62496,-15.10475 32.69264,-31.55461 51.25723,-46.94681 40.70971,-7.65062 53.37949,-45.543655 60.77619,-80.918705 3.44105,-38.65134 50.16972,-55.85306 78.93737,-38.44121 -9.22782,4.69048 27.68207,21.18137 0.11583,10.32931 23.67728,8.00122 18.36702,42.82151 12.8009,56.58003 -11.72117,41.316865 12.83104,20.6015 41.12882,30.829205 22.29814,16.16879 28.10104,50.82482 62.04605,30.95804 29.81825,-8.96463 63.51235,22.7276 70.76537,29.65387 -1.59246,4.50308 24.25034,34.63481 5.93938,57.87821 -10.57384,13.42666 -18.16793,41.02363 -20.17506,68.53406 -12.01091,-2.00582 -12.39214,51.07226 -29.16518,62.50919 -20.6456,6.54695 -21.24812,46.83591 -50.5412,32.84549 -33.45525,-6.89151 -54.35176,-21.59859 -42.80435,-52.8474 -5.43956,-27.58697 10.45384,-57.37846 23.78277,-83.16423 8.19631,1.13947 34.68896,-67.27542 -2.04124,-44.61736 -11.32045,12.22624 7.67764,53.67451 -14.6377,71.22725 -11.36426,18.99299 -12.04346,33.31266 -13.30238,53.43692 -20.84512,12.64408 -50.23452,8.58428 -52.29247,37.89937 -1.06265,19.5614 16.41799,44.76249 16.72329,68.4045 18.94466,26.4354 1.85164,46.7275 15.74636,74.9209 7.35743,39.15855 9.05142,79.69051 18.97912,118.19231 7.97381,28.6326 34.04982,53.83082 32.12731,88.65621 1.87621,35.68787 -0.92687,74.71139 14.02567,107.79409 0.98363,35.27475 11.4766,72.05081 8.83536,107.30192 -2.54042,14.89622 -30.42538,40.44113 -23.68651,42.66393 -9.87349,-2.1445 0.18576,4.3696 -8.36241,5.4707 l -4.64587,-0.097 -5.56365,-0.3725 -1.8e-4,0 z m 4.51127,-6.9233 c 1.91156,-3.33452 -6.10943,2.8283 0,0 z m 2.50812,-3.45768 c 3.89139,5.65048 46.80804,-32.0656 27.16308,-57.88557 11.69311,15.84277 -5.52919,-58.48391 -9.19916,-51.17548 -1.3228,-3.68272 -26.93573,10.26272 -19.29214,13.39712 2.64327,16.0347 3.11016,32.22103 6.16476,17.45693 15.19693,8.9264 -2.88938,26.73889 -3.77425,22.32038 -6.45471,-10.13161 -16.49309,9.37387 -11.49255,7.831 -13.32989,-0.0895 -18.6308,29.80993 -15.24254,29.08656 7.13104,10.38352 8.72737,24.99504 25.6728,18.96906 z m 1.16993,-19.20542 c 6.93674,-2.03418 -2.81256,3.50532 0,0 z m 5.23973,-1.55334 c -2.76043,-7.30548 5.09394,2.71598 0,0 z m -23.13048,-17.54927 c 1.95108,-2.9015 2.40797,1.60977 0,0 z m -2.0544,-2.10337 c 0.30523,-4.16052 2.66491,2.81035 0,0 z m 4.1445,-1.74789 c 1.01108,-3.0886 2.06192,3.00929 0,0 z m 7.52437,-10.1371 c 1.01108,-3.08861 2.06192,3.00928 0,0 z m 17.71894,-8.14305 c -0.39872,-4.96473 4.23888,1.83811 0,0 z m -8.10446,-23.5354 c 2.07282,-4.45103 2.07282,4.45103 0,0 z m -0.27868,-2.6751 c -2.44779,-8.13046 3.26286,0.65706 0,0 z m -1.61635,-6.2997 c 4.48858,-2.51687 -2.03717,2.5962 0,0 z m -27.69735,59.4667 c -1.88386,0.7896 1.75692,3.34499 0,0 z m 0.88463,-3.81899 c -1.46327,0.84426 1.35696,4.65192 0,0 z m 10.24771,-14.99446 c 2.70096,-5.84463 -4.98252,7.28722 0,0 z m 21.47327,-12.44262 c -1.88386,0.7896 1.75692,3.34499 0,0 z m -10.29558,-0.22792 c -0.2104,-7.35793 -2.13297,5.99585 0,0 z m 3.10214,0.84392 c -2.06192,-3.00929 -1.01107,3.0886 0,0 z m -7.8553,-3.15028 c -1.88386,0.7896 1.75692,3.34499 0,0 z m 4.51114,-5.29731 c -2.13604,-3.03057 -2.13604,3.03057 0,0 z m 0.83604,-4.69601 c -2.56506,-2.99476 -0.49276,4.16297 0,0 z m -1.67208,-2.85698 c -2.1769,-11.58713 -5.85637,-1.66637 0,0 z m 2.25205,-3.00649 c 2.91266,-16.01012 5.3754,-3.19294 0,0 l 0,0 z m -3.0881,-9.28187 c 8.98926,-14.05957 -4.85472,5.31505 0,0 z m -374.74412,-1.19179 c 27.12693,-9.73331 34.81439,-34.01919 49.61151,-49.45395 20.37403,-4.29979 16.24707,-27.59971 1.09735,-13.87548 -15.61934,-6.33693 -38.9928,-7.67265 -37.63409,12.89053 16.01445,19.67415 -12.04313,10.33872 -23.09901,18.94951 -10.1712,-1.39115 -14.40413,8.17752 -26.03169,15.44472 -17.89313,18.0035 26.08523,14.9094 36.05593,16.04467 z m -39.5347,-8.56678 c 2.25289,-11.26477 5.20641,0.85591 0,0 z m 29.28185,-0.15966 c 2.77275,-6.12103 13.84328,0.5975 0,-2.5e-4 l 0,2.5e-4 z M 97.1567,847.31431 c 1.8941,-2.9346 3.37233,1.62878 0,0 z m 29.65426,-3.83562 c -2.56378,-5.87842 7.51071,5.13672 0,0 z m -0.81927,-12.60108 c 1.95107,-2.90157 2.40799,1.60975 0,0 z m 4.18021,-0.89462 c 2.65852,-3.7707 2.01246,3.94857 0,0 z m -1.67208,-1.11385 c 2.08522,-4.45902 3.70959,0.20537 0,0 z m 45.61799,-16.45132 c 2.92979,-3.85508 -1.05858,3.51535 0,0 z m -104.14088,49.9887 c -2.90154,-1.45637 -1.37956,3.94392 0,0 z m 433.48737,-2.71725 c 9.1331,-11.0078 -34.60502,0.72396 0,0 l 0,0 z m -335.19281,-8.527 c 2.76749,-13.69269 -7.12758,6.9647 0,0 z m 330.59458,-0.48269 c 2.58796,-3.00836 -8.12288,3.02077 0,0 z M 181.95331,846.0612 c 18.78232,-23.47486 -7.83865,-51.08751 -13.40202,-11.90341 -9.19821,6.9255 4.91447,18.82249 13.40202,11.90341 z m -12.42147,-4.18122 c 0.37299,-3.64209 1.20652,2.24993 0,0 z m -0.066,-4.43498 c 5.29865,-15.1733 3.28856,6.86501 0,0 z m -4.18021,8.53857 c -2.40796,-1.60978 -1.95107,2.90149 0,0 z m 329.73214,-5.30027 c -1.92377,-2.53504 -1.92421,2.53486 0,0 z m 4.98668,-0.5632 c -0.72351,-4.4621 -1.98438,4.43244 0,0 z m -378.72666,-0.84476 c -0.72352,-4.4621 -1.98439,4.43245 0,0 z m 383.44053,-0.8946 c -2.56506,-2.99476 -0.49275,4.16297 0,0 z m 4.18021,0.47222 c -2.06192,-3.00929 -1.01108,3.0886 0,0 z m -381.56337,-2.181 c -1.97168,-7.34347 -3.30289,4.50755 0,0 z m 366.09069,0.5012 c -2.11571,-1.54515 -3.32858,2.72122 0,0 z m -0.0121,-2.19249 c 20.51199,-12.75538 -18.64196,-0.92518 0,0 z m -8.76039,-0.3515 c -6.12683,-3.54204 2.07293,3.32716 0,0 z m -316.02357,-4.27366 c -2.59685,-3.06358 -1.58646,4.25372 0,0 z m 333.16242,-0.7949 c 4.13761,-8.66016 -2.98102,0.16411 0,0 z m -396.35385,-3.92089 c 0.63075,-3.50194 -4.03038,4.6871 0,0 z m 393.4277,-2.78732 c -15.14125,-3.1654 -14.12028,-1.96452 -2.87692,1.27415 -4.12019,2.1084 5.31352,1.66685 2.87692,-1.27415 z m -384.99697,-4.61213 c 19.94441,-20.40241 -22.59774,19.55336 0,0 z m 9.61447,1.5287 c -3.38419,0.005 -2.13843,3.44591 0,0 z m 379.56271,0.12678 c -2.11805,-8.43866 -2.25424,7.05547 0,0 z m -16.52813,-1.68547 c 22.62555,-13.14728 7.9091,-41.98186 7.35146,-62.98843 -10.84461,-14.92335 -23.78366,-15.01263 -33.98182,-14.36089 -1.54133,5.14815 -21.38126,-3.50232 -21.60931,6.86532 10.65206,26.88827 30.34891,34.82876 40.02515,58.15495 -0.36309,-13.66475 9.49883,15.34113 -0.33859,12.63558 2.31664,2.82891 5.79229,-0.49148 8.55311,-0.30653 z m -0.54137,-4.58671 c -0.70607,-4.95194 -2.54261,-2.15665 0,4e-5 l 0,-4e-5 z m 7.88574,-0.9883 c 2.29786,-15.99632 4.57532,-1.44216 0,0 z m -38.76265,-63.72205 c 0.13358,-5.68054 2.51782,4.36608 0,0 z m 4.47227,-1.76643 c 2.59684,-3.06359 1.58645,4.2537 0,0 z m 2.50812,-1.63966 c 0.72352,-4.4621 1.98439,4.43244 0,0 z m -6.68833,-2.1119 c 2.13604,-3.03053 2.13604,3.03053 0,0 z m 20.06499,67.53084 c -2.40798,-1.60976 -1.95107,2.90156 0,0 z m 4.18021,0.57566 c -2.82522,-3.4269 -3.95319,-2.33319 0,0 z m -328.5642,-1.79294 c -6.83754,-4.90558 1.14961,4.49685 0,0 z m 5.43427,0.42237 c -4.25003,-3.36509 1.17178,3.0702 0,0 z m 3.76218,0 c -2.13603,-3.03052 -2.13603,3.03053 0,0 z m 315.62547,-3.90198 c -5.86881,-3.01382 2.98244,4.29843 0,0 z m -311.52667,-2.37517 c -3.58789,2.94673 -2.3584,4.60207 0,0 z m 4.26162,-1.32567 c -3.21396,-3.02864 -2.1429,3.12889 0,0 z m 301.47994,-4.83977 c -4.0874,-0.0199 2.27824,4.37187 0,0 z m 30.93353,0 c -1.88389,0.78958 1.75692,3.34494 0,0 z m -340.56488,0.90127 c -4.60393,-1.37112 -0.83555,1.47852 0,0 z m 14.00369,-2.82448 c -8.61464,-6.99994 -33.71638,4.90974 0,0 z m 8.36042,1.22219 c -3.38467,-1.61808 -2.00063,2.88436 0,0 z m -51.83456,-0.37252 c -2.13603,-3.03053 -2.13603,3.03053 0,0 z m 24.2452,-2.53428 c -7.05543,-3.14112 -5.14907,3.19736 0,0 z m 25.54843,-0.40879 c 14.76665,-7.03251 -20.7602,-2.1281 -3.34417,0.6535 l 3.34417,-0.6535 z m 289.56943,0.16975 c -3.57767,-3.96254 -3.97474,-0.67252 0,0 z m -311.7737,-5.67427 c -18.40871,-6.49973 -12.97921,1.56298 0,0 z m 23.1993,-2.64151 c 0.31144,2.22771 -48.56024,-16.07816 -23.72973,-0.91416 7.41077,2.91762 16.2396,4.55398 23.72973,0.91416 z m -33.64981,-3.2718 c -8.52339,-3.72762 2.28599,3.47316 0,0 z m 19.00108,-4.40674 c 18.88284,-2.20163 9.9646,4.12556 12.22189,-11.70277 0.16258,-23.74124 -9.94068,-28.82313 -27.62573,-32.61748 -15.5542,-9.27673 -8.53634,4.59955 -8.05052,16.09417 4.09552,1.22838 1.83466,32.20107 23.45436,28.22608 z m -20.25515,-19.66888 c 0.72352,-4.4621 1.98439,4.43244 0,0 z m 0.50747,19.36035 c -1.21854,-5.90817 -3.09068,4.7862 0,0 z m 34.60627,-4.50798 c -0.52955,-7.30662 -5.39031,2.14029 0,0 z m -3.34417,-16.16937 c -2.40798,-1.60975 -1.95107,2.90157 0,0 z m 0,-10.60933 c -1.79221,-23.84533 -1.76498,26.80135 0,0 z m -34.74216,-1.54288 c -2.99539,-9.95874 1.36244,11.78298 0,0 z m 302.27535,-5.0877 c -5.40964,-2.5696 -5.39044,3.28632 0,0 z m 4.51826,-0.12184 c -0.97379,-3.79116 -4.32827,3.80337 0,0 z m 4.47555,0.38329 c 20.29054,0.63757 -9.59409,-2.43837 0,0 z m 8.23212,-1.32758 c -1.88388,0.78958 1.75693,3.34494 0,0 z m -51.50362,-9.90377 c -3.42608,-12.75971 -4.51142,1.65518 0,0 z m 57.68684,-1.78231 c 24.44121,-5.48015 18.66832,-4.87684 11.03658,-12.71343 -3.31165,0.2551 -33.63448,-1.32871 -26.92136,1.41574 -21.35917,-4.71997 6.43772,8.63446 -17.97489,7.03455 -49.50862,-3.73761 9.88591,13.77979 28.40419,4.89265 l 5.45548,-0.62953 0,2e-5 z m -51.60813,-4.25874 c 3.31047,-1.77516 0.78133,1.90359 0,0 z m 47.65435,-3.37904 c 3.31047,-1.77516 0.78133,1.9036 0,0 z m 8.97003,-0.36463 c 12.68491,-0.35518 -10.63175,2.03154 0,0 z m -298.88473,5.4667 c 21.94235,4.10438 50.0454,-52.54168 21.51209,-16.78646 -6.54317,6.21276 -42.02631,12.27641 -14.72168,4.80313 14.94897,-20.17706 27.66636,-57.18266 5.0946,-32.32494 -7.87896,1.63848 -50.05966,9.80491 -18.15528,-3.17098 -20.99492,3.52677 -45.92161,-6.45124 -51.09116,-26.19338 -15.13498,15.99111 18.20923,33.51497 23.75455,41.60368 25.70558,11.12059 1.93155,6.99262 -7.55411,5.8513 -0.65897,9.82323 -26.66555,-16.77386 -14.03576,4.60818 -21.94291,-15.18719 28.21974,24.91061 16.33048,13.22808 11.57503,7.39564 25.12997,14.95939 38.86627,8.38139 z m -16.30281,-5.59212 c -3.18493,-4.76605 22.81065,2.66467 0,0 z m -17.25985,-10.61458 c -22.75932,-11.81146 21.27118,2.92629 0,0 z m 15.16975,-0.21161 c 7.05543,-3.14112 5.14907,3.19736 0,0 z m -34.19009,-3.87536 c -2.70087,-8.9346 5.201,3.51194 0,0 z m -2.1777,-4.57223 c 3.21396,-3.02863 2.1429,3.1289 0,0 z m 35.1289,0.0925 c -9.47836,-12.24378 12.58257,2.55366 0,0 z m -9.21163,-12.29842 c 1.8795,-4.39427 3.65626,-0.83165 0,0 z m 49.36583,-3.42213 c 2.87739,-7.3353 2.43908,-0.13658 0,0 z m -48.52978,-1.257 c 0.69936,-2.69361 7.48714,2.99925 0,0 z m -30.55543,-21.67484 c -7.04962,-12.28806 11.78122,8.72241 0,0 z m 296.79884,64.68902 c -2.66491,-2.8104 -0.30522,4.16057 0,0 z m -9.79773,-9.86754 c -2.18213,-16.36143 -0.50185,19.47849 0,0 z m 94.69162,0.5697 c -3.46971,-1.42402 -3.19657,3.93346 0,0 z m -9.82348,-1.39763 c 3.57172,-5.91223 -11.64949,3.34697 0,0 z m -48.6994,-0.13764 c -6.54226,-6.61134 -2.73857,3.96133 0,0 z m 61.03101,-0.0904 c -2.13604,-3.03053 -2.13604,3.03053 0,0 z m -71.06351,-1.68952 c -2.18766,-3.36747 -15.97768,-2.02984 0,0 z m 11.70458,-1.77761 c -10.84601,-2.37894 5.87601,3.31274 0,0 z M 186.6805,708.9775 c -3.71638,-0.10127 -2.0218,4.37422 0,0 z m 273.66868,1.42286 c 15.7451,-3.58741 -25.74517,-2.42312 6.55417,-4.0555 18.87352,-4.09364 16.82078,-7.34868 24.8926,-21.27301 -5.46206,-18.12041 -23.80939,27.40223 -44.87176,18.0929 -15.5225,4.36033 13.58087,4.97964 -6.99902,5.57507 6.54916,2.28779 13.59661,3.26978 20.42401,1.66054 z m -14.15371,-5.0591 c 11.92496,-4.40146 12.51201,1.61728 0,0 z m 33.24788,-3.83514 c 0.84921,-7.11489 6.88266,-3.41375 0,0 z m -356.1345,7.17197 c -9.07011,-7.52705 2.75847,4.88494 0,0 z m 310.346,-0.39024 c -3.38467,-1.61807 -2.00063,2.88436 0,0 z m -30.93353,-1.21728 c -2.13603,-3.03053 -2.13603,3.03053 0,0 z m 21.73708,-0.84476 c -2.06192,-3.00926 -1.01108,3.08857 0,0 z m 59.60289,-0.95107 c 1.58261,-5.53114 -7.92773,6.18417 0,0 z m -40.91863,-2.22212 c 6.70259,-9.06376 -30.59231,5.85437 0,0 l 0,0 z m 50.14404,-0.2118 c 11.78904,-8.52759 -7.37084,-11.07645 -3.11924,1.57497 l 3.11924,-1.57497 0,0 z m -64.43909,-1.41767 c 2.08786,-8.73854 -18.72321,-8.00396 -7.32379,-1.96919 3.76945,0.19356 2.27162,-1.03665 7.32379,1.96919 z m -11.91359,-6.14948 c -4.27883,-7.50563 -2.56189,2.40492 0,0 z m -293.2937,-1.45154 c -3.6647,-1.21007 -0.3625,1.62606 0,0 z m 368.53741,-0.31756 c -2.40798,-1.60975 -1.95107,2.90157 0,0 z m 2.03156,-1.54394 c -3.70988,-9.74468 -1.29908,3.69582 0,0 z m -373.23385,-4.79174 c -2.40799,-1.60976 -1.95107,2.90156 0,0 z m 56.43278,-10.50963 c -2.06192,-3.00927 -1.01108,3.08856 0,0 z m 3.54958,-3.37903 c 21.28231,-11.62105 25.8385,-17.21517 7.48814,-9.53224 -4.55149,1.97124 -25.19515,12.76671 -7.48814,9.53224 z m -3.13156,-4.2238 c 1.01107,-3.08856 2.06192,3.00927 0,0 z m 8.36041,-3.37903 c 1.01108,-3.08857 2.06192,3.00926 0,0 z m 5.25879,6.7569 c -0.95265,-4.63215 -1.55514,5.57724 0,0 z m 298.22417,-0.47107 c -2.40798,-1.60976 -1.95107,2.90157 0,0 z m -331.07232,-2.0001 c -0.7097,-3.81815 32.74757,-14.22216 28.6894,-20.63256 2.45008,-23.84292 -10.96053,-25.05408 -11.7719,-42.39497 -1.05702,-19.4722 -6.51705,-39.97667 1.04276,-27.09013 7.77082,15.80286 0.71783,-23.08998 7.90433,-6.40956 9.68072,-20.41287 22.00949,-12.17846 28.74966,-23.58865 3.61487,-6.07721 7.94404,5.84299 10.798,-14.26271 2.06272,21.88076 7.42512,-17.23734 10.98456,-0.74891 4.15492,-28.01777 9.05518,9.08697 12.84986,-22.98675 5.55964,13.50945 3.84394,-1.5339 9.28666,-8.92329 -1.48368,27.55228 6.15744,-7.332 6.28086,-5.93857 7.57296,-1.84572 8.5274,-12.31656 23.93616,-23.99305 -19.67319,-18.21402 -34.92288,-39.13846 -50.64477,-47.7404 -38.90254,1.17166 -56.39693,55.886 -73.92537,86.38549 -14.37565,7.89715 -4.54532,38.99642 -7.27166,49.56024 -6.58141,-44.66105 -29.20383,19.49368 -30.18854,38.06025 6.83312,18.20218 29.91889,2.02646 21.17029,18.24555 -8.07947,3.88517 -9.91986,6.87107 -11.33299,-2.51131 -9.18663,-1.43466 -2.08714,39.68764 -2.98878,30.49003 -1.44524,12.4963 13.57592,26.42461 8.79234,6.83638 5.17053,20.52969 9.75456,6.3842 6.82077,8.28864 1.59372,3.25581 5.82863,11.81863 10.81836,9.35428 z m -19.09693,-24.5599 c 0.73163,-3.80766 0.73163,3.80767 0,0 z m -5.98429,-20.27421 c 2.13603,-3.03053 2.13603,3.03053 0,0 z m 8.49241,-2.53427 c 0.73164,-3.80767 0.73164,3.80766 0,0 z m -10.44317,0.28158 c -2.24034,-7.05488 2.94697,1.3183 0,0 z m 17.41752,-12.1082 c 2.99996,-3.21617 1.03825,3.33034 0,0 z m 49.94907,-54.48694 c 5.04426,-26.42458 7.82239,2.9037 0,0 z m 8.2218,-9.22195 c 0.37296,-3.64207 1.20652,2.24984 0,0 z m 2.50812,-7.60283 c 0.37297,-3.64207 1.20653,2.24984 0,0 z m 1.60608,-4.6667 c 1.46517,-4.44305 1.2996,3.1043 0,0 z m 2.50812,-7.70728 c 7.03595,-21.60477 5.09926,-0.88714 0,0 z m -14.2127,141.07943 c -2.40798,-1.60976 -1.95107,2.90156 0,0 z m -56.86757,-2.08246 c -3.93977,-3.63064 0.96476,4.57149 0,0 z m 306.89946,-0.29951 c -3.96776,-29.08836 -4.72452,-45.29821 -0.42723,-33.93613 -5.5151,-15.15065 -6.17502,-68.92554 4.13385,-35.43653 5.63769,-7.02258 -2.36868,-17.27597 -0.27132,-29.51528 -7.4959,-17.63199 1.01124,-25.25226 -8.73648,-38.09854 -3.46478,-9.85115 -0.98905,-25.90555 -13.11721,-36.84883 15.90487,-6.64121 -11.05607,-7.51007 -11.14469,-5.96193 -12.6436,-0.3358 -15.31634,3.64312 -22.00018,3.55958 -11.62206,0.67767 -39.64223,8.96268 -35.07886,6.75695 -7.92444,-2.18879 -2.50462,17.28572 -5.16899,12.74973 1.71777,18.17146 7.86613,40.34117 18.75015,59.29236 10.46097,26.22585 31.70849,46.37153 43.49804,67.59887 6.1568,10.64156 13.37701,34.82839 29.56292,29.83975 z m -4.44478,-1.50668 c 4.60393,-1.37111 0.83555,1.47852 0,0 z m -1.39707,-74.97604 c 0.37297,-3.64207 1.20652,2.24984 0,0 z m 1.60608,-4.6667 c 1.95107,-2.90157 2.40798,1.60975 0,0 z m -23.63388,-6.03089 c 2.525,-3.43086 -0.87184,4.43557 0,0 z m 23.69988,-4.36727 c 1.36288,-13.81237 0.73509,11.40985 0,0 z M 207.4168,657.06827 c -8.47035,-22.16788 -12.23661,-12.97229 -7.1695,0.20564 3.11721,-2.91184 5.43208,6.47165 7.1695,-0.20564 z m 246.99299,-2.35216 c -7.07889,-24.26482 2.20031,17.92205 0,0 z M 187.0227,653.42844 c -0.72352,-4.4621 -1.98438,4.43244 0,0 z m -55.86149,-1.45017 c -3.65285,-0.74811 2.58903,3.81834 0,0 z m 318.09078,-11.0261 c -1.51941,1.01602 1.52505,5.62968 0,0 z m -318.57498,-1.23346 c -4.0874,-0.0199 2.27824,4.37187 0,0 z m 322.71191,-21.96373 c -1.88389,0.78958 1.75692,3.34494 0,0 z m -312.01454,-2.42392 c -0.18418,-9.80334 -8.68035,6.06818 0,0 z m -10.86811,-1.39509 c -3.33387,-13.03397 -4.33388,9.15881 0,0 z m 322.37754,0.21119 c -1.9077,-5.88259 -0.59268,5.87982 0,0 z m -309.33525,-2.53428 c -2.06192,-3.00926 -1.01108,3.08857 0,0 z m 308.16828,-2.30549 c -1.88389,0.78958 1.75692,3.34494 0,0 z m -0.53475,-5.08614 c -3.43118,-11.97491 -3.21159,3.12135 0,0 z m -270.86052,-5.06856 c -1.17075,-6.07692 -2.48097,1.69 0,0 z m 0.0128,-8.28625 c -2.40798,-1.60975 -1.95106,2.90157 0,0 z m -4.51113,-5.21229 c -1.88389,0.78958 1.75692,3.34494 0,0 z m -48.70951,-15.81379 c -0.42505,-3.23159 -3.41054,3.91327 0,0 z m 77.46584,-7.27333 c -2.40798,-1.60976 -1.95107,2.90156 0,0 z m -1.67208,-2.53428 c -2.40799,-1.60976 -1.95107,2.90157 0,0 z m 6.3574,-1.41087 c -1.88389,0.78958 1.75692,3.34494 0,0 z m 243.33658,-5.50853 c -1.46327,0.84427 1.35696,4.65194 0,0 z m -233.48062,0.56448 c 1.66669,-5.81188 -4.59652,4.67996 0,0 z m 7.73861,-6.84448 c -4.17854,-0.48528 -3.95946,6.98903 0,0 z m 15.23086,-13.87163 c 6.24093,-9.5477 -8.73967,9.38037 0,0 z m 10.26304,-5.61351 c 25.93437,-25.10489 -8.82412,-0.0534 0,0 z m 198.33963,-4.27557 c -4.80214,-13.78294 -0.6843,10.12519 0,0 z M 269.50919,508.0353 c 0.23912,-10.71201 -7.87762,17.90255 0,0 z m 177.29987,2.39732 c -4.32056,-2.69151 2.07651,8.67646 0,0 z M 274.99139,502.4874 c -5.92143,4.07223 -4.22411,13.80012 0,0 z m -5.20061,-0.79657 c -4.51378,-3.24996 -1.48591,6.65786 0,0 z m 86.53027,-3.2756 c -2.99996,-3.21617 -1.03826,3.33034 0,0 z m 55.59674,-16.21419 c -3.65625,0.83164 -1.87951,4.39427 0,0 z m -57.68685,-5.66017 c -3.6974,-6.88512 -7.32686,6.70645 0,0 z m 7.87402,1.08739 c 4.60707,-7.84425 -16.65405,2.21512 0,0 z m -13.42397,-1.59914 c -4.62675,-4.30583 -1.11645,4.45864 0,0 z m 33.50291,0.44329 c 5.63082,-7.02592 -12.97116,1.99969 0,0 z m -38.72917,-1.53612 c -11.00621,-7.34957 -16.40553,-2.28718 0,0 z m 44.8895,-1.74063 c -3.60899,0.71035 1.8161,5.55395 0,0 z m 3.50857,1.14395 c 1.73141,-4.37131 -5.41825,4.15677 0,0 z m -32.81437,-2.74547 c -3.21416,-9.28824 17.09463,6.43078 20.27377,-17.48958 4.50055,-12.7519 26.47585,-64.1995 14.21268,-57.0533 -9.94587,33.70879 -2.76601,-19.83483 -12.08846,-2.43268 0.71643,8.14412 -6.65942,5.46231 -9.64859,8.28906 -7.36059,4.89689 -4.26056,15.84232 -6.75069,-1.19133 -4.25708,11.65313 -14.02998,9.05938 -7.31286,-4.85951 -7.09509,5.74672 -9.36051,6.7969 -11.52009,19.81082 -3.21499,-19.76936 -5.34256,-33.41305 -5.30056,-36.5186 -2.43643,1.23933 -19.64936,36.26076 -13.86135,-0.19104 3.02616,-40.78229 -12.04878,16.51881 -9.04888,28.39158 -4.36716,16.10357 -0.13687,29.92729 1.33287,43.61688 2.62734,10.46857 26.3979,24.4456 39.71216,19.6277 z m -0.62728,-5.64713 c -0.89476,-5.48234 -5.68176,-47.71216 -0.77859,-28.01718 -2.38446,11.80831 11.50919,17.65956 0.77859,28.01718 z m 5.01625,-2.49889 c 1.8074,-4.20848 4.7231,3.65155 0,0 z m 5.14825,-2.20227 c 0.73163,-3.80767 0.73163,3.80766 0,0 z m -13.7634,-33.74207 c 3.6626,-5.62045 -0.15743,4.33637 0,0 z m -38.20316,-2.95508 c 1.95107,-2.90156 2.40798,1.60976 0,0 z m 40.12998,-3.05637 c 2.39013,-4.52887 0.31399,5.524 0,0 z m 12.27961,-9.03129 c 4.03529,-8.30532 4.55654,-2.12141 0,0 z m -17.74826,-5.33595 c 0.10389,-6.3674 3.8914,5.07238 0,0 z m 27.21852,-1.42212 c 1.16378,-6.24733 2.8713,1.93768 0,0 z m 13.78188,65.67998 c -2.7795,-3.32586 -6.17402,3.18493 0,0 z m 11.68422,-2.52465 c 20.54346,-12.13006 -21.64643,7.42891 0,0 z m -72.98448,0.54846 c -1.25141,-14.64984 -5.12543,7.45973 0,0 z m -4.32898,-1.87508 c -2.40798,-1.60976 -1.95107,2.90157 0,0 z m 59.63441,0.57783 c -7.4e-4,-16.10896 -7.44253,2.87799 0,0 z m 6.52709,-0.63543 c 16.58942,-55.39532 -12.98711,-2.63302 0,0 z m -66.45,-4.0799 c -3.8534,-4.84467 0.62215,5.86609 0,0 z m 80.54846,-0.21348 c 26.1633,2.84322 18.37137,-38.03886 7.94634,-30.46615 -3.87056,-3.14164 -15.12055,21.41895 -14.04982,19.51972 -1.23275,6.86271 -7.53196,18.08788 6.10348,10.94643 z m 16.79936,-10.7092 c -1.2574,-5.48171 4.35457,3.10273 0,0 z m -4.33402,-10.23272 c -2.63752,-20.99309 4.95213,12.64083 0,0 z m -9.95722,-2.1119 c 2.1429,-3.12889 3.21396,3.02864 0,0 z m 2.96186,-1.63114 c 0.30522,-4.16057 2.66491,2.81039 0,0 z m 0.38231,-3.80993 c 0.49269,-4.16302 2.5651,2.99472 0,0 z m -127.07826,27.77732 c -2.40799,-1.60976 -1.95107,2.90157 0,0 z m 147.61049,-1.6834 c 3.10484,-3.75159 -13.40638,4.38697 0,0 z M 137.69627,454.0654 c -8.72433,-12.10169 -7.62261,1.76071 0,0 z m 0,-3.22964 c -2.28684,-20.54028 -9.27031,-37.01415 -6.05687,-6.71149 0.13192,1.78752 2.62594,8.18999 6.05687,6.71149 z m 295.12255,-3.10605 c -5.92435,-2.58249 1.4942,2.99684 0,0 z M 140.11106,409.29319 c 1.01977,-24.97541 -3.38262,-50.96888 -13.96007,-73.06645 -28.26523,28.74901 2.75059,52.01152 7.77424,84.28198 9.3289,41.98691 5.88092,9.74091 6.18583,-11.21553 z m 4.21157,20.43554 c -2.51982,-17.78494 -1.06085,26.62656 0,0 z m 157.5832,5.8656 c -15.04766,-8.68414 -0.62182,5.41824 0,0 z m 2.16264,-0.95838 c -1.98438,-4.43244 -0.72352,4.4621 0,0 z m -10.5472,-1.63949 c 19.04283,-0.67763 1.30141,-12.39784 10.17442,-15.04449 -0.53359,-4.1414 7.36633,-24.03034 4.30211,-20.40289 -4.87121,-16.10173 -0.76839,-6.3754 6.46231,-31.68714 3.08961,-26.29699 -24.97698,-9.10453 -20.3553,7.11993 -3.48012,21.32141 -1.73378,4.7654 -8.32736,20.41159 -8.83561,22.21564 1.07898,-10.93091 -1.58529,-17.46824 -6.4315,17.12095 4.83192,-47.30646 -3.87718,-12.88661 -5.57621,6.91915 -5.49029,7.40875 -11.01148,25.1728 -17.75086,18.82251 -3.97605,48.3328 11.77384,39.74544 5.30309,1.8605 8.25244,5.66808 12.44393,5.03961 z m 0.52751,-4.06263 c 0.93053,-7.47666 1.35793,6.05163 0,0 z M 282.4634,409.71557 c 0.73164,-3.80766 0.73164,3.80767 0,0 z m -0.066,-3.73102 c 0.37297,-3.64208 1.20652,2.24984 0,0 z m 20.83499,0.40184 c 1.58646,-4.2537 2.59684,3.06359 0,0 z m -19.22895,-2.42484 c 5.90032,-17.02298 10.13575,-1.20173 0,0 z m 0,-5.97289 c 1.37955,-3.94395 2.90157,1.45624 0,0 z m 9.77911,-0.43181 c -1.12685,-7.84658 2.67021,4.81324 0,0 z m -2.6174,-3.13743 c -1.58061,-5.33389 -0.76412,-2.03834 0,0 z m 2.03475,-4.55568 c 1.75455,-10.08807 5.21348,0.18495 0,0 z m -10.77156,-3.64008 c -2.35952,-6.20084 2.40891,1.15059 0,0 z m 21.25778,-1.79248 c 0.30522,-4.16057 2.66491,2.8104 0,0 z m -8.59274,-1.60963 c -6.69072,-18.07032 5.45199,-0.35168 0,0 z m -21.95847,-2.62267 c 1.46517,-4.44305 1.2996,3.1043 0,0 z m 1.67208,-5.11841 c 2.13603,-3.03053 2.13603,3.03053 0,0 z m 20.91383,-6.49703 c 0.75434,-5.47129 3.24705,-0.0601 0,0 z m 2.55409,-6.75806 c 2.42163,-7.76475 0.37931,5.01235 0,0 z m -13.27867,69.27685 c -3.6647,-1.21006 -0.3625,1.62606 0,0 z m 118.73074,-7.23695 c 2.22508,-14.74912 9.87552,-22.44006 9.72351,-34.42392 -8.39524,13.39428 -12.45884,31.89601 -9.72351,34.42392 l 0,0 z m 0.0568,-10.43629 c 3.31047,-1.77516 0.78133,1.90359 0,0 z m -43.5681,-5.19175 c 3.82752,-15.28501 -6.00871,5.4278 4.2e-4,0 l -4.2e-4,0 z m -109.45005,-1.66612 c -10.13398,-13.26562 -11.5414,-3.95302 0,0 z m -123.43279,-4.22959 c -1.88389,0.78958 1.75692,3.34494 0,0 z m 20.90103,-0.84476 c -1.88389,0.78958 1.75692,3.34494 0,0 z m 160.39711,0.5576 c -3.37873,-2.98556 -0.358,4.26011 0,0 z m -54.20291,-2.26471 c 1.40209,-8.16493 1.67873,-7.77906 5.58576,-22.72047 7.17287,-19.12035 -27.34567,21.7749 -8.40517,25.31157 1.16845,-0.56724 1.23401,-2.56448 2.81941,-2.5911 z m -1.29212,-15.76883 c 0.37297,-3.64208 1.20653,2.24983 0,0 z m 3.05174,-1.00316 c -5.26953,-4.61792 4.84395,-1.45982 0,0 z m 0.22642,-5.35307 c 1.95107,-2.90157 2.40799,1.60975 0,0 z m 116.20973,17.24728 c -4.48913,-2.81483 -4.93469,15.04559 0,0 z m 0.50511,3.20586 c -1.88388,0.78957 1.75693,3.34494 0,0 z m -137.61587,-0.34685 c 8.33729,-9.96106 -12.61639,-1.04533 0,0 z m 132.37491,-0.87414 c 0.27497,-10.85764 -3.58874,6.78293 0,0 z m -221.086,-8.92827 c -0.4519,-35.34214 2.36242,7.94992 -0.3079,6.70456 l 0.30786,-6.70456 4e-5,0 z m 164.79084,6.91396 c -2.40798,-1.60976 -1.95107,2.90156 0,0 z m 51.50363,-2.67802 c -1.88389,0.78958 1.75692,3.34494 0,0 z m -5.01625,-0.84475 c -1.88389,0.78958 1.75692,3.34494 0,0 z m 20.49966,0.3907 c -2.77867,-2.18643 2.64368,4.60771 0,0 z m 10.43386,-0.3907 c -1.88388,0.78958 1.75693,3.34494 0,0 z m -144.72221,-0.22879 c -1.03826,-3.33034 -2.99996,3.21617 0,0 z m 66.18292,-1.90071 c -1.46326,0.84427 1.35697,4.65195 0,0 z m -68.80807,-1.49512 c 1.15754,-8.0812 -7.77971,9.19228 0,0 z m 140.15392,1.60661 c -2.90156,-1.45625 -1.37954,3.94395 0,0 z m -283.41797,-0.9866 c 2.24912,-2.43741 -9.40253,4.5074 0,0 z m 269.20527,1.13616 c -1.58645,-4.25371 -2.59684,3.06359 0,0 z m 33.41224,-0.83908 c 4.8446,-12.54607 -7.90026,7.80651 0,0 z m -313.06802,-0.0555 c -2.21774,-3.25798 -4.17048,3.06656 0,0 z m 248.36201,-1.78396 c 2.94021,-15.04555 -5.46933,-1.85962 0,0 z M 103.22456,385.2176 c 1.50676,-6.06854 -4.86519,6.25095 0,0 z m 264.88815,-2.30549 c -1.88388,0.78958 1.75693,3.34494 0,0 z m 5.34718,1.46073 c -2.13603,-3.03052 -2.13603,3.03053 0,0 z m -255.57233,-2.59095 c -10.88285,-14.50198 4.71627,9.94824 0,0 z m 130.16615,1.7462 c -2.13603,-3.03053 -2.13603,3.03053 0,0 z m 166.87731,-2.30549 c -1.88388,0.78958 1.75693,3.34494 0,0 z m -333.0405,0.26398 c -2.01905,-3.93726 -2.70992,3.69086 0,0 z m 306.34668,-0.20385 c 2.21566,-7.79855 -3.26,1.4483 0,0 z m 132.15474,-5.35747 c 8.68534,-35.00252 -8.49321,18.69245 -2.20709,-12.68866 -4.99779,18.33052 0.83773,-22.26278 -11.01378,6.4282 -12.74336,7.79854 14.23712,18.02692 13.22087,6.26046 z m -273.17427,3.75155 c -2.40798,-1.60975 -1.95107,2.90157 0,0 z m 38.61465,0.73994 c -3.6647,-1.21007 -0.3625,1.62606 0,0 z m 2.77259,-4.49149 c 10.15787,-26.19036 -11.79299,5.43881 0,0 z m -2.0933,-3.75156 c 1.95107,-2.90157 2.40798,1.60976 0,0 z m 54.01174,-1.93297 c -1.88388,0.78958 1.75693,3.34494 0,0 z m 151.65439,-1.73033 c 5.7499,-20.2438 -0.79334,-10.01863 -6.06024,-5.8573 -2.50637,1.70932 6.27807,12.74626 6.06024,5.8573 z m 43.87938,-3.43913 c -4.25978,1.91979 -0.66329,6.37762 0,0 z M 289.85577,364.1485 c -1.58645,-4.25371 -2.59684,3.06358 0,0 z m 25.91728,-2.634 c -2.58469,-4.56663 -1.48557,5.73344 0,0 z m 10.03249,0.0498 c -2.06192,-3.00926 -1.01107,3.08857 0,0 z m -34.69571,-0.84475 c -2.1429,-3.1289 -3.21396,3.02863 0,0 z m 193.96156,0 c -2.06192,-3.00927 -1.01107,3.08856 0,0 z m 60.19497,0.29273 c -4.90058,-8.77934 -31.46043,-0.35401 0,0 z m -251.23038,-1.98223 c -2.06192,-3.00927 -1.01108,3.08856 0,0 z M 562.271,357.72316 c 1.42426,-12.27959 -6.02358,1.73314 0,0 z m -290.4544,0.17509 c 9.43386,-13.53732 5.37931,-31.86084 0,0 z m 147.62556,-0.13534 c -1.98439,-4.43244 -0.72352,4.4621 0,0 z m 107.9244,-0.93617 c -0.62575,-8.64405 -17.435,4.43423 0,0 z M 100.38673,347.7776 c 12.4656,-13.20596 3.80914,-20.80366 22.53396,-25.62526 12.42058,-14.08349 -17.03708,-15.37993 -22.91241,10.72596 -17.30283,3.32457 -4.76479,33.45275 0.37845,14.8993 z m 415.61819,7.02866 c -2.06192,-3.00927 -1.01108,3.08856 0,0 z M 408.99164,353.9615 c -2.06192,-3.00927 -1.01107,3.08856 0,0 z m 76.49777,-0.0498 c -2.40798,-1.60976 -1.95107,2.90157 0,0 z m 28.00738,0.0498 c -2.99995,-3.21616 -1.03825,3.33034 0,0 z m -377.80353,-2.30549 c -1.88389,0.78958 1.75692,3.34494 0,0 z m 374.01476,-0.43998 c -8.54494,-10.61575 -13.02937,-3.94061 0,0 z m 38.48448,0.0594 c 26.0947,-8.80825 43.18111,-68.27363 38.01683,-63.01273 -18.85704,-18.14543 -51.17499,29.99318 -49.61405,-3.59376 -13.34699,-18.71174 -29.35809,-32.8861 -39.86897,-5.18948 -18.60132,12.88712 -10.45744,65.76216 20.47151,63.80942 10.56433,-20.9921 0.98703,30.31433 30.99468,7.98655 z m -24.54753,-17.16575 c 1.98439,-4.43244 0.72352,4.4621 0,0 z m -389.3078,11.7597 c -3.92236,-11.44949 1.72831,10.76343 0,0 z m 222.4019,2.35984 c -4.40012,-2.45751 -4.40015,2.4575 0,0 z m 136.69274,-0.18102 c -2.06192,-3.00927 -1.01108,3.08856 0,0 z m -94.89068,-2.1119 c 3.4427,-23.06418 -11.27725,1.78806 0,0 z m -256.72234,-4.96027 c -2.41771,0.38842 2.66077,9.33856 0,0 z m 251.37516,3.07716 c -1.88388,0.78958 1.75692,3.34494 0,0 z m -285.59516,0.1936 c -0.72352,-4.4621 -1.98439,4.43244 0,0 z m -38.92106,-3.4258 c 10.11021,-22.23111 -28.91891,-70.42397 -12.19535,-19.99157 -0.36953,5.2985 1.44729,29.49682 12.19535,19.99157 z m 205.97254,-2.01234 c -2.76387,-3.08017 -2.62139,4.71633 0,0 z m 212.51123,-1.74231 c -4.38323,-3.11273 -4.38323,3.11272 0,0 z m -120.87927,-2.74547 c 3.40299,-27.10321 -8.51476,0.55238 0,0 z M 74.33919,333.96889 c 9.44139,-14.11865 -16.1506,-28.8161 -1.47475,-2.33133 0.4321,-2.44261 0.42766,7.21315 1.47475,2.33133 z m 276.67493,-0.49278 c 5.13328,-15.12766 29.90375,-75.63925 18.51109,-39.13569 -1.10458,14.22166 -11.2777,41.90099 1.89457,12.10343 4.61645,-20.91625 45.64844,-84.75426 17.90693,-34.45933 -3.53802,25.20379 28.01738,-23.84526 28.97127,-34.27321 19.60029,-18.62212 5.98177,-19.914 -5.93272,-25.07798 -4.56905,-10.00868 -21.67398,-14.55697 1.22461,-10.76229 -27.31057,-6.34797 -6.82037,-2.09317 -11.91675,-9.38767 -26.56104,-20.2026 17.25759,7.92685 -6.59107,-9.09866 -10.12649,-10.27165 -8.60422,-15.78093 -11.2268,-26.34214 -9.05733,-1.09493 42.30596,-27.94051 5.0714,-14.66165 15.5068,6.50521 -71.83917,14.55881 -33.71584,4.34428 25.49191,0.39121 5.69985,-2.81621 -7.45919,-8.25038 8.82837,9.59099 -41.10435,-2.7596 -13.13564,8.4685 -11.24381,-6.56669 -24.21021,2.03648 -31.12382,5.75443 -20.41867,16.40182 -13.16943,52.95643 -11.32297,50.60104 -10.52936,15.7568 -10.47647,46.04212 -10.44035,68.75522 0.0601,5.91747 2.88491,58.3446 11.05308,24.4639 3.97583,53.57545 5.53415,-53.01977 9.28326,-1.44091 -1.06469,18.3547 18.32053,16.26297 16.80506,12.62127 7.00514,-18.10248 7.07582,-24.25876 12.46594,-14.16031 -5.85708,11.64327 16.92714,-0.82058 1.22223,19.10696 8.1045,14.22359 3.89861,-3.40359 12.43097,-5.8226 6.25596,-11.16311 -7.9038,31.34835 3.81243,1.21444 0.32066,9.34163 -15.11958,30.01242 2.21231,25.43935 z M 313.0385,307.83418 c -3.02363,-4.76302 3.24483,-1.18804 0,0 z m -8.52918,-15.32885 c -5.84261,-28.56997 4.0922,-15.6663 0.93376,6.54688 l -0.93376,-6.54688 0,0 z m 11.76585,-3.30825 c 2.05321,-9.07461 0.54918,7.05446 0,0 z m 2.8648,-4.90045 c -1.96965,-6.79269 6.13295,2.68203 0,0 z m -4.40472,-0.9315 c -5.87614,-1.36965 3.08989,-39.95426 8.90473,-31.33477 -7.73122,12.64212 19.16695,24.9277 5.78995,27.5924 -3.38696,12.01737 -0.30987,-22.43037 -6.70788,3.92398 4.68367,-14.63496 -2.74247,-5.7793 -7.9868,-0.18161 z m 1.54291,-17.02972 c -1.88389,0.78958 1.75692,3.34494 0,0 z m -24.65302,13.28735 c 0.78891,-10.35732 0.69304,10.07484 0,0 z m -7.97033,-0.73138 c -0.70607,-4.95194 -2.54261,-2.15666 0,3e-5 l 0,-3e-5 z m 92.32601,-3.23137 c 0.75434,-5.47129 3.24705,-0.0601 0,0 z m -66.8961,-1.47832 c 1.63805,-5.79471 0.79792,4.41602 0,0 z m -17.49086,-4.20326 c 0.37297,-3.64208 1.20652,2.24984 0,0 z m -0.008,-9.94645 c 2.34063,-9.06095 0.54479,6.12474 0,0 z m 2.13463,-27.32598 c -2.30876,-7.53974 3.04479,4.31654 0,0 z m 114.85266,-2.97386 c 2.79309,-12.21255 5.92981,-5.27058 0,0 z m -114.89362,-2.2033 c 0.32929,-7.72422 2.53212,4.79928 0,0 z m 119.07383,-1.12587 c 3.21396,-3.02864 2.1429,3.12889 0,0 z m -6.16689,-0.67568 c 2.10421,-5.56262 3.52843,1.999 0,0 z m -64.89661,-1.01384 c -2.76096,-3.31971 5.24349,2.83557 0,0 z m 74.94137,-0.42238 c 1.98438,-4.43244 0.72352,4.4621 0,0 z m -79.95762,-2.63771 c -9.41599,-3.72452 -6.02306,-11.88582 -5.72082,-22.05729 10.4102,-2.41459 4.1518,11.40403 9.91362,18.78957 0.65088,12.03107 -2.7538,-5.49493 -4.1928,3.26772 z m 7.31146,-1.05282 c -6.96419,-9.04558 17.2275,4.65348 0,0 z m -7.31146,-23.76412 c 2.13603,-3.03053 2.13603,3.03053 0,0 z m -1.67208,-2.43674 c 5.40246,-9.0765 2.72674,4.66311 0,0 z m 41.38404,-36.42216 c 4.17047,-3.06656 2.21774,3.25798 0,0 z m -4.59823,-3.37904 c 2.13603,-3.03053 2.13603,3.03053 0,0 z m -31.76957,-5.91331 c 2.1429,-3.12889 3.21396,3.02864 0,0 z m 129.75836,183.5143 c -5.02171,-11.25773 -31.64358,-13.25311 -3.86371,-19.48589 6.5246,-18.71561 35.43758,-63.79081 15.39632,-70.2469 -5.06103,31.41339 -4.11793,21.58089 -5.37941,-0.66183 -21.84029,-6.00799 -32.80835,64.45999 -0.93076,46.61989 -20.98486,17.28538 -27.50819,-8.17007 -23.44725,-21.93051 0.89222,-18.29872 -17.15303,55.57909 -15.37725,25.57351 -3.7565,16.05904 -12.61439,48.56828 21.72551,41.73216 l 6.03519,0.35083 5.84136,-1.95126 0,0 z M 446.61303,318.459 c -5.13049,-3.10605 8.09504,0.47511 0,0 z m -4.18021,-0.8221 c 1.01108,-3.08857 2.06192,3.00927 0,0 z m -7.10635,-9.66487 c 0.4927,-4.16302 2.5651,2.99472 0,0 z m 38.49459,-32.37518 c 4.22647,-16.74715 3.41902,-3.47664 0,0 z m -150.03372,51.74534 c -1.44174,-15.56482 -2.99466,13.59115 0,0 z m 6.13594,2.75489 c -2.82273,-20.13818 -5.58263,8.90706 0,0 z m 53.90096,0.35128 c 5.07924,-16.52765 -5.8381,3.45208 0,0 z m 9.18105,-5.94557 c 3.29309,-23.301 -7.05898,20.83734 0,0 z m -75.73419,1.1256 c 2.49215,-23.26635 -15.269,6.47087 0,0 z m -6.79345,1.52209 c -5.96723,-18.77965 -7.31677,3.08721 0,0 z m 24.52388,-4.16609 c -7.40994,-11.91661 -2.58454,16.14508 0,0 z m 146.81232,1.63936 c -1.88389,0.78958 1.75692,3.34493 0,0 z m -117.9689,-0.22878 c -2.06192,-3.00927 -1.01108,3.08855 0,0 z m -53.74244,-4.37758 c -1.38696,2.65043 2.02503,4.55892 0,0 z m 175.89154,1.22733 c -1.88388,0.78958 1.75693,3.34494 0,0 z M 92.86796,320.3074 c 17.06343,-18.70019 -13.35886,-4.59623 0,0 z M 324.63857,320.4 c -1.88388,0.78958 1.75693,3.34494 0,0 z m 62.18518,-0.48983 c -0.81649,-4.80261 -2.49037,7.50362 0,0 z m -84.18512,0.26104 c -1.90769,-5.88258 -0.59268,5.87981 0,0 z m 19.82275,-1.68951 c -0.53045,-8.86207 -1.75683,8.87696 0,0 z m -17.25453,-2.95666 c -2.9192,-17.88273 -4.77858,2.55213 0,0 z m 117.57947,-0.52208 c -2.90156,-1.45625 -1.37954,3.94395 0,0 z m 10.48937,-1.23753 c -1.78333,-7.51772 -1.2051,8.90603 0,0 z m -114.15848,0.49247 c -7.20031,-0.51728 -2.43523,-0.19377 0,0 z m -48.49039,-0.78783 c -5.50423,-8.078 -2.18546,5.48249 0,0 z m 72.73559,-0.52916 c -2.40798,-1.60976 -1.95107,2.90157 0,0 z m 20.63438,-4.01881 c 2.0673,-10.61586 -5.57473,14.39572 0,0 z m -214.23285,2.16796 c 10.11998,-23.29173 -37.59436,-32.51701 -14.41272,0.45958 11.99843,-8.49854 16.38687,-2.61872 14.41272,-0.45958 z m -19.66171,-5.63173 c -4.51912,-12.76529 2.78696,14.37397 0,0 z m 35.39617,-1.53306 c 6.33352,-8.99987 17.78394,-3.84674 9.36983,-10.14433 -7.68356,2.51496 -31.12188,24.01256 -9.36983,10.14433 z m -44.52295,3.57457 c -11.87376,-5.09245 7.25227,5.84844 0,0 z m 202.03962,-1.05595 c -1.46326,0.84427 1.35696,4.65194 0,0 z m -197.42412,-3.41818 c -12.0337,-10.31812 1.70358,14.06604 0,0 z m 140.01963,4.50379 c -2.74257,-9.99892 -3.74728,4.56234 0,0 z m 165.24851,-4.48077 c -1.51942,1.01601 1.52504,5.62967 0,0 z m -129.12662,-0.66025 c -2.60595,-10.41565 -2.19803,10.97042 0,0 z m 19.56194,1.1163 c -1.88389,0.78958 1.75692,3.34494 0,0 z m -150.15649,-0.70103 c -2.40798,-1.60975 -1.95107,2.90157 0,0 z m 90.00395,-1.60322 c -3.85341,-4.84467 0.62215,5.86609 0,0 z m 8.19518,-1.36195 c -4.89685,-3.62719 -0.63227,4.07004 0,0 z m 65.33402,-1.40235 c -1.88389,0.78958 1.75692,3.34494 0,0 z m 58.85381,-5.56795 c -5.26135,2.68009 -6.17929,8.92391 0,0 z m -135.43867,2.97384 c -4.57849,-8.98782 -2.48954,3.09679 0,0 z m 7.33277,-0.32735 c -2.67414,-4.64784 -1.70242,3.89631 0,0 z m -101.51051,-8.00665 c 31.20918,-15.86843 -16.66757,-2.39088 -10.4178,6.97471 l 3.91221,-2.38402 6.50559,-4.59069 z m 1.87079,3.81764 c -7.01519,3.20796 -6.4776,6.88799 0,0 z m 102.33944,2.60803 c -3.24981,-3.05649 -1.7686,4.19418 0,0 z m 166.3722,0.89462 c -2.06192,-3.00927 -1.01107,3.08856 0,0 z m -241.46237,-3.37904 c 10.74687,-9.30529 11.05752,-11.77477 9.49923,-18.30693 -0.52464,3.65744 -20.59203,19.51209 -9.49923,18.30693 z m -0.98958,-1.21728 c 2.00063,-2.88436 3.38467,1.61808 0,0 z m 2.08645,-5.54675 c 3.38442,-7.13987 3.75821,4.46806 0,0 z m 71.87924,4.77429 c 3.47736,-9.42948 -11.69064,4.7455 0,0 z m -81.34923,-3.27441 c -2.42292,-0.88384 2.76341,5.33796 0,0 z m 255.15587,-0.77227 c -0.98245,-9.29016 -2.724,9.68701 0,0 z m -265.3292,0.1199 c -4.1305,-0.94486 -2.902,5.10717 0,0 z m 15.397,0.5465 c -5.04238,-4.81066 1.26399,5.50136 0,0 z m -42.2864,-3.88848 c 13.87467,-13.73444 -18.72035,12.45131 0,0 z m 115.53069,1.44448 c 10.9391,-10.06039 -12.3278,6.90692 0,0 z m 137.86552,-3.3985 c -7.40435,3.07719 -5.24907,7.55973 0,0 z m 199.54328,2.99372 c -1.88388,0.78958 1.75692,3.34494 0,0 z m -22.29792,0.0962 c -13.98554,-0.64565 -15.57618,3.16154 0,0 z m -395.31488,-2.93163 c -3.31742,-3.44466 3.19346,8.72928 0,0 z m 7.4475,1.81175 c -1.58646,-4.2537 -2.59685,3.06359 0,0 z m 61.33334,-0.47223 c -2.93056,-4.47086 -1.98784,4.56145 0,0 z M 40.06779,277.29967 c -3.56239,-3.04912 0.82509,10.25145 0,0 z m 532.772,3.47951 c 29.2898,-8.90211 -24.53598,-43.89766 -4.14103,-22.96361 -0.39134,12.93132 -18.26068,1.35405 -11.17046,16.2056 -3.12689,3.20808 3.59608,9.88702 15.31149,6.75801 z m -378.29272,-4.44161 c 13.1639,-5.92824 -10.25497,-7.91256 -5.74026,-7.12224 0.47647,10.76765 -8.79247,16.52026 5.74026,7.12224 z m 66.67429,0.88131 c 14.49346,-18.63057 -22.68497,12.19325 0,0 z m 0.20901,-4.35419 c 1.01107,-3.08856 2.06192,3.00927 0,0 z m -66.8833,5.7195 c -3.38419,0.005 -2.13843,3.44591 0,0 z m 11.54312,-0.25092 c -2.36608,1.63302 -0.99306,3.67443 0,0 z m 234.9116,-0.51551 c -2.31355,1.0057 -0.005,4.32969 0,0 z m 159.24395,-3.47474 c 0.71967,-6.86325 -3.67303,-7.89687 -1.5056,-18.07566 -3.6702,3.18933 -8.43023,35.34779 1.5056,18.07566 z m -419.53831,2.50931 c -9.50093,-8.67167 2.35389,6.48503 0,0 z m 4.64319,0.23615 c -2.06192,-3.00926 -1.01107,3.08857 0,0 z m -8.36041,-3.32917 c -3.62762,-5.67404 -8.01975,0.45056 0,0 z m 32.04053,-0.38965 c -0.0959,-6.3062 3.95769,-3.76988 0,0 l 0,0 z m -27.8812,-2.55348 c -4.49968,-1.66874 2.15168,6.14529 0,0 z m 260.86573,1.62613 c -2.07282,-4.45101 -2.07282,4.45102 0,0 z m 58.52289,0 c -0.72352,-4.4621 -1.98439,4.43244 0,0 z m 39.285,-2.11189 c 4.5474,-5.55236 14.86661,-22.3704 -1.66315,-11.87648 -2.96478,11.54984 -13.00887,2.01308 -5.2734,13.29381 2.89474,4.41504 4.21329,-1.52705 6.93655,-1.41733 z m -1.66315,-9.24249 c 1.95107,-2.90157 2.40798,1.60975 0,0 z m -386.66906,10.08724 c 4.27701,-6.04196 -6.23906,6.14355 0,0 z m 8.77843,-0.47223 c -2.40798,-1.60976 -1.95107,2.90157 0,0 z m 45.30299,0.73993 c -3.66471,-1.21007 -0.3625,1.62606 0,0 z m 199.65709,-1.62521 c 8.98069,-16.10615 -8.52317,7.82253 0,0 z m 178.91282,0.51276 c -2.06192,-3.00927 -1.01108,3.08856 0,0 z m -396.77132,-1.991 c -4.43932,-4.8788 1.47665,5.5802 0,0 z m -7.87263,-0.71224 c -1.3322,-4.52962 -1.16603,5.76593 0,0 z m 34.51993,0.16895 c -0.59267,-5.87982 -1.90769,5.88259 0,0 z m -57.09304,-1.32658 c -4.37833,0.75062 -4.57448,4.05927 0,0 z m 38.45789,0.9042 c -2.93055,-4.47086 -1.98784,4.56145 0,0 z m 59.77695,-1.4899 c -2.55145,-5.51719 -3.11288,7.17061 0,0 z m -43.89216,-0.19962 c -2.07282,-4.45101 -2.07282,4.45102 0,0 z m 202.2632,-1.47833 c -0.54667,-7.07553 -2.41206,9.01924 0,0 z m 78.2401,-3.80141 c 10.54877,-29.54713 -3.0869,-16.42568 -2.6829,5.70212 l 2.6829,-5.70212 z m -318.54318,4.0126 c -1.03825,-3.33034 -2.99996,3.21617 0,0 z m 14.63072,-0.0498 c -2.40798,-1.60975 -1.95107,2.90157 0,0 z m 14.8713,-1.75514 c -2.03674,0.94361 -0.79703,4.83204 0,0 z m 324.56143,0.91037 c -2.40798,-1.60976 -1.95107,2.90157 0,0 z m 59.30269,-2.78941 c 4.82277,-17.96963 -8.56498,12.68325 0,0 z m -385.05642,-0.96215 c -1.76198,-4.42313 -1.76198,4.42313 0,0 z M 452.6748,258.9108 c -2.38386,-8.69308 -0.60112,7.27879 0,0 z m 130.80679,-1.46292 c -4.52453,-3.82171 19.36247,-29.84756 17.16049,-50.19648 6.85833,-47.10809 -7.27481,34.99713 -22.91382,42.84549 3.68221,-9.60837 16.56494,-35.47086 18.53661,-58.63449 -3.04373,-17.38802 -33.49795,22.69952 -55.08218,10.50189 -19.5846,-9.23477 -39.29157,71.08531 -3.25982,41.75566 18.64918,-6.80759 36.77978,4.39659 45.55872,13.72793 z m 1.49673,-8.95023 c 6.519,-10.57082 7.5495,-7.02881 0,0 z m -167.60336,6.22225 c 22.00979,-35.70085 -10.40412,7.73777 0,0 z m 181.13779,-2.54393 c -0.41461,-10.64352 -3.06541,11.92245 0,0 z m -144.7929,0.76653 c -3.3878,-6.86553 -1.31174,7.50845 0,0 z m 59.35892,0.96501 c -2.02114,-5.76609 -2.91174,4.33975 0,0 z m 19.18477,0.2615 c 17.57667,-6.85515 20.5521,-10.51703 -3.48223,-2.50286 -2.12371,2.45822 1.79011,5.19894 3.48223,2.50286 z m -107.44126,-6.55853 c 0.0781,-13.67377 -2.81305,4.5962 0,0 z m 28.56664,-2.39401 c -1.88389,0.78958 1.75692,3.34494 0,0 z m 62.12641,-1.07354 c -3.29066,1.19727 0.0938,5.87705 0,0 z m -99.08876,1.19804 c 1.6584,-12.50564 -5.29232,4.87266 0,0 z m -179.2414,-2.51504 c -2.40798,-1.60975 -1.95106,2.90157 0,0 z m 194.6062,-3.59374 c -3.03228,-2.15759 -3.02347,4.15942 0,0 z m 60.91575,-2.9544 c 0.49731,-6.40921 -14.80292,2.96005 0,0 z M 477.96504,235.131 c -18.13152,-5.1331 -16.49826,5.14032 0,0 z m -42.6381,-3.34051 c -2.28544,-6.02161 -1.55121,6.79028 0,0 z m -153.69615,-7.16158 c 1.01025,-10.92344 -4.357,15.83205 0,0 z m 150.35199,3.73269 c -1.91631,-4.13529 -1.84564,6.98511 0,0 z m 9.04559,-0.12407 c -2.99394,-6.36204 -3.36925,7.39288 0,0 z m -5.5606,-2.03014 c -2.70353,-1.08166 3.02572,5.49024 0,0 z m 42.70499,0.19561 c -4.43395,-4.86894 -7.09371,2.56536 0,0 z m 7.73467,0 c -2.31091,-8.14983 -7.38246,2.21701 0,0 z m -54.765,-7.59672 c 3.73927,-7.41847 -6.90829,7.97584 0,0 z m 6.69263,-0.32997 c -4.30615,-5.8262 -4.13097,3.90137 0,0 z m -12.90693,-5.39642 c -4.90833,2.09661 -2.78722,3.66502 0,0 z m 185.10582,-0.61541 c -2.92973,1.14848 -0.68109,4.71876 0,0 z m 18.36229,-10.98186 c -4.13766,2.0864 -1.23318,6.50749 0,0 z M 421.53226,201.0602 c -2.99996,-3.21617 -1.03825,3.33034 0,0 z m 86.10382,-0.0138 c -3.37235,-1.62875 -1.89409,2.93463 0,0 z m -3.38353,-1.75918 c 10.80341,-7.28147 -11.32283,5.56167 0,0 z m -87.46394,-1.56306 c -17.5621,-13.14633 -6.23761,5.08023 0,0 z m 8.08782,1.64649 c -2.06192,-3.00926 -1.01108,3.08857 0,0 z m -2.09011,-1.73937 c -7.59589,-6.79593 -10.50891,-4.21882 0,0 z m 76.26856,-0.79174 c 11.87651,-5.03877 -4.66419,-17.67077 8.50047,-18.83462 0.64437,-2.82893 2.66603,-14.88993 -5.90277,-19.49342 -13.0851,2.74738 -13.75207,2.64767 -17.84588,12.98657 -16.02234,5.07129 0.18996,30.11615 15.24818,25.34147 z m -18.19807,-14.42023 c -0.83186,-4.5311 3.89335,3.63211 0,0 z m 9.64885,-8.72339 c 0.38104,-2.26821 4.94381,0.75708 0,0 z m 5.3719,-3.78982 c 4.54764,-4.41538 -3.29235,-2.31344 0,0 l 0,0 z m -72.10947,19.9066 c -18.64021,-25.50826 2.16273,7.01528 0,0 z m -7.57479,-1.9157 c -6.84274,-19.25538 -17.34033,-40.35006 -13.47197,-8.51838 3.18826,-0.006 14.19716,15.28154 13.47197,8.51838 z m 195.25069,-0.5802 c -1.51942,1.01601 1.52505,5.62967 0,0 z m -322.42426,-1.08973 c -2.5651,-2.99472 -0.4927,4.16302 0,0 z m 119.13587,0.47223 c -2.06192,-3.00926 -1.01107,3.08857 0,0 z m 102.41505,-0.42238 c 1.8334,-5.09595 -5.84884,4.69348 0,0 z m 28.89264,-0.81789 c 10.80868,-7.69028 -11.23935,-4.5895 0,0 z m 70.86033,-0.23806 c -0.37907,-7.80455 -6.33215,1.82157 0,0 z m 5.27187,-4.54465 c -4.81422,-2.84138 2.55599,9.35594 0,0 z m -179.8602,1.588 c 13.35144,-7.3062 38.93647,-26.20571 18.8206,-30.89162 0.15359,-0.80144 -13.27888,6.89992 -17.41752,10.85568 -4.29807,2.10349 -10.30695,11.96999 -1.40308,20.03594 z m 1.71501,-14.09534 c 0.23756,-5.89086 4.13066,1.05058 0,0 z m 15.09621,-9.21474 c 0.37834,-4.32302 4.2232,0.58972 0,0 z m 167.16471,17.91596 c 5.09637,-15.73564 -12.94602,13.43607 0,0 z m -227.02238,0.0645 c -2.40798,-1.60976 -1.95107,2.90157 0,0 z m 212.77,-0.36459 c 8.37929,-41.1561 -21.48646,-5.85292 0,0 z m -3.3342,-18.27727 c -5.10696,-7.51791 8.07243,7.4628 0,0 z m -201.25616,16.66435 c -2.41295,-7.27693 -0.19166,8.25101 0,0 z m 145.23392,0.76021 c -2.06192,-3.00927 -1.01107,3.08856 0,0 z m 45.56425,-1.76909 c 14.67858,-17.6467 -10.68855,-36.93667 -6.68657,-9.64955 1.80286,4.79187 -3.37564,16.7247 6.68657,9.64955 z m -176.01032,-4.6378 c -0.68899,-10.12332 -1.4909,15.22899 0,0 z M 396.033,168.48709 c -3.41564,-12.50218 -2.98504,13.59547 0,0 z m 87.33817,1.444 c -9.14554,1.37713 -6.22012,5.12812 0,0 z m 51.38954,-8.93948 c 2.62531,-19.09305 -19.28598,32.28162 0,0 z m 41.76089,11.13557 c 20.67222,-22.13092 -13.13884,-39.05583 -6.2023,-16.68399 0.003,5.39109 -5.24513,21.90719 6.2023,16.68399 z m -61.21705,-4.2238 c -1.46326,0.84427 1.35696,4.65194 0,0 z m -35.2494,-3.16784 c -2.06192,-3.00927 -1.01108,3.08856 0,0 z m 83.65996,-0.81158 c 6.71605,-26.07416 -1.3523,-20.55211 -6.94476,-16.17947 0.4199,6.2443 -5.58003,23.43239 6.94476,16.17947 z m -171.86782,-5.36278 c 6.50294,-10.61002 -12.0197,11.58026 0,0 z m 17.77779,-6.49702 c -6.38898,2.92991 1.37223,12.83419 0,0 z m 137.73138,2.87973 c -3.38419,0.005 -2.13843,3.44591 0,0 z m -44.60876,0.0769 c 2.21196,-4.6539 -5.42222,4.85132 0,0 z m 33.25383,0.75438 c 5.39156,-5.57349 -6.73579,1.41476 0,0 z m 18.04326,-1.17676 c -2.13603,-3.03053 -2.13603,3.03053 0,0 z m -93.17069,-1.19807 c 4.30369,-6.53145 -7.96485,4.49304 0,0 z m 89.43063,-0.32829 c -3.63651,1.00341 -1.61617,2.39074 0,0 z m -151.04014,-1.4734 c -0.30521,-4.51142 -4.06075,6.74167 0,0 z m 3.87476,-4.1545 c 6.24409,-7.5772 -10.44407,7.59242 0,0 z m 53.08862,1.1911 c -2.40798,-1.60976 -1.95107,2.90156 0,0 z m -139.61888,-2.48442 c -2.06192,-3.00927 -1.01108,3.08856 0,0 z m 64.90833,-3.63617 c -4.20953,-2.2536 -5.03293,2.68024 0,0 z m 170.01925,-3.1219 c -2.06192,-3.00927 -1.01108,3.08856 0,0 z m -207.33822,-1.68952 c -2.13604,-3.03053 -2.13604,3.03053 0,0 z m 64.3426,-1.8488 c 2.2087,-7.32142 -10.98744,5.54226 0,0 z m -58.09527,-0.12273 c -11.56141,-5.19222 1.56894,3.31654 0,0 z m 48.51337,-1.4075 c 29.61554,-15.80092 -21.05235,-6.30075 2e-5,0 l -2e-5,0 z m -53.92466,-1.68952 c -2.06192,-3.00927 -1.01107,3.08856 0,0 z m 38.4579,-0.36204 c -11.50483,-26.72175 -13.57891,-2.93651 0,0 z m -40.96602,-0.53258 c -2.40799,-1.60975 -1.95107,2.90157 0,0 z m 11.19051,-4.17393 c 1.30694,-10.18271 -5.88702,14.08314 0,0 z m 8.03844,4.17393 c -2.40799,-1.60975 -1.95107,2.90157 0,0 z m 98.37109,-0.47441 c -8.52333,-3.82708 -7.68667,4.30723 0,0 z m -83.74037,-0.32049 c -2.06192,-3.00926 -1.01108,3.08857 0,0 z m 75.66173,-0.0209 c -9.51974,-18.73162 -24.13533,-9.81589 0,0 z m 36.25211,-1.24619 c -2.56693,-5.38557 -3.2462,4.25348 0,0 z m -51.93228,-1.68951 c -3.13338,-7.3925 -0.41294,7.3777 0,0 z m 18.22318,0.48825 c -13.42102,-28.570175 -9.42236,0.2269 0,0 z m -15.23736,-1.33659 c -3.66333,-6.63852 1.67973,7.23005 0,0 z m 18.54663,0.87485 c 6.2261,-2.77157 -5.9687,0.13048 0,0 z m -89.81471,-1.29365 c -1.81801,-15.58455 -5.94239,4.18432 0,0 z m 105.6995,0.84476 c -2.06192,-3.00928 -1.01108,3.08856 0,0 z m 4.53877,-0.43396 c -3.79222,-4.0114 -3.6217,4.05215 0,0 z m -128.10379,-3.36747 c -0.45431,-2.8641 -3.41296,8.60335 0,0 z m 131.92543,2.95667 c -2.06192,-3.00928 -1.01108,3.08856 0,0 z m -23.55687,-4.22517 c 0.0229,-17.36869 22.38974,-26.431415 -3.13552,-16.69258 -0.93675,-0.15389 -0.39139,26.78007 3.13552,16.69258 z m -25.30888,-4.83707 c -3.67545,-2.46843 1.98086,11.46994 0,0 z m 46.35763,5.02617 c -7.98891,-10.87472 -9.60587,-3.15665 0,0 z m -29.15346,-7.17459 c -5.09757,-1.62875 2.93914,5.41561 0,0 z m 15.39315,1.12975 c -3.89335,-3.63212 0.83186,4.5311 0,0 z m 27.13696,1.24241 c -14.36502,-12.95958 -14.10567,-5.0531 0,0 z m -93.63661,-1.33565 c 19.38433,-12.22425 -3.47496,-4.03915 -6.62092,-9.25531 -19.63393,-15.603445 1.17582,-9.399025 3.81034,-18.816485 -26.24651,0.91671 13.66144,-28.44724 -12.20209,-17.91407 -23.56036,-6.01323 -3.99738,23.90974 -5.13684,31.887975 7.65066,19.79582 21.35318,5.76912 20.14951,14.09789 l 0,0 z m 0,-3.342 c 1.01107,-3.08856 2.06192,3.00927 0,0 z m -10.45052,-5.06855 c 2.1429,-3.12889 3.21396,3.02864 0,0 z m 45.6352,4.13524 c -2.88014,-4.50139 2.44094,7.4788 0,0 z m 13.52363,-0.0291 c 0.41277,-12.586305 -5.47849,1.92551 0,0 z m 3.12624,1.01231 c -0.27226,-10.18979 -3.92244,3.84326 0,0 z m 0.50512,-6.57914 c -1.88389,0.78958 1.75692,3.34494 0,0 z m -41.08882,-0.28716 c 5.0232,-10.986425 18.88024,-28.445375 4.49595,-34.676005 -14.6,-6.5603 -9.72813,-13.28156 -16.16908,10.86568 12.15363,-7.60358 11.51903,6.12963 3.23912,11.68692 23.68526,4.60006 -1.81542,10.581885 8.43401,12.123405 z m 66.919,-0.78639 c -12.7016,-5.962215 4.3828,6.70835 0,0 z m -69.60894,-4.28963 c -7.65088,-3.846295 -16.52721,3.504 0,0 z m -10.23299,-0.25938 c -9.31062,-8.115835 -10.99833,-1.957115 -1.26172,0.37928 l 1.26172,-0.37928 z m -7.52437,-33.042735 c -3.71934,-6.22358 -7.23613,6.40223 0,0 z m -5.85229,-0.74133 c -2.82521,-3.4269 -3.9532,-2.33322 0,0 z m -8.20366,-1.10288 c -3.66467,-1.21008 -0.36255,1.62618 0,0 z m 29.69663,-7.55177 c -2.89899,-5.12227 -3.77855,4.44587 0,0 z m 37.60622,-2.64184 c -1.34477,1.25623 1.30108,6.54304 0,0 z m -27.54714,-1.53806 c 0.54344,0.29892 15.20351,-28.30678 -0.009,-8.81023 11.17172,-35.66841 -21.56139,1.67039 -16.61426,-10.8892 -10.81947,0.80178 -16.81526,36.55103 4.09093,14.89612 -3.11254,8.61585 7.00103,8.17998 12.53212,4.80331 z m 27.47594,-2.66813 c -1.88388,0.78958 1.75693,3.34493 0,0 z m 1.87534,-10.86509 c -0.19681,8.22552 0.17254,4.01161 0,0 z m -18.71896,-4.62776 c -2.66491,-2.81039 -0.30523,4.16057 0,0 z m -27.32723,-19.21268 c -2.81088,-3.75891 -3.03797,4.43164 0,0 z m -2.41842,-1.7664 c 1.94956,-4.67374 -11.61679,0.71266 0,0 z M 227.15268,871.42601 c 1.4856,-5.73338 2.58466,4.56668 0,0 z M 394.36092,676.6593 c 2.13604,-3.03053 2.13604,3.03053 0,0 z M 116.6886,619.4269 c -2.71588,-4.19876 4.75589,5.33339 0,0 z M 0.13042,260.61568 c 0.8352,-54.55325 2.19988,55.81326 0.004,6.82111 l -0.004,-6.82111 z m 5.82964,9.35269 c -4.38414,-5.38764 6.60806,3.13808 0,0 z m 14.75644,0.0101 c 0.37288,-3.64208 1.20668,2.24982 0,0 z m 3.25666,-5.36063 c -3.66679,-21.97778 5.8605,9.01557 0,0 z m -2.48662,1.53868 c 0.314,-5.524 2.39012,4.52888 0,0 z M 0,220.4897 c 0.61685,-8.27578 0.61685,8.27577 0,0 z m 0.0462,-14.78328 c 0.50735,-14.09094 0.61689,12.96836 0,0 z"
     id="path2818" />
</svg>
