<?xml version="1.0" encoding="UTF-8" standalone="no"?>
<!-- Created with Inkscape (http://www.inkscape.org/) -->
<svg
   xmlns:dc="http://purl.org/dc/elements/1.1/"
   xmlns:cc="http://creativecommons.org/ns#"
   xmlns:rdf="http://www.w3.org/1999/02/22-rdf-syntax-ns#"
   xmlns:svg="http://www.w3.org/2000/svg"
   xmlns="http://www.w3.org/2000/svg"
   xmlns:sodipodi="http://sodipodi.sourceforge.net/DTD/sodipodi-0.dtd"
   xmlns:inkscape="http://www.inkscape.org/namespaces/inkscape"
   width="1331.6199"
   height="2288.98"
   id="svg3576"
   sodipodi:version="0.32"
   inkscape:version="0.46"
   sodipodi:docname="prêtre.svg"
   inkscape:output_extension="org.inkscape.output.svg.inkscape"
   version="1.0">
  <defs
     id="defs3578">
    <inkscape:perspective
       sodipodi:type="inkscape:persp3d"
       inkscape:vp_x="0 : 526.18109 : 1"
       inkscape:vp_y="0 : 1000 : 0"
       inkscape:vp_z="744.09448 : 526.18109 : 1"
       inkscape:persp3d-origin="372.04724 : 350.78739 : 1"
       id="perspective3584" />
  </defs>
  <sodipodi:namedview
     id="base"
     pagecolor="#ffffff"
     bordercolor="#666666"
     borderopacity="1.0"
     inkscape:pageopacity="0.0"
     inkscape:pageshadow="2"
     inkscape:zoom="0.35"
     inkscape:cx="503.29624"
     inkscape:cy="355.7924"
     inkscape:document-units="px"
     inkscape:current-layer="layer3"
     showgrid="false"
     inkscape:window-width="1592"
     inkscape:window-height="1127"
     inkscape:window-x="0"
     inkscape:window-y="24" />
  <metadata
     id="metadata3581">
    <rdf:RDF>
      <cc:Work
         rdf:about="">
        <dc:format>image/svg+xml</dc:format>
        <dc:type
           rdf:resource="http://purl.org/dc/dcmitype/StillImage" />
      </cc:Work>
    </rdf:RDF>
  </metadata>
  <g
     inkscape:groupmode="layer"
     id="layer3"
     inkscape:label="fond"
     transform="translate(364.25207,446.37344)">
    <path
       style="opacity:1;fill:#ffe6dd;fill-opacity:1;fill-rule:evenodd;stroke:none;stroke-width:1px;stroke-linecap:butt;stroke-linejoin:miter;marker:none;marker-start:none;marker-mid:none;marker-end:none;stroke-miterlimit:4;stroke-dasharray:none;stroke-dashoffset:0;stroke-opacity:1;visibility:visible;display:inline;overflow:visible;enable-background:accumulate"
       d="M 177.78685,219.99649 C 167.35366,264.49932 174.14764,322.03256 108.97021,308.5111 C 19.169367,331.20735 49.463901,505.9525 144.12653,470.80807 C 207.7921,418.42607 158.79819,576.73387 179.5593,614.26696 C 183.286,677.27174 189.41651,757.8291 266.68027,770.52962 C 262.51574,869.97905 426.8919,821.99672 493.96459,826.08801 C 515.41224,766.17727 604.49411,764.98514 586.51799,678.39169 C 602.65553,606.72546 570.00858,492.75697 610.51094,448.1489 C 709.95217,452.80777 744.91138,302.22471 662.64429,258.08239 C 604.62944,270.72788 578.22448,282.75096 574.47771,214.52199 C 570.60144,177.15564 517.7886,206.8321 491.17815,200.61146 C 386.71438,207.07313 282.25062,213.53481 177.78685,219.99649 z"
       id="path4330" />
    <path
       style="opacity:1;fill:#872e2e;fill-opacity:1;fill-rule:evenodd;stroke:none;stroke-width:1px;stroke-linecap:butt;stroke-linejoin:miter;marker:none;marker-start:none;marker-mid:none;marker-end:none;stroke-miterlimit:4;stroke-dasharray:none;stroke-dashoffset:0;stroke-opacity:1;visibility:visible;display:inline;overflow:visible;enable-background:accumulate"
       d="M 300,679.50507 C 332.23631,701.14463 376.56968,686.97227 413.88689,693.57043 C 488.34608,726.0001 473.64139,598.50038 403.37053,637.78629 C 369.10338,641.12741 291.40422,620.73372 300,679.50507 z"
       id="path3812" />
    <path
       style="opacity:1;fill:#ffffff;fill-opacity:1;fill-rule:evenodd;stroke:none;stroke-width:1px;stroke-linecap:butt;stroke-linejoin:miter;marker:none;marker-start:none;marker-mid:none;marker-end:none;stroke-miterlimit:4;stroke-dasharray:none;stroke-dashoffset:0;stroke-opacity:1;visibility:visible;display:inline;overflow:visible;enable-background:accumulate"
       d="M 337.39096,633.14886 C 376.17743,662.88149 509.03094,625.76605 396.98995,615.97628 C 376.14448,616.41177 354.89545,621.422 337.39096,633.14886 z"
       id="path4326" />
    <path
       style="opacity:1;fill:#6d6d6d;fill-opacity:1;fill-rule:evenodd;stroke:none;stroke-width:1px;stroke-linecap:butt;stroke-linejoin:miter;marker:none;marker-start:none;marker-mid:none;marker-end:none;stroke-miterlimit:4;stroke-dasharray:none;stroke-dashoffset:0;stroke-opacity:1;visibility:visible;display:inline;overflow:visible;enable-background:accumulate"
       d="M -351.12652,594.76376 C -290.85404,618.28586 -201.76405,581.87226 -154.92018,619.25996 C -125.77978,702.39606 -153.3905,791.86376 -130.53446,876.72256 C -145.21727,1016.1781 8.325119,947.95336 92.07791,961.32286 C 187.63928,954.46076 281.73405,977.41916 376.42796,980.40916 C 463.86434,961.08706 553.18285,955.11596 641.48079,973.47006 C 752.19906,978.75826 839.00067,1053.5506 925.66487,1113.8953 C 980.03055,1175.2534 908.14081,1206.047 857.01592,1211.967 C 847.52226,1308.6718 724.4335,1155.7975 736.0592,1247.4876 C 739.68776,1287.7876 726.2365,1309.7727 683.55431,1300.4132 C 649.69365,1305.1352 665.4461,1239.0677 630.46009,1241.205 C 554.19566,1223.8691 475.02484,1232.3432 397.39652,1227.1193 C 364.29205,1221.686 351.70716,1292.7851 332.12864,1264.2288 C 318.54652,1228.2551 280.01558,1239.3967 249.73064,1234.9659 C 206.35528,1232.0136 162.97992,1229.0614 119.60457,1226.1091 C 123.25986,1190.0815 119.79621,1160.6922 75.857776,1169.0457 C -15.225667,1154.4457 -106.23709,1190.5435 -197.96214,1174.0862 C -301.15594,1187.8198 -373.16425,1093.2002 -334.1209,997.38526 C -314.70983,887.13236 -316.57783,774.43986 -326.88286,663.45406 C -334.90544,640.55736 -341.88285,617.20946 -351.12652,594.76376 z"
       id="path2871" />
    <path
       style="opacity:1;fill:#ffffff;fill-opacity:1;fill-rule:evenodd;stroke:none;stroke-width:1px;stroke-linecap:butt;stroke-linejoin:miter;marker:none;marker-start:none;marker-mid:none;marker-end:none;stroke-miterlimit:4;stroke-dasharray:none;stroke-dashoffset:0;stroke-opacity:1;visibility:visible;display:inline;overflow:visible;enable-background:accumulate"
       d="M 312.13715,690.7276 C 357.93073,692.41117 403.7243,694.09475 449.51788,695.77832 C 417.67608,729.41538 337.57471,732.06315 312.13715,690.7276 z"
       id="path4328" />
    <path
       style="opacity:1;fill:#ffffff;fill-opacity:1;fill-rule:evenodd;stroke:none;stroke-width:1px;stroke-linecap:butt;stroke-linejoin:miter;marker:none;marker-start:none;marker-mid:none;marker-end:none;stroke-miterlimit:4;stroke-dasharray:none;stroke-dashoffset:0;stroke-opacity:1;visibility:visible;display:inline;overflow:visible;enable-background:accumulate"
       d="M 252.53815,325.05234 C 284.1896,325.05234 315.84104,325.05234 347.49249,325.05234 C 363.54008,429.89312 247.98259,425.33587 252.53815,325.05234 z"
       id="path4334" />
    <path
       style="opacity:1;fill:#ffffff;fill-opacity:1;fill-rule:evenodd;stroke:none;stroke-width:1px;stroke-linecap:butt;stroke-linejoin:miter;marker:none;marker-start:none;marker-mid:none;marker-end:none;stroke-miterlimit:4;stroke-dasharray:none;stroke-dashoffset:0;stroke-opacity:1;visibility:visible;display:inline;overflow:visible;enable-background:accumulate"
       d="M 459.61942,325.05234 C 490.87291,330.94868 564.25273,301.12889 539.16893,357.5035 C 511.94511,435.76115 445.66084,392.28048 459.61942,325.05234 z"
       id="path4344" />
    <path
       style="opacity:1;fill:#ad0000;fill-opacity:1;fill-rule:evenodd;stroke:#000000;stroke-width:1px;stroke-linecap:butt;stroke-linejoin:miter;marker:none;marker-start:none;marker-mid:none;marker-end:none;stroke-miterlimit:4;stroke-dasharray:none;stroke-dashoffset:0;stroke-opacity:1;visibility:visible;display:inline;overflow:visible;enable-background:accumulate"
       d="M 150.51273,146.25536 C 76.956956,249.02248 268.73128,211.15701 324.88834,213.26674 C 412.57787,185.63425 552.34577,233.71301 608.11183,164.4381 C 552.79523,100.83009 422.64444,149.94297 340.24212,132.07006 C 277.28717,134.60087 211.43094,127.96052 150.51273,146.25536 z"
       id="path4346" />
    <path
       style="opacity:1;fill:#ad0000;fill-opacity:1;fill-rule:evenodd;stroke:none;stroke-width:1px;stroke-linecap:butt;stroke-linejoin:miter;marker:none;marker-start:none;marker-mid:none;marker-end:none;stroke-miterlimit:4;stroke-dasharray:none;stroke-dashoffset:0;stroke-opacity:1;visibility:visible;display:inline;overflow:visible;enable-background:accumulate"
       d="M 152.53304,-166.89194 C 173.74122,-266.3585 247.37306,-346.76246 316.23694,-417.94642 C 400.78505,-479.98201 476.6409,-353.52435 530.52738,-302.32735 C 580.67145,-240.04734 617.73041,-151.24136 505.06147,-147.74491 C 433.28345,-127.88853 393.4978,-58.684868 325.12386,-126.86119 C 268.97453,-144.80397 210.51809,-156.67397 152.53304,-166.89194 z"
       id="path4348" />
    <path
       style="opacity:1;fill:#ffffff;fill-opacity:1;fill-rule:evenodd;stroke:none;stroke-width:1px;stroke-linecap:butt;stroke-linejoin:miter;marker:none;marker-start:none;marker-mid:none;marker-end:none;stroke-miterlimit:4;stroke-dasharray:none;stroke-dashoffset:0;stroke-opacity:1;visibility:visible;display:inline;overflow:visible;enable-background:accumulate"
       d="M 133.34013,-138.60767 C 139.06433,-46.683782 144.78853,45.240102 150.51273,137.16399 C 295.63798,138.51085 440.76323,139.85772 585.88849,141.20459 C 513.53302,-14.828423 362.94016,-137.10736 193.41067,-169.41535 C 170.83615,-172.41333 133.44543,-169.33217 133.34013,-138.60767 z"
       id="path4372" />
    <path
       style="opacity:1;fill:#ffffff;fill-opacity:1;fill-rule:evenodd;stroke:none;stroke-width:1px;stroke-linecap:butt;stroke-linejoin:miter;marker:none;marker-start:none;marker-mid:none;marker-end:none;stroke-miterlimit:4;stroke-dasharray:none;stroke-dashoffset:0;stroke-opacity:1;visibility:visible;display:inline;overflow:visible;enable-background:accumulate"
       d="M 593.96973,140.19443 C 592.28613,33.791697 590.60254,-72.611033 588.91895,-179.01376 C 532.66115,-160.11799 415.23739,-127.81976 409.60108,-79.245421 C 488.93389,-22.644439 529.99481,66.431826 583.75769,144.20348 L 591.58045,149.17137 L 593.9697,140.19443 L 593.96973,140.19443 z"
       id="path4374" />
    <path
       style="opacity:1;fill:#6d6d6d;fill-opacity:1;fill-rule:evenodd;stroke:none;stroke-width:1px;stroke-linecap:butt;stroke-linejoin:miter;marker:none;marker-start:none;marker-mid:none;marker-end:none;stroke-miterlimit:4;stroke-dasharray:none;stroke-dashoffset:0;stroke-opacity:1;visibility:visible;display:inline;overflow:visible;enable-background:accumulate"
       d="M 289.3102,901.85006 C 275.93548,924.91176 267.72854,978.02096 308.19411,971.31676 C 348.90191,985.57376 368.2318,975.93396 356.3733,931.43096 C 356.36703,906.19926 307.49745,913.48446 289.3102,901.85006 z"
       id="path3651" />
    <path
       style="opacity:1;fill:#6d6d6d;fill-opacity:1;fill-rule:evenodd;stroke:none;stroke-width:1px;stroke-linecap:butt;stroke-linejoin:miter;marker:none;marker-start:none;marker-mid:none;marker-end:none;stroke-miterlimit:4;stroke-dasharray:none;stroke-dashoffset:0;stroke-opacity:1;visibility:visible;display:inline;overflow:visible;enable-background:accumulate"
       d="M 410.52851,917.00246 C 406.84123,949.13136 392.6182,992.18616 440.83686,970.48686 C 475.79308,981.15776 437.20196,910.79886 451.83214,907.28396 C 438.06426,910.52346 424.29638,913.76296 410.52851,917.00246 z"
       id="path3653" />
    <path
       style="opacity:1;fill:#000000;fill-opacity:1;fill-rule:evenodd;stroke:none;stroke-width:1px;stroke-linecap:butt;stroke-linejoin:miter;marker:none;marker-start:none;marker-mid:none;marker-end:none;stroke-miterlimit:4;stroke-dasharray:none;stroke-dashoffset:0;stroke-opacity:1;visibility:visible;display:inline;overflow:visible;enable-background:accumulate"
       d="M 351.93964,862.45416 C 212.64985,879.34146 404.1304,961.98486 450.17699,901.17146 C 459.05439,861.80036 408.26246,858.88366 404.49915,890.48586 C 381.56866,893.29986 345.81501,894.76216 351.93964,862.45416 z"
       id="path3655" />
    <path
       style="opacity:1;fill:#ffe0c4;fill-opacity:1;fill-rule:evenodd;stroke:none;stroke-width:1px;stroke-linecap:butt;stroke-linejoin:miter;marker:none;marker-start:none;marker-mid:none;marker-end:none;stroke-miterlimit:4;stroke-dasharray:none;stroke-dashoffset:0;stroke-opacity:1;visibility:visible;display:inline;overflow:visible;enable-background:accumulate"
       d="M 356.99042,825.07846 C 343.88959,869.88806 376.74663,925.67376 416.93717,875.43236 C 419.68184,835.15566 405.86132,814.53076 364.06149,827.09876 L 359.01682,825.65746 L 356.99042,825.07846 z"
       id="path3657" />
    <path
       style="opacity:1;fill:#fee5cf;fill-opacity:1;fill-rule:evenodd;stroke:none;stroke-width:1px;stroke-linecap:butt;stroke-linejoin:miter;marker:none;marker-start:none;marker-mid:none;marker-end:none;stroke-miterlimit:4;stroke-dasharray:none;stroke-dashoffset:0;stroke-opacity:1;visibility:visible;display:inline;overflow:visible;enable-background:accumulate"
       d="M -322.84225,89.68747 C -338.04267,147.17228 -333.37106,205.20601 -326.88287,263.43369 C -351.7251,375.37713 -334.59333,489.65758 -331.93362,602.84496 C -293.21111,604.19186 -254.48859,605.53876 -215.76608,606.88556 C -205.72256,571.78786 -166.76727,550.89513 -145.01981,521.54781 C -120.40609,493.22821 -118.63082,450.55939 -106.12975,415.79881 C -87.127947,363.36618 -161.1704,425.50557 -165.06702,381.30544 C -182.99171,356.97344 -223.66836,360.23828 -250.50579,346.71693 C -288.56742,341.59399 -250.33034,292.41852 -264.22193,267.52046 C -288.26155,217.10808 -270.14348,161.81835 -281.42599,108.88034 C -295.23141,102.48272 -309.03683,96.0851 -322.84225,89.68747 z"
       id="path3659" />
    <path
       style="opacity:1;fill:#dadada;fill-opacity:1;fill-rule:evenodd;stroke:none;stroke-width:1px;stroke-linecap:butt;stroke-linejoin:miter;marker:none;marker-start:none;marker-mid:none;marker-end:none;stroke-miterlimit:4;stroke-dasharray:none;stroke-dashoffset:0;stroke-opacity:1;visibility:visible;display:inline;overflow:visible;enable-background:accumulate"
       d="M 127.68579,1791.7946 C 110.20773,1674.7976 91.106175,1558.118 93.971946,1439.3775 C 91.054155,1399.4957 158.03106,1425.9192 187.75605,1417.0038 C 327.33674,1413.9814 466.91742,1410.959 606.49811,1407.9367 C 623.53035,1462.6012 600.86155,1519.9362 599.51535,1575.8369 C 592.46734,1650.8748 596.03813,1726.5823 593.36609,1801.8961 C 519.92847,1882.8858 452.18393,1756.1401 371.16609,1761.0401 C 293.05267,1772.2901 229.18877,1896.2273 148.89899,1810.3561 L 133.5573,1797.524 L 127.68579,1791.7945 L 127.68579,1791.7946 z"
       id="path3661" />
    <path
       style="opacity:1;fill:#dadada;fill-opacity:1;fill-rule:evenodd;stroke:none;stroke-width:1px;stroke-linecap:butt;stroke-linejoin:miter;marker:none;marker-start:none;marker-mid:none;marker-end:none;stroke-miterlimit:4;stroke-dasharray:none;stroke-dashoffset:0;stroke-opacity:1;visibility:visible;display:inline;overflow:visible;enable-background:accumulate"
       d="M 97.381211,1525.1143 C 72.657297,1521.7866 19.560202,1560.1174 20.833149,1518.6203 C 13.608627,1462.0472 -6.752456,1405.6393 -5.201724,1348.9559 C -12.003716,1302.7709 39.315273,1325.4044 67.597661,1320.7613 C 247.01543,1324.6875 426.67511,1321.9232 605.66362,1309.3051 C 647.02131,1305.1434 688.379,1300.9816 729.7367,1296.8198 C 763.76145,1318.9208 738.14826,1352.3954 731.46394,1382.26 C 715.3992,1434.5921 699.33446,1486.9242 683.26972,1539.2564 C 660.72168,1532.472 600.82508,1562.418 605.7467,1528.6188 C 609.02763,1488.0547 612.30855,1447.4905 615.58948,1406.9264 C 442.85339,1410.2936 270.1173,1413.6607 97.381211,1417.0278 C 97.381211,1453.0567 97.381211,1489.0855 97.381211,1525.1143 z"
       id="path3663" />
    <path
       style="opacity:1;fill:#dfd197;fill-opacity:1;fill-rule:evenodd;stroke:#000000;stroke-width:1px;stroke-linecap:butt;stroke-linejoin:miter;marker:none;marker-start:none;marker-mid:none;marker-end:none;stroke-miterlimit:4;stroke-dasharray:none;stroke-dashoffset:0;stroke-opacity:1;visibility:visible;display:inline;overflow:visible;enable-background:accumulate"
       d="M 29.700991,1297.8298 C 60.206698,1274.6452 87.134589,1241.3674 119.79728,1224.2678 C 187.07654,1226.5652 254.35581,1228.8626 321.63507,1231.1599 C 336.06121,1269.7162 342.08917,1298.9944 358.70712,1248.1188 C 436.44503,1209.7429 526.27309,1232.4657 609.52857,1232.1701 C 633.02628,1238.1635 676.82736,1282.4141 651.56371,1292.6975 C 567.28932,1293.9048 480.96715,1287.6622 397.95886,1293.4756 C 368.70962,1321.2285 329.18824,1314.078 292.34065,1316.0127 C 267.34754,1289.1415 233.90169,1291.804 200.32363,1294.9284 C 143.4401,1297.0913 86.636455,1300.1078 29.700991,1297.8298 z"
       id="path3665" />
    <path
       style="opacity:1;fill:#642708;fill-opacity:1;fill-rule:evenodd;stroke:#000000;stroke-width:1px;stroke-linecap:butt;stroke-linejoin:miter;marker:none;marker-start:none;marker-mid:none;marker-end:none;stroke-miterlimit:4;stroke-dasharray:none;stroke-dashoffset:0;stroke-opacity:1;visibility:visible;display:inline;overflow:visible;enable-background:accumulate"
       d="M 42.832973,1300.8604 C 14.143788,1337.2102 85.964619,1313.7256 106.17726,1320.9638 C 163.18096,1321.6705 220.18466,1322.3771 277.18836,1323.0838 C 273.35254,1279.571 231.03193,1297.6184 201.13013,1295.8007 C 148.36441,1297.4872 95.598693,1299.1738 42.832973,1300.8604 z"
       id="path3667" />
    <path
       style="opacity:1;fill:#642708;fill-opacity:1;fill-rule:evenodd;stroke:none;stroke-width:1px;stroke-linecap:butt;stroke-linejoin:miter;marker:none;marker-start:none;marker-mid:none;marker-end:none;stroke-miterlimit:4;stroke-dasharray:none;stroke-dashoffset:0;stroke-opacity:1;visibility:visible;display:inline;overflow:visible;enable-background:accumulate"
       d="M 371.13254,1311.9721 C 396.28994,1288.1701 427.46122,1287.553 459.91937,1291.8971 C 524.60467,1294.5481 589.28998,1297.1992 653.97528,1299.8502 C 562.4199,1327.6593 465.45968,1318.3505 371.13254,1327.1244 C 370.45116,1323.1304 384.6172,1302.8061 371.13254,1311.9721 z"
       id="path3669" />
    <path
       style="opacity:1;fill:#ffffff;fill-opacity:1;fill-rule:evenodd;stroke:none;stroke-width:1px;stroke-linecap:butt;stroke-linejoin:miter;marker:none;marker-start:none;marker-mid:none;marker-end:none;stroke-miterlimit:4;stroke-dasharray:none;stroke-dashoffset:0;stroke-opacity:1;visibility:visible;display:inline;overflow:visible;enable-background:accumulate"
       d="M 358.00702,920.33726 C 313.84351,972.32816 386.14876,999.35926 405.81194,968.43816 C 411.4999,931.26836 411.34507,900.49626 365.84337,919.37766 L 360.63573,920.01536 L 358.00702,920.33726 z"
       id="path3677" />
    <path
       style="opacity:1;fill:#757575;fill-opacity:1;fill-rule:evenodd;stroke:none;stroke-width:1px;stroke-linecap:butt;stroke-linejoin:miter;marker:none;marker-start:none;marker-mid:none;marker-end:none;stroke-miterlimit:4;stroke-dasharray:none;stroke-dashoffset:0;stroke-opacity:1;visibility:visible;display:inline;overflow:visible;enable-background:accumulate"
       d="M 595.08641,1800.1066 C 632.94355,1756.1781 677.05062,1794.7495 678.47918,1709.0352 C 679.05497,1674.4875 676.51498,1535.8209 676.51498,1535.8209 L 607.94355,1542.9638 L 595.08641,1800.1066 z"
       id="path3729"
       sodipodi:nodetypes="csccc" />
  </g>
  <g
     inkscape:groupmode="layer"
     id="layer2"
     inkscape:label="corps"
     transform="translate(403.04444,0)">
    <path
       style="opacity:1;fill:#000000;fill-opacity:1;fill-rule:nonzero;stroke:#000000;stroke-width:3.75;stroke-linecap:round;stroke-linejoin:round;stroke-miterlimit:10;stroke-dasharray:none;stroke-dashoffset:0;stroke-opacity:1"
       d="M 324.43527,1276.4946 C 346.75635,1321.1738 296.21232,1376.1829 311.6425,1300.8945 C 303.54737,1289.1706 315.55418,1281.6651 324.43527,1276.4946 z"
       id="path2430" />
    <path
       style="opacity:1;fill:#000000;fill-opacity:1;fill-rule:nonzero;stroke:#000000;stroke-width:3.75;stroke-linecap:round;stroke-linejoin:round;stroke-miterlimit:10;stroke-dasharray:none;stroke-dashoffset:0;stroke-opacity:1"
       d="M 375.47177,1272.5273 C 385.58111,1319.7812 381.66598,1369.1908 359.21058,1311.3994 C 359.28734,1297.632 356.83129,1276.9124 375.47177,1272.5273 z"
       id="path2432" />
    <path
       style="opacity:1;fill:#000000;fill-opacity:1;fill-rule:nonzero;stroke:#000000;stroke-width:3.75;stroke-linecap:round;stroke-linejoin:round;stroke-miterlimit:10;stroke-dasharray:none;stroke-dashoffset:0;stroke-opacity:1"
       d="M 284.70975,1323.8514 C 203.57032,1339.0529 345.17846,1375.9047 376.81064,1355.5546 C 419.99387,1345.3853 398.14831,1362.6868 397.13665,1318.5827 C 389.92151,1260.8033 450.78072,1353.5088 394.74371,1362.0104 C 356.55985,1380.8803 193.33771,1385.8461 259.89141,1318.0478 C 271.50394,1305.6862 320.75147,1299.3973 284.70975,1323.8514 z"
       id="path2434" />
    <path
       style="opacity:1;fill:#000000;fill-opacity:1;fill-rule:nonzero;stroke:#000000;stroke-width:3.75;stroke-linecap:round;stroke-linejoin:round;stroke-miterlimit:10;stroke-dasharray:none;stroke-dashoffset:0;stroke-opacity:1"
       d="M 250.81096,1342.8492 C 254.94326,1368.7229 236.73515,1455.8379 230.38016,1383.609 C 223.64423,1367.1203 234.42101,1348.0831 250.81096,1342.8492 z"
       id="path2436" />
    <path
       style="opacity:1;fill:#000000;fill-opacity:1;fill-rule:nonzero;stroke:#000000;stroke-width:3.75;stroke-linecap:round;stroke-linejoin:round;stroke-miterlimit:10;stroke-dasharray:none;stroke-dashoffset:0;stroke-opacity:1"
       d="M 317.79333,1355.2778 C 352.3981,1381.7687 302.01306,1450.5736 309.84011,1379.9052 C 298.94156,1368.581 304.87075,1362.9042 317.79333,1355.2778 z"
       id="path2438" />
    <path
       style="opacity:1;fill:#000000;fill-opacity:1;fill-rule:nonzero;stroke:#000000;stroke-width:3.75;stroke-linecap:round;stroke-linejoin:round;stroke-miterlimit:10;stroke-dasharray:none;stroke-dashoffset:0;stroke-opacity:1"
       d="M 374.38889,1366.7543 C 394.20209,1415.9276 341.76237,1440.9526 361.43082,1376.7398 L 366.25451,1371.141 L 374.38889,1366.7543 L 374.38889,1366.7543 z"
       id="path2440" />
    <path
       style="opacity:1;fill:#000000;fill-opacity:1;fill-rule:nonzero;stroke:#000000;stroke-width:3.75;stroke-linecap:round;stroke-linejoin:round;stroke-miterlimit:10;stroke-dasharray:none;stroke-dashoffset:0;stroke-opacity:1"
       d="M 421.17746,1307.0316 C 445.16081,1337.8718 422.76719,1470.6293 413.62685,1375.4993 C 422.62104,1353.6573 387.87743,1318.5127 421.17746,1307.0316 z"
       id="path2442" />
    <path
       style="opacity:1;fill:#000000;fill-opacity:1;fill-rule:nonzero;stroke:#000000;stroke-width:3.75;stroke-linecap:round;stroke-linejoin:round;stroke-miterlimit:10;stroke-dasharray:none;stroke-dashoffset:0;stroke-opacity:1"
       d="M 233.65633,1403.1886 C 273.55368,1426.7823 469.18471,1414.1234 411.52048,1413.9599 C 355.00021,1439.937 276.90175,1441.141 221.22101,1416.0477 C 222.12353,1409.169 229.96289,1408.052 233.65633,1403.1886 z"
       id="path2444" />
    <path
       style="opacity:1;fill:#000000;fill-opacity:1;fill-rule:nonzero;stroke:#000000;stroke-width:3.75;stroke-linecap:round;stroke-linejoin:round;stroke-miterlimit:10;stroke-dasharray:none;stroke-dashoffset:0;stroke-opacity:1"
       d="M -124.21511,1412.3613 C -47.818677,1387.1593 31.49023,1398.5856 109.27469,1404.0815 C 149.7425,1395.4477 222.7065,1413.1334 146.99884,1419.3548 C 60.087909,1424.7958 -26.525808,1397.4894 -112.50683,1420.9409 C -125.46107,1418.9725 -159.41861,1443.1494 -124.21511,1412.3613 z"
       id="path2446" />
    <path
       style="opacity:1;fill:#000000;fill-opacity:1;fill-rule:nonzero;stroke:#000000;stroke-width:3.75;stroke-linecap:round;stroke-linejoin:round;stroke-miterlimit:10;stroke-dasharray:none;stroke-dashoffset:0;stroke-opacity:1"
       d="M -193.65698,1049.6256 C -159.95715,1109.4194 -180.67001,1208.8345 -206.87116,1259.1358 C -215.00252,1197.0647 -169.0654,1121.3091 -209.91469,1063.9821 L -201.78584,1056.8039 L -193.65698,1049.6256 L -193.65698,1049.6256 z"
       id="path2448" />
    <path
       style="opacity:1;fill:#000000;fill-opacity:1;fill-rule:nonzero;stroke:#000000;stroke-width:3.75;stroke-linecap:round;stroke-linejoin:round;stroke-miterlimit:10;stroke-dasharray:none;stroke-dashoffset:0;stroke-opacity:1"
       d="M -171.30734,1191.7205 C -163.00446,1264.4849 -155.28396,1338.1059 -143.70718,1408.399 C -163.00932,1448.9715 -165.6824,1347.9902 -181.00951,1317.0834 C -168.329,1279.5811 -199.1455,1215.8741 -171.30734,1191.7205 z"
       id="path2450" />
    <path
       style="opacity:1;fill:#000000;fill-opacity:1;fill-rule:nonzero;stroke:#000000;stroke-width:3.75;stroke-linecap:round;stroke-linejoin:round;stroke-miterlimit:10;stroke-dasharray:none;stroke-dashoffset:0;stroke-opacity:1"
       d="M -147.22031,1412.4471 C -164.28172,1434.4952 -207.86778,1452.5245 -220.83777,1450.5305 C -221.92788,1440.9475 -163.39017,1424.4432 -156.63111,1418.0761 L -147.22031,1412.4471 L -147.22031,1412.4471 z"
       id="path2452" />
    <path
       style="opacity:1;fill:#000000;fill-opacity:1;fill-rule:nonzero;stroke:#000000;stroke-width:3.75;stroke-linecap:round;stroke-linejoin:round;stroke-miterlimit:10;stroke-dasharray:none;stroke-dashoffset:0;stroke-opacity:1"
       d="M -140.59964,1408.5319 C -161.95607,1453.55 -162.26682,1428.8944 -155.63073,1481.1136 C -201.58808,1504.9832 -148.06912,1486.2231 -177.98242,1457.2758 C -152.76672,1429.9483 -173.51125,1440.3216 -140.59964,1408.5319 z"
       id="path2454" />
    <path
       style="opacity:1;fill:#000000;fill-opacity:1;fill-rule:nonzero;stroke:#000000;stroke-width:3.75;stroke-linecap:round;stroke-linejoin:round;stroke-miterlimit:10;stroke-dasharray:none;stroke-dashoffset:0;stroke-opacity:1"
       d="M -374.10281,1039.5236 C -322.72299,1040.3557 -268.55577,1054.0017 -218.97279,1043.3565 C -235.74225,1075.0827 -401.44199,1064.6792 -374.10281,1039.5236 z"
       id="path2456" />
    <path
       style="opacity:1;fill:#000000;fill-opacity:1;fill-rule:nonzero;stroke:#000000;stroke-width:3.75;stroke-linecap:round;stroke-linejoin:round;stroke-miterlimit:10;stroke-dasharray:none;stroke-dashoffset:0;stroke-opacity:1"
       d="M -388.89136,1040.4076 C -334.07146,1115.1983 -357.29737,1214.9411 -353.89747,1301.6645 C -351.37553,1376.481 -384.25758,1454.2076 -366.22062,1525.6524 C -429.30244,1593.2749 -348.30612,1310.6513 -381.07584,1415.425 C -368.29984,1312.6711 -362.08581,1206.714 -379.4096,1104.3183 C -375.47875,1080.5443 -422.72552,1054.6525 -388.89136,1040.4076 z"
       id="path2458" />
    <path
       style="opacity:1;fill:#000000;fill-opacity:1;fill-rule:nonzero;stroke:#000000;stroke-width:3.75;stroke-linecap:round;stroke-linejoin:round;stroke-miterlimit:10;stroke-dasharray:none;stroke-dashoffset:0;stroke-opacity:1"
       d="M -378.29959,1534.9912 C -343.34888,1616.1748 -231.24341,1611.7792 -153.2416,1624.2945 C -79.570567,1625.0883 -8.2413782,1579.8682 64.079458,1614.1595 C 20.358901,1642.7481 -60.301019,1592.9737 -114.29828,1635.8172 C -203.04239,1641.441 -304.19558,1630.7797 -377.35017,1582.165 C -391.62187,1566.4631 -406.36842,1545.5955 -378.29959,1534.9912 z"
       id="path2460" />
    <path
       style="opacity:1;fill:#000000;fill-opacity:1;fill-rule:nonzero;stroke:#000000;stroke-width:3.75;stroke-linecap:round;stroke-linejoin:round;stroke-miterlimit:10;stroke-dasharray:none;stroke-dashoffset:0;stroke-opacity:1"
       d="M -376.2327,1042.5518 C -379.11543,967.37392 -373.34023,891.49876 -387.85577,817.24783 C -339.25166,815.10129 -370.62165,947.39951 -359.24323,996.37056 C -359.23481,1014.2034 -353.43695,1035.9503 -376.2327,1042.5518 z"
       id="path2478" />
    <path
       style="opacity:1;fill:#000000;fill-opacity:1;fill-rule:nonzero;stroke:#000000;stroke-width:3.75;stroke-linecap:round;stroke-linejoin:round;stroke-miterlimit:10;stroke-dasharray:none;stroke-dashoffset:0;stroke-opacity:1"
       d="M -388.27396,807.5578 C -371.00602,786.2732 -375.45773,669.35396 -357.23501,743.02352 C -356.53086,767.40548 -365.23344,795.59496 -388.27396,807.5578 z"
       id="path2480" />
    <path
       style="opacity:1;fill:#000000;fill-opacity:1;fill-rule:nonzero;stroke:#000000;stroke-width:3.75;stroke-linecap:round;stroke-linejoin:round;stroke-miterlimit:10;stroke-dasharray:none;stroke-dashoffset:0;stroke-opacity:1"
       d="M -379.78342,716.28931 C -364.92653,689.6179 -395.57474,581.03748 -356.65444,643.79961 C -359.16548,668.36442 -352.08518,703.38095 -379.78342,716.28931 z"
       id="path2482" />
    <path
       style="opacity:1;fill:#000000;fill-opacity:1;fill-rule:nonzero;stroke:#000000;stroke-width:3.75;stroke-linecap:round;stroke-linejoin:round;stroke-miterlimit:10;stroke-dasharray:none;stroke-dashoffset:0;stroke-opacity:1"
       d="M -370.71933,608.87598 C -390.97146,643.46876 -358.06802,511.40503 -374.24386,546.36481 C -319.55458,527.21946 -389.91848,659.155 -370.71933,608.87598 z"
       id="path2484" />
    <path
       style="opacity:1;fill:#000000;fill-opacity:1;fill-rule:nonzero;stroke:#000000;stroke-width:3.75;stroke-linecap:round;stroke-linejoin:round;stroke-miterlimit:10;stroke-dasharray:none;stroke-dashoffset:0;stroke-opacity:1"
       d="M -362.60144,525.52197 C -307.94182,516.0171 -288.05822,622.09717 -325.18759,612.08757 C -292.11429,560.8461 -398.46934,546.49603 -362.60144,525.52197 z"
       id="path2486" />
    <path
       style="opacity:1;fill:#000000;fill-opacity:1;fill-rule:nonzero;stroke:#000000;stroke-width:3.75;stroke-linecap:round;stroke-linejoin:round;stroke-miterlimit:10;stroke-dasharray:none;stroke-dashoffset:0;stroke-opacity:1"
       d="M -312.16446,626.06946 C -288.60043,686.57723 -340.48144,700.32446 -324.28359,634.91652 L -312.16446,626.06946 L -312.16446,626.06946 z"
       id="path2488" />
    <path
       style="opacity:1;fill:#000000;fill-opacity:1;fill-rule:nonzero;stroke:#000000;stroke-width:3.75;stroke-linecap:round;stroke-linejoin:round;stroke-miterlimit:10;stroke-dasharray:none;stroke-dashoffset:0;stroke-opacity:1"
       d="M -304.42935,692.47748 C -268.00337,716.82097 -309.48532,825.60256 -305.68052,745.50815 C -309.46213,727.80235 -335.21541,701.33344 -304.42935,692.47748 z"
       id="path2490" />
    <path
       style="opacity:1;fill:#000000;fill-opacity:1;fill-rule:nonzero;stroke:#000000;stroke-width:3.75;stroke-linecap:round;stroke-linejoin:round;stroke-miterlimit:10;stroke-dasharray:none;stroke-dashoffset:0;stroke-opacity:1"
       d="M -344.02219,764.23383 C -300.49257,787.50359 -158.09577,792.63132 -199.94165,861.82778 C -178.09274,865.43067 -251.67735,792.20527 -300.42217,797.86356 C -313.37287,789.60983 -388.42465,787.56061 -344.02219,764.23383 z"
       id="path2492" />
    <path
       style="opacity:1;fill:#000000;fill-opacity:1;fill-rule:nonzero;stroke:#000000;stroke-width:3.75;stroke-linecap:round;stroke-linejoin:round;stroke-miterlimit:10;stroke-dasharray:none;stroke-dashoffset:0;stroke-opacity:1"
       d="M -323.79727,812.60669 C -286.62816,834.90031 -157.1433,837.37138 -198.78295,897.80221 C -183.31627,873.60748 -281.87176,840.37594 -323.08773,834.81048 C -338.24059,835.51397 -343.84486,815.16385 -323.79727,812.60669 z"
       id="path2500" />
    <path
       style="opacity:1;fill:#000000;fill-opacity:1;fill-rule:nonzero;stroke:#000000;stroke-width:3.75;stroke-linecap:round;stroke-linejoin:round;stroke-miterlimit:10;stroke-dasharray:none;stroke-dashoffset:0;stroke-opacity:1"
       d="M -302.29117,860.21088 C -271.46405,857.81212 -167.06008,884.23124 -205.35091,912.06656 C -172.05974,893.23054 -212.63139,925.5732 -230.29265,896.23073 C -238.22202,872.30186 -347.70623,890.14653 -302.29117,860.21088 z"
       id="path2502" />
    <path
       style="opacity:1;fill:#000000;fill-opacity:1;fill-rule:nonzero;stroke:#000000;stroke-width:3.75;stroke-linecap:round;stroke-linejoin:round;stroke-miterlimit:10;stroke-dasharray:none;stroke-dashoffset:0;stroke-opacity:1"
       d="M -194.96436,918.54236 C -232.61082,968.15213 -318.67601,1011.1636 -320.14718,926.48797 C -281.08832,922.42845 -284.11532,1005.6345 -237.78792,946.03124 C -207.966,926.9612 -226.13126,938.04257 -194.96436,918.54236 z"
       id="path2504" />
    <path
       style="opacity:1;fill:#000000;fill-opacity:1;fill-rule:nonzero;stroke:#000000;stroke-width:3.75;stroke-linecap:round;stroke-linejoin:round;stroke-miterlimit:10;stroke-dasharray:none;stroke-dashoffset:0;stroke-opacity:1"
       d="M -312.51636,907.22168 C -268.28736,890.02562 -235.46688,966.29343 -286.39254,929.53558 C -299.86752,921.04145 -342.65598,930.41272 -312.51636,907.22168 z"
       id="path2506" />
    <path
       style="opacity:1;fill:#000000;fill-opacity:1;fill-rule:nonzero;stroke:#000000;stroke-width:3.75;stroke-linecap:round;stroke-linejoin:round;stroke-miterlimit:10;stroke-dasharray:none;stroke-dashoffset:0;stroke-opacity:1"
       d="M -257.18784,901.85986 C -229.33706,941.71773 -303.04017,932.19257 -257.18784,901.85986 L -257.18784,901.85986 z"
       id="path2508" />
    <path
       style="opacity:1;fill:#000000;fill-opacity:1;fill-rule:nonzero;stroke:#000000;stroke-width:3.75;stroke-linecap:round;stroke-linejoin:round;stroke-miterlimit:10;stroke-dasharray:none;stroke-dashoffset:0;stroke-opacity:1"
       d="M -255.07162,1044.4397 C -207.27142,991.87048 -156.48589,941.76387 -152.15344,865.88392 C -115.12854,831.77621 -172.87707,967.1468 -164.4016,953.29016 C -188.36075,977.00871 -223.99987,1015.5289 -222.28023,1013.3457 C -232.1422,1024.7132 -242.42805,1036.081 -255.07162,1044.4397 z"
       id="path2512" />
    <path
       style="opacity:1;fill:#000000;fill-opacity:1;fill-rule:nonzero;stroke:#000000;stroke-width:3.75;stroke-linecap:round;stroke-linejoin:round;stroke-miterlimit:10;stroke-dasharray:none;stroke-dashoffset:0;stroke-opacity:1"
       d="M -144.76566,846.38062 C -190.80622,854.02391 -200.16932,860.26607 -152.08971,832.02813 C -125.29798,832.85239 -123.67236,825.1408 -144.76566,846.38062 z"
       id="path2514" />
    <path
       style="opacity:1;fill:#000000;fill-opacity:1;fill-rule:nonzero;stroke:#000000;stroke-width:3.75;stroke-linecap:round;stroke-linejoin:round;stroke-miterlimit:10;stroke-dasharray:none;stroke-dashoffset:0;stroke-opacity:1"
       d="M -30.55666,1761.0087 C 155.61318,1757.9122 341.95276,1764.1464 528.00023,1757.6298 C 584.38131,1751.6218 683.83721,1730.4304 695.30057,1748.1828 C 607.68694,1762.3737 516.98929,1770.6135 427.0625,1773.9383 C 273.32654,1776.656 119.54008,1770.6185 -33.661791,1775.2714 C -45.729744,1774.2583 -36.33028,1762.6191 -30.55666,1761.0087 z"
       id="path2648" />
    <path
       style="opacity:1;fill:#000000;fill-opacity:1;fill-rule:nonzero;stroke:#000000;stroke-width:3.75;stroke-linecap:round;stroke-linejoin:round;stroke-miterlimit:10;stroke-dasharray:none;stroke-dashoffset:0;stroke-opacity:1"
       d="M 81.677147,1849.8148 C 251.53179,1847.8676 421.42262,1854.8209 591.1755,1847.7514 C 545.15644,1880.4916 472.08448,1859.3807 415.34225,1866.0416 C 299.06082,1864.1114 182.7626,1864.3955 66.469756,1865.0222 L 74.073451,1857.4185 L 81.677147,1849.8148 L 81.677147,1849.8148 z"
       id="path2664" />
    <path
       style="opacity:1;fill:#000000;fill-opacity:1;fill-rule:nonzero;stroke:#000000;stroke-width:3.75;stroke-linecap:round;stroke-linejoin:round;stroke-miterlimit:10;stroke-dasharray:none;stroke-dashoffset:0;stroke-opacity:1"
       d="M 67.959633,1852.7812 C 62.082964,1915.8855 67.436143,1984.0041 70.048929,2049.0776 C 81.42006,2114.1023 96.628894,2179.9218 95.854611,2246.4318 C 59.350963,2259.1537 81.965507,2148.3291 63.389256,2113.954 C 44.389423,2044.3597 53.716774,1972.799 46.739972,1901.7922 C 42.031643,1880.3456 42.867782,1860.1875 67.959633,1852.7812 z"
       id="path2666" />
    <path
       style="opacity:1;fill:#000000;fill-opacity:1;fill-rule:nonzero;stroke:#000000;stroke-width:3.75;stroke-linecap:round;stroke-linejoin:round;stroke-miterlimit:10;stroke-dasharray:none;stroke-dashoffset:0;stroke-opacity:1"
       d="M 583.04871,1864.0494 C 577.37393,1958.6318 557.77076,2051.9924 562.48356,2147.0716 C 567.01975,2173.7606 556.09107,2306.6986 544.61587,2232.6173 C 542.49194,2135.2297 547.64354,2038.2881 560.17457,1941.7543 C 565.73204,1917.0063 553.94993,1876.1879 583.04871,1864.0494 z"
       id="path2668" />
    <path
       style="opacity:1;fill:#000000;fill-opacity:1;fill-rule:nonzero;stroke:#000000;stroke-width:3.75;stroke-linecap:round;stroke-linejoin:round;stroke-miterlimit:10;stroke-dasharray:none;stroke-dashoffset:0;stroke-opacity:1"
       d="M -38.491081,1769.4918 C -45.251303,1834.8753 11.917415,1934.3057 -19.146801,1978.3508 C -26.119095,1914.8093 -75.294526,1821.8204 -38.491081,1769.4918 z"
       id="path2670" />
    <path
       style="opacity:1;fill:#000000;fill-opacity:1;fill-rule:nonzero;stroke:#000000;stroke-width:3.75;stroke-linecap:round;stroke-linejoin:round;stroke-miterlimit:10;stroke-dasharray:none;stroke-dashoffset:0;stroke-opacity:1"
       d="M -5.2362823,1977.5009 C 41.396948,1955.2948 60.051665,1990.0679 2.8651137,1987.7396 C -8.0965153,1988.9488 -33.450048,1997.5785 -5.2362823,1977.5009 z"
       id="path2672" />
    <path
       style="opacity:1;fill:#000000;fill-opacity:1;fill-rule:nonzero;stroke:#000000;stroke-width:3.75;stroke-linecap:round;stroke-linejoin:round;stroke-miterlimit:10;stroke-dasharray:none;stroke-dashoffset:0;stroke-opacity:1"
       d="M 587.24683,1977.1023 C 624.72968,1965.2386 683.01831,1988.3064 612.95786,1990.8593 C 601.11168,1984.5863 552.53795,2004.2694 587.24683,1977.1023 z"
       id="path2674" />
    <path
       style="opacity:1;fill:#000000;fill-opacity:1;fill-rule:nonzero;stroke:#000000;stroke-width:3.75;stroke-linecap:round;stroke-linejoin:round;stroke-miterlimit:10;stroke-dasharray:none;stroke-dashoffset:0;stroke-opacity:1"
       d="M -2.9052491,1736.1725 C 62.228167,1751.1929 168.63882,1723.2068 210.53374,1740.7011 C 137.53796,1758.1109 57.636783,1755.6547 -17.526886,1750.4349 L -10.216068,1743.3037 L -2.9052491,1736.1725 L -2.9052491,1736.1725 z"
       id="path2678" />
    <path
       style="opacity:1;fill:#000000;fill-opacity:1;fill-rule:nonzero;stroke:#000000;stroke-width:3.75;stroke-linecap:round;stroke-linejoin:round;stroke-miterlimit:10;stroke-dasharray:none;stroke-dashoffset:0;stroke-opacity:1"
       d="M 230.26932,1721.8644 C 257.86314,1815.3422 431.08663,1685.2979 349.08423,1750.3622 C 324.73482,1781.7539 176.7134,1777.9749 230.26932,1721.8644 z"
       id="path2680" />
    <path
       style="opacity:1;fill:#000000;fill-opacity:1;fill-rule:nonzero;stroke:#000000;stroke-width:3.75;stroke-linecap:round;stroke-linejoin:round;stroke-miterlimit:10;stroke-dasharray:none;stroke-dashoffset:0;stroke-opacity:1"
       d="M 371.99194,1728.2107 C 441.98084,1745.5762 521.02323,1723.7717 595.55769,1731.5285 C 621.22474,1726.4004 689.36696,1726.8701 628.61649,1743.7959 C 549.9527,1753.5135 469.65492,1737.1154 392.16035,1754.1998 C 376.64427,1751.3329 334.24095,1747.0449 371.99194,1728.2107 z"
       id="path2682" />
    <path
       style="opacity:1;fill:#000000;fill-opacity:1;fill-rule:nonzero;stroke:#000000;stroke-width:3.75;stroke-linecap:round;stroke-linejoin:round;stroke-miterlimit:10;stroke-dasharray:none;stroke-dashoffset:0;stroke-opacity:1"
       d="M 10.068457,1722.1449 C 51.320954,1694.8328 89.249539,1655.2287 38.096375,1710.289 C 32.395304,1718.9734 -22.636906,1753.8108 10.068457,1722.1449 z"
       id="path2684" />
    <path
       style="opacity:1;fill:#000000;fill-opacity:1;fill-rule:nonzero;stroke:#000000;stroke-width:3.75;stroke-linecap:round;stroke-linejoin:round;stroke-miterlimit:10;stroke-dasharray:none;stroke-dashoffset:0;stroke-opacity:1"
       d="M 80.710159,1665.0675 C 150.23816,1675.13 226.02491,1658.6634 290.70504,1677.6235 C 324.17974,1708.5819 286.46957,1790.6602 283.7117,1712.819 C 247.00634,1647.823 144.16269,1704.2994 80.541548,1680.1549 C 47.407673,1689.187 77.16824,1671.5733 80.710159,1665.0675 z"
       id="path2686" />
    <path
       style="opacity:1;fill:#000000;fill-opacity:1;fill-rule:nonzero;stroke:#000000;stroke-width:3.75;stroke-linecap:round;stroke-linejoin:round;stroke-miterlimit:10;stroke-dasharray:none;stroke-dashoffset:0;stroke-opacity:1"
       d="M 294.51694,1753.3177 C 294.06218,1646.3272 430.96059,1659.7344 503.96372,1670.1557 C 552.70889,1662.9769 643.21939,1672.017 620.26911,1733.8193 C 579.1571,1657.012 473.17188,1693.5524 396.05247,1679.1761 C 360.53022,1685.6204 324.33582,1683.0299 320.75859,1698.301 C 309.04884,1718.8513 322.61998,1744.2802 294.51694,1753.3177 z"
       id="path2688" />
    <path
       style="opacity:1;fill:#000000;fill-opacity:1;fill-rule:nonzero;stroke:#000000;stroke-width:3.75;stroke-linecap:round;stroke-linejoin:round;stroke-miterlimit:10;stroke-dasharray:none;stroke-dashoffset:0;stroke-opacity:1"
       d="M 421.83362,1701.8376 C 475.55809,1704.7912 529.40595,1701.9256 582.99631,1701.2584 C 534.92149,1710.8481 450.63853,1712.0009 421.83362,1701.8376 z"
       id="path2696" />
    <path
       style="opacity:1;fill:#000000;fill-opacity:1;fill-rule:nonzero;stroke:#000000;stroke-width:3.75;stroke-linecap:round;stroke-linejoin:round;stroke-miterlimit:10;stroke-dasharray:none;stroke-dashoffset:0;stroke-opacity:1"
       d="M 433.43433,1712.283 C 476.56276,1701.8041 517.9798,1726.7622 561.33212,1714.0816 C 523.58703,1737.0921 451.5382,1707.1123 433.43433,1712.283 z"
       id="path2698" />
    <path
       style="opacity:1;fill:#000000;fill-opacity:1;fill-rule:nonzero;stroke:#000000;stroke-width:3.75;stroke-linecap:round;stroke-linejoin:round;stroke-miterlimit:10;stroke-dasharray:none;stroke-dashoffset:0;stroke-opacity:1"
       d="M 77.12944,1689.2755 C 103.77146,1684.3733 250.34025,1706.8322 199.68349,1705.8516 C 163.94553,1705.799 94.222563,1688.9925 77.12944,1689.2755 z"
       id="path2700" />
    <path
       style="opacity:1;fill:#000000;fill-opacity:1;fill-rule:nonzero;stroke:#000000;stroke-width:3.75;stroke-linecap:round;stroke-linejoin:round;stroke-miterlimit:10;stroke-dasharray:none;stroke-dashoffset:0;stroke-opacity:1"
       d="M 79.888512,1715.2482 C 111.30378,1710.3284 212.98633,1725.5185 129.94958,1721.7265 C 124.15228,1715.2655 63.043066,1727.4886 79.888512,1715.2482 z"
       id="path2702" />
    <path
       style="opacity:1;fill:#000000;fill-opacity:1;fill-rule:nonzero;stroke:#000000;stroke-width:3.75;stroke-linecap:round;stroke-linejoin:round;stroke-miterlimit:10;stroke-dasharray:none;stroke-dashoffset:0;stroke-opacity:1"
       d="M 464.65372,1392.5997 C 555.51962,1402.0558 654.29951,1394.0177 733.4208,1447.437 C 796.87158,1491.0809 867.76361,1523.9458 926.70044,1574.6213 C 880.74497,1616.8533 824.86256,1509.5904 770.34399,1505.2685 C 691.45499,1440.339 592.80421,1417.2723 492.48489,1416.8469 C 468.05502,1411.1505 420.30964,1421.9619 464.65372,1392.5997 L 464.65372,1392.5997 z"
       id="path2738" />
    <path
       style="opacity:1;fill:#000000;fill-opacity:1;fill-rule:nonzero;stroke:#000000;stroke-width:3.75;stroke-linecap:round;stroke-linejoin:round;stroke-miterlimit:10;stroke-dasharray:none;stroke-dashoffset:0;stroke-opacity:1"
       d="M 711.39166,1618.0756 C 705.3687,1639.4051 713.06064,1737.4083 682.18957,1702.52 C 684.95584,1673.2854 673.3403,1629.2141 711.39166,1618.0756 z"
       id="path2740" />
    <path
       style="opacity:1;fill:#000000;fill-opacity:1;fill-rule:nonzero;stroke:#000000;stroke-width:3.75;stroke-linecap:round;stroke-linejoin:round;stroke-miterlimit:10;stroke-dasharray:none;stroke-dashoffset:0;stroke-opacity:1"
       d="M 89.649025,1607.3236 C 108.634,1652.7609 31.816729,1636.3014 89.649025,1607.3236 L 89.649025,1607.3236 z"
       id="path2742" />
    <path
       style="opacity:1;fill:#000000;fill-opacity:1;fill-rule:nonzero;stroke:#000000;stroke-width:3.75;stroke-linecap:round;stroke-linejoin:round;stroke-miterlimit:10;stroke-dasharray:none;stroke-dashoffset:0;stroke-opacity:1"
       d="M 728.42621,1648.3423 C 760.98459,1658.7557 840.94704,1701.67 765.14599,1695.2121 C 746.9244,1684.2804 677.49933,1674.7145 728.42621,1648.3423 z"
       id="path2744" />
    <path
       style="opacity:1;fill:#000000;fill-opacity:1;fill-rule:nonzero;stroke:#000000;stroke-width:3.75;stroke-linecap:round;stroke-linejoin:round;stroke-miterlimit:10;stroke-dasharray:none;stroke-dashoffset:0;stroke-opacity:1"
       d="M 722.07135,1762.996 C 713.48211,1822.225 691.81068,1881.3376 677.88685,1937.2645 C 629.83999,1962.141 692.96426,1841.0702 693.22357,1811.3291 C 696.14345,1791.7679 699.99132,1769.3163 722.07135,1762.996 z"
       id="path2746" />
    <path
       style="opacity:1;fill:#000000;fill-opacity:1;fill-rule:nonzero;stroke:#000000;stroke-width:3.75;stroke-linecap:round;stroke-linejoin:round;stroke-miterlimit:10;stroke-dasharray:none;stroke-dashoffset:0;stroke-opacity:1"
       d="M 325.08114,1474.59 C 322.44153,1481.086 331.42526,1483.0023 334.96479,1478.7688 C 332.25248,1480.389 326.67647,1486.4898 325.76374,1485.9519 C 328.36576,1480.7514 333.7988,1478.1187 338.16753,1474.7347 C 341.61848,1479.1867 334.1848,1483.6745 330.60512,1485.7996 C 326.06442,1489.0853 317.99593,1495.7332 313.68367,1488.73 C 310.25359,1482.3937 318.65677,1479.7357 322.38119,1476.5008 C 323.28117,1475.8639 324.18121,1475.2269 325.08114,1474.59 z"
       id="path2854" />
    <path
       style="opacity:1;fill:#000000;fill-opacity:1;fill-rule:nonzero;stroke:#000000;stroke-width:3.75;stroke-linecap:round;stroke-linejoin:round;stroke-miterlimit:10;stroke-dasharray:none;stroke-dashoffset:0;stroke-opacity:1"
       d="M 322.41854,1527.5812 C 325.62104,1531.5843 326.98339,1537.3152 331.48889,1540.1086 C 333.73287,1542.4392 342.09175,1536.6842 337.11127,1540.2435 C 335.12044,1541.9178 329.60954,1546.7939 329.69054,1546.3686 C 333.2432,1541.111 320.45871,1541.8996 327.02718,1538.2373 C 330.92249,1534.9583 335.5884,1526.8214 340.78458,1533.1431 C 345.34106,1538.3157 338.92257,1541.9443 335.39575,1544.7957 C 331.92646,1548.195 327.31692,1552.5675 322.0426,1550.5804 C 315.6469,1549.5189 314.13568,1541.9704 311.79134,1537.1086 C 313.88867,1532.8802 319.3859,1531.2721 322.41854,1527.5812 z"
       id="path2856" />
    <path
       style="opacity:1;fill:#000000;fill-opacity:1;fill-rule:nonzero;stroke:#000000;stroke-width:3.75;stroke-linecap:round;stroke-linejoin:round;stroke-miterlimit:10;stroke-dasharray:none;stroke-dashoffset:0;stroke-opacity:1"
       d="M 314.92861,1588.7734 C 313.50793,1593.6804 313.8096,1602.1336 320.90956,1601.1349 C 323.31188,1601.8134 330.57352,1596.5724 325.54983,1600.2895 C 324.07358,1601.5855 319.16612,1605.7893 320.06856,1604.8035 C 323.61209,1601.9569 330.37721,1597.9372 332.59652,1596.8066 C 328.07809,1601.9013 322.37004,1605.7895 317.23461,1610.1773 C 312.77324,1612.6273 304.63485,1612.7681 302.8724,1606.9603 C 300.76031,1601.4516 303.19251,1595.4296 308.66555,1593.2058 C 310.75324,1591.7283 312.84095,1590.2509 314.92861,1588.7734 z"
       id="path2858" />
    <path
       style="opacity:1;fill:#000000;fill-opacity:1;fill-rule:nonzero;stroke:#000000;stroke-width:3.75;stroke-linecap:round;stroke-linejoin:round;stroke-miterlimit:10;stroke-dasharray:none;stroke-dashoffset:0;stroke-opacity:1"
       d="M -8.2098236,1745.3077 C -6.3415137,1747.1395 -4.4395126,1749.2756 -4.1002928,1751.9469 C -3.4372043,1753.1465 -1.3820686,1754.4972 -3.7110083,1755.363 C -7.2310486,1758.1511 -10.751073,1760.9393 -14.271107,1763.7274 C -13.149124,1761.5899 -16.131005,1761.3054 -16.232385,1759.2343 C -17.717614,1758.0662 -18.129818,1755.9154 -19.519595,1754.7751 C -15.772621,1751.5937 -11.975791,1748.4677 -8.2098236,1745.3077 z"
       id="path3673" />
    <path
       style="opacity:1;fill:#000000;fill-opacity:1;fill-rule:nonzero;stroke:#000000;stroke-width:3.75;stroke-linecap:round;stroke-linejoin:round;stroke-miterlimit:10;stroke-dasharray:none;stroke-dashoffset:0;stroke-opacity:1"
       d="M 640.64575,1994.2104 C 642.12011,2003.9881 640.35548,2013.9118 641.07355,2023.7297 C 640.58748,2034.9281 644.33493,2046.118 642.21366,2057.2111 C 642.74756,2065.5726 641.94824,2073.9656 643.06946,2082.2844 C 645.10553,2100.7327 643.2736,2119.352 644.14105,2137.8708 C 643.86844,2153.8897 643.6133,2170.1947 647.61233,2185.8523 C 652.14713,2195.7944 642.52393,2200.388 635.74026,2205.2411 C 628.4923,2209.8493 631.0238,2195.3512 629.6531,2191.2542 C 629.15512,2182.8956 625.64336,2174.9148 626.70976,2166.4208 C 628.02137,2151.4843 625.99518,2136.4882 627.22298,2121.5767 C 627.19042,2109.3805 627.095,2097.0908 625.29558,2085.0467 C 626.90344,2061.4281 623.05426,2037.8643 624.15892,2014.2386 C 621.12022,2005.7632 630.83489,2001.4156 636.31585,1997.3563 C 637.75914,1996.3077 639.2025,1995.2589 640.64575,1994.2104 z"
       id="path3727" />
  </g>
  <g
     inkscape:label="Calque 1"
     inkscape:groupmode="layer"
     id="layer1"
     transform="translate(364.25207,446.37344)">
    <path
       style="opacity:1;fill:#000000;fill-opacity:1;fill-rule:nonzero;stroke:#000000;stroke-width:3.75;stroke-linecap:round;stroke-linejoin:round;stroke-miterlimit:10;stroke-dasharray:none;stroke-dashoffset:0;stroke-opacity:1"
       d="M 161.65869,310.86761 C 97.469734,279.86071 49.159009,367.1451 64.723004,421.3961 C 69.755104,444.24447 141.2542,484.63292 131.93437,472.95664 C 150.59627,446.60376 179.14902,457.09515 143.14961,476.77299 C 73.189097,502.76587 13.895899,411.33967 53.259956,352.25568 C 72.924173,309.06729 138.90453,283.86454 176.33153,301.1485 L 171.45922,305.2413 L 161.65869,310.86761 L 161.65869,310.86761 z"
       id="path3588" />
    <path
       style="opacity:1;fill:#000000;fill-opacity:1;fill-rule:nonzero;stroke:#000000;stroke-width:3.75;stroke-linecap:round;stroke-linejoin:round;stroke-miterlimit:10;stroke-dasharray:none;stroke-dashoffset:0;stroke-opacity:1"
       d="M 78.632454,427.02823 C 61.434708,386.41287 127.69585,332.98817 143.9364,380.19357 C 117.54646,425.47486 122.47407,355.58583 110.79436,377.42135 C 75.178284,354.74198 129.21236,408.29322 96.004182,422.86879 L 88.668367,426.01724 L 78.632454,427.02823 L 78.632454,427.02823 z"
       id="path3594" />
    <path
       style="opacity:1;fill:#000000;fill-opacity:1;fill-rule:nonzero;stroke:#000000;stroke-width:3.75;stroke-linecap:round;stroke-linejoin:round;stroke-miterlimit:10;stroke-dasharray:none;stroke-dashoffset:0;stroke-opacity:1"
       d="M 179.79279,467.09241 C 192.35382,525.41068 203.28433,585.19093 193.68608,644.79751 C 197.23131,687.32072 212.79029,741.12519 254.54711,759.8587 C 307.23548,777.94973 211.34817,778.80309 206.96462,747.24485 C 166.92105,698.90703 173.88997,634.56922 175.63403,576.32099 C 188.53422,544.1084 132.83026,477.58246 179.79279,467.09241 z"
       id="path3618" />
    <path
       style="opacity:1;fill:#000000;fill-opacity:1;fill-rule:nonzero;stroke:#000000;stroke-width:3.75;stroke-linecap:round;stroke-linejoin:round;stroke-miterlimit:10;stroke-dasharray:none;stroke-dashoffset:0;stroke-opacity:1"
       d="M 268.63779,251.20265 C 324.89336,233.50285 393.99598,258.18872 394.91721,325.20195 C 401.70727,382.34629 355.60678,458.9059 415.26694,499.84399 C 450.85522,508.44831 416.44552,512.71504 428.41771,484.70417 C 442.49878,421.9682 413.52559,356.4719 430.25535,292.92557 C 423.24656,246.2269 528.45457,215.07209 465.3551,255.41271 C 437.46876,284.32644 449.11573,331.59181 447.43508,369.99105 C 449.23221,412.0003 459.34119,455.96967 446.60355,496.90529 C 398.88943,548.83005 340.01425,461.92632 365.66663,412.60601 C 378.83766,361.52243 384.18056,280.55667 323.19195,259.9068 C 308.6791,249.33608 216.7286,272.80608 268.63779,251.20265 z"
       id="path3620" />
    <path
       style="opacity:1;fill:#000000;fill-opacity:1;fill-rule:nonzero;stroke:#000000;stroke-width:3.75;stroke-linecap:round;stroke-linejoin:round;stroke-miterlimit:10;stroke-dasharray:none;stroke-dashoffset:0;stroke-opacity:1"
       d="M 355.79688,424.29718 C 326.96017,411.54838 325.38562,475.95806 333.40759,493.69296 C 349.4602,523.38472 392.4491,517.3047 339.6933,523.0933 C 281.29829,506.80695 306.49484,391.73332 369.25748,413.28003 C 376.56899,419.88497 358.25343,422.52332 355.79688,424.29718 z"
       id="path3622" />
    <path
       style="opacity:1;fill:#000000;fill-opacity:1;fill-rule:nonzero;stroke:#000000;stroke-width:3.75;stroke-linecap:round;stroke-linejoin:round;stroke-miterlimit:10;stroke-dasharray:none;stroke-dashoffset:0;stroke-opacity:1"
       d="M 312.15842,281.31384 C 246.9669,293.25898 253.49059,387.2731 308.35453,402.15566 C 256.179,417.75423 220.38181,350.79018 254.48036,311.80703 C 267.99178,293.80977 289.80343,282.71264 312.15842,281.31384 z"
       id="path3624" />
    <path
       style="opacity:1;fill:#000000;fill-opacity:1;fill-rule:nonzero;stroke:#000000;stroke-width:3.75;stroke-linecap:round;stroke-linejoin:round;stroke-miterlimit:10;stroke-dasharray:none;stroke-dashoffset:0;stroke-opacity:1"
       d="M 213.43594,323.87567 C 234.83042,321.97328 354.79137,310.72919 345.35889,328.09457 C 318.51236,330.04145 206.7851,333.5372 205.27092,327.59023 L 213.43594,323.87567 L 213.43594,323.87567 z"
       id="path3626"
       sodipodi:nodetypes="ccccc" />
    <path
       style="opacity:1;fill:#000000;fill-opacity:1;fill-rule:nonzero;stroke:#000000;stroke-width:3.75;stroke-linecap:round;stroke-linejoin:round;stroke-miterlimit:10;stroke-dasharray:none;stroke-dashoffset:0;stroke-opacity:1"
       d="M 289.77298,370.20682 C 293.07088,376.26116 327.10522,402.63168 292.57004,377.06672 C 287.51291,339.74761 352.63605,394.48607 300.02634,397.79404 C 226.03654,407.29323 322.38255,337.32701 289.77298,370.20682 z"
       id="path3628" />
    <path
       style="opacity:1;fill:#000000;fill-opacity:1;fill-rule:nonzero;stroke:#000000;stroke-width:3.75;stroke-linecap:round;stroke-linejoin:round;stroke-miterlimit:10;stroke-dasharray:none;stroke-dashoffset:0;stroke-opacity:1"
       d="M 310.11359,522.08136 C 274.78985,558.80401 302.3252,632.24411 269.99113,656.53684 C 255.31078,616.71099 263.0325,535.90433 310.11359,522.08136 L 310.11359,522.08136 z"
       id="path3630" />
    <path
       style="opacity:1;fill:#000000;fill-opacity:1;fill-rule:nonzero;stroke:#000000;stroke-width:3.75;stroke-linecap:round;stroke-linejoin:round;stroke-miterlimit:10;stroke-dasharray:none;stroke-dashoffset:0;stroke-opacity:1"
       d="M 299.34995,657.56915 C 336.84587,607.27167 451.2357,587.82194 475.99061,654.9831 C 471.54261,722.97224 387.45601,728.1437 335.41477,719.80757 C 311.82176,720.78971 275.88328,696.21989 304.59062,674.13895 C 323.87578,724.94182 409.66882,714.65698 436.26766,702.02523 C 489.24758,652.17264 420.21915,605.90804 368.63692,625.66719 C 325.22986,624.66673 349.97877,632.09437 299.34995,657.56915 z"
       id="path3642" />
    <path
       style="opacity:1;fill:#000000;fill-opacity:1;fill-rule:nonzero;stroke:#000000;stroke-width:3.75;stroke-linecap:round;stroke-linejoin:round;stroke-miterlimit:10;stroke-dasharray:none;stroke-dashoffset:0;stroke-opacity:1"
       d="M 332.72839,683.83289 C 365.65844,685.399 422.85217,682.71393 441.5907,690.61944 C 411.0323,704.89268 320.67822,692.72609 323.50429,688.74278 L 332.72839,683.83289 L 332.72839,683.83289 z"
       id="path3644" />
    <path
       style="opacity:1;fill:#000000;fill-opacity:1;fill-rule:nonzero;stroke:#000000;stroke-width:3.75;stroke-linecap:round;stroke-linejoin:round;stroke-miterlimit:10;stroke-dasharray:none;stroke-dashoffset:0;stroke-opacity:1"
       d="M 342.84357,629.66846 C 372.11292,642.68204 439.12578,630.52398 438.0957,639.17991 C 406.56972,653.19873 341.49881,646.758 327.46858,637.26308 C 332.59358,634.73156 337.71857,632.2 342.84357,629.66846 z"
       id="path3646" />
    <path
       style="opacity:1;fill:#000000;fill-opacity:1;fill-rule:nonzero;stroke:#000000;stroke-width:3.75;stroke-linecap:round;stroke-linejoin:round;stroke-miterlimit:10;stroke-dasharray:none;stroke-dashoffset:0;stroke-opacity:1"
       d="M 499.94666,268.07727 C 577.29064,276.73988 552.58666,403.16643 482.90222,402.2209 C 494.42779,385.69543 512.96029,399.53805 514.07514,369.71091 C 546.68576,334.44697 527.24959,286.03946 481.69175,278.11017 C 483.28824,270.80695 495.07491,271.23163 499.94666,268.07727 z"
       id="path3652" />
    <path
       style="opacity:1;fill:#000000;fill-opacity:1;fill-rule:nonzero;stroke:#000000;stroke-width:3.75;stroke-linecap:round;stroke-linejoin:round;stroke-miterlimit:10;stroke-dasharray:none;stroke-dashoffset:0;stroke-opacity:1"
       d="M 470.95154,319.6481 C 488.17051,303.77751 586.53795,327.23607 527.42132,325.77705 C 519.76894,322.34982 423.25289,338.5428 470.95154,319.6481 z"
       id="path3654"
       sodipodi:nodetypes="ccc" />
    <path
       style="opacity:1;fill:#000000;fill-opacity:1;fill-rule:nonzero;stroke:#000000;stroke-width:3.75;stroke-linecap:round;stroke-linejoin:round;stroke-miterlimit:10;stroke-dasharray:none;stroke-dashoffset:0;stroke-opacity:1"
       d="M 475.29697,393.39081 C 495.49031,410.97137 467.40634,357.30198 474.77893,383.0182 C 429.43596,390.98084 519.96414,343.06904 500.49737,391.39479 C 483.5657,428.75795 448.68955,382.51215 491.4224,383.95581 C 491.14486,391.10848 476.59575,388.2994 475.29697,393.39081 z"
       id="path3656" />
    <path
       style="opacity:1;fill:#000000;fill-opacity:1;fill-rule:nonzero;stroke:#000000;stroke-width:3.75;stroke-linecap:round;stroke-linejoin:round;stroke-miterlimit:10;stroke-dasharray:none;stroke-dashoffset:0;stroke-opacity:1"
       d="M 462.03525,411.47861 C 529.31141,408.1943 509.95884,518.21634 462.96244,534.5607 C 430.08287,535.57854 437.86319,518.392 464.83829,524.63905 C 486.00851,493.00244 500.66503,422.18941 447.47272,418.38847 L 451.62499,415.7066 L 462.03525,411.47861 L 462.03525,411.47861 z"
       id="path3658" />
    <path
       style="opacity:1;fill:#000000;fill-opacity:1;fill-rule:nonzero;stroke:#000000;stroke-width:3.75;stroke-linecap:round;stroke-linejoin:round;stroke-miterlimit:10;stroke-dasharray:none;stroke-dashoffset:0;stroke-opacity:1"
       d="M 500.47311,516.5965 C 542.8109,539.98203 561.43006,642.06037 520.45062,643.76205 C 533.65623,598.64379 508.17662,557.30657 485.94451,524.67072 L 491.31069,519.19919 L 500.47311,516.5965 L 500.47311,516.5965 z"
       id="path3660" />
    <path
       style="opacity:1;fill:#000000;fill-opacity:1;fill-rule:nonzero;stroke:#000000;stroke-width:3.75;stroke-linecap:round;stroke-linejoin:round;stroke-miterlimit:10;stroke-dasharray:none;stroke-dashoffset:0;stroke-opacity:1"
       d="M 274.80533,758.05481 C 252.63794,828.30696 342.45419,829.13183 387.02406,818.62025 C 415.65873,818.90229 482.74438,821.8671 490.63564,818.79549 C 488.17409,792.42129 539.63518,753.16953 519.15406,803.80897 C 492.89084,852.8168 428.96244,822.56139 385.3664,828.87098 C 342.67618,818.90158 272.57852,858.66053 253.89753,802.36482 C 247.78073,785.46103 250.81096,756.55353 274.80533,758.05481 z"
       id="path3662" />
    <path
       style="opacity:1;fill:#000000;fill-opacity:1;fill-rule:nonzero;stroke:#000000;stroke-width:3.75;stroke-linecap:round;stroke-linejoin:round;stroke-miterlimit:10;stroke-dasharray:none;stroke-dashoffset:0;stroke-opacity:1"
       d="M 513.05579,776.2453 C 572.17695,778.97236 589.25428,707.5956 572.41929,662.16425 C 565.40107,596.28512 584.68454,531.33673 583.25585,465.5272 C 632.84206,469.25681 586.23145,545.66412 592.17245,579.55136 C 584.95432,636.97732 614.11041,699.07621 582.98433,752.7521 C 575.75975,769.08149 497.75583,791.34615 513.05579,776.2453 z"
       id="path3664" />
    <path
       style="opacity:1;fill:#000000;fill-opacity:1;fill-rule:nonzero;stroke:#000000;stroke-width:3.75;stroke-linecap:round;stroke-linejoin:round;stroke-miterlimit:10;stroke-dasharray:none;stroke-dashoffset:0;stroke-opacity:1"
       d="M 583.25897,279.68887 C 621.23463,231.0977 709.76729,250.52121 714.73699,314.72855 C 730.37442,373.41116 692.22256,436.92427 632.19415,448.28198 C 608.95433,464.92065 536.55331,445.96233 601.67991,443.94084 C 677.31925,456.61921 721.13408,356.91037 683.94106,298.30526 C 676.77528,265.99749 623.83071,248.25514 618.84339,264.95316 C 607.74616,270.97914 596.45778,279.61239 583.25897,279.68887 z"
       id="path3666" />
    <path
       style="opacity:1;fill:#000000;fill-opacity:1;fill-rule:nonzero;stroke:#000000;stroke-width:3.75;stroke-linecap:round;stroke-linejoin:round;stroke-miterlimit:10;stroke-dasharray:none;stroke-dashoffset:0;stroke-opacity:1"
       d="M 598.02985,429.53549 C 555.99206,386.90207 605.53931,317.24679 654.42227,358.69826 C 664.81085,387.93233 605.83989,420.96355 632.08163,372.45537 C 639.42342,344.97378 555.55083,364.81905 599.19483,357.97689 C 597.8727,378.5767 638.58199,425.70106 598.02985,429.53549 z"
       id="path3668" />
    <path
       style="opacity:1;fill:#000000;fill-opacity:1;fill-rule:nonzero;stroke:#000000;stroke-width:3.75;stroke-linecap:round;stroke-linejoin:round;stroke-miterlimit:10;stroke-dasharray:none;stroke-dashoffset:0;stroke-opacity:1"
       d="M 617.22614,352.31836 C 613.43526,320.52049 698.60185,330.78256 648.59939,337.23107 C 662.79703,322.35407 623.24612,364.66598 617.22614,352.31836 z"
       id="path3670" />
    <path
       style="opacity:1;fill:#000000;fill-opacity:1;fill-rule:nonzero;stroke:#000000;stroke-width:3.75;stroke-linecap:round;stroke-linejoin:round;stroke-miterlimit:10;stroke-dasharray:none;stroke-dashoffset:0;stroke-opacity:1"
       d="M 179.87407,220.77541 C 186.69322,248.28803 148.004,301.33844 153.37134,245.07927 C 155.47196,232.33138 165.43033,218.83269 179.87407,220.77541 z"
       id="path3674" />
    <path
       style="opacity:1;fill:#000000;fill-opacity:1;fill-rule:nonzero;stroke:#000000;stroke-width:3.75;stroke-linecap:round;stroke-linejoin:round;stroke-miterlimit:10;stroke-dasharray:none;stroke-dashoffset:0;stroke-opacity:1"
       d="M 578.948,216.11989 C 610.69681,250.21125 542.03441,259.02713 563.95271,221.0556 L 568.71706,218.87754 L 578.948,216.11989 L 578.948,216.11989 z"
       id="path3676" />
    <path
       style="opacity:1;fill:#000000;fill-opacity:1;fill-rule:nonzero;stroke:#000000;stroke-width:3.75;stroke-linecap:round;stroke-linejoin:round;stroke-miterlimit:10;stroke-dasharray:none;stroke-dashoffset:0;stroke-opacity:1"
       d="M 145.47617,203.8541 C 266.26515,231.55113 388.64324,192.6011 510.38471,194.76603 C 534.10291,194.15858 576.6438,191.50494 591.43723,193.73706 C 529.10223,213.66359 462.26037,198.27118 398.36379,210.30356 C 311.32572,217.0276 222.73716,232.23819 135.94489,216.78178 C 128.52997,211.85161 142.01661,204.26925 145.47617,203.8541 z"
       id="path3680" />
    <path
       style="opacity:1;fill:#000000;fill-opacity:1;fill-rule:nonzero;stroke:#000000;stroke-width:3.75;stroke-linecap:round;stroke-linejoin:round;stroke-miterlimit:10;stroke-dasharray:none;stroke-dashoffset:0;stroke-opacity:1"
       d="M 157.57986,-166.9402 C 144.56747,-84.501192 164.91825,-1.2573686 155.43523,81.371826 C 168.13383,99.817064 163.72854,187.29979 138.92448,151.67688 C 138.09624,55.278566 133.72372,-41.132019 132.85484,-137.38825 C 132.46259,-151.94256 141.41638,-167.75132 157.57986,-166.9402 z"
       id="path3696" />
    <path
       style="opacity:1;fill:#000000;fill-opacity:1;fill-rule:nonzero;stroke:#000000;stroke-width:3.75;stroke-linecap:round;stroke-linejoin:round;stroke-miterlimit:10;stroke-dasharray:none;stroke-dashoffset:0;stroke-opacity:1"
       d="M 168.69983,-176.74583 C 303.49694,-152.11083 444.74612,-95.784632 521.78396,24.075691 C 546.91871,69.765198 614.56072,136.50889 581.9765,184.48761 C 561.65008,129.87732 537.61088,75.599317 499.89002,29.071171 C 422.88514,-89.802187 281.97047,-143.27513 148.19582,-166.85714 C 155.03049,-170.15337 161.86516,-173.4496 168.69983,-176.74583 z"
       id="path3698" />
    <path
       style="opacity:1;fill:#000000;fill-opacity:1;fill-rule:nonzero;stroke:#000000;stroke-width:3.75;stroke-linecap:round;stroke-linejoin:round;stroke-miterlimit:10;stroke-dasharray:none;stroke-dashoffset:0;stroke-opacity:1"
       d="M 597.60413,-193.07837 C 587.65929,-114.00025 597.31675,-34.331379 595.04206,45.010464 C 617.40503,67.46835 581.95324,135.35713 577.97743,76.95032 C 571.43418,-3.8185795 573.61203,-85.050983 573.0143,-165.80285 C 573.27131,-179.84434 582.32591,-193.70041 597.60413,-193.07837 z"
       id="path3700" />
    <path
       style="opacity:1;fill:#000000;fill-opacity:1;fill-rule:nonzero;stroke:#000000;stroke-width:3.75;stroke-linecap:round;stroke-linejoin:round;stroke-miterlimit:10;stroke-dasharray:none;stroke-dashoffset:0;stroke-opacity:1"
       d="M 406.83127,-98.025009 C 445.35404,-133.84825 499.14964,-148.41118 547.81276,-161.98225 C 557.30787,-160.68056 509.47373,-149.27201 545.51429,-159.84481 C 524.69755,-152.323 478.65552,-135.41783 482.55893,-137.11112 C 476.54963,-142.86855 434.58161,-102.77208 406.83127,-98.025009 z"
       id="path3702" />
    <path
       style="opacity:1;fill:#000000;fill-opacity:1;fill-rule:nonzero;stroke:#000000;stroke-width:3.75;stroke-linecap:round;stroke-linejoin:round;stroke-miterlimit:10;stroke-dasharray:none;stroke-dashoffset:0;stroke-opacity:1"
       d="M 136.97607,-190.75778 C 168.77224,-258.43725 212.62693,-320.54805 270.97297,-367.8578 C 290.58195,-391.1882 350.49575,-446.42578 358.62814,-434.36557 C 287.31009,-369.73261 209.13298,-306.78442 169.09256,-216.60906 C 164.35105,-203.01109 152.70985,-189.60693 136.97607,-190.75778 z"
       id="path3704" />
    <path
       style="opacity:1;fill:#000000;fill-opacity:1;fill-rule:nonzero;stroke:#000000;stroke-width:3.75;stroke-linecap:round;stroke-linejoin:round;stroke-miterlimit:10;stroke-dasharray:none;stroke-dashoffset:0;stroke-opacity:1"
       d="M 388.28543,-444.49844 C 438.50824,-399.87329 497.15318,-361.32111 535.97164,-306.2 C 555.70787,-282.49681 608.39611,-212.59655 581.03328,-204.09355 C 538.80602,-251.24179 520.1907,-316.98743 465.67948,-353.83251 C 438.83823,-381.02407 387.31684,-414.70573 375.84483,-439.61175 L 383.5047,-441.63515 L 388.28543,-444.49844 L 388.28543,-444.49844 z"
       id="path3706" />
    <path
       style="opacity:1;fill:#000000;fill-opacity:1;fill-rule:nonzero;stroke:#000000;stroke-width:3.75;stroke-linecap:round;stroke-linejoin:round;stroke-miterlimit:10;stroke-dasharray:none;stroke-dashoffset:0;stroke-opacity:1"
       d="M 170.66599,132.89648 C 313.62889,130.36685 456.83877,132.48801 599.66922,133.16569 C 645.22814,152.46319 566.06403,216.582 590.72822,157.14567 C 547.09905,122.07312 477.80758,152.20786 424.30015,142.65432 C 334.93666,141.76318 245.37327,140.52167 156.14083,142.38885 C 151.02037,137.83806 167.75492,134.7071 170.66599,132.89648 z"
       id="path3708" />
    <path
       style="opacity:1;fill:#000000;fill-opacity:1;fill-rule:nonzero;stroke:#000000;stroke-width:3.75;stroke-linecap:round;stroke-linejoin:round;stroke-miterlimit:10;stroke-dasharray:none;stroke-dashoffset:0;stroke-opacity:1"
       d="M 153.16927,150.02551 C 128.053,156.84645 161.31097,227.06241 121.78425,187.72692 C 112.73598,167.70737 134.32486,149.39697 153.16927,150.02551 z"
       id="path3710" />
  </g>
</svg>
