<?xml version="1.0" encoding="UTF-8" standalone="no"?>
<!-- Created with Inkscape (http://www.inkscape.org/) -->

<svg
   xmlns:dc="http://purl.org/dc/elements/1.1/"
   xmlns:cc="http://creativecommons.org/ns#"
   xmlns:rdf="http://www.w3.org/1999/02/22-rdf-syntax-ns#"
   xmlns:svg="http://www.w3.org/2000/svg"
   xmlns="http://www.w3.org/2000/svg"
   xmlns:xlink="http://www.w3.org/1999/xlink"
   xmlns:sodipodi="http://sodipodi.sourceforge.net/DTD/sodipodi-0.dtd"
   xmlns:inkscape="http://www.inkscape.org/namespaces/inkscape"
   width="135.15692"
   height="80.943077"
   id="svg2"
   sodipodi:version="0.32"
   inkscape:version="0.48.1 r9760"
   version="1.0"
   sodipodi:docname="nicubunu_RPG_map_symbols_Pyramid.svg"
   inkscape:output_extension="org.inkscape.output.svg.inkscape">
  <defs
     id="defs4">
    <linearGradient
       id="linearGradient2966">
      <stop
         style="stop-color:#573711;stop-opacity:1;"
         offset="0"
         id="stop2968" />
      <stop
         style="stop-color:#8b571c;stop-opacity:1;"
         offset="1"
         id="stop2970" />
    </linearGradient>
    <linearGradient
       id="linearGradient2946">
      <stop
         style="stop-color:#1e0c00;stop-opacity:1;"
         offset="0"
         id="stop2948" />
      <stop
         style="stop-color:#4f1f00;stop-opacity:1;"
         offset="1"
         id="stop2950" />
    </linearGradient>
    <linearGradient
       id="linearGradient2888">
      <stop
         style="stop-color:#c7a94c;stop-opacity:1;"
         offset="0"
         id="stop2890" />
      <stop
         style="stop-color:#e2ca80;stop-opacity:1;"
         offset="1"
         id="stop2892" />
    </linearGradient>
    <linearGradient
       inkscape:collect="always"
       xlink:href="#linearGradient2888"
       id="linearGradient2894"
       x1="33.902702"
       y1="79.913513"
       x2="62.616215"
       y2="53.44865"
       gradientUnits="userSpaceOnUse" />
    <linearGradient
       inkscape:collect="always"
       xlink:href="#linearGradient2888"
       id="linearGradient2898"
       x1="91.589188"
       y1="96"
       x2="82.421616"
       y2="47.394592"
       gradientUnits="userSpaceOnUse" />
    <linearGradient
       inkscape:collect="always"
       xlink:href="#linearGradient2888"
       id="linearGradient2904"
       x1="84.210686"
       y1="86.964874"
       x2="87.879997"
       y2="87.148338"
       gradientUnits="userSpaceOnUse" />
    <linearGradient
       inkscape:collect="always"
       xlink:href="#linearGradient2888"
       id="linearGradient2908"
       x1="89.22541"
       y1="72.807449"
       x2="90.081581"
       y2="95.251396"
       gradientUnits="userSpaceOnUse" />
    <linearGradient
       inkscape:collect="always"
       xlink:href="#linearGradient2888"
       id="linearGradient2912"
       x1="83.415665"
       y1="70.391815"
       x2="86.534584"
       y2="67.150597"
       gradientUnits="userSpaceOnUse" />
    <linearGradient
       inkscape:collect="always"
       xlink:href="#linearGradient2888"
       id="linearGradient2916"
       x1="89.22541"
       y1="71.247993"
       x2="87.146133"
       y2="67.88446"
       gradientUnits="userSpaceOnUse" />
    <linearGradient
       inkscape:collect="always"
       xlink:href="#linearGradient2888"
       id="linearGradient2920"
       gradientUnits="userSpaceOnUse"
       x1="89.22541"
       y1="72.807449"
       x2="90.081581"
       y2="95.251396"
       gradientTransform="translate(15.411106,-6.9105355)" />
    <linearGradient
       inkscape:collect="always"
       xlink:href="#linearGradient2888"
       id="linearGradient2924"
       gradientUnits="userSpaceOnUse"
       x1="89.22541"
       y1="71.247993"
       x2="87.146133"
       y2="67.88446"
       gradientTransform="translate(15.166485,-6.9105355)" />
    <linearGradient
       inkscape:collect="always"
       xlink:href="#linearGradient2888"
       id="linearGradient2928"
       gradientUnits="userSpaceOnUse"
       x1="83.415665"
       y1="70.391815"
       x2="86.534584"
       y2="67.150597"
       gradientTransform="translate(15.288795,-6.8493803)" />
    <linearGradient
       inkscape:collect="always"
       xlink:href="#linearGradient2888"
       id="linearGradient2932"
       gradientUnits="userSpaceOnUse"
       x1="84.210686"
       y1="86.964874"
       x2="87.879997"
       y2="87.148338"
       gradientTransform="translate(15.288795,-7.0328458)" />
    <linearGradient
       inkscape:collect="always"
       xlink:href="#linearGradient2888"
       id="linearGradient2938"
       x1="93.322807"
       y1="83.845955"
       x2="92.160858"
       y2="86.414474"
       gradientUnits="userSpaceOnUse" />
    <linearGradient
       inkscape:collect="always"
       xlink:href="#linearGradient2888"
       id="linearGradient2942"
       x1="91.732773"
       y1="97.177788"
       x2="97.420204"
       y2="83.173256"
       gradientUnits="userSpaceOnUse" />
    <linearGradient
       inkscape:collect="always"
       xlink:href="#linearGradient2946"
       id="linearGradient2952"
       x1="97.909447"
       y1="88.79953"
       x2="93.017029"
       y2="96.321617"
       gradientUnits="userSpaceOnUse" />
    <linearGradient
       inkscape:collect="always"
       xlink:href="#linearGradient2966"
       id="linearGradient2972"
       x1="59.573746"
       y1="42.616856"
       x2="66.909981"
       y2="33.557053"
       gradientUnits="userSpaceOnUse" />
    <linearGradient
       inkscape:collect="always"
       xlink:href="#linearGradient2966"
       id="linearGradient2976"
       x1="71.903915"
       y1="49.99728"
       x2="73.892662"
       y2="36.120312"
       gradientUnits="userSpaceOnUse" />
    <filter
       inkscape:collect="always"
       id="filter3102"
       color-interpolation-filters="sRGB">
      <feGaussianBlur
         inkscape:collect="always"
         stdDeviation="1.0779148"
         id="feGaussianBlur3104" />
    </filter>
    <filter
       inkscape:collect="always"
       id="filter3112"
       color-interpolation-filters="sRGB">
      <feGaussianBlur
         inkscape:collect="always"
         stdDeviation="0.21924324"
         id="feGaussianBlur3114" />
    </filter>
  </defs>
  <sodipodi:namedview
     id="base"
     pagecolor="#ffffff"
     bordercolor="#666666"
     borderopacity="1.0"
     gridtolerance="10000"
     guidetolerance="10"
     objecttolerance="10"
     inkscape:pageopacity="0.0"
     inkscape:pageshadow="2"
     inkscape:zoom="5.6568542"
     inkscape:cx="70.760258"
     inkscape:cy="45.211995"
     inkscape:document-units="px"
     inkscape:current-layer="layer2"
     showgrid="false"
     width="744.09px"
     inkscape:window-width="1248"
     inkscape:window-height="975"
     inkscape:window-x="426"
     inkscape:window-y="24"
     showguides="true"
     inkscape:guide-bbox="true"
     fit-margin-top="0"
     fit-margin-left="0"
     fit-margin-right="9"
     fit-margin-bottom="0"
     inkscape:window-maximized="0" />
  <metadata
     id="metadata7">
    <rdf:RDF>
      <cc:Work
         rdf:about="">
        <dc:format>image/svg+xml</dc:format>
        <dc:type
           rdf:resource="http://purl.org/dc/dcmitype/StillImage" />
        <dc:title></dc:title>
      </cc:Work>
    </rdf:RDF>
  </metadata>
  <g
     inkscape:groupmode="layer"
     id="layer2"
     inkscape:label="colors"
     transform="translate(-0.2880044,-28.268919)">
    <path
       style="fill:#000000;fill-opacity:0.56164383;fill-rule:evenodd;stroke:none;filter:url(#filter3102)"
       d="m 102.125,95.5 -3.375,-1.375 -10.5,4.125 -1.375,4.125 -6,-1.75 -13.625,-17 -6.875,23 -57.5,-37.5 38.125,-21 63.625,44.625 -2.5,2.75 z"
       id="path2980"
       sodipodi:nodetypes="ccccccccccc"
       inkscape:connector-curvature="0" />
    <path
       style="fill:url(#linearGradient2894);fill-opacity:1;fill-rule:evenodd;stroke:none"
       d="m 9.772973,68.151351 44.886486,-29.145946 3.632433,2.248649 0,6.745946 7.437838,2.075676 1.729729,3.718919 L 62.702703,108.36757 51.978378,100.32432 27.675676,81.816216 9.772973,68.151351 z"
       id="path2309"
       inkscape:connector-curvature="0" />
    <path
       style="fill:url(#linearGradient2898);fill-rule:evenodd;stroke:none"
       d="M 62.52973,108.45405 82.594595,99.545946 125.92432,80.259459 85.967568,43.243243 84.497297,46.52973 75.589189,46.702703 70.832432,52.67027 67.286487,53.621622 62.52973,108.45405 z"
       id="path2896"
       inkscape:connector-curvature="0" />
    <path
       id="path2900"
       d="m 9.772973,68.151351 44.886486,-29.145946 3.632433,2.248649 0,6.745946 7.437838,2.075676 1.729729,3.718919 L 62.702703,108.36757 51.978378,100.32432 27.675676,81.816216 9.772973,68.151351 z"
       style="fill:#000000;fill-opacity:0.15686275;fill-rule:evenodd;stroke:none"
       inkscape:connector-curvature="0" />
    <path
       style="fill:url(#linearGradient2904);fill-rule:evenodd;stroke:none"
       d="m 82.804115,99.31822 0.672707,-28.498314 2.935449,1.467724 0.244621,30.08835 -3.852777,-3.05776 z"
       id="path2902"
       sodipodi:nodetypes="ccccc"
       inkscape:connector-curvature="0" />
    <path
       style="fill:url(#linearGradient2908);fill-rule:evenodd;stroke:none"
       d="m 86.656892,102.31482 -0.183466,-29.90488 3.608156,-0.978483 1.223103,28.804093 -4.647793,2.07927 z"
       id="path2906"
       inkscape:connector-curvature="0" />
    <path
       style="fill:url(#linearGradient2912);fill-rule:evenodd;stroke:none"
       d="m 83.415667,70.75875 3.118914,-3.608155 -0.183465,5.137035 -2.935449,-1.52888 z"
       id="path2910"
       inkscape:connector-curvature="0" />
    <path
       style="fill:url(#linearGradient2916);fill-rule:evenodd;stroke:none"
       d="m 86.412271,72.471096 3.608156,-1.039639 -3.485846,-4.586638 -0.12231,5.626277 z"
       id="path2914"
       inkscape:connector-curvature="0" />
    <path
       id="path2918"
       d="m 102.068,95.404285 -0.18347,-29.90488 3.60816,-0.978483 1.2231,28.804093 -4.64779,2.07927 z"
       style="fill:url(#linearGradient2920);fill-rule:evenodd;stroke:none"
       inkscape:connector-curvature="0" />
    <path
       id="path2922"
       d="m 101.57876,65.560561 3.60815,-1.039639 -3.48584,-4.586638 -0.12231,5.626277 z"
       style="fill:url(#linearGradient2924);fill-rule:evenodd;stroke:none"
       inkscape:connector-curvature="0" />
    <path
       id="path2926"
       d="m 98.704462,63.90937 3.118918,-3.608155 -0.18347,5.137035 -2.935448,-1.52888 z"
       style="fill:url(#linearGradient2928);fill-rule:evenodd;stroke:none"
       inkscape:connector-curvature="0" />
    <path
       sodipodi:nodetypes="ccccccc"
       id="path2930"
       d="m 98.520996,85.191373 0.244621,-21.404313 2.935453,1.467724 0.42809,30.332971 c -0.61213,-0.38996 -1.19683,-1.024541 -1.65752,-1.414501 l -10e-4,-7.424756 -1.949214,-1.557125 z"
       style="fill:url(#linearGradient2932);fill-rule:evenodd;stroke:none"
       inkscape:connector-curvature="0" />
    <path
       style="fill:url(#linearGradient2938);fill-rule:evenodd;stroke:none"
       d="m 90.570823,81.583218 4.586639,1.467724 -4.403173,5.870897 -0.183466,-7.338621 z"
       id="path2936"
       inkscape:connector-curvature="0" />
    <path
       style="fill:url(#linearGradient2942);fill-rule:evenodd;stroke:none"
       d="m 91.182375,98.095116 -0.244621,-9.173277 4.097397,-6.237828 5.320499,4.036242 -0.24462,7.460932 -8.928655,3.913931 z"
       id="path2940"
       sodipodi:nodetypes="cccccc"
       inkscape:connector-curvature="0" />
    <path
       style="fill:url(#linearGradient2952);fill-opacity:1;fill-rule:evenodd;stroke:none"
       d="m 92.283168,97.483565 0,-7.277467 2.874294,-4.036242 3.547001,1.834655 0.12231,6.60476 -6.543605,2.874294 z"
       id="path2944"
       sodipodi:nodetypes="cccccc"
       inkscape:connector-curvature="0" />
    <path
       sodipodi:nodetypes="ccccc"
       id="path2954"
       d="m 82.804115,99.31822 0.672707,-28.498314 2.935449,1.467724 0.244621,30.08835 -3.852777,-3.05776 z"
       style="fill:#000000;fill-opacity:0.15686275;fill-rule:evenodd;stroke:none"
       inkscape:connector-curvature="0" />
    <path
       id="path2956"
       d="m 83.415667,70.75875 3.118914,-3.608155 -0.183465,5.137035 -2.935449,-1.52888 z"
       style="fill:#000000;fill-opacity:0.15686275;fill-rule:evenodd;stroke:none"
       inkscape:connector-curvature="0" />
    <path
       style="fill:#000000;fill-opacity:0.15686275;fill-rule:evenodd;stroke:none"
       d="m 98.704462,63.90937 3.118918,-3.608155 -0.18347,5.137035 -2.935448,-1.52888 z"
       id="path2958"
       inkscape:connector-curvature="0" />
    <path
       style="fill:#000000;fill-opacity:0.15686275;fill-rule:evenodd;stroke:none"
       d="m 98.520996,85.191373 0.244621,-21.404313 2.935453,1.467724 0.42809,30.332971 c -0.61213,-0.38996 -1.19683,-1.024541 -1.65752,-1.414501 l -10e-4,-7.424756 -1.949214,-1.557125 z"
       id="path2960"
       sodipodi:nodetypes="ccccccc"
       inkscape:connector-curvature="0" />
    <path
       id="path2962"
       d="m 90.570823,81.583218 4.586639,1.467724 -4.403173,5.870897 -0.183466,-7.338621 z"
       style="fill:#000000;fill-opacity:0.15686275;fill-rule:evenodd;stroke:none"
       inkscape:connector-curvature="0" />
    <path
       style="fill:url(#linearGradient2972);fill-opacity:1;fill-rule:evenodd;stroke:none"
       d="M 55.684659,39.258099 69.56163,28.916662 67.749669,53.532817 c 0,0 -0.928078,-0.751301 -0.928078,-0.928078 0,-0.176776 -0.839689,-2.298097 -0.839689,-2.298097 l -7.822369,-2.077126 0.04419,-6.717514 -2.519068,-2.253903 z"
       id="path2964"
       inkscape:connector-curvature="0" />
    <path
       style="fill:url(#linearGradient2976);fill-opacity:1;fill-rule:evenodd;stroke:none"
       d="m 69.694212,29.137633 15.423767,15.202796 -0.972272,2.165514 -8.838835,0.353554 -4.552,5.656854 -3.18198,1.016466 2.12132,-24.395184 z"
       id="path2974"
       inkscape:connector-curvature="0" />
    <path
       id="path2978"
       d="M 55.684659,39.258099 69.56163,28.916662 67.749669,53.532817 c 0,0 -0.928078,-0.751301 -0.928078,-0.928078 0,-0.176776 -0.839689,-2.298097 -0.839689,-2.298097 l -7.822369,-2.077126 0.04419,-6.717514 -2.519068,-2.253903 z"
       style="fill:#000000;fill-opacity:0.15686275;fill-rule:evenodd;stroke:none"
       inkscape:connector-curvature="0" />
    <path
       style="fill:#000000;fill-opacity:0.60730597;fill-rule:evenodd;stroke:none;filter:url(#filter3112)"
       d="m 84.756757,44.367568 -1.989189,0.951351 -7.091892,1.297297 -5.621622,4.583784 -1.816216,1.47027 -2.075676,-2.248648 -7.524324,-3.45946 -0.432433,-5.275676 -1.556756,-2.767567 -1.210811,0.605405 2.594594,1.989189 0.08649,6.572973 7.697297,2.075676 1.470271,3.286487 2.335135,-0.518919 0.951351,-0.432433 4.92973,-5.881081 8.302702,0.08649 0.951352,-2.335135 z"
       id="path3106"
       inkscape:connector-curvature="0" />
  </g>
  <g
     inkscape:label="outline"
     inkscape:groupmode="layer"
     id="layer1"
     transform="translate(-0.2880044,-28.268919)">
    <path
       style="fill:#000000;fill-opacity:1;fill-rule:evenodd;stroke:none"
       d="m 69.694932,28.268919 -14.0625,10.9375 -1,-0.4375 -45.3124996,29.25 53.3124996,40.718751 20.1875,-8.937501 3.875,3.031251 4.9375,-2.40625 -0.09375,-2.062501 8.562498,-4 1.9375,1.75 4.59375,-2.375 -0.1875,-4.375 20,-8.875 -40.624998,-37.34375 -0.90625,0.625 -15.21875,-15.5 z m 0.21875,1.59375 14.78125,14.78125 -0.75,1.375 -8.71875,0.5 -4.53125,5.6875 -2.46875,0.5 1.6875,-22.84375 z m -1,0.1875 -1.40625,22.8125 -0.03125,0 -1.375,-2.75 -7.375,-2.34375 -0.34375,-6.40625 -2.46875,-1.9375 13,-9.375 z m -14.1875,9.125 3.1875,2.21875 -0.125,6.5625 -3.625,5.1875 c -1.539048,0.246176 -3.067028,0.58802 -4.59375,0.90625 l -5.46875,3.28125 -3.90625,-0.5 0,0.15625 3.40625,0.65625 -1.34375,3.84375 1.71875,-3.75 0.1875,0.03125 5.46875,-3.40625 c 1.423665,-0.29308 2.975275,-0.38897 4.40625,-0.65625 l 2.34375,7.5625 c -1.568829,1.452083 -2.130572,3.499666 -2.75,5.46875 0.0086,0.06291 0.02125,0.124967 0.03125,0.1875 l -5.75,6.5 -3.46875,1.34375 3.6875,-1.09375 5.6875,-6.0625 c 0.324336,1.355848 0.903244,2.63811 1.40625,3.9375 0.05351,0.06582 0.08844,0.09866 0.09375,0.125 0.01892,-0.01959 0.04427,-0.03646 0.125,-0.0625 -0.598885,-1.470969 -1.205565,-3.317618 -1.53125,-4.84375 0.584753,-1.863196 2.03282,-3.691281 2.6875,-5.53125 l -2.3125,-7.625 4.1875,-4.9375 7.46875,1.78125 0.84375,3.96875 0.03125,-0.03125 -4.4375,52.531251 -1.84375,-2 -0.625,-5.593751 0.0625,4.937501 -2.71875,-2.96875 -0.84375,-0.34375 -2.03125,-5.625001 1.03125,-3.0625 -1.28125,3.0625 1.90625,5.468751 -6.65625,-2.843751 7.84375,3.593751 4.5625,6.125 -51.375,-39.687501 44.3125,-28.8125 z m 0.6875,53.09375 0.25,-0.625 -0.03125,-0.0625 -0.21875,0.6875 z m 4.5,7.0625 0,-0.1875 -0.03125,-0.09375 0.03125,0.28125 z m -15.46875,-24.5625 -0.4375,0.125 -0.0625,0.0625 0.5,-0.1875 z m 41.375,-30.9375 39.062498,36.34375 -18.46875,8.3125 -0.75,-24 -3.875,-4.8125 -3.218748,4.0625 -0.25,21.21875 -3.34375,-2.5 -4.28125,-1.15625 -0.375,-10.03125 -3.75,-4.8125 -3.375,4.25 -0.71875,28.5 -19.1875,8.656251 2,-2.84375 0.84375,-5.156251 5.5,-2.125 6.9375,1.53125 -4.96875,-1.28125 2.21875,-3.25 -0.09375,-0.03125 -2.40625,3.1875 -1.84375,-0.46875 -5.28125,2 0.8125,-5.0625 2.96875,-5.53125 -0.09375,-0.03125 -3.09375,5.53125 -1.6875,10.468751 -2.28125,2.6875 4.875,-53.437501 3.3125,-1.40625 4.4375,-5.5625 8.1875,-0.0625 3.34375,4.03125 -0.0625,8.03125 1.1875,1.96875 -0.75,-2.125 0,-7.4375 8.34375,4.28125 0.125,-0.1875 -8.4375,-4.46875 -0.03125,0.03125 0,-0.28125 -2.90625,-4.1875 1.375,-2.84375 z m 2.28125,17.21875 0.09375,0.28125 0.03125,-0.0625 -0.125,-0.21875 z m 13.874998,-0.4375 3.03347,3.910041 -3.31472,0.964959 0.28125,-4.875 z m -0.53125,0.40625 0.15625,4.46875 -2.656248,-1.5 2.499998,-2.96875 z m -2.490845,3.091529 2.787265,1.510723 0.23927,29.639246 -1.28569,-1.147748 -0.0937,-7.46875 -1.812498,-1.34375 0.165403,-21.189721 z m 6.268305,0.428347 0.91004,28.730124 -3.90625,2 -0.3125,-29.774318 3.30871,-0.955806 z m -18.558708,2.886374 3.09375,4 -3.25,0.9375 3.375,-0.75 1.25,28.3125 -4.327665,1.976331 -0.297335,-29.538831 -0.0625,-0.03125 0.21875,-4.90625 z m -0.3125,0.3125 -0.03125,4.53125 -2.75,-1.46875 2.78125,-3.0625 z m -2.75,3.25 2.809359,1.432138 0.117418,29.546413 -3.489277,-2.572301 0.5625,-28.40625 z m 7.125,10.90625 3.71875,1.28125 -3.40625,5.3125 -0.3125,-6.59375 z m 4.4375,1.230393 5.093748,3.738357 -0.15625,6.6875 -1.187498,0.53125 -0.03125,-6.09375 -3.75,-2 -2.9375,4.21875 0.03125,6.96875 -0.8125,0.46875 -0.34375,-8.71875 4.09375,-5.800857 z m 0.02903,3.127221 3.502221,1.954886 0.03347,6.005362 -6.254442,2.864276 -0.03883,-6.858915 2.757582,-3.965609 z"
       id="path2317"
       sodipodi:nodetypes="ccccccccccccccccccccccccccccccccccccccccccccccccccccccscccccccccccccccccccccccccccccccccccccccccccccccccccccccccccccccccccccccccccccccccccccccccccccccccccccccccccccccccccccccccccccccccccccccccccccccc"
       inkscape:connector-curvature="0" />
  </g>
</svg>
