<?xml version="1.0" encoding="UTF-8" standalone="no"?>
<!-- Created with Inkscape (http://www.inkscape.org/) -->

<svg
   xmlns:dc="http://purl.org/dc/elements/1.1/"
   xmlns:cc="http://creativecommons.org/ns#"
   xmlns:rdf="http://www.w3.org/1999/02/22-rdf-syntax-ns#"
   xmlns:svg="http://www.w3.org/2000/svg"
   xmlns="http://www.w3.org/2000/svg"
   xmlns:xlink="http://www.w3.org/1999/xlink"
   xmlns:sodipodi="http://sodipodi.sourceforge.net/DTD/sodipodi-0.dtd"
   xmlns:inkscape="http://www.inkscape.org/namespaces/inkscape"
   width="375.38971"
   height="370.99933"
   id="svg5016"
   version="1.1"
   inkscape:version="0.48.0 r9654"
   sodipodi:docname="Neues Dokument 2">
  <defs
     id="defs3">
    <linearGradient
       inkscape:collect="always"
       xlink:href="#linearGradient77259"
       id="linearGradient11267"
       gradientUnits="userSpaceOnUse"
       x1="232.9691"
       y1="365.45972"
       x2="239.72183"
       y2="412.72882"
       gradientTransform="matrix(0.92634441,0,0,0.92634441,160.47675,-10.789147)" />
    <linearGradient
       inkscape:collect="always"
       id="linearGradient77259">
      <stop
         style="stop-color:#4d4d4d;stop-opacity:1;"
         offset="0"
         id="stop77261" />
      <stop
         style="stop-color:#1a1a1a;stop-opacity:1"
         offset="1"
         id="stop77263" />
    </linearGradient>
    <linearGradient
       inkscape:collect="always"
       xlink:href="#linearGradient77265"
       id="linearGradient11264"
       gradientUnits="userSpaceOnUse"
       x1="482.06973"
       y1="369.21124"
       x2="481.69458"
       y2="395.09671"
       gradientTransform="matrix(0.92634441,0,0,0.92634441,160.47675,-10.789147)" />
    <linearGradient
       inkscape:collect="always"
       id="linearGradient77265">
      <stop
         style="stop-color:#4d4d4d;stop-opacity:1;"
         offset="0"
         id="stop77267" />
      <stop
         style="stop-color:#1a1a1a;stop-opacity:1"
         offset="1"
         id="stop77269" />
    </linearGradient>
  </defs>
  <sodipodi:namedview
     inkscape:document-units="mm"
     id="base"
     pagecolor="#ffffff"
     bordercolor="#666666"
     borderopacity="1.0"
     inkscape:pageopacity="0.0"
     inkscape:pageshadow="2"
     inkscape:zoom="1.4423077"
     inkscape:cx="265.71429"
     inkscape:cy="140"
     inkscape:current-layer="layer1"
     showgrid="false"
     fit-margin-top="0"
     fit-margin-left="0"
     fit-margin-right="0"
     fit-margin-bottom="0"
     inkscape:window-width="1680"
     inkscape:window-height="973"
     inkscape:window-x="0"
     inkscape:window-y="24"
     inkscape:window-maximized="1" />
  <metadata
     id="metadata4">
    <rdf:RDF>
      <cc:Work
         rdf:about="">
        <dc:format>image/svg+xml</dc:format>
        <dc:type
           rdf:resource="http://purl.org/dc/dcmitype/StillImage" />
        <dc:title></dc:title>
      </cc:Work>
    </rdf:RDF>
  </metadata>
  <g
     inkscape:label="Layer 1"
     inkscape:groupmode="layer"
     id="layer1"
     transform="translate(-26.590853,-32.576799)">
    <g
       transform="translate(-299.14901,-49.842217)"
       style="display:inline;enable-background:new"
       id="g5022">
      <path
         sodipodi:nodetypes="cccc"
         inkscape:connector-curvature="0"
         id="path77081"
         d="m 673.19364,316.12174 c 2.23159,1.75488 2.45101,6.78956 2.02834,8.95753 l -8.3387,-3.98111 z"
         style="color:#000000;fill:#333333;fill-opacity:1;fill-rule:nonzero;stroke:none;stroke-width:1px;marker:none;visibility:visible;display:inline;overflow:visible;enable-background:accumulate" />
      <g
         transform="matrix(0.92634441,0,0,0.92634441,160.47675,-10.789147)"
         id="g27139">
        <path
           style="color:#000000;fill:#5e714a;fill-opacity:1;fill-rule:nonzero;stroke:none;stroke-width:1px;marker:none;visibility:visible;display:inline;overflow:visible;enable-background:accumulate"
           d="m 296.97144,142.54589 -20.39521,-24.69391 -21.59385,-16.97707 c -7.54806,-4.835828 4.23215,60.19141 6.34821,90.28712 l 21.0901,-11.57527 z"
           id="path3649"
           inkscape:connector-curvature="0"
           sodipodi:nodetypes="cccccc" />
        <path
           style="color:#000000;fill:#8ea179;fill-opacity:1;fill-rule:nonzero;stroke:none;stroke-width:1px;marker:none;visibility:visible;display:inline;overflow:visible;enable-background:accumulate"
           d="m 453.86079,282.31099 42.4837,11.98523 22.83509,58.42801 c 0,0 58.77162,26.4668 62.86316,32.21031 7.95484,11.16664 -255.80006,133.42055 -266.86227,113.11063 -79.77309,-21.37443 -103.26377,-77.44831 -136.77694,-127.3431 15.3235,-20.36336 37.8455,-18.93846 58.34683,-23.62967 l 74.82687,-30.30387 z"
           id="path4665"
           inkscape:connector-curvature="0"
           sodipodi:nodetypes="cccsccccc" />
        <path
           style="color:#000000;fill:#9eb08e;fill-opacity:1;fill-rule:nonzero;stroke:none;stroke-width:1px;marker:none;visibility:visible;display:inline;overflow:visible;enable-background:accumulate"
           d="m 275.28812,177.79523 c -3.99136,1.94705 -20.79745,9.45258 -24.38982,12.62011 -4.34972,6.87305 -3.40846,12.25265 -4.00255,12.86012 0.47877,5.33388 10.50846,25.28691 13.73723,29.49283 l -29.68794,25.34154 c -4.17502,7.06105 -8.9349,13.87113 -4.04683,24.82128 l 13.70137,44.38658 c 8.41355,19.78584 23.72361,31.85157 27.49375,44.22378 2.00436,6.57756 5.39812,48.70911 10.23776,51.29759 26.58241,14.21764 72.50517,12.81211 79.30815,10.57446 8.85155,-2.91149 23.37898,-39.37322 26.63111,-38.20953 l 64.34879,-54.02969 10.17126,-56.99029 c 7.2095,4.50295 13.15183,10.50096 16.74132,12.78922 1.90069,1.21167 18.06838,-7.55764 31.07982,-10.16943 0.93288,-46.9249 0.38279,-43.03604 2.83276,-53.11556 L 537.21611,124.2512 c -19.55141,4.90102 -37.02045,15.03924 -53.59066,27.43802 l -13.70688,15.75288 -38.98579,-40.48789 -4.75581,-2.68391 c -32.0506,-2.12798 -68.2408,1.0658 -100.28119,-1.41069 -8.39814,1.22865 -14.5063,8.92366 -37.43284,21.84121 -2.84035,1.60034 -8.88364,9.05783 -9.62719,10.984 -2.88035,7.46167 -0.61976,16.30657 -3.54763,22.11041 z"
           id="path32682"
           inkscape:connector-curvature="0"
           sodipodi:nodetypes="cccccccssscccsccccccccssc" />
        <path
           style="color:#000000;fill:#9eb08e;fill-opacity:1;fill-rule:nonzero;stroke:none;stroke-width:1px;marker:none;visibility:visible;display:inline;overflow:visible;enable-background:accumulate"
           d="m 328.23466,220.75491 12.8763,0.41477 -12.80512,29.03367 1.7374,20.32357 -3.45498,6.2215 -3.94387,4.56243 -21.95695,-8.7101 -0.67837,-24.47123 23.34103,-25.30077 z"
           id="path32688"
           inkscape:connector-curvature="0" />
        <path
           style="fill:#5d7748;fill-opacity:1;stroke:none"
           d="m 338.65862,231.14528 9.60666,3.57655 -8.1155,7.0244 -2.72132,22.94638 8.76399,7.49269 c 0,0 6.45389,8.19514 3.33273,11.70734 -3.12117,3.5122 -23.27226,11.49843 -23.27226,11.49843 0,0 2.61949,-0.66227 2.32365,-7.28494 -0.29584,-6.62267 -1.70912,-8.60947 -1.70912,-8.60947 l -3.37051,-1.32453 c 0,0 2.53074,-2.64907 3.52985,-9.93401 0.99912,-7.28493 -0.79876,-17.8812 -0.79876,-17.8812 z"
           id="path32655"
           inkscape:connector-curvature="0"
           sodipodi:nodetypes="cccccscsccscc" />
        <path
           style="fill:#9eb08e;fill-opacity:1;stroke:none"
           d="m 299.58394,266.57152 c 0,0 2.66501,6.29067 12.77668,8.79067 10.11168,2.5 12.11168,2.5 12.11168,2.5 0,0 4.58934,2 4.81269,7 0.22335,5 -0.1873,7 -0.1873,7 l 0.5,0 -0.91066,2 -25.16122,-1.66725 -10.34515,-9.88584 1.15763,-7.44691 2.32132,-4 z"
           id="path32659"
           inkscape:connector-curvature="0"
           sodipodi:nodetypes="cscscccccccc" />
        <path
           style="color:#000000;fill:#8ea179;fill-opacity:1;fill-rule:nonzero;stroke:none;stroke-width:1px;marker:none;visibility:visible;display:inline;overflow:visible;enable-background:accumulate"
           d="m 292.04287,277.52439 -47.68552,8.30607 -20.04477,-14.91687 11.66522,39.83509 c 3.1873,9.37099 6.50653,21.69557 9.36618,23.73163 l 14.44076,17.79872 11.78715,29.2439 c 0,0 -1.58543,-30.31096 6.3788,-31.80224 14.4582,-2.70725 25.77681,-2.20511 37.99138,-4.17024 2.83172,-0.45557 -32.62774,-2.47562 -38.60419,-8.41402 -16.12156,-16.01894 -16.35213,-37.66028 -16.35213,-37.66028 L 292.3079,283.4573 z"
           id="path4541"
           inkscape:connector-curvature="0"
           sodipodi:nodetypes="cccccccsssccc" />
        <path
           style="color:#000000;fill:#8ea179;fill-opacity:1;fill-rule:nonzero;stroke:none;stroke-width:1px;marker:none;visibility:visible;display:inline;overflow:visible;enable-background:accumulate"
           d="m 292.12403,283.17747 c 0,0 7.15397,10.69079 17.72428,19.28291 5.43505,4.4179 23.24913,4.91211 31.73604,0.24631 11.21346,-7.63672 12.59742,-15.64689 10.17406,-17.17568 -3.70858,-2.33957 -16.75246,3.98673 -29.51848,8.58515 -15.06624,0.2717 -18.68734,-1.96274 -30.1159,-10.93869 z"
           id="path4543"
           inkscape:connector-curvature="0"
           sodipodi:nodetypes="cscscc" />
        <path
           style="color:#000000;fill:#5f6f4e;fill-opacity:1;fill-rule:nonzero;stroke:none;stroke-width:1px;marker:none;visibility:visible;display:inline;overflow:visible;enable-background:accumulate"
           d="m 293.2534,281.38078 -26.80971,12.79805 c -4.20006,4.11391 -6.4619,6.23766 -5.85246,9.747 l 3.33343,4.89465 3.79676,-1.3349 3.73818,-12.60743 21.76473,-10.82756 z"
           id="path4537"
           inkscape:connector-curvature="0"
           sodipodi:nodetypes="cccccccc" />
        <path
           style="fill:#243b0e;fill-opacity:1;stroke:none"
           d="m 345.20428,271.86219 3.24568,5.5 c 1.46514,3.39994 2.14013,6.16505 -0.20964,6.5 0,0 -1.52764,-1.50895 -5.74232,-1.66402 -8.08556,-0.29749 -11.34316,5.25306 -13.64956,8.4966 -1.72536,2.4264 -19.52802,2.69561 -24.11736,0.69561 -4.58934,-2 -12.06894,-8.21007 -11.24762,-12.21007 0.82132,-4 5.5198,-11.81812 5.5198,-11.81812 -3.78464,4.17351 -7.33074,10.56246 -5.98974,16.21551 8.66007,13.28392 28.68135,14.08868 39.00735,10.61012 2.4354,-0.88388 10.17824,-2.1422 13.33653,-2.67253 3.1583,-0.53033 6.31659,-1.06066 6.37491,-3.71231 0.0583,-2.65165 0.24605,-6.36396 -1.87222,-10.25305 -2.11827,-3.88909 -4.65581,-5.68774 -4.65581,-5.68774 z"
           id="path32657"
           inkscape:connector-curvature="0"
           sodipodi:nodetypes="cccsssscccsssc" />
        <path
           style="color:#000000;fill:#8ea179;fill-opacity:1;fill-rule:nonzero;stroke:none;stroke-width:1px;marker:none;visibility:visible;display:inline;overflow:visible;enable-background:accumulate"
           d="m 261.95747,231.95361 1.30119,6.08275 c 3.44426,4.49902 6.98549,6.6617 11.84587,9.67839 10.19414,1.95383 16.34753,-1.0054 24.39713,-1.65907 l -18.38658,6.2215 c -5.9969,0.63321 -10.34793,-0.87026 -14.79676,-1.8575 -5.19138,-1.52518 -8.93274,-2.71155 -12.26769,-4.8649 -0.79789,-0.85418 -6.43987,1.27812 -10.0536,2.15997 z"
           id="path32686"
           inkscape:connector-curvature="0"
           sodipodi:nodetypes="ccccccccc" />
        <path
           style="color:#000000;fill:#3c4e2e;fill-opacity:1;fill-rule:nonzero;stroke:none;stroke-width:1px;marker:none;visibility:visible;display:inline;overflow:visible;enable-background:accumulate"
           d="m 251.05673,218.38095 c 4.93823,6.3125 4.72344,8.18155 9.66167,14.49405 -11.9084,7.63317 -0.6001,2.16693 -24.09944,19.34794 -0.17353,0.22905 -13.13489,6.87259 -12.73586,19.90447 5.15553,20.77679 14.09774,56.23444 21.85305,64.45468 2.85204,4.37307 6.29723,6.14926 2.93929,2.41665 -10.34748,-11.502 -17.16251,-49.03436 -21.18026,-60.04573 -4.44037,-12.16961 2.6087,-18.7102 7.07877,-22.36747 10.45233,-7.61379 21.93085,-12.12675 28.354,-12.74758 1.94037,-0.18755 2.62451,-5.03218 2.97787,-5.00808 0.72484,-1.56144 11.14004,-3.06029 13.44984,-3.4658 9.45992,-1.03171 24.56661,-3.47681 30.07257,2.16445 2.77917,-2.02913 4.44384,-5.92563 9.19943,-10.61149 0.69128,-0.68115 0.75399,-1.74015 -1.35963,-1.33578 -0.77654,1.08353 -5.12012,3.40676 -6.5507,3.36486 -14.88194,1.47876 -32.75045,-6.49515 -46.03506,-9.34786 -6.02183,-1.88692 -11.77721,-15.89225 -17.79895,-17.77923 z"
           id="path32677"
           inkscape:connector-curvature="0"
           sodipodi:nodetypes="cccccsscscccsccccc" />
        <path
           style="color:#000000;fill:#243b0e;fill-opacity:1;fill-rule:nonzero;stroke:none;stroke-width:1px;marker:none;visibility:visible;display:inline;overflow:visible;enable-background:accumulate"
           d="m 310.43574,236.46875 c -0.5021,0.38482 -1.02566,0.75459 -1.51085,1.15625 -0.51042,0.42255 -0.97744,0.90216 -1.47123,1.34375 -0.57571,0.44069 -1.13012,0.91181 -1.65593,1.40625 l -6.88705,8.125 0.11796,18.03125 c 2.2375,6.16434 7.66055,7.23035 9.10372,7.21875 -5.35026,-3.30685 -7.19191,-6.08912 -7.32805,-7.34375 -0.25214,-2.32323 -0.96453,-12.76551 -0.11067,-16.46875 0.42978,-1.86396 4.73702,-7.61465 9.7421,-13.46875 z"
           id="path32663"
           inkscape:connector-curvature="0" />
        <path
           style="color:#000000;fill:#3c4e2e;fill-opacity:1;fill-rule:nonzero;stroke:none;stroke-width:1px;marker:none;visibility:visible;display:inline;overflow:visible;enable-background:accumulate"
           d="m 460.08764,287.55453 31.47647,67.41693 c 28.56203,3.50712 60.8951,19.81175 92.07717,32.21031 -16.09522,-18.42181 -37.48546,-34.53003 -70.07928,-45.74299 l -20.38112,-50.88795 z"
           id="path4667"
           inkscape:connector-curvature="0"
           sodipodi:nodetypes="cccccc" />
        <path
           style="color:#000000;fill:#72865c;fill-opacity:1;fill-rule:nonzero;stroke:none;stroke-width:1px;marker:none;visibility:visible;display:inline;overflow:visible;enable-background:accumulate"
           d="m 285.61663,423.13747 c 0,0 4.54846,17.97785 14.28646,17.97785 9.738,0 61.72547,6.74169 73.61032,4.49446 11.88484,-2.24723 22.71184,-44.94462 35.89408,-51.68631 13.18222,-6.7417 34.29023,-3.7454 34.29023,-3.7454 l 16.67818,58.42801 c 49.47587,-15.17944 85.2306,-39.34809 120.98469,-62.17338 -28.65956,-12.27633 -54.47406,-29.52913 -89.04741,-31.46124 l -34.707,-72.66047 -8.14477,52.43539 -57.81808,47.19185 -30.95169,44.94463 z"
           id="path4669"
           inkscape:connector-curvature="0"
           sodipodi:nodetypes="csssccccccccc" />
        <path
           style="color:#000000;fill:#8ea179;fill-opacity:1;fill-rule:nonzero;stroke:none;stroke-width:1px;marker:none;visibility:visible;display:inline;overflow:visible;enable-background:accumulate"
           d="m 349.48607,275.15123 49.43867,16.54067 32.89871,-16.42812 c 0.008,-22.01597 -5.58848,-38.16507 -12.98674,-52.42831 l 30.0019,-19.03006 c -8.94713,17.93198 -14.21215,64.1888 20.43947,65.58915 6.77556,0.27382 11.91112,15.56187 23.66211,11.61059 13.72268,-4.61426 10.79037,-32.8151 13.41169,-38.01322 4.01701,6.97136 2.10205,38.14302 -1.39468,43.13463 -4.37159,6.24049 -14.36018,8.34004 -25.8497,7.51942 -8.94925,-0.63918 -9.87539,-4.60098 -20.02659,-9.27497 -22.96032,17.01894 -39.16168,54.41495 -49.8929,65.53486 l -27.24861,14.23898 c 7.3098,-12.65687 13.96441,-25.31374 11.94953,-37.97061 L 380.804,298.88286 352.28327,284.64388 z"
           id="path4539"
           inkscape:connector-curvature="0"
           sodipodi:nodetypes="cccccsscssccccccc" />
        <path
           style="color:#000000;fill:#5e714a;fill-opacity:1;fill-rule:nonzero;stroke:none;stroke-width:1px;marker:none;visibility:visible;display:inline;overflow:visible;enable-background:accumulate"
           d="m 421.69191,124.53759 c 0,0 7.12206,13.68549 -5.69785,28.14564 -7.12042,8.03146 -10.26544,27.85305 -10.26544,27.85305 17.39882,10.8199 24.42033,40.0782 12.28908,43.47776 l 30.79802,-19.47231 21.90092,-36.48521 -38.79713,-41.54737 c -6.9964,-3.89561 -5.40786,-2.07224 -10.2276,-1.97156 z"
           id="path4582"
           inkscape:connector-curvature="0"
           sodipodi:nodetypes="cscccccc" />
        <path
           style="color:#000000;fill:#3c4e2e;fill-opacity:1;fill-rule:nonzero;stroke:none;stroke-width:1px;marker:none;visibility:visible;display:inline;overflow:visible;enable-background:accumulate"
           d="m 338.2785,231.64298 1.49114,12.48244 c -0.79963,-0.1977 4.02689,-4.28547 9.15324,-5.06264 6.4071,-0.97135 11.16309,-4.97285 12.03884,-4.41619 3.64264,2.3154 24.51977,6.28833 28.1866,5.36127 3.66682,-0.92706 36.1401,0.41892 36.1401,0.41892 l 16.13559,-18.87176 -14.76864,7.6254 -5.6388,-6.03552 c -5.56162,5.59606 -8.6208,3.80249 -12.81312,3.91116 -15.25589,0.39543 -28.98618,2.88027 -43.6745,-0.12153 -8.49654,-1.7364 -16.05901,4.23054 -21.53619,2.13631 -1.74769,-0.16956 -3.32068,1.06615 -4.71426,2.57214 z"
           id="path32680"
           inkscape:connector-curvature="0"
           sodipodi:nodetypes="ccsssccccsscc" />
        <path
           style="color:#000000;fill:#8ea179;fill-opacity:1;fill-rule:nonzero;stroke:none;stroke-width:1px;marker:none;visibility:visible;display:inline;overflow:visible;enable-background:accumulate"
           d="m 341.43454,242.34504 c 1.01627,0.66384 1.91076,-1.80005 2.89134,-1.09885 5.83711,4.17411 7.95646,8.04187 16.2013,9.69568 6.05932,-0.98475 32.32795,-5.83059 24.27706,-10.85606 12.3458,0.13881 22.29395,-0.89501 37.28231,0.53621 -7.89572,3.41352 -14.74691,4.8816 -23.33584,12.32028 -12.68727,1.96267 -22.88036,7.90702 -36.33282,7.00264 -9.30943,-5.52072 -15.14318,-10.46956 -20.98335,-17.5999 z"
           id="path32684"
           inkscape:connector-curvature="0"
           sodipodi:nodetypes="cscccccc" />
        <path
           style="color:#000000;fill:#8ea179;fill-opacity:1;fill-rule:nonzero;stroke:none;stroke-width:1px;marker:none;visibility:visible;display:inline;overflow:visible;enable-background:accumulate"
           d="m 466.50718,206.89889 c 0,0 31.46562,-38.08921 30.42765,-27.13572 -1.37775,14.53926 -4.57408,39.55621 -3.77123,45.06322 1.4077,9.65584 1.86734,43.51065 1.86734,43.51065 l 6.09664,-60.23407 17.2236,-59.77784 c -24.05117,11.63527 -38.85739,39.77545 -51.844,58.57376 z"
           id="path32695"
           inkscape:connector-curvature="0"
           sodipodi:nodetypes="csscccc" />
        <path
           style="color:#000000;fill:#546d41;fill-opacity:1;fill-rule:nonzero;stroke:none;stroke-width:1px;marker:none;visibility:visible;display:inline;overflow:visible;enable-background:accumulate"
           d="m 458.8324,226.3661 c 7.9953,-22.53866 18.75461,-45.59771 32.46487,-59.47139 16.47198,-16.66829 17.468,-20.3145 35.05679,-27.92669 l -23.89279,77.13323 c 0,0 -5.12518,27.33836 -6.31466,44.42484 -1.18948,17.08647 -2.23127,15.62192 -2.23127,15.62192 l 5.84332,-65.90498 16.05038,-54.70265 c -11.01219,0.80683 -34.40787,28.76023 -38.38695,49.83376 9.46361,16.13423 -16.07192,60.62447 -18.58969,20.99196 z"
           id="path32693"
           inkscape:connector-curvature="0"
           sodipodi:nodetypes="csccsccccc" />
        <path
           style="color:#000000;fill:#415432;fill-opacity:1;fill-rule:nonzero;stroke:none;stroke-width:1px;marker:none;visibility:visible;display:inline;overflow:visible;enable-background:accumulate"
           d="m 269.48199,398.46834 c 0.0306,-6.04373 -0.51952,-24.18549 -5.44596,-34.03697 -4.39727,-8.79332 -11.49319,-16.76036 -14.84722,-21.46994 -5.08095,-7.13446 -5.2241,-9.25592 -4.82535,-8.49111 0.20398,0.39123 14.74281,11.12897 19.2941,20.71903 9.21717,19.42154 7.57296,25.56696 8.32772,32.25429 0.54339,4.81447 2.33967,9.75365 4.81394,10.69524 13.77178,5.24089 64.5618,7.06985 70.37062,5.26017 5.75279,-1.79222 33.69538,-45.12807 43.59419,-46.28573 20.45674,-6.08425 54.37851,-66.03913 52.82383,-76.62338 -3.27707,-14.34759 -10.82341,-25.62814 -15.94324,-39.50724 10.19774,19.08122 21.8561,37.0239 30.66273,42.22524 4.56027,2.23032 1.06761,50.45577 -8.20998,58.88453 -5.33931,4.85081 -39.22827,30.53842 -39.22827,30.53842 0,0 -6.85577,4.18849 -15.22852,13.54329 -5.78761,6.46644 -29.56749,43.44192 -34.39183,46.65647 -4.82435,3.21455 -48.58346,2.55058 -66.64458,-2.7096 -17.74152,-4.18398 -23.99266,-5.0377 -25.12218,-31.65271 z"
           id="path4419"
           inkscape:connector-curvature="0"
           sodipodi:nodetypes="csssssssccccscsscc" />
        <path
           style="color:#000000;fill:#5c6a4a;fill-opacity:1;fill-rule:nonzero;stroke:none;stroke-width:1px;marker:none;visibility:visible;display:inline;overflow:visible;enable-background:accumulate"
           d="m 439.38499,223.22379 38.88406,-73.7845 c 24.6568,-15.48666 59.85181,-32.86541 61.72264,-26.7637 L 508.63227,240.5298 c -0.22594,15.96431 1.95502,29.40917 -0.67784,47.89294 -9.48015,3.03784 -12.86763,5.6542 -32.44821,9.39078 -11.27882,-8.86148 -25.52078,-15.49559 -31.27497,-28.5099 8.76987,8.94217 18.68476,16.68579 29.63563,23.34497 6.53841,1.31467 18.80034,-2.58246 31.16545,-6.57354 3.53326,-18.40455 0.45189,-31.92863 0.67783,-47.89295 l 30.69301,-111.7502 c -1.26788,-3.91732 -31.32108,9.84126 -52.86432,25.35509 z"
           id="path32691"
           inkscape:connector-curvature="0"
           sodipodi:nodetypes="ccccccccccccc" />
        <path
           style="color:#000000;fill:#5f6f4e;fill-opacity:1;fill-rule:nonzero;stroke:none;stroke-width:1px;marker:none;visibility:visible;display:inline;overflow:visible;enable-background:accumulate"
           d="m 351.20398,280.96042 c 0,0 29.8501,16.25674 31.35688,17.97287 1.50677,1.71613 9.72462,25.7296 9.72462,25.7296 l -13.18866,3.19883 c 0,0 -6.24754,-28.00172 -11.26323,-31.43399 -5.0157,-3.43226 -15.96961,-10.47603 -15.96961,-10.47603 z"
           id="path4535"
           inkscape:connector-curvature="0"
           sodipodi:nodetypes="csccscc" />
        <path
           style="color:#000000;fill:#8ea179;fill-opacity:1;fill-rule:nonzero;stroke:none;stroke-width:1px;marker:none;visibility:visible;display:inline;overflow:visible;enable-background:accumulate"
           d="m 285.44783,311.88566 c 0,0 9.67563,3.887 16.27196,2.88108 6.59634,-1.00592 13.81217,-0.79305 13.81217,-0.79305 0,0 31.35946,6.92774 38.53895,4.7385 7.17947,-2.18922 26.25972,5.16171 28.67409,5.8332 6.83208,-0.79583 5.50512,-11.56843 4.83356,-15.32288 0,0 7.01048,13.13397 5.26103,16.68391 -1.74944,3.54994 -4.95853,2.8071 -4.95853,2.8071 0,0 -19.33307,-6.57293 -25.9385,-6.16754 -6.60542,0.40538 -15.58885,2.54139 -18.61363,1.25164 -3.02478,-1.28976 -79.25432,-6.33596 -79.25432,-6.33596 -1.14031,-2.32324 -3.4632,-8.44743 -3.42152,-14.0143 l 2.7315,4.56006 z"
           id="path4474"
           inkscape:connector-curvature="0"
           sodipodi:nodetypes="cscsccscsscccc" />
        <path
           style="color:#000000;fill:#8ea179;fill-opacity:1;fill-rule:nonzero;stroke:none;stroke-width:1px;marker:none;visibility:visible;display:inline;overflow:visible;enable-background:accumulate"
           d="m 263.22556,314.55923 c 0,0 -0.32241,13.37423 7.97096,18.18024 8.29336,4.80602 14.29393,0.21263 14.29393,0.21263 0,0 22.89176,-9.02478 37.27529,-5.46606 14.38349,3.55871 33.0122,13.20112 33.0122,13.20112 0,0 4.81838,2.07854 14.90293,-2.45411 10.08456,-4.53264 18.78988,-9.75475 18.78988,-9.75475 0,0 -17.53603,5.7597 -28.51621,2.25161 -10.98018,-3.50809 -31.6867,-14.51932 -43.90283,-13.36314 -12.21612,1.15617 -34.37311,10.79197 -41.91415,8.67295 -7.54103,-2.11904 -11.912,-11.48049 -11.912,-11.48049 z"
           id="path4421"
           inkscape:connector-curvature="0"
           sodipodi:nodetypes="cscscscsssc" />
        <path
           style="color:#000000;fill:#5f6f4e;fill-opacity:1;fill-rule:nonzero;stroke:none;stroke-width:1px;marker:none;visibility:visible;display:inline;overflow:visible;enable-background:accumulate"
           d="m 278.38053,335.18115 c 32.36686,-14.1381 42.14017,-12.59791 54.38165,-8.10776 15.4893,5.80692 24.53949,14.20767 24.53949,14.20767 0,0 -28.31084,-6.61995 -45.76012,-7.69512 -11.00644,-0.67819 -33.16102,1.59521 -33.16102,1.59521 z"
           id="path4423"
           inkscape:connector-curvature="0"
           sodipodi:nodetypes="cccsc" />
        <path
           sodipodi:nodetypes="cssssscc"
           inkscape:connector-curvature="0"
           id="path4437"
           d="m 389.24462,326.81766 c 0,0 -8.86168,-3.07555 -12.33057,-2.66079 -3.46886,0.41476 -11.19612,-2.58295 -17.0422,-2.13447 -5.8461,0.44847 -7.27859,2.47939 -14.42409,1.66682 -7.14548,-0.81257 -16.90151,-4.28981 -22.71168,-4.66023 -1.32314,-0.0844 5.58677,1.02574 7.33986,1.68234 5.01504,1.87835 19.98827,6.29154 22.20137,7.08502 13.018,5.98473 22.11154,4.21367 36.96731,-0.97869 z"
           style="color:#000000;fill:#243b0e;fill-opacity:1;fill-rule:nonzero;stroke:none;stroke-width:1px;marker:none;visibility:visible;display:inline;overflow:visible;enable-background:accumulate" />
        <g
           id="g4689"
           style="fill:#5f6f4e;fill-opacity:1"
           transform="matrix(1,0,0.04467044,1,-13.439927,0)">
          <path
             sodipodi:nodetypes="zccssz"
             inkscape:connector-curvature="0"
             id="path4675"
             d="m 278.27487,297.98256 c -0.96027,1.25815 0.24878,4.04572 0.24878,4.04572 2.35743,8.95129 5.82897,14.44178 8.84852,21.3363 0,0 -2.72668,-11.40167 -3.44624,-15.32874 -0.55797,-3.04518 0.44825,-10.92865 0.39755,-13.08219 -0.029,-1.23274 -5.08833,1.77076 -6.04861,3.02891 z"
             style="color:#000000;fill:#5f6f4e;fill-opacity:1;fill-rule:nonzero;stroke:none;stroke-width:1px;marker:none;visibility:visible;display:inline;overflow:visible;enable-background:accumulate" />
        </g>
        <g
           id="g4692"
           transform="matrix(-1,0,0.04209932,0.94244245,639.70657,22.860118)"
           style="fill:#5f6f4e;fill-opacity:1">
          <path
             style="color:#000000;fill:#5f6f4e;fill-opacity:1;fill-rule:nonzero;stroke:none;stroke-width:1px;marker:none;visibility:visible;display:inline;overflow:visible;enable-background:accumulate"
             d="m 281.71359,298.25189 c -0.89408,1.31192 0.45665,4.02526 0.45665,4.02526 2.81466,8.80131 6.56363,14.08243 9.93355,20.79167 0,0 -3.30949,-11.22664 -4.23011,-15.10615 -0.71388,-3.0083 -0.11495,-10.93831 -0.27642,-13.0857 -0.0924,-1.22922 -4.98959,2.063 -5.88367,3.37492 z"
             id="path4694"
             inkscape:connector-curvature="0"
             sodipodi:nodetypes="zccssz" />
        </g>
        <g
           id="g3686"
           transform="matrix(1.000883,0.02952736,0.0151236,0.99956397,-2.1540998,-14.713683)">
          <path
             sodipodi:nodetypes="cssssssccc"
             inkscape:connector-curvature="0"
             id="path4429"
             d="m 260.81033,323.68127 c 0,0 3.47362,3.26532 6.94726,3.57631 3.47363,0.31098 11.15218,-2.33237 17.0025,-2.02139 5.85033,0.31098 7.31291,2.02138 14.443,1.24393 5.07677,-0.55356 10.26213,-2.28857 13.60862,-2.44203 3.7301,-0.17103 10.02348,0.94991 10.54996,0.99468 0.48877,0.0416 -7.28308,-1.06543 -10.54907,-0.3078 -5.87696,1.36331 -18.23083,4.64793 -20.37396,5.33145 -7.09905,2.50854 -20.09176,5.27948 -26.50928,1.08843 -2.01105,-1.39942 -5.11903,-7.46358 -5.11903,-7.46358 z"
             style="color:#000000;fill:#243b0e;fill-opacity:1;fill-rule:nonzero;stroke:none;stroke-width:1px;marker:none;visibility:visible;display:inline;overflow:visible;enable-background:accumulate" />
          <path
             sodipodi:nodetypes="ccccc"
             inkscape:connector-curvature="0"
             id="path4425"
             d="m 265.21941,301.67959 c 8.36609,-7.77728 10.70081,-6.78444 11.86817,-5.95707 -2.37766,16.29157 -0.72696,18.78229 8.56066,33.42575 0,0 -9.97752,4.28036 -15.56482,1.98569 -10.10604,-2.0738 -10.47721,-23.81251 -4.86401,-29.45437 z"
             style="color:#000000;fill:#9e9393;fill-opacity:1;fill-rule:nonzero;stroke:none;stroke-width:1px;marker:none;visibility:visible;display:inline;overflow:visible;enable-background:accumulate" />
          <path
             sodipodi:nodetypes="cccsc"
             inkscape:connector-curvature="0"
             id="path4433"
             d="m 274.70485,296.00386 c -12.72861,6.77643 -13.66091,18.27485 -7.86138,32.34216 3.10798,2.63477 6.21598,3.68585 9.50679,2.33235 -0.36566,-0.77745 -8.25965,-14.12769 -6.97989,-22.05773 1.27976,-7.93005 5.33448,-12.61678 5.33448,-12.61678 z"
             style="color:#000000;fill:#dfe4d9;fill-opacity:1;fill-rule:nonzero;stroke:none;stroke-width:1px;marker:none;visibility:visible;display:inline;overflow:visible;enable-background:accumulate" />
          <path
             sodipodi:nodetypes="csscccsccccc"
             inkscape:connector-curvature="0"
             id="path4435"
             d="m 276.16743,295.53738 c 0.54847,1.55492 -1.46258,4.97572 -1.09693,9.95144 0.36564,4.97571 2.19386,10.57339 5.11902,16.63755 2.92517,6.06415 4.21201,7.46959 4.21201,7.46959 0.85066,-0.29963 1.72354,-0.29421 1.76963,-1.10706 -4.69883,-5.1087 -12.23449,-19.15025 -9.44818,-28.41106 0.73129,-2.95433 1.29457,-5.7904 -0.89931,-5.63492 -2.19387,0.1555 -6.89509,2.16975 -11.32019,8.04174 -3.13939,6.0479 -5.92635,13.59946 0.51176,25.55037 -5.35987,-11.27121 -4.33763,-26.83458 9.0317,-32.49163 2.3767,-0.77744 2.12049,-0.006 2.12049,-0.006 z"
             style="color:#000000;fill:#504949;fill-opacity:1;fill-rule:nonzero;stroke:none;stroke-width:1px;marker:none;visibility:visible;display:inline;overflow:visible;enable-background:accumulate" />
          <path
             style="color:#000000;fill:#9e9393;fill-opacity:1;fill-rule:nonzero;stroke:none;stroke-width:1px;marker:none;visibility:visible;display:inline;overflow:visible;enable-background:accumulate"
             d="m 376.31611,303.99775 c -8.36609,-7.77729 -10.70081,-6.78444 -11.86817,-5.95707 2.37766,16.29157 0.72696,18.78229 -8.56066,33.42574 0,0 9.97752,4.28036 15.56482,1.98569 10.10604,-2.0738 10.47721,-23.8125 4.86401,-29.45436 z"
             id="path4439"
             inkscape:connector-curvature="0"
             sodipodi:nodetypes="ccccc" />
          <path
             style="color:#000000;fill:#dfe4d9;fill-opacity:1;fill-rule:nonzero;stroke:none;stroke-width:1px;marker:none;visibility:visible;display:inline;overflow:visible;enable-background:accumulate"
             d="m 366.14647,298.34222 c 5.66026,2.70178 7.98634,20.90777 2.18681,34.97508 -3.57106,0.86796 -7.01337,-0.12548 -10.30418,-1.47898 2.46618,-3.85263 7.76149,-13.20162 9.02969,-21.12879 1.08337,-6.77184 -0.91232,-12.36731 -0.91232,-12.36731 z"
             id="path4441"
             inkscape:connector-curvature="0"
             sodipodi:nodetypes="cccsc" />
          <path
             style="color:#000000;fill:#504949;fill-opacity:1;fill-rule:nonzero;stroke:none;stroke-width:1px;marker:none;visibility:visible;display:inline;overflow:visible;enable-background:accumulate"
             d="m 365.36809,297.85554 c -0.54847,1.55491 1.46259,4.97572 1.09693,9.95144 -0.36564,4.97571 -2.19386,10.57338 -5.11902,16.63754 -2.92517,6.06415 -4.21201,7.46959 -4.21201,7.46959 -0.85066,-0.29962 -1.72354,-0.2942 -1.76963,-1.10705 4.69883,-5.10871 12.23449,-19.15026 9.44818,-28.41106 -0.73129,-2.95433 -1.29456,-5.7904 0.89931,-5.63492 2.19387,0.1555 6.97826,2.32447 11.40336,8.19647 3.1394,6.04789 5.84318,13.44472 -0.59493,25.39564 5.35987,-11.27121 4.33763,-26.83458 -9.0317,-32.49163 -2.3767,-0.77744 -2.12049,-0.006 -2.12049,-0.006 z"
             id="path4443"
             inkscape:connector-curvature="0"
             sodipodi:nodetypes="csscccsccccc" />
        </g>
        <path
           style="color:#000000;fill:#8ea179;fill-opacity:1;fill-rule:nonzero;stroke:none;stroke-width:1px;marker:none;visibility:visible;display:inline;overflow:visible;enable-background:accumulate"
           d="m 316.09555,304.81577 -8.04092,8.65532 14.40049,1.13886 c 0,0 -4.35819,-0.68332 -3.38212,-4.32766 0.97606,-3.64435 1.13261,-5.23875 1.13261,-5.23875 z"
           id="path4545"
           inkscape:connector-curvature="0" />
        <path
           style="color:#000000;fill:#8ea179;fill-opacity:1;fill-rule:nonzero;stroke:none;stroke-width:1px;marker:none;visibility:visible;display:inline;overflow:visible;enable-background:accumulate"
           d="m 256.50197,104.6921 c 0.73321,-0.7675 12.47567,8.52213 18.29792,13.8314 1.08513,0.98952 17.24958,20.81845 17.24958,20.81845 0.0971,0.005 -6.21587,4.10752 -12.5669,12.48341 -5.68718,7.50038 -21.75206,-46.75069 -22.9806,-47.13326 z"
           id="path4551"
           inkscape:connector-curvature="0"
           sodipodi:nodetypes="cscsc" />
        <g
           id="g4696"
           transform="matrix(1.2418862,-0.07013385,0.1257494,1.2450191,-119.14231,-33.646095)">
          <path
             style="color:#000000;fill:#ffffff;fill-opacity:1;fill-rule:nonzero;stroke:none;stroke-width:1px;marker:none;visibility:visible;display:inline;overflow:visible;enable-background:accumulate"
             d="m 366.59546,236.7061 c -9.61335,-0.1869 -13.16843,2.0186 -17.77596,2.89682 l 1.14723,2.28776 c 5.6221,2.77928 12.37654,4.12016 18.47216,4.9543 5.11231,-3.54128 12.1987,-3.98956 16.71493,-6.44566 -6.96233,-1.42839 -12.17594,-2.58323 -18.55836,-3.69322 z"
             id="path4562"
             inkscape:connector-curvature="0"
             sodipodi:nodetypes="cccccc" />
          <path
             style="color:#000000;fill:#182909;fill-opacity:1;fill-rule:nonzero;stroke:none;stroke-width:1px;marker:none;visibility:visible;display:inline;overflow:visible;enable-background:accumulate"
             d="m 374.60745,241.36755 c 0,1.5364 -0.76362,2.72189 -1.86123,3.75468 -2.38313,0.36567 -4.75881,1.48056 -6.89995,1.62464 -2.41998,-0.83018 -4.13766,-2.92559 -4.13766,-5.37932 0,-3.1814 1.12382,-4.01242 6.44942,-3.94172 5.28253,0.0701 6.44942,0.76032 6.44942,3.94172 z"
             id="path4566"
             inkscape:connector-curvature="0"
             sodipodi:nodetypes="sccsss" />
          <path
             transform="matrix(1.0407646,0,0,1.3144628,-14.704305,-76.078644)"
             d="m 372.06596,241.50195 c 0,1.68134 -1.98923,3.04433 -4.44307,3.04433 -2.45384,0 -4.44307,-1.36299 -4.44307,-3.04433 0,-1.68133 1.98923,-3.04432 4.44307,-3.04432 2.45384,0 4.44307,1.36299 4.44307,3.04432 z"
             sodipodi:ry="3.0443256"
             sodipodi:rx="4.4430699"
             sodipodi:cy="241.50195"
             sodipodi:cx="367.62289"
             id="path4568"
             style="color:#000000;fill:#224700;fill-opacity:1;fill-rule:nonzero;stroke:none;stroke-width:0.98931718px;marker:none;visibility:visible;display:inline;overflow:visible;enable-background:accumulate"
             sodipodi:type="arc" />
          <path
             style="color:#000000;fill:#182909;fill-opacity:1;fill-rule:nonzero;stroke:none;stroke-width:1px;marker:none;visibility:visible;display:inline;overflow:visible;enable-background:accumulate"
             d="m 384.13312,239.26956 c -8.93608,-2.2358 -10.0113,-2.40397 -17.77589,-4.34434 -3.38232,-0.73313 -2.30899,-1.04144 -6.28161,0.94544 -5.40212,2.70179 -12.44056,3.23437 -12.29376,4.08315 0.12922,0.7472 3.93078,4.11287 6.1851,2.73989 2.25432,-1.37298 8.64895,-2.7004 11.43274,-3.68302 8.64204,-0.66761 8.71077,2.08921 17.0074,1.74512 0,0 -5.38551,0.93922 -7.82881,1.72378 -2.44333,0.78456 -8.32115,3.64181 -12.89966,3.05339 -4.5785,-0.58842 -12.20239,-3.36282 -12.20239,-3.36282 0,0 10.45193,5.087 17.01889,4.93194 2.59916,-0.0614 5.76383,-1.76766 10.18841,-3.33678 4.42456,-1.56912 9.45609,-2.15515 10.37323,-3.13585 0.91713,-0.9807 -2.92365,-1.35986 -2.92365,-1.35986 z"
             id="path4564"
             inkscape:connector-curvature="0"
             sodipodi:nodetypes="ccsssccsscssscc" />
          <path
             transform="matrix(1,0,0,1.2958276,0.69139811,-71.052056)"
             d="m 368.7748,241.09056 c 0,0.72706 -0.77359,1.31647 -1.72786,1.31647 -0.95427,0 -1.72786,-0.58941 -1.72786,-1.31647 0,-0.72706 0.77359,-1.31646 1.72786,-1.31646 0.95427,0 1.72786,0.5894 1.72786,1.31646 z"
             sodipodi:ry="1.3164651"
             sodipodi:rx="1.7278605"
             sodipodi:cy="241.09056"
             sodipodi:cx="367.04694"
             id="path4574"
             style="color:#000000;fill:#182909;fill-opacity:1;fill-rule:nonzero;stroke:none;stroke-width:1px;marker:none;visibility:visible;display:inline;overflow:visible;enable-background:accumulate"
             sodipodi:type="arc" />
          <path
             transform="matrix(0.89176948,0,0,0.83370933,39.171452,40.431242)"
             d="m 367.29377,240.43233 c 0,0.81794 -0.69991,1.48102 -1.5633,1.48102 -0.86339,0 -1.5633,-0.66308 -1.5633,-1.48102 0,-0.81795 0.69991,-1.48103 1.5633,-1.48103 0.86339,0 1.5633,0.66308 1.5633,1.48103 z"
             sodipodi:ry="1.4810232"
             sodipodi:rx="1.5633023"
             sodipodi:cy="240.43233"
             sodipodi:cx="365.73047"
             id="path4576"
             style="color:#000000;fill:#ffffff;fill-opacity:0.27777782;fill-rule:nonzero;stroke:none;stroke-width:1px;marker:none;visibility:visible;display:inline;overflow:visible;enable-background:accumulate"
             sodipodi:type="arc" />
        </g>
        <g
           id="g4704"
           transform="matrix(1.1174677,0.04261964,0.00721309,1.1155639,-36.329341,-42.204962)">
          <path
             sodipodi:nodetypes="cccccc"
             inkscape:connector-curvature="0"
             id="path4558"
             d="m 289.02389,234.5365 c 9.61335,-0.1869 12.73863,2.34096 16.88054,3.86388 l -0.28964,1.53474 c -5.6221,2.77928 -12.33871,3.90612 -18.43433,4.74026 -10.21087,-2.56496 -12.1987,-3.98956 -16.71493,-6.44566 6.96233,-1.42839 12.17594,-2.58323 18.55836,-3.69322 z"
             style="color:#000000;fill:#ffffff;fill-opacity:1;fill-rule:nonzero;stroke:none;stroke-width:1px;marker:none;visibility:visible;display:inline;overflow:visible;enable-background:accumulate" />
          <path
             sodipodi:nodetypes="sccsss"
             inkscape:connector-curvature="0"
             id="path4555"
             d="m 299.33064,239.1213 c 0,1.5364 -0.67344,2.93232 -1.77105,3.96511 -2.38313,0.36567 -4.84899,1.27013 -6.99013,1.41421 -2.41998,-0.83018 -4.13766,-2.92559 -4.13766,-5.37932 0,-3.1814 1.12382,-4.01242 6.44942,-3.94172 5.28253,0.0701 6.44942,0.76032 6.44942,3.94172 z"
             style="color:#000000;fill:#182909;fill-opacity:1;fill-rule:nonzero;stroke:none;stroke-width:1px;marker:none;visibility:visible;display:inline;overflow:visible;enable-background:accumulate" />
          <path
             transform="matrix(1.0685061,0,0,1.2531264,-20.415817,-60.494287)"
             d="m 298.0148,238.86902 c 0,2.04486 -2.17341,3.70256 -4.85446,3.70256 -2.68105,0 -4.85447,-1.6577 -4.85447,-3.70256 0,-2.04487 2.17342,-3.70256 4.85447,-3.70256 2.68105,0 4.85446,1.65769 4.85446,3.70256 z"
             sodipodi:ry="3.702558"
             sodipodi:rx="4.854465"
             sodipodi:cy="238.86902"
             sodipodi:cx="293.16034"
             id="path4570"
             style="color:#000000;fill:#224700;fill-opacity:1;fill-rule:nonzero;stroke:none;stroke-width:1px;marker:none;visibility:visible;display:inline;overflow:visible;enable-background:accumulate"
             sodipodi:type="arc" />
          <path
             sodipodi:nodetypes="ccssssccsscsssc"
             inkscape:connector-curvature="0"
             id="path4553"
             d="m 271.88929,237.39768 c 9.9736,-2.2358 8.79875,-2.00998 17.46376,-3.95035 3.72253,-0.73313 5.64302,-0.80095 8.69365,1.18589 4.14837,2.70179 10.41702,2.59989 9.87635,3.44867 -0.47596,0.7472 -0.0845,1.13268 -2.13898,1.96519 -1.52932,0.61969 -3.78665,1.23011 -5.95902,0.56244 -1.48664,-0.45691 -4.15332,-3.45389 -7.62635,-3.3742 -8.33224,-0.66761 -11.34909,0.24912 -19.27305,1.64856 0,0 4.94967,0.93922 7.0289,1.72378 2.07925,0.78456 6.63118,3.64181 11.48274,3.05339 4.85156,-0.58842 13.7629,-3.36282 13.7629,-3.36282 0,0 -12.81253,5.087 -19.30754,4.93194 -2.57067,-0.0614 -4.94355,-1.76766 -8.63999,-3.33678 -3.69642,-1.56912 -8.456,-2.15515 -8.91805,-3.13585 -0.46205,-0.9807 3.55468,-1.35986 3.55468,-1.35986 z"
             style="color:#000000;fill:#182909;fill-opacity:1;fill-rule:nonzero;stroke:none;stroke-width:1px;marker:none;visibility:visible;display:inline;overflow:visible;enable-background:accumulate" />
          <path
             transform="matrix(1.1633074,0,0,1,-48.285057,0.72558595)"
             d="m 294.55906,238.29308 c 0,0.90883 -0.66308,1.64558 -1.48103,1.64558 -0.81794,0 -1.48102,-0.73675 -1.48102,-1.64558 0,-0.90883 0.66308,-1.64559 1.48102,-1.64559 0.81795,0 1.48103,0.73676 1.48103,1.64559 z"
             sodipodi:ry="1.6455814"
             sodipodi:rx="1.4810232"
             sodipodi:cy="238.29308"
             sodipodi:cx="293.07803"
             id="path4572"
             style="color:#000000;fill:#182909;fill-opacity:1;fill-rule:nonzero;stroke:none;stroke-width:1px;marker:none;visibility:visible;display:inline;overflow:visible;enable-background:accumulate"
             sodipodi:type="arc" />
          <path
             transform="matrix(0.90759515,0,0,0.88706073,26.430126,27.401334)"
             d="m 293.57171,237.14116 c 0,0.81795 -0.81043,1.48102 -1.81014,1.48102 -0.99972,0 -1.81014,-0.66307 -1.81014,-1.48102 0,-0.81795 0.81042,-1.48102 1.81014,-1.48102 0.99971,0 1.81014,0.66307 1.81014,1.48102 z"
             sodipodi:ry="1.4810232"
             sodipodi:rx="1.8101395"
             sodipodi:cy="237.14116"
             sodipodi:cx="291.76157"
             id="path4578"
             style="color:#000000;fill:#ffffff;fill-opacity:0.27777782;fill-rule:nonzero;stroke:none;stroke-width:1px;marker:none;visibility:visible;display:inline;overflow:visible;enable-background:accumulate"
             sodipodi:type="arc" />
        </g>
        <path
           style="color:#000000;fill:#8ea179;fill-opacity:1;fill-rule:nonzero;stroke:none;stroke-width:1px;marker:none;visibility:visible;display:inline;overflow:visible;enable-background:accumulate"
           d="m 272.10907,388.42656 c -1.0421,13.50705 -0.74103,18.96382 3.87489,31.27174 2.48542,8.92745 46.27543,14.94131 61.10202,13.93403 15.33459,-1.04179 22.30137,1.48234 21.1471,-4.44703 -1.15428,-5.92937 -5.58596,-25.4963 -11.20563,-25.19983 -3.98945,-0.35116 -48.62066,0.60315 -70.54116,-6.22583 -3.1149,-1.02112 -4.37722,-9.33308 -4.37722,-9.33308 z"
           id="path4580"
           inkscape:connector-curvature="0"
           sodipodi:nodetypes="ccssccc" />
        <path
           style="color:#000000;fill:#bdc9b3;fill-opacity:1;fill-rule:nonzero;stroke:none;stroke-width:1px;marker:none;visibility:visible;display:inline;overflow:visible;enable-background:accumulate"
           d="m 326.5651,130.8802 c -23.17515,14.88459 -22.48665,8.68127 -23.703,34.98698 2.08269,9.27661 20.87804,10.78955 27.26829,10.12762 6.49377,-0.67266 27.60793,0.48205 30.45893,0.0721 2.85099,-0.4099 26.52373,-13.72564 26.52373,-13.72564 0,0 7.95588,-17.43258 3.98312,-25.53641 -2.58529,-5.2736 -21.48781,-8.3147 -28.45572,-8.30611 -14.61189,-0.60605 -31.77367,-0.1366 -36.07535,2.38146 z"
           id="path4584"
           inkscape:connector-curvature="0"
           sodipodi:nodetypes="ccsscscc" />
        <path
           style="color:#000000;fill:#b2bfa6;fill-opacity:1;fill-rule:nonzero;stroke:none;stroke-width:1px;marker:none;visibility:visible;display:inline;overflow:visible;enable-background:accumulate"
           d="m 318.67506,229.86472 -15.0947,18.95751 0.79873,17.88038 7.15346,5.81651 -0.8335,-23.48146 11.82481,-19.81922 z"
           id="path4588"
           inkscape:connector-curvature="0" />
        <path
           style="color:#000000;fill:#b2bfa6;fill-opacity:1;fill-rule:nonzero;stroke:none;stroke-width:1px;marker:none;visibility:visible;display:inline;overflow:visible;enable-background:accumulate"
           d="m 300.29189,271.65742 -2.11949,5.60108 8.85764,5.38566 14.17964,-0.86171 c 0,0 -12.02167,-3.87767 -16.21099,-6.03193 -4.18933,-2.15427 -4.7068,-4.0931 -4.7068,-4.0931 z"
           id="path4590"
           inkscape:connector-curvature="0" />
        <path
           style="color:#000000;fill:#484630;fill-opacity:1;fill-rule:nonzero;stroke:none;stroke-width:1px;marker:none;visibility:visible;display:inline;overflow:visible;enable-background:accumulate"
           d="m 341.16456,226.31919 c 0,0 -8.19439,7.51975 -2.01637,10.01272 5.13152,2.07068 25.02228,2.86585 31.56722,-2.48564 4.40239,-3.59963 11.97086,-5.77978 18.39781,-4.19017 15.01535,3.71383 26.01483,1.19506 27.04765,-1.1106 1.03282,-2.30565 -22.56769,-17.91373 -34.23996,-16.47105 -11.67228,1.44269 -22.18404,10.61799 -27.67225,12.79645 -3.29357,1.30734 -12.18092,2.91424 -13.0841,1.44829 z"
           id="path4592"
           inkscape:connector-curvature="0"
           sodipodi:nodetypes="cssssssc" />
        <path
           sodipodi:nodetypes="cssssssc"
           inkscape:connector-curvature="0"
           id="path4595"
           d="m 313.16964,224.45924 c 0,0 0.73123,6.81996 -4.49185,9.46527 -5.22307,2.64531 -15.81779,1.86717 -23.19558,-2.6127 -4.88222,-2.96455 -10.36002,-4.73521 -15.55079,-2.85906 -12.12727,4.38327 -13.93559,-2.12038 -14.99973,-4.84165 -1.06413,-2.72125 5.77922,-16.32798 15.59519,-14.62525 9.816,1.70274 23.15772,11.24799 27.90782,13.81913 2.85061,1.543 14.11705,3.38446 14.73494,1.65426 z"
           style="color:#000000;fill:#484630;fill-opacity:1;fill-rule:nonzero;stroke:none;stroke-width:1px;marker:none;visibility:visible;display:inline;overflow:visible;enable-background:accumulate" />
        <path
           style="color:#000000;fill:#343228;fill-opacity:1;fill-rule:nonzero;stroke:none;stroke-width:1px;marker:none;visibility:visible;display:inline;overflow:visible;enable-background:accumulate"
           d="m 257.71854,217.47554 c 0.14212,4.11275 0.97919,6.2695 2.69441,5.955 5.97388,4.45875 15.45491,-0.81038 20.71864,0.68102 3.90152,1.07254 9.75926,1.00493 12.88113,3.18065 6.72341,1.98109 7.86248,5.80414 19.09201,-2.27348 0,0 -0.0199,6.74072 -4.11384,8.50615 -15.9869,7.7674 -23.84057,-5.27026 -33.95453,-5.61727 -6.19627,1.27419 -17.56889,5.509 -19.49857,-1.76542 -1.36004,-5.29628 2.18075,-8.66665 2.18075,-8.66665 z"
           id="path4597"
           inkscape:connector-curvature="0"
           sodipodi:nodetypes="ccccccccc" />
        <path
           style="color:#000000;fill:#343228;fill-opacity:1;fill-rule:nonzero;stroke:none;stroke-width:1px;marker:none;visibility:visible;display:inline;overflow:visible;enable-background:accumulate"
           d="m 373.43373,224.53125 -12.46378,5.70221 c -10.70913,3.22975 -14.79501,3.34634 -20.01072,-0.77942 l -0.12949,-2.54937 c -2.05508,3.00109 -5.43374,8.15221 -1.68082,9.43908 6.53637,2.2413 25.03089,2.85149 31.57583,-2.5 4.40239,-3.59963 11.94849,-5.77711 18.37544,-4.1875 15.01535,3.71383 26.04192,1.18066 27.07474,-1.125 0.0518,-0.11568 0.0168,-0.25868 -0.0507,-0.4375 l -10.60621,1.03102 c -3.84467,0.16049 -14.05717,-1.78992 -14.05717,-1.78992 -5.84616,-2.01598 -10.6636,-5.05761 -18.02701,-2.8036 z"
           id="path4599"
           inkscape:connector-curvature="0"
           sodipodi:nodetypes="ccccssscccccc" />
        <path
           style="color:#000000;fill:#625f41;fill-opacity:1;fill-rule:nonzero;stroke:none;stroke-width:1px;marker:none;visibility:visible;display:inline;overflow:visible;enable-background:accumulate"
           d="m 268.68066,211.11048 c -6.03226,-0.51209 -10.29601,8.31431 -4.57196,9.48351 0.46186,0.66603 7.68314,1.49581 8.13969,-2.27617 0.22376,-1.84867 -3.56773,-7.20734 -3.56773,-7.20734 z"
           id="path4607"
           inkscape:connector-curvature="0"
           sodipodi:nodetypes="ccsc" />
        <path
           sodipodi:nodetypes="ccsc"
           inkscape:connector-curvature="0"
           id="path4609"
           d="m 380.87701,213.57402 c -6.02476,-0.34396 -16.27738,8.31513 -10.57048,9.10045 0.45208,0.44735 7.3721,0.35454 7.88396,-2.17899 0.25088,-1.2417 2.68652,-6.92146 2.68652,-6.92146 z"
           style="color:#000000;fill:#625f41;fill-opacity:1;fill-rule:nonzero;stroke:none;stroke-width:1px;marker:none;visibility:visible;display:inline;overflow:visible;enable-background:accumulate" />
        <path
           style="color:#000000;fill:#bdc9b3;fill-opacity:1;fill-rule:nonzero;stroke:none;stroke-width:1px;marker:none;visibility:visible;display:inline;overflow:visible;enable-background:accumulate"
           d="m 301.33447,359.41902 c -12.59554,5.19051 -14.85513,28.5029 -9.23701,30.77389 5.93124,2.12234 29.25325,1.59176 31.25708,-1.06116 2.00383,-2.65292 15.26304,-26.52922 6.0772,-30.24331 -9.18584,-3.71409 -28.09727,0.53058 -28.09727,0.53058 z"
           id="path4619"
           inkscape:connector-curvature="0"
           sodipodi:nodetypes="ccssc" />
        <path
           style="color:#000000;fill:#bdc9b3;fill-opacity:1;fill-rule:nonzero;stroke:none;stroke-width:1px;marker:none;visibility:visible;display:inline;overflow:visible;enable-background:accumulate"
           d="m 232.9386,265.50559 c 15.9256,3.42487 10.70933,-10.01634 35.51091,-12.73402 -11.51979,-5.419 -32.94553,0.80358 -35.51091,12.73402 z"
           id="path4621"
           inkscape:connector-curvature="0"
           sodipodi:nodetypes="ccc" />
        <path
           style="color:#000000;fill:#bdc9b3;fill-opacity:1;fill-rule:nonzero;stroke:none;stroke-width:1px;marker:none;visibility:visible;display:inline;overflow:visible;enable-background:accumulate"
           d="m 368.37498,279.41621 c 0,0 23.70044,8.81009 30.36809,9.54729 7.33554,0.81104 18.53993,-12.12746 18.53993,-12.12746 0,0 -11.91669,5.52894 -24.06389,5.89754 -12.14721,0.3686 -24.84413,-3.31737 -24.84413,-3.31737 z"
           id="path4623"
           inkscape:connector-curvature="0"
           sodipodi:nodetypes="cscsc" />
        <path
           style="color:#000000;fill:#b2bfa6;fill-opacity:1;fill-rule:nonzero;stroke:none;stroke-width:1px;marker:none;visibility:visible;display:inline;overflow:visible;enable-background:accumulate"
           d="m 259.73974,108.38764 12.9933,10.32069 1.03356,6.63473 z"
           id="path4625"
           inkscape:connector-curvature="0" />
        <path
           style="color:#000000;fill:#bdc9b3;fill-opacity:1;fill-rule:nonzero;stroke:none;stroke-width:1px;marker:none;visibility:visible;display:inline;overflow:visible;enable-background:accumulate"
           d="m 516.59056,133.5888 c -10.68273,6.15493 -10.81357,4.37805 -32.06706,18.47895 l -6.81376,12.93526 c 0,0 4.07012,-4.60014 13.85227,-12.56569 9.985,-8.13073 25.02855,-18.84852 25.02855,-18.84852 z"
           id="path4637"
           inkscape:connector-curvature="0"
           sodipodi:nodetypes="cccsc" />
        <path
           d="m 310.48901,216.0368 c 1.79876,0.29649 3.57777,0.71192 5.38659,0.94874 1.56334,0.21444 3.10953,0.54119 4.68171,0.70205 1.95222,0.14003 3.90495,0.13342 5.85528,0.1426 2.30182,-0.0975 4.60253,0.2083 6.90343,0.41196 1.58466,0.31627 3.16629,0.62095 4.76936,0.76579 1.30675,0.0955 2.61346,0.0919 3.91875,0.0953 3.31202,3.3e-4 -3.55628,-2e-5 -5.33444,-4.9e-4 -0.2433,-7e-5 0.48657,-4.9e-4 0.72985,-8.5e-4 0.69579,-0.001 1.39153,-0.003 2.08731,-0.004 1.29936,-0.002 2.59876,-0.003 3.89821,-0.003 3.5511,-4.9e-4 7.10224,-2.2e-4 10.65336,-1.6e-4 0.84972,1e-5 0.42493,0 1.27473,1e-5 0,0 -6.78128,1.0817 -6.78128,1.0817 l 0,0 c -0.85058,-10e-6 -0.42428,0 -1.27478,-10e-6 -2.40971,-2e-5 -6.21265,0 4.91834,-2e-5 2.07808,0 -3.98833,-7e-5 -1.91274,2e-5 -1.30154,9e-5 -2.6031,2.1e-4 -3.90461,10e-4 -3.70805,0.004 -7.41589,0.0127 -11.12458,0.002 -1.3116,-0.008 -2.62615,-0.0214 -3.93749,-0.1646 -1.5789,-0.19489 -3.13539,-0.54894 -4.71196,-0.76338 -2.29147,-0.2151 -4.58313,-0.44305 -6.87541,-0.35629 -1.97479,-0.0114 -3.95499,-0.006 -5.93011,-0.20824 -1.56213,-0.20081 -3.10694,-0.53224 -4.66977,-0.72318 -1.82215,-0.28358 -3.623,-0.71511 -5.44999,-0.95507 0,0 6.83021,-0.97261 6.83021,-0.97261 z m -18.86443,-30.31713 c 2.35747,-0.0997 4.71457,-0.20859 7.07179,-0.31438 5.45872,-0.23719 10.9166,-0.49378 16.37431,-0.75398 -1.06825,0.009 -2.17311,0.3026 -3.20475,0.0267 -0.72285,-0.19335 1.48595,-0.18531 2.22762,-0.28801 1.91513,-0.26522 3.8132,-0.63805 5.73608,-0.83897 2.37626,-0.079 4.7514,-0.22033 7.12878,-0.23708 0.45787,-0.003 2.05304,0.36794 2.45884,0.44853 1.44161,0.28632 2.88607,0.56044 4.33348,0.81583 3.0703,0.42727 6.13979,0.86211 9.2281,1.14113 3.00041,0.34167 6.0112,0.62565 9.02658,0.80154 2.79033,0.12506 5.58442,0.0807 8.37528,-0.0101 0.94574,-0.0372 0.89129,-0.0337 1.81936,-0.075 0.29726,-0.0133 1.18899,-0.055 0.89175,-0.041 -9.87669,0.46516 -4.85733,0.22728 -2.71878,0.12822 2.76231,-0.14269 5.52539,-0.42828 8.26135,-0.8416 1.67114,-0.31612 3.33452,-0.65824 5.02468,-0.85316 4.76756,-0.40129 9.55196,-0.51571 14.33373,-0.47283 2.2318,0.0179 4.46347,-0.0222 6.69472,-0.0725 0,0 -5.91455,1.2077 -5.91455,1.2077 l 0,0 c -2.22084,0.0388 -4.44203,0.0667 -6.66316,0.0487 -0.57893,-0.004 -1.1579,-0.01 -1.73683,-0.0133 -0.55646,-0.003 -2.22354,0.0454 -1.66947,-0.008 1.47587,-0.14141 2.96013,-0.17038 4.44006,-0.25776 0.86044,-0.0509 -1.35409,0.0704 -2.39733,0.14043 -0.32527,0.0222 -0.65035,0.0471 -0.97552,0.0707 -1.71377,0.16197 -3.40419,0.46309 -5.09,0.81263 -2.73131,0.46626 -5.51047,0.70838 -8.27082,0.90888 -4.0032,0.19945 -8.00615,0.41422 -12.01215,0.54415 -2.76772,0.0664 -5.53816,0.0855 -8.30363,-0.06 -3.01862,-0.19857 -6.03311,-0.4763 -9.03843,-0.81953 -3.09087,-0.31034 -6.1706,-0.72356 -9.24149,-1.18932 -1.45659,-0.26644 -2.90904,-0.55408 -4.36608,-0.81797 -2.16733,-0.39251 -7.0698,-0.57121 2.44104,-0.64792 -5.52429,0.33206 -10.92908,2.17584 -16.54021,1.63273 -5.50951,0.2528 -11.01885,0.50959 -16.5273,0.78559 -2.42608,0.11853 -4.85238,0.23307 -7.2782,0.3571 0,0 6.08113,-1.25864 6.08113,-1.25864 z m -6.89787,15.17035 c -1.90108,0.12077 4.64345,-0.28968 2.82608,-0.18723 -7.6829,0.43252 -5.22323,0.41782 -2.39822,-0.20782 2.79822,-0.84657 5.57545,-1.67368 8.4641,-2.09312 0.56751,-0.053 1.13414,-0.12248 1.70255,-0.15897 2.54967,-0.16383 5.09934,-0.34712 7.65081,-0.44197 1.89663,-0.0703 4.11769,0.32041 5.99421,0.61516 1.75658,0.17764 3.38271,0.84024 5.01948,1.43104 2.9125,0.84082 5.95094,1.11466 8.97852,1.29956 3.54107,0.03 7.07278,0.13433 10.60333,0.34325 3.24042,0.4054 6.50893,0.45062 9.7797,0.37479 5.12026,-0.002 10.22098,0.27795 15.34333,0.26647 7.96791,-0.12161 15.93288,-0.62232 23.89299,-1.13231 2.93476,-0.1978 3.34914,-0.22356 6.14637,-0.42084 0.76463,-0.0539 3.0592,-0.18799 2.29377,-0.16431 -1.36056,0.0423 -2.71954,0.20361 -4.08004,0.21975 -0.83172,0.01 1.65211,-0.24322 2.47101,-0.40973 0.79099,-0.15133 1.53707,-0.45088 2.27995,-0.75885 0,0 6.13431,0.3356 6.13431,0.3356 l 0,0 c -0.76958,0.33769 -1.52848,0.71128 -2.3575,0.87106 -6.03239,1.4089 -12.32095,0.94516 -18.43697,1.59951 -7.9849,0.49335 -15.97391,0.98984 -23.96588,1.1135 -5.1988,0.0111 -10.38169,-0.25149 -15.58069,-0.20245 -3.2883,0.0584 -6.56612,-0.0427 -9.82685,-0.41301 -3.51479,-0.20947 -7.03398,-0.26716 -10.55588,-0.35735 -3.08908,-0.21753 -6.20121,-0.5006 -9.15541,-1.43156 -1.61381,-0.56564 -3.23383,-1.13579 -4.95179,-1.32985 -1.40676,-0.21635 -2.79925,-0.39685 -4.22584,-0.46967 -2.77499,-0.14163 -2.97304,0.084 2.50929,-0.41857 0.56305,-0.0517 -1.12699,0.0886 -1.69049,0.13287 -2.87678,0.33712 -5.6407,1.11413 -8.39466,2.04184 -0.10295,0.0239 -2.31021,0.54053 -2.41924,0.55165 -3.37134,0.34366 -6.74955,0.54288 -10.12528,0.79869 0,0 6.07494,-1.39699 6.07494,-1.39699 z"
           style="color:#000000;fill:#b2bfa6;fill-opacity:1;fill-rule:nonzero;stroke:none;stroke-width:1px;marker:none;visibility:visible;display:inline;overflow:visible;enable-background:accumulate"
           id="path4713"
           inkscape:connector-curvature="0" />
        <path
           id="path4639"
           style="color:#000000;fill:#8ea179;fill-opacity:1;fill-rule:nonzero;stroke:none;stroke-width:1px;marker:none;visibility:visible;display:inline;overflow:visible;enable-background:accumulate"
           d="m 310.66067,215.2008 c 1.79875,0.29649 3.57777,0.71192 5.38659,0.94874 1.56334,0.21444 3.10952,0.54119 4.68171,0.70205 1.95221,0.14003 3.90495,0.13342 5.85528,0.1426 2.30181,-0.0975 4.60252,0.2083 6.90342,0.41196 1.58467,0.31627 3.1663,0.62095 4.76937,0.76579 1.30675,0.0955 2.61345,0.0919 3.91875,0.0953 3.31201,3.3e-4 -3.55628,-2e-5 -5.33445,-4.9e-4 -0.2433,-7e-5 0.48657,-4.9e-4 0.72986,-8.5e-4 0.69578,-10e-4 1.39152,-0.003 2.08731,-0.004 1.29936,-0.002 2.59875,-0.003 3.8982,-0.003 3.5511,-4.9e-4 7.10224,-2.2e-4 10.65337,-1.6e-4 0.84972,1e-5 0.42493,0 1.27473,1e-5 0,0 -6.78128,1.0817 -6.78128,1.0817 l 0,0 c -0.85058,-1e-5 -0.42428,0 -1.27478,-1e-5 -2.40971,-2e-5 -6.21265,0 4.91834,-2e-5 2.07808,0 -3.98834,-7e-5 -1.91274,2e-5 -1.30155,9e-5 -2.6031,2.1e-4 -3.90462,0.001 -3.70804,0.004 -7.41588,0.0127 -11.12458,0.002 -1.3116,-0.008 -2.62615,-0.0214 -3.93748,-0.1646 -1.57891,-0.19489 -3.13539,-0.54894 -4.71196,-0.76338 -2.29147,-0.2151 -4.58313,-0.44305 -6.87542,-0.35629 -1.97479,-0.0114 -3.95499,-0.006 -5.9301,-0.20824 -1.56213,-0.20081 -3.10695,-0.53224 -4.66978,-0.72318 -1.82214,-0.28358 -3.623,-0.71511 -5.44999,-0.95507 0,0 6.83021,-0.97261 6.83021,-0.97261 z m -18.86443,-30.31713 c 2.35746,-0.0997 4.71457,-0.20859 7.07178,-0.31438 5.45873,-0.23719 10.91661,-0.49378 16.37431,-0.75398 -1.06824,0.009 -2.17311,0.3026 -3.20474,0.0267 -0.72285,-0.19335 1.48595,-0.18531 2.22761,-0.28801 1.91513,-0.26522 3.81321,-0.63805 5.73608,-0.83897 2.37626,-0.079 4.7514,-0.22033 7.12878,-0.23708 0.45788,-0.003 2.05305,0.36794 2.45885,0.44853 1.44161,0.28632 2.88606,0.56044 4.33347,0.81583 3.07031,0.42727 6.13979,0.86211 9.22811,1.14113 3.00041,0.34167 6.0112,0.62565 9.02657,0.80154 2.79034,0.12506 5.58443,0.0807 8.37528,-0.0101 0.94575,-0.0372 0.8913,-0.0337 1.81936,-0.075 0.29727,-0.0133 1.18899,-0.055 0.89176,-0.041 -9.87669,0.46516 -4.85734,0.22728 -2.71878,0.12822 2.7623,-0.14269 5.52539,-0.42828 8.26134,-0.8416 1.67114,-0.31612 3.33453,-0.65824 5.02468,-0.85316 4.76757,-0.40129 9.55196,-0.51571 14.33374,-0.47283 2.2318,0.0179 4.46347,-0.0222 6.69471,-0.0725 0,0 -5.91454,1.2077 -5.91454,1.2077 l 0,0 c -2.22085,0.0388 -4.44203,0.0667 -6.66316,0.0487 -0.57893,-0.004 -1.1579,-0.01 -1.73684,-0.0133 -0.55645,-0.003 -2.22353,0.0454 -1.66947,-0.008 1.47588,-0.14141 2.96013,-0.17038 4.44007,-0.25776 0.86044,-0.0509 -1.3541,0.0704 -2.39734,0.14043 -0.32527,0.0222 -0.65034,0.0471 -0.97552,0.0707 -1.71376,0.16197 -3.40418,0.46309 -5.09,0.81263 -2.7313,0.46626 -5.51046,0.70838 -8.27082,0.90888 -4.0032,0.19945 -8.00614,0.41422 -12.01214,0.54415 -2.76772,0.0664 -5.53816,0.0855 -8.30363,-0.06 -3.01862,-0.19857 -6.03312,-0.4763 -9.03843,-0.81953 -3.09087,-0.31034 -6.1706,-0.72356 -9.2415,-1.18932 -1.45659,-0.26644 -2.90904,-0.55408 -4.36608,-0.81797 -2.16732,-0.39251 -7.06979,-0.57121 2.44104,-0.64792 -5.52429,0.33206 -10.92907,2.17584 -16.5402,1.63273 -5.50951,0.2528 -11.01885,0.50959 -16.5273,0.78559 -2.42609,0.11853 -4.85238,0.23307 -7.2782,0.3571 0,0 6.08113,-1.25864 6.08113,-1.25864 z m -6.89788,15.17035 c -1.90107,0.12077 4.64345,-0.28968 2.82609,-0.18723 -7.68291,0.43252 -5.22324,0.41782 -2.39822,-0.20782 2.79822,-0.84657 5.57544,-1.67368 8.4641,-2.09312 0.56751,-0.053 1.13414,-0.12248 1.70255,-0.15897 2.54967,-0.16383 5.09934,-0.34712 7.6508,-0.44197 1.89663,-0.0703 4.11769,0.32041 5.99421,0.61516 1.75659,0.17764 3.38272,0.84024 5.01949,1.43104 2.9125,0.84082 5.95094,1.11466 8.97852,1.29956 3.54107,0.03 7.07278,0.13433 10.60332,0.34325 3.24042,0.4054 6.50893,0.45062 9.7797,0.37479 5.12026,-0.002 10.22099,0.27795 15.34334,0.26647 7.9679,-0.12161 15.93288,-0.62232 23.89299,-1.13231 2.93475,-0.1978 3.34914,-0.22356 6.14637,-0.42084 0.76463,-0.0539 3.0592,-0.18799 2.29377,-0.16431 -1.36056,0.0423 -2.71955,0.20361 -4.08005,0.21975 -0.83171,0.01 1.65212,-0.24322 2.47101,-0.40973 0.79099,-0.15133 1.53708,-0.45088 2.27995,-0.75885 0,0 6.13431,0.3356 6.13431,0.3356 l 0,0 c -0.76957,0.33769 -1.52847,0.71128 -2.3575,0.87106 -6.03239,1.4089 -12.32094,0.94516 -18.43696,1.59951 -7.98491,0.49335 -15.97392,0.98984 -23.96588,1.1135 -5.19881,0.0111 -10.3817,-0.25149 -15.5807,-0.20245 -3.2883,0.0584 -6.56611,-0.0427 -9.82685,-0.41301 -3.51478,-0.20947 -7.03397,-0.26716 -10.55587,-0.35735 -3.08909,-0.21753 -6.20121,-0.5006 -9.15542,-1.43156 -1.61381,-0.56564 -3.23382,-1.13579 -4.95178,-1.32985 -1.40677,-0.21635 -2.79925,-0.39685 -4.22584,-0.46967 -2.77499,-0.14163 -2.97304,0.084 2.50929,-0.41857 0.56305,-0.0517 -1.12699,0.0886 -1.6905,0.13287 -2.87678,0.33712 -5.6407,1.11413 -8.39466,2.04184 -0.10295,0.0239 -2.3102,0.54053 -2.41923,0.55165 -3.37134,0.34366 -6.74955,0.54288 -10.12529,0.79869 0,0 6.07495,-1.39699 6.07495,-1.39699 z"
           inkscape:connector-curvature="0" />
        <path
           style="color:#000000;fill:#b2bfa6;fill-opacity:1;fill-rule:nonzero;stroke:none;stroke-width:1px;marker:none;visibility:visible;display:inline;overflow:visible;enable-background:accumulate"
           d="m 319.70047,305.70851 -2.01266,8.24121 4.88588,0.73255 -1.48875,-8.80018 z"
           id="path4658"
           inkscape:connector-curvature="0"
           sodipodi:nodetypes="ccccc" />
        <path
           style="color:#000000;fill:#8ea179;fill-opacity:1;fill-rule:nonzero;stroke:none;stroke-width:1px;marker:none;visibility:visible;display:inline;overflow:visible;enable-background:accumulate"
           d="m 290.71609,143.40625 c -0.74628,0.42997 -1.47032,0.83899 -2.25526,1.28125 -2.84035,1.60034 -8.89008,9.07383 -9.63363,11 -2.88035,7.46167 -0.61644,16.28991 -3.54431,22.09375 -3.99136,1.94705 -20.78116,9.45747 -24.37354,12.625 -4.34971,6.87305 -3.42452,12.26753 -4.01861,12.875 0.0129,0.14397 0.0583,0.33533 0.0848,0.5 l 1.51171,-0.4375 c 0,0 4.08261,-9.99577 4.90983,-11.8125 0.8272,-1.81673 21.10774,-8.78125 21.10774,-8.78125 l 3.3809,1.53125 1.84022,-6.375 1.62646,-18.15625 9.36366,-16.34375 z"
           id="path4660"
           inkscape:connector-curvature="0" />
        <path
           style="color:#000000;fill:#7b9364;fill-opacity:1;fill-rule:nonzero;stroke:none;stroke-width:1px;marker:none;visibility:visible;display:inline;overflow:visible;enable-background:accumulate"
           d="m 320.91836,473.65148 c -4.84634,6.57961 -3.24886,15.70161 -15.25138,16.00617 -32.09772,0.81449 -80.35497,-49.40233 -74.40546,-52.91918 2.20168,-8.0745 22.22203,-12.61094 21.13868,-14.97168 -8.87672,3.61529 -33.34013,5.63277 -33.34013,5.63277 l -0.82929,4.03664 c 18.76583,25.69739 44.43325,46.0902 73.16284,59.65228 10.14391,4.51911 17.65711,10.84587 31.17408,9.94205 13.51695,-0.90382 130.84149,-47.15243 130.84149,-47.15243 0,0 -15.71838,-28.69926 -17.35721,-22.4419 -1.89666,10.02804 -6.29501,28.26639 -15.03525,32.38886 -15.9458,7.23058 -80.42335,29.0582 -91.20041,24.44124 -8.9826,-3.8482 -4.77021,-11.71139 -8.89796,-14.61482 z"
           id="path4671"
           inkscape:connector-curvature="0"
           sodipodi:nodetypes="cscccccscccsc" />
        <path
           style="color:#000000;fill:#b2bfa6;fill-opacity:1;fill-rule:nonzero;stroke:none;stroke-width:1px;marker:none;visibility:visible;display:inline;overflow:visible;enable-background:accumulate"
           d="m 248.18457,345.55655 c 0,0 -23.15135,6.60766 -38.80067,9.37861 -15.64933,2.77095 -28.66016,14.0837 -26.47972,13.2153 4.81675,-1.91835 16.68185,-7.50082 24.984,-8.526 12.0829,-1.49205 20.09907,6.18135 20.09907,6.18135 0,0 -2.21352,-6.60765 6.77103,-10.6575 8.98455,-4.04985 17.22122,-5.75505 17.22122,-5.75505 z"
           id="path4673"
           inkscape:connector-curvature="0"
           sodipodi:nodetypes="cssscscc" />
      </g>
      <path
         sodipodi:nodetypes="csssssc"
         inkscape:connector-curvature="0"
         id="path77077"
         d="m 387.13834,305.38599 c 0,0 8.23343,0.96864 15.98255,56.6654 2.91056,20.91968 13.60231,39.18071 19.23231,53.04455 9.35937,23.04741 13.27154,34.79689 6.92094,32.68002 -10.17071,-3.39024 -93.95801,-71.19498 -84.27161,-81.85002 9.68639,-10.65502 13.07663,-51.82219 19.37279,-54.2438 6.29615,-2.42159 22.76302,-6.29615 22.76302,-6.29615 z"
         style="color:#000000;fill:url(#linearGradient11267);fill-opacity:1;fill-rule:nonzero;stroke:none;stroke-width:1px;marker:none;visibility:visible;display:inline;overflow:visible;enable-background:accumulate" />
      <path
         sodipodi:nodetypes="csssssc"
         inkscape:connector-curvature="0"
         id="path77079"
         d="m 641.89046,304.90167 c 0,0 -29.05919,8.23344 -54.24381,33.90237 -25.18461,25.66895 -83.30297,92.50505 -92.50505,99.76985 -9.20207,7.26479 -24.70029,10.65503 -18.88845,12.10799 5.81182,1.45295 148.2018,-31.9651 150.13907,-49.88492 1.93728,-17.91983 39.2299,-78.94409 46.01037,-83.30297 6.78048,-4.35888 -30.51213,-12.59232 -30.51213,-12.59232 z"
         style="color:#000000;fill:url(#linearGradient11264);fill-opacity:1;fill-rule:nonzero;stroke:none;stroke-width:1px;marker:none;visibility:visible;display:inline;overflow:visible;enable-background:accumulate" />
      <path
         inkscape:connector-curvature="0"
         id="path77100"
         d="m 673.08543,317.05401 c 0,0 -22.21225,27.97827 -29.27978,42.38129 -7.06753,14.40301 -14.80815,28.14381 -15.64953,32.44817 -0.84138,4.30435 -2.0193,9.602 -2.0193,9.602"
         style="color:#000000;fill:none;stroke:#282828;stroke-width:0.9157334px;stroke-linecap:round;stroke-opacity:1;marker:none;visibility:visible;display:inline;overflow:visible;enable-background:accumulate" />
      <path
         sodipodi:nodetypes="csssc"
         inkscape:connector-curvature="0"
         id="path77102"
         d="m 387.55336,305.68524 c 0,0 8.23844,7.50669 11.96459,33.58983 3.72617,26.08314 4.51432,33.68077 7.56299,41.13309 3.04869,7.45233 19.51752,45.92282 21.56883,51.39882 2.46791,6.58815 3.83683,13.30091 3.15934,14.99462"
         style="color:#000000;fill:none;stroke:#282828;stroke-width:0.92634439px;stroke-linecap:round;stroke-opacity:1;marker:none;visibility:visible;display:inline;overflow:visible;enable-background:accumulate" />
      <g
         id="g77123"
         transform="matrix(0.45956435,0,0,0.45956435,293.19974,86.084163)">
        <path
           d="m 190.63129,519.37268 c 0,6.71446 -5.44315,12.15761 -12.15761,12.15761 -6.71446,0 -12.15761,-5.44315 -12.15761,-12.15761 0,-6.71446 5.44315,-12.15761 12.15761,-12.15761 6.71446,0 12.15761,5.44315 12.15761,12.15761 z"
           sodipodi:ry="12.157608"
           sodipodi:rx="12.157608"
           sodipodi:cy="519.37268"
           sodipodi:cx="178.47368"
           id="path77125"
           style="color:#000000;fill:#808080;stroke:#282828;stroke-width:1px;stroke-linecap:round;stroke-linejoin:round;stroke-miterlimit:4;stroke-opacity:1;stroke-dasharray:none;stroke-dashoffset:0;marker:none;visibility:visible;display:inline;overflow:visible;enable-background:accumulate"
           sodipodi:type="arc" />
        <path
           inkscape:connector-curvature="0"
           id="path77127"
           d="m 178.1048,508.87274 c -5.54862,0 -10.04554,4.52274 -10.04554,10.07136 0,3.56238 1.8783,6.66053 4.67415,8.44445 -0.66029,-1.33852 -1.05879,-2.84827 -1.05879,-4.44173 0,-5.54861 4.49692,-10.04554 10.04554,-10.04554 1.98138,0 3.84076,0.58511 5.39722,1.57527 -1.64174,-3.31439 -5.06327,-5.60381 -9.01258,-5.60381 z"
           style="color:#000000;fill:#cccccc;stroke:none;stroke-width:1px;marker:none;visibility:visible;display:inline;overflow:visible;enable-background:accumulate" />
        <path
           inkscape:connector-curvature="0"
           id="path77129"
           d="m 186.3579,510.45963 c 2.0124,2.84081 2.84954,6.13218 2.05882,9.30393 -1.5977,6.40886 -9.27329,10.07542 -17.57157,8.63941 1.32893,1.13385 2.90268,2.00146 4.70338,2.45933 6.31894,1.60676 12.72956,-2.26315 14.32051,-8.64489 1.10314,-4.42498 -0.37833,-8.89683 -3.51114,-11.75778 z"
           style="color:#000000;fill:#4d4d4d;stroke:none;stroke-width:1px;marker:none;visibility:visible;display:inline;overflow:visible;enable-background:accumulate" />
      </g>
      <g
         id="g77131"
         transform="matrix(0.45956435,0,0,0.45956435,306.09061,111.86593)">
        <path
           d="m 190.63129,519.37268 c 0,6.71446 -5.44315,12.15761 -12.15761,12.15761 -6.71446,0 -12.15761,-5.44315 -12.15761,-12.15761 0,-6.71446 5.44315,-12.15761 12.15761,-12.15761 6.71446,0 12.15761,5.44315 12.15761,12.15761 z"
           sodipodi:ry="12.157608"
           sodipodi:rx="12.157608"
           sodipodi:cy="519.37268"
           sodipodi:cx="178.47368"
           id="path77133"
           style="color:#000000;fill:#808080;stroke:#282828;stroke-width:1px;stroke-linecap:round;stroke-linejoin:round;stroke-miterlimit:4;stroke-opacity:1;stroke-dasharray:none;stroke-dashoffset:0;marker:none;visibility:visible;display:inline;overflow:visible;enable-background:accumulate"
           sodipodi:type="arc" />
        <path
           inkscape:connector-curvature="0"
           id="path77135"
           d="m 178.1048,508.87274 c -5.54862,0 -10.04554,4.52274 -10.04554,10.07136 0,3.56238 1.8783,6.66053 4.67415,8.44445 -0.66029,-1.33852 -1.05879,-2.84827 -1.05879,-4.44173 0,-5.54861 4.49692,-10.04554 10.04554,-10.04554 1.98138,0 3.84076,0.58511 5.39722,1.57527 -1.64174,-3.31439 -5.06327,-5.60381 -9.01258,-5.60381 z"
           style="color:#000000;fill:#cccccc;stroke:none;stroke-width:1px;marker:none;visibility:visible;display:inline;overflow:visible;enable-background:accumulate" />
        <path
           inkscape:connector-curvature="0"
           id="path77137"
           d="m 186.3579,510.45963 c 2.0124,2.84081 2.84954,6.13218 2.05882,9.30393 -1.5977,6.40886 -9.27329,10.07542 -17.57157,8.63941 1.32893,1.13385 2.90268,2.00146 4.70338,2.45933 6.31894,1.60676 12.72956,-2.26315 14.32051,-8.64489 1.10314,-4.42498 -0.37833,-8.89683 -3.51114,-11.75778 z"
           style="color:#000000;fill:#4d4d4d;stroke:none;stroke-width:1px;marker:none;visibility:visible;display:inline;overflow:visible;enable-background:accumulate" />
      </g>
      <g
         id="g77139"
         transform="matrix(0.45956435,0,0,0.45956435,284.06869,110.25456)">
        <path
           d="m 190.63129,519.37268 c 0,6.71446 -5.44315,12.15761 -12.15761,12.15761 -6.71446,0 -12.15761,-5.44315 -12.15761,-12.15761 0,-6.71446 5.44315,-12.15761 12.15761,-12.15761 6.71446,0 12.15761,5.44315 12.15761,12.15761 z"
           sodipodi:ry="12.157608"
           sodipodi:rx="12.157608"
           sodipodi:cy="519.37268"
           sodipodi:cx="178.47368"
           id="path77141"
           style="color:#000000;fill:#808080;stroke:#282828;stroke-width:1px;stroke-linecap:round;stroke-linejoin:round;stroke-miterlimit:4;stroke-opacity:1;stroke-dasharray:none;stroke-dashoffset:0;marker:none;visibility:visible;display:inline;overflow:visible;enable-background:accumulate"
           sodipodi:type="arc" />
        <path
           inkscape:connector-curvature="0"
           id="path77143"
           d="m 178.1048,508.87274 c -5.54862,0 -10.04554,4.52274 -10.04554,10.07136 0,3.56238 1.8783,6.66053 4.67415,8.44445 -0.66029,-1.33852 -1.05879,-2.84827 -1.05879,-4.44173 0,-5.54861 4.49692,-10.04554 10.04554,-10.04554 1.98138,0 3.84076,0.58511 5.39722,1.57527 -1.64174,-3.31439 -5.06327,-5.60381 -9.01258,-5.60381 z"
           style="color:#000000;fill:#cccccc;stroke:none;stroke-width:1px;marker:none;visibility:visible;display:inline;overflow:visible;enable-background:accumulate" />
        <path
           inkscape:connector-curvature="0"
           id="path77145"
           d="m 186.3579,510.45963 c 2.0124,2.84081 2.84954,6.13218 2.05882,9.30393 -1.5977,6.40886 -9.27329,10.07542 -17.57157,8.63941 1.32893,1.13385 2.90268,2.00146 4.70338,2.45933 6.31894,1.60676 12.72956,-2.26315 14.32051,-8.64489 1.10314,-4.42498 -0.37833,-8.89683 -3.51114,-11.75778 z"
           style="color:#000000;fill:#4d4d4d;stroke:none;stroke-width:1px;marker:none;visibility:visible;display:inline;overflow:visible;enable-background:accumulate" />
      </g>
      <g
         id="g77147"
         transform="matrix(0.45956435,0,0,0.45956435,309.31333,139.25904)">
        <path
           d="m 190.63129,519.37268 c 0,6.71446 -5.44315,12.15761 -12.15761,12.15761 -6.71446,0 -12.15761,-5.44315 -12.15761,-12.15761 0,-6.71446 5.44315,-12.15761 12.15761,-12.15761 6.71446,0 12.15761,5.44315 12.15761,12.15761 z"
           sodipodi:ry="12.157608"
           sodipodi:rx="12.157608"
           sodipodi:cy="519.37268"
           sodipodi:cx="178.47368"
           id="path77149"
           style="color:#000000;fill:#808080;stroke:#282828;stroke-width:1px;stroke-linecap:round;stroke-linejoin:round;stroke-miterlimit:4;stroke-opacity:1;stroke-dasharray:none;stroke-dashoffset:0;marker:none;visibility:visible;display:inline;overflow:visible;enable-background:accumulate"
           sodipodi:type="arc" />
        <path
           inkscape:connector-curvature="0"
           id="path77151"
           d="m 178.1048,508.87274 c -5.54862,0 -10.04554,4.52274 -10.04554,10.07136 0,3.56238 1.8783,6.66053 4.67415,8.44445 -0.66029,-1.33852 -1.05879,-2.84827 -1.05879,-4.44173 0,-5.54861 4.49692,-10.04554 10.04554,-10.04554 1.98138,0 3.84076,0.58511 5.39722,1.57527 -1.64174,-3.31439 -5.06327,-5.60381 -9.01258,-5.60381 z"
           style="color:#000000;fill:#cccccc;stroke:none;stroke-width:1px;marker:none;visibility:visible;display:inline;overflow:visible;enable-background:accumulate" />
        <path
           inkscape:connector-curvature="0"
           id="path77153"
           d="m 186.3579,510.45963 c 2.0124,2.84081 2.84954,6.13218 2.05882,9.30393 -1.5977,6.40886 -9.27329,10.07542 -17.57157,8.63941 1.32893,1.13385 2.90268,2.00146 4.70338,2.45933 6.31894,1.60676 12.72956,-2.26315 14.32051,-8.64489 1.10314,-4.42498 -0.37833,-8.89683 -3.51114,-11.75778 z"
           style="color:#000000;fill:#4d4d4d;stroke:none;stroke-width:1px;marker:none;visibility:visible;display:inline;overflow:visible;enable-background:accumulate" />
      </g>
      <g
         id="g77155"
         transform="matrix(0.45956435,0,0,0.45956435,284.06869,134.96208)">
        <path
           d="m 190.63129,519.37268 c 0,6.71446 -5.44315,12.15761 -12.15761,12.15761 -6.71446,0 -12.15761,-5.44315 -12.15761,-12.15761 0,-6.71446 5.44315,-12.15761 12.15761,-12.15761 6.71446,0 12.15761,5.44315 12.15761,12.15761 z"
           sodipodi:ry="12.157608"
           sodipodi:rx="12.157608"
           sodipodi:cy="519.37268"
           sodipodi:cx="178.47368"
           id="path77157"
           style="color:#000000;fill:#808080;stroke:#282828;stroke-width:1px;stroke-linecap:round;stroke-linejoin:round;stroke-miterlimit:4;stroke-opacity:1;stroke-dasharray:none;stroke-dashoffset:0;marker:none;visibility:visible;display:inline;overflow:visible;enable-background:accumulate"
           sodipodi:type="arc" />
        <path
           inkscape:connector-curvature="0"
           id="path77159"
           d="m 178.1048,508.87274 c -5.54862,0 -10.04554,4.52274 -10.04554,10.07136 0,3.56238 1.8783,6.66053 4.67415,8.44445 -0.66029,-1.33852 -1.05879,-2.84827 -1.05879,-4.44173 0,-5.54861 4.49692,-10.04554 10.04554,-10.04554 1.98138,0 3.84076,0.58511 5.39722,1.57527 -1.64174,-3.31439 -5.06327,-5.60381 -9.01258,-5.60381 z"
           style="color:#000000;fill:#cccccc;stroke:none;stroke-width:1px;marker:none;visibility:visible;display:inline;overflow:visible;enable-background:accumulate" />
        <path
           inkscape:connector-curvature="0"
           id="path77161"
           d="m 186.3579,510.45963 c 2.0124,2.84081 2.84954,6.13218 2.05882,9.30393 -1.5977,6.40886 -9.27329,10.07542 -17.57157,8.63941 1.32893,1.13385 2.90268,2.00146 4.70338,2.45933 6.31894,1.60676 12.72956,-2.26315 14.32051,-8.64489 1.10314,-4.42498 -0.37833,-8.89683 -3.51114,-11.75778 z"
           style="color:#000000;fill:#4d4d4d;stroke:none;stroke-width:1px;marker:none;visibility:visible;display:inline;overflow:visible;enable-background:accumulate" />
      </g>
      <g
         id="g77163"
         transform="matrix(0.45956435,0,0,0.45956435,311.46181,162.89232)">
        <path
           d="m 190.63129,519.37268 c 0,6.71446 -5.44315,12.15761 -12.15761,12.15761 -6.71446,0 -12.15761,-5.44315 -12.15761,-12.15761 0,-6.71446 5.44315,-12.15761 12.15761,-12.15761 6.71446,0 12.15761,5.44315 12.15761,12.15761 z"
           sodipodi:ry="12.157608"
           sodipodi:rx="12.157608"
           sodipodi:cy="519.37268"
           sodipodi:cx="178.47368"
           id="path77165"
           style="color:#000000;fill:#808080;stroke:#282828;stroke-width:1px;stroke-linecap:round;stroke-linejoin:round;stroke-miterlimit:4;stroke-opacity:1;stroke-dasharray:none;stroke-dashoffset:0;marker:none;visibility:visible;display:inline;overflow:visible;enable-background:accumulate"
           sodipodi:type="arc" />
        <path
           inkscape:connector-curvature="0"
           id="path77167"
           d="m 178.1048,508.87274 c -5.54862,0 -10.04554,4.52274 -10.04554,10.07136 0,3.56238 1.8783,6.66053 4.67415,8.44445 -0.66029,-1.33852 -1.05879,-2.84827 -1.05879,-4.44173 0,-5.54861 4.49692,-10.04554 10.04554,-10.04554 1.98138,0 3.84076,0.58511 5.39722,1.57527 -1.64174,-3.31439 -5.06327,-5.60381 -9.01258,-5.60381 z"
           style="color:#000000;fill:#cccccc;stroke:none;stroke-width:1px;marker:none;visibility:visible;display:inline;overflow:visible;enable-background:accumulate" />
        <path
           inkscape:connector-curvature="0"
           id="path77169"
           d="m 186.3579,510.45963 c 2.0124,2.84081 2.84954,6.13218 2.05882,9.30393 -1.5977,6.40886 -9.27329,10.07542 -17.57157,8.63941 1.32893,1.13385 2.90268,2.00146 4.70338,2.45933 6.31894,1.60676 12.72956,-2.26315 14.32051,-8.64489 1.10314,-4.42498 -0.37833,-8.89683 -3.51114,-11.75778 z"
           style="color:#000000;fill:#4d4d4d;stroke:none;stroke-width:1px;marker:none;visibility:visible;display:inline;overflow:visible;enable-background:accumulate" />
      </g>
      <g
         id="g77171"
         transform="matrix(0.45956435,0,0,0.45956435,438.22211,188.67407)">
        <path
           d="m 190.63129,519.37268 c 0,6.71446 -5.44315,12.15761 -12.15761,12.15761 -6.71446,0 -12.15761,-5.44315 -12.15761,-12.15761 0,-6.71446 5.44315,-12.15761 12.15761,-12.15761 6.71446,0 12.15761,5.44315 12.15761,12.15761 z"
           sodipodi:ry="12.157608"
           sodipodi:rx="12.157608"
           sodipodi:cy="519.37268"
           sodipodi:cx="178.47368"
           id="path77173"
           style="color:#000000;fill:#808080;stroke:#282828;stroke-width:1px;stroke-linecap:round;stroke-linejoin:round;stroke-miterlimit:4;stroke-opacity:1;stroke-dasharray:none;stroke-dashoffset:0;marker:none;visibility:visible;display:inline;overflow:visible;enable-background:accumulate"
           sodipodi:type="arc" />
        <path
           inkscape:connector-curvature="0"
           id="path77175"
           d="m 178.1048,508.87274 c -5.54862,0 -10.04554,4.52274 -10.04554,10.07136 0,3.56238 1.8783,6.66053 4.67415,8.44445 -0.66029,-1.33852 -1.05879,-2.84827 -1.05879,-4.44173 0,-5.54861 4.49692,-10.04554 10.04554,-10.04554 1.98138,0 3.84076,0.58511 5.39722,1.57527 -1.64174,-3.31439 -5.06327,-5.60381 -9.01258,-5.60381 z"
           style="color:#000000;fill:#cccccc;stroke:none;stroke-width:1px;marker:none;visibility:visible;display:inline;overflow:visible;enable-background:accumulate" />
        <path
           inkscape:connector-curvature="0"
           id="path77177"
           d="m 186.3579,510.45963 c 2.0124,2.84081 2.84954,6.13218 2.05882,9.30393 -1.5977,6.40886 -9.27329,10.07542 -17.57157,8.63941 1.32893,1.13385 2.90268,2.00146 4.70338,2.45933 6.31894,1.60676 12.72956,-2.26315 14.32051,-8.64489 1.10314,-4.42498 -0.37833,-8.89683 -3.51114,-11.75778 z"
           style="color:#000000;fill:#4d4d4d;stroke:none;stroke-width:1px;marker:none;visibility:visible;display:inline;overflow:visible;enable-background:accumulate" />
      </g>
      <g
         id="g77179"
         transform="matrix(0.45956435,0,0,0.45956435,464.54099,173.63471)">
        <path
           d="m 190.63129,519.37268 c 0,6.71446 -5.44315,12.15761 -12.15761,12.15761 -6.71446,0 -12.15761,-5.44315 -12.15761,-12.15761 0,-6.71446 5.44315,-12.15761 12.15761,-12.15761 6.71446,0 12.15761,5.44315 12.15761,12.15761 z"
           sodipodi:ry="12.157608"
           sodipodi:rx="12.157608"
           sodipodi:cy="519.37268"
           sodipodi:cx="178.47368"
           id="path77181"
           style="color:#000000;fill:#808080;stroke:#282828;stroke-width:1px;stroke-linecap:round;stroke-linejoin:round;stroke-miterlimit:4;stroke-opacity:1;stroke-dasharray:none;stroke-dashoffset:0;marker:none;visibility:visible;display:inline;overflow:visible;enable-background:accumulate"
           sodipodi:type="arc" />
        <path
           inkscape:connector-curvature="0"
           id="path77183"
           d="m 178.1048,508.87274 c -5.54862,0 -10.04554,4.52274 -10.04554,10.07136 0,3.56238 1.8783,6.66053 4.67415,8.44445 -0.66029,-1.33852 -1.05879,-2.84827 -1.05879,-4.44173 0,-5.54861 4.49692,-10.04554 10.04554,-10.04554 1.98138,0 3.84076,0.58511 5.39722,1.57527 -1.64174,-3.31439 -5.06327,-5.60381 -9.01258,-5.60381 z"
           style="color:#000000;fill:#cccccc;stroke:none;stroke-width:1px;marker:none;visibility:visible;display:inline;overflow:visible;enable-background:accumulate" />
        <path
           inkscape:connector-curvature="0"
           id="path77185"
           d="m 186.3579,510.45963 c 2.0124,2.84081 2.84954,6.13218 2.05882,9.30393 -1.5977,6.40886 -9.27329,10.07542 -17.57157,8.63941 1.32893,1.13385 2.90268,2.00146 4.70338,2.45933 6.31894,1.60676 12.72956,-2.26315 14.32051,-8.64489 1.10314,-4.42498 -0.37833,-8.89683 -3.51114,-11.75778 z"
           style="color:#000000;fill:#4d4d4d;stroke:none;stroke-width:1px;marker:none;visibility:visible;display:inline;overflow:visible;enable-background:accumulate" />
      </g>
      <g
         id="g77187"
         transform="matrix(0.45956435,0,0,0.45956435,479.58034,150.00144)">
        <path
           d="m 190.63129,519.37268 c 0,6.71446 -5.44315,12.15761 -12.15761,12.15761 -6.71446,0 -12.15761,-5.44315 -12.15761,-12.15761 0,-6.71446 5.44315,-12.15761 12.15761,-12.15761 6.71446,0 12.15761,5.44315 12.15761,12.15761 z"
           sodipodi:ry="12.157608"
           sodipodi:rx="12.157608"
           sodipodi:cy="519.37268"
           sodipodi:cx="178.47368"
           id="path77189"
           style="color:#000000;fill:#808080;stroke:#282828;stroke-width:1px;stroke-linecap:round;stroke-linejoin:round;stroke-miterlimit:4;stroke-opacity:1;stroke-dasharray:none;stroke-dashoffset:0;marker:none;visibility:visible;display:inline;overflow:visible;enable-background:accumulate"
           sodipodi:type="arc" />
        <path
           inkscape:connector-curvature="0"
           id="path77191"
           d="m 178.1048,508.87274 c -5.54862,0 -10.04554,4.52274 -10.04554,10.07136 0,3.56238 1.8783,6.66053 4.67415,8.44445 -0.66029,-1.33852 -1.05879,-2.84827 -1.05879,-4.44173 0,-5.54861 4.49692,-10.04554 10.04554,-10.04554 1.98138,0 3.84076,0.58511 5.39722,1.57527 -1.64174,-3.31439 -5.06327,-5.60381 -9.01258,-5.60381 z"
           style="color:#000000;fill:#cccccc;stroke:none;stroke-width:1px;marker:none;visibility:visible;display:inline;overflow:visible;enable-background:accumulate" />
        <path
           inkscape:connector-curvature="0"
           id="path77193"
           d="m 186.3579,510.45963 c 2.0124,2.84081 2.84954,6.13218 2.05882,9.30393 -1.5977,6.40886 -9.27329,10.07542 -17.57157,8.63941 1.32893,1.13385 2.90268,2.00146 4.70338,2.45933 6.31894,1.60676 12.72956,-2.26315 14.32051,-8.64489 1.10314,-4.42498 -0.37833,-8.89683 -3.51114,-11.75778 z"
           style="color:#000000;fill:#4d4d4d;stroke:none;stroke-width:1px;marker:none;visibility:visible;display:inline;overflow:visible;enable-background:accumulate" />
      </g>
      <g
         id="g77195"
         transform="matrix(0.45956435,0,0,0.45956435,493.00834,165.57791)">
        <path
           d="m 190.63129,519.37268 c 0,6.71446 -5.44315,12.15761 -12.15761,12.15761 -6.71446,0 -12.15761,-5.44315 -12.15761,-12.15761 0,-6.71446 5.44315,-12.15761 12.15761,-12.15761 6.71446,0 12.15761,5.44315 12.15761,12.15761 z"
           sodipodi:ry="12.157608"
           sodipodi:rx="12.157608"
           sodipodi:cy="519.37268"
           sodipodi:cx="178.47368"
           id="path77197"
           style="color:#000000;fill:#808080;stroke:#282828;stroke-width:1px;stroke-linecap:round;stroke-linejoin:round;stroke-miterlimit:4;stroke-opacity:1;stroke-dasharray:none;stroke-dashoffset:0;marker:none;visibility:visible;display:inline;overflow:visible;enable-background:accumulate"
           sodipodi:type="arc" />
        <path
           inkscape:connector-curvature="0"
           id="path77199"
           d="m 178.1048,508.87274 c -5.54862,0 -10.04554,4.52274 -10.04554,10.07136 0,3.56238 1.8783,6.66053 4.67415,8.44445 -0.66029,-1.33852 -1.05879,-2.84827 -1.05879,-4.44173 0,-5.54861 4.49692,-10.04554 10.04554,-10.04554 1.98138,0 3.84076,0.58511 5.39722,1.57527 -1.64174,-3.31439 -5.06327,-5.60381 -9.01258,-5.60381 z"
           style="color:#000000;fill:#cccccc;stroke:none;stroke-width:1px;marker:none;visibility:visible;display:inline;overflow:visible;enable-background:accumulate" />
        <path
           inkscape:connector-curvature="0"
           id="path77201"
           d="m 186.3579,510.45963 c 2.0124,2.84081 2.84954,6.13218 2.05882,9.30393 -1.5977,6.40886 -9.27329,10.07542 -17.57157,8.63941 1.32893,1.13385 2.90268,2.00146 4.70338,2.45933 6.31894,1.60676 12.72956,-2.26315 14.32051,-8.64489 1.10314,-4.42498 -0.37833,-8.89683 -3.51114,-11.75778 z"
           style="color:#000000;fill:#4d4d4d;stroke:none;stroke-width:1px;marker:none;visibility:visible;display:inline;overflow:visible;enable-background:accumulate" />
      </g>
      <g
         id="g77203"
         transform="matrix(0.45956435,0,0,0.45956435,501.60226,129.05376)">
        <path
           d="m 190.63129,519.37268 c 0,6.71446 -5.44315,12.15761 -12.15761,12.15761 -6.71446,0 -12.15761,-5.44315 -12.15761,-12.15761 0,-6.71446 5.44315,-12.15761 12.15761,-12.15761 6.71446,0 12.15761,5.44315 12.15761,12.15761 z"
           sodipodi:ry="12.157608"
           sodipodi:rx="12.157608"
           sodipodi:cy="519.37268"
           sodipodi:cx="178.47368"
           id="path77205"
           style="color:#000000;fill:#808080;stroke:#282828;stroke-width:1px;stroke-linecap:round;stroke-linejoin:round;stroke-miterlimit:4;stroke-opacity:1;stroke-dasharray:none;stroke-dashoffset:0;marker:none;visibility:visible;display:inline;overflow:visible;enable-background:accumulate"
           sodipodi:type="arc" />
        <path
           inkscape:connector-curvature="0"
           id="path77207"
           d="m 178.1048,508.87274 c -5.54862,0 -10.04554,4.52274 -10.04554,10.07136 0,3.56238 1.8783,6.66053 4.67415,8.44445 -0.66029,-1.33852 -1.05879,-2.84827 -1.05879,-4.44173 0,-5.54861 4.49692,-10.04554 10.04554,-10.04554 1.98138,0 3.84076,0.58511 5.39722,1.57527 -1.64174,-3.31439 -5.06327,-5.60381 -9.01258,-5.60381 z"
           style="color:#000000;fill:#cccccc;stroke:none;stroke-width:1px;marker:none;visibility:visible;display:inline;overflow:visible;enable-background:accumulate" />
        <path
           inkscape:connector-curvature="0"
           id="path77209"
           d="m 186.3579,510.45963 c 2.0124,2.84081 2.84954,6.13218 2.05882,9.30393 -1.5977,6.40886 -9.27329,10.07542 -17.57157,8.63941 1.32893,1.13385 2.90268,2.00146 4.70338,2.45933 6.31894,1.60676 12.72956,-2.26315 14.32051,-8.64489 1.10314,-4.42498 -0.37833,-8.89683 -3.51114,-11.75778 z"
           style="color:#000000;fill:#4d4d4d;stroke:none;stroke-width:1px;marker:none;visibility:visible;display:inline;overflow:visible;enable-background:accumulate" />
      </g>
      <g
         id="g77211"
         transform="matrix(0.45956435,0,0,0.45956435,522.01282,154.2984)">
        <path
           d="m 190.63129,519.37268 c 0,6.71446 -5.44315,12.15761 -12.15761,12.15761 -6.71446,0 -12.15761,-5.44315 -12.15761,-12.15761 0,-6.71446 5.44315,-12.15761 12.15761,-12.15761 6.71446,0 12.15761,5.44315 12.15761,12.15761 z"
           sodipodi:ry="12.157608"
           sodipodi:rx="12.157608"
           sodipodi:cy="519.37268"
           sodipodi:cx="178.47368"
           id="path77213"
           style="color:#000000;fill:#808080;stroke:#282828;stroke-width:1px;stroke-linecap:round;stroke-linejoin:round;stroke-miterlimit:4;stroke-opacity:1;stroke-dasharray:none;stroke-dashoffset:0;marker:none;visibility:visible;display:inline;overflow:visible;enable-background:accumulate"
           sodipodi:type="arc" />
        <path
           inkscape:connector-curvature="0"
           id="path77215"
           d="m 178.1048,508.87274 c -5.54862,0 -10.04554,4.52274 -10.04554,10.07136 0,3.56238 1.8783,6.66053 4.67415,8.44445 -0.66029,-1.33852 -1.05879,-2.84827 -1.05879,-4.44173 0,-5.54861 4.49692,-10.04554 10.04554,-10.04554 1.98138,0 3.84076,0.58511 5.39722,1.57527 -1.64174,-3.31439 -5.06327,-5.60381 -9.01258,-5.60381 z"
           style="color:#000000;fill:#cccccc;stroke:none;stroke-width:1px;marker:none;visibility:visible;display:inline;overflow:visible;enable-background:accumulate" />
        <path
           inkscape:connector-curvature="0"
           id="path77217"
           d="m 186.3579,510.45963 c 2.0124,2.84081 2.84954,6.13218 2.05882,9.30393 -1.5977,6.40886 -9.27329,10.07542 -17.57157,8.63941 1.32893,1.13385 2.90268,2.00146 4.70338,2.45933 6.31894,1.60676 12.72956,-2.26315 14.32051,-8.64489 1.10314,-4.42498 -0.37833,-8.89683 -3.51114,-11.75778 z"
           style="color:#000000;fill:#4d4d4d;stroke:none;stroke-width:1px;marker:none;visibility:visible;display:inline;overflow:visible;enable-background:accumulate" />
      </g>
      <g
         id="g77219"
         transform="matrix(0.45956435,0,0,0.45956435,533.82945,126.36816)">
        <path
           d="m 190.63129,519.37268 c 0,6.71446 -5.44315,12.15761 -12.15761,12.15761 -6.71446,0 -12.15761,-5.44315 -12.15761,-12.15761 0,-6.71446 5.44315,-12.15761 12.15761,-12.15761 6.71446,0 12.15761,5.44315 12.15761,12.15761 z"
           sodipodi:ry="12.157608"
           sodipodi:rx="12.157608"
           sodipodi:cy="519.37268"
           sodipodi:cx="178.47368"
           id="path77221"
           style="color:#000000;fill:#808080;stroke:#282828;stroke-width:1px;stroke-linecap:round;stroke-linejoin:round;stroke-miterlimit:4;stroke-opacity:1;stroke-dasharray:none;stroke-dashoffset:0;marker:none;visibility:visible;display:inline;overflow:visible;enable-background:accumulate"
           sodipodi:type="arc" />
        <path
           inkscape:connector-curvature="0"
           id="path77223"
           d="m 178.1048,508.87274 c -5.54862,0 -10.04554,4.52274 -10.04554,10.07136 0,3.56238 1.8783,6.66053 4.67415,8.44445 -0.66029,-1.33852 -1.05879,-2.84827 -1.05879,-4.44173 0,-5.54861 4.49692,-10.04554 10.04554,-10.04554 1.98138,0 3.84076,0.58511 5.39722,1.57527 -1.64174,-3.31439 -5.06327,-5.60381 -9.01258,-5.60381 z"
           style="color:#000000;fill:#cccccc;stroke:none;stroke-width:1px;marker:none;visibility:visible;display:inline;overflow:visible;enable-background:accumulate" />
        <path
           inkscape:connector-curvature="0"
           id="path77225"
           d="m 186.3579,510.45963 c 2.0124,2.84081 2.84954,6.13218 2.05882,9.30393 -1.5977,6.40886 -9.27329,10.07542 -17.57157,8.63941 1.32893,1.13385 2.90268,2.00146 4.70338,2.45933 6.31894,1.60676 12.72956,-2.26315 14.32051,-8.64489 1.10314,-4.42498 -0.37833,-8.89683 -3.51114,-11.75778 z"
           style="color:#000000;fill:#4d4d4d;stroke:none;stroke-width:1px;marker:none;visibility:visible;display:inline;overflow:visible;enable-background:accumulate" />
      </g>
      <g
         id="g77227"
         transform="matrix(0.45956435,0,0,0.45956435,522.01282,103.272)">
        <path
           d="m 190.63129,519.37268 c 0,6.71446 -5.44315,12.15761 -12.15761,12.15761 -6.71446,0 -12.15761,-5.44315 -12.15761,-12.15761 0,-6.71446 5.44315,-12.15761 12.15761,-12.15761 6.71446,0 12.15761,5.44315 12.15761,12.15761 z"
           sodipodi:ry="12.157608"
           sodipodi:rx="12.157608"
           sodipodi:cy="519.37268"
           sodipodi:cx="178.47368"
           id="path77229"
           style="color:#000000;fill:#808080;stroke:#282828;stroke-width:1px;stroke-linecap:round;stroke-linejoin:round;stroke-miterlimit:4;stroke-opacity:1;stroke-dasharray:none;stroke-dashoffset:0;marker:none;visibility:visible;display:inline;overflow:visible;enable-background:accumulate"
           sodipodi:type="arc" />
        <path
           inkscape:connector-curvature="0"
           id="path77231"
           d="m 178.1048,508.87274 c -5.54862,0 -10.04554,4.52274 -10.04554,10.07136 0,3.56238 1.8783,6.66053 4.67415,8.44445 -0.66029,-1.33852 -1.05879,-2.84827 -1.05879,-4.44173 0,-5.54861 4.49692,-10.04554 10.04554,-10.04554 1.98138,0 3.84076,0.58511 5.39722,1.57527 -1.64174,-3.31439 -5.06327,-5.60381 -9.01258,-5.60381 z"
           style="color:#000000;fill:#cccccc;stroke:none;stroke-width:1px;marker:none;visibility:visible;display:inline;overflow:visible;enable-background:accumulate" />
        <path
           inkscape:connector-curvature="0"
           id="path77233"
           d="m 186.3579,510.45963 c 2.0124,2.84081 2.84954,6.13218 2.05882,9.30393 -1.5977,6.40886 -9.27329,10.07542 -17.57157,8.63941 1.32893,1.13385 2.90268,2.00146 4.70338,2.45933 6.31894,1.60676 12.72956,-2.26315 14.32051,-8.64489 1.10314,-4.42498 -0.37833,-8.89683 -3.51114,-11.75778 z"
           style="color:#000000;fill:#4d4d4d;stroke:none;stroke-width:1px;marker:none;visibility:visible;display:inline;overflow:visible;enable-background:accumulate" />
      </g>
      <g
         id="g77235"
         transform="matrix(0.45956435,0,0,0.45956435,548.86882,103.272)">
        <path
           d="m 190.63129,519.37268 c 0,6.71446 -5.44315,12.15761 -12.15761,12.15761 -6.71446,0 -12.15761,-5.44315 -12.15761,-12.15761 0,-6.71446 5.44315,-12.15761 12.15761,-12.15761 6.71446,0 12.15761,5.44315 12.15761,12.15761 z"
           sodipodi:ry="12.157608"
           sodipodi:rx="12.157608"
           sodipodi:cy="519.37268"
           sodipodi:cx="178.47368"
           id="path77237"
           style="color:#000000;fill:#808080;stroke:#282828;stroke-width:1px;stroke-linecap:round;stroke-linejoin:round;stroke-miterlimit:4;stroke-opacity:1;stroke-dasharray:none;stroke-dashoffset:0;marker:none;visibility:visible;display:inline;overflow:visible;enable-background:accumulate"
           sodipodi:type="arc" />
        <path
           inkscape:connector-curvature="0"
           id="path77239"
           d="m 178.1048,508.87274 c -5.54862,0 -10.04554,4.52274 -10.04554,10.07136 0,3.56238 1.8783,6.66053 4.67415,8.44445 -0.66029,-1.33852 -1.05879,-2.84827 -1.05879,-4.44173 0,-5.54861 4.49692,-10.04554 10.04554,-10.04554 1.98138,0 3.84076,0.58511 5.39722,1.57527 -1.64174,-3.31439 -5.06327,-5.60381 -9.01258,-5.60381 z"
           style="color:#000000;fill:#cccccc;stroke:none;stroke-width:1px;marker:none;visibility:visible;display:inline;overflow:visible;enable-background:accumulate" />
        <path
           inkscape:connector-curvature="0"
           id="path77241"
           d="m 186.3579,510.45963 c 2.0124,2.84081 2.84954,6.13218 2.05882,9.30393 -1.5977,6.40886 -9.27329,10.07542 -17.57157,8.63941 1.32893,1.13385 2.90268,2.00146 4.70338,2.45933 6.31894,1.60676 12.72956,-2.26315 14.32051,-8.64489 1.10314,-4.42498 -0.37833,-8.89683 -3.51114,-11.75778 z"
           style="color:#000000;fill:#4d4d4d;stroke:none;stroke-width:1px;marker:none;visibility:visible;display:inline;overflow:visible;enable-background:accumulate" />
      </g>
      <g
         id="g77243"
         transform="matrix(0.45956435,0,0,0.45956435,557.99985,80.712963)">
        <path
           d="m 190.63129,519.37268 c 0,6.71446 -5.44315,12.15761 -12.15761,12.15761 -6.71446,0 -12.15761,-5.44315 -12.15761,-12.15761 0,-6.71446 5.44315,-12.15761 12.15761,-12.15761 6.71446,0 12.15761,5.44315 12.15761,12.15761 z"
           sodipodi:ry="12.157608"
           sodipodi:rx="12.157608"
           sodipodi:cy="519.37268"
           sodipodi:cx="178.47368"
           id="path77245"
           style="color:#000000;fill:#808080;stroke:#282828;stroke-width:1px;stroke-linecap:round;stroke-linejoin:round;stroke-miterlimit:4;stroke-opacity:1;stroke-dasharray:none;stroke-dashoffset:0;marker:none;visibility:visible;display:inline;overflow:visible;enable-background:accumulate"
           sodipodi:type="arc" />
        <path
           inkscape:connector-curvature="0"
           id="path77247"
           d="m 178.1048,508.87274 c -5.54862,0 -10.04554,4.52274 -10.04554,10.07136 0,3.56238 1.8783,6.66053 4.67415,8.44445 -0.66029,-1.33852 -1.05879,-2.84827 -1.05879,-4.44173 0,-5.54861 4.49692,-10.04554 10.04554,-10.04554 1.98138,0 3.84076,0.58511 5.39722,1.57527 -1.64174,-3.31439 -5.06327,-5.60381 -9.01258,-5.60381 z"
           style="color:#000000;fill:#cccccc;stroke:none;stroke-width:1px;marker:none;visibility:visible;display:inline;overflow:visible;enable-background:accumulate" />
        <path
           inkscape:connector-curvature="0"
           id="path77249"
           d="m 186.3579,510.45963 c 2.0124,2.84081 2.84954,6.13218 2.05882,9.30393 -1.5977,6.40886 -9.27329,10.07542 -17.57157,8.63941 1.32893,1.13385 2.90268,2.00146 4.70338,2.45933 6.31894,1.60676 12.72956,-2.26315 14.32051,-8.64489 1.10314,-4.42498 -0.37833,-8.89683 -3.51114,-11.75778 z"
           style="color:#000000;fill:#4d4d4d;stroke:none;stroke-width:1px;marker:none;visibility:visible;display:inline;overflow:visible;enable-background:accumulate" />
      </g>
      <path
         sodipodi:nodetypes="cscccccc"
         inkscape:connector-curvature="0"
         id="path77273"
         d="m 574.92876,355.01139 c 0,0 32.14586,4.59226 40.18233,10.3326 8.03646,5.74033 17.79503,18.36906 17.79503,18.36906 l 40.75636,-65.43979 -36.16409,-12.0547 -31.57183,17.22101 -21.23923,17.79503 z"
         style="color:#000000;fill:#000000;fill-opacity:0.20987657;fill-rule:nonzero;stroke:none;stroke-width:1px;marker:none;visibility:visible;display:inline;overflow:visible;enable-background:accumulate" />
    </g>
  </g>
</svg>
