<?xml version="1.0" encoding="UTF-8" standalone="no"?>
<!-- Generator: Adobe Illustrator 12.0.1, SVG Export Plug-In . SVG Version: 6.00 Build 51448)  -->
<svg
   xmlns:dc="http://purl.org/dc/elements/1.1/"
   xmlns:cc="http://creativecommons.org/ns#"
   xmlns:rdf="http://www.w3.org/1999/02/22-rdf-syntax-ns#"
   xmlns:svg="http://www.w3.org/2000/svg"
   xmlns="http://www.w3.org/2000/svg"
   xmlns:sodipodi="http://sodipodi.sourceforge.net/DTD/sodipodi-0.dtd"
   xmlns:inkscape="http://www.inkscape.org/namespaces/inkscape"
   version="1.1"
   id="Layer_1"
   width="413.847"
   height="343.745"
   viewBox="0 0 413.847 343.745"
   overflow="visible"
   enable-background="new 0 0 413.847 343.745"
   xml:space="preserve"
   sodipodi:version="0.32"
   inkscape:version="0.46"
   sodipodi:docname="card_trick_colorized.svg"
   inkscape:output_extension="org.inkscape.output.svg.inkscape"
   inkscape:export-filename="/media/vfat/nathan/images/svg/card_trick_colorized.png"
   inkscape:export-xdpi="45"
   inkscape:export-ydpi="45"><metadata
   id="metadata386"><rdf:RDF><cc:Work
       rdf:about=""><dc:format>image/svg+xml</dc:format><dc:type
         rdf:resource="http://purl.org/dc/dcmitype/StillImage" /></cc:Work></rdf:RDF></metadata><defs
   id="defs384"><inkscape:perspective
   sodipodi:type="inkscape:persp3d"
   inkscape:vp_x="0 : 171.8725 : 1"
   inkscape:vp_y="0 : 1000 : 0"
   inkscape:vp_z="413.84698 : 171.8725 : 1"
   inkscape:persp3d-origin="206.92349 : 114.58167 : 1"
   id="perspective388" />
	
	
	
	
	
	
	
	
	
	
	
	
	
	
	
	
	
	
	
	
	
	
	
	
	
	
	
	
	
	
	
	
	
	
	
	
	
	
	
	
	
	
	
	
	
	
	
	
	
	
	
	
	
	
</defs><sodipodi:namedview
   inkscape:window-height="821"
   inkscape:window-width="993"
   inkscape:pageshadow="2"
   inkscape:pageopacity="0"
   guidetolerance="10.0"
   gridtolerance="10.0"
   objecttolerance="10.0"
   borderopacity="1.0"
   bordercolor="#666666"
   pagecolor="#ffffff"
   id="base"
   showgrid="false"
   inkscape:zoom="0.68382762"
   inkscape:cx="103.20062"
   inkscape:cy="71.56051"
   inkscape:window-x="80"
   inkscape:window-y="72"
   inkscape:current-layer="Layer_1" />
<path
   style="fill:#374f30;fill-rule:evenodd;stroke:none;stroke-width:1px;stroke-linecap:butt;stroke-linejoin:miter;stroke-opacity:1;fill-opacity:1"
   d="M 47.824464,276.01522 L 44.205316,280.92692 L 1.2925531,254.30033 L 0.77553186,230.77586 L 37.74255,168.73332 L 38.776593,157.87587 L 47.824464,137.19502 L 49.375528,183.98544 L 24.299998,208.02693 L 27.402126,227.41523 L 28.177657,240.08225 L 30.504253,249.64714 L 37.74255,262.83118 L 47.824464,276.01522 z"
   id="path3762"
   sodipodi:nodetypes="cccccccccccccc" /><path
   style="fill:#374f30;fill-rule:evenodd;stroke:none;stroke-width:1px;stroke-linecap:butt;stroke-linejoin:miter;stroke-opacity:1;fill-opacity:1"
   d="M 84.274462,268.00139 L 76.777654,291.26735 L 72.124463,324.61522 L 72.641484,331.85352 L 76.260633,322.80564 L 80.655313,302.64182 L 90.220206,279.89288 L 84.274462,268.00139 z"
   id="path3760" /><path
   style="fill:#374f30;fill-rule:evenodd;stroke:none;stroke-width:1px;stroke-linecap:butt;stroke-linejoin:miter;stroke-opacity:1;fill-opacity:1"
   d="M 173.47209,79.789585 C 173.83768,80.520763 182.42902,99.896992 182.42902,99.896992 L 219.17074,105.56363 L 235.80505,182.88575 L 302.34229,238.27251 L 348.95491,241.92841 L 353.34198,239.73487 L 343.10549,218.53069 L 342.92269,188.91797 L 317.87983,192.39107 L 307.27774,186.72443 L 269.43926,148.52036 L 243.66522,105.56363 L 215.51485,99.896992 L 204.72996,94.961538 L 184.07417,86.552985 L 176.94518,79.60679 L 173.65488,80.703558 L 173.47209,79.789585 z"
   id="path3758" /><path
   style="fill:#3f5b38;fill-rule:evenodd;stroke:none;stroke-width:1px;stroke-linecap:butt;stroke-linejoin:miter;stroke-opacity:1;fill-opacity:1"
   d="M 176.57959,99.531403 C 178.04195,99.531403 219.71912,104.64965 219.71912,104.64965 L 218.98794,198.24049 L 197.41818,254.90682 L 113.33266,292.56251 L 96.149966,221.6382 L 91.031716,213.22965 C 91.031716,213.22965 77.870504,125.12265 79.332861,124.02588 C 80.795218,122.92911 91.762895,111.23026 91.762895,111.23026 L 176.57959,99.531403 z"
   id="path3756" /><path
   style="fill:#527649;fill-rule:evenodd;stroke:none;stroke-width:1px;stroke-linecap:butt;stroke-linejoin:miter;stroke-opacity:1;fill-opacity:1"
   d="M 194.12788,171.91807 L 195.59023,186.90723 L 196.687,201.16521 L 194.49347,225.65968 L 162.6872,270.26157 L 142.5798,278.67012 L 116.25737,241.01443 L 108.58,212.49847 L 104.55852,178.13309 L 194.12788,171.91807 z"
   id="path3754" /><path
   style="fill:#2f432a;fill-rule:evenodd;stroke:none;stroke-width:1px;stroke-linecap:butt;stroke-linejoin:miter;stroke-opacity:1;fill-opacity:1"
   d="M 115.89178,240.10046 L 118.26811,254.54123 L 118.99929,259.65948 L 120.09606,273.00349 L 110.77353,311.20756 L 123.20357,322.72362 C 123.20357,322.72362 137.46155,341.36867 138.19273,341.18588 C 138.9239,341.00308 154.64424,318.33655 154.64424,318.33655 L 165.06353,339.54073 L 194.67626,313.58389 L 193.76229,237.54133 L 194.31067,223.28335 L 189.00963,228.4016 L 174.20326,250.15416 L 159.76249,266.78847 L 155.37542,270.26157 L 152.8163,268.98201 L 146.41848,273.91746 L 139.65508,268.61642 L 125.21431,250.88534 L 116.98855,240.64884 L 115.89178,240.10046 z"
   id="path3752" /><path
   style="fill:#ffffff;fill-rule:evenodd;stroke:none;stroke-width:1px;stroke-linecap:butt;stroke-linejoin:miter;stroke-opacity:1;fill-opacity:1"
   d="M 51.185103,144.04555 L 50.668081,183.59768 L 53.253187,210.9998 L 85.69627,214.10193 L 91.512759,213.71416 L 93.839355,188.76789 L 95.261163,152.31789 L 91.254248,144.56257 L 82.981909,144.82108 L 51.185103,144.04555 z"
   id="path3750" /><path
   style="fill:#f0e2cf;fill-rule:evenodd;stroke:none;stroke-width:1px;stroke-linecap:butt;stroke-linejoin:miter;stroke-opacity:1;fill-opacity:1"
   d="M 32.537441,227.30484 L 29.247138,244.30474 L 31.989057,254.54123 L 49.902929,276.65938 L 52.279259,271.54113 L 52.279259,264.59494 L 56.30074,251.06814 L 57.031919,237.54133 L 64.709292,231.14352 L 67.999595,225.65968 L 67.085622,222.36938 L 76.956531,212.86406 L 76.225353,206.83184 L 80.06404,204.45551 L 78.967272,201.16521 C 78.967272,201.16521 65.623266,199.52006 66.902828,199.52006 C 68.18239,199.52006 72.93505,197.69211 73.666228,197.50931 C 74.397407,197.32652 76.042558,194.5846 76.042558,194.5846 L 73.849023,191.1115 L 69.461952,188.55238 L 54.655589,189.10076 L 44.053501,192.02548 L 27.967576,202.99315 L 32.537441,227.30484 z"
   id="path3748" /><path
   style="fill:#ffffff;fill-rule:evenodd;stroke:none;stroke-width:1px;stroke-linecap:butt;stroke-linejoin:miter;stroke-opacity:1;fill-opacity:1"
   d="M 27.236397,224.92851 L 27.236397,237.72413 L 30.343906,243.57356 C 30.343906,243.57356 31.989057,242.84238 31.989057,242.1112 C 31.989057,241.38002 33.451414,225.65968 33.451414,225.65968 L 27.236397,224.92851 z"
   id="path3746" /><path
   style="fill:#ffffff;fill-rule:evenodd;stroke:none;stroke-width:1px;stroke-linecap:butt;stroke-linejoin:miter;stroke-opacity:1;fill-opacity:1"
   d="M 361.39784,232.32693 L 357.7787,241.11629 L 355.71061,242.40884 L 349.76487,235.42905 L 345.11168,220.17693 L 361.39784,232.32693 z"
   id="path3744" /><path
   style="fill:#ffffff;fill-rule:evenodd;stroke:none;stroke-width:1px;stroke-linecap:butt;stroke-linejoin:miter;stroke-opacity:1;fill-opacity:1"
   d="M 369.15316,151.15459 L 365.2755,161.49502 L 370.18721,169.50885 L 360.88082,219.65991 L 362.94891,224.57161 L 397.84784,229.48331 L 410.77337,167.95778 L 409.48082,160.71949 L 404.0521,158.6514 L 379.23508,153.48119 L 369.15316,151.15459 z"
   id="path3742" /><path
   style="fill:#f0e2cf;fill-rule:evenodd;stroke:none;stroke-width:1px;stroke-linecap:butt;stroke-linejoin:miter;stroke-opacity:1;fill-opacity:1"
   d="M 384.14678,228.44927 L 374.58189,234.1365 L 360.62231,233.10246 L 352.86699,228.44927 L 345.88721,225.34714 L 342.78508,208.54395 L 344.07763,189.15565 L 354.93508,178.0397 L 363.98295,161.49502 L 367.86061,164.33863 L 369.41167,171.57693 L 366.82657,182.69289 L 360.88082,192.51629 L 362.17338,198.46204 L 361.91487,190.1897 L 366.05104,183.98544 L 366.82657,187.8631 L 360.62231,220.95246 L 362.43189,224.57161 L 384.14678,228.44927 z"
   id="path3740" /><path
   style="fill:#f0e2cf;fill-rule:evenodd;stroke:none;stroke-width:1px;stroke-linecap:butt;stroke-linejoin:miter;stroke-opacity:1;fill-opacity:1"
   d="M 411.5489,171.57693 L 413.35848,178.0397 L 412.06593,186.31204 L 408.44678,195.35991 L 406.6372,211.90459 L 407.67125,218.62586 C 407.67125,218.62586 407.03535,222.46012 406.12018,223.79608 C 405.12073,225.25507 401.46699,227.41523 401.46699,227.41523 L 398.36486,217.33331 L 387.50742,220.17693 L 384.14678,217.59182 L 386.47337,212.42161 L 396.29678,203.89076 L 399.91593,198.20353 L 397.07231,190.44821 L 401.98401,182.69289 L 411.5489,171.57693 z"
   id="path3738"
   sodipodi:nodetypes="ccccccscccccccccc" /><path
   style="fill:#f0e2cf;fill-rule:evenodd;stroke:none;stroke-width:1px;stroke-linecap:butt;stroke-linejoin:miter;stroke-opacity:1;fill-opacity:1"
   d="M 394.4872,147.27693 L 389.31699,152.96417 L 389.05848,161.75353 L 399.39891,162.52906 L 403.01805,155.80778 L 402.50103,149.86204 L 399.65742,146.5014 L 394.4872,147.27693 z"
   id="path3736" /><path
   style="fill:#ffffff;fill-rule:evenodd;stroke:none;stroke-width:1px;stroke-linecap:butt;stroke-linejoin:miter;stroke-opacity:1;fill-opacity:1"
   d="M 110.04236,108.67113 C 111.50471,109.40231 152.8163,113.78938 152.8163,113.78938 L 164.14956,96.606689 L 166.3431,80.155174 L 173.65488,79.423996 L 180.60108,103.91847 L 187.91286,137.55268 L 193.03111,174.84278 L 184.62256,207.38022 L 165.24633,250.88534 L 153.54747,269.1648 L 146.96687,274.64864 L 145.8701,269.53039 L 122.83798,225.2941 L 107.11764,180.69221 L 101.99939,151.07948 L 107.84882,116.7141 L 110.04236,108.67113 z"
   id="path3734" /><path
   style="fill:#f0e2cf;fill-rule:evenodd;stroke:none;stroke-width:1px;stroke-linecap:butt;stroke-linejoin:miter;stroke-opacity:1;fill-opacity:1"
   d="M 96.16595,41.28758 L 92.546801,49.301409 L 97.717014,74.376939 L 100.56063,80.322683 L 100.04361,87.560981 L 107.0234,99.71098 L 112.96914,109.53438 L 116.58829,112.11949 L 119.43191,122.71842 L 126.15318,128.40566 L 137.01063,128.92268 L 148.12658,124.528 L 151.74573,118.58226 L 153.2968,113.41204 L 164.41275,97.642895 L 166.73935,87.04396 L 168.0319,79.03013 L 172.42658,77.737577 L 175.52871,67.138642 L 180.1819,57.83226 L 178.37233,49.301409 L 171.39254,42.321623 L 171.39254,15.436518 L 135.71807,1.993966 L 96.16595,41.28758 z"
   id="path3724" /><path
   style="fill:#d6ae76;fill-rule:evenodd;stroke:none;stroke-width:1px;stroke-linecap:butt;stroke-linejoin:miter;stroke-opacity:1;fill-opacity:1"
   d="M 172.68509,52.920558 L 169.84148,57.056728 L 171.90956,60.158855 L 176.56275,58.607791 L 172.68509,52.920558 z"
   id="path3730" /><path
   style="fill:#d6ae76;fill-rule:evenodd;stroke:#000000;stroke-width:1px;stroke-linecap:butt;stroke-linejoin:miter;stroke-opacity:1;fill-opacity:1"
   d="M 114.26169,46.716303 C 115.55425,47.233324 127.18722,51.110984 127.18722,51.110984 C 127.18722,51.110984 173.71914,21.382262 173.20211,20.34822 C 172.68509,19.314177 165.18829,9.7492846 165.18829,9.7492846 L 135.20105,2.2524766 L 109.34999,27.328007 L 114.26169,46.716303 z"
   id="path3728" /><path
   style="fill:#e2c69f;fill-rule:evenodd;stroke:none;stroke-width:1px;stroke-linecap:butt;stroke-linejoin:miter;stroke-opacity:1;fill-opacity:1"
   d="M 99.785099,74.376939 L 99.268078,86.526938 L 107.54042,100.228 L 111.67659,109.79289 L 116.32978,111.86098 L 119.94893,123.49396 L 128.22127,128.66417 L 137.78616,128.92268 L 147.86807,124.528 L 150.9702,121.42587 L 151.74573,114.7046 L 151.48722,104.36417 L 152.00424,95.833321 L 142.95637,102.5546 L 137.26914,105.39821 L 127.96276,104.62268 L 116.8468,111.34396 L 111.9351,108.50034 L 112.45212,92.989704 L 111.67659,82.90779 L 104.43829,74.376939 L 99.785099,74.376939 z"
   id="path3726" /><path
   style="fill:#7b0000;fill-rule:evenodd;stroke:none;stroke-width:1px;stroke-linecap:butt;stroke-linejoin:miter;stroke-opacity:1;fill-opacity:1"
   d="M 121.37562,126.03662 L 119.36488,144.68167 L 135.99919,138.28386 L 140.93465,139.74622 L 144.95613,138.46666 L 157.20337,137.36989 L 167.07427,140.4774 L 166.89148,124.02588 L 162.13882,124.75706 L 152.8163,128.04736 C 152.8163,128.04736 150.75459,129.17419 149.89158,129.69251 C 148.49621,130.53055 143.12818,128.41295 142.39701,128.23016 C 141.66583,128.04736 140.84035,128.92331 138.74111,129.69251 C 136.11055,130.6564 129.41858,129.14413 129.41858,129.14413 L 121.37562,126.03662 z"
   id="path3722"
   sodipodi:nodetypes="ccccccccccssscc" /><path
   style="fill-rule:evenodd"
   id="path5"
   d="M 170.285,53.182 C 174.47,44.83 181.875,61.664 173.367,61.658 C 173.303,62.878 173.738,64.597 172.596,64.74 L 171.697,63.584 L 170.284,63.969 C 170.782,60.902 168.244,60.871 168.743,57.804 L 170.156,58.189 L 171.055,57.033 C 172.299,56.816 172.381,57.762 173.367,57.804 C 173.507,56.123 172.736,55.353 171.055,55.492 L 171.44,54.079 L 170.285,53.182 z"
   clip-rule="evenodd" /><path
   style="fill-rule:evenodd"
   id="path7"
   d="M 128.677,77.068 C 132.775,72.583 141.974,67.284 147.94,73.215 L 146.894,74.151 L 147.169,75.527 C 141.574,73.044 137.648,77.432 135.611,80.921 C 132.47,81.494 132.958,78.438 129.446,79.38 L 129.831,77.967 L 128.677,77.068 z"
   clip-rule="evenodd" /><path
   style="fill-rule:evenodd"
   id="path9"
   d="M 126.597,79.611 L 127.907,80.15 C 127.723,82.277 125.042,81.908 124.054,83.232 C 121.978,82.36 122.026,77.903 125.595,78.609 L 126.597,79.611 z"
   clip-rule="evenodd" /><path
   style="fill-rule:evenodd"
   id="path11"
   d="M 126.365,96.331 C 123.487,95.507 124.169,98.244 121.742,97.872 C 121.664,95.483 122.684,94.191 123.283,92.478 C 125.197,92.362 126.481,92.876 127.136,94.019 L 125.98,94.918 L 126.365,96.331 z"
   clip-rule="evenodd" /><path
   style="fill-rule:evenodd"
   id="path13"
   d="M 146.399,134.086 C 147.085,134.427 147.777,134.763 147.94,135.627 C 154.232,135.499 159.936,135.96 164.891,137.168 C 161.899,143.687 150.347,136.823 144.087,139.48 C 142.407,137.869 144.472,137.281 144.087,134.857 L 145.5,135.242 L 146.399,134.086 z"
   clip-rule="evenodd" /><path
   style="fill-rule:evenodd;fill:#ae0000;fill-opacity:1"
   id="path15"
   d="M 70.888,157.973 C 68.632,160.083 68.09,163.907 65.494,165.678 C 59.558,161.612 60.901,153.854 65.494,149.497 C 69.724,149.891 69.471,154.766 70.888,157.973 z"
   clip-rule="evenodd" /><path
   style="fill-rule:evenodd;fill:#ae0000;fill-opacity:1"
   id="path17"
   d="M 82.446,149.497 C 89.924,153.081 85.395,160.604 82.446,165.678 C 79.134,164.366 78.679,160.199 77.052,157.202 C 78.176,153.96 79.54,150.958 82.446,149.497 z"
   clip-rule="evenodd" /><path
   style="fill-rule:evenodd"
   id="path19"
   d="M 396.818,153.35 C 397.57,156.453 392.214,156.453 392.965,153.35 C 394.433,151.906 394.901,153.265 396.818,153.35 z"
   clip-rule="evenodd" /><path
   style="fill-rule:evenodd;fill:#ae0000;fill-opacity:1"
   id="path21"
   d="M 57.019,171.071 C 55.012,169.511 53.211,167.595 53.166,165.677 C 53.004,158.806 58.983,157.914 59.33,164.136 C 59.483,166.883 57.061,167.245 57.019,171.071 z"
   clip-rule="evenodd" /><path
   style="fill-rule:evenodd"
   id="path23"
   d="M 376.014,165.678 C 380.34,165.914 378.923,171.876 375.243,169.531 C 374.998,167.744 375.368,166.572 376.014,165.678 z"
   clip-rule="evenodd" /><path
   style="fill-rule:evenodd"
   id="path25"
   d="M 377.555,175.695 C 377.695,177.376 376.924,178.146 375.243,178.007 C 375.03,175.036 370.212,173.774 372.931,170.301 C 376.249,169.294 375.368,172.488 376.784,173.383 L 376.398,174.796 L 377.555,175.695 z"
   clip-rule="evenodd" /><path
   style="fill-rule:evenodd"
   id="path27"
   d="M 378.71,173.768 L 377.555,173.383 C 377.017,170.534 378.774,169.979 381.408,170.301 C 381.283,171.197 381.578,171.672 382.179,171.842 C 382.034,174.009 380.838,175.125 378.326,174.924 L 378.71,173.768 z"
   clip-rule="evenodd" /><path
   style="fill-rule:evenodd"
   id="path29"
   d="M 151.792,178.777 C 152.945,180.789 152.955,187.301 147.169,186.482 C 145.019,182.948 146.872,177.71 151.792,178.777 z"
   clip-rule="evenodd" /><path
   style="fill-rule:evenodd"
   id="path31"
   d="M 412.228,183.4 C 414.821,183.704 414.293,189.369 410.687,188.023 C 410.318,185.599 411.785,185.011 412.228,183.4 z"
   clip-rule="evenodd" /><path
   style="fill-rule:evenodd"
   id="path33"
   d="M 402.982,187.252 C 403.753,187.252 404.523,187.252 405.294,187.252 C 405.294,188.536 405.294,189.82 405.294,191.105 C 403.127,191.216 403.072,189.218 402.982,187.252 z"
   clip-rule="evenodd" /><path
   style="fill-rule:evenodd;fill:#ae0000;fill-opacity:1"
   id="path35"
   d="M 87.839,190.334 C 90.797,191.699 90.723,198.151 88.61,200.351 C 83.578,198.908 84.962,193.298 87.839,190.334 z"
   clip-rule="evenodd" /><path
   style="fill-rule:evenodd;fill:#ae0000;fill-opacity:1"
   id="path37"
   d="M 88.61,201.892 C 88.719,204.865 91.214,205.453 90.922,208.827 C 88.701,210.235 88.512,210.077 85.528,209.598 C 87.678,206.274 85.834,206.759 84.757,203.434 C 86.227,203.105 86.151,201.232 88.61,201.892 z"
   clip-rule="evenodd" /><path
   style="fill-rule:evenodd"
   id="path39"
   d="M 359.062,212.679 C 359.954,215.893 358.998,216.481 358.292,219.614 C 355.618,218.249 356.689,216.62 353.668,218.843 C 352.094,215.981 353.938,214.001 354.439,211.138 C 355.822,211.04 356.065,212.081 357.521,211.909 L 357.907,213.065 L 359.062,212.679 z"
   clip-rule="evenodd" /><path
   style="fill-rule:evenodd"
   id="path41"
   d="M 393.736,210.368 C 395.256,211.199 395.052,216.761 392.195,215.762 C 390.611,212.948 392.542,212.301 393.736,210.368 z"
   clip-rule="evenodd" /><path
   style="fill-rule:evenodd"
   id="path43"
   d="M 164.891,336.733 C 165.405,336.733 165.918,336.733 166.432,336.733 L 166.047,338.146 L 167.202,339.045 C 166.498,340.396 165.77,341.722 163.349,341.357 C 163.664,339.501 161.942,339.682 162.578,337.503 L 163.991,337.889 L 164.891,336.733 z"
   clip-rule="evenodd" /><path
   style="fill-rule:evenodd"
   id="path45"
   d="M 139.85,339.43 L 140.235,340.586 C 140.333,341.968 139.292,342.211 139.464,343.668 C 138.44,342.894 136.597,342.939 136.382,341.356 L 137.537,340.457 L 137.152,339.045 C 138.396,339.262 138.478,338.316 139.464,338.274 L 139.85,339.43 z"
   clip-rule="evenodd" /><path
   style="fill-rule:evenodd"
   id="path47"
   d="M 378.326,232.713 C 378.538,235.417 381.196,230.779 381.408,233.484 C 380.171,241.328 371.178,235.895 365.998,235.025 L 367.153,234.126 L 366.768,232.714 C 370.599,232.949 373.837,232.592 376.785,231.943 L 377.17,233.098 L 378.326,232.713 z"
   clip-rule="evenodd" /><path
   style="fill-rule:evenodd"
   id="path49"
   d="M 349.431,241.831 L 350.586,242.73 C 351.263,244.092 353.028,244.979 351.357,246.583 C 345.707,247.457 341.063,245.174 338.258,248.895 C 339.154,245.125 336.652,248.966 335.946,248.895 C 335.372,248.837 334.759,247.655 333.634,247.354 C 329.038,246.126 323.854,249.377 320.535,249.666 C 308.44,250.717 295.629,246.764 288.173,240.42 C 279.87,233.356 270.905,225.441 262.746,217.304 C 255.002,209.58 245.504,200.52 236.548,194.189 C 236.548,191.877 236.548,189.566 236.548,187.254 C 231.24,196.039 232.757,205.731 228.843,214.222 C 227.766,216.56 224.697,217.959 223.449,220.387 C 220.761,225.622 220.959,231.012 220.367,237.338 C 216.512,242.215 216.868,251.304 214.203,257.371 C 217.151,261.092 215.752,265.297 216.515,269.699 C 218.461,280.929 222.651,293.946 220.368,304.373 C 217.564,317.178 215.586,331.46 211.122,342.899 C 210.227,343.545 209.057,343.915 207.269,343.67 L 207.654,342.899 L 207.269,342.128 C 209.724,329.405 214.258,314.732 211.892,299.749 C 206.511,308.494 199.175,315.284 196.482,326.717 L 195.069,326.332 L 194.171,327.487 C 191.163,297.19 182.828,264.137 192.629,235.796 L 193.528,236.951 L 194.941,236.566 C 194.799,237.221 195.241,237.293 195.712,237.337 C 202.324,213.946 211.524,188.001 213.434,159.514 C 214.672,141.053 213.76,121.359 210.352,105.577 C 198.529,103.344 190.241,104.067 181.072,101.724 C 180.903,104.205 182.435,104.984 181.843,107.888 L 180.43,107.503 L 179.531,108.659 C 176.209,101.965 176.703,91.454 174.137,84.002 L 175.55,84.387 L 176.449,83.231 C 177.071,83.766 178.559,84.43 178.761,83.231 L 180.174,83.616 L 181.073,82.46 C 184.578,83.877 185.348,83.279 187.237,86.313 L 186.081,87.212 L 186.466,88.625 C 185.881,88.201 184.707,89.169 184.925,89.396 C 187.102,91.657 204.273,99.189 207.27,97.872 C 206.473,98.222 205.82,97.522 205.729,97.101 L 206.884,96.202 L 206.5,94.79 C 221.974,96.525 236.731,98.975 247.338,105.577 C 250.138,111.502 254.767,116.479 258.125,122.529 C 263.126,131.539 265.898,142.237 274.306,147.956 C 274.306,149.24 274.306,150.525 274.306,151.809 L 273.304,152.81 L 272.765,154.12 C 260.384,142.101 252.946,125.14 244.256,109.43 C 241.4,107.123 230.654,102.034 226.533,104.807 C 230.431,105.018 234.358,105.201 235.009,108.66 C 233.806,109.768 232.327,110.601 231.927,112.513 C 236.197,121.086 234.459,135.665 237.321,145.645 L 238.477,146.03 L 239.633,145.645 C 241.076,147.113 239.717,147.581 239.633,149.498 C 241.657,149.499 241.669,145.009 241.945,142.563 C 242.297,139.427 243.056,134.279 241.174,134.087 C 241.11,135.307 241.544,137.026 240.403,137.169 L 239.505,136.013 L 238.092,136.398 C 238.602,127.92 235.765,118.701 238.092,110.971 C 243.616,110.44 245.818,119.6 247.339,125.611 C 249.368,126.729 250.064,128.403 251.192,130.234 C 252.172,131.827 252.464,134.173 253.504,135.628 C 255.367,138.237 258.262,138.618 258.898,141.792 C 261.345,154.019 247.324,158.491 241.947,166.449 L 241.048,165.293 L 239.636,165.678 C 238.905,163.758 242.387,161.03 238.865,161.055 C 239.224,164.089 237.25,165.056 239.636,166.449 L 240.534,167.605 L 241.947,167.22 C 241.865,167.358 242.052,168.738 241.947,168.761 C 249.853,167.052 255.002,152.569 263.521,149.498 C 267.445,152.508 271.443,155.445 273.538,160.285 C 271.076,167.583 260.148,166.415 255.816,171.843 C 263.18,170.218 268.204,166.252 276.62,165.679 C 285.334,172.89 292.888,181.26 299.736,190.336 C 297.505,196.324 288.922,195.96 285.095,200.353 C 292.477,201.083 297.976,196.43 302.818,191.107 C 308.249,190.298 311.019,192.152 312.064,195.73 C 307.612,199.497 304.022,204.126 299.736,208.058 C 298.826,206.913 299.069,204.616 296.653,204.976 L 295.755,203.821 L 294.342,204.206 C 289.115,201.231 285.213,212.422 292.03,213.452 C 293.478,212.332 292.124,208.409 293.571,207.288 L 294.727,207.674 L 295.882,207.288 C 298.339,210.482 295.727,218.745 301.277,218.846 C 301.649,206.634 308.302,200.702 316.687,196.501 C 323.631,198.826 331.179,193.909 339.802,193.419 C 341.406,199.244 337.394,203.137 338.261,211.911 C 338.605,215.386 340.178,219.477 341.343,223.47 C 342.596,227.763 343.228,232.599 344.425,235.028 C 345.405,237.014 347.769,240.032 349.819,240.422 L 349.431,241.831 z M 240.402,155.661 C 240.526,155.124 240.133,151.177 239.632,153.349 C 238.955,156.283 240.045,157.208 240.402,155.661 z M 237.32,180.318 C 237.303,175.934 239.353,173.618 240.402,170.301 C 239.418,170.259 239.336,169.314 238.09,169.53 C 237.824,172.628 235.172,177.364 237.32,180.318 z M 265.83,185.711 C 262.206,186.592 258.826,189.666 256.584,190.334 C 264.454,189.729 270.77,187.568 278.929,187.252 C 276.222,183.905 270.169,184.657 265.83,185.711 z M 282.781,210.368 C 282.912,208.44 281.597,207.956 280.469,207.286 C 280.252,209.301 280.75,210.6 282.781,210.368 z M 286.633,222.697 C 290.667,223.182 298.137,227.935 301.274,224.238 C 299.31,220.649 296.222,224.053 293.568,223.467 C 288.664,222.384 287.305,218.194 283.551,215.761 C 283.806,218.846 285.65,220.341 286.633,222.697 z"
   clip-rule="evenodd" /><path
   style="fill-rule:evenodd"
   id="path51"
   d="M 149.096,272.652 L 150.252,273.55 C 149.261,274.871 148.659,276.58 146.399,276.632 C 146.324,274.653 143.391,275.53 143.317,273.55 L 144.362,272.614 L 144.087,271.238 C 145.331,271.021 145.413,271.967 146.399,272.009 L 147.94,273.165 L 147.94,271.238 C 148.454,271.238 148.967,271.238 149.481,271.238 L 149.096,272.652 z"
   clip-rule="evenodd" /><path
   style="fill-rule:evenodd"
   id="path53"
   d="M 105.176,184.556 L 104.02,184.941 C 103.137,175.76 99.768,163.869 101.708,152.579 L 102.607,153.735 L 104.02,153.35 C 104.434,165.008 107.286,174.227 109.414,184.171 L 108.258,183.786 L 107.872,184.942 C 107.358,184.942 106.845,184.942 106.331,184.942 L 105.176,184.556 z"
   clip-rule="evenodd" /><path
   style="fill-rule:evenodd"
   id="path55"
   d="M 106.974,123.685 L 105.561,124.07 C 104.992,121.247 107.457,119.789 105.561,117.906 C 100.897,114.412 92.675,117.563 87.069,117.906 C 84.284,123.2 80.342,137.528 85.528,143.333 L 84.372,144.232 L 84.757,145.645 C 73.142,146.885 59.98,143.544 52.395,145.645 C 51.346,161.688 51.459,175.835 52.395,188.794 C 52.909,188.794 53.422,188.794 53.936,188.794 L 53.551,190.206 L 54.707,191.105 C 43.239,192.222 37.279,198.848 30.821,204.974 C 31.134,216.323 34.087,221.018 36.215,229.631 L 35.059,229.245 L 34.674,230.401 C 34.417,230.401 34.16,230.401 33.903,230.401 L 33.004,229.245 L 31.591,229.631 C 31.917,228.02 31.063,227.59 30.82,226.549 C 29.726,226.483 28.638,226.421 28.508,227.32 L 27.352,226.934 L 26.196,227.32 C 25.541,227.462 25.469,227.019 25.425,226.549 C 24.18,226.331 24.098,227.277 23.113,227.32 L 22.214,226.164 L 20.801,226.55 C 21.005,223.206 17.811,226.223 17.718,227.321 C 18.745,227.321 19.773,227.321 20.801,227.321 L 21.957,227.706 L 23.113,227.321 C 20.283,250.483 32.842,264.82 42.376,278.175 C 41.825,280.268 46.009,277.624 45.458,279.717 C 45.362,286.832 37.149,287.211 29.277,289.734 C 23.063,291.724 17.955,296.202 15.407,296.669 C 8.403,297.951 3.694,294.859 0.767,290.505 C -0.19,276.194 2.643,261.397 0,251.976 L 1.156,252.362 L 2.312,251.976 C 4.666,245.597 5.599,237.798 9.247,232.713 C 5.522,233.098 4.431,236.115 2.312,238.107 L 1.413,236.951 L 0,237.336 C 0.979,230.362 -0.911,223.861 0.771,218.072 C 2.364,212.589 8.5,205.91 13.099,199.58 C 17.613,193.367 21.552,186.139 25.428,181.088 C 27.903,177.861 30.39,176.181 32.363,172.612 C 33.238,171.028 33.815,169.082 34.675,167.218 C 36.354,163.578 37.408,161.509 39.298,156.431 C 44.351,159.34 44.871,166.782 46.233,173.382 C 47.261,170.103 46.562,164.405 44.692,159.513 C 43.598,156.651 41.36,155.648 41.61,153.349 C 41.821,151.404 43.954,147.382 47.774,148.725 C 45.763,143.54 46.184,136.068 50.857,131.774 C 54.855,128.099 61.963,127.546 67.808,124.839 C 80.404,119.006 89.752,105.549 98.629,102.494 C 98.483,101.87 97.856,101.726 97.858,100.953 L 99.014,100.054 L 98.629,98.641 C 100.986,98.082 100.896,99.97 103.252,99.412 C 103.66,98.792 104.056,98.161 104.023,97.1 L 105.436,97.485 L 106.335,96.329 C 108.332,98.364 109.2,97.062 111.729,97.87 L 112.665,98.915 L 114.041,98.64 C 112.929,101.123 113.312,105.103 113.27,108.657 L 112.114,109.556 L 112.499,110.969 C 108.734,113.368 110.663,121.462 107.875,124.839 L 106.974,123.685 z"
   clip-rule="evenodd" /><path
   style="fill-rule:evenodd"
   id="path57"
   d="M 95.416,220.77 L 96.315,219.614 C 107.446,235.451 115.72,254.146 116.349,280.485 C 116.863,280.485 117.376,280.485 117.89,280.485 L 118.275,281.641 L 119.431,281.256 C 116.772,292.823 113.399,305.449 110.185,318.24 C 108.354,325.522 108.914,334.404 104.791,340.586 C 100.357,338.38 100.943,331.798 100.168,327.486 C 97.711,313.822 93.966,298.111 90.151,285.108 C 89.637,285.108 89.124,285.108 88.61,285.108 L 88.995,283.952 L 87.839,283.567 C 86.117,279.244 84.275,286.845 83.986,288.961 L 82.573,288.575 L 81.674,289.731 C 81.05,289.585 80.906,288.958 80.133,288.96 C 79.818,291.727 79.938,294.929 77.821,295.895 L 76.922,294.739 L 75.509,295.125 C 76.303,266.033 88.374,251.041 96.313,228.09 C 96.631,224.433 93.684,224.041 94.001,220.385 L 95.416,220.77 z M 84.757,275.862 C 84.544,274.511 86.926,272.018 84.757,271.239 C 84.97,272.589 82.587,275.083 84.757,275.862 z"
   clip-rule="evenodd" /><path
   style="fill-rule:evenodd"
   id="path59"
   d="M 85.143,291.658 L 86.299,291.273 C 85.34,299.046 82.746,305.185 81.676,312.847 C 79.968,313.271 80.579,311.376 79.364,311.306 L 78.978,310.151 L 77.823,310.536 C 78.68,303.431 80.364,297.153 81.676,290.503 L 82.832,290.888 L 83.988,290.503 C 84.245,290.503 84.502,290.503 84.759,290.503 L 85.143,291.658 z"
   clip-rule="evenodd" /><path
   style="fill-rule:evenodd"
   id="path61"
   d="M 75.125,325.561 L 76.281,325.175 C 76.192,327.671 74.809,335.504 73.969,339.816 L 72.813,339.43 L 71.657,339.045 C 71.4,339.045 71.143,339.045 70.886,339.045 L 69.987,337.889 L 68.574,338.274 C 70.28,333.045 69.835,325.666 71.656,320.552 L 72.555,321.708 L 73.968,321.322 C 74.032,322.543 73.597,324.261 74.739,324.404 L 75.125,325.561 z"
   clip-rule="evenodd" /><path
   style="fill-rule:evenodd;fill:#ae0000;fill-opacity:1"
   id="path63"
   d="M 79.749,205.103 L 78.593,204.204 C 78.593,203.69 78.593,203.177 78.593,202.663 C 75.940125,200.84175 72.687714,200.74293 76.423973,195.36341 C 75.825973,194.67741 78.634603,192.38934 79.990027,190.74041 C 82.607589,195.68805 86.488,197.28192 81.531027,207.01281 C 80.149027,207.11081 80.545808,205.61282 79.088808,205.78482 L 79.749,205.103 z"
   clip-rule="evenodd"
   sodipodi:nodetypes="cccccccc" /><path
   style="fill-rule:evenodd;fill:#ae0000;fill-opacity:1"
   id="path65"
   d="M 73.695,190.5 L 73.97,191.876 C 72.619,191.172 70.674384,190.14864 69.895384,188.87264 L 69.732,189.179 L 69.347,188.024 C 71.193,185.877 66.222,183.991 67.035,180.319 C 69.532,176.908 69.771,171.24 73.97,169.531 C 75.264,173.631 76.318,177.971 78.594,181.089 C 77.326,183.675 72.294,185.735 74.741,189.565 L 73.695,190.5 z"
   clip-rule="evenodd"
   sodipodi:nodetypes="cccccccccc" /><path
   style="fill-rule:evenodd"
   id="path67"
   d="M 47.387,274.707 L 47.772,273.551 C 48.912,274.444 49.714,274.444 50.855,273.551 L 51.24,274.707 L 51.625,275.862 C 52.72,278.23 51.971,279.328 50.854,281.257 C 47.955,281.073 47.849,278.097 47.001,275.862 L 47.387,274.707 z"
   clip-rule="evenodd" /><path
   style="fill-rule:evenodd"
   id="path69"
   d="M 93.618,98 L 94.003,99.413 C 90.941,99.906 89.844,98.435 88.609,97.101 C 88.896,94.525 94.245,95.369 94.773,97.101 L 93.618,98 z"
   clip-rule="evenodd" /><path
   style="fill-rule:evenodd"
   id="path71"
   d="M 100.296,89.782 L 99.397,90.938 C 96.244,87.511 98.267,83.642 97.856,77.839 C 97.917,74.953 94.534,75.51 95.544,71.675 L 96.957,72.06 L 97.856,70.904 C 105.541,70.786 110.855,77.313 114.037,84.003 L 112.624,83.618 L 111.725,84.774 C 110.354,84.089 109.767,82.623 107.101,83.233 C 105.262,81.707 104.564,75.018 100.937,77.839 C 102.063,78.511 103.921,78.451 103.249,80.921 L 102.093,81.306 L 102.478,82.462 C 102.221,82.462 101.964,82.462 101.707,82.462 C 99.901,84.495 101.578,87.716 101.707,90.168 L 100.296,89.782 z"
   clip-rule="evenodd" /><path
   style="fill-rule:evenodd"
   id="path73"
   d="M 95.416,42.78 L 94.003,43.165 C 90.762,40.374 92.777,38.371 94.003,34.689 C 95.79,34.443 96.961,34.813 97.856,35.46 C 98.598,32.664 94.394,34.813 94.774,32.378 C 94.654,30.203 96.952,30.446 97.856,29.295 C 96.697,23.242 103.121,20.71 101.709,16.967 C 102.751,14.336 107.989,14.713 105.562,10.803 C 109.823,10.183 110.424,5.905 115.579,6.18 C 115.613,4.862 115.006,4.184 114.038,3.868 C 125.477,0.709 143.22,-1.715 157.957,1.556 C 164.061,2.911 172.842,8.95 174.909,15.425 C 176.977,21.904 174.776,30.542 177.991,38.541 C 177.648,41.023 176.515,42.715 176.45,45.476 C 176.773,47.978 179.881,47.696 179.532,50.87 L 178.376,50.485 L 177.22,50.87 C 172.901,45.694 164.698,49.906 162.58,57.034 C 161.756,59.807 164.875,66.157 160.268,67.051 C 156.105,61.197 160.869,46.417 154.104,43.165 C 146.255,43.903 123.425,59.236 120.201,49.329 L 119.816,48.944 L 119.431,48.559 C 119.688,48.559 119.945,48.559 120.202,48.559 C 120.132,46.457 121.485,47.008 120.202,45.477 L 120.973,45.477 L 120.973,44.706 C 122.505,36.474 127.47,27.58 127.908,20.82 C 124.157,27.135 120.011,36.998 120.203,44.706 L 119.432,44.706 L 119.432,45.477 C 118.148,47.008 119.502,46.457 119.432,48.559 L 118.276,48.174 L 118.661,49.33 C 111.938,52.752 103.553,45.078 96.316,43.936 L 95.416,42.78 z M 133.3,12.344 C 132.793,8.471 137.944,6.235 136.383,3.868 C 132.53,12.344 131.374,13.243 131.374,13.243 L 131.759,14.656 C 130.441,14.622 129.763,15.229 129.447,16.197 C 131.759,14.656 132.914,13.757 132.914,13.757 L 132.529,12.344 C 132.529,12.344 131.428,9.667 133.3,12.344 z M 165.662,18.508 C 167.574,18.621 169.401,18.652 169.515,16.967 C 167.603,16.854 165.775,16.824 165.662,18.508 z"
   clip-rule="evenodd" /><path
   style="fill-rule:evenodd"
   id="path75"
   d="M 172.725,76.683 L 174.138,76.298 C 176.152,77.623 179.537,77.576 179.532,80.921 L 178.156,80.646 L 177.22,81.691 C 176.47,81.712 176.622,82.634 176.449,83.232 L 175.036,82.847 L 174.137,84.003 C 172.574,83.512 173.63,80.401 171.825,80.15 C 171.172,81.296 169.344,81.265 167.972,81.691 C 167.972,83.489 167.972,85.287 167.972,87.085 L 166.559,86.7 L 165.66,87.856 C 163.786,85.176 165.143,79.147 166.431,77.069 C 167.972,77.069 169.514,77.069 171.055,77.069 C 170.93,76.173 171.225,75.698 171.826,75.528 L 172.725,76.683 z"
   clip-rule="evenodd" /><path
   style="fill-rule:evenodd"
   id="path77"
   d="M 359.705,170.686 L 358.293,171.071 C 358.41,167.336 359.777,164.851 361.375,162.595 L 362.273,163.751 L 363.686,163.366 C 365.038,166.894 365.038,168.313 363.686,171.842 C 362.155,173.126 362.706,171.773 360.604,171.842 L 359.705,170.686 z"
   clip-rule="evenodd" /><path
   style="fill-rule:evenodd"
   id="path79"
   d="M 365.612,153.478 L 364.457,152.579 C 366.206,152.017 365.822,149.321 366.769,147.955 C 370.3,150.671 372.959,151.555 377.556,151.808 L 376.4,152.707 L 376.786,154.12 C 375.541,153.903 375.46,154.848 374.474,154.891 L 373.318,153.542 L 372.163,154.891 C 371.649,154.891 371.136,154.891 370.622,154.891 L 368.31,153.928 L 365.998,154.891 C 365.741,154.891 365.484,154.891 365.227,154.891 L 365.612,153.478 z"
   clip-rule="evenodd" /><path
   style="fill-rule:evenodd"
   id="path81"
   d="M 411.073,170.686 L 412.228,170.301 C 413.372,170.956 413.885,172.24 413.769,174.154 L 412.357,173.769 L 411.458,174.925 C 410.944,174.925 410.431,174.925 409.917,174.925 L 409.532,173.769 L 408.376,173.384 C 408.777,172.244 409.517,171.442 409.917,170.302 L 411.073,170.686 z"
   clip-rule="evenodd" /><path
   style="fill-rule:evenodd"
   id="path83"
   d="M 397.974,189.178 L 399.129,189.564 C 399.003,193.029 398.957,196.414 401.441,197.269 L 401.056,198.682 L 402.211,199.58 C 401.541,200.708 401.058,202.022 399.129,201.892 L 398.231,200.737 L 396.818,201.122 C 396.818,200.608 396.818,200.095 396.818,199.581 C 393.717,197.013 389.712,199.663 387.572,195.728 C 393.995,204.673 381.053,212.136 379.096,203.433 C 378.165,199.296 384.292,195.706 383.719,195.728 C 380.646,194.966 381.399,198.031 378.325,197.269 C 376.407,196.104 374.803,194.627 374.472,191.875 C 376.71,186.354 380.77,185.582 386.03,188.793 L 386.928,189.948 L 388.341,189.563 C 388.341,189.82 388.341,190.077 388.341,190.334 C 390.527,191.329 392.705,187.146 396.817,189.563 C 396.692,188.667 396.987,188.192 397.588,188.022 L 397.974,189.178 z"
   clip-rule="evenodd" /><path
   style="fill-rule:evenodd"
   id="path85"
   d="M 399.258,216.917 L 400.67,216.531 C 401.318,218.452 401.679,220.66 401.441,223.467 C 400.308,226.398 404.885,223.618 403.753,226.549 C 399.762,235.573 388.807,228.164 382.179,231.172 L 381.793,230.016 L 380.638,229.631 C 378.897,228.005 370.285,229.418 367.539,226.549 L 368.694,225.65 L 368.309,224.238 C 377.206,224.842 385.74,225.813 392.965,228.091 C 392.965,226.036 392.965,223.982 392.965,221.927 C 394.931,221.65 398.527,221.394 396.818,218.844 L 397.204,217.432 L 396.048,216.533 C 396.173,215.631 397.453,215.884 398.36,215.762 L 399.258,216.917 z"
   clip-rule="evenodd" /><path
   style="fill-rule:evenodd"
   id="path87"
   d="M 121.357,109.044 L 120.201,108.659 C 121.329,100.675 130.601,102.164 136.382,104.036 L 135.226,104.935 L 135.612,106.348 C 132.941,106.759 128.303,105.204 127.906,107.889 L 126.75,108.788 L 127.135,110.201 C 125.326,112.022 123.35,110.076 120.971,110.201 L 121.357,109.044 z"
   clip-rule="evenodd" /><path
   style="fill-rule:evenodd"
   id="path89"
   d="M 165.277,124.198 L 164.121,123.299 C 164.235,121.614 166.062,121.644 167.974,121.758 C 168.408,123.43 169.814,128.068 167.974,129.463 L 167.075,128.307 L 165.662,128.692 C 165.598,127.472 166.033,125.753 164.891,125.61 L 165.277,124.198 z"
   clip-rule="evenodd" /><path
   style="fill-rule:evenodd"
   id="path91"
   d="M 167.075,135.242 L 167.974,134.086 C 169.27,135.185 169.709,141.941 166.432,141.021 C 165.966,139.176 165.325,137.506 165.661,134.857 L 167.075,135.242 z"
   clip-rule="evenodd" /><path
   style="fill-rule:evenodd"
   id="path93"
   d="M 139.079,135.242 L 140.235,134.857 C 141.858,135.487 142.349,138.919 141.006,140.251 C 138.574,140.628 138.285,138.863 135.612,139.48 L 135.997,138.067 L 134.841,137.168 C 136.206,136.221 137.963,135.667 138.694,134.086 L 139.079,135.242 z"
   clip-rule="evenodd" /><path
   style="fill-rule:evenodd"
   id="path95"
   d="M 134.302,138.941 L 135.612,139.48 C 131.271,143.358 124.785,145.091 118.66,147.185 C 118.489,145.742 116.673,142.079 118.66,141.021 L 119.816,141.406 L 120.972,141.021 C 120.972,141.278 120.972,141.535 120.972,141.792 C 124.812,143.096 128.589,138.272 133.3,137.939 L 134.302,138.941 z"
   clip-rule="evenodd" /><path
   style="fill-rule:evenodd"
   id="path97"
   d="M 191.731,176.08 L 190.318,176.466 C 192.888,160.714 186.694,148.83 185.695,132.546 L 187.108,132.931 L 188.007,131.775 C 192.151,146.096 195.461,160.963 196.483,176.465 L 195.07,176.079 L 194.172,177.235 C 193.658,177.235 193.144,177.235 192.63,177.235 L 191.731,176.08 z"
   clip-rule="evenodd" /><path
   style="fill-rule:evenodd"
   id="path99"
   d="M 389.883,159.514 C 391.851,161.398 397.932,159.171 399.9,161.055 L 399.515,162.211 L 400.67,162.596 C 399.47,168.144 389.033,167.137 388.342,161.825 L 389.344,160.824 L 389.883,159.514 z"
   clip-rule="evenodd" /><path
   style="fill-rule:evenodd"
   id="path101"
   d="M 387.443,186.867 L 386.031,187.253 C 384.996,186.126 384.456,181.15 386.802,181.089 C 389.406,180.796 390.089,182.424 391.425,183.401 C 391.242,185.787 389.281,186.393 388.343,188.024 L 387.443,186.867 z"
   clip-rule="evenodd" /><path
   style="fill-rule:evenodd"
   id="path103"
   d="M 378.71,157.587 L 379.866,157.202 C 381.85,157.785 382.543,159.661 382.178,162.596 C 378.665,160.247 375.557,164.631 374.473,161.825 C 374.803,159.073 376.408,157.596 378.326,156.431 L 378.71,157.587 z"
   clip-rule="evenodd" /><path
   style="fill-rule:evenodd"
   id="path105"
   d="M 371.776,165.292 L 372.932,164.907 C 371.767,167.852 371.609,171.803 369.85,174.153 L 368.951,172.997 L 367.539,173.382 C 367.539,171.584 367.539,169.786 367.539,167.988 L 369.699,167.201 L 369.85,164.906 C 370.107,164.906 370.364,164.906 370.621,164.906 L 371.776,165.292 z"
   clip-rule="evenodd" /><path
   style="fill-rule:evenodd"
   id="path107"
   d="M 368.437,176.85 L 369.85,176.465 C 369.097,180.849 369.09,185.979 367.538,189.564 L 366.639,188.408 L 365.227,188.794 C 365.369,188.139 364.926,188.067 364.456,188.023 L 363.3,187.637 L 362.145,188.023 C 363.936,183.907 365.704,179.768 367.539,175.695 L 368.437,176.85 z"
   clip-rule="evenodd" /><path
   style="fill-rule:evenodd"
   id="path109"
   d="M 364.071,198.425 L 365.998,198.039 C 366.324,199.649 365.47,200.079 365.227,201.121 L 364.071,200.736 L 362.916,200.35 C 358.437,204.229 359.38,192.846 360.604,191.104 L 361.502,192.259 L 362.915,191.874 C 363.358,193.228 361.983,196.401 363.686,196.497 L 364.071,198.425 z"
   clip-rule="evenodd" /><g
   id="g111">
		<path
   style="fill:none;fill-rule:evenodd;stroke:#000000;stroke-width:2.18980002;stroke-linecap:round"
   id="path113"
   d="M 142.161,65.125 C 143.369,61.191 143.458,56.751 145.243,52.796"
   clip-rule="evenodd" />
		<path
   style="fill:none;fill-rule:evenodd;stroke:#000000;stroke-width:2.08660007;stroke-linecap:round"
   id="path115"
   d="M 169.129,68.207 C 171.099,67.456 171.438,65.402 171.697,63.584"
   clip-rule="evenodd" />
		<path
   style="fill:none;fill-rule:evenodd;stroke:#000000;stroke-width:2.36789989;stroke-linecap:round"
   id="path117"
   d="M 171.441,54.081 C 169.655,54.573 169.75,56.782 170.157,58.19"
   clip-rule="evenodd" />
		<path
   style="fill:none;fill-rule:evenodd;stroke:#000000;stroke-width:2.46569991;stroke-linecap:round"
   id="path119"
   d="M 146.894,74.151 C 152.599,76.846 154.281,83.228 150.637,88.241"
   clip-rule="evenodd" />
		<path
   style="fill:none;fill-rule:evenodd;stroke:#000000;stroke-width:2.43659997;stroke-linecap:round"
   id="path121"
   d="M 126.597,79.611 C 127.247,78.927 128.606,78.324 129.833,77.967"
   clip-rule="evenodd" />
		<path
   style="fill:none;fill-rule:evenodd;stroke:#000000;stroke-width:2.16989994;stroke-linecap:round"
   id="path123"
   d="M 131.374,83.232 C 134.867,84.109 138.903,83.344 141.537,80.816 C 141.693,80.355 141.781,79.884 141.905,79.507"
   clip-rule="evenodd" />
		<path
   style="fill:none;fill-rule:evenodd;stroke:#000000;stroke-width:2.15879989;stroke-linecap:round"
   id="path125"
   d="M 131.887,88.498 C 134.005,90.731 136.526,92.824 139.849,92.094"
   clip-rule="evenodd" />
		<path
   style="fill:none;fill-rule:evenodd;stroke:#000000;stroke-width:2.62789989;stroke-linecap:round"
   id="path127"
   d="M 134.07,100.184 C 130.502,99.653 128.662,96.807 125.98,94.919"
   clip-rule="evenodd" />
		<path
   style="fill:none;fill-rule:evenodd;stroke:#000000;stroke-width:2.24640012;stroke-linecap:round"
   id="path129"
   d="M 146.784,109.044 C 146.738,108.53 146.571,108.017 146.399,107.503"
   clip-rule="evenodd" />
		<path
   style="fill:none;fill-rule:evenodd;stroke:#000000;stroke-width:2.38059998;stroke-linecap:round"
   id="path131"
   d="M 125.98,113.667 C 127.264,113.667 128.548,113.667 129.833,113.667"
   clip-rule="evenodd" />
		<path
   style="fill:none;fill-rule:evenodd;stroke:#000000;stroke-width:2.33710003;stroke-linecap:round"
   id="path133"
   d="M 145.243,132.931 C 145.228,133.702 145.36,134.472 145.5,135.243"
   clip-rule="evenodd" />
		<path
   style="fill:none;fill-rule:evenodd;stroke:#ae0000;stroke-width:2.10549997999999983;stroke-linecap:round;stroke-opacity:1"
   id="path135"
   d="M 56.633,156.046 C 56.884,155.901 57.135,155.757 57.386,155.612 C 57.954,154.809 57.914,153.351 57.769,152.349 C 57.04,151.593 56.008,151.053 55.863,149.882"
   clip-rule="evenodd" />
		<path
   style="fill:none;fill-rule:evenodd;stroke:#000000;stroke-width:2.17939997;stroke-linecap:round"
   id="path137"
   d="M 376.399,174.795 C 377.386,174.39 377.977,174.1 378.711,173.768"
   clip-rule="evenodd" />
		<path
   style="fill:none;fill-rule:evenodd;stroke:#000000;stroke-width:1.87689996;stroke-linecap:round"
   id="path139"
   d="M 357.907,213.065 C 358.55,210.793 358.79,208.395 359.448,206.13"
   clip-rule="evenodd" />
		<path
   style="fill:none;fill-rule:evenodd;stroke:#000000;stroke-width:2.21379995;stroke-linecap:round"
   id="path141"
   d="M 166.047,338.146 C 174.006,332.197 181.7,325.358 188.905,318.37"
   clip-rule="evenodd" />
		<path
   style="fill:none;fill-rule:evenodd;stroke:#000000;stroke-width:2.3585999;stroke-linecap:round"
   id="path143"
   d="M 137.538,340.458 C 128.907,333.181 124.003,322.337 115.193,315.159"
   clip-rule="evenodd" />
		<path
   style="fill:none;fill-rule:evenodd;stroke:#000000;stroke-width:2.16330004;stroke-linecap:round"
   id="path145"
   d="M 139.85,339.43 C 145.191,332.784 147.806,323.957 154.361,318.497"
   clip-rule="evenodd" />
		<path
   style="fill:none;fill-rule:evenodd;stroke:#000000;stroke-width:2.70600009;stroke-linecap:round"
   id="path147"
   d="M 154.361,318.498 C 154.694,316.902 155.511,315.517 156.03,314.004"
   clip-rule="evenodd" />
		<path
   style="fill:none;fill-rule:evenodd;stroke:#000000;stroke-width:2.19210005;stroke-linecap:round"
   id="path149"
   d="M 154.361,318.498 C 158.436,324.25 161.752,331.186 163.992,337.89"
   clip-rule="evenodd" />
		<path
   style="fill:none;fill-rule:evenodd;stroke:#000000;stroke-width:2.03859997;stroke-linecap:round"
   id="path151"
   d="M 352.205,239.571 C 351.311,240.258 350.385,241.241 349.432,241.831"
   clip-rule="evenodd" />
		<path
   style="fill:none;fill-rule:evenodd;stroke:#000000;stroke-width:1.24839997;stroke-linecap:round"
   id="path153"
   d="M 204.573,343.283 C 205.894,343.229 206.524,342.906 207.655,342.898"
   clip-rule="evenodd" />
		<path
   style="fill:none;fill-rule:evenodd;stroke:#000000;stroke-width:2.39560008;stroke-linecap:round"
   id="path155"
   d="M 195.327,327.873 C 195.297,327.359 195.185,326.846 195.07,326.332"
   clip-rule="evenodd" />
		<path
   style="fill:none;fill-rule:evenodd;stroke:#000000;stroke-width:2.05349994;stroke-linecap:round"
   id="path157"
   d="M 116.134,240.076 C 115.576,246.455 118.582,252.558 118.66,258.911"
   clip-rule="evenodd" />
		<path
   style="fill:none;fill-rule:evenodd;stroke:#000000;stroke-width:2.5223;stroke-linecap:round"
   id="path159"
   d="M 116.134,240.076 C 110.32,222.066 107.038,203.369 105.176,184.556"
   clip-rule="evenodd" />
		<path
   style="fill:none;fill-rule:evenodd;stroke:#000000;stroke-width:2.60750008;stroke-linecap:round"
   id="path161"
   d="M 102.607,153.735 C 102.316,143.518 104.459,133.599 106.974,123.685"
   clip-rule="evenodd" />
		<path
   style="fill:none;fill-rule:evenodd;stroke:#000000;stroke-width:3.12039995;stroke-linecap:round"
   id="path163"
   d="M 91.603,214.487 C 93.429,216.206 94.801,218.309 95.416,220.77"
   clip-rule="evenodd" />
		<path
   style="fill:none;fill-rule:evenodd;stroke:#000000;stroke-width:1.90690005;stroke-linecap:round"
   id="path165"
   d="M 118.275,281.641 C 118.842,278.285 120.25,275.189 120.201,271.624"
   clip-rule="evenodd" />
		<path
   style="fill:none;fill-rule:evenodd;stroke:#000000;stroke-width:2.38179994;stroke-linecap:round"
   id="path167"
   d="M 72.814,342.512 C 72.814,341.485 72.814,340.457 72.814,339.43"
   clip-rule="evenodd" />
		<path
   style="fill:none;fill-rule:evenodd;stroke:#000000;stroke-width:2.16569996;stroke-linecap:round"
   id="path169"
   d="M 69.347,342.512 C 69.793,340.999 69.571,339.404 69.989,337.889"
   clip-rule="evenodd" />
		<path
   style="fill:none;fill-rule:evenodd;stroke:#000000;stroke-width:2.70020008;stroke-linecap:round"
   id="path171"
   d="M 72.557,321.708 C 74.149,312.687 74.341,303.564 76.923,294.739"
   clip-rule="evenodd" />
		<path
   style="fill:none;fill-rule:evenodd;stroke:#000000;stroke-width:1.9569;stroke-linecap:round"
   id="path173"
   d="M 66.65,222.311 C 70.813,229.452 61.075,234.077 56.826,237.721"
   clip-rule="evenodd" />
		<path
   style="fill:none;fill-rule:evenodd;stroke:#000000;stroke-width:2.99679995;stroke-linecap:round"
   id="path175"
   d="M 56.826,237.721 C 55.247,246.489 57.684,256.909 51.497,264.176"
   clip-rule="evenodd" />
		<path
   style="fill:none;fill-rule:evenodd;stroke:#000000;stroke-width:1.97389996;stroke-linecap:round"
   id="path177"
   d="M 56.826,237.721 C 54.002,238.005 51.485,239.469 49.442,241.317"
   clip-rule="evenodd" />
		<path
   style="fill:none;fill-rule:evenodd;stroke:#000000;stroke-width:2.21140003;stroke-linecap:round"
   id="path179"
   d="M 44.69,235.41 C 48.583,227.053 58.912,225.687 66.65,222.311"
   clip-rule="evenodd" />
		<path
   style="fill:none;fill-rule:evenodd;stroke:#000000;stroke-width:2.3749001;stroke-linecap:round"
   id="path181"
   d="M 66.65,222.311 C 70.548,219.948 73.204,215.949 77.017,213.345"
   clip-rule="evenodd" />
		<path
   style="fill:none;fill-rule:evenodd;stroke:#000000;stroke-width:1.75399995;stroke-linecap:round"
   id="path183"
   d="M 77.017,213.345 C 76.785,211.339 77.87,208.864 75.704,207.479"
   clip-rule="evenodd" />
		<path
   style="fill:none;fill-rule:evenodd;stroke:#000000;stroke-width:2.30789995;stroke-linecap:round"
   id="path185"
   d="M 75.704,207.479 C 64.49,209.587 54.379,215.477 44.305,220.77"
   clip-rule="evenodd" />
		<path
   style="fill:none;fill-rule:evenodd;stroke:#000000;stroke-width:2.00600004;stroke-linecap:round"
   id="path187"
   d="M 75.704,207.479 C 76.812,206.457 78.369,205.851 79.749,205.103"
   clip-rule="evenodd" />
		<path
   style="fill:none;fill-rule:evenodd;stroke:#000000;stroke-width:2.24780011;stroke-linecap:round"
   id="path189"
   d="M 73.450104,197.63393 C 55.544427,197.27136 44.229,207.964 38.14,210.753"
   clip-rule="evenodd"
   sodipodi:nodetypes="cc" />
		<path
   style="fill:none;fill-rule:evenodd;stroke:#000000;stroke-width:1.796;stroke-linecap:round"
   id="path191"
   d="M 38.141,242.344 C 37.264,237.84 36.722,233.391 35.059,229.245"
   clip-rule="evenodd" />
		<path
   style="fill:none;fill-rule:evenodd;stroke:#000000;stroke-width:2.60039997;stroke-linecap:round"
   id="path193"
   d="M 29.28,243.5 C 29.585,256.388 40.161,265.258 47.387,274.706"
   clip-rule="evenodd" />
		<path
   style="fill:none;fill-rule:evenodd;stroke:#000000;stroke-width:2.21790004;stroke-linecap:round"
   id="path195"
   d="M 51.24,274.707 C 51.519,274.104 51.774,273.317 52.011,272.395"
   clip-rule="evenodd" />
		<path
   style="fill:none;fill-rule:evenodd;stroke:#000000;stroke-width:2.52259994;stroke-linecap:round"
   id="path197"
   d="M 29.28,243.5 C 26.535,238.604 27.59,232.431 27.354,226.934"
   clip-rule="evenodd" />
		<path
   style="fill:none;fill-rule:evenodd;stroke:#000000;stroke-width:2.09450006;stroke-linecap:round"
   id="path199"
   d="M 1.156,252.362 C 0.341,247.249 1.174,242.071 1.413,236.951"
   clip-rule="evenodd" />
		<path
   style="fill:none;fill-rule:evenodd;stroke:#000000;stroke-width:2.77819991;stroke-linecap:round"
   id="path201"
   d="M 93.618,98 C 95.478,98.535 97.148,99.528 99.012,100.055"
   clip-rule="evenodd" />
		<path
   style="fill:none;fill-rule:evenodd;stroke:#000000;stroke-width:2.36039996;stroke-linecap:round"
   id="path203"
   d="M 105.433,97.487 C 103.62,94.992 101.956,92.371 100.296,89.782"
   clip-rule="evenodd" />
		<path
   style="fill:none;fill-rule:evenodd;stroke:#000000;stroke-width:3.49320006;stroke-linecap:round"
   id="path205"
   d="M 96.957,72.06 C 95.285,62.488 90.63,52.234 95.416,42.78"
   clip-rule="evenodd" />
		<path
   style="fill:none;fill-rule:evenodd;stroke:#000000;stroke-width:2.72860003;stroke-linecap:round"
   id="path207"
   d="M 186.081,87.213 C 193.458,89.297 199.674,93.706 206.885,96.203"
   clip-rule="evenodd" />
		<path
   style="fill:none;fill-rule:evenodd;stroke:#000000;stroke-width:3.4907999;stroke-linecap:round"
   id="path209"
   d="M 273.303,152.81 C 275.77,156.75 283.358,162.447 290.758,168.722 C 300.416,176.912 306.462,188.85 315.877,191.435 C 324.261,193.737 334.352,188.195 343.31,189.35"
   clip-rule="evenodd" />
		<path
   style="fill:none;fill-rule:evenodd;stroke:#000000;stroke-width:2.50609994;stroke-linecap:round"
   id="path211"
   d="M 343.31,189.35 C 348.64,183.046 357.081,179.069 359.705,170.686"
   clip-rule="evenodd" />
		<path
   style="fill:none;fill-rule:evenodd;stroke:#000000;stroke-width:2.69679999;stroke-linecap:round"
   id="path213"
   d="M 362.273,163.751 C 362.753,162.911 363.495,162.116 364.457,161.054"
   clip-rule="evenodd" />
		<path
   style="fill:none;fill-rule:evenodd;stroke:#000000;stroke-width:2.9612;stroke-linecap:round"
   id="path215"
   d="M 364.457,161.055 C 361.959,159.192 362.643,154.409 365.612,153.478"
   clip-rule="evenodd" />
		<path
   style="fill:none;fill-rule:evenodd;stroke:#000000;stroke-width:2.80850005;stroke-linecap:round"
   id="path217"
   d="M 376.399,152.708 C 377.755,153.161 379.378,153.025 380.508,153.992"
   clip-rule="evenodd" />
		<path
   style="fill:none;fill-rule:evenodd;stroke:#000000;stroke-width:2.60660005;stroke-linecap:round"
   id="path219"
   d="M 380.508,153.992 C 383.278,153.963 385.908,154.665 388.534,155.469"
   clip-rule="evenodd" />
		<path
   style="fill:none;fill-rule:evenodd;stroke:#000000;stroke-width:2.76769996;stroke-linecap:round"
   id="path221"
   d="M 388.535,155.468 C 389.576,147.713 401.077,142.386 403.349,152.183 C 402.857,154.24 402.015,156.374 402.443,158.512"
   clip-rule="evenodd" />
		<path
   style="fill:none;fill-rule:evenodd;stroke:#000000;stroke-width:2.43659997;stroke-linecap:round"
   id="path223"
   d="M 402.443,158.512 C 408.589,159.196 412.763,164.595 411.073,170.686"
   clip-rule="evenodd" />
		<path
   style="fill:none;fill-rule:evenodd;stroke:#000000;stroke-width:1.83420002;stroke-linecap:round"
   id="path225"
   d="M 413,178.392 C 413.173,176.809 413.069,175.225 412.357,173.768"
   clip-rule="evenodd" />
		<path
   style="fill:none;fill-rule:evenodd;stroke:#000000;stroke-width:2.65319991;stroke-linecap:round"
   id="path227"
   d="M 407.991,195.728 C 408.463,194.554 408.964,193.392 409.532,192.26"
   clip-rule="evenodd" />
		<path
   style="fill:none;fill-rule:evenodd;stroke:#000000;stroke-width:2.03859997;stroke-linecap:round"
   id="path229"
   d="M 405.679,212.294 C 407.087,214.026 407.365,216.296 407.22,218.458"
   clip-rule="evenodd" />
		<path
   style="fill:none;fill-rule:evenodd;stroke:#000000;stroke-width:2.43659997;stroke-linecap:round"
   id="path231"
   d="M 131.374,13.243 C 131.888,13.414 132.401,13.585 132.915,13.757"
   clip-rule="evenodd" />
		<path
   style="fill:none;fill-rule:evenodd;stroke:#000000;stroke-width:0.99470001;stroke-linecap:round"
   id="path233"
   d="M 119.431,44.706 C 119.954,44.954 120.502,45.176 120.972,45.477"
   clip-rule="evenodd" />
		<path
   style="fill:none;fill-rule:evenodd;stroke:#000000;stroke-width:2.57870007;stroke-linecap:round"
   id="path235"
   d="M 112.111,109.558 C 113.592,110.276 115.206,110.579 116.734,111.163"
   clip-rule="evenodd" />
		<path
   style="fill:none;fill-rule:evenodd;stroke:#000000;stroke-width:2.19440007;stroke-linecap:round"
   id="path237"
   d="M 116.734,111.164 C 118.332,110.492 120.028,110.226 121.357,109.045"
   clip-rule="evenodd" />
		<path
   style="fill:none;fill-rule:evenodd;stroke:#000000;stroke-width:2.06900001;stroke-linecap:round"
   id="path239"
   d="M 137.538,105.192 C 142.859,102.638 148.884,99.299 152.949,95.175"
   clip-rule="evenodd" />
		<path
   style="fill:none;fill-rule:evenodd;stroke:#000000;stroke-width:2.3348;stroke-linecap:round"
   id="path241"
   d="M 138.309,108.017 C 140.005,109.017 139.837,111.199 139.85,112.897"
   clip-rule="evenodd" />
		<path
   style="fill:none;fill-rule:evenodd;stroke:#000000;stroke-width:2.54430008;stroke-linecap:round"
   id="path243"
   d="M 116.734,111.164 C 116.296,123.346 126.089,132.24 138.116,128.693"
   clip-rule="evenodd" />
		<path
   style="fill:none;fill-rule:evenodd;stroke:#000000;stroke-width:2.09520006;stroke-linecap:round"
   id="path245"
   d="M 138.116,128.693 C 142.827,127.595 148.045,125.798 150.637,121.373"
   clip-rule="evenodd" />
		<path
   style="fill:none;fill-rule:evenodd;stroke:#000000;stroke-width:2.7191999;stroke-linecap:round"
   id="path247"
   d="M 150.637,121.373 C 151.199,119.536 151.816,117.728 152.068,115.814"
   clip-rule="evenodd" />
		<path
   style="fill:none;fill-rule:evenodd;stroke:#000000;stroke-width:2.39409995;stroke-linecap:round"
   id="path249"
   d="M 152.068,115.814 C 150.715,112.506 151.718,108.702 151.407,105.192"
   clip-rule="evenodd" />
		<path
   style="fill:none;fill-rule:evenodd;stroke:#000000;stroke-width:2.76430011;stroke-linecap:round"
   id="path251"
   d="M 152.068,115.814 C 157.493,107.259 168.187,98.01 166.561,86.699"
   clip-rule="evenodd" />
		<path
   style="fill:none;fill-rule:evenodd;stroke:#000000;stroke-width:2.80270004;stroke-linecap:round"
   id="path253"
   d="M 172.725,76.683 C 172.819,67.256 183.743,60.305 178.375,50.485"
   clip-rule="evenodd" />
		<path
   style="fill:none;fill-rule:evenodd;stroke:#000000;stroke-width:0.99470001;stroke-linecap:round"
   id="path255"
   d="M 118.275,48.173 C 118.789,48.594 119.302,48.775 119.816,48.944"
   clip-rule="evenodd" />
		<path
   style="fill:none;fill-rule:evenodd;stroke:#000000;stroke-width:1.88740003;stroke-linecap:round"
   id="path257"
   d="M 102.094,81.306 C 103.965,82.213 104.151,85.255 106.718,85.159"
   clip-rule="evenodd" />
		<path
   style="fill:none;fill-rule:evenodd;stroke:#000000;stroke-width:2.7592001;stroke-linecap:round"
   id="path259"
   d="M 112.661,98.917 C 112.499,93.841 112.799,88.676 112.624,83.617"
   clip-rule="evenodd" />
		<path
   style="fill:none;fill-rule:evenodd;stroke:#000000;stroke-width:2.01419997;stroke-linecap:round"
   id="path261"
   d="M 150.637,121.373 C 151.802,121.811 153.142,123.135 153.527,123.685"
   clip-rule="evenodd" />
		<path
   style="fill:none;fill-rule:evenodd;stroke:#000000;stroke-width:2.1874001;stroke-linecap:round"
   id="path263"
   d="M 153.526,123.685 C 155.892,123.622 157.955,122.373 160.241,122.081 C 160.936,122.475 161.404,123.523 162.194,124.455"
   clip-rule="evenodd" />
		<path
   style="fill:none;fill-rule:evenodd;stroke:#000000;stroke-width:2.38380003;stroke-linecap:round"
   id="path265"
   d="M 162.194,124.455 C 163.221,124.496 164.249,124.411 165.277,124.198"
   clip-rule="evenodd" />
		<path
   style="fill:none;fill-rule:evenodd;stroke:#000000;stroke-width:2.37910008;stroke-linecap:round"
   id="path267"
   d="M 167.075,135.242 C 166.703,132.977 166.649,130.57 167.075,128.307"
   clip-rule="evenodd" />
		<path
   style="fill:none;fill-rule:evenodd;stroke:#000000;stroke-width:1.68809998;stroke-linecap:round"
   id="path269"
   d="M 152.82,127.666 C 151.611,128.889 146.71172,130.17097 146.17572,130.50597"
   clip-rule="evenodd"
   sodipodi:nodetypes="cc" />
		<path
   style="fill:none;fill-rule:evenodd;stroke:#000000;stroke-width:1.56019998;stroke-linecap:round"
   id="path271"
   d="M 138.116,128.693 C 139.571,130.504 139.932,133.094 139.079,135.242"
   clip-rule="evenodd" />
		<path
   style="fill:none;fill-rule:evenodd;stroke:#000000;stroke-width:2.61299992;stroke-linecap:round"
   id="path273"
   d="M 135.997,138.067 C 135.463,138.262 134.895,138.563 134.302,138.941"
   clip-rule="evenodd" />
		<path
   style="fill:none;fill-rule:evenodd;stroke:#000000;stroke-width:2.47020006;stroke-linecap:round"
   id="path275"
   d="M 119.816,141.406 C 119.388,138.749 120.831,136.338 120.587,133.701"
   clip-rule="evenodd" />
		<path
   style="fill:none;fill-rule:evenodd;stroke:#000000;stroke-width:2.22429991;stroke-linecap:round"
   id="path277"
   d="M 149.096,272.652 C 150.763,271.755 151.708,269.858 153.527,269.121"
   clip-rule="evenodd" />
		<path
   style="fill:none;fill-rule:evenodd;stroke:#000000;stroke-width:2.52080011;stroke-linecap:round"
   id="path279"
   d="M 153.526,269.121 C 171.582,240.991 187.195,209.769 191.731,176.08"
   clip-rule="evenodd" />
		<path
   style="fill:none;fill-rule:evenodd;stroke:#000000;stroke-width:3.15700006;stroke-linecap:round"
   id="path281"
   d="M 187.108,132.931 C 184.977,124.419 182.802,116.007 180.43,107.504"
   clip-rule="evenodd" />
		<path
   style="fill:none;fill-rule:evenodd;stroke:#000000;stroke-width:2.43659997;stroke-linecap:round"
   id="path283"
   d="M 175.037,82.847 C 175.208,83.361 175.379,83.874 175.551,84.388"
   clip-rule="evenodd" />
		<path
   style="fill:none;fill-rule:evenodd;stroke:#000000;stroke-width:2.33710003;stroke-linecap:round"
   id="path285"
   d="M 180.173,83.617 C 179.521,82.573 178.655,81.581 178.155,80.645"
   clip-rule="evenodd" />
		<path
   style="fill:none;fill-rule:evenodd;stroke:#000000;stroke-width:2.43269992;stroke-linecap:round"
   id="path287"
   d="M 194.385,222.354 C 195.175,227.34 193.726,232.035 193.529,236.951"
   clip-rule="evenodd" />
		<path
   style="fill:none;fill-rule:evenodd;stroke:#000000;stroke-width:2.36350012;stroke-linecap:round"
   id="path289"
   d="M 238.476,146.029 C 238.375,142.617 239.474,139.443 239.503,136.012"
   clip-rule="evenodd" />
		<path
   style="fill:none;fill-rule:evenodd;stroke:#000000;stroke-width:2.37039995;stroke-linecap:round"
   id="path291"
   d="M 126.75,108.788 C 130.644,109.674 134.423,108.075 138.308,108.017"
   clip-rule="evenodd" />
		<path
   style="fill:none;fill-rule:evenodd;stroke:#000000;stroke-width:1.84759998;stroke-linecap:round"
   id="path293"
   d="M 138.309,108.017 C 138.148,107.221 137.905,106.184 137.538,105.192"
   clip-rule="evenodd" />
		<path
   style="fill:none;fill-rule:evenodd;stroke:#000000;stroke-width:2.38739991;stroke-linecap:round"
   id="path295"
   d="M 137.538,105.192 C 136.767,105.207 135.997,105.075 135.226,104.935"
   clip-rule="evenodd" />
		<path
   style="fill:none;fill-rule:evenodd;stroke:#000000;stroke-width:3.05789995;stroke-linecap:round"
   id="path297"
   d="M 153.526,123.685 C 153.099,124.966 152.236,126.283 152.819,127.666"
   clip-rule="evenodd" />
		<path
   style="fill:none;fill-rule:evenodd;stroke:#000000;stroke-width:2.27029991;stroke-linecap:round"
   id="path299"
   d="M 152.82,127.666 C 156.126,127.703 159.439,126.141 162.195,124.456"
   clip-rule="evenodd" />
		<path
   style="fill:none;fill-rule:evenodd;stroke:#000000;stroke-width:2.90009999;stroke-linecap:round"
   id="path301"
   d="M 53.551,190.206 C 58.81,188.587 64.301,188.504 69.732,189.179"
   clip-rule="evenodd" />
		<path
   style="fill:none;fill-rule:evenodd;stroke:#000000;stroke-width:2.11019993;stroke-linecap:round"
   id="path303"
   d="M 70.221902,189.22044 C 72.914848,189.53085 79.557481,195.03571 73.77667,197.23628"
   clip-rule="evenodd"
   sodipodi:nodetypes="cc" />
		<path
   style="fill:none;fill-rule:evenodd;stroke:#000000;stroke-width:3.14059997;stroke-linecap:round"
   id="path305"
   d="M 77.017,213.345 C 81.651,215.229 86.792,213.722 91.603,214.487"
   clip-rule="evenodd" />
		<path
   style="fill:none;fill-rule:evenodd;stroke:#000000;stroke-width:2.52749991;stroke-linecap:round"
   id="path307"
   d="M 91.603,214.487 C 94.433,199.452 94.185,183.476 94.816,168.96 C 95.238,159.254 99.854,142.468 85.143,144.412 C 84.886,144.352 84.629,144.292 84.372,144.232"
   clip-rule="evenodd" />
		<path
   style="fill:none;fill-rule:evenodd;stroke:#000000;stroke-width:2.41619992;stroke-linecap:round"
   id="path309"
   d="M 388.535,155.468 C 389.134,157.193 388.079,159.337 389.345,160.823"
   clip-rule="evenodd" />
		<path
   style="fill:none;fill-rule:evenodd;stroke:#000000;stroke-width:2.38739991;stroke-linecap:round"
   id="path311"
   d="M 386.929,189.949 C 387.12,188.922 387.195,187.894 387.443,186.867"
   clip-rule="evenodd" />
		<path
   style="fill:none;fill-rule:evenodd;stroke:#000000;stroke-width:1.84130001;stroke-linecap:round"
   id="path313"
   d="M 397.974,189.178 C 400.681,183.334 405.142,178.576 409.532,173.768"
   clip-rule="evenodd" />
		<path
   style="fill:none;fill-rule:evenodd;stroke:#000000;stroke-width:2.5388999;stroke-linecap:round"
   id="path315"
   d="M 402.443,158.512 C 401.122,159.503 401.162,161.528 399.515,162.21"
   clip-rule="evenodd" />
		<path
   style="fill:none;fill-rule:evenodd;stroke:#000000;stroke-width:1.37119997;stroke-linecap:round"
   id="path317"
   d="M 380.508,153.992 C 379.633,155.046 379.277,156.37 378.71,157.588"
   clip-rule="evenodd" />
		<path
   style="fill:none;fill-rule:evenodd;stroke:#000000;stroke-width:2.74020004;stroke-linecap:round"
   id="path319"
   d="M 360.604,222.119 C 361.473,225.868 365.934,224.766 368.694,225.65"
   clip-rule="evenodd" />
		<path
   style="fill:none;fill-rule:evenodd;stroke:#000000;stroke-width:2.2428;stroke-linecap:round"
   id="path321"
   d="M 397.204,217.431 C 393.49,217.465 390.238,219.678 386.501,219.747 C 385.519,219.365 384.877,218.081 384.57,217.541 C 384.901,209.02 395.023,207.494 398.231,200.736"
   clip-rule="evenodd" />
		
			<line
   style="fill:none;fill-rule:evenodd;stroke:#000000;stroke-width:4.6230998;stroke-linecap:round"
   id="line323"
   y2="161.05499"
   x2="364.457"
   y1="161.05499"
   x1="364.457"
   clip-rule="evenodd" />
		<path
   style="fill:none;fill-rule:evenodd;stroke:#000000;stroke-width:2.03859997;stroke-linecap:round"
   id="path325"
   d="M 364.457,161.055 C 366.603,159.168 366.233,155.911 368.31,153.928"
   clip-rule="evenodd" />
		<path
   style="fill:none;fill-rule:evenodd;stroke:#000000;stroke-width:2.079;stroke-linecap:round"
   id="path327"
   d="M 371.776,165.292 C 372.228,161.375 373.339,157.522 373.317,153.542"
   clip-rule="evenodd" />
		<path
   style="fill:none;fill-rule:evenodd;stroke:#000000;stroke-width:2.14120007;stroke-linecap:round"
   id="path329"
   d="M 368.309,153.927 C 369.993,156.63 369.684,160.924 367.593,163.311"
   clip-rule="evenodd" />
		<path
   style="fill:none;fill-rule:evenodd;stroke:#000000;stroke-width:3.68190002;stroke-linecap:round"
   id="path331"
   d="M 367.593,163.311 C 368.21,164.666 368.274,166.358 369.698,167.202"
   clip-rule="evenodd" />
		<path
   style="fill:none;fill-rule:evenodd;stroke:#000000;stroke-width:3.40249991;stroke-linecap:round"
   id="path333"
   d="M 364.457,161.055 C 365.478,161.84 366.524,162.595 367.594,163.311"
   clip-rule="evenodd" />
		<path
   style="fill:none;fill-rule:evenodd;stroke:#000000;stroke-width:2.39560008;stroke-linecap:round"
   id="path335"
   d="M 240.531,167.604 C 240.696,166.833 240.844,166.063 241.045,165.292"
   clip-rule="evenodd" />
		<path
   style="fill:none;fill-rule:evenodd;stroke:#000000;stroke-width:1.88740003;stroke-linecap:round"
   id="path337"
   d="M 357.136,223.082 C 358.103,222.826 359.256,222.651 360.604,222.119"
   clip-rule="evenodd" />
		<path
   style="fill:none;fill-rule:evenodd;stroke:#000000;stroke-width:2.28679991;stroke-linecap:round"
   id="path339"
   d="M 360.604,222.119 C 361.47,214.986 362.896,207.834 364.071,200.737"
   clip-rule="evenodd" />
		<path
   style="fill:none;fill-rule:evenodd;stroke:#000000;stroke-width:2.3276;stroke-linecap:round"
   id="path341"
   d="M 361.502,192.26 C 361.705,190.572 363.006,189.28 363.3,187.637"
   clip-rule="evenodd" />
		<path
   style="fill:none;fill-rule:evenodd;stroke:#000000;stroke-width:2.38380003;stroke-linecap:round"
   id="path343"
   d="M 368.437,176.85 C 368.695,175.566 368.632,174.282 368.951,172.997"
   clip-rule="evenodd" />
		<path
   style="fill:none;fill-rule:evenodd;stroke:#000000;stroke-width:3.22909999;stroke-linecap:round"
   id="path345"
   d="M 343.31,189.35 C 342.23,206.308 341.807,224.887 352.205,239.571"
   clip-rule="evenodd" />
		<path
   style="fill:none;fill-rule:evenodd;stroke:#000000;stroke-width:3.21620011;stroke-linecap:round"
   id="path347"
   d="M 352.205,239.571 C 353.534,240.481 354.535,241.913 356.014,242.577 C 359.765,240.792 359.405,235.936 360.587,232.562"
   clip-rule="evenodd" />
		<path
   style="fill:none;fill-rule:evenodd;stroke:#000000;stroke-width:2.8269999;stroke-linecap:round"
   id="path349"
   d="M 360.586,232.562 C 359.088,230.043 355.408,230.422 353.283,228.475"
   clip-rule="evenodd" />
		<path
   style="fill:none;fill-rule:evenodd;stroke:#000000;stroke-width:2.97309995;stroke-linecap:round"
   id="path351"
   d="M 360.586,232.562 C 362.897,232.374 364.992,233.503 367.152,234.125"
   clip-rule="evenodd" />
		<path
   style="fill:none;fill-rule:evenodd;stroke:#000000;stroke-width:1.94369996;stroke-linecap:round"
   id="path353"
   d="M 377.169,233.098 C 378.221,231.619 380.216,230.992 381.792,230.016"
   clip-rule="evenodd" />
		<path
   style="fill:none;fill-rule:evenodd;stroke:#000000;stroke-width:1.92009997;stroke-linecap:round"
   id="path355"
   d="M 153.526,269.121 C 153.726,269.245 153.925,269.37 154.125,269.495 C 154.763,269.88 155.122,270.007 155.467,270.121 C 171.9,257.476 181.321,237.497 194.385,222.354"
   clip-rule="evenodd" />
		<path
   style="fill:none;fill-rule:evenodd;stroke:#000000;stroke-width:2.59629989;stroke-linecap:round"
   id="path357"
   d="M 194.385,222.354 C 197.456,207.433 196.331,191.288 195.07,176.08"
   clip-rule="evenodd" />
		<path
   style="fill:none;fill-rule:evenodd;stroke:#000000;stroke-width:2.25410008;stroke-linecap:round"
   id="path359"
   d="M 147.94,273.166 C 131.128,244.969 117.241,215.486 108.258,183.786"
   clip-rule="evenodd" />
		<path
   style="fill:none;fill-rule:evenodd;stroke:#000000;stroke-width:1.65810001;stroke-linecap:round"
   id="path361"
   d="M 116.134,240.076 C 126.414,249.503 132.476,264.048 144.362,272.615"
   clip-rule="evenodd" />
		<path
   style="fill:none;fill-rule:evenodd;stroke:#000000;stroke-width:2.3749001;stroke-linecap:round"
   id="path363"
   d="M 364.071,198.425 C 365.954,195.343 365.497,191.729 366.639,188.407"
   clip-rule="evenodd" />
		<path
   style="fill:none;fill-rule:evenodd;stroke:#000000;stroke-width:1.90690005;stroke-linecap:round"
   id="path365"
   d="M 399.258,216.917 C 401.131,215.062 403.172,213.232 405.679,212.294"
   clip-rule="evenodd" />
		<path
   style="fill:none;fill-rule:evenodd;stroke:#000000;stroke-width:2.66199994;stroke-linecap:round"
   id="path367"
   d="M 405.679,212.294 C 407.104,206.96 409.726,201.269 407.991,195.728"
   clip-rule="evenodd" />
		<path
   style="fill:none;fill-rule:evenodd;stroke:#000000;stroke-width:2.08999991;stroke-linecap:round"
   id="path369"
   d="M 407.991,195.728 C 405.466,196.209 403.76,198.585 401.056,198.682"
   clip-rule="evenodd" />
		<path
   style="fill:none;fill-rule:evenodd;stroke:#000000;stroke-width:2.09249997;stroke-linecap:round"
   id="path371"
   d="M 294.724,207.671 C 294.905,206.387 295.304,205.103 295.751,203.818"
   clip-rule="evenodd" />
		<path
   style="fill:none;fill-rule:evenodd;stroke:#000000;stroke-width:2.3749001;stroke-linecap:round"
   id="path373"
   d="M 21.96,227.705 C 21.991,227.191 22.102,226.678 22.217,226.164"
   clip-rule="evenodd" />
		<path
   style="fill:none;fill-rule:evenodd;stroke:#000000;stroke-width:2.02570009;stroke-linecap:round"
   id="path375"
   d="M 29.28,243.5 C 29.808,243.324 30.45,243.037 31.176,242.671 C 32.34,238.35 32.22,233.685 33.004,229.245"
   clip-rule="evenodd" />
		<path
   style="fill:none;fill-rule:evenodd;stroke:#000000;stroke-width:1.87609994;stroke-linecap:round"
   id="path377"
   d="M 85.143,291.658 C 86.54,289.116 86.48,285.79 88.996,283.953"
   clip-rule="evenodd" />
		<path
   style="fill:none;fill-rule:evenodd;stroke:#000000;stroke-width:1.88259995;stroke-linecap:round"
   id="path379"
   d="M 75.125,325.561 C 76.906,320.571 76.52,314.754 78.978,310.151"
   clip-rule="evenodd" />
		<path
   style="fill:none;fill-rule:evenodd;stroke:#000000;stroke-width:2.3749001;stroke-linecap:round"
   id="path381"
   d="M 82.831,290.887 C 82.846,290.116 82.713,289.346 82.574,288.575"
   clip-rule="evenodd" />
	</g>
<path
   style="fill-rule:evenodd;fill:#000000;fill-opacity:1"
   id="path3720"
   d="M 79.749,205.103 L 78.593,204.204 C 78.593,203.69 78.593,203.177 78.593,202.663 C 73.381,199.288 62.826,203.119 56.248,203.434 L 56.633,202.022 L 55.477,201.123 C 58.821,195.992 69.763,198.458 75.51,195.729 C 74.912,195.043 74.682,193.989 74.739,192.647 L 76.700384,192.85021 C 76.700384,192.85021 77.707439,197.9602 72.842886,199.18447 C 81.880022,199.12316 80.274295,203.23109 80.551165,204.50526 L 79.749,205.103 z"
   clip-rule="evenodd"
   sodipodi:nodetypes="cccccccccccc" /><path
   style="fill:#e2c69f;fill-rule:evenodd;stroke:none;stroke-width:1px;stroke-linecap:butt;stroke-linejoin:miter;stroke-opacity:1;fill-opacity:1"
   d="M 116.07127,83.683321 L 114.77871,106.94928 C 114.77871,106.94928 118.08906,106.07129 118.65637,104.88119 C 119.71008,102.67073 116.80164,99.297226 117.10531,96.867363 C 117.286,95.421518 118.9972,93.919083 119.1734,92.472683 C 119.36468,90.90251 117.85523,88.858525 118.13935,87.30247 C 118.27077,86.582733 119.64105,85.935493 119.43191,85.234385 C 119.1145,84.170324 116.07127,83.683321 116.07127,83.683321 z"
   id="path3732"
   sodipodi:nodetypes="ccsssssc" /></svg>