<?xml version="1.0" encoding="UTF-8" standalone="no"?>
<!-- Created with Inkscape (http://www.inkscape.org/) -->

<svg
   xmlns:dc="http://purl.org/dc/elements/1.1/"
   xmlns:cc="http://creativecommons.org/ns#"
   xmlns:rdf="http://www.w3.org/1999/02/22-rdf-syntax-ns#"
   xmlns:svg="http://www.w3.org/2000/svg"
   xmlns="http://www.w3.org/2000/svg"
   xmlns:xlink="http://www.w3.org/1999/xlink"
   xmlns:sodipodi="http://sodipodi.sourceforge.net/DTD/sodipodi-0.dtd"
   xmlns:inkscape="http://www.inkscape.org/namespaces/inkscape"
   width="114.0625"
   height="108.18862"
   id="svg2"
   sodipodi:version="0.32"
   inkscape:version="0.48.1 r9760"
   version="1.0"
   sodipodi:docname="nicubunu_RPG_map_symbols_Tent.svg"
   inkscape:output_extension="org.inkscape.output.svg.inkscape">
  <defs
     id="defs4">
    <linearGradient
       id="linearGradient3203">
      <stop
         style="stop-color:#e3cf6f;stop-opacity:1;"
         offset="0"
         id="stop3205" />
      <stop
         style="stop-color:#faeca9;stop-opacity:1;"
         offset="1"
         id="stop3207" />
    </linearGradient>
    <linearGradient
       id="linearGradient3167">
      <stop
         style="stop-color:#7d9cb7;stop-opacity:1;"
         offset="0"
         id="stop3169" />
      <stop
         style="stop-color:#99c8f0;stop-opacity:1;"
         offset="1"
         id="stop3171" />
    </linearGradient>
    <linearGradient
       id="linearGradient2320">
      <stop
         style="stop-color:#6a3c1d;stop-opacity:1;"
         offset="0"
         id="stop2322" />
      <stop
         style="stop-color:#8f5127;stop-opacity:1;"
         offset="1"
         id="stop2324" />
    </linearGradient>
    <linearGradient
       inkscape:collect="always"
       xlink:href="#linearGradient2320"
       id="linearGradient2474"
       x1="9.5135136"
       y1="82.594589"
       x2="11.58919"
       y2="87.005402"
       gradientUnits="userSpaceOnUse" />
    <linearGradient
       inkscape:collect="always"
       xlink:href="#linearGradient2320"
       id="linearGradient2478"
       x1="46.486488"
       y1="112.3027"
       x2="47.221622"
       y2="116.28108"
       gradientUnits="userSpaceOnUse" />
    <linearGradient
       inkscape:collect="always"
       xlink:href="#linearGradient2320"
       id="linearGradient2482"
       x1="77.75135"
       y1="76.410812"
       x2="79.394592"
       y2="76.410812"
       gradientUnits="userSpaceOnUse" />
    <linearGradient
       inkscape:collect="always"
       xlink:href="#linearGradient2320"
       id="linearGradient2486"
       x1="120.3027"
       y1="82.37838"
       x2="122.29189"
       y2="84.800003"
       gradientUnits="userSpaceOnUse" />
    <linearGradient
       id="linearGradient3108">
      <stop
         id="stop3110"
         offset="0"
         style="stop-color:#c223c2;stop-opacity:1;" />
      <stop
         id="stop3112"
         offset="1"
         style="stop-color:#ff00dc;stop-opacity:1;" />
    </linearGradient>
    <linearGradient
       inkscape:collect="always"
       xlink:href="#linearGradient3108"
       id="linearGradient2586"
       x1="75.660431"
       y1="17.381983"
       x2="78.1353"
       y2="13.316118"
       gradientUnits="userSpaceOnUse" />
    <linearGradient
       inkscape:collect="always"
       xlink:href="#linearGradient3167"
       id="linearGradient3173"
       x1="62.097298"
       y1="58.637836"
       x2="69.881081"
       y2="26.464865"
       gradientUnits="userSpaceOnUse" />
    <linearGradient
       inkscape:collect="always"
       xlink:href="#linearGradient3167"
       id="linearGradient3177"
       x1="50.381355"
       y1="34.573517"
       x2="56.656929"
       y2="52.251186"
       gradientUnits="userSpaceOnUse" />
    <linearGradient
       inkscape:collect="always"
       xlink:href="#linearGradient3167"
       id="linearGradient3183"
       x1="35.88567"
       y1="63.211338"
       x2="53.474953"
       y2="104.40031"
       gradientUnits="userSpaceOnUse" />
    <linearGradient
       inkscape:collect="always"
       xlink:href="#linearGradient3167"
       id="linearGradient3187"
       x1="59.838913"
       y1="103.33965"
       x2="77.251419"
       y2="82.391609"
       gradientUnits="userSpaceOnUse" />
    <linearGradient
       inkscape:collect="always"
       xlink:href="#linearGradient3167"
       id="linearGradient3191"
       x1="76"
       y1="75.5"
       x2="66.6875"
       y2="74.0625"
       gradientUnits="userSpaceOnUse" />
    <linearGradient
       inkscape:collect="always"
       xlink:href="#linearGradient3167"
       id="linearGradient3195"
       x1="89.375"
       y1="66.65625"
       x2="84.75"
       y2="69.15625"
       gradientUnits="userSpaceOnUse" />
    <linearGradient
       inkscape:collect="always"
       xlink:href="#linearGradient3167"
       id="linearGradient3199"
       x1="91.0625"
       y1="88.875"
       x2="104"
       y2="61.0625"
       gradientUnits="userSpaceOnUse" />
    <linearGradient
       inkscape:collect="always"
       xlink:href="#linearGradient3203"
       id="linearGradient3209"
       x1="42.291893"
       y1="55.091892"
       x2="43.329731"
       y2="53.62162"
       gradientUnits="userSpaceOnUse" />
    <linearGradient
       inkscape:collect="always"
       xlink:href="#linearGradient3203"
       id="linearGradient3213"
       x1="75.589188"
       y1="58.464867"
       x2="74.291893"
       y2="55.005405"
       gradientUnits="userSpaceOnUse" />
    <linearGradient
       id="linearGradient3415">
      <stop
         id="stop3417"
         offset="0"
         style="stop-color:#1a1a1a;stop-opacity:1;" />
      <stop
         id="stop3419"
         offset="1"
         style="stop-color:#2b2b2b;stop-opacity:1;" />
    </linearGradient>
    <linearGradient
       inkscape:collect="always"
       xlink:href="#linearGradient3415"
       id="linearGradient3409"
       x1="79.971832"
       y1="78.420883"
       x2="83.904915"
       y2="90.52961"
       gradientUnits="userSpaceOnUse" />
    <filter
       inkscape:collect="always"
       id="filter3460"
       color-interpolation-filters="sRGB">
      <feGaussianBlur
         inkscape:collect="always"
         stdDeviation="2.041311"
         id="feGaussianBlur3462" />
    </filter>
  </defs>
  <sodipodi:namedview
     id="base"
     pagecolor="#ffffff"
     bordercolor="#666666"
     borderopacity="1.0"
     gridtolerance="10000"
     guidetolerance="10"
     objecttolerance="10"
     inkscape:pageopacity="0.0"
     inkscape:pageshadow="2"
     inkscape:zoom="1"
     inkscape:cx="92.09375"
     inkscape:cy="54.126122"
     inkscape:document-units="px"
     inkscape:current-layer="layer1"
     showgrid="false"
     width="744.09px"
     inkscape:window-width="1248"
     inkscape:window-height="929"
     inkscape:window-x="1507"
     inkscape:window-y="0"
     showguides="true"
     inkscape:guide-bbox="true"
     fit-margin-top="0"
     fit-margin-left="0"
     fit-margin-right="0"
     fit-margin-bottom="0"
     inkscape:window-maximized="0" />
  <metadata
     id="metadata7">
    <rdf:RDF>
      <cc:Work
         rdf:about="">
        <dc:format>image/svg+xml</dc:format>
        <dc:type
           rdf:resource="http://purl.org/dc/dcmitype/StillImage" />
      </cc:Work>
    </rdf:RDF>
  </metadata>
  <g
     inkscape:groupmode="layer"
     id="layer2"
     inkscape:label="colors"
     transform="translate(-8.40625,-9.9375)">
    <path
       style="fill:#000000;fill-opacity:0.62745098;fill-rule:evenodd;stroke:none;filter:url(#filter3460)"
       d="m 45.622419,28.693126 c 2.11065,6.866129 12.365874,2.612408 17.713445,5.063295 5.828296,2.605108 12.521549,1.547103 17.188953,-0.631558 -5.038205,0.539202 -11.498497,1.189866 -15.764281,-2.742349 -5.719085,-1.219642 -12.824123,0.354713 -19.138117,-1.689388 z m 2.205586,5.419762 c -1.903003,1.640669 0.622156,7.980543 -0.738397,2.505933 -3.734334,-1.397478 -4.618357,5.144926 -8.120659,6.266512 -5.064038,4.18152 -11.828743,6.974534 -19.025986,8.835966 -3.584817,4.24773 0.863818,10.116152 -0.60699,14.936165 -0.01638,5.465629 0.396088,11.146116 -1.861542,16.131338 -0.08844,5.805466 8.846695,4.58788 13.077681,7.943375 8.672231,3.603458 15.421311,8.967849 22.09827,14.408823 6.931776,2.61817 8.971911,-6.47909 15.739497,-6.083497 C 78.393395,84.315662 66.393327,55.286061 75.269652,94.31954 84.263261,70.075812 56.876607,62.4837 92.383254,90.078319 95.687532,88.285501 105.46447,88.356859 103.62928,84.225716 99.71295,78.793611 94.328323,73.914069 91.115034,68.230246 82.79087,49.527709 76.258427,52.589343 59.350496,43.093992 55.056045,40.475488 51.268053,37.378071 47.828005,34.112888 z m 0.120781,13.155216 c 0.953388,19.984933 0.947958,19.985386 0,0 z m 23.297469,48.360384 c 0.437625,0.875478 0.559156,1.118596 0,0 z"
       id="path3215"
       sodipodi:nodetypes="cccccccccccccccccccccccc"
       inkscape:connector-curvature="0" />
    <path
       style="fill:url(#linearGradient3409);fill-rule:evenodd;stroke:none"
       d="m 74.609321,99.868617 c 0.814601,-7.82652 7.104859,-11.245803 21.282003,-8.317105 L 78.767873,55.469955 c 0,0 -9.050967,43.542489 -8.561725,43.542489 0.489241,0 4.403173,1.100796 4.403173,0.856173 z"
       id="path3407"
       sodipodi:nodetypes="cccsc"
       inkscape:connector-curvature="0" />
    <path
       style="fill:url(#linearGradient2474);fill-opacity:1;fill-rule:evenodd;stroke:none"
       d="m 8.5621622,81.037838 1.7297298,5.621621 0.605405,2.248649 0.605406,-0.08649 0.951351,-0.691892 -1.297297,-6.832433 -1.2972975,-0.345946 -1.2972973,0.08649 z"
       id="path2472"
       inkscape:connector-curvature="0" />
    <path
       style="fill:url(#linearGradient2478);fill-rule:evenodd;stroke:none"
       d="m 44.627027,111.74054 2.162162,-0.86486 0.951352,-0.0865 0.605405,6.48649 -0.951351,0.51891 -1.556757,-2.85405 -1.210811,-3.2 z"
       id="path2476"
       inkscape:connector-curvature="0" />
    <path
       style="fill:url(#linearGradient2482);fill-rule:evenodd;stroke:none"
       d="m 77.837838,56.821622 -0.08649,3.891891 0.172973,14.52973 -0.08649,20.67027 0.864865,1.037838 L 80,96.432432 79.740541,70.832432 80,60.540541 78.443243,55.87027 77.837838,56.821622 z"
       id="path2480"
       inkscape:connector-curvature="0" />
    <path
       style="fill:url(#linearGradient2486);fill-rule:evenodd;stroke:none"
       d="m 120.04324,87.956757 0.17298,-1.643244 0.17297,-1.72973 -0.60541,-3.286486 0.86487,-0.605405 1.64324,0.605405 -0.43243,2.681081 -0.51892,3.978379 -0.77838,0.08649 -0.51892,-0.08649 z"
       id="path2484"
       sodipodi:nodetypes="cccccccccc"
       inkscape:connector-curvature="0" />
    <path
       style="fill:url(#linearGradient2586);fill-rule:evenodd;stroke:none"
       d="m 63.551222,11.062216 3.447146,1.06066 8.485281,0.972272 5.126524,0 2.740039,-0.353554 0.883883,0.972272 -0.707106,2.740039 0.176776,0.53033 1.502602,0.53033 5.038136,0.353554 8.485282,-0.176777 -4.772971,1.325825 -7.159456,1.237437 -2.298097,0.265165 -2.828428,-0.618718 -0.441941,-2.032932 C 81.004879,16.901932 80.35477,16.787936 79.72629,16.630682 l -3.270369,0.353553 -3.800699,0.176777 -4.154252,-0.972272 -4.596195,-1.06066 -0.353553,-4.065864 z"
       id="path2584"
       sodipodi:nodetypes="cccccccccccccccccccccc"
       inkscape:connector-curvature="0" />
    <path
       style="fill:url(#linearGradient3173);fill-opacity:1;fill-rule:evenodd;stroke:none"
       d="m 57.1875,62.0625 4.5625,-1.25 15,-6.0625 11.4375,-5.5625 7.75,-3.8125 -1,-0.875 -6.0625,-3.9375 -8.625,-5.5 -9.0625,-7.5 -6.6875,-9.5 -0.9375,0.3125 -0.125,2.6875 -1.5,10.875 -1.625,13.1875 -2.0625,12.125 -1.0625,4.8125 z"
       id="path2588"
       inkscape:connector-curvature="0" />
    <path
       style="fill:url(#linearGradient3177);fill-rule:evenodd;stroke:none"
       d="m 30.847533,40.053594 6.098796,-1.502602 9.545942,-4.242641 6.187184,-4.419417 4.154253,-3.800699 6.629126,-7.424621 -0.08839,1.59099 -1.149048,10.253048 -1.944544,13.169864 -2.916815,18.296388 -1.856156,-0.972272 -5.480077,-3.535534 -3.800699,-2.209708 -2.386485,-1.679379 -5.568466,-4.154252 -5.568466,-6.187185 -1.502602,-1.502601 -0.353554,-1.679379 z"
       id="path3175"
       inkscape:connector-curvature="0" />
    <path
       style="fill:url(#linearGradient3183);fill-rule:evenodd;stroke:none"
       d="m 21.655145,83.452273 1.149049,-2.298097 3.358757,-9.457554 3.712311,-19.798989 0.707106,-10.253049 0.795495,3.447146 0.618719,2.209708 1.149048,1.679379 1.767767,0.883884 2.740039,-0.265166 1.06066,3.623923 1.590991,2.209708 1.767767,1.325826 1.767767,0.176776 1.59099,0.353554 2.298097,-0.176777 0.265165,2.032932 0.883883,1.944544 1.414214,0.972272 3.270369,0.353553 3.71231,-0.176777 0.353554,1.414214 -0.883884,10.16466 -0.53033,20.064155 -0.618718,16.528622 -4.861359,-6.18719 -7.247845,-9.103995 -5.391689,-5.126525 -5.038136,-3.358757 -6.894291,-2.563262 -4.507806,-0.618718 z"
       id="path3181"
       inkscape:connector-curvature="0" />
    <path
       style="fill:url(#linearGradient3187);fill-rule:evenodd;stroke:none"
       d="m 55.596271,109.88039 0.972272,-29.521709 0.176776,-8.04334 1.237437,-10.429825 c 6.857401,-2.010897 12.959707,-4.776888 19.26866,-7.336233 l -0.707107,3.093592 -3.093592,7.424621 -4.596194,5.303301 -4.065864,2.651651 0.176777,1.237437 2.828427,2.740038 2.474874,4.772971 1.502601,4.949748 1.149049,6.805902 0.743718,4.684583 0.582107,2.121323 -3.447145,0.0884 -5.39169,2.74003 -5.656854,3.8007 -3.623922,3.27037 -0.53033,-0.35355 z"
       id="path3185"
       sodipodi:nodetypes="ccccccccccccccccccccc"
       inkscape:connector-curvature="0" />
    <path
       style="fill:url(#linearGradient3191);fill-opacity:1;fill-rule:evenodd;stroke:none"
       d="m 64.9375,73.5 1.5,1.9375 2.4375,3.5 1.0625,2.4375 1.4375,3.75 0.625,2.9375 0.75,5.1875 0.4375,2.5625 0.5,2.375 0.25,1.3125 1.875,-9.625 1.0625,-8.625 0.6875,-9.6875 0.375,-10.375 -0.25,-6.125 -0.875,1.25 -1.8125,5.875 -3.625,5.875 -4.3125,3.5625 -2.5,1.5 0.375,0.375 z"
       id="path3189"
       inkscape:connector-curvature="0" />
    <path
       style="fill:url(#linearGradient3195);fill-rule:evenodd;stroke:none"
       d="m 78.125,55.125 3.0625,8.5625 2.8125,7.25 2.25,5.1875 1.5625,3.5 2.9375,4.75 4.625,6.1875 1.0625,1.125 -0.5,-3.375 L 92.125,76.625 91.25,73.0625 90.875,70.375 l -0.3125,-2.6875 0.625,-4.375 0.125,-0.75 -1.875,-0.1875 -4.0625,-1.3125 -4.8125,-3.9375 -2.4375,-2 z"
       id="path3193"
       inkscape:connector-curvature="0" />
    <path
       style="fill:url(#linearGradient3199);fill-opacity:1;fill-rule:evenodd;stroke:none"
       d="m 97,91.5625 1.6875,-1.375 4.125,-1.8125 7.25,-1.5625 -5,-10.1875 -4.75,-11.8125 -2.9375,-9.6875 -1.125,-8.5625 -2.5,-0.6875 -5.875,3.1875 -5.9375,3.0625 -4.25,2.3125 0.3125,0.9375 1.5625,1.0625 2.75,2.625 2.8125,1.8125 1.875,1 2.4375,0.625 2,0.125 -0.5,1.5625 -0.3125,2.875 0.25,3.8125 0.75,3.875 1.0625,3.875 3.0625,9.125 0.6875,4.3125 0.5625,-0.5 z"
       id="path3197"
       inkscape:connector-curvature="0" />
    <path
       style="fill:url(#linearGradient3209);fill-opacity:1;fill-rule:evenodd;stroke:none"
       d="m 30.8125,41.6875 0.4375,4.625 1.3125,2.4375 2.3125,1 2.75,-0.125 0.9375,3 1.5625,3 2.3125,1.3125 2.125,0.375 3.25,-0.25 0,1.5 0.875,2.25 2,1.5 2.5625,0.125 3.875,-0.125 L 50.8125,58.125 44.25,54.0625 38.5625,49.6875 32,42.3125 30.8125,41.6875 z"
       id="path3201"
       inkscape:connector-curvature="0" />
    <path
       style="fill:url(#linearGradient3213);fill-rule:evenodd;stroke:none"
       d="m 58.291892,62.010811 2.421622,0.778378 5.189189,0.518919 3.113513,-1.210811 1.72973,-0.691892 1.989189,-1.297297 4.151352,-5.275676 1.643243,-0.172973 3.113513,0.518919 2.940541,-0.259459 2.075676,-0.605406 2.767567,-1.643243 3.978378,-4.237838 1.902703,-2.94054 -6.486486,3.113513 -8.12973,4.324325 -3.545946,1.383783 -3.459459,1.72973 -11.070271,4.497298 -3.459459,1.124324 -0.864865,0.345946 z"
       id="path3211"
       inkscape:connector-curvature="0" />
  </g>
  <g
     inkscape:label="outline"
     inkscape:groupmode="layer"
     id="layer1"
     transform="translate(-8.40625,-9.9375)">
    <path
       style="fill:#000000;fill-opacity:1;fill-rule:evenodd;stroke:none"
       d="m 63.25,9.9375 c 0.174106,2.756997 0.461464,5.658593 -0.0625,8.34375 C 53.135003,31.012911 43.07725,35.800009 30.490541,40.09375 24.243173,54.23874 19.446338,69.992466 11.84375,84 l -0.5625,-2.96875 C 10.064657,80.322626 8.6745963,80.766908 8.40625,81.375 l 2.25,7.59375 c 0.645833,-0.174622 1.291667,0.422116 1.9375,-0.53125 L 12.1875,85.78125 c 1.745914,0.342276 6.887948,-0.950652 9.641723,-2.170439 13.243931,1.252593 20.733132,10.842766 28.327027,20.826689 -0.560794,2.82951 -1.153929,5.65554 -1.8125,8.46875 L 48.1875,110.6875 c -1.383304,-0.21649 -2.594872,0.59743 -3.875,1 L 47,118.0625 c 0.520833,0.042 1.041667,0.2398 1.5625,-0.375 l -0.03125,-1.90625 c 2.4375,-1.65625 2.835984,-4.09674 7.3125,-4.96875 6.172952,-3.59775 10.663136,-11.086796 18.84375,-10 1.460873,-8.856207 2.375641,-17.780081 2.9375,-26.71875 l 0.0625,22.1875 c 0.41119,0.875135 0.935604,0.978214 2.375,0.1875 L 80.03125,61.5625 c 4.621104,12.493241 9.640777,23.965154 16.40625,31 3.80846,-3.536856 7.23152,-4.477697 13.78125,-5.434966 L 119.71875,86.25 120,86.34375 c -0.0446,0.267586 -0.17319,1.142654 -0.21149,1.417905 0.0922,1.119401 1.16601,0.275536 1.77399,0.363345 l 0.90625,-6.96875 c -1.05931,-0.687902 -2.02625,-0.638713 -2.97128,0.15625 L 119.78125,82 c 0.2833,0.768132 0.41862,1.456417 0.4375,2.09375 -0.0303,-0.0024 -0.0632,0.0021 -0.0937,0 -2.23286,-0.150039 -6.79786,-5.90763 -12.5625,-15.1875 C 103.24346,61.953489 99.365073,53.936389 96.59375,47.21875 96.53433,46.580163 96.477528,45.926561 96.4375,45.28125 84.290474,37.052881 71.596143,30.421716 64.53125,17.59375 l -0.25,-2.25 c 4.344112,0.913071 7.473099,3.169247 13.9375,1.75 4.136092,-1.2729 2.341026,1.939836 3.5,3.21875 3.671808,1.731966 11.691074,-1.439594 17.4375,-2.375 l -0.09375,-0.375 c -5.083333,-0.510417 -15.881035,0.979196 -15.25,-1.53125 0.433289,-1.703723 1.367972,-3.708283 -1.59375,-3.375 -6.129534,0.507642 -12.245466,0.08089 -18.375,-1.625 L 63.71875,9.96875 63.25,9.9375 z M 63.875,11.5 c 5.526871,1.705411 11.358178,2.396511 17.5625,1.84375 3.598757,-0.816211 2.430874,0.906049 1.71875,2.8125 -0.866427,3.268463 9.532099,1.383078 14.40625,1.78125 C 92.51374,18.579759 87.455013,20.681129 82.40625,19.875 81.281179,18.614654 81.550792,15.678374 78.3125,16.53125 73.108322,17.806234 68.977026,15.847896 64.25,14.96875 L 63.875,11.5 z m 0.46875,7 c 6.790761,14.041946 19.538751,18.441117 30.59375,26.40625 -11.966249,6.924257 -24.063413,12.655719 -37.0625,16.8125 2.65069,-15.743673 4.164647,-29.047061 5.9375,-43.0625 0.204532,0.04687 0.394487,1.92e-4 0.53125,-0.15625 z M 63.1875,19 C 61.668338,33.67802 60.170746,45.615286 56.875,61.71875 52.975368,59.023174 47.273003,56.133162 42.40625,52.5 37.57138,48.89064 33.611312,44.20848 31.09375,40.59375 43.829386,37.472707 53.480927,32.206252 63.1875,19 z m -32.875,21.96875 c 0.02905,0.04198 0.06433,0.0829 0.09375,0.125 -1.892094,13.858938 -2.800997,27.61059 -8.75,41.75 -2.280438,1.506031 -5.221975,2.988976 -9.53125,2.6875 l -0.1875,-1.0625 0.03125,-0.03125 C 23.109371,63.517578 24.363622,55.216382 30.3125,40.96875 z m 0.96875,1.34375 c 2.639217,3.458521 6.429177,7.204403 10.84375,10.5 l 14.21875,9.34375 C 48.614976,62.901629 47.83016,59.894813 47.875,56.9375 38.829653,57.77116 39.3486,52.978765 37.6875,49.46875 32.248466,50.352488 31.609082,46.61898 31.28125,42.3125 z M 30.75,42.78125 c 0.09107,4.609852 1.475388,8.644271 6.6875,6.875 0.537648,6.315898 4.048371,8.558945 10.125,7.59375 0.477046,7.041724 4.176352,5.61317 9.242736,5.101014 C 55.153626,75.611969 52.858258,89.494976 50.4375,102.875 43.44151,93.374409 34.787728,84.550643 22,83.25 28.744601,69.370567 29.592011,56.3097 30.75,42.78125 z M 95.4375,46.0625 91,61.8125 c -4.39368,1.132166 -8.339902,-3.291967 -12.25,-6.4375 -0.06056,-0.156408 -0.126131,-0.312629 -0.1875,-0.46875 8.162283,1.72895 12.605917,-2.674744 16.875,-8.84375 z m -0.96875,0.25 c -3.887873,3.95421 -5.030065,10.320719 -16.125,7.96875 5.211779,-2.679756 10.766837,-5.324361 16.125,-7.96875 z m 1.25,0.34375 c 0.06342,0.135146 0.124053,0.27101 0.1875,0.40625 1.631049,14.253867 7.52898,26.707242 13.46875,39.4375 -4.47932,0.945778 -8.68354,1.953929 -12.53125,4.5625 C 94.822189,81.677446 88.773778,72.500517 91.5,62.90625 91.5613,62.690524 91.46824,62.391689 91.4375,62.125 92.105659,56.860332 94.287219,51.811865 95.71875,46.65625 z m 1.0625,2.25 c 6.05514,12.894383 12.42128,26.052463 23.1875,36.3125 -2.90397,1.041383 -5.83122,1.864155 -9.5625,1.21875 -6.31603,-12.101836 -12.014769,-24.113946 -13.625,-37.53125 z m -20.4375,6.125 c -1.667378,2.484117 -2.921318,4.511337 -5.59375,6.25 -2.666534,1.462345 -8.077242,2.456783 -12.09375,0.78125 6.026294,-2.037459 11.899335,-4.423114 17.6875,-7.03125 z m 0.34375,0.375 c -1.81563,7.634264 -3.794762,12.505802 -12.375,17.4375 -2.004421,-3.210115 -4.491916,-6.300169 -6.25,-9.65625 0.04763,-0.324398 0.105558,-0.64409 0.15625,-0.96875 0.115632,-0.0387 0.228229,-0.08603 0.34375,-0.125 4.164924,1.815553 8.484392,1.897726 11.375,0.3125 2.618593,-1.436052 4.698069,-4.289558 6.75,-7 z M 79.21875,56.5 c 3.349702,3.268441 6.618181,6.369819 11.6875,6.4375 -1.641653,10.14137 3.102434,18.628421 5.1875,27.6875 C 86.138089,80.905786 83.658813,68.36357 79.21875,56.5 z m -1.78125,0.25 c 0.498886,14.252117 -0.94435,28.506355 -3.5,42.21875 -1.659163,-9.51083 -1.623332,-18.0139 -8.75,-25.46875 7.129636,-3.340332 9.910787,-9.832526 12.25,-16.75 z m 0.875,0.09375 c 0.439891,1.229721 0.898231,2.440855 1.34375,3.65625 L 79.4375,96.1875 c -0.532687,0.659153 -0.583161,0.529708 -1.21875,-0.09375 L 78.0625,65.8125 c 0.117401,-2.987317 0.196244,-5.978232 0.25,-8.96875 z M 57.21875,62.5625 c -1.100314,15.737348 -1.305275,31.451372 -1.96875,47.21875 -1.462981,-2.17568 -2.956665,-4.39823 -4.5625,-6.59375 2.55386,-13.513654 4.241805,-27.048847 6.375,-40.5625 0.05328,-0.01735 0.102991,-0.04509 0.15625,-0.0625 z m 0.8125,1 c 1.795206,3.366491 4.128637,6.362273 6.1875,9.59375 -0.337776,0.481215 -0.146788,1.028526 0.4375,1.625 7.9425,6.247493 6.994943,16.10175 9.1875,24.84375 -6.834663,1.00952 -12.389844,5.79115 -17.90625,9.96875 C 56.948178,94.391432 55.800723,79.125679 58.03125,63.5625 z M 11.146453,81.733277 11.3125,84.53125 c -0.404271,0.179146 -0.882435,0.139094 -1.21875,0.34375 L 9.014527,81.80777 c 0.6482395,-0.191237 1.163506,-0.737071 2.131926,-0.07449 z m 108.921117,0.05777 c 0.44791,-1.230524 1.63097,-0.479931 2.07888,-0.271452 L 121.5,84.4375 c -0.31107,-0.209251 -0.69128,-0.268113 -1.09375,-0.3125 l -0.33868,-2.333953 z M 11.375,84.875 11.5,85.46875 C 11.251104,85.44216 11.007918,85.413533 10.75,85.375 l 0.625,-0.5 z m 110.03125,0.15625 -0.25,1.5 -0.75,-1.0625 1,-0.4375 z M 10.25,85.46875 11.1875,86 l 0.375,-0.09375 0.386993,2.134459 c -0.260416,0.808449 -0.910022,0.320582 -1.170439,0.401521 L 10.25,85.46875 z m 110.03125,0.96875 0.84375,0.28125 -0.15625,1.0625 c -0.52249,0.273314 -0.68519,0.0069 -0.75,-0.40625 l 0.0625,-0.9375 z M 50.375,104.75 c 1.466827,1.97271 2.944652,3.92616 4.46875,5.78125 -3.39993,1.35043 -4.113867,3.16289 -6.28125,4.71875 l -0.125,-1.15625 c 0.722092,-3.11261 1.33287,-6.23114 1.9375,-9.34375 z m -2.819764,6.52432 0.226014,2.63193 -1.6875,0.78125 -1.125,-2.625 c 0.271171,-0.32014 1.753153,-1.42133 2.586486,-0.78818 z m -0.08649,3.44443 -0.6875,1.53125 -0.65625,-1.5 1.34375,-0.0312 z m 0.456757,0.32703 0.07449,0.48547 -0.910642,0.51419 0.836149,-0.99966 z m 0.168243,0.98547 0.125,0.9375 -0.8125,0.6875 -0.59375,-1.34375 1.28125,-0.28125 z"
       id="path2308"
       sodipodi:nodetypes="cccccccccccccccccccccccccccccccccssccccccccccccccccccccccccccccsccccccccccccccccccccccccccccccccccscccccccccccccccscccccccccccccccccccccccccccccccccccccccccccccccccccccccccccccccccccccccccccccc"
       inkscape:connector-curvature="0" />
  </g>
</svg>
